<svg xmlns="http://www.w3.org/2000/svg" xmlns:xlink="http://www.w3.org/1999/xlink" width="1080" zoomAndPan="magnify" viewBox="0 0 810 809.999993" height="1080" preserveAspectRatio="xMidYMid meet" version="1.0"><defs><clipPath id="0e743117bc"><path d="M 73.023438 67.5 L 736.773438 67.5 L 736.773438 732 L 73.023438 732 Z M 73.023438 67.5 " clip-rule="nonzero"/></clipPath></defs><g clip-path="url(#0e743117bc)"><path fill="#38b6ff" d="M 736.972656 399.625 C 736.988281 411.21875 736.394531 422.78125 735.195312 434.3125 C 733.992188 445.847656 732.191406 457.285156 729.785156 468.628906 C 727.382812 479.96875 724.390625 491.15625 720.808594 502.183594 C 717.226562 513.210938 713.078125 524.023438 708.359375 534.613281 C 705.757812 540.46875 702.957031 546.238281 700.027344 551.929688 C 696.9375 557.917969 693.664062 563.804688 690.210938 569.59375 C 686.761719 575.382812 683.136719 581.058594 679.339844 586.625 C 675.539062 592.195312 671.578125 597.640625 667.449219 602.96875 C 663.320312 608.292969 659.03125 613.488281 654.585938 618.554688 C 650.140625 623.617188 645.542969 628.542969 640.800781 633.328125 C 636.054688 638.113281 631.167969 642.75 626.140625 647.238281 C 621.109375 651.726562 615.953125 656.054688 610.660156 660.226562 C 605.367188 664.402344 599.953125 668.410156 594.417969 672.253906 C 588.882812 676.097656 583.234375 679.769531 577.476562 683.265625 C 571.714844 686.765625 565.855469 690.089844 559.894531 693.230469 C 553.933594 696.375 547.878906 699.332031 541.738281 702.105469 C 535.597656 704.878906 529.375 707.464844 523.078125 709.859375 C 516.777344 712.253906 510.410156 714.457031 503.976562 716.460938 C 497.546875 718.46875 491.058594 720.28125 484.511719 721.890625 C 477.96875 723.503906 471.382812 724.917969 464.753906 726.128906 C 458.125 727.339844 451.464844 728.347656 444.773438 729.152344 C 438.082031 729.957031 431.371094 730.558594 424.644531 730.957031 C 417.917969 731.351562 411.183594 731.542969 404.445312 731.53125 C 397.707031 731.515625 390.972656 731.300781 384.246094 730.875 C 377.523438 730.453125 370.816406 729.824219 364.128906 728.992188 C 357.4375 728.160156 350.785156 727.125 344.160156 725.890625 C 337.535156 724.652344 330.953125 723.214844 324.414062 721.578125 C 317.878906 719.9375 311.398438 718.105469 304.972656 716.070312 C 298.546875 714.039062 292.1875 711.8125 285.898438 709.390625 C 279.609375 706.972656 273.398438 704.363281 267.269531 701.566406 C 261.136719 698.765625 255.097656 695.785156 249.148438 692.617188 C 243.199219 689.453125 237.351562 686.109375 231.605469 682.585938 C 225.859375 679.0625 220.226562 675.371094 214.707031 671.503906 C 209.1875 667.640625 203.789062 663.609375 198.511719 659.417969 C 193.238281 655.222656 188.09375 650.871094 183.085938 646.363281 C 178.074219 641.859375 173.207031 637.203125 168.480469 632.398438 C 163.753906 627.59375 159.175781 622.652344 154.75 617.570312 C 154.585938 617.40625 154.460938 617.238281 154.296875 617.074219 C 147.808594 609.613281 141.667969 601.878906 135.871094 593.863281 C 130.078125 585.851562 124.652344 577.597656 119.601562 569.097656 C 114.546875 560.601562 109.882812 551.890625 105.609375 542.976562 C 101.339844 534.058594 97.472656 524.96875 94.015625 515.703125 C 90.558594 506.441406 87.523438 497.039062 84.910156 487.503906 C 82.296875 477.96875 80.117188 468.332031 78.367188 458.601562 C 76.617188 448.867188 75.308594 439.078125 74.4375 429.230469 C 73.566406 419.378906 73.140625 409.511719 73.15625 399.625 C 73.15625 216.3125 221.75 67.714844 405.0625 67.714844 C 588.375 67.714844 736.972656 216.3125 736.972656 399.625 Z M 736.972656 399.625 " fill-opacity="1" fill-rule="nonzero"/></g><path fill="#fcc00a" d="M 700.027344 551.929688 C 650.140625 648.285156 554.441406 717.140625 441.757812 729.511719 C 437.675781 729.964844 433.511719 730.335938 429.390625 730.664062 C 421.347656 731.242188 413.242188 731.53125 405.0625 731.53125 C 399.152344 731.539062 393.246094 731.386719 387.34375 731.078125 C 381.441406 730.769531 375.550781 730.304688 369.675781 729.679688 C 363.796875 729.054688 357.941406 728.273438 352.105469 727.332031 C 346.269531 726.394531 340.464844 725.300781 334.6875 724.050781 C 328.910156 722.800781 323.171875 721.398438 317.46875 719.84375 C 311.765625 718.285156 306.113281 716.578125 300.5 714.71875 C 294.890625 712.859375 289.335938 710.847656 283.832031 708.691406 C 278.328125 706.535156 272.890625 704.230469 267.507812 701.78125 C 262.128906 699.332031 256.820312 696.742188 251.582031 694.007812 C 246.339844 691.273438 241.175781 688.402344 236.089844 685.390625 C 231.003906 682.382812 226 679.238281 221.082031 675.960938 C 216.164062 672.683594 211.339844 669.273438 206.601562 665.738281 C 201.867188 662.199219 197.230469 658.539062 192.691406 654.753906 C 188.152344 650.96875 183.714844 647.066406 179.386719 643.042969 C 175.054688 639.019531 170.835938 634.886719 166.726562 630.636719 C 162.617188 626.386719 158.625 622.03125 154.75 617.570312 C 157.117188 613.664062 159.6875 609.898438 162.457031 606.265625 C 165.226562 602.636719 168.183594 599.164062 171.324219 595.847656 C 174.464844 592.53125 177.769531 589.390625 181.246094 586.429688 C 184.722656 583.46875 188.34375 580.699219 192.117188 578.121094 C 195.886719 575.546875 199.785156 573.179688 203.808594 571.019531 C 207.832031 568.859375 211.957031 566.917969 216.1875 565.199219 C 220.417969 563.480469 224.726562 561.988281 229.117188 560.730469 C 233.507812 559.46875 237.949219 558.445312 242.449219 557.660156 L 610.847656 493.464844 C 612.898438 493.105469 614.960938 492.832031 617.039062 492.644531 C 619.113281 492.457031 621.191406 492.355469 623.277344 492.335938 C 625.359375 492.320312 627.441406 492.386719 629.519531 492.539062 C 631.597656 492.695312 633.664062 492.933594 635.722656 493.257812 C 637.78125 493.582031 639.824219 493.988281 641.847656 494.480469 C 643.875 494.972656 645.875 495.546875 647.851562 496.203125 C 649.828125 496.859375 651.777344 497.59375 653.695312 498.410156 C 655.613281 499.226562 657.492188 500.121094 659.335938 501.089844 C 661.179688 502.0625 662.980469 503.105469 664.738281 504.226562 C 666.496094 505.34375 668.203125 506.535156 669.863281 507.792969 C 671.523438 509.050781 673.128906 510.378906 674.679688 511.769531 C 676.230469 513.160156 677.722656 514.613281 679.15625 516.128906 C 680.585938 517.640625 681.953125 519.210938 683.257812 520.839844 C 684.558594 522.464844 685.792969 524.140625 686.957031 525.871094 C 688.121094 527.597656 689.214844 529.371094 690.234375 531.1875 C 691.25 533.003906 692.195312 534.863281 693.058594 536.757812 Z M 700.027344 551.929688 " fill-opacity="1" fill-rule="nonzero"/><path fill="#56317e" d="M 253.164062 287.039062 C 253.164062 284.949219 253.210938 282.855469 253.308594 280.765625 C 253.40625 278.675781 253.550781 276.585938 253.742188 274.503906 C 253.9375 272.417969 254.179688 270.339844 254.46875 268.269531 C 254.757812 266.195312 255.09375 264.128906 255.480469 262.074219 C 255.867188 260.015625 256.296875 257.96875 256.777344 255.929688 C 257.257812 253.894531 257.785156 251.871094 258.359375 249.855469 C 258.933594 247.84375 259.550781 245.84375 260.21875 243.863281 C 260.882812 241.878906 261.59375 239.910156 262.351562 237.957031 C 263.109375 236.007812 263.910156 234.074219 264.757812 232.160156 C 265.605469 230.246094 266.496094 228.351562 267.429688 226.480469 C 268.363281 224.605469 269.339844 222.757812 270.359375 220.929688 C 271.378906 219.101562 272.441406 217.296875 273.542969 215.519531 C 274.644531 213.742188 275.789062 211.988281 276.972656 210.261719 C 278.15625 208.539062 279.382812 206.839844 280.644531 205.171875 C 281.90625 203.5 283.207031 201.863281 284.546875 200.253906 C 285.882812 198.644531 287.257812 197.066406 288.671875 195.523438 C 290.082031 193.976562 291.527344 192.464844 293.007812 190.988281 C 294.492188 189.507812 296.003906 188.066406 297.554688 186.65625 C 299.101562 185.246094 300.683594 183.875 302.292969 182.539062 C 303.90625 181.207031 305.546875 179.90625 307.21875 178.648438 C 308.890625 177.390625 310.589844 176.167969 312.316406 174.988281 C 314.046875 173.808594 315.800781 172.667969 317.582031 171.566406 C 319.363281 170.46875 321.167969 169.410156 322.996094 168.394531 C 324.828125 167.378906 326.679688 166.40625 328.554688 165.476562 C 330.429688 164.542969 332.324219 163.65625 334.238281 162.816406 C 336.15625 161.972656 338.089844 161.175781 340.042969 160.421875 C 341.996094 159.667969 343.964844 158.960938 345.949219 158.296875 C 347.933594 157.636719 349.933594 157.019531 351.949219 156.449219 C 353.960938 155.882812 355.988281 155.359375 358.027344 154.882812 C 360.0625 154.40625 362.113281 153.976562 364.167969 153.597656 C 366.226562 153.214844 368.292969 152.882812 370.367188 152.597656 C 372.441406 152.3125 374.519531 152.074219 376.601562 151.882812 C 378.6875 151.695312 380.773438 151.554688 382.867188 151.460938 C 384.957031 151.367188 387.046875 151.324219 389.140625 151.328125 C 391.234375 151.332031 393.324219 151.382812 395.417969 151.484375 C 397.507812 151.585938 399.59375 151.734375 401.675781 151.929688 C 403.761719 152.128906 405.839844 152.375 407.910156 152.667969 C 409.984375 152.960938 412.046875 153.300781 414.105469 153.691406 C 416.160156 154.078125 418.207031 154.515625 420.242188 155 C 422.28125 155.480469 424.304688 156.011719 426.316406 156.589844 C 428.328125 157.167969 430.324219 157.789062 432.308594 158.460938 C 434.289062 159.128906 436.257812 159.84375 438.207031 160.605469 C 440.15625 161.363281 442.085938 162.171875 444 163.019531 C 445.914062 163.871094 447.804688 164.761719 449.675781 165.699219 C 451.546875 166.636719 453.394531 167.617188 455.222656 168.640625 C 457.046875 169.664062 458.847656 170.726562 460.625 171.835938 C 462.402344 172.941406 464.152344 174.085938 465.875 175.273438 C 467.601562 176.460938 469.296875 177.6875 470.960938 178.953125 C 472.628906 180.21875 474.265625 181.523438 475.871094 182.863281 C 477.480469 184.207031 479.054688 185.582031 480.597656 186.996094 C 482.140625 188.410156 483.648438 189.859375 485.125 191.34375 C 486.601562 192.828125 488.042969 194.34375 489.445312 195.894531 C 490.851562 197.445312 492.222656 199.027344 493.554688 200.644531 C 494.886719 202.257812 496.179688 203.902344 497.4375 205.574219 C 498.695312 207.25 499.910156 208.949219 501.089844 210.679688 C 502.265625 212.410156 503.402344 214.167969 504.5 215.949219 C 505.597656 217.734375 506.652344 219.539062 507.664062 221.371094 C 508.675781 223.203125 509.644531 225.058594 510.574219 226.933594 C 511.5 228.808594 512.382812 230.707031 513.222656 232.625 C 514.0625 234.539062 514.855469 236.476562 515.605469 238.429688 C 516.355469 240.382812 517.058594 242.355469 517.71875 244.339844 C 518.378906 246.328125 518.988281 248.328125 519.554688 250.34375 C 520.121094 252.359375 520.640625 254.386719 521.113281 256.425781 C 521.585938 258.464844 522.011719 260.511719 522.386719 262.570312 C 520.648438 331.382812 532.523438 422.753906 388.875 422.753906 C 322.871094 422.753906 282.636719 404.125 255.683594 313.203125 C 253.996094 304.5625 253.15625 295.84375 253.164062 287.039062 Z M 437.636719 622.640625 L 429.636719 619.960938 L 411.90625 528.097656 L 411.082031 527.890625 L 333.320312 506.988281 L 272.710938 490.703125 L 272.628906 519.730469 L 242.53125 534.613281 L 242.613281 557.496094 L 333.320312 587.800781 L 389.476562 606.5625 L 429.390625 619.878906 L 429.390625 730.664062 C 433.511719 730.335938 437.675781 729.964844 441.757812 729.511719 L 441.757812 619.34375 Z M 564.421875 459.121094 L 565.449219 422.671875 L 490 477.796875 L 423.203125 526.574219 L 441.839844 619.261719 L 457.632812 606.5625 L 490 580.503906 L 594.601562 496.308594 L 595.011719 469.796875 Z M 564.421875 459.121094 " fill-opacity="1" fill-rule="nonzero"/><path fill="#b84f43" d="M 539.144531 357.980469 C 534.898438 379.417969 522.363281 395.789062 508.921875 399.210938 C 508.703125 404.171875 508.132812 409.09375 507.214844 413.976562 C 506.292969 418.859375 505.03125 423.648438 503.429688 428.351562 C 501.832031 433.054688 499.90625 437.621094 497.65625 442.046875 C 495.402344 446.476562 492.851562 450.722656 490 454.789062 L 490 477.796875 L 418.628906 529.914062 L 333.320312 506.988281 L 333.320312 473.46875 C 329.683594 470.257812 326.285156 466.816406 323.121094 463.140625 C 319.957031 459.464844 317.0625 455.589844 314.429688 451.515625 C 311.800781 447.441406 309.457031 443.207031 307.410156 438.8125 C 305.359375 434.417969 303.621094 429.902344 302.191406 425.269531 C 287.679688 426.011719 270.9375 411.621094 262.488281 389.851562 C 252.757812 364.949219 257.582031 339.796875 273.207031 333.695312 C 275.078125 332.964844 277.015625 332.539062 279.019531 332.417969 C 278.085938 328.632812 277.34375 324.816406 276.792969 320.957031 C 276.242188 317.101562 275.890625 313.226562 275.734375 309.332031 C 275.578125 305.441406 275.617188 301.546875 275.851562 297.660156 C 276.089844 293.769531 276.519531 289.902344 277.148438 286.058594 C 277.773438 282.210938 278.59375 278.410156 279.605469 274.648438 C 280.617188 270.882812 281.816406 267.183594 283.203125 263.542969 C 284.589844 259.898438 286.15625 256.339844 287.902344 252.855469 C 289.652344 249.371094 291.570312 245.988281 293.65625 242.699219 L 469.136719 219.855469 C 472.054688 222.546875 474.824219 225.375 477.449219 228.351562 C 480.074219 231.328125 482.539062 234.429688 484.84375 237.660156 C 487.144531 240.890625 489.277344 244.230469 491.234375 247.683594 C 493.191406 251.132812 494.964844 254.675781 496.558594 258.3125 C 498.148438 261.945312 499.546875 265.652344 500.753906 269.433594 C 501.960938 273.210938 502.96875 277.042969 503.78125 280.925781 C 504.589844 284.8125 505.199219 288.726562 505.601562 292.671875 C 506.007812 296.621094 506.207031 300.578125 506.203125 304.542969 C 506.203125 305.039062 506.203125 305.574219 506.160156 306.070312 C 508.132812 305.164062 510.195312 304.574219 512.347656 304.308594 C 514.5 304.039062 516.644531 304.105469 518.777344 304.503906 C 535.269531 307.800781 544.382812 331.714844 539.144531 357.980469 Z M 539.144531 357.980469 " fill-opacity="1" fill-rule="nonzero"/><path fill="#242156" d="M 522.449219 262.859375 C 511.609375 254.417969 499.953125 247.3125 487.484375 241.542969 C 482.265625 233.558594 476.148438 226.328125 469.136719 219.855469 L 426.007812 225.464844 L 350.925781 235.234375 L 293.65625 242.699219 C 289.632812 248.988281 286.261719 255.605469 283.542969 262.558594 C 280.824219 269.511719 278.808594 276.664062 277.496094 284.011719 C 269.238281 293.011719 261.980469 302.753906 255.726562 313.246094 C 254.007812 304.585938 253.15625 295.847656 253.167969 287.023438 C 253.167969 284.925781 253.21875 282.835938 253.316406 280.742188 C 253.414062 278.648438 253.558594 276.5625 253.753906 274.476562 C 253.945312 272.390625 254.1875 270.3125 254.480469 268.238281 C 254.769531 266.164062 255.109375 264.097656 255.496094 262.039062 C 255.878906 259.980469 256.3125 257.933594 256.796875 255.894531 C 257.277344 253.855469 257.804688 251.828125 258.378906 249.816406 C 258.953125 247.800781 259.574219 245.800781 260.242188 243.816406 C 260.910156 241.832031 261.621094 239.863281 262.378906 237.910156 C 263.136719 235.957031 263.941406 234.023438 264.789062 232.109375 C 265.636719 230.195312 266.527344 228.300781 267.464844 226.425781 C 268.398438 224.550781 269.378906 222.703125 270.398438 220.875 C 271.421875 219.042969 272.484375 217.242188 273.589844 215.460938 C 274.691406 213.683594 275.839844 211.929688 277.023438 210.203125 C 278.210938 208.476562 279.433594 206.78125 280.699219 205.109375 C 281.964844 203.441406 283.265625 201.800781 284.605469 200.191406 C 285.945312 198.582031 287.324219 197.003906 288.738281 195.460938 C 290.152344 193.914062 291.597656 192.402344 293.082031 190.925781 C 294.566406 189.445312 296.082031 188.003906 297.632812 186.59375 C 299.183594 185.1875 300.765625 183.8125 302.378906 182.480469 C 303.992188 181.144531 305.636719 179.847656 307.308594 178.589844 C 308.984375 177.328125 310.683594 176.109375 312.414062 174.929688 C 314.144531 173.75 315.902344 172.609375 317.683594 171.511719 C 319.46875 170.414062 321.277344 169.355469 323.105469 168.339844 C 324.9375 167.324219 326.792969 166.351562 328.671875 165.425781 C 330.546875 164.496094 332.445312 163.609375 334.363281 162.769531 C 336.28125 161.925781 338.214844 161.128906 340.171875 160.378906 C 342.125 159.625 344.097656 158.921875 346.085938 158.257812 C 348.070312 157.597656 350.074219 156.984375 352.089844 156.417969 C 354.105469 155.847656 356.132812 155.328125 358.171875 154.855469 C 360.210938 154.378906 362.261719 153.953125 364.324219 153.574219 C 366.382812 153.195312 368.449219 152.863281 370.523438 152.578125 C 372.597656 152.296875 374.679688 152.0625 376.765625 151.875 C 378.851562 151.6875 380.941406 151.546875 383.035156 151.457031 C 385.125 151.367188 387.21875 151.324219 389.3125 151.332031 C 391.40625 151.339844 393.5 151.394531 395.59375 151.496094 C 397.683594 151.597656 399.773438 151.75 401.855469 151.953125 C 403.941406 152.152344 406.019531 152.398438 408.09375 152.695312 C 410.167969 152.992188 412.234375 153.335938 414.289062 153.726562 C 416.347656 154.121094 418.394531 154.558594 420.429688 155.046875 C 422.46875 155.53125 424.492188 156.066406 426.503906 156.644531 C 428.515625 157.226562 430.515625 157.851562 432.5 158.527344 C 434.480469 159.199219 436.449219 159.917969 438.398438 160.679688 C 440.347656 161.445312 442.28125 162.253906 444.191406 163.105469 C 446.105469 163.960938 447.996094 164.855469 449.867188 165.796875 C 451.738281 166.738281 453.585938 167.722656 455.414062 168.75 C 457.238281 169.773438 459.039062 170.84375 460.816406 171.953125 C 462.589844 173.0625 464.339844 174.210938 466.0625 175.402344 C 467.785156 176.59375 469.480469 177.824219 471.148438 179.09375 C 472.8125 180.363281 474.449219 181.667969 476.054688 183.015625 C 477.660156 184.359375 479.234375 185.742188 480.773438 187.15625 C 482.316406 188.574219 483.824219 190.027344 485.296875 191.515625 C 486.773438 193.003906 488.210938 194.523438 489.617188 196.078125 C 491.019531 197.632812 492.386719 199.21875 493.714844 200.835938 C 495.046875 202.453125 496.339844 204.101562 497.59375 205.777344 C 498.847656 207.453125 500.0625 209.160156 501.238281 210.894531 C 502.414062 212.628906 503.546875 214.386719 504.640625 216.171875 C 505.734375 217.960938 506.785156 219.769531 507.796875 221.605469 C 508.808594 223.4375 509.773438 225.296875 510.699219 227.175781 C 511.621094 229.054688 512.5 230.953125 513.335938 232.875 C 514.175781 234.796875 514.964844 236.734375 515.710938 238.691406 C 516.457031 240.648438 517.160156 242.621094 517.8125 244.609375 C 518.46875 246.597656 519.078125 248.601562 519.640625 250.621094 C 520.203125 252.636719 520.714844 254.667969 521.183594 256.707031 C 521.652344 258.75 522.074219 260.800781 522.449219 262.859375 Z M 317.777344 456.398438 L 272.671875 490.703125 L 333.320312 506.988281 L 333.320312 473.46875 C 327.535156 468.328125 322.351562 462.640625 317.777344 456.398438 Z M 508.921875 399.457031 C 508.695312 404.398438 508.117188 409.300781 507.191406 414.160156 C 506.265625 419.019531 505.003906 423.792969 503.402344 428.472656 C 501.800781 433.152344 499.878906 437.699219 497.632812 442.105469 C 495.386719 446.515625 492.84375 450.742188 490 454.789062 L 490 477.878906 L 565.617188 422.546875 Z M 490 454.75 C 488.9375 456.269531 487.835938 457.765625 486.695312 459.230469 C 485.554688 460.695312 484.378906 462.128906 483.160156 463.53125 C 481.945312 464.933594 480.691406 466.300781 479.40625 467.640625 C 478.117188 468.976562 476.792969 470.277344 475.4375 471.542969 C 474.082031 472.8125 472.691406 474.039062 471.269531 475.234375 C 469.847656 476.429688 468.398438 477.582031 466.914062 478.699219 C 465.433594 479.816406 463.921875 480.894531 462.382812 481.933594 C 460.84375 482.96875 459.277344 483.964844 457.6875 484.921875 C 456.09375 485.875 454.476562 486.789062 452.839844 487.660156 C 451.199219 488.527344 449.539062 489.355469 447.855469 490.136719 C 446.171875 490.917969 444.46875 491.65625 442.746094 492.347656 C 441.023438 493.042969 439.285156 493.6875 437.527344 494.289062 C 435.773438 494.890625 434 495.445312 432.214844 495.953125 C 430.429688 496.460938 428.632812 496.917969 426.824219 497.332031 C 425.011719 497.746094 423.195312 498.109375 421.363281 498.425781 C 419.535156 498.742188 417.699219 499.011719 415.855469 499.234375 C 414.011719 499.453125 412.164062 499.625 410.3125 499.746094 C 408.460938 499.871094 406.609375 499.945312 404.75 499.96875 C 402.894531 499.996094 401.039062 499.96875 399.183594 499.898438 C 397.332031 499.824219 395.480469 499.703125 393.628906 499.535156 C 391.78125 499.363281 389.9375 499.144531 388.101562 498.878906 C 386.265625 498.609375 384.4375 498.292969 382.617188 497.929688 C 380.796875 497.566406 378.988281 497.15625 377.1875 496.695312 C 375.390625 496.238281 373.605469 495.730469 371.832031 495.179688 C 370.0625 494.625 368.304688 494.027344 366.566406 493.378906 C 364.824219 492.734375 363.101562 492.042969 361.398438 491.308594 C 359.695312 490.570312 358.011719 489.789062 356.347656 488.964844 C 354.6875 488.140625 353.046875 487.269531 351.429688 486.359375 C 349.8125 485.449219 348.21875 484.496094 346.652344 483.5 C 345.085938 482.503906 343.546875 481.46875 342.035156 480.390625 C 340.523438 479.316406 339.039062 478.199219 337.585938 477.042969 C 336.132812 475.890625 334.710938 474.695312 333.320312 473.46875 L 333.320312 483.773438 C 334.710938 485.003906 336.132812 486.195312 337.585938 487.351562 C 339.039062 488.503906 340.523438 489.621094 342.035156 490.695312 C 343.546875 491.773438 345.085938 492.808594 346.652344 493.804688 C 348.21875 494.800781 349.8125 495.753906 351.425781 496.664062 C 353.042969 497.574219 354.683594 498.445312 356.347656 499.269531 C 358.007812 500.09375 359.691406 500.875 361.394531 501.609375 C 363.097656 502.347656 364.820312 503.039062 366.5625 503.683594 C 368.300781 504.328125 370.058594 504.929688 371.828125 505.480469 C 373.601562 506.035156 375.386719 506.542969 377.183594 507 C 378.980469 507.460938 380.789062 507.871094 382.609375 508.234375 C 384.429688 508.597656 386.257812 508.914062 388.09375 509.183594 C 389.933594 509.449219 391.773438 509.667969 393.621094 509.839844 C 395.46875 510.011719 397.320312 510.132812 399.175781 510.203125 C 401.03125 510.277344 402.886719 510.300781 404.742188 510.277344 C 406.597656 510.253906 408.449219 510.179688 410.304688 510.058594 C 412.15625 509.933594 414.003906 509.761719 415.84375 509.542969 C 417.6875 509.324219 419.523438 509.054688 421.351562 508.738281 C 423.179688 508.421875 425 508.058594 426.808594 507.644531 C 428.621094 507.234375 430.417969 506.773438 432.203125 506.269531 C 433.988281 505.761719 435.757812 505.207031 437.515625 504.605469 C 439.269531 504.007812 441.011719 503.359375 442.734375 502.667969 C 444.453125 501.976562 446.15625 501.242188 447.839844 500.460938 C 449.523438 499.675781 451.1875 498.851562 452.824219 497.984375 C 454.464844 497.113281 456.082031 496.203125 457.675781 495.25 C 459.265625 494.292969 460.832031 493.300781 462.371094 492.261719 C 463.910156 491.226562 465.421875 490.148438 466.902344 489.035156 C 468.386719 487.917969 469.839844 486.761719 471.261719 485.570312 C 472.683594 484.378906 474.074219 483.148438 475.429688 481.882812 C 476.789062 480.617188 478.109375 479.316406 479.398438 477.980469 C 480.6875 476.644531 481.941406 475.273438 483.15625 473.875 C 484.375 472.472656 485.550781 471.039062 486.691406 469.574219 C 487.835938 468.113281 488.9375 466.621094 490 465.097656 M 347.601562 353.832031 C 351.542969 353.238281 353.984375 347.738281 353.050781 341.546875 C 352.121094 335.355469 348.171875 330.816406 344.230469 331.40625 C 340.292969 332 337.851562 337.5 338.78125 343.691406 C 339.710938 349.886719 343.660156 354.425781 347.601562 353.832031 Z M 445.527344 339.402344 C 449.464844 338.808594 451.90625 333.308594 450.976562 327.117188 C 450.042969 320.925781 446.09375 316.382812 442.15625 316.976562 C 438.214844 317.570312 435.773438 323.070312 436.707031 329.261719 C 437.636719 335.453125 441.585938 339.992188 445.527344 339.402344 Z M 281.699219 342.890625 C 280.738281 343.195312 279.804688 343.578125 278.902344 344.03125 C 278.003906 344.488281 277.140625 345.011719 276.324219 345.605469 C 275.507812 346.199219 274.742188 346.855469 274.03125 347.574219 C 273.316406 348.289062 272.667969 349.058594 272.078125 349.878906 C 271.488281 350.699219 270.96875 351.5625 270.519531 352.46875 C 270.070312 353.375 269.695312 354.308594 269.394531 355.273438 C 269.09375 356.238281 268.875 357.21875 268.730469 358.222656 C 268.589844 359.222656 268.527344 360.226562 268.546875 361.238281 C 268.53125 362.136719 268.601562 363.03125 268.753906 363.917969 C 270.261719 360.722656 272.261719 357.882812 274.761719 355.390625 C 277.261719 352.894531 280.113281 350.902344 283.308594 349.402344 Z M 525.992188 334.066406 C 525.003906 323.59375 516.261719 315.925781 506.449219 316.75 L 506.613281 322.5625 C 507.746094 322.851562 508.859375 323.191406 509.953125 323.59375 C 513.324219 324.769531 516.394531 326.488281 519.15625 328.75 C 521.921875 331.007812 524.214844 333.675781 526.035156 336.746094 C 526.101562 335.851562 526.089844 334.957031 525.992188 334.066406 Z M 403.128906 340.398438 C 402.988281 340.128906 402.804688 339.894531 402.582031 339.691406 C 402.355469 339.488281 402.101562 339.332031 401.820312 339.222656 C 401.535156 339.113281 401.242188 339.058594 400.9375 339.058594 C 400.636719 339.054688 400.34375 339.109375 400.058594 339.214844 C 399.773438 339.320312 399.519531 339.472656 399.292969 339.675781 C 399.0625 339.875 398.878906 340.109375 398.738281 340.375 C 398.597656 340.644531 398.507812 340.929688 398.46875 341.230469 C 398.433594 341.53125 398.449219 341.828125 398.523438 342.125 L 407.179688 378.632812 C 407.308594 379.175781 407.378906 379.726562 407.394531 380.285156 C 407.410156 380.84375 407.367188 381.394531 407.269531 381.945312 C 407.171875 382.496094 407.019531 383.03125 406.8125 383.546875 C 406.601562 384.066406 406.34375 384.558594 406.035156 385.023438 C 405.726562 385.488281 405.371094 385.917969 404.972656 386.308594 C 404.578125 386.699219 404.144531 387.046875 403.675781 387.351562 C 403.207031 387.65625 402.710938 387.90625 402.191406 388.109375 C 401.667969 388.308594 401.132812 388.457031 400.582031 388.546875 L 385.023438 391.125 C 384.441406 391.21875 383.941406 391.472656 383.519531 391.878906 C 383.09375 392.289062 382.824219 392.78125 382.707031 393.355469 C 382.589844 393.929688 382.648438 394.488281 382.878906 395.03125 C 383.105469 395.570312 383.46875 396 383.964844 396.3125 L 398.070312 405.261719 C 398.546875 405.570312 399.050781 405.828125 399.578125 406.042969 C 400.101562 406.253906 400.644531 406.417969 401.199219 406.535156 C 401.757812 406.648438 402.320312 406.710938 402.886719 406.722656 C 403.457031 406.730469 404.019531 406.691406 404.578125 406.597656 C 405.140625 406.503906 405.6875 406.363281 406.222656 406.167969 C 406.753906 405.976562 407.269531 405.734375 407.757812 405.449219 C 408.246094 405.160156 408.707031 404.832031 409.136719 404.460938 C 409.566406 404.085938 409.957031 403.679688 410.3125 403.234375 L 421.652344 389.160156 C 422.21875 388.453125 422.675781 387.683594 423.019531 386.847656 C 423.367188 386.011719 423.585938 385.140625 423.679688 384.242188 C 423.773438 383.34375 423.738281 382.449219 423.574219 381.558594 C 423.410156 380.667969 423.125 379.820312 422.714844 379.011719 Z M 403.128906 340.398438 " fill-opacity="1" fill-rule="nonzero"/></svg>