<svg xmlns="http://www.w3.org/2000/svg" xmlns:xlink="http://www.w3.org/1999/xlink" width="1080" zoomAndPan="magnify" viewBox="0 0 810 809.999993" height="1080" preserveAspectRatio="xMidYMid meet" version="1.0"><defs><clipPath id="283914da48"><path d="M 67.5 66.269531 L 742.5 66.269531 L 742.5 741 L 67.5 741 Z M 67.5 66.269531 " clip-rule="nonzero"/></clipPath></defs><g clip-path="url(#283914da48)"><path fill="#ffde59" d="M 742.246094 403.515625 C 742.246094 408.25 742.144531 412.984375 741.945312 417.714844 C 741.746094 422.449219 741.445312 427.171875 741.046875 431.890625 C 740.648438 436.613281 740.152344 441.320312 739.554688 446.019531 C 738.957031 450.714844 738.261719 455.398438 737.46875 460.070312 C 736.671875 464.738281 735.78125 469.386719 734.789062 474.019531 C 733.800781 478.648438 732.714844 483.257812 731.527344 487.84375 C 730.34375 492.429688 729.0625 496.988281 727.6875 501.519531 C 726.3125 506.050781 724.839844 510.550781 723.273438 515.019531 C 721.707031 519.488281 720.050781 523.925781 718.296875 528.324219 C 716.542969 532.722656 714.699219 537.085938 712.765625 541.40625 C 710.828125 545.730469 708.800781 550.007812 706.683594 554.246094 C 704.570312 558.480469 702.363281 562.671875 700.070312 566.816406 C 697.777344 570.960938 695.398438 575.054688 692.933594 579.097656 C 690.46875 583.140625 687.917969 587.128906 685.285156 591.066406 C 682.652344 595.003906 679.9375 598.882812 677.140625 602.703125 C 674.34375 606.527344 671.46875 610.289062 668.511719 613.988281 C 665.558594 617.6875 662.527344 621.324219 659.417969 624.898438 C 656.308594 628.472656 653.125 631.976562 649.871094 635.417969 C 646.613281 638.855469 643.289062 642.226562 639.890625 645.523438 C 636.492188 648.824219 633.027344 652.050781 629.492188 655.203125 C 625.957031 658.355469 622.359375 661.433594 618.695312 664.433594 C 615.035156 667.433594 611.308594 670.359375 607.523438 673.203125 C 603.734375 676.046875 599.890625 678.8125 595.988281 681.492188 C 592.085938 684.175781 588.128906 686.777344 584.117188 689.292969 C 580.101562 691.808594 576.039062 694.238281 571.925781 696.582031 C 567.808594 698.929688 563.648438 701.183594 559.4375 703.355469 C 555.226562 705.523438 550.976562 707.605469 546.675781 709.59375 C 542.378906 711.585938 538.042969 713.484375 533.664062 715.292969 C 529.289062 717.097656 524.875 718.8125 520.425781 720.4375 C 515.976562 722.058594 511.492188 723.585938 506.980469 725.019531 C 502.464844 726.453125 497.925781 727.789062 493.355469 729.03125 C 488.785156 730.273438 484.191406 731.417969 479.570312 732.464844 C 474.375 733.640625 469.179688 734.6875 463.902344 735.609375 C 452.375 737.640625 440.777344 739.074219 429.101562 739.90625 C 417.425781 740.738281 405.738281 740.960938 394.039062 740.582031 C 382.339844 740.203125 370.695312 739.21875 359.097656 737.632812 C 347.5 736.042969 336.019531 733.863281 324.648438 731.082031 C 319.660156 729.867188 314.675781 728.527344 309.773438 727.105469 C 305.445312 725.828125 301.140625 724.46875 296.867188 723.019531 C 292.589844 721.574219 288.347656 720.039062 284.132812 718.421875 C 279.917969 716.804688 275.738281 715.101562 271.59375 713.316406 C 267.449219 711.53125 263.339844 709.664062 259.269531 707.710938 C 255.199219 705.761719 251.167969 703.730469 247.179688 701.617188 C 243.191406 699.503906 239.246094 697.3125 235.34375 695.042969 C 231.445312 692.773438 227.589844 690.421875 223.785156 687.996094 C 219.976562 685.570312 216.21875 683.070312 212.515625 680.496094 C 208.808594 677.917969 205.15625 675.269531 201.554688 672.546875 C 197.953125 669.824219 194.410156 667.027344 190.921875 664.164062 C 187.4375 661.296875 184.007812 658.363281 180.636719 655.359375 C 177.265625 652.355469 173.957031 649.289062 170.710938 646.152344 C 167.464844 643.015625 164.28125 639.816406 161.164062 636.550781 C 158.046875 633.289062 154.996094 629.964844 152.011719 626.578125 C 149.027344 623.191406 146.109375 619.746094 143.265625 616.242188 C 140.417969 612.742188 137.640625 609.179688 134.9375 605.566406 C 132.234375 601.953125 129.605469 598.285156 127.050781 594.5625 C 124.492188 590.84375 122.011719 587.074219 119.609375 583.253906 C 117.203125 579.433594 114.875 575.566406 112.625 571.65625 C 110.375 567.742188 108.207031 563.785156 106.117188 559.785156 C 104.023438 555.785156 102.015625 551.742188 100.085938 547.660156 C 98.15625 543.582031 96.3125 539.460938 94.546875 535.308594 C 92.785156 531.152344 91.105469 526.964844 89.511719 522.742188 C 87.917969 518.519531 86.40625 514.265625 84.984375 509.980469 C 83.558594 505.699219 82.21875 501.386719 80.96875 497.050781 C 79.71875 492.714844 78.554688 488.355469 77.476562 483.972656 C 76.402344 479.585938 75.414062 475.183594 74.515625 470.761719 C 73.617188 466.335938 72.804688 461.898438 72.085938 457.441406 C 71.363281 452.984375 70.730469 448.515625 70.191406 444.035156 C 69.648438 439.554688 69.199219 435.0625 68.835938 430.566406 C 68.476562 426.066406 68.203125 421.5625 68.023438 417.050781 C 67.84375 412.539062 67.753906 408.027344 67.753906 403.515625 C 67.753906 217.253906 218.738281 66.269531 405 66.269531 C 591.261719 66.269531 742.246094 217.253906 742.246094 403.515625 Z M 742.246094 403.515625 " fill-opacity="1" fill-rule="nonzero"/></g><path fill="#ed6e0f" d="M 472.558594 151.972656 C 475.84375 157.273438 477.265625 163.511719 480.085938 169.070312 C 480.660156 170.460938 481.574219 171.578125 482.816406 172.425781 C 485.136719 173.746094 488.003906 172.617188 490.589844 171.953125 C 492.265625 171.558594 493.964844 171.359375 495.683594 171.351562 C 497.40625 171.34375 499.105469 171.527344 500.785156 171.90625 C 502.460938 172.285156 504.078125 172.847656 505.628906 173.59375 C 507.179688 174.335938 508.625 175.246094 509.972656 176.320312 C 511.300781 177.414062 512.511719 178.621094 513.605469 179.949219 C 514.699219 181.277344 515.65625 182.695312 516.472656 184.210938 C 517.289062 185.722656 517.953125 187.300781 518.464844 188.941406 C 518.972656 190.585938 519.320312 192.261719 519.503906 193.972656 C 520.179688 199.910156 519.65625 207.292969 524.820312 210.308594 C 528.414062 212.40625 532.945312 211.078125 537.097656 211.382812 C 545.886719 212.023438 552.550781 220.351562 554.273438 228.992188 C 555.996094 237.636719 553.914062 246.535156 551.84375 255.101562 C 555.152344 265.914062 566.933594 268.707031 571.234375 276.859375 C 577.753906 289.222656 563.710938 305.726562 570.996094 317.65625 C 572.496094 320.113281 574.777344 322.035156 576.210938 324.53125 C 579.695312 330.609375 577.390625 338.253906 574.804688 344.765625 C 572.21875 351.277344 569.402344 358.566406 572.0625 365.046875 C 573.871094 369.457031 578 372.734375 579.226562 377.339844 C 581.574219 386.148438 572.363281 394.394531 573 403.492188 C 573.390625 409.027344 577.378906 413.742188 578.144531 419.238281 C 579.6875 430.34375 567.890625 441.308594 572.371094 451.585938 C 573.292969 453.699219 574.847656 455.503906 575.667969 457.660156 C 577.246094 461.800781 575.878906 466.457031 574.082031 470.503906 C 571.460938 476.398438 568.019531 481.757812 563.75 486.59375 C 563.210938 488.140625 562.851562 489.730469 562.664062 491.359375 C 562.480469 492.988281 562.476562 494.617188 562.648438 496.246094 C 562.824219 497.875 563.175781 499.464844 563.703125 501.015625 C 564.226562 502.570312 564.917969 504.042969 565.769531 505.445312 C 567.394531 507.59375 568.878906 509.835938 570.21875 512.175781 C 570.679688 513.273438 571.011719 514.414062 571.214844 515.585938 C 571.421875 516.761719 571.492188 517.945312 571.429688 519.136719 C 571.371094 520.328125 571.175781 521.496094 570.851562 522.644531 C 570.527344 523.792969 570.082031 524.890625 569.511719 525.9375 C 568.347656 528.027344 566.933594 529.929688 565.269531 531.648438 C 563.609375 533.367188 561.753906 534.84375 559.703125 536.078125 C 556.695312 538.019531 553.175781 539.898438 552.070312 543.304688 C 551.238281 545.859375 552.011719 548.621094 552.628906 551.238281 C 553.933594 556.78125 554.285156 563.292969 550.417969 567.476562 C 546.4375 571.785156 539.667969 571.804688 533.898438 570.75 C 529.113281 569.875 523.894531 568.058594 521.757812 563.691406 C 518.992188 558.027344 522.539062 550.238281 518.476562 545.421875 C 514.554688 540.773438 506.835938 542.683594 501.484375 539.792969 C 500.746094 539.386719 500.070312 538.894531 499.449219 538.320312 C 498.832031 537.746094 498.292969 537.105469 497.832031 536.402344 C 497.371094 535.695312 497 534.945312 496.722656 534.148438 C 496.445312 533.351562 496.265625 532.535156 496.1875 531.695312 C 495.984375 529.226562 496.679688 526.777344 496.746094 524.300781 C 496.746094 523.5 496.683594 522.703125 496.558594 521.910156 C 496.433594 521.117188 496.246094 520.34375 495.992188 519.582031 C 495.742188 518.820312 495.429688 518.082031 495.058594 517.371094 C 494.691406 516.660156 494.265625 515.984375 493.785156 515.339844 C 493.308594 514.695312 492.777344 514.097656 492.203125 513.539062 C 491.625 512.980469 491.007812 512.472656 490.351562 512.015625 C 489.695312 511.554688 489.003906 511.152344 488.28125 510.804688 C 487.558594 510.460938 486.8125 510.171875 486.042969 509.945312 C 483.203125 509.179688 479.996094 509.21875 477.675781 507.414062 C 474.898438 505.253906 474.425781 501.273438 474.566406 497.757812 C 474.808594 491.691406 476.144531 485.875 478.574219 480.3125 C 478.660156 480.847656 308.558594 479.804688 308.558594 479.804688 C 309.972656 486.5 320.632812 498.53125 323.515625 504.734375 C 326.402344 510.941406 328.941406 517.566406 328.664062 524.402344 C 328.386719 531.242188 324.640625 538.339844 318.21875 540.695312 C 314.890625 541.914062 311.140625 541.800781 307.953125 543.347656 C 302.476562 546.007812 300.3125 552.648438 299.496094 558.679688 C 299.15625 561.203125 298.898438 563.890625 297.371094 565.929688 C 293.773438 570.726562 285.457031 568.421875 282.359375 563.285156 C 279.257812 558.152344 279.679688 551.738281 279.800781 545.742188 C 279.921875 539.746094 279.371094 533.089844 275.035156 528.945312 C 274.589844 528.453125 274.046875 528.140625 273.398438 528.007812 C 272.851562 528.03125 272.347656 528.183594 271.878906 528.460938 C 271.410156 528.738281 271.03125 529.113281 270.75 529.578125 C 269.984375 530.542969 269.285156 531.554688 268.652344 532.613281 C 268.023438 533.671875 267.464844 534.769531 266.980469 535.902344 C 266.5 537.035156 266.09375 538.195312 265.761719 539.382812 C 265.433594 540.574219 265.1875 541.777344 265.019531 543 C 264.851562 544.21875 264.765625 545.445312 264.761719 546.679688 C 264.757812 547.910156 264.835938 549.136719 264.996094 550.359375 C 265.15625 551.582031 265.394531 552.789062 265.71875 553.976562 C 266.039062 555.167969 266.4375 556.332031 266.914062 557.46875 C 269.089844 562.46875 272.734375 566.722656 274.90625 571.722656 C 277.078125 576.722656 277.40625 583.226562 273.488281 587.019531 C 272.191406 588.269531 270.554688 589.109375 269.214844 590.3125 C 261.277344 597.464844 267.640625 612.648438 260.019531 620.144531 C 254.371094 625.695312 244.84375 623.273438 237.9375 619.394531 C 230.292969 615.101562 222.617188 607.25 224.941406 598.796875 C 226.117188 594.527344 229.589844 591.371094 232.359375 587.917969 C 235.132812 584.464844 237.351562 579.757812 235.527344 575.726562 C 233.304688 570.8125 226.390625 569.675781 223.71875 564.992188 C 222.652344 562.890625 222.269531 560.667969 222.5625 558.324219 C 223.152344 550.9375 227.394531 544.429688 230.273438 537.601562 C 233.152344 530.769531 234.464844 522.214844 229.789062 516.464844 C 226.390625 526.78125 219.132812 540.785156 206.996094 539.664062 C 204.164062 539.402344 201.355469 538.253906 198.558594 538.753906 C 191.4375 540.03125 190.179688 549.882812 184.832031 554.753906 C 177.292969 561.628906 163.835938 555.082031 161.132812 545.246094 C 158.429688 535.414062 163.3125 525.046875 169.570312 516.996094 C 175.828125 508.941406 183.644531 501.964844 188.324219 492.902344 C 193.003906 483.839844 193.609375 471.464844 186.152344 464.507812 C 183.59375 462.121094 180.320312 460.582031 177.859375 458.09375 C 170.488281 450.613281 173.199219 437.867188 178.703125 428.921875 C 182.75 422.34375 188.25 414.757812 185.089844 407.710938 C 182.71875 402.417969 176.453125 400.226562 172.390625 396.089844 C 162.605469 386.125 168.457031 369.171875 176.824219 357.988281 C 182.316406 350.644531 189.085938 342.53125 187.382812 333.515625 C 186.433594 328.492188 182.886719 324.171875 182.359375 319.085938 C 180.964844 305.613281 199.75 298.902344 203.875 285.996094 C 207.554688 274.484375 198.511719 261.113281 203.921875 250.304688 C 208.824219 240.507812 222.253906 239.160156 230.691406 232.171875 C 243.632812 221.457031 243.324219 198.828125 258.148438 190.917969 C 265.523438 186.980469 274.417969 188.082031 282.773438 187.785156 C 291.128906 187.492188 300.738281 184.621094 303.683594 176.792969 C 305.214844 172.726562 304.5625 168.136719 305.742188 163.953125 C 308.71875 153.394531 321.554688 149.410156 332.503906 148.714844 C 343.453125 148.019531 355.644531 148.472656 363.839844 141.179688 C 369.222656 136.390625 371.753906 129.089844 376.859375 124.011719 C 385.0625 115.847656 398.617188 115.136719 409.285156 119.613281 C 419.957031 124.089844 428.242188 132.804688 435.457031 141.851562 C 450.851562 136.023438 465.785156 141.046875 472.558594 151.972656 Z M 472.558594 151.972656 " fill-opacity="1" fill-rule="nonzero"/><path fill="#b84f43" d="M 533.53125 322.703125 C 533.546875 333.207031 532.394531 343.585938 530.066406 353.832031 C 527.742188 364.078125 524.300781 373.9375 519.746094 383.40625 L 519.707031 383.53125 L 485.855469 464.804688 C 483.808594 470.144531 481.324219 475.269531 478.398438 480.179688 L 479.363281 494.800781 L 484.179688 566.105469 C 453.050781 599.367188 329.089844 602.679688 301.941406 566.105469 L 307.679688 491.242188 L 308.558594 479.804688 C 306.285156 475.992188 304.289062 472.039062 302.570312 467.949219 C 302.445312 467.65625 267.671875 383.867188 267.671875 383.867188 C 260.910156 369.996094 256.59375 355.402344 254.726562 340.085938 C 256.953125 338.789062 259.355469 338.1875 261.933594 338.285156 L 288.410156 339.164062 C 289.164062 339.191406 289.917969 339.15625 290.667969 339.054688 C 291.421875 338.957031 292.15625 338.796875 292.882812 338.574219 C 293.605469 338.351562 294.304688 338.070312 294.980469 337.730469 C 295.660156 337.390625 296.300781 336.996094 296.914062 336.550781 C 297.523438 336.101562 298.09375 335.609375 298.625 335.066406 C 299.152344 334.523438 299.632812 333.941406 300.0625 333.320312 C 300.496094 332.695312 300.871094 332.042969 301.191406 331.359375 C 301.515625 330.671875 301.777344 329.964844 301.984375 329.238281 L 308.8125 305.273438 C 309.023438 304.519531 309.300781 303.792969 309.636719 303.085938 C 309.976562 302.378906 310.371094 301.710938 310.828125 301.074219 C 311.28125 300.4375 311.789062 299.84375 312.34375 299.292969 C 312.902344 298.742188 313.5 298.246094 314.144531 297.800781 C 314.789062 297.355469 315.464844 296.96875 316.175781 296.640625 C 316.882812 296.308594 317.617188 296.042969 318.371094 295.84375 C 319.128906 295.640625 319.894531 295.503906 320.675781 295.433594 C 321.453125 295.363281 322.234375 295.363281 323.011719 295.429688 L 339.9375 296.726562 C 340.78125 296.796875 341.621094 296.785156 342.464844 296.695312 C 343.304688 296.609375 344.128906 296.441406 344.9375 296.203125 C 345.75 295.960938 346.527344 295.644531 347.28125 295.257812 C 348.03125 294.871094 348.742188 294.417969 349.40625 293.898438 C 350.074219 293.378906 350.6875 292.804688 351.246094 292.171875 C 351.808594 291.539062 352.304688 290.859375 352.738281 290.132812 C 353.171875 289.40625 353.535156 288.648438 353.824219 287.855469 C 354.117188 287.0625 354.335938 286.25 354.476562 285.414062 L 357.617188 266.648438 C 357.761719 265.78125 357.988281 264.9375 358.292969 264.113281 C 358.601562 263.289062 358.984375 262.503906 359.445312 261.753906 C 359.902344 261.007812 360.429688 260.308594 361.023438 259.660156 C 361.617188 259.015625 362.269531 258.429688 362.976562 257.910156 C 363.683594 257.386719 364.433594 256.9375 365.226562 256.5625 C 366.023438 256.1875 366.84375 255.890625 367.695312 255.671875 C 368.546875 255.457031 369.410156 255.324219 370.289062 255.273438 C 371.164062 255.222656 372.039062 255.257812 372.910156 255.378906 L 386.777344 257.261719 C 387.242188 257.324219 387.710938 257.363281 388.183594 257.375 C 388.652344 257.390625 389.125 257.378906 389.59375 257.34375 C 390.0625 257.308594 390.53125 257.25 390.992188 257.167969 C 391.457031 257.082031 391.914062 256.976562 392.367188 256.84375 C 392.820312 256.714844 393.265625 256.5625 393.703125 256.382812 C 394.140625 256.207031 394.566406 256.007812 394.980469 255.789062 C 395.398438 255.566406 395.800781 255.328125 396.191406 255.0625 C 396.585938 254.800781 396.960938 254.519531 397.324219 254.21875 C 397.683594 253.917969 398.03125 253.597656 398.359375 253.261719 C 398.6875 252.925781 399 252.570312 399.292969 252.203125 C 399.585938 251.832031 399.859375 251.449219 400.109375 251.050781 C 400.363281 250.65625 400.597656 250.246094 400.808594 249.824219 C 401.019531 249.402344 401.207031 248.972656 401.371094 248.53125 C 401.539062 248.089844 401.683594 247.640625 401.800781 247.1875 C 401.921875 246.730469 402.019531 246.269531 402.089844 245.804688 C 402.164062 245.339844 402.210938 244.871094 402.234375 244.402344 L 402.738281 233.675781 C 402.761719 233.160156 402.816406 232.648438 402.898438 232.140625 C 402.980469 231.632812 403.089844 231.128906 403.230469 230.632812 C 403.371094 230.136719 403.535156 229.648438 403.730469 229.171875 C 403.925781 228.691406 404.148438 228.226562 404.394531 227.777344 C 404.640625 227.324219 404.914062 226.886719 405.210938 226.464844 C 405.507812 226.042969 405.828125 225.640625 406.167969 225.253906 C 406.511719 224.867188 406.875 224.503906 407.257812 224.160156 C 407.644531 223.816406 408.046875 223.492188 408.464844 223.195312 C 408.886719 222.894531 409.324219 222.621094 409.773438 222.371094 C 410.226562 222.125 410.6875 221.898438 411.167969 221.703125 C 411.644531 221.507812 412.128906 221.335938 412.625 221.195312 C 413.121094 221.054688 413.625 220.941406 414.132812 220.855469 C 414.640625 220.773438 415.152344 220.714844 415.667969 220.691406 C 416.183594 220.664062 416.699219 220.664062 417.210938 220.699219 C 417.726562 220.730469 418.238281 220.789062 418.746094 220.878906 C 419.253906 220.96875 419.753906 221.085938 420.25 221.234375 L 429.296875 223.914062 C 430.136719 224.164062 430.988281 224.328125 431.855469 224.414062 C 432.726562 224.5 433.59375 224.5 434.460938 224.417969 C 435.332031 224.335938 436.183594 224.171875 437.023438 223.925781 C 437.859375 223.679688 438.667969 223.355469 439.441406 222.957031 C 440.21875 222.558594 440.949219 222.085938 441.632812 221.546875 C 442.320312 221.003906 442.945312 220.40625 443.515625 219.746094 C 444.085938 219.082031 444.589844 218.375 445.023438 217.617188 C 445.457031 216.859375 445.816406 216.070312 446.097656 215.242188 L 452.757812 195.847656 C 455.757812 197.246094 458.703125 198.746094 461.597656 200.355469 C 464.488281 201.964844 467.320312 203.671875 470.089844 205.480469 C 472.863281 207.289062 475.566406 209.191406 478.203125 211.195312 C 480.839844 213.195312 483.398438 215.285156 485.886719 217.46875 C 488.375 219.648438 490.78125 221.917969 493.109375 224.269531 C 495.433594 226.625 497.675781 229.054688 499.828125 231.566406 C 501.984375 234.082031 504.046875 236.664062 506.015625 239.324219 C 507.988281 241.980469 509.863281 244.707031 511.640625 247.5 C 513.417969 250.289062 515.09375 253.140625 516.667969 256.050781 C 518.242188 258.960938 519.710938 261.921875 521.078125 264.9375 C 522.441406 267.953125 523.699219 271.011719 524.847656 274.113281 C 525.992188 277.21875 527.03125 280.359375 527.953125 283.535156 C 528.878906 286.714844 529.691406 289.917969 530.386719 293.15625 C 531.085938 296.390625 531.667969 299.644531 532.132812 302.921875 C 532.601562 306.195312 532.949219 309.484375 533.183594 312.785156 C 533.417969 316.085938 533.53125 319.390625 533.53125 322.703125 Z M 533.53125 322.703125 " fill-opacity="1" fill-rule="nonzero"/><path fill="#242156" d="M 671.152344 610.636719 C 667.121094 615.820312 662.941406 620.878906 658.613281 625.8125 C 654.285156 630.75 649.816406 635.558594 645.210938 640.230469 C 640.601562 644.90625 635.859375 649.445312 630.988281 653.84375 C 626.113281 658.242188 621.117188 662.496094 615.996094 666.601562 C 610.875 670.710938 605.636719 674.664062 600.285156 678.464844 C 594.933594 682.265625 589.472656 685.90625 583.910156 689.390625 C 578.34375 692.875 572.683594 696.191406 566.925781 699.34375 C 561.164062 702.496094 555.320312 705.476562 549.386719 708.285156 C 543.453125 711.097656 537.445312 713.730469 531.359375 716.191406 C 525.269531 718.652344 519.117188 720.929688 512.898438 723.03125 C 506.679688 725.132812 500.402344 727.050781 494.070312 728.78125 C 487.738281 730.515625 481.363281 732.066406 474.941406 733.425781 C 468.519531 734.789062 462.0625 735.960938 455.570312 736.945312 C 449.082031 737.929688 442.566406 738.726562 436.03125 739.328125 C 429.492188 739.933594 422.945312 740.347656 416.382812 740.570312 C 409.824219 740.789062 403.261719 740.820312 396.699219 740.660156 C 390.136719 740.5 383.582031 740.144531 377.039062 739.601562 C 370.5 739.058594 363.976562 738.324219 357.476562 737.398438 C 350.980469 736.472656 344.511719 735.359375 338.078125 734.058594 C 331.644531 732.757812 325.253906 731.269531 318.90625 729.59375 C 312.558594 727.917969 306.265625 726.058594 300.027344 724.015625 C 293.785156 721.972656 287.613281 719.75 281.503906 717.347656 C 275.394531 714.941406 269.359375 712.363281 263.402344 709.609375 C 257.445312 706.851562 251.570312 703.925781 245.785156 700.824219 C 239.996094 697.726562 234.304688 694.460938 228.707031 691.03125 C 223.109375 687.601562 217.617188 684.007812 212.230469 680.257812 C 206.84375 676.507812 201.570312 672.601562 196.410156 668.542969 C 191.253906 664.480469 186.214844 660.273438 181.300781 655.921875 C 176.386719 651.566406 171.605469 647.074219 166.953125 642.441406 C 162.304688 637.808594 157.792969 633.042969 153.417969 628.148438 C 149.046875 623.253906 144.820312 618.234375 140.738281 613.089844 C 136.660156 607.945312 132.734375 602.6875 128.960938 597.316406 L 140.273438 581.230469 C 147.632812 570.722656 155.914062 561.003906 165.113281 552.070312 C 170.4375 557.601562 179.273438 559.820312 184.847656 554.75 C 190.167969 549.890625 191.425781 540.046875 198.546875 538.75 C 201.351562 538.246094 204.160156 539.417969 207.007812 539.671875 C 219.117188 540.800781 226.40625 526.765625 229.800781 516.460938 C 234.449219 522.199219 233.152344 530.789062 230.261719 537.617188 C 227.410156 544.445312 223.136719 550.941406 222.550781 558.3125 C 222.269531 560.652344 222.660156 562.871094 223.726562 564.972656 C 226.40625 569.667969 233.320312 570.796875 235.539062 575.742188 C 237.339844 579.761719 235.121094 584.453125 232.355469 587.933594 C 229.589844 591.367188 226.113281 594.507812 224.941406 598.78125 C 222.636719 607.246094 230.300781 615.078125 237.925781 619.394531 C 244.839844 623.289062 254.390625 625.679688 260.003906 620.148438 C 267.628906 612.648438 261.261719 597.484375 269.222656 590.320312 C 270.5625 589.105469 272.195312 588.265625 273.496094 587.011719 C 277.390625 583.238281 277.097656 576.703125 274.917969 571.71875 C 272.742188 566.734375 269.097656 562.460938 266.917969 557.476562 C 266.441406 556.339844 266.042969 555.175781 265.722656 553.984375 C 265.402344 552.792969 265.160156 551.589844 265 550.367188 C 264.839844 549.144531 264.761719 547.917969 264.765625 546.683594 C 264.769531 545.453125 264.855469 544.226562 265.023438 543.003906 C 265.1875 541.785156 265.4375 540.578125 265.761719 539.390625 C 266.089844 538.203125 266.496094 537.042969 266.976562 535.90625 C 267.460938 534.773438 268.015625 533.675781 268.644531 532.617188 C 269.269531 531.554688 269.964844 530.542969 270.730469 529.574219 C 271.019531 529.109375 271.402344 528.742188 271.878906 528.464844 C 272.351562 528.191406 272.863281 528.042969 273.410156 528.023438 C 274.070312 528.128906 274.613281 528.4375 275.042969 528.945312 C 279.359375 533.09375 279.90625 539.753906 279.820312 545.746094 C 279.695312 551.734375 279.277344 558.144531 282.375 563.296875 C 285.476562 568.410156 293.769531 570.714844 297.375 565.9375 C 298.882812 563.886719 299.132812 561.203125 299.511719 558.691406 C 299.890625 554.625 301.175781 550.867188 303.363281 547.421875 L 301.941406 566.105469 C 329.089844 602.679688 453.050781 599.371094 484.179688 566.105469 L 480.285156 508.710938 C 482.125 509.296875 484.179688 509.421875 486.023438 509.925781 C 486.792969 510.152344 487.539062 510.4375 488.265625 510.785156 C 488.988281 511.132812 489.679688 511.535156 490.339844 511.996094 C 491 512.453125 491.617188 512.960938 492.195312 513.519531 C 492.769531 514.078125 493.300781 514.679688 493.78125 515.324219 C 494.261719 515.964844 494.6875 516.644531 495.058594 517.355469 C 495.429688 518.070312 495.738281 518.804688 495.992188 519.570312 C 496.242188 520.332031 496.433594 521.109375 496.558594 521.902344 C 496.6875 522.695312 496.75 523.492188 496.746094 524.296875 C 496.664062 526.765625 495.992188 529.238281 496.203125 531.710938 C 496.273438 532.550781 496.449219 533.367188 496.722656 534.164062 C 496.996094 534.960938 497.363281 535.710938 497.824219 536.417969 C 498.285156 537.125 498.824219 537.761719 499.445312 538.332031 C 500.0625 538.90625 500.742188 539.394531 501.480469 539.796875 C 506.84375 542.6875 514.550781 540.757812 518.492188 545.410156 C 522.554688 550.226562 518.992188 558.019531 521.757812 563.675781 C 523.894531 568.074219 529.132812 569.875 533.90625 570.753906 C 539.6875 571.804688 546.433594 571.804688 550.414062 567.488281 C 554.269531 563.296875 553.933594 556.761719 552.632812 551.234375 C 552.007812 548.636719 551.25 545.871094 552.089844 543.316406 C 553.179688 539.878906 556.699219 538.035156 559.714844 536.066406 C 563.167969 533.953125 566.042969 531.230469 568.34375 527.898438 C 578.285156 532.449219 587.910156 537.589844 597.222656 543.320312 C 606.535156 549.046875 615.464844 555.316406 624.011719 562.136719 C 632.558594 568.953125 640.660156 576.265625 648.3125 584.070312 C 655.96875 591.875 663.121094 600.117188 669.769531 608.796875 Z M 478.398438 480.179688 C 477.304688 482.007812 476.15625 483.800781 474.949219 485.554688 C 473.742188 487.308594 472.476562 489.023438 471.160156 490.695312 C 469.839844 492.367188 468.46875 493.996094 467.042969 495.582031 C 465.621094 497.164062 464.144531 498.703125 462.621094 500.191406 C 461.097656 501.679688 459.527344 503.117188 457.914062 504.503906 C 456.296875 505.890625 454.636719 507.222656 452.933594 508.503906 C 451.230469 509.785156 449.488281 511.007812 447.707031 512.171875 C 445.925781 513.339844 444.105469 514.449219 442.253906 515.496094 C 440.398438 516.546875 438.515625 517.535156 436.597656 518.464844 C 434.679688 519.390625 432.734375 520.253906 430.761719 521.054688 C 428.785156 521.859375 426.789062 522.59375 424.769531 523.265625 C 422.746094 523.941406 420.707031 524.546875 418.644531 525.085938 C 416.585938 525.625 414.511719 526.097656 412.417969 526.503906 C 410.328125 526.910156 408.226562 527.25 406.113281 527.519531 C 404 527.789062 401.882812 527.992188 399.753906 528.125 C 397.628906 528.257812 395.5 528.320312 393.371094 528.316406 C 391.242188 528.3125 389.113281 528.238281 386.988281 528.097656 C 384.863281 527.953125 382.746094 527.742188 380.632812 527.464844 C 378.523438 527.183594 376.421875 526.835938 374.332031 526.421875 C 372.242188 526.003906 370.167969 525.523438 368.113281 524.972656 C 366.054688 524.425781 364.015625 523.808594 361.996094 523.128906 C 359.980469 522.445312 357.984375 521.699219 356.015625 520.890625 C 354.046875 520.082031 352.105469 519.207031 350.191406 518.269531 C 348.277344 517.335938 346.394531 516.339844 344.546875 515.28125 C 342.699219 514.222656 340.886719 513.105469 339.109375 511.933594 C 337.332031 510.757812 335.59375 509.527344 333.898438 508.238281 C 332.203125 506.953125 330.546875 505.613281 328.9375 504.21875 C 327.328125 502.824219 325.761719 501.378906 324.246094 499.882812 C 322.730469 498.386719 321.261719 496.84375 319.84375 495.253906 C 318.429688 493.664062 317.0625 492.03125 315.753906 490.351562 C 314.441406 488.671875 313.1875 486.953125 311.984375 485.195312 C 310.785156 483.433594 309.644531 481.636719 308.558594 479.804688 L 307.679688 491.242188 C 308.714844 493.148438 309.808594 495.019531 310.964844 496.855469 C 312.121094 498.691406 313.335938 500.484375 314.609375 502.242188 C 315.882812 503.996094 317.214844 505.707031 318.601562 507.375 C 319.988281 509.042969 321.429688 510.664062 322.921875 512.234375 C 324.417969 513.808594 325.960938 515.328125 327.554688 516.800781 C 329.148438 518.273438 330.789062 519.6875 332.480469 521.050781 C 334.167969 522.414062 335.898438 523.71875 337.671875 524.96875 C 339.445312 526.21875 341.257812 527.40625 343.109375 528.535156 C 344.960938 529.664062 346.847656 530.734375 348.769531 531.738281 C 350.691406 532.742188 352.644531 533.683594 354.628906 534.558594 C 356.613281 535.4375 358.625 536.246094 360.660156 536.988281 C 362.699219 537.734375 364.757812 538.410156 366.839844 539.019531 C 368.921875 539.625 371.023438 540.164062 373.140625 540.636719 C 375.257812 541.105469 377.390625 541.503906 379.535156 541.835938 C 381.675781 542.164062 383.828125 542.421875 385.992188 542.609375 C 388.152344 542.796875 390.316406 542.914062 392.484375 542.957031 C 394.652344 543.003906 396.820312 542.976562 398.988281 542.878906 C 401.15625 542.78125 403.316406 542.613281 405.472656 542.371094 C 407.628906 542.132812 409.773438 541.820312 411.910156 541.4375 C 414.042969 541.058594 416.164062 540.605469 418.269531 540.085938 C 420.375 539.5625 422.460938 538.972656 424.527344 538.316406 C 426.59375 537.65625 428.636719 536.929688 430.65625 536.136719 C 432.675781 535.34375 434.667969 534.484375 436.628906 533.558594 C 438.589844 532.636719 440.519531 531.648438 442.417969 530.597656 C 444.316406 529.542969 446.175781 528.429688 448 527.257812 C 449.824219 526.082031 451.605469 524.851562 453.347656 523.558594 C 455.089844 522.265625 456.789062 520.917969 458.445312 519.515625 C 460.097656 518.113281 461.703125 516.65625 463.261719 515.144531 C 464.820312 513.636719 466.324219 512.078125 467.78125 510.46875 C 469.234375 508.859375 470.636719 507.207031 471.980469 505.503906 C 473.328125 503.804688 474.617188 502.0625 475.847656 500.273438 C 477.078125 498.488281 478.25 496.664062 479.363281 494.800781 Z M 343.53125 362.082031 C 347.871094 362.082031 351.386719 355.984375 351.386719 348.464844 C 351.386719 340.945312 347.871094 334.851562 343.53125 334.851562 C 339.191406 334.851562 335.675781 340.945312 335.675781 348.464844 C 335.675781 355.984375 339.191406 362.082031 343.53125 362.082031 Z M 444.078125 362.082031 C 448.414062 362.082031 451.933594 355.984375 451.933594 348.464844 C 451.933594 340.945312 448.414062 334.851562 444.078125 334.851562 C 439.738281 334.851562 436.222656 340.945312 436.222656 348.464844 C 436.222656 355.984375 439.738281 362.082031 444.078125 362.082031 Z M 416.945312 405.675781 L 399.722656 344.90625 C 399.660156 344.6875 399.558594 344.488281 399.421875 344.308594 C 399.285156 344.128906 399.121094 343.976562 398.925781 343.859375 C 398.734375 343.742188 398.527344 343.660156 398.304688 343.621094 C 398.082031 343.578125 397.859375 343.578125 397.636719 343.621094 C 397.414062 343.660156 397.207031 343.742188 397.011719 343.863281 C 396.820312 343.980469 396.65625 344.132812 396.519531 344.3125 C 396.382812 344.492188 396.285156 344.691406 396.222656 344.910156 C 396.160156 345.128906 396.140625 345.351562 396.160156 345.574219 L 402.125 404.441406 C 402.160156 404.800781 402.160156 405.15625 402.121094 405.511719 C 402.082031 405.871094 402.003906 406.21875 401.894531 406.558594 C 401.78125 406.902344 401.636719 407.226562 401.457031 407.535156 C 401.277344 407.847656 401.066406 408.136719 400.824219 408.402344 C 400.585938 408.667969 400.320312 408.90625 400.027344 409.117188 C 399.738281 409.328125 399.429688 409.503906 399.101562 409.648438 C 398.773438 409.796875 398.433594 409.90625 398.082031 409.980469 C 397.730469 410.054688 397.375 410.09375 397.015625 410.09375 L 381.664062 410.09375 C 381.183594 410.09375 380.742188 410.222656 380.339844 410.480469 C 379.9375 410.742188 379.632812 411.089844 379.433594 411.527344 C 379.238281 411.964844 379.171875 412.417969 379.242188 412.894531 C 379.308594 413.371094 379.5 413.789062 379.816406 414.148438 L 392.433594 428.652344 C 392.734375 428.996094 393.066406 429.308594 393.433594 429.578125 C 393.796875 429.851562 394.1875 430.082031 394.605469 430.273438 C 395.019531 430.460938 395.449219 430.605469 395.898438 430.703125 C 396.34375 430.796875 396.792969 430.847656 397.25 430.847656 C 397.707031 430.847656 398.160156 430.796875 398.605469 430.703125 C 399.050781 430.605469 399.480469 430.460938 399.898438 430.273438 C 400.3125 430.082031 400.703125 429.851562 401.070312 429.578125 C 401.433594 429.304688 401.769531 428.996094 402.066406 428.652344 L 415.1875 413.554688 C 415.648438 413.023438 416.039062 412.441406 416.355469 411.8125 C 416.675781 411.183594 416.910156 410.527344 417.0625 409.839844 C 417.214844 409.152344 417.285156 408.457031 417.261719 407.75 C 417.242188 407.046875 417.136719 406.355469 416.945312 405.675781 Z M 416.945312 405.675781 " fill-opacity="1" fill-rule="nonzero"/><path fill="#fcc00a" d="M 289.121094 435.5625 L 289.121094 435.605469 C 279.90625 447.167969 266.582031 452.78125 254.769531 448.71875 C 238.472656 443.148438 231.222656 421.320312 238.554688 399.953125 C 243.164062 386.546875 252.421875 376.535156 262.6875 372.304688 C 264.152344 376.242188 265.828125 380.097656 267.671875 383.867188 C 267.671875 383.867188 279.277344 411.851562 289.121094 435.5625 Z M 547.566406 399.953125 C 543.125 386.964844 534.285156 377.121094 524.355469 372.722656 C 522.972656 376.367188 521.421875 379.929688 519.746094 383.40625 L 519.707031 383.53125 L 497.667969 436.441406 C 506.84375 447.417969 519.832031 452.699219 531.351562 448.71875 C 547.648438 443.144531 554.898438 421.320312 547.566406 399.953125 Z M 548.066406 579.132812 C 547.960938 578.800781 547.796875 578.496094 547.570312 578.226562 C 547.347656 577.953125 547.082031 577.734375 546.773438 577.5625 C 546.464844 577.394531 546.136719 577.285156 545.789062 577.242188 C 545.4375 577.199219 545.09375 577.222656 544.753906 577.3125 C 544.414062 577.398438 544.101562 577.546875 543.816406 577.753906 C 543.535156 577.964844 543.300781 578.214844 543.113281 578.515625 C 542.925781 578.8125 542.800781 579.132812 542.738281 579.480469 C 542.675781 579.828125 542.679688 580.171875 542.746094 580.515625 L 554.917969 640.320312 C 555.003906 640.738281 555.042969 641.160156 555.03125 641.585938 C 555.023438 642.011719 554.96875 642.429688 554.867188 642.84375 C 554.765625 643.257812 554.617188 643.65625 554.429688 644.035156 C 554.238281 644.417969 554.007812 644.773438 553.738281 645.101562 C 553.46875 645.429688 553.167969 645.726562 552.832031 645.988281 C 552.496094 646.253906 552.136719 646.476562 551.75 646.65625 C 551.367188 646.839844 550.964844 646.976562 550.550781 647.070312 C 550.136719 647.164062 549.714844 647.210938 549.289062 647.210938 L 449.449219 647.210938 C 449.183594 647.210938 448.929688 647.257812 448.679688 647.351562 C 448.433594 647.445312 448.210938 647.578125 448.011719 647.753906 C 447.8125 647.925781 447.652344 648.132812 447.527344 648.363281 C 447.40625 648.597656 447.324219 648.847656 447.292969 649.109375 C 447.257812 649.371094 447.273438 649.628906 447.335938 649.886719 C 447.394531 650.144531 447.5 650.382812 447.648438 650.601562 C 447.796875 650.820312 447.980469 651.003906 448.195312 651.15625 C 448.414062 651.308594 448.648438 651.417969 448.90625 651.484375 L 496.328125 663.675781 C 499.765625 664.570312 503.199219 664.570312 506.636719 663.675781 L 563.742188 648.980469 C 564.183594 648.867188 564.605469 648.707031 565.011719 648.507812 C 565.421875 648.308594 565.804688 648.070312 566.160156 647.789062 C 566.519531 647.511719 566.84375 647.199219 567.140625 646.855469 C 567.433594 646.507812 567.6875 646.136719 567.90625 645.738281 C 568.121094 645.339844 568.296875 644.921875 568.429688 644.488281 C 568.5625 644.054688 568.648438 643.613281 568.6875 643.160156 C 568.730469 642.707031 568.722656 642.257812 568.671875 641.804688 C 568.621094 641.355469 568.523438 640.914062 568.378906 640.484375 Z M 341.363281 647.210938 L 241.53125 647.210938 C 241.105469 647.214844 240.683594 647.167969 240.265625 647.078125 C 239.851562 646.984375 239.449219 646.847656 239.066406 646.667969 C 238.679688 646.484375 238.320312 646.265625 237.984375 646.003906 C 237.648438 645.742188 237.34375 645.445312 237.074219 645.117188 C 236.800781 644.789062 236.570312 644.433594 236.378906 644.054688 C 236.1875 643.675781 236.039062 643.277344 235.9375 642.863281 C 235.832031 642.453125 235.773438 642.03125 235.765625 641.605469 C 235.753906 641.179688 235.789062 640.757812 235.875 640.339844 L 239.9375 620.441406 C 239.226562 620.105469 238.554688 619.773438 237.925781 619.394531 C 235.4375 618.007812 233.144531 616.347656 231.054688 614.410156 L 222.425781 640.46875 C 222.28125 640.898438 222.183594 641.339844 222.132812 641.792969 C 222.082031 642.242188 222.074219 642.695312 222.117188 643.148438 C 222.15625 643.601562 222.242188 644.046875 222.375 644.480469 C 222.507812 644.914062 222.683594 645.332031 222.902344 645.730469 C 223.117188 646.128906 223.375 646.503906 223.671875 646.847656 C 223.964844 647.195312 224.292969 647.507812 224.652344 647.785156 C 225.011719 648.066406 225.394531 648.304688 225.804688 648.503906 C 226.210938 648.703125 226.636719 648.859375 227.078125 648.972656 L 284.179688 663.675781 C 287.613281 664.570312 291.046875 664.570312 294.484375 663.675781 L 341.90625 651.484375 C 342.164062 651.417969 342.398438 651.308594 342.617188 651.160156 C 342.832031 651.007812 343.015625 650.820312 343.164062 650.601562 C 343.3125 650.382812 343.417969 650.144531 343.476562 649.886719 C 343.539062 649.628906 343.554688 649.371094 343.519531 649.109375 C 343.488281 648.847656 343.40625 648.597656 343.285156 648.363281 C 343.160156 648.132812 343 647.925781 342.800781 647.753906 C 342.601562 647.578125 342.378906 647.445312 342.132812 647.351562 C 341.882812 647.257812 341.628906 647.210938 341.363281 647.210938 Z M 484.179688 566.230469 L 484.054688 566.230469 C 452.757812 599.328125 329.339844 602.636719 302.023438 566.230469 L 301.941406 566.230469 L 367.421875 650.941406 L 324.648438 731.082031 C 336.019531 733.863281 347.5 736.042969 359.097656 737.632812 C 370.695312 739.21875 382.339844 740.203125 394.039062 740.582031 C 405.738281 740.960938 417.425781 740.738281 429.101562 739.90625 C 440.777344 739.074219 452.375 737.640625 463.902344 735.609375 L 418.699219 650.941406 Z M 484.179688 566.230469 " fill-opacity="1" fill-rule="nonzero"/></svg>