<svg xmlns="http://www.w3.org/2000/svg" xmlns:xlink="http://www.w3.org/1999/xlink" width="1080" zoomAndPan="magnify" viewBox="0 0 810 809.999993" height="1080" preserveAspectRatio="xMidYMid meet" version="1.0"><defs><clipPath id="9dde7ce1af"><path d="M 67.5 67.5 L 742.5 67.5 L 742.5 742.5 L 67.5 742.5 Z M 67.5 67.5 " clip-rule="nonzero"/></clipPath><clipPath id="3fcc427fbd"><path d="M 94 470 L 683 470 L 683 742.5 L 94 742.5 Z M 94 470 " clip-rule="nonzero"/></clipPath><clipPath id="55538b999e"><path d="M 120 474 L 648 474 L 648 742.5 L 120 742.5 Z M 120 474 " clip-rule="nonzero"/></clipPath></defs><g clip-path="url(#9dde7ce1af)"><path fill="#38b6ff" d="M 742.363281 405 C 742.367188 410.523438 742.230469 416.042969 741.960938 421.558594 C 741.691406 427.074219 741.285156 432.578125 740.746094 438.074219 C 740.203125 443.570312 739.527344 449.050781 738.71875 454.515625 C 737.910156 459.976562 736.964844 465.417969 735.890625 470.832031 C 734.8125 476.25 733.605469 481.636719 732.261719 486.992188 C 730.921875 492.351562 729.449219 497.671875 727.847656 502.957031 C 726.242188 508.242188 724.511719 513.484375 722.652344 518.683594 C 720.792969 523.882812 718.804688 529.035156 716.691406 534.136719 C 714.578125 539.238281 712.34375 544.289062 709.980469 549.28125 C 707.621094 554.273438 705.140625 559.203125 702.535156 564.074219 C 699.933594 568.945312 697.210938 573.75 694.375 578.484375 C 691.535156 583.222656 688.582031 587.886719 685.511719 592.480469 C 682.445312 597.070312 679.265625 601.585938 675.976562 606.019531 C 672.6875 610.457031 669.289062 614.808594 665.785156 619.078125 C 662.285156 623.347656 658.675781 627.527344 654.96875 631.621094 C 651.261719 635.710938 647.453125 639.710938 643.546875 643.617188 C 639.644531 647.519531 635.644531 651.328125 631.550781 655.035156 C 627.460938 658.746094 623.28125 662.351562 619.011719 665.855469 C 614.742188 669.359375 610.390625 672.753906 605.953125 676.042969 C 601.519531 679.332031 597.003906 682.511719 592.410156 685.582031 C 587.820312 688.648438 583.15625 691.601562 578.417969 694.441406 C 573.679688 697.28125 568.878906 700 564.007812 702.605469 C 559.136719 705.207031 554.203125 707.6875 549.210938 710.050781 C 544.21875 712.410156 539.171875 714.648438 534.070312 716.761719 C 528.96875 718.875 523.816406 720.859375 518.617188 722.71875 C 513.417969 724.582031 508.175781 726.3125 502.890625 727.914062 C 497.605469 729.515625 492.285156 730.988281 486.925781 732.328125 C 481.570312 733.671875 476.183594 734.878906 470.765625 735.957031 C 465.347656 737.035156 459.910156 737.976562 454.445312 738.785156 C 448.984375 739.597656 443.503906 740.273438 438.007812 740.8125 C 432.511719 741.351562 427.007812 741.757812 421.492188 742.027344 C 415.972656 742.296875 410.453125 742.433594 404.933594 742.433594 C 265.347656 742.433594 145.550781 657.675781 94.242188 536.828125 C 89.824219 526.433594 85.945312 515.839844 82.597656 505.054688 C 79.246094 494.265625 76.449219 483.335938 74.207031 472.265625 C 71.960938 461.195312 70.277344 450.042969 69.15625 438.800781 C 68.035156 427.5625 67.484375 416.296875 67.5 405 C 67.5 218.636719 218.570312 67.566406 404.933594 67.566406 C 591.296875 67.566406 742.363281 218.636719 742.363281 405 Z M 742.363281 405 " fill-opacity="1" fill-rule="nonzero"/></g><g clip-path="url(#3fcc427fbd)"><path fill="#ff5e64" d="M 682.800781 596.476562 C 665.804688 621.109375 645.894531 643.101562 623.070312 662.453125 C 615.019531 669.289062 606.636719 675.785156 597.917969 681.820312 C 591.3125 686.4375 584.550781 690.8125 577.628906 694.945312 C 570.710938 699.074219 563.648438 702.953125 556.449219 706.574219 C 549.25 710.199219 541.929688 713.558594 534.488281 716.65625 C 527.046875 719.75 519.503906 722.574219 511.859375 725.128906 C 504.214844 727.679688 496.488281 729.957031 488.679688 731.953125 C 480.871094 733.949219 473 735.664062 465.070312 737.09375 C 457.136719 738.523438 449.164062 739.667969 441.148438 740.523438 C 433.136719 741.378906 425.101562 741.945312 417.046875 742.222656 C 413.023438 742.347656 409 742.433594 404.933594 742.433594 C 399.902344 742.433594 394.871094 742.304688 389.882812 742.097656 C 382.109375 741.761719 374.351562 741.15625 366.617188 740.285156 C 358.886719 739.410156 351.191406 738.269531 343.535156 736.859375 C 335.882812 735.453125 328.285156 733.777344 320.746094 731.84375 C 313.207031 729.90625 305.746094 727.710938 298.359375 725.253906 C 290.972656 722.800781 283.683594 720.09375 276.484375 717.132812 C 269.285156 714.167969 262.199219 710.960938 255.226562 707.507812 C 248.25 704.054688 241.402344 700.363281 234.6875 696.433594 C 227.96875 692.503906 221.394531 688.34375 214.964844 683.957031 C 208.71875 679.683594 202.625 675.210938 196.6875 670.542969 C 175.703125 654.039062 156.910156 635.328125 140.308594 614.417969 C 133.183594 605.363281 126.492188 595.960938 120.230469 586.207031 C 110.21875 570.457031 101.558594 554 94.242188 536.828125 L 104.007812 521.195312 C 107.042969 516.335938 110.4375 511.742188 114.195312 507.421875 C 117.953125 503.097656 122.03125 499.097656 126.421875 495.421875 C 130.8125 491.746094 135.46875 488.4375 140.382812 485.496094 C 145.300781 482.558594 150.417969 480.023438 155.734375 477.894531 C 159.089844 476.550781 162.484375 475.378906 165.964844 474.371094 C 173.398438 472.214844 180.976562 470.863281 188.699219 470.328125 C 196.421875 469.789062 204.117188 470.078125 211.777344 471.1875 L 584.085938 524.800781 C 595.355469 526.433594 606.195312 529.546875 616.613281 534.144531 C 628.03125 539.136719 638.4375 545.714844 647.839844 553.890625 C 655.183594 560.210938 661.695312 567.292969 667.375 575.140625 Z M 682.800781 596.476562 " fill-opacity="1" fill-rule="nonzero"/></g><path fill="#f47e53" d="M 503.480469 431.273438 L 503.480469 431.367188 C 502.726562 432.792969 501.929688 434.175781 501.132812 435.515625 C 498.070312 440.695312 494.621094 445.597656 490.777344 450.226562 C 490.777344 450.226562 490.820312 452.113281 490.90625 455.175781 C 491.40625 477.390625 484.070312 498.808594 471.582031 517.210938 C 469.75 519.90625 468.167969 522.742188 466.835938 525.714844 C 465.503906 528.6875 464.445312 531.753906 463.65625 534.914062 C 462.863281 538.078125 462.355469 541.28125 462.132812 544.53125 C 461.90625 547.78125 461.96875 551.027344 462.316406 554.265625 C 462.875 559.628906 464.199219 564.796875 466.292969 569.765625 C 468.382812 574.734375 471.152344 579.292969 474.597656 583.441406 C 473.605469 584.335938 472.59375 585.210938 471.558594 586.058594 C 470.527344 586.910156 469.476562 587.734375 468.40625 588.539062 C 467.335938 589.339844 466.246094 590.117188 465.140625 590.867188 C 464.035156 591.621094 462.910156 592.34375 461.773438 593.046875 C 460.632812 593.746094 459.476562 594.417969 458.308594 595.066406 C 457.136719 595.714844 455.953125 596.332031 454.753906 596.925781 C 453.554688 597.519531 452.34375 598.085938 451.117188 598.621094 C 449.894531 599.160156 448.65625 599.667969 447.410156 600.148438 C 446.160156 600.628906 444.902344 601.082031 443.632812 601.503906 C 442.363281 601.925781 441.085938 602.320312 439.800781 602.683594 C 438.511719 603.050781 437.21875 603.382812 435.917969 603.6875 C 434.613281 603.992188 433.304688 604.269531 431.992188 604.511719 C 430.675781 604.757812 429.355469 604.972656 428.03125 605.15625 C 426.707031 605.339844 425.378906 605.496094 424.046875 605.617188 C 422.714844 605.742188 421.382812 605.835938 420.046875 605.898438 C 418.710938 605.960938 417.371094 605.992188 416.035156 605.992188 C 414.699219 605.992188 413.359375 605.964844 412.023438 605.902344 C 410.6875 605.84375 409.355469 605.753906 408.023438 605.628906 C 406.691406 605.507812 405.363281 605.355469 404.039062 605.175781 C 402.710938 604.992188 401.394531 604.777344 400.078125 604.535156 C 398.761719 604.292969 397.453125 604.019531 396.152344 603.71875 C 394.847656 603.414062 393.554688 603.082031 392.265625 602.71875 C 390.980469 602.355469 389.699219 601.964844 388.429688 601.542969 C 387.160156 601.121094 385.902344 600.671875 384.652344 600.195312 C 383.40625 599.714844 382.167969 599.207031 380.941406 598.671875 C 379.714844 598.136719 378.503906 597.574219 377.304688 596.980469 C 376.105469 596.390625 374.917969 595.773438 373.746094 595.125 C 372.578125 594.480469 371.421875 593.808594 370.28125 593.109375 C 369.140625 592.410156 368.015625 591.6875 366.910156 590.9375 C 365.800781 590.1875 364.710938 589.414062 363.640625 588.613281 C 362.570312 587.8125 361.515625 586.988281 360.480469 586.140625 C 359.449219 585.292969 358.433594 584.417969 357.441406 583.523438 C 358.320312 582.1875 359.140625 580.816406 359.902344 579.410156 C 360.660156 578.003906 361.359375 576.566406 361.996094 575.097656 C 362.632812 573.628906 363.203125 572.136719 363.710938 570.621094 C 364.214844 569.101562 364.65625 567.566406 365.027344 566.011719 C 365.402344 564.457031 365.707031 562.886719 365.945312 561.304688 C 366.183594 559.722656 366.351562 558.132812 366.449219 556.539062 C 366.550781 554.941406 366.582031 553.34375 366.542969 551.746094 C 366.503906 550.144531 366.394531 548.550781 366.21875 546.960938 C 366.039062 545.371094 365.792969 543.792969 365.480469 542.222656 C 365.164062 540.65625 364.785156 539.105469 364.335938 537.570312 C 363.886719 536.035156 363.371094 534.519531 362.792969 533.03125 C 362.210938 531.539062 361.570312 530.078125 360.863281 528.640625 C 360.15625 527.207031 359.386719 525.804688 358.558594 524.4375 C 357.730469 523.066406 356.84375 521.738281 355.902344 520.445312 C 354.957031 519.15625 353.960938 517.90625 352.90625 516.703125 C 351.855469 515.496094 350.753906 514.339844 349.601562 513.230469 C 338.03125 502.039062 330.234375 487.535156 328.683594 471.523438 L 328.476562 469.34375 L 328.476562 468.085938 C 323.632812 464.3125 319.113281 460.179688 314.921875 455.695312 C 310.726562 451.210938 306.910156 446.425781 303.46875 441.34375 C 300.027344 436.257812 297.007812 430.933594 294.402344 425.375 C 291.796875 419.8125 289.644531 414.085938 287.941406 408.1875 C 287.792969 407.820312 287.679688 407.441406 287.605469 407.054688 L 284.546875 392.550781 L 264.675781 305.40625 L 446.683594 266.839844 L 447.644531 206.984375 C 452.453125 215.609375 456.464844 224.589844 459.683594 233.925781 C 462.898438 243.265625 465.273438 252.808594 466.800781 262.566406 L 493.292969 256.949219 L 512.996094 343.382812 L 516.472656 359.6875 L 516.472656 359.773438 C 517.316406 365.886719 517.667969 372.027344 517.535156 378.195312 C 517.402344 384.367188 516.785156 390.488281 515.683594 396.558594 C 514.578125 402.632812 513.003906 408.578125 510.957031 414.398438 C 508.910156 420.222656 506.417969 425.847656 503.480469 431.273438 Z M 503.480469 431.273438 " fill-opacity="1" fill-rule="nonzero"/><path fill="#242156" d="M 573.691406 537.582031 C 574.675781 534.191406 575.25 530.730469 575.414062 527.203125 C 575.574219 523.675781 575.324219 520.175781 574.65625 516.707031 L 574.527344 515.953125 L 521.335938 238.796875 C 520.953125 236.59375 520.515625 234.398438 520.027344 232.210938 C 519.542969 230.023438 519.003906 227.851562 518.417969 225.691406 C 517.832031 223.527344 517.195312 221.382812 516.507812 219.25 C 515.820312 217.121094 515.085938 215.003906 514.300781 212.90625 C 513.519531 210.808594 512.6875 208.730469 511.804688 206.671875 C 510.925781 204.613281 510 202.574219 509.023438 200.558594 C 508.050781 198.542969 507.027344 196.550781 505.960938 194.582031 C 504.894531 192.613281 503.785156 190.667969 502.628906 188.75 C 501.472656 186.832031 500.269531 184.941406 499.027344 183.082031 C 497.785156 181.21875 496.496094 179.386719 495.167969 177.582031 C 493.839844 175.78125 492.46875 174.011719 491.058594 172.269531 C 489.648438 170.53125 488.199219 168.824219 486.710938 167.152344 C 485.222656 165.480469 483.695312 163.84375 482.128906 162.242188 C 480.5625 160.640625 478.960938 159.074219 477.324219 157.546875 C 475.6875 156.019531 474.015625 154.53125 472.308594 153.082031 C 470.601562 151.632812 468.863281 150.222656 467.09375 148.851562 C 465.320312 147.480469 463.519531 146.152344 461.6875 144.867188 C 459.851562 143.578125 457.992188 142.335938 456.101562 141.136719 C 454.210938 139.933594 452.292969 138.777344 450.347656 137.667969 C 448.40625 136.554688 446.4375 135.488281 444.445312 134.46875 C 442.449219 133.449219 440.433594 132.472656 438.394531 131.546875 C 436.359375 130.617188 434.300781 129.738281 432.21875 128.90625 C 430.140625 128.074219 428.042969 127.289062 425.929688 126.554688 C 423.8125 125.820312 421.683594 125.132812 419.535156 124.496094 C 417.390625 123.859375 415.230469 123.273438 413.054688 122.734375 C 410.878906 122.199219 408.695312 121.710938 406.5 121.277344 C 404.300781 120.839844 402.097656 120.453125 399.882812 120.121094 C 397.667969 119.785156 395.445312 119.503906 393.21875 119.273438 C 390.992188 119.042969 388.761719 118.863281 386.523438 118.734375 C 384.289062 118.605469 382.050781 118.53125 379.8125 118.503906 C 377.574219 118.480469 375.335938 118.507812 373.097656 118.585938 C 370.859375 118.664062 368.625 118.796875 366.390625 118.980469 C 364.160156 119.160156 361.933594 119.394531 359.710938 119.679688 C 357.492188 119.964844 355.277344 120.300781 353.070312 120.691406 C 350.867188 121.078125 348.671875 121.515625 346.484375 122.003906 C 344.300781 122.492188 342.128906 123.035156 339.96875 123.625 C 337.808594 124.210938 335.660156 124.851562 333.53125 125.539062 C 331.398438 126.230469 329.285156 126.96875 327.1875 127.753906 C 325.09375 128.539062 323.015625 129.375 320.957031 130.257812 C 318.898438 131.140625 316.863281 132.070312 314.847656 133.046875 C 312.832031 134.023438 310.839844 135.046875 308.871094 136.117188 C 306.90625 137.183594 304.960938 138.296875 303.046875 139.457031 C 301.128906 140.617188 299.242188 141.820312 297.382812 143.066406 C 295.519531 144.3125 293.6875 145.597656 291.886719 146.929688 C 290.085938 148.261719 288.316406 149.632812 286.578125 151.042969 C 284.84375 152.457031 283.136719 153.910156 281.46875 155.402344 C 279.796875 156.890625 278.160156 158.421875 276.5625 159.988281 C 274.960938 161.554688 273.398438 163.160156 271.875 164.796875 C 270.347656 166.4375 268.859375 168.109375 267.414062 169.820312 C 265.964844 171.527344 264.554688 173.265625 263.1875 175.039062 C 261.820312 176.8125 260.496094 178.617188 259.210938 180.453125 C 257.925781 182.285156 256.683594 184.148438 255.488281 186.042969 C 254.289062 187.933594 253.132812 189.851562 252.023438 191.796875 C 250.914062 193.742188 249.851562 195.710938 248.832031 197.707031 C 247.8125 199.699219 246.84375 201.71875 245.917969 203.757812 C 244.992188 205.796875 244.113281 207.855469 243.285156 209.9375 C 242.453125 212.015625 241.671875 214.113281 240.941406 216.230469 C 240.207031 218.347656 239.523438 220.476562 238.890625 222.625 C 238.253906 224.773438 237.671875 226.933594 237.136719 229.109375 C 236.601562 231.285156 236.117188 233.46875 235.683594 235.667969 C 235.25 237.863281 234.871094 240.070312 234.539062 242.285156 C 234.207031 244.5 233.925781 246.71875 233.699219 248.949219 C 233.46875 251.175781 233.292969 253.40625 233.167969 255.644531 C 233.042969 257.878906 232.96875 260.117188 232.945312 262.355469 L 232.945312 262.773438 L 233.15625 271.578125 C 233.148438 271.691406 233.160156 271.804688 233.199219 271.914062 L 239.570312 535.402344 L 239.570312 535.78125 L 239.609375 536.828125 C 239.660156 539.0625 239.875 541.28125 240.246094 543.484375 C 240.621094 545.6875 241.152344 547.851562 241.84375 549.976562 C 242.53125 552.101562 243.371094 554.164062 244.363281 556.167969 C 245.355469 558.171875 246.484375 560.089844 247.757812 561.929688 C 249.027344 563.765625 250.425781 565.5 251.949219 567.132812 C 253.476562 568.769531 255.109375 570.28125 256.855469 571.675781 C 258.601562 573.070312 260.4375 574.332031 262.367188 575.457031 C 264.296875 576.585938 266.300781 577.566406 268.371094 578.398438 C 270.445312 579.234375 272.566406 579.914062 274.738281 580.4375 C 276.910156 580.964844 279.109375 581.328125 281.335938 581.53125 C 283.558594 581.734375 285.785156 581.777344 288.019531 581.65625 C 290.25 581.53125 292.460938 581.25 294.648438 580.804688 C 296.839844 580.363281 298.984375 579.761719 301.085938 579.003906 C 303.1875 578.246094 305.226562 577.339844 307.195312 576.285156 C 309.164062 575.230469 311.046875 574.039062 312.84375 572.710938 C 314.640625 571.378906 316.328125 569.925781 317.914062 568.351562 C 317.695312 569.429688 317.429688 570.5 317.121094 571.554688 C 316.8125 572.613281 316.457031 573.65625 316.058594 574.683594 C 315.660156 575.707031 315.21875 576.714844 314.730469 577.707031 C 314.246094 578.695312 313.71875 579.660156 313.152344 580.605469 C 312.582031 581.546875 311.976562 582.464844 311.328125 583.355469 C 310.679688 584.246094 309.996094 585.109375 309.277344 585.941406 C 308.554688 586.777344 307.800781 587.574219 307.007812 588.34375 C 306.21875 589.113281 305.398438 589.84375 304.546875 590.542969 C 303.691406 591.238281 302.8125 591.898438 301.902344 592.519531 C 300.992188 593.140625 300.058594 593.722656 299.101562 594.265625 C 298.140625 594.808594 297.160156 595.308594 296.160156 595.765625 C 295.15625 596.222656 294.136719 596.636719 293.097656 597.007812 C 292.0625 597.375 291.011719 597.699219 289.945312 597.980469 C 288.878906 598.261719 287.804688 598.496094 286.71875 598.683594 C 285.632812 598.871094 284.542969 599.011719 283.445312 599.105469 C 282.347656 599.199219 281.246094 599.246094 280.144531 599.242188 C 281.570312 600.199219 283.035156 601.085938 284.542969 601.90625 C 286.046875 602.722656 287.589844 603.472656 289.164062 604.148438 C 290.742188 604.824219 292.34375 605.425781 293.976562 605.953125 C 295.609375 606.480469 297.261719 606.933594 298.933594 607.308594 C 300.609375 607.683594 302.292969 607.980469 303.996094 608.195312 C 305.695312 608.414062 307.402344 608.554688 309.117188 608.613281 C 310.832031 608.671875 312.542969 608.652344 314.257812 608.554688 C 315.96875 608.457031 317.671875 608.277344 319.367188 608.019531 C 321.0625 607.765625 322.742188 607.429688 324.40625 607.015625 C 326.074219 606.605469 327.714844 606.113281 329.332031 605.550781 C 330.953125 604.984375 332.542969 604.347656 334.101562 603.632812 C 335.660156 602.921875 337.1875 602.140625 338.671875 601.285156 C 340.160156 600.433594 341.605469 599.511719 343.007812 598.523438 C 344.410156 597.535156 345.761719 596.488281 347.066406 595.375 C 348.371094 594.261719 349.621094 593.089844 350.820312 591.859375 C 352.015625 590.632812 353.152344 589.351562 354.230469 588.015625 C 355.304688 586.683594 356.320312 585.300781 357.269531 583.875 C 358.21875 582.445312 359.101562 580.976562 359.914062 579.464844 C 360.726562 577.957031 361.46875 576.414062 362.136719 574.832031 C 362.808594 573.253906 363.402344 571.648438 363.925781 570.015625 C 364.445312 568.382812 364.890625 566.726562 365.257812 565.050781 C 365.625 563.378906 365.914062 561.6875 366.125 559.988281 C 366.335938 558.285156 366.46875 556.578125 366.523438 554.863281 C 366.574219 553.148438 366.546875 551.4375 366.441406 549.722656 C 366.335938 548.011719 366.152344 546.308594 365.886719 544.617188 C 365.625 542.921875 365.28125 541.242188 364.863281 539.578125 C 364.445312 537.917969 363.949219 536.277344 363.378906 534.660156 C 362.804688 533.042969 362.160156 531.457031 361.441406 529.898438 C 360.722656 528.34375 359.933594 526.820312 359.074219 525.335938 C 358.214844 523.855469 357.289062 522.414062 356.296875 521.015625 C 355.304688 519.617188 354.246094 518.265625 353.128906 516.96875 C 352.011719 515.667969 350.835938 514.421875 349.601562 513.230469 C 347.140625 510.910156 344.863281 508.421875 342.773438 505.765625 C 340.683594 503.109375 338.796875 500.3125 337.121094 497.375 C 335.445312 494.4375 333.996094 491.390625 332.769531 488.242188 C 331.546875 485.089844 330.5625 481.863281 329.816406 478.5625 C 331.273438 479.71875 332.753906 480.835938 334.265625 481.921875 C 335.773438 483.003906 337.308594 484.050781 338.867188 485.058594 C 340.425781 486.070312 342.007812 487.042969 343.613281 487.976562 C 345.21875 488.914062 346.84375 489.808594 348.492188 490.667969 C 350.140625 491.523438 351.808594 492.34375 353.496094 493.121094 C 355.179688 493.898438 356.886719 494.636719 358.605469 495.332031 C 360.328125 496.03125 362.066406 496.683594 363.820312 497.300781 C 365.574219 497.914062 367.339844 498.484375 369.121094 499.015625 C 370.902344 499.546875 372.691406 500.035156 374.496094 500.476562 C 376.300781 500.921875 378.113281 501.324219 379.9375 501.683594 C 381.757812 502.042969 383.589844 502.355469 385.425781 502.628906 C 387.265625 502.898438 389.105469 503.125 390.957031 503.308594 C 392.804688 503.492188 394.65625 503.632812 396.511719 503.726562 C 398.367188 503.824219 400.222656 503.875 402.082031 503.882812 C 403.9375 503.886719 405.796875 503.851562 407.652344 503.769531 C 409.507812 503.6875 411.359375 503.5625 413.210938 503.394531 C 415.058594 503.222656 416.902344 503.011719 418.742188 502.753906 C 420.582031 502.496094 422.417969 502.195312 424.242188 501.847656 C 426.066406 501.503906 427.882812 501.117188 429.691406 500.683594 C 431.496094 500.253906 433.292969 499.78125 435.078125 499.261719 C 436.859375 498.746094 438.632812 498.1875 440.390625 497.585938 C 442.148438 496.984375 443.890625 496.34375 445.617188 495.660156 C 447.34375 494.976562 449.054688 494.25 450.746094 493.484375 C 452.4375 492.71875 454.113281 491.914062 455.765625 491.070312 C 457.421875 490.222656 459.054688 489.339844 460.667969 488.417969 C 462.277344 487.496094 463.867188 486.535156 465.433594 485.535156 C 467 484.535156 468.542969 483.5 470.058594 482.429688 C 471.578125 481.355469 473.066406 480.25 474.53125 479.105469 C 475.996094 477.964844 477.433594 476.785156 478.839844 475.574219 C 480.25 474.363281 481.628906 473.121094 482.976562 471.84375 C 484.328125 470.566406 485.644531 469.257812 486.933594 467.917969 C 488.21875 466.578125 489.472656 465.207031 490.695312 463.808594 C 489.4375 482.921875 482.4375 501.199219 471.582031 517.210938 C 470.574219 518.699219 469.644531 520.230469 468.785156 521.804688 C 467.929688 523.382812 467.148438 524.996094 466.449219 526.648438 C 465.746094 528.300781 465.128906 529.980469 464.589844 531.691406 C 464.050781 533.40625 463.597656 535.136719 463.230469 536.894531 C 462.859375 538.648438 462.574219 540.417969 462.375 542.203125 C 462.179688 543.984375 462.066406 545.773438 462.042969 547.570312 C 462.019531 549.363281 462.078125 551.15625 462.230469 552.941406 C 462.378906 554.730469 462.613281 556.507812 462.933594 558.273438 C 463.253906 560.039062 463.660156 561.785156 464.152344 563.511719 C 464.640625 565.234375 465.214844 566.933594 465.871094 568.605469 C 466.523438 570.273438 467.257812 571.910156 468.070312 573.507812 C 468.886719 575.109375 469.773438 576.664062 470.738281 578.179688 C 471.703125 579.691406 472.738281 581.152344 473.84375 582.566406 C 474.949219 583.980469 476.121094 585.335938 477.359375 586.632812 C 478.597656 587.933594 479.894531 589.167969 481.253906 590.34375 C 482.609375 591.515625 484.023438 592.621094 485.488281 593.65625 C 486.953125 594.695312 488.464844 595.65625 490.019531 596.546875 C 491.578125 597.4375 493.175781 598.25 494.8125 598.984375 C 496.449219 599.71875 498.117188 600.375 499.820312 600.949219 C 501.519531 601.519531 503.242188 602.011719 504.992188 602.417969 C 506.738281 602.824219 508.5 603.144531 510.28125 603.378906 C 512.058594 603.613281 513.84375 603.761719 515.640625 603.824219 C 517.433594 603.886719 519.222656 603.863281 521.015625 603.75 C 522.804688 603.640625 524.585938 603.441406 526.359375 603.15625 C 528.128906 602.871094 529.882812 602.503906 531.621094 602.050781 C 533.355469 601.59375 535.066406 601.058594 536.75 600.4375 C 538.433594 599.816406 540.082031 599.117188 541.699219 598.335938 C 543.316406 597.558594 544.890625 596.699219 546.421875 595.769531 C 547.953125 594.835938 549.4375 593.832031 550.875 592.753906 C 552.308594 591.675781 553.691406 590.535156 555.015625 589.324219 C 556.339844 588.113281 557.601562 586.839844 558.804688 585.507812 C 560.003906 584.175781 561.136719 582.789062 562.207031 581.34375 C 558.085938 582.8125 553.835938 583.539062 549.460938 583.523438 C 546.71875 583.535156 544.007812 583.25 541.328125 582.671875 C 538.648438 582.097656 536.058594 581.238281 533.5625 580.105469 C 531.066406 578.96875 528.722656 577.578125 526.523438 575.9375 C 524.328125 574.292969 522.335938 572.4375 520.539062 570.363281 C 522.972656 570.859375 525.433594 571.136719 527.917969 571.199219 C 548.832031 571.914062 567.863281 557.703125 573.691406 537.582031 Z M 502.265625 433.585938 C 501.382812 435.136719 500.417969 436.730469 499.457031 438.28125 C 498.574219 439.664062 497.695312 441.046875 496.730469 442.390625 C 495.808594 443.730469 494.84375 445.074219 493.839844 446.371094 C 492.875 447.671875 491.867188 448.972656 490.777344 450.226562 L 490.777344 450.269531 C 489.582031 451.722656 488.347656 453.144531 487.082031 454.535156 C 485.8125 455.925781 484.511719 457.289062 483.179688 458.617188 C 481.847656 459.945312 480.484375 461.242188 479.089844 462.503906 C 477.695312 463.769531 476.269531 465 474.8125 466.191406 C 473.359375 467.386719 471.878906 468.546875 470.367188 469.671875 C 468.855469 470.792969 467.320312 471.878906 465.757812 472.929688 C 464.195312 473.976562 462.609375 474.988281 460.996094 475.960938 C 459.386719 476.933594 457.75 477.867188 456.09375 478.761719 C 454.4375 479.65625 452.761719 480.507812 451.0625 481.324219 C 449.367188 482.136719 447.652344 482.90625 445.914062 483.636719 C 444.179688 484.367188 442.429688 485.054688 440.660156 485.703125 C 438.894531 486.347656 437.113281 486.949219 435.316406 487.511719 C 433.519531 488.070312 431.707031 488.585938 429.886719 489.058594 C 428.066406 489.535156 426.230469 489.960938 424.390625 490.347656 C 422.546875 490.730469 420.695312 491.070312 418.835938 491.367188 C 416.980469 491.660156 415.113281 491.910156 413.242188 492.117188 C 411.371094 492.324219 409.496094 492.484375 407.617188 492.597656 C 405.738281 492.710938 403.859375 492.78125 401.976562 492.804688 C 400.09375 492.832031 398.214844 492.808594 396.332031 492.742188 C 394.453125 492.675781 392.574219 492.566406 390.695312 492.410156 C 388.820312 492.25 386.949219 492.050781 385.085938 491.800781 C 383.21875 491.554688 381.359375 491.261719 379.507812 490.925781 C 377.65625 490.589844 375.8125 490.207031 373.980469 489.785156 C 372.148438 489.359375 370.324219 488.886719 368.511719 488.375 C 366.703125 487.863281 364.90625 487.304688 363.121094 486.703125 C 361.335938 486.105469 359.570312 485.460938 357.816406 484.777344 C 356.0625 484.089844 354.328125 483.363281 352.609375 482.59375 C 350.890625 481.828125 349.191406 481.015625 347.515625 480.164062 C 345.835938 479.316406 344.175781 478.425781 342.542969 477.492188 C 340.90625 476.5625 339.292969 475.59375 337.703125 474.585938 C 336.113281 473.574219 334.550781 472.53125 333.011719 471.445312 C 331.472656 470.363281 329.960938 469.242188 328.476562 468.085938 L 328.351562 468 C 323.523438 464.226562 319.023438 460.097656 314.84375 455.613281 C 310.667969 451.132812 306.863281 446.355469 303.433594 441.277344 C 300.003906 436.199219 296.988281 430.886719 294.390625 425.335938 C 291.792969 419.789062 289.644531 414.070312 287.941406 408.1875 C 287.792969 407.820312 287.679688 407.441406 287.605469 407.054688 L 284.546875 392.550781 L 279.472656 370.335938 L 264.675781 305.40625 L 311.835938 295.429688 L 446.683594 266.839844 L 447.644531 206.984375 C 452.453125 215.609375 456.464844 224.589844 459.683594 233.925781 C 462.898438 243.265625 465.273438 252.808594 466.800781 262.566406 L 484.449219 258.835938 L 493.292969 256.949219 L 509.179688 326.65625 L 512.996094 343.382812 L 516.472656 359.6875 L 516.472656 359.773438 C 517.34375 366.101562 517.691406 372.464844 517.519531 378.851562 C 517.351562 385.242188 516.660156 391.574219 515.453125 397.851562 C 514.242188 404.125 512.535156 410.261719 510.320312 416.257812 C 508.109375 422.253906 505.421875 428.03125 502.265625 433.585938 Z M 431.144531 368.402344 C 431.472656 369.019531 431.703125 369.667969 431.839844 370.351562 C 431.976562 371.039062 432.011719 371.726562 431.945312 372.421875 C 431.882812 373.117188 431.714844 373.789062 431.453125 374.4375 C 431.191406 375.082031 430.839844 375.679688 430.402344 376.222656 L 417.339844 392.46875 C 416.890625 393.027344 416.363281 393.5 415.757812 393.882812 C 415.148438 394.265625 414.496094 394.542969 413.800781 394.710938 C 413.101562 394.875 412.394531 394.925781 411.679688 394.855469 C 410.964844 394.789062 410.28125 394.605469 409.625 394.3125 L 391.015625 385.675781 C 390.675781 385.523438 390.414062 385.285156 390.226562 384.960938 C 390.039062 384.636719 389.964844 384.292969 390.003906 383.921875 C 390.042969 383.550781 390.183594 383.222656 390.433594 382.945312 C 390.679688 382.667969 390.988281 382.488281 391.351562 382.40625 L 412.851562 377.367188 C 413.203125 377.28125 413.546875 377.164062 413.875 377.011719 C 414.203125 376.859375 414.515625 376.675781 414.804688 376.460938 C 415.097656 376.242188 415.363281 376 415.605469 375.730469 C 415.847656 375.460938 416.0625 375.167969 416.242188 374.855469 C 416.425781 374.539062 416.574219 374.210938 416.691406 373.867188 C 416.804688 373.523438 416.882812 373.171875 416.925781 372.8125 C 416.972656 372.453125 416.976562 372.089844 416.945312 371.730469 C 416.917969 371.367188 416.851562 371.011719 416.746094 370.664062 L 404.34375 328.667969 C 404.285156 328.367188 404.277344 328.066406 404.328125 327.761719 C 404.375 327.457031 404.476562 327.171875 404.628906 326.902344 C 404.777344 326.636719 404.972656 326.402344 405.207031 326.203125 C 405.441406 326.007812 405.703125 325.855469 405.996094 325.75 C 406.285156 325.648438 406.582031 325.597656 406.890625 325.597656 C 407.199219 325.601562 407.496094 325.660156 407.78125 325.769531 C 408.070312 325.878906 408.328125 326.035156 408.558594 326.238281 C 408.789062 326.441406 408.976562 326.679688 409.125 326.949219 Z M 335.925781 332.0625 C 334.628906 325.816406 336.511719 320.144531 340.125 319.390625 C 343.742188 318.640625 347.726562 323.097656 349.023438 329.34375 C 350.320312 335.589844 348.4375 341.261719 344.824219 342.011719 C 341.207031 342.761719 337.222656 338.308594 335.925781 332.0625 Z M 430.96875 312.328125 C 429.671875 306.082031 431.550781 300.410156 435.167969 299.660156 C 438.785156 298.910156 442.765625 303.363281 444.0625 309.609375 C 445.359375 315.855469 443.480469 321.527344 439.863281 322.277344 C 436.25 323.027344 432.265625 318.574219 430.96875 312.328125 Z M 430.96875 312.328125 " fill-opacity="1" fill-rule="nonzero"/><g clip-path="url(#55538b999e)"><path fill="#fcc00a" d="M 190.066406 495.207031 L 147.9375 508.410156 L 155.734375 477.894531 C 159.089844 476.550781 162.484375 475.378906 165.964844 474.371094 Z M 120.230469 586.207031 C 126.476562 595.972656 133.167969 605.378906 140.308594 614.417969 L 149.113281 580.003906 Z M 245.144531 557.621094 L 212.449219 564.660156 L 243.046875 596.476562 L 250.886719 565.878906 C 248.652344 563.347656 246.738281 560.597656 245.144531 557.621094 Z M 319.71875 636.535156 L 303.238281 675.066406 L 346.871094 668.453125 Z M 193.042969 653.023438 L 196.6875 670.542969 C 202.640625 675.199219 208.734375 679.667969 214.964844 683.957031 L 232.402344 667.402344 Z M 447.855469 600 C 437.695312 603.964844 427.160156 605.964844 416.25 605.992188 L 421.28125 630.21875 L 451.667969 601.382812 Z M 379.742188 736.480469 L 389.882812 742.097656 C 394.871094 742.304688 399.902344 742.433594 404.933594 742.433594 C 409 742.433594 413.023438 742.347656 417.046875 742.222656 L 418.261719 714.894531 Z M 526.765625 685.445312 L 528.597656 643.574219 L 490.097656 665.148438 Z M 599.46875 646.359375 L 597.917969 681.820312 C 606.636719 675.785156 615.019531 669.289062 623.070312 662.453125 Z M 616.613281 534.144531 L 614.9375 572.332031 L 647.839844 553.890625 C 638.4375 545.714844 628.03125 539.136719 616.613281 534.148438 Z M 616.613281 534.144531 " fill-opacity="1" fill-rule="nonzero"/></g></svg>