<?xml version="1.0" encoding="utf-8"?>
<!-- Generator: Adobe Illustrator 27.5.0, SVG Export Plug-In . SVG Version: 6.00 Build 0)  -->
<svg version="1.1" xmlns="http://www.w3.org/2000/svg" xmlns:xlink="http://www.w3.org/1999/xlink" x="0px" y="0px"
	 viewBox="0 0 500 500" style="enable-background:new 0 0 500 500;" xml:space="preserve">
<g id="BACKGROUND">
	<rect style="fill:#FFFFFF;" width="500" height="500"/>
</g>
<g id="OBJECTS">
	<g>
		<circle style="fill:#E5F7FF;" cx="259.962" cy="308.857" r="149.789"/>
		
			<ellipse transform="matrix(0.9715 -0.2372 0.2372 0.9715 -33.8428 81.7332)" style="fill:#E5F7FF;" cx="322.718" cy="181.499" rx="73.663" ry="73.663"/>
		
			<ellipse transform="matrix(0.7071 -0.7071 0.7071 0.7071 -33.3165 200.9126)" style="fill:#E5F7FF;" cx="225.865" cy="140.673" rx="73.663" ry="73.663"/>
		<circle style="fill:#E5F7FF;" cx="155.407" cy="227.72" r="101.106"/>
		<path style="fill:#FFFFFF;" d="M225.865,222.803l-54.038,35.171c0,0-2.621,14.482-7.034,27.999
			c-4.414,13.517-13.97,46.62-16,53.516c-2.029,6.896-10.952,27.468-11.075,30.55c-0.552,13.863,10.799,21.916,10.799,21.916
			l29.556,4.361l-1.726,46.042c0,0,5.825,17.957,59.203,20.853c53.378,2.897,97.477-14.482,102.029-19.034
			s0.115-16.137-0.713-36.413c-0.828-20.275,6.268-38.068,6.268-38.068s30.758,23.586,34.344-11.846
			c0.548-5.415-16.551-33.67-21.103-53.945c-4.552-20.275-10.345-45.178-12.207-47.309c-1.862-2.131-22.785-11.686-30.854-16.238
			c-8.069-4.552-36.386-23.72-36.386-23.72L225.865,222.803z"/>
		<path style="fill:none;stroke:#E7E3F3;stroke-linecap:round;stroke-miterlimit:10;" d="M316.013,301.451l0.318-19.891
			c0,0,7.702-19.329,25.702-22.62"/>
		<path style="fill:none;stroke:#E7E3F3;stroke-linecap:round;stroke-miterlimit:10;" d="M195.453,302.58l-3.093-21.019
			c0,0-5.911-17.238-17.555-22.109"/>
		<path style="fill:#E7E3F3;" d="M189.585,351.316c0,0,4.724-16.239,5.551-26.446c0.828-10.207-2.776-43.309-2.776-43.309
			s9.331,49.957,8.95,58.495C200.929,348.593,189.585,351.316,189.585,351.316z"/>
		<polygon style="fill:#E7E3F3;" points="318.95,337.353 316.331,281.56 310.995,335.628 		"/>
		<path style="fill:#D7D1EB;" d="M334.995,345.835l-177.375,33.55l4.715,14.609l15.737,2.322l-0.599,15.971l1.939-0.247
			c0,0,14.62,2.483,22.758,0c8.138-2.483,54.343-32.655,54.343-32.655s47.585,17.207,59.447,19.69
			c6.547,1.37,14.932-0.2,21.139-1.883c1.256-15.507,6.033-27.496,6.033-27.496s0.136,0.104,0.386,0.285
			c0.006,0.005,0.014,0.01,0.02,0.015c0.123,0.089,0.273,0.196,0.448,0.318c0.01,0.007,0.02,0.014,0.029,0.02
			c0.178,0.124,0.381,0.263,0.607,0.415c0.012,0.008,0.024,0.016,0.036,0.024c0.232,0.156,0.487,0.324,0.765,0.503
			c0.008,0.005,0.016,0.011,0.025,0.016c0.286,0.184,0.595,0.379,0.925,0.581c0.002,0.001,0.003,0.002,0.004,0.003
			c0.669,0.41,1.422,0.851,2.244,1.299L334.995,345.835z"/>
		<polygon style="fill:#FF4757;" points="244.652,265.072 232.239,401.144 252.816,421.005 274.72,398.661 261.479,265.072 		"/>
		<path style="fill:#AB2C37;" d="M232.845,394.499c12.392-7.751,23.669-15.114,23.669-15.114s7.298,2.639,16.891,5.999
			l-2.715-27.386l-35.121,6.643L232.845,394.499z"/>
		<path style="fill:#E7E3F3;" d="M313.478,332.87c0,0,31.267-2.951,45.887,7.186c14.62,10.136,19.215,24.261,13.146,35.296
			c-6.069,11.034-18.207,9.931-18.207,9.931s-24.138,11.823-39.447-6.935C299.548,359.589,313.478,332.87,313.478,332.87z"/>
		<path style="fill:#E7E3F3;" d="M189.067,360.516c0,0-13.132-10.906-20.856-5.665c-7.724,5.241-24.254,16.914-24.013,31.184
			c0.144,8.543,14.387,21.039,30.111,19.108c15.724-1.931,27.861-29.69,27.861-29.69L189.067,360.516z"/>
		<path style="fill:#E7E3F3;" d="M268.774,249.389c4.119,6.414,7.222,14.689,7.222,14.689s6.552-5.896,10.586-18.931
			c2.966-9.583,4.414-16.854,4.414-16.854l0,0c-7.91-6.492-14.069-11.656-14.069-11.656l-6.926,0.836
			c-7.194,7.542-11.556,21.191-11.556,21.191S265.558,244.382,268.774,249.389z"/>
		<path style="fill:#43386B;" d="M293.479,126.392c0,0,12.788-2.199,14.689-15.467c1.901-13.268-7.278-19.031-12.018-20.816
			c-4.74-1.785-9.706-1.578-9.706-1.578s1.532-9.478-7.096-12.291c-8.628-2.813-26.834-8.566-47.316,0
			c-20.482,8.567-27.93,15.187-30.413,18.911c-2.483,3.724-1.034,11.379-1.034,11.379s-10.758,6.726-14.069,18.413
			c-3.31,11.688,15.931,47.792,15.931,47.792l15.18,8.764L293.479,126.392z"/>
		<polygon style="fill:#EBCBA0;" points="215.274,187.356 217.756,219.907 240.514,238.941 244.543,245.919 258.514,245.919 
			260.997,237.286 276.927,216.637 276.927,210.39 282.548,206.087 		"/>
		<polygon style="fill:#E7E3F3;" points="242.131,241.74 225.865,266.457 201.31,238.785 210.308,232.32 240.514,238.941 		"/>
		<path style="fill:#DEAB8A;" d="M250.859,216.637c9.991,0.99,19.044,0.688,26.033,0.045l0.035-0.045v-6.248l5.621-4.302
			l-67.275-18.731C215.274,187.356,228.308,214.402,250.859,216.637z"/>
		<path style="fill:#EBCBA0;" d="M213.572,173.759l4.878-2.816v-14.896c0,0-0.487-19.931,3.444-30.482
			c3.931-10.551,11.793-10.138,11.793-10.138s4.758-7.034,13.655-3.517c8.896,3.517,19.448,4.965,27.93,5.793
			c8.483,0.828,17.793-1.448,17.793-1.448s2.897,9.724,4.345,16.137c1.448,6.414,0,14.896,0,14.896s3.31,15.31,1.655,23.792
			c-1.655,8.482-9.724,31.861-11.379,33.723c-1.655,1.862-27.724,3.517-43.447,1.448c-15.724-2.069-28.965-18.896-28.965-18.896
			s-7.655,3.379-12-4.069c-4.345-7.448-7.241-18.854-1.448-24.22S213.572,168.104,213.572,173.759z"/>
		<path style="fill:#FFFFFF;" d="M240.514,238.941l-17.517,20l-20.827-23.586c0,0,2.94-7.481,6.022-10.43
			c3.081-2.949,9.564-5.018,9.564-5.018L240.514,238.941z"/>
		<path style="fill:#FFFFFF;" d="M260.997,237.286c0,0,4.896,0.414,8.896,4.414c4,4,8.551,14.896,8.551,14.896
			s7.724-16.689,9.379-21.655c1.655-4.965,3.172-10.482,3.172-10.482l-12.275-8.827l-1.793,1.006L260.997,237.286z"/>
		<path style="fill:#EBCBA0;" d="M242.131,340.056c0,0-28.512-7.186-32.65-7.186s-21.793,6.62-28.689,14.069
			c-6.896,7.448-19.31,21.793-6.896,30.344C186.309,385.834,242.131,340.056,242.131,340.056z"/>
		<path style="fill:#DEAB8A;" d="M241.04,340.939c-0.043-0.422-0.097-0.825-0.164-1.197c-1.843-0.46-5.533-1.373-9.767-2.388
			c-14.034,3.24-42.823,11.278-61.65,26.029c-1.7,5.035-1.147,10.053,4.436,13.899C185.285,385.129,233.212,347.242,241.04,340.939z
			"/>
		<path style="fill:#EBCBA0;" d="M331.409,340.056c0,0,17.699,5.757,23.608,13.63c5.909,7.873,5.909,17.804,5.909,20.287
			c0,2.483-23.174,19.034-38.207,17.931c-15.033-1.103-99.445-39.171-99.445-39.171l87.722-17.103L331.409,340.056z"/>
		<path style="fill:#DEAB8A;" d="M310.995,335.628l-87.722,17.103c0,0,24.389,10.998,49.282,21.343
			c6.463-10.305,19.371-21.694,23.82-24.929c6.069-4.414,35.034-9.089,35.034-9.089L310.995,335.628z"/>
		<path style="fill:#EBCBA0;" d="M166.999,378.937c0,0,11.31-12.965,24.827-21.517c13.517-8.551,75.033-30.344,75.033-30.344
			s20.689-10.483,30.896-9.931c10.207,0.552,33.654,22.91,33.654,22.91l-34.206,2.469c0,0-63.447,39.723-77.515,50.482
			c-14.069,10.758-34.301,11.962-40.275,10.758C156.627,399.174,166.999,378.937,166.999,378.937z"/>
		<polygon style="fill:#AB2C37;" points="266.084,245.919 266.084,254.527 261.479,265.072 244.652,265.072 239.549,255.163 
			239.549,245.919 		"/>
		<path style="fill:#43386B;" d="M256.514,145.946c0-2.912-2.361-5.273-5.273-5.273s-5.273,2.361-5.273,5.273
			s2.361,5.273,5.273,5.273S256.514,148.858,256.514,145.946z"/>
		<path style="fill:#43386B;" d="M293.094,145.946c0-2.912-2.361-5.273-5.273-5.273c-2.912,0-5.273,2.361-5.273,5.273
			s2.361,5.273,5.273,5.273C290.733,151.219,293.094,148.858,293.094,145.946z"/>
		<path style="fill:#DEAB8A;" d="M272.996,146.874c0,0-1.655,25.034,3,26.827c4.655,1.793,10.586-1.241,10.862-5.517
			c0.276-4.276-4.552-5.103-5.931-12.413C279.548,148.46,273.893,139.219,272.996,146.874z"/>
		
			<line style="fill:none;stroke:#43386B;stroke-width:3.4827;stroke-linecap:round;stroke-miterlimit:10;" x1="257.594" y1="133.012" x2="239.411" y2="133.012"/>
		<path style="fill:none;stroke:#43386B;stroke-width:3.4827;stroke-linecap:round;stroke-miterlimit:10;" d="M278.031,131.564
			c0,0,7.172-12.103,12.476-4.103"/>
		
			<line style="fill:none;stroke:#43386B;stroke-width:3.4827;stroke-linecap:round;stroke-miterlimit:10;" x1="268.774" y1="183.908" x2="256.514" y2="183.908"/>
		<g>
			<path style="fill:#EBCBA0;" d="M188.971,194.644c0,0,2.027-2.511,2.754-3.353c0.727-0.841,5.048-3.748,5.622-3.404
				c0.574,0.344-0.076,1.147-0.574,1.568c-0.497,0.421-2.448,2.601-2.448,2.601s4.475-4.292,4.972-3.465
				c0.497,0.827-3.902,4.631-3.902,4.631s3.71-2.274,4.131-1.701c0.421,0.574-3.348,3.425-3.348,3.425s3.077-1.351,3.34-1.015
				c0.453,0.58-2.745,3.27-4.695,4.761c-1.95,1.492-4.396,2.772-4.396,2.772L188.971,194.644z"/>
			<path style="fill:#DEAB8A;" d="M188.767,195.816c0,0,1.813-1.645,3.059-2.065c1.246-0.421,2.906-0.535,2.754,0
				c-0.153,0.535-1.708,0.816-2.04,1.326c-0.331,0.51-0.077,4.722-3.365,4.656C185.886,199.666,188.767,195.816,188.767,195.816z"/>
			<path style="fill:#DEAB8A;" d="M184.268,223.936c0,0,5.664-2.346,6.388-1.574c0.724,0.772-2.896,2.201-3.362,3.055
				c-0.465,0.854-3.129,3.588-5.715,3.174C178.992,228.177,184.268,223.936,184.268,223.936z"/>
			<path style="fill:#59ACF9;" d="M71.202,281.271c0,0-2.546-0.064-3.17,1.83c-0.623,1.894-2.411,16.997,0,18.032
				c2.411,1.035,6.687-12.413,6.687-12.413L71.202,281.271z"/>
			<path style="fill:#59ACF9;" d="M128.946,280.483c0,0-2.084,1.464-1.458,3.357c0.626,1.893,8.178,15.094,10.732,14.491
				c2.553-0.604-2.014-13.955-2.014-13.955L128.946,280.483z"/>
			<path style="fill:#59ACF9;" d="M150.891,185.021c0,0,12.726,8.666,20.312,10.321c7.586,1.655,17.785-0.714,17.785-0.714
				l2.352,7.197c0,0-10.758,4-21.103,3.034c-10.345-0.965-17.864-3.604-17.864-3.604L150.891,185.021z"/>
			<path style="fill:#0072BC;" d="M152.375,201.254c0,0,6.271,2.194,15.228,3.312c-10.033-3.644-14.36-11.432-14.36-11.432
				s-0.632,0.181-1.549,0.668L152.375,201.254z"/>
			<path style="fill:#0072BC;" d="M113.408,217.962c0,0-5.586,6.827-8.069,12.827c-2.483,6-7.241,31.118-7.241,31.118
				l-26.896,19.363c0,0-1.138,2.069,0,4.552c1.138,2.483,3.517,2.896,3.517,2.896s32.461-15.088,34.437-16.234
				c1.976-1.145,20.458-28.731,20.458-28.731l13.241,12.379c0,0-13.233,22.92-13.899,24.074s0.796,2.305,2.313,3.409
				c1.517,1.103,5.103,0.828,5.103,0.828s21.924-23.999,24.341-27.172c2.417-3.172-14.962-29.103-14.962-29.103L113.408,217.962z"/>
			<path style="fill:#59ACF9;" d="M137.073,184.388c0,0-7.597,3.277-9.114,6.609s-4.523,6.793-8.689,12.896
				c-4.666,6.836-8.965,9.517-9.379,12.689c-0.414,3.172,1.517,10.896,8,14.069c6.483,3.172,18.068,4.414,24.965,2.621
				c6.896-1.793,4.56-7.794,5.94-12.07c1.379-4.276-0.816-8.109,3.536-16.416c4.022-7.676,0-19.34,0-19.34L137.073,184.388z"/>
			<path style="fill:#0072BC;" d="M139.683,207.342l8.593,17.03l0,0c0.082-1.1,0.2-2.181,0.519-3.17
				c0.589-1.826,0.527-3.573,0.601-5.619L139.683,207.342z"/>
			<polygon style="fill:#DEAB8A;" points="137.073,187.239 146.717,194.583 148.091,197.79 150.891,197.79 151.545,194.48 
				152.331,191.376 			"/>
			<path style="fill:#0072BC;" d="M125.87,208.014c0,0,4.863,18.18,16.313,25.409c0.224-0.05,0.457-0.094,0.672-0.15
				c5.302-1.379,5.149-5.244,5.421-8.9L125.87,208.014z"/>
			<g>
				<path style="fill:#0072BC;" d="M158.412,168.885c0,0,3.744-0.644,4.301-4.529c0.557-3.885-2.131-5.572-3.519-6.095
					c-1.388-0.523-2.842-0.462-2.842-0.462s0.449-2.775-2.078-3.599c-2.526-0.824-7.857-2.508-13.854,0
					c-5.997,2.508-8.178,4.447-8.905,5.537c-0.727,1.09-0.303,3.332-0.303,3.332s-3.15,1.969-4.119,5.392
					c-0.969,3.422,4.664,13.993,4.664,13.993l4.445,2.566L158.412,168.885z"/>
				<path style="fill:#EBCBA0;" d="M135.016,182.754l1.428-0.825v-4.362c0,0-0.143-5.836,1.008-8.925
					c1.151-3.09,3.453-2.968,3.453-2.968s1.393-2.06,3.998-1.03c2.605,1.03,5.694,1.454,8.178,1.696
					c2.484,0.242,5.21-0.424,5.21-0.424s0.848,2.847,1.272,4.725c0.424,1.878,0,4.362,0,4.362s0.969,4.483,0.485,6.967
					s-2.847,9.329-3.332,9.874c-0.485,0.545-8.117,1.03-12.721,0.424c-4.604-0.606-8.481-5.533-8.481-5.533s-2.241,0.99-3.514-1.191
					c-1.272-2.181-2.12-5.52-0.424-7.092S135.016,181.098,135.016,182.754z"/>
				<path style="fill:#0072BC;" d="M147.589,174.611c0-0.853-0.691-1.544-1.544-1.544c-0.853,0-1.544,0.691-1.544,1.544
					c0,0.853,0.691,1.544,1.544,1.544C146.898,176.154,147.589,175.463,147.589,174.611z"/>
				<path style="fill:#0072BC;" d="M158.3,174.611c0-0.853-0.691-1.544-1.544-1.544c-0.853,0-1.544,0.691-1.544,1.544
					c0,0.853,0.691,1.544,1.544,1.544C157.608,176.154,158.3,175.463,158.3,174.611z"/>
				<path style="fill:#DEAB8A;" d="M152.415,174.882c0,0-0.485,7.33,0.878,7.855c1.363,0.525,3.1-0.364,3.18-1.615
					c0.081-1.252-1.333-1.494-1.737-3.635C154.333,175.347,152.678,172.641,152.415,174.882z"/>
				<path style="fill:none;stroke:#0072BC;stroke-width:1.0197;stroke-linecap:round;stroke-miterlimit:10;" d="M154.233,168.803
					c0,0,1.756-1.947,3.309,0.396"/>
				<path style="fill:none;stroke:#0072BC;stroke-width:1.0197;stroke-linecap:round;stroke-miterlimit:10;" d="M147.924,168.584
					c0,0-2.153-1.728-3.706,0.614"/>
				<path style="fill:#FFFFFF;" d="M149.924,189.782h-2.258c-0.895,0-1.621-0.726-1.621-1.621v-3.336
					c0-0.895,0.726-1.621,1.621-1.621h2.258c0.895,0,1.621,0.726,1.621,1.621v3.336
					C151.545,189.056,150.819,189.782,149.924,189.782z"/>
			</g>
			<path style="fill:#59ACF9;" d="M179.613,221.893l-1.965,9.724c0,0-29.1,1.759-33.429-0.621
				c-4.329-2.379-19.742-22.034-19.742-26.999c0-4.965,3.103-8.689,7.345-8.379c4.241,0.31,17.896,25.463,17.896,25.463
				L179.613,221.893z"/>
			<polygon style="fill:#0072BC;" points="146.717,194.583 144.885,198.307 136.304,190.997 144.885,200.583 147.234,195.79 			"/>
			<polygon style="fill:#0072BC;" points="151.439,195.015 153.129,197.942 151.093,196.767 			"/>
			<polygon style="fill:#0072BC;" points="146.254,197.79 152.045,197.645 152.045,200.583 151.545,202.031 148.276,202.307 
				146.254,200.307 			"/>
			<path style="fill:#0072BC;" d="M151.545,202.031c0,0-0.75,7.638,5.211,9.026c5.961,1.388,11.478-7.164,16.995-7.164
				c5.517,0,8.414,5.35,8.414,5.35v4.678h-5.241c0,0-0.414-5.397-4.827-4.678c-4.414,0.719-8.471,7.302-15.34,4.678
				c-6.869-2.624-8.48-11.614-8.48-11.614L151.545,202.031z"/>
			<path style="fill:#EBCBA0;" d="M179.613,221.893c0,0,5.724-6,6.138-6.207c0.414-0.207,6.458-0.997,6.586-0.414
				c0.241,1.1-5.138,2.034-5.138,2.034s5.053-0.045,5.139,0.8c0.124,1.207-5.588,1.89-5.588,1.89s4.804,0.213,4.965,0.765
				c0.313,1.069-3.739,1.402-4.291,2.057c-0.552,0.655-1.919,3.656-3.229,5.553s-6.124,1.145-6.124,1.145L179.613,221.893z"/>
			
				<ellipse style="fill:none;stroke:#F7E041;stroke-width:2.0144;stroke-miterlimit:10;" cx="145.405" cy="146.27" rx="12.35" ry="3.364"/>
		</g>
		<g>
			<path style="fill:#FF4757;" d="M360.379,117.02c0,0-2.202-0.676-3.781-2.424c-1.578-1.748-1.522-3.777-1.522-3.777
				s-1.86,5.356,0.451,8.4c2.311,3.044,4.122,2.142,4.852,0.958C361.108,118.993,360.838,117.815,360.379,117.02z"/>
			<path style="fill:#FF4757;" d="M320.969,227.635c0,0-9.246,3.469-9.246,5.273s2.706,2.405,5.713,1.879
				c3.007-0.526,6.615-2.105,7.441-2.781c0.827-0.676,0.827-3.307,0.827-3.307L320.969,227.635z"/>
			<path style="fill:#FF4757;" d="M363.588,219.622c0,0-8.353,5.266-9.79,4.176s-0.28-3.61,1.958-5.686
				c2.237-2.077,5.676-3.996,6.715-4.245c1.039-0.249,3.134,1.341,3.134,1.341L363.588,219.622z"/>
			<path style="fill:#AB2C37;" d="M349.307,178.481c0,0-12.027,9.627-17.739,18.798c-5.713,9.17-10.621,26.296-11.425,28.563
				c-1.073,3.025,1.447,5.429,4.181,4.819c2.734-0.61,5.569-9.137,12.27-17.126c6.701-7.989,21.047-12.649,22.443-12.198
				c1.396,0.451-0.602,8.87-0.881,11.726c-0.279,2.856,2.814,9.922,14.046,5.412c11.232-4.51,15.291-27.21,15.291-27.21
				L349.307,178.481z"/>
			<path style="fill:#EBCBA0;" d="M318.489,156.689c0,0-2.988-3.702-4.059-4.942c-1.071-1.24-7.441-5.525-8.287-5.017
				c-0.846,0.507,0.113,1.691,0.846,2.311c0.733,0.62,3.608,3.833,3.608,3.833s-6.596-6.327-7.329-5.108
				c-0.733,1.219,5.751,6.826,5.751,6.826s-5.469-3.353-6.089-2.507c-0.62,0.846,4.936,5.048,4.936,5.048s-4.536-1.992-4.923-1.497
				c-0.668,0.854,4.046,4.82,6.921,7.019c2.875,2.199,6.481,4.087,6.481,4.087L318.489,156.689z"/>
			<path style="fill:#DEAB8A;" d="M318.789,158.417c0,0-2.673-2.424-4.51-3.044c-1.837-0.62-4.284-0.789-4.059,0
				c0.226,0.789,2.518,1.203,3.007,1.954c0.489,0.752,0.113,6.961,4.961,6.863C323.036,164.093,318.789,158.417,318.789,158.417z"/>
			<path style="fill:#FF4757;" d="M361.297,143.933c0,0-15.598,10.952-24.016,14.71c-8.419,3.758-18.792-1.954-18.792-1.954
				l-2.405,11.275c0,0,10.974,4.51,22.249,2.255c11.275-2.255,18.77-7.667,18.77-7.667L361.297,143.933z"/>
			<path style="fill:#FF4757;" d="M384.971,143.933c0,0,10.037,7.945,11.841,10.952c1.804,3.007,1.203,7.667,1.203,7.667
				s-7.366,14.131-9.471,19.393c-1.196,2.989-0.349,6.367,0.605,8.727c0.664,1.642-0.282,3.485-2.01,3.872
				c-5.714,1.278-14.662-0.612-23.788-2.676c-12.628-2.856-13.899-9.778-14.044-13.386c-0.145-3.608,1.6-1.407,3.103-2.911
				c1.503-1.503,1.407-11.011,3.06-18.881C356.992,149.45,384.971,143.933,384.971,143.933z"/>
			<polygon style="fill:#DEAB8A;" points="359.277,152.899 359.385,156.715 367.666,158.042 374.563,152.555 			"/>
			<polygon style="fill:#AB2C37;" points="367.666,158.042 365.867,157.753 367.666,155.573 374.563,152.179 379.604,148.293 
				381.535,149.894 370.053,162.852 			"/>
			<polygon style="fill:#AB2C37;" points="359.385,156.715 357.531,161.349 356.598,149.773 359.68,150.675 360.379,156.874 			"/>
			<polygon style="fill:#AB2C37;" points="359.385,156.715 359.036,160.693 360.601,162.101 366.47,162.101 367.666,160.898 
				367.666,158.042 			"/>
			<path style="fill:#AB2C37;" d="M360.601,162.101c0,0-0.667,5.315-4.98,8.749c-4.313,3.434-13.981,0.872-20.746,3.277
				c-6.765,2.405-7.89,4.354-7.89,4.354l1.125,6.484l6.765-0.803c0,0,1.726-4.25,8.321-5.681c6.595-1.431,14.306-1.634,18.101-4.948
				c3.795-3.314,5.173-11.432,5.173-11.432H360.601z"/>
			<path style="fill:#AB2C37;" d="M389.074,180.684l0.282-11.067c0,0-8.693,7.193-3.556,18.04c1.461,3.084,2.488,4.616,3.321,5.214
				c0.285-0.673,0.329-1.454,0.027-2.2c-0.954-2.36-1.801-5.737-0.605-8.727C388.695,181.568,388.874,181.143,389.074,180.684z"/>
			<g>
				<path style="fill:#AB2C37;" d="M356.476,129.154c0,0-3.843-1.026-4.055-5.129c-0.212-4.103,2.749-5.607,4.246-6.021
					c1.496-0.413,3.006-0.213,3.006-0.213s-0.205-2.936,2.507-3.555c2.712-0.619,8.429-1.871,14.443,1.312
					c6.015,3.183,8.104,5.41,8.759,6.616c0.655,1.206,0,3.502,0,3.502s3.097,2.351,3.784,6.011
					c0.686,3.66-6.188,14.147-6.188,14.147l-4.877,2.254L356.476,129.154z"/>
				<path style="fill:#EBCBA0;" d="M379.554,145.83l-1.411-0.995l0.413-4.547c0,0,0.702-6.07-0.206-9.4
					c-0.907-3.33-3.319-3.422-3.319-3.422s-1.257-2.279-4.071-1.452c-2.813,0.827-6.074,0.976-8.686,0.994
					c-2.612,0.017-5.391-0.936-5.391-0.936s-1.154,2.888-1.774,4.805c-0.62,1.918-0.413,4.547-0.413,4.547s-1.435,4.582-1.165,7.217
					c0.27,2.635,2.085,9.995,2.538,10.61c0.454,0.614,8.365,1.842,13.222,1.647c4.857-0.195,9.366-4.965,9.366-4.965
					s2.243,1.244,3.776-0.909c1.533-2.153,2.733-5.554,1.114-7.353C381.927,139.872,379.711,144.103,379.554,145.83z"/>
				<path style="fill:#AB2C37;" d="M367.217,136.149c0.081-0.889,0.867-1.544,1.756-1.463c0.889,0.081,1.544,0.867,1.463,1.756
					c-0.081,0.889-0.867,1.544-1.756,1.463C367.792,137.824,367.136,137.038,367.217,136.149z"/>
				<path style="fill:#AB2C37;" d="M356.051,135.134c0.081-0.889,0.867-1.544,1.756-1.463c0.889,0.081,1.544,0.867,1.463,1.756
					c-0.081,0.889-0.867,1.544-1.756,1.463C356.625,136.809,355.97,136.023,356.051,135.134z"/>
				
					<line style="fill:none;stroke:#AB2C37;stroke-width:1.0675;stroke-linecap:round;stroke-miterlimit:10;" x1="365.552" y1="133.709" x2="371.775" y2="132.137"/>
				
					<line style="fill:none;stroke:#AB2C37;stroke-width:1.0675;stroke-linecap:round;stroke-miterlimit:10;" x1="360.379" y1="132.57" x2="356.958" y2="129.267"/>
				<path style="fill:#FFFFFF;" d="M372.102,143.376l-13.443-1.221l-0.251,2.762c-0.337,3.712,2.399,6.995,6.111,7.332l0,0
					c3.712,0.337,6.995-2.399,7.332-6.111L372.102,143.376z"/>
				<path style="fill:#DEAB8A;" d="M362.183,135.721c0,0,0.011,5.483-1.445,5.743c-1.456,0.26-3.207-0.563-3.207-1.499
					c0-0.936,1.49-0.982,2.055-2.531C360.152,135.884,362.061,134.034,362.183,135.721z"/>
			</g>
			<path style="fill:#FF4757;" d="M398.015,159.77c0,0,3.007,17.965,3.307,20.07c0.301,2.105,3.883,14.689-4.209,13.981
				c-8.093-0.708-12.628-5.713-10.974-17.89C387.792,163.754,398.015,159.77,398.015,159.77z"/>
			<path style="fill:#AB2C37;" d="M399.969,172.8c0,0-5.036,0.425-7.742,4.484c-2.706,4.059-3.28,6.878-3.28,6.878
				s3.345-5.356,5.511-6.878c2.166-1.522,5.511-1.86,5.511-1.86V172.8z"/>
			<path style="fill:#EBCBA0;" d="M406.992,177.066c-1.56-0.69-1.781-2.84-0.527-3.997c1.247-1.151,2.707-2.655,2.749-3.426
				c0.075-1.353-1.578-1.428-2.33-0.977c-0.752,0.451-5.562,3.157-6.915,4.134c-1.353,0.977-3.758,2.631-3.833,7.817
				c-0.075,5.187,1.578,7.968,3.909,9.471c2.33,1.503,9.546,5.562,10.523,5.036c0.977-0.526-3.157-5.036-3.157-5.036
				s6.314,3.232,7.592,2.029c1.278-1.203-7.028-5.506-7.028-5.506s11.054,2.244,10.998,0.44c-0.063-2.016-9.588-4.779-9.588-4.779
				s9.029,0.692,9.029-0.791c0-1.346-9.95-3.796-11.378-4.397C407.021,177.078,407.007,177.072,406.992,177.066z"/>
			<path style="fill:#FF4757;" d="M381.199,121.622c0,0,2.301,0.115,4.381-0.989c2.08-1.104,2.719-3.032,2.719-3.032
				s-0.078,5.669-3.289,7.742c-3.211,2.073-4.606,0.608-4.888-0.754C379.84,123.228,380.495,122.213,381.199,121.622z"/>
		</g>
	</g>
</g>
</svg>
