<?xml version="1.0" encoding="utf-8"?>
<!-- Generator: Adobe Illustrator 27.5.0, SVG Export Plug-In . SVG Version: 6.00 Build 0)  -->
<svg version="1.1" xmlns="http://www.w3.org/2000/svg" xmlns:xlink="http://www.w3.org/1999/xlink" x="0px" y="0px"
	 viewBox="0 0 3710 3710" style="enable-background:new 0 0 3710 3710;" xml:space="preserve">
<g id="Background">
	<g>
		<g>
			<rect style="fill:#FFFFFF;" width="3710" height="3710"/>
		</g>
	</g>
</g>
<g id="Illustration">
	<g>
		<linearGradient id="SVGID_1_" gradientUnits="userSpaceOnUse" x1="3409.8281" y1="3619.0376" x2="1352.2399" y2="1398.1486">
			<stop  offset="0" style="stop-color:#DAE3FE"/>
			<stop  offset="1" style="stop-color:#E9EFFD"/>
		</linearGradient>
		<path style="fill:url(#SVGID_1_);" d="M3123.09,2353.436c-282.728,660.843-1029.038,944.69-1613.783,896.294
			c-159.659-13.214-480.897-39.802-731.722-276.999c-481.693-455.522-407.507-1407.69,53.611-1968.273
			c59.383-72.191,470.419-555.867,1110.943-549.393c468.957,4.74,798.113,269.648,838.137,302.65
			c50.561,41.691,162.079,140.762,262.583,297.931C3279.008,1424.939,3299.766,1940.475,3123.09,2353.436z"/>
		<g>
			<g>
				<path style="fill:#91B3FA;" d="M2446.987,2285.076c0,0-9.111-383.047,167.317-485.568
					c176.427-102.521,511.879-166.616,524.452-716.636c7.362-322.006,15.329-462.792,20.67-524.181
					c2.083-23.947-19.197-43.276-42.819-38.827c-167.092,31.477-709.9,161.04-823.704,531.531
					C2157.988,1490.617,2446.987,2285.076,2446.987,2285.076z"/>
				<path style="fill:#BDD0FB;" d="M2987.384,672.897c-183.417,163.582-395.504,453.087-508.548,742.594
					c-14.511,47.712-56.956,149.178-75.388,329.455c-16.463,150.355-8.279,309.234,11.684,414.404
					c1.262,6.649,7.675,11.016,14.324,9.754c11.433-2.169,9.912-14.465,9.809-14.078c-22.798-179.686-13.335-403.335,38.904-605.132
					c66.74-247.782,215.596-488.017,369.561-691.769l15.844-20.063c119.286-153.192,144.398-154.32,133.247-164.999
					C2994.187,670.541,2990.064,670.519,2987.384,672.897z"/>
			</g>
			<g>
				<path style="fill:#BDD0FB;" d="M2421.208,2458.612c-13.572-8.993,18.227-89.97,20.941-101.717
					c10.031-43.449,18.569-87.244,25.555-131.289c36.88-232.526,37.362-523.862,169.819-636.133
					c110.24-93.439,485.372-34.448,608.115-12.029c15.338,2.801,20.501,22.175,8.562,32.203
					c-58.862,49.434-184.779,166.037-217.587,283.551c-43.244,154.892-190.503,253.411-322.337,280.075
					c-83.269,16.841-155.602,41.194-205.169,114.468c-26.522,39.206-36.074,132.495-65.617,159.727
					C2431.805,2458.237,2424.862,2461.033,2421.208,2458.612z"/>
				
					<linearGradient id="SVGID_00000124149583113277412990000017527657910529502372_" gradientUnits="userSpaceOnUse" x1="3011.2859" y1="1716.9354" x2="1052.7792" y2="3239.3362">
					<stop  offset="0" style="stop-color:#DAE3FE"/>
					<stop  offset="1" style="stop-color:#E9EFFD"/>
				</linearGradient>
				<path style="fill:url(#SVGID_00000124149583113277412990000017527657910529502372_);" d="M3073.006,1642.889
					c-156.601,6.559-324.701,77.995-410.005,211.995l-8.052,12.787c-18.596,29.982-123.987,243.12-182.521,419.799
					c-0.729,2.202,0.465,4.58,2.667,5.31c3.741,1.238,5.615-2.878,5.258-2.515c40.782-99.811,99.354-226.355,146.004-320.986
					c50.028-103.261,85.037-173.193,199.148-240.178c127.009-72.139,248.347-79.565,247.983-79.491
					c1.852-0.189,3.201-1.844,3.011-3.695C3076.318,1644.133,3074.771,1642.819,3073.006,1642.889z"/>
			</g>
		</g>
		<g>
			<g>
				<path style="fill:#91B3FA;" d="M1622.175,1914.773c0,0-87.966-336.802-267.717-382.154
					c-179.75-45.352-488.756-17.324-637.472-494.516c-87.066-279.369-129.28-400.325-149.317-452.6
					c-7.816-20.392,5.928-42.601,27.671-44.631c153.806-14.354,660.294-37.134,852.46,257.922
					C1675.614,1148.588,1622.175,1914.773,1622.175,1914.773z"/>
				<path style="fill:#BDD0FB;" d="M746.516,642.158c201.145,96.927,458.862,296.646,630.084,521.168
					c24.62,38.034,87.097,116.017,148.34,268.84c52.029,127.184,84.668,267.986,93.572,364.832
					c0.563,6.123-3.944,11.542-10.067,12.105c-10.528,0.969-12.279-10.151-12.092-9.838
					c-25.087-162.631-89.358-355.578-185.513-518.729c-120.335-199.679-310.492-372.203-495.976-511.588l-18.861-13.554
					c-142.537-103.913-164.75-98.61-157.686-110.729C739.985,641.804,743.58,640.752,746.516,642.158z"/>
			</g>
			<g>
				<path style="fill:#BDD0FB;" d="M2076.049,2468.944c23.777,4.244-273.096-207.571-465.016-618.909
					c-90.437-193.833-163.814-448.141-307.606-513.019c-119.673-53.996-432.509,91.463-534.089,141.779
					c-12.693,6.287-12.351,24.5,0.587,30.267c63.785,28.431,202.95,98.73,261.03,193.141
					c76.554,124.441,229.829,173.603,351.639,163.874c121.81-9.729,192.335-5.497,301.222,162.543
					C1792.701,2196.659,2008.489,2456.884,2076.049,2468.944z"/>
				
					<linearGradient id="SVGID_00000138556574874209860840000010694502762770883752_" gradientUnits="userSpaceOnUse" x1="1054.1472" y1="1079.119" x2="1955.5176" y2="3578.3772">
					<stop  offset="0" style="stop-color:#DAE3FE"/>
					<stop  offset="1" style="stop-color:#E9EFFD"/>
				</linearGradient>
				<path style="fill:url(#SVGID_00000138556574874209860840000010694502762770883752_);" d="M936.488,1492.718
					c138.405-33.488,303.098-13.197,411.152,82.465l10.234,9.151c23.748,21.527,169.162,181.271,264.525,320.91
					c1.188,1.741,0.741,4.116-1,5.305c-2.957,2.018-5.625-1.108-5.222-0.879c-60.61-76.954-143.452-172.799-207.889-243.759
					c-69.549-77.652-117.636-129.957-234.064-159.88c-128.984-31.195-236.81-7.295-236.473-7.321
					c-1.665,0.298-3.257-0.809-3.555-2.473C933.907,1494.634,934.93,1493.098,936.488,1492.718z"/>
			</g>
		</g>
		
			<linearGradient id="SVGID_00000177450280476803820760000005142539377680944519_" gradientUnits="userSpaceOnUse" x1="2754.3589" y1="1990.8413" x2="1935.0114" y2="475.0473">
			<stop  offset="0" style="stop-color:#53D8FF"/>
			<stop  offset="1" style="stop-color:#3840F7"/>
		</linearGradient>
		<path style="fill:url(#SVGID_00000177450280476803820760000005142539377680944519_);" d="M2283.265,1130.405
			c0,0,117.189,278.075,411.401,309.26l-7.802,51.267c0,0-384.255,66.639-587.354-270.815L2283.265,1130.405z"/>
		<g>
			
				<linearGradient id="SVGID_00000028313885080033956810000005857765275201203380_" gradientUnits="userSpaceOnUse" x1="2484.1162" y1="699.9792" x2="1159.5057" y2="2236.2566">
				<stop  offset="0" style="stop-color:#09005D"/>
				<stop  offset="1" style="stop-color:#1A0F91"/>
			</linearGradient>
			<path style="fill:url(#SVGID_00000028313885080033956810000005857765275201203380_);" d="M1626.587,1826.853
				c0,0-122.451-488.578,140.165-900.861c6.01-9.435,16.538-14.996,27.712-14.452c61.896,3.016,274.388,29.092,513.381,237.207
				c0,0-251.181,212.899-281.381,688.503C2026.464,1837.25,1793.687,1847.28,1626.587,1826.853z"/>
			
				<linearGradient id="SVGID_00000137817094086186093230000016418144125218083229_" gradientUnits="userSpaceOnUse" x1="1889.0055" y1="1150.3595" x2="2230.2852" y2="836.3818">
				<stop  offset="0" style="stop-color:#FEBBBA"/>
				<stop  offset="1" style="stop-color:#FF928E"/>
			</linearGradient>
			<path style="fill:url(#SVGID_00000137817094086186093230000016418144125218083229_);" d="M2123.325,823.021l-124.299,137.421
				c-11.688,12.922-11.481,31.883,0.47,44.593c20.74,22.055,57.46,50.541,105.496,45.092c15.72-1.783,29.517-10.691,37.202-23.645
				l75.311-126.946L2123.325,823.021z"/>
			<g>
				
					<linearGradient id="SVGID_00000084505466712127783610000017038992668334925718_" gradientUnits="userSpaceOnUse" x1="2341.4011" y1="675.4321" x2="2137.5776" y2="440.9684" gradientTransform="matrix(0.986 0.1668 -0.1668 0.986 84.7881 -157.7789)">
					<stop  offset="0" style="stop-color:#FEBBBA"/>
					<stop  offset="1" style="stop-color:#FF928E"/>
				</linearGradient>
				<path style="fill:url(#SVGID_00000084505466712127783610000017038992668334925718_);" d="M2333.275,734.757
					c0,0-12.62,230.937-113.999,243.171c-101.379,12.234-106.856-214.662-106.856-214.662S2209.749,559.826,2333.275,734.757z"/>
				
					<linearGradient id="SVGID_00000165956228691123874310000000211677924541815186_" gradientUnits="userSpaceOnUse" x1="2279.6765" y1="729.0875" x2="2075.8518" y2="494.6222" gradientTransform="matrix(0.986 0.1668 -0.1668 0.986 84.7881 -157.7789)">
					<stop  offset="0" style="stop-color:#FEBBBA"/>
					<stop  offset="1" style="stop-color:#FF928E"/>
				</linearGradient>
				<path style="fill:url(#SVGID_00000165956228691123874310000000211677924541815186_);" d="M2156.434,834.545
					c0,0,3.539-71.435-37.19-57.571c-52.48,17.864,13.518,74.305,13.518,74.305L2156.434,834.545z"/>
				
					<linearGradient id="SVGID_00000021089695265219191690000000802613898185653910_" gradientUnits="userSpaceOnUse" x1="2079.2644" y1="705.2572" x2="2422.9753" y2="705.2572">
					<stop  offset="0" style="stop-color:#09005D"/>
					<stop  offset="1" style="stop-color:#1A0F91"/>
				</linearGradient>
				<path style="fill:url(#SVGID_00000021089695265219191690000000802613898185653910_);" d="M2147.354,786.336
					c0,0-15.745,47.444,0,36.685c15.745-10.759,28.366-127.382,98.689-91.667s201.709,57.329,172.859-78.253
					c-28.851-135.582-110.396-18.667-226.328-50.106c-115.932-31.439-100.612,78.598-88.623,98.247
					c-34.164,16.679-31.639,58.847,0,84.933C2113.255,779.424,2131.609,762.376,2147.354,786.336z"/>
				<path style="fill:#91B3FA;" d="M2361.312,748.401c-0.698,0-1.317-0.497-1.448-1.208c-0.147-0.8,0.383-1.569,1.183-1.715
					c0.237-0.045,23.912-4.637,37.432-26.599c11.371-18.47,12.522-43.603,3.421-74.698c-0.229-0.781,0.22-1.6,1-1.829
					c0.784-0.229,1.601,0.222,1.829,1c9.352,31.954,8.085,57.898-3.765,77.114c-14.233,23.077-38.365,27.724-39.386,27.91
					C2361.489,748.393,2361.399,748.401,2361.312,748.401z"/>
			</g>
			
				<linearGradient id="SVGID_00000150784831453705732980000010185043115680138940_" gradientUnits="userSpaceOnUse" x1="1022.3278" y1="242.5053" x2="1657.3226" y2="1225.7239">
				<stop  offset="0" style="stop-color:#09005D"/>
				<stop  offset="1" style="stop-color:#1A0F91"/>
			</linearGradient>
			<path style="fill:url(#SVGID_00000150784831453705732980000010185043115680138940_);" d="M1757.235,919.906
				c0,0-404.617,394.509-304.219,510.127c100.398,115.618,434.757,257.375,434.757,257.375l-10.634-77.544
				c0,0-285.94-216.797-249.183-251.027c19.166-17.848,79.221-75.841,132.314-127.262c69.707-67.512,95.405-169.488,63.272-261.055
				C1809.332,930.029,1788.267,902.937,1757.235,919.906z"/>
		</g>
		<g>
			<g>
				
					<linearGradient id="SVGID_00000035526771916539840600000011562425205151638922_" gradientUnits="userSpaceOnUse" x1="4388.2583" y1="3323.9773" x2="906.0356" y2="2320.2808">
					<stop  offset="0" style="stop-color:#4F52FF"/>
					<stop  offset="1" style="stop-color:#4042E2"/>
				</linearGradient>
				<path style="fill:url(#SVGID_00000035526771916539840600000011562425205151638922_);" d="M3101.751,3051.035
					c-813.163-442.849-1665.805-411.233-2554.79,33.533c-36.929,18.476-80.384-8.51-80.384-49.803v-700.861
					c0-55.492,29.104-106.94,76.667-135.526c886.835-532.99,1762.311-535.019,2597.69,4.215
					c49.37,31.868,79.357,86.495,80.135,145.252l8.292,626.269C3230.234,3040.119,3159.722,3082.605,3101.751,3051.035z"/>
				
					<linearGradient id="SVGID_00000070810364389242508980000009422978822045174403_" gradientUnits="userSpaceOnUse" x1="1837.4678" y1="3613.1077" x2="1776.0168" y2="6508.1323">
					<stop  offset="0" style="stop-color:#4F52FF"/>
					<stop  offset="1" style="stop-color:#4042E2"/>
				</linearGradient>
				<path style="fill:url(#SVGID_00000070810364389242508980000009422978822045174403_);" d="M3089.429,3034.667
					c-798.779-425.003-1636.339-394.661-2509.599,32.182c-36.276,17.731-78.962-8.167-78.962-47.796v-672.616
					c0-53.256,28.589-102.63,75.311-130.064c871.148-511.511,1731.138-513.458,2551.74,4.045
					c48.497,30.584,77.953,83.009,78.717,139.399l8.145,601.031C3215.639,3024.191,3146.374,3064.965,3089.429,3034.667z"/>
			</g>
			<g>
				<g>
					
						<linearGradient id="SVGID_00000150787730394269607630000007421386479378608061_" gradientUnits="userSpaceOnUse" x1="1995.6302" y1="1894.304" x2="1480.0674" y2="2845.2292" gradientTransform="matrix(0.3621 -0.9322 0.9322 0.3621 -813.6256 3210.7695)">
						<stop  offset="0" style="stop-color:#FF928E"/>
						<stop  offset="1" style="stop-color:#FE7062"/>
					</linearGradient>
					<path style="fill:url(#SVGID_00000150787730394269607630000007421386479378608061_);" d="M2109.146,2192.545l-89.457,90.742
						c-6.957,7.058-9.996,17.086-8.126,26.819l24.04,125.137c4.707,24.507-20.729,43.772-43.045,32.602l-113.945-57.036
						c-8.865-4.436-19.34-4.228-28.017,0.559L1739.01,2472.9c-21.85,12.051-48.036-6.187-44.31-30.862l19.035-125.995
						c1.479-9.798-1.957-19.697-9.19-26.472l-93.001-87.109c-18.212-17.059-8.959-47.597,15.658-51.677l125.71-20.834
						c9.777-1.619,18.13-7.947,22.339-16.919l54.105-115.367c10.598-22.594,42.5-23.229,53.987-1.076l58.661,113.12
						c4.563,8.797,13.161,14.786,22.994,16.015l126.441,15.809C2116.2,2144.626,2126.665,2174.771,2109.146,2192.545z"/>
					<path style="opacity:0.62;fill:#FFFFFF;" d="M1855.232,2379.345c-6.574,1.114-12.863,3.313-18.697,6.532l-72.872,40.181
						c-7.66,4.224-16.873,3.742-24.055-1.262c-7.175-4.996-10.817-13.472-9.514-22.117l12.429-82.287
						c2.912-19.275-3.845-38.743-18.072-52.073l-60.741-56.89c-6.381-5.975-8.77-14.888-6.237-23.26
						c2.547-8.37,9.48-14.456,18.103-15.889l41.949-6.952l1.058,6.381l-41.949,6.953c-6.28,1.039-11.104,5.332-12.969,11.385
						c-1.841,6.086-0.174,12.312,4.47,16.661l60.74,56.889c15.786,14.788,23.28,36.381,20.05,57.763l-12.426,82.285
						c-0.951,6.288,1.595,12.209,6.813,15.845c5.216,3.636,11.654,3.971,17.225,0.899l72.873-40.18
						c6.472-3.569,13.451-6.008,20.736-7.246L1855.232,2379.345z"/>
					<path style="opacity:0.62;fill:#FFFFFF;" d="M1997.557,2409.896c-1.496,3.851-4.052,7.294-7.511,9.913
						c-6.974,5.282-16.16,6.128-23.982,2.215l-56.933-28.496l2.899-5.788l56.933,28.496c5.685,2.849,12.105,2.257,17.175-1.584
						c5.073-3.841,7.383-9.861,6.176-16.109l-15.693-81.716c-4.038-20.982,2.709-43.289,17.73-58.519l58.422-59.262
						c4.459-4.534,5.874-10.827,3.801-16.83c-2.086-6.009-7.099-10.067-13.41-10.853l-82.583-10.328
						c-21.462-2.685-40.213-15.748-50.157-34.941l-38.323-73.877c-2.93-5.65-8.469-8.945-14.828-8.818
						c-6.362,0.127-11.767,3.642-14.464,9.398l-35.336,75.355c-3.655,7.79-8.723,14.691-15.072,20.51l-4.368-4.768
						c5.719-5.246,10.291-11.469,13.58-18.493l35.336-75.35c3.713-7.918,11.448-12.947,20.192-13.121
						c8.745-0.174,16.681,4.541,20.702,12.305l38.32,73.879c8.971,17.305,25.878,29.083,45.22,31.5l82.584,10.326
						c8.676,1.083,15.85,6.889,18.72,15.153c2.863,8.263,0.83,17.265-5.304,23.495l-58.423,59.261
						c-13.545,13.735-19.629,33.835-15.978,52.757l15.693,81.718C1999.499,2401.649,1999.075,2405.984,1997.557,2409.896z"/>
					
						<rect x="1717.884" y="2163.225" transform="matrix(0.9866 -0.1634 0.1634 0.9866 -330.7042 311.8365)" style="opacity:0.62;fill:#FFFFFF;" width="25.196" height="6.47"/>
				</g>
				<g>
					
						<linearGradient id="SVGID_00000155832416339381183520000005674552660225952135_" gradientUnits="userSpaceOnUse" x1="1395.0562" y1="949.7984" x2="879.455" y2="1900.7946" gradientTransform="matrix(0.0903 -0.9959 0.9959 0.0903 27.5907 3486.9929)">
						<stop  offset="0" style="stop-color:#FF928E"/>
						<stop  offset="1" style="stop-color:#FE7062"/>
					</linearGradient>
					<path style="fill:url(#SVGID_00000155832416339381183520000005674552660225952135_);" d="M1560.005,2213.469l-60.889,111.934
						c-4.735,8.706-4.884,19.184-0.397,28.02l57.693,113.617c11.297,22.25-7.822,47.797-32.356,43.23l-125.271-23.318
						c-9.745-1.813-19.755,1.283-26.771,8.281l-90.23,89.978c-17.668,17.621-47.875,7.332-51.114-17.412l-16.533-126.348
						c-1.286-9.825-7.325-18.389-16.149-22.9l-113.456-58.008c-22.218-11.36-21.766-43.266,0.764-53.992l115.054-54.77
						c8.949-4.259,15.227-12.649,16.792-22.434l20.108-125.828c3.94-24.644,34.423-34.072,51.586-15.957l87.643,92.498
						c6.817,7.193,16.735,10.572,26.525,9.035l125.885-19.757C1553.539,2165.467,1571.928,2191.545,1560.005,2213.469z"/>
					<path style="opacity:0.62;fill:#FFFFFF;" d="M1367.618,2463.175c-6.01,2.888-11.446,6.74-16.163,11.446l-58.926,58.758
						c-6.194,6.177-15.182,8.26-23.466,5.437c-8.276-2.818-14.119-9.958-15.257-18.626l-10.8-82.516
						c-2.529-19.329-14.404-36.171-31.762-45.049l-74.1-37.884c-7.784-3.978-12.544-11.884-12.424-20.629
						c0.135-8.748,5.114-16.513,13.006-20.274l38.393-18.276l2.781,5.84l-38.393,18.277c-5.748,2.735-9.198,8.194-9.317,14.526
						c-0.087,6.358,3.236,11.88,8.901,14.776l74.099,37.884c19.259,9.848,32.429,28.529,35.235,49.971l10.803,82.514
						c0.824,6.305,4.908,11.292,10.928,13.344c6.018,2.052,12.297,0.595,16.803-3.897l58.927-58.757
						c5.233-5.219,11.266-9.491,17.926-12.695L1367.618,2463.175z"/>
					<path style="opacity:0.62;fill:#FFFFFF;" d="M1512.842,2453.195c-0.373,4.115-1.879,8.13-4.478,11.604
						c-5.242,7.004-13.837,10.356-22.436,8.758l-62.592-11.649l1.186-6.364l62.592,11.648c6.251,1.166,12.257-1.177,16.068-6.27
						c3.813-5.094,4.37-11.518,1.482-17.189l-37.669-74.194c-9.681-19.049-9.362-42.352,0.864-61.139l39.765-73.102
						c3.032-5.59,2.652-12.029-1-17.225c-3.665-5.198-9.605-7.713-15.887-6.724l-82.22,12.901c-21.368,3.352-43-4.019-57.861-19.716
						l-57.25-60.406c-4.377-4.62-10.612-6.255-16.688-4.375c-6.079,1.881-10.302,6.752-11.303,13.03l-13.131,82.187
						c-1.36,8.497-4.323,16.53-8.816,23.877l-5.516-3.374c4.046-6.623,6.72-13.866,7.939-21.526l13.132-82.182
						c1.38-8.635,7.424-15.607,15.779-18.191c8.356-2.585,17.286-0.247,23.296,6.104l57.248,60.409
						c13.404,14.151,32.909,20.797,52.165,17.774l82.22-12.904c8.637-1.357,17.137,2.239,22.179,9.388
						c5.035,7.15,5.57,16.363,1.397,24.046l-39.767,73.101c-9.221,16.943-9.512,37.942-0.773,55.118l37.669,74.197
						C1512.43,2444.734,1513.22,2449.017,1512.842,2453.195z"/>
					
						<rect x="1176.286" y="2289.832" transform="matrix(0.903 -0.4297 0.4297 0.903 -869.9921 733.3774)" style="opacity:0.62;fill:#FFFFFF;" width="25.196" height="6.47"/>
				</g>
				<g>
					
						<linearGradient id="SVGID_00000002361633388333289670000014100505209491243413_" gradientUnits="userSpaceOnUse" x1="1180.4807" y1="424.7734" x2="664.8796" y2="1375.7697" gradientTransform="matrix(0.0903 -0.9959 0.9959 0.0903 27.5907 3486.9929)">
						<stop  offset="0" style="stop-color:#FF928E"/>
						<stop  offset="1" style="stop-color:#FE7062"/>
					</linearGradient>
					<path style="fill:url(#SVGID_00000002361633388333289670000014100505209491243413_);" d="M1017.756,2379.754l-60.889,111.934
						c-4.735,8.706-4.884,19.184-0.397,28.02l57.693,113.617c11.297,22.25-7.822,47.797-32.356,43.23l-125.271-23.318
						c-9.745-1.813-19.755,1.283-26.771,8.281l-90.23,89.978c-17.668,17.621-47.875,7.332-51.114-17.412l-16.533-126.348
						c-1.287-9.825-7.325-18.389-16.149-22.9l-113.456-58.008c-22.218-11.36-21.766-43.267,0.764-53.992l115.054-54.77
						c8.949-4.259,15.227-12.649,16.792-22.434l20.108-125.828c3.94-24.644,34.423-34.072,51.586-15.957l87.643,92.498
						c6.817,7.193,16.735,10.572,26.525,9.035l125.885-19.758C1011.291,2331.752,1029.68,2357.831,1017.756,2379.754z"/>
					<path style="opacity:0.62;fill:#FFFFFF;" d="M825.37,2629.461c-6.01,2.888-11.446,6.74-16.163,11.446l-58.926,58.758
						c-6.194,6.177-15.182,8.26-23.466,5.437c-8.276-2.818-14.119-9.958-15.257-18.625l-10.8-82.516
						c-2.529-19.329-14.404-36.171-31.762-45.049l-74.1-37.884c-7.784-3.979-12.543-11.884-12.424-20.629
						c0.135-8.748,5.114-16.513,13.006-20.274l38.393-18.276l2.781,5.84l-38.393,18.277c-5.748,2.735-9.198,8.194-9.317,14.526
						c-0.087,6.358,3.236,11.88,8.901,14.776l74.098,37.884c19.259,9.849,32.43,28.529,35.235,49.971l10.803,82.514
						c0.824,6.305,4.908,11.292,10.928,13.344c6.018,2.052,12.297,0.595,16.803-3.897l58.927-58.757
						c5.233-5.219,11.266-9.491,17.925-12.695L825.37,2629.461z"/>
					<path style="opacity:0.62;fill:#FFFFFF;" d="M970.593,2619.481c-0.373,4.115-1.879,8.13-4.478,11.604
						c-5.242,7.004-13.837,10.356-22.436,8.757l-62.592-11.648l1.186-6.364l62.592,11.648c6.251,1.166,12.257-1.177,16.068-6.27
						c3.813-5.094,4.37-11.517,1.482-17.189l-37.669-74.194c-9.681-19.049-9.362-42.352,0.864-61.139l39.765-73.102
						c3.032-5.59,2.652-12.029-0.999-17.225c-3.666-5.198-9.605-7.713-15.887-6.724l-82.22,12.901
						c-21.368,3.352-43-4.019-57.862-19.716l-57.25-60.406c-4.377-4.619-10.612-6.255-16.688-4.375
						c-6.079,1.881-10.302,6.752-11.303,13.03l-13.131,82.187c-1.36,8.497-4.323,16.53-8.816,23.877l-5.516-3.374
						c4.046-6.623,6.72-13.866,7.939-21.526l13.132-82.182c1.38-8.636,7.424-15.607,15.779-18.191
						c8.356-2.585,17.286-0.247,23.296,6.104l57.248,60.409c13.404,14.151,32.909,20.797,52.165,17.774l82.22-12.904
						c8.637-1.357,17.137,2.239,22.179,9.388c5.035,7.15,5.57,16.363,1.397,24.046l-39.767,73.101
						c-9.221,16.943-9.512,37.942-0.773,55.118l37.669,74.197C970.181,2611.02,970.972,2615.303,970.593,2619.481z"/>
					
						<rect x="634.037" y="2456.118" transform="matrix(0.903 -0.4297 0.4297 0.903 -994.0696 516.5092)" style="opacity:0.62;fill:#FFFFFF;" width="25.196" height="6.47"/>
				</g>
				
					<linearGradient id="SVGID_00000037655716029705984830000002791843161600185767_" gradientUnits="userSpaceOnUse" x1="1281.1957" y1="6328.624" x2="2455.5945" y2="3597.4639">
					<stop  offset="0" style="stop-color:#4F52FF"/>
					<stop  offset="1" style="stop-color:#4042E2"/>
				</linearGradient>
				<path style="fill:url(#SVGID_00000037655716029705984830000002791843161600185767_);" d="M3172.216,2560.908l-118.915,45.78
					c-9.248,3.561-16.152,11.444-18.462,21.082l-29.7,123.916c-5.817,24.267-36.934,31.33-52.658,11.952l-80.288-98.947
					c-6.247-7.696-15.876-11.827-25.754-11.044l-127.03,10.044c-24.875,1.969-41.211-25.445-27.641-46.387l69.297-106.935
					c5.388-8.316,6.34-18.751,2.543-27.906l-48.806-117.708c-9.558-23.051,11.465-47.056,35.574-40.622l123.116,32.857
					c9.575,2.556,19.793,0.236,27.328-6.202l96.863-82.792c18.972-16.214,48.297-3.637,49.627,21.281l6.796,127.244
					c0.53,9.896,5.893,18.897,14.344,24.072l108.672,66.541C3198.403,2520.162,3195.506,2551.94,3172.216,2560.908z"/>
				<g>
					
						<linearGradient id="SVGID_00000098910874357790283480000002939479467543540619_" gradientUnits="userSpaceOnUse" x1="2608.0276" y1="2756.0347" x2="2092.4299" y2="3707.0242" gradientTransform="matrix(0.6079 -0.794 0.794 0.6079 -1494.7179 2458.2581)">
						<stop  offset="0" style="stop-color:#FF928E"/>
						<stop  offset="1" style="stop-color:#FE7062"/>
					</linearGradient>
					<path style="fill:url(#SVGID_00000098910874357790283480000002939479467543540619_);" d="M2652.413,2334.079l-111.232,62.161
						c-8.651,4.835-14.368,13.617-15.29,23.484l-11.849,126.874c-2.322,24.846-32.125,36.246-50.435,19.289l-93.493-86.578
						c-7.274-6.734-17.391-9.459-27.059-7.285l-124.327,27.935c-24.346,5.472-44.399-19.351-33.932-42.005l53.452-115.672
						c4.156-8.995,3.62-19.46-1.435-27.985l-64.986-109.608c-12.726-21.465,4.685-48.206,29.462-45.251l126.529,15.088
						c9.841,1.174,19.627-2.57,26.174-10.01l84.16-95.677c16.484-18.738,47.295-10.441,52.141,14.038l24.75,124.998
						c1.926,9.721,8.51,17.872,17.609,21.797l117.001,50.478C2672.564,2290.035,2674.197,2321.903,2652.413,2334.079z"/>
					<path style="opacity:0.62;fill:#FFFFFF;" d="M2356.447,2442.569c-6.624-0.766-13.276-0.409-19.777,1.053l-81.192,18.24
						c-8.535,1.918-17.247-1.117-22.746-7.927c-5.495-6.8-6.625-15.957-2.962-23.894l34.906-75.545
						c8.177-17.696,7.124-38.276-2.817-55.048l-42.445-71.585c-4.459-7.519-4.265-16.745,0.504-24.076
						c4.783-7.326,13.138-11.235,21.819-10.204l42.222,5.035l-0.765,6.423l-42.222-5.034c-6.32-0.755-12.151,2.02-15.632,7.312
						c-3.467,5.33-3.604,11.774-0.359,17.247l42.444,71.584c11.031,18.607,12.198,41.434,3.127,61.064l-34.903,75.545
						c-2.668,5.772-1.877,12.169,2.119,17.117c3.994,4.948,10.082,7.066,16.29,5.672l81.192-18.239
						c7.211-1.62,14.593-2.014,21.935-1.169L2356.447,2442.569z"/>
					<path style="opacity:0.62;fill:#FFFFFF;" d="M2484.584,2511.637c-2.512,3.281-5.928,5.872-9.98,7.422
						c-8.171,3.125-17.229,1.373-23.647-4.568l-46.715-43.257l4.399-4.749l46.715,43.257c4.664,4.323,10.994,5.546,16.935,3.273
						c5.943-2.272,9.843-7.407,10.427-13.745l7.742-82.848c1.98-21.276,14.687-40.812,33.362-51.243l72.643-40.597
						c5.548-3.109,8.663-8.757,8.348-15.1c-0.325-6.352-4.006-11.649-9.847-14.165l-76.417-32.972
						c-19.859-8.57-34.218-26.348-38.409-47.555l-16.175-81.638c-1.236-6.243-5.636-10.953-11.777-12.607
						c-6.145-1.654-12.315,0.212-16.513,4.987l-54.968,62.494c-5.685,6.46-12.478,11.672-20.198,15.487l-2.864-5.797
						c6.956-3.441,13.083-8.14,18.203-13.967l54.966-62.49c5.776-6.566,14.608-9.236,23.052-6.962
						c8.446,2.274,14.75,9.017,16.443,17.595l16.172,81.64c3.783,19.121,16.73,35.151,34.628,42.872l76.418,32.97
						c8.029,3.462,13.297,11.04,13.746,19.777c0.442,8.734-4.023,16.811-11.652,21.08l-72.644,40.595
						c-16.841,9.407-28.294,27.01-30.071,46.199l-7.744,82.85C2488.751,2504.261,2487.134,2508.305,2484.584,2511.637z"/>
					
						<rect x="2292.851" y="2190.724" transform="matrix(0.1185 -0.993 0.993 0.1185 -163.8606 4222.0591)" style="opacity:0.62;fill:#FFFFFF;" width="6.47" height="25.196"/>
				</g>
			</g>
		</g>
		<g>
			<g>
				
					<linearGradient id="SVGID_00000043439475791971241030000014829808351733927851_" gradientUnits="userSpaceOnUse" x1="2661.5996" y1="833.2892" x2="2028.3092" y2="1830.7219">
					<stop  offset="0" style="stop-color:#FF928E"/>
					<stop  offset="1" style="stop-color:#FE7062"/>
				</linearGradient>
				<path style="fill:url(#SVGID_00000043439475791971241030000014829808351733927851_);" d="M2735.909,1594.974l-218.521,107.632
					c-16.995,8.372-28.782,24.569-31.521,43.315l-35.213,241.036c-6.898,47.203-64.926,66.007-98.198,31.82l-169.893-174.562
					c-13.218-13.578-32.262-19.784-50.934-16.593l-240.122,40.992c-47.021,8.03-82.841-41.349-60.611-83.557l113.524-215.523
					c8.826-16.76,8.842-36.792,0.038-53.568l-113.186-215.7c-22.165-42.241,13.727-91.564,60.737-83.464l240.056,41.362
					c18.67,3.219,37.725-2.958,50.961-16.512l170.163-174.302c33.329-34.135,91.326-15.24,98.148,31.974l34.844,241.088
					c2.712,18.749,14.472,34.963,31.454,43.36l218.355,107.978C2778.751,1512.89,2778.706,1573.891,2735.909,1594.974z"/>
				<path style="opacity:0.62;fill:#FFFFFF;" d="M2160.119,1772.718c-12.57-2.119-25.304-2.099-37.861,0.048l-156.812,26.764
					c-16.484,2.814-32.815-3.845-42.638-17.391c-9.815-13.527-11.065-31.12-3.283-45.909l74.137-140.758
					c17.367-32.972,17.399-72.365,0.085-105.371l-73.926-140.874c-7.767-14.797-6.48-32.39,3.351-45.914
					c9.858-13.512,26.197-20.145,42.666-17.314l80.105,13.802l-2.098,12.186l-80.106-13.801
					c-11.991-2.069-23.399,2.65-30.568,12.407c-7.148,9.832-8.048,22.12-2.397,32.889l73.924,140.872
					c19.211,36.617,19.176,80.311-0.09,116.886l-74.13,140.758c-5.666,10.755-4.791,23.045,2.347,32.888
					c7.134,9.841,18.546,14.491,30.535,12.445l156.813-26.762c13.927-2.378,28.059-2.396,41.991-0.055L2160.119,1772.718z"/>
				<path style="opacity:0.62;fill:#FFFFFF;" d="M2397.889,1917.291c-5.121,6.014-11.899,10.623-19.789,13.18
					c-15.909,5.155-33.027,0.911-44.691-11.068l-84.889-87.216l8.87-8.629l84.889,87.216c8.475,8.715,20.438,11.679,32.004,7.93
					c11.572-3.749,19.526-13.165,21.271-25.205l23.003-157.396c5.891-40.42,32.087-76.456,68.775-94.516l142.71-70.293
					c10.899-5.385,17.407-15.859,17.435-27.999c0.009-12.159-6.493-22.636-17.392-28.02l-142.613-70.529
					c-37.062-18.332-62.71-53.697-68.606-94.597l-22.778-157.46c-1.74-12.041-9.672-21.47-21.233-25.236
					c-11.567-3.767-23.532-0.817-32.019,7.881l-111.14,113.851c-11.494,11.768-24.979,21.045-40.097,27.561l-4.892-11.352
					c13.621-5.88,25.785-14.241,36.136-24.857l111.137-113.843c11.678-11.963,28.804-16.183,44.7-11.004
					c15.898,5.179,27.264,18.678,29.646,35.222l22.772,157.461c5.324,36.88,28.45,68.767,61.854,85.282l142.615,70.526
					c14.984,7.406,24.289,22.395,24.279,39.119c-0.023,16.718-9.348,31.693-24.336,39.088l-142.712,70.29
					c-33.084,16.288-56.696,48.757-61.993,85.213l-23.006,157.399C2406.577,1903.624,2403.089,1911.183,2397.889,1917.291z"/>
				
					<rect x="2062.445" y="1285.903" transform="matrix(0.1699 -0.9855 0.9855 0.1699 426.193 3125.9404)" style="opacity:0.62;fill:#FFFFFF;" width="12.368" height="48.166"/>
			</g>
			<g>
				
					<linearGradient id="SVGID_00000104705687071015234010000011514020620106599350_" gradientUnits="userSpaceOnUse" x1="1452.2595" y1="1832.8795" x2="1762.938" y2="1617.7941" gradientTransform="matrix(0.9204 -0.3909 0.3909 0.9204 -96.3474 306.2076)">
					<stop  offset="0" style="stop-color:#FEBBBA"/>
					<stop  offset="1" style="stop-color:#FF928E"/>
				</linearGradient>
				<path style="fill:url(#SVGID_00000104705687071015234010000011514020620106599350_);" d="M1853,1605.531
					c0,0-1.698-33.33-10.33-48.766c-8.632-15.436,11.455-18.984,21.345-4.497s16.97,54.667,16.97,54.667
					S1863.752,1617.16,1853,1605.531z"/>
				
					<linearGradient id="SVGID_00000046316479556483908660000006219186693579555979_" gradientUnits="userSpaceOnUse" x1="1484.1102" y1="1878.8859" x2="1794.7893" y2="1663.8" gradientTransform="matrix(0.9204 -0.3909 0.3909 0.9204 -96.3474 306.2076)">
					<stop  offset="0" style="stop-color:#FEBBBA"/>
					<stop  offset="1" style="stop-color:#FF928E"/>
				</linearGradient>
				<path style="fill:url(#SVGID_00000046316479556483908660000006219186693579555979_);" d="M1919.281,1691.403
					c-3.613,5.85-10.005,9.406-16.881,9.385s-13.235-3.617-16.818-9.485c-11.451-18.753-28.792-48.943-31.977-64.67
					c-4.832-23.86-8.117-55.78,23.554-61.828c31.671-6.047,72.9-4.066,72.9-4.066s10.415,29.328-15.548,29.465l19.741,8.489
					c0,0,7.77,23.725-16.046,19.402l20.767,13.559c0,0-0.011,22.2-18.833,15.958
					C1926.53,1643.1,1931.411,1671.759,1919.281,1691.403z"/>
			</g>
			
				<linearGradient id="SVGID_00000027562917181287538370000004180991689172904841_" gradientUnits="userSpaceOnUse" x1="-854.3913" y1="709.6729" x2="-923.4583" y2="377.8152" gradientTransform="matrix(-0.8909 -0.4542 -0.3264 0.6402 2089.3022 631.178)">
				<stop  offset="0" style="stop-color:#FEBBBA"/>
				<stop  offset="1" style="stop-color:#FF928E"/>
			</linearGradient>
			<path style="fill:url(#SVGID_00000027562917181287538370000004180991689172904841_);" d="M2685.8,1417.615
				c-62.415-30.395-86.252-29.836-112.525-6.878l44.281,34.647c14.31,13.018,11.615,26.462,6.162,37.767
				c-6.748,13.99,5.525,33.824,25.863,40.34c14.855,4.76,29.152,1.174,42.44-17.464l11.699-22.95
				C2700.092,1466.217,2704.268,1431.15,2685.8,1417.615z"/>
		</g>
	</g>
</g>
</svg>
