<svg xmlns="http://www.w3.org/2000/svg" xmlns:xlink="http://www.w3.org/1999/xlink" width="1080" zoomAndPan="magnify" viewBox="0 0 810 809.999993" height="1080" preserveAspectRatio="xMidYMid meet" version="1.0"><defs><clipPath id="ce52dea945"><path d="M 68 59.972656 L 742 59.972656 L 742 734 L 68 734 Z M 68 59.972656 " clip-rule="nonzero"/></clipPath></defs><g clip-path="url(#ce52dea945)"><path fill="#ffde59" d="M 741.738281 396.710938 C 741.738281 402.222656 741.605469 407.730469 741.332031 413.234375 C 741.0625 418.738281 740.65625 424.234375 740.117188 429.71875 C 739.578125 435.203125 738.902344 440.671875 738.09375 446.121094 C 737.285156 451.574219 736.34375 457 735.269531 462.40625 C 734.195312 467.8125 732.988281 473.1875 731.648438 478.53125 C 730.308594 483.878906 728.839844 489.1875 727.238281 494.460938 C 725.640625 499.734375 723.910156 504.96875 722.054688 510.15625 C 720.199219 515.34375 718.214844 520.484375 716.105469 525.578125 C 713.996094 530.667969 711.765625 535.703125 709.410156 540.6875 C 707.050781 545.667969 704.574219 550.589844 701.976562 555.449219 C 699.378906 560.308594 696.664062 565.105469 693.832031 569.832031 C 690.996094 574.558594 688.050781 579.210938 684.988281 583.792969 C 681.925781 588.375 678.753906 592.878906 675.472656 597.308594 C 672.1875 601.734375 668.800781 606.078125 665.304688 610.335938 C 661.808594 614.597656 658.207031 618.769531 654.507812 622.851562 C 650.804688 626.933594 647.007812 630.925781 643.109375 634.824219 C 639.214844 638.71875 635.222656 642.519531 631.140625 646.21875 C 627.058594 649.921875 622.886719 653.519531 618.625 657.015625 C 614.363281 660.511719 610.023438 663.902344 605.59375 667.183594 C 601.167969 670.464844 596.664062 673.636719 592.082031 676.699219 C 587.5 679.761719 582.84375 682.710938 578.117188 685.542969 C 573.390625 688.375 568.597656 691.089844 563.738281 693.691406 C 558.878906 696.289062 553.957031 698.765625 548.972656 701.121094 C 543.992188 703.476562 538.957031 705.710938 533.863281 707.820312 C 528.773438 709.925781 523.632812 711.910156 518.445312 713.765625 C 513.253906 715.625 508.023438 717.351562 502.75 718.953125 C 497.476562 720.550781 492.167969 722.019531 486.820312 723.359375 C 481.476562 724.699219 476.097656 725.90625 470.695312 726.980469 C 465.289062 728.054688 459.859375 728.996094 454.410156 729.804688 C 448.957031 730.617188 443.492188 731.289062 438.007812 731.828125 C 432.523438 732.371094 427.027344 732.773438 421.523438 733.046875 C 416.019531 733.316406 410.511719 733.453125 405 733.453125 C 399.488281 733.453125 393.980469 733.316406 388.476562 733.046875 C 382.972656 732.773438 377.476562 732.371094 371.992188 731.828125 C 366.507812 731.289062 361.042969 730.617188 355.589844 729.804688 C 350.136719 728.996094 344.710938 728.054688 339.304688 726.980469 C 333.898438 725.90625 328.523438 724.699219 323.179688 723.359375 C 317.832031 722.019531 312.523438 720.550781 307.25 718.953125 C 301.976562 717.351562 296.746094 715.625 291.554688 713.765625 C 286.367188 711.910156 281.226562 709.925781 276.136719 707.820312 C 271.042969 705.710938 266.007812 703.476562 261.023438 701.121094 C 256.042969 698.765625 251.121094 696.289062 246.261719 693.691406 C 241.402344 691.089844 236.609375 688.375 231.882812 685.542969 C 227.152344 682.710938 222.5 679.761719 217.917969 676.699219 C 213.335938 673.636719 208.832031 670.464844 204.402344 667.183594 C 199.976562 663.902344 195.632812 660.511719 191.375 657.015625 C 187.113281 653.519531 182.941406 649.921875 178.859375 646.21875 C 174.777344 642.519531 170.785156 638.71875 166.890625 634.824219 C 162.992188 630.925781 159.191406 626.933594 155.492188 622.851562 C 151.792969 618.769531 148.191406 614.597656 144.695312 610.335938 C 141.199219 606.078125 137.8125 601.734375 134.527344 597.308594 C 131.246094 592.878906 128.074219 588.375 125.011719 583.792969 C 121.949219 579.210938 119 574.558594 116.167969 569.832031 C 113.335938 565.101562 110.621094 560.308594 108.023438 555.449219 C 105.425781 550.589844 102.945312 545.667969 100.589844 540.6875 C 98.234375 535.703125 96 530.667969 93.894531 525.578125 C 91.785156 520.484375 89.800781 515.34375 87.945312 510.15625 C 86.085938 504.96875 84.359375 499.734375 82.761719 494.460938 C 81.160156 489.1875 79.691406 483.878906 78.351562 478.53125 C 77.011719 473.1875 75.804688 467.8125 74.730469 462.40625 C 73.65625 457 72.714844 451.574219 71.90625 446.121094 C 71.097656 440.671875 70.421875 435.203125 69.882812 429.71875 C 69.339844 424.234375 68.9375 418.738281 68.664062 413.234375 C 68.394531 407.730469 68.261719 402.222656 68.261719 396.710938 C 68.261719 210.730469 219.019531 59.972656 405 59.972656 C 590.980469 59.972656 741.738281 210.730469 741.738281 396.710938 Z M 741.738281 396.710938 " fill-opacity="1" fill-rule="nonzero"/></g><path fill="#18b9cd" d="M 689.953125 576.25 C 686.453125 581.800781 682.796875 587.246094 678.980469 592.585938 C 675.164062 597.921875 671.191406 603.144531 667.070312 608.25 C 662.949219 613.355469 658.683594 618.335938 654.269531 623.191406 C 649.855469 628.046875 645.304688 632.773438 640.617188 637.363281 C 635.925781 641.953125 631.105469 646.402344 626.160156 650.710938 C 621.210938 655.019531 616.136719 659.179688 610.945312 663.191406 C 605.753906 667.203125 600.449219 671.0625 595.03125 674.761719 C 589.613281 678.464844 584.089844 682.003906 578.464844 685.386719 C 572.84375 688.765625 567.125 691.976562 561.3125 695.023438 C 555.5 698.066406 549.601562 700.941406 543.621094 703.640625 C 537.640625 706.339844 531.585938 708.863281 525.457031 711.210938 C 519.332031 713.558594 513.140625 715.722656 506.886719 717.707031 C 500.628906 719.691406 494.324219 721.492188 487.964844 723.109375 C 481.605469 724.726562 475.203125 726.15625 468.757812 727.394531 C 462.316406 728.636719 455.839844 729.691406 449.335938 730.554688 C 442.832031 731.417969 436.308594 732.089844 429.761719 732.574219 C 421.605469 733.160156 413.324219 733.453125 405 733.453125 C 381.042969 733.464844 357.351562 730.957031 333.929688 725.921875 C 314.507812 721.761719 295.609375 715.917969 277.234375 708.382812 C 258.855469 700.851562 241.292969 691.75 224.539062 681.078125 L 234.832031 663.050781 C 242.023438 650.476562 250.375 638.726562 259.882812 627.800781 C 269.394531 616.875 279.882812 606.984375 291.34375 598.128906 L 305.734375 587.042969 L 358.859375 546.007812 L 358.945312 545.921875 L 377.808594 531.367188 L 485.691406 482.214844 L 525.976562 500.746094 L 526.140625 500.828125 Z M 689.953125 576.25 " fill-opacity="1" fill-rule="nonzero"/><path fill="#ed6e0f" d="M 585.164062 352.078125 C 585.164062 354.6875 584.972656 357.285156 584.59375 359.871094 C 584.210938 362.453125 583.644531 364.992188 582.890625 367.492188 C 582.132812 369.992188 581.203125 372.421875 580.089844 374.785156 C 578.976562 377.148438 577.699219 379.417969 576.253906 381.59375 C 574.808594 383.765625 573.214844 385.824219 571.46875 387.765625 C 569.71875 389.707031 567.839844 391.507812 565.828125 393.171875 C 563.816406 394.835938 561.695312 396.34375 559.460938 397.699219 C 557.226562 399.050781 554.90625 400.234375 552.5 401.246094 C 550.09375 402.257812 547.625 403.085938 545.097656 403.738281 C 542.566406 404.386719 540.003906 404.847656 537.410156 405.121094 C 534.8125 405.394531 532.207031 405.476562 529.601562 405.367188 C 526.992188 405.257812 524.40625 404.957031 521.839844 404.46875 C 519.273438 403.980469 516.757812 403.304688 514.292969 402.445312 C 511.828125 401.589844 509.4375 400.554688 507.125 399.34375 C 504.808594 398.136719 502.597656 396.761719 500.484375 395.226562 C 498.371094 393.695312 496.382812 392.011719 494.519531 390.1875 L 484.226562 411.058594 C 477.535156 401.480469 478.246094 388.386719 482.050781 377.386719 C 482.429688 376.296875 482.847656 375.210938 483.265625 374.121094 C 480.078125 367.121094 478.488281 359.773438 478.496094 352.078125 C 478.503906 347.472656 479.089844 342.941406 480.253906 338.484375 C 478.214844 338.242188 476.1875 337.925781 474.171875 337.539062 C 472.15625 337.148438 470.15625 336.683594 468.175781 336.144531 C 466.195312 335.605469 464.234375 334.996094 462.300781 334.3125 C 460.363281 333.628906 458.453125 332.875 456.574219 332.050781 C 454.695312 331.226562 452.847656 330.332031 451.03125 329.371094 C 449.21875 328.410156 447.441406 327.382812 445.703125 326.289062 C 443.964844 325.195312 442.269531 324.039062 440.617188 322.820312 C 438.964844 321.601562 437.363281 320.324219 435.804688 318.984375 C 434.246094 317.648438 432.738281 316.253906 431.285156 314.804688 C 429.832031 313.355469 428.433594 311.855469 427.089844 310.304688 C 425.746094 308.75 424.460938 307.148438 423.234375 305.503906 C 422.011719 303.855469 420.847656 302.164062 419.75 300.429688 C 418.648438 298.695312 417.617188 296.921875 416.648438 295.113281 C 415.679688 293.300781 414.78125 291.457031 413.949219 289.582031 C 413.117188 287.703125 412.355469 285.796875 411.664062 283.863281 C 410.972656 281.929688 410.355469 279.976562 409.808594 277.996094 C 406.378906 279.984375 402.808594 281.683594 399.101562 283.097656 C 399.253906 284.476562 399.324219 285.855469 399.308594 287.238281 C 399.308594 289.511719 399.148438 291.769531 398.824219 294.015625 C 398.5 296.261719 398.015625 298.476562 397.371094 300.652344 C 396.730469 302.832031 395.933594 304.949219 394.984375 307.011719 C 394.039062 309.078125 392.945312 311.0625 391.714844 312.96875 C 390.480469 314.875 389.117188 316.679688 387.625 318.390625 C 386.128906 320.101562 384.519531 321.695312 382.796875 323.175781 C 381.074219 324.652344 379.257812 326 377.339844 327.21875 C 375.421875 328.433594 373.429688 329.507812 371.355469 330.4375 C 369.285156 331.367188 367.160156 332.144531 364.976562 332.769531 C 362.792969 333.394531 360.578125 333.859375 358.328125 334.164062 C 356.078125 334.46875 353.816406 334.609375 351.546875 334.589844 C 349.277344 334.570312 347.019531 334.390625 344.777344 334.042969 C 342.53125 333.699219 340.324219 333.195312 338.152344 332.535156 C 335.980469 331.871094 333.867188 331.058594 331.8125 330.089844 C 329.757812 329.125 327.78125 328.015625 325.886719 326.765625 C 323.992188 325.515625 322.195312 324.136719 320.5 322.628906 C 317.777344 325.003906 314.859375 327.117188 311.753906 328.964844 C 308.648438 330.816406 305.40625 332.371094 302.019531 333.636719 C 298.632812 334.902344 295.160156 335.851562 291.601562 336.492188 C 288.046875 337.128906 284.460938 337.445312 280.84375 337.4375 C 279.171875 337.4375 277.539062 337.351562 275.910156 337.226562 C 276.035156 338.484375 276.160156 339.695312 276.328125 340.949219 L 271.601562 366.050781 C 271.355469 367.40625 271.21875 368.773438 271.183594 370.148438 C 269.980469 369.78125 268.792969 369.367188 267.625 368.90625 C 266.453125 368.445312 265.304688 367.9375 264.175781 367.386719 C 263.046875 366.832031 261.941406 366.238281 260.859375 365.597656 C 259.777344 364.953125 258.722656 364.273438 257.695312 363.546875 C 256.667969 362.820312 255.671875 362.058594 254.707031 361.253906 C 253.738281 360.449219 252.804688 359.605469 251.90625 358.726562 C 251.007812 357.847656 250.144531 356.933594 249.320312 355.988281 C 248.492188 355.039062 247.707031 354.058594 246.957031 353.050781 C 246.210938 352.039062 245.503906 351 244.839844 349.933594 C 244.171875 348.867188 243.550781 347.773438 242.972656 346.65625 C 242.394531 345.542969 241.863281 344.402344 241.375 343.246094 C 240.886719 342.085938 240.445312 340.910156 240.054688 339.714844 C 239.660156 338.519531 239.3125 337.3125 239.015625 336.089844 C 238.71875 334.871094 238.472656 333.636719 238.273438 332.394531 C 238.074219 331.15625 237.921875 329.90625 237.824219 328.652344 C 237.722656 327.402344 237.675781 326.144531 237.675781 324.886719 C 237.667969 323.140625 237.765625 321.394531 237.96875 319.660156 C 236.914062 318.605469 235.902344 317.515625 234.925781 316.390625 C 233.953125 315.261719 233.023438 314.101562 232.136719 312.902344 C 231.25 311.707031 230.40625 310.480469 229.609375 309.222656 C 228.8125 307.964844 228.0625 306.679688 227.359375 305.367188 C 226.65625 304.050781 226.003906 302.714844 225.398438 301.355469 C 224.796875 299.992188 224.242188 298.609375 223.738281 297.207031 C 223.238281 295.804688 222.789062 294.386719 222.390625 292.953125 C 221.992188 291.515625 221.648438 290.070312 221.359375 288.609375 C 221.066406 287.148438 220.828125 285.679688 220.648438 284.199219 C 220.464844 282.722656 220.335938 281.238281 220.261719 279.75 C 220.191406 278.265625 220.171875 276.777344 220.207031 275.285156 C 220.242188 273.796875 220.335938 272.3125 220.480469 270.828125 C 220.625 269.347656 220.828125 267.871094 221.082031 266.40625 C 221.335938 264.9375 221.644531 263.480469 222.003906 262.035156 C 222.367188 260.59375 222.78125 259.164062 223.25 257.75 C 223.714844 256.335938 224.234375 254.9375 224.804688 253.5625 C 225.375 252.1875 225.992188 250.832031 226.664062 249.503906 C 227.332031 248.171875 228.050781 246.867188 228.816406 245.589844 C 229.582031 244.3125 230.394531 243.066406 231.25 241.847656 C 232.109375 240.632812 233.007812 239.445312 233.953125 238.296875 C 234.898438 237.144531 235.886719 236.027344 236.914062 234.949219 C 237.941406 233.871094 239.003906 232.832031 240.109375 231.832031 C 241.210938 230.832031 242.351562 229.875 243.523438 228.957031 C 244.699219 228.042969 245.90625 227.167969 247.144531 226.34375 C 248.382812 225.515625 249.648438 224.734375 250.945312 224 C 252.242188 223.265625 253.5625 222.582031 254.910156 221.945312 C 256.257812 221.308594 257.625 220.722656 259.015625 220.1875 C 260.402344 219.652344 261.8125 219.167969 263.238281 218.734375 C 264.660156 218.300781 266.101562 217.921875 267.554688 217.597656 C 269.007812 217.273438 270.472656 217 271.945312 216.78125 C 273.417969 216.5625 274.898438 216.398438 276.382812 216.289062 C 277.867188 216.179688 279.355469 216.125 280.84375 216.128906 C 287.09375 216.128906 293.203125 217.066406 299.167969 218.929688 C 299.042969 217.296875 299 215.667969 299 214.035156 C 299 211.894531 299.09375 209.757812 299.28125 207.625 C 299.46875 205.496094 299.746094 203.375 300.117188 201.265625 C 300.488281 199.15625 300.953125 197.070312 301.503906 195.003906 C 302.058594 192.933594 302.699219 190.894531 303.429688 188.882812 C 304.160156 186.871094 304.972656 184.894531 305.875 182.953125 C 306.777344 181.011719 307.761719 179.113281 308.828125 177.257812 C 309.894531 175.402344 311.042969 173.59375 312.265625 171.839844 C 313.488281 170.082031 314.785156 168.382812 316.160156 166.738281 C 317.53125 165.097656 318.96875 163.515625 320.480469 161.996094 C 321.988281 160.480469 323.558594 159.03125 325.195312 157.648438 C 326.832031 156.265625 328.523438 154.957031 330.269531 153.722656 C 332.019531 152.488281 333.820312 151.335938 335.667969 150.257812 C 337.515625 149.179688 339.410156 148.183594 341.34375 147.269531 C 343.28125 146.355469 345.253906 145.527344 347.261719 144.785156 C 349.269531 144.042969 351.304688 143.390625 353.367188 142.824219 C 355.433594 142.257812 357.519531 141.785156 359.625 141.402344 C 361.730469 141.015625 363.847656 140.726562 365.980469 140.527344 C 368.109375 140.328125 370.246094 140.21875 372.386719 140.207031 C 374.527344 140.191406 376.664062 140.269531 378.796875 140.441406 C 380.933594 140.613281 383.054688 140.878906 385.164062 141.234375 C 387.273438 141.589844 389.367188 142.039062 391.4375 142.574219 C 393.511719 143.113281 395.554688 143.742188 397.570312 144.457031 C 399.589844 145.171875 401.570312 145.972656 403.519531 146.863281 C 405.464844 147.75 407.371094 148.71875 409.234375 149.773438 C 411.097656 150.828125 412.914062 151.960938 414.675781 153.171875 C 416.441406 154.382812 418.152344 155.667969 419.804688 157.027344 C 421.457031 158.390625 423.046875 159.816406 424.578125 161.316406 C 426.105469 162.8125 427.566406 164.375 428.957031 166 C 430.351562 167.625 431.671875 169.308594 432.917969 171.050781 C 434.164062 172.789062 435.335938 174.578125 436.425781 176.421875 C 437.515625 178.261719 438.523438 180.148438 439.453125 182.078125 C 440.378906 184.007812 441.222656 185.972656 441.976562 187.976562 C 445.460938 185.492188 449.113281 183.292969 452.9375 181.378906 C 456.765625 179.464844 460.714844 177.855469 464.789062 176.558594 C 468.863281 175.257812 473.015625 174.28125 477.242188 173.628906 C 481.46875 172.976562 485.722656 172.65625 490 172.664062 C 491.910156 172.664062 493.820312 172.726562 495.726562 172.859375 C 497.632812 172.988281 499.53125 173.183594 501.425781 173.445312 C 503.316406 173.707031 505.199219 174.035156 507.070312 174.425781 C 508.9375 174.816406 510.792969 175.273438 512.632812 175.789062 C 514.472656 176.308594 516.289062 176.890625 518.089844 177.535156 C 519.886719 178.179688 521.664062 178.886719 523.414062 179.652344 C 525.164062 180.417969 526.886719 181.246094 528.578125 182.128906 C 530.273438 183.015625 531.933594 183.957031 533.5625 184.957031 C 535.1875 185.957031 536.78125 187.011719 538.335938 188.121094 C 539.890625 189.230469 541.40625 190.394531 542.882812 191.609375 C 544.359375 192.824219 545.789062 194.085938 547.179688 195.398438 C 548.566406 196.710938 549.910156 198.070312 551.203125 199.476562 C 552.5 200.882812 553.742188 202.328125 554.9375 203.820312 C 556.132812 205.3125 557.277344 206.84375 558.363281 208.414062 C 559.453125 209.980469 560.488281 211.585938 561.46875 213.230469 C 562.445312 214.871094 563.367188 216.542969 564.230469 218.246094 C 565.09375 219.953125 565.898438 221.683594 566.640625 223.445312 C 567.386719 225.203125 568.066406 226.988281 568.6875 228.796875 C 569.308594 230.601562 569.867188 232.429688 570.363281 234.273438 C 570.859375 236.121094 571.289062 237.980469 571.65625 239.855469 C 572.023438 241.730469 572.324219 243.617188 572.5625 245.511719 C 572.796875 247.410156 572.96875 249.308594 573.074219 251.21875 C 573.179688 253.125 573.21875 255.035156 573.195312 256.945312 C 573.167969 258.855469 573.078125 260.765625 572.917969 262.667969 C 572.761719 264.574219 572.539062 266.46875 572.25 268.359375 C 571.960938 270.246094 571.609375 272.125 571.191406 273.988281 C 570.773438 275.851562 570.292969 277.703125 569.75 279.53125 C 569.203125 281.363281 568.597656 283.175781 567.925781 284.964844 C 567.257812 286.753906 566.527344 288.519531 565.734375 290.257812 C 564.945312 291.996094 564.09375 293.707031 563.183594 295.386719 C 562.273438 297.066406 561.308594 298.714844 560.285156 300.328125 C 559.261719 301.945312 558.1875 303.519531 557.054688 305.058594 C 559.167969 306.195312 561.199219 307.46875 563.140625 308.878906 C 565.085938 310.289062 566.925781 311.820312 568.660156 313.480469 C 570.398438 315.136719 572.015625 316.902344 573.511719 318.78125 C 575.007812 320.65625 576.375 322.625 577.605469 324.683594 C 578.839844 326.746094 579.925781 328.878906 580.871094 331.085938 C 581.8125 333.292969 582.605469 335.554688 583.242188 337.867188 C 583.882812 340.183594 584.363281 342.53125 584.683594 344.910156 C 585.003906 347.289062 585.164062 349.675781 585.164062 352.078125 Z M 358.945312 545.921875 L 358.859375 546.007812 L 305.734375 587.042969 L 389.4375 625.863281 Z M 526.183594 500.828125 L 450.261719 618.542969 L 599.429688 534.585938 " fill-opacity="1" fill-rule="nonzero"/><path fill="#ff9987" d="M 540.449219 391.148438 C 527.855469 411.183594 508.15625 421.515625 496.398438 414.15625 C 495.378906 413.539062 494.472656 412.785156 493.679688 411.894531 L 491.296875 418.339844 L 491.296875 418.378906 L 494.476562 425.867188 L 525.976562 500.746094 C 483.054688 545.003906 397.007812 579.011719 358.984375 546.007812 L 355.429688 537.597656 L 350.996094 527.058594 C 349.332031 526.953125 347.675781 526.78125 346.027344 526.542969 C 344.378906 526.300781 342.742188 525.996094 341.121094 525.625 C 339.496094 525.253906 337.890625 524.816406 336.300781 524.3125 C 334.714844 523.808594 333.148438 523.242188 331.605469 522.613281 C 330.066406 521.984375 328.550781 521.292969 327.0625 520.539062 C 325.578125 519.785156 324.125 518.976562 322.707031 518.105469 C 321.285156 517.234375 319.902344 516.304688 318.558594 515.324219 C 317.214844 514.339844 315.910156 513.304688 314.652344 512.214844 C 313.390625 511.125 312.175781 509.988281 311.007812 508.796875 C 309.839844 507.609375 308.722656 506.378906 307.65625 505.097656 C 306.585938 503.820312 305.574219 502.5 304.613281 501.140625 C 303.652344 499.777344 302.746094 498.378906 301.902344 496.945312 C 301.054688 495.511719 300.265625 494.046875 299.539062 492.546875 C 298.8125 491.046875 298.144531 489.523438 297.542969 487.96875 C 296.9375 486.417969 296.398438 484.84375 295.921875 483.246094 C 295.445312 481.652344 295.035156 480.039062 294.691406 478.40625 L 294.605469 478.367188 L 271.808594 377.300781 C 270.980469 373.566406 270.910156 369.816406 271.601562 366.050781 L 276.328125 340.949219 C 275.652344 335.828125 275.320312 330.683594 275.324219 325.515625 C 275.3125 312.433594 277.375 299.691406 281.515625 287.28125 C 283.507812 288.304688 285.539062 289.234375 287.617188 290.070312 C 289.691406 290.910156 291.800781 291.65625 293.945312 292.304688 C 296.085938 292.953125 298.253906 293.507812 300.445312 293.960938 C 302.636719 294.417969 304.847656 294.773438 307.070312 295.027344 C 309.292969 295.285156 311.527344 295.441406 313.765625 295.5 C 316.003906 295.554688 318.238281 295.511719 320.472656 295.367188 C 322.707031 295.222656 324.929688 294.980469 327.140625 294.636719 C 329.355469 294.292969 331.546875 293.847656 333.71875 293.308594 C 335.890625 292.769531 338.035156 292.132812 340.152344 291.398438 C 342.269531 290.664062 344.347656 289.839844 346.386719 288.917969 C 348.429688 288 350.425781 286.992188 352.375 285.890625 C 354.324219 284.792969 356.222656 283.609375 358.066406 282.339844 C 359.914062 281.070312 361.695312 279.722656 363.421875 278.292969 C 365.144531 276.863281 366.800781 275.359375 368.386719 273.78125 C 369.976562 272.207031 371.492188 270.558594 372.933594 268.847656 C 374.371094 267.132812 375.734375 265.359375 377.015625 263.523438 C 385.550781 266.734375 394.375 268.335938 403.492188 268.332031 C 411.371094 268.351562 419.054688 267.136719 426.542969 264.691406 C 426.332031 265.664062 426.148438 266.640625 425.992188 267.625 C 425.835938 268.605469 425.707031 269.59375 425.605469 270.582031 C 425.503906 271.570312 425.433594 272.5625 425.386719 273.554688 C 425.339844 274.546875 425.320312 275.542969 425.332031 276.539062 C 425.339844 277.53125 425.378906 278.523438 425.441406 279.515625 C 425.507812 280.507812 425.601562 281.5 425.71875 282.488281 C 425.839844 283.472656 425.988281 284.457031 426.160156 285.4375 C 426.335938 286.414062 426.539062 287.386719 426.769531 288.355469 C 426.996094 289.324219 427.253906 290.285156 427.535156 291.238281 C 427.816406 292.191406 428.125 293.136719 428.460938 294.074219 C 428.796875 295.007812 429.15625 295.933594 429.542969 296.851562 C 429.929688 297.769531 430.34375 298.671875 430.78125 299.566406 C 431.21875 300.457031 431.679688 301.339844 432.164062 302.207031 C 432.652344 303.074219 433.160156 303.925781 433.695312 304.765625 C 434.230469 305.605469 434.785156 306.429688 435.363281 307.238281 C 435.945312 308.046875 436.546875 308.835938 437.171875 309.609375 C 437.792969 310.386719 438.4375 311.140625 439.105469 311.882812 C 439.769531 312.621094 440.457031 313.339844 441.164062 314.039062 C 441.867188 314.738281 442.59375 315.421875 443.335938 316.082031 C 444.082031 316.738281 444.84375 317.378906 445.621094 317.996094 C 446.402344 318.613281 447.199219 319.210938 448.011719 319.78125 C 448.824219 320.355469 449.652344 320.90625 450.496094 321.433594 C 451.335938 321.960938 452.195312 322.464844 453.066406 322.941406 C 453.9375 323.421875 454.820312 323.875 455.71875 324.308594 C 456.613281 324.738281 457.523438 325.140625 458.441406 325.519531 C 459.359375 325.902344 460.289062 326.253906 461.230469 326.582031 C 462.167969 326.910156 463.117188 327.210938 464.070312 327.484375 C 465.027344 327.761719 465.988281 328.007812 466.960938 328.230469 C 467.929688 328.453125 468.902344 328.644531 469.882812 328.8125 C 470.863281 328.980469 471.847656 329.121094 472.835938 329.230469 C 473.824219 329.34375 474.816406 329.429688 475.808594 329.484375 C 476.800781 329.542969 477.792969 329.570312 478.789062 329.574219 C 482.800781 329.582031 486.761719 329.144531 490.675781 328.253906 C 494.589844 327.363281 498.351562 326.046875 501.964844 324.300781 C 501.761719 331.773438 500.117188 338.914062 497.027344 345.71875 C 492.46875 356.46875 485.898438 366.34375 482.050781 377.386719 C 480.726562 381 479.867188 384.726562 479.480469 388.554688 C 479.089844 392.386719 479.179688 396.207031 479.75 400.015625 C 479.875 400.644531 480.003906 401.269531 480.128906 401.898438 C 480.210938 402.234375 480.296875 402.566406 480.421875 402.945312 C 480.546875 403.40625 480.714844 403.90625 480.878906 404.367188 C 481.007812 404.742188 481.132812 405.160156 481.300781 405.539062 C 481.550781 406.207031 481.84375 406.835938 482.136719 407.460938 C 482.4375 408.105469 482.773438 408.734375 483.140625 409.34375 C 483.476562 409.929688 483.851562 410.515625 484.226562 411.058594 L 486.402344 406.667969 L 488.703125 401.980469 C 486.488281 391.777344 489.625 377.679688 497.863281 364.5 C 510.457031 344.421875 530.15625 334.132812 541.914062 341.453125 C 553.667969 348.816406 552.996094 371.070312 540.449219 391.148438 Z M 540.449219 391.148438 " fill-opacity="1" fill-rule="nonzero"/><path fill="#242156" d="M 494.476562 425.867188 L 482.929688 457.410156 C 481.824219 460.445312 480.273438 463.238281 478.289062 465.789062 C 476.304688 468.339844 473.972656 470.523438 471.300781 472.34375 L 391.949219 526.679688 C 389.394531 528.457031 386.722656 530.03125 383.925781 531.402344 C 381.132812 532.769531 378.253906 533.921875 375.285156 534.851562 C 372.3125 535.777344 369.292969 536.476562 366.214844 536.945312 C 363.140625 537.414062 360.046875 537.644531 356.9375 537.640625 C 356.433594 537.640625 355.933594 537.640625 355.429688 537.597656 L 350.996094 527.058594 C 352.25 527.140625 353.546875 527.183594 354.84375 527.183594 C 357.957031 527.1875 361.050781 526.957031 364.125 526.488281 C 367.199219 526.019531 370.222656 525.320312 373.191406 524.390625 C 376.160156 523.460938 379.042969 522.3125 381.835938 520.945312 C 384.628906 519.574219 387.304688 518 389.855469 516.222656 L 469.210938 461.882812 C 471.882812 460.066406 474.210938 457.882812 476.199219 455.332031 C 478.183594 452.78125 479.730469 449.988281 480.839844 446.949219 L 491.296875 418.339844 Z M 525.976562 500.746094 C 483.015625 545.042969 396.882812 579.054688 358.902344 545.964844 L 358.777344 545.839844 C 358.816406 545.882812 358.816406 545.964844 358.859375 546.007812 C 367.519531 566.714844 366.515625 587.671875 360.910156 610.800781 C 355.261719 634.019531 344.929688 655.8125 338.53125 678.820312 C 334.304688 694.046875 331.964844 710.402344 333.929688 725.921875 C 357.351562 730.957031 381.042969 733.464844 405 733.453125 C 413.324219 733.453125 421.605469 733.160156 429.761719 732.574219 C 422.191406 709.984375 424.492188 683.757812 432.941406 661 C 444.363281 630.253906 465.277344 604.152344 484.644531 577.671875 C 503.886719 551.277344 520.871094 532.996094 526.140625 500.828125 C 526.191406 500.722656 526.21875 500.609375 526.226562 500.496094 Z M 306.046875 351.300781 C 309.222656 351.300781 311.800781 346.617188 311.800781 340.84375 C 311.800781 335.066406 309.222656 330.386719 306.046875 330.386719 C 302.871094 330.386719 300.296875 335.066406 300.296875 340.84375 C 300.296875 346.617188 302.871094 351.300781 306.046875 351.300781 Z M 383.433594 359.667969 C 386.609375 359.667969 389.1875 354.984375 389.1875 349.210938 C 389.1875 343.433594 386.609375 338.75 383.433594 338.75 C 380.257812 338.75 377.683594 343.433594 377.683594 349.210938 C 377.683594 354.984375 380.257812 359.667969 383.433594 359.667969 Z M 354.34375 414.238281 L 339.984375 412.136719 C 339.589844 412.078125 339.207031 411.984375 338.832031 411.851562 C 338.453125 411.722656 338.09375 411.554688 337.75 411.351562 C 337.40625 411.152344 337.085938 410.917969 336.789062 410.65625 C 336.488281 410.394531 336.21875 410.105469 335.976562 409.789062 C 335.730469 409.472656 335.519531 409.136719 335.34375 408.78125 C 335.164062 408.425781 335.023438 408.054688 334.914062 407.671875 C 334.808594 407.289062 334.738281 406.898438 334.707031 406.5 C 334.675781 406.105469 334.679688 405.707031 334.726562 405.3125 L 341.667969 343.710938 C 341.691406 343.507812 341.675781 343.304688 341.625 343.105469 C 341.574219 342.90625 341.492188 342.726562 341.371094 342.558594 C 341.253906 342.390625 341.109375 342.25 340.9375 342.136719 C 340.765625 342.023438 340.578125 341.945312 340.378906 341.898438 C 340.175781 341.855469 339.976562 341.847656 339.773438 341.878906 C 339.570312 341.910156 339.378906 341.976562 339.199219 342.078125 C 339.019531 342.179688 338.867188 342.308594 338.738281 342.46875 C 338.605469 342.628906 338.511719 342.804688 338.445312 343 L 318.828125 404.152344 C 318.59375 404.875 318.457031 405.613281 318.40625 406.367188 C 318.359375 407.121094 318.402344 407.871094 318.542969 408.617188 C 318.679688 409.359375 318.90625 410.078125 319.222656 410.765625 C 319.535156 411.453125 319.933594 412.09375 320.40625 412.683594 L 330.625 425.40625 C 331.023438 425.902344 331.46875 426.359375 331.953125 426.769531 C 332.441406 427.179688 332.964844 427.539062 333.519531 427.847656 C 334.078125 428.160156 334.660156 428.414062 335.265625 428.609375 C 335.871094 428.808594 336.492188 428.945312 337.125 429.023438 C 337.757812 429.097656 338.390625 429.113281 339.027344 429.070312 C 339.660156 429.023438 340.289062 428.917969 340.902344 428.753906 C 341.519531 428.585938 342.113281 428.363281 342.683594 428.082031 C 343.253906 427.800781 343.796875 427.464844 344.304688 427.082031 L 355.472656 418.671875 C 355.871094 418.371094 356.152344 417.984375 356.320312 417.515625 C 356.484375 417.042969 356.503906 416.566406 356.382812 416.082031 C 356.257812 415.597656 356.011719 415.1875 355.640625 414.851562 C 355.269531 414.515625 354.835938 414.3125 354.34375 414.238281 Z M 535.46875 353.5 C 530.03125 349.820312 521.582031 352.539062 515.308594 359.566406 C 517.292969 358.898438 519.328125 358.574219 521.421875 358.589844 C 523.515625 358.601562 525.546875 358.957031 527.523438 359.648438 C 528.808594 360.113281 530.027344 360.707031 531.1875 361.429688 C 532.347656 362.152344 533.417969 362.988281 534.402344 363.9375 C 535.386719 364.882812 536.261719 365.921875 537.027344 367.054688 C 537.789062 368.1875 538.429688 369.386719 538.941406 370.652344 C 541.242188 363.496094 540.113281 356.636719 535.46875 353.5 Z M 535.46875 353.5 " fill-opacity="1" fill-rule="nonzero"/></svg>