<svg xmlns="http://www.w3.org/2000/svg" xmlns:xlink="http://www.w3.org/1999/xlink" width="1080" zoomAndPan="magnify" viewBox="0 0 810 809.999993" height="1080" preserveAspectRatio="xMidYMid meet" version="1.0"><defs><clipPath id="c03350a500"><path d="M 67.5 49 L 742.5 49 L 742.5 724 L 67.5 724 Z M 67.5 49 " clip-rule="nonzero"/></clipPath></defs><g clip-path="url(#c03350a500)"><path fill="#38b6ff" d="M 742.5 386.441406 C 742.503906 393.058594 742.316406 399.667969 741.933594 406.273438 C 741.550781 412.878906 740.972656 419.46875 740.199219 426.039062 C 739.429688 432.609375 738.464844 439.152344 737.304688 445.667969 C 736.148438 452.183594 734.800781 458.65625 733.261719 465.09375 C 731.722656 471.527344 729.996094 477.910156 728.082031 484.246094 C 726.167969 490.578125 724.066406 496.851562 721.78125 503.058594 C 719.5 509.269531 717.03125 515.40625 714.386719 521.472656 C 711.742188 527.535156 708.917969 533.515625 705.921875 539.414062 C 702.921875 545.3125 699.753906 551.117188 696.410156 556.828125 C 693.070312 562.539062 689.566406 568.148438 685.894531 573.652344 C 682.222656 579.160156 678.394531 584.550781 674.40625 589.828125 C 670.417969 595.109375 666.277344 600.265625 661.984375 605.300781 C 657.691406 610.335938 653.253906 615.242188 648.671875 620.015625 C 644.089844 624.789062 639.375 629.421875 634.519531 633.917969 C 629.664062 638.414062 624.679688 642.765625 619.570312 646.964844 C 614.460938 651.167969 609.230469 655.214844 603.878906 659.109375 C 596.835938 664.265625 589.585938 669.144531 582.125 673.738281 C 575.769531 677.660156 569.292969 681.367188 562.691406 684.859375 C 556.089844 688.347656 549.378906 691.617188 542.5625 694.660156 C 535.742188 697.707031 528.832031 700.523438 521.828125 703.109375 C 514.820312 705.695312 507.738281 708.046875 500.578125 710.164062 C 493.414062 712.277344 486.191406 714.15625 478.90625 715.789062 C 471.621094 717.425781 464.289062 718.820312 456.910156 719.96875 C 449.53125 721.117188 442.121094 722.023438 434.683594 722.679688 C 427.246094 723.335938 419.792969 723.746094 412.328125 723.910156 C 404.863281 724.070312 397.402344 723.984375 389.941406 723.652344 C 382.480469 723.320312 375.039062 722.738281 367.617188 721.914062 C 360.195312 721.085938 352.8125 720.011719 345.460938 718.695312 C 338.109375 717.378906 330.8125 715.816406 323.566406 714.015625 C 316.320312 712.214844 309.140625 710.171875 302.03125 707.894531 C 294.917969 705.617188 287.890625 703.101562 280.945312 700.355469 C 274.003906 697.613281 267.15625 694.640625 260.410156 691.4375 C 253.664062 688.238281 247.03125 684.816406 240.511719 681.175781 C 233.992188 677.535156 227.597656 673.683594 221.335938 669.617188 C 215.070312 665.554688 208.949219 661.285156 202.96875 656.8125 C 196.988281 652.339844 191.164062 647.675781 185.492188 642.816406 C 179.820312 637.960938 174.316406 632.917969 168.980469 627.695312 C 163.648438 622.46875 158.488281 617.074219 153.511719 611.507812 C 148.535156 605.941406 143.746094 600.214844 139.148438 594.332031 C 134.550781 588.449219 130.15625 582.417969 125.957031 576.242188 C 121.761719 570.066406 117.773438 563.757812 113.996094 557.316406 C 110.21875 550.875 106.65625 544.316406 103.316406 537.636719 C 99.972656 530.960938 96.855469 524.179688 93.964844 517.292969 C 91.070312 510.410156 88.410156 503.4375 85.980469 496.375 C 83.554688 489.3125 81.359375 482.179688 79.40625 474.972656 C 77.449219 467.765625 75.734375 460.503906 74.261719 453.183594 C 72.789062 445.863281 71.5625 438.5 70.578125 431.097656 C 69.59375 423.695312 68.855469 416.269531 68.363281 408.816406 C 67.875 401.367188 67.628906 393.90625 67.632812 386.441406 C 67.632812 200.117188 218.703125 49.007812 405.066406 49.007812 C 591.429688 49.007812 742.5 200.117188 742.5 386.441406 Z M 742.5 386.441406 " fill-opacity="1" fill-rule="nonzero"/></g><path fill="#ff5e64" d="M 231.65625 419.242188 C 227.5 419.222656 223.628906 418.167969 220.035156 416.074219 C 194.390625 401.4375 206.429688 339.503906 221.28125 312 L 228.65625 315.988281 C 213.832031 343.445312 205.605469 398.1875 224.195312 408.792969 C 225.34375 409.460938 226.554688 409.964844 227.835938 410.3125 C 229.113281 410.660156 230.417969 410.832031 231.742188 410.835938 C 233.070312 410.839844 234.371094 410.671875 235.652344 410.332031 C 236.933594 409.992188 238.152344 409.492188 239.300781 408.832031 C 246.828125 404.839844 252.792969 395.5 253.480469 386.617188 C 253.757812 383.023438 253.707031 379.425781 253.644531 375.613281 C 253.480469 371.035156 253.601562 366.464844 254.011719 361.902344 C 254.710938 355.527344 257.332031 343.910156 267.039062 337.796875 L 271.507812 344.894531 C 266.589844 347.988281 263.253906 354.519531 262.347656 362.816406 C 261.972656 367.03125 261.867188 371.253906 262.027344 375.480469 C 262.085938 379.316406 262.144531 383.285156 261.839844 387.261719 C 260.929688 399 253.273438 410.910156 243.226562 416.242188 C 239.621094 418.207031 235.765625 419.207031 231.65625 419.242188 Z M 566.238281 641.378906 C 562.714844 634.207031 558.375 627.570312 553.21875 621.464844 C 548.0625 615.359375 542.246094 609.964844 535.765625 605.289062 L 442.917969 538.347656 L 424.726562 525.269531 L 311.550781 487.542969 L 310.964844 487.921875 L 236.265625 532.898438 L 193.847656 558.425781 C 185.207031 563.636719 177.300781 569.796875 170.136719 576.90625 C 162.972656 584.015625 156.75 591.867188 151.46875 600.46875 L 148.410156 605.5 C 151.640625 609.285156 154.957031 613 158.355469 616.640625 C 161.753906 620.28125 165.230469 623.84375 168.785156 627.332031 C 172.34375 630.820312 175.972656 634.226562 179.679688 637.550781 C 183.386719 640.878906 187.164062 644.121094 191.015625 647.277344 C 194.863281 650.4375 198.78125 653.511719 202.769531 656.496094 C 206.753906 659.480469 210.804688 662.375 214.917969 665.183594 C 219.03125 667.988281 223.207031 670.703125 227.441406 673.324219 C 231.675781 675.945312 235.964844 678.472656 240.3125 680.902344 C 244.65625 683.335938 249.054688 685.667969 253.503906 687.90625 C 257.953125 690.144531 262.449219 692.28125 266.996094 694.316406 C 271.539062 696.355469 276.125 698.292969 280.753906 700.128906 C 285.386719 701.960938 290.054688 703.695312 294.757812 705.320312 C 299.464844 706.949219 304.207031 708.472656 308.980469 709.890625 C 313.753906 711.308594 318.554688 712.621094 323.386719 713.828125 C 328.21875 715.035156 333.074219 716.132812 337.957031 717.125 C 342.835938 718.113281 347.738281 718.996094 352.65625 719.769531 C 357.574219 720.542969 362.507812 721.210938 367.457031 721.765625 C 372.40625 722.320312 377.367188 722.765625 382.335938 723.101562 C 387.304688 723.4375 392.277344 723.664062 397.257812 723.78125 C 402.234375 723.898438 407.214844 723.902344 412.191406 723.796875 C 417.171875 723.695312 422.144531 723.480469 427.113281 723.15625 C 432.085938 722.832031 437.042969 722.398438 441.996094 721.851562 C 446.945312 721.308594 451.878906 720.65625 456.800781 719.894531 C 461.722656 719.128906 466.625 718.257812 471.507812 717.28125 C 476.390625 716.300781 481.25 715.214844 486.082031 714.019531 C 490.917969 712.824219 495.722656 711.523438 500.5 710.117188 C 505.277344 708.710938 510.023438 707.195312 514.730469 705.578125 C 519.441406 703.960938 524.113281 702.242188 528.75 700.417969 C 533.382812 698.59375 537.972656 696.667969 542.523438 694.640625 C 547.070312 692.613281 551.574219 690.488281 556.027344 688.261719 C 560.480469 686.035156 564.886719 683.710938 569.238281 681.289062 C 573.589844 678.867188 577.882812 676.351562 582.125 673.738281 Z M 566.238281 641.378906 " fill-opacity="1" fill-rule="nonzero"/><path fill="#ed6e0f" d="M 566.699219 344.816406 L 550.980469 349.890625 C 551.773438 357.722656 552.066406 365.574219 551.859375 373.445312 C 550.308594 439.96875 514.21875 494.417969 463.5 500.832031 C 460.84375 501.179688 458.171875 501.363281 455.492188 501.375 L 448.242188 520.996094 L 438.25 547.988281 L 458.425781 601.054688 L 382.726562 561.277344 L 295.03125 509.210938 L 334.269531 403.207031 C 320.6875 407.777344 302.035156 398.261719 290.214844 379.902344 C 277.050781 359.445312 277.472656 335.804688 291.09375 327 C 304.425781 318.410156 325.550781 327.335938 338.753906 346.953125 C 338.707031 338.777344 339.195312 330.628906 340.222656 322.515625 C 342.90625 325.457031 345.324219 328.597656 347.472656 331.949219 C 351.058594 337.480469 353.839844 343.390625 355.816406 349.679688 C 357.179688 347.359375 358.277344 344.917969 359.109375 342.359375 C 359.941406 339.800781 360.488281 337.179688 360.746094 334.503906 C 361.007812 331.824219 360.976562 329.148438 360.652344 326.476562 C 360.332031 323.804688 359.722656 321.199219 358.832031 318.660156 C 354.890625 308.140625 366.335938 298.664062 376.144531 293.214844 C 385.996094 287.769531 397.4375 278.335938 393.582031 267.816406 C 392.964844 266.09375 392.449219 264.34375 392.042969 262.558594 C 391.632812 260.777344 391.332031 258.976562 391.140625 257.160156 C 390.949219 255.339844 390.867188 253.515625 390.894531 251.6875 C 390.921875 249.859375 391.058594 248.039062 391.304688 246.226562 C 391.546875 244.414062 391.902344 242.625 392.363281 240.855469 C 392.820312 239.085938 393.386719 237.347656 394.054688 235.648438 C 394.722656 233.945312 395.492188 232.289062 396.359375 230.679688 C 397.226562 229.070312 398.1875 227.519531 399.242188 226.023438 C 400.609375 224.089844 402.144531 222.300781 403.851562 220.660156 C 411.277344 217.179688 419.0625 214.933594 427.199219 213.910156 C 475.109375 207.832031 521.09375 246.5625 541.253906 304.910156 L 569.71875 324.738281 C 570.582031 325.34375 571.347656 326.054688 572.015625 326.871094 C 572.679688 327.691406 573.222656 328.585938 573.636719 329.554688 C 574.054688 330.523438 574.328125 331.53125 574.464844 332.578125 C 574.601562 333.625 574.589844 334.667969 574.433594 335.714844 C 574.273438 336.757812 573.976562 337.757812 573.542969 338.71875 C 573.105469 339.679688 572.546875 340.5625 571.863281 341.367188 C 571.179688 342.171875 570.398438 342.867188 569.523438 343.453125 C 568.644531 344.039062 567.703125 344.492188 566.699219 344.816406 Z M 566.699219 344.816406 " fill-opacity="1" fill-rule="nonzero"/><path fill="#f4bc15" d="M 352.082031 382.011719 C 351.652344 381.84375 351.257812 381.617188 350.898438 381.328125 C 350.535156 381.042969 350.226562 380.707031 349.96875 380.328125 C 349.707031 379.945312 349.511719 379.535156 349.378906 379.09375 C 349.242188 378.652344 349.179688 378.199219 349.183594 377.738281 C 348.96875 372.464844 348.046875 367.316406 346.417969 362.296875 C 344.792969 357.273438 342.515625 352.566406 339.59375 348.171875 C 326.429688 327.714844 304.71875 318.242188 291.09375 327 C 277.472656 335.804688 277.050781 359.445312 290.214844 379.902344 C 294.113281 385.957031 299.113281 390.644531 303.726562 394.996094 C 310.113281 401.015625 294.644531 411.027344 287.996094 405.78125 C 280.367188 399.761719 272.273438 393.257812 266.363281 384.09375 C 248.464844 356.21875 252.113281 321.972656 274.496094 307.59375 C 296.878906 293.175781 329.574219 304.074219 347.472656 331.949219 C 357.15625 347.015625 360.539062 363.949219 358.0625 378.585938 C 358.003906 378.910156 357.914062 379.222656 357.789062 379.527344 C 357.660156 379.832031 357.503906 380.117188 357.316406 380.386719 C 357.125 380.65625 356.910156 380.902344 356.667969 381.121094 C 356.425781 381.34375 356.160156 381.535156 355.875 381.699219 C 355.589844 381.863281 355.289062 381.996094 354.976562 382.089844 C 354.664062 382.1875 354.339844 382.25 354.011719 382.277344 C 353.6875 382.304688 353.359375 382.296875 353.035156 382.25 C 352.707031 382.207031 352.390625 382.125 352.082031 382.011719 Z M 218.878906 331.667969 C 230.417969 337.050781 245.625 328.871094 252.84375 313.398438 C 260.058594 297.925781 256.554688 281.019531 245.015625 275.636719 C 233.480469 270.253906 218.273438 278.433594 211.054688 293.90625 C 203.839844 309.378906 207.339844 326.285156 218.878906 331.667969 Z M 218.878906 331.667969 " fill-opacity="1" fill-rule="nonzero"/><path fill="#242156" d="M 483.285156 635.972656 L 236.265625 532.898438 L 300.609375 494.167969 L 295.035156 509.214844 L 382.726562 561.277344 L 458.425781 601.054688 L 438.265625 547.988281 L 442.332031 536.964844 L 442.917969 538.347656 Z M 303.710938 394.992188 C 310.125 401.027344 294.660156 411.046875 287.992188 405.765625 C 280.363281 399.769531 272.273438 393.273438 266.363281 384.09375 C 264.78125 381.617188 263.339844 379.0625 262.046875 376.421875 C 262.089844 379.941406 262.089844 383.632812 261.835938 387.277344 C 261.527344 390.964844 260.660156 394.511719 259.238281 397.925781 C 276.128906 413.9375 298.011719 426.429688 322.953125 433.804688 L 334.269531 403.207031 C 325.171875 406.265625 313.773438 402.996094 303.710938 394.992188 Z M 572.695312 203.472656 C 562.214844 187.460938 543.140625 178.699219 524.195312 176.183594 C 505.207031 173.710938 485.96875 176.6875 467.0625 179.664062 C 429.296875 185.617188 391.542969 191.554688 353.800781 197.476562 C 298.683594 203.933594 253.074219 233.902344 233.5 274.355469 C 235.441406 273.957031 237.398438 273.867188 239.367188 274.089844 C 241.335938 274.3125 243.222656 274.832031 245.027344 275.652344 C 256.554688 281.019531 260.078125 297.910156 252.824219 313.378906 C 246.664062 326.582031 234.714844 334.503906 224.195312 333.207031 C 227.339844 354.75 237.441406 374.621094 252.65625 391.261719 C 253.097656 389.738281 253.378906 388.1875 253.496094 386.609375 C 253.746094 383.003906 253.707031 379.441406 253.664062 375.625 C 253.484375 371.050781 253.59375 366.480469 253.996094 361.917969 C 254.292969 359.394531 254.785156 356.90625 255.464844 354.457031 C 253.117188 335.21875 259.742188 317.066406 274.496094 307.59375 C 294.15625 294.933594 321.738281 301.808594 340.222656 322.515625 C 340.765625 323.144531 341.3125 323.730469 341.816406 324.359375 C 342.402344 324.988281 342.902344 325.617188 343.40625 326.246094 C 344.078125 327.042969 344.664062 327.882812 345.25 328.71875 C 346.046875 329.769531 346.761719 330.859375 347.472656 331.949219 C 347.976562 332.703125 348.4375 333.457031 348.855469 334.210938 C 349.316406 334.964844 349.777344 335.722656 350.15625 336.476562 C 352.09375 339.984375 353.730469 343.632812 355.058594 347.414062 L 355.816406 349.679688 C 357.179688 347.359375 358.277344 344.917969 359.109375 342.359375 C 359.941406 339.800781 360.488281 337.179688 360.746094 334.503906 C 361.007812 331.824219 360.976562 329.148438 360.652344 326.476562 C 360.332031 323.804688 359.722656 321.199219 358.832031 318.660156 C 354.894531 308.140625 366.335938 298.667969 376.144531 293.21875 C 384.988281 288.3125 395.132812 280.222656 394.296875 271 C 394.253906 270.625 394.210938 270.246094 394.128906 269.828125 C 394.074219 269.515625 394.003906 269.207031 393.917969 268.90625 C 393.832031 268.570312 393.707031 268.191406 393.582031 267.816406 C 392.964844 266.09375 392.449219 264.34375 392.042969 262.558594 C 391.632812 260.777344 391.335938 258.976562 391.140625 257.160156 C 390.949219 255.339844 390.867188 253.515625 390.894531 251.6875 C 390.921875 249.859375 391.058594 248.039062 391.304688 246.226562 C 391.546875 244.414062 391.902344 242.625 392.363281 240.855469 C 392.820312 239.085938 393.386719 237.347656 394.054688 235.648438 C 394.722656 233.945312 395.492188 232.289062 396.359375 230.679688 C 397.226562 229.070312 398.1875 227.519531 399.242188 226.023438 C 400.609375 224.089844 402.144531 222.300781 403.851562 220.660156 C 411.28125 217.179688 419.0625 214.933594 427.199219 213.910156 C 430.484375 213.492188 433.78125 213.28125 437.09375 213.28125 C 438.476562 213.28125 439.859375 213.324219 441.242188 213.40625 C 442.207031 213.449219 443.171875 213.53125 444.132812 213.617188 C 444.804688 213.660156 445.476562 213.742188 446.144531 213.824219 C 448.710938 214.085938 451.253906 214.488281 453.777344 215.042969 C 454.78125 215.25 455.746094 215.503906 456.75 215.753906 C 457.335938 215.878906 457.882812 216.046875 458.46875 216.171875 C 459.515625 216.46875 460.523438 216.761719 461.53125 217.09375 C 495.984375 227.867188 526 260.773438 541.253906 304.910156 L 549.136719 310.402344 C 558.453125 299.535156 566.164062 287.632812 572.273438 274.691406 C 582.628906 252.136719 586.273438 224.222656 572.695312 203.472656 Z M 487.015625 310.96875 C 491.359375 310.96875 494.875 305.574219 494.875 298.917969 C 494.875 292.261719 491.359375 286.867188 487.015625 286.867188 C 482.675781 286.867188 479.15625 292.261719 479.15625 298.917969 C 479.15625 305.574219 482.675781 310.96875 487.015625 310.96875 Z M 299.855469 338.738281 C 293.734375 342.386719 292.3125 351.859375 295.707031 361.878906 C 296.378906 357.8125 298.027344 354.195312 300.652344 351.019531 C 301.707031 349.742188 302.882812 348.582031 304.171875 347.542969 C 305.464844 346.503906 306.84375 345.601562 308.320312 344.84375 C 309.792969 344.082031 311.328125 343.476562 312.921875 343.027344 C 314.519531 342.578125 316.144531 342.296875 317.796875 342.175781 C 311.59375 337.355469 304.800781 335.804688 299.855469 338.738281 Z M 360.46875 435.191406 C 377.652344 481.132812 410.976562 514.035156 448.242188 520.996094 L 455.492188 501.375 C 417.851562 502.300781 382.222656 476.101562 360.46875 435.191406 Z M 550.980469 349.890625 L 530.484375 356.511719 L 551.859375 373.445312 C 552.066406 365.574219 551.773438 357.722656 550.980469 349.890625 Z M 550.980469 349.890625 " fill-opacity="1" fill-rule="nonzero"/></svg>