<svg xmlns="http://www.w3.org/2000/svg" xmlns:xlink="http://www.w3.org/1999/xlink" width="1080" zoomAndPan="magnify" viewBox="0 0 810 809.999993" height="1080" preserveAspectRatio="xMidYMid meet" version="1.0"><defs><clipPath id="f9a7064313"><path d="M 67.5 53.4375 L 742.5 53.4375 L 742.5 729 L 67.5 729 Z M 67.5 53.4375 " clip-rule="nonzero"/></clipPath></defs><g clip-path="url(#f9a7064313)"><path fill="#ffde59" d="M 742.5 390.894531 C 742.5 395.480469 742.40625 400.066406 742.21875 404.648438 C 742.03125 409.230469 741.75 413.804688 741.378906 418.375 C 741.003906 422.945312 740.539062 427.507812 739.976562 432.058594 C 739.417969 436.609375 738.765625 441.148438 738.023438 445.671875 C 737.277344 450.199219 736.441406 454.707031 735.511719 459.195312 C 734.585938 463.6875 733.566406 468.15625 732.453125 472.605469 C 731.34375 477.054688 730.144531 481.480469 728.851562 485.882812 C 727.5625 490.28125 726.179688 494.652344 724.710938 499 C 723.242188 503.34375 721.6875 507.65625 720.042969 511.933594 C 718.394531 516.214844 716.664062 520.460938 714.847656 524.671875 C 713.027344 528.882812 711.125 533.050781 709.136719 537.183594 C 707.148438 541.316406 705.078125 545.40625 702.921875 549.453125 C 700.765625 553.503906 698.53125 557.503906 696.214844 561.460938 C 693.894531 565.417969 691.496094 569.328125 689.019531 573.183594 C 686.542969 577.042969 683.988281 580.851562 681.355469 584.605469 C 678.722656 588.359375 676.015625 592.0625 673.230469 595.703125 C 670.449219 599.347656 667.589844 602.9375 664.660156 606.464844 C 661.730469 609.992188 658.730469 613.457031 655.660156 616.863281 C 652.589844 620.269531 649.449219 623.609375 646.242188 626.890625 C 643.035156 630.167969 639.761719 633.378906 636.425781 636.523438 C 633.085938 639.664062 629.6875 642.742188 626.222656 645.746094 C 622.757812 648.75 619.234375 651.6875 615.652344 654.546875 C 612.070312 657.410156 608.429688 660.199219 604.734375 662.910156 C 601.035156 665.625 597.285156 668.261719 593.480469 670.820312 C 589.675781 673.382812 585.820312 675.863281 581.917969 678.269531 C 578.011719 680.671875 574.058594 682.996094 570.058594 685.238281 C 566.058594 687.480469 562.011719 689.640625 557.925781 691.714844 C 553.835938 693.792969 549.707031 695.785156 545.539062 697.695312 C 541.371094 699.605469 537.164062 701.429688 532.917969 703.167969 C 528.675781 704.902344 524.398438 706.554688 520.085938 708.117188 C 515.773438 709.679688 511.433594 711.15625 507.0625 712.542969 C 502.691406 713.929688 498.292969 715.222656 493.871094 716.429688 C 489.445312 717.636719 485 718.753906 480.53125 719.78125 C 476.058594 720.804688 471.570312 721.738281 467.0625 722.582031 C 462.554688 723.425781 458.03125 724.175781 453.496094 724.832031 C 448.957031 725.492188 444.40625 726.058594 439.84375 726.53125 C 435.285156 727.003906 430.714844 727.382812 426.136719 727.667969 C 421.5625 727.957031 416.980469 728.148438 412.394531 728.25 C 407.8125 728.347656 403.226562 728.355469 398.640625 728.265625 C 394.054688 728.179688 389.476562 728 384.898438 727.726562 C 380.320312 727.449219 375.75 727.082031 371.1875 726.625 C 366.625 726.164062 362.074219 725.609375 357.53125 724.964844 C 352.992188 724.316406 348.46875 723.578125 343.957031 722.75 C 339.449219 721.917969 334.957031 720.996094 330.484375 719.984375 C 326.011719 718.96875 321.5625 717.867188 317.136719 716.671875 C 312.707031 715.476562 308.304688 714.191406 303.929688 712.816406 C 299.554688 711.441406 295.210938 709.980469 290.894531 708.429688 C 286.582031 706.878906 282.296875 705.238281 278.050781 703.511719 C 273.800781 701.785156 269.589844 699.976562 265.414062 698.078125 C 261.242188 696.179688 257.105469 694.195312 253.011719 692.128906 C 248.917969 690.066406 244.867188 687.914062 240.863281 685.683594 C 236.855469 683.453125 232.898438 681.140625 228.984375 678.746094 C 225.074219 676.355469 221.210938 673.882812 217.398438 671.332031 C 213.589844 668.78125 209.832031 666.15625 206.128906 663.453125 C 202.421875 660.75 198.777344 657.972656 195.183594 655.117188 C 191.59375 652.265625 188.0625 649.34375 184.589844 646.347656 C 181.121094 643.351562 177.710938 640.285156 174.363281 637.148438 C 171.015625 634.015625 167.734375 630.8125 164.519531 627.542969 C 161.304688 624.273438 158.15625 620.941406 155.074219 617.542969 C 151.996094 614.148438 148.984375 610.6875 146.046875 607.167969 C 143.105469 603.648438 140.238281 600.070312 137.445312 596.433594 C 134.652344 592.796875 131.933594 589.105469 129.292969 585.355469 C 126.648438 581.609375 124.085938 577.808594 121.597656 573.957031 C 119.109375 570.105469 116.699219 566.203125 114.371094 562.253906 C 106.730469 549.339844 99.988281 535.976562 94.144531 522.160156 C 88.296875 508.34375 83.402344 494.199219 79.453125 479.722656 C 75.507812 465.25 72.542969 450.578125 70.5625 435.707031 C 68.585938 420.835938 67.609375 405.898438 67.632812 390.894531 C 67.632812 204.53125 218.703125 53.464844 405.066406 53.464844 C 591.429688 53.464844 742.5 204.53125 742.5 390.894531 Z M 742.5 390.894531 " fill-opacity="1" fill-rule="nonzero"/></g><path fill="#f47e53" d="M 517.699219 345.582031 L 505.375 413.992188 L 504.03125 421.371094 C 502.789062 427.074219 501.066406 432.628906 498.859375 438.035156 C 496.652344 443.441406 493.996094 448.617188 490.890625 453.5625 C 487.789062 458.503906 484.28125 463.144531 480.371094 467.480469 C 476.460938 471.816406 472.207031 475.785156 467.605469 479.382812 L 467.605469 509.605469 C 467.605469 509.605469 424.347656 546.074219 337.664062 509.605469 L 337.664062 475.359375 C 333.699219 471.832031 330.035156 468.015625 326.675781 463.910156 C 323.3125 459.804688 320.289062 455.464844 317.609375 450.882812 C 314.929688 446.304688 312.625 441.542969 310.695312 436.601562 C 308.765625 431.65625 307.234375 426.59375 306.101562 421.410156 L 304.800781 414.160156 L 293.148438 349.605469 C 298.925781 346.898438 304.515625 343.839844 309.910156 340.425781 C 315.304688 337.015625 320.460938 333.277344 325.386719 329.214844 C 330.3125 325.15625 334.960938 320.800781 339.335938 316.152344 C 343.710938 311.507812 347.78125 306.601562 351.539062 301.445312 C 351.816406 301.058594 352.152344 300.730469 352.546875 300.460938 C 352.9375 300.191406 353.367188 299.996094 353.828125 299.875 C 354.289062 299.757812 354.753906 299.71875 355.230469 299.761719 C 355.703125 299.804688 356.15625 299.925781 356.589844 300.125 C 357.019531 300.328125 357.40625 300.597656 357.746094 300.929688 C 358.082031 301.265625 358.355469 301.648438 358.558594 302.078125 C 358.761719 302.507812 358.890625 302.960938 358.9375 303.4375 C 358.984375 303.910156 358.949219 304.378906 358.832031 304.839844 C 357.730469 309.667969 356.152344 314.335938 354.09375 318.839844 C 353.824219 319.453125 353.648438 320.089844 353.570312 320.757812 C 353.492188 321.421875 353.515625 322.085938 353.636719 322.742188 C 353.761719 323.402344 353.976562 324.027344 354.292969 324.621094 C 354.605469 325.210938 355 325.746094 355.472656 326.214844 C 355.949219 326.6875 356.484375 327.082031 357.078125 327.390625 C 357.671875 327.703125 358.296875 327.917969 358.957031 328.035156 C 359.617188 328.15625 360.277344 328.175781 360.941406 328.09375 C 361.609375 328.011719 362.246094 327.835938 362.855469 327.558594 C 380.125 319.425781 395.046875 305.089844 405.402344 286.480469 C 405.558594 286.210938 405.726562 285.949219 405.914062 285.699219 C 406.097656 285.449219 406.300781 285.210938 406.515625 284.984375 C 406.726562 284.757812 406.957031 284.546875 407.195312 284.347656 C 407.4375 284.152344 407.6875 283.96875 407.953125 283.800781 C 408.214844 283.632812 408.484375 283.480469 408.765625 283.347656 C 409.046875 283.214844 409.335938 283.097656 409.632812 282.996094 C 409.925781 282.898438 410.226562 282.816406 410.53125 282.753906 C 410.835938 282.6875 411.144531 282.644531 411.457031 282.617188 C 411.765625 282.59375 412.078125 282.585938 412.390625 282.597656 C 412.699219 282.609375 413.007812 282.640625 413.316406 282.691406 C 413.625 282.742188 413.929688 282.808594 414.226562 282.894531 C 414.527344 282.980469 414.820312 283.085938 415.105469 283.207031 C 415.394531 283.332031 415.671875 283.46875 415.941406 283.625 C 416.210938 283.78125 416.472656 283.953125 416.71875 284.140625 C 416.96875 284.328125 417.207031 284.53125 417.429688 284.746094 C 417.65625 284.960938 417.863281 285.191406 418.0625 285.433594 C 421.238281 289.21875 424.5625 292.867188 428.039062 296.375 C 431.515625 299.886719 435.132812 303.25 438.886719 306.464844 C 442.640625 309.675781 446.519531 312.730469 450.523438 315.621094 C 454.53125 318.515625 458.648438 321.238281 462.878906 323.792969 C 467.109375 326.347656 471.4375 328.722656 475.863281 330.917969 C 480.289062 333.117188 484.796875 335.125 489.386719 336.953125 C 493.980469 338.777344 498.640625 340.410156 503.367188 341.851562 C 508.09375 343.292969 512.871094 344.535156 517.699219 345.582031 Z M 517.699219 345.582031 " fill-opacity="1" fill-rule="nonzero"/><path fill="#b84f43" d="M 675.640625 592.601562 C 667.035156 604.148438 657.714844 615.089844 647.683594 625.421875 C 643.765625 629.484375 639.75 633.441406 635.632812 637.300781 C 631.515625 641.160156 627.304688 644.914062 623 648.5625 C 618.695312 652.210938 614.300781 655.746094 609.816406 659.171875 C 605.335938 662.597656 600.769531 665.910156 596.117188 669.109375 C 591.46875 672.304688 586.742188 675.382812 581.9375 678.339844 C 577.132812 681.300781 572.257812 684.136719 567.3125 686.851562 C 562.363281 689.5625 557.351562 692.152344 552.273438 694.613281 C 547.195312 697.074219 542.0625 699.40625 536.867188 701.609375 C 531.671875 703.8125 526.425781 705.886719 521.125 707.824219 C 515.828125 709.765625 510.484375 711.570312 505.09375 713.238281 C 499.703125 714.910156 494.277344 716.445312 488.808594 717.839844 C 483.34375 719.238281 477.84375 720.5 472.316406 721.621094 C 466.785156 722.742188 461.230469 723.722656 455.652344 724.5625 C 450.070312 725.40625 444.472656 726.105469 438.859375 726.667969 C 433.246094 727.226562 427.621094 727.644531 421.984375 727.921875 C 416.347656 728.199219 410.710938 728.335938 405.066406 728.328125 C 394.042969 728.328125 383.101562 727.785156 372.328125 726.734375 C 360.296875 725.585938 348.359375 723.789062 336.519531 721.347656 C 324.683594 718.902344 313.011719 715.828125 301.503906 712.121094 C 290 708.414062 278.726562 704.09375 267.6875 699.167969 C 256.652344 694.238281 245.910156 688.730469 235.46875 682.636719 L 235.429688 682.636719 C 222.988281 675.386719 211.054688 667.371094 199.636719 658.597656 C 188.214844 649.820312 177.398438 640.355469 167.1875 630.199219 C 156.976562 620.046875 147.449219 609.28125 138.613281 597.910156 C 129.773438 586.539062 121.695312 574.65625 114.371094 562.253906 C 115.515625 560.023438 116.738281 557.839844 118.039062 555.703125 C 119.34375 553.566406 120.722656 551.476562 122.179688 549.441406 C 123.632812 547.40625 125.164062 545.421875 126.765625 543.5 C 128.367188 541.574219 130.035156 539.710938 131.773438 537.910156 C 133.511719 536.105469 135.3125 534.371094 137.179688 532.699219 C 139.042969 531.03125 140.96875 529.433594 142.953125 527.902344 C 144.933594 526.375 146.972656 524.921875 149.0625 523.542969 C 151.152344 522.164062 153.289062 520.863281 155.472656 519.640625 C 157.660156 518.417969 159.886719 517.277344 162.15625 516.21875 C 164.421875 515.160156 166.726562 514.1875 169.070312 513.296875 C 171.410156 512.40625 173.777344 511.605469 176.179688 510.886719 C 178.578125 510.171875 181 509.546875 183.445312 509.007812 C 185.890625 508.46875 188.351562 508.023438 190.832031 507.664062 C 193.308594 507.308594 195.796875 507.042969 198.292969 506.867188 C 200.792969 506.695312 203.292969 506.609375 205.796875 506.621094 C 208.300781 506.628906 210.800781 506.730469 213.296875 506.921875 L 312.222656 514.59375 L 337.664062 516.5625 L 337.664062 509.605469 C 345.773438 513.023438 354.042969 515.984375 362.476562 518.492188 C 391.90625 527.125 415.125 526.957031 432.1875 523.898438 C 455.785156 519.582031 467.605469 509.605469 467.605469 509.605469 L 467.605469 526.621094 L 488.273438 528.214844 L 580.40625 535.382812 L 588.539062 536.011719 C 593.015625 536.359375 597.457031 536.984375 601.859375 537.882812 C 606.261719 538.785156 610.589844 539.953125 614.847656 541.386719 C 619.101562 542.824219 623.253906 544.519531 627.300781 546.46875 C 631.347656 548.421875 635.257812 550.617188 639.03125 553.050781 C 642.808594 555.488281 646.417969 558.148438 649.859375 561.035156 C 653.304688 563.917969 656.558594 567.003906 659.621094 570.292969 C 662.679688 573.582031 665.527344 577.046875 668.160156 580.6875 C 670.789062 584.328125 673.1875 588.117188 675.347656 592.054688 Z M 504.03125 421.371094 C 503.65625 423.171875 503.195312 424.933594 502.734375 426.652344 C 504.34375 424.996094 505.914062 423.304688 507.4375 421.574219 C 508.964844 419.84375 510.449219 418.078125 511.886719 416.273438 C 513.328125 414.46875 514.722656 412.628906 516.070312 410.757812 C 517.417969 408.882812 518.71875 406.976562 519.972656 405.039062 C 521.226562 403.101562 522.429688 401.132812 523.585938 399.136719 C 524.742188 397.140625 525.847656 395.113281 526.90625 393.0625 C 527.960938 391.007812 528.964844 388.933594 529.917969 386.832031 C 530.871094 384.726562 531.769531 382.605469 532.621094 380.457031 C 533.46875 378.308594 534.261719 376.144531 535 373.957031 C 535.742188 371.773438 536.425781 369.570312 537.058594 367.347656 C 537.691406 365.128906 538.265625 362.894531 538.785156 360.644531 C 539.308594 358.398438 539.773438 356.136719 540.179688 353.867188 C 540.589844 351.59375 540.941406 349.316406 541.238281 347.027344 C 541.53125 344.738281 541.769531 342.441406 541.953125 340.140625 C 542.136719 337.839844 542.257812 335.535156 542.328125 333.230469 C 542.394531 330.921875 542.40625 328.613281 542.359375 326.308594 C 542.3125 324 542.210938 321.695312 542.046875 319.394531 C 541.886719 317.089844 541.671875 314.792969 541.394531 312.5 C 541.121094 310.210938 540.789062 307.925781 540.402344 305.652344 C 540.015625 303.375 539.570312 301.113281 539.070312 298.859375 C 538.570312 296.605469 538.015625 294.367188 537.40625 292.140625 C 536.792969 289.914062 536.128906 287.707031 535.410156 285.511719 C 534.6875 283.320312 533.914062 281.148438 533.085938 278.992188 C 532.257812 276.839844 531.378906 274.707031 530.445312 272.59375 C 529.511719 270.484375 528.523438 268.398438 527.488281 266.335938 C 526.449219 264.273438 525.363281 262.238281 524.226562 260.230469 C 523.085938 258.222656 521.902344 256.242188 520.664062 254.292969 C 519.429688 252.34375 518.144531 250.429688 516.816406 248.542969 C 515.484375 246.65625 514.109375 244.804688 512.683594 242.988281 C 511.261719 241.171875 509.796875 239.390625 508.285156 237.644531 C 506.773438 235.898438 505.222656 234.195312 503.625 232.527344 C 502.03125 230.859375 500.394531 229.230469 498.71875 227.644531 C 497.042969 226.058594 495.328125 224.511719 493.578125 223.011719 C 491.824219 221.507812 490.035156 220.050781 488.210938 218.636719 C 486.386719 217.226562 484.527344 215.859375 482.632812 214.535156 C 480.742188 213.214844 478.816406 211.941406 476.863281 210.714844 C 474.90625 209.488281 472.921875 208.3125 470.910156 207.1875 C 468.894531 206.058594 466.855469 204.980469 464.789062 203.953125 C 462.71875 202.929688 460.628906 201.953125 458.511719 201.03125 C 456.398438 200.109375 454.261719 199.238281 452.101562 198.421875 C 449.945312 197.605469 447.765625 196.839844 445.570312 196.132812 C 443.375 195.421875 441.160156 194.769531 438.933594 194.167969 C 436.703125 193.570312 434.460938 193.027344 432.207031 192.539062 C 429.949219 192.050781 427.683594 191.617188 425.40625 191.242188 C 423.128906 190.867188 420.84375 190.546875 418.550781 190.28125 C 416.257812 190.019531 413.960938 189.816406 411.65625 189.664062 C 409.351562 189.515625 407.046875 189.425781 404.738281 189.390625 C 402.433594 189.355469 400.125 189.378906 397.820312 189.457031 C 395.511719 189.535156 393.207031 189.671875 390.910156 189.867188 C 388.609375 190.0625 386.316406 190.3125 384.027344 190.617188 C 381.742188 190.925781 379.460938 191.289062 377.191406 191.710938 C 374.921875 192.128906 372.664062 192.605469 370.421875 193.136719 C 368.175781 193.671875 365.941406 194.257812 363.726562 194.898438 C 361.507812 195.542969 359.308594 196.238281 357.128906 196.992188 C 354.945312 197.742188 352.785156 198.546875 350.640625 199.40625 C 348.5 200.265625 346.378906 201.175781 344.28125 202.140625 C 342.183594 203.105469 340.113281 204.117188 338.066406 205.183594 C 336.019531 206.25 334 207.367188 332.007812 208.535156 C 330.015625 209.699219 328.054688 210.914062 326.125 212.179688 C 324.191406 213.441406 322.292969 214.753906 320.425781 216.113281 C 318.5625 217.46875 316.730469 218.871094 314.933594 220.320312 C 313.136719 221.769531 311.375 223.261719 309.652344 224.796875 C 307.929688 226.332031 306.246094 227.910156 304.601562 229.527344 C 302.957031 231.148438 301.351562 232.804688 299.789062 234.503906 C 298.226562 236.203125 296.707031 237.941406 295.230469 239.714844 C 293.753906 241.488281 292.320312 243.296875 290.933594 245.140625 C 289.546875 246.984375 288.207031 248.863281 286.914062 250.773438 C 285.621094 252.6875 284.375 254.628906 283.175781 256.601562 C 281.976562 258.574219 280.832031 260.574219 279.730469 262.605469 C 278.632812 264.632812 277.585938 266.691406 276.589844 268.773438 C 275.59375 270.855469 274.648438 272.957031 273.753906 275.085938 C 272.863281 277.214844 272.023438 279.363281 271.238281 281.535156 C 270.453125 283.707031 269.71875 285.894531 269.042969 288.097656 C 268.363281 290.304688 267.742188 292.527344 267.175781 294.765625 C 266.605469 297 266.09375 299.25 265.640625 301.515625 C 265.183594 303.777344 264.785156 306.050781 264.441406 308.332031 C 264.097656 310.613281 263.808594 312.902344 263.578125 315.199219 C 263.351562 317.496094 263.175781 319.796875 263.0625 322.101562 C 262.945312 324.40625 262.886719 326.714844 262.882812 329.019531 C 262.882812 331.328125 262.9375 333.636719 263.050781 335.941406 C 263.164062 338.246094 263.332031 340.546875 263.558594 342.84375 C 263.785156 345.140625 264.070312 347.429688 264.410156 349.714844 C 264.75 351.996094 265.144531 354.269531 265.597656 356.53125 C 266.050781 358.796875 266.558594 361.046875 267.125 363.285156 C 267.6875 365.523438 268.304688 367.746094 268.980469 369.953125 C 269.65625 372.160156 270.382812 374.347656 271.167969 376.519531 C 271.949219 378.691406 272.785156 380.84375 273.675781 382.972656 C 274.5625 385.101562 275.503906 387.207031 276.5 389.292969 C 277.492188 391.375 278.535156 393.429688 279.632812 395.460938 C 280.726562 397.496094 281.875 399.496094 283.066406 401.472656 C 284.261719 403.445312 285.503906 405.390625 286.796875 407.304688 C 288.085938 409.214844 289.425781 411.097656 290.808594 412.945312 C 292.195312 414.789062 293.625 416.601562 295.097656 418.378906 C 296.570312 420.152344 298.089844 421.890625 299.648438 423.59375 C 301.207031 425.292969 302.808594 426.953125 304.453125 428.578125 C 306.09375 430.199219 307.777344 431.777344 309.496094 433.316406 C 308.105469 429.421875 306.972656 425.453125 306.101562 421.410156 L 304.800781 414.160156 L 293.148438 349.605469 C 298.925781 346.898438 304.515625 343.839844 309.910156 340.425781 C 315.304688 337.015625 320.460938 333.277344 325.386719 329.214844 C 330.3125 325.15625 334.960938 320.800781 339.335938 316.152344 C 343.710938 311.507812 347.78125 306.601562 351.539062 301.445312 C 351.816406 301.058594 352.152344 300.730469 352.546875 300.460938 C 352.9375 300.191406 353.367188 299.996094 353.828125 299.875 C 354.289062 299.757812 354.753906 299.71875 355.230469 299.761719 C 355.703125 299.804688 356.15625 299.925781 356.589844 300.125 C 357.019531 300.328125 357.40625 300.59375 357.746094 300.929688 C 358.082031 301.265625 358.355469 301.648438 358.558594 302.078125 C 358.761719 302.507812 358.890625 302.960938 358.9375 303.4375 C 358.984375 303.910156 358.949219 304.378906 358.832031 304.839844 C 357.730469 309.667969 356.152344 314.335938 354.09375 318.839844 C 353.824219 319.453125 353.648438 320.089844 353.570312 320.757812 C 353.492188 321.421875 353.515625 322.085938 353.636719 322.742188 C 353.761719 323.402344 353.976562 324.027344 354.292969 324.621094 C 354.605469 325.210938 355 325.746094 355.472656 326.214844 C 355.949219 326.6875 356.484375 327.082031 357.078125 327.390625 C 357.671875 327.703125 358.296875 327.917969 358.957031 328.035156 C 359.617188 328.15625 360.277344 328.175781 360.941406 328.09375 C 361.609375 328.011719 362.246094 327.835938 362.855469 327.558594 C 380.125 319.425781 395.046875 305.089844 405.402344 286.480469 C 405.558594 286.210938 405.726562 285.949219 405.914062 285.699219 C 406.097656 285.449219 406.300781 285.210938 406.515625 284.984375 C 406.726562 284.757812 406.957031 284.546875 407.195312 284.347656 C 407.4375 284.152344 407.6875 283.96875 407.953125 283.800781 C 408.214844 283.632812 408.484375 283.480469 408.765625 283.347656 C 409.046875 283.214844 409.335938 283.097656 409.632812 282.996094 C 409.925781 282.898438 410.226562 282.816406 410.53125 282.753906 C 410.835938 282.6875 411.144531 282.644531 411.457031 282.617188 C 411.765625 282.59375 412.078125 282.585938 412.390625 282.597656 C 412.699219 282.609375 413.007812 282.640625 413.316406 282.691406 C 413.625 282.742188 413.929688 282.808594 414.226562 282.894531 C 414.527344 282.980469 414.820312 283.085938 415.105469 283.207031 C 415.394531 283.332031 415.671875 283.46875 415.941406 283.625 C 416.210938 283.78125 416.472656 283.953125 416.71875 284.140625 C 416.96875 284.328125 417.207031 284.53125 417.429688 284.746094 C 417.65625 284.960938 417.863281 285.191406 418.0625 285.433594 C 421.238281 289.21875 424.5625 292.867188 428.039062 296.375 C 431.515625 299.886719 435.132812 303.25 438.886719 306.464844 C 442.640625 309.675781 446.519531 312.730469 450.523438 315.621094 C 454.53125 318.515625 458.648438 321.238281 462.878906 323.792969 C 467.109375 326.347656 471.4375 328.722656 475.863281 330.917969 C 480.289062 333.117188 484.796875 335.125 489.386719 336.953125 C 493.980469 338.777344 498.640625 340.410156 503.367188 341.851562 C 508.09375 343.292969 512.871094 344.535156 517.699219 345.582031 L 505.375 413.992188 Z M 504.03125 421.371094 " fill-opacity="1" fill-rule="nonzero"/><path fill="#242156" d="M 262.882812 329.152344 C 262.871094 339.183594 263.929688 349.097656 266.058594 358.902344 C 268.183594 368.703125 271.332031 378.167969 275.5 387.289062 C 210.992188 363.859375 170.039062 330.996094 174.0625 300.0625 C 178.042969 269.210938 225.703125 247.957031 293.695312 241.628906 C 291.21875 244.699219 288.878906 247.867188 286.671875 251.136719 C 284.464844 254.40625 282.402344 257.765625 280.480469 261.210938 C 278.5625 264.65625 276.792969 268.175781 275.171875 271.769531 C 273.550781 275.367188 272.085938 279.023438 270.773438 282.746094 C 269.464844 286.464844 268.316406 290.234375 267.328125 294.050781 C 266.339844 297.871094 265.511719 301.722656 264.851562 305.613281 C 264.191406 309.5 263.695312 313.410156 263.367188 317.339844 C 263.039062 321.269531 262.878906 325.207031 262.882812 329.152344 Z M 530.527344 272.773438 C 531.8125 275.699219 533 278.664062 534.085938 281.671875 C 535.171875 284.679688 536.152344 287.71875 537.027344 290.792969 C 537.90625 293.867188 538.675781 296.964844 539.339844 300.09375 C 540.003906 303.21875 540.558594 306.367188 541.007812 309.53125 C 541.457031 312.695312 541.792969 315.875 542.023438 319.0625 C 542.253906 322.25 542.375 325.441406 542.386719 328.640625 C 542.394531 331.835938 542.296875 335.027344 542.089844 338.21875 C 541.882812 341.40625 541.5625 344.585938 541.136719 347.753906 C 540.710938 350.921875 540.175781 354.074219 539.535156 357.203125 C 538.890625 360.335938 538.140625 363.441406 537.285156 366.519531 C 536.429688 369.601562 535.46875 372.648438 534.40625 375.660156 C 533.339844 378.675781 532.171875 381.648438 530.90625 384.582031 C 529.636719 387.515625 528.265625 390.40625 526.800781 393.246094 C 525.332031 396.085938 523.769531 398.871094 522.113281 401.605469 C 520.453125 404.335938 518.703125 407.007812 516.863281 409.621094 C 515.019531 412.234375 513.089844 414.78125 511.074219 417.261719 C 578.265625 410.804688 625.300781 389.554688 629.238281 358.953125 C 633.179688 328.480469 593.441406 296.121094 530.527344 272.773438 Z M 405.066406 501.011719 C 398.902344 501.019531 392.792969 500.46875 386.730469 499.359375 C 380.667969 498.25 374.757812 496.597656 368.996094 494.40625 C 363.238281 492.214844 357.726562 489.515625 352.460938 486.316406 C 347.191406 483.113281 342.261719 479.460938 337.664062 475.359375 L 337.664062 478.417969 C 332.011719 483.320312 327.035156 488.832031 322.730469 494.949219 C 318.429688 501.070312 314.925781 507.617188 312.222656 514.59375 L 337.664062 516.5625 L 337.664062 486.339844 C 339.929688 488.214844 342.273438 489.992188 344.691406 491.660156 C 347.113281 493.332031 349.601562 494.898438 352.15625 496.351562 C 354.710938 497.804688 357.328125 499.148438 360 500.375 C 362.671875 501.601562 365.394531 502.710938 368.164062 503.699219 C 370.933594 504.6875 373.742188 505.558594 376.585938 506.300781 C 379.429688 507.046875 382.304688 507.667969 385.203125 508.160156 C 388.101562 508.65625 391.015625 509.023438 393.949219 509.265625 C 396.878906 509.503906 399.816406 509.617188 402.757812 509.601562 C 405.699219 509.589844 408.632812 509.445312 411.5625 509.175781 C 414.492188 508.902344 417.402344 508.503906 420.296875 507.980469 C 423.191406 507.457031 426.054688 506.804688 428.894531 506.03125 C 431.730469 505.257812 434.527344 504.359375 437.289062 503.34375 C 440.046875 502.324219 442.757812 501.1875 445.417969 499.933594 C 448.078125 498.679688 450.679688 497.3125 453.21875 495.832031 C 455.761719 494.347656 458.230469 492.761719 460.632812 491.0625 C 463.035156 489.367188 465.359375 487.570312 467.605469 485.671875 L 467.605469 479.425781 C 463.179688 482.90625 458.496094 485.996094 453.554688 488.691406 C 448.613281 491.390625 443.480469 493.65625 438.15625 495.492188 C 432.835938 497.332031 427.398438 498.710938 421.84375 499.636719 C 416.289062 500.566406 410.699219 501.023438 405.066406 501.011719 Z M 467.605469 487.222656 L 467.605469 526.621094 L 488.273438 528.214844 C 486.621094 520.617188 484.046875 513.347656 480.546875 506.40625 C 477.046875 499.460938 472.730469 493.066406 467.605469 487.222656 Z M 415.570312 395.011719 L 407.601562 395.011719 C 407.253906 395.011719 406.914062 394.976562 406.574219 394.914062 C 406.234375 394.851562 405.902344 394.757812 405.582031 394.628906 C 405.261719 394.503906 404.953125 394.351562 404.660156 394.167969 C 404.367188 393.984375 404.09375 393.777344 403.839844 393.542969 C 403.585938 393.3125 403.355469 393.054688 403.148438 392.777344 C 402.941406 392.503906 402.761719 392.210938 402.613281 391.898438 C 402.460938 391.589844 402.335938 391.269531 402.246094 390.933594 C 402.152344 390.601562 402.09375 390.265625 402.0625 389.921875 L 400.648438 373.128906 C 400.613281 372.742188 400.515625 372.371094 400.351562 372.019531 C 400.191406 371.664062 399.976562 371.347656 399.710938 371.0625 C 399.441406 370.78125 399.136719 370.550781 398.792969 370.375 C 398.445312 370.195312 398.082031 370.078125 397.695312 370.023438 C 397.3125 369.96875 396.929688 369.976562 396.546875 370.050781 C 396.164062 370.121094 395.804688 370.257812 395.46875 370.449219 C 395.132812 370.644531 394.835938 370.890625 394.582031 371.183594 C 394.328125 371.476562 394.128906 371.804688 393.984375 372.164062 L 386.703125 390.625 C 386.441406 391.28125 386.28125 391.964844 386.210938 392.667969 C 386.144531 393.371094 386.171875 394.070312 386.300781 394.765625 C 386.429688 395.457031 386.652344 396.121094 386.96875 396.753906 C 387.28125 397.386719 387.679688 397.964844 388.15625 398.484375 L 397.800781 409.011719 C 398.207031 409.453125 398.660156 409.847656 399.148438 410.195312 C 399.640625 410.542969 400.164062 410.835938 400.714844 411.078125 C 401.265625 411.320312 401.835938 411.5 402.425781 411.625 C 403.015625 411.746094 403.609375 411.808594 404.210938 411.808594 C 404.8125 411.808594 405.410156 411.746094 406 411.625 C 406.589844 411.5 407.160156 411.320312 407.710938 411.078125 C 408.261719 410.835938 408.78125 410.542969 409.273438 410.195312 C 409.765625 409.847656 410.214844 409.453125 410.625 409.011719 L 418.128906 400.792969 C 418.59375 400.289062 418.882812 399.699219 418.996094 399.023438 C 419.109375 398.34375 419.027344 397.691406 418.75 397.0625 C 418.472656 396.433594 418.042969 395.933594 417.46875 395.5625 C 416.890625 395.1875 416.257812 395.003906 415.570312 395.011719 Z M 350.238281 372.671875 C 353.132812 372.671875 355.480469 368.683594 355.480469 363.765625 C 355.480469 358.84375 353.132812 354.855469 350.238281 354.855469 C 347.34375 354.855469 345 358.84375 345 363.765625 C 345 368.683594 347.34375 372.671875 350.238281 372.671875 Z M 455.03125 372.671875 C 457.925781 372.671875 460.269531 368.683594 460.269531 363.765625 C 460.269531 358.84375 457.925781 354.855469 455.03125 354.855469 C 452.136719 354.855469 449.792969 358.84375 449.792969 363.765625 C 449.792969 368.683594 452.136719 372.671875 455.03125 372.671875 Z M 330.664062 610.667969 C 329.425781 611.640625 328.585938 612.882812 328.148438 614.398438 L 312.640625 649.230469 C 316.695312 645.515625 320.480469 641.546875 324 637.324219 C 324.417969 636.824219 324.796875 636.363281 325.171875 635.859375 L 330.625 617.625 C 331.128906 615.96875 332.078125 614.625 333.472656 613.601562 C 332.507812 612.636719 331.542969 611.671875 330.664062 610.667969 Z M 330.664062 610.667969 " fill-opacity="1" fill-rule="nonzero"/><path fill="#18b9cd" d="M 199.835938 267.042969 C 199.835938 267.042969 279.605469 220.601562 280.742188 220.273438 C 291.496094 192.929688 305.269531 166.546875 323.917969 143.84375 C 328.570312 138.175781 333.613281 132.667969 339.898438 128.890625 C 346.179688 125.117188 353.914062 123.226562 360.964844 125.246094 C 369.25 127.617188 375.574219 134.957031 384.03125 136.613281 C 395.527344 138.867188 405.871094 130.132812 416.519531 125.253906 C 435.378906 116.613281 458.398438 120.253906 475.863281 131.449219 C 493.328125 142.640625 505.707031 160.488281 513.804688 179.585938 C 521.90625 198.683594 526.101562 219.167969 530.246094 239.492188 C 530.246094 239.492188 598.730469 306.976562 596.480469 306.492188 C 583.734375 298.082031 567.988281 286.703125 551.199219 285.863281 C 534.800781 285.046875 518.878906 291.140625 502.765625 294.277344 C 490.824219 296.597656 477.734375 297.699219 467.144531 291.710938 C 451.257812 282.734375 446.339844 261.011719 430.796875 251.457031 C 416.21875 242.492188 397.285156 247.070312 381.449219 253.546875 C 365.613281 260.023438 349.289062 268.339844 332.335938 266.015625 C 319.132812 264.207031 307.691406 256.144531 295.015625 252.035156 C 265.121094 242.34375 242.085938 249.25 199.835938 267.042969 Z M 333.09375 471 C 317.585938 464.753906 298.765625 463.203125 279.609375 467.644531 C 253.957031 473.640625 233.625 489.023438 223.484375 507.71875 L 213.296875 506.921875 C 210.800781 506.730469 208.300781 506.628906 205.796875 506.621094 C 203.292969 506.609375 200.792969 506.695312 198.292969 506.867188 C 195.796875 507.042969 193.308594 507.308594 190.832031 507.664062 C 188.351562 508.023438 185.890625 508.46875 183.445312 509.007812 C 181 509.546875 178.578125 510.171875 176.179688 510.886719 C 173.777344 511.605469 171.410156 512.40625 169.070312 513.296875 C 166.726562 514.1875 164.421875 515.160156 162.15625 516.21875 C 159.886719 517.277344 157.660156 518.417969 155.472656 519.640625 C 153.289062 520.863281 151.152344 522.164062 149.0625 523.542969 C 146.972656 524.921875 144.933594 526.375 142.953125 527.902344 C 140.96875 529.433594 139.042969 531.03125 137.179688 532.699219 C 135.3125 534.371094 133.511719 536.105469 131.773438 537.910156 C 130.035156 539.710938 128.367188 541.574219 126.765625 543.5 C 125.164062 545.421875 123.632812 547.402344 122.179688 549.441406 C 120.722656 551.476562 119.34375 553.566406 118.039062 555.703125 C 116.738281 557.839844 115.515625 560.023438 114.371094 562.253906 C 121.695312 574.65625 129.773438 586.539062 138.613281 597.910156 C 147.449219 609.28125 156.976562 620.046875 167.1875 630.199219 C 177.398438 640.355469 188.214844 649.820312 199.636719 658.597656 C 211.054688 667.371094 222.988281 675.386719 235.429688 682.636719 L 235.46875 682.636719 C 242.609375 682.121094 249.65625 681.011719 256.609375 679.308594 C 263.5625 677.605469 270.324219 675.332031 276.890625 672.488281 C 283.460938 669.644531 289.746094 666.269531 295.746094 662.367188 C 301.746094 658.460938 307.378906 654.082031 312.640625 649.230469 L 328.148438 614.398438 C 328.585938 612.882812 329.425781 611.640625 330.664062 610.667969 C 324.046875 603.613281 318.695312 595.707031 314.609375 586.941406 C 311.757812 580.832031 309.605469 574.488281 308.148438 567.902344 C 306.691406 561.320312 305.964844 554.660156 305.972656 547.917969 C 305.949219 536.414062 308.03125 525.304688 312.222656 514.59375 C 314.925781 507.617188 318.429688 501.070312 322.730469 494.953125 C 327.035156 488.832031 332.011719 483.320312 337.664062 478.417969 L 337.664062 475.359375 Z M 675.347656 592.054688 C 673.1875 588.117188 670.789062 584.328125 668.160156 580.6875 C 665.527344 577.046875 662.679688 573.582031 659.621094 570.292969 C 656.558594 567.003906 653.304688 563.917969 649.859375 561.035156 C 646.417969 558.148438 642.808594 555.488281 639.03125 553.050781 C 635.257812 550.617188 631.347656 548.421875 627.300781 546.46875 C 623.253906 544.519531 619.101562 542.824219 614.847656 541.386719 C 610.589844 539.953125 606.261719 538.785156 601.859375 537.882812 C 597.457031 536.984375 593.015625 536.359375 588.539062 536.011719 L 580.40625 535.382812 C 577.890625 507.339844 552.574219 481.226562 517.277344 473.09375 C 510.328125 471.449219 503.28125 470.617188 496.140625 470.59375 C 488.996094 470.574219 481.945312 471.367188 474.984375 472.96875 C 472.632812 475.230469 470.175781 477.367188 467.605469 479.382812 L 467.605469 487.222656 C 472.730469 493.066406 477.046875 499.460938 480.546875 506.40625 C 484.046875 513.347656 486.621094 520.617188 488.273438 528.214844 C 489.714844 534.703125 490.425781 541.269531 490.410156 547.917969 C 490.410156 549.699219 490.359375 551.480469 490.253906 553.261719 C 490.152344 555.042969 489.996094 556.820312 489.792969 558.589844 C 489.585938 560.363281 489.328125 562.125 489.019531 563.882812 C 488.710938 565.640625 488.351562 567.386719 487.941406 569.121094 C 487.53125 570.855469 487.070312 572.578125 486.5625 574.289062 C 486.050781 575.996094 485.492188 577.691406 484.886719 579.367188 C 484.277344 581.042969 483.621094 582.699219 482.917969 584.339844 C 482.214844 585.976562 481.460938 587.59375 480.664062 589.191406 C 479.867188 590.785156 479.023438 592.355469 478.132812 593.902344 C 477.242188 595.449219 476.3125 596.964844 475.332031 598.457031 C 474.355469 599.949219 473.335938 601.414062 472.273438 602.84375 C 471.210938 604.277344 470.109375 605.679688 468.964844 607.046875 C 467.820312 608.414062 466.640625 609.75 465.417969 611.050781 C 464.199219 612.351562 462.941406 613.613281 461.648438 614.839844 C 460.351562 616.066406 459.023438 617.257812 457.660156 618.40625 C 456.296875 619.554688 454.902344 620.664062 453.472656 621.734375 C 452.046875 622.804688 450.589844 623.832031 449.101562 624.816406 C 447.613281 625.800781 446.101562 626.738281 444.558594 627.636719 C 443.015625 628.535156 441.449219 629.382812 439.859375 630.191406 C 438.269531 630.996094 436.65625 631.753906 435.019531 632.464844 C 433.386719 633.179688 431.730469 633.84375 430.058594 634.457031 C 428.382812 635.074219 426.695312 635.640625 424.988281 636.160156 C 423.28125 636.679688 421.558594 637.144531 419.828125 637.5625 C 418.09375 637.980469 416.347656 638.351562 414.59375 638.667969 C 412.839844 638.984375 411.074219 639.25 409.304688 639.464844 C 407.535156 639.679688 405.757812 639.84375 403.980469 639.953125 C 402.199219 640.066406 400.417969 640.125 398.632812 640.132812 C 396.851562 640.140625 395.070312 640.097656 393.289062 640.003906 C 391.507812 639.90625 389.730469 639.761719 387.957031 639.5625 C 386.183594 639.363281 384.417969 639.113281 382.660156 638.816406 C 380.902344 638.515625 379.15625 638.164062 377.417969 637.761719 C 375.679688 637.359375 373.957031 636.90625 372.246094 636.402344 C 372.128906 635 371.832031 633.636719 371.351562 632.308594 C 370.875 630.984375 370.230469 629.742188 369.425781 628.589844 C 368.621094 627.433594 367.675781 626.402344 366.597656 625.496094 C 365.519531 624.589844 364.34375 623.835938 363.066406 623.242188 L 341.226562 612.886719 C 340.730469 612.652344 340.210938 612.472656 339.671875 612.351562 C 339.136719 612.226562 338.589844 612.164062 338.039062 612.15625 C 337.488281 612.152344 336.941406 612.203125 336.402344 612.316406 C 335.863281 612.429688 335.339844 612.597656 334.835938 612.820312 C 334.332031 613.046875 333.859375 613.324219 333.417969 613.648438 C 332.972656 613.976562 332.570312 614.347656 332.207031 614.761719 C 331.839844 615.175781 331.527344 615.625 331.257812 616.109375 C 330.992188 616.589844 330.78125 617.097656 330.625 617.625 L 302.242188 712.359375 C 325.089844 719.667969 348.449219 724.460938 372.328125 726.734375 L 372.328125 647.386719 C 374.054688 648.875 375.824219 650.316406 377.632812 651.703125 C 379.4375 653.09375 381.285156 654.433594 383.167969 655.71875 C 385.050781 657.003906 386.96875 658.238281 388.921875 659.414062 C 390.871094 660.59375 392.855469 661.714844 394.871094 662.78125 C 396.886719 663.851562 398.929688 664.859375 401 665.8125 C 403.074219 666.765625 405.171875 667.65625 407.292969 668.492188 C 409.414062 669.328125 411.558594 670.101562 413.722656 670.8125 C 415.890625 671.527344 418.074219 672.179688 420.277344 672.773438 C 422.476562 673.363281 424.695312 673.890625 426.925781 674.359375 C 429.160156 674.824219 431.402344 675.230469 433.65625 675.570312 C 435.910156 675.910156 438.175781 676.1875 440.445312 676.402344 C 442.714844 676.617188 444.988281 676.765625 447.269531 676.851562 C 449.546875 676.9375 451.824219 676.960938 454.105469 676.917969 C 456.386719 676.875 458.660156 676.769531 460.9375 676.597656 C 463.210938 676.429688 465.476562 676.195312 467.738281 675.898438 C 470 675.601562 472.25 675.238281 474.488281 674.816406 C 476.730469 674.390625 478.957031 673.90625 481.171875 673.355469 C 483.382812 672.808594 485.578125 672.195312 487.757812 671.523438 C 489.9375 670.851562 492.09375 670.121094 494.234375 669.328125 C 496.371094 668.53125 498.484375 667.679688 500.574219 666.769531 C 502.664062 665.855469 504.726562 664.886719 506.761719 663.855469 C 508.796875 662.828125 510.800781 661.746094 512.777344 660.605469 C 514.75 659.464844 516.691406 658.269531 518.597656 657.019531 C 520.507812 655.769531 522.378906 654.464844 524.210938 653.109375 C 526.046875 651.757812 527.839844 650.351562 529.59375 648.894531 C 531.351562 647.441406 533.0625 645.9375 534.734375 644.382812 C 536.40625 642.832031 538.03125 641.234375 539.613281 639.59375 C 541.191406 637.949219 542.726562 636.261719 544.210938 634.53125 C 545.699219 632.804688 547.136719 631.035156 548.523438 629.222656 C 549.910156 627.414062 551.242188 625.566406 552.527344 623.679688 C 553.808594 621.796875 555.039062 619.878906 556.214844 617.921875 C 557.390625 615.96875 558.507812 613.984375 559.574219 611.964844 C 562.863281 613.878906 566.234375 615.628906 569.691406 617.226562 C 573.144531 618.820312 576.664062 620.25 580.253906 621.515625 C 583.84375 622.777344 587.484375 623.875 591.175781 624.796875 C 594.863281 625.71875 598.589844 626.46875 602.351562 627.042969 C 606.113281 627.617188 609.894531 628.015625 613.691406 628.234375 C 617.492188 628.457031 621.292969 628.496094 625.09375 628.363281 C 628.894531 628.226562 632.683594 627.910156 636.457031 627.421875 C 640.230469 626.929688 643.972656 626.261719 647.683594 625.421875 C 657.714844 615.089844 667.035156 604.148438 675.640625 592.601562 Z M 675.347656 592.054688 " fill-opacity="1" fill-rule="nonzero"/></svg>