<svg xmlns="http://www.w3.org/2000/svg" xmlns:xlink="http://www.w3.org/1999/xlink" width="1080" zoomAndPan="magnify" viewBox="0 0 810 809.999993" height="1080" preserveAspectRatio="xMidYMid meet" version="1.0"><defs><clipPath id="672f8b778d"><path d="M 67.5 67.5 L 742.5 67.5 L 742.5 742.5 L 67.5 742.5 Z M 67.5 67.5 " clip-rule="nonzero"/></clipPath><clipPath id="10b8be4c98"><path d="M 101 503 L 673 503 L 673 742.5 L 101 742.5 Z M 101 503 " clip-rule="nonzero"/></clipPath></defs><g clip-path="url(#672f8b778d)"><path fill="#ffde59" d="M 742.324219 404.910156 C 742.359375 425.195312 740.570312 445.316406 736.957031 465.277344 C 733.339844 485.238281 727.957031 504.707031 720.804688 523.691406 C 717.105469 533.472656 712.980469 543.082031 708.46875 552.394531 C 708.257812 552.777344 708.089844 553.160156 707.875 553.5 C 707.578125 554.140625 707.238281 554.777344 706.980469 555.328125 C 701.65625 566.121094 695.742188 576.582031 689.25 586.714844 C 684.101562 594.710938 678.574219 602.578125 672.789062 610.148438 C 672.152344 610.957031 671.558594 611.765625 670.917969 612.570312 C 666.75 617.886719 662.414062 623.035156 657.992188 628.007812 C 657.523438 628.5625 656.96875 629.15625 656.460938 629.753906 C 653.609375 632.984375 650.675781 636.089844 647.65625 639.195312 L 647.402344 639.449219 C 645.191406 641.789062 642.894531 644.085938 640.597656 646.339844 C 638.769531 648.125 636.941406 649.867188 635.070312 651.613281 C 633.539062 653.101562 631.878906 654.589844 630.347656 655.949219 C 626.09375 659.863281 621.628906 663.605469 617.121094 667.304688 L 617.078125 667.304688 C 609.652344 673.335938 601.980469 679.039062 594.0625 684.414062 C 586.144531 689.785156 578.015625 694.8125 569.667969 699.492188 C 561.324219 704.171875 552.792969 708.484375 544.078125 712.4375 C 535.363281 716.386719 526.496094 719.957031 517.472656 723.148438 C 508.453125 726.339844 499.3125 729.136719 490.054688 731.546875 C 480.792969 733.957031 471.449219 735.96875 462.015625 737.578125 C 452.582031 739.1875 443.101562 740.394531 433.566406 741.191406 C 424.03125 741.992188 414.480469 742.382812 404.910156 742.363281 C 375.566406 742.375 346.703125 738.648438 318.324219 731.179688 C 310.582031 729.101562 302.921875 726.753906 295.34375 724.132812 C 287.765625 721.511719 280.289062 718.628906 272.917969 715.480469 C 265.542969 712.328125 258.292969 708.925781 251.160156 705.261719 C 244.027344 701.597656 237.03125 697.6875 230.175781 693.53125 C 223.320312 689.375 216.621094 684.980469 210.074219 680.347656 C 203.53125 675.71875 197.15625 670.859375 190.957031 665.777344 C 184.753906 660.695312 178.742188 655.402344 172.914062 649.894531 C 167.089844 644.386719 161.464844 638.679688 156.042969 632.773438 C 155.574219 632.175781 155.105469 631.710938 154.597656 631.15625 C 152.597656 629.03125 150.726562 626.820312 148.8125 624.605469 C 138.703125 612.839844 129.445312 600.4375 121.042969 587.394531 C 120.898438 587.101562 120.710938 586.832031 120.488281 586.585938 C 120.433594 586.4375 120.363281 586.296875 120.277344 586.164062 C 117.9375 582.546875 115.683594 578.890625 113.515625 575.191406 C 109.347656 568.003906 105.390625 560.644531 101.777344 553.160156 C 99.226562 548.015625 96.800781 542.785156 94.546875 537.46875 C 92.589844 532.917969 90.761719 528.324219 89.019531 523.691406 C 81.882812 504.703125 76.507812 485.230469 72.890625 465.273438 C 69.273438 445.316406 67.476562 425.195312 67.5 404.910156 C 67.5 218.558594 218.558594 67.5 404.910156 67.5 C 579.570312 67.5 723.269531 200.226562 740.578125 370.292969 C 741.761719 381.804688 742.34375 393.34375 742.324219 404.910156 Z M 742.324219 404.910156 " fill-opacity="1" fill-rule="nonzero"/></g><g clip-path="url(#10b8be4c98)"><path fill="#ed6e0f" d="M 672.789062 610.148438 C 672.152344 610.957031 671.558594 611.765625 670.917969 612.570312 C 666.75 617.886719 662.414062 623.035156 657.992188 628.007812 C 657.523438 628.5625 656.96875 629.15625 656.460938 629.753906 C 653.609375 632.984375 650.675781 636.089844 647.65625 639.195312 L 647.402344 639.449219 C 645.191406 641.789062 642.894531 644.085938 640.597656 646.339844 C 638.769531 648.125 636.941406 649.867188 635.070312 651.613281 C 633.539062 653.101562 631.878906 654.589844 630.347656 655.949219 C 626.09375 659.863281 621.628906 663.605469 617.121094 667.304688 L 617.078125 667.304688 C 609.652344 673.335938 601.980469 679.039062 594.0625 684.414062 C 586.144531 689.785156 578.015625 694.8125 569.667969 699.492188 C 561.324219 704.171875 552.792969 708.484375 544.078125 712.4375 C 535.363281 716.386719 526.496094 719.957031 517.472656 723.148438 C 508.453125 726.339844 499.3125 729.136719 490.054688 731.546875 C 480.792969 733.957031 471.449219 735.96875 462.015625 737.578125 C 452.582031 739.1875 443.101562 740.394531 433.566406 741.191406 C 424.03125 741.992188 414.480469 742.382812 404.910156 742.363281 C 375.566406 742.375 346.703125 738.648438 318.324219 731.179688 C 310.582031 729.101562 302.921875 726.753906 295.34375 724.132812 C 287.765625 721.511719 280.289062 718.628906 272.917969 715.480469 C 265.542969 712.328125 258.292969 708.925781 251.160156 705.261719 C 244.027344 701.597656 237.03125 697.6875 230.175781 693.53125 C 223.320312 689.375 216.621094 684.980469 210.074219 680.347656 C 203.53125 675.71875 197.15625 670.859375 190.957031 665.777344 C 184.753906 660.695312 178.742188 655.402344 172.914062 649.894531 C 167.089844 644.386719 161.464844 638.679688 156.042969 632.773438 C 155.574219 632.175781 155.105469 631.710938 154.597656 631.15625 C 152.597656 629.03125 150.726562 626.820312 148.8125 624.605469 C 138.703125 612.839844 129.445312 600.4375 121.042969 587.394531 C 120.898438 587.101562 120.710938 586.832031 120.488281 586.585938 C 120.433594 586.4375 120.363281 586.296875 120.277344 586.164062 C 117.9375 582.546875 115.683594 578.890625 113.515625 575.191406 C 109.347656 568.003906 105.390625 560.644531 101.777344 553.160156 L 117.34375 535.640625 C 119.992188 532.652344 122.820312 529.839844 125.824219 527.203125 C 128.828125 524.566406 131.984375 522.128906 135.292969 519.886719 C 138.601562 517.648438 142.039062 515.621094 145.597656 513.808594 C 149.160156 511.996094 152.820312 510.414062 156.582031 509.058594 C 160.339844 507.707031 164.171875 506.589844 168.070312 505.714844 C 171.96875 504.839844 175.90625 504.210938 179.882812 503.824219 C 183.863281 503.441406 187.847656 503.308594 191.84375 503.421875 C 195.835938 503.535156 199.808594 503.898438 203.757812 504.511719 L 607.085938 567.152344 C 610.421875 567.667969 613.722656 568.355469 616.988281 569.222656 C 620.25 570.089844 623.457031 571.125 626.609375 572.335938 C 629.761719 573.542969 632.84375 574.917969 635.847656 576.453125 C 638.855469 577.992188 641.769531 579.683594 644.59375 581.535156 C 647.421875 583.382812 650.140625 585.375 652.75 587.515625 C 655.363281 589.65625 657.855469 591.925781 660.222656 594.332031 C 662.59375 596.734375 664.828125 599.261719 666.929688 601.902344 C 669.03125 604.546875 670.984375 607.296875 672.789062 610.148438 Z M 672.789062 610.148438 " fill-opacity="1" fill-rule="nonzero"/></g><path fill="#b84f43" d="M 533.554688 297.65625 C 533.589844 311.527344 531.53125 325.078125 527.390625 338.3125 L 527.347656 338.441406 L 507.273438 425.75 L 505.914062 431.660156 C 504.230469 438.253906 501.945312 444.632812 499.066406 450.792969 C 496.183594 456.957031 492.753906 462.800781 488.773438 468.320312 L 489.328125 480.3125 L 493.664062 577.445312 C 442.503906 624.777344 340.78125 599.558594 322.492188 545.546875 L 323.003906 483.714844 L 323.089844 471.082031 C 318.175781 464.671875 314.023438 457.800781 310.636719 450.46875 C 307.25 443.132812 304.710938 435.519531 303.015625 427.621094 L 302.84375 427.621094 L 280.519531 331.722656 C 277.675781 320.542969 276.257812 309.191406 276.265625 297.65625 C 276.25 293.296875 276.445312 288.949219 276.847656 284.609375 C 277.253906 280.265625 277.871094 275.957031 278.695312 271.675781 C 279.519531 267.394531 280.550781 263.164062 281.785156 258.984375 C 283.019531 254.804688 284.457031 250.691406 286.089844 246.652344 C 287.726562 242.609375 289.554688 238.65625 291.574219 234.792969 C 293.59375 230.929688 295.792969 227.171875 298.175781 223.523438 C 300.5625 219.875 303.117188 216.347656 305.84375 212.945312 C 308.570312 209.542969 311.453125 206.28125 314.5 203.160156 C 339.503906 211.410156 370.890625 216.300781 404.910156 216.300781 C 438.976562 216.300781 470.316406 211.410156 495.324219 203.160156 C 498.367188 206.28125 501.253906 209.542969 503.980469 212.945312 C 506.707031 216.347656 509.261719 219.875 511.644531 223.523438 C 514.027344 227.171875 516.230469 230.929688 518.25 234.792969 C 520.269531 238.65625 522.09375 242.609375 523.730469 246.652344 C 525.367188 250.691406 526.800781 254.804688 528.035156 258.984375 C 529.273438 263.164062 530.300781 267.394531 531.128906 271.675781 C 531.953125 275.957031 532.566406 280.265625 532.972656 284.609375 C 533.378906 288.949219 533.574219 293.296875 533.554688 297.65625 Z M 533.554688 297.65625 " fill-opacity="1" fill-rule="nonzero"/><path fill="#242156" d="M 517.90625 609 C 407.71875 687.503906 311.863281 620.992188 288.597656 561.070312 C 288.332031 560.378906 288.132812 559.667969 288.003906 558.9375 C 287.871094 558.207031 287.808594 557.472656 287.816406 556.730469 C 287.828125 555.988281 287.90625 555.253906 288.050781 554.527344 C 288.199219 553.800781 288.414062 553.09375 288.699219 552.410156 C 288.980469 551.722656 289.324219 551.070312 289.730469 550.449219 C 290.136719 549.828125 290.597656 549.253906 291.113281 548.71875 C 291.628906 548.1875 292.191406 547.707031 292.796875 547.28125 C 293.40625 546.855469 294.046875 546.492188 294.722656 546.1875 L 322.578125 533.34375 L 322.492188 545.546875 C 340.78125 599.558594 442.503906 624.777344 493.664062 577.445312 L 493.15625 566.34375 L 519.222656 594.753906 C 519.683594 595.246094 520.085938 595.785156 520.429688 596.363281 C 520.777344 596.945312 521.058594 597.554688 521.273438 598.191406 C 521.492188 598.832031 521.640625 599.488281 521.71875 600.15625 C 521.796875 600.828125 521.804688 601.5 521.746094 602.171875 C 521.683594 602.84375 521.550781 603.5 521.351562 604.144531 C 521.148438 604.789062 520.882812 605.40625 520.550781 605.992188 C 520.222656 606.582031 519.832031 607.128906 519.386719 607.636719 C 518.941406 608.140625 518.449219 608.597656 517.90625 609 Z M 541.210938 145.28125 C 498.769531 93.824219 318.878906 98.503906 271.164062 145.28125 C 230.25 185.34375 244.710938 338.953125 290.597656 375.101562 L 280.519531 331.722656 C 277.675781 320.542969 276.257812 309.191406 276.265625 297.65625 C 276.25 293.296875 276.445312 288.949219 276.847656 284.609375 C 277.253906 280.265625 277.871094 275.957031 278.695312 271.675781 C 279.519531 267.394531 280.550781 263.164062 281.785156 258.984375 C 283.019531 254.804688 284.457031 250.691406 286.089844 246.652344 C 287.726562 242.609375 289.554688 238.65625 291.574219 234.792969 C 293.59375 230.929688 295.792969 227.171875 298.175781 223.523438 C 300.5625 219.875 303.117188 216.347656 305.84375 212.945312 C 308.570312 209.542969 311.453125 206.28125 314.5 203.160156 C 339.503906 211.410156 370.890625 216.300781 404.910156 216.300781 C 438.976562 216.300781 470.316406 211.410156 495.324219 203.160156 C 497.433594 205.347656 499.46875 207.601562 501.429688 209.921875 C 503.386719 212.242188 505.269531 214.628906 507.066406 217.074219 C 508.867188 219.519531 510.582031 222.027344 512.214844 224.585938 C 513.847656 227.148438 515.394531 229.761719 516.851562 232.429688 C 518.308594 235.09375 519.675781 237.804688 520.953125 240.5625 C 522.226562 243.316406 523.410156 246.113281 524.5 248.949219 C 525.589844 251.785156 526.582031 254.65625 527.480469 257.558594 C 528.375 260.460938 529.175781 263.386719 529.875 266.34375 C 530.578125 269.300781 531.179688 272.273438 531.683594 275.269531 C 532.183594 278.265625 532.585938 281.277344 532.886719 284.300781 C 533.1875 287.320312 533.386719 290.351562 533.484375 293.386719 C 533.582031 296.425781 533.578125 299.460938 533.476562 302.496094 C 533.371094 305.53125 533.164062 308.5625 532.855469 311.582031 C 532.546875 314.605469 532.140625 317.613281 531.632812 320.609375 C 531.121094 323.601562 530.515625 326.578125 529.808594 329.53125 C 529.097656 332.484375 528.292969 335.414062 527.390625 338.3125 L 527.347656 338.441406 L 519.394531 373.015625 C 564.558594 336.867188 577.527344 189.339844 541.210938 145.28125 Z M 488.773438 468.320312 C 469.765625 494.769531 439.273438 511.910156 404.910156 511.910156 C 371.738281 511.910156 342.226562 495.960938 323.089844 471.082031 L 323.003906 483.714844 C 325.386719 486.875 327.945312 489.886719 330.675781 492.753906 C 333.40625 495.617188 336.296875 498.316406 339.335938 500.847656 C 342.378906 503.382812 345.558594 505.730469 348.871094 507.894531 C 352.1875 510.0625 355.613281 512.027344 359.152344 513.800781 C 362.695312 515.570312 366.324219 517.128906 370.046875 518.480469 C 373.765625 519.832031 377.550781 520.964844 381.402344 521.882812 C 385.253906 522.796875 389.144531 523.488281 393.078125 523.953125 C 397.007812 524.417969 400.953125 524.65625 404.910156 524.667969 C 439.613281 524.667969 470.316406 507.1875 489.328125 480.3125 M 352.984375 351.683594 C 358.269531 351.683594 362.550781 345.019531 362.550781 336.800781 C 362.550781 328.578125 358.269531 321.914062 352.984375 321.914062 C 347.699219 321.914062 343.414062 328.578125 343.414062 336.800781 C 343.414062 345.019531 347.699219 351.683594 352.984375 351.683594 Z M 453.816406 351.683594 C 459.101562 351.683594 463.386719 345.019531 463.386719 336.800781 C 463.386719 328.578125 459.101562 321.914062 453.816406 321.914062 C 448.53125 321.914062 444.25 328.578125 444.25 336.800781 C 444.25 345.019531 448.53125 351.683594 453.816406 351.683594 Z M 408.214844 433.582031 L 434.953125 407.277344 C 435.152344 407.082031 435.277344 406.847656 435.335938 406.578125 C 435.390625 406.304688 435.367188 406.039062 435.261719 405.78125 C 435.15625 405.527344 434.988281 405.320312 434.757812 405.164062 C 434.527344 405.011719 434.273438 404.933594 433.992188 404.933594 L 375.828125 404.933594 C 375.550781 404.933594 375.296875 405.011719 375.066406 405.164062 C 374.835938 405.320312 374.667969 405.527344 374.5625 405.78125 C 374.457031 406.039062 374.429688 406.304688 374.488281 406.578125 C 374.542969 406.847656 374.671875 407.082031 374.867188 407.277344 L 401.609375 433.582031 C 401.828125 433.792969 402.0625 433.984375 402.320312 434.15625 C 402.574219 434.324219 402.84375 434.464844 403.128906 434.582031 C 403.410156 434.695312 403.703125 434.785156 404.003906 434.84375 C 404.300781 434.902344 404.605469 434.933594 404.910156 434.933594 C 405.21875 434.933594 405.519531 434.902344 405.820312 434.84375 C 406.121094 434.785156 406.410156 434.695312 406.695312 434.582031 C 406.976562 434.464844 407.246094 434.324219 407.503906 434.15625 C 407.757812 433.984375 407.996094 433.792969 408.214844 433.582031 Z M 408.214844 433.582031 " fill-opacity="1" fill-rule="nonzero"/><path fill="#e7dcc1" d="M 512.804688 284.6875 L 444.972656 284.6875 C 444.15625 284.6875 443.339844 284.726562 442.527344 284.808594 C 441.71875 284.890625 440.910156 285.011719 440.109375 285.171875 C 439.3125 285.332031 438.519531 285.535156 437.738281 285.773438 C 436.960938 286.011719 436.195312 286.289062 435.441406 286.605469 C 434.6875 286.921875 433.953125 287.273438 433.234375 287.664062 C 432.519531 288.054688 431.820312 288.476562 431.144531 288.933594 C 430.46875 289.394531 429.820312 289.882812 429.191406 290.40625 C 428.566406 290.929688 427.96875 291.484375 427.394531 292.066406 C 426.824219 292.648438 426.28125 293.257812 425.769531 293.894531 C 425.261719 294.53125 424.78125 295.191406 424.335938 295.875 C 423.890625 296.558594 423.480469 297.261719 423.105469 297.988281 C 422.730469 298.710938 422.390625 299.453125 422.089844 300.210938 C 421.789062 300.96875 421.523438 301.742188 421.300781 302.527344 C 421.074219 303.3125 420.886719 304.105469 420.742188 304.90625 C 420.597656 305.710938 420.488281 306.519531 420.425781 307.332031 C 420.359375 308.148438 420.332031 308.960938 420.347656 309.777344 C 411.078125 307.777344 398.023438 308.332031 388.964844 309.992188 C 388.984375 309.167969 388.964844 308.347656 388.90625 307.53125 C 388.84375 306.710938 388.742188 305.898438 388.601562 305.089844 C 388.460938 304.277344 388.277344 303.480469 388.054688 302.6875 C 387.832031 301.898438 387.574219 301.121094 387.273438 300.355469 C 386.972656 299.589844 386.636719 298.84375 386.261719 298.109375 C 385.886719 297.378906 385.476562 296.667969 385.03125 295.980469 C 384.585938 295.289062 384.109375 294.621094 383.597656 293.980469 C 383.085938 293.335938 382.542969 292.722656 381.96875 292.132812 C 381.394531 291.546875 380.796875 290.988281 380.164062 290.460938 C 379.535156 289.933594 378.882812 289.4375 378.203125 288.972656 C 377.527344 288.511719 376.824219 288.082031 376.105469 287.691406 C 375.382812 287.296875 374.644531 286.941406 373.886719 286.621094 C 373.128906 286.304688 372.359375 286.023438 371.574219 285.78125 C 370.789062 285.539062 369.996094 285.335938 369.1875 285.175781 C 368.382812 285.011719 367.574219 284.890625 366.753906 284.808594 C 365.9375 284.726562 365.117188 284.6875 364.296875 284.6875 L 296.464844 284.6875 C 295.589844 284.6875 294.714844 284.734375 293.84375 284.828125 C 292.972656 284.917969 292.105469 285.058594 291.25 285.246094 C 290.390625 285.429688 289.546875 285.660156 288.714844 285.9375 C 287.882812 286.214844 287.066406 286.53125 286.269531 286.894531 C 285.46875 287.257812 284.691406 287.664062 283.9375 288.109375 C 283.183594 288.554688 282.453125 289.039062 281.75 289.5625 C 281.046875 290.085938 280.371094 290.648438 279.730469 291.242188 C 279.085938 291.839844 278.476562 292.46875 277.898438 293.128906 C 277.320312 293.789062 276.78125 294.476562 276.28125 295.195312 C 275.777344 295.914062 275.3125 296.660156 274.890625 297.425781 C 274.464844 298.195312 274.085938 298.984375 273.746094 299.792969 C 273.40625 300.601562 273.109375 301.425781 272.859375 302.265625 C 272.609375 303.105469 272.402344 303.957031 272.242188 304.820312 C 272.082031 305.679688 271.96875 306.550781 271.902344 307.425781 C 271.832031 308.300781 271.8125 309.175781 271.839844 310.050781 C 271.863281 310.929688 271.9375 311.800781 272.054688 312.667969 L 278.179688 357.75 C 278.28125 358.484375 278.410156 359.21875 278.578125 359.941406 C 278.742188 360.667969 278.941406 361.382812 279.171875 362.09375 C 279.402344 362.800781 279.664062 363.496094 279.957031 364.179688 C 280.253906 364.863281 280.574219 365.53125 280.929688 366.1875 C 281.285156 366.839844 281.667969 367.476562 282.078125 368.097656 C 282.492188 368.714844 282.929688 369.316406 283.398438 369.894531 C 283.863281 370.476562 284.355469 371.035156 284.871094 371.570312 C 285.386719 372.105469 285.929688 372.617188 286.492188 373.101562 C 287.054688 373.589844 287.636719 374.046875 288.242188 374.480469 C 288.847656 374.914062 289.46875 375.320312 290.113281 375.699219 C 290.753906 376.074219 291.410156 376.421875 292.082031 376.742188 C 292.757812 377.058594 293.441406 377.34375 294.140625 377.601562 C 294.839844 377.855469 295.546875 378.078125 296.269531 378.269531 C 296.988281 378.460938 297.714844 378.621094 298.445312 378.746094 C 299.179688 378.871094 299.917969 378.964844 300.660156 379.023438 C 301.402344 379.082031 302.144531 379.105469 302.886719 379.097656 L 358.472656 378.5 C 359.203125 378.492188 359.9375 378.453125 360.664062 378.378906 C 361.394531 378.308594 362.121094 378.203125 362.839844 378.0625 C 363.558594 377.925781 364.273438 377.757812 364.976562 377.554688 C 365.683594 377.355469 366.375 377.121094 367.0625 376.859375 C 367.746094 376.597656 368.417969 376.304688 369.074219 375.980469 C 369.734375 375.65625 370.375 375.304688 371.003906 374.925781 C 371.628906 374.546875 372.238281 374.140625 372.828125 373.707031 C 373.417969 373.269531 373.988281 372.8125 374.539062 372.328125 C 375.089844 371.839844 375.617188 371.332031 376.121094 370.800781 C 376.625 370.269531 377.105469 369.714844 377.558594 369.140625 C 378.015625 368.566406 378.445312 367.972656 378.847656 367.359375 C 379.25 366.746094 379.621094 366.117188 379.96875 365.472656 C 380.316406 364.824219 380.632812 364.164062 380.917969 363.488281 C 381.207031 362.816406 381.464844 362.128906 381.691406 361.433594 C 381.917969 360.734375 382.113281 360.027344 382.273438 359.316406 C 382.4375 358.601562 382.570312 357.878906 382.667969 357.152344 L 387.558594 321.046875 C 396.449219 318.367188 416.945312 318.664062 421.710938 321.089844 L 426.601562 357.152344 C 426.699219 357.878906 426.832031 358.601562 426.996094 359.316406 C 427.15625 360.027344 427.351562 360.734375 427.578125 361.433594 C 427.804688 362.128906 428.0625 362.816406 428.351562 363.488281 C 428.636719 364.164062 428.953125 364.824219 429.300781 365.472656 C 429.644531 366.117188 430.019531 366.746094 430.421875 367.359375 C 430.824219 367.972656 431.253906 368.566406 431.710938 369.140625 C 432.164062 369.714844 432.644531 370.269531 433.148438 370.800781 C 433.652344 371.332031 434.179688 371.839844 434.730469 372.328125 C 435.28125 372.8125 435.851562 373.269531 436.441406 373.707031 C 437.03125 374.140625 437.640625 374.546875 438.265625 374.925781 C 438.894531 375.304688 439.535156 375.65625 440.195312 375.980469 C 440.851562 376.304688 441.523438 376.597656 442.207031 376.859375 C 442.894531 377.121094 443.585938 377.355469 444.292969 377.554688 C 444.996094 377.757812 445.710938 377.925781 446.429688 378.0625 C 447.148438 378.203125 447.875 378.308594 448.605469 378.378906 C 449.332031 378.453125 450.066406 378.492188 450.796875 378.5 L 506.382812 379.097656 C 507.125 379.105469 507.867188 379.082031 508.609375 379.023438 C 509.351562 378.964844 510.089844 378.871094 510.824219 378.746094 C 511.554688 378.621094 512.28125 378.460938 513 378.269531 C 513.71875 378.078125 514.429688 377.855469 515.128906 377.601562 C 515.828125 377.34375 516.511719 377.058594 517.1875 376.742188 C 517.859375 376.421875 518.515625 376.074219 519.15625 375.699219 C 519.800781 375.320312 520.421875 374.914062 521.027344 374.480469 C 521.632812 374.046875 522.214844 373.589844 522.777344 373.101562 C 523.339844 372.617188 523.882812 372.105469 524.398438 371.570312 C 524.914062 371.035156 525.40625 370.476562 525.871094 369.894531 C 526.339844 369.316406 526.777344 368.714844 527.191406 368.097656 C 527.601562 367.476562 527.984375 366.839844 528.339844 366.1875 C 528.691406 365.53125 529.015625 364.863281 529.3125 364.179688 C 529.605469 363.496094 529.867188 362.800781 530.097656 362.09375 C 530.328125 361.382812 530.527344 360.667969 530.691406 359.941406 C 530.855469 359.21875 530.988281 358.484375 531.089844 357.75 L 537.214844 312.667969 C 537.332031 311.800781 537.40625 310.929688 537.429688 310.050781 C 537.457031 309.175781 537.4375 308.300781 537.367188 307.425781 C 537.300781 306.550781 537.1875 305.683594 537.027344 304.820312 C 536.867188 303.957031 536.660156 303.105469 536.410156 302.265625 C 536.160156 301.425781 535.863281 300.601562 535.523438 299.792969 C 535.183594 298.984375 534.804688 298.195312 534.378906 297.425781 C 533.957031 296.660156 533.492188 295.914062 532.988281 295.195312 C 532.488281 294.476562 531.949219 293.789062 531.371094 293.128906 C 530.792969 292.46875 530.183594 291.839844 529.539062 291.242188 C 528.898438 290.648438 528.222656 290.085938 527.519531 289.5625 C 526.816406 289.039062 526.085938 288.554688 525.332031 288.109375 C 524.578125 287.664062 523.800781 287.257812 523 286.894531 C 522.203125 286.53125 521.386719 286.214844 520.554688 285.9375 C 519.722656 285.660156 518.878906 285.429688 518.019531 285.246094 C 517.164062 285.058594 516.296875 284.917969 515.425781 284.828125 C 514.554688 284.734375 513.679688 284.6875 512.804688 284.6875 Z M 377.523438 316.371094 L 377.523438 316.496094 L 372.632812 352.304688 C 372.472656 353.480469 372.210938 354.632812 371.84375 355.761719 C 371.476562 356.886719 371.015625 357.976562 370.457031 359.023438 C 369.894531 360.066406 369.25 361.054688 368.511719 361.984375 C 367.777344 362.917969 366.964844 363.773438 366.078125 364.5625 C 365.1875 365.347656 364.238281 366.046875 363.226562 366.664062 C 362.210938 367.28125 361.152344 367.800781 360.046875 368.230469 C 358.9375 368.65625 357.804688 368.984375 356.640625 369.210938 C 355.472656 369.433594 354.300781 369.554688 353.113281 369.570312 L 308.160156 370.039062 C 306.957031 370.054688 305.761719 369.960938 304.574219 369.761719 C 303.382812 369.558594 302.222656 369.25 301.09375 368.839844 C 299.960938 368.425781 298.875 367.917969 297.835938 367.308594 C 296.792969 366.699219 295.820312 366 294.90625 365.210938 C 293.992188 364.425781 293.160156 363.5625 292.402344 362.625 C 291.644531 361.6875 290.980469 360.6875 290.40625 359.628906 C 289.832031 358.570312 289.355469 357.46875 288.980469 356.324219 C 288.605469 355.179688 288.335938 354.007812 288.175781 352.816406 L 283.242188 316.371094 C 283.144531 315.667969 283.085938 314.960938 283.066406 314.253906 C 283.046875 313.542969 283.0625 312.835938 283.121094 312.128906 C 283.175781 311.425781 283.265625 310.722656 283.398438 310.023438 C 283.527344 309.328125 283.695312 308.640625 283.898438 307.960938 C 284.101562 307.28125 284.339844 306.617188 284.613281 305.960938 C 284.886719 305.308594 285.195312 304.671875 285.539062 304.050781 C 285.882812 303.429688 286.253906 302.832031 286.660156 302.25 C 287.070312 301.667969 287.503906 301.113281 287.96875 300.578125 C 288.4375 300.042969 288.929688 299.535156 289.449219 299.054688 C 289.96875 298.570312 290.515625 298.121094 291.082031 297.695312 C 291.652344 297.273438 292.238281 296.878906 292.851562 296.519531 C 293.460938 296.160156 294.085938 295.832031 294.734375 295.539062 C 295.378906 295.242188 296.035156 294.984375 296.710938 294.761719 C 297.382812 294.539062 298.066406 294.351562 298.757812 294.199219 C 299.449219 294.050781 300.148438 293.9375 300.851562 293.859375 C 301.558594 293.785156 302.265625 293.746094 302.972656 293.746094 L 357.792969 293.746094 C 358.5 293.746094 359.207031 293.785156 359.910156 293.859375 C 360.617188 293.9375 361.316406 294.050781 362.007812 294.199219 C 362.699219 294.351562 363.382812 294.539062 364.054688 294.761719 C 364.726562 294.984375 365.386719 295.246094 366.03125 295.539062 C 366.675781 295.832031 367.304688 296.160156 367.914062 296.519531 C 368.523438 296.878906 369.113281 297.273438 369.683594 297.695312 C 370.25 298.121094 370.792969 298.570312 371.316406 299.054688 C 371.835938 299.535156 372.328125 300.042969 372.792969 300.578125 C 373.257812 301.113281 373.695312 301.667969 374.101562 302.25 C 374.507812 302.832031 374.882812 303.429688 375.226562 304.050781 C 375.566406 304.671875 375.875 305.308594 376.152344 305.964844 C 376.425781 306.617188 376.664062 307.28125 376.867188 307.960938 C 377.070312 308.640625 377.238281 309.328125 377.367188 310.027344 C 377.496094 310.722656 377.589844 311.425781 377.644531 312.128906 C 377.699219 312.835938 377.71875 313.542969 377.699219 314.253906 C 377.675781 314.960938 377.621094 315.667969 377.523438 316.371094 Z M 526.027344 316.371094 L 521.09375 352.816406 C 520.933594 354.007812 520.664062 355.179688 520.289062 356.324219 C 519.914062 357.46875 519.441406 358.570312 518.863281 359.628906 C 518.289062 360.6875 517.625 361.6875 516.867188 362.625 C 516.113281 363.5625 515.277344 364.425781 514.363281 365.210938 C 513.453125 366 512.476562 366.699219 511.433594 367.308594 C 510.394531 367.917969 509.308594 368.425781 508.175781 368.839844 C 507.046875 369.25 505.886719 369.558594 504.699219 369.761719 C 503.507812 369.960938 502.3125 370.054688 501.109375 370.039062 L 456.15625 369.570312 C 454.96875 369.554688 453.796875 369.433594 452.628906 369.210938 C 451.464844 368.984375 450.332031 368.65625 449.222656 368.230469 C 448.117188 367.800781 447.058594 367.28125 446.042969 366.664062 C 445.03125 366.046875 444.082031 365.347656 443.191406 364.5625 C 442.304688 363.773438 441.492188 362.917969 440.757812 361.984375 C 440.019531 361.054688 439.371094 360.066406 438.8125 359.023438 C 438.253906 357.976562 437.792969 356.886719 437.425781 355.761719 C 437.058594 354.632812 436.796875 353.480469 436.636719 352.304688 L 431.746094 316.371094 C 431.652344 315.667969 431.59375 314.960938 431.570312 314.253906 C 431.550781 313.542969 431.570312 312.835938 431.625 312.128906 C 431.679688 311.425781 431.773438 310.722656 431.902344 310.027344 C 432.03125 309.328125 432.199219 308.640625 432.402344 307.960938 C 432.605469 307.28125 432.84375 306.617188 433.117188 305.964844 C 433.394531 305.308594 433.703125 304.671875 434.042969 304.050781 C 434.386719 303.429688 434.761719 302.832031 435.167969 302.25 C 435.574219 301.667969 436.011719 301.113281 436.476562 300.578125 C 436.941406 300.042969 437.433594 299.535156 437.953125 299.054688 C 438.476562 298.570312 439.019531 298.121094 439.585938 297.695312 C 440.15625 297.273438 440.746094 296.878906 441.355469 296.519531 C 441.964844 296.160156 442.59375 295.832031 443.238281 295.539062 C 443.882812 295.246094 444.542969 294.984375 445.214844 294.761719 C 445.886719 294.539062 446.570312 294.351562 447.261719 294.199219 C 447.953125 294.050781 448.652344 293.9375 449.359375 293.859375 C 450.0625 293.785156 450.769531 293.746094 451.476562 293.746094 L 506.296875 293.746094 C 507.003906 293.746094 507.710938 293.785156 508.417969 293.859375 C 509.121094 293.9375 509.820312 294.050781 510.511719 294.199219 C 511.203125 294.351562 511.886719 294.539062 512.558594 294.761719 C 513.234375 294.984375 513.890625 295.246094 514.535156 295.539062 C 515.183594 295.832031 515.808594 296.160156 516.417969 296.519531 C 517.03125 296.878906 517.621094 297.273438 518.1875 297.695312 C 518.753906 298.121094 519.300781 298.570312 519.820312 299.054688 C 520.339844 299.535156 520.832031 300.042969 521.300781 300.578125 C 521.765625 301.113281 522.199219 301.667969 522.609375 302.25 C 523.015625 302.832031 523.386719 303.429688 523.730469 304.050781 C 524.074219 304.671875 524.382812 305.308594 524.65625 305.960938 C 524.929688 306.617188 525.167969 307.28125 525.371094 307.960938 C 525.574219 308.640625 525.742188 309.328125 525.871094 310.027344 C 526.003906 310.722656 526.09375 311.425781 526.152344 312.128906 C 526.207031 312.835938 526.222656 313.542969 526.203125 314.253906 C 526.183594 314.960938 526.125 315.667969 526.027344 316.371094 Z M 526.027344 316.371094 " fill-opacity="1" fill-rule="nonzero"/></svg>