<svg xmlns="http://www.w3.org/2000/svg" xmlns:xlink="http://www.w3.org/1999/xlink" width="1080" zoomAndPan="magnify" viewBox="0 0 810 809.999993" height="1080" preserveAspectRatio="xMidYMid meet" version="1.0"><defs><clipPath id="8bbd8a0091"><path d="M 67.5 63.148438 L 742.5 63.148438 L 742.5 739 L 67.5 739 Z M 67.5 63.148438 " clip-rule="nonzero"/></clipPath></defs><g clip-path="url(#8bbd8a0091)"><path fill="#ff66c4" d="M 742.5 400.945312 C 742.5 406.46875 742.363281 411.992188 742.09375 417.507812 C 741.824219 423.023438 741.417969 428.53125 740.875 434.027344 C 740.332031 439.523438 739.65625 445.003906 738.847656 450.46875 C 738.035156 455.933594 737.09375 461.371094 736.015625 466.789062 C 734.9375 472.207031 733.726562 477.59375 732.386719 482.953125 C 731.042969 488.308594 729.570312 493.632812 727.96875 498.917969 C 726.363281 504.203125 724.632812 509.445312 722.769531 514.648438 C 720.910156 519.847656 718.921875 525 716.808594 530.101562 C 714.695312 535.207031 712.457031 540.253906 710.097656 545.246094 C 707.734375 550.238281 705.253906 555.171875 702.648438 560.042969 C 700.042969 564.914062 697.324219 569.71875 694.484375 574.457031 C 691.644531 579.195312 688.691406 583.859375 685.621094 588.453125 C 682.550781 593.042969 679.371094 597.558594 676.082031 601.996094 C 672.792969 606.433594 669.394531 610.785156 665.890625 615.054688 C 662.386719 619.324219 658.78125 623.503906 655.070312 627.597656 C 651.363281 631.691406 647.554688 635.691406 643.648438 639.59375 C 639.742188 643.5 635.742188 647.308594 631.652344 651.019531 C 627.558594 654.726562 623.378906 658.332031 619.109375 661.835938 C 614.839844 665.339844 610.484375 668.738281 606.046875 672.027344 C 601.613281 675.320312 597.097656 678.5 592.503906 681.566406 C 587.914062 684.636719 583.246094 687.589844 578.507812 690.429688 C 573.773438 693.269531 568.96875 695.992188 564.097656 698.59375 C 559.226562 701.199219 554.292969 703.679688 549.300781 706.042969 C 544.304688 708.40625 539.257812 710.640625 534.15625 712.757812 C 529.050781 714.871094 523.902344 716.855469 518.699219 718.71875 C 513.5 720.578125 508.257812 722.3125 502.972656 723.914062 C 497.683594 725.515625 492.363281 726.988281 487.003906 728.332031 C 481.648438 729.675781 476.261719 730.882812 470.84375 731.960938 C 465.425781 733.039062 459.984375 733.984375 454.519531 734.792969 C 449.058594 735.605469 443.578125 736.28125 438.082031 736.820312 C 432.582031 737.363281 427.078125 737.769531 421.558594 738.039062 C 416.042969 738.3125 410.523438 738.445312 405 738.445312 C 399.476562 738.445312 393.957031 738.3125 388.441406 738.039062 C 382.921875 737.769531 377.417969 737.363281 371.917969 736.820312 C 366.421875 736.28125 360.941406 735.605469 355.476562 734.792969 C 350.015625 733.984375 344.574219 733.039062 339.15625 731.960938 C 333.738281 730.882812 328.351562 729.675781 322.996094 728.332031 C 317.636719 726.988281 312.316406 725.515625 307.027344 723.914062 C 301.742188 722.3125 296.5 720.578125 291.300781 718.71875 C 286.097656 716.855469 280.949219 714.871094 275.84375 712.757812 C 270.742188 710.640625 265.691406 708.40625 260.699219 706.042969 C 255.707031 703.679688 250.773438 701.199219 245.902344 698.59375 C 241.03125 695.992188 236.226562 693.269531 231.492188 690.429688 C 226.753906 687.589844 222.085938 684.636719 217.496094 681.566406 C 212.902344 678.5 208.386719 675.320312 203.953125 672.027344 C 199.515625 668.738281 195.160156 665.339844 190.890625 661.835938 C 186.621094 658.332031 182.441406 654.726562 178.347656 651.019531 C 174.257812 647.308594 170.257812 643.5 166.351562 639.59375 C 162.445312 635.691406 158.636719 631.691406 154.929688 627.597656 C 151.21875 623.503906 147.613281 619.324219 144.109375 615.054688 C 140.605469 610.785156 137.207031 606.433594 133.917969 601.996094 C 130.628906 597.558594 127.449219 593.042969 124.378906 588.453125 C 121.308594 583.859375 118.355469 579.195312 115.515625 574.457031 C 112.675781 569.71875 109.957031 564.914062 107.351562 560.042969 C 104.746094 555.171875 102.265625 550.238281 99.902344 545.246094 C 97.542969 540.253906 95.304688 535.207031 93.191406 530.101562 C 91.078125 525 89.089844 519.847656 87.230469 514.648438 C 85.367188 509.445312 83.636719 504.203125 82.03125 498.917969 C 80.429688 493.632812 78.957031 488.308594 77.613281 482.953125 C 76.273438 477.59375 75.0625 472.207031 73.984375 466.789062 C 72.90625 461.371094 71.964844 455.933594 71.152344 450.46875 C 70.34375 445.003906 69.667969 439.523438 69.125 434.027344 C 68.582031 428.53125 68.175781 423.023438 67.90625 417.507812 C 67.636719 411.992188 67.5 406.46875 67.5 400.945312 C 67.5 214.546875 218.597656 63.445312 405 63.445312 C 591.402344 63.445312 742.5 214.546875 742.5 400.945312 Z M 742.5 400.945312 " fill-opacity="1" fill-rule="nonzero"/></g><path fill="#b84f43" d="M 469.902344 501.734375 L 540.921875 484.921875 C 540.488281 489.046875 539.894531 493.144531 539.144531 497.21875 C 538.394531 501.296875 537.488281 505.335938 536.425781 509.34375 C 535.363281 513.351562 534.152344 517.308594 532.785156 521.222656 C 531.414062 525.132812 529.898438 528.988281 528.234375 532.785156 C 526.570312 536.582031 524.761719 540.304688 522.8125 543.960938 C 520.859375 547.617188 518.769531 551.195312 516.542969 554.6875 C 514.316406 558.183594 511.957031 561.589844 509.464844 564.902344 C 506.976562 568.214844 504.363281 571.425781 501.625 574.539062 C 498.886719 577.652344 496.03125 580.652344 493.0625 583.542969 C 490.09375 586.433594 487.019531 589.207031 483.835938 591.863281 C 480.652344 594.515625 477.371094 597.042969 473.992188 599.445312 C 470.617188 601.847656 467.152344 604.113281 463.597656 606.25 C 460.042969 608.382812 456.414062 610.378906 452.707031 612.230469 C 449 614.085938 445.230469 615.796875 441.390625 617.359375 C 437.550781 618.921875 433.660156 620.335938 429.710938 621.597656 C 425.765625 622.859375 421.773438 623.96875 417.742188 624.925781 C 413.707031 625.882812 409.644531 626.679688 405.550781 627.320312 C 401.457031 627.964844 397.34375 628.449219 393.210938 628.773438 C 389.078125 629.097656 384.941406 629.261719 380.796875 629.269531 C 376.652344 629.273438 372.511719 629.121094 368.378906 628.804688 C 364.246094 628.492188 360.132812 628.019531 356.035156 627.390625 C 351.941406 626.757812 347.875 625.972656 343.839844 625.027344 C 339.804688 624.082031 335.808594 622.984375 331.859375 621.734375 C 327.910156 620.480469 324.011719 619.078125 320.167969 617.527344 C 316.324219 615.972656 312.546875 614.273438 308.835938 612.429688 C 305.125 610.585938 301.488281 608.601562 297.929688 606.476562 C 294.371094 604.355469 290.902344 602.097656 287.515625 599.703125 C 284.132812 597.3125 280.84375 594.792969 277.652344 592.148438 C 274.464844 589.503906 271.378906 586.738281 268.402344 583.855469 C 265.425781 580.972656 262.5625 577.976562 259.816406 574.875 C 257.070312 571.769531 254.449219 568.5625 251.949219 565.257812 C 249.449219 561.953125 247.082031 558.554688 244.84375 555.066406 L 320.980469 537.035156 L 315.277344 514.230469 L 307.984375 484.882812 C 285.21875 489.492188 263.125 486.140625 245.558594 473.519531 C 218.765625 454.234375 209.039062 418.09375 216.542969 379.523438 C 218.160156 371.222656 220.46875 363.117188 223.460938 355.207031 L 212.898438 348.792969 C 212.589844 348.605469 212.292969 348.410156 212 348.207031 C 211.703125 348 211.417969 347.789062 211.140625 347.5625 C 210.859375 347.339844 210.585938 347.109375 210.324219 346.867188 C 210.058594 346.625 209.800781 346.378906 209.554688 346.121094 C 209.304688 345.863281 209.066406 345.597656 208.835938 345.324219 C 208.601562 345.050781 208.382812 344.769531 208.167969 344.484375 C 207.957031 344.195312 207.75 343.902344 207.558594 343.601562 C 207.363281 343.300781 207.179688 342.992188 207.007812 342.679688 C 206.832031 342.367188 206.667969 342.050781 206.515625 341.726562 C 206.363281 341.402344 206.21875 341.074219 206.085938 340.742188 C 205.953125 340.410156 205.832031 340.074219 205.722656 339.734375 C 205.613281 339.394531 205.511719 339.050781 205.425781 338.703125 C 205.335938 338.355469 205.261719 338.007812 205.195312 337.65625 C 205.128906 337.304688 205.074219 336.949219 205.03125 336.59375 C 204.988281 336.238281 204.957031 335.882812 204.9375 335.527344 C 204.917969 335.167969 204.910156 334.8125 204.914062 334.453125 C 204.917969 334.09375 204.933594 333.738281 204.960938 333.382812 C 204.988281 333.023438 205.027344 332.667969 205.078125 332.316406 C 205.125 331.960938 205.1875 331.609375 205.261719 331.257812 C 205.332031 330.90625 205.417969 330.558594 205.511719 330.214844 C 205.609375 329.871094 205.714844 329.527344 205.832031 329.191406 C 205.949219 328.851562 206.078125 328.519531 206.214844 328.1875 C 206.355469 327.859375 206.503906 327.535156 206.664062 327.214844 C 206.824219 326.894531 206.996094 326.578125 207.175781 326.269531 C 207.355469 325.960938 207.546875 325.660156 207.746094 325.363281 C 207.945312 325.066406 208.15625 324.777344 208.375 324.492188 C 208.59375 324.210938 208.820312 323.933594 209.058594 323.664062 C 209.292969 323.398438 209.539062 323.136719 209.792969 322.882812 C 210.046875 322.632812 210.308594 322.386719 210.578125 322.152344 C 210.847656 321.917969 211.125 321.691406 211.40625 321.472656 C 211.691406 321.253906 211.984375 321.046875 212.28125 320.847656 C 212.578125 320.648438 212.882812 320.460938 213.191406 320.28125 L 270.796875 286.953125 L 270.964844 286.867188 L 271.132812 286.785156 L 271.132812 276.804688 C 271.128906 275.367188 271.269531 273.941406 271.550781 272.53125 C 271.832031 271.117188 272.25 269.75 272.804688 268.421875 C 273.359375 267.09375 274.039062 265.832031 274.84375 264.640625 C 275.648438 263.449219 276.5625 262.347656 277.585938 261.335938 L 292.261719 246.871094 C 295.496094 242.925781 298.964844 239.195312 302.660156 235.675781 C 327.941406 211.613281 364.582031 195.761719 405.839844 194.128906 C 485.078125 190.984375 551.402344 241.421875 554.003906 306.78125 C 556.222656 361.957031 512.246094 410.085938 450.90625 425.640625 Z M 469.902344 501.734375 " fill-opacity="1" fill-rule="nonzero"/><path fill="#18b9cd" d="M 688.207031 584.582031 C 684.75 589.90625 681.148438 595.128906 677.402344 600.253906 C 673.652344 605.375 669.761719 610.386719 665.730469 615.292969 C 661.699219 620.195312 657.53125 624.980469 653.230469 629.648438 C 648.929688 634.316406 644.5 638.859375 639.941406 643.277344 C 635.382812 647.695312 630.703125 651.980469 625.902344 656.136719 C 621.105469 660.289062 616.191406 664.304688 611.164062 668.183594 C 606.136719 672.058594 601.007812 675.789062 595.769531 679.378906 C 590.53125 682.964844 585.199219 686.402344 579.769531 689.6875 C 574.335938 692.976562 568.816406 696.105469 563.210938 699.082031 C 557.601562 702.054688 551.914062 704.871094 546.148438 707.523438 C 540.382812 710.179688 534.546875 712.667969 528.640625 714.992188 C 522.734375 717.320312 516.765625 719.476562 510.738281 721.464844 C 504.707031 723.453125 498.628906 725.269531 492.496094 726.914062 C 486.367188 728.558594 480.195312 730.03125 473.980469 731.328125 C 467.765625 732.625 461.519531 733.746094 455.242188 734.6875 C 448.964844 735.632812 442.667969 736.402344 436.347656 736.988281 C 430.027344 737.578125 423.695312 737.988281 417.351562 738.222656 C 411.007812 738.453125 404.664062 738.507812 398.316406 738.378906 C 391.96875 738.253906 385.632812 737.949219 379.300781 737.464844 C 372.972656 736.980469 366.664062 736.320312 360.371094 735.480469 C 354.078125 734.640625 347.816406 733.625 341.578125 732.433594 C 335.34375 731.238281 329.148438 729.871094 322.992188 728.328125 C 316.835938 726.785156 310.726562 725.070312 304.664062 723.183594 C 298.601562 721.296875 292.601562 719.238281 286.65625 717.011719 C 280.710938 714.789062 274.832031 712.394531 269.023438 709.839844 C 263.214844 707.28125 257.480469 704.5625 251.824219 701.679688 C 246.167969 698.800781 240.597656 695.761719 235.113281 692.566406 C 229.628906 689.371094 224.238281 686.023438 218.941406 682.523438 C 213.644531 679.023438 208.453125 675.378906 203.359375 671.585938 C 198.269531 667.792969 193.292969 663.859375 188.421875 659.785156 C 183.554688 655.714844 178.804688 651.503906 174.171875 647.164062 C 169.542969 642.824219 165.039062 638.355469 160.660156 633.757812 L 164.808594 621.054688 C 166.078125 617.179688 167.589844 613.402344 169.339844 609.71875 C 171.09375 606.035156 173.070312 602.480469 175.277344 599.050781 C 177.484375 595.621094 179.898438 592.34375 182.527344 589.222656 C 185.152344 586.101562 187.964844 583.160156 190.964844 580.398438 C 193.964844 577.636719 197.128906 575.078125 200.457031 572.722656 C 203.785156 570.363281 207.25 568.226562 210.851562 566.3125 C 214.453125 564.398438 218.160156 562.722656 221.976562 561.28125 C 225.792969 559.839844 229.683594 558.648438 233.648438 557.707031 L 244.84375 555.066406 C 247.082031 558.550781 249.453125 561.945312 251.953125 565.25 C 254.453125 568.550781 257.078125 571.753906 259.824219 574.855469 C 262.574219 577.957031 265.4375 580.949219 268.414062 583.828125 C 271.390625 586.707031 274.476562 589.46875 277.667969 592.113281 C 280.859375 594.753906 284.144531 597.269531 287.53125 599.660156 C 290.914062 602.050781 294.386719 604.304688 297.945312 606.425781 C 301.503906 608.550781 305.136719 610.53125 308.851562 612.371094 C 312.5625 614.214844 316.335938 615.910156 320.179688 617.460938 C 324.023438 619.011719 327.917969 620.414062 331.867188 621.664062 C 335.816406 622.914062 339.808594 624.011719 343.84375 624.953125 C 347.878906 625.894531 351.941406 626.683594 356.039062 627.3125 C 360.132812 627.941406 364.246094 628.410156 368.378906 628.722656 C 372.507812 629.035156 376.644531 629.191406 380.789062 629.183594 C 384.933594 629.175781 389.070312 629.011719 393.199219 628.6875 C 397.328125 628.359375 401.441406 627.878906 405.535156 627.234375 C 409.628906 626.59375 413.691406 625.796875 417.722656 624.839844 C 421.753906 623.886719 425.742188 622.777344 429.6875 621.511719 C 433.632812 620.25 437.523438 618.839844 441.363281 617.277344 C 445.199219 615.714844 448.972656 614.007812 452.675781 612.152344 C 456.382812 610.300781 460.011719 608.308594 463.5625 606.175781 C 467.113281 604.042969 470.578125 601.777344 473.957031 599.375 C 477.335938 596.976562 480.613281 594.449219 483.796875 591.796875 C 486.980469 589.144531 490.054688 586.375 493.023438 583.484375 C 495.996094 580.59375 498.847656 577.59375 501.585938 574.484375 C 504.324219 571.375 506.9375 568.167969 509.429688 564.855469 C 511.917969 561.542969 514.277344 558.144531 516.507812 554.648438 C 518.734375 551.15625 520.828125 547.582031 522.777344 543.929688 C 524.730469 540.277344 526.542969 536.550781 528.207031 532.757812 C 529.875 528.964844 531.390625 525.113281 532.761719 521.203125 C 534.128906 517.292969 535.347656 513.335938 536.410156 509.332031 C 537.476562 505.328125 538.382812 501.289062 539.136719 497.214844 C 539.890625 493.140625 540.484375 489.042969 540.921875 484.921875 L 556.980469 481.109375 C 559.355469 480.542969 561.753906 480.078125 564.167969 479.710938 C 566.582031 479.34375 569.007812 479.074219 571.445312 478.90625 C 573.882812 478.738281 576.320312 478.667969 578.765625 478.699219 C 581.207031 478.730469 583.644531 478.859375 586.074219 479.089844 C 588.507812 479.320312 590.925781 479.648438 593.332031 480.078125 C 595.734375 480.503906 598.117188 481.03125 600.480469 481.65625 C 602.84375 482.277344 605.175781 482.996094 607.476562 483.8125 C 609.78125 484.625 612.046875 485.53125 614.277344 486.53125 C 616.503906 487.53125 618.6875 488.621094 620.828125 489.800781 C 622.96875 490.976562 625.054688 492.242188 627.089844 493.589844 C 629.128906 494.941406 631.105469 496.371094 633.023438 497.882812 C 634.941406 499.394531 636.796875 500.980469 638.585938 502.644531 C 640.375 504.308594 642.09375 506.042969 643.742188 507.84375 C 645.386719 509.648438 646.957031 511.515625 648.453125 513.449219 C 649.945312 515.382812 651.359375 517.371094 652.691406 519.417969 C 654.023438 521.46875 655.265625 523.566406 656.425781 525.71875 Z M 435.101562 195.429688 C 422.28125 193.761719 409.4375 193.539062 396.566406 194.753906 C 383.695312 195.972656 371.121094 198.597656 358.839844 202.640625 L 442.480469 330.300781 C 445.605469 329.746094 448.746094 329.613281 451.90625 329.90625 C 455.0625 330.199219 458.128906 330.902344 461.097656 332.019531 C 461.203125 320.351562 460.734375 308.703125 459.695312 297.074219 C 458.652344 285.449219 457.039062 273.90625 454.855469 262.4375 C 452.675781 250.972656 449.933594 239.640625 446.632812 228.445312 C 443.332031 217.25 439.488281 206.246094 435.101562 195.429688 Z M 526.582031 241.253906 L 523.105469 237.519531 C 520.964844 235.300781 518.742188 233.160156 516.394531 231.105469 C 516.347656 236.179688 516.078125 241.242188 515.578125 246.292969 C 515.082031 251.34375 514.359375 256.363281 513.410156 261.347656 C 512.464844 266.332031 511.296875 271.265625 509.910156 276.148438 C 508.523438 281.027344 506.917969 285.835938 505.101562 290.574219 C 503.28125 295.3125 501.257812 299.960938 499.023438 304.515625 C 496.789062 309.074219 494.359375 313.523438 491.726562 317.859375 C 489.09375 322.199219 486.277344 326.414062 483.269531 330.5 C 480.261719 334.589844 477.074219 338.53125 473.714844 342.335938 C 474.925781 344.121094 475.878906 346.035156 476.566406 348.078125 C 479.082031 355.207031 478.957031 363.632812 476.398438 372.144531 C 486.140625 367.871094 495.5625 362.980469 504.664062 357.476562 C 513.769531 351.972656 522.472656 345.898438 530.785156 339.257812 C 539.09375 332.613281 546.933594 325.460938 554.308594 317.792969 C 561.683594 310.125 568.527344 302.011719 574.839844 293.449219 Z M 526.582031 241.253906 " fill-opacity="1" fill-rule="nonzero"/><path fill="#fcc00a" d="M 358.839844 202.640625 L 442.480469 330.300781 C 437.238281 331.230469 432.21875 332.847656 427.417969 335.152344 C 422.621094 337.460938 418.222656 340.371094 414.222656 343.886719 L 302.660156 235.675781 C 310.683594 228.15625 319.433594 221.609375 328.914062 216.035156 C 338.394531 210.460938 348.367188 205.996094 358.839844 202.640625 Z M 435.101562 195.429688 C 439.488281 206.246094 443.332031 217.25 446.632812 228.445312 C 449.933594 239.640625 452.675781 250.972656 454.855469 262.4375 C 457.039062 273.90625 458.652344 285.449219 459.695312 297.074219 C 460.734375 308.703125 461.203125 320.351562 461.097656 332.019531 C 464.570312 333.328125 467.617188 335.300781 470.234375 337.933594 C 471.574219 339.257812 472.734375 340.726562 473.714844 342.335938 C 477.074219 338.53125 480.261719 334.585938 483.269531 330.5 C 486.277344 326.414062 489.09375 322.199219 491.726562 317.859375 C 494.359375 313.523438 496.789062 309.074219 499.023438 304.515625 C 501.257812 299.960938 503.28125 295.3125 505.101562 290.574219 C 506.917969 285.835938 508.523438 281.027344 509.910156 276.148438 C 511.296875 271.265625 512.464844 266.332031 513.410156 261.347656 C 514.359375 256.363281 515.082031 251.34375 515.578125 246.292969 C 516.078125 241.242188 516.351562 236.179688 516.394531 231.105469 C 495.347656 212.40625 466.964844 199.535156 435.101562 195.429688 Z M 574.839844 293.449219 C 568.527344 302.011719 561.683594 310.125 554.308594 317.792969 C 546.933594 325.460938 539.09375 332.613281 530.78125 339.257812 C 522.472656 345.898438 513.769531 351.972656 504.664062 357.476562 C 495.5625 362.980469 486.140625 367.871094 476.398438 372.144531 C 474.875 377.035156 472.777344 381.667969 470.101562 386.039062 C 467.425781 390.410156 464.257812 394.386719 460.59375 397.96875 C 458.171875 400.398438 455.570312 402.621094 452.792969 404.636719 C 450.828125 406.089844 448.789062 407.433594 446.671875 408.660156 L 448.308594 415.285156 L 450.824219 425.390625 C 450.949219 425.429688 451.074219 425.515625 451.203125 425.558594 C 472.835938 436.082031 551.402344 463.414062 638.398438 362.207031 Z M 574.839844 293.449219 " fill-opacity="1" fill-rule="nonzero"/><path fill="#242156" d="M 559.035156 480.6875 C 558.46875 485.277344 557.730469 489.835938 556.820312 494.363281 C 555.910156 498.894531 554.828125 503.386719 553.574219 507.832031 C 552.324219 512.28125 550.90625 516.675781 549.320312 521.019531 C 547.734375 525.359375 545.984375 529.632812 544.074219 533.839844 C 542.164062 538.046875 540.09375 542.175781 537.871094 546.226562 C 535.648438 550.277344 533.273438 554.238281 530.746094 558.109375 C 528.222656 561.980469 525.554688 565.75 522.742188 569.417969 C 519.929688 573.085938 516.984375 576.640625 513.902344 580.085938 C 510.820312 583.527344 507.613281 586.851562 504.277344 590.050781 C 500.941406 593.25 497.492188 596.320312 493.925781 599.257812 C 490.359375 602.195312 486.683594 604.992188 482.90625 607.652344 C 479.125 610.3125 475.25 612.824219 471.277344 615.1875 C 467.308594 617.550781 463.253906 619.761719 459.113281 621.820312 C 454.976562 623.875 450.765625 625.773438 446.484375 627.507812 C 442.199219 629.246094 437.859375 630.816406 433.457031 632.222656 C 429.054688 633.628906 424.605469 634.867188 420.109375 635.9375 C 415.613281 637.003906 411.082031 637.902344 406.519531 638.625 C 401.953125 639.351562 397.367188 639.902344 392.761719 640.277344 C 388.15625 640.652344 383.542969 640.855469 378.921875 640.878906 C 374.300781 640.90625 369.683594 640.753906 365.074219 640.429688 C 360.464844 640.105469 355.875 639.605469 351.300781 638.933594 C 346.730469 638.257812 342.191406 637.414062 337.683594 636.394531 C 333.175781 635.375 328.710938 634.1875 324.296875 632.828125 C 319.878906 631.472656 315.519531 629.949219 311.214844 628.261719 C 306.914062 626.570312 302.683594 624.722656 298.523438 622.710938 C 294.359375 620.699219 290.28125 618.535156 286.285156 616.214844 C 282.289062 613.894531 278.386719 611.425781 274.578125 608.808594 C 270.765625 606.195312 267.0625 603.4375 263.464844 600.539062 C 259.863281 597.640625 256.378906 594.609375 253.007812 591.445312 C 249.640625 588.285156 246.394531 584.996094 243.277344 581.589844 C 240.15625 578.179688 237.171875 574.65625 234.316406 571.019531 C 231.464844 567.382812 228.753906 563.644531 226.1875 559.800781 L 245.011719 555.316406 C 247.253906 558.792969 249.628906 562.179688 252.132812 565.476562 C 254.636719 568.773438 257.265625 571.964844 260.015625 575.058594 C 262.765625 578.152344 265.628906 581.136719 268.609375 584.007812 C 271.589844 586.882812 274.675781 589.636719 277.867188 592.269531 C 281.058594 594.90625 284.347656 597.414062 287.734375 599.796875 C 291.117188 602.175781 294.589844 604.425781 298.148438 606.539062 C 301.707031 608.65625 305.339844 610.628906 309.050781 612.464844 C 312.761719 614.296875 316.535156 615.988281 320.375 617.53125 C 324.214844 619.078125 328.109375 620.472656 332.058594 621.714844 C 336.003906 622.960938 339.996094 624.050781 344.027344 624.988281 C 348.058594 625.925781 352.117188 626.707031 356.210938 627.332031 C 360.300781 627.953125 364.410156 628.421875 368.539062 628.730469 C 372.667969 629.039062 376.800781 629.1875 380.9375 629.175781 C 385.078125 629.167969 389.210938 628.996094 393.335938 628.667969 C 397.460938 628.339844 401.570312 627.855469 405.65625 627.210938 C 409.746094 626.566406 413.804688 625.765625 417.832031 624.808594 C 421.859375 623.851562 425.84375 622.742188 429.785156 621.476562 C 433.726562 620.214844 437.613281 618.800781 441.445312 617.238281 C 445.277344 615.675781 449.042969 613.96875 452.746094 612.113281 C 456.445312 610.261719 460.070312 608.269531 463.617188 606.136719 C 467.167969 604.007812 470.628906 601.742188 474 599.34375 C 477.375 596.945312 480.648438 594.421875 483.828125 591.769531 C 487.007812 589.121094 490.082031 586.351562 493.046875 583.464844 C 496.011719 580.578125 498.863281 577.578125 501.597656 574.472656 C 504.332031 571.367188 506.945312 568.160156 509.433594 564.851562 C 511.921875 561.542969 514.277344 558.148438 516.503906 554.65625 C 518.734375 551.167969 520.820312 547.597656 522.773438 543.949219 C 524.726562 540.300781 526.535156 536.578125 528.199219 532.789062 C 529.863281 529 531.382812 525.152344 532.75 521.246094 C 534.121094 517.34375 535.339844 513.390625 536.402344 509.390625 C 537.46875 505.390625 538.378906 501.355469 539.132812 497.285156 C 539.886719 493.214844 540.484375 489.121094 540.921875 485.007812 Z M 395.230469 424.214844 C 371.5 457.253906 339.136719 478.550781 307.984375 484.882812 L 315.277344 514.230469 C 338.800781 504.042969 361.605469 485.804688 379.507812 460.898438 C 385.128906 453.160156 390.046875 444.996094 394.253906 436.410156 C 398.464844 427.820312 401.90625 418.933594 404.582031 409.75 C 401.710938 414.730469 398.59375 419.554688 395.230469 424.214844 Z M 223.460938 355.207031 C 220.46875 363.117188 218.160156 371.222656 216.542969 379.523438 L 241.785156 366.316406 Z M 303.242188 309.980469 C 307.296875 309.980469 310.578125 304.351562 310.578125 297.402344 C 310.578125 290.457031 307.296875 284.824219 303.242188 284.824219 C 299.191406 284.824219 295.90625 290.457031 295.90625 297.402344 C 295.90625 304.351562 299.191406 309.980469 303.242188 309.980469 Z M 444.871094 341.328125 C 442.785156 341.332031 440.742188 341.640625 438.75 342.25 C 441.992188 343.457031 445 345.09375 447.773438 347.160156 C 450.550781 349.230469 452.976562 351.644531 455.058594 354.410156 C 457.351562 357.269531 459.15625 360.410156 460.476562 363.828125 C 461.792969 367.25 462.558594 370.789062 462.773438 374.449219 C 464.828125 370.941406 465.847656 367.152344 465.832031 363.089844 C 465.832031 351.097656 456.441406 341.328125 444.871094 341.328125 Z M 588.800781 428.40625 C 588.332031 425.496094 587.429688 422.722656 586.101562 420.085938 C 584.769531 417.453125 583.070312 415.085938 581.003906 412.980469 C 518.660156 451.84375 467.929688 433.691406 451.203125 425.558594 C 451.117188 425.597656 450.992188 425.597656 450.90625 425.640625 L 469.902344 501.734375 L 540.921875 484.921875 C 540.546875 476.875 547.503906 469.789062 554.925781 466.015625 C 562.808594 461.992188 571.863281 459.976562 578.738281 454.402344 C 579.667969 453.621094 580.546875 452.789062 581.375 451.898438 C 582.199219 451.007812 582.964844 450.070312 583.671875 449.082031 C 584.378906 448.097656 585.019531 447.070312 585.597656 446.003906 C 586.175781 444.933594 586.683594 443.835938 587.121094 442.703125 C 587.558594 441.570312 587.925781 440.414062 588.21875 439.238281 C 588.507812 438.058594 588.726562 436.867188 588.867188 435.660156 C 589.007812 434.457031 589.074219 433.246094 589.0625 432.03125 C 589.050781 430.820312 588.964844 429.609375 588.800781 428.40625 Z M 588.800781 428.40625 " fill-opacity="1" fill-rule="nonzero"/></svg>