<svg xmlns="http://www.w3.org/2000/svg" xmlns:xlink="http://www.w3.org/1999/xlink" width="1080" zoomAndPan="magnify" viewBox="0 0 810 809.999993" height="1080" preserveAspectRatio="xMidYMid meet" version="1.0"><defs><clipPath id="1dfb67ad69"><path d="M 67.5 50.078125 L 742.5 50.078125 L 742.5 725 L 67.5 725 Z M 67.5 50.078125 " clip-rule="nonzero"/></clipPath></defs><g clip-path="url(#1dfb67ad69)"><path fill="#38b6ff" d="M 742.5 387.585938 C 742.519531 400.425781 741.808594 413.222656 740.359375 425.980469 C 738.914062 438.738281 736.738281 451.367188 733.84375 463.875 C 730.945312 476.386719 727.339844 488.6875 723.03125 500.78125 C 718.722656 512.875 713.738281 524.683594 708.070312 536.203125 C 702.492188 547.625 696.269531 558.6875 689.40625 569.386719 C 679.648438 584.625 668.722656 598.976562 656.636719 612.441406 C 653.777344 615.636719 650.871094 618.789062 647.84375 621.859375 L 647.59375 622.109375 C 643.1875 626.65625 638.660156 631.074219 634.003906 635.367188 C 629.347656 639.660156 624.578125 643.820312 619.6875 647.84375 C 614.800781 651.867188 609.800781 655.75 604.695312 659.496094 C 599.589844 663.238281 594.378906 666.835938 589.070312 670.285156 C 583.761719 673.734375 578.359375 677.03125 572.863281 680.179688 C 567.371094 683.324219 561.792969 686.316406 556.128906 689.148438 C 550.464844 691.980469 544.726562 694.652344 538.914062 697.160156 C 533.101562 699.671875 527.222656 702.015625 521.277344 704.195312 C 515.332031 706.375 509.328125 708.382812 503.273438 710.226562 C 497.214844 712.066406 491.109375 713.738281 484.957031 715.234375 C 478.804688 716.734375 472.617188 718.058594 466.390625 719.207031 C 460.164062 720.359375 453.910156 721.332031 447.625 722.132812 C 441.34375 722.929688 435.046875 723.550781 428.730469 723.996094 C 422.414062 724.4375 416.089844 724.707031 409.757812 724.792969 C 403.429688 724.882812 397.097656 724.792969 390.773438 724.523438 C 384.445312 724.257812 378.132812 723.8125 371.832031 723.191406 C 365.53125 722.566406 359.25 721.769531 352.996094 720.792969 C 346.738281 719.816406 340.515625 718.664062 334.324219 717.339844 C 328.132812 716.015625 321.984375 714.515625 315.875 712.84375 C 309.769531 711.171875 303.714844 709.332031 297.710938 707.316406 C 291.707031 705.304688 285.761719 703.125 279.882812 700.78125 C 274 698.433594 268.191406 695.921875 262.453125 693.25 C 256.710938 690.578125 251.050781 687.746094 245.46875 684.753906 C 239.890625 681.761719 234.398438 678.613281 228.996094 675.3125 C 223.589844 672.015625 218.285156 668.5625 213.074219 664.964844 C 207.863281 661.367188 202.761719 657.625 197.761719 653.738281 C 192.761719 649.851562 187.875 645.828125 183.105469 641.667969 C 178.332031 637.503906 173.679688 633.214844 169.148438 628.792969 C 164.617188 624.367188 160.210938 619.824219 155.9375 615.152344 C 151.660156 610.480469 147.519531 605.695312 143.511719 600.792969 C 139.507812 595.890625 135.640625 590.878906 131.917969 585.757812 C 128.191406 580.636719 124.613281 575.414062 121.183594 570.09375 C 121.019531 569.792969 120.839844 569.503906 120.644531 569.222656 C 120.5625 569.097656 120.480469 568.972656 120.394531 568.847656 C 116.105469 562.125 112.058594 555.257812 108.253906 548.246094 C 104.453125 541.230469 100.902344 534.09375 97.609375 526.828125 C 94.316406 519.5625 91.285156 512.191406 88.515625 504.710938 C 85.746094 497.230469 83.25 489.660156 81.019531 482 C 78.789062 474.339844 76.835938 466.613281 75.15625 458.8125 C 73.476562 451.015625 72.078125 443.167969 70.960938 435.269531 C 69.839844 427.371094 69.003906 419.445312 68.449219 411.488281 C 67.894531 403.527344 67.621094 395.5625 67.632812 387.585938 C 67.632812 201.21875 218.703125 50.152344 405.066406 50.152344 C 591.433594 50.152344 742.5 201.21875 742.5 387.585938 Z M 742.5 387.585938 " fill-opacity="1" fill-rule="nonzero"/></g><path fill="#ff9987" d="M 548.625 540.226562 C 503.371094 579.175781 449.90625 607.714844 395.734375 632.4375 C 380.339844 639.554688 364.355469 644.917969 347.785156 648.53125 C 334.59375 651.351562 320.40625 653.09375 307.507812 648.238281 C 304.542969 647.1875 301.902344 645.597656 299.585938 643.46875 C 290.417969 634.757812 294.648438 624.679688 299.335938 616.425781 C 316.34375 586.601562 341.976562 562.667969 368.523438 540.933594 C 369.019531 538.816406 363.835938 524.007812 358.941406 510.945312 C 355.125 500.65625 351.476562 491.449219 351.019531 490.246094 C 350.996094 490.207031 350.984375 490.164062 350.976562 490.121094 C 348.273438 490.871094 345.515625 491.296875 342.710938 491.390625 C 339.90625 491.488281 337.125 491.257812 334.375 490.695312 C 331.625 490.132812 328.976562 489.253906 326.433594 488.066406 C 323.890625 486.875 321.523438 485.402344 319.328125 483.652344 C 311.488281 477.261719 306.804688 467.847656 302.613281 458.636719 C 285.597656 421.28125 272.503906 382.59375 263.332031 342.582031 C 259.121094 324.179688 257.199219 305.539062 257.566406 286.667969 C 257.816406 273.890625 258.023438 260.992188 258.273438 248.132812 L 402.414062 248.132812 L 480.601562 403.679688 C 482.042969 406.5625 483.941406 409.109375 486.296875 411.3125 C 488.652344 413.519531 491.316406 415.246094 494.289062 416.496094 Z M 548.625 540.226562 " fill-opacity="1" fill-rule="nonzero"/><path fill="#fcc00a" d="M 565.507812 391.402344 L 517.058594 415.75 C 516.265625 416.148438 515.453125 416.507812 514.621094 416.828125 C 513.792969 417.144531 512.949219 417.421875 512.09375 417.660156 C 511.234375 417.894531 510.367188 418.089844 509.492188 418.242188 C 508.613281 418.390625 507.734375 418.5 506.847656 418.566406 C 505.960938 418.628906 505.070312 418.652344 504.183594 418.628906 C 503.292969 418.605469 502.40625 418.539062 501.523438 418.429688 C 500.640625 418.320312 499.765625 418.167969 498.898438 417.972656 C 498.03125 417.777344 497.175781 417.539062 496.332031 417.261719 C 495.488281 416.980469 494.660156 416.660156 493.847656 416.300781 C 493.035156 415.9375 492.242188 415.539062 491.46875 415.101562 C 490.695312 414.660156 489.941406 414.1875 489.214844 413.671875 C 488.488281 413.160156 487.789062 412.613281 487.117188 412.035156 C 486.441406 411.453125 485.800781 410.839844 485.1875 410.195312 C 484.574219 409.550781 483.992188 408.878906 483.445312 408.175781 C 482.898438 407.476562 482.390625 406.75 481.914062 405.996094 C 481.4375 405.246094 481 404.472656 480.601562 403.679688 L 402.414062 248.132812 L 258.273438 248.132812 C 258.023438 260.992188 257.816406 273.890625 257.566406 286.667969 C 257.199219 305.539062 259.121094 324.179688 263.332031 342.582031 C 269.199219 368.238281 276.71875 393.402344 285.898438 418.070312 L 238.320312 410.273438 C 237.363281 410.117188 236.414062 409.914062 235.472656 409.660156 C 234.535156 409.410156 233.609375 409.113281 232.699219 408.773438 C 231.789062 408.433594 230.898438 408.046875 230.027344 407.617188 C 229.15625 407.1875 228.304688 406.71875 227.480469 406.203125 C 226.652344 405.691406 225.855469 405.140625 225.082031 404.550781 C 224.3125 403.957031 223.570312 403.332031 222.859375 402.667969 C 222.152344 402.003906 221.476562 401.304688 220.835938 400.574219 C 220.191406 399.84375 219.589844 399.085938 219.023438 398.296875 C 218.453125 397.507812 217.929688 396.691406 217.441406 395.847656 C 216.953125 395.007812 216.511719 394.144531 216.109375 393.257812 C 215.707031 392.375 215.351562 391.472656 215.035156 390.550781 C 214.722656 389.632812 214.457031 388.699219 214.234375 387.75 C 214.011719 386.804688 213.839844 385.851562 213.710938 384.886719 C 213.582031 383.921875 213.503906 382.957031 213.472656 381.984375 C 213.4375 381.011719 213.453125 380.042969 213.515625 379.070312 C 213.582031 378.101562 213.691406 377.136719 213.847656 376.179688 L 240.023438 216.484375 C 240.023438 215.023438 240.058594 213.566406 240.128906 212.109375 C 240.203125 210.652344 240.308594 209.195312 240.453125 207.742188 C 240.597656 206.289062 240.773438 204.84375 240.988281 203.398438 C 241.203125 201.957031 241.453125 200.519531 241.738281 199.085938 C 242.023438 197.65625 242.34375 196.230469 242.699219 194.816406 C 243.054688 193.402344 243.441406 191.996094 243.867188 190.597656 C 244.289062 189.203125 244.75 187.816406 245.238281 186.441406 C 245.730469 185.070312 246.257812 183.707031 246.816406 182.359375 C 247.375 181.011719 247.964844 179.675781 248.589844 178.359375 C 249.214844 177.039062 249.871094 175.734375 250.558594 174.449219 C 251.246094 173.160156 251.964844 171.890625 252.714844 170.640625 C 253.464844 169.390625 254.246094 168.15625 255.058594 166.941406 C 255.867188 165.730469 256.707031 164.535156 257.578125 163.363281 C 258.449219 162.191406 259.34375 161.042969 260.269531 159.914062 C 261.195312 158.785156 262.148438 157.679688 263.128906 156.601562 C 264.109375 155.519531 265.117188 154.460938 266.148438 153.429688 C 267.179688 152.398438 268.238281 151.390625 269.316406 150.414062 C 270.398438 149.433594 271.503906 148.480469 272.632812 147.554688 C 273.761719 146.628906 274.910156 145.730469 276.082031 144.859375 C 277.253906 143.992188 278.449219 143.152344 279.660156 142.339844 C 280.875 141.527344 282.105469 140.75 283.359375 139.996094 C 284.609375 139.246094 285.878906 138.527344 287.167969 137.839844 C 288.453125 137.152344 289.757812 136.496094 291.074219 135.871094 C 292.394531 135.246094 293.730469 134.65625 295.078125 134.097656 C 296.425781 133.539062 297.785156 133.015625 299.160156 132.523438 C 300.535156 132.03125 301.917969 131.574219 303.316406 131.148438 C 304.710938 130.726562 306.117188 130.335938 307.535156 129.980469 C 308.949219 129.625 310.375 129.304688 311.804688 129.019531 C 313.234375 128.734375 314.671875 128.484375 316.117188 128.273438 C 317.5625 128.058594 319.007812 127.878906 320.460938 127.734375 C 321.914062 127.589844 323.367188 127.484375 324.824219 127.410156 C 326.285156 127.339844 327.742188 127.304688 329.203125 127.304688 L 446.421875 127.304688 C 449.054688 127.300781 451.675781 127.464844 454.289062 127.800781 C 456.898438 128.136719 459.476562 128.636719 462.023438 129.304688 C 464.570312 129.972656 467.066406 130.800781 469.503906 131.789062 C 471.945312 132.777344 474.3125 133.917969 476.605469 135.210938 C 478.898438 136.507812 481.097656 137.941406 483.203125 139.519531 C 485.3125 141.097656 487.308594 142.804688 489.199219 144.636719 C 491.085938 146.472656 492.847656 148.421875 494.484375 150.484375 C 496.121094 152.546875 497.617188 154.707031 498.976562 156.960938 C 499.515625 157.832031 500.011719 158.703125 500.511719 159.617188 L 590.644531 315.496094 C 591.476562 317.148438 592.222656 318.839844 592.886719 320.570312 C 593.550781 322.296875 594.128906 324.054688 594.621094 325.839844 C 595.113281 327.625 595.519531 329.429688 595.832031 331.253906 C 596.148438 333.078125 596.371094 334.914062 596.507812 336.761719 C 596.640625 338.605469 596.683594 340.457031 596.636719 342.304688 C 596.589844 344.15625 596.453125 346 596.226562 347.839844 C 595.996094 349.675781 595.679688 351.5 595.273438 353.304688 C 594.867188 355.109375 594.371094 356.894531 593.789062 358.652344 C 593.207031 360.410156 592.539062 362.132812 591.789062 363.824219 C 591.035156 365.519531 590.203125 367.167969 589.289062 368.78125 C 588.378906 370.390625 587.386719 371.953125 586.320312 373.464844 C 585.253906 374.980469 584.113281 376.4375 582.902344 377.835938 C 581.695312 379.238281 580.417969 380.578125 579.078125 381.855469 C 577.734375 383.128906 576.332031 384.335938 574.875 385.476562 C 573.414062 386.613281 571.902344 387.679688 570.335938 388.667969 C 568.769531 389.660156 567.160156 390.570312 565.507812 391.402344 Z M 565.507812 391.402344 " fill-opacity="1" fill-rule="nonzero"/><path fill="#e7dcc1" d="M 559.910156 492.734375 C 559.90625 494.003906 559.820312 495.269531 559.648438 496.527344 C 559.476562 497.785156 559.222656 499.023438 558.882812 500.25 C 558.546875 501.472656 558.128906 502.667969 557.628906 503.835938 C 557.132812 505.003906 556.558594 506.132812 555.910156 507.222656 C 555.257812 508.3125 554.539062 509.355469 553.75 510.351562 C 552.960938 511.347656 552.109375 512.28125 551.195312 513.164062 C 550.28125 514.042969 549.3125 514.859375 548.285156 515.609375 C 547.261719 516.359375 546.191406 517.039062 545.078125 517.644531 C 543.964844 518.253906 542.8125 518.78125 541.625 519.234375 C 540.441406 519.6875 539.230469 520.058594 537.996094 520.351562 C 536.757812 520.640625 535.507812 520.847656 534.246094 520.972656 C 532.980469 521.09375 531.714844 521.132812 530.445312 521.085938 C 529.179688 521.039062 527.917969 520.910156 526.667969 520.695312 C 525.417969 520.480469 524.183594 520.179688 522.972656 519.800781 C 521.761719 519.421875 520.582031 518.960938 519.433594 518.421875 C 518.28125 517.886719 517.175781 517.273438 516.105469 516.585938 C 518.085938 520.511719 519.066406 524.671875 519.050781 529.070312 C 519.050781 530 519.003906 530.925781 518.910156 531.847656 C 518.816406 532.773438 518.679688 533.6875 518.5 534.597656 C 518.316406 535.507812 518.089844 536.410156 517.820312 537.296875 C 517.546875 538.183594 517.234375 539.058594 516.878906 539.914062 C 516.523438 540.769531 516.125 541.609375 515.6875 542.425781 C 515.246094 543.246094 514.769531 544.039062 514.253906 544.8125 C 513.738281 545.582031 513.183594 546.328125 512.59375 547.042969 C 512.003906 547.761719 511.382812 548.449219 510.726562 549.105469 C 510.070312 549.761719 509.382812 550.382812 508.664062 550.96875 C 507.945312 551.558594 507.199219 552.109375 506.429688 552.625 C 505.65625 553.140625 504.859375 553.617188 504.042969 554.054688 C 503.222656 554.492188 502.382812 554.886719 501.527344 555.242188 C 500.667969 555.597656 499.796875 555.910156 498.90625 556.179688 C 498.019531 556.449219 497.121094 556.675781 496.210938 556.855469 C 495.300781 557.035156 494.382812 557.171875 493.457031 557.261719 C 492.535156 557.355469 491.609375 557.398438 490.679688 557.402344 C 488.914062 557.40625 487.164062 557.246094 485.429688 556.921875 C 483.695312 556.597656 482.007812 556.113281 480.363281 555.472656 C 478.71875 554.828125 477.152344 554.039062 475.65625 553.101562 C 474.160156 552.164062 472.769531 551.09375 471.476562 549.894531 C 471.410156 551.320312 471.234375 552.734375 470.953125 554.136719 C 470.675781 555.539062 470.289062 556.910156 469.800781 558.253906 C 469.3125 559.597656 468.726562 560.894531 468.042969 562.148438 C 467.355469 563.40625 466.582031 564.601562 465.714844 565.738281 C 464.847656 566.875 463.902344 567.9375 462.875 568.933594 C 461.847656 569.925781 460.75 570.835938 459.585938 571.664062 C 458.421875 572.492188 457.199219 573.226562 455.921875 573.871094 C 454.648438 574.511719 453.328125 575.054688 451.972656 575.5 C 450.613281 575.941406 449.226562 576.28125 447.816406 576.515625 C 446.40625 576.75 444.988281 576.875 443.558594 576.894531 C 442.128906 576.910156 440.707031 576.824219 439.292969 576.625 C 437.875 576.429688 436.484375 576.128906 435.113281 575.71875 C 433.742188 575.3125 432.414062 574.804688 431.121094 574.195312 C 429.828125 573.585938 428.585938 572.882812 427.402344 572.085938 C 426.214844 571.289062 425.09375 570.40625 424.042969 569.4375 C 422.988281 568.472656 422.015625 567.433594 421.121094 566.320312 C 421.117188 567.1875 421.078125 568.054688 421 568.917969 C 420.917969 569.78125 420.800781 570.640625 420.640625 571.496094 C 420.480469 572.347656 420.285156 573.195312 420.046875 574.027344 C 419.8125 574.863281 419.539062 575.6875 419.226562 576.496094 C 418.914062 577.308594 418.566406 578.101562 418.183594 578.882812 C 417.796875 579.660156 417.378906 580.417969 416.921875 581.160156 C 416.46875 581.898438 415.980469 582.617188 415.460938 583.3125 C 414.941406 584.007812 414.390625 584.675781 413.808594 585.320312 C 413.226562 585.964844 412.617188 586.582031 411.980469 587.171875 C 411.339844 587.761719 410.675781 588.316406 409.988281 588.847656 C 409.296875 589.375 408.585938 589.867188 407.851562 590.332031 C 407.117188 590.792969 406.363281 591.222656 405.585938 591.613281 C 404.8125 592.007812 404.023438 592.363281 403.214844 592.683594 C 402.410156 593.003906 401.589844 593.289062 400.757812 593.535156 C 399.921875 593.777344 399.082031 593.984375 398.230469 594.152344 C 397.378906 594.320312 396.519531 594.449219 395.65625 594.539062 C 394.792969 594.628906 393.925781 594.679688 393.058594 594.6875 C 392.191406 594.699219 391.324219 594.667969 390.457031 594.597656 C 389.589844 594.527344 388.730469 594.417969 387.875 594.269531 C 387.019531 594.121094 386.171875 593.933594 385.335938 593.707031 C 384.496094 593.480469 383.671875 593.21875 382.855469 592.914062 C 382.042969 592.613281 381.246094 592.273438 380.460938 591.898438 C 379.679688 591.523438 378.914062 591.113281 378.167969 590.667969 C 377.425781 590.222656 376.699219 589.742188 376 589.230469 C 375.296875 588.71875 374.621094 588.175781 373.972656 587.601562 C 373.320312 587.027344 372.695312 586.425781 372.097656 585.792969 C 371.503906 585.160156 370.9375 584.503906 370.402344 583.820312 C 369.867188 583.136719 369.363281 582.433594 368.890625 581.703125 C 368.421875 580.972656 367.984375 580.222656 367.582031 579.453125 C 367.179688 578.683594 366.8125 577.898438 366.484375 577.09375 C 366.152344 576.292969 365.859375 575.476562 365.605469 574.644531 C 365.351562 573.816406 365.132812 572.976562 364.957031 572.125 C 364.121094 572.683594 363.257812 573.199219 362.371094 573.667969 C 361.480469 574.132812 360.566406 574.554688 359.632812 574.925781 C 358.699219 575.292969 357.746094 575.613281 356.777344 575.882812 C 355.8125 576.15625 354.832031 576.371094 353.839844 576.539062 C 352.847656 576.703125 351.851562 576.816406 350.847656 576.875 C 349.84375 576.933594 348.839844 576.941406 347.835938 576.894531 C 346.832031 576.847656 345.832031 576.746094 344.839844 576.59375 C 343.847656 576.4375 342.863281 576.234375 341.890625 575.976562 C 340.921875 575.71875 339.964844 575.410156 339.027344 575.050781 C 338.089844 574.691406 337.171875 574.28125 336.277344 573.824219 C 335.378906 573.367188 334.511719 572.863281 333.667969 572.316406 C 332.828125 571.765625 332.019531 571.175781 331.238281 570.539062 C 330.460938 569.902344 329.71875 569.226562 329.007812 568.515625 C 328.300781 567.800781 327.636719 567.050781 327.007812 566.265625 C 326.378906 565.480469 325.796875 564.664062 325.257812 563.816406 C 324.714844 562.96875 324.222656 562.09375 323.773438 561.195312 C 323.324219 560.292969 322.925781 559.371094 322.578125 558.429688 C 322.226562 557.488281 321.929688 556.53125 321.679688 555.554688 C 321.433594 554.582031 321.238281 553.597656 321.09375 552.601562 C 320.949219 551.605469 320.859375 550.605469 320.824219 549.601562 C 320.785156 548.597656 320.800781 547.59375 320.871094 546.59375 C 320.941406 545.589844 321.066406 544.59375 321.242188 543.601562 C 321.414062 542.613281 321.644531 541.636719 321.921875 540.671875 C 322.203125 539.703125 322.53125 538.757812 322.914062 537.828125 C 323.292969 536.894531 323.722656 535.988281 324.199219 535.101562 C 324.675781 534.21875 325.199219 533.359375 325.765625 532.53125 C 326.335938 531.703125 326.945312 530.90625 327.597656 530.140625 C 328.25 529.375 328.941406 528.648438 329.671875 527.957031 C 330.402344 527.265625 331.164062 526.617188 331.964844 526.007812 C 332.765625 525.398438 333.59375 524.832031 334.453125 524.308594 C 335.3125 523.789062 336.195312 523.3125 337.105469 522.886719 C 338.015625 522.460938 338.945312 522.082031 339.894531 521.753906 C 340.847656 521.421875 341.8125 521.144531 342.789062 520.921875 C 343.769531 520.695312 344.757812 520.519531 345.757812 520.398438 C 346.753906 520.277344 347.753906 520.210938 348.761719 520.195312 C 349.765625 520.183594 350.769531 520.222656 351.769531 520.3125 C 352.769531 520.40625 353.765625 520.550781 354.75 520.746094 C 355.734375 520.945312 356.707031 521.195312 357.667969 521.496094 C 358.625 521.796875 359.566406 522.148438 360.488281 522.550781 C 361.410156 522.949219 362.308594 523.398438 363.179688 523.894531 C 364.054688 524.390625 364.898438 524.933594 365.714844 525.519531 C 366.53125 526.105469 367.316406 526.734375 368.066406 527.40625 C 368.816406 528.074219 369.527344 528.78125 370.203125 529.527344 C 370.875 530.273438 371.507812 531.050781 372.101562 531.863281 C 372.691406 532.675781 373.238281 533.519531 373.742188 534.390625 C 374.242188 535.257812 374.699219 536.15625 375.105469 537.074219 C 375.511719 537.992188 375.871094 538.929688 376.175781 539.886719 C 376.484375 540.84375 376.738281 541.816406 376.945312 542.800781 C 377.671875 542.3125 378.421875 541.859375 379.191406 541.4375 C 379.960938 541.019531 380.75 540.636719 381.554688 540.292969 C 382.359375 539.945312 383.179688 539.636719 384.011719 539.367188 C 384.847656 539.097656 385.691406 538.867188 386.546875 538.675781 C 387.402344 538.484375 388.265625 538.332031 389.132812 538.21875 C 390.003906 538.109375 390.875 538.035156 391.75 538.003906 C 392.628906 537.976562 393.503906 537.984375 394.378906 538.035156 C 395.253906 538.085938 396.125 538.175781 396.992188 538.308594 C 397.859375 538.4375 398.714844 538.609375 399.566406 538.820312 C 400.417969 539.03125 401.257812 539.277344 402.085938 539.566406 C 402.914062 539.855469 403.726562 540.183594 404.523438 540.546875 C 405.320312 540.910156 406.101562 541.308594 406.859375 541.746094 C 407.621094 542.179688 408.359375 542.652344 409.074219 543.15625 C 409.792969 543.660156 410.484375 544.195312 411.152344 544.765625 C 411.820312 545.332031 412.457031 545.933594 413.070312 546.558594 C 413.683594 547.1875 414.261719 547.84375 414.816406 548.523438 C 414.816406 547.152344 414.914062 545.792969 415.113281 544.4375 C 415.3125 543.082031 415.609375 541.746094 416 540.433594 C 416.394531 539.121094 416.878906 537.84375 417.453125 536.601562 C 418.03125 535.359375 418.695312 534.167969 419.445312 533.019531 C 420.195312 531.875 421.023438 530.789062 421.933594 529.761719 C 422.839844 528.734375 423.816406 527.78125 424.863281 526.894531 C 425.910156 526.011719 427.011719 525.207031 428.175781 524.484375 C 429.339844 523.757812 430.546875 523.121094 431.800781 522.574219 C 433.054688 522.023438 434.34375 521.566406 435.664062 521.207031 C 436.984375 520.84375 438.328125 520.578125 439.6875 520.410156 C 441.046875 520.242188 442.410156 520.171875 443.777344 520.199219 C 445.148438 520.230469 446.507812 520.359375 447.859375 520.585938 C 449.210938 520.8125 450.539062 521.132812 451.84375 521.550781 C 453.144531 521.972656 454.414062 522.480469 455.644531 523.085938 C 456.875 523.6875 458.054688 524.375 459.183594 525.148438 C 460.316406 525.921875 461.382812 526.773438 462.390625 527.703125 C 462.429688 526.800781 462.515625 525.90625 462.640625 525.015625 C 462.765625 524.125 462.933594 523.238281 463.144531 522.363281 C 463.355469 521.488281 463.605469 520.625 463.898438 519.773438 C 464.191406 518.921875 464.523438 518.085938 464.898438 517.265625 C 465.269531 516.449219 465.679688 515.648438 466.128906 514.867188 C 466.578125 514.085938 467.0625 513.328125 467.585938 512.59375 C 468.105469 511.859375 468.664062 511.152344 469.25 510.472656 C 469.839844 509.792969 470.460938 509.140625 471.113281 508.519531 C 471.761719 507.898438 472.441406 507.308594 473.152344 506.75 C 473.859375 506.195312 474.589844 505.671875 475.347656 505.1875 C 476.105469 504.699219 476.886719 504.25 477.683594 503.835938 C 478.484375 503.425781 479.304688 503.050781 480.140625 502.71875 C 480.976562 502.382812 481.828125 502.089844 482.691406 501.835938 C 483.554688 501.582031 484.429688 501.371094 485.3125 501.203125 C 486.199219 501.035156 487.089844 500.90625 487.984375 500.824219 C 488.882812 500.738281 489.777344 500.695312 490.679688 500.699219 C 493.429688 500.691406 496.125 501.082031 498.757812 501.875 C 501.394531 502.667969 503.859375 503.824219 506.152344 505.34375 C 505.675781 504.390625 505.257812 503.410156 504.894531 502.410156 C 504.53125 501.410156 504.222656 500.390625 503.972656 499.355469 C 503.726562 498.316406 503.535156 497.269531 503.402344 496.214844 C 503.273438 495.15625 503.203125 494.09375 503.191406 493.03125 C 503.179688 491.964844 503.226562 490.902344 503.335938 489.839844 C 503.441406 488.78125 503.609375 487.730469 503.835938 486.6875 C 504.0625 485.648438 504.347656 484.621094 504.691406 483.613281 C 505.03125 482.605469 505.429688 481.617188 505.882812 480.652344 C 506.335938 479.6875 506.84375 478.753906 507.402344 477.847656 C 507.960938 476.9375 508.570312 476.066406 509.226562 475.226562 C 509.886719 474.390625 510.585938 473.589844 511.335938 472.832031 C 512.082031 472.070312 512.871094 471.355469 513.699219 470.683594 C 514.527344 470.015625 515.390625 469.390625 516.285156 468.820312 C 517.183594 468.246094 518.113281 467.722656 519.070312 467.253906 C 520.027344 466.785156 521.007812 466.375 522.011719 466.015625 C 523.015625 465.65625 524.035156 465.355469 525.070312 465.113281 C 526.109375 464.867188 527.15625 464.683594 528.214844 464.558594 C 529.273438 464.433594 530.335938 464.367188 531.402344 464.363281 C 532.464844 464.359375 533.527344 464.410156 534.589844 464.527344 C 535.648438 464.640625 536.699219 464.8125 537.738281 465.046875 C 538.777344 465.277344 539.800781 465.570312 540.808594 465.917969 C 541.816406 466.265625 542.800781 466.667969 543.761719 467.128906 C 544.722656 467.585938 545.65625 468.097656 546.558594 468.660156 C 547.464844 469.226562 548.332031 469.839844 549.167969 470.5 C 550.003906 471.164062 550.796875 471.871094 551.554688 472.621094 C 552.308594 473.371094 553.019531 474.164062 553.6875 474.996094 C 554.351562 475.828125 554.96875 476.695312 555.539062 477.597656 C 556.105469 478.496094 556.621094 479.429688 557.085938 480.386719 C 557.546875 481.347656 557.957031 482.328125 558.308594 483.335938 C 558.664062 484.339844 558.957031 485.363281 559.195312 486.402344 C 559.433594 487.441406 559.609375 488.488281 559.730469 489.546875 C 559.847656 490.605469 559.910156 491.667969 559.910156 492.734375 Z M 559.910156 492.734375 " fill-opacity="1" fill-rule="nonzero"/><path fill="#242156" d="M 674.433594 492.484375 C 673.3125 491.035156 672.140625 489.625 670.914062 488.265625 C 669.6875 486.902344 668.410156 485.589844 667.082031 484.324219 C 665.753906 483.058594 664.382812 481.84375 662.964844 480.683594 C 661.542969 479.523438 660.082031 478.417969 658.578125 477.367188 C 657.078125 476.320312 655.535156 475.328125 653.957031 474.398438 C 652.378906 473.464844 650.765625 472.59375 649.121094 471.785156 C 647.476562 470.976562 645.800781 470.230469 644.101562 469.546875 C 642.398438 468.867188 640.671875 468.25 638.925781 467.699219 C 637.175781 467.148438 635.410156 466.667969 633.621094 466.25 C 631.835938 465.835938 630.039062 465.488281 628.226562 465.207031 C 626.414062 464.929688 624.59375 464.71875 622.765625 464.578125 C 620.9375 464.441406 619.109375 464.371094 617.273438 464.367188 C 615.441406 464.367188 613.609375 464.4375 611.78125 464.574219 C 609.953125 464.714844 608.132812 464.921875 606.320312 465.199219 C 604.507812 465.476562 602.710938 465.820312 600.925781 466.238281 C 599.136719 466.652344 597.371094 467.132812 595.621094 467.679688 L 556.839844 479.875 C 558.910156 483.914062 559.929688 488.199219 559.910156 492.734375 C 559.910156 494.25 559.792969 495.753906 559.550781 497.25 C 559.3125 498.75 558.957031 500.214844 558.480469 501.65625 C 558.007812 503.09375 557.417969 504.484375 556.71875 505.828125 C 556.023438 507.175781 555.222656 508.453125 554.316406 509.671875 C 553.414062 510.886719 552.417969 512.023438 551.332031 513.078125 C 550.242188 514.136719 549.082031 515.097656 547.839844 515.96875 C 546.597656 516.835938 545.296875 517.601562 543.929688 518.261719 C 542.566406 518.921875 541.160156 519.46875 539.707031 519.902344 L 548.625 540.226562 C 503.371094 579.175781 449.90625 607.714844 395.734375 632.4375 C 380.339844 639.554688 364.355469 644.917969 347.785156 648.53125 C 334.59375 651.351562 320.40625 653.09375 307.507812 648.238281 C 304.542969 647.1875 301.902344 645.597656 299.585938 643.46875 C 290.417969 634.757812 294.648438 624.679688 299.335938 616.425781 C 308.84375 600.214844 320.277344 585.503906 333.640625 572.292969 C 332.050781 571.253906 330.578125 570.070312 329.226562 568.738281 C 327.878906 567.40625 326.671875 565.953125 325.613281 564.378906 C 324.554688 562.804688 323.664062 561.140625 322.941406 559.382812 C 322.21875 557.628906 321.679688 555.820312 321.320312 553.957031 L 269.140625 570.382812 C 266.011719 571.367188 262.941406 572.503906 259.925781 573.792969 C 256.914062 575.082031 253.972656 576.519531 251.101562 578.105469 C 248.230469 579.6875 245.445312 581.414062 242.75 583.277344 C 240.050781 585.140625 237.453125 587.132812 234.957031 589.257812 C 232.457031 591.378906 230.070312 593.621094 227.796875 595.984375 C 225.523438 598.347656 223.375 600.816406 221.347656 603.394531 C 219.320312 605.96875 217.429688 608.640625 215.667969 611.410156 C 213.910156 614.175781 212.292969 617.023438 210.820312 619.949219 L 194.890625 651.558594 C 198.945312 654.789062 203.074219 657.921875 207.273438 660.960938 C 211.472656 664 215.738281 666.941406 220.074219 669.785156 C 224.410156 672.625 228.808594 675.367188 233.269531 678.007812 C 237.730469 680.648438 242.25 683.183594 246.828125 685.613281 C 251.40625 688.046875 256.039062 690.371094 260.722656 692.585938 C 265.410156 694.804688 270.144531 696.914062 274.925781 698.914062 C 279.710938 700.914062 284.535156 702.800781 289.40625 704.578125 C 294.273438 706.355469 299.183594 708.019531 304.128906 709.570312 C 309.074219 711.121094 314.054688 712.558594 319.066406 713.878906 C 324.082031 715.199219 329.121094 716.402344 334.1875 717.492188 C 339.257812 718.582031 344.347656 719.554688 349.460938 720.40625 C 354.574219 721.261719 359.703125 721.996094 364.851562 722.613281 C 369.996094 723.234375 375.15625 723.730469 380.324219 724.109375 C 385.496094 724.492188 390.671875 724.75 395.851562 724.890625 C 401.035156 725.035156 406.21875 725.054688 411.402344 724.957031 C 416.582031 724.859375 421.761719 724.640625 426.933594 724.304688 C 432.105469 723.96875 437.269531 723.515625 442.421875 722.9375 C 447.574219 722.363281 452.710938 721.671875 457.828125 720.859375 C 462.949219 720.050781 468.046875 719.121094 473.125 718.074219 C 478.203125 717.027344 483.25 715.863281 488.277344 714.585938 C 493.300781 713.304688 498.289062 711.914062 503.25 710.402344 C 508.207031 708.894531 513.128906 707.269531 518.015625 705.535156 C 522.898438 703.796875 527.742188 701.949219 532.539062 699.992188 C 537.339844 698.03125 542.089844 695.960938 546.792969 693.785156 C 551.5 691.605469 556.148438 689.320312 560.75 686.925781 C 565.347656 684.535156 569.886719 682.035156 574.371094 679.433594 C 578.855469 676.832031 583.273438 674.128906 587.632812 671.320312 C 591.992188 668.515625 596.285156 665.609375 600.507812 662.605469 C 604.734375 659.601562 608.886719 656.5 612.96875 653.304688 C 617.050781 650.109375 621.054688 646.824219 624.984375 643.441406 C 628.914062 640.0625 632.765625 636.59375 636.535156 633.035156 C 640.304688 629.476562 643.992188 625.835938 647.59375 622.109375 L 647.84375 621.859375 C 650.871094 618.789062 653.777344 615.636719 656.636719 612.441406 C 668.722656 598.976562 679.648438 584.625 689.40625 569.386719 C 696.269531 558.6875 702.492188 547.625 708.070312 536.203125 Z M 328.351562 291.914062 C 328.351562 284.753906 332.066406 278.949219 336.648438 278.949219 C 341.230469 278.949219 344.945312 284.753906 344.945312 291.914062 C 344.945312 299.070312 341.230469 304.875 336.648438 304.875 C 332.066406 304.875 328.351562 299.070312 328.351562 291.914062 Z M 266.132812 291.914062 C 266.132812 284.753906 269.382812 278.949219 273.394531 278.949219 C 277.402344 278.949219 280.652344 284.753906 280.652344 291.914062 C 280.652344 299.070312 277.402344 304.875 273.394531 304.875 C 269.382812 304.875 266.132812 299.070312 266.132812 291.914062 Z M 300.082031 375.472656 L 289.921875 386.589844 C 289.632812 386.902344 289.292969 387.148438 288.902344 387.320312 C 288.511719 387.492188 288.105469 387.578125 287.679688 387.578125 C 287.253906 387.578125 286.84375 387.488281 286.453125 387.316406 C 286.0625 387.144531 285.726562 386.902344 285.4375 386.585938 L 275.539062 375.722656 C 274.914062 375.035156 274.484375 374.238281 274.25 373.339844 C 274.015625 372.4375 274.003906 371.535156 274.21875 370.628906 L 289.714844 304.75 C 289.78125 304.484375 289.933594 304.277344 290.167969 304.125 C 290.398438 303.976562 290.652344 303.925781 290.921875 303.976562 C 291.195312 304.023438 291.414062 304.160156 291.582031 304.382812 C 291.746094 304.601562 291.816406 304.847656 291.789062 305.125 L 285.984375 369.769531 C 285.964844 370.007812 285.96875 370.246094 285.996094 370.484375 C 286.023438 370.722656 286.078125 370.953125 286.152344 371.179688 C 286.230469 371.40625 286.328125 371.621094 286.449219 371.828125 C 286.570312 372.035156 286.714844 372.226562 286.875 372.402344 C 287.035156 372.578125 287.214844 372.738281 287.40625 372.878906 C 287.601562 373.015625 287.808594 373.132812 288.027344 373.230469 C 288.246094 373.328125 288.472656 373.402344 288.707031 373.449219 C 288.941406 373.5 289.179688 373.523438 289.417969 373.523438 L 299.210938 373.523438 C 299.445312 373.523438 299.65625 373.585938 299.851562 373.710938 C 300.046875 373.835938 300.1875 374.003906 300.285156 374.214844 C 300.378906 374.425781 300.40625 374.644531 300.371094 374.875 C 300.335938 375.101562 300.238281 375.300781 300.082031 375.472656 Z M 438.789062 457.351562 C 438.601562 458.722656 438.007812 459.882812 437.003906 460.835938 C 421.328125 479.335938 399.714844 491.699219 378.105469 502.648438 C 371.941406 505.925781 365.550781 508.691406 358.941406 510.945312 C 355.125 500.65625 351.476562 491.449219 351.019531 490.246094 C 381.175781 481.742188 411.371094 472.492188 438.789062 457.351562 Z M 438.789062 457.351562 " fill-opacity="1" fill-rule="nonzero"/></svg>