<svg xmlns="http://www.w3.org/2000/svg" xmlns:xlink="http://www.w3.org/1999/xlink" width="1080" zoomAndPan="magnify" viewBox="0 0 810 809.999993" height="1080" preserveAspectRatio="xMidYMid meet" version="1.0"><defs><clipPath id="0f854fe94a"><path d="M 67.5 54.101562 L 742.5 54.101562 L 742.5 729 L 67.5 729 Z M 67.5 54.101562 " clip-rule="nonzero"/></clipPath></defs><g clip-path="url(#0f854fe94a)"><path fill="#56317e" d="M 742.335938 391.472656 C 742.335938 396.152344 742.238281 400.832031 742.042969 405.507812 C 741.847656 410.183594 741.554688 414.855469 741.164062 419.519531 C 740.777344 424.183594 740.289062 428.839844 739.707031 433.484375 C 739.125 438.128906 738.445312 442.757812 737.667969 447.371094 C 736.894531 451.988281 736.023438 456.585938 735.054688 461.167969 C 734.085938 465.746094 733.027344 470.304688 731.871094 474.839844 C 730.710938 479.375 729.460938 483.882812 728.117188 488.367188 C 726.773438 492.851562 725.335938 497.304688 723.808594 501.726562 C 722.277344 506.152344 720.65625 510.539062 718.945312 514.898438 C 717.234375 519.253906 715.429688 523.570312 713.539062 527.851562 C 711.648438 532.132812 709.667969 536.375 707.597656 540.570312 C 705.53125 544.769531 703.375 548.925781 701.132812 553.035156 C 698.894531 557.140625 696.566406 561.203125 694.15625 565.214844 C 691.746094 569.226562 689.253906 573.1875 686.679688 577.097656 C 684.105469 581.003906 681.449219 584.855469 678.714844 588.65625 C 675.980469 592.453125 673.167969 596.191406 670.277344 599.871094 C 667.386719 603.554688 664.421875 607.171875 661.378906 610.730469 C 658.339844 614.289062 655.222656 617.78125 652.039062 621.207031 C 648.851562 624.636719 645.59375 627.996094 642.269531 631.285156 C 638.941406 634.578125 635.550781 637.800781 632.089844 640.949219 C 628.628906 644.101562 625.105469 647.179688 621.515625 650.183594 C 617.925781 653.1875 614.277344 656.117188 610.566406 658.96875 C 606.859375 661.820312 603.089844 664.59375 599.265625 667.289062 C 595.4375 669.984375 591.558594 672.597656 587.625 675.132812 C 583.691406 677.667969 579.703125 680.117188 575.667969 682.484375 C 571.632812 684.851562 567.546875 687.136719 563.417969 689.332031 C 559.285156 691.53125 555.109375 693.640625 550.890625 695.667969 C 546.671875 697.691406 542.410156 699.625 538.113281 701.472656 C 533.8125 703.320312 529.476562 705.074219 525.105469 706.742188 C 520.730469 708.40625 516.324219 709.984375 511.886719 711.464844 C 507.449219 712.949219 502.980469 714.335938 498.484375 715.632812 C 493.988281 716.929688 489.46875 718.132812 484.921875 719.242188 C 480.375 720.351562 475.808594 721.363281 471.21875 722.285156 C 466.632812 723.203125 462.027344 724.023438 457.40625 724.75 C 452.78125 725.476562 448.144531 726.109375 443.496094 726.640625 C 438.847656 727.175781 434.191406 727.613281 429.523438 727.953125 C 424.855469 728.292969 420.183594 728.535156 415.507812 728.679688 C 410.832031 728.824219 406.152344 728.875 401.472656 728.824219 C 396.796875 728.773438 392.117188 728.628906 387.445312 728.382812 C 382.773438 728.140625 378.109375 727.796875 373.449219 727.359375 C 368.789062 726.921875 364.140625 726.386719 359.507812 725.753906 C 354.871094 725.125 350.25 724.394531 345.640625 723.570312 C 341.035156 722.746094 336.449219 721.828125 331.882812 720.8125 C 327.3125 719.796875 322.769531 718.6875 318.246094 717.484375 C 313.726562 716.277344 309.230469 714.980469 304.761719 713.589844 C 300.292969 712.199219 295.859375 710.714844 291.453125 709.136719 C 287.046875 707.5625 282.675781 705.894531 278.339844 704.136719 C 274 702.378906 269.703125 700.53125 265.441406 698.59375 C 261.183594 696.65625 256.964844 694.632812 252.789062 692.519531 C 248.613281 690.40625 244.484375 688.207031 240.402344 685.921875 C 236.316406 683.640625 232.28125 681.269531 228.296875 678.816406 C 224.3125 676.367188 220.378906 673.832031 216.5 671.214844 C 212.617188 668.597656 208.792969 665.902344 205.027344 663.128906 C 201.257812 660.351562 197.550781 657.5 193.902344 654.570312 C 190.25 651.640625 186.664062 648.632812 183.140625 645.554688 C 179.617188 642.476562 176.15625 639.324219 172.765625 636.101562 C 169.371094 632.878906 166.046875 629.585938 162.789062 626.226562 C 159.535156 622.863281 156.351562 619.4375 153.238281 615.941406 C 150.125 612.449219 147.082031 608.890625 144.117188 605.269531 C 141.152344 601.648438 138.261719 597.96875 135.453125 594.226562 C 132.640625 590.484375 129.90625 586.6875 127.25 582.832031 C 124.597656 578.980469 122.023438 575.070312 119.53125 571.109375 C 117.039062 567.148438 114.632812 563.136719 112.308594 559.074219 C 109.984375 555.011719 107.742188 550.902344 105.589844 546.746094 C 99.382812 534.800781 93.914062 522.527344 89.183594 509.921875 C 84.453125 497.316406 80.496094 484.476562 77.3125 471.394531 C 74.128906 458.3125 71.742188 445.089844 70.152344 431.71875 C 68.558594 418.351562 67.773438 404.933594 67.796875 391.472656 C 67.796875 205.144531 218.792969 54.101562 405.066406 54.101562 C 591.339844 54.101562 742.335938 205.144531 742.335938 391.472656 Z M 742.335938 391.472656 " fill-opacity="1" fill-rule="nonzero"/></g><path fill="#ed6e0f" d="M 686.90625 576.796875 C 682.886719 582.910156 678.671875 588.890625 674.265625 594.730469 C 669.855469 600.570312 665.261719 606.261719 660.480469 611.804688 C 655.703125 617.347656 650.75 622.730469 645.621094 627.949219 C 640.492188 633.167969 635.199219 638.214844 629.742188 643.089844 C 624.28125 647.964844 618.671875 652.660156 612.910156 657.167969 C 607.148438 661.679688 601.246094 665.996094 595.199219 670.121094 C 589.15625 674.25 582.984375 678.171875 576.6875 681.898438 C 570.386719 685.621094 563.976562 689.136719 557.449219 692.445312 C 550.917969 695.75 544.292969 698.839844 537.5625 701.714844 C 530.835938 704.589844 524.019531 707.246094 517.117188 709.675781 C 510.21875 712.109375 503.242188 714.3125 496.199219 716.289062 C 489.15625 718.269531 482.054688 720.015625 474.894531 721.53125 C 467.738281 723.046875 460.535156 724.328125 453.296875 725.375 C 446.054688 726.421875 438.785156 727.230469 431.492188 727.804688 C 424.195312 728.378906 416.890625 728.714844 409.574219 728.8125 C 402.257812 728.910156 394.949219 728.769531 387.640625 728.394531 C 380.332031 728.015625 373.046875 727.402344 365.777344 726.546875 C 358.511719 725.695312 351.28125 724.609375 344.082031 723.285156 C 336.886719 721.964844 329.742188 720.410156 322.644531 718.621094 C 315.550781 716.832031 308.523438 714.816406 301.558594 712.570312 C 294.59375 710.324219 287.710938 707.855469 280.90625 705.160156 C 274.101562 702.46875 267.394531 699.554688 260.78125 696.425781 C 254.167969 693.296875 247.660156 689.953125 241.265625 686.398438 C 234.867188 682.847656 228.59375 679.089844 222.441406 675.125 C 216.289062 671.164062 210.273438 667.007812 204.390625 662.652344 C 198.511719 658.300781 192.777344 653.757812 187.191406 649.03125 C 181.601562 644.304688 176.175781 639.402344 170.910156 634.320312 C 165.640625 629.242188 160.546875 623.996094 155.621094 618.582031 C 150.695312 613.171875 145.949219 607.605469 141.386719 601.882812 C 136.820312 596.164062 132.449219 590.300781 128.265625 584.296875 C 124.082031 578.289062 120.101562 572.15625 116.316406 565.890625 C 112.535156 559.625 108.957031 553.242188 105.589844 546.746094 L 135.921875 500.730469 C 140.011719 494.558594 144.589844 488.773438 149.660156 483.375 C 154.730469 477.980469 160.214844 473.046875 166.121094 468.582031 C 172.023438 464.113281 178.261719 460.175781 184.832031 456.761719 C 191.402344 453.351562 198.210938 450.515625 205.261719 448.257812 L 294.878906 419.84375 L 314.945312 413.476562 L 452.160156 386.316406 L 536.957031 425.378906 L 589.707031 449.683594 C 596.273438 452.71875 602.550781 456.269531 608.535156 460.339844 C 614.519531 464.410156 620.128906 468.941406 625.367188 473.933594 C 630.605469 478.925781 635.398438 484.316406 639.75 490.097656 C 644.101562 495.882812 647.949219 501.980469 651.292969 508.398438 Z M 686.90625 576.796875 " fill-opacity="1" fill-rule="nonzero"/><path fill="#e7dcc1" d="M 591.214844 346.085938 C 591.214844 347.796875 591.15625 349.503906 591.039062 351.210938 C 590.921875 352.921875 590.742188 354.621094 590.507812 356.316406 C 590.273438 358.011719 589.980469 359.695312 589.625 361.371094 C 589.273438 363.046875 588.863281 364.707031 588.398438 366.351562 C 587.929688 368 587.40625 369.625 586.828125 371.238281 C 586.246094 372.847656 585.613281 374.433594 584.921875 376 C 584.230469 377.566406 583.488281 379.109375 582.691406 380.621094 C 581.894531 382.136719 581.046875 383.621094 580.148438 385.078125 C 579.25 386.535156 578.300781 387.957031 577.304688 389.347656 C 576.304688 390.738281 575.261719 392.09375 574.167969 393.410156 C 573.078125 394.726562 571.941406 396.007812 570.761719 397.246094 C 569.582031 398.484375 568.363281 399.683594 567.097656 400.835938 C 565.835938 401.992188 564.535156 403.101562 563.195312 404.164062 C 561.855469 405.230469 560.480469 406.246094 559.070312 407.214844 C 557.660156 408.1875 556.21875 409.105469 554.746094 409.972656 C 553.273438 410.84375 551.769531 411.660156 550.238281 412.425781 C 550.378906 409.785156 550.351562 407.144531 550.15625 404.507812 C 549.527344 395.410156 546.34375 386.148438 539.640625 379.949219 C 540.746094 382.695312 541.617188 385.515625 542.257812 388.410156 C 542.898438 391.300781 543.296875 394.226562 543.453125 397.1875 C 543.609375 400.144531 543.523438 403.097656 543.191406 406.039062 C 542.859375 408.984375 542.292969 411.882812 541.484375 414.730469 C 541.316406 415.277344 541.191406 415.78125 541.023438 416.324219 C 540.984375 416.472656 540.929688 416.609375 540.855469 416.742188 C 540.859375 416.792969 540.847656 416.835938 540.8125 416.871094 C 540.519531 417.75 540.183594 418.628906 539.808594 419.507812 C 537.296875 425.542969 533.875 431.003906 529.542969 435.894531 C 528.957031 436.609375 528.328125 437.238281 527.65625 437.90625 C 526.03125 439.644531 524.285156 441.253906 522.421875 442.726562 C 520.371094 444.40625 518.21875 445.945312 515.96875 447.339844 C 513.714844 448.734375 511.378906 449.972656 508.964844 451.058594 C 506.546875 452.144531 504.066406 453.0625 501.527344 453.820312 C 498.988281 454.574219 496.410156 455.160156 493.792969 455.574219 C 491.179688 455.988281 488.546875 456.226562 485.898438 456.289062 C 483.25 456.351562 480.605469 456.242188 477.972656 455.953125 C 475.339844 455.667969 472.738281 455.207031 470.164062 454.574219 C 467.589844 453.941406 465.070312 453.144531 462.605469 452.175781 C 460.136719 451.210938 457.746094 450.082031 455.429688 448.800781 C 453.113281 447.515625 450.890625 446.082031 448.761719 444.503906 C 446.636719 442.921875 444.621094 441.210938 442.722656 439.363281 C 440.824219 437.515625 439.054688 435.550781 437.414062 433.46875 C 435.773438 431.386719 434.28125 429.207031 432.929688 426.925781 C 431.582031 424.648438 430.386719 422.289062 429.351562 419.847656 C 428.3125 417.410156 427.441406 414.914062 426.738281 412.359375 C 426.03125 409.804688 425.496094 407.214844 425.136719 404.589844 C 421.699219 404.925781 418.222656 405.09375 414.703125 405.09375 C 409.914062 405.101562 405.144531 404.785156 400.394531 404.148438 C 395.648438 403.511719 390.964844 402.554688 386.34375 401.285156 C 381.726562 400.011719 377.210938 398.4375 372.804688 396.554688 C 368.402344 394.675781 364.140625 392.503906 360.027344 390.046875 C 359.101562 391.480469 358.121094 392.878906 357.085938 394.234375 C 356.050781 395.589844 354.960938 396.902344 353.816406 398.167969 C 352.675781 399.4375 351.484375 400.660156 350.246094 401.832031 C 349.003906 403.003906 347.71875 404.125 346.390625 405.195312 C 345.058594 406.261719 343.6875 407.277344 342.277344 408.238281 C 340.867188 409.195312 339.417969 410.097656 337.933594 410.941406 C 336.453125 411.785156 334.9375 412.566406 333.390625 413.285156 C 331.84375 414.007812 330.269531 414.667969 328.671875 415.261719 C 327.070312 415.855469 325.449219 416.386719 323.808594 416.851562 C 322.167969 417.316406 320.507812 417.714844 318.835938 418.042969 C 317.160156 418.375 315.476562 418.640625 313.78125 418.835938 C 312.085938 419.03125 310.386719 419.160156 308.679688 419.21875 C 306.972656 419.277344 305.269531 419.269531 303.566406 419.191406 C 301.859375 419.113281 300.160156 418.96875 298.46875 418.753906 C 296.773438 418.542969 295.09375 418.261719 293.421875 417.910156 C 291.753906 417.5625 290.097656 417.144531 288.460938 416.664062 C 286.824219 416.183594 285.210938 415.636719 283.617188 415.023438 C 282.023438 414.414062 280.457031 413.738281 278.917969 413 C 277.378906 412.261719 275.875 411.464844 274.398438 410.605469 C 272.921875 409.75 271.484375 408.832031 270.082031 407.859375 C 268.683594 406.882812 267.324219 405.855469 266.003906 404.773438 C 264.683594 403.6875 263.410156 402.554688 262.183594 401.367188 C 260.957031 400.183594 259.777344 398.949219 258.648438 397.667969 C 257.519531 396.390625 256.445312 395.066406 255.421875 393.699219 C 254.402344 392.332031 253.433594 390.925781 252.527344 389.484375 C 251.617188 388.039062 250.765625 386.558594 249.976562 385.046875 C 249.183594 383.535156 248.457031 381.992188 247.789062 380.421875 C 247.121094 378.851562 246.519531 377.253906 245.980469 375.636719 C 245.441406 374.015625 244.96875 372.378906 244.558594 370.71875 C 244.152344 369.0625 243.8125 367.390625 243.539062 365.707031 C 243.265625 364.019531 243.0625 362.328125 242.921875 360.625 C 242.785156 358.925781 242.71875 357.222656 242.71875 355.515625 C 242.699219 349.546875 243.515625 343.695312 245.160156 337.957031 C 246.804688 332.222656 249.21875 326.828125 252.394531 321.777344 C 237.523438 334.476562 236.054688 346.921875 236.054688 362.847656 C 236.054688 364.484375 236.140625 366.117188 236.265625 367.75 C 234.886719 366.902344 233.546875 366 232.246094 365.042969 C 230.941406 364.089844 229.679688 363.082031 228.457031 362.019531 C 227.234375 360.960938 226.058594 359.855469 224.925781 358.703125 C 223.792969 357.546875 222.707031 356.347656 221.671875 355.105469 C 220.636719 353.863281 219.652344 352.582031 218.722656 351.261719 C 217.789062 349.941406 216.914062 348.582031 216.089844 347.191406 C 215.269531 345.796875 214.503906 344.375 213.796875 342.917969 C 213.09375 341.464844 212.445312 339.984375 211.859375 338.476562 C 211.273438 336.96875 210.746094 335.441406 210.285156 333.890625 C 209.820312 332.339844 209.421875 330.777344 209.085938 329.195312 C 208.75 327.613281 208.476562 326.019531 208.269531 324.414062 C 208.0625 322.8125 207.921875 321.203125 207.84375 319.585938 C 207.765625 317.972656 207.753906 316.355469 207.808594 314.738281 C 207.863281 313.121094 207.980469 311.511719 208.167969 309.902344 C 208.351562 308.296875 208.601562 306.699219 208.914062 305.113281 C 209.226562 303.527344 209.605469 301.957031 210.042969 300.398438 C 210.484375 298.84375 210.988281 297.308594 211.554688 295.792969 C 212.117188 294.277344 212.742188 292.789062 213.429688 291.324219 C 214.113281 289.859375 214.859375 288.425781 215.660156 287.019531 C 216.460938 285.617188 217.320312 284.246094 218.230469 282.910156 C 219.144531 281.574219 220.109375 280.28125 221.128906 279.023438 C 222.144531 277.765625 223.210938 276.554688 224.328125 275.382812 C 225.445312 274.210938 226.605469 273.089844 227.8125 272.011719 C 229.019531 270.9375 230.265625 269.910156 231.554688 268.933594 C 232.847656 267.960938 234.171875 267.039062 235.539062 266.171875 C 236.902344 265.304688 238.300781 264.492188 239.730469 263.738281 C 241.160156 262.984375 242.617188 262.289062 244.105469 261.652344 C 245.589844 261.015625 247.101562 260.441406 248.632812 259.925781 C 250.164062 259.410156 251.71875 258.960938 253.285156 258.570312 C 254.855469 258.183594 256.4375 257.859375 258.035156 257.597656 C 259.628906 257.339844 261.234375 257.144531 262.84375 257.011719 C 264.457031 256.882812 266.070312 256.816406 267.6875 256.816406 L 268.105469 256.816406 C 267.746094 255.664062 267.414062 254.503906 267.117188 253.332031 C 266.816406 252.160156 266.550781 250.980469 266.320312 249.792969 C 266.085938 248.609375 265.886719 247.417969 265.71875 246.21875 C 265.550781 245.023438 265.417969 243.820312 265.316406 242.617188 C 265.21875 241.410156 265.148438 240.207031 265.117188 238.996094 C 265.082031 237.789062 265.082031 236.582031 265.113281 235.371094 C 265.148438 234.164062 265.214844 232.957031 265.3125 231.753906 C 265.414062 230.546875 265.546875 229.347656 265.710938 228.148438 C 265.878906 226.953125 266.078125 225.761719 266.308594 224.574219 C 266.539062 223.386719 266.804688 222.207031 267.101562 221.035156 C 267.398438 219.863281 267.726562 218.703125 268.089844 217.550781 C 268.449219 216.394531 268.84375 215.253906 269.269531 214.121094 C 269.691406 212.988281 270.148438 211.871094 270.632812 210.761719 C 271.121094 209.65625 271.636719 208.566406 272.183594 207.488281 C 272.730469 206.410156 273.308594 205.347656 273.914062 204.300781 C 274.519531 203.253906 275.152344 202.226562 275.8125 201.214844 C 276.476562 200.203125 277.167969 199.210938 277.882812 198.238281 C 278.601562 197.265625 279.34375 196.3125 280.113281 195.382812 C 280.882812 194.449219 281.679688 193.539062 282.5 192.652344 C 283.320312 191.765625 284.164062 190.898438 285.03125 190.058594 C 285.898438 189.21875 286.789062 188.402344 287.703125 187.609375 C 288.617188 186.816406 289.550781 186.050781 290.503906 185.3125 C 291.460938 184.570312 292.4375 183.859375 293.429688 183.171875 C 294.425781 182.484375 295.4375 181.828125 296.46875 181.199219 C 297.5 180.566406 298.550781 179.964844 299.613281 179.394531 C 300.679688 178.820312 301.757812 178.28125 302.851562 177.765625 C 303.945312 177.253906 305.054688 176.773438 306.175781 176.320312 C 307.296875 175.871094 308.429688 175.449219 309.574219 175.0625 C 310.71875 174.671875 311.871094 174.316406 313.035156 173.992188 C 314.199219 173.667969 315.371094 173.375 316.554688 173.117188 C 317.734375 172.855469 318.917969 172.628906 320.113281 172.433594 C 321.304688 172.242188 322.503906 172.078125 323.703125 171.953125 C 324.484375 169.378906 325.433594 166.871094 326.558594 164.429688 C 327.679688 161.988281 328.96875 159.632812 330.414062 157.371094 C 331.863281 155.105469 333.457031 152.949219 335.203125 150.90625 C 336.945312 148.859375 338.820312 146.945312 340.828125 145.15625 C 342.835938 143.371094 344.957031 141.730469 347.191406 140.234375 C 349.421875 138.738281 351.75 137.402344 354.164062 136.230469 C 356.582031 135.054688 359.066406 134.050781 361.621094 133.21875 C 364.179688 132.386719 366.777344 131.730469 369.421875 131.257812 C 372.066406 130.78125 374.734375 130.488281 377.417969 130.382812 C 380.101562 130.273438 382.78125 130.351562 385.457031 130.613281 C 388.132812 130.871094 390.777344 131.316406 393.390625 131.941406 C 396.003906 132.566406 398.5625 133.367188 401.066406 134.34375 C 403.570312 135.320312 405.992188 136.464844 408.339844 137.777344 C 410.683594 139.085938 412.929688 140.554688 415.074219 142.171875 C 417.21875 143.792969 419.242188 145.550781 421.144531 147.449219 C 423.046875 149.351562 424.808594 151.371094 426.433594 153.511719 C 427.480469 152.976562 428.539062 152.476562 429.613281 152.003906 C 430.691406 151.535156 431.777344 151.097656 432.878906 150.691406 C 433.980469 150.289062 435.09375 149.917969 436.21875 149.578125 C 437.339844 149.242188 438.472656 148.9375 439.617188 148.667969 C 440.757812 148.398438 441.90625 148.164062 443.0625 147.960938 C 444.21875 147.761719 445.382812 147.59375 446.546875 147.464844 C 447.714844 147.332031 448.882812 147.238281 450.054688 147.175781 C 451.226562 147.117188 452.398438 147.089844 453.570312 147.101562 C 454.746094 147.109375 455.917969 147.15625 457.089844 147.234375 C 458.257812 147.316406 459.425781 147.433594 460.589844 147.582031 C 461.753906 147.734375 462.910156 147.917969 464.0625 148.136719 C 465.214844 148.359375 466.363281 148.613281 467.5 148.902344 C 468.636719 149.191406 469.765625 149.511719 470.882812 149.871094 C 472 150.226562 473.105469 150.617188 474.199219 151.039062 C 475.296875 151.464844 476.375 151.917969 477.441406 152.40625 C 478.511719 152.894531 479.5625 153.414062 480.597656 153.964844 C 481.632812 154.519531 482.652344 155.101562 483.652344 155.710938 C 484.652344 156.324219 485.636719 156.96875 486.597656 157.640625 C 487.558594 158.308594 488.5 159.011719 489.421875 159.738281 C 490.34375 160.464844 491.238281 161.222656 492.113281 162.003906 C 492.988281 162.785156 493.839844 163.59375 494.667969 164.425781 C 495.492188 165.261719 496.292969 166.117188 497.070312 167 C 497.84375 167.878906 498.589844 168.785156 499.3125 169.710938 C 500.03125 170.636719 500.722656 171.585938 501.386719 172.550781 C 502.050781 173.519531 502.6875 174.507812 503.289062 175.511719 C 503.894531 176.519531 504.46875 177.542969 505.011719 178.582031 C 505.554688 179.625 506.066406 180.679688 506.546875 181.75 C 507.023438 182.824219 507.472656 183.90625 507.886719 185.003906 C 508.300781 186.105469 508.679688 187.214844 509.027344 188.335938 C 509.375 189.457031 509.691406 190.585938 509.96875 191.726562 C 510.25 192.867188 510.496094 194.011719 510.707031 195.167969 C 510.917969 196.324219 511.09375 197.480469 511.234375 198.648438 C 512.746094 199.085938 514.238281 199.582031 515.710938 200.140625 C 517.183594 200.699219 518.628906 201.316406 520.050781 201.988281 C 521.472656 202.664062 522.867188 203.394531 524.230469 204.183594 C 525.59375 204.96875 526.925781 205.808594 528.21875 206.703125 C 529.515625 207.597656 530.773438 208.542969 531.992188 209.539062 C 533.214844 210.535156 534.390625 211.578125 535.527344 212.667969 C 536.664062 213.757812 537.753906 214.890625 538.796875 216.070312 C 539.839844 217.246094 540.835938 218.464844 541.78125 219.726562 C 542.730469 220.984375 543.621094 222.277344 544.464844 223.609375 C 545.304688 224.9375 546.09375 226.300781 546.824219 227.695312 C 547.558594 229.089844 548.234375 230.511719 548.851562 231.960938 C 549.46875 233.40625 550.027344 234.878906 550.527344 236.371094 C 551.023438 237.867188 551.460938 239.375 551.839844 240.90625 C 552.21875 242.433594 552.53125 243.976562 552.785156 245.53125 C 553.039062 247.082031 553.230469 248.644531 553.355469 250.214844 C 553.484375 251.785156 553.546875 253.355469 553.550781 254.933594 C 553.582031 262.984375 551.972656 270.695312 548.730469 278.066406 C 551.210938 278.257812 553.691406 278.242188 556.167969 278.015625 C 558.644531 277.792969 561.085938 277.359375 563.488281 276.71875 C 565.894531 276.082031 568.226562 275.246094 570.488281 274.210938 C 572.753906 273.179688 574.914062 271.960938 576.96875 270.5625 C 577.769531 272.671875 578.375 274.835938 578.78125 277.054688 C 579.1875 279.273438 579.386719 281.511719 579.382812 283.769531 C 579.378906 286.023438 579.171875 288.261719 578.757812 290.480469 C 578.347656 292.699219 577.734375 294.859375 576.925781 296.964844 C 576.472656 298.113281 575.953125 299.230469 575.378906 300.320312 C 577.929688 303.554688 580.195312 306.980469 582.171875 310.597656 C 584.152344 314.214844 585.8125 317.96875 587.160156 321.863281 C 588.507812 325.757812 589.523438 329.738281 590.203125 333.804688 C 590.882812 337.871094 591.222656 341.960938 591.214844 346.085938 Z M 591.214844 346.085938 " fill-opacity="1" fill-rule="nonzero"/><path fill="#ff9987" d="M 482.617188 391.054688 L 482.617188 559.78125 L 385.167969 606.257812 L 380.601562 603.40625 L 379.972656 603.03125 L 334.933594 575.832031 L 334.933594 507.140625 C 333.429688 506.796875 331.941406 506.394531 330.46875 505.9375 C 328.992188 505.476562 327.539062 504.960938 326.109375 504.390625 C 324.675781 503.820312 323.265625 503.195312 321.878906 502.515625 C 320.496094 501.832031 319.140625 501.101562 317.8125 500.316406 C 316.484375 499.53125 315.1875 498.695312 313.921875 497.8125 C 312.660156 496.925781 311.429688 495.992188 310.238281 495.015625 C 309.046875 494.035156 307.894531 493.007812 306.78125 491.941406 C 305.667969 490.871094 304.597656 489.761719 303.570312 488.609375 C 302.542969 487.460938 301.5625 486.269531 300.628906 485.042969 C 299.691406 483.816406 298.804688 482.554688 297.96875 481.257812 C 297.128906 479.960938 296.34375 478.636719 295.605469 477.28125 C 294.871094 475.921875 294.1875 474.539062 293.558594 473.132812 C 292.929688 471.722656 292.355469 470.292969 291.835938 468.839844 C 291.320312 467.382812 290.855469 465.914062 290.453125 464.425781 C 290.046875 462.933594 289.699219 461.433594 289.410156 459.917969 C 289.121094 458.402344 288.890625 456.875 288.71875 455.34375 L 288.71875 455.300781 C 282.160156 447.761719 276.992188 439.367188 273.21875 430.113281 C 272.839844 429.273438 272.507812 428.351562 272.210938 427.472656 C 272.140625 427.355469 272.082031 427.230469 272.046875 427.09375 C 268.402344 417.152344 266.585938 406.882812 266.597656 396.292969 C 266.589844 391.296875 267.007812 386.335938 267.855469 381.414062 L 267.8125 381.414062 L 284.152344 275.175781 L 284.195312 275.214844 C 284.503906 272.945312 284.894531 270.691406 285.371094 268.453125 C 285.851562 266.214844 286.414062 263.996094 287.058594 261.800781 C 287.707031 259.605469 288.4375 257.4375 289.25 255.296875 C 290.0625 253.15625 290.953125 251.050781 291.929688 248.980469 C 292.902344 246.90625 293.953125 244.875 295.078125 242.882812 C 296.207031 240.890625 297.410156 238.945312 298.6875 237.042969 C 299.960938 235.144531 301.308594 233.292969 302.726562 231.496094 C 304.144531 229.699219 305.628906 227.957031 307.175781 226.273438 C 308.726562 224.589844 310.339844 222.964844 312.011719 221.40625 C 313.6875 219.84375 315.417969 218.347656 317.207031 216.917969 C 318.992188 215.488281 320.832031 214.128906 322.722656 212.839844 C 324.617188 211.550781 326.554688 210.335938 328.535156 209.195312 C 330.519531 208.054688 332.546875 206.988281 334.609375 206.003906 C 336.675781 205.015625 338.777344 204.109375 340.910156 203.28125 C 343.042969 202.457031 345.207031 201.710938 347.398438 201.050781 C 349.589844 200.386719 351.800781 199.8125 354.039062 199.316406 C 352.378906 200.300781 350.785156 201.382812 349.265625 202.570312 C 347.746094 203.757812 346.308594 205.039062 344.953125 206.410156 C 343.597656 207.785156 342.339844 209.238281 341.171875 210.773438 C 340.003906 212.3125 338.941406 213.914062 337.980469 215.589844 C 337.023438 217.261719 336.171875 218.988281 335.4375 220.773438 C 334.699219 222.554688 334.082031 224.378906 333.578125 226.242188 C 333.078125 228.105469 332.699219 229.992188 332.441406 231.902344 C 332.183594 233.816406 332.050781 235.734375 332.042969 237.664062 C 332.042969 262.601562 352.949219 282.84375 378.757812 282.84375 C 382.015625 282.84375 385.238281 282.519531 388.433594 281.878906 C 386.929688 280.863281 385.492188 279.761719 384.121094 278.570312 C 382.75 277.382812 381.453125 276.113281 380.238281 274.765625 C 379.023438 273.417969 377.890625 272 376.847656 270.515625 C 375.800781 269.03125 374.851562 267.488281 373.996094 265.886719 C 373.136719 264.285156 372.382812 262.640625 371.726562 260.945312 C 371.070312 259.253906 370.519531 257.527344 370.074219 255.765625 C 369.625 254.007812 369.289062 252.226562 369.058594 250.425781 C 368.828125 248.625 368.710938 246.816406 368.699219 245 C 368.699219 224.632812 382.652344 207.40625 401.800781 201.789062 C 410.355469 204.625 418.300781 208.664062 425.640625 213.902344 C 422.828125 218.601562 420.695312 223.589844 419.238281 228.867188 C 417.777344 234.144531 417.050781 239.523438 417.050781 245 C 417.050781 277.5625 442.941406 304.257812 475.875 306.941406 C 473.953125 307.851562 472.105469 308.890625 470.332031 310.0625 C 468.558594 311.234375 466.875 312.519531 465.285156 313.925781 C 463.691406 315.335938 462.203125 316.84375 460.824219 318.460938 C 459.441406 320.078125 458.183594 321.78125 457.039062 323.574219 C 455.898438 325.367188 454.890625 327.230469 454.007812 329.164062 C 453.128906 331.097656 452.390625 333.085938 451.789062 335.125 C 451.1875 337.164062 450.734375 339.234375 450.421875 341.335938 C 450.113281 343.4375 449.953125 345.550781 449.9375 347.675781 C 449.9375 367.960938 463.640625 385.144531 482.617188 391.054688 Z M 482.617188 391.054688 " fill-opacity="1" fill-rule="nonzero"/><path fill="#242156" d="M 312.453125 303.347656 C 312.863281 303.402344 313.257812 303.519531 313.644531 303.699219 C 314.027344 303.875 314.394531 304.113281 314.738281 304.414062 C 315.085938 304.710938 315.40625 305.0625 315.699219 305.464844 C 315.992188 305.871094 316.25 306.320312 316.480469 306.816406 C 316.710938 307.3125 316.902344 307.84375 317.058594 308.414062 C 317.214844 308.984375 317.335938 309.578125 317.414062 310.195312 C 317.492188 310.816406 317.527344 311.449219 317.523438 312.09375 C 317.519531 312.738281 317.476562 313.386719 317.390625 314.035156 C 317.308594 314.683594 317.183594 315.320312 317.019531 315.945312 C 316.859375 316.570312 316.660156 317.171875 316.421875 317.75 C 316.1875 318.328125 315.921875 318.871094 315.625 319.378906 C 315.328125 319.890625 315.003906 320.355469 314.652344 320.773438 C 314.304688 321.195312 313.9375 321.5625 313.546875 321.878906 C 313.160156 322.195312 312.761719 322.449219 312.351562 322.648438 C 311.941406 322.847656 311.527344 322.984375 311.109375 323.058594 C 310.691406 323.132812 310.277344 323.140625 309.871094 323.089844 C 309.460938 323.035156 309.0625 322.917969 308.679688 322.738281 C 308.292969 322.558594 307.929688 322.320312 307.582031 322.023438 C 307.238281 321.726562 306.917969 321.375 306.625 320.972656 C 306.332031 320.566406 306.070312 320.117188 305.84375 319.621094 C 305.613281 319.125 305.417969 318.589844 305.261719 318.023438 C 305.105469 317.453125 304.988281 316.859375 304.910156 316.242188 C 304.832031 315.621094 304.796875 314.988281 304.796875 314.34375 C 304.800781 313.695312 304.847656 313.050781 304.929688 312.402344 C 305.015625 311.753906 305.140625 311.117188 305.300781 310.492188 C 305.464844 309.867188 305.664062 309.265625 305.898438 308.6875 C 306.132812 308.109375 306.402344 307.566406 306.699219 307.054688 C 306.996094 306.546875 307.320312 306.082031 307.667969 305.664062 C 308.019531 305.242188 308.386719 304.875 308.773438 304.558594 C 309.160156 304.242188 309.558594 303.988281 309.972656 303.789062 C 310.382812 303.589844 310.796875 303.453125 311.214844 303.378906 C 311.632812 303.304688 312.042969 303.296875 312.453125 303.347656 Z M 312.453125 303.347656 " fill-opacity="1" fill-rule="nonzero"/><path fill="#242156" d="M 511.945312 513.386719 L 520.578125 541.675781 L 482.617188 559.78125 L 385.167969 606.257812 L 380.601562 603.40625 L 379.972656 603.03125 L 334.933594 575.832031 L 262.242188 531.910156 L 274.476562 504.921875 L 192.148438 453.246094 C 196.429688 451.347656 200.800781 449.683594 205.261719 448.257812 L 272.046875 427.09375 C 272.082031 427.230469 272.140625 427.355469 272.210938 427.472656 C 272.507812 428.351562 272.839844 429.273438 273.21875 430.113281 C 276.992188 439.367188 282.160156 447.761719 288.71875 455.300781 L 288.71875 455.34375 C 288.890625 456.875 289.121094 458.402344 289.410156 459.917969 C 289.699219 461.433594 290.046875 462.933594 290.453125 464.425781 C 290.855469 465.914062 291.320312 467.382812 291.835938 468.839844 C 292.355469 470.292969 292.929688 471.722656 293.558594 473.132812 C 294.1875 474.539062 294.871094 475.921875 295.605469 477.28125 C 296.34375 478.636719 297.128906 479.960938 297.96875 481.257812 C 298.804688 482.554688 299.691406 483.816406 300.628906 485.042969 C 301.5625 486.269531 302.542969 487.460938 303.570312 488.609375 C 304.597656 489.761719 305.667969 490.871094 306.78125 491.941406 C 307.894531 493.007812 309.046875 494.035156 310.238281 495.015625 C 311.429688 495.992188 312.660156 496.925781 313.921875 497.8125 C 315.1875 498.695312 316.484375 499.53125 317.8125 500.316406 C 319.140625 501.101562 320.496094 501.832031 321.878906 502.511719 C 323.265625 503.195312 324.675781 503.820312 326.109375 504.390625 C 327.539062 504.960938 328.992188 505.476562 330.46875 505.9375 C 331.941406 506.394531 333.429688 506.796875 334.933594 507.140625 C 339.328125 508.160156 343.785156 508.664062 348.296875 508.652344 C 352.105469 508.65625 355.878906 508.300781 359.617188 507.582031 C 363.355469 506.863281 366.992188 505.800781 370.527344 504.382812 C 374.0625 502.96875 377.429688 501.234375 380.632812 499.171875 C 383.835938 497.113281 386.8125 494.769531 389.566406 492.136719 C 388.285156 493.914062 386.914062 495.613281 385.449219 497.238281 C 383.980469 498.863281 382.433594 500.402344 380.796875 501.855469 C 379.164062 503.3125 377.457031 504.671875 375.671875 505.941406 C 373.886719 507.207031 372.042969 508.375 370.128906 509.4375 C 368.21875 510.503906 366.257812 511.460938 364.238281 512.3125 C 362.222656 513.160156 360.167969 513.898438 358.070312 514.523438 C 355.976562 515.148438 353.851562 515.65625 351.699219 516.046875 C 349.546875 516.4375 347.378906 516.710938 345.195312 516.867188 L 385.628906 594.816406 L 481.820312 456.222656 C 482.085938 456.257812 482.351562 456.273438 482.617188 456.265625 C 483.246094 456.304688 483.875 456.304688 484.503906 456.304688 C 487.933594 456.3125 491.34375 456.023438 494.726562 455.4375 C 498.105469 454.851562 501.414062 453.980469 504.644531 452.824219 C 507.875 451.667969 510.984375 450.242188 513.96875 448.546875 C 516.953125 446.851562 519.769531 444.910156 522.421875 442.726562 C 524.285156 441.253906 526.03125 439.644531 527.65625 437.90625 C 528.328125 437.238281 528.957031 436.609375 529.542969 435.894531 C 532.410156 432.667969 534.882812 429.164062 536.957031 425.378906 L 589.707031 449.683594 C 598.972656 453.945312 607.617188 459.226562 615.640625 465.527344 Z M 511.945312 513.386719 " fill-opacity="1" fill-rule="nonzero"/><path fill="#242156" d="M 392.054688 319.066406 C 392.464844 319.121094 392.863281 319.234375 393.246094 319.414062 C 393.632812 319.59375 393.996094 319.832031 394.34375 320.128906 C 394.6875 320.425781 395.007812 320.777344 395.300781 321.183594 C 395.59375 321.585938 395.855469 322.039062 396.082031 322.535156 C 396.3125 323.03125 396.503906 323.5625 396.664062 324.132812 C 396.820312 324.699219 396.9375 325.292969 397.015625 325.914062 C 397.09375 326.53125 397.128906 327.164062 397.125 327.8125 C 397.125 328.457031 397.078125 329.105469 396.996094 329.753906 C 396.910156 330.398438 396.785156 331.035156 396.621094 331.660156 C 396.460938 332.285156 396.261719 332.886719 396.027344 333.464844 C 395.789062 334.046875 395.523438 334.589844 395.226562 335.097656 C 394.929688 335.605469 394.605469 336.070312 394.253906 336.492188 C 393.90625 336.910156 393.539062 337.28125 393.152344 337.59375 C 392.761719 337.910156 392.363281 338.167969 391.953125 338.367188 C 391.542969 338.566406 391.128906 338.699219 390.710938 338.773438 C 390.292969 338.847656 389.878906 338.859375 389.472656 338.804688 C 389.0625 338.75 388.664062 338.636719 388.28125 338.457031 C 387.894531 338.277344 387.53125 338.039062 387.183594 337.742188 C 386.839844 337.445312 386.519531 337.09375 386.226562 336.6875 C 385.933594 336.285156 385.671875 335.832031 385.445312 335.335938 C 385.214844 334.839844 385.023438 334.308594 384.863281 333.742188 C 384.707031 333.171875 384.589844 332.578125 384.511719 331.957031 C 384.433594 331.339844 384.398438 330.707031 384.402344 330.0625 C 384.402344 329.414062 384.449219 328.765625 384.53125 328.121094 C 384.617188 327.472656 384.742188 326.835938 384.90625 326.210938 C 385.066406 325.585938 385.265625 324.984375 385.5 324.40625 C 385.738281 323.828125 386.003906 323.28125 386.300781 322.773438 C 386.597656 322.265625 386.921875 321.800781 387.273438 321.378906 C 387.621094 320.960938 387.988281 320.589844 388.375 320.277344 C 388.765625 319.960938 389.164062 319.703125 389.574219 319.503906 C 389.984375 319.308594 390.398438 319.171875 390.816406 319.097656 C 391.234375 319.023438 391.648438 319.011719 392.054688 319.066406 Z M 392.054688 319.066406 " fill-opacity="1" fill-rule="nonzero"/><path fill="#242156" d="M 345.296875 378.429688 L 331.121094 386.316406 C 330.644531 386.585938 330.136719 386.753906 329.59375 386.828125 C 329.054688 386.898438 328.515625 386.867188 327.988281 386.738281 C 327.457031 386.605469 326.972656 386.378906 326.527344 386.058594 C 326.085938 385.742188 325.714844 385.351562 325.421875 384.894531 L 316.71875 371.480469 C 316.421875 371.019531 316.273438 370.519531 316.273438 369.972656 C 316.269531 369.425781 316.417969 368.921875 316.714844 368.460938 L 341.550781 329.738281 C 341.730469 329.453125 341.980469 329.261719 342.304688 329.164062 C 342.628906 329.070312 342.945312 329.09375 343.25 329.238281 C 343.558594 329.382812 343.777344 329.613281 343.90625 329.921875 C 344.039062 330.234375 344.050781 330.550781 343.941406 330.871094 L 330.0625 369.289062 C 329.996094 369.472656 329.949219 369.660156 329.925781 369.855469 C 329.902344 370.046875 329.898438 370.242188 329.914062 370.433594 C 329.929688 370.628906 329.96875 370.820312 330.027344 371.007812 C 330.085938 371.191406 330.164062 371.371094 330.261719 371.539062 C 330.359375 371.707031 330.476562 371.863281 330.605469 372.007812 C 330.738281 372.152344 330.882812 372.28125 331.042969 372.390625 C 331.203125 372.503906 331.375 372.597656 331.554688 372.671875 C 331.734375 372.746094 331.917969 372.800781 332.113281 372.835938 L 344.734375 375.085938 C 345.109375 375.152344 345.433594 375.320312 345.699219 375.589844 C 345.96875 375.863281 346.132812 376.183594 346.195312 376.5625 C 346.257812 376.9375 346.207031 377.296875 346.042969 377.636719 C 345.875 377.980469 345.628906 378.246094 345.296875 378.429688 Z M 345.296875 378.429688 " fill-opacity="1" fill-rule="nonzero"/><path fill="#242156" d="M 459.03125 307.738281 C 455.136719 306.164062 451.160156 304.824219 447.105469 303.71875 C 443.050781 302.613281 438.949219 301.75 434.792969 301.132812 C 430.636719 300.511719 426.457031 300.136719 422.257812 300.011719 C 418.058594 299.882812 413.867188 300.003906 409.679688 300.375 C 405.496094 300.742188 401.347656 301.355469 397.234375 302.214844 C 393.121094 303.070312 389.070312 304.167969 385.085938 305.507812 C 381.105469 306.84375 377.214844 308.410156 373.414062 310.203125 C 369.617188 312 365.9375 314.015625 362.375 316.246094 C 360.589844 315.242188 358.726562 314.410156 356.789062 313.746094 C 354.851562 313.082031 352.867188 312.597656 350.84375 312.292969 C 348.816406 311.988281 346.78125 311.871094 344.734375 311.9375 C 342.6875 312 340.664062 312.25 338.660156 312.683594 C 336.207031 309.332031 333.5625 306.132812 330.734375 303.09375 C 327.90625 300.050781 324.910156 297.179688 321.746094 294.488281 C 318.582031 291.796875 315.273438 289.296875 311.820312 286.988281 C 308.363281 284.679688 304.789062 282.582031 301.085938 280.695312 C 297.386719 278.804688 293.589844 277.136719 289.695312 275.691406 C 285.804688 274.246094 281.839844 273.03125 277.800781 272.046875 C 273.765625 271.0625 269.6875 270.316406 265.5625 269.8125 C 261.441406 269.304688 257.304688 269.039062 253.148438 269.011719 L 252.480469 269.011719 C 252.027344 269.019531 251.589844 269.097656 251.160156 269.25 C 250.734375 269.398438 250.34375 269.609375 249.984375 269.886719 C 249.625 270.160156 249.320312 270.484375 249.066406 270.859375 C 248.8125 271.234375 248.625 271.636719 248.5 272.074219 C 242.300781 293.65625 251.808594 318.59375 271.125 331.332031 C 275.132812 333.976562 279.441406 335.992188 284.039062 337.375 C 288.640625 338.757812 293.34375 339.457031 298.148438 339.460938 C 310.839844 339.460938 325.046875 334.476562 338.746094 321.316406 C 340.5 320.808594 342.289062 320.496094 344.109375 320.375 C 345.933594 320.25 347.75 320.324219 349.554688 320.589844 C 351.363281 320.859375 353.121094 321.316406 354.828125 321.960938 C 356.539062 322.605469 358.160156 323.425781 359.691406 324.417969 C 371.550781 350.402344 391.199219 359.539062 408.628906 359.539062 C 411.945312 359.546875 415.226562 359.210938 418.476562 358.53125 C 441.097656 353.964844 459.28125 334.390625 461.585938 312.011719 C 461.636719 311.566406 461.617188 311.121094 461.523438 310.679688 C 461.429688 310.242188 461.265625 309.828125 461.035156 309.441406 C 460.804688 309.054688 460.515625 308.714844 460.171875 308.421875 C 459.832031 308.132812 459.449219 307.902344 459.03125 307.738281 Z M 275.730469 324.332031 C 260.566406 314.316406 252.394531 294.660156 255.789062 277.4375 C 259.457031 277.589844 263.101562 277.941406 266.730469 278.492188 C 270.355469 279.046875 273.941406 279.796875 277.488281 280.742188 C 281.03125 281.6875 284.515625 282.824219 287.933594 284.15625 C 291.355469 285.484375 294.691406 286.996094 297.945312 288.691406 C 301.199219 290.386719 304.351562 292.253906 307.398438 294.296875 C 310.449219 296.335938 313.375 298.539062 316.183594 300.902344 C 318.992188 303.265625 321.660156 305.773438 324.191406 308.429688 C 326.722656 311.085938 329.101562 313.871094 331.328125 316.789062 C 313.523438 332.839844 292.953125 335.691406 275.730469 324.332031 Z M 416.796875 350.316406 C 396.941406 354.339844 379.257812 344.535156 368.742188 323.832031 C 368.492188 323.410156 368.28125 322.992188 368.070312 322.574219 C 368.304688 322.449219 368.527344 322.308594 368.742188 322.152344 C 371.882812 320.320312 375.109375 318.664062 378.429688 317.183594 C 381.75 315.703125 385.136719 314.40625 388.597656 313.292969 C 392.058594 312.183594 395.566406 311.261719 399.128906 310.53125 C 402.6875 309.800781 406.277344 309.265625 409.894531 308.925781 C 413.515625 308.589844 417.140625 308.445312 420.773438 308.5 C 424.40625 308.558594 428.027344 308.808594 431.632812 309.257812 C 435.238281 309.710938 438.8125 310.351562 442.347656 311.191406 C 445.882812 312.03125 449.363281 313.058594 452.789062 314.273438 C 449.5625 331.542969 434.5625 346.714844 416.796875 350.316406 Z M 416.796875 350.316406 " fill-opacity="1" fill-rule="nonzero"/></svg>