<svg xmlns="http://www.w3.org/2000/svg" xmlns:xlink="http://www.w3.org/1999/xlink" width="1080" zoomAndPan="magnify" viewBox="0 0 810 809.999993" height="1080" preserveAspectRatio="xMidYMid meet" version="1.0"><defs><clipPath id="3929611cdc"><path d="M 67.5 51.429688 L 742.5 51.429688 L 742.5 727 L 67.5 727 Z M 67.5 51.429688 " clip-rule="nonzero"/></clipPath></defs><g clip-path="url(#3929611cdc)"><path fill="#ffde59" d="M 742.5 388.929688 C 742.5 394.453125 742.363281 399.972656 742.09375 405.492188 C 741.820312 411.007812 741.414062 416.515625 740.875 422.011719 C 740.332031 427.507812 739.65625 432.988281 738.847656 438.453125 C 738.035156 443.914062 737.09375 449.355469 736.015625 454.773438 C 734.9375 460.191406 733.726562 465.578125 732.386719 470.9375 C 731.042969 476.292969 729.570312 481.617188 727.96875 486.902344 C 726.363281 492.1875 724.632812 497.429688 722.769531 502.628906 C 720.910156 507.832031 718.921875 512.984375 716.808594 518.085938 C 714.695312 523.1875 712.457031 528.238281 710.097656 533.230469 C 707.734375 538.222656 705.25 543.15625 702.648438 548.027344 C 700.042969 552.898438 697.324219 557.703125 694.484375 562.441406 C 691.644531 567.175781 688.6875 571.84375 685.621094 576.433594 C 682.550781 581.027344 679.371094 585.542969 676.082031 589.976562 C 672.792969 594.414062 669.394531 598.769531 665.890625 603.039062 C 662.386719 607.308594 658.78125 611.488281 655.070312 615.582031 C 651.359375 619.671875 647.554688 623.671875 643.648438 627.578125 C 639.742188 631.484375 635.742188 635.292969 631.652344 639 C 627.558594 642.710938 623.378906 646.316406 619.105469 649.820312 C 614.835938 653.324219 610.484375 656.722656 606.046875 660.011719 C 601.613281 663.304688 597.097656 666.480469 592.503906 669.550781 C 587.910156 672.621094 583.246094 675.574219 578.507812 678.414062 C 573.773438 681.253906 568.96875 683.976562 564.097656 686.578125 C 559.226562 689.183594 554.292969 691.664062 549.300781 694.027344 C 544.304688 696.386719 539.257812 698.625 534.15625 700.738281 C 529.050781 702.851562 523.902344 704.839844 518.699219 706.699219 C 513.5 708.5625 508.257812 710.292969 502.972656 711.898438 C 497.683594 713.5 492.363281 714.972656 487.003906 716.316406 C 481.648438 717.65625 476.261719 718.867188 470.84375 719.945312 C 465.425781 721.023438 459.984375 721.964844 454.519531 722.777344 C 449.058594 723.585938 443.578125 724.261719 438.082031 724.804688 C 432.582031 725.347656 427.078125 725.753906 421.558594 726.023438 C 416.042969 726.292969 410.523438 726.429688 405 726.429688 C 399.476562 726.429688 393.957031 726.292969 388.4375 726.023438 C 382.921875 725.753906 377.414062 725.347656 371.917969 724.804688 C 366.421875 724.261719 360.941406 723.585938 355.476562 722.777344 C 350.015625 721.964844 344.574219 721.023438 339.15625 719.945312 C 333.738281 718.867188 328.351562 717.65625 322.992188 716.316406 C 317.636719 714.972656 312.3125 713.5 307.027344 711.898438 C 301.742188 710.292969 296.5 708.5625 291.300781 706.699219 C 286.097656 704.839844 280.945312 702.851562 275.84375 700.738281 C 270.742188 698.625 265.691406 696.386719 260.699219 694.027344 C 255.707031 691.664062 250.773438 689.183594 245.902344 686.578125 C 241.03125 683.976562 236.226562 681.253906 231.488281 678.414062 C 226.753906 675.574219 222.085938 672.621094 217.496094 669.550781 C 212.902344 666.480469 208.386719 663.304688 203.949219 660.011719 C 199.515625 656.722656 195.160156 653.324219 190.890625 649.820312 C 186.621094 646.316406 182.441406 642.710938 178.347656 639 C 174.257812 635.292969 170.257812 631.484375 166.351562 627.578125 C 162.445312 623.671875 158.636719 619.671875 154.929688 615.582031 C 151.21875 611.488281 147.613281 607.308594 144.109375 603.039062 C 140.605469 598.769531 137.207031 594.414062 133.917969 589.980469 C 130.625 585.542969 127.449219 581.027344 124.378906 576.433594 C 121.308594 571.84375 118.355469 567.175781 115.515625 562.441406 C 112.675781 557.703125 109.953125 552.898438 107.351562 548.027344 C 104.746094 543.15625 102.265625 538.222656 99.902344 533.230469 C 97.542969 528.238281 95.304688 523.1875 93.191406 518.085938 C 91.078125 512.984375 89.089844 507.832031 87.230469 502.628906 C 85.367188 497.429688 83.636719 492.1875 82.03125 486.902344 C 80.429688 481.617188 78.957031 476.292969 77.613281 470.9375 C 76.273438 465.578125 75.0625 460.191406 73.984375 454.773438 C 72.90625 449.355469 71.964844 443.914062 71.152344 438.453125 C 70.34375 432.988281 69.667969 427.507812 69.125 422.011719 C 68.582031 416.515625 68.175781 411.007812 67.90625 405.492188 C 67.636719 399.972656 67.5 394.453125 67.5 388.929688 C 67.5 202.53125 218.597656 51.429688 405 51.429688 C 591.398438 51.429688 742.5 202.53125 742.5 388.929688 Z M 742.5 388.929688 " fill-opacity="1" fill-rule="nonzero"/></g><path fill="#ff9987" d="M 553.246094 403.773438 C 544.945312 415.175781 534.128906 424.566406 525.535156 435.800781 C 525.042969 436.425781 524.503906 437.007812 523.925781 437.550781 C 523.34375 438.09375 522.726562 438.589844 522.070312 439.039062 C 521.414062 439.488281 520.730469 439.882812 520.015625 440.230469 C 519.300781 440.574219 518.5625 440.867188 517.804688 441.101562 C 517.042969 441.335938 516.269531 441.511719 515.484375 441.628906 C 514.699219 441.746094 513.910156 441.804688 513.113281 441.804688 C 512.320312 441.800781 511.53125 441.742188 510.746094 441.621094 C 509.960938 441.5 509.1875 441.320312 508.429688 441.085938 C 505.882812 440.214844 503.730469 438.761719 501.972656 436.726562 C 500.738281 441.574219 499.1875 446.316406 497.3125 450.953125 C 495.4375 455.589844 493.257812 460.082031 490.773438 464.425781 C 488.292969 468.765625 485.527344 472.921875 482.480469 476.890625 C 479.433594 480.859375 476.136719 484.605469 472.582031 488.125 L 472.582031 544.390625 C 472.582031 545.675781 472.554688 546.964844 472.492188 548.25 C 472.429688 549.535156 472.335938 550.816406 472.210938 552.097656 C 472.085938 553.378906 471.925781 554.65625 471.738281 555.929688 C 471.550781 557.203125 471.332031 558.472656 471.082031 559.734375 C 470.832031 560.996094 470.550781 562.25 470.238281 563.5 C 469.925781 564.75 469.582031 565.988281 469.210938 567.222656 C 468.839844 568.453125 468.433594 569.675781 468.003906 570.886719 C 467.570312 572.097656 467.105469 573.300781 466.613281 574.488281 C 466.121094 575.679688 465.601562 576.855469 465.050781 578.019531 C 464.503906 579.183594 463.925781 580.332031 463.320312 581.46875 C 462.710938 582.601562 462.078125 583.722656 461.417969 584.828125 C 460.757812 585.929688 460.066406 587.019531 459.355469 588.089844 C 458.640625 589.160156 457.898438 590.210938 457.132812 591.246094 C 456.367188 592.28125 455.574219 593.296875 454.757812 594.289062 C 453.941406 595.285156 453.101562 596.261719 452.238281 597.214844 C 451.375 598.167969 450.488281 599.101562 449.578125 600.011719 C 448.667969 600.921875 447.738281 601.808594 446.78125 602.671875 C 445.828125 603.539062 444.855469 604.378906 443.859375 605.195312 C 442.867188 606.011719 441.851562 606.804688 440.820312 607.570312 C 439.785156 608.339844 438.734375 609.078125 437.664062 609.792969 C 436.59375 610.511719 435.507812 611.199219 434.402344 611.859375 C 433.296875 612.523438 432.179688 613.15625 431.042969 613.765625 C 429.910156 614.371094 428.761719 614.949219 427.597656 615.5 C 426.433594 616.050781 425.257812 616.574219 424.066406 617.066406 C 422.878906 617.558594 421.679688 618.019531 420.46875 618.453125 C 419.253906 618.890625 418.035156 619.292969 416.800781 619.667969 C 415.570312 620.039062 414.332031 620.382812 413.082031 620.695312 C 411.832031 621.007812 410.578125 621.292969 409.316406 621.542969 C 408.054688 621.792969 406.785156 622.015625 405.511719 622.203125 C 404.238281 622.390625 402.960938 622.550781 401.679688 622.675781 C 400.402344 622.800781 399.117188 622.894531 397.832031 622.960938 C 396.546875 623.023438 395.261719 623.054688 393.972656 623.054688 C 392.6875 623.054688 391.398438 623.023438 390.113281 622.960938 C 388.828125 622.894531 387.546875 622.800781 386.265625 622.675781 C 384.984375 622.550781 383.707031 622.390625 382.433594 622.203125 C 381.160156 622.015625 379.890625 621.792969 378.628906 621.542969 C 377.367188 621.292969 376.113281 621.007812 374.863281 620.695312 C 373.617188 620.382812 372.375 620.039062 371.144531 619.667969 C 369.910156 619.292969 368.691406 618.890625 367.480469 618.453125 C 366.265625 618.019531 365.066406 617.558594 363.878906 617.066406 C 362.6875 616.574219 361.511719 616.050781 360.347656 615.5 C 359.183594 614.949219 358.035156 614.371094 356.902344 613.765625 C 355.765625 613.15625 354.648438 612.523438 353.542969 611.859375 C 352.4375 611.199219 351.351562 610.511719 350.28125 609.792969 C 349.210938 609.078125 348.160156 608.339844 347.128906 607.570312 C 346.09375 606.804688 345.078125 606.011719 344.085938 605.195312 C 343.089844 604.378906 342.117188 603.539062 341.164062 602.671875 C 340.210938 601.808594 339.277344 600.921875 338.367188 600.011719 C 337.457031 599.101562 336.570312 598.167969 335.707031 597.214844 C 334.84375 596.261719 334.003906 595.285156 333.1875 594.289062 C 332.371094 593.296875 331.578125 592.28125 330.8125 591.246094 C 330.046875 590.210938 329.304688 589.160156 328.59375 588.089844 C 327.878906 587.019531 327.1875 585.929688 326.527344 584.828125 C 325.867188 583.722656 325.234375 582.601562 324.628906 581.46875 C 324.019531 580.332031 323.441406 579.183594 322.894531 578.019531 C 322.34375 576.855469 321.824219 575.679688 321.332031 574.488281 C 320.839844 573.300781 320.375 572.097656 319.945312 570.886719 C 319.511719 569.675781 319.109375 568.453125 318.734375 567.222656 C 318.363281 565.988281 318.019531 564.75 317.707031 563.5 C 317.394531 562.25 317.113281 560.996094 316.863281 559.734375 C 316.613281 558.472656 316.394531 557.203125 316.207031 555.929688 C 316.019531 554.65625 315.863281 553.378906 315.734375 552.097656 C 315.609375 550.816406 315.515625 549.535156 315.453125 548.25 C 315.390625 546.964844 315.363281 545.675781 315.363281 544.390625 L 315.363281 487.371094 C 308.871094 480.835938 303.289062 473.601562 298.609375 465.667969 C 293.933594 457.730469 290.308594 449.34375 287.734375 440.5 C 287.253906 440.71875 286.765625 440.914062 286.265625 441.085938 C 285.507812 441.320312 284.734375 441.5 283.949219 441.621094 C 283.164062 441.742188 282.375 441.800781 281.582031 441.804688 C 280.785156 441.804688 279.996094 441.746094 279.210938 441.628906 C 278.425781 441.511719 277.652344 441.335938 276.894531 441.101562 C 276.132812 440.867188 275.398438 440.574219 274.679688 440.230469 C 273.964844 439.882812 273.28125 439.488281 272.625 439.039062 C 271.96875 438.589844 271.351562 438.09375 270.769531 437.550781 C 270.191406 437.007812 269.652344 436.425781 269.160156 435.804688 C 260.566406 424.566406 249.75 415.175781 241.449219 403.773438 C 233.148438 392.324219 227.445312 377.734375 231.175781 364.109375 C 234.949219 350.484375 251.257812 340.210938 263.835938 346.628906 L 269.917969 361.386719 C 270.585938 360.839844 271.257812 360.296875 271.886719 359.707031 C 284.855469 348.414062 296.59375 335.960938 307.109375 322.351562 C 317.621094 308.742188 326.703125 294.234375 334.355469 278.832031 C 336.316406 290.136719 337.628906 301.511719 338.296875 312.960938 C 357.792969 296.105469 373.472656 274.894531 384.664062 253.972656 C 385.394531 262.015625 386.585938 269.992188 388.242188 277.898438 C 389.898438 285.804688 392.003906 293.589844 394.5625 301.253906 C 397.121094 308.914062 400.113281 316.402344 403.542969 323.71875 C 406.972656 331.03125 410.808594 338.125 415.0625 344.992188 C 417.671875 331.917969 421.5625 319.238281 426.730469 306.949219 C 431.898438 294.660156 438.238281 283.011719 445.75 272 C 464.070312 308.9375 495.726562 338.996094 526.121094 350.945312 C 526.5 351.113281 526.917969 351.238281 527.296875 351.40625 C 526.167969 355.597656 524.828125 359.722656 523.269531 363.773438 L 523.144531 364.152344 L 521.929688 368.304688 L 530.859375 346.628906 C 543.4375 340.210938 559.746094 350.484375 563.519531 364.109375 C 567.25 377.734375 561.546875 392.324219 553.246094 403.773438 Z M 553.246094 403.773438 " fill-opacity="1" fill-rule="nonzero"/><path fill="#ed6e0f" d="M 633.535156 637.296875 C 629.617188 640.902344 625.613281 644.414062 621.527344 647.832031 C 617.441406 651.25 613.277344 654.566406 609.035156 657.789062 C 604.789062 661.007812 600.472656 664.125 596.082031 667.140625 C 591.691406 670.15625 587.234375 673.066406 582.703125 675.871094 C 578.175781 678.675781 573.582031 681.371094 568.925781 683.957031 C 564.273438 686.546875 559.558594 689.019531 554.785156 691.382812 C 550.011719 693.746094 545.183594 695.996094 540.304688 698.132812 C 535.425781 700.265625 530.496094 702.285156 525.519531 704.1875 C 520.546875 706.089844 515.527344 707.871094 510.46875 709.535156 C 505.40625 711.199219 500.3125 712.746094 495.179688 714.167969 C 490.046875 715.589844 484.882812 716.890625 479.6875 718.070312 C 474.492188 719.246094 469.273438 720.300781 464.027344 721.234375 C 458.785156 722.164062 453.519531 722.972656 448.238281 723.652344 C 442.957031 724.335938 437.660156 724.890625 432.351562 725.324219 C 427.042969 725.753906 421.726562 726.058594 416.402344 726.238281 C 411.078125 726.417969 405.753906 726.472656 400.425781 726.398438 C 395.101562 726.324219 389.78125 726.128906 384.464844 725.800781 C 379.148438 725.476562 373.839844 725.027344 368.546875 724.453125 C 363.25 723.875 357.972656 723.175781 352.710938 722.347656 C 347.449219 721.523438 342.207031 720.574219 336.992188 719.5 C 331.773438 718.425781 326.585938 717.226562 321.425781 715.910156 C 316.265625 714.589844 311.136719 713.148438 306.046875 711.585938 C 300.953125 710.023438 295.902344 708.339844 290.890625 706.539062 C 285.875 704.738281 280.910156 702.816406 275.988281 700.78125 C 271.066406 698.742188 266.195312 696.589844 261.375 694.324219 C 256.554688 692.054688 251.792969 689.675781 247.085938 687.183594 C 242.378906 684.691406 237.734375 682.085938 233.148438 679.375 C 228.566406 676.660156 224.046875 673.839844 219.597656 670.914062 C 215.148438 667.988281 210.769531 664.957031 206.464844 661.820312 C 202.15625 658.6875 197.925781 655.453125 193.773438 652.117188 C 189.617188 648.785156 185.546875 645.351562 181.554688 641.824219 C 177.566406 638.296875 173.660156 634.679688 169.839844 630.964844 L 284.546875 570.804688 L 285.929688 569.167969 L 315.363281 533.992188 L 315.363281 544.390625 C 315.359375 546.964844 315.484375 549.535156 315.734375 552.097656 C 315.984375 554.660156 316.359375 557.203125 316.863281 559.730469 C 317.363281 562.253906 317.988281 564.75 318.734375 567.214844 C 319.480469 569.679688 320.34375 572.101562 321.332031 574.480469 C 322.316406 576.859375 323.414062 579.183594 324.628906 581.457031 C 325.84375 583.726562 327.164062 585.933594 328.597656 588.074219 C 330.027344 590.214844 331.5625 592.277344 333.195312 594.269531 C 334.828125 596.257812 336.558594 598.164062 338.378906 599.984375 C 339.929688 601.535156 341.566406 603.042969 343.242188 604.425781 C 343.996094 605.097656 344.710938 605.683594 345.507812 606.273438 C 346.136719 606.773438 346.765625 607.277344 347.394531 607.738281 C 348.273438 608.367188 349.15625 608.996094 350.035156 609.582031 C 352.910156 611.527344 355.902344 613.273438 359.007812 614.824219 C 361.742188 616.179688 364.546875 617.371094 367.421875 618.398438 C 370.292969 619.425781 373.21875 620.285156 376.191406 620.972656 C 379.164062 621.660156 382.167969 622.171875 385.199219 622.511719 C 388.234375 622.851562 391.277344 623.011719 394.328125 623 C 397.378906 622.984375 400.417969 622.792969 403.449219 622.425781 C 406.480469 622.058594 409.476562 621.515625 412.445312 620.800781 C 415.410156 620.082031 418.324219 619.195312 421.1875 618.140625 C 424.050781 617.085938 426.84375 615.867188 429.566406 614.488281 C 429.734375 614.40625 429.902344 614.320312 430.070312 614.238281 C 431.496094 613.484375 432.878906 612.726562 434.261719 611.890625 C 435.773438 610.96875 437.28125 610.046875 438.707031 609.039062 C 440.175781 607.992188 441.601562 606.941406 443.023438 605.808594 C 444.324219 604.761719 445.582031 603.714844 446.839844 602.582031 L 447.050781 602.371094 C 448.265625 601.28125 449.441406 600.109375 450.570312 598.933594 C 450.824219 598.683594 451.074219 598.390625 451.328125 598.136719 C 452.25 597.175781 453.128906 596.210938 453.96875 595.203125 C 455.269531 593.652344 456.484375 592.101562 457.660156 590.464844 C 458.621094 589.125 459.585938 587.742188 460.46875 586.316406 C 461.640625 584.46875 462.730469 582.582031 463.738281 580.65625 C 464.113281 579.941406 464.492188 579.230469 464.828125 578.476562 C 467.363281 573.230469 469.277344 567.765625 470.570312 562.082031 C 470.738281 561.519531 470.863281 560.945312 470.949219 560.363281 C 471.828125 556.1875 472.347656 551.96875 472.5 547.703125 C 472.542969 546.613281 472.582031 545.523438 472.582031 544.390625 L 472.582031 533.867188 L 503.355469 567.195312 L 505.871094 569.921875 Z M 526.121094 350.945312 L 481.386719 387.253906 C 480.871094 385.65625 480.226562 384.113281 479.460938 382.625 C 478.691406 381.132812 477.8125 379.710938 476.816406 378.359375 C 475.820312 377.011719 474.722656 375.75 473.523438 374.578125 C 472.324219 373.402344 471.039062 372.335938 469.667969 371.367188 C 468.296875 370.402344 466.859375 369.550781 465.351562 368.816406 C 463.84375 368.082031 462.285156 367.472656 460.679688 366.988281 C 459.074219 366.507812 457.4375 366.152344 455.777344 365.933594 C 454.113281 365.710938 452.445312 365.625 450.765625 365.675781 C 449.089844 365.722656 447.429688 365.90625 445.78125 366.21875 C 444.132812 366.535156 442.523438 366.980469 440.949219 367.554688 C 439.371094 368.132812 437.851562 368.828125 436.390625 369.648438 C 434.925781 370.46875 433.539062 371.398438 432.222656 372.441406 C 430.910156 373.484375 429.6875 374.625 428.558594 375.867188 C 427.429688 377.105469 426.40625 378.429688 425.488281 379.832031 C 424.574219 381.238281 423.773438 382.707031 423.09375 384.238281 C 422.414062 385.773438 421.859375 387.351562 421.433594 388.972656 L 414.515625 388.761719 C 414.066406 387.777344 413.550781 386.828125 412.972656 385.910156 C 412.390625 384.996094 411.753906 384.121094 411.058594 383.292969 C 410.359375 382.464844 409.609375 381.683594 408.808594 380.957031 C 408.003906 380.230469 407.15625 379.558594 406.265625 378.945312 C 405.371094 378.332031 404.441406 377.78125 403.472656 377.292969 C 402.507812 376.804688 401.511719 376.382812 400.488281 376.027344 C 399.460938 375.675781 398.417969 375.394531 397.355469 375.179688 C 396.292969 374.96875 395.222656 374.828125 394.140625 374.757812 C 385.839844 374.421875 377.160156 380.546875 373.472656 388.804688 C 371.667969 388.847656 369.027344 388.847656 366.511719 388.804688 C 366.074219 387.179688 365.511719 385.601562 364.820312 384.070312 C 364.128906 382.539062 363.316406 381.070312 362.390625 379.667969 C 361.460938 378.265625 360.425781 376.949219 359.285156 375.714844 C 358.144531 374.476562 356.914062 373.34375 355.589844 372.304688 C 354.265625 371.269531 352.867188 370.347656 351.394531 369.535156 C 349.921875 368.726562 348.390625 368.039062 346.808594 367.472656 C 345.222656 366.910156 343.605469 366.476562 341.953125 366.171875 C 340.296875 365.871094 338.628906 365.703125 336.949219 365.667969 C 335.269531 365.632812 333.59375 365.734375 331.929688 365.96875 C 330.265625 366.207031 328.632812 366.574219 327.027344 367.074219 C 325.421875 367.574219 323.867188 368.199219 322.359375 368.949219 C 320.855469 369.699219 319.421875 370.566406 318.058594 371.546875 C 316.691406 372.527344 315.414062 373.613281 314.222656 374.800781 C 313.035156 375.988281 311.949219 377.265625 310.964844 378.628906 C 309.980469 379.992188 309.109375 381.421875 308.359375 382.925781 C 307.605469 384.429688 306.976562 385.984375 306.476562 387.589844 L 271.886719 359.707031 C 269.789062 361.550781 267.609375 363.355469 265.429688 365.117188 L 265.511719 365.324219 L 305.050781 397.230469 C 305.058594 398.25 305.117188 399.265625 305.226562 400.277344 C 305.335938 401.289062 305.492188 402.292969 305.699219 403.292969 C 305.90625 404.289062 306.164062 405.273438 306.464844 406.246094 C 306.769531 407.214844 307.117188 408.171875 307.515625 409.109375 C 307.910156 410.046875 308.351562 410.964844 308.835938 411.859375 C 309.324219 412.753906 309.851562 413.621094 310.421875 414.464844 C 310.992188 415.308594 311.601562 416.121094 312.253906 416.90625 C 312.902344 417.691406 313.589844 418.441406 314.3125 419.15625 C 315.039062 419.871094 315.792969 420.550781 316.582031 421.195312 C 317.375 421.835938 318.191406 422.441406 319.042969 423.003906 C 319.890625 423.566406 320.765625 424.085938 321.664062 424.5625 C 322.5625 425.039062 323.484375 425.472656 324.425781 425.859375 C 325.367188 426.246094 326.324219 426.589844 327.300781 426.882812 C 328.273438 427.175781 329.261719 427.421875 330.261719 427.617188 C 331.257812 427.816406 332.265625 427.964844 333.277344 428.0625 C 334.292969 428.164062 335.308594 428.210938 336.324219 428.210938 C 337.34375 428.210938 338.359375 428.164062 339.371094 428.0625 C 340.386719 427.964844 341.390625 427.816406 342.390625 427.617188 C 343.390625 427.421875 344.378906 427.175781 345.351562 426.882812 C 346.328125 426.589844 347.285156 426.246094 348.226562 425.859375 C 349.167969 425.472656 350.089844 425.039062 350.988281 424.5625 C 351.886719 424.085938 352.761719 423.566406 353.609375 423.003906 C 354.457031 422.441406 355.277344 421.835938 356.066406 421.195312 C 356.859375 420.550781 357.613281 419.871094 358.335938 419.15625 C 359.0625 418.441406 359.746094 417.691406 360.398438 416.90625 C 361.046875 416.121094 361.660156 415.308594 362.230469 414.464844 C 362.800781 413.621094 363.328125 412.753906 363.8125 411.859375 C 364.300781 410.964844 364.742188 410.046875 365.136719 409.109375 C 365.535156 408.171875 365.882812 407.214844 366.1875 406.246094 C 366.488281 405.273438 366.746094 404.289062 366.949219 403.292969 C 367.15625 402.292969 367.316406 401.289062 367.425781 400.277344 C 367.535156 399.265625 367.59375 398.25 367.601562 397.230469 C 377.832031 397.355469 378.839844 397.148438 380.136719 394.882812 C 380.304688 394.59375 380.433594 394.285156 380.515625 393.960938 C 382.234375 388.007812 388.480469 382.933594 393.804688 383.144531 C 399.886719 383.394531 406.214844 388.34375 407.304688 393.710938 C 407.402344 394.171875 407.574219 394.605469 407.816406 395.007812 C 408.058594 395.414062 408.359375 395.765625 408.722656 396.070312 C 409.082031 396.375 409.480469 396.609375 409.921875 396.78125 C 410.363281 396.953125 410.816406 397.046875 411.289062 397.0625 L 420.34375 397.316406 C 420.355469 398.335938 420.417969 399.351562 420.53125 400.367188 C 420.640625 401.382812 420.804688 402.386719 421.015625 403.386719 C 421.222656 404.382812 421.484375 405.371094 421.789062 406.34375 C 422.097656 407.316406 422.449219 408.273438 422.851562 409.210938 C 423.25 410.148438 423.695312 411.066406 424.1875 411.960938 C 424.675781 412.855469 425.210938 413.726562 425.785156 414.566406 C 426.359375 415.410156 426.976562 416.222656 427.628906 417.007812 C 428.285156 417.789062 428.976562 418.539062 429.703125 419.253906 C 430.433594 419.96875 431.195312 420.644531 431.988281 421.285156 C 432.78125 421.925781 433.605469 422.527344 434.460938 423.085938 C 435.3125 423.644531 436.191406 424.164062 437.09375 424.636719 C 438 425.109375 438.921875 425.539062 439.867188 425.921875 C 440.8125 426.304688 441.777344 426.640625 442.753906 426.929688 C 443.734375 427.222656 444.722656 427.460938 445.726562 427.652344 C 446.726562 427.847656 447.738281 427.988281 448.753906 428.082031 C 449.769531 428.175781 450.789062 428.21875 451.808594 428.214844 C 452.828125 428.207031 453.847656 428.152344 454.859375 428.046875 C 455.875 427.941406 456.882812 427.785156 457.882812 427.582031 C 458.882812 427.375 459.871094 427.125 460.84375 426.824219 C 461.820312 426.519531 462.777344 426.171875 463.71875 425.777344 C 464.660156 425.382812 465.578125 424.945312 466.476562 424.460938 C 467.375 423.976562 468.246094 423.449219 469.09375 422.878906 C 469.941406 422.308594 470.757812 421.695312 471.542969 421.046875 C 472.332031 420.398438 473.082031 419.710938 473.800781 418.988281 C 474.523438 418.261719 475.203125 417.507812 475.847656 416.714844 C 476.496094 415.925781 477.101562 415.105469 477.664062 414.253906 C 478.230469 413.40625 478.753906 412.53125 479.230469 411.628906 C 479.710938 410.730469 480.144531 409.804688 480.535156 408.863281 C 480.921875 407.917969 481.265625 406.960938 481.558594 405.984375 C 481.855469 405.007812 482.101562 404.015625 482.300781 403.015625 C 482.5 402.015625 482.648438 401.007812 482.746094 399.992188 C 482.847656 398.976562 482.898438 397.957031 482.898438 396.9375 L 482.898438 396.8125 L 523.144531 364.152344 L 523.269531 363.773438 C 524.828125 359.722656 526.167969 355.597656 527.296875 351.40625 C 526.917969 351.238281 526.5 351.113281 526.121094 350.945312 Z M 526.121094 350.945312 " fill-opacity="1" fill-rule="nonzero"/><path fill="#242156" d="M 585.699219 270.574219 C 583.765625 273.6875 581.539062 276.570312 579.015625 279.222656 C 576.492188 281.878906 573.726562 284.246094 570.714844 286.332031 C 567.703125 288.414062 564.511719 290.171875 561.136719 291.597656 C 557.765625 293.027344 554.28125 294.097656 550.691406 294.808594 C 550.691406 295.015625 550.734375 295.269531 550.734375 295.476562 C 551.039062 300.660156 551.085938 305.847656 550.871094 311.035156 C 550.652344 316.222656 550.175781 321.386719 549.4375 326.527344 C 548.699219 331.667969 547.703125 336.753906 546.453125 341.792969 C 545.199219 346.832031 543.695312 351.796875 541.945312 356.683594 C 540.191406 361.570312 538.195312 366.359375 535.957031 371.042969 C 533.71875 375.730469 531.253906 380.289062 528.554688 384.726562 C 525.855469 389.164062 522.941406 393.453125 519.808594 397.59375 C 516.679688 401.738281 513.347656 405.710938 509.8125 409.515625 L 523.144531 364.152344 L 523.269531 363.773438 C 524.828125 359.722656 526.167969 355.597656 527.296875 351.40625 C 526.917969 351.238281 526.5 351.113281 526.121094 350.945312 C 495.726562 338.996094 464.070312 308.9375 445.75 272 C 438.238281 283.011719 431.898438 294.660156 426.730469 306.949219 C 421.5625 319.238281 417.671875 331.917969 415.0625 344.992188 C 410.808594 338.125 406.972656 331.03125 403.542969 323.71875 C 400.113281 316.402344 397.121094 308.914062 394.5625 301.253906 C 392.003906 293.589844 389.898438 285.804688 388.242188 277.898438 C 386.585938 269.992188 385.394531 262.015625 384.664062 253.972656 C 373.472656 274.894531 357.792969 296.105469 338.296875 312.960938 C 337.628906 301.511719 336.316406 290.136719 334.355469 278.832031 C 326.703125 294.234375 317.621094 308.742188 307.109375 322.351562 C 296.59375 335.960938 284.855469 348.414062 271.886719 359.707031 C 269.789062 361.550781 267.609375 363.355469 265.429688 365.117188 L 265.511719 365.324219 L 276.121094 401.339844 C 270.910156 394.90625 266.25 388.097656 262.140625 380.910156 C 258.027344 373.726562 254.519531 366.257812 251.617188 358.503906 C 248.714844 350.75 246.449219 342.816406 244.828125 334.699219 C 243.207031 326.578125 242.25 318.382812 241.949219 310.109375 C 234.847656 305.648438 228.304688 300.476562 222.324219 294.59375 C 216.339844 288.714844 211.0625 282.257812 206.480469 275.226562 C 206.265625 274.890625 206.070312 274.542969 205.898438 274.183594 C 205.722656 273.824219 205.570312 273.453125 205.441406 273.074219 C 205.3125 272.699219 205.203125 272.3125 205.121094 271.921875 C 205.035156 271.53125 204.972656 271.136719 204.9375 270.738281 C 204.898438 270.339844 204.882812 269.941406 204.894531 269.542969 C 204.902344 269.140625 204.9375 268.746094 204.992188 268.347656 C 205.050781 267.953125 205.128906 267.5625 205.230469 267.175781 C 205.335938 266.789062 205.460938 266.410156 205.609375 266.039062 C 205.757812 265.667969 205.925781 265.304688 206.117188 264.953125 C 206.308594 264.601562 206.519531 264.265625 206.75 263.9375 C 206.980469 263.613281 207.230469 263.300781 207.496094 263.003906 C 207.765625 262.707031 208.050781 262.425781 208.351562 262.164062 C 208.652344 261.902344 208.96875 261.65625 209.296875 261.429688 C 209.628906 261.207031 209.972656 261 210.324219 260.816406 C 210.679688 260.628906 211.042969 260.464844 211.417969 260.324219 C 211.792969 260.183594 212.171875 260.0625 212.5625 259.96875 C 222.5 257.550781 232.058594 254.085938 241.238281 249.570312 C 245.378906 247.433594 249.101562 244.730469 252.414062 241.457031 C 255.726562 238.179688 258.46875 234.484375 260.648438 230.367188 C 262.300781 227.335938 264.050781 224.359375 265.902344 221.441406 C 267.753906 218.527344 269.699219 215.675781 271.738281 212.890625 C 273.78125 210.101562 275.914062 207.390625 278.136719 204.746094 C 280.363281 202.101562 282.671875 199.539062 285.070312 197.050781 C 287.464844 194.5625 289.941406 192.15625 292.5 189.835938 C 295.054688 187.515625 297.6875 185.28125 300.394531 183.136719 C 303.101562 180.992188 305.878906 178.9375 308.722656 176.980469 C 311.570312 175.023438 314.476562 173.160156 317.445312 171.398438 C 320.414062 169.632812 323.441406 167.972656 326.523438 166.410156 C 329.601562 164.851562 332.734375 163.394531 335.914062 162.042969 C 339.089844 160.691406 342.3125 159.449219 345.574219 158.316406 C 348.835938 157.179688 352.132812 156.15625 355.464844 155.242188 C 358.796875 154.332031 362.152344 153.53125 365.539062 152.839844 C 368.921875 152.152344 372.328125 151.578125 375.75 151.121094 C 379.171875 150.660156 382.609375 150.316406 386.054688 150.085938 C 389.5 149.855469 392.949219 149.742188 396.40625 149.746094 L 397.035156 149.746094 C 395.683594 146.257812 394.792969 142.65625 394.359375 138.945312 C 393.925781 135.230469 393.964844 131.523438 394.476562 127.816406 C 394.511719 127.570312 394.566406 127.324219 394.632812 127.082031 C 394.699219 126.839844 394.78125 126.601562 394.878906 126.371094 C 394.976562 126.140625 395.085938 125.914062 395.207031 125.695312 C 395.332031 125.476562 395.46875 125.265625 395.617188 125.0625 C 395.769531 124.863281 395.929688 124.671875 396.101562 124.488281 C 396.273438 124.304688 396.457031 124.136719 396.652344 123.976562 C 396.847656 123.816406 397.050781 123.667969 397.261719 123.53125 C 397.472656 123.398438 397.691406 123.277344 397.917969 123.167969 C 398.144531 123.058594 398.378906 122.964844 398.617188 122.886719 C 398.855469 122.804688 399.097656 122.742188 399.34375 122.691406 C 399.589844 122.640625 399.835938 122.605469 400.089844 122.585938 C 400.339844 122.566406 400.589844 122.5625 400.839844 122.570312 C 401.089844 122.582031 401.339844 122.609375 401.589844 122.648438 C 401.835938 122.691406 402.082031 122.746094 402.320312 122.820312 C 402.5625 122.890625 402.796875 122.976562 403.027344 123.074219 C 403.257812 123.175781 403.484375 123.289062 403.699219 123.417969 C 420.164062 132.835938 434.824219 144.519531 447.679688 158.464844 C 448.183594 158.96875 448.644531 159.472656 449.105469 159.976562 C 449.609375 159.847656 450.152344 159.683594 450.65625 159.554688 C 463.652344 156.117188 478.578125 152.636719 493.296875 147.734375 C 493.746094 147.578125 494.210938 147.492188 494.691406 147.476562 C 495.167969 147.464844 495.636719 147.523438 496.097656 147.652344 C 496.558594 147.785156 496.988281 147.980469 497.390625 148.242188 C 497.789062 148.503906 498.140625 148.820312 498.445312 149.191406 C 498.75 149.558594 498.988281 149.964844 499.167969 150.410156 C 499.347656 150.851562 499.457031 151.3125 499.496094 151.789062 C 499.53125 152.265625 499.5 152.738281 499.390625 153.207031 C 499.285156 153.671875 499.113281 154.113281 498.871094 154.523438 C 496.40625 158.457031 493.527344 162.058594 490.234375 165.328125 C 486.945312 168.601562 483.324219 171.457031 479.375 173.894531 C 484.84375 177.382812 490.070312 181.195312 495.0625 185.335938 C 500.054688 189.476562 504.765625 193.910156 509.203125 198.640625 C 513.640625 203.371094 517.765625 208.359375 521.578125 213.605469 C 525.390625 218.847656 528.863281 224.3125 531.992188 229.992188 C 533.574219 232.839844 535.394531 235.53125 537.453125 238.058594 C 539.511719 240.585938 541.773438 242.910156 544.246094 245.035156 C 546.71875 247.160156 549.359375 249.050781 552.167969 250.707031 C 554.976562 252.363281 557.90625 253.757812 560.960938 254.894531 C 567.402344 257.347656 574.042969 259.023438 580.875 259.925781 C 581.160156 259.96875 581.441406 260.03125 581.71875 260.113281 C 581.996094 260.191406 582.269531 260.289062 582.535156 260.402344 C 582.800781 260.515625 583.058594 260.644531 583.304688 260.792969 C 583.554688 260.9375 583.796875 261.097656 584.023438 261.273438 C 584.253906 261.445312 584.472656 261.636719 584.679688 261.835938 C 584.882812 262.039062 585.078125 262.253906 585.257812 262.480469 C 585.4375 262.703125 585.601562 262.941406 585.753906 263.1875 C 585.902344 263.433594 586.039062 263.6875 586.15625 263.949219 C 586.277344 264.214844 586.378906 264.484375 586.464844 264.757812 C 586.550781 265.035156 586.617188 265.3125 586.667969 265.597656 C 586.71875 265.882812 586.753906 266.167969 586.769531 266.457031 C 586.785156 266.746094 586.78125 267.03125 586.761719 267.320312 C 586.742188 267.609375 586.707031 267.894531 586.648438 268.175781 C 586.59375 268.460938 586.523438 268.738281 586.433594 269.015625 C 586.34375 269.289062 586.234375 269.554688 586.113281 269.816406 C 585.992188 270.078125 585.851562 270.332031 585.699219 270.574219 Z M 300.269531 468.335938 L 287.984375 509.925781 C 287.769531 510.652344 287.660156 511.394531 287.652344 512.152344 C 287.648438 512.910156 287.746094 513.652344 287.949219 514.382812 C 288.152344 515.113281 288.453125 515.800781 288.851562 516.445312 C 289.25 517.089844 289.726562 517.667969 290.289062 518.175781 C 290.847656 518.6875 291.46875 519.109375 292.148438 519.445312 C 292.828125 519.78125 293.539062 520.015625 294.285156 520.148438 C 295.03125 520.285156 295.78125 520.3125 296.535156 520.234375 C 297.285156 520.15625 298.015625 519.976562 298.71875 519.695312 C 304.679688 517.28125 310.226562 514.136719 315.363281 510.261719 L 315.363281 487.328125 C 309.617188 481.566406 304.585938 475.234375 300.269531 468.335938 Z M 501.765625 514.203125 L 488.261719 468.628906 C 483.792969 475.722656 478.566406 482.207031 472.582031 488.082031 L 472.582031 513.15625 C 478.191406 517.695312 484.339844 521.3125 491.03125 524.015625 C 491.734375 524.292969 492.464844 524.472656 493.21875 524.546875 C 493.976562 524.621094 494.726562 524.589844 495.472656 524.453125 C 496.21875 524.316406 496.929688 524.078125 497.609375 523.742188 C 498.289062 523.40625 498.910156 522.980469 499.46875 522.46875 C 500.027344 521.957031 500.507812 521.378906 500.902344 520.730469 C 501.300781 520.085938 501.601562 519.394531 501.804688 518.664062 C 502.007812 517.933594 502.105469 517.191406 502.097656 516.433594 C 502.089844 515.671875 501.980469 514.929688 501.765625 514.203125 Z M 315.363281 497.851562 C 316.640625 499.148438 317.953125 500.410156 319.292969 501.640625 C 320.632812 502.871094 322.003906 504.066406 323.40625 505.230469 C 324.804688 506.390625 326.234375 507.519531 327.6875 508.613281 C 329.144531 509.707031 330.625 510.761719 332.132812 511.78125 C 333.640625 512.800781 335.171875 513.78125 336.730469 514.726562 C 338.285156 515.671875 339.863281 516.578125 341.460938 517.445312 C 343.0625 518.3125 344.683594 519.136719 346.324219 519.925781 C 347.964844 520.710938 349.625 521.457031 351.304688 522.164062 C 352.980469 522.871094 354.675781 523.535156 356.386719 524.15625 C 358.09375 524.777344 359.820312 525.359375 361.558594 525.894531 C 363.296875 526.433594 365.046875 526.925781 366.8125 527.378906 C 368.574219 527.832031 370.347656 528.238281 372.132812 528.601562 C 373.914062 528.964844 375.707031 529.285156 377.503906 529.5625 C 379.304688 529.839844 381.109375 530.070312 382.917969 530.257812 C 384.730469 530.445312 386.542969 530.589844 388.359375 530.6875 C 390.175781 530.785156 391.996094 530.835938 393.816406 530.847656 C 395.636719 530.855469 397.457031 530.820312 399.273438 530.738281 C 401.09375 530.65625 402.90625 530.53125 404.71875 530.363281 C 406.53125 530.191406 408.339844 529.976562 410.140625 529.71875 C 411.941406 529.460938 413.734375 529.15625 415.523438 528.8125 C 417.308594 528.464844 419.085938 528.074219 420.851562 527.636719 C 422.621094 527.203125 424.375 526.726562 426.121094 526.207031 C 427.863281 525.683594 429.59375 525.121094 431.308594 524.515625 C 433.027344 523.910156 434.726562 523.261719 436.410156 522.574219 C 438.09375 521.882812 439.761719 521.152344 441.410156 520.382812 C 443.058594 519.609375 444.6875 518.800781 446.296875 517.949219 C 447.90625 517.097656 449.492188 516.207031 451.054688 515.277344 C 452.621094 514.347656 454.160156 513.378906 455.679688 512.375 C 457.195312 511.367188 458.6875 510.328125 460.152344 509.25 C 461.621094 508.167969 463.058594 507.054688 464.46875 505.90625 C 465.882812 504.757812 467.261719 503.574219 468.617188 502.355469 C 469.96875 501.140625 471.292969 499.890625 472.582031 498.605469 L 472.582031 488.125 C 471.292969 489.40625 469.96875 490.65625 468.617188 491.875 C 467.261719 493.09375 465.882812 494.277344 464.46875 495.425781 C 463.058594 496.574219 461.621094 497.6875 460.152344 498.765625 C 458.6875 499.84375 457.195312 500.886719 455.679688 501.894531 C 454.160156 502.898438 452.621094 503.867188 451.054688 504.792969 C 449.492188 505.722656 447.90625 506.613281 446.296875 507.464844 C 444.6875 508.316406 443.058594 509.128906 441.410156 509.902344 C 439.761719 510.671875 438.09375 511.402344 436.410156 512.089844 C 434.726562 512.78125 433.027344 513.429688 431.308594 514.035156 C 429.59375 514.640625 427.863281 515.203125 426.121094 515.722656 C 424.375 516.246094 422.621094 516.722656 420.851562 517.15625 C 419.085938 517.589844 417.308594 517.980469 415.523438 518.328125 C 413.734375 518.675781 411.941406 518.980469 410.140625 519.238281 C 408.339844 519.496094 406.53125 519.710938 404.71875 519.882812 C 402.90625 520.050781 401.09375 520.175781 399.273438 520.257812 C 397.457031 520.339844 395.636719 520.375 393.816406 520.363281 C 391.996094 520.355469 390.175781 520.304688 388.359375 520.203125 C 386.542969 520.105469 384.730469 519.964844 382.917969 519.777344 C 381.109375 519.589844 379.304688 519.359375 377.503906 519.082031 C 375.707031 518.804688 373.914062 518.484375 372.132812 518.121094 C 370.347656 517.757812 368.574219 517.347656 366.8125 516.898438 C 365.046875 516.445312 363.296875 515.953125 361.558594 515.414062 C 359.820312 514.878906 358.09375 514.296875 356.386719 513.675781 C 354.675781 513.050781 352.980469 512.390625 351.304688 511.683594 C 349.625 510.976562 347.964844 510.230469 346.324219 509.445312 C 344.683594 508.65625 343.0625 507.828125 341.464844 506.964844 C 339.863281 506.097656 338.285156 505.191406 336.730469 504.246094 C 335.171875 503.300781 333.640625 502.320312 332.132812 501.300781 C 330.625 500.28125 329.144531 499.222656 327.6875 498.132812 C 326.234375 497.039062 324.804688 495.910156 323.40625 494.746094 C 322.003906 493.585938 320.632812 492.390625 319.292969 491.160156 C 317.953125 489.929688 316.640625 488.664062 315.363281 487.371094 M 335.042969 357.457031 C 338.515625 357.457031 341.332031 352.292969 341.332031 345.925781 C 341.332031 339.558594 338.515625 334.398438 335.042969 334.398438 C 331.570312 334.398438 328.753906 339.558594 328.753906 345.925781 C 328.753906 352.292969 331.570312 357.457031 335.042969 357.457031 Z M 450.335938 357.457031 C 453.808594 357.457031 456.625 352.292969 456.625 345.925781 C 456.625 339.558594 453.808594 334.398438 450.335938 334.398438 C 446.863281 334.398438 444.046875 339.558594 444.046875 345.925781 C 444.046875 352.292969 446.863281 357.457031 450.335938 357.457031 Z M 394.621094 436.855469 L 413.5625 416.019531 C 413.820312 415.730469 413.875 415.410156 413.71875 415.054688 C 413.558594 414.699219 413.289062 414.523438 412.898438 414.523438 L 375.015625 414.523438 C 374.628906 414.523438 374.355469 414.699219 374.199219 415.054688 C 374.042969 415.410156 374.09375 415.730469 374.355469 416.019531 L 393.296875 436.855469 C 393.382812 436.949219 393.480469 437.019531 393.597656 437.070312 C 393.710938 437.121094 393.832031 437.148438 393.957031 437.148438 C 394.085938 437.148438 394.203125 437.121094 394.320312 437.070312 C 394.433594 437.019531 394.535156 436.949219 394.621094 436.855469 Z M 394.621094 436.855469 " fill-opacity="1" fill-rule="nonzero"/><path fill="#18b9cd" d="M 359.007812 614.824219 L 311.085938 676.582031 L 285.929688 569.167969 L 315.363281 533.992188 L 315.363281 544.390625 C 315.359375 546.964844 315.484375 549.535156 315.734375 552.097656 C 315.984375 554.660156 316.359375 557.203125 316.863281 559.730469 C 317.363281 562.253906 317.988281 564.75 318.734375 567.214844 C 319.480469 569.679688 320.34375 572.101562 321.332031 574.480469 C 322.316406 576.859375 323.414062 579.183594 324.628906 581.457031 C 325.84375 583.726562 327.164062 585.933594 328.597656 588.074219 C 330.027344 590.214844 331.558594 592.277344 333.195312 594.269531 C 334.828125 596.257812 336.558594 598.164062 338.378906 599.984375 C 339.929688 601.535156 341.566406 603.042969 343.242188 604.425781 C 343.996094 605.097656 344.710938 605.683594 345.507812 606.273438 C 346.136719 606.773438 346.765625 607.277344 347.394531 607.738281 C 348.273438 608.367188 349.15625 608.996094 350.035156 609.582031 C 352.910156 611.527344 355.902344 613.273438 359.007812 614.824219 Z M 472.582031 533.867188 L 472.582031 544.390625 C 472.582031 545.523438 472.542969 546.613281 472.5 547.703125 C 472.347656 551.96875 471.828125 556.1875 470.949219 560.363281 C 470.824219 560.949219 470.738281 561.496094 470.570312 562.082031 C 469.277344 567.765625 467.363281 573.230469 464.828125 578.476562 C 464.492188 579.1875 464.113281 579.941406 463.738281 580.65625 C 462.730469 582.582031 461.640625 584.46875 460.46875 586.316406 C 459.585938 587.742188 458.621094 589.125 457.660156 590.464844 C 456.484375 592.101562 455.269531 593.652344 453.96875 595.203125 C 453.089844 596.210938 452.207031 597.214844 451.328125 598.136719 C 451.074219 598.390625 450.824219 598.683594 450.570312 598.933594 C 449.441406 600.109375 448.265625 601.28125 447.050781 602.371094 L 446.839844 602.582031 C 445.625 603.671875 444.324219 604.761719 443.023438 605.808594 C 441.601562 606.941406 440.175781 607.992188 438.707031 609.039062 C 437.28125 610.046875 435.773438 611.007812 434.261719 611.890625 C 432.878906 612.726562 431.496094 613.484375 430.070312 614.238281 C 429.902344 614.320312 429.734375 614.40625 429.566406 614.488281 L 477.738281 676.582031 L 503.355469 567.199219 Z M 472.582031 533.867188 " fill-opacity="1" fill-rule="nonzero"/></svg>