<svg xmlns="http://www.w3.org/2000/svg" xmlns:xlink="http://www.w3.org/1999/xlink" width="1080" zoomAndPan="magnify" viewBox="0 0 810 809.999993" height="1080" preserveAspectRatio="xMidYMid meet" version="1.0"><defs><clipPath id="052b19ce88"><path d="M 67.5 67.5 L 742.5 67.5 L 742.5 742.5 L 67.5 742.5 Z M 67.5 67.5 " clip-rule="nonzero"/></clipPath><clipPath id="2ecd80786a"><path d="M 131 269 L 716 269 L 716 742.5 L 131 742.5 Z M 131 269 " clip-rule="nonzero"/></clipPath><clipPath id="8438eaf541"><path d="M 178 537 L 681 537 L 681 742.5 L 178 742.5 Z M 178 537 " clip-rule="nonzero"/></clipPath></defs><g clip-path="url(#052b19ce88)"><path fill="#ffde59" d="M 742.363281 405 C 742.378906 416.390625 741.816406 427.753906 740.675781 439.085938 C 739.535156 450.421875 737.824219 461.667969 735.539062 472.828125 C 733.253906 483.984375 730.410156 495 727.003906 505.871094 C 723.597656 516.738281 719.648438 527.410156 715.160156 537.878906 C 663.601562 658.179688 544.136719 742.433594 404.933594 742.433594 C 399.410156 742.433594 393.890625 742.300781 388.375 742.027344 C 382.859375 741.757812 377.351562 741.355469 371.855469 740.8125 C 366.359375 740.273438 360.878906 739.597656 355.417969 738.789062 C 349.953125 737.976562 344.515625 737.035156 339.097656 735.957031 C 333.679688 734.882812 328.292969 733.671875 322.9375 732.332031 C 317.578125 730.992188 312.257812 729.519531 306.972656 727.914062 C 301.6875 726.3125 296.445312 724.582031 291.246094 722.722656 C 286.046875 720.863281 280.894531 718.875 275.792969 716.761719 C 270.691406 714.648438 265.644531 712.414062 260.652344 710.050781 C 255.65625 707.691406 250.726562 705.210938 245.855469 702.605469 C 240.984375 700.003906 236.179688 697.28125 231.445312 694.441406 C 226.707031 691.605469 222.042969 688.652344 217.449219 685.582031 C 212.859375 682.515625 208.34375 679.335938 203.910156 676.046875 C 199.472656 672.757812 195.121094 669.359375 190.851562 665.855469 C 186.582031 662.351562 182.402344 658.746094 178.308594 655.039062 C 174.21875 651.328125 170.21875 647.523438 166.3125 643.617188 C 162.410156 639.710938 158.601562 635.714844 154.894531 631.621094 C 151.183594 627.53125 147.578125 623.351562 144.074219 619.082031 C 140.570312 614.8125 137.175781 610.457031 133.886719 606.023438 C 130.597656 601.585938 127.417969 597.074219 124.347656 592.480469 C 121.28125 587.890625 118.328125 583.226562 115.488281 578.488281 C 112.648438 573.75 109.929688 568.945312 107.324219 564.074219 C 104.722656 559.207031 102.242188 554.273438 99.878906 549.28125 C 97.519531 544.289062 95.28125 539.242188 93.167969 534.140625 C 91.054688 529.035156 89.070312 523.886719 87.210938 518.683594 C 85.351562 513.484375 83.617188 508.242188 82.015625 502.957031 C 80.414062 497.671875 78.941406 492.351562 77.601562 486.996094 C 76.257812 481.636719 75.050781 476.25 73.972656 470.832031 C 72.898438 465.417969 71.953125 459.976562 71.144531 454.515625 C 70.335938 449.050781 69.660156 443.570312 69.117188 438.074219 C 68.578125 432.578125 68.171875 427.074219 67.902344 421.558594 C 67.632812 416.042969 67.5 410.523438 67.5 405 C 67.5 218.636719 218.570312 67.566406 404.933594 67.566406 C 591.296875 67.566406 742.363281 218.636719 742.363281 405 Z M 742.363281 405 " fill-opacity="1" fill-rule="nonzero"/></g><path fill="#ed6e0f" d="M 660.039062 491.851562 C 629.691406 551.75 531.394531 607.292969 408.453125 627.578125 C 294.523438 646.402344 190.902344 629.800781 138.085938 589.898438 C 139.738281 587.113281 141.53125 584.421875 143.460938 581.824219 C 145.394531 579.226562 147.453125 576.738281 149.644531 574.355469 C 151.832031 571.972656 154.140625 569.707031 156.566406 567.566406 C 158.992188 565.421875 161.519531 563.410156 164.15625 561.53125 C 166.789062 559.648438 169.515625 557.910156 172.328125 556.3125 C 175.144531 554.714844 178.035156 553.269531 181 551.972656 C 183.964844 550.675781 186.992188 549.535156 190.074219 548.554688 C 193.160156 547.570312 196.285156 546.75 199.453125 546.09375 L 306.972656 523.710938 L 298.964844 489.253906 L 296.28125 477.601562 L 262.917969 478.691406 C 262.101562 478.6875 261.285156 478.660156 260.46875 478.613281 C 259.652344 478.566406 258.839844 478.496094 258.027344 478.402344 C 257.214844 478.308594 256.40625 478.195312 255.601562 478.058594 C 254.796875 477.917969 253.996094 477.761719 253.199219 477.578125 C 252.402344 477.398438 251.609375 477.195312 250.824219 476.96875 C 250.039062 476.742188 249.261719 476.496094 248.488281 476.226562 C 247.71875 475.960938 246.953125 475.671875 246.199219 475.359375 C 245.441406 475.050781 244.695312 474.71875 243.957031 474.367188 C 243.21875 474.015625 242.492188 473.644531 241.777344 473.253906 C 241.058594 472.863281 240.351562 472.449219 239.660156 472.019531 C 238.964844 471.589844 238.28125 471.140625 237.613281 470.671875 C 236.941406 470.203125 236.285156 469.71875 235.644531 469.214844 C 235 468.707031 234.371094 468.1875 233.757812 467.648438 C 233.144531 467.109375 232.546875 466.554688 231.960938 465.980469 C 231.378906 465.410156 230.8125 464.824219 230.261719 464.21875 C 229.710938 463.617188 229.175781 462.996094 228.660156 462.363281 C 228.140625 461.730469 227.640625 461.085938 227.160156 460.425781 C 226.679688 459.765625 226.21875 459.09375 225.773438 458.40625 C 225.328125 457.722656 224.902344 457.023438 224.496094 456.3125 C 224.09375 455.605469 223.707031 454.886719 223.339844 454.15625 C 222.972656 453.425781 222.628906 452.683594 222.304688 451.933594 C 221.976562 451.183594 221.671875 450.425781 221.390625 449.660156 C 221.105469 448.894531 220.84375 448.121094 220.605469 447.339844 C 220.363281 446.558594 220.144531 445.773438 219.945312 444.980469 C 219.75 444.1875 219.574219 443.390625 219.421875 442.585938 C 219.265625 441.785156 219.136719 440.976562 219.027344 440.167969 C 218.917969 439.359375 218.832031 438.546875 218.765625 437.730469 C 218.703125 436.917969 218.660156 436.101562 218.640625 435.285156 C 218.621094 434.46875 218.625 433.652344 218.652344 432.835938 C 218.679688 432.019531 218.726562 431.203125 218.796875 430.390625 C 218.867188 429.574219 218.960938 428.761719 219.078125 427.953125 C 219.191406 427.144531 219.328125 426.339844 219.488281 425.539062 L 227.496094 385.339844 L 232.820312 358.554688 L 216.515625 356.753906 C 215.808594 356.675781 215.109375 356.546875 214.421875 356.363281 C 213.734375 356.183594 213.066406 355.953125 212.410156 355.671875 C 211.757812 355.390625 211.128906 355.066406 210.523438 354.691406 C 209.917969 354.320312 209.34375 353.902344 208.800781 353.445312 C 208.253906 352.988281 207.75 352.492188 207.277344 351.960938 C 206.808594 351.425781 206.378906 350.863281 205.992188 350.265625 C 205.601562 349.667969 205.261719 349.046875 204.964844 348.402344 C 204.671875 347.753906 204.421875 347.089844 204.226562 346.40625 C 204.027344 345.722656 203.882812 345.03125 203.789062 344.324219 C 203.691406 343.621094 203.648438 342.914062 203.660156 342.203125 C 203.667969 341.492188 203.730469 340.785156 203.84375 340.082031 C 203.957031 339.382812 204.121094 338.691406 204.335938 338.015625 C 204.554688 337.335938 204.816406 336.679688 205.128906 336.039062 C 205.441406 335.402344 205.800781 334.789062 206.203125 334.203125 C 206.605469 333.617188 207.050781 333.066406 207.535156 332.546875 C 208.019531 332.023438 208.539062 331.542969 209.097656 331.101562 L 243.804688 303.476562 L 244.222656 301.339844 C 245.074219 293.503906 246.679688 285.824219 249.042969 278.304688 C 251.40625 270.785156 254.476562 263.570312 258.261719 256.65625 C 265.472656 240.683594 278.507812 226.433594 295.695312 214.988281 C 302.324219 210.578125 309.269531 206.734375 316.53125 203.464844 C 316.65625 203.367188 316.796875 203.296875 316.945312 203.253906 C 319.921875 201.910156 322.984375 200.613281 326.128906 199.398438 C 337.863281 194.976562 349.902344 191.660156 362.242188 189.449219 C 374.585938 187.234375 387.027344 186.164062 399.566406 186.234375 C 481.179688 186.234375 547.324219 230.792969 547.324219 285.789062 C 547.324219 323.347656 516.515625 356 470.992188 372.933594 L 455.777344 413.84375 L 455.777344 413.886719 L 473.214844 489.085938 L 566.480469 469.679688 C 570.535156 468.835938 574.625 468.21875 578.746094 467.824219 C 582.867188 467.429688 587 467.261719 591.140625 467.320312 C 595.28125 467.375 599.40625 467.660156 603.515625 468.171875 C 607.625 468.679688 611.695312 469.410156 615.722656 470.367188 C 619.753906 471.320312 623.71875 472.492188 627.621094 473.882812 C 631.519531 475.273438 635.335938 476.871094 639.0625 478.675781 C 642.789062 480.484375 646.402344 482.488281 649.910156 484.691406 C 653.417969 486.894531 656.792969 489.28125 660.039062 491.851562 Z M 660.039062 491.851562 " fill-opacity="1" fill-rule="nonzero"/><path fill="#242156" d="M 251.808594 360.695312 L 227.496094 385.339844 L 232.820312 358.554688 Z M 543.71875 263.867188 C 528.921875 219.433594 469.988281 186.234375 399.566406 186.234375 C 387.027344 186.164062 374.585938 187.234375 362.242188 189.449219 C 349.902344 191.660156 337.863281 194.976562 326.128906 199.398438 C 360.121094 207.195312 391.308594 233.515625 410.378906 264.996094 C 437.042969 308.96875 448.148438 362.578125 455.734375 413.425781 L 455.820312 413.761719 L 471.539062 489.464844 L 566.480469 469.679688 C 571.425781 468.65625 576.417969 467.964844 581.457031 467.605469 C 586.492188 467.246094 591.53125 467.222656 596.574219 467.535156 C 601.613281 467.84375 606.609375 468.488281 611.566406 469.464844 C 616.519531 470.441406 621.390625 471.742188 626.171875 473.367188 Z M 399.945312 474.289062 L 296.28125 477.601562 L 262.917969 478.691406 C 259.878906 478.691406 256.875 478.371094 253.902344 477.726562 L 239.277344 537.792969 L 306.929688 523.710938 L 298.964844 489.253906 L 394.621094 486.195312 C 397.105469 486.117188 399.566406 485.855469 402.011719 485.410156 C 404.457031 484.96875 406.855469 484.347656 409.207031 483.550781 C 411.5625 482.75 413.839844 481.785156 416.050781 480.648438 C 418.261719 479.511719 420.375 478.21875 422.390625 476.769531 C 424.410156 475.320312 426.308594 473.726562 428.089844 471.996094 C 429.871094 470.265625 431.515625 468.414062 433.023438 466.4375 C 434.53125 464.464844 435.886719 462.386719 437.085938 460.210938 C 438.285156 458.035156 439.320312 455.785156 440.183594 453.457031 L 441.609375 449.640625 C 440.539062 451.457031 439.355469 453.195312 438.066406 454.863281 C 436.773438 456.527344 435.382812 458.105469 433.894531 459.597656 C 432.402344 461.085938 430.824219 462.476562 429.160156 463.769531 C 427.496094 465.0625 425.757812 466.246094 423.941406 467.316406 C 422.128906 468.390625 420.253906 469.347656 418.320312 470.183594 C 416.386719 471.019531 414.40625 471.730469 412.382812 472.320312 C 410.359375 472.90625 408.308594 473.367188 406.226562 473.695312 C 404.144531 474.027344 402.050781 474.222656 399.945312 474.289062 Z M 288.238281 311.433594 C 291.671875 311.960938 295.238281 307.289062 296.210938 300.996094 C 297.179688 294.707031 295.183594 289.175781 291.75 288.648438 C 288.320312 288.117188 284.75 292.789062 283.78125 299.082031 C 282.8125 305.375 284.808594 310.902344 288.238281 311.433594 Z M 288.238281 311.433594 " fill-opacity="1" fill-rule="nonzero"/><g clip-path="url(#2ecd80786a)"><path fill="#e7dcc1" d="M 715.160156 537.878906 C 705.722656 559.90625 694.054688 580.683594 680.160156 600.207031 C 665.644531 620.648438 649.074219 639.261719 630.445312 656.042969 C 622.785156 662.921875 614.824219 669.4375 606.566406 675.589844 C 598.308594 681.742188 589.785156 687.503906 581 692.875 C 572.214844 698.246094 563.203125 703.207031 553.964844 707.75 C 544.722656 712.296875 535.296875 716.414062 525.679688 720.097656 C 516.0625 723.78125 506.300781 727.019531 496.386719 729.808594 C 486.476562 732.597656 476.457031 734.929688 466.332031 736.804688 C 456.203125 738.675781 446.015625 740.082031 435.761719 741.023438 C 425.503906 741.964844 415.230469 742.433594 404.933594 742.433594 C 391.289062 742.429688 377.695312 741.617188 364.148438 740 C 358.402344 739.292969 352.683594 738.441406 346.984375 737.441406 C 341.285156 736.441406 335.613281 735.292969 329.972656 734.003906 C 324.332031 732.710938 318.730469 731.277344 313.164062 729.695312 C 307.59375 728.117188 302.074219 726.398438 296.59375 724.535156 C 291.117188 722.675781 285.6875 720.671875 280.3125 718.53125 C 274.9375 716.390625 269.617188 714.117188 264.359375 711.703125 C 259.097656 709.289062 253.90625 706.742188 248.777344 704.0625 C 243.648438 701.382812 238.589844 698.574219 233.605469 695.636719 C 228.621094 692.695312 223.714844 689.632812 218.890625 686.441406 C 214.0625 683.25 209.320312 679.9375 204.660156 676.503906 C 200.003906 673.070312 195.4375 669.519531 190.960938 665.851562 C 186.488281 662.183594 182.109375 658.40625 177.828125 654.511719 C 173.546875 650.621094 169.367188 646.621094 165.289062 642.515625 C 161.214844 638.40625 157.246094 634.199219 153.382812 629.886719 C 149.523438 625.578125 145.777344 621.171875 142.140625 616.667969 C 138.507812 612.167969 134.988281 607.574219 131.589844 602.890625 C 133.402344 598.382812 135.570312 594.050781 138.085938 589.898438 C 174.21875 617.183594 234.121094 633.617188 304.875 635.167969 C 339.636719 635.863281 374.164062 633.332031 408.453125 627.578125 C 409.332031 627.453125 410.210938 627.285156 411.050781 627.117188 C 532.777344 606.496094 629.902344 551.332031 660.039062 491.851562 C 660.878906 492.4375 661.675781 493.109375 662.46875 493.78125 Z M 491.28125 337.933594 C 492.199219 337.574219 493.097656 337.171875 493.976562 336.722656 C 494.855469 336.277344 495.707031 335.785156 496.539062 335.253906 C 497.367188 334.722656 498.167969 334.152344 498.941406 333.542969 C 499.714844 332.933594 500.457031 332.285156 501.167969 331.605469 C 501.878906 330.921875 502.554688 330.203125 503.191406 329.453125 C 503.832031 328.707031 504.433594 327.925781 504.996094 327.117188 C 505.558594 326.308594 506.082031 325.472656 506.5625 324.613281 C 507.042969 323.753906 507.480469 322.875 507.875 321.96875 C 508.269531 321.066406 508.617188 320.148438 508.921875 319.210938 C 509.226562 318.273438 509.484375 317.324219 509.691406 316.359375 C 509.902344 315.398438 510.066406 314.425781 510.179688 313.449219 C 510.296875 312.46875 510.363281 311.488281 510.378906 310.503906 C 510.398438 309.515625 510.367188 308.535156 510.289062 307.550781 C 510.210938 306.570312 510.085938 305.59375 509.910156 304.625 C 509.734375 303.652344 509.515625 302.695312 509.246094 301.746094 C 508.976562 300.800781 508.660156 299.867188 508.300781 298.949219 L 477.113281 311.148438 C 477.449219 310.476562 477.785156 309.765625 478.078125 309.011719 C 478.441406 308.09375 478.761719 307.160156 479.03125 306.214844 C 479.304688 305.265625 479.53125 304.308594 479.707031 303.335938 C 479.886719 302.367188 480.015625 301.390625 480.097656 300.410156 C 480.179688 299.425781 480.214844 298.441406 480.199219 297.457031 C 480.1875 296.472656 480.125 295.488281 480.011719 294.507812 C 479.902344 293.527344 479.742188 292.554688 479.535156 291.59375 C 479.332031 290.628906 479.078125 289.675781 478.777344 288.738281 C 478.480469 287.796875 478.132812 286.875 477.742188 285.96875 C 477.351562 285.0625 476.917969 284.179688 476.441406 283.316406 C 475.964844 282.453125 475.449219 281.617188 474.890625 280.804688 C 474.328125 279.992188 473.730469 279.210938 473.097656 278.457031 C 472.460938 277.703125 471.789062 276.984375 471.082031 276.296875 C 470.375 275.605469 469.636719 274.957031 468.867188 274.339844 C 468.09375 273.726562 467.296875 273.148438 466.46875 272.613281 C 465.644531 272.078125 464.792969 271.582031 463.914062 271.128906 C 463.039062 270.675781 462.144531 270.265625 461.226562 269.902344 L 449.15625 300.292969 C 448.632812 299.027344 448.023438 297.800781 447.332031 296.621094 C 446.640625 295.4375 445.871094 294.308594 445.027344 293.230469 C 444.179688 292.152344 443.265625 291.140625 442.28125 290.1875 C 441.296875 289.234375 440.253906 288.351562 439.148438 287.542969 C 438.042969 286.730469 436.890625 286 435.6875 285.347656 C 434.480469 284.695312 433.238281 284.128906 431.957031 283.644531 C 430.675781 283.160156 429.367188 282.769531 428.03125 282.464844 C 426.695312 282.160156 425.347656 281.945312 423.984375 281.824219 C 422.617188 281.707031 421.253906 281.679688 419.882812 281.746094 C 418.515625 281.808594 417.160156 281.96875 415.8125 282.21875 C 414.464844 282.472656 413.144531 282.8125 411.84375 283.242188 C 410.542969 283.675781 409.277344 284.195312 408.050781 284.796875 C 406.820312 285.402344 405.636719 286.085938 404.503906 286.851562 C 403.367188 287.617188 402.289062 288.457031 401.265625 289.367188 C 400.246094 290.28125 399.292969 291.257812 398.402344 292.300781 C 397.515625 293.34375 396.703125 294.441406 395.964844 295.597656 L 423.335938 313.035156 C 422.023438 313.179688 420.722656 313.414062 419.441406 313.730469 C 418.160156 314.046875 416.902344 314.449219 415.671875 314.933594 C 414.445312 315.414062 413.25 315.976562 412.097656 316.617188 C 410.941406 317.257812 409.832031 317.972656 408.769531 318.757812 C 407.710938 319.546875 406.703125 320.398438 405.757812 321.320312 C 404.808594 322.238281 403.921875 323.214844 403.101562 324.253906 C 402.285156 325.289062 401.535156 326.375 400.859375 327.507812 C 400.183594 328.644531 399.582031 329.820312 399.0625 331.03125 C 398.539062 332.246094 398.101562 333.488281 397.742188 334.761719 C 397.386719 336.03125 397.113281 337.324219 396.925781 338.628906 C 396.738281 339.9375 396.636719 341.253906 396.625 342.574219 C 396.609375 343.894531 396.683594 345.210938 396.839844 346.523438 C 397 347.835938 397.246094 349.128906 397.578125 350.410156 C 397.90625 351.6875 398.320312 352.941406 398.816406 354.164062 C 399.3125 355.390625 399.886719 356.578125 400.539062 357.726562 C 401.191406 358.875 401.914062 359.976562 402.710938 361.027344 L 426.5625 343.046875 C 425.484375 345.261719 424.714844 347.582031 424.257812 350.003906 C 424.066406 350.972656 423.925781 351.945312 423.832031 352.925781 C 423.738281 353.910156 423.691406 354.890625 423.695312 355.878906 C 423.695312 356.863281 423.746094 357.847656 423.847656 358.828125 C 423.945312 359.808594 424.09375 360.78125 424.285156 361.746094 C 424.480469 362.710938 424.722656 363.667969 425.011719 364.609375 C 425.300781 365.550781 425.632812 366.476562 426.011719 367.386719 C 426.390625 368.296875 426.8125 369.1875 427.28125 370.054688 C 427.746094 370.921875 428.253906 371.765625 428.804688 372.585938 C 429.355469 373.402344 429.941406 374.191406 430.570312 374.953125 C 431.195312 375.714844 431.859375 376.441406 432.558594 377.136719 C 433.253906 377.832031 433.984375 378.492188 434.75 379.113281 C 435.511719 379.738281 436.304688 380.324219 437.125 380.871094 C 437.945312 381.414062 438.789062 381.917969 439.660156 382.382812 C 440.53125 382.84375 441.421875 383.265625 442.332031 383.640625 C 443.246094 384.015625 444.171875 384.34375 445.117188 384.628906 C 446.058594 384.914062 447.015625 385.152344 447.980469 385.339844 L 455.066406 349.375 C 455.523438 350.722656 456.074219 352.03125 456.714844 353.300781 C 457.359375 354.570312 458.089844 355.789062 458.90625 356.953125 C 459.722656 358.121094 460.613281 359.222656 461.585938 360.261719 C 462.558594 361.300781 463.601562 362.265625 464.710938 363.15625 C 465.820312 364.046875 466.988281 364.855469 468.210938 365.582031 C 469.4375 366.304688 470.707031 366.941406 472.019531 367.484375 C 473.335938 368.03125 474.679688 368.480469 476.058594 368.832031 C 477.4375 369.1875 478.835938 369.441406 480.25 369.597656 C 481.664062 369.753906 483.082031 369.808594 484.503906 369.761719 C 485.925781 369.714844 487.335938 369.570312 488.738281 369.324219 C 490.140625 369.078125 491.519531 368.730469 492.871094 368.289062 C 494.222656 367.847656 495.539062 367.3125 496.8125 366.683594 C 498.089844 366.054688 499.316406 365.339844 500.492188 364.535156 C 501.667969 363.734375 502.777344 362.851562 503.828125 361.890625 C 504.878906 360.929688 505.855469 359.902344 506.757812 358.800781 C 507.660156 357.703125 508.484375 356.542969 509.222656 355.328125 L 483.738281 339.820312 C 486.332031 339.511719 488.847656 338.882812 491.28125 337.933594 Z M 491.28125 337.933594 " fill-opacity="1" fill-rule="nonzero"/></g><g clip-path="url(#8438eaf541)"><path fill="#ff5e64" d="M 533.542969 670.496094 C 533.542969 669.890625 533.601562 669.289062 533.71875 668.691406 C 533.839844 668.09375 534.011719 667.515625 534.246094 666.957031 C 534.480469 666.394531 534.765625 665.859375 535.101562 665.355469 C 535.4375 664.851562 535.824219 664.382812 536.253906 663.953125 C 536.683594 663.523438 537.148438 663.140625 537.65625 662.800781 C 538.160156 662.464844 538.695312 662.179688 539.253906 661.945312 C 539.816406 661.714844 540.394531 661.539062 540.992188 661.417969 C 541.589844 661.300781 542.191406 661.242188 542.796875 661.242188 C 543.40625 661.242188 544.007812 661.300781 544.605469 661.417969 C 545.199219 661.539062 545.777344 661.714844 546.339844 661.945312 C 546.902344 662.179688 547.433594 662.464844 547.941406 662.800781 C 548.445312 663.140625 548.914062 663.523438 549.34375 663.953125 C 549.773438 664.382812 550.15625 664.851562 550.492188 665.355469 C 550.832031 665.859375 551.117188 666.394531 551.347656 666.957031 C 551.582031 667.515625 551.757812 668.09375 551.875 668.691406 C 551.996094 669.289062 552.054688 669.890625 552.054688 670.496094 C 552.054688 671.105469 551.996094 671.707031 551.875 672.304688 C 551.757812 672.898438 551.582031 673.476562 551.347656 674.039062 C 551.117188 674.601562 550.832031 675.132812 550.492188 675.640625 C 550.15625 676.144531 549.773438 676.613281 549.34375 677.042969 C 548.914062 677.472656 548.445312 677.855469 547.941406 678.195312 C 547.433594 678.53125 546.902344 678.816406 546.339844 679.050781 C 545.777344 679.28125 545.199219 679.457031 544.601562 679.574219 C 544.007812 679.695312 543.40625 679.753906 542.796875 679.753906 C 542.191406 679.753906 541.589844 679.695312 540.992188 679.574219 C 540.394531 679.457031 539.816406 679.28125 539.253906 679.050781 C 538.695312 678.816406 538.160156 678.53125 537.65625 678.195312 C 537.148438 677.855469 536.683594 677.472656 536.253906 677.042969 C 535.824219 676.613281 535.4375 676.144531 535.101562 675.640625 C 534.765625 675.132812 534.480469 674.601562 534.246094 674.039062 C 534.011719 673.476562 533.839844 672.898438 533.71875 672.304688 C 533.601562 671.707031 533.542969 671.105469 533.542969 670.496094 Z M 476.148438 644.582031 C 476.757812 644.582031 477.359375 644.519531 477.957031 644.402344 C 478.550781 644.285156 479.128906 644.109375 479.691406 643.875 C 480.253906 643.644531 480.785156 643.359375 481.292969 643.019531 C 481.796875 642.683594 482.265625 642.300781 482.695312 641.871094 C 483.125 641.441406 483.507812 640.972656 483.847656 640.46875 C 484.183594 639.960938 484.46875 639.429688 484.703125 638.867188 C 484.933594 638.304688 485.109375 637.726562 485.226562 637.128906 C 485.347656 636.535156 485.40625 635.933594 485.40625 635.324219 C 485.40625 634.71875 485.347656 634.113281 485.226562 633.519531 C 485.109375 632.921875 484.933594 632.34375 484.703125 631.78125 C 484.46875 631.222656 484.183594 630.6875 483.847656 630.183594 C 483.507812 629.675781 483.125 629.210938 482.695312 628.78125 C 482.265625 628.351562 481.796875 627.964844 481.292969 627.628906 C 480.785156 627.289062 480.253906 627.003906 479.691406 626.773438 C 479.128906 626.539062 478.550781 626.363281 477.957031 626.246094 C 477.359375 626.128906 476.757812 626.070312 476.148438 626.070312 C 475.542969 626.070312 474.941406 626.128906 474.34375 626.246094 C 473.75 626.363281 473.167969 626.539062 472.609375 626.773438 C 472.046875 627.003906 471.511719 627.289062 471.007812 627.628906 C 470.503906 627.964844 470.035156 628.351562 469.605469 628.78125 C 469.175781 629.210938 468.792969 629.675781 468.453125 630.183594 C 468.117188 630.6875 467.832031 631.222656 467.597656 631.78125 C 467.367188 632.34375 467.191406 632.921875 467.070312 633.519531 C 466.953125 634.113281 466.894531 634.71875 466.894531 635.324219 C 466.894531 635.933594 466.953125 636.535156 467.070312 637.128906 C 467.191406 637.726562 467.367188 638.304688 467.597656 638.867188 C 467.832031 639.429688 468.117188 639.960938 468.453125 640.46875 C 468.792969 640.972656 469.175781 641.441406 469.605469 641.871094 C 470.035156 642.300781 470.503906 642.683594 471.007812 643.019531 C 471.511719 643.359375 472.046875 643.644531 472.609375 643.875 C 473.167969 644.109375 473.75 644.285156 474.34375 644.402344 C 474.941406 644.519531 475.542969 644.582031 476.148438 644.582031 Z M 341.640625 718.03125 C 342.246094 718.03125 342.847656 717.96875 343.445312 717.851562 C 344.042969 717.734375 344.621094 717.558594 345.179688 717.324219 C 345.742188 717.09375 346.277344 716.808594 346.78125 716.46875 C 347.285156 716.132812 347.753906 715.75 348.183594 715.320312 C 348.613281 714.890625 348.996094 714.421875 349.335938 713.914062 C 349.671875 713.410156 349.957031 712.878906 350.191406 712.316406 C 350.421875 711.753906 350.597656 711.175781 350.71875 710.578125 C 350.835938 709.984375 350.894531 709.382812 350.894531 708.773438 C 350.894531 708.164062 350.835938 707.5625 350.71875 706.96875 C 350.597656 706.371094 350.421875 705.792969 350.191406 705.230469 C 349.957031 704.667969 349.671875 704.136719 349.335938 703.632812 C 348.996094 703.125 348.613281 702.65625 348.183594 702.226562 C 347.753906 701.796875 347.285156 701.414062 346.78125 701.078125 C 346.277344 700.738281 345.742188 700.453125 345.179688 700.222656 C 344.621094 699.988281 344.042969 699.8125 343.445312 699.695312 C 342.847656 699.578125 342.246094 699.515625 341.640625 699.515625 C 341.03125 699.515625 340.429688 699.578125 339.832031 699.695312 C 339.238281 699.8125 338.660156 699.988281 338.097656 700.222656 C 337.535156 700.453125 337.003906 700.738281 336.496094 701.078125 C 335.992188 701.414062 335.523438 701.796875 335.09375 702.226562 C 334.664062 702.65625 334.28125 703.125 333.941406 703.632812 C 333.605469 704.136719 333.320312 704.667969 333.085938 705.230469 C 332.855469 705.792969 332.679688 706.371094 332.5625 706.96875 C 332.441406 707.5625 332.382812 708.164062 332.382812 708.773438 C 332.382812 709.382812 332.441406 709.984375 332.5625 710.578125 C 332.679688 711.175781 332.855469 711.753906 333.085938 712.316406 C 333.320312 712.878906 333.605469 713.410156 333.941406 713.914062 C 334.28125 714.421875 334.664062 714.886719 335.09375 715.320312 C 335.523438 715.75 335.992188 716.132812 336.496094 716.46875 C 337.003906 716.808594 337.535156 717.09375 338.097656 717.324219 C 338.660156 717.558594 339.238281 717.734375 339.832031 717.851562 C 340.429688 717.96875 341.03125 718.03125 341.640625 718.03125 Z M 257.800781 670.160156 C 258.410156 670.160156 259.011719 670.097656 259.609375 669.980469 C 260.203125 669.863281 260.78125 669.6875 261.34375 669.453125 C 261.90625 669.222656 262.441406 668.9375 262.945312 668.597656 C 263.449219 668.261719 263.917969 667.878906 264.347656 667.449219 C 264.777344 667.019531 265.160156 666.550781 265.5 666.042969 C 265.835938 665.539062 266.121094 665.007812 266.355469 664.445312 C 266.585938 663.882812 266.761719 663.304688 266.878906 662.707031 C 267 662.113281 267.058594 661.511719 267.058594 660.902344 C 267.058594 660.292969 267 659.691406 266.878906 659.097656 C 266.761719 658.5 266.585938 657.921875 266.355469 657.359375 C 266.121094 656.796875 265.835938 656.265625 265.5 655.761719 C 265.160156 655.253906 264.777344 654.789062 264.347656 654.355469 C 263.917969 653.925781 263.449219 653.542969 262.945312 653.207031 C 262.441406 652.867188 261.90625 652.582031 261.34375 652.351562 C 260.78125 652.117188 260.203125 651.941406 259.609375 651.824219 C 259.011719 651.707031 258.410156 651.644531 257.800781 651.644531 C 257.195312 651.644531 256.59375 651.707031 255.996094 651.824219 C 255.402344 651.941406 254.820312 652.117188 254.261719 652.351562 C 253.699219 652.582031 253.164062 652.867188 252.660156 653.207031 C 252.15625 653.542969 251.6875 653.925781 251.257812 654.355469 C 250.828125 654.789062 250.445312 655.253906 250.105469 655.761719 C 249.769531 656.265625 249.484375 656.796875 249.25 657.359375 C 249.019531 657.921875 248.84375 658.5 248.722656 659.097656 C 248.605469 659.691406 248.546875 660.292969 248.546875 660.902344 C 248.546875 661.511719 248.605469 662.113281 248.722656 662.707031 C 248.84375 663.304688 249.019531 663.882812 249.25 664.445312 C 249.484375 665.007812 249.769531 665.539062 250.105469 666.042969 C 250.445312 666.550781 250.828125 667.019531 251.257812 667.449219 C 251.6875 667.878906 252.15625 668.261719 252.660156 668.597656 C 253.164062 668.9375 253.699219 669.222656 254.261719 669.453125 C 254.820312 669.6875 255.402344 669.863281 255.996094 669.980469 C 256.59375 670.097656 257.195312 670.160156 257.800781 670.160156 Z M 660.039062 556.304688 C 660.644531 556.304688 661.25 556.246094 661.84375 556.128906 C 662.441406 556.007812 663.019531 555.832031 663.582031 555.601562 C 664.140625 555.367188 664.675781 555.082031 665.179688 554.746094 C 665.6875 554.40625 666.152344 554.023438 666.582031 553.59375 C 667.011719 553.164062 667.398438 552.695312 667.734375 552.191406 C 668.074219 551.6875 668.359375 551.152344 668.589844 550.589844 C 668.824219 550.03125 669 549.453125 669.117188 548.855469 C 669.234375 548.257812 669.292969 547.65625 669.292969 547.050781 C 669.292969 546.441406 669.234375 545.839844 669.117188 545.242188 C 669 544.648438 668.824219 544.070312 668.589844 543.507812 C 668.359375 542.945312 668.074219 542.414062 667.734375 541.90625 C 667.398438 541.402344 667.011719 540.933594 666.582031 540.503906 C 666.152344 540.074219 665.6875 539.691406 665.179688 539.351562 C 664.675781 539.015625 664.140625 538.730469 663.582031 538.496094 C 663.019531 538.265625 662.441406 538.089844 661.84375 537.972656 C 661.25 537.851562 660.644531 537.792969 660.039062 537.792969 C 659.429688 537.792969 658.828125 537.851562 658.234375 537.972656 C 657.636719 538.089844 657.058594 538.265625 656.496094 538.496094 C 655.933594 538.730469 655.402344 539.015625 654.894531 539.351562 C 654.390625 539.691406 653.921875 540.074219 653.492188 540.503906 C 653.0625 540.933594 652.679688 541.402344 652.34375 541.90625 C 652.003906 542.414062 651.71875 542.945312 651.488281 543.507812 C 651.253906 544.070312 651.078125 544.648438 650.960938 545.242188 C 650.839844 545.839844 650.78125 546.441406 650.78125 547.050781 C 650.78125 547.65625 650.84375 548.257812 650.960938 548.855469 C 651.078125 549.453125 651.253906 550.03125 651.488281 550.589844 C 651.71875 551.152344 652.003906 551.6875 652.34375 552.191406 C 652.679688 552.695312 653.0625 553.164062 653.492188 553.59375 C 653.921875 554.023438 654.390625 554.40625 654.894531 554.746094 C 655.402344 555.082031 655.933594 555.367188 656.496094 555.601562 C 657.058594 555.832031 657.636719 556.007812 658.234375 556.128906 C 658.828125 556.246094 659.429688 556.304688 660.039062 556.304688 Z M 475.101562 660.902344 C 423.585938 661.660156 380.828125 692.339844 364.148438 740 C 377.695312 741.617188 391.289062 742.429688 404.933594 742.433594 C 420.117188 742.433594 435.238281 741.414062 450.285156 739.371094 C 454.667969 735.378906 458.742188 731.09375 462.503906 726.515625 C 466.265625 721.933594 469.679688 717.105469 472.746094 712.03125 C 475.8125 706.957031 478.496094 701.691406 480.800781 696.230469 C 483.105469 690.765625 485.007812 685.167969 486.503906 679.429688 L 487.296875 676.457031 C 489.308594 668.992188 482.898438 660.777344 475.101562 660.902344 Z M 567.277344 595.808594 L 558.640625 600.039062 C 551.136719 603.730469 549.714844 615.171875 556.085938 620.496094 L 565.054688 628 C 569.648438 631.90625 574.507812 635.449219 579.632812 638.628906 C 584.757812 641.808594 590.089844 644.585938 595.632812 646.960938 C 601.171875 649.339844 606.863281 651.289062 612.695312 652.808594 C 618.53125 654.332031 624.449219 655.410156 630.445312 656.042969 C 649.074219 639.261719 665.644531 620.648438 680.160156 600.207031 C 646.207031 579.585938 604.710938 577.445312 567.277344 595.808594 Z M 408.453125 627.578125 C 374.164062 633.332031 339.636719 635.863281 304.875 635.167969 C 301.203125 641.132812 298.058594 647.363281 295.445312 653.863281 L 291.882812 662.75 C 288.738281 670.503906 295.320312 679.976562 303.617188 679.683594 L 315.3125 679.261719 C 354.96875 677.921875 389.546875 658.597656 411.050781 627.117188 C 410.210938 627.285156 409.332031 627.453125 408.453125 627.578125 Z M 202.554688 635.460938 L 199.914062 633.867188 C 193.292969 629.800781 183.652344 633.65625 181.554688 641.160156 C 180.277344 645.757812 179.253906 650.410156 178.496094 655.121094 C 190.367188 665.902344 202.949219 675.789062 216.234375 684.777344 C 229.519531 693.765625 243.375 701.765625 257.800781 708.773438 C 250.132812 678.84375 230.890625 652.730469 202.554688 635.460938 Z M 202.554688 635.460938 " fill-opacity="1" fill-rule="nonzero"/></g></svg>