<svg xmlns="http://www.w3.org/2000/svg" xmlns:xlink="http://www.w3.org/1999/xlink" width="1080" zoomAndPan="magnify" viewBox="0 0 810 809.999993" height="1080" preserveAspectRatio="xMidYMid meet" version="1.0"><defs><clipPath id="43fdf9f19b"><path d="M 67.5 49 L 742.5 49 L 742.5 724 L 67.5 724 Z M 67.5 49 " clip-rule="nonzero"/></clipPath></defs><g clip-path="url(#43fdf9f19b)"><path fill="#cb6ce6" d="M 742.324219 386.417969 C 742.355469 406.707031 740.5625 426.828125 736.945312 446.789062 C 733.328125 466.75 727.945312 486.222656 720.796875 505.207031 C 717.105469 514.996094 712.984375 524.5625 708.4375 533.910156 C 708.269531 534.285156 708.0625 534.65625 707.898438 535.03125 C 707.609375 535.652344 707.277344 536.273438 706.984375 536.855469 C 701.652344 547.636719 695.734375 558.089844 689.234375 568.210938 C 679.90625 582.800781 669.496094 596.570312 658 609.523438 C 657.503906 610.101562 656.964844 610.683594 656.46875 611.265625 C 653.605469 614.5 650.703125 617.609375 647.675781 620.722656 L 647.425781 620.96875 C 645.183594 623.292969 642.902344 625.613281 640.582031 627.855469 C 638.757812 629.636719 636.929688 631.378906 635.066406 633.121094 C 633.53125 634.617188 631.914062 636.066406 630.335938 637.476562 C 626.066406 641.375 621.625 645.109375 617.148438 648.800781 L 617.105469 648.800781 C 612.980469 652.136719 608.777344 655.375 604.496094 658.511719 C 600.21875 661.652344 595.867188 664.6875 591.445312 667.621094 C 587.023438 670.554688 582.535156 673.378906 577.976562 676.101562 C 573.421875 678.824219 568.804688 681.4375 564.125 683.9375 C 559.445312 686.441406 554.710938 688.835938 549.917969 691.113281 C 545.128906 693.394531 540.285156 695.558594 535.390625 697.613281 C 530.496094 699.664062 525.554688 701.597656 520.570312 703.417969 C 515.585938 705.234375 510.558594 706.933594 505.492188 708.515625 C 500.429688 710.097656 495.328125 711.558594 490.195312 712.898438 C 485.058594 714.242188 479.894531 715.460938 474.703125 716.554688 C 469.511719 717.652344 464.296875 718.628906 459.058594 719.480469 C 453.820312 720.328125 448.566406 721.058594 443.292969 721.660156 C 438.019531 722.261719 432.738281 722.742188 427.441406 723.09375 C 422.148438 723.449219 416.847656 723.679688 411.542969 723.78125 C 406.234375 723.886719 400.929688 723.863281 395.625 723.71875 C 390.320312 723.570312 385.023438 723.300781 379.730469 722.902344 C 374.441406 722.507812 369.160156 721.984375 363.894531 721.339844 C 358.625 720.695312 353.375 719.925781 348.144531 719.03125 C 342.914062 718.136719 337.707031 717.121094 332.523438 715.984375 C 327.339844 714.84375 322.1875 713.582031 317.066406 712.199219 C 311.941406 710.820312 306.851562 709.316406 301.800781 707.695312 C 296.746094 706.070312 291.734375 704.332031 286.765625 702.472656 C 281.796875 700.613281 276.871094 698.640625 271.992188 696.546875 C 267.117188 694.457031 262.289062 692.253906 257.515625 689.933594 C 252.746094 687.617188 248.027344 685.183594 243.371094 682.644531 C 238.710938 680.101562 234.113281 677.453125 229.582031 674.695312 C 225.046875 671.9375 220.582031 669.074219 216.183594 666.105469 C 211.785156 663.136719 207.457031 660.066406 203.203125 656.894531 C 198.949219 653.71875 194.773438 650.449219 190.675781 647.078125 C 186.574219 643.707031 182.558594 640.246094 178.621094 636.683594 C 174.6875 633.125 170.835938 629.476562 167.074219 625.734375 C 163.308594 621.992188 159.636719 618.164062 156.050781 614.25 C 155.554688 613.710938 155.097656 613.214844 154.601562 612.675781 C 152.609375 610.515625 150.703125 608.320312 148.792969 606.078125 C 138.691406 594.328125 129.445312 581.941406 121.046875 568.917969 C 120.882812 568.628906 120.703125 568.355469 120.507812 568.085938 C 120.425781 567.921875 120.339844 567.839844 120.257812 567.671875 C 117.9375 564.0625 115.695312 560.371094 113.539062 556.679688 C 106.019531 543.824219 99.382812 530.527344 93.628906 516.792969 C 87.875 503.054688 83.054688 488.996094 79.164062 474.621094 C 75.277344 460.242188 72.359375 445.671875 70.40625 430.90625 C 68.453125 416.140625 67.484375 401.3125 67.5 386.417969 C 67.5 200.066406 218.558594 49.007812 404.910156 49.007812 C 579.570312 49.007812 723.242188 181.734375 740.582031 351.828125 C 741.75 363.328125 742.328125 374.859375 742.324219 386.417969 Z M 742.324219 386.417969 " fill-opacity="1" fill-rule="nonzero"/></g><path fill="#fcc00a" d="M 689.234375 568.210938 C 679.90625 582.800781 669.496094 596.570312 658 609.523438 C 657.503906 610.101562 656.964844 610.683594 656.46875 611.265625 C 653.605469 614.5 650.703125 617.609375 647.675781 620.722656 L 647.425781 620.96875 C 645.765625 622.710938 644.066406 624.453125 642.324219 626.152344 L 642.035156 626.402344 C 641.578125 626.902344 641.078125 627.398438 640.582031 627.855469 C 638.757812 629.636719 636.929688 631.378906 635.066406 633.121094 C 633.53125 634.617188 631.914062 636.066406 630.335938 637.476562 C 626.066406 641.375 621.625 645.109375 617.148438 648.800781 L 617.105469 648.800781 C 612.710938 652.367188 608.230469 655.808594 603.667969 659.128906 L 603.460938 659.292969 C 587.703125 670.820312 571.058594 680.871094 553.523438 689.445312 C 540.917969 695.675781 527.960938 701.070312 514.660156 705.625 C 507.070312 708.277344 499.3125 710.601562 491.472656 712.675781 C 477.34375 716.390625 463.03125 719.1875 448.542969 721.0625 C 434.050781 722.9375 419.503906 723.871094 404.890625 723.871094 C 390.28125 723.871094 375.730469 722.9375 361.238281 721.0625 C 346.75 719.1875 332.4375 716.390625 318.308594 712.675781 C 310.761719 710.683594 303.320312 708.414062 295.996094 705.871094 C 282.675781 701.371094 269.707031 696.019531 257.089844 689.820312 C 239.5625 681.277344 222.914062 671.265625 207.152344 659.792969 C 202.960938 656.765625 198.816406 653.613281 194.75 650.375 C 185.53125 643.015625 176.707031 635.203125 168.289062 626.941406 C 164.097656 622.835938 160.035156 618.605469 156.050781 614.25 C 155.554688 613.710938 155.097656 613.214844 154.601562 612.675781 C 152.609375 610.515625 150.703125 608.320312 148.792969 606.078125 C 138.691406 594.328125 129.445312 581.941406 121.046875 568.917969 C 120.882812 568.628906 120.703125 568.355469 120.507812 568.085938 C 120.425781 567.921875 120.339844 567.839844 120.257812 567.671875 L 168.289062 552.53125 L 207.152344 540.296875 L 257.089844 524.578125 L 295.996094 512.34375 L 318.597656 505.207031 L 491.679688 505.207031 L 514.660156 512.550781 L 553.523438 524.949219 L 603.460938 540.835938 L 642.324219 553.238281 Z M 689.234375 568.210938 " fill-opacity="1" fill-rule="nonzero"/><path fill="#f47e53" d="M 520.507812 327.316406 L 520.507812 386.003906 C 520.507812 388.585938 520.261719 391.144531 519.777344 393.675781 C 519.289062 396.210938 518.570312 398.675781 517.613281 401.074219 C 516.660156 403.472656 515.484375 405.757812 514.097656 407.929688 C 512.707031 410.105469 511.125 412.128906 509.351562 414 L 491.472656 432.832031 L 491.472656 505.347656 L 453.933594 619.726562 L 453.582031 720.390625 C 437.417969 722.714844 421.171875 723.875 404.839844 723.871094 C 388.511719 723.871094 372.265625 722.703125 356.101562 720.371094 L 356.011719 619.726562 L 318.308594 504.578125 L 318.308594 432.832031 L 300.433594 414 C 298.65625 412.128906 297.074219 410.105469 295.683594 407.933594 C 294.292969 405.757812 293.117188 403.472656 292.164062 401.074219 C 291.207031 398.679688 290.488281 396.210938 290 393.679688 C 289.515625 391.144531 289.273438 388.585938 289.273438 386.003906 L 289.273438 279.203125 C 290.773438 277.207031 292.402344 275.324219 294.167969 273.5625 C 299.894531 267.921875 306.777344 263.648438 313.746094 259.75 C 335.8125 247.347656 359.867188 237.601562 378.324219 220.304688 C 387.410156 211.761719 395.371094 199.734375 392.511719 187.621094 C 421.003906 188.660156 446.054688 201.601562 457.628906 223.5 C 467.832031 242.785156 466.878906 266.136719 475.007812 286.378906 C 476.382812 289.875 478.035156 293.238281 479.953125 296.46875 C 481.875 299.699219 484.042969 302.753906 486.457031 305.632812 C 488.871094 308.511719 491.5 311.179688 494.347656 313.632812 C 497.191406 316.089844 500.214844 318.296875 503.417969 320.265625 C 508.761719 323.46875 514.457031 325.820312 520.507812 327.316406 Z M 520.507812 327.316406 " fill-opacity="1" fill-rule="nonzero"/><path fill="#242156" d="M 572.105469 477.957031 C 559.867188 469.582031 553.066406 451.746094 561.152344 439.300781 C 564.804688 433.660156 570.695312 430.011719 575.546875 425.367188 C 576.898438 424.035156 578.167969 422.625 579.347656 421.136719 C 580.53125 419.648438 581.617188 418.09375 582.605469 416.472656 C 583.597656 414.855469 584.484375 413.179688 585.273438 411.449219 C 586.058594 409.722656 586.734375 407.949219 587.304688 406.136719 C 587.875 404.328125 588.332031 402.488281 588.675781 400.617188 C 589.019531 398.75 589.246094 396.867188 589.359375 394.972656 C 589.472656 393.078125 589.472656 391.179688 589.351562 389.285156 C 589.234375 387.390625 589 385.507812 588.652344 383.640625 C 586.082031 370.492188 577.785156 358.921875 576.003906 345.648438 C 573.722656 329.097656 581.769531 313.046875 584.796875 296.625 C 585.285156 293.882812 585.632812 291.125 585.84375 288.351562 C 586.054688 285.578125 586.125 282.796875 586.054688 280.015625 C 585.984375 277.234375 585.777344 274.460938 585.429688 271.703125 C 585.078125 268.941406 584.59375 266.203125 583.96875 263.492188 C 583.347656 260.78125 582.585938 258.105469 581.695312 255.46875 C 580.800781 252.835938 579.777344 250.25 578.625 247.71875 C 577.472656 245.183594 576.195312 242.71875 574.792969 240.3125 C 573.390625 237.910156 571.875 235.582031 570.238281 233.328125 C 564.472656 225.53125 557.296875 218.648438 552.941406 209.9375 C 548.214844 200.523438 547.257812 189.738281 544.523438 179.535156 C 543.554688 176.074219 542.386719 172.679688 541.015625 169.355469 C 539.644531 166.035156 538.082031 162.804688 536.328125 159.667969 C 534.574219 156.527344 532.640625 153.503906 530.527344 150.597656 C 528.417969 147.6875 526.140625 144.917969 523.695312 142.277344 C 521.253906 139.640625 518.664062 137.15625 515.929688 134.828125 C 513.191406 132.496094 510.328125 130.335938 507.332031 128.347656 C 504.339844 126.355469 501.238281 124.550781 498.03125 122.925781 C 494.824219 121.304688 491.53125 119.878906 488.15625 118.648438 C 461.070312 109.066406 429.339844 113.628906 413 131.296875 C 389.234375 106.785156 346.761719 103.550781 319.636719 124.246094 C 302.257812 137.476562 292.09375 157.757812 280.359375 176.214844 C 272.128906 189.191406 262.949219 201.453125 252.816406 213.007812 C 237.761719 230.136719 220.300781 246.230469 212.046875 267.507812 C 210.492188 271.578125 209.304688 275.753906 208.484375 280.035156 C 207.667969 284.320312 207.230469 288.636719 207.171875 292.996094 C 207.117188 297.355469 207.441406 301.6875 208.148438 305.988281 C 208.855469 310.289062 209.933594 314.496094 211.382812 318.605469 C 215.488281 330.09375 222.332031 340.339844 227.597656 351.332031 C 232.867188 362.320312 236.558594 374.804688 233.695312 386.667969 C 231.289062 396.539062 224.613281 404.835938 221.542969 414.5 C 215.820312 432.667969 225.152344 454.359375 242.28125 462.613281 C 246.59375 464.6875 251.65625 466.386719 253.648438 470.699219 C 255.84375 475.386719 253.230469 480.945312 249.996094 484.96875 C 246.71875 488.992188 242.613281 492.640625 241.246094 497.660156 C 238.175781 508.734375 249.871094 518.230469 260.574219 522.421875 C 261.113281 522.628906 261.609375 522.835938 262.148438 523.003906 L 318.308594 505.292969 L 318.308594 446.3125 L 364.886719 495.335938 C 366.789062 497.335938 368.871094 499.121094 371.136719 500.695312 C 373.402344 502.269531 375.800781 503.597656 378.335938 504.6875 C 380.867188 505.773438 383.488281 506.59375 386.1875 507.152344 C 388.890625 507.707031 391.617188 507.984375 394.375 507.988281 L 415.488281 507.988281 C 418.246094 507.984375 420.976562 507.707031 423.675781 507.152344 C 426.378906 506.59375 428.996094 505.773438 431.53125 504.6875 C 434.066406 503.597656 436.464844 502.269531 438.730469 500.695312 C 440.992188 499.121094 443.074219 497.335938 444.976562 495.335938 L 491.472656 446.3125 L 491.472656 505.207031 L 491.679688 505.207031 L 558.832031 526.609375 C 561.214844 525.5 563.511719 524.230469 565.714844 522.792969 C 574.675781 516.945312 581.976562 507.820312 583.34375 497.246094 C 583.925781 492.890625 583.34375 488.160156 580.6875 484.636719 C 578.449219 481.734375 575.132812 480.03125 572.105469 477.957031 Z M 520.507812 386.003906 C 520.507812 388.585938 520.261719 391.144531 519.777344 393.675781 C 519.289062 396.210938 518.570312 398.675781 517.613281 401.074219 C 516.660156 403.46875 515.484375 405.757812 514.097656 407.929688 C 512.707031 410.105469 511.125 412.128906 509.351562 414 L 491.472656 432.832031 L 444.976562 481.855469 C 443.078125 483.855469 440.996094 485.644531 438.734375 487.222656 C 436.46875 488.796875 434.070312 490.128906 431.535156 491.21875 C 429 492.304688 426.382812 493.125 423.679688 493.679688 C 420.976562 494.234375 418.246094 494.507812 415.488281 494.507812 L 394.375 494.507812 C 391.617188 494.507812 388.886719 494.234375 386.1875 493.679688 C 383.484375 493.125 380.863281 492.304688 378.328125 491.21875 C 375.792969 490.128906 373.394531 488.796875 371.132812 487.222656 C 368.867188 485.644531 366.785156 483.855469 364.886719 481.855469 L 318.308594 432.832031 L 300.433594 414 C 298.65625 412.128906 297.074219 410.105469 295.683594 407.933594 C 294.292969 405.757812 293.117188 403.472656 292.164062 401.074219 C 291.207031 398.679688 290.488281 396.210938 290 393.679688 C 289.515625 391.144531 289.273438 388.585938 289.273438 386.003906 L 289.273438 279.203125 C 290.773438 277.207031 292.402344 275.324219 294.167969 273.5625 C 299.894531 267.921875 306.777344 263.648438 313.746094 259.75 C 335.8125 247.347656 359.867188 237.601562 378.324219 220.304688 C 387.410156 211.761719 395.371094 199.734375 392.511719 187.621094 C 421.003906 188.660156 446.054688 201.601562 457.628906 223.5 C 467.832031 242.785156 466.878906 266.136719 475.007812 286.378906 C 476.382812 289.875 478.035156 293.238281 479.953125 296.46875 C 481.875 299.699219 484.042969 302.753906 486.457031 305.632812 C 488.871094 308.511719 491.5 311.179688 494.347656 313.632812 C 497.191406 316.089844 500.214844 318.296875 503.417969 320.265625 C 508.761719 323.46875 514.457031 325.820312 520.507812 327.316406 Z M 352.511719 313.460938 C 352.511719 306.019531 355.761719 299.984375 359.773438 299.984375 C 363.78125 299.984375 367.03125 306.019531 367.03125 313.460938 C 367.03125 320.90625 363.78125 326.941406 359.773438 326.941406 C 355.761719 326.941406 352.511719 320.90625 352.511719 313.460938 Z M 453.933594 313.460938 C 453.933594 306.019531 457.183594 299.984375 461.191406 299.984375 C 465.203125 299.984375 468.449219 306.019531 468.449219 313.460938 C 468.449219 320.90625 465.203125 326.941406 461.191406 326.941406 C 457.183594 326.941406 453.933594 320.90625 453.933594 313.460938 Z M 437.878906 375.316406 C 438.101562 376.203125 438.101562 377.09375 437.875 377.984375 C 437.648438 378.871094 437.226562 379.65625 436.605469 380.332031 L 416.898438 401.808594 C 416.464844 402.28125 415.988281 402.707031 415.46875 403.082031 C 414.949219 403.460938 414.394531 403.777344 413.804688 404.035156 C 413.21875 404.296875 412.609375 404.492188 411.980469 404.625 C 411.351562 404.757812 410.71875 404.824219 410.074219 404.824219 C 409.433594 404.824219 408.796875 404.757812 408.167969 404.625 C 407.539062 404.492188 406.933594 404.296875 406.34375 404.035156 C 405.757812 403.777344 405.203125 403.460938 404.683594 403.082031 C 404.160156 402.707031 403.683594 402.28125 403.253906 401.808594 L 387.574219 384.675781 C 387.316406 384.402344 387.105469 384.09375 386.9375 383.753906 C 386.769531 383.414062 386.652344 383.058594 386.589844 382.683594 C 386.527344 382.3125 386.519531 381.9375 386.566406 381.5625 C 386.609375 381.1875 386.710938 380.828125 386.863281 380.480469 C 387.015625 380.132812 387.214844 379.816406 387.457031 379.527344 C 387.703125 379.238281 387.984375 378.992188 388.304688 378.789062 C 388.621094 378.582031 388.960938 378.425781 389.324219 378.320312 C 389.6875 378.214844 390.058594 378.164062 390.4375 378.164062 L 415.246094 378.164062 C 415.601562 378.164062 415.953125 378.128906 416.300781 378.050781 C 416.648438 377.976562 416.984375 377.867188 417.308594 377.71875 C 417.632812 377.570312 417.9375 377.390625 418.222656 377.179688 C 418.507812 376.964844 418.769531 376.726562 419.003906 376.457031 C 419.238281 376.1875 419.441406 375.898438 419.613281 375.585938 C 419.785156 375.273438 419.921875 374.949219 420.023438 374.605469 C 420.125 374.265625 420.1875 373.917969 420.214844 373.5625 C 420.242188 373.207031 420.234375 372.855469 420.183594 372.5 L 411.921875 312.382812 L 401.59375 296 C 401.425781 295.726562 401.308594 295.433594 401.246094 295.121094 C 401.183594 294.804688 401.179688 294.488281 401.234375 294.171875 C 401.289062 293.855469 401.394531 293.558594 401.558594 293.28125 C 401.71875 293.003906 401.925781 292.765625 402.175781 292.5625 C 402.425781 292.363281 402.703125 292.210938 403.007812 292.113281 C 403.3125 292.011719 403.628906 291.96875 403.949219 291.984375 C 404.269531 292 404.578125 292.070312 404.871094 292.199219 C 405.164062 292.324219 405.429688 292.5 405.660156 292.722656 L 418.765625 305.292969 C 420.230469 306.710938 421.210938 308.414062 421.710938 310.394531 Z M 437.878906 375.316406 " fill-opacity="1" fill-rule="nonzero"/><path fill="#ed6e0f" d="M 553.523438 524.953125 L 553.523438 689.445312 C 540.917969 695.675781 527.960938 701.070312 514.660156 705.625 L 514.660156 512.550781 Z M 603.460938 540.835938 L 603.460938 659.292969 L 603.667969 659.128906 L 642.035156 626.402344 L 642.324219 626.15625 L 642.324219 553.238281 Z M 257.089844 524.578125 L 257.089844 689.820312 C 269.707031 696.019531 282.675781 701.371094 295.996094 705.871094 L 295.996094 512.34375 Z M 168.289062 552.535156 L 168.289062 626.941406 C 176.707031 635.207031 185.53125 643.015625 194.75 650.375 C 198.816406 653.613281 202.960938 656.765625 207.152344 659.792969 L 207.152344 540.296875 Z M 168.289062 552.535156 " fill-opacity="1" fill-rule="nonzero"/></svg>