<svg xmlns="http://www.w3.org/2000/svg" xmlns:xlink="http://www.w3.org/1999/xlink" width="1080" zoomAndPan="magnify" viewBox="0 0 810 809.999993" height="1080" preserveAspectRatio="xMidYMid meet" version="1.0"><defs><clipPath id="b99f891d68"><path d="M 67.5 67.5 L 742.5 67.5 L 742.5 742.5 L 67.5 742.5 Z M 67.5 67.5 " clip-rule="nonzero"/></clipPath><clipPath id="25e1e93fa2"><path d="M 175 130 L 715 130 L 715 742.5 L 175 742.5 Z M 175 130 " clip-rule="nonzero"/></clipPath></defs><g clip-path="url(#b99f891d68)"><path fill="#ff66c4" d="M 742.433594 404.933594 C 742.449219 416.464844 741.871094 427.96875 740.703125 439.441406 C 739.535156 450.914062 737.777344 462.292969 735.4375 473.585938 C 733.09375 484.878906 730.179688 496.019531 726.691406 507.011719 C 723.203125 518.003906 719.15625 528.785156 714.558594 539.359375 C 662.664062 658.824219 543.578125 742.363281 405 742.363281 C 399.476562 742.363281 393.957031 742.226562 388.445312 741.957031 C 382.929688 741.683594 377.421875 741.277344 371.925781 740.734375 C 366.433594 740.191406 360.953125 739.515625 355.492188 738.703125 C 350.027344 737.894531 344.589844 736.949219 339.175781 735.871094 C 333.757812 734.792969 328.371094 733.582031 323.015625 732.242188 C 317.660156 730.898438 312.339844 729.425781 307.054688 727.820312 C 301.769531 726.21875 296.53125 724.484375 291.332031 722.625 C 286.132812 720.765625 280.980469 718.777344 275.878906 716.664062 C 270.777344 714.550781 265.730469 712.3125 260.738281 709.949219 C 255.746094 707.589844 250.816406 705.105469 245.949219 702.503906 C 241.078125 699.898438 236.273438 697.179688 231.539062 694.339844 C 226.800781 691.5 222.136719 688.546875 217.546875 685.476562 C 212.957031 682.410156 208.441406 679.230469 204.007812 675.941406 C 199.570312 672.652344 195.21875 669.253906 190.953125 665.753906 C 186.683594 662.25 182.503906 658.644531 178.410156 654.933594 C 174.320312 651.226562 170.320312 647.417969 166.417969 643.515625 C 162.511719 639.609375 158.707031 635.613281 154.996094 631.519531 C 151.289062 627.429688 147.683594 623.25 144.179688 618.980469 C 140.675781 614.710938 137.28125 610.359375 133.992188 605.925781 C 130.699219 601.488281 127.523438 596.976562 124.453125 592.386719 C 121.386719 587.792969 118.433594 583.128906 115.59375 578.394531 C 112.753906 573.65625 110.03125 568.855469 107.429688 563.984375 C 104.824219 559.113281 102.34375 554.183594 99.980469 549.191406 C 97.621094 544.199219 95.382812 539.152344 93.269531 534.050781 C 91.15625 528.949219 89.167969 523.800781 87.308594 518.601562 C 85.445312 513.402344 83.714844 508.160156 82.109375 502.878906 C 80.507812 497.59375 79.035156 492.273438 77.691406 486.917969 C 76.347656 481.558594 75.140625 476.171875 74.0625 470.757812 C 72.984375 465.34375 72.039062 459.902344 71.226562 454.441406 C 70.417969 448.980469 69.738281 443.5 69.199219 438.003906 C 68.65625 432.507812 68.25 427.003906 67.976562 421.488281 C 67.703125 415.972656 67.566406 410.453125 67.566406 404.933594 C 67.566406 218.570312 218.636719 67.5 405 67.5 C 591.363281 67.5 742.433594 218.570312 742.433594 404.933594 Z M 742.433594 404.933594 " fill-opacity="1" fill-rule="nonzero"/></g><g clip-path="url(#25e1e93fa2)"><path fill="#18b9cd" d="M 714.558594 539.359375 C 662.664062 658.824219 543.578125 742.363281 405 742.363281 C 394.492188 742.378906 384.007812 741.90625 373.546875 740.9375 C 363.082031 739.96875 352.6875 738.515625 342.363281 736.570312 C 332.035156 734.628906 321.824219 732.207031 311.726562 729.308594 C 301.628906 726.40625 291.6875 723.039062 281.902344 719.207031 C 272.121094 715.375 262.539062 711.089844 253.15625 706.359375 C 243.777344 701.628906 234.636719 696.46875 225.738281 690.878906 C 216.84375 685.289062 208.226562 679.296875 199.890625 672.898438 C 191.554688 666.5 183.539062 659.726562 175.839844 652.578125 L 186.945312 623.109375 C 188.550781 618.863281 190.40625 614.726562 192.515625 610.703125 C 194.625 606.679688 196.972656 602.800781 199.554688 599.066406 C 202.136719 595.328125 204.9375 591.765625 207.957031 588.371094 C 210.976562 584.976562 214.1875 581.777344 217.597656 578.777344 C 221.007812 575.777344 224.585938 572.992188 228.335938 570.429688 C 232.085938 567.867188 235.976562 565.539062 240.007812 563.449219 C 244.042969 561.359375 248.1875 559.523438 252.445312 557.941406 C 256.703125 556.359375 261.039062 555.042969 265.457031 553.988281 L 609.679688 472.167969 C 611.824219 471.660156 613.980469 471.238281 616.15625 470.902344 C 618.332031 470.570312 620.519531 470.324219 622.714844 470.171875 C 624.910156 470.015625 627.109375 469.949219 629.3125 469.972656 C 631.511719 469.996094 633.710938 470.109375 635.902344 470.3125 C 638.09375 470.515625 640.273438 470.804688 642.445312 471.183594 C 644.613281 471.566406 646.761719 472.03125 648.890625 472.585938 C 651.023438 473.140625 653.125 473.78125 655.203125 474.507812 C 657.285156 475.234375 659.328125 476.042969 661.339844 476.9375 C 663.355469 477.828125 665.328125 478.800781 667.257812 479.855469 C 669.191406 480.910156 671.082031 482.039062 672.921875 483.246094 C 674.761719 484.453125 676.550781 485.730469 678.289062 487.085938 C 680.027344 488.4375 681.707031 489.859375 683.328125 491.347656 C 684.949219 492.835938 686.507812 494.390625 688 496.003906 C 689.496094 497.621094 690.921875 499.296875 692.28125 501.027344 C 693.640625 502.757812 694.925781 504.542969 696.140625 506.382812 C 697.355469 508.21875 698.492188 510.101562 699.550781 512.03125 Z M 426.796875 130.667969 C 350.882812 130.667969 287.675781 182.5625 274.007812 251.222656 L 579.625 307.140625 C 581.46875 297.898438 582.390625 288.5625 582.390625 279.140625 C 582.390625 197.148438 512.726562 130.667969 426.796875 130.667969 Z M 426.796875 130.667969 " fill-opacity="1" fill-rule="nonzero"/></g><path fill="#ff9987" d="M 552.964844 637.445312 L 382.070312 672.949219 L 348.996094 513.582031 L 344.179688 490.570312 C 341.386719 489.511719 338.644531 488.347656 335.941406 487.082031 C 333.238281 485.816406 330.589844 484.449219 327.992188 482.980469 C 325.390625 481.515625 322.851562 479.953125 320.371094 478.292969 C 317.890625 476.636719 315.476562 474.886719 313.128906 473.046875 C 310.78125 471.207031 308.503906 469.277344 306.300781 467.265625 C 304.097656 465.253906 301.976562 463.160156 299.929688 460.988281 C 297.886719 458.816406 295.925781 456.570312 294.050781 454.246094 C 292.175781 451.925781 290.390625 449.539062 288.695312 447.082031 C 287 444.628906 285.402344 442.109375 283.898438 439.535156 C 282.390625 436.957031 280.988281 434.328125 279.679688 431.644531 C 278.375 428.960938 277.171875 426.234375 276.070312 423.460938 C 274.972656 420.6875 273.976562 417.875 273.089844 415.027344 C 272.203125 412.179688 271.421875 409.300781 270.75 406.394531 C 270.082031 403.488281 269.523438 400.558594 269.074219 397.609375 C 268.625 394.660156 268.285156 391.695312 268.058594 388.71875 C 267.835938 385.746094 267.722656 382.765625 267.722656 379.78125 C 267.722656 377.9375 267.761719 376.09375 267.847656 374.25 L 247.601562 369.554688 C 246.777344 369.363281 245.992188 369.070312 245.246094 368.671875 C 244.5 368.273438 243.820312 367.78125 243.207031 367.203125 C 242.59375 366.621094 242.066406 365.96875 241.625 365.246094 C 241.183594 364.523438 240.847656 363.757812 240.613281 362.945312 C 240.378906 362.132812 240.253906 361.304688 240.238281 360.460938 C 240.226562 359.613281 240.324219 358.78125 240.53125 357.960938 C 240.742188 357.144531 241.054688 356.367188 241.472656 355.628906 C 241.886719 354.894531 242.394531 354.226562 242.988281 353.625 L 280.671875 315.398438 L 290.523438 276.625 L 524.042969 319.296875 L 503.628906 399.777344 Z M 552.964844 637.445312 " fill-opacity="1" fill-rule="nonzero"/><path fill="#56317e" d="M 179.722656 252.738281 L 182.40625 238.0625 C 182.492188 237.601562 182.660156 237.171875 182.914062 236.777344 C 183.171875 236.382812 183.492188 236.050781 183.878906 235.785156 C 184.265625 235.519531 184.6875 235.335938 185.148438 235.238281 C 185.605469 235.136719 186.066406 235.128906 186.527344 235.214844 L 589.828125 308.972656 C 590.292969 309.054688 590.71875 309.226562 591.113281 309.480469 C 591.507812 309.734375 591.839844 310.054688 592.105469 310.441406 C 592.375 310.828125 592.558594 311.25 592.65625 311.710938 C 592.753906 312.171875 592.761719 312.632812 592.675781 313.09375 L 589.992188 327.769531 C 589.910156 328.234375 589.738281 328.660156 589.484375 329.054688 C 589.230469 329.449219 588.90625 329.78125 588.519531 330.046875 C 588.136719 330.316406 587.710938 330.5 587.253906 330.597656 C 586.792969 330.695312 586.332031 330.703125 585.871094 330.617188 L 182.570312 256.863281 C 182.109375 256.777344 181.679688 256.609375 181.285156 256.355469 C 180.890625 256.097656 180.558594 255.777344 180.292969 255.390625 C 180.023438 255.003906 179.84375 254.582031 179.742188 254.121094 C 179.644531 253.664062 179.636719 253.203125 179.722656 252.738281 Z M 336.222656 625.152344 C 336.667969 626.40625 337.148438 627.644531 337.660156 628.871094 C 338.175781 630.09375 338.71875 631.308594 339.296875 632.503906 C 339.871094 633.703125 340.480469 634.882812 341.117188 636.050781 C 341.757812 637.214844 342.425781 638.363281 343.121094 639.496094 C 343.820312 640.625 344.550781 641.738281 345.304688 642.828125 C 346.0625 643.921875 346.847656 644.996094 347.660156 646.046875 C 348.472656 647.097656 349.3125 648.125 350.179688 649.132812 C 351.046875 650.140625 351.941406 651.125 352.859375 652.085938 C 353.777344 653.046875 354.722656 653.980469 355.691406 654.890625 C 356.65625 655.804688 357.648438 656.6875 358.664062 657.546875 C 359.675781 658.40625 360.710938 659.238281 361.769531 660.042969 C 362.828125 660.847656 363.90625 661.625 365.003906 662.371094 C 366.105469 663.121094 367.222656 663.839844 368.355469 664.527344 C 369.492188 665.21875 370.648438 665.875 371.816406 666.503906 C 372.988281 667.136719 374.175781 667.734375 375.378906 668.300781 C 376.578125 668.867188 377.796875 669.402344 379.027344 669.902344 C 380.257812 670.40625 381.5 670.878906 382.753906 671.316406 C 384.007812 671.753906 385.273438 672.15625 386.550781 672.527344 C 387.828125 672.898438 389.113281 673.238281 390.40625 673.542969 C 391.699219 673.84375 393 674.117188 394.308594 674.351562 C 395.617188 674.585938 396.929688 674.789062 398.246094 674.957031 C 399.566406 675.121094 400.886719 675.253906 402.214844 675.351562 C 403.539062 675.449219 404.867188 675.511719 406.195312 675.539062 C 407.523438 675.566406 408.851562 675.5625 410.179688 675.519531 C 411.511719 675.476562 412.835938 675.402344 414.160156 675.289062 C 415.484375 675.179688 416.804688 675.03125 418.121094 674.851562 C 419.4375 674.671875 420.75 674.457031 422.054688 674.207031 C 423.359375 673.957031 424.660156 673.671875 425.949219 673.355469 C 427.242188 673.039062 428.523438 672.6875 429.792969 672.300781 C 431.066406 671.917969 432.328125 671.5 433.578125 671.050781 C 434.828125 670.597656 436.066406 670.113281 437.289062 669.597656 C 438.515625 669.082031 439.726562 668.535156 440.921875 667.957031 L 467.074219 655.289062 L 348.996094 513.582031 L 307.207031 544.066406 Z M 572.777344 480.363281 L 518.230469 469.953125 L 485.773438 651.53125 L 523.597656 649 C 524.792969 648.917969 525.984375 648.808594 527.171875 648.667969 C 528.359375 648.523438 529.542969 648.351562 530.722656 648.148438 C 531.902344 647.945312 533.078125 647.710938 534.246094 647.445312 C 535.410156 647.183594 536.570312 646.886719 537.722656 646.5625 C 538.875 646.238281 540.015625 645.882812 541.152344 645.5 C 542.285156 645.113281 543.40625 644.699219 544.519531 644.257812 C 545.632812 643.816406 546.730469 643.34375 547.820312 642.84375 C 548.90625 642.34375 549.980469 641.816406 551.039062 641.261719 C 552.097656 640.707031 553.144531 640.121094 554.175781 639.511719 C 555.203125 638.902344 556.21875 638.265625 557.214844 637.601562 C 558.210938 636.941406 559.1875 636.253906 560.148438 635.539062 C 561.109375 634.824219 562.050781 634.085938 562.972656 633.324219 C 563.894531 632.5625 564.796875 631.773438 565.679688 630.964844 C 566.5625 630.15625 567.421875 629.324219 568.257812 628.46875 C 569.097656 627.613281 569.914062 626.738281 570.707031 625.84375 C 571.5 624.945312 572.265625 624.027344 573.011719 623.09375 C 573.757812 622.15625 574.476562 621.199219 575.171875 620.226562 C 575.867188 619.25 576.535156 618.261719 577.179688 617.25 C 577.824219 616.242188 578.441406 615.21875 579.03125 614.175781 C 579.621094 613.136719 580.183594 612.078125 580.71875 611.007812 C 581.253906 609.9375 581.761719 608.855469 582.242188 607.757812 C 582.722656 606.660156 583.171875 605.550781 583.59375 604.433594 C 584.015625 603.3125 584.40625 602.183594 584.769531 601.042969 C 585.128906 599.902344 585.464844 598.75 585.765625 597.59375 C 586.070312 596.433594 586.339844 595.269531 586.582031 594.097656 C 586.824219 592.925781 587.039062 591.75 587.21875 590.566406 C 587.398438 589.382812 587.550781 588.195312 587.667969 587.003906 C 587.789062 585.8125 587.875 584.621094 587.933594 583.425781 C 587.988281 582.230469 588.015625 581.035156 588.011719 579.835938 C 588.003906 578.640625 587.96875 577.445312 587.902344 576.25 C 587.835938 575.054688 587.738281 573.863281 587.605469 572.671875 C 587.476562 571.480469 587.316406 570.296875 587.125 569.113281 Z M 572.777344 480.363281 " fill-opacity="1" fill-rule="nonzero"/><path fill="#242156" d="M 675.574219 485.121094 C 673.226562 483.433594 670.800781 481.878906 668.285156 480.453125 C 665.773438 479.03125 663.191406 477.742188 660.542969 476.59375 C 657.890625 475.449219 655.1875 474.445312 652.425781 473.589844 C 649.667969 472.730469 646.871094 472.023438 644.039062 471.464844 C 641.203125 470.910156 638.347656 470.503906 635.46875 470.253906 C 632.59375 470.003906 629.710938 469.910156 626.820312 469.96875 C 623.933594 470.027344 621.058594 470.238281 618.191406 470.609375 C 615.328125 470.976562 612.488281 471.496094 609.679688 472.167969 L 572.878906 480.929688 L 572.792969 480.339844 L 518.21875 469.945312 L 515.617188 457.496094 C 511.121094 454.527344 507.136719 450.976562 503.671875 446.851562 C 502.289062 445.171875 501.007812 443.417969 499.824219 441.597656 C 498.640625 439.773438 497.5625 437.886719 496.589844 435.941406 C 495.621094 434 494.761719 432.003906 494.015625 429.960938 C 493.269531 427.921875 492.640625 425.84375 492.128906 423.730469 C 491.617188 421.617188 491.222656 419.480469 490.953125 417.324219 C 490.683594 415.167969 490.53125 413.003906 490.507812 410.828125 C 490.480469 408.65625 490.574219 406.484375 490.792969 404.324219 C 491.011719 402.160156 491.351562 400.015625 491.808594 397.890625 C 492.074219 396.519531 492.222656 395.136719 492.25 393.742188 C 492.28125 392.347656 492.191406 390.960938 491.980469 389.578125 C 491.773438 388.199219 491.449219 386.847656 491.007812 385.523438 C 490.566406 384.199219 490.015625 382.921875 489.355469 381.691406 C 488.695312 380.464844 487.9375 379.296875 487.078125 378.199219 C 486.21875 377.097656 485.273438 376.078125 484.238281 375.140625 C 483.207031 374.203125 482.101562 373.363281 480.921875 372.613281 C 479.742188 371.867188 478.511719 371.222656 477.222656 370.6875 C 475.191406 369.878906 473.214844 368.953125 471.292969 367.914062 C 469.371094 366.875 467.515625 365.722656 465.730469 364.464844 C 463.941406 363.207031 462.234375 361.847656 460.609375 360.386719 C 458.980469 358.925781 457.445312 357.378906 456 355.738281 C 454.554688 354.097656 453.210938 352.375 451.96875 350.578125 C 450.730469 348.78125 449.597656 346.914062 448.574219 344.980469 C 447.550781 343.050781 446.644531 341.066406 445.855469 339.027344 C 445.066406 336.988281 444.402344 334.910156 443.855469 332.792969 C 442.75 328.167969 442.253906 323.480469 442.367188 318.730469 C 442.480469 313.976562 443.203125 309.316406 444.527344 304.75 L 524.042969 319.296875 L 561.851562 326.210938 L 574.679688 328.558594 C 579.457031 345.074219 594.210938 359.035156 611.566406 360.625 C 612.902344 360.75 614.222656 360.972656 615.523438 361.300781 C 616.824219 361.628906 618.089844 362.054688 619.324219 362.578125 C 620.558594 363.105469 621.746094 363.722656 622.882812 364.429688 C 624.023438 365.140625 625.097656 365.933594 626.113281 366.8125 C 627.128906 367.691406 628.070312 368.640625 628.9375 369.664062 C 629.800781 370.6875 630.585938 371.773438 631.28125 372.917969 C 631.980469 374.066406 632.585938 375.257812 633.097656 376.496094 C 633.609375 377.738281 634.019531 379.007812 634.335938 380.3125 C 634.648438 381.617188 634.859375 382.9375 634.96875 384.277344 C 635.074219 385.613281 635.078125 386.949219 634.980469 388.289062 C 634.878906 389.625 634.675781 390.949219 634.371094 392.253906 C 634.0625 393.558594 633.65625 394.835938 633.152344 396.078125 C 632.648438 397.320312 632.050781 398.515625 631.359375 399.667969 C 630.667969 400.816406 629.890625 401.90625 629.03125 402.933594 C 628.171875 403.964844 627.234375 404.917969 626.226562 405.804688 C 625.214844 406.6875 624.144531 407.484375 623.011719 408.203125 C 613.371094 414.238281 609.21875 427.695312 613.703125 438.171875 C 614.300781 439.457031 615 440.683594 615.800781 441.851562 C 616.605469 443.015625 617.5 444.105469 618.488281 445.121094 C 619.480469 446.136719 620.546875 447.058594 621.691406 447.890625 C 622.839844 448.722656 624.046875 449.453125 625.316406 450.078125 C 626.585938 450.703125 627.902344 451.21875 629.257812 451.621094 C 630.617188 452.023438 632 452.3125 633.40625 452.476562 C 634.8125 452.644531 636.222656 452.695312 637.636719 452.621094 C 639.050781 452.550781 640.449219 452.359375 641.832031 452.046875 C 643.347656 451.703125 644.878906 451.484375 646.429688 451.390625 C 647.980469 451.296875 649.527344 451.328125 651.074219 451.480469 C 652.621094 451.636719 654.144531 451.917969 655.644531 452.320312 C 657.144531 452.722656 658.601562 453.242188 660.019531 453.882812 C 661.4375 454.519531 662.792969 455.269531 664.085938 456.125 C 665.382812 456.984375 666.597656 457.941406 667.738281 458.996094 C 668.878906 460.050781 669.929688 461.191406 670.882812 462.417969 C 671.839844 463.640625 672.691406 464.9375 673.4375 466.300781 C 674.882812 469.214844 675.789062 472.289062 676.15625 475.523438 C 676.523438 478.753906 676.328125 481.953125 675.574219 485.121094 Z M 386.222656 498.238281 C 384.449219 498.242188 382.679688 498.203125 380.910156 498.125 C 379.144531 498.050781 377.375 497.933594 375.613281 497.777344 C 373.851562 497.617188 372.089844 497.421875 370.335938 497.1875 C 368.582031 496.953125 366.832031 496.675781 365.089844 496.363281 C 363.347656 496.046875 361.613281 495.695312 359.886719 495.300781 C 358.160156 494.910156 356.441406 494.480469 354.734375 494.011719 C 353.027344 493.542969 351.332031 493.035156 349.648438 492.488281 C 347.964844 491.945312 346.292969 491.359375 344.632812 490.742188 C 342.976562 490.121094 341.332031 489.464844 339.703125 488.769531 C 338.074219 488.074219 336.460938 487.34375 334.867188 486.578125 C 333.269531 485.8125 331.691406 485.011719 330.132812 484.171875 C 328.570312 483.335938 327.03125 482.464844 325.511719 481.558594 C 323.988281 480.652344 322.492188 479.710938 321.011719 478.738281 C 319.53125 477.761719 318.078125 476.757812 316.644531 475.71875 C 315.210938 474.679688 313.800781 473.609375 312.414062 472.503906 C 311.03125 471.402344 309.667969 470.269531 308.335938 469.105469 C 307 467.941406 305.691406 466.75 304.410156 465.527344 C 303.128906 464.304688 301.878906 463.054688 300.652344 461.777344 C 299.425781 460.5 298.230469 459.195312 297.066406 457.863281 C 295.898438 456.53125 294.761719 455.171875 293.660156 453.789062 C 292.554688 452.40625 291.480469 451 290.4375 449.566406 C 289.394531 448.136719 288.386719 446.683594 287.410156 445.207031 C 286.429688 443.730469 285.488281 442.230469 284.578125 440.710938 C 283.667969 439.191406 282.792969 437.65625 281.953125 436.097656 C 281.113281 434.539062 280.308594 432.960938 279.539062 431.367188 C 278.765625 429.773438 278.035156 428.164062 277.335938 426.535156 C 276.636719 424.90625 275.976562 423.265625 275.355469 421.609375 C 274.730469 419.953125 274.144531 418.28125 273.59375 416.597656 C 273.046875 414.914062 272.535156 413.21875 272.0625 411.515625 C 271.589844 409.808594 271.15625 408.089844 270.757812 406.367188 C 270.363281 404.640625 270.007812 402.90625 269.6875 401.164062 C 269.371094 399.421875 269.09375 397.675781 268.851562 395.921875 L 293.542969 380.160156 L 267.847656 374.207031 L 267.847656 374.25 L 247.601562 369.554688 C 246.777344 369.363281 245.992188 369.070312 245.246094 368.671875 C 244.5 368.273438 243.820312 367.78125 243.207031 367.203125 C 242.59375 366.621094 242.066406 365.96875 241.625 365.246094 C 241.183594 364.523438 240.847656 363.757812 240.613281 362.945312 C 240.375 362.132812 240.253906 361.304688 240.238281 360.460938 C 240.226562 359.613281 240.324219 358.78125 240.53125 357.960938 C 240.742188 357.144531 241.054688 356.367188 241.472656 355.628906 C 241.886719 354.894531 242.394531 354.226562 242.988281 353.625 L 280.671875 315.398438 L 290.523438 276.625 L 278.03125 274.320312 C 277.90625 291.628906 260.46875 305.085938 243.535156 310.996094 C 225.550781 317.199219 205.265625 319.503906 191.097656 332.207031 C 176.929688 344.90625 176.300781 373.789062 194.703125 378.652344 C 208.40625 382.253906 217.882812 397.597656 214.988281 411.472656 C 212.054688 425.347656 197.214844 435.574219 183.175781 433.351562 C 166.15625 430.667969 148.550781 445.800781 148.71875 463.070312 C 148.84375 480.339844 166.699219 495.179688 183.71875 492.160156 C 184.921875 491.988281 186.132812 491.925781 187.347656 491.976562 C 188.558594 492.023438 189.761719 492.183594 190.945312 492.453125 C 192.132812 492.722656 193.28125 493.097656 194.398438 493.574219 C 195.515625 494.054688 196.578125 494.632812 197.589844 495.308594 C 198.601562 495.984375 199.542969 496.746094 200.414062 497.59375 C 201.285156 498.441406 202.070312 499.359375 202.773438 500.351562 C 203.476562 501.34375 204.082031 502.390625 204.59375 503.496094 C 205.101562 504.597656 205.507812 505.738281 205.808594 506.917969 C 207.949219 516.472656 201.449219 527.121094 191.976562 529.636719 C 170.347656 535.378906 154.671875 558.265625 157.183594 580.566406 C 159.15625 598.003906 172.066406 613.34375 188.328125 619.589844 C 190.015625 615.542969 191.933594 611.609375 194.085938 607.789062 C 196.234375 603.96875 198.601562 600.289062 201.1875 596.746094 C 203.773438 593.203125 206.554688 589.828125 209.539062 586.613281 C 212.519531 583.402344 215.683594 580.375 219.019531 577.535156 C 222.359375 574.695312 225.855469 572.058594 229.503906 569.628906 C 233.15625 567.203125 236.9375 564.996094 240.847656 563.015625 C 244.757812 561.03125 248.769531 559.285156 252.886719 557.777344 C 257.003906 556.265625 261.191406 555.003906 265.457031 553.988281 L 307.207031 544.054688 L 348.996094 513.582031 C 358.007812 515.753906 367.144531 516.828125 376.410156 516.808594 C 379.316406 516.808594 382.214844 516.703125 385.113281 516.488281 C 388.007812 516.277344 390.890625 515.957031 393.765625 515.53125 C 396.636719 515.109375 399.488281 514.578125 402.324219 513.941406 C 405.15625 513.308594 407.964844 512.570312 410.742188 511.730469 C 413.523438 510.886719 416.265625 509.945312 418.976562 508.902344 C 421.6875 507.859375 424.355469 506.71875 426.980469 505.480469 C 429.605469 504.238281 432.183594 502.90625 434.710938 501.476562 C 437.238281 500.046875 439.710938 498.527344 442.128906 496.917969 C 444.542969 495.308594 446.898438 493.609375 449.191406 491.828125 C 451.480469 490.042969 453.703125 488.179688 455.859375 486.230469 C 458.011719 484.285156 460.09375 482.261719 462.097656 480.160156 C 464.101562 478.058594 466.027344 475.890625 467.875 473.648438 C 469.722656 471.40625 471.480469 469.101562 473.15625 466.730469 C 474.835938 464.359375 476.421875 461.929688 477.917969 459.441406 C 479.417969 456.953125 480.820312 454.414062 482.132812 451.824219 C 483.441406 449.230469 484.65625 446.59375 485.773438 443.914062 C 484.441406 445.988281 483.046875 448.019531 481.585938 450.007812 C 480.128906 451.992188 478.605469 453.933594 477.027344 455.824219 C 475.445312 457.714844 473.808594 459.554688 472.113281 461.34375 C 470.414062 463.132812 468.664062 464.867188 466.863281 466.546875 C 465.058594 468.226562 463.203125 469.847656 461.296875 471.410156 C 459.390625 472.976562 457.4375 474.476562 455.4375 475.917969 C 453.4375 477.359375 451.398438 478.738281 449.3125 480.050781 C 447.226562 481.367188 445.101562 482.613281 442.9375 483.792969 C 440.773438 484.972656 438.574219 486.085938 436.339844 487.128906 C 434.105469 488.171875 431.84375 489.144531 429.550781 490.046875 C 427.253906 490.949219 424.933594 491.777344 422.589844 492.535156 C 420.242188 493.289062 417.875 493.972656 415.488281 494.582031 C 413.097656 495.191406 410.691406 495.722656 408.269531 496.179688 C 405.847656 496.640625 403.414062 497.019531 400.96875 497.328125 C 398.523438 497.632812 396.070312 497.863281 393.609375 498.015625 C 391.148438 498.167969 388.6875 498.242188 386.222656 498.238281 Z M 313.761719 328.882812 C 317.773438 329.453125 321.847656 324.109375 322.863281 316.945312 C 323.878906 309.78125 321.449219 303.515625 317.441406 302.945312 C 313.429688 302.378906 309.351562 307.722656 308.339844 314.886719 C 307.324219 322.046875 309.75 328.316406 313.761719 328.882812 Z M 313.761719 328.882812 " fill-opacity="1" fill-rule="nonzero"/></svg>