<svg xmlns="http://www.w3.org/2000/svg" xmlns:xlink="http://www.w3.org/1999/xlink" width="1080" zoomAndPan="magnify" viewBox="0 0 810 809.999993" height="1080" preserveAspectRatio="xMidYMid meet" version="1.0"><defs><clipPath id="f63e94ec24"><path d="M 67.5 49 L 742.5 49 L 742.5 724 L 67.5 724 Z M 67.5 49 " clip-rule="nonzero"/></clipPath></defs><g clip-path="url(#f63e94ec24)"><path fill="#ffde59" d="M 742.457031 386.417969 C 742.480469 399.152344 741.78125 411.847656 740.355469 424.503906 C 738.933594 437.15625 736.796875 449.691406 733.945312 462.101562 C 731.09375 474.511719 727.546875 486.722656 723.304688 498.730469 C 719.0625 510.734375 714.152344 522.464844 708.570312 533.910156 C 708.40625 534.285156 708.199219 534.65625 708.03125 535.03125 C 707.742188 535.652344 707.410156 536.273438 707.121094 536.855469 C 701.789062 547.636719 695.871094 558.089844 689.367188 568.210938 C 680.042969 582.800781 669.628906 596.570312 658.136719 609.523438 C 657.640625 610.101562 657.101562 610.683594 656.601562 611.265625 C 653.738281 614.5 650.835938 617.609375 647.808594 620.722656 L 647.558594 620.96875 C 645.320312 623.292969 643.039062 625.613281 640.714844 627.855469 C 638.890625 629.636719 637.066406 631.378906 635.199219 633.121094 C 633.664062 634.617188 632.046875 636.066406 630.472656 637.476562 C 626.199219 641.375 621.761719 645.109375 617.28125 648.800781 L 617.242188 648.800781 C 613.113281 652.136719 608.910156 655.375 604.632812 658.511719 C 600.351562 661.652344 596.003906 664.6875 591.578125 667.621094 C 587.15625 670.554688 582.667969 673.382812 578.113281 676.101562 C 573.558594 678.824219 568.941406 681.4375 564.261719 683.941406 C 559.582031 686.441406 554.847656 688.835938 550.054688 691.113281 C 545.261719 693.394531 540.417969 695.5625 535.523438 697.613281 C 530.632812 699.664062 525.691406 701.597656 520.707031 703.417969 C 515.71875 705.234375 510.695312 706.9375 505.628906 708.515625 C 500.5625 710.097656 495.464844 711.558594 490.328125 712.902344 C 485.195312 714.242188 480.03125 715.460938 474.839844 716.558594 C 469.648438 717.65625 464.433594 718.628906 459.195312 719.480469 C 453.957031 720.332031 448.699219 721.058594 443.429688 721.660156 C 438.15625 722.265625 432.871094 722.742188 427.578125 723.097656 C 422.28125 723.449219 416.984375 723.679688 411.675781 723.78125 C 406.371094 723.886719 401.066406 723.863281 395.761719 723.71875 C 390.457031 723.570312 385.160156 723.300781 379.867188 722.902344 C 374.574219 722.507812 369.296875 721.984375 364.027344 721.339844 C 358.761719 720.695312 353.511719 719.925781 348.28125 719.03125 C 343.050781 718.136719 337.84375 717.121094 332.660156 715.984375 C 327.476562 714.84375 322.324219 713.582031 317.199219 712.203125 C 312.074219 710.820312 306.988281 709.316406 301.933594 707.695312 C 296.882812 706.074219 291.871094 704.332031 286.898438 702.472656 C 281.929688 700.613281 277.003906 698.640625 272.128906 696.550781 C 267.25 694.457031 262.425781 692.253906 257.652344 689.933594 C 252.878906 687.617188 248.164062 685.1875 243.503906 682.644531 C 238.84375 680.105469 234.25 677.453125 229.714844 674.695312 C 225.183594 671.9375 220.714844 669.074219 216.316406 666.105469 C 211.917969 663.136719 207.59375 660.066406 203.339844 656.894531 C 199.085938 653.71875 194.910156 650.449219 190.808594 647.078125 C 186.710938 643.710938 182.691406 640.246094 178.757812 636.683594 C 174.820312 633.125 170.972656 629.476562 167.207031 625.734375 C 163.445312 621.992188 159.769531 618.164062 156.1875 614.25 C 155.6875 613.710938 155.234375 613.214844 154.734375 612.675781 C 152.746094 610.519531 150.835938 608.320312 148.929688 606.078125 C 138.828125 594.328125 129.578125 581.941406 121.179688 568.917969 C 121.015625 568.628906 120.835938 568.355469 120.640625 568.085938 C 120.558594 567.921875 120.476562 567.839844 120.394531 567.671875 C 118.070312 564.0625 115.832031 560.371094 113.671875 556.679688 C 106.148438 543.828125 99.507812 530.53125 93.75 516.796875 C 87.996094 503.058594 83.171875 489.003906 79.285156 474.625 C 75.398438 460.246094 72.476562 445.675781 70.527344 430.910156 C 68.578125 416.144531 67.613281 401.3125 67.636719 386.417969 C 67.636719 200.066406 218.691406 49.007812 405.046875 49.007812 C 579.703125 49.007812 723.378906 181.734375 740.714844 351.828125 C 741.882812 363.328125 742.464844 374.859375 742.457031 386.417969 Z M 742.457031 386.417969 " fill-opacity="1" fill-rule="nonzero"/></g><path fill="#ed6e0f" d="M 658.136719 609.523438 C 657.640625 610.101562 657.101562 610.683594 656.601562 611.265625 C 653.738281 614.5 650.835938 617.609375 647.808594 620.722656 L 647.558594 620.96875 C 645.320312 623.292969 643.039062 625.613281 640.714844 627.855469 C 638.890625 629.636719 637.066406 631.378906 635.199219 633.121094 C 633.664062 634.617188 632.046875 636.066406 630.472656 637.476562 C 626.199219 641.375 621.761719 645.109375 617.28125 648.800781 L 617.242188 648.800781 C 613.113281 652.136719 608.910156 655.375 604.632812 658.511719 C 600.351562 661.652344 596.003906 664.6875 591.578125 667.621094 C 587.15625 670.554688 582.667969 673.382812 578.113281 676.101562 C 573.558594 678.824219 568.941406 681.4375 564.261719 683.941406 C 559.582031 686.441406 554.847656 688.835938 550.054688 691.113281 C 545.261719 693.394531 540.417969 695.5625 535.523438 697.613281 C 530.632812 699.664062 525.691406 701.597656 520.707031 703.417969 C 515.71875 705.234375 510.695312 706.9375 505.628906 708.515625 C 500.5625 710.097656 495.464844 711.558594 490.328125 712.902344 C 485.195312 714.242188 480.03125 715.460938 474.839844 716.558594 C 469.648438 717.65625 464.433594 718.628906 459.195312 719.480469 C 453.957031 720.332031 448.699219 721.058594 443.429688 721.660156 C 438.15625 722.265625 432.871094 722.742188 427.578125 723.097656 C 422.28125 723.449219 416.984375 723.679688 411.675781 723.78125 C 406.371094 723.886719 401.066406 723.863281 395.761719 723.71875 C 390.457031 723.570312 385.160156 723.300781 379.867188 722.902344 C 374.574219 722.507812 369.296875 721.984375 364.027344 721.339844 C 358.761719 720.695312 353.511719 719.925781 348.28125 719.03125 C 343.050781 718.136719 337.84375 717.121094 332.660156 715.984375 C 327.476562 714.84375 322.324219 713.582031 317.199219 712.203125 C 312.074219 710.820312 306.988281 709.316406 301.933594 707.695312 C 296.882812 706.074219 291.871094 704.332031 286.898438 702.472656 C 281.929688 700.613281 277.003906 698.640625 272.128906 696.550781 C 267.25 694.457031 262.425781 692.253906 257.652344 689.933594 C 252.878906 687.617188 248.164062 685.1875 243.503906 682.644531 C 238.84375 680.105469 234.25 677.453125 229.714844 674.695312 C 225.183594 671.9375 220.714844 669.074219 216.316406 666.105469 C 211.917969 663.136719 207.59375 660.066406 203.339844 656.894531 C 199.085938 653.71875 194.910156 650.449219 190.808594 647.078125 C 186.710938 643.710938 182.691406 640.246094 178.757812 636.683594 C 174.820312 633.125 170.972656 629.476562 167.207031 625.734375 C 163.445312 621.992188 159.769531 618.164062 156.1875 614.25 C 155.6875 613.710938 155.234375 613.214844 154.734375 612.675781 C 152.746094 610.519531 150.835938 608.320312 148.929688 606.078125 C 138.828125 594.328125 129.578125 581.941406 121.179688 568.917969 C 121.015625 568.628906 120.835938 568.355469 120.640625 568.085938 C 120.558594 567.921875 120.476562 567.839844 120.394531 567.671875 C 118.070312 564.0625 115.832031 560.371094 113.671875 556.679688 C 114.335938 554.484375 115.074219 552.308594 115.878906 550.160156 C 116.683594 548.007812 117.558594 545.886719 118.5 543.792969 C 119.445312 541.699219 120.457031 539.640625 121.535156 537.613281 C 122.613281 535.582031 123.753906 533.59375 124.960938 531.640625 C 126.167969 529.6875 127.4375 527.773438 128.769531 525.90625 C 130.101562 524.035156 131.492188 522.207031 132.941406 520.429688 C 134.394531 518.648438 135.898438 516.917969 137.464844 515.234375 C 139.027344 513.554688 140.640625 511.921875 142.3125 510.347656 C 143.980469 508.769531 145.699219 507.25 147.46875 505.785156 C 149.234375 504.320312 151.050781 502.914062 152.910156 501.566406 C 154.769531 500.21875 156.671875 498.933594 158.613281 497.710938 C 160.558594 496.488281 162.539062 495.328125 164.554688 494.234375 C 166.574219 493.140625 168.628906 492.113281 170.710938 491.152344 C 172.796875 490.191406 174.914062 489.296875 177.054688 488.476562 C 179.199219 487.652344 181.367188 486.898438 183.5625 486.21875 C 185.753906 485.535156 187.964844 484.925781 190.199219 484.386719 L 454.113281 420.804688 C 457.453125 419.996094 460.820312 419.332031 464.214844 418.808594 C 467.613281 418.285156 471.023438 417.902344 474.453125 417.660156 C 477.878906 417.421875 481.3125 417.328125 484.746094 417.375 C 488.183594 417.421875 491.609375 417.613281 495.027344 417.945312 C 498.449219 418.28125 501.847656 418.753906 505.226562 419.375 C 508.609375 419.992188 511.957031 420.75 515.273438 421.648438 C 518.589844 422.546875 521.863281 423.578125 525.09375 424.75 C 528.324219 425.921875 531.5 427.226562 534.621094 428.664062 C 537.738281 430.101562 540.796875 431.664062 543.785156 433.359375 C 546.777344 435.050781 549.691406 436.863281 552.527344 438.800781 C 555.367188 440.738281 558.121094 442.789062 560.789062 444.953125 C 563.453125 447.121094 566.027344 449.394531 568.503906 451.773438 C 570.980469 454.15625 573.355469 456.636719 575.625 459.214844 C 577.894531 461.792969 580.050781 464.464844 582.097656 467.222656 C 584.144531 469.984375 586.074219 472.824219 587.882812 475.746094 C 589.691406 478.667969 591.375 481.65625 592.933594 484.71875 Z M 658.136719 609.523438 " fill-opacity="1" fill-rule="nonzero"/><path fill="#b84f43" d="M 584.472656 355.1875 L 513.550781 407.78125 C 509.136719 411.0625 504.464844 413.925781 499.539062 416.371094 C 494.613281 418.816406 489.507812 420.804688 484.226562 422.339844 C 478.945312 423.871094 473.570312 424.921875 468.097656 425.496094 C 462.628906 426.066406 457.152344 426.148438 451.667969 425.738281 L 432.128906 496.832031 C 431.855469 497.847656 431.550781 498.855469 431.226562 499.855469 C 430.898438 500.855469 430.546875 501.847656 430.171875 502.832031 C 429.796875 503.816406 429.394531 504.792969 428.972656 505.753906 C 428.546875 506.71875 428.101562 507.671875 427.632812 508.613281 C 427.160156 509.558594 426.667969 510.488281 426.152344 511.40625 C 425.636719 512.324219 425.097656 513.226562 424.535156 514.121094 C 423.976562 515.011719 423.394531 515.890625 422.789062 516.75 C 422.1875 517.613281 421.5625 518.460938 420.917969 519.292969 C 420.273438 520.125 419.605469 520.941406 418.921875 521.742188 C 418.234375 522.542969 417.53125 523.324219 416.808594 524.089844 C 416.082031 524.855469 415.339844 525.601562 414.582031 526.328125 C 413.820312 527.058594 413.042969 527.765625 412.246094 528.457031 C 411.453125 529.148438 410.640625 529.816406 409.8125 530.46875 C 408.984375 531.117188 408.140625 531.746094 407.28125 532.355469 C 406.421875 532.964844 405.546875 533.550781 404.660156 534.117188 C 403.769531 534.683594 402.867188 535.226562 401.953125 535.75 C 401.039062 536.269531 400.113281 536.769531 399.171875 537.246094 C 398.234375 537.722656 397.28125 538.175781 396.320312 538.605469 C 395.359375 539.03125 394.386719 539.4375 393.40625 539.820312 C 392.425781 540.203125 391.433594 540.558594 390.433594 540.890625 C 389.4375 541.222656 388.429688 541.53125 387.414062 541.816406 C 386.402344 542.097656 385.378906 542.359375 384.351562 542.589844 C 383.324219 542.824219 382.292969 543.03125 381.257812 543.214844 C 380.21875 543.398438 379.179688 543.554688 378.132812 543.683594 C 377.089844 543.816406 376.042969 543.921875 374.992188 544.003906 C 373.941406 544.082031 372.890625 544.136719 371.835938 544.164062 C 370.785156 544.191406 369.730469 544.195312 368.679688 544.171875 C 367.625 544.148438 366.574219 544.097656 365.523438 544.023438 C 364.472656 543.949219 363.425781 543.847656 362.378906 543.71875 C 361.335938 543.59375 360.292969 543.441406 359.253906 543.261719 C 358.214844 543.085938 357.183594 542.882812 356.15625 542.652344 C 355.128906 542.425781 354.105469 542.171875 353.089844 541.890625 C 352.074219 541.613281 351.066406 541.308594 350.066406 540.980469 C 349.066406 540.652344 348.074219 540.300781 347.089844 539.921875 C 346.105469 539.542969 345.132812 539.144531 344.171875 538.71875 C 343.207031 538.292969 342.253906 537.84375 341.3125 537.371094 C 340.371094 536.902344 339.441406 536.40625 338.523438 535.890625 C 337.609375 535.371094 336.703125 534.832031 335.8125 534.269531 C 334.921875 533.707031 334.046875 533.125 333.183594 532.519531 C 332.324219 531.914062 331.476562 531.289062 330.644531 530.640625 C 329.8125 529.996094 329 529.328125 328.199219 528.640625 C 327.402344 527.953125 326.621094 527.25 325.855469 526.523438 C 325.09375 525.796875 324.347656 525.054688 323.621094 524.292969 C 322.894531 523.53125 322.183594 522.753906 321.496094 521.957031 C 320.808594 521.160156 320.136719 520.347656 319.488281 519.515625 C 318.839844 518.6875 318.210938 517.84375 317.605469 516.984375 C 316.996094 516.121094 316.410156 515.246094 315.847656 514.359375 C 315.28125 513.46875 314.742188 512.566406 314.21875 511.652344 C 313.699219 510.734375 313.203125 509.808594 312.726562 508.867188 C 312.253906 507.925781 311.800781 506.976562 311.375 506.015625 C 310.945312 505.050781 310.542969 504.078125 310.164062 503.097656 C 309.785156 502.113281 309.429688 501.125 309.097656 500.125 C 308.765625 499.125 308.457031 498.117188 308.175781 497.101562 C 307.894531 496.089844 307.640625 495.066406 307.40625 494.039062 C 307.175781 493.011719 306.96875 491.980469 306.789062 490.941406 C 306.609375 489.90625 306.453125 488.863281 306.324219 487.820312 C 306.191406 486.773438 306.089844 485.726562 306.011719 484.675781 C 305.933594 483.625 305.878906 482.574219 305.855469 481.519531 C 305.828125 480.46875 305.828125 479.414062 305.851562 478.363281 C 305.878906 477.308594 305.929688 476.257812 306.003906 475.207031 C 306.082031 474.15625 306.183594 473.109375 306.3125 472.066406 C 306.441406 471.019531 306.597656 469.976562 306.777344 468.941406 C 306.957031 467.902344 307.160156 466.871094 307.390625 465.84375 C 307.621094 464.816406 307.875 463.792969 308.15625 462.777344 L 343.496094 334.078125 L 310.023438 288.949219 L 407.492188 216.65625 C 408.472656 215.929688 409.472656 215.226562 410.488281 214.546875 C 411.5 213.867188 412.53125 213.214844 413.578125 212.585938 C 414.625 211.957031 415.6875 211.355469 416.765625 210.78125 C 417.839844 210.203125 418.929688 209.65625 420.035156 209.132812 C 421.136719 208.609375 422.253906 208.117188 423.382812 207.648438 C 424.511719 207.179688 425.648438 206.742188 426.796875 206.328125 C 427.949219 205.917969 429.105469 205.535156 430.273438 205.179688 C 431.441406 204.824219 432.621094 204.5 433.804688 204.203125 C 434.988281 203.90625 436.179688 203.636719 437.375 203.398438 C 438.574219 203.160156 439.777344 202.953125 440.984375 202.773438 C 442.191406 202.59375 443.402344 202.445312 444.617188 202.324219 C 445.832031 202.203125 447.050781 202.113281 448.269531 202.054688 C 449.488281 201.992188 450.710938 201.964844 451.929688 201.964844 C 453.152344 201.964844 454.371094 201.992188 455.589844 202.054688 C 456.808594 202.113281 458.027344 202.203125 459.242188 202.320312 C 460.457031 202.441406 461.667969 202.589844 462.875 202.769531 C 464.085938 202.949219 465.285156 203.15625 466.484375 203.394531 C 467.683594 203.632812 468.871094 203.902344 470.058594 204.199219 C 471.242188 204.496094 472.417969 204.820312 473.585938 205.175781 C 474.753906 205.527344 475.914062 205.910156 477.0625 206.324219 C 478.210938 206.734375 479.351562 207.171875 480.480469 207.640625 C 481.609375 208.109375 482.722656 208.601562 483.828125 209.125 C 484.929688 209.648438 486.019531 210.195312 487.097656 210.769531 C 488.175781 211.347656 489.234375 211.949219 490.285156 212.574219 C 491.332031 213.203125 492.363281 213.855469 493.375 214.535156 C 494.390625 215.214844 495.390625 215.917969 496.371094 216.644531 C 497.351562 217.371094 498.3125 218.121094 499.257812 218.898438 C 500.199219 219.671875 501.125 220.46875 502.027344 221.289062 C 502.933594 222.109375 503.816406 222.949219 504.679688 223.8125 C 505.542969 224.679688 506.386719 225.5625 507.207031 226.464844 C 508.023438 227.371094 508.820312 228.296875 509.597656 229.238281 C 510.371094 230.183594 511.121094 231.144531 511.847656 232.125 L 587.585938 334.242188 C 588.171875 335.03125 588.679688 335.871094 589.101562 336.757812 C 589.523438 337.648438 589.851562 338.570312 590.09375 339.523438 C 590.332031 340.476562 590.476562 341.445312 590.527344 342.429688 C 590.574219 343.410156 590.527344 344.386719 590.382812 345.363281 C 590.238281 346.335938 590 347.285156 589.667969 348.210938 C 589.335938 349.136719 588.917969 350.019531 588.410156 350.863281 C 587.902344 351.707031 587.316406 352.492188 586.65625 353.222656 C 585.992188 353.949219 585.265625 354.605469 584.472656 355.1875 Z M 584.472656 355.1875 " fill-opacity="1" fill-rule="nonzero"/><path fill="#363464" d="M 513.550781 177.75 L 513.550781 196 C 513.558594 201.039062 512.863281 205.980469 511.460938 210.820312 C 510.054688 215.65625 508 220.203125 505.296875 224.453125 C 502.320312 221.386719 499.105469 218.597656 495.648438 216.089844 C 492.1875 213.578125 488.539062 211.390625 484.699219 209.515625 C 480.859375 207.640625 476.886719 206.113281 472.78125 204.929688 C 468.675781 203.746094 464.5 202.925781 460.25 202.472656 L 460.25 177.75 Z M 562.492188 371.488281 L 513.550781 407.78125 C 512.332031 408.683594 511.089844 409.558594 509.828125 410.398438 C 508.570312 411.242188 507.289062 412.054688 505.988281 412.835938 C 504.683594 413.613281 503.367188 414.363281 502.027344 415.078125 C 500.691406 415.792969 499.335938 416.472656 497.964844 417.125 C 496.59375 417.773438 495.207031 418.386719 493.804688 418.96875 C 492.40625 419.546875 490.988281 420.09375 489.5625 420.605469 C 488.132812 421.117188 486.691406 421.589844 485.242188 422.03125 C 483.789062 422.472656 482.328125 422.875 480.855469 423.246094 C 479.386719 423.613281 477.90625 423.945312 476.417969 424.242188 C 474.929688 424.539062 473.4375 424.796875 471.933594 425.019531 C 470.433594 425.242188 468.929688 425.429688 467.421875 425.578125 C 465.910156 425.726562 464.398438 425.835938 462.882812 425.910156 C 461.367188 425.984375 459.851562 426.023438 458.335938 426.023438 C 456.816406 426.023438 455.300781 425.984375 453.785156 425.910156 C 452.273438 425.835938 450.757812 425.722656 449.25 425.574219 C 447.738281 425.425781 446.234375 425.242188 444.734375 425.019531 C 443.234375 424.796875 441.738281 424.535156 440.253906 424.238281 C 438.765625 423.945312 437.285156 423.613281 435.8125 423.242188 C 434.339844 422.875 432.878906 422.46875 431.429688 422.027344 C 429.976562 421.589844 428.539062 421.113281 427.109375 420.601562 C 425.679688 420.089844 424.265625 419.542969 422.863281 418.964844 C 421.464844 418.382812 420.078125 417.765625 418.707031 417.117188 C 417.335938 416.46875 415.980469 415.789062 414.640625 415.074219 C 413.304688 414.355469 411.984375 413.609375 410.683594 412.828125 C 409.382812 412.050781 408.101562 411.238281 406.839844 410.394531 C 405.582031 409.550781 404.339844 408.679688 403.121094 407.773438 C 401.902344 406.871094 400.707031 405.9375 399.535156 404.972656 C 398.363281 404.011719 397.214844 403.019531 396.09375 402.003906 C 394.96875 400.984375 393.871094 399.9375 392.796875 398.863281 C 391.726562 397.792969 390.679688 396.691406 389.660156 395.566406 C 388.644531 394.445312 387.652344 393.296875 386.691406 392.121094 C 385.730469 390.949219 384.796875 389.753906 383.894531 388.535156 L 383.230469 387.621094 L 324.085938 307.90625 L 279.953125 340.671875 L 301.976562 373.0625 L 279.953125 373.0625 L 279.953125 429.058594 L 293.433594 429.058594 C 297.90625 429.0625 302.316406 428.542969 306.664062 427.488281 C 311.011719 426.4375 315.171875 424.886719 319.148438 422.835938 L 323.960938 405.332031 L 385.429688 495.75 L 385.636719 496.042969 C 386.597656 497.625 387.597656 499.179688 388.636719 500.707031 C 389.679688 502.238281 390.757812 503.742188 391.875 505.214844 C 392.992188 506.691406 394.148438 508.136719 395.339844 509.550781 C 396.53125 510.964844 397.757812 512.351562 399.019531 513.703125 C 400.285156 515.054688 401.578125 516.375 402.910156 517.660156 C 404.238281 518.949219 405.601562 520.199219 406.996094 521.414062 C 408.390625 522.632812 409.8125 523.8125 411.269531 524.957031 C 412.722656 526.097656 414.207031 527.203125 415.71875 528.273438 C 417.230469 529.339844 418.765625 530.367188 420.328125 531.359375 C 421.894531 532.347656 423.480469 533.292969 425.09375 534.203125 C 426.707031 535.109375 428.339844 535.976562 429.996094 536.800781 C 431.65625 537.625 433.332031 538.40625 435.027344 539.140625 C 436.726562 539.878906 438.4375 540.574219 440.171875 541.226562 C 441.902344 541.875 443.652344 542.480469 445.414062 543.042969 C 447.179688 543.601562 448.953125 544.117188 450.746094 544.585938 C 452.535156 545.058594 454.335938 545.480469 456.144531 545.859375 C 457.957031 546.234375 459.777344 546.566406 461.605469 546.851562 C 463.433594 547.136719 465.269531 547.375 467.109375 547.5625 C 468.949219 547.753906 470.792969 547.898438 472.640625 547.992188 C 474.488281 548.089844 476.335938 548.140625 478.1875 548.140625 C 480.039062 548.140625 481.886719 548.09375 483.734375 548.003906 C 485.582031 547.910156 487.425781 547.769531 489.269531 547.582031 C 491.109375 547.394531 492.945312 547.160156 494.773438 546.875 C 496.601562 546.59375 498.421875 546.265625 500.234375 545.890625 C 502.046875 545.515625 503.847656 545.097656 505.636719 544.628906 C 507.425781 544.160156 509.203125 543.648438 510.96875 543.089844 C 512.734375 542.53125 514.480469 541.929688 516.214844 541.28125 C 517.949219 540.632812 519.664062 539.941406 521.359375 539.207031 C 523.058594 538.472656 524.738281 537.691406 526.394531 536.871094 C 528.050781 536.050781 529.6875 535.1875 531.300781 534.28125 C 532.914062 533.375 534.503906 532.429688 536.070312 531.445312 C 537.636719 530.457031 539.175781 529.429688 540.6875 528.367188 C 542.199219 527.300781 543.683594 526.199219 545.140625 525.054688 C 546.597656 523.914062 548.023438 522.738281 549.417969 521.523438 C 550.816406 520.308594 552.179688 519.058594 553.511719 517.773438 C 554.84375 516.488281 556.140625 515.171875 557.40625 513.820312 C 558.671875 512.472656 559.898438 511.089844 561.09375 509.675781 C 562.289062 508.261719 563.445312 506.816406 564.5625 505.34375 C 565.683594 503.871094 566.765625 502.371094 567.808594 500.84375 C 568.851562 499.316406 569.855469 497.761719 570.816406 496.179688 C 571.78125 494.601562 572.703125 493 573.585938 491.371094 C 574.464844 489.746094 575.304688 488.097656 576.101562 486.425781 C 576.898438 484.757812 577.652344 483.066406 578.363281 481.359375 C 579.074219 479.648438 579.742188 477.925781 580.363281 476.183594 C 580.984375 474.4375 581.5625 472.683594 582.09375 470.910156 C 582.625 469.136719 583.113281 467.351562 583.554688 465.554688 C 583.992188 463.757812 584.386719 461.953125 584.734375 460.132812 C 585.085938 458.316406 585.386719 456.492188 585.640625 454.660156 C 585.894531 452.828125 586.101562 450.988281 586.261719 449.144531 C 586.425781 447.300781 586.539062 445.457031 586.601562 443.605469 C 586.667969 441.757812 586.6875 439.910156 586.660156 438.058594 C 586.628906 436.207031 586.554688 434.359375 586.429688 432.515625 C 586.308594 430.667969 586.136719 428.824219 585.921875 426.988281 C 585.703125 425.152344 585.4375 423.320312 585.125 421.496094 C 584.816406 419.671875 584.457031 417.859375 584.054688 416.050781 C 583.648438 414.246094 583.199219 412.453125 582.703125 410.671875 C 582.207031 408.886719 581.664062 407.117188 581.078125 405.363281 C 580.492188 403.609375 579.859375 401.871094 579.183594 400.148438 C 578.507812 398.425781 577.789062 396.722656 577.027344 395.035156 C 576.265625 393.351562 575.457031 391.683594 574.609375 390.039062 C 573.761719 388.394531 572.871094 386.773438 571.941406 385.175781 C 571.007812 383.578125 570.039062 382.003906 569.027344 380.453125 C 568.015625 378.90625 566.964844 377.382812 565.875 375.886719 C 564.785156 374.390625 563.65625 372.925781 562.492188 371.488281 Z M 492.082031 305.832031 C 496.664062 305.832031 500.378906 299.796875 500.378906 292.351562 C 500.378906 284.90625 496.664062 278.871094 492.082031 278.871094 C 487.5 278.871094 483.785156 284.90625 483.785156 292.351562 C 483.785156 299.796875 487.5 305.832031 492.082031 305.832031 Z M 492.082031 305.832031 " fill-opacity="1" fill-rule="nonzero"/><path fill="#18b9cd" d="M 444.160156 542.621094 C 427.652344 563.816406 399.902344 577.710938 368.464844 577.710938 C 317.820312 577.710938 276.71875 541.582031 276.71875 496.996094 C 276.71875 469.164062 292.726562 444.613281 317.117188 430.09375 L 308.15625 462.777344 C 307.695312 464.449219 307.304688 466.136719 306.980469 467.839844 C 306.65625 469.542969 306.402344 471.257812 306.21875 472.980469 C 306.03125 474.707031 305.917969 476.433594 305.871094 478.167969 C 305.828125 479.902344 305.851562 481.632812 305.949219 483.363281 C 306.042969 485.097656 306.207031 486.820312 306.441406 488.539062 C 306.675781 490.257812 306.980469 491.960938 307.351562 493.65625 C 307.726562 495.347656 308.164062 497.023438 308.671875 498.683594 C 309.179688 500.339844 309.757812 501.976562 310.394531 503.585938 C 311.035156 505.199219 311.742188 506.78125 312.507812 508.335938 C 313.277344 509.890625 314.109375 511.410156 315 512.898438 C 315.890625 514.382812 316.839844 515.832031 317.851562 517.242188 C 318.859375 518.652344 319.921875 520.019531 321.042969 521.34375 C 322.160156 522.667969 323.332031 523.945312 324.554688 525.175781 C 325.777344 526.402344 327.050781 527.582031 328.367188 528.707031 C 329.683594 529.835938 331.046875 530.90625 332.449219 531.921875 C 333.855469 532.9375 335.300781 533.898438 336.78125 534.796875 C 338.265625 535.695312 339.78125 536.535156 341.332031 537.3125 C 342.878906 538.089844 344.460938 538.800781 346.066406 539.449219 C 347.675781 540.101562 349.304688 540.683594 350.960938 541.199219 C 352.617188 541.71875 354.289062 542.167969 355.980469 542.546875 C 357.671875 542.929688 359.375 543.242188 361.09375 543.488281 C 362.808594 543.730469 364.53125 543.90625 366.265625 544.007812 C 367.996094 544.113281 369.726562 544.148438 371.460938 544.113281 C 373.195312 544.074219 374.921875 543.96875 376.648438 543.792969 C 378.371094 543.617188 380.089844 543.375 381.792969 543.058594 C 383.5 542.746094 385.1875 542.363281 386.863281 541.910156 C 388.535156 541.460938 390.1875 540.941406 391.820312 540.355469 C 393.453125 539.769531 395.058594 539.121094 396.640625 538.40625 C 398.21875 537.691406 399.765625 536.914062 401.285156 536.074219 C 402.800781 535.234375 404.28125 534.332031 405.726562 533.375 C 407.167969 532.414062 408.570312 531.394531 409.933594 530.324219 C 411.292969 529.25 412.609375 528.121094 413.882812 526.941406 C 423.132812 533.792969 433.222656 539.019531 444.160156 542.621094 Z M 495.671875 138.222656 C 493.347656 136.050781 490.824219 134.136719 488.109375 132.476562 C 485.390625 130.816406 482.535156 129.445312 479.542969 128.363281 C 476.546875 127.285156 473.476562 126.515625 470.324219 126.058594 C 467.175781 125.605469 464.011719 125.46875 460.832031 125.65625 C 457.179688 124.113281 453.472656 122.710938 449.714844 121.453125 C 445.957031 120.191406 442.152344 119.078125 438.308594 118.109375 C 434.464844 117.140625 430.585938 116.316406 426.679688 115.644531 C 422.773438 114.96875 418.847656 114.445312 414.898438 114.074219 C 410.953125 113.699219 406.996094 113.476562 403.03125 113.40625 C 399.066406 113.335938 395.105469 113.414062 391.148438 113.644531 C 387.1875 113.875 383.246094 114.257812 379.316406 114.789062 C 375.386719 115.324219 371.484375 116.003906 367.605469 116.835938 C 363.730469 117.664062 359.890625 118.644531 356.089844 119.765625 C 352.285156 120.890625 348.53125 122.15625 344.824219 123.566406 C 341.121094 124.976562 337.472656 126.527344 333.886719 128.21875 C 330.300781 129.90625 326.78125 131.730469 323.332031 133.6875 C 319.886719 135.644531 316.515625 137.730469 313.230469 139.945312 C 309.941406 142.160156 306.742188 144.496094 303.628906 146.957031 C 300.519531 149.414062 297.507812 151.988281 294.59375 154.679688 C 291.679688 157.367188 288.875 160.164062 286.175781 163.070312 L 252.621094 199.152344 C 249.925781 202.046875 247.347656 205.039062 244.882812 208.132812 C 242.414062 211.222656 240.070312 214.402344 237.847656 217.671875 C 235.625 220.945312 233.527344 224.292969 231.558594 227.722656 C 229.589844 231.152344 227.757812 234.652344 226.054688 238.21875 C 224.351562 241.789062 222.789062 245.417969 221.363281 249.105469 C 219.9375 252.796875 218.65625 256.53125 217.515625 260.320312 C 216.375 264.105469 215.378906 267.929688 214.53125 271.789062 C 213.679688 275.652344 212.980469 279.539062 212.425781 283.457031 C 211.875 287.371094 211.46875 291.300781 211.214844 295.25 C 210.960938 299.195312 210.859375 303.144531 210.90625 307.097656 C 210.953125 311.050781 211.152344 315 211.5 318.9375 C 211.847656 322.875 212.34375 326.796875 212.988281 330.695312 C 213.636719 334.597656 214.429688 338.46875 215.371094 342.308594 C 216.3125 346.148438 217.398438 349.949219 218.628906 353.707031 C 219.859375 357.464844 221.230469 361.167969 222.742188 364.824219 C 224.257812 368.476562 225.90625 372.066406 227.691406 375.59375 C 227.648438 376.898438 227.65625 378.203125 227.710938 379.503906 C 227.765625 380.808594 227.871094 382.109375 228.027344 383.40625 C 228.179688 384.699219 228.382812 385.988281 228.636719 387.269531 C 228.886719 388.546875 229.1875 389.816406 229.535156 391.074219 C 229.886719 392.332031 230.28125 393.574219 230.722656 394.800781 C 231.164062 396.027344 231.652344 397.238281 232.1875 398.425781 C 232.722656 399.617188 233.300781 400.785156 233.921875 401.933594 C 234.546875 403.078125 235.210938 404.199219 235.917969 405.296875 C 236.628906 406.390625 237.375 407.460938 238.164062 408.5 C 238.953125 409.539062 239.78125 410.546875 240.644531 411.523438 C 241.511719 412.5 242.410156 413.441406 243.347656 414.351562 C 244.285156 415.257812 245.253906 416.128906 246.257812 416.964844 C 247.261719 417.796875 248.292969 418.59375 249.355469 419.351562 C 250.421875 420.105469 251.511719 420.820312 252.628906 421.496094 C 253.746094 422.167969 254.886719 422.800781 256.050781 423.386719 C 257.21875 423.972656 258.402344 424.515625 259.609375 425.011719 C 260.816406 425.507812 262.039062 425.960938 263.277344 426.363281 C 264.519531 426.769531 265.773438 427.125 267.042969 427.433594 C 268.308594 427.742188 269.585938 428.003906 270.875 428.214844 C 272.160156 428.429688 273.453125 428.59375 274.753906 428.707031 C 276.054688 428.820312 277.355469 428.886719 278.660156 428.902344 C 279.964844 428.917969 281.269531 428.882812 282.570312 428.796875 C 283.871094 428.714844 285.167969 428.582031 286.460938 428.402344 C 287.753906 428.21875 289.035156 427.988281 290.3125 427.710938 C 291.585938 427.429688 292.847656 427.101562 294.097656 426.726562 C 295.347656 426.351562 296.582031 425.933594 297.796875 425.464844 C 299.015625 424.996094 300.214844 424.480469 301.394531 423.921875 C 302.570312 423.363281 303.726562 422.757812 304.859375 422.113281 C 305.992188 421.464844 307.101562 420.777344 308.179688 420.046875 C 309.261719 419.3125 310.3125 418.542969 311.335938 417.734375 C 312.359375 416.921875 313.347656 416.074219 314.304688 415.1875 C 315.265625 414.300781 316.1875 413.382812 317.074219 412.425781 L 498.535156 217.320312 C 499.785156 215.980469 500.964844 214.578125 502.078125 213.121094 C 503.191406 211.664062 504.230469 210.15625 505.195312 208.597656 C 506.160156 207.039062 507.042969 205.433594 507.851562 203.789062 C 508.65625 202.140625 509.382812 200.457031 510.023438 198.742188 C 510.664062 197.023438 511.21875 195.277344 511.6875 193.503906 C 512.15625 191.734375 512.539062 189.941406 512.832031 188.132812 C 513.125 186.320312 513.328125 184.5 513.441406 182.671875 C 513.554688 180.84375 513.578125 179.011719 513.511719 177.179688 C 513.445312 175.347656 513.289062 173.519531 513.042969 171.703125 C 512.796875 169.886719 512.464844 168.085938 512.042969 166.300781 C 511.617188 164.519531 511.109375 162.757812 510.511719 161.027344 C 509.917969 159.292969 509.238281 157.589844 508.472656 155.925781 C 507.710938 154.257812 506.867188 152.632812 505.941406 151.046875 C 505.019531 149.464844 504.019531 147.929688 502.945312 146.441406 C 501.871094 144.957031 500.726562 143.527344 499.511719 142.15625 C 498.296875 140.78125 497.015625 139.472656 495.671875 138.222656 Z M 495.671875 138.222656 " fill-opacity="1" fill-rule="nonzero"/></svg>