<svg xmlns="http://www.w3.org/2000/svg" xmlns:xlink="http://www.w3.org/1999/xlink" width="1080" zoomAndPan="magnify" viewBox="0 0 810 809.999993" height="1080" preserveAspectRatio="xMidYMid meet" version="1.0"><defs><clipPath id="309da79599"><path d="M 67.5 53.4375 L 742.5 53.4375 L 742.5 728 L 67.5 728 Z M 67.5 53.4375 " clip-rule="nonzero"/></clipPath></defs><g clip-path="url(#309da79599)"><path fill="#ff66c4" d="M 742.328125 390.699219 C 742.328125 395.132812 742.242188 399.566406 742.066406 403.996094 C 741.890625 408.429688 741.628906 412.851562 741.28125 417.273438 C 740.929688 421.695312 740.496094 426.105469 739.972656 430.507812 C 739.449219 434.910156 738.835938 439.304688 738.140625 443.683594 C 737.445312 448.0625 736.660156 452.425781 735.792969 456.773438 C 734.921875 461.121094 733.96875 465.449219 732.929688 469.761719 C 731.890625 474.070312 730.765625 478.359375 729.558594 482.625 C 728.347656 486.890625 727.058594 491.132812 725.679688 495.347656 C 724.304688 499.5625 722.847656 503.75 721.304688 507.90625 C 719.765625 512.066406 718.140625 516.191406 716.4375 520.285156 C 714.734375 524.378906 712.949219 528.4375 711.085938 532.460938 C 709.222656 536.484375 707.28125 540.46875 705.257812 544.414062 C 703.238281 548.363281 701.140625 552.265625 698.964844 556.132812 C 696.789062 559.996094 694.539062 563.816406 692.214844 567.589844 C 689.886719 571.363281 687.488281 575.09375 685.015625 578.773438 C 682.542969 582.453125 680 586.085938 677.382812 589.664062 C 674.769531 593.246094 672.082031 596.773438 669.328125 600.246094 C 666.574219 603.722656 663.75 607.140625 660.859375 610.503906 C 657.96875 613.867188 655.015625 617.171875 651.996094 620.417969 C 648.976562 623.664062 645.890625 626.847656 642.746094 629.972656 C 639.601562 633.097656 636.394531 636.160156 633.128906 639.160156 C 629.859375 642.15625 626.535156 645.089844 623.152344 647.957031 C 619.769531 650.824219 616.332031 653.625 612.839844 656.355469 C 609.347656 659.089844 605.804688 661.75 602.207031 664.34375 C 598.609375 666.933594 594.960938 669.453125 591.261719 671.902344 C 587.566406 674.351562 583.824219 676.722656 580.03125 679.023438 C 576.242188 681.324219 572.40625 683.550781 568.527344 685.699219 C 564.648438 687.847656 560.730469 689.917969 556.769531 691.914062 C 552.808594 693.910156 548.8125 695.824219 544.777344 697.660156 C 540.742188 699.5 536.671875 701.253906 532.566406 702.929688 C 528.460938 704.605469 524.324219 706.203125 520.15625 707.714844 C 515.988281 709.230469 511.792969 710.660156 507.566406 712.007812 C 503.34375 713.355469 499.09375 714.617188 494.820312 715.796875 C 490.546875 716.976562 486.25 718.074219 481.933594 719.085938 C 477.613281 720.09375 473.28125 721.019531 468.925781 721.859375 C 464.570312 722.699219 460.203125 723.453125 455.820312 724.121094 C 451.4375 724.789062 447.039062 725.367188 442.632812 725.863281 C 438.226562 726.355469 433.8125 726.765625 429.390625 727.082031 C 424.96875 727.402344 420.539062 727.636719 416.109375 727.78125 C 411.675781 727.925781 407.246094 727.984375 402.8125 727.953125 C 398.375 727.925781 393.945312 727.808594 389.515625 727.605469 C 385.085938 727.398438 380.664062 727.109375 376.246094 726.730469 C 371.828125 726.351562 367.417969 725.886719 363.019531 725.332031 C 358.617188 724.78125 354.230469 724.140625 349.859375 723.414062 C 345.484375 722.6875 341.125 721.878906 336.78125 720.980469 C 332.441406 720.082031 328.117188 719.097656 323.8125 718.03125 C 319.511719 716.964844 315.230469 715.8125 310.972656 714.574219 C 306.714844 713.335938 302.480469 712.015625 298.277344 710.613281 C 294.070312 709.207031 289.894531 707.722656 285.746094 706.152344 C 281.597656 704.585938 277.484375 702.933594 273.402344 701.203125 C 269.320312 699.472656 265.273438 697.664062 261.261719 695.773438 C 257.25 693.882812 253.277344 691.914062 249.34375 689.867188 C 245.410156 687.820312 241.519531 685.695312 237.671875 683.496094 C 233.820312 681.292969 230.015625 679.019531 226.257812 676.667969 C 222.496094 674.316406 218.785156 671.894531 215.121094 669.394531 C 211.457031 666.898438 207.84375 664.332031 204.28125 661.691406 C 200.71875 659.050781 197.207031 656.34375 193.753906 653.5625 C 190.296875 650.785156 186.898438 647.941406 183.554688 645.027344 C 180.210938 642.117188 176.925781 639.140625 173.699219 636.097656 C 170.472656 633.058594 167.304688 629.953125 164.203125 626.785156 C 161.097656 623.621094 158.058594 620.394531 155.082031 617.105469 C 152.105469 613.820312 149.195312 610.476562 146.347656 607.074219 C 143.503906 603.675781 140.726562 600.21875 138.019531 596.707031 C 135.3125 593.195312 132.671875 589.632812 130.105469 586.019531 C 125.0625 578.945312 120.300781 571.691406 115.824219 564.25 C 111.34375 556.804688 107.160156 549.203125 103.273438 541.433594 C 99.386719 533.667969 95.804688 525.761719 92.53125 517.714844 C 89.257812 509.671875 86.304688 501.511719 83.664062 493.238281 C 81.023438 484.960938 78.710938 476.597656 76.71875 468.144531 C 74.730469 459.6875 73.074219 451.167969 71.746094 442.585938 C 70.417969 434.003906 69.425781 425.378906 68.765625 416.71875 C 68.109375 408.058594 67.789062 399.386719 67.804688 390.699219 C 67.804688 204.429688 218.796875 53.4375 405.066406 53.4375 C 591.335938 53.4375 742.328125 204.429688 742.328125 390.699219 Z M 742.328125 390.699219 " fill-opacity="1" fill-rule="nonzero"/></g><path fill="#18b9cd" d="M 534.820312 612.621094 L 380.222656 559.625 L 212.804688 587.945312 C 212.046875 588.074219 211.28125 588.148438 210.511719 588.160156 C 209.738281 588.175781 208.972656 588.132812 208.207031 588.03125 C 207.445312 587.933594 206.691406 587.773438 205.949219 587.5625 C 205.210938 587.347656 204.488281 587.082031 203.789062 586.761719 C 203.085938 586.441406 202.414062 586.070312 201.769531 585.648438 C 201.125 585.230469 200.511719 584.761719 199.9375 584.25 C 199.363281 583.738281 198.828125 583.183594 198.335938 582.59375 C 197.839844 582 197.394531 581.375 196.996094 580.714844 C 196.59375 580.058594 196.246094 579.371094 195.949219 578.660156 C 195.652344 577.949219 195.410156 577.222656 195.222656 576.472656 C 195.03125 575.726562 194.902344 574.96875 194.824219 574.203125 C 194.75 573.433594 194.734375 572.667969 194.773438 571.898438 C 194.8125 571.128906 194.910156 570.363281 195.0625 569.609375 C 195.214844 568.855469 195.425781 568.113281 195.691406 567.390625 C 195.953125 566.667969 196.269531 565.964844 196.640625 565.289062 C 197.007812 564.613281 197.425781 563.96875 197.890625 563.351562 L 255.207031 487.648438 L 316.164062 467.789062 L 384.707031 551.914062 L 511.523438 453.585938 L 530.585938 454.296875 L 557.734375 592.679688 C 558.03125 594.191406 558.125 595.714844 558.019531 597.25 C 557.914062 598.789062 557.609375 600.285156 557.109375 601.738281 C 556.609375 603.195312 555.929688 604.5625 555.070312 605.839844 C 554.210938 607.117188 553.199219 608.261719 552.039062 609.269531 C 550.875 610.28125 549.605469 611.125 548.21875 611.800781 C 546.835938 612.476562 545.390625 612.960938 543.878906 613.253906 C 542.367188 613.550781 540.84375 613.644531 539.308594 613.535156 C 537.773438 613.429688 536.277344 613.125 534.820312 612.621094 Z M 534.820312 612.621094 " fill-opacity="1" fill-rule="nonzero"/><path fill="#b84f43" d="M 513.996094 468.082031 L 407.246094 552.207031 C 406.269531 552.976562 405.257812 553.6875 404.207031 554.347656 C 403.152344 555.007812 402.070312 555.605469 400.953125 556.148438 C 399.839844 556.691406 398.695312 557.171875 397.53125 557.59375 C 396.363281 558.011719 395.175781 558.367188 393.96875 558.660156 C 392.761719 558.953125 391.546875 559.179688 390.316406 559.34375 C 389.085938 559.503906 387.851562 559.601562 386.609375 559.632812 C 385.371094 559.660156 384.132812 559.625 382.894531 559.519531 C 381.65625 559.417969 380.429688 559.25 379.210938 559.015625 C 377.992188 558.777344 376.792969 558.480469 375.605469 558.117188 C 374.417969 557.753906 373.253906 557.328125 372.113281 556.839844 C 370.976562 556.351562 369.863281 555.800781 368.78125 555.195312 C 367.699219 554.585938 366.652344 553.921875 365.644531 553.203125 C 364.632812 552.484375 363.664062 551.710938 362.734375 550.886719 C 361.808594 550.0625 360.925781 549.195312 360.089844 548.273438 C 359.257812 547.355469 358.472656 546.398438 357.742188 545.394531 C 357.011719 544.394531 356.335938 543.355469 355.714844 542.28125 L 323.453125 486.347656 L 316.835938 474.867188 C 274.8125 462.300781 240.332031 409.71875 235.097656 344.277344 C 233.542969 325.734375 234.546875 307.328125 238.109375 289.058594 L 251.390625 289.058594 L 270.707031 246.117188 L 269.867188 289.058594 L 301.878906 289.058594 L 308.746094 218.84375 L 324.710938 202.878906 L 319.136719 218.296875 L 331.664062 289.058594 L 417.929688 289.058594 C 421.644531 302.132812 424.035156 315.441406 425.09375 328.988281 C 429.15625 379.597656 414.746094 425.433594 389.691406 452.453125 L 397.023438 453.375 Z M 513.996094 468.082031 " fill-opacity="1" fill-rule="nonzero"/><path fill="#fcc00a" d="M 622.925781 426.394531 C 507.753906 514.25 418.851562 488.066406 371.550781 449.4375 C 438.460938 421.953125 422.707031 313.90625 418.765625 292.160156 C 418.515625 291.113281 418.222656 290.066406 417.929688 289.058594 L 331.664062 289.058594 L 319.136719 218.296875 L 324.710938 202.878906 L 308.746094 218.84375 L 301.878906 289.058594 L 269.867188 289.058594 L 270.707031 246.117188 L 251.390625 289.058594 L 238.109375 289.058594 C 237.273438 293.332031 236.5625 297.691406 236.015625 302.132812 C 238.363281 264.046875 254.449219 223.996094 283.945312 190.269531 C 345.28125 120.175781 441.433594 104.007812 498.660156 154.113281 C 524.722656 176.945312 538.210938 209.582031 539.34375 244.984375 L 539.386719 244.984375 C 539.386719 244.984375 541.730469 416.71875 622.925781 426.394531 Z M 392.207031 613.585938 L 424.171875 574.664062 L 380.222656 559.625 L 340.335938 566.371094 L 348.84375 613.585938 L 309.710938 714.261719 C 325.191406 718.824219 340.921875 722.25 356.894531 724.546875 C 372.871094 726.84375 388.929688 727.980469 405.066406 727.960938 C 412.566406 727.960938 419.980469 727.710938 427.3125 727.207031 Z M 316.832031 474.867188 L 316.832031 474.828125 L 316.792969 474.828125 C 279.503906 463.683594 248.207031 421.074219 237.945312 365.9375 C 226.421875 393.714844 207.234375 418.5625 175.351562 424.132812 C 202.039062 457.902344 250.304688 490.117188 322.53125 484.714844 Z M 316.832031 474.867188 " fill-opacity="1" fill-rule="nonzero"/><path fill="#242156" d="M 340.335938 566.371094 L 348.84375 613.585938 L 309.710938 714.261719 C 300.722656 711.609375 291.855469 708.585938 283.121094 705.195312 C 274.382812 701.804688 265.800781 698.054688 257.375 693.945312 C 248.949219 689.839844 240.707031 685.390625 232.652344 680.597656 C 224.597656 675.804688 216.757812 670.683594 209.128906 665.238281 C 201.5 659.789062 194.113281 654.035156 186.964844 647.972656 C 179.816406 641.910156 172.929688 635.5625 166.3125 628.925781 C 159.691406 622.289062 153.359375 615.390625 147.3125 608.226562 C 141.269531 601.0625 135.53125 593.660156 130.105469 586.019531 L 135.96875 570.601562 C 137.464844 566.6875 139.171875 562.871094 141.089844 559.148438 C 143.007812 555.425781 145.128906 551.820312 147.449219 548.332031 C 149.769531 544.84375 152.277344 541.5 154.972656 538.289062 C 157.664062 535.082031 160.527344 532.035156 163.5625 529.144531 C 166.59375 526.257812 169.777344 523.546875 173.113281 521.011719 C 176.449219 518.476562 179.914062 516.136719 183.511719 513.988281 C 187.105469 511.839844 190.808594 509.898438 194.621094 508.164062 C 198.433594 506.429688 202.332031 504.910156 206.3125 503.609375 L 255.207031 487.648438 L 197.890625 563.351562 C 197.425781 563.96875 197.007812 564.613281 196.640625 565.289062 C 196.269531 565.964844 195.953125 566.667969 195.691406 567.390625 C 195.425781 568.113281 195.214844 568.855469 195.0625 569.609375 C 194.910156 570.363281 194.8125 571.128906 194.773438 571.898438 C 194.734375 572.667969 194.75 573.433594 194.824219 574.203125 C 194.902344 574.96875 195.03125 575.726562 195.222656 576.472656 C 195.410156 577.222656 195.652344 577.949219 195.949219 578.660156 C 196.246094 579.371094 196.59375 580.058594 196.996094 580.714844 C 197.394531 581.375 197.839844 582 198.335938 582.59375 C 198.828125 583.183594 199.363281 583.738281 199.9375 584.25 C 200.511719 584.761719 201.125 585.230469 201.769531 585.648438 C 202.414062 586.070312 203.085938 586.441406 203.789062 586.761719 C 204.488281 587.082031 205.210938 587.351562 205.949219 587.5625 C 206.691406 587.773438 207.445312 587.933594 208.207031 588.03125 C 208.972656 588.132812 209.738281 588.175781 210.511719 588.160156 C 211.28125 588.148438 212.046875 588.074219 212.804688 587.945312 Z M 534.652344 474.953125 L 557.734375 592.679688 C 558.03125 594.191406 558.125 595.714844 558.019531 597.25 C 557.914062 598.789062 557.609375 600.285156 557.109375 601.738281 C 556.609375 603.195312 555.929688 604.5625 555.070312 605.839844 C 554.210938 607.117188 553.199219 608.261719 552.039062 609.269531 C 550.875 610.28125 549.601562 611.125 548.21875 611.800781 C 546.835938 612.476562 545.390625 612.960938 543.878906 613.253906 C 542.367188 613.550781 540.84375 613.644531 539.304688 613.535156 C 537.769531 613.429688 536.273438 613.125 534.820312 612.621094 L 424.171875 574.664062 L 392.203125 613.585938 L 427.3125 727.207031 C 434.242188 726.753906 441.148438 726.085938 448.035156 725.203125 C 454.917969 724.320312 461.769531 723.226562 468.589844 721.921875 C 475.40625 720.613281 482.179688 719.101562 488.90625 717.375 C 495.628906 715.652344 502.292969 713.722656 508.898438 711.585938 C 515.503906 709.453125 522.039062 707.113281 528.5 704.574219 C 534.960938 702.035156 541.335938 699.300781 547.628906 696.367188 C 553.921875 693.433594 560.117188 690.308594 566.214844 686.992188 C 572.316406 683.675781 578.308594 680.175781 584.191406 676.492188 C 590.074219 672.804688 595.835938 668.941406 601.480469 664.898438 C 607.125 660.855469 612.636719 656.644531 618.023438 652.261719 C 623.40625 647.878906 628.648438 643.335938 633.753906 638.628906 C 638.855469 633.921875 643.808594 629.0625 648.613281 624.046875 C 653.414062 619.035156 658.058594 613.878906 662.542969 608.582031 C 667.027344 603.28125 671.34375 597.847656 675.492188 592.28125 C 679.640625 586.714844 683.613281 581.027344 687.410156 575.214844 C 691.210938 569.402344 694.824219 563.480469 698.253906 557.445312 L 668.632812 506.25 C 666.523438 502.597656 664.191406 499.097656 661.640625 495.742188 C 659.085938 492.386719 656.332031 489.207031 653.378906 486.199219 C 650.421875 483.191406 647.289062 480.382812 643.980469 477.773438 C 640.667969 475.164062 637.207031 472.769531 633.59375 470.597656 C 629.980469 468.425781 626.246094 466.488281 622.390625 464.789062 C 618.53125 463.085938 614.582031 461.636719 610.542969 460.433594 C 606.5 459.230469 602.398438 458.289062 598.238281 457.605469 C 594.078125 456.921875 589.894531 456.503906 585.679688 456.351562 L 577.636719 456.058594 M 383.699219 458.402344 C 371.464844 469.464844 357.136719 476.292969 341.425781 477.550781 C 333.0625 478.203125 324.863281 477.308594 316.832031 474.867188 L 323.453125 486.347656 C 329.394531 487.542969 335.386719 487.890625 341.425781 487.394531 C 359.777344 485.929688 376.285156 476.796875 389.691406 462.257812 C 387.636719 461 385.625 459.746094 383.699219 458.402344 Z M 314.65625 388.605469 L 306.6875 388.605469 C 306.34375 388.605469 306 388.574219 305.664062 388.507812 C 305.324219 388.445312 304.992188 388.351562 304.671875 388.226562 C 304.351562 388.101562 304.042969 387.945312 303.75 387.765625 C 303.457031 387.582031 303.183594 387.375 302.929688 387.140625 C 302.675781 386.90625 302.445312 386.652344 302.238281 386.375 C 302.03125 386.097656 301.855469 385.804688 301.703125 385.496094 C 301.550781 385.1875 301.429688 384.867188 301.335938 384.53125 C 301.242188 384.199219 301.183594 383.863281 301.15625 383.519531 L 299.738281 366.734375 C 299.703125 366.347656 299.605469 365.976562 299.445312 365.625 C 299.285156 365.269531 299.070312 364.953125 298.800781 364.671875 C 298.535156 364.390625 298.230469 364.160156 297.882812 363.980469 C 297.539062 363.804688 297.171875 363.6875 296.789062 363.628906 C 296.40625 363.574219 296.023438 363.582031 295.640625 363.65625 C 295.257812 363.730469 294.898438 363.863281 294.5625 364.058594 C 294.226562 364.253906 293.929688 364.496094 293.675781 364.789062 C 293.421875 365.082031 293.222656 365.410156 293.078125 365.773438 L 285.800781 384.222656 C 285.542969 384.878906 285.378906 385.558594 285.308594 386.261719 C 285.242188 386.964844 285.273438 387.664062 285.402344 388.359375 C 285.53125 389.054688 285.75 389.71875 286.066406 390.347656 C 286.382812 390.980469 286.777344 391.558594 287.253906 392.078125 L 296.890625 402.597656 C 297.300781 403.039062 297.75 403.433594 298.242188 403.78125 C 298.734375 404.128906 299.253906 404.425781 299.804688 404.664062 C 300.355469 404.90625 300.925781 405.085938 301.515625 405.210938 C 302.105469 405.332031 302.699219 405.394531 303.300781 405.394531 C 303.902344 405.394531 304.5 405.332031 305.085938 405.210938 C 305.675781 405.085938 306.246094 404.90625 306.796875 404.664062 C 307.347656 404.425781 307.871094 404.128906 308.359375 403.78125 C 308.851562 403.433594 309.300781 403.039062 309.710938 402.597656 L 317.210938 394.386719 C 317.675781 393.882812 317.964844 393.292969 318.078125 392.613281 C 318.191406 391.9375 318.109375 391.285156 317.832031 390.65625 C 317.554688 390.027344 317.128906 389.527344 316.550781 389.15625 C 315.972656 388.785156 315.34375 388.601562 314.65625 388.605469 Z M 389.003906 615.667969 C 386.125 614.398438 383.15625 613.386719 380.101562 612.625 C 377.046875 611.867188 373.949219 611.375 370.8125 611.144531 C 367.671875 610.917969 364.535156 610.960938 361.40625 611.273438 C 358.273438 611.585938 355.191406 612.164062 352.15625 613.007812 C 364.394531 614.53125 376.675781 615.417969 389.003906 615.667969 Z M 273.433594 352.382812 C 276.90625 352.382812 279.71875 347.691406 279.71875 341.90625 C 279.71875 336.121094 276.90625 331.433594 273.433594 331.433594 C 269.964844 331.433594 267.148438 336.121094 267.148438 341.90625 C 267.148438 347.691406 269.964844 352.382812 273.433594 352.382812 Z M 344.65625 352.382812 C 348.128906 352.382812 350.941406 347.691406 350.941406 341.90625 C 350.941406 336.121094 348.128906 331.433594 344.65625 331.433594 C 341.1875 331.433594 338.375 336.121094 338.375 341.90625 C 338.375 347.691406 341.1875 352.382812 344.65625 352.382812 Z M 344.65625 352.382812 " fill-opacity="1" fill-rule="nonzero"/></svg>