<svg xmlns="http://www.w3.org/2000/svg" xmlns:xlink="http://www.w3.org/1999/xlink" width="1080" zoomAndPan="magnify" viewBox="0 0 810 809.999993" height="1080" preserveAspectRatio="xMidYMid meet" version="1.0"><defs><clipPath id="f1c8542680"><path d="M 67.5 53.4375 L 742.5 53.4375 L 742.5 729 L 67.5 729 Z M 67.5 53.4375 " clip-rule="nonzero"/></clipPath></defs><g clip-path="url(#f1c8542680)"><path fill="#cb6ce6" d="M 742.5 391.097656 C 742.5 395.722656 742.402344 400.34375 742.214844 404.964844 C 742.023438 409.585938 741.738281 414.199219 741.359375 418.808594 C 740.980469 423.417969 740.503906 428.015625 739.9375 432.605469 C 739.367188 437.195312 738.703125 441.769531 737.945312 446.332031 C 737.191406 450.894531 736.339844 455.4375 735.394531 459.964844 C 734.453125 464.492188 733.414062 469 732.285156 473.484375 C 731.15625 477.96875 729.9375 482.425781 728.625 486.859375 C 727.3125 491.292969 725.910156 495.699219 724.414062 500.078125 C 722.921875 504.453125 721.339844 508.796875 719.667969 513.109375 C 717.992188 517.417969 716.234375 521.695312 714.386719 525.933594 C 712.539062 530.171875 710.605469 534.371094 708.582031 538.53125 C 706.5625 542.691406 704.457031 546.808594 702.269531 550.878906 C 700.078125 554.953125 697.804688 558.980469 695.449219 562.960938 C 693.09375 566.9375 690.660156 570.867188 688.140625 574.746094 C 685.625 578.628906 683.03125 582.453125 680.355469 586.226562 C 677.679688 590 674.929688 593.714844 672.105469 597.375 C 669.277344 601.035156 666.375 604.632812 663.402344 608.175781 C 660.425781 611.714844 657.378906 615.191406 654.261719 618.609375 C 651.144531 622.023438 647.957031 625.371094 644.699219 628.65625 C 641.445312 631.941406 638.125 635.15625 634.734375 638.304688 C 631.347656 641.453125 627.898438 644.527344 624.382812 647.535156 C 620.867188 650.539062 617.292969 653.472656 613.660156 656.328125 C 610.023438 659.1875 606.332031 661.972656 602.582031 664.679688 C 598.832031 667.386719 595.03125 670.015625 591.171875 672.5625 C 587.316406 675.113281 583.40625 677.585938 579.449219 679.976562 C 575.488281 682.363281 571.484375 684.671875 567.429688 686.898438 C 563.375 689.121094 559.277344 691.261719 555.136719 693.320312 C 550.996094 695.375 546.8125 697.347656 542.589844 699.230469 C 538.367188 701.117188 534.105469 702.914062 529.808594 704.625 C 525.511719 706.332031 521.183594 707.953125 516.820312 709.484375 C 512.457031 711.015625 508.0625 712.457031 503.640625 713.808594 C 499.21875 715.160156 494.769531 716.417969 490.296875 717.589844 C 485.820312 718.757812 481.324219 719.832031 476.804688 720.816406 C 472.289062 721.796875 467.75 722.6875 463.195312 723.484375 C 458.640625 724.28125 454.070312 724.984375 449.488281 725.59375 C 444.902344 726.203125 440.308594 726.714844 435.703125 727.136719 C 431.097656 727.554688 426.484375 727.882812 421.867188 728.113281 C 417.25 728.34375 412.625 728.476562 408.003906 728.519531 C 403.378906 728.558594 398.753906 728.503906 394.132812 728.355469 C 389.511719 728.203125 384.894531 727.960938 380.28125 727.621094 C 375.671875 727.28125 371.066406 726.847656 366.472656 726.316406 C 361.878906 725.789062 357.300781 725.164062 352.730469 724.449219 C 348.164062 723.730469 343.609375 722.921875 339.074219 722.015625 C 334.539062 721.113281 330.027344 720.117188 325.53125 719.027344 C 321.039062 717.9375 316.566406 716.753906 312.121094 715.480469 C 307.675781 714.207031 303.257812 712.84375 298.871094 711.386719 C 294.480469 709.933594 290.125 708.386719 285.796875 706.753906 C 281.472656 705.117188 277.179688 703.394531 272.925781 701.585938 C 268.671875 699.773438 264.453125 697.875 260.277344 695.890625 C 256.101562 693.910156 251.964844 691.839844 247.875 689.683594 C 243.78125 687.53125 239.738281 685.292969 235.738281 682.972656 C 231.738281 680.652344 227.785156 678.25 223.882812 675.769531 C 219.984375 673.285156 216.132812 670.722656 212.339844 668.082031 C 208.542969 665.441406 204.800781 662.722656 201.117188 659.929688 C 197.433594 657.132812 193.808594 654.265625 190.242188 651.320312 C 186.675781 648.378906 183.171875 645.359375 179.730469 642.273438 C 176.289062 639.183594 172.910156 636.027344 169.597656 632.800781 C 166.285156 629.574219 163.039062 626.28125 159.863281 622.921875 C 156.6875 619.5625 153.582031 616.136719 150.542969 612.648438 C 147.507812 609.160156 144.542969 605.613281 141.652344 602.003906 C 138.761719 598.394531 135.949219 594.726562 133.210938 591 C 130.46875 587.273438 127.808594 583.492188 125.222656 579.660156 C 122.640625 575.824219 120.136719 571.9375 117.710938 568 C 115.285156 564.0625 112.945312 560.074219 110.683594 556.042969 C 103.628906 543.507812 97.410156 530.570312 92.023438 517.234375 C 86.636719 503.898438 82.128906 490.269531 78.496094 476.351562 C 74.863281 462.4375 72.136719 448.34375 70.320312 434.074219 C 68.503906 419.808594 67.605469 405.480469 67.632812 391.097656 C 67.632812 204.734375 218.703125 53.664062 405.066406 53.664062 C 591.429688 53.664062 742.5 204.734375 742.5 391.097656 Z M 742.5 391.097656 " fill-opacity="1" fill-rule="nonzero"/></g><path fill="#18b9cd" d="M 697.058594 560.277344 C 693.347656 566.683594 689.425781 572.960938 685.300781 579.105469 C 681.175781 585.253906 676.851562 591.261719 672.332031 597.125 C 667.808594 602.988281 663.101562 608.699219 658.203125 614.25 C 653.304688 619.804688 648.230469 625.191406 642.980469 630.410156 C 637.730469 635.632812 632.3125 640.671875 626.726562 645.535156 C 621.144531 650.398438 615.40625 655.074219 609.515625 659.558594 C 603.625 664.042969 597.59375 668.332031 591.421875 672.417969 C 585.246094 676.507812 578.945312 680.390625 572.515625 684.0625 C 566.089844 687.738281 559.546875 691.195312 552.890625 694.4375 C 546.234375 697.679688 539.476562 700.703125 532.621094 703.5 C 525.765625 706.296875 518.828125 708.867188 511.800781 711.210938 C 504.777344 713.550781 497.683594 715.660156 490.523438 717.535156 C 483.359375 719.410156 476.140625 721.046875 468.871094 722.445312 C 461.601562 723.847656 454.289062 725.003906 446.945312 725.921875 C 439.597656 726.84375 432.226562 727.519531 424.835938 727.953125 C 417.445312 728.386719 410.046875 728.574219 402.640625 728.523438 C 395.238281 728.46875 387.84375 728.171875 380.457031 727.632812 C 373.074219 727.089844 365.714844 726.308594 358.382812 725.285156 C 351.046875 724.257812 343.757812 722.996094 336.507812 721.492188 C 329.257812 719.984375 322.066406 718.246094 314.929688 716.265625 C 307.792969 714.289062 300.730469 712.078125 293.742188 709.636719 C 286.75 707.191406 279.851562 704.523438 273.035156 701.625 C 266.222656 698.730469 259.511719 695.609375 252.902344 692.273438 C 246.292969 688.933594 239.800781 685.382812 233.425781 681.613281 C 227.050781 677.847656 220.804688 673.875 214.691406 669.699219 C 208.578125 665.523438 202.609375 661.148438 196.785156 656.578125 C 190.957031 652.007812 185.289062 647.253906 179.777344 642.308594 C 174.265625 637.367188 168.917969 632.246094 163.742188 626.953125 C 158.566406 621.65625 153.574219 616.195312 148.757812 610.574219 C 143.941406 604.949219 139.3125 599.171875 134.878906 593.246094 C 130.441406 587.316406 126.203125 581.25 122.167969 575.042969 C 118.132812 568.835938 114.304688 562.5 110.683594 556.042969 L 166.097656 521.796875 C 177.882812 514.507812 190.402344 508.835938 203.652344 504.777344 L 203.652344 504.441406 C 199.757812 464.242188 231.613281 416.039062 284.765625 387.324219 C 327.730469 364.144531 373.671875 359.578125 406.367188 372.027344 C 439.019531 359.578125 485.003906 364.144531 527.925781 387.324219 C 581.453125 416.25 613.351562 464.871094 608.910156 505.238281 C 617.625 508 626.042969 511.484375 634.164062 515.683594 C 642.285156 519.886719 649.992188 524.746094 657.28125 530.261719 Z M 697.058594 560.277344 " fill-opacity="1" fill-rule="nonzero"/><path fill="#fcc00a" d="M 549.304688 284.640625 C 532.503906 328.703125 489.4375 359.203125 443.523438 369.964844 C 418.519531 375.828125 392.777344 376.53125 367.191406 373.863281 C 295.257812 366.363281 243.167969 299.023438 258.617188 228.371094 C 259.0625 226.335938 259.558594 224.308594 260.105469 222.292969 C 273.1875 173.949219 314.523438 134.386719 363.394531 123.4375 C 412.269531 112.488281 466.535156 130.632812 498.992188 168.777344 C 550.480469 183.859375 566.105469 240.578125 549.304688 284.640625 Z M 449.5 707.671875 C 451.5 702.042969 453.214844 696.328125 454.644531 690.53125 C 456.070312 684.730469 457.203125 678.871094 458.039062 672.957031 C 458.878906 667.042969 459.417969 661.101562 459.65625 655.132812 C 459.894531 649.164062 459.835938 643.199219 459.476562 637.238281 C 459.117188 631.273438 458.457031 625.347656 457.5 619.449219 C 456.542969 613.554688 455.292969 607.71875 453.746094 601.949219 C 452.203125 596.179688 450.375 590.503906 448.257812 584.914062 C 446.144531 579.328125 443.753906 573.863281 441.085938 568.519531 C 440.960938 568.273438 440.816406 568.042969 440.644531 567.824219 C 440.476562 567.609375 440.285156 567.410156 440.074219 567.234375 C 439.867188 567.054688 439.640625 566.898438 439.402344 566.761719 C 439.164062 566.628906 438.910156 566.515625 438.648438 566.433594 C 438.386719 566.347656 438.121094 566.289062 437.847656 566.253906 C 437.574219 566.222656 437.300781 566.214844 437.027344 566.238281 C 436.75 566.257812 436.480469 566.308594 436.214844 566.382812 C 435.949219 566.457031 435.695312 566.554688 435.449219 566.679688 C 435.207031 566.804688 434.972656 566.953125 434.757812 567.121094 C 434.542969 567.292969 434.34375 567.484375 434.164062 567.691406 C 433.984375 567.902344 433.828125 568.125 433.695312 568.367188 C 433.558594 568.605469 433.449219 568.855469 433.363281 569.117188 C 433.277344 569.378906 433.21875 569.648438 433.1875 569.921875 C 433.15625 570.195312 433.148438 570.46875 433.171875 570.742188 C 433.191406 571.015625 433.238281 571.285156 433.3125 571.550781 C 433.386719 571.816406 433.488281 572.070312 433.613281 572.316406 C 436.148438 577.40625 438.425781 582.609375 440.441406 587.929688 C 442.453125 593.246094 444.195312 598.652344 445.667969 604.148438 C 447.136719 609.640625 448.328125 615.195312 449.238281 620.808594 C 450.148438 626.421875 450.777344 632.070312 451.121094 637.746094 C 451.464844 643.421875 451.519531 649.101562 451.292969 654.785156 C 451.066406 660.46875 450.550781 666.125 449.753906 671.753906 C 448.957031 677.386719 447.878906 682.960938 446.519531 688.484375 C 445.160156 694.007812 443.53125 699.449219 441.625 704.804688 C 441.53125 705.066406 441.460938 705.328125 441.417969 705.601562 C 441.378906 705.875 441.363281 706.148438 441.375 706.421875 C 441.386719 706.695312 441.425781 706.96875 441.492188 707.234375 C 441.554688 707.503906 441.648438 707.761719 441.765625 708.011719 C 441.878906 708.257812 442.019531 708.496094 442.183594 708.71875 C 442.34375 708.9375 442.527344 709.144531 442.730469 709.328125 C 442.933594 709.515625 443.152344 709.679688 443.386719 709.820312 C 443.625 709.964844 443.871094 710.082031 444.128906 710.175781 C 444.386719 710.269531 444.652344 710.339844 444.925781 710.378906 C 445.195312 710.421875 445.46875 710.4375 445.746094 710.425781 C 446.019531 710.414062 446.289062 710.375 446.558594 710.308594 C 446.824219 710.242188 447.082031 710.152344 447.332031 710.035156 C 447.582031 709.921875 447.816406 709.78125 448.039062 709.617188 C 448.261719 709.453125 448.464844 709.273438 448.652344 709.070312 C 448.835938 708.867188 449 708.648438 449.144531 708.414062 C 449.285156 708.175781 449.40625 707.929688 449.5 707.671875 Z M 366.632812 710.175781 C 366.890625 710.082031 367.136719 709.964844 367.371094 709.820312 C 367.609375 709.679688 367.828125 709.515625 368.03125 709.328125 C 368.234375 709.144531 368.417969 708.941406 368.578125 708.71875 C 368.742188 708.496094 368.882812 708.261719 368.996094 708.011719 C 369.113281 707.761719 369.207031 707.503906 369.269531 707.234375 C 369.335938 706.96875 369.375 706.699219 369.386719 706.421875 C 369.398438 706.148438 369.382812 705.875 369.339844 705.601562 C 369.300781 705.328125 369.230469 705.066406 369.136719 704.804688 C 367.230469 699.449219 365.597656 694.007812 364.238281 688.484375 C 362.882812 682.960938 361.804688 677.386719 361.003906 671.753906 C 360.207031 666.125 359.695312 660.46875 359.46875 654.785156 C 359.238281 649.101562 359.296875 643.421875 359.640625 637.746094 C 359.984375 632.066406 360.609375 626.421875 361.519531 620.808594 C 362.433594 615.195312 363.625 609.640625 365.09375 604.148438 C 366.5625 598.652344 368.304688 593.246094 370.320312 587.929688 C 372.332031 582.609375 374.609375 577.40625 377.148438 572.316406 C 377.273438 572.070312 377.371094 571.816406 377.445312 571.550781 C 377.523438 571.285156 377.570312 571.015625 377.589844 570.742188 C 377.613281 570.46875 377.605469 570.191406 377.574219 569.917969 C 377.542969 569.644531 377.484375 569.378906 377.398438 569.117188 C 377.3125 568.855469 377.203125 568.601562 377.066406 568.363281 C 376.933594 568.121094 376.777344 567.898438 376.597656 567.6875 C 376.417969 567.480469 376.21875 567.289062 376.003906 567.121094 C 375.789062 566.949219 375.558594 566.800781 375.3125 566.675781 C 375.066406 566.550781 374.808594 566.453125 374.546875 566.378906 C 374.28125 566.304688 374.011719 566.253906 373.734375 566.234375 C 373.460938 566.214844 373.1875 566.21875 372.914062 566.25 C 372.640625 566.285156 372.371094 566.34375 372.109375 566.429688 C 371.847656 566.515625 371.597656 566.625 371.359375 566.761719 C 371.117188 566.894531 370.894531 567.050781 370.683594 567.230469 C 370.472656 567.410156 370.285156 567.609375 370.113281 567.824219 C 369.945312 568.042969 369.796875 568.273438 369.671875 568.519531 C 367.007812 573.863281 364.617188 579.328125 362.5 584.914062 C 360.386719 590.5 358.554688 596.179688 357.011719 601.949219 C 355.46875 607.71875 354.21875 613.554688 353.261719 619.449219 C 352.304688 625.347656 351.644531 631.273438 351.285156 637.238281 C 350.925781 643.199219 350.863281 649.164062 351.101562 655.132812 C 351.34375 661.101562 351.882812 667.042969 352.71875 672.957031 C 353.558594 678.871094 354.691406 684.730469 356.117188 690.53125 C 357.542969 696.328125 359.257812 702.042969 361.261719 707.671875 C 361.355469 707.929688 361.472656 708.175781 361.613281 708.414062 C 361.757812 708.648438 361.921875 708.867188 362.109375 709.070312 C 362.292969 709.273438 362.496094 709.457031 362.71875 709.621094 C 362.941406 709.78125 363.175781 709.921875 363.425781 710.039062 C 363.675781 710.15625 363.933594 710.246094 364.203125 710.3125 C 364.46875 710.375 364.738281 710.414062 365.015625 710.425781 C 365.289062 710.4375 365.5625 710.421875 365.835938 710.382812 C 366.105469 710.339844 366.371094 710.269531 366.632812 710.175781 Z M 366.632812 710.175781 " fill-opacity="1" fill-rule="nonzero"/><path fill="#ed6e0f" d="M 552.113281 312.878906 C 552.113281 330.109375 544.480469 344.652344 534.003906 349.472656 C 533.898438 353.820312 533.574219 358.148438 533.027344 362.457031 C 532.484375 366.769531 531.722656 371.042969 530.746094 375.277344 C 529.769531 379.511719 528.578125 383.6875 527.179688 387.800781 C 525.777344 391.914062 524.171875 395.945312 522.363281 399.898438 C 520.554688 403.847656 518.550781 407.699219 516.351562 411.445312 C 514.152344 415.195312 511.769531 418.820312 509.199219 422.328125 C 506.632812 425.832031 503.894531 429.199219 500.988281 432.429688 C 498.078125 435.660156 495.011719 438.730469 491.792969 441.648438 L 492.882812 448.984375 L 500.050781 497.566406 L 405.820312 552.898438 L 310.082031 496.308594 L 317.164062 448.945312 L 318.296875 441.609375 C 315.082031 438.691406 312.019531 435.621094 309.113281 432.394531 C 306.210938 429.167969 303.472656 425.804688 300.910156 422.300781 C 298.34375 418.796875 295.964844 415.171875 293.765625 411.429688 C 291.570312 407.683594 289.566406 403.839844 287.761719 399.890625 C 285.953125 395.945312 284.347656 391.914062 282.949219 387.804688 C 281.550781 383.695312 280.363281 379.523438 279.386719 375.292969 C 278.410156 371.0625 277.648438 366.796875 277.105469 362.488281 C 276.558594 358.179688 276.234375 353.855469 276.128906 349.515625 C 265.609375 344.738281 257.9375 330.152344 257.9375 312.878906 C 257.878906 305.441406 259.347656 298.316406 262.339844 291.503906 C 266.179688 302.527344 271.503906 312.78125 278.308594 322.269531 C 280.074219 312.761719 282.886719 303.578125 286.742188 294.710938 C 290.601562 285.84375 295.402344 277.523438 301.152344 269.746094 C 301.179688 268.066406 301.25 266.382812 301.355469 264.703125 C 301.464844 263.023438 301.613281 261.347656 301.804688 259.671875 C 301.996094 258 302.226562 256.332031 302.496094 254.671875 C 302.765625 253.007812 303.078125 251.355469 303.429688 249.707031 C 303.78125 248.0625 304.171875 246.425781 304.601562 244.796875 C 305.035156 243.171875 305.503906 241.554688 306.011719 239.949219 C 306.523438 238.34375 307.070312 236.753906 307.65625 235.175781 C 308.246094 233.597656 308.871094 232.035156 309.53125 230.488281 C 310.195312 228.9375 310.894531 227.40625 311.632812 225.894531 C 312.367188 224.378906 313.140625 222.886719 313.953125 221.410156 C 314.761719 219.933594 315.605469 218.476562 316.488281 217.042969 C 317.367188 215.609375 318.285156 214.195312 319.234375 212.804688 C 320.183594 211.414062 321.164062 210.046875 322.179688 208.703125 C 323.195312 207.363281 324.242188 206.042969 325.324219 204.753906 C 326.402344 203.460938 327.511719 202.195312 328.652344 200.957031 C 329.796875 199.71875 330.964844 198.511719 332.164062 197.328125 C 333.367188 196.148438 334.59375 194.996094 335.847656 193.875 C 337.105469 192.753906 338.386719 191.664062 339.695312 190.605469 C 341.003906 189.546875 342.339844 188.519531 343.699219 187.523438 C 345.054688 186.53125 346.4375 185.570312 347.84375 184.644531 C 349.25 183.714844 350.675781 182.824219 352.125 181.964844 C 353.574219 181.109375 355.042969 180.285156 356.53125 179.5 C 358.019531 178.714844 359.527344 177.964844 361.050781 177.25 C 362.578125 176.539062 364.121094 175.863281 365.675781 175.226562 C 367.234375 174.585938 368.808594 173.988281 370.394531 173.425781 C 371.980469 172.863281 373.582031 172.339844 375.195312 171.855469 C 376.808594 171.371094 378.429688 170.929688 380.066406 170.523438 C 381.699219 170.117188 383.34375 169.753906 384.996094 169.425781 C 386.644531 169.101562 388.304688 168.816406 389.972656 168.574219 C 391.636719 168.328125 393.308594 168.125 394.984375 167.960938 C 396.660156 167.796875 398.335938 167.675781 400.019531 167.59375 C 401.699219 167.511719 403.382812 167.46875 405.066406 167.46875 C 406.75 167.46875 408.433594 167.511719 410.113281 167.59375 C 411.796875 167.675781 413.476562 167.796875 415.152344 167.960938 C 416.828125 168.125 418.496094 168.328125 420.164062 168.574219 C 421.828125 168.816406 423.488281 169.101562 425.140625 169.425781 C 426.792969 169.753906 428.433594 170.117188 430.070312 170.523438 C 431.703125 170.929688 433.328125 171.371094 434.9375 171.855469 C 436.550781 172.339844 438.152344 172.863281 439.738281 173.425781 C 441.324219 173.988281 442.898438 174.585938 444.457031 175.226562 C 446.015625 175.863281 447.554688 176.539062 449.082031 177.25 C 450.605469 177.964844 452.113281 178.714844 453.601562 179.5 C 455.089844 180.285156 456.558594 181.109375 458.007812 181.964844 C 459.457031 182.824219 460.882812 183.714844 462.289062 184.644531 C 463.695312 185.570312 465.078125 186.53125 466.4375 187.523438 C 467.796875 188.519531 469.128906 189.546875 470.4375 190.605469 C 471.746094 191.664062 473.027344 192.753906 474.285156 193.875 C 475.539062 194.996094 476.769531 196.148438 477.96875 197.328125 C 479.167969 198.511719 480.339844 199.71875 481.480469 200.957031 C 482.621094 202.195312 483.730469 203.460938 484.8125 204.753906 C 485.890625 206.042969 486.9375 207.363281 487.953125 208.703125 C 488.96875 210.046875 489.953125 211.414062 490.902344 212.804688 C 491.851562 214.195312 492.765625 215.609375 493.644531 217.042969 C 494.527344 218.476562 495.371094 219.933594 496.179688 221.410156 C 496.992188 222.886719 497.765625 224.378906 498.5 225.894531 C 499.238281 227.40625 499.9375 228.9375 500.601562 230.488281 C 501.265625 232.035156 501.890625 233.597656 502.476562 235.175781 C 503.0625 236.753906 503.609375 238.34375 504.121094 239.949219 C 504.628906 241.554688 505.101562 243.171875 505.53125 244.796875 C 505.960938 246.425781 506.351562 248.0625 506.703125 249.707031 C 507.054688 251.355469 507.367188 253.007812 507.636719 254.671875 C 507.910156 256.332031 508.140625 258 508.328125 259.671875 C 508.519531 261.347656 508.667969 263.023438 508.777344 264.703125 C 508.886719 266.382812 508.953125 268.066406 508.980469 269.746094 C 514.179688 276.777344 518.605469 284.265625 522.265625 292.207031 C 525.921875 300.152344 528.730469 308.382812 530.691406 316.90625 C 537.3125 308.691406 542.761719 299.761719 547.039062 290.121094 C 548.757812 293.664062 550.046875 297.359375 550.902344 301.203125 C 551.757812 305.050781 552.164062 308.941406 552.113281 312.878906 Z M 552.113281 312.878906 " fill-opacity="1" fill-rule="nonzero"/><path fill="#242156" d="M 359.210938 594.269531 C 358.453125 596.617188 357.785156 599.007812 357.113281 601.394531 C 268.960938 591.585938 203.613281 555.914062 203.613281 513.410156 C 203.613281 512.867188 203.613281 512.324219 203.652344 511.777344 C 203.320312 508.277344 203.234375 504.769531 203.40625 501.257812 C 203.484375 502.347656 203.570312 503.394531 203.652344 504.441406 C 203.613281 504.988281 203.613281 505.53125 203.613281 506.078125 C 203.613281 548.914062 269.96875 584.796875 359.210938 594.269531 Z M 406.199219 596.742188 C 393.035156 596.742188 380.167969 596.199219 367.71875 595.066406 C 366.960938 597.414062 366.25 599.804688 365.582031 602.234375 C 378.699219 603.449219 392.28125 604.078125 406.199219 604.078125 C 419.527344 604.078125 432.566406 603.492188 445.179688 602.359375 C 444.550781 599.929688 443.839844 597.539062 443.085938 595.191406 C 431.140625 596.238281 418.816406 596.742188 406.199219 596.742188 Z M 609.246094 501.382812 C 609.160156 503.226562 608.992188 505.027344 608.742188 506.832031 C 608.027344 549.585938 541.085938 585.300781 451.59375 594.394531 C 452.347656 596.742188 453.019531 599.132812 453.691406 601.523438 C 542.132812 592.046875 608.027344 556.585938 608.742188 514.167969 C 609.289062 509.921875 609.457031 505.660156 609.246094 501.382812 Z M 513.839844 415.453125 C 507.679688 425.183594 500.332031 433.917969 491.792969 441.648438 L 491.792969 441.523438 C 490.328125 442.859375 488.832031 444.164062 487.304688 445.429688 C 485.78125 446.699219 484.226562 447.929688 482.644531 449.128906 C 481.0625 450.324219 479.453125 451.480469 477.816406 452.601562 C 476.179688 453.722656 474.519531 454.808594 472.832031 455.851562 C 471.144531 456.898438 469.4375 457.902344 467.703125 458.867188 C 465.972656 459.832031 464.214844 460.757812 462.441406 461.644531 C 460.664062 462.527344 458.871094 463.371094 457.054688 464.171875 C 455.242188 464.972656 453.410156 465.730469 451.558594 466.449219 C 449.710938 467.164062 447.84375 467.839844 445.964844 468.46875 C 444.082031 469.101562 442.1875 469.6875 440.28125 470.230469 C 438.375 470.773438 436.453125 471.269531 434.523438 471.726562 C 432.59375 472.179688 430.652344 472.589844 428.703125 472.953125 C 426.75 473.316406 424.792969 473.636719 422.828125 473.910156 C 420.863281 474.183594 418.894531 474.410156 416.921875 474.59375 C 414.945312 474.777344 412.964844 474.914062 410.984375 475.003906 C 409.003906 475.097656 407.019531 475.140625 405.039062 475.140625 C 403.054688 475.140625 401.070312 475.09375 399.089844 475.003906 C 397.109375 474.910156 395.128906 474.773438 393.15625 474.589844 C 391.179688 474.40625 389.210938 474.175781 387.246094 473.902344 C 385.28125 473.625 383.324219 473.304688 381.375 472.941406 C 379.425781 472.574219 377.484375 472.164062 375.554688 471.710938 C 373.621094 471.253906 371.703125 470.757812 369.796875 470.210938 C 367.886719 469.667969 365.992188 469.082031 364.113281 468.449219 C 362.234375 467.820312 360.367188 467.144531 358.519531 466.425781 C 356.667969 465.707031 354.835938 464.949219 353.023438 464.144531 C 351.210938 463.34375 349.414062 462.5 347.640625 461.613281 C 345.863281 460.730469 344.109375 459.804688 342.378906 458.835938 C 340.644531 457.871094 338.9375 456.863281 337.25 455.820312 C 335.566406 454.773438 333.90625 453.691406 332.269531 452.566406 C 330.632812 451.445312 329.023438 450.285156 327.441406 449.089844 C 325.859375 447.894531 324.308594 446.660156 322.78125 445.390625 C 321.257812 444.125 319.761719 442.820312 318.296875 441.480469 L 318.296875 441.609375 C 310.160156 434.214844 303.089844 425.917969 297.085938 416.710938 L 252.824219 462.484375 L 310.082031 496.308594 L 317.164062 448.945312 C 318.640625 450.316406 320.144531 451.652344 321.683594 452.957031 C 323.21875 454.257812 324.785156 455.523438 326.378906 456.75 C 327.976562 457.980469 329.601562 459.171875 331.25 460.324219 C 332.902344 461.476562 334.582031 462.589844 336.285156 463.664062 C 337.988281 464.738281 339.71875 465.769531 341.46875 466.761719 C 343.222656 467.757812 344.996094 468.707031 346.792969 469.617188 C 348.589844 470.527344 350.40625 471.394531 352.246094 472.21875 C 354.082031 473.042969 355.9375 473.824219 357.8125 474.5625 C 359.6875 475.300781 361.578125 475.996094 363.484375 476.644531 C 365.390625 477.292969 367.308594 477.898438 369.246094 478.457031 C 371.179688 479.015625 373.128906 479.527344 375.085938 479.996094 C 377.046875 480.464844 379.015625 480.886719 380.992188 481.261719 C 382.972656 481.636719 384.957031 481.964844 386.953125 482.25 C 388.945312 482.53125 390.945312 482.769531 392.949219 482.957031 C 394.957031 483.144531 396.964844 483.289062 398.976562 483.382812 C 400.988281 483.476562 403 483.523438 405.015625 483.523438 C 407.03125 483.527344 409.042969 483.480469 411.054688 483.386719 C 413.066406 483.292969 415.074219 483.152344 417.082031 482.960938 C 419.085938 482.773438 421.085938 482.539062 423.078125 482.257812 C 425.074219 481.976562 427.058594 481.648438 429.039062 481.273438 C 431.019531 480.898438 432.988281 480.476562 434.945312 480.011719 C 436.90625 479.542969 438.851562 479.03125 440.789062 478.472656 C 442.722656 477.914062 444.644531 477.3125 446.550781 476.664062 C 448.457031 476.015625 450.347656 475.324219 452.222656 474.585938 C 454.097656 473.847656 455.953125 473.070312 457.792969 472.246094 C 459.628906 471.421875 461.449219 470.554688 463.246094 469.644531 C 465.042969 468.738281 466.816406 467.785156 468.570312 466.792969 C 470.324219 465.800781 472.050781 464.769531 473.753906 463.695312 C 475.460938 462.621094 477.136719 461.511719 478.789062 460.359375 C 480.441406 459.207031 482.066406 458.015625 483.664062 456.789062 C 485.261719 455.5625 486.828125 454.296875 488.363281 452.996094 C 489.902344 451.695312 491.40625 450.355469 492.882812 448.984375 L 500.050781 497.566406 L 559.867188 462.484375 Z M 355.078125 303.535156 C 358.84375 303.535156 361.890625 298.839844 361.890625 293.054688 C 361.890625 287.265625 358.84375 282.574219 355.078125 282.574219 C 351.316406 282.574219 348.269531 287.265625 348.269531 293.054688 C 348.269531 298.839844 351.316406 303.535156 355.078125 303.535156 Z M 455.679688 303.535156 C 459.441406 303.535156 462.492188 298.839844 462.492188 293.054688 C 462.492188 287.265625 459.441406 282.574219 455.679688 282.574219 C 451.917969 282.574219 448.871094 287.265625 448.871094 293.054688 C 448.871094 298.839844 451.917969 303.535156 455.679688 303.535156 Z M 419.777344 314.390625 C 419.660156 314.132812 419.503906 313.902344 419.308594 313.695312 C 419.113281 313.492188 418.890625 313.320312 418.640625 313.1875 C 418.386719 313.054688 418.125 312.964844 417.84375 312.917969 C 417.566406 312.875 417.285156 312.871094 417.003906 312.917969 C 416.726562 312.964844 416.460938 313.050781 416.210938 313.183594 C 415.957031 313.316406 415.734375 313.484375 415.539062 313.6875 C 415.34375 313.890625 415.183594 314.121094 415.0625 314.378906 C 414.945312 314.636719 414.867188 314.90625 414.832031 315.1875 L 413.046875 331.96875 C 413 332.425781 412.90625 332.875 412.773438 333.316406 C 412.640625 333.753906 412.46875 334.179688 412.257812 334.589844 C 412.046875 334.996094 411.800781 335.382812 411.519531 335.75 C 411.238281 336.113281 410.925781 336.445312 410.582031 336.753906 C 410.242188 337.058594 409.871094 337.332031 409.480469 337.570312 C 409.085938 337.8125 408.675781 338.011719 408.246094 338.175781 C 407.8125 338.339844 407.371094 338.460938 406.921875 338.542969 C 406.46875 338.625 406.011719 338.667969 405.550781 338.664062 C 398.144531 338.707031 390.800781 339.417969 383.519531 340.796875 C 382.929688 340.902344 382.410156 341.148438 381.953125 341.535156 C 381.496094 341.925781 381.171875 342.402344 380.976562 342.96875 C 380.78125 343.535156 380.742188 344.109375 380.859375 344.695312 C 380.976562 345.285156 381.234375 345.800781 381.632812 346.246094 L 400.414062 367.164062 C 400.707031 367.496094 401.027344 367.789062 401.382812 368.054688 C 401.734375 368.316406 402.113281 368.535156 402.511719 368.71875 C 402.914062 368.898438 403.332031 369.039062 403.761719 369.128906 C 404.191406 369.222656 404.625 369.269531 405.066406 369.269531 C 405.507812 369.269531 405.941406 369.222656 406.371094 369.128906 C 406.804688 369.039062 407.21875 368.898438 407.621094 368.71875 C 408.019531 368.535156 408.398438 368.316406 408.753906 368.054688 C 409.105469 367.789062 409.429688 367.496094 409.71875 367.164062 L 428.835938 345.847656 C 429.355469 345.269531 429.777344 344.632812 430.109375 343.933594 C 430.441406 343.234375 430.664062 342.5 430.78125 341.734375 C 430.898438 340.972656 430.90625 340.207031 430.796875 339.4375 C 430.691406 338.671875 430.480469 337.9375 430.160156 337.234375 Z M 419.777344 314.390625 " fill-opacity="1" fill-rule="nonzero"/></svg>