<svg xmlns="http://www.w3.org/2000/svg" xmlns:xlink="http://www.w3.org/1999/xlink" width="1080" zoomAndPan="magnify" viewBox="0 0 810 809.999993" height="1080" preserveAspectRatio="xMidYMid meet" version="1.0"><defs><clipPath id="282d1dbd3d"><path d="M 67.5 69.339844 L 739 69.339844 L 739 740.589844 L 67.5 740.589844 Z M 67.5 69.339844 " clip-rule="nonzero"/></clipPath><clipPath id="9903660e8d"><path d="M 163 162 L 617 162 L 617 740.589844 L 163 740.589844 Z M 163 162 " clip-rule="nonzero"/></clipPath></defs><g clip-path="url(#282d1dbd3d)"><path fill="#ffde59" d="M 403.234375 740.515625 C 374.050781 740.527344 345.34375 736.816406 317.121094 729.390625 C 305.941406 726.425781 294.949219 722.886719 284.136719 718.777344 C 273.328125 714.667969 262.757812 710.007812 252.433594 704.800781 C 242.109375 699.589844 232.082031 693.859375 222.351562 687.609375 C 212.621094 681.355469 203.242188 674.617188 194.214844 667.386719 C 186.980469 661.636719 179.960938 655.546875 173.191406 649.203125 C 169.851562 646.070312 166.59375 642.898438 163.421875 639.644531 C 160.800781 636.976562 158.222656 634.269531 155.726562 631.523438 C 155.261719 630.929688 154.796875 630.464844 154.289062 629.914062 C 153.570312 629.152344 152.851562 628.390625 152.171875 627.589844 C 150.945312 626.191406 149.761719 624.796875 148.535156 623.402344 C 138.480469 611.699219 129.273438 599.363281 120.917969 586.394531 C 120.773438 586.097656 120.589844 585.832031 120.367188 585.589844 C 120.3125 585.441406 120.242188 585.300781 120.15625 585.167969 C 117.828125 581.570312 115.589844 577.933594 113.429688 574.253906 C 109.285156 567.105469 105.351562 559.789062 101.757812 552.347656 C 99.21875 547.230469 96.808594 542.027344 94.566406 536.738281 C 92.621094 532.214844 90.804688 527.644531 89.070312 523.035156 C 81.972656 504.152344 76.625 484.789062 73.027344 464.9375 C 69.433594 445.089844 67.644531 425.078125 67.667969 404.90625 C 67.667969 219.570312 217.898438 69.339844 403.234375 69.339844 C 576.9375 69.339844 719.851562 201.34375 737.066406 370.480469 C 738.375 383.359375 738.945312 396.269531 738.769531 409.214844 C 738.597656 422.160156 737.679688 435.050781 736.027344 447.890625 C 734.371094 460.730469 731.984375 473.433594 728.871094 486 C 725.757812 498.5625 721.933594 510.910156 717.398438 523.035156 C 713.71875 532.765625 709.617188 542.324219 705.132812 551.585938 C 704.921875 551.964844 704.753906 552.347656 704.542969 552.683594 C 704.246094 553.320312 703.90625 553.953125 703.652344 554.503906 C 701.453125 558.988281 699.128906 563.425781 696.675781 567.785156 C 693.332031 573.875 689.78125 579.878906 686.015625 585.71875 C 680.898438 593.667969 675.398438 601.492188 669.648438 609.019531 C 669.015625 609.824219 668.421875 610.628906 667.789062 611.433594 C 663.640625 616.71875 659.328125 621.835938 654.929688 626.785156 L 654.84375 626.871094 C 654.421875 627.378906 653.871094 627.96875 653.40625 628.519531 C 650.574219 631.734375 647.65625 634.820312 644.652344 637.910156 L 644.398438 638.164062 C 642.199219 640.488281 639.914062 642.773438 637.632812 645.015625 C 635.8125 646.789062 633.996094 648.523438 632.132812 650.257812 C 630.609375 651.738281 628.960938 653.21875 627.4375 654.574219 C 624.054688 657.703125 620.5 660.707031 616.90625 663.667969 C 616.0625 664.425781 615.171875 665.148438 614.285156 665.867188 L 614.242188 665.867188 C 606.855469 671.863281 599.222656 677.535156 591.351562 682.878906 C 583.476562 688.226562 575.390625 693.222656 567.089844 697.878906 C 558.789062 702.53125 550.304688 706.820312 541.636719 710.75 C 532.972656 714.679688 524.152344 718.230469 515.179688 721.402344 C 506.210938 724.578125 497.121094 727.363281 487.910156 729.757812 C 478.703125 732.152344 469.40625 734.152344 460.027344 735.753906 C 450.644531 737.355469 441.214844 738.554688 431.730469 739.347656 C 422.25 740.144531 412.75 740.53125 403.234375 740.515625 " fill-opacity="1" fill-rule="nonzero"/></g><g clip-path="url(#9903660e8d)"><path fill="#56317e" d="M 204.613281 299.898438 C 204.613281 297.648438 204.667969 295.402344 204.777344 293.152344 C 204.886719 290.90625 205.054688 288.664062 205.273438 286.425781 C 205.496094 284.1875 205.769531 281.953125 206.101562 279.730469 C 206.429688 277.503906 206.8125 275.289062 207.253906 273.082031 C 207.691406 270.875 208.183594 268.679688 208.730469 266.496094 C 209.277344 264.316406 209.878906 262.148438 210.53125 259.996094 C 211.183594 257.84375 211.890625 255.707031 212.648438 253.589844 C 213.40625 251.46875 214.214844 249.371094 215.074219 247.292969 C 215.9375 245.214844 216.847656 243.160156 217.808594 241.125 C 218.773438 239.09375 219.78125 237.082031 220.84375 235.097656 C 221.902344 233.113281 223.011719 231.15625 224.167969 229.226562 C 225.324219 227.296875 226.527344 225.398438 227.777344 223.527344 C 229.027344 221.65625 230.324219 219.820312 231.664062 218.011719 C 233.003906 216.203125 234.386719 214.433594 235.816406 212.691406 C 237.242188 210.953125 238.710938 209.25 240.222656 207.582031 C 241.734375 205.917969 243.285156 204.289062 244.875 202.695312 C 246.464844 201.105469 248.09375 199.554688 249.761719 198.042969 C 251.425781 196.535156 253.128906 195.066406 254.871094 193.636719 C 256.609375 192.210938 258.382812 190.828125 260.1875 189.488281 C 261.996094 188.148438 263.835938 186.851562 265.703125 185.601562 C 267.574219 184.351562 269.476562 183.148438 271.40625 181.992188 C 273.335938 180.835938 275.292969 179.726562 277.277344 178.667969 C 279.261719 177.605469 281.269531 176.59375 283.300781 175.632812 C 285.335938 174.671875 287.390625 173.757812 289.472656 172.898438 C 291.550781 172.039062 293.648438 171.226562 295.765625 170.46875 C 297.882812 169.710938 300.019531 169.007812 302.171875 168.355469 C 304.324219 167.699219 306.492188 167.101562 308.675781 166.554688 C 310.855469 166.007812 313.050781 165.515625 315.257812 165.078125 C 317.464844 164.636719 319.679688 164.253906 321.90625 163.921875 C 324.132812 163.59375 326.363281 163.316406 328.601562 163.097656 C 330.839844 162.875 333.082031 162.710938 335.332031 162.601562 C 337.578125 162.488281 339.828125 162.433594 342.074219 162.433594 C 344.324219 162.433594 346.574219 162.488281 348.820312 162.601562 C 351.066406 162.710938 353.3125 162.875 355.550781 163.097656 C 357.789062 163.316406 360.019531 163.59375 362.246094 163.921875 C 364.472656 164.253906 366.6875 164.636719 368.894531 165.078125 C 371.101562 165.515625 373.292969 166.007812 375.476562 166.554688 C 377.660156 167.101562 379.828125 167.699219 381.980469 168.355469 C 384.132812 169.007812 386.269531 169.710938 388.386719 170.46875 C 390.503906 171.226562 392.601562 172.039062 394.679688 172.898438 C 396.757812 173.757812 398.816406 174.671875 400.847656 175.632812 C 402.882812 176.59375 404.890625 177.605469 406.875 178.667969 C 408.859375 179.726562 410.816406 180.835938 412.746094 181.992188 C 414.675781 183.148438 416.578125 184.351562 418.445312 185.601562 C 420.316406 186.851562 422.15625 188.148438 423.964844 189.488281 C 425.769531 190.828125 427.542969 192.210938 429.28125 193.636719 C 431.019531 195.066406 432.722656 196.535156 434.390625 198.042969 C 436.058594 199.554688 437.6875 201.105469 439.277344 202.695312 C 440.867188 204.289062 442.417969 205.917969 443.929688 207.582031 C 445.441406 209.25 446.910156 210.953125 448.335938 212.691406 C 449.765625 214.433594 451.148438 216.203125 452.488281 218.011719 C 453.828125 219.820312 455.125 221.65625 456.371094 223.527344 C 457.621094 225.398438 458.824219 227.296875 459.984375 229.226562 C 461.140625 231.15625 462.246094 233.113281 463.308594 235.097656 C 464.367188 237.082031 465.378906 239.09375 466.34375 241.125 C 467.304688 243.160156 468.214844 245.214844 469.074219 247.292969 C 469.9375 249.371094 470.746094 251.46875 471.503906 253.589844 C 472.261719 255.707031 472.96875 257.84375 473.621094 259.996094 C 474.273438 262.148438 474.875 264.316406 475.421875 266.496094 C 475.96875 268.679688 476.460938 270.875 476.898438 273.082031 C 477.335938 275.289062 477.722656 277.503906 478.050781 279.730469 C 478.382812 281.953125 478.65625 284.1875 478.878906 286.425781 C 479.097656 288.664062 479.265625 290.90625 479.375 293.152344 C 479.484375 295.402344 479.539062 297.648438 479.539062 299.898438 C 479.539062 302.148438 479.484375 304.398438 479.375 306.644531 C 479.265625 308.890625 479.097656 311.132812 478.878906 313.371094 C 478.65625 315.613281 478.382812 317.84375 478.050781 320.070312 C 477.722656 322.292969 477.335938 324.511719 476.898438 326.71875 C 476.460938 328.921875 475.96875 331.117188 475.421875 333.300781 C 474.875 335.480469 474.273438 337.648438 473.621094 339.800781 C 472.96875 341.957031 472.261719 344.089844 471.503906 346.210938 C 470.746094 348.328125 469.9375 350.425781 469.074219 352.503906 C 468.214844 354.582031 467.304688 356.636719 466.34375 358.671875 C 465.378906 360.707031 464.367188 362.714844 463.308594 364.699219 C 462.246094 366.683594 461.140625 368.640625 459.984375 370.570312 C 458.824219 372.5 457.621094 374.398438 456.371094 376.269531 C 455.125 378.140625 453.828125 379.980469 452.488281 381.785156 C 451.148438 383.59375 449.765625 385.367188 448.335938 387.105469 C 446.910156 388.84375 445.441406 390.546875 443.929688 392.214844 C 442.417969 393.882812 440.867188 395.511719 439.277344 397.101562 C 437.6875 398.691406 436.058594 400.242188 434.390625 401.753906 C 432.722656 403.265625 431.019531 404.734375 429.28125 406.160156 C 427.542969 407.585938 425.769531 408.972656 423.964844 410.3125 C 422.15625 411.652344 420.316406 412.945312 418.445312 414.195312 C 416.578125 415.445312 414.675781 416.648438 412.746094 417.804688 C 410.816406 418.960938 408.859375 420.070312 406.875 421.132812 C 404.890625 422.191406 402.882812 423.203125 400.847656 424.164062 C 398.816406 425.125 396.757812 426.039062 394.679688 426.898438 C 392.601562 427.761719 390.503906 428.570312 388.386719 429.328125 C 386.269531 430.085938 384.132812 430.789062 381.980469 431.445312 C 379.828125 432.097656 377.660156 432.695312 375.476562 433.242188 C 373.292969 433.789062 371.101562 434.28125 368.894531 434.722656 C 366.6875 435.160156 364.472656 435.546875 362.246094 435.875 C 360.019531 436.207031 357.789062 436.480469 355.550781 436.699219 C 353.3125 436.921875 351.066406 437.085938 348.820312 437.199219 C 346.574219 437.308594 344.324219 437.363281 342.074219 437.363281 C 339.828125 437.363281 337.578125 437.308594 335.332031 437.199219 C 333.082031 437.085938 330.839844 436.921875 328.601562 436.699219 C 326.363281 436.480469 324.132812 436.207031 321.90625 435.875 C 319.679688 435.546875 317.464844 435.160156 315.257812 434.722656 C 313.050781 434.28125 310.855469 433.789062 308.675781 433.242188 C 306.492188 432.695312 304.324219 432.097656 302.171875 431.445312 C 300.019531 430.789062 297.882812 430.085938 295.765625 429.328125 C 293.648438 428.570312 291.550781 427.761719 289.472656 426.898438 C 287.390625 426.039062 285.335938 425.125 283.300781 424.164062 C 281.269531 423.203125 279.261719 422.191406 277.277344 421.132812 C 275.292969 420.070312 273.335938 418.960938 271.40625 417.804688 C 269.476562 416.648438 267.574219 415.445312 265.703125 414.195312 C 263.835938 412.945312 261.996094 411.652344 260.1875 410.3125 C 258.382812 408.972656 256.609375 407.585938 254.871094 406.160156 C 253.128906 404.734375 251.425781 403.265625 249.761719 401.753906 C 248.09375 400.242188 246.464844 398.691406 244.875 397.101562 C 243.285156 395.511719 241.734375 393.882812 240.222656 392.214844 C 238.710938 390.546875 237.242188 388.84375 235.816406 387.105469 C 234.386719 385.367188 233.003906 383.59375 231.664062 381.785156 C 230.324219 379.980469 229.027344 378.140625 227.777344 376.269531 C 226.527344 374.398438 225.324219 372.5 224.167969 370.570312 C 223.011719 368.640625 221.902344 366.683594 220.84375 364.699219 C 219.78125 362.714844 218.773438 360.707031 217.808594 358.671875 C 216.847656 356.636719 215.9375 354.582031 215.074219 352.503906 C 214.214844 350.425781 213.40625 348.328125 212.648438 346.210938 C 211.890625 344.089844 211.183594 341.957031 210.53125 339.800781 C 209.878906 337.648438 209.277344 335.480469 208.730469 333.300781 C 208.183594 331.117188 207.691406 328.921875 207.253906 326.71875 C 206.8125 324.511719 206.429688 322.292969 206.101562 320.070312 C 205.769531 317.84375 205.496094 315.613281 205.273438 313.371094 C 205.054688 311.132812 204.886719 308.890625 204.777344 306.644531 C 204.667969 304.398438 204.613281 302.148438 204.613281 299.898438 Z M 403.234375 740.515625 C 412.75 740.53125 422.25 740.144531 431.730469 739.347656 C 441.214844 738.554688 450.644531 737.355469 460.027344 735.753906 C 469.40625 734.152344 478.703125 732.152344 487.910156 729.757812 C 497.121094 727.363281 506.210938 724.578125 515.179688 721.402344 C 524.152344 718.230469 532.972656 714.679688 541.640625 710.75 C 550.304688 706.820312 558.789062 702.53125 567.089844 697.878906 C 575.390625 693.222656 583.476562 688.226562 591.351562 682.878906 C 599.222656 677.535156 606.855469 671.863281 614.242188 665.867188 L 614.285156 665.867188 C 615.171875 665.144531 616.0625 664.425781 616.90625 663.664062 L 438.507812 564.019531 L 286.457031 564.019531 L 163.421875 639.644531 C 166.59375 642.898438 169.851562 646.070312 173.191406 649.203125 C 179.960938 655.546875 186.980469 661.636719 194.214844 667.386719 C 203.242188 674.617188 212.621094 681.355469 222.351562 687.609375 C 232.082031 693.859375 242.109375 699.589844 252.433594 704.800781 C 262.757812 710.007812 273.328125 714.667969 284.136719 718.777344 C 294.949219 722.886719 305.941406 726.425781 317.121094 729.390625 C 345.34375 736.816406 374.050781 740.527344 403.234375 740.515625 " fill-opacity="1" fill-rule="nonzero"/></g><path fill="#ed6e0f" d="M 519.332031 405.414062 C 517.132812 454.816406 483.933594 497.277344 438.507812 512.589844 L 438.507812 548.328125 L 414.484375 595.0625 L 286.457031 541.054688 L 286.457031 438.277344 C 286.164062 438.53125 285.824219 438.785156 285.484375 439.039062 C 267.46875 452.445312 239.171875 444.917969 222.339844 422.246094 C 205.507812 399.578125 206.523438 370.308594 224.582031 356.902344 C 227.089844 355.054688 229.800781 353.582031 232.71875 352.492188 C 235.636719 351.398438 238.648438 350.726562 241.753906 350.472656 C 244.347656 350.273438 246.890625 350.542969 249.386719 351.289062 C 251.878906 352.03125 254.15625 353.199219 256.21875 354.789062 L 267.847656 364.558594 C 270.175781 366.503906 326.34375 304.414062 326.34375 304.414062 C 327.800781 302.917969 329.5 301.769531 331.429688 300.96875 C 333.363281 300.167969 335.375 299.777344 337.464844 299.804688 L 361.277344 300.183594 C 362.324219 300.207031 363.359375 300.121094 364.390625 299.925781 C 365.417969 299.730469 366.414062 299.429688 367.378906 299.023438 C 368.34375 298.621094 369.257812 298.121094 370.117188 297.527344 C 370.976562 296.929688 371.765625 296.25 372.484375 295.492188 L 384.117188 283.226562 C 384.476562 282.847656 384.851562 282.488281 385.25 282.148438 C 385.644531 281.808594 386.058594 281.488281 386.488281 281.191406 C 386.914062 280.894531 387.359375 280.621094 387.816406 280.371094 C 388.273438 280.117188 388.742188 279.890625 389.226562 279.691406 C 389.707031 279.488281 390.195312 279.3125 390.695312 279.160156 C 391.195312 279.007812 391.699219 278.882812 392.214844 278.785156 C 392.726562 278.6875 393.242188 278.613281 393.761719 278.570312 C 394.28125 278.523438 394.800781 278.507812 395.324219 278.515625 C 395.847656 278.523438 396.367188 278.558594 396.882812 278.621094 C 397.402344 278.683594 397.914062 278.773438 398.425781 278.890625 C 398.933594 279.007812 399.433594 279.148438 399.929688 279.316406 C 400.421875 279.488281 400.90625 279.679688 401.378906 279.898438 C 401.855469 280.117188 402.316406 280.359375 402.765625 280.625 C 403.210938 280.890625 403.644531 281.179688 404.066406 281.492188 C 404.484375 281.804688 404.886719 282.136719 405.269531 282.488281 C 405.652344 282.84375 406.019531 283.214844 406.363281 283.605469 C 407.070312 284.40625 407.855469 285.121094 408.714844 285.753906 C 409.574219 286.386719 410.492188 286.921875 411.464844 287.359375 C 412.4375 287.796875 413.445312 288.125 414.488281 288.347656 C 415.535156 288.570312 416.589844 288.683594 417.65625 288.679688 C 419.167969 288.683594 420.644531 288.460938 422.085938 288.015625 C 423.527344 287.566406 424.871094 286.914062 426.113281 286.058594 L 468.789062 257.214844 L 485.625 296.632812 L 509.5625 352.503906 C 513.203125 360.828125 515.851562 369.460938 517.5 378.394531 C 519.152344 387.332031 519.761719 396.335938 519.332031 405.414062 Z M 519.332031 405.414062 " fill-opacity="1" fill-rule="nonzero"/><path fill="#18b9cd" d="M 556.339844 196.691406 C 556.347656 201.410156 555.910156 206.085938 555.027344 210.722656 C 554.140625 215.359375 552.828125 219.867188 551.085938 224.253906 C 549.34375 228.640625 547.207031 232.820312 544.667969 236.800781 C 542.128906 240.777344 539.238281 244.480469 535.996094 247.910156 L 490.953125 295.660156 C 490.234375 276.753906 483.59375 259.414062 470.695312 246.511719 C 437.238281 213.058594 374.390625 221.6875 330.316406 265.757812 C 326.933594 269.140625 323.71875 272.695312 320.757812 276.289062 L 320.71875 276.246094 L 249.789062 351.445312 C 247.179688 350.542969 244.5 350.21875 241.753906 350.472656 C 238.265625 350.753906 234.910156 351.574219 231.6875 352.925781 L 427.425781 145.429688 C 428.699219 144.078125 430.023438 142.777344 431.390625 141.527344 C 432.761719 140.277344 434.179688 139.078125 435.636719 137.933594 C 437.097656 136.789062 438.597656 135.699219 440.140625 134.664062 C 441.679688 133.628906 443.257812 132.65625 444.871094 131.738281 C 446.484375 130.824219 448.132812 129.96875 449.808594 129.175781 C 451.484375 128.382812 453.191406 127.652344 454.921875 126.988281 C 456.65625 126.320312 458.410156 125.71875 460.1875 125.183594 C 461.964844 124.648438 463.757812 124.179688 465.570312 123.78125 C 467.378906 123.378906 469.203125 123.042969 471.042969 122.78125 C 472.878906 122.515625 474.722656 122.316406 476.574219 122.191406 C 478.425781 122.0625 480.277344 122.003906 482.132812 122.015625 C 483.988281 122.023438 485.84375 122.105469 487.691406 122.253906 C 489.542969 122.402344 491.382812 122.617188 493.214844 122.90625 C 495.050781 123.191406 496.871094 123.546875 498.675781 123.96875 C 500.484375 124.390625 502.273438 124.878906 504.042969 125.433594 C 505.816406 125.988281 507.5625 126.609375 509.285156 127.292969 C 511.011719 127.980469 512.707031 128.730469 514.375 129.542969 C 516.042969 130.351562 517.679688 131.226562 519.285156 132.160156 C 520.886719 133.09375 522.453125 134.085938 523.980469 135.140625 C 525.511719 136.191406 527 137.296875 528.445312 138.457031 C 529.894531 139.621094 531.292969 140.835938 532.652344 142.101562 C 534.007812 143.367188 535.3125 144.683594 536.570312 146.046875 C 537.832031 147.410156 539.035156 148.820312 540.1875 150.273438 C 541.339844 151.730469 542.4375 153.222656 543.480469 154.761719 C 544.523438 156.296875 545.503906 157.867188 546.429688 159.476562 C 547.351562 161.085938 548.214844 162.726562 549.015625 164.402344 C 549.820312 166.074219 550.558594 167.777344 551.230469 169.503906 C 551.90625 171.234375 552.515625 172.984375 553.058594 174.757812 C 553.605469 176.535156 554.082031 178.324219 554.492188 180.136719 C 554.902344 181.945312 555.246094 183.765625 555.519531 185.601562 C 555.792969 187.4375 556 189.28125 556.136719 191.132812 C 556.273438 192.980469 556.34375 194.835938 556.339844 196.691406 Z M 448.109375 529.632812 L 414.484375 595.0625 L 272.796875 535.300781 L 250.886719 585.71875 L 377.054688 664.976562 L 414.652344 595.488281 L 457.792969 647 L 464.984375 578.613281 Z M 448.109375 529.632812 " fill-opacity="1" fill-rule="nonzero"/><path fill="#242156" d="M 438.507812 548.835938 L 438.507812 530.269531 C 436.851562 530.933594 435.179688 531.558594 433.496094 532.140625 C 431.808594 532.71875 430.105469 533.257812 428.390625 533.746094 C 426.675781 534.238281 424.949219 534.6875 423.210938 535.089844 C 421.472656 535.492188 419.726562 535.851562 417.96875 536.164062 C 416.210938 536.472656 414.449219 536.742188 412.675781 536.960938 C 410.90625 537.183594 409.132812 537.355469 407.351562 537.484375 C 405.570312 537.613281 403.789062 537.695312 402.003906 537.734375 C 400.222656 537.769531 398.4375 537.757812 396.65625 537.703125 C 394.871094 537.648438 393.089844 537.546875 391.3125 537.398438 C 389.535156 537.25 387.761719 537.054688 385.992188 536.8125 C 384.226562 536.574219 382.464844 536.289062 380.710938 535.957031 C 378.957031 535.625 377.214844 535.25 375.480469 534.828125 C 373.746094 534.40625 372.023438 533.9375 370.316406 533.425781 C 368.605469 532.917969 366.910156 532.363281 365.230469 531.761719 C 363.550781 531.164062 361.886719 530.523438 360.238281 529.835938 C 358.589844 529.152344 356.960938 528.425781 355.351562 527.65625 C 353.742188 526.886719 352.152344 526.074219 350.585938 525.222656 C 349.015625 524.371094 347.472656 523.480469 345.949219 522.546875 C 344.429688 521.617188 342.933594 520.644531 341.460938 519.636719 C 339.988281 518.625 338.546875 517.578125 337.128906 516.496094 C 335.710938 515.410156 334.324219 514.289062 332.964844 513.132812 C 331.605469 511.976562 330.277344 510.789062 328.980469 509.5625 C 327.683594 508.335938 326.417969 507.078125 325.183594 505.789062 C 323.953125 504.5 322.753906 503.175781 321.589844 501.824219 C 320.429688 500.472656 319.300781 499.089844 318.207031 497.679688 C 317.117188 496.265625 316.0625 494.828125 315.042969 493.363281 C 314.027344 491.898438 313.046875 490.40625 312.105469 488.890625 C 311.167969 487.375 310.265625 485.832031 309.40625 484.269531 C 308.546875 482.707031 307.726562 481.121094 306.949219 479.515625 C 306.167969 477.910156 305.433594 476.285156 304.738281 474.644531 C 304.042969 473 303.394531 471.339844 302.785156 469.660156 C 302.175781 467.984375 301.613281 466.292969 301.09375 464.585938 C 302.566406 466.863281 304.117188 469.085938 305.742188 471.257812 C 307.371094 473.425781 309.070312 475.539062 310.839844 477.59375 C 312.613281 479.648438 314.453125 481.636719 316.359375 483.566406 C 318.269531 485.492188 320.242188 487.355469 322.277344 489.148438 C 324.3125 490.9375 326.40625 492.660156 328.5625 494.308594 C 330.714844 495.957031 332.921875 497.53125 335.183594 499.027344 C 337.449219 500.523438 339.757812 501.941406 342.117188 503.28125 C 344.476562 504.621094 346.878906 505.878906 349.324219 507.050781 C 351.769531 508.226562 354.25 509.3125 356.773438 510.316406 C 359.292969 511.320312 361.84375 512.238281 364.425781 513.066406 C 367.007812 513.894531 369.617188 514.632812 372.25 515.28125 C 374.882812 515.933594 377.535156 516.492188 380.207031 516.960938 C 382.878906 517.425781 385.566406 517.800781 388.261719 518.085938 C 390.960938 518.371094 393.664062 518.558594 396.375 518.65625 C 399.085938 518.753906 401.796875 518.761719 404.507812 518.671875 C 407.21875 518.585938 409.925781 518.402344 412.625 518.128906 C 421.460938 517.269531 430.089844 515.421875 438.507812 512.589844 L 438.507812 529.632812 L 448.109375 529.632812 Z M 272.796875 535.285156 L 286.457031 541.222656 L 286.457031 529.632812 Z M 470.695312 246.511719 C 437.238281 213.058594 374.390625 221.6875 330.316406 265.757812 C 326.933594 269.140625 323.71875 272.695312 320.757812 276.289062 L 320.71875 276.246094 L 249.789062 351.445312 C 252.125 352.1875 254.269531 353.300781 256.21875 354.789062 L 267.847656 364.558594 C 268.652344 365.234375 275.925781 358.214844 285.148438 348.738281 C 285.738281 348.105469 286.332031 347.511719 286.921875 346.878906 L 291.363281 342.183594 L 295.972656 337.320312 L 299.949219 333.089844 L 303.714844 329.074219 C 308.492188 323.914062 313.0625 318.964844 316.785156 314.902344 C 317.460938 314.144531 318.136719 313.464844 318.730469 312.789062 C 319.023438 312.410156 319.363281 312.113281 319.617188 311.773438 C 320.125 311.222656 320.632812 310.714844 321.054688 310.25 C 321.171875 310.101562 321.296875 309.960938 321.4375 309.828125 C 321.773438 309.449219 322.070312 309.109375 322.367188 308.769531 C 323.464844 307.585938 324.398438 306.570312 325.03125 305.851562 C 325.328125 305.558594 325.539062 305.304688 325.75 305.089844 C 326.132812 304.667969 326.34375 304.414062 326.34375 304.414062 C 327.171875 303.5625 328.089844 302.816406 329.089844 302.171875 C 329.210938 302.085938 329.335938 302.015625 329.472656 301.960938 C 329.859375 301.707031 330.269531 301.496094 330.699219 301.328125 C 330.816406 301.214844 330.957031 301.144531 331.121094 301.117188 C 331.71875 300.828125 332.339844 300.601562 332.980469 300.4375 C 333.632812 300.234375 334.292969 300.09375 334.96875 300.015625 C 335.0625 299.953125 335.160156 299.941406 335.265625 299.972656 C 335.894531 299.855469 336.53125 299.796875 337.167969 299.804688 L 337.464844 299.804688 L 361.277344 300.183594 C 362.324219 300.207031 363.359375 300.121094 364.390625 299.925781 C 365.417969 299.730469 366.414062 299.429688 367.378906 299.023438 C 368.34375 298.621094 369.257812 298.121094 370.117188 297.527344 C 370.976562 296.929688 371.765625 296.25 372.484375 295.492188 L 384.117188 283.226562 C 384.476562 282.847656 384.851562 282.488281 385.25 282.148438 C 385.644531 281.808594 386.058594 281.488281 386.488281 281.191406 C 386.914062 280.894531 387.359375 280.621094 387.816406 280.371094 C 388.273438 280.117188 388.742188 279.890625 389.226562 279.691406 C 389.707031 279.488281 390.195312 279.3125 390.695312 279.160156 C 391.195312 279.007812 391.699219 278.882812 392.214844 278.785156 C 392.726562 278.6875 393.242188 278.613281 393.761719 278.570312 C 394.28125 278.523438 394.800781 278.503906 395.324219 278.515625 C 395.847656 278.523438 396.367188 278.558594 396.882812 278.621094 C 397.402344 278.683594 397.914062 278.773438 398.425781 278.890625 C 398.933594 279.007812 399.433594 279.148438 399.929688 279.316406 C 400.421875 279.484375 400.90625 279.679688 401.378906 279.898438 C 401.855469 280.117188 402.316406 280.359375 402.765625 280.625 C 403.210938 280.890625 403.644531 281.179688 404.066406 281.492188 C 404.484375 281.804688 404.886719 282.136719 405.269531 282.488281 C 405.652344 282.84375 406.019531 283.214844 406.363281 283.605469 C 407.070312 284.40625 407.855469 285.121094 408.714844 285.753906 C 409.574219 286.386719 410.492188 286.921875 411.464844 287.359375 C 412.4375 287.796875 413.445312 288.125 414.488281 288.347656 C 415.535156 288.570312 416.589844 288.683594 417.65625 288.679688 C 419.167969 288.683594 420.644531 288.460938 422.085938 288.015625 C 423.527344 287.566406 424.871094 286.914062 426.117188 286.058594 L 468.789062 257.214844 L 485.625 296.632812 L 490.613281 308.265625 C 492.855469 284.496094 486.425781 262.246094 470.695312 246.511719 Z M 465.703125 349.035156 C 464.886719 347.222656 463.691406 345.714844 462.109375 344.511719 L 445.359375 331.566406 C 445.199219 331.445312 445.023438 331.355469 444.832031 331.296875 C 444.640625 331.238281 444.445312 331.214844 444.242188 331.230469 C 444.042969 331.242188 443.851562 331.292969 443.667969 331.375 C 443.488281 331.460938 443.324219 331.574219 443.183594 331.71875 C 443.042969 331.859375 442.933594 332.023438 442.851562 332.207031 C 442.773438 332.390625 442.726562 332.585938 442.714844 332.785156 C 442.707031 332.984375 442.734375 333.179688 442.792969 333.371094 C 442.855469 333.5625 442.949219 333.738281 443.074219 333.894531 L 455.722656 349.925781 C 456.933594 351.394531 457.664062 353.070312 457.921875 354.957031 L 460.695312 372.976562 C 460.765625 373.4375 460.792969 373.902344 460.773438 374.367188 C 460.753906 374.835938 460.691406 375.296875 460.582031 375.75 C 460.472656 376.207031 460.324219 376.644531 460.128906 377.070312 C 459.933594 377.496094 459.703125 377.898438 459.429688 378.277344 C 459.15625 378.660156 458.851562 379.007812 458.511719 379.332031 C 458.171875 379.652344 457.804688 379.9375 457.410156 380.183594 C 457.015625 380.433594 456.597656 380.644531 456.164062 380.8125 C 455.726562 380.980469 455.277344 381.105469 454.816406 381.1875 L 441.765625 383.503906 C 441.011719 383.640625 440.355469 383.964844 439.792969 384.480469 C 439.226562 384.996094 438.847656 385.625 438.648438 386.363281 C 438.445312 387.101562 438.460938 387.832031 438.6875 388.5625 C 438.914062 389.292969 439.320312 389.90625 439.902344 390.398438 L 454.960938 403.171875 C 455.3125 403.472656 455.6875 403.726562 456.097656 403.941406 C 456.503906 404.15625 456.929688 404.324219 457.371094 404.445312 C 457.816406 404.5625 458.269531 404.632812 458.726562 404.652344 C 459.1875 404.675781 459.644531 404.644531 460.097656 404.5625 C 460.550781 404.480469 460.988281 404.351562 461.414062 404.175781 C 461.835938 403.996094 462.234375 403.773438 462.609375 403.507812 C 462.984375 403.242188 463.328125 402.9375 463.636719 402.597656 C 463.941406 402.253906 464.210938 401.882812 464.433594 401.480469 L 475.757812 381.429688 C 476.148438 380.742188 476.449219 380.019531 476.667969 379.257812 C 476.886719 378.5 477.015625 377.726562 477.050781 376.9375 C 477.085938 376.148438 477.03125 375.367188 476.882812 374.589844 C 476.734375 373.8125 476.5 373.066406 476.175781 372.34375 Z M 396.921875 352.617188 C 401.488281 351.625 403.886719 344.808594 402.28125 337.390625 C 400.675781 329.972656 395.667969 324.757812 391.105469 325.746094 C 386.539062 326.734375 384.140625 333.550781 385.746094 340.972656 C 387.351562 348.390625 392.359375 353.605469 396.921875 352.617188 Z M 474.617188 339.0625 C 479.183594 338.070312 481.582031 331.253906 479.976562 323.835938 C 478.371094 316.417969 473.363281 311.203125 468.800781 312.191406 C 464.234375 313.179688 461.835938 319.996094 463.441406 327.417969 C 465.046875 334.835938 470.054688 340.050781 474.617188 339.0625 Z M 247.082031 365.910156 C 239.46875 362.191406 229.65625 366.628906 225.171875 375.851562 C 223.992188 378.175781 223.292969 380.636719 223.074219 383.234375 C 222.855469 385.832031 223.132812 388.375 223.90625 390.867188 C 225.625 386.074219 228.363281 381.957031 232.109375 378.515625 C 233.4375 377.21875 234.882812 376.0625 236.4375 375.046875 C 237.992188 374.035156 239.632812 373.179688 241.355469 372.488281 C 243.078125 371.792969 244.851562 371.273438 246.675781 370.929688 C 248.503906 370.585938 250.34375 370.421875 252.199219 370.4375 C 250.894531 368.472656 249.191406 366.964844 247.082031 365.910156 Z M 247.082031 365.910156 " fill-opacity="1" fill-rule="nonzero"/></svg>