<svg xmlns="http://www.w3.org/2000/svg" xmlns:xlink="http://www.w3.org/1999/xlink" width="1080" zoomAndPan="magnify" viewBox="0 0 810 809.999993" height="1080" preserveAspectRatio="xMidYMid meet" version="1.0"><defs><clipPath id="8992b2be96"><path d="M 67.5 50.753906 L 742.5 50.753906 L 742.5 726 L 67.5 726 Z M 67.5 50.753906 " clip-rule="nonzero"/></clipPath></defs><g clip-path="url(#8992b2be96)"><path fill="#ffde59" d="M 742.363281 388.398438 C 742.367188 395.394531 742.152344 402.386719 741.722656 409.371094 C 741.289062 416.351562 740.640625 423.316406 739.777344 430.261719 C 738.914062 437.203125 737.832031 444.113281 736.539062 450.988281 C 735.242188 457.867188 733.734375 464.695312 732.015625 471.476562 C 730.296875 478.261719 728.367188 484.984375 726.230469 491.644531 C 724.089844 498.308594 721.75 504.898438 719.199219 511.414062 C 716.652344 517.929688 713.90625 524.363281 710.957031 530.707031 C 708.007812 537.054688 704.867188 543.300781 701.527344 549.453125 C 698.191406 555.601562 694.667969 561.644531 690.953125 567.574219 C 687.242188 573.503906 683.347656 579.3125 679.273438 585.003906 C 675.199219 590.691406 670.953125 596.25 666.535156 601.671875 C 662.113281 607.097656 657.527344 612.378906 652.78125 617.519531 C 648.03125 622.65625 643.128906 627.644531 638.070312 632.476562 C 633.011719 637.3125 627.804688 641.984375 622.457031 646.496094 C 617.109375 651.003906 611.625 655.34375 606.003906 659.511719 C 600.382812 663.683594 594.640625 667.671875 588.773438 671.484375 C 582.90625 675.296875 576.925781 678.921875 570.832031 682.363281 C 564.738281 685.800781 558.542969 689.046875 552.246094 692.101562 C 545.953125 695.15625 539.566406 698.011719 533.09375 700.667969 C 526.621094 703.324219 520.074219 705.777344 513.445312 708.027344 C 506.820312 710.277344 500.132812 712.320312 493.378906 714.152344 C 486.625 715.984375 479.824219 717.605469 472.96875 719.015625 C 466.117188 720.425781 459.226562 721.621094 452.296875 722.605469 C 445.371094 723.585938 438.417969 724.351562 431.441406 724.898438 C 424.46875 725.449219 417.480469 725.777344 410.484375 725.894531 C 403.488281 726.007812 396.496094 725.902344 389.507812 725.582031 C 382.515625 725.261719 375.542969 724.722656 368.585938 723.96875 C 361.628906 723.214844 354.703125 722.242188 347.808594 721.058594 C 340.914062 719.871094 334.058594 718.472656 327.25 716.859375 C 320.441406 715.246094 313.691406 713.425781 306.996094 711.394531 C 300.300781 709.359375 293.671875 707.121094 287.117188 704.679688 C 280.5625 702.234375 274.085938 699.585938 267.695312 696.742188 C 263.796875 695.023438 259.984375 693.21875 256.167969 691.332031 C 252.652344 689.605469 249.167969 687.820312 245.710938 685.96875 C 242.257812 684.121094 238.835938 682.214844 235.449219 680.246094 C 232.0625 678.277344 228.710938 676.253906 225.394531 674.167969 C 222.074219 672.085938 218.796875 669.941406 215.554688 667.746094 C 212.3125 665.546875 209.109375 663.292969 205.945312 660.980469 C 202.78125 658.671875 199.65625 656.308594 196.574219 653.886719 C 193.496094 651.46875 190.457031 648.996094 187.460938 646.472656 C 184.464844 643.949219 181.515625 641.371094 178.609375 638.746094 C 175.703125 636.117188 172.84375 633.441406 170.03125 630.710938 C 167.21875 627.984375 164.453125 625.210938 161.738281 622.386719 C 159.023438 619.5625 156.355469 616.695312 153.742188 613.777344 C 151.125 610.863281 148.558594 607.902344 146.046875 604.894531 C 143.535156 601.890625 141.074219 598.839844 138.667969 595.75 C 136.261719 592.660156 133.910156 589.527344 131.613281 586.351562 C 129.316406 583.179688 127.074219 579.96875 124.886719 576.71875 C 122.703125 573.464844 120.574219 570.175781 118.503906 566.851562 C 116.433594 563.527344 114.417969 560.167969 112.464844 556.769531 C 110.511719 553.375 108.617188 549.945312 106.78125 546.484375 C 104.949219 543.023438 103.175781 539.53125 101.460938 536.007812 C 99.75 532.484375 98.097656 528.933594 96.507812 525.351562 C 94.917969 521.773438 93.394531 518.164062 91.929688 514.53125 C 90.464844 510.898438 89.066406 507.238281 87.730469 503.554688 C 86.394531 499.875 85.121094 496.167969 83.914062 492.441406 C 82.707031 488.714844 81.566406 484.96875 80.488281 481.199219 C 79.414062 477.433594 78.402344 473.648438 77.457031 469.847656 C 76.511719 466.046875 75.636719 462.230469 74.824219 458.398438 C 74.011719 454.5625 73.265625 450.71875 72.589844 446.859375 C 71.910156 443 71.300781 439.132812 70.757812 435.253906 C 70.214844 431.375 69.738281 427.484375 69.332031 423.589844 C 68.921875 419.691406 68.582031 415.789062 68.3125 411.882812 C 68.039062 407.972656 67.835938 404.0625 67.703125 400.148438 C 67.566406 396.230469 67.5 392.316406 67.5 388.398438 C 67.5 202.035156 218.570312 50.964844 404.933594 50.964844 C 591.296875 50.964844 742.363281 202.035156 742.363281 388.398438 Z M 742.363281 388.398438 " fill-opacity="1" fill-rule="nonzero"/></g><path fill="#56317e" d="M 668.507812 599.074219 C 665.617188 602.683594 662.65625 606.234375 659.625 609.722656 C 656.589844 613.210938 653.484375 616.636719 650.3125 620 C 647.136719 623.359375 643.894531 626.65625 640.585938 629.882812 C 637.273438 633.113281 633.902344 636.269531 630.460938 639.359375 C 627.023438 642.449219 623.519531 645.46875 619.957031 648.414062 C 616.394531 651.359375 612.769531 654.230469 609.089844 657.027344 C 605.40625 659.828125 601.671875 662.546875 597.875 665.191406 C 594.082031 667.832031 590.238281 670.398438 586.339844 672.882812 C 582.441406 675.371094 578.492188 677.773438 574.496094 680.097656 C 570.5 682.421875 566.453125 684.660156 562.367188 686.820312 C 558.277344 688.976562 554.144531 691.046875 549.96875 693.035156 C 545.796875 695.023438 541.582031 696.925781 537.328125 698.738281 C 533.078125 700.554688 528.789062 702.28125 524.464844 703.917969 C 520.140625 705.558594 515.785156 707.105469 511.398438 708.566406 C 507.011719 710.023438 502.597656 711.394531 498.152344 712.671875 C 493.710938 713.949219 489.242188 715.136719 484.75 716.230469 C 480.257812 717.324219 475.746094 718.328125 471.210938 719.238281 C 466.679688 720.144531 462.128906 720.960938 457.5625 721.683594 C 452.996094 722.40625 448.414062 723.035156 443.824219 723.570312 C 439.230469 724.101562 434.628906 724.542969 430.019531 724.886719 C 425.40625 725.234375 420.792969 725.484375 416.171875 725.640625 C 411.550781 725.796875 406.925781 725.855469 402.304688 725.820312 C 397.679688 725.789062 393.058594 725.65625 388.441406 725.433594 C 383.824219 725.210938 379.210938 724.890625 374.605469 724.476562 C 370.003906 724.0625 365.40625 723.554688 360.824219 722.953125 C 356.238281 722.351562 351.667969 721.65625 347.113281 720.867188 C 342.558594 720.074219 338.019531 719.191406 333.5 718.214844 C 328.980469 717.238281 324.484375 716.171875 320.007812 715.011719 C 315.535156 713.847656 311.085938 712.597656 306.660156 711.253906 C 302.238281 709.910156 297.84375 708.472656 293.476562 706.949219 C 289.113281 705.425781 284.78125 703.8125 280.480469 702.109375 C 276.183594 700.40625 271.921875 698.617188 267.695312 696.742188 L 292.804688 606.367188 L 500.292969 468.039062 L 600.894531 527.605469 C 610.246094 533.136719 618.929688 539.574219 626.945312 546.910156 C 634.957031 554.246094 642.132812 562.328125 648.46875 571.15625 Z M 668.507812 599.074219 " fill-opacity="1" fill-rule="nonzero"/><path fill="#ed6e0f" d="M 529.382812 312.109375 C 535.921875 331.476562 523.011719 357.210938 497.863281 372.46875 C 483.105469 381.441406 467.054688 385.003906 453.472656 383.410156 L 500.292969 468.039062 L 353.289062 566.042969 L 314.9375 496.671875 L 305.503906 479.609375 C 269.917969 481.664062 238.648438 469.425781 223.011719 443.730469 C 219.988281 438.722656 217.652344 433.414062 216.003906 427.800781 C 214.355469 422.191406 213.449219 416.460938 213.285156 410.613281 C 213.101562 406.933594 213.183594 403.257812 213.539062 399.589844 L 213.914062 396.195312 L 214 395.566406 L 180.382812 392.839844 C 180.058594 392.808594 179.742188 392.742188 179.433594 392.644531 C 179.125 392.542969 178.828125 392.417969 178.542969 392.257812 C 178.257812 392.101562 177.992188 391.917969 177.746094 391.707031 C 177.5 391.492188 177.277344 391.261719 177.078125 391.003906 C 176.878906 390.746094 176.707031 390.472656 176.5625 390.183594 C 176.417969 389.890625 176.304688 389.589844 176.21875 389.277344 C 176.136719 388.960938 176.085938 388.644531 176.066406 388.320312 C 176.046875 387.996094 176.0625 387.671875 176.105469 387.351562 C 177.574219 376.621094 208.84375 315.210938 218.863281 305.066406 L 218.902344 305.023438 C 220.59375 303.417969 221.96875 301.574219 223.023438 299.496094 C 224.082031 297.417969 224.761719 295.222656 225.066406 292.910156 L 229.300781 253.46875 C 230.808594 225.84375 244.933594 200.734375 267.484375 181.117188 C 296.617188 155.84375 339.792969 139.871094 387.957031 139.871094 C 475.644531 139.871094 546.695312 192.855469 546.695312 258.289062 C 546.695312 277.652344 540.449219 295.972656 529.382812 312.109375 Z M 529.382812 312.109375 " fill-opacity="1" fill-rule="nonzero"/><path fill="#e7dcc1" d="M 556.628906 500.777344 L 345.03125 646.902344 L 318.039062 714.386719 C 300.710938 709.785156 283.859375 703.832031 267.484375 696.53125 C 263.585938 694.8125 259.773438 693.007812 255.957031 691.125 L 288.320312 604.816406 L 539.738281 436.476562 Z M 464.511719 403.363281 C 465.058594 403.363281 465.605469 403.335938 466.152344 403.28125 C 466.699219 403.226562 467.238281 403.148438 467.777344 403.039062 C 468.316406 402.933594 468.847656 402.800781 469.371094 402.640625 C 469.894531 402.484375 470.414062 402.296875 470.917969 402.089844 C 471.425781 401.878906 471.921875 401.644531 472.40625 401.386719 C 472.886719 401.125 473.359375 400.84375 473.8125 400.539062 C 474.269531 400.234375 474.710938 399.910156 475.132812 399.5625 C 475.558594 399.214844 475.964844 398.847656 476.351562 398.457031 C 476.738281 398.070312 477.105469 397.664062 477.453125 397.242188 C 477.804688 396.816406 478.128906 396.375 478.433594 395.921875 C 478.738281 395.464844 479.019531 394.996094 479.277344 394.511719 C 479.539062 394.027344 479.773438 393.53125 479.980469 393.027344 C 480.191406 392.519531 480.375 392.003906 480.535156 391.476562 C 480.695312 390.953125 480.828125 390.421875 480.933594 389.882812 C 481.042969 389.347656 481.121094 388.804688 481.175781 388.257812 C 481.230469 387.714844 481.257812 387.164062 481.257812 386.617188 C 481.257812 386.070312 481.230469 385.523438 481.175781 384.976562 C 481.121094 384.429688 481.042969 383.886719 480.933594 383.351562 C 480.828125 382.8125 480.695312 382.28125 480.535156 381.757812 C 480.375 381.230469 480.191406 380.714844 479.980469 380.210938 C 479.773438 379.703125 479.539062 379.207031 479.277344 378.722656 C 479.019531 378.238281 478.738281 377.769531 478.433594 377.3125 C 478.128906 376.859375 477.804688 376.417969 477.453125 375.996094 C 477.105469 375.570312 476.738281 375.164062 476.351562 374.777344 C 475.964844 374.390625 475.558594 374.019531 475.132812 373.671875 C 474.710938 373.324219 474.269531 373 473.8125 372.695312 C 473.359375 372.390625 472.886719 372.109375 472.40625 371.847656 C 471.921875 371.589844 471.425781 371.355469 470.917969 371.148438 C 470.414062 370.9375 469.894531 370.753906 469.371094 370.59375 C 468.847656 370.433594 468.316406 370.300781 467.777344 370.195312 C 467.238281 370.085938 466.699219 370.007812 466.152344 369.953125 C 465.605469 369.898438 465.058594 369.871094 464.511719 369.871094 C 463.960938 369.871094 463.414062 369.898438 462.871094 369.953125 C 462.324219 370.007812 461.78125 370.085938 461.242188 370.195312 C 460.707031 370.300781 460.175781 370.433594 459.648438 370.59375 C 459.125 370.753906 458.609375 370.9375 458.101562 371.148438 C 457.597656 371.355469 457.101562 371.589844 456.617188 371.847656 C 456.132812 372.109375 455.664062 372.390625 455.207031 372.695312 C 454.75 373 454.3125 373.324219 453.886719 373.671875 C 453.464844 374.019531 453.058594 374.390625 452.671875 374.777344 C 452.28125 375.164062 451.914062 375.570312 451.566406 375.996094 C 451.21875 376.417969 450.890625 376.859375 450.585938 377.3125 C 450.28125 377.769531 450 378.238281 449.742188 378.722656 C 449.484375 379.207031 449.25 379.703125 449.039062 380.210938 C 448.832031 380.714844 448.644531 381.230469 448.488281 381.757812 C 448.328125 382.28125 448.195312 382.8125 448.085938 383.351562 C 447.980469 383.886719 447.898438 384.429688 447.847656 384.976562 C 447.792969 385.523438 447.765625 386.070312 447.765625 386.617188 C 447.765625 387.164062 447.792969 387.714844 447.847656 388.257812 C 447.898438 388.804688 447.980469 389.347656 448.085938 389.882812 C 448.195312 390.421875 448.328125 390.953125 448.488281 391.476562 C 448.644531 392.003906 448.832031 392.519531 449.039062 393.027344 C 449.25 393.53125 449.484375 394.027344 449.742188 394.511719 C 450 394.996094 450.28125 395.464844 450.585938 395.921875 C 450.890625 396.375 451.21875 396.816406 451.566406 397.242188 C 451.914062 397.664062 452.28125 398.070312 452.667969 398.457031 C 453.058594 398.847656 453.464844 399.214844 453.886719 399.5625 C 454.3125 399.910156 454.75 400.234375 455.207031 400.539062 C 455.664062 400.84375 456.132812 401.125 456.617188 401.386719 C 457.101562 401.644531 457.597656 401.878906 458.101562 402.089844 C 458.609375 402.296875 459.125 402.484375 459.648438 402.640625 C 460.175781 402.800781 460.707031 402.933594 461.242188 403.039062 C 461.78125 403.148438 462.324219 403.226562 462.871094 403.28125 C 463.414062 403.335938 463.960938 403.363281 464.511719 403.363281 Z M 542.796875 232.171875 C 545.398438 240.683594 546.695312 249.390625 546.695312 258.289062 C 546.65625 266.5 545.550781 274.566406 543.375 282.484375 C 541.199219 290.402344 538.03125 297.902344 533.871094 304.984375 C 534.90625 304.855469 535.9375 304.6875 536.964844 304.476562 C 537.988281 304.265625 539.003906 304.011719 540.003906 303.714844 C 541.007812 303.421875 542 303.082031 542.972656 302.707031 C 543.949219 302.328125 544.90625 301.910156 545.847656 301.453125 C 546.789062 300.996094 547.710938 300.5 548.609375 299.964844 C 549.507812 299.433594 550.386719 298.863281 551.238281 298.253906 C 552.089844 297.648438 552.914062 297.007812 553.714844 296.332031 C 554.511719 295.65625 555.28125 294.949219 556.023438 294.210938 C 556.761719 293.472656 557.472656 292.703125 558.148438 291.90625 C 558.824219 291.105469 559.464844 290.28125 560.074219 289.429688 C 560.683594 288.578125 561.253906 287.703125 561.789062 286.804688 C 562.324219 285.90625 562.820312 284.988281 563.28125 284.046875 C 563.738281 283.105469 564.160156 282.148438 564.539062 281.175781 C 564.917969 280.199219 565.253906 279.210938 565.550781 278.207031 C 565.851562 277.203125 566.105469 276.191406 566.316406 275.167969 C 566.53125 274.140625 566.699219 273.109375 566.828125 272.070312 C 566.957031 271.035156 567.039062 269.992188 567.082031 268.945312 C 567.121094 267.902344 567.117188 266.855469 567.074219 265.8125 C 567.027344 264.765625 566.9375 263.722656 566.804688 262.6875 C 566.671875 261.648438 566.496094 260.617188 566.277344 259.59375 C 566.058594 258.574219 565.800781 257.558594 565.5 256.558594 C 565.195312 255.558594 564.851562 254.570312 564.46875 253.597656 C 564.085938 252.625 563.660156 251.667969 563.195312 250.730469 C 562.734375 249.792969 562.230469 248.875 561.691406 247.980469 C 561.152344 247.082031 560.574219 246.210938 559.964844 245.363281 C 559.351562 244.515625 558.707031 243.691406 558.023438 242.898438 C 557.34375 242.105469 556.632812 241.339844 555.886719 240.601562 C 555.144531 239.867188 554.371094 239.164062 553.570312 238.492188 C 552.765625 237.820312 551.9375 237.183594 551.082031 236.582031 C 550.226562 235.980469 549.347656 235.414062 548.445312 234.886719 C 547.542969 234.355469 546.621094 233.863281 545.675781 233.410156 C 544.734375 232.960938 543.773438 232.546875 542.796875 232.171875 Z M 542.796875 232.171875 " fill-opacity="1" fill-rule="nonzero"/><path fill="#242156" d="M 435.40625 403.363281 C 425.640625 442.511719 389.714844 477.890625 340.421875 491.765625 C 332.0625 494.117188 323.570312 495.753906 314.9375 496.671875 L 305.503906 479.609375 C 329.941406 478.269531 356.433594 470.136719 381.289062 455.003906 C 404.46875 440.921875 422.914062 422.769531 435.40625 403.363281 Z M 673.578125 326.738281 C 672.300781 326.859375 671.019531 326.871094 669.738281 326.773438 C 668.457031 326.675781 667.191406 326.472656 665.945312 326.164062 C 664.699219 325.855469 663.488281 325.441406 662.308594 324.925781 C 661.132812 324.410156 660.007812 323.800781 658.933594 323.097656 C 657.859375 322.390625 656.851562 321.601562 655.910156 320.726562 C 654.972656 319.851562 654.109375 318.902344 653.332031 317.882812 C 652.550781 316.859375 651.863281 315.78125 651.265625 314.644531 C 650.667969 313.507812 650.167969 312.328125 649.769531 311.105469 C 649.371094 309.882812 649.078125 308.636719 648.890625 307.367188 C 648.703125 306.09375 648.625 304.816406 648.652344 303.535156 C 648.679688 302.25 648.816406 300.976562 649.058594 299.714844 C 649.304688 298.453125 649.652344 297.222656 650.105469 296.019531 C 650.554688 294.816406 651.105469 293.660156 651.753906 292.550781 C 652.398438 291.441406 653.136719 290.390625 653.960938 289.40625 C 654.785156 288.421875 655.6875 287.511719 656.664062 286.679688 C 657.640625 285.847656 658.683594 285.101562 659.789062 284.445312 C 670.601562 278.03125 667.164062 259.710938 656.308594 253.425781 C 645.410156 247.09375 631.621094 249.695312 619.925781 254.261719 C 608.1875 258.832031 596.910156 265.246094 584.378906 266.335938 C 581.347656 266.582031 578.34375 266.410156 575.359375 265.828125 C 572.378906 265.242188 569.527344 264.265625 566.816406 262.898438 C 567.019531 264.429688 567.117188 265.964844 567.109375 267.507812 C 567.113281 269.058594 567.019531 270.601562 566.835938 272.140625 C 566.648438 273.679688 566.367188 275.199219 565.996094 276.707031 C 565.621094 278.210938 565.15625 279.683594 564.601562 281.132812 C 564.046875 282.578125 563.40625 283.984375 562.675781 285.351562 C 561.949219 286.722656 561.136719 288.039062 560.246094 289.308594 C 559.355469 290.574219 558.390625 291.785156 557.351562 292.933594 C 556.3125 294.082031 555.207031 295.164062 554.035156 296.175781 C 552.859375 297.191406 551.628906 298.128906 550.34375 298.988281 C 554.597656 303.125 557.867188 307.929688 560.152344 313.410156 C 560.792969 315.007812 561.339844 316.640625 561.789062 318.304688 C 562.242188 319.96875 562.59375 321.65625 562.847656 323.359375 C 563.101562 325.066406 563.253906 326.78125 563.308594 328.503906 C 563.359375 330.226562 563.3125 331.949219 563.164062 333.664062 C 563.015625 335.382812 562.765625 337.085938 562.417969 338.777344 C 562.070312 340.464844 561.625 342.128906 561.082031 343.765625 C 560.539062 345.402344 559.902344 347 559.171875 348.5625 C 558.441406 350.125 557.621094 351.636719 556.714844 353.105469 C 545.648438 370.625 540.703125 392.546875 546.109375 412.542969 C 551.515625 432.535156 568.15625 449.804688 588.570312 453.242188 C 608.984375 456.722656 631.703125 444.398438 637.570312 424.53125 C 641.890625 409.984375 657.523438 399.757812 672.570312 401.558594 C 693.488281 404.074219 714.449219 385.757812 714.742188 364.714844 C 714.992188 343.628906 694.535156 324.769531 673.578125 326.738281 Z M 387.957031 139.871094 C 339.792969 139.871094 296.617188 155.84375 267.484375 181.117188 C 269.894531 181.117188 272.300781 181.246094 274.695312 181.496094 C 277.160156 181.792969 279.601562 182.238281 282.011719 182.824219 C 284.425781 183.414062 286.796875 184.140625 289.121094 185.007812 C 291.449219 185.878906 293.714844 186.878906 295.925781 188.015625 C 298.132812 189.152344 300.265625 190.414062 302.324219 191.804688 C 304.382812 193.191406 306.351562 194.699219 308.234375 196.320312 C 310.113281 197.941406 311.894531 199.667969 313.570312 201.5 C 315.246094 203.332031 316.808594 205.257812 318.257812 207.273438 C 319.703125 209.292969 321.03125 211.386719 322.230469 213.5625 C 324.703125 218.132812 326.632812 223.035156 329.480469 227.351562 C 330.808594 229.347656 332.320312 231.199219 334.007812 232.898438 C 335.699219 234.601562 337.539062 236.121094 339.527344 237.460938 C 341.511719 238.800781 343.613281 239.9375 345.824219 240.867188 C 348.03125 241.796875 350.3125 242.503906 352.660156 242.988281 C 361.421875 244.75 370.726562 243.324219 379.195312 246.132812 C 392.945312 250.699219 400.824219 265.371094 403.925781 279.582031 C 406.984375 293.75 406.691406 308.628906 410.925781 322.503906 C 412.023438 326.148438 413.535156 329.613281 415.453125 332.902344 C 417.375 336.1875 419.652344 339.207031 422.285156 341.953125 C 425.554688 326.988281 437.082031 311.480469 454.4375 300.960938 C 482.269531 284.023438 514.585938 286.328125 526.574219 306.074219 C 527.734375 307.980469 528.667969 309.992188 529.382812 312.109375 C 540.449219 295.972656 546.695312 277.652344 546.695312 258.289062 C 546.695312 192.855469 475.644531 139.871094 387.957031 139.871094 Z M 214 395.566406 L 213.914062 396.195312 L 213.539062 399.589844 C 213.183594 403.257812 213.101562 406.933594 213.285156 410.613281 L 228.753906 396.738281 Z M 260.105469 308.378906 C 264.734375 308.378906 268.488281 302.511719 268.488281 295.277344 C 268.488281 288.042969 264.734375 282.179688 260.105469 282.179688 C 255.472656 282.179688 251.71875 288.042969 251.71875 295.277344 C 251.71875 302.511719 255.472656 308.378906 260.105469 308.378906 Z M 514.671875 319.066406 C 510.144531 308.253906 492.539062 305.191406 474.765625 311.941406 C 480.171875 311.667969 485.4375 312.394531 490.570312 314.121094 C 501.214844 317.640625 509.429688 324.726562 513.664062 332.984375 C 515.96875 328.164062 516.472656 323.300781 514.671875 319.066406 Z M 288.320312 604.816406 L 351.382812 562.589844 L 335.527344 533.910156 Z M 539.738281 436.476562 L 484.191406 438.933594 L 498.5625 464.914062 Z M 539.738281 436.476562 " fill-opacity="1" fill-rule="nonzero"/></svg>