<svg xmlns="http://www.w3.org/2000/svg" xmlns:xlink="http://www.w3.org/1999/xlink" width="1080" zoomAndPan="magnify" viewBox="0 0 810 809.999993" height="1080" preserveAspectRatio="xMidYMid meet" version="1.0"><defs><clipPath id="9eb8f75950"><path d="M 67.5 62 L 742.5 62 L 742.5 738 L 67.5 738 Z M 67.5 62 " clip-rule="nonzero"/></clipPath></defs><g clip-path="url(#9eb8f75950)"><path fill="#cb6ce6" d="M 742.363281 399.734375 C 742.378906 407.703125 742.109375 415.660156 741.554688 423.609375 C 741 431.554688 740.164062 439.472656 739.046875 447.363281 C 737.929688 455.25 736.53125 463.089844 734.855469 470.878906 C 733.179688 478.667969 731.230469 486.386719 729.003906 494.035156 C 726.777344 501.683594 724.28125 509.246094 721.519531 516.71875 C 718.753906 524.191406 715.726562 531.554688 712.4375 538.8125 C 709.148438 546.066406 705.605469 553.195312 701.808594 560.199219 C 698.011719 567.207031 693.972656 574.066406 689.683594 580.78125 C 689.265625 581.535156 688.761719 582.25 688.300781 583.003906 C 684.71875 588.539062 680.972656 593.96875 677.070312 599.285156 C 673.167969 604.605469 669.113281 609.804688 664.90625 614.882812 C 660.699219 619.964844 656.347656 624.914062 651.851562 629.742188 C 647.351562 634.566406 642.714844 639.253906 637.945312 643.808594 C 633.171875 648.359375 628.269531 652.769531 623.238281 657.035156 C 618.207031 661.300781 613.054688 665.417969 607.78125 669.378906 C 602.511719 673.34375 597.125 677.148438 591.628906 680.796875 C 586.132812 684.445312 580.535156 687.929688 574.835938 691.25 C 569.136719 694.570312 563.34375 697.71875 557.460938 700.699219 C 551.574219 703.679688 545.609375 706.484375 539.558594 709.113281 C 533.507812 711.742188 527.386719 714.195312 521.195312 716.464844 C 515.003906 718.738281 508.75 720.824219 502.433594 722.730469 C 496.117188 724.632812 489.753906 726.351562 483.335938 727.882812 C 476.921875 729.414062 470.464844 730.753906 463.96875 731.910156 C 457.476562 733.0625 450.953125 734.023438 444.402344 734.792969 C 437.851562 735.5625 431.28125 736.140625 424.699219 736.527344 C 418.113281 736.910156 411.523438 737.101562 404.925781 737.101562 C 398.328125 737.097656 391.738281 736.90625 385.15625 736.515625 C 378.570312 736.128906 372 735.546875 365.449219 734.773438 C 358.898438 734.003906 352.378906 733.039062 345.882812 731.882812 C 339.390625 730.726562 332.933594 729.382812 326.519531 727.847656 C 320.105469 726.3125 313.738281 724.59375 307.425781 722.6875 C 301.109375 720.78125 294.855469 718.6875 288.664062 716.414062 C 282.472656 714.140625 276.351562 711.6875 270.304688 709.054688 C 264.257812 706.421875 258.292969 703.613281 252.40625 700.632812 C 246.523438 697.648438 240.734375 694.496094 235.035156 691.175781 C 229.335938 687.851562 223.742188 684.367188 218.246094 680.714844 C 212.753906 677.066406 207.371094 673.257812 202.097656 669.292969 C 196.828125 665.324219 191.679688 661.207031 186.648438 656.941406 C 181.621094 652.671875 176.71875 648.261719 171.949219 643.707031 C 167.179688 639.152344 162.542969 634.460938 158.050781 629.632812 C 153.554688 624.804688 149.203125 619.851562 144.996094 614.769531 C 139.757812 608.441406 134.773438 601.929688 130.035156 595.238281 C 124.988281 588.160156 120.21875 580.898438 115.734375 573.449219 C 111.25 566.003906 107.0625 558.390625 103.167969 550.617188 C 99.273438 542.84375 95.6875 534.929688 92.410156 526.878906 C 89.132812 518.824219 86.171875 510.65625 83.527344 502.375 C 80.882812 494.089844 78.566406 485.71875 76.570312 477.253906 C 74.578125 468.792969 72.917969 460.265625 71.585938 451.671875 C 70.257812 443.082031 69.261719 434.449219 68.601562 425.78125 C 67.941406 417.113281 67.621094 408.429688 67.632812 399.734375 C 67.632812 213.410156 218.671875 62.371094 405 62.371094 C 591.324219 62.371094 742.363281 213.410156 742.363281 399.734375 Z M 742.363281 399.734375 " fill-opacity="1" fill-rule="nonzero"/></g><path fill="#56317e" d="M 689.683594 580.78125 C 689.265625 581.535156 688.761719 582.25 688.300781 583.003906 C 685.058594 588.011719 681.6875 592.933594 678.183594 597.765625 C 674.679688 602.597656 671.050781 607.332031 667.296875 611.96875 C 663.539062 616.609375 659.664062 621.144531 655.671875 625.578125 C 651.675781 630.011719 647.566406 634.335938 643.339844 638.550781 C 639.113281 642.765625 634.78125 646.863281 630.339844 650.847656 C 625.898438 654.835938 621.351562 658.699219 616.703125 662.441406 C 612.058594 666.1875 607.3125 669.804688 602.472656 673.296875 C 597.636719 676.789062 592.707031 680.152344 587.6875 683.382812 C 582.671875 686.613281 577.570312 689.707031 572.390625 692.667969 C 567.207031 695.628906 561.949219 698.449219 556.617188 701.128906 C 551.285156 703.8125 545.886719 706.347656 540.421875 708.742188 C 534.957031 711.136719 529.429688 713.386719 523.84375 715.488281 C 518.257812 717.589844 512.621094 719.542969 506.929688 721.34375 C 501.242188 723.144531 495.507812 724.796875 489.734375 726.292969 C 483.957031 727.792969 478.144531 729.136719 472.296875 730.328125 C 466.445312 731.515625 460.570312 732.550781 454.667969 733.429688 C 448.765625 734.308594 442.84375 735.027344 436.902344 735.589844 C 430.960938 736.15625 425.007812 736.5625 419.046875 736.808594 C 413.085938 737.058594 407.117188 737.148438 401.152344 737.078125 C 395.183594 737.011719 389.222656 736.785156 383.265625 736.398438 C 377.3125 736.015625 371.371094 735.472656 365.445312 734.769531 C 359.515625 734.070312 353.613281 733.214844 347.730469 732.203125 C 341.851562 731.1875 336 730.019531 330.179688 728.695312 C 324.363281 727.371094 318.582031 725.894531 312.839844 724.265625 C 307.101562 722.632812 301.40625 720.851562 295.761719 718.921875 C 290.113281 716.988281 284.523438 714.90625 278.988281 712.679688 C 273.453125 710.449219 267.980469 708.074219 262.570312 705.554688 C 257.160156 703.035156 251.820312 700.375 246.550781 697.570312 C 241.28125 694.769531 236.089844 691.828125 230.976562 688.75 C 225.867188 685.671875 220.839844 682.460938 215.894531 679.113281 C 210.953125 675.769531 206.101562 672.296875 201.34375 668.695312 C 196.585938 665.089844 191.929688 661.367188 187.367188 657.515625 C 181.375 652.488281 175.578125 647.25 169.976562 641.800781 C 161.160156 633.242188 152.832031 624.230469 144.996094 614.769531 C 144.496094 614.140625 143.949219 613.511719 143.449219 612.882812 C 138.835938 607.269531 134.4375 601.484375 130.246094 595.535156 C 130.160156 595.449219 130.121094 595.324219 130.035156 595.238281 C 132 591.203125 134.171875 587.277344 136.550781 583.46875 C 138.925781 579.660156 141.496094 575.988281 144.261719 572.449219 C 147.027344 568.910156 149.96875 565.527344 153.089844 562.300781 C 156.210938 559.070312 159.492188 556.015625 162.933594 553.132812 C 166.378906 550.25 169.960938 547.558594 173.6875 545.050781 C 177.414062 542.546875 181.261719 540.246094 185.230469 538.144531 C 189.199219 536.046875 193.269531 534.160156 197.433594 532.488281 C 201.601562 530.816406 205.847656 529.367188 210.167969 528.144531 L 504.238281 444.746094 C 506.496094 444.105469 508.769531 443.539062 511.058594 443.042969 C 513.351562 442.542969 515.65625 442.121094 517.972656 441.769531 C 520.292969 441.417969 522.617188 441.140625 524.953125 440.933594 C 527.289062 440.730469 529.628906 440.597656 531.972656 440.542969 C 534.316406 440.484375 536.660156 440.5 539.003906 440.589844 C 541.34375 440.679688 543.683594 440.84375 546.015625 441.082031 C 548.347656 441.320312 550.671875 441.628906 552.984375 442.015625 C 555.296875 442.398438 557.59375 442.855469 559.878906 443.382812 C 562.164062 443.910156 564.429688 444.511719 566.675781 445.183594 C 568.921875 445.855469 571.144531 446.597656 573.34375 447.40625 C 575.542969 448.21875 577.714844 449.097656 579.859375 450.046875 C 582.003906 450.996094 584.117188 452.011719 586.195312 453.089844 C 588.277344 454.171875 590.320312 455.316406 592.328125 456.527344 C 594.335938 457.738281 596.304688 459.011719 598.234375 460.34375 C 600.160156 461.679688 602.042969 463.074219 603.882812 464.523438 C 605.726562 465.976562 607.515625 467.488281 609.261719 469.054688 C 614.875 474.066406 619.917969 479.597656 624.390625 485.648438 C 625.1875 486.738281 625.984375 487.871094 626.78125 489 Z M 689.683594 580.78125 " fill-opacity="1" fill-rule="nonzero"/><path fill="#fcc00a" d="M 467.695312 547.253906 C 494.558594 578.601562 504.363281 613.386719 489.402344 636.605469 C 468.074219 669.667969 404.664062 666.777344 347.753906 630.109375 C 336.898438 623.148438 326.785156 615.242188 317.410156 606.386719 L 187.367188 657.515625 C 181.375 652.488281 175.578125 647.25 169.976562 641.800781 L 302.15625 589.832031 C 294.144531 580.210938 287.660156 569.652344 282.710938 558.152344 L 143.449219 612.882812 C 138.835938 607.269531 134.4375 601.484375 130.246094 595.535156 L 276.925781 537.867188 C 275.125 525.210938 277.050781 513.519531 283.296875 503.835938 C 304.585938 470.769531 367.992188 473.664062 424.90625 510.332031 C 434.445312 516.480469 443.425781 523.351562 451.851562 530.953125 L 609.261719 469.054688 C 614.875 474.066406 619.917969 479.597656 624.390625 485.648438 Z M 467.695312 547.253906 " fill-opacity="1" fill-rule="nonzero"/><path fill="#ff9987" d="M 591.746094 367.296875 L 577.078125 376.9375 L 577.078125 376.980469 C 578.304688 382.097656 579.253906 387.265625 579.925781 392.484375 C 585.625 436.027344 570.957031 474.710938 540.15625 487.785156 C 536.203125 489.453125 532.117188 490.660156 527.894531 491.402344 C 523.671875 492.144531 519.417969 492.40625 515.136719 492.1875 C 514.464844 492.1875 513.753906 492.144531 513.039062 492.101562 L 510.902344 491.894531 L 487.015625 489.589844 L 478.632812 510.5 L 463.921875 547.253906 C 484.164062 571.183594 491.75 596.789062 481.148438 614.265625 C 464.929688 640.960938 412.25 638.574219 363.59375 608.945312 C 314.894531 579.316406 291.441406 536.179688 304.796875 506.980469 C 305.046875 506.5625 350.476562 395.753906 350.476562 395.753906 C 348.042969 392.488281 345.878906 389.050781 343.980469 385.445312 C 331.785156 362.4375 332.664062 338.089844 345.992188 331.046875 C 357.097656 325.179688 373.359375 333.226562 385.511719 349.488281 C 383.535156 335.496094 384.054688 321.59375 387.0625 307.789062 C 399.089844 252.089844 447.328125 215.210938 494.851562 225.4375 C 534.664062 233.988281 561.320312 272.835938 561.820312 317.972656 L 561.820312 318.015625 L 593.335938 346.46875 C 593.710938 346.808594 594.0625 347.164062 594.394531 347.542969 C 594.726562 347.917969 595.035156 348.3125 595.324219 348.726562 C 595.609375 349.136719 595.871094 349.566406 596.109375 350.007812 C 596.347656 350.449219 596.558594 350.90625 596.746094 351.371094 C 596.933594 351.839844 597.09375 352.316406 597.222656 352.800781 C 597.355469 353.285156 597.460938 353.773438 597.535156 354.273438 C 597.613281 354.769531 597.660156 355.269531 597.679688 355.769531 C 597.695312 356.273438 597.6875 356.773438 597.648438 357.273438 C 597.609375 357.777344 597.542969 358.273438 597.449219 358.765625 C 597.355469 359.257812 597.230469 359.746094 597.082031 360.226562 C 596.929688 360.703125 596.753906 361.175781 596.546875 361.632812 C 596.34375 362.09375 596.113281 362.539062 595.859375 362.972656 C 595.605469 363.40625 595.328125 363.820312 595.023438 364.222656 C 594.722656 364.625 594.398438 365.007812 594.050781 365.371094 C 593.703125 365.734375 593.339844 366.078125 592.953125 366.398438 C 592.566406 366.722656 592.164062 367.023438 591.746094 367.296875 Z M 591.746094 367.296875 " fill-opacity="1" fill-rule="nonzero"/><path fill="#242156" d="M 579.925781 392.484375 L 564.714844 385.109375 L 577.078125 376.980469 C 578.304688 382.097656 579.253906 387.265625 579.925781 392.484375 Z M 579.925781 392.484375 " fill-opacity="1" fill-rule="nonzero"/><path fill="#242156" d="M 544.554688 260.136719 C 532.777344 242.578125 515.597656 229.878906 494.851562 225.4375 C 447.328125 215.210938 399.089844 252.089844 387.0625 307.789062 C 384.054688 321.59375 383.535156 335.496094 385.511719 349.488281 C 373.359375 333.226562 357.097656 325.179688 345.992188 331.046875 C 332.664062 338.089844 331.785156 362.4375 343.980469 385.445312 C 345.878906 389.050781 348.042969 392.488281 350.476562 395.753906 C 350.476562 395.753906 346.160156 406.316406 340.125 420.941406 C 318.878906 414.234375 300.480469 398.773438 285.058594 382.21875 C 268.375 364.28125 253.5 344.332031 234.597656 328.953125 C 231.636719 326.363281 228.339844 324.308594 224.707031 322.792969 C 220.894531 321.324219 218.507812 317.09375 219.511719 313.738281 C 220.683594 309.714844 224.5 307.160156 227.976562 304.8125 C 241.019531 296.101562 253.109375 286.226562 264.246094 275.1875 C 275.382812 264.148438 285.367188 252.144531 294.191406 239.183594 C 288.914062 239.6875 281.453125 238.597656 277.347656 232.8125 C 277.039062 232.410156 276.773438 231.984375 276.539062 231.535156 C 276.308594 231.085938 276.113281 230.621094 275.960938 230.136719 C 275.808594 229.65625 275.699219 229.164062 275.628906 228.660156 C 275.558594 228.160156 275.535156 227.65625 275.550781 227.152344 C 275.570312 226.644531 275.628906 226.144531 275.730469 225.648438 C 275.832031 225.15625 275.976562 224.671875 276.160156 224.199219 C 276.347656 223.730469 276.570312 223.277344 276.832031 222.847656 C 277.09375 222.414062 277.390625 222.003906 277.722656 221.625 C 280.574219 218.730469 284.429688 219.359375 287.992188 219.695312 C 309.363281 221.664062 329.816406 211.441406 348.757812 201.339844 C 367.742188 191.238281 387.941406 180.722656 409.398438 182.144531 C 406.550781 179.296875 403.660156 177.703125 401.898438 175.105469 C 400.136719 172.464844 400.011719 168.484375 402.441406 166.515625 C 405.878906 163.664062 410.910156 166.640625 414.679688 169.070312 C 434.417969 181.726562 460.109375 178.207031 482.824219 184.117188 C 484.9375 184.667969 487.027344 185.304688 489.089844 186.019531 C 491.152344 186.738281 493.183594 187.535156 495.183594 188.414062 C 497.183594 189.292969 499.144531 190.25 501.070312 191.285156 C 502.992188 192.316406 504.875 193.425781 506.710938 194.609375 C 508.546875 195.792969 510.332031 197.042969 512.070312 198.367188 C 513.808594 199.691406 515.488281 201.085938 517.117188 202.542969 C 518.742188 204 520.308594 205.519531 521.816406 207.101562 C 523.324219 208.679688 524.765625 210.320312 526.140625 212.015625 C 527.519531 213.710938 528.828125 215.457031 530.066406 217.257812 C 531.304688 219.058594 532.46875 220.902344 533.5625 222.792969 C 534.652344 224.683594 535.671875 226.617188 536.609375 228.589844 C 537.550781 230.5625 538.410156 232.566406 539.191406 234.605469 C 539.96875 236.648438 540.667969 238.714844 541.285156 240.808594 C 541.902344 242.90625 542.4375 245.023438 542.886719 247.160156 C 543.335938 249.296875 543.699219 251.449219 543.976562 253.617188 C 544.257812 255.78125 544.449219 257.957031 544.554688 260.136719 Z M 544.554688 260.136719 " fill-opacity="1" fill-rule="nonzero"/><path fill="#242156" d="M 487.015625 489.589844 L 478.632812 510.5 L 401.855469 481.375 Z M 487.015625 489.589844 " fill-opacity="1" fill-rule="nonzero"/><path fill="#242156" d="M 532.605469 327.015625 C 532.753906 327.753906 532.855469 328.5 532.910156 329.246094 C 532.960938 329.992188 532.96875 330.726562 532.921875 331.449219 C 532.878906 332.167969 532.789062 332.863281 532.648438 333.535156 C 532.511719 334.203125 532.328125 334.835938 532.097656 335.425781 C 531.871094 336.015625 531.601562 336.558594 531.289062 337.050781 C 530.980469 337.539062 530.636719 337.972656 530.253906 338.34375 C 529.875 338.714844 529.46875 339.019531 529.035156 339.253906 C 528.601562 339.492188 528.148438 339.660156 527.675781 339.753906 C 527.203125 339.847656 526.722656 339.871094 526.230469 339.816406 C 525.738281 339.765625 525.246094 339.640625 524.75 339.445312 C 524.257812 339.246094 523.773438 338.980469 523.300781 338.648438 C 522.824219 338.316406 522.367188 337.917969 521.929688 337.460938 C 521.488281 337.003906 521.078125 336.492188 520.691406 335.929688 C 520.304688 335.363281 519.953125 334.757812 519.636719 334.109375 C 519.316406 333.457031 519.039062 332.777344 518.800781 332.070312 C 518.5625 331.359375 518.371094 330.632812 518.222656 329.894531 C 518.074219 329.152344 517.972656 328.40625 517.917969 327.660156 C 517.867188 326.914062 517.859375 326.179688 517.902344 325.457031 C 517.949219 324.738281 518.039062 324.042969 518.179688 323.371094 C 518.316406 322.703125 518.5 322.070312 518.730469 321.480469 C 518.957031 320.890625 519.226562 320.347656 519.539062 319.855469 C 519.847656 319.367188 520.191406 318.933594 520.574219 318.5625 C 520.953125 318.191406 521.359375 317.886719 521.792969 317.652344 C 522.226562 317.414062 522.679688 317.246094 523.152344 317.152344 C 523.625 317.058594 524.105469 317.039062 524.597656 317.089844 C 525.089844 317.140625 525.582031 317.265625 526.078125 317.460938 C 526.570312 317.660156 527.054688 317.925781 527.527344 318.257812 C 528.003906 318.589844 528.460938 318.988281 528.898438 319.445312 C 529.339844 319.902344 529.75 320.414062 530.136719 320.976562 C 530.523438 321.542969 530.875 322.148438 531.191406 322.800781 C 531.511719 323.449219 531.789062 324.128906 532.027344 324.835938 C 532.265625 325.546875 532.457031 326.273438 532.605469 327.015625 Z M 532.605469 327.015625 " fill-opacity="1" fill-rule="nonzero"/><path fill="#242156" d="M 369.714844 348.648438 C 368.210938 348.578125 366.71875 348.679688 365.242188 348.953125 C 363.761719 349.222656 362.332031 349.664062 360.957031 350.265625 C 359.578125 350.871094 358.289062 351.621094 357.082031 352.523438 C 355.878906 353.425781 354.796875 354.453125 353.828125 355.605469 C 351.53125 358.335938 350.105469 361.464844 349.554688 364.992188 C 346.371094 356.445312 347.960938 347.851562 353.746094 344.75 C 358.4375 342.238281 364.640625 343.996094 369.714844 348.648438 Z M 369.714844 348.648438 " fill-opacity="1" fill-rule="nonzero"/></svg>