<svg xmlns="http://www.w3.org/2000/svg" xmlns:xlink="http://www.w3.org/1999/xlink" width="1080" zoomAndPan="magnify" viewBox="0 0 810 809.999993" height="1080" preserveAspectRatio="xMidYMid meet" version="1.0"><defs><clipPath id="c148504b03"><path d="M 67.5 49.398438 L 742.5 49.398438 L 742.5 724 L 67.5 724 Z M 67.5 49.398438 " clip-rule="nonzero"/></clipPath></defs><g clip-path="url(#c148504b03)"><path fill="#ff66c4" d="M 742.019531 386.503906 C 742.058594 406.769531 740.269531 426.871094 736.65625 446.8125 C 733.046875 466.753906 727.667969 486.203125 720.523438 505.167969 C 716.835938 514.96875 712.722656 524.53125 708.191406 533.855469 C 708.003906 534.230469 707.816406 534.601562 707.632812 534.972656 C 707.332031 535.609375 707 536.242188 706.738281 536.800781 C 701.394531 547.566406 695.484375 558.011719 689.003906 568.132812 C 683.300781 577 677.15625 585.683594 670.671875 593.992188 C 666.535156 599.28125 662.214844 604.421875 657.78125 609.414062 C 657.296875 609.972656 656.738281 610.570312 656.253906 611.167969 C 653.382812 614.371094 650.480469 617.5 647.460938 620.59375 L 647.199219 620.851562 C 644.964844 623.164062 642.691406 625.472656 640.382812 627.707031 C 638.554688 629.496094 636.730469 631.246094 634.867188 633 C 633.339844 634.488281 631.699219 635.941406 630.136719 637.320312 C 625.886719 641.234375 621.453125 644.957031 616.945312 648.648438 L 616.910156 648.648438 C 612.785156 651.976562 608.585938 655.210938 604.308594 658.34375 C 600.03125 661.476562 595.683594 664.507812 591.265625 667.4375 C 586.847656 670.363281 582.359375 673.1875 577.808594 675.902344 C 573.257812 678.621094 568.644531 681.226562 563.96875 683.726562 C 559.292969 686.226562 554.5625 688.613281 549.773438 690.890625 C 544.984375 693.167969 540.144531 695.328125 535.257812 697.375 C 530.367188 699.425781 525.429688 701.355469 520.449219 703.171875 C 515.46875 704.988281 510.449219 706.683594 505.386719 708.261719 C 500.328125 709.839844 495.230469 711.300781 490.101562 712.636719 C 484.972656 713.976562 479.816406 715.191406 474.628906 716.289062 C 469.441406 717.382812 464.230469 718.355469 459 719.203125 C 453.765625 720.054688 448.515625 720.78125 443.25 721.382812 C 437.980469 721.984375 432.703125 722.460938 427.414062 722.816406 C 422.125 723.167969 416.828125 723.394531 411.527344 723.5 C 406.230469 723.601562 400.929688 723.582031 395.628906 723.433594 C 390.332031 723.289062 385.039062 723.019531 379.75 722.621094 C 374.464844 722.226562 369.191406 721.707031 363.929688 721.0625 C 358.667969 720.417969 353.421875 719.648438 348.195312 718.757812 C 342.972656 717.863281 337.769531 716.851562 332.589844 715.714844 C 327.414062 714.574219 322.265625 713.316406 317.144531 711.9375 C 312.027344 710.558594 306.945312 709.058594 301.898438 707.4375 C 296.847656 705.820312 291.84375 704.082031 286.875 702.226562 C 281.910156 700.371094 276.992188 698.398438 272.117188 696.3125 C 267.246094 694.222656 262.421875 692.023438 257.652344 689.707031 C 252.886719 687.394531 248.171875 684.96875 243.519531 682.429688 C 238.863281 679.894531 234.269531 677.25 229.742188 674.496094 C 225.210938 671.742188 220.746094 668.882812 216.351562 665.917969 C 211.957031 662.953125 207.632812 659.890625 203.382812 656.722656 C 199.132812 653.554688 194.957031 650.289062 190.863281 646.921875 C 186.765625 643.558594 182.75 640.097656 178.816406 636.546875 C 174.882812 632.992188 171.035156 629.347656 167.273438 625.613281 C 163.511719 621.875 159.839844 618.054688 156.257812 614.148438 C 155.773438 613.585938 155.324219 613.101562 154.804688 612.542969 C 152.828125 610.421875 150.929688 608.222656 149.027344 605.988281 C 138.925781 594.25 129.683594 581.867188 121.308594 568.839844 C 121.144531 568.554688 120.957031 568.28125 120.75 568.023438 C 120.683594 567.882812 120.609375 567.746094 120.527344 567.613281 C 118.179688 563.996094 115.945312 560.308594 113.785156 556.621094 C 106.671875 544.460938 100.351562 531.90625 94.820312 518.953125 C 92.882812 514.40625 91.054688 509.824219 89.304688 505.167969 C 82.175781 486.199219 76.804688 466.746094 73.191406 446.808594 C 69.578125 426.867188 67.785156 406.765625 67.808594 386.503906 C 67.808594 200.328125 218.738281 49.398438 404.914062 49.398438 C 579.429688 49.398438 722.980469 181.996094 740.304688 351.929688 C 741.460938 363.425781 742.03125 374.949219 742.019531 386.503906 Z M 742.019531 386.503906 " fill-opacity="1" fill-rule="nonzero"/></g><path fill="#fcc00a" d="M 670.671875 593.992188 C 666.535156 599.28125 662.214844 604.421875 657.78125 609.414062 C 657.296875 609.972656 656.738281 610.570312 656.253906 611.167969 C 653.382812 614.371094 650.480469 617.5 647.460938 620.59375 L 647.199219 620.851562 C 644.964844 623.164062 642.691406 625.472656 640.382812 627.707031 C 638.554688 629.496094 636.730469 631.246094 634.867188 633 C 633.339844 634.488281 631.699219 635.941406 630.136719 637.320312 C 625.886719 641.234375 621.453125 644.957031 616.945312 648.648438 L 616.910156 648.648438 C 599.941406 662.441406 581.785156 674.4375 562.4375 684.636719 C 546.441406 693.164062 529.851562 700.304688 512.664062 706.0625 C 505.660156 708.445312 498.566406 710.582031 491.390625 712.46875 C 471.847656 717.632812 452 721.011719 431.851562 722.601562 C 422.984375 723.273438 414.003906 723.648438 404.914062 723.648438 C 395.859375 723.648438 386.84375 723.273438 377.976562 722.601562 C 364.035156 721.515625 350.214844 719.558594 336.519531 716.734375 C 322.820312 713.910156 309.355469 710.242188 296.121094 705.726562 C 282.882812 701.210938 269.980469 695.886719 257.414062 689.753906 C 244.847656 683.617188 232.710938 676.722656 221.011719 669.0625 C 211.996094 663.214844 203.300781 656.929688 194.929688 650.210938 C 188.894531 645.40625 183.046875 640.414062 177.34375 635.160156 C 170.003906 628.527344 163 621.488281 156.257812 614.148438 C 155.773438 613.585938 155.324219 613.101562 154.804688 612.542969 C 152.828125 610.421875 150.929688 608.222656 149.027344 605.988281 C 142.25 598.164062 135.878906 589.964844 129.878906 581.507812 C 126.933594 577.375 124.066406 573.125 121.308594 568.839844 C 121.144531 568.554688 120.957031 568.28125 120.75 568.023438 C 120.683594 567.882812 120.609375 567.746094 120.527344 567.613281 C 118.179688 563.996094 115.945312 560.308594 113.785156 556.621094 C 110.132812 550.363281 106.679688 543.992188 103.425781 537.507812 C 100.371094 531.433594 97.5 525.25 94.820312 518.953125 C 96.136719 517.125 97.519531 515.34375 98.957031 513.609375 C 100.398438 511.871094 101.894531 510.1875 103.449219 508.554688 C 105.003906 506.921875 106.613281 505.34375 108.273438 503.816406 C 109.9375 502.292969 111.648438 500.828125 113.410156 499.417969 C 115.167969 498.011719 116.976562 496.664062 118.828125 495.378906 C 120.679688 494.09375 122.574219 492.871094 124.511719 491.714844 C 126.445312 490.558594 128.417969 489.46875 130.429688 488.445312 C 132.4375 487.421875 134.480469 486.464844 136.554688 485.582031 C 138.628906 484.699219 140.730469 483.882812 142.859375 483.144531 C 144.988281 482.402344 147.140625 481.730469 149.316406 481.136719 C 151.492188 480.539062 153.683594 480.019531 155.894531 479.570312 C 158.105469 479.125 160.328125 478.753906 162.5625 478.457031 C 164.796875 478.160156 167.039062 477.941406 169.289062 477.796875 C 171.542969 477.652344 173.792969 477.585938 176.046875 477.597656 C 178.304688 477.605469 180.554688 477.691406 182.804688 477.851562 C 185.054688 478.015625 187.296875 478.253906 189.527344 478.566406 L 244.929688 486.351562 L 295.785156 493.507812 L 319.480469 496.859375 L 323.320312 460.71875 C 366.613281 482.476562 431.628906 493.542969 491.464844 482.738281 L 487.476562 520.519531 L 584.570312 534.191406 C 589.0625 534.824219 593.5 535.71875 597.886719 536.871094 C 602.273438 538.027344 606.578125 539.429688 610.800781 541.085938 C 615.023438 542.742188 619.136719 544.636719 623.136719 546.773438 C 627.140625 548.910156 631.003906 551.269531 634.726562 553.859375 C 638.453125 556.445312 642.015625 559.242188 645.414062 562.246094 C 648.8125 565.246094 652.027344 568.4375 655.050781 571.816406 C 658.078125 575.195312 660.898438 578.738281 663.507812 582.449219 C 666.121094 586.15625 668.507812 590.003906 670.671875 593.992188 Z M 670.671875 593.992188 " fill-opacity="1" fill-rule="nonzero"/><path fill="#ff9987" d="M 573.316406 304.5 C 573.320312 307.738281 573.210938 310.976562 572.992188 314.210938 C 572.769531 317.445312 572.441406 320.667969 572.003906 323.878906 C 571.566406 327.089844 571.023438 330.28125 570.367188 333.457031 C 569.714844 336.628906 568.953125 339.777344 568.085938 342.898438 C 567.21875 346.023438 566.246094 349.113281 565.167969 352.167969 C 564.089844 355.226562 562.910156 358.242188 561.628906 361.21875 C 560.347656 364.195312 558.964844 367.125 557.484375 370.007812 C 556.003906 372.890625 554.425781 375.71875 552.753906 378.496094 C 551.082031 381.269531 549.316406 383.988281 547.460938 386.640625 C 545.601562 389.296875 543.65625 391.890625 541.625 394.414062 C 539.59375 396.9375 537.476562 399.390625 535.277344 401.769531 C 533.078125 404.152344 530.800781 406.453125 528.445312 408.679688 C 526.089844 410.90625 523.664062 413.050781 521.164062 415.113281 C 518.660156 417.171875 516.09375 419.148438 513.460938 421.035156 C 510.824219 422.921875 508.128906 424.71875 505.375 426.421875 C 502.617188 428.125 499.804688 429.734375 496.941406 431.25 L 494.183594 457.21875 L 491.464844 482.738281 C 431.628906 493.542969 366.613281 482.476562 323.320312 460.71875 L 329.09375 406.0625 C 323.089844 400.082031 317.648438 393.625 312.777344 386.6875 C 311.222656 387.269531 309.644531 387.769531 308.042969 388.1875 C 306.4375 388.605469 304.816406 388.9375 303.179688 389.1875 C 301.539062 389.4375 299.894531 389.601562 298.238281 389.679688 C 296.582031 389.757812 294.925781 389.75 293.273438 389.660156 C 291.617188 389.566406 289.972656 389.386719 288.335938 389.125 C 286.699219 388.859375 285.082031 388.511719 283.480469 388.082031 C 281.882812 387.648438 280.308594 387.136719 278.761719 386.542969 C 277.214844 385.945312 275.703125 385.273438 274.226562 384.523438 C 272.75 383.769531 271.3125 382.945312 269.921875 382.046875 C 268.53125 381.144531 267.191406 380.175781 265.898438 379.136719 C 264.609375 378.097656 263.375 376.992188 262.199219 375.824219 C 261.023438 374.660156 259.910156 373.433594 258.859375 372.152344 C 257.808594 370.867188 256.828125 369.535156 255.917969 368.152344 C 255.007812 366.765625 254.171875 365.339844 253.40625 363.867188 C 252.644531 362.394531 251.957031 360.890625 251.351562 359.347656 C 250.746094 357.804688 250.21875 356.234375 249.777344 354.640625 C 249.332031 353.042969 248.972656 351.425781 248.695312 349.792969 C 248.417969 348.160156 248.226562 346.515625 248.121094 344.863281 C 248.015625 343.207031 247.996094 341.550781 248.058594 339.898438 C 248.125 338.242188 248.277344 336.59375 248.511719 334.953125 C 248.75 333.3125 249.070312 331.6875 249.476562 330.082031 C 249.878906 328.472656 250.367188 326.890625 250.933594 325.335938 C 251.503906 323.777344 252.152344 322.257812 252.878906 320.765625 C 253.605469 319.277344 254.40625 317.828125 255.285156 316.421875 C 256.160156 315.015625 257.109375 313.660156 258.128906 312.351562 C 259.144531 311.042969 260.226562 309.792969 261.375 308.597656 C 262.523438 307.402344 263.730469 306.269531 264.992188 305.195312 C 266.257812 304.125 267.574219 303.125 268.945312 302.191406 C 270.3125 301.257812 271.726562 300.394531 273.1875 299.609375 C 274.644531 298.820312 276.140625 298.109375 277.671875 297.480469 C 279.203125 296.847656 280.761719 296.292969 282.351562 295.824219 C 283.941406 295.355469 285.550781 294.964844 287.179688 294.664062 C 287.703125 294.550781 288.222656 294.476562 288.746094 294.402344 C 291.140625 294.027344 293.546875 293.839844 295.972656 293.84375 C 296.792969 293.84375 297.613281 293.878906 298.433594 293.917969 C 299.214844 293.957031 300.035156 293.992188 300.777344 294.105469 C 302.457031 294.253906 304.058594 294.515625 305.660156 294.8125 C 307.1875 295.148438 308.640625 295.519531 310.09375 295.96875 C 310.726562 296.152344 311.359375 296.375 311.992188 296.601562 C 313.261719 297.046875 314.488281 297.53125 315.683594 298.089844 C 316.761719 298.574219 317.804688 299.097656 318.8125 299.617188 C 319.050781 299.769531 319.300781 299.90625 319.558594 300.027344 C 320.375 300.511719 321.160156 300.996094 321.941406 301.519531 C 323.25 302.335938 324.503906 303.230469 325.703125 304.199219 C 325.59375 285.050781 325.628906 267.277344 325.628906 267.277344 C 335.804688 263.875 345.773438 259.953125 355.539062 255.515625 C 365.304688 251.078125 374.816406 246.144531 384.070312 240.722656 C 393.328125 235.296875 402.277344 229.410156 410.921875 223.058594 C 419.566406 216.707031 427.859375 209.921875 435.800781 202.710938 C 447.535156 192.054688 458.714844 179.984375 464.863281 165.527344 C 466.78125 166.007812 468.6875 166.53125 470.585938 167.089844 C 472.484375 167.648438 474.367188 168.25 476.238281 168.886719 C 478.113281 169.523438 479.96875 170.199219 481.816406 170.914062 C 483.660156 171.628906 485.488281 172.382812 487.300781 173.175781 C 489.113281 173.964844 490.910156 174.792969 492.691406 175.65625 C 494.46875 176.523438 496.230469 177.425781 497.96875 178.363281 C 499.710938 179.300781 501.433594 180.273438 503.136719 181.285156 C 504.835938 182.292969 506.515625 183.335938 508.175781 184.414062 C 509.832031 185.496094 511.46875 186.605469 513.078125 187.753906 C 514.691406 188.898438 516.277344 190.078125 517.839844 191.292969 C 519.40625 192.503906 520.941406 193.75 522.453125 195.023438 C 523.964844 196.300781 525.449219 197.605469 526.90625 198.945312 C 528.363281 200.28125 529.792969 201.648438 531.195312 203.046875 C 532.59375 204.441406 533.964844 205.867188 535.308594 207.320312 C 536.652344 208.773438 537.960938 210.253906 539.242188 211.761719 C 540.523438 213.269531 541.769531 214.804688 542.988281 216.363281 C 544.207031 217.921875 545.390625 219.507812 546.542969 221.113281 C 547.691406 222.722656 548.808594 224.355469 549.894531 226.007812 C 550.976562 227.664062 552.027344 229.339844 553.042969 231.039062 C 554.054688 232.738281 555.035156 234.457031 555.976562 236.195312 C 556.921875 237.933594 557.828125 239.691406 558.699219 241.464844 C 559.570312 243.242188 560.402344 245.035156 561.199219 246.847656 C 561.996094 248.65625 562.753906 250.484375 563.472656 252.328125 C 564.195312 254.167969 564.875 256.027344 565.519531 257.894531 C 566.164062 259.765625 566.769531 261.648438 567.332031 263.542969 C 567.898438 265.441406 568.425781 267.347656 568.914062 269.265625 C 569.398438 271.179688 569.847656 273.109375 570.253906 275.042969 C 570.660156 276.980469 571.027344 278.921875 571.351562 280.875 C 571.679688 282.824219 571.964844 284.78125 572.210938 286.746094 C 572.457031 288.707031 572.660156 290.675781 572.824219 292.644531 C 572.988281 294.617188 573.113281 296.589844 573.195312 298.566406 C 573.277344 300.542969 573.316406 302.519531 573.316406 304.5 Z M 573.316406 304.5 " fill-opacity="1" fill-rule="nonzero"/><path fill="#ff5e64" d="M 296.605469 500.136719 C 296.613281 503.503906 296.015625 506.757812 294.816406 509.898438 C 294.519531 510.683594 294.183594 511.503906 293.8125 512.246094 C 293.8125 512.285156 293.773438 512.320312 293.773438 512.359375 C 293.726562 512.398438 293.703125 512.445312 293.699219 512.507812 C 293.253906 513.363281 292.769531 514.222656 292.246094 515.078125 C 291.761719 515.785156 291.277344 516.496094 290.71875 517.203125 C 290.382812 517.613281 290.050781 518.058594 289.675781 518.46875 L 289.566406 518.582031 C 289.304688 518.84375 289.082031 519.101562 288.820312 519.363281 L 288.820312 519.402344 C 288.632812 519.585938 288.445312 519.773438 288.261719 519.960938 C 288.121094 520.105469 287.972656 520.242188 287.8125 520.371094 C 287.6875 520.503906 287.550781 520.628906 287.402344 520.742188 C 287.058594 521.074219 286.699219 521.382812 286.324219 521.671875 C 284.625 523.035156 282.792969 524.183594 280.828125 525.117188 C 278.863281 526.050781 276.816406 526.746094 274.6875 527.199219 C 272.558594 527.65625 270.40625 527.859375 268.230469 527.816406 C 266.054688 527.769531 263.914062 527.472656 261.808594 526.925781 C 258.066406 525.925781 254.6875 524.210938 251.671875 521.785156 C 250.546875 520.882812 249.488281 519.902344 248.507812 518.84375 C 248.460938 518.800781 248.421875 518.75 248.394531 518.691406 C 248.222656 518.527344 248.0625 518.355469 247.910156 518.171875 C 247.089844 517.199219 246.332031 516.179688 245.636719 515.117188 C 245.636719 515.078125 245.601562 515.078125 245.601562 515.042969 L 245.5625 515.003906 C 245.378906 514.707031 245.191406 514.40625 245.042969 514.109375 C 244.4375 513.121094 243.917969 512.089844 243.476562 511.019531 C 243.328125 510.644531 243.179688 510.273438 243.03125 509.898438 C 242.304688 507.988281 241.800781 506.023438 241.515625 504 C 241.226562 501.976562 241.167969 499.949219 241.332031 497.914062 C 241.496094 495.875 241.878906 493.882812 242.488281 491.933594 C 243.09375 489.984375 243.910156 488.121094 244.929688 486.351562 L 295.785156 493.507812 C 296.089844 494.757812 296.3125 496.027344 296.457031 497.308594 C 296.53125 498.238281 296.605469 499.207031 296.605469 500.136719 Z M 153.015625 551.332031 C 152.875 549.957031 152.628906 548.601562 152.285156 547.265625 C 151.9375 545.925781 151.496094 544.625 150.957031 543.351562 C 150.414062 542.082031 149.785156 540.859375 149.058594 539.683594 C 148.335938 538.507812 147.527344 537.390625 146.636719 536.335938 C 145.746094 535.28125 144.785156 534.296875 143.746094 533.386719 C 142.707031 532.476562 141.609375 531.648438 140.445312 530.902344 C 139.285156 530.15625 138.074219 529.5 136.8125 528.9375 C 135.554688 528.371094 134.257812 527.902344 132.925781 527.53125 C 131.597656 527.160156 130.246094 526.890625 128.875 526.722656 C 127.507812 526.554688 126.128906 526.488281 124.75 526.527344 C 123.371094 526.5625 122 526.703125 120.640625 526.945312 C 119.28125 527.191406 117.949219 527.53125 116.640625 527.972656 C 115.332031 528.417969 114.0625 528.953125 112.835938 529.585938 C 111.609375 530.21875 110.433594 530.9375 109.316406 531.746094 C 108.195312 532.554688 107.140625 533.441406 106.15625 534.40625 C 105.167969 535.371094 104.257812 536.40625 103.425781 537.507812 C 106.667969 543.992188 110.121094 550.363281 113.785156 556.621094 C 115.945312 560.308594 118.179688 563.996094 120.527344 567.613281 C 120.609375 567.746094 120.683594 567.882812 120.75 568.023438 C 120.957031 568.28125 121.144531 568.554688 121.308594 568.839844 C 124.066406 573.125 126.933594 577.375 129.878906 581.507812 C 130.808594 581.359375 131.703125 581.171875 132.597656 580.949219 C 136.394531 579.917969 139.820312 578.167969 142.882812 575.695312 C 143.257812 575.40625 143.617188 575.097656 143.960938 574.765625 C 144.109375 574.652344 144.246094 574.527344 144.371094 574.394531 C 144.53125 574.265625 144.679688 574.128906 144.820312 573.984375 C 145.003906 573.796875 145.191406 573.609375 145.378906 573.425781 L 145.378906 573.386719 C 145.636719 573.125 145.863281 572.867188 146.121094 572.605469 L 146.234375 572.492188 C 146.605469 572.082031 146.941406 571.636719 147.277344 571.226562 C 147.835938 570.519531 148.320312 569.808594 148.804688 569.101562 C 149.328125 568.246094 149.8125 567.386719 150.257812 566.53125 C 150.257812 566.46875 150.285156 566.421875 150.332031 566.382812 C 150.332031 566.34375 150.371094 566.308594 150.371094 566.269531 C 150.742188 565.527344 151.078125 564.707031 151.375 563.921875 C 152.574219 560.78125 153.171875 557.527344 153.164062 554.160156 C 153.164062 553.230469 153.089844 552.261719 153.015625 551.332031 Z M 227.53125 648.199219 C 227.386719 646.804688 227.136719 645.429688 226.78125 644.074219 C 226.429688 642.71875 225.972656 641.398438 225.417969 640.109375 C 224.863281 638.824219 224.214844 637.585938 223.472656 636.398438 C 222.730469 635.207031 221.902344 634.082031 220.988281 633.019531 C 220.074219 631.957031 219.085938 630.96875 218.019531 630.058594 C 216.957031 629.144531 215.832031 628.316406 214.640625 627.578125 C 213.453125 626.835938 212.214844 626.1875 210.925781 625.636719 C 209.636719 625.082031 208.316406 624.628906 206.960938 624.277344 C 205.601562 623.921875 204.226562 623.675781 202.832031 623.53125 C 201.441406 623.386719 200.042969 623.351562 198.644531 623.417969 C 197.242188 623.488281 195.855469 623.664062 194.484375 623.941406 C 193.109375 624.222656 191.765625 624.601562 190.449219 625.085938 C 189.132812 625.570312 187.863281 626.148438 186.636719 626.824219 C 185.40625 627.503906 184.238281 628.265625 183.128906 629.121094 C 182.015625 629.976562 180.976562 630.910156 180.007812 631.921875 C 179.039062 632.933594 178.148438 634.011719 177.34375 635.160156 C 183.046875 640.414062 188.894531 645.40625 194.929688 650.210938 C 203.3125 656.917969 212.007812 663.203125 221.011719 669.0625 C 221.269531 668.730469 221.53125 668.394531 221.792969 668.09375 C 222.351562 667.386719 222.835938 666.679688 223.320312 665.972656 C 223.84375 665.113281 224.328125 664.257812 224.773438 663.402344 C 224.773438 663.339844 224.800781 663.289062 224.847656 663.253906 C 224.847656 663.214844 224.886719 663.175781 224.886719 663.140625 C 225.257812 662.394531 225.59375 661.574219 225.890625 660.792969 C 227.089844 657.648438 227.6875 654.394531 227.679688 651.03125 C 227.679688 650.101562 227.605469 649.132812 227.53125 648.199219 Z M 488.328125 558.792969 C 488.226562 557.816406 488.074219 556.851562 487.871094 555.890625 C 487.667969 554.933594 487.414062 553.988281 487.109375 553.054688 C 486.804688 552.125 486.453125 551.210938 486.050781 550.316406 C 485.648438 549.421875 485.203125 548.550781 484.707031 547.707031 C 484.214844 546.859375 483.675781 546.039062 483.097656 545.25 C 482.515625 544.460938 481.894531 543.707031 481.234375 542.980469 C 480.570312 542.257812 479.875 541.570312 479.140625 540.921875 C 478.40625 540.273438 477.640625 539.664062 476.839844 539.09375 C 476.042969 538.527344 475.214844 538.003906 474.359375 537.523438 C 473.507812 537.042969 472.628906 536.609375 471.726562 536.222656 C 470.828125 535.835938 469.910156 535.496094 468.972656 535.207031 C 468.035156 534.917969 467.085938 534.679688 466.125 534.492188 C 465.164062 534.300781 464.191406 534.164062 463.21875 534.082031 C 462.242188 533.996094 461.261719 533.960938 460.28125 533.980469 C 459.300781 534 458.324219 534.070312 457.351562 534.191406 C 456.378906 534.3125 455.417969 534.488281 454.464844 534.710938 C 453.507812 534.9375 452.570312 535.210938 451.644531 535.535156 C 450.71875 535.859375 449.8125 536.230469 448.929688 536.652344 C 448.042969 537.074219 447.183594 537.539062 446.347656 538.050781 C 445.511719 538.5625 444.703125 539.117188 443.929688 539.714844 C 443.152344 540.3125 442.410156 540.949219 441.699219 541.628906 C 440.988281 542.304688 440.320312 543.015625 439.683594 543.765625 C 439.050781 544.511719 438.460938 545.292969 437.910156 546.101562 C 437.359375 546.914062 436.851562 547.753906 436.390625 548.617188 C 435.929688 549.480469 435.515625 550.367188 435.148438 551.277344 C 434.78125 552.1875 434.460938 553.113281 434.195312 554.054688 C 433.925781 554.996094 433.707031 555.949219 433.539062 556.917969 C 433.371094 557.882812 433.253906 558.855469 433.191406 559.832031 C 433.125 560.8125 433.113281 561.789062 433.152344 562.769531 C 433.195312 563.75 433.285156 564.722656 433.429688 565.691406 C 433.570312 566.660156 433.765625 567.621094 434.011719 568.570312 C 434.257812 569.519531 434.550781 570.453125 434.894531 571.371094 C 435.039062 571.753906 435.1875 572.128906 435.347656 572.5 C 435.800781 573.566406 436.320312 574.59375 436.90625 575.59375 C 437.082031 575.894531 437.265625 576.199219 437.457031 576.496094 C 437.464844 576.507812 437.472656 576.519531 437.476562 576.53125 C 437.492188 576.550781 437.507812 576.574219 437.523438 576.597656 C 438.210938 577.664062 438.96875 578.683594 439.796875 579.644531 C 439.953125 579.828125 440.109375 580.007812 440.273438 580.183594 C 440.316406 580.230469 440.351562 580.269531 440.390625 580.316406 C 440.980469 580.957031 441.59375 581.570312 442.242188 582.15625 C 442.886719 582.742188 443.558594 583.296875 444.253906 583.816406 C 444.953125 584.335938 445.675781 584.824219 446.417969 585.277344 C 447.164062 585.730469 447.925781 586.148438 448.710938 586.527344 C 449.492188 586.910156 450.292969 587.253906 451.109375 587.558594 C 451.925781 587.863281 452.753906 588.128906 453.59375 588.355469 C 454.433594 588.585938 455.285156 588.769531 456.144531 588.917969 C 457 589.066406 457.863281 589.171875 458.734375 589.234375 C 459.601562 589.300781 460.472656 589.324219 461.34375 589.308594 C 462.214844 589.289062 463.082031 589.230469 463.949219 589.132812 C 464.8125 589.035156 465.671875 588.894531 466.523438 588.714844 C 467.375 588.53125 468.21875 588.3125 469.050781 588.050781 C 469.878906 587.792969 470.699219 587.492188 471.5 587.15625 C 472.304688 586.820312 473.089844 586.445312 473.855469 586.035156 C 474.625 585.621094 475.371094 585.175781 476.097656 584.691406 C 476.824219 584.210938 477.523438 583.695312 478.199219 583.148438 L 478.203125 583.148438 C 478.574219 582.84375 478.9375 582.539062 479.285156 582.21875 C 479.414062 582.105469 479.550781 581.984375 479.675781 581.863281 C 479.828125 581.71875 479.976562 581.574219 480.125 581.429688 C 480.316406 581.246094 480.503906 581.054688 480.6875 580.867188 L 480.707031 580.84375 C 480.957031 580.589844 481.195312 580.332031 481.429688 580.070312 C 481.46875 580.023438 481.515625 579.972656 481.554688 579.925781 C 481.917969 579.515625 482.273438 579.09375 482.613281 578.660156 C 483.144531 577.980469 483.648438 577.265625 484.117188 576.539062 C 484.648438 575.707031 485.136719 574.851562 485.574219 573.964844 C 485.59375 573.921875 485.621094 573.867188 485.648438 573.816406 L 485.691406 573.726562 C 486.066406 572.960938 486.402344 572.175781 486.703125 571.371094 C 487.886719 568.230469 488.476562 564.984375 488.46875 561.628906 C 488.46875 560.683594 488.421875 559.738281 488.328125 558.792969 Z M 562.4375 684.636719 C 562.269531 683.808594 562.0625 682.984375 561.816406 682.175781 C 561.570312 681.363281 561.289062 680.5625 560.96875 679.777344 C 560.648438 678.992188 560.296875 678.222656 559.90625 677.46875 C 559.515625 676.71875 559.09375 675.984375 558.636719 675.269531 C 558.179688 674.554688 557.691406 673.863281 557.167969 673.195312 C 556.648438 672.523438 556.097656 671.882812 555.519531 671.261719 C 554.9375 670.644531 554.332031 670.054688 553.699219 669.488281 C 553.0625 668.925781 552.40625 668.394531 551.722656 667.890625 C 551.039062 667.390625 550.335938 666.917969 549.609375 666.480469 C 548.882812 666.042969 548.136719 665.640625 547.375 665.269531 C 546.613281 664.902344 545.832031 664.566406 545.039062 664.269531 C 544.246094 663.972656 543.4375 663.710938 542.621094 663.488281 C 541.804688 663.265625 540.976562 663.078125 540.140625 662.929688 C 539.308594 662.78125 538.46875 662.675781 537.621094 662.601562 C 536.777344 662.53125 535.929688 662.5 535.082031 662.507812 C 534.234375 662.515625 533.390625 662.5625 532.546875 662.644531 C 531.703125 662.730469 530.863281 662.855469 530.03125 663.015625 C 529.199219 663.179688 528.375 663.378906 527.5625 663.617188 C 526.75 663.851562 525.945312 664.128906 525.160156 664.4375 C 524.371094 664.75 523.597656 665.097656 522.839844 665.476562 C 522.082031 665.859375 521.34375 666.277344 520.625 666.726562 C 519.90625 667.175781 519.210938 667.660156 518.535156 668.171875 C 517.863281 668.6875 517.214844 669.230469 516.589844 669.804688 C 515.964844 670.378906 515.367188 670.976562 514.796875 671.605469 C 514.230469 672.234375 513.691406 672.886719 513.179688 673.566406 C 512.671875 674.246094 512.195312 674.945312 511.75 675.667969 C 511.304688 676.386719 510.894531 677.128906 510.515625 677.886719 C 510.140625 678.648438 509.800781 679.421875 509.492188 680.214844 C 509.1875 681.003906 508.917969 681.808594 508.6875 682.625 C 508.457031 683.441406 508.261719 684.265625 508.105469 685.097656 C 507.949219 685.929688 507.832031 686.769531 507.753906 687.613281 C 507.675781 688.457031 507.632812 689.304688 507.632812 690.152344 C 507.628906 693.515625 508.226562 696.769531 509.421875 699.914062 L 509.867188 701.03125 C 510.308594 702.105469 510.828125 703.132812 511.433594 704.125 C 511.582031 704.421875 511.769531 704.71875 511.953125 705.019531 L 511.992188 705.054688 C 511.992188 705.09375 512.03125 705.09375 512.03125 705.128906 C 512.253906 705.464844 512.4375 705.761719 512.664062 706.0625 M 616.867188 579.285156 C 616.765625 578.308594 616.613281 577.34375 616.410156 576.382812 C 616.207031 575.425781 615.953125 574.480469 615.648438 573.546875 C 615.34375 572.617188 614.992188 571.703125 614.589844 570.808594 C 614.1875 569.914062 613.738281 569.042969 613.246094 568.199219 C 612.753906 567.351562 612.214844 566.53125 611.632812 565.742188 C 611.054688 564.953125 610.433594 564.195312 609.773438 563.472656 C 609.109375 562.75 608.414062 562.0625 607.679688 561.414062 C 606.945312 560.765625 606.179688 560.15625 605.378906 559.585938 C 604.582031 559.019531 603.753906 558.496094 602.898438 558.015625 C 602.042969 557.535156 601.167969 557.101562 600.265625 556.714844 C 599.367188 556.328125 598.449219 555.988281 597.511719 555.699219 C 596.574219 555.410156 595.625 555.171875 594.664062 554.984375 C 593.699219 554.792969 592.730469 554.65625 591.753906 554.570312 C 590.777344 554.488281 589.800781 554.453125 588.820312 554.472656 C 587.839844 554.488281 586.863281 554.558594 585.890625 554.683594 C 584.917969 554.804688 583.957031 554.976562 583 555.203125 C 582.046875 555.425781 581.109375 555.703125 580.183594 556.027344 C 579.257812 556.351562 578.351562 556.722656 577.46875 557.144531 C 576.582031 557.5625 575.722656 558.03125 574.886719 558.542969 C 574.050781 559.054688 573.242188 559.609375 572.46875 560.207031 C 571.691406 560.804688 570.945312 561.441406 570.238281 562.121094 C 569.527344 562.796875 568.859375 563.507812 568.222656 564.257812 C 567.589844 565.003906 567 565.785156 566.449219 566.59375 C 565.898438 567.40625 565.390625 568.242188 564.929688 569.109375 C 564.46875 569.972656 564.054688 570.859375 563.6875 571.769531 C 563.320312 572.675781 563 573.601562 562.730469 574.546875 C 562.464844 575.488281 562.246094 576.441406 562.078125 577.410156 C 561.910156 578.375 561.792969 579.347656 561.730469 580.324219 C 561.664062 581.300781 561.652344 582.28125 561.691406 583.261719 C 561.730469 584.238281 561.824219 585.214844 561.96875 586.183594 C 562.109375 587.152344 562.304688 588.113281 562.550781 589.0625 C 562.796875 590.011719 563.089844 590.945312 563.433594 591.863281 C 563.578125 592.246094 563.726562 592.621094 563.886719 592.992188 C 564.339844 594.058594 564.859375 595.085938 565.445312 596.085938 C 565.621094 596.386719 565.804688 596.691406 565.996094 596.988281 C 566.003906 597 566.011719 597.007812 566.015625 597.019531 C 566.03125 597.042969 566.046875 597.066406 566.0625 597.089844 C 566.75 598.15625 567.507812 599.171875 568.335938 600.136719 C 568.492188 600.320312 568.648438 600.5 568.808594 600.675781 C 568.851562 600.722656 568.890625 600.761719 568.929688 600.808594 C 569.515625 601.449219 570.132812 602.0625 570.78125 602.648438 C 571.425781 603.234375 572.097656 603.785156 572.792969 604.308594 C 573.492188 604.828125 574.214844 605.316406 574.957031 605.769531 C 575.699219 606.222656 576.464844 606.640625 577.246094 607.019531 C 578.03125 607.402344 578.832031 607.746094 579.648438 608.050781 C 580.460938 608.355469 581.289062 608.621094 582.132812 608.847656 C 582.972656 609.074219 583.824219 609.261719 584.679688 609.410156 C 585.539062 609.554688 586.402344 609.664062 587.273438 609.726562 C 588.140625 609.792969 589.011719 609.816406 589.882812 609.800781 C 590.753906 609.78125 591.621094 609.722656 592.484375 609.625 C 593.351562 609.523438 594.210938 609.386719 595.0625 609.203125 C 595.914062 609.023438 596.757812 608.804688 597.585938 608.542969 C 598.417969 608.285156 599.238281 607.984375 600.039062 607.648438 C 600.84375 607.3125 601.628906 606.9375 602.394531 606.523438 C 603.164062 606.113281 603.910156 605.667969 604.636719 605.183594 C 605.359375 604.703125 606.0625 604.1875 606.738281 603.636719 L 606.742188 603.636719 C 607.113281 603.335938 607.476562 603.03125 607.824219 602.707031 C 607.953125 602.597656 608.085938 602.476562 608.214844 602.355469 C 608.367188 602.210938 608.515625 602.066406 608.664062 601.921875 C 608.855469 601.738281 609.042969 601.546875 609.226562 601.355469 L 609.246094 601.335938 C 609.496094 601.082031 609.734375 600.824219 609.96875 600.5625 C 610.007812 600.511719 610.054688 600.464844 610.09375 600.417969 C 610.457031 600.007812 610.8125 599.585938 611.152344 599.152344 C 611.683594 598.46875 612.1875 597.757812 612.65625 597.03125 C 613.1875 596.199219 613.671875 595.34375 614.113281 594.457031 C 614.132812 594.414062 614.160156 594.359375 614.183594 594.308594 L 614.230469 594.21875 C 614.605469 593.453125 614.941406 592.667969 615.242188 591.863281 C 616.425781 588.722656 617.015625 585.476562 617.007812 582.121094 C 617.007812 581.175781 616.960938 580.226562 616.867188 579.285156 Z M 357.925781 605.363281 C 357.824219 604.390625 357.671875 603.421875 357.46875 602.464844 C 357.265625 601.503906 357.011719 600.558594 356.707031 599.628906 C 356.402344 598.695312 356.050781 597.785156 355.648438 596.890625 C 355.246094 595.996094 354.800781 595.125 354.304688 594.277344 C 353.8125 593.429688 353.273438 592.613281 352.695312 591.824219 C 352.113281 591.035156 351.492188 590.277344 350.832031 589.554688 C 350.171875 588.828125 349.472656 588.144531 348.738281 587.492188 C 348.003906 586.84375 347.238281 586.234375 346.4375 585.667969 C 345.640625 585.097656 344.8125 584.574219 343.957031 584.09375 C 343.105469 583.613281 342.226562 583.179688 341.328125 582.792969 C 340.425781 582.40625 339.507812 582.070312 338.570312 581.78125 C 337.632812 581.492188 336.683594 581.25 335.722656 581.0625 C 334.761719 580.875 333.792969 580.738281 332.816406 580.652344 C 331.839844 580.566406 330.859375 580.53125 329.878906 580.550781 C 328.902344 580.570312 327.925781 580.640625 326.953125 580.761719 C 325.980469 580.886719 325.015625 581.058594 324.0625 581.28125 C 323.109375 581.507812 322.167969 581.78125 321.242188 582.105469 C 320.316406 582.429688 319.414062 582.804688 318.527344 583.222656 C 317.640625 583.644531 316.78125 584.109375 315.945312 584.625 C 315.109375 585.136719 314.304688 585.691406 313.527344 586.289062 C 312.75 586.886719 312.007812 587.523438 311.296875 588.199219 C 310.589844 588.875 309.917969 589.589844 309.285156 590.335938 C 308.652344 591.085938 308.058594 591.863281 307.507812 592.675781 C 306.957031 593.484375 306.453125 594.324219 305.988281 595.1875 C 305.527344 596.054688 305.113281 596.941406 304.746094 597.847656 C 304.378906 598.757812 304.0625 599.683594 303.792969 600.625 C 303.523438 601.570312 303.304688 602.523438 303.136719 603.488281 C 302.96875 604.453125 302.855469 605.425781 302.789062 606.40625 C 302.726562 607.382812 302.710938 608.359375 302.753906 609.339844 C 302.792969 610.320312 302.882812 611.292969 303.027344 612.265625 C 303.171875 613.234375 303.363281 614.191406 303.609375 615.140625 C 303.855469 616.089844 304.148438 617.023438 304.496094 617.941406 C 304.636719 618.324219 304.789062 618.699219 304.945312 619.074219 C 305.402344 620.136719 305.917969 621.167969 306.503906 622.164062 C 306.679688 622.46875 306.863281 622.769531 307.058594 623.066406 C 307.0625 623.078125 307.070312 623.089844 307.074219 623.101562 C 307.09375 623.121094 307.109375 623.144531 307.121094 623.167969 C 307.808594 624.238281 308.566406 625.253906 309.394531 626.21875 C 309.550781 626.402344 309.707031 626.582031 309.871094 626.753906 C 309.914062 626.800781 309.949219 626.839844 309.988281 626.886719 C 310.578125 627.53125 311.195312 628.144531 311.839844 628.730469 C 312.484375 629.3125 313.15625 629.867188 313.855469 630.386719 C 314.550781 630.910156 315.273438 631.398438 316.015625 631.851562 C 316.761719 632.304688 317.523438 632.71875 318.308594 633.101562 C 319.089844 633.480469 319.890625 633.824219 320.707031 634.128906 C 321.523438 634.4375 322.351562 634.703125 323.191406 634.929688 C 324.03125 635.15625 324.882812 635.34375 325.742188 635.488281 C 326.601562 635.636719 327.464844 635.742188 328.332031 635.808594 C 329.199219 635.871094 330.070312 635.898438 330.941406 635.878906 C 331.8125 635.863281 332.679688 635.804688 333.546875 635.703125 C 334.410156 635.605469 335.269531 635.464844 336.121094 635.285156 C 336.972656 635.105469 337.816406 634.882812 338.648438 634.625 C 339.480469 634.363281 340.296875 634.066406 341.097656 633.726562 C 341.902344 633.390625 342.6875 633.015625 343.457031 632.605469 C 344.222656 632.195312 344.96875 631.746094 345.695312 631.265625 C 346.421875 630.78125 347.121094 630.265625 347.800781 629.71875 C 348.171875 629.417969 348.535156 629.109375 348.882812 628.789062 C 349.011719 628.675781 349.148438 628.558594 349.273438 628.433594 C 349.425781 628.289062 349.574219 628.148438 349.726562 628 C 349.914062 627.816406 350.101562 627.628906 350.285156 627.4375 L 350.304688 627.417969 C 350.554688 627.164062 350.792969 626.90625 351.027344 626.644531 C 351.066406 626.59375 351.113281 626.542969 351.152344 626.5 C 351.515625 626.089844 351.871094 625.667969 352.210938 625.234375 C 352.742188 624.550781 353.25 623.839844 353.714844 623.109375 C 354.25 622.28125 354.734375 621.421875 355.171875 620.539062 C 355.191406 620.492188 355.222656 620.441406 355.246094 620.390625 L 355.292969 620.296875 C 355.664062 619.53125 356 618.746094 356.304688 617.941406 C 357.484375 614.804688 358.074219 611.558594 358.066406 608.203125 C 358.070312 607.253906 358.023438 606.308594 357.925781 605.363281 Z M 432.445312 713.402344 C 432.351562 712.460938 432.207031 711.53125 432.015625 710.605469 C 431.824219 709.679688 431.585938 708.769531 431.300781 707.867188 C 431.015625 706.96875 430.683594 706.085938 430.308594 705.21875 C 429.933594 704.351562 429.515625 703.507812 429.054688 702.683594 C 428.589844 701.859375 428.089844 701.0625 427.546875 700.289062 C 427 699.515625 426.421875 698.773438 425.800781 698.0625 C 425.179688 697.351562 424.527344 696.671875 423.835938 696.023438 C 423.148438 695.378906 422.429688 694.769531 421.675781 694.199219 C 420.925781 693.628906 420.148438 693.09375 419.339844 692.601562 C 418.535156 692.109375 417.707031 691.660156 416.855469 691.253906 C 416.003906 690.847656 415.132812 690.484375 414.242188 690.164062 C 413.355469 689.847656 412.453125 689.574219 411.535156 689.347656 C 410.617188 689.121094 409.691406 688.945312 408.757812 688.8125 C 407.820312 688.679688 406.882812 688.597656 405.9375 688.5625 C 404.996094 688.527344 404.050781 688.542969 403.109375 688.601562 C 402.167969 688.664062 401.230469 688.773438 400.300781 688.929688 C 399.371094 689.089844 398.449219 689.292969 397.539062 689.542969 C 396.628906 689.796875 395.734375 690.09375 394.855469 690.4375 C 393.972656 690.777344 393.113281 691.164062 392.273438 691.597656 C 391.433594 692.027344 390.617188 692.5 389.828125 693.015625 C 389.035156 693.53125 388.269531 694.082031 387.535156 694.675781 C 386.800781 695.269531 386.097656 695.898438 385.425781 696.5625 C 384.757812 697.226562 384.121094 697.925781 383.523438 698.652344 C 382.921875 699.382812 382.363281 700.140625 381.839844 700.929688 C 381.320312 701.714844 380.839844 702.527344 380.398438 703.363281 C 379.960938 704.199219 379.566406 705.054688 379.214844 705.933594 C 378.863281 706.808594 378.558594 707.703125 378.300781 708.609375 C 378.039062 709.515625 377.828125 710.4375 377.660156 711.367188 C 377.496094 712.296875 377.378906 713.230469 377.308594 714.171875 C 377.238281 715.113281 377.214844 716.058594 377.242188 717 C 377.269531 717.945312 377.34375 718.882812 377.464844 719.820312 C 377.589844 720.757812 377.757812 721.683594 377.976562 722.601562 C 386.84375 723.273438 395.859375 723.648438 404.914062 723.648438 C 414.003906 723.648438 422.984375 723.273438 431.851562 722.601562 C 432.347656 720.507812 432.597656 718.386719 432.597656 716.230469 C 432.597656 715.300781 432.523438 714.332031 432.445312 713.402344 Z M 446.773438 416.917969 C 450.300781 416.917969 453.160156 415.203125 453.160156 413.089844 C 453.160156 410.976562 450.300781 409.265625 446.773438 409.265625 C 443.246094 409.265625 440.386719 410.976562 440.386719 413.089844 C 440.386719 415.203125 443.246094 416.917969 446.773438 416.917969 Z M 365.773438 359.097656 C 369.300781 359.097656 372.160156 357.382812 372.160156 355.269531 C 372.160156 353.160156 369.300781 351.445312 365.773438 351.445312 C 362.246094 351.445312 359.386719 353.160156 359.386719 355.269531 C 359.386719 357.382812 362.246094 359.097656 365.773438 359.097656 Z M 421.464844 394.507812 C 424.992188 394.507812 427.851562 392.792969 427.851562 390.679688 C 427.851562 388.566406 424.992188 386.855469 421.464844 386.855469 C 417.9375 386.855469 415.078125 388.566406 415.078125 390.679688 C 415.078125 392.792969 417.9375 394.507812 421.464844 394.507812 Z M 377.230469 311.332031 C 380.757812 311.332031 383.617188 309.617188 383.617188 307.503906 C 383.617188 305.394531 380.757812 303.679688 377.230469 303.679688 C 373.703125 303.679688 370.847656 305.394531 370.847656 307.503906 C 370.847656 309.617188 373.703125 311.332031 377.230469 311.332031 Z M 525.824219 329.828125 C 529.351562 329.828125 532.210938 328.117188 532.210938 326.003906 C 532.210938 323.890625 529.351562 322.179688 525.824219 322.179688 C 522.300781 322.179688 519.441406 323.890625 519.441406 326.003906 C 519.441406 328.117188 522.300781 329.828125 525.824219 329.828125 Z M 525.824219 372.117188 C 529.351562 372.117188 532.210938 370.40625 532.210938 368.292969 C 532.210938 366.179688 529.351562 364.46875 525.824219 364.46875 C 522.300781 364.46875 519.441406 366.179688 519.441406 368.292969 C 519.441406 370.40625 522.300781 372.117188 525.824219 372.117188 Z M 559.945312 307.503906 C 563.472656 307.503906 566.332031 305.792969 566.332031 303.679688 C 566.332031 301.566406 563.472656 299.855469 559.945312 299.855469 C 556.421875 299.855469 553.5625 301.566406 553.5625 303.679688 C 553.5625 305.792969 556.421875 307.503906 559.945312 307.503906 Z M 559.945312 307.503906 " fill-opacity="1" fill-rule="nonzero"/><path fill="#242156" d="M 496.941406 431.25 L 494.183594 457.21875 C 490.84375 458.347656 487.46875 459.355469 484.054688 460.238281 C 480.640625 461.121094 477.203125 461.878906 473.734375 462.507812 C 470.265625 463.136719 466.777344 463.640625 463.269531 464.011719 C 459.765625 464.386719 456.25 464.628906 452.726562 464.742188 C 449.203125 464.855469 445.679688 464.839844 442.160156 464.695312 C 438.636719 464.550781 435.125 464.277344 431.621094 463.871094 C 428.117188 463.46875 424.636719 462.9375 421.171875 462.277344 C 417.710938 461.617188 414.277344 460.832031 410.871094 459.917969 C 407.464844 459.003906 404.097656 457.96875 400.769531 456.804688 C 397.441406 455.644531 394.160156 454.363281 390.925781 452.960938 C 387.691406 451.558594 384.511719 450.039062 381.390625 448.402344 C 378.265625 446.765625 375.210938 445.015625 372.214844 443.15625 C 369.222656 441.292969 366.300781 439.324219 363.453125 437.246094 C 360.601562 435.171875 357.835938 432.992188 355.144531 430.710938 C 352.457031 428.429688 349.855469 426.054688 347.34375 423.582031 C 344.828125 421.109375 342.410156 418.550781 340.085938 415.898438 C 342.789062 418.085938 345.570312 420.171875 348.429688 422.15625 C 351.285156 424.136719 354.210938 426.015625 357.203125 427.785156 C 360.195312 429.558594 363.25 431.21875 366.363281 432.765625 C 369.480469 434.316406 372.644531 435.746094 375.863281 437.066406 C 379.082031 438.382812 382.34375 439.582031 385.652344 440.664062 C 388.957031 441.746094 392.296875 442.703125 395.675781 443.539062 C 399.050781 444.378906 402.453125 445.089844 405.878906 445.679688 C 409.308594 446.269531 412.75 446.734375 416.214844 447.074219 C 419.675781 447.410156 423.144531 447.625 426.621094 447.710938 C 430.097656 447.796875 433.574219 447.757812 437.046875 447.589844 C 440.523438 447.421875 443.984375 447.128906 447.4375 446.710938 C 450.890625 446.292969 454.324219 445.746094 457.738281 445.078125 C 461.148438 444.410156 464.535156 443.617188 467.890625 442.703125 C 471.246094 441.785156 474.5625 440.75 477.84375 439.59375 C 481.121094 438.4375 484.355469 437.160156 487.542969 435.769531 C 490.730469 434.375 493.863281 432.871094 496.941406 431.25 Z M 405.695312 114.671875 C 333.601562 114.671875 272.835938 161.394531 254.167969 225.214844 C 252.894531 224.960938 251.613281 224.742188 250.324219 224.558594 C 249.039062 224.378906 247.746094 224.230469 246.449219 224.117188 C 245.15625 224.007812 243.859375 223.929688 242.558594 223.890625 C 241.257812 223.851562 239.957031 223.847656 238.65625 223.878906 C 237.359375 223.910156 236.058594 223.976562 234.761719 224.078125 C 233.46875 224.183594 232.175781 224.320312 230.886719 224.496094 C 229.597656 224.667969 228.316406 224.878906 227.039062 225.121094 C 225.761719 225.367188 224.492188 225.648438 223.230469 225.960938 C 221.96875 226.277344 220.714844 226.625 219.472656 227.011719 C 218.230469 227.394531 217 227.8125 215.78125 228.261719 C 214.558594 228.714844 213.355469 229.199219 212.160156 229.71875 C 210.96875 230.234375 209.792969 230.785156 208.628906 231.367188 C 207.464844 231.953125 206.320312 232.566406 205.191406 233.210938 C 204.0625 233.859375 202.953125 234.535156 201.863281 235.242188 C 200.769531 235.949219 199.699219 236.6875 198.648438 237.453125 C 197.597656 238.21875 196.570312 239.011719 195.5625 239.835938 C 194.554688 240.660156 193.574219 241.507812 192.613281 242.386719 C 191.652344 243.261719 190.71875 244.164062 189.808594 245.09375 C 188.894531 246.023438 188.011719 246.976562 187.15625 247.953125 C 186.296875 248.929688 185.464844 249.929688 184.664062 250.953125 C 183.859375 251.976562 183.085938 253.019531 182.339844 254.085938 C 181.597656 255.152344 180.882812 256.238281 180.195312 257.34375 C 179.511719 258.449219 178.855469 259.570312 178.234375 260.710938 C 177.609375 261.855469 177.015625 263.011719 176.457031 264.183594 C 175.898438 265.359375 175.371094 266.546875 174.875 267.75 C 174.382812 268.953125 173.921875 270.167969 173.496094 271.394531 C 173.066406 272.625 172.675781 273.863281 172.316406 275.113281 C 171.957031 276.363281 171.632812 277.621094 171.34375 278.890625 C 171.050781 280.15625 170.796875 281.433594 170.578125 282.714844 C 170.359375 283.996094 170.175781 285.28125 170.027344 286.574219 C 169.878906 287.867188 169.765625 289.160156 169.6875 290.460938 C 169.609375 291.757812 169.570312 293.058594 169.5625 294.355469 C 169.558594 295.65625 169.589844 296.957031 169.65625 298.257812 C 169.71875 299.554688 169.820312 300.851562 169.960938 302.144531 C 170.097656 303.4375 170.269531 304.726562 170.476562 306.007812 C 170.6875 307.292969 170.929688 308.570312 171.210938 309.839844 C 171.488281 311.109375 171.800781 312.371094 172.148438 313.625 C 172.496094 314.875 172.878906 316.121094 173.296875 317.351562 C 173.714844 318.582031 174.164062 319.800781 174.648438 321.007812 C 175.132812 322.214844 175.648438 323.410156 176.199219 324.585938 C 176.75 325.765625 177.328125 326.929688 177.945312 328.074219 C 178.558594 329.222656 179.203125 330.351562 179.878906 331.460938 C 180.554688 332.574219 181.257812 333.664062 181.996094 334.734375 C 182.730469 335.808594 183.496094 336.859375 184.289062 337.890625 C 185.085938 338.917969 185.90625 339.925781 186.753906 340.910156 C 187.605469 341.894531 188.480469 342.855469 189.382812 343.792969 C 190.285156 344.730469 191.214844 345.640625 192.164062 346.523438 C 193.117188 347.410156 194.09375 348.269531 195.09375 349.101562 C 196.09375 349.929688 197.117188 350.734375 198.160156 351.511719 C 199.203125 352.285156 200.269531 353.03125 201.355469 353.746094 C 202.4375 354.464844 203.542969 355.148438 204.667969 355.804688 C 205.789062 356.460938 206.929688 357.085938 208.085938 357.679688 C 209.246094 358.273438 210.417969 358.832031 211.605469 359.359375 C 212.792969 359.886719 213.996094 360.382812 215.210938 360.847656 C 216.425781 361.308594 217.652344 361.734375 218.894531 362.128906 C 220.132812 362.523438 221.382812 362.882812 222.640625 363.210938 C 223.898438 363.535156 225.167969 363.828125 226.441406 364.082031 C 227.714844 364.339844 228.996094 364.558594 230.285156 364.742188 C 231.570312 364.929688 232.863281 365.078125 234.160156 365.191406 C 235.453125 365.308594 236.75 365.386719 238.050781 365.425781 C 239.351562 365.46875 240.652344 365.476562 241.949219 365.449219 C 243.25 365.417969 244.550781 365.355469 245.84375 365.253906 C 247.140625 365.152344 248.433594 365.015625 249.722656 364.84375 C 251.011719 364.671875 252.296875 364.464844 253.574219 364.222656 C 252.558594 362.300781 251.679688 360.316406 250.933594 358.273438 C 250.1875 356.230469 249.582031 354.144531 249.121094 352.019531 C 248.65625 349.894531 248.339844 347.75 248.171875 345.582031 C 248 343.414062 247.976562 341.242188 248.101562 339.070312 C 248.226562 336.898438 248.496094 334.746094 248.910156 332.613281 C 249.328125 330.476562 249.886719 328.382812 250.589844 326.324219 C 251.292969 324.265625 252.128906 322.261719 253.101562 320.316406 C 254.078125 318.371094 255.175781 316.503906 256.40625 314.707031 C 259.074219 310.832031 262.242188 307.417969 265.90625 304.460938 C 266.390625 304.050781 266.875 303.679688 267.394531 303.308594 C 269.316406 301.867188 271.34375 300.585938 273.46875 299.46875 C 274.066406 299.132812 274.699219 298.835938 275.292969 298.539062 C 277.339844 297.546875 279.449219 296.726562 281.628906 296.078125 C 282.101562 295.894531 282.585938 295.746094 283.082031 295.632812 C 284.429688 295.234375 285.796875 294.910156 287.179688 294.664062 C 287.703125 294.550781 288.222656 294.476562 288.746094 294.402344 C 291.140625 294.027344 293.546875 293.839844 295.972656 293.84375 C 296.792969 293.84375 297.613281 293.878906 298.433594 293.917969 C 299.214844 293.957031 300.035156 293.992188 300.777344 294.105469 C 302.457031 294.253906 304.058594 294.515625 305.660156 294.8125 C 307.1875 295.148438 308.640625 295.519531 310.09375 295.96875 C 310.429688 296.078125 310.765625 296.191406 311.097656 296.300781 C 311.402344 296.386719 311.699219 296.484375 311.992188 296.601562 C 313.261719 297.046875 314.488281 297.53125 315.683594 298.089844 C 316.761719 298.574219 317.804688 299.097656 318.8125 299.617188 C 319.050781 299.769531 319.300781 299.90625 319.558594 300.027344 C 320.375 300.511719 321.160156 300.996094 321.941406 301.519531 C 323.25 302.335938 324.503906 303.230469 325.703125 304.199219 C 325.59375 285.050781 325.628906 267.277344 325.628906 267.277344 C 335.804688 263.875 345.773438 259.953125 355.539062 255.515625 C 365.304688 251.078125 374.816406 246.144531 384.070312 240.722656 C 393.328125 235.296875 402.277344 229.410156 410.921875 223.058594 C 419.566406 216.707031 427.859375 209.921875 435.800781 202.710938 C 447.535156 192.054688 458.714844 179.984375 464.859375 165.527344 C 470.226562 166.875 475.492188 168.527344 480.667969 170.484375 C 485.839844 172.441406 490.882812 174.6875 495.796875 177.226562 C 500.707031 179.765625 505.457031 182.582031 510.046875 185.671875 C 514.632812 188.757812 519.027344 192.101562 523.230469 195.699219 C 527.429688 199.296875 531.410156 203.125 535.167969 207.179688 C 538.925781 211.238281 542.4375 215.496094 545.707031 219.960938 C 548.972656 224.425781 551.96875 229.0625 554.699219 233.871094 C 557.429688 238.679688 559.871094 243.632812 562.027344 248.722656 C 552.9375 173.242188 486.433594 114.671875 405.695312 114.671875 Z M 422.53125 287.296875 C 426.648438 287.296875 429.984375 282.292969 429.984375 276.121094 C 429.984375 269.945312 426.648438 264.941406 422.53125 264.941406 C 418.414062 264.941406 415.078125 269.945312 415.078125 276.121094 C 415.078125 282.292969 418.414062 287.296875 422.53125 287.296875 Z M 519.402344 285.433594 C 523.515625 285.433594 526.851562 280.429688 526.851562 274.257812 C 526.851562 268.082031 523.515625 263.078125 519.402344 263.078125 C 515.285156 263.078125 511.949219 268.082031 511.949219 274.257812 C 511.949219 280.429688 515.285156 285.433594 519.402344 285.433594 Z M 483.847656 284.15625 C 483.203125 278.511719 481.539062 273.183594 478.851562 268.171875 L 475.425781 261.988281 C 474.527344 260.421875 472.984375 262.027344 473.453125 264.039062 L 476.703125 277.933594 C 476.992188 279.175781 477.195312 280.429688 477.308594 281.699219 L 482.613281 342.3125 C 482.816406 344.632812 481.734375 346.710938 480.324219 346.710938 L 465.902344 346.710938 C 463.617188 346.710938 462.496094 351.40625 464.175781 354.015625 L 471.726562 365.675781 C 473.96875 369.179688 477.464844 369.179688 479.703125 365.675781 L 489.191406 350.996094 C 490.097656 349.417969 490.722656 347.734375 491.058594 345.945312 C 491.398438 344.160156 491.433594 342.363281 491.164062 340.566406 Z M 293.738281 310.648438 C 292.953125 310.632812 292.167969 310.65625 291.386719 310.714844 C 290.605469 310.773438 289.824219 310.863281 289.050781 310.988281 C 288.277344 311.117188 287.507812 311.273438 286.75 311.46875 C 285.988281 311.664062 285.238281 311.890625 284.496094 312.152344 C 283.757812 312.410156 283.03125 312.703125 282.316406 313.027344 C 281.601562 313.351562 280.902344 313.707031 280.21875 314.09375 C 279.535156 314.480469 278.871094 314.898438 278.226562 315.34375 C 277.578125 315.785156 276.953125 316.261719 276.347656 316.761719 C 275.746094 317.261719 275.164062 317.785156 274.605469 318.339844 C 274.046875 318.890625 273.515625 319.464844 273.007812 320.066406 C 272.5 320.664062 272.019531 321.285156 271.570312 321.925781 C 271.117188 322.566406 270.695312 323.226562 270.300781 323.90625 C 269.90625 324.585938 269.542969 325.277344 269.210938 325.988281 C 268.878906 326.699219 268.578125 327.425781 268.308594 328.164062 C 268.039062 328.898438 267.804688 329.648438 267.601562 330.40625 C 267.402344 331.164062 267.234375 331.929688 267.097656 332.703125 C 271.023438 329.164062 275.257812 326.046875 279.804688 323.351562 C 287.929688 318.398438 296.6875 315.121094 306.070312 313.515625 C 302.183594 311.597656 298.070312 310.640625 293.738281 310.648438 Z M 293.738281 310.648438 " fill-opacity="1" fill-rule="nonzero"/></svg>