<svg xmlns="http://www.w3.org/2000/svg" xmlns:xlink="http://www.w3.org/1999/xlink" width="1080" zoomAndPan="magnify" viewBox="0 0 810 809.999993" height="1080" preserveAspectRatio="xMidYMid meet" version="1.0"><defs><clipPath id="f1b52d9323"><path d="M 68 59.972656 L 742 59.972656 L 742 734 L 68 734 Z M 68 59.972656 " clip-rule="nonzero"/></clipPath></defs><g clip-path="url(#f1b52d9323)"><path fill="#cb6ce6" d="M 741.738281 396.710938 C 741.738281 402.222656 741.605469 407.730469 741.332031 413.234375 C 741.0625 418.738281 740.65625 424.234375 740.117188 429.71875 C 739.578125 435.203125 738.902344 440.671875 738.09375 446.121094 C 737.285156 451.574219 736.34375 457 735.269531 462.40625 C 734.195312 467.8125 732.988281 473.1875 731.648438 478.53125 C 730.308594 483.878906 728.839844 489.1875 727.238281 494.460938 C 725.640625 499.734375 723.910156 504.96875 722.054688 510.15625 C 720.199219 515.34375 718.214844 520.484375 716.105469 525.578125 C 713.996094 530.667969 711.765625 535.703125 709.410156 540.6875 C 707.050781 545.667969 704.574219 550.589844 701.976562 555.449219 C 699.378906 560.308594 696.664062 565.105469 693.832031 569.832031 C 690.996094 574.558594 688.050781 579.210938 684.988281 583.792969 C 681.925781 588.375 678.753906 592.878906 675.472656 597.308594 C 672.1875 601.734375 668.800781 606.078125 665.304688 610.335938 C 661.808594 614.597656 658.207031 618.769531 654.507812 622.851562 C 650.804688 626.9375 647.007812 630.925781 643.109375 634.824219 C 639.214844 638.71875 635.222656 642.519531 631.140625 646.21875 C 627.058594 649.921875 622.886719 653.519531 618.625 657.015625 C 614.363281 660.511719 610.023438 663.902344 605.59375 667.183594 C 601.167969 670.464844 596.664062 673.640625 592.082031 676.699219 C 587.5 679.761719 582.84375 682.710938 578.117188 685.542969 C 573.390625 688.375 568.597656 691.089844 563.738281 693.691406 C 558.878906 696.289062 553.957031 698.765625 548.972656 701.121094 C 543.992188 703.476562 538.957031 705.710938 533.863281 707.820312 C 528.773438 709.925781 523.632812 711.910156 518.445312 713.765625 C 513.253906 715.625 508.023438 717.351562 502.75 718.953125 C 497.476562 720.550781 492.167969 722.019531 486.820312 723.359375 C 481.476562 724.699219 476.097656 725.90625 470.695312 726.980469 C 465.289062 728.054688 459.859375 728.996094 454.410156 729.808594 C 448.957031 730.617188 443.492188 731.289062 438.007812 731.828125 C 432.523438 732.371094 427.027344 732.773438 421.523438 733.046875 C 416.019531 733.316406 410.511719 733.453125 405 733.453125 C 399.488281 733.453125 393.980469 733.316406 388.476562 733.046875 C 382.972656 732.773438 377.476562 732.371094 371.992188 731.828125 C 366.507812 731.289062 361.042969 730.617188 355.589844 729.804688 C 350.136719 728.996094 344.710938 728.054688 339.304688 726.980469 C 333.898438 725.90625 328.523438 724.699219 323.179688 723.359375 C 317.832031 722.019531 312.523438 720.550781 307.25 718.953125 C 301.976562 717.351562 296.746094 715.625 291.554688 713.765625 C 286.367188 711.910156 281.226562 709.925781 276.136719 707.820312 C 271.042969 705.710938 266.007812 703.476562 261.023438 701.121094 C 256.042969 698.765625 251.121094 696.289062 246.261719 693.691406 C 241.402344 691.089844 236.609375 688.375 231.882812 685.542969 C 227.152344 682.710938 222.5 679.761719 217.917969 676.699219 C 213.335938 673.636719 208.832031 670.464844 204.402344 667.183594 C 199.976562 663.902344 195.632812 660.511719 191.375 657.015625 C 187.113281 653.519531 182.941406 649.921875 178.859375 646.21875 C 174.777344 642.519531 170.785156 638.71875 166.890625 634.824219 C 162.992188 630.925781 159.191406 626.9375 155.492188 622.851562 C 151.792969 618.769531 148.191406 614.597656 144.695312 610.335938 C 141.199219 606.078125 137.8125 601.734375 134.527344 597.308594 C 131.246094 592.878906 128.074219 588.375 125.011719 583.792969 C 121.949219 579.210938 119 574.558594 116.167969 569.832031 C 113.335938 565.105469 110.621094 560.308594 108.023438 555.449219 C 105.425781 550.589844 102.945312 545.667969 100.589844 540.6875 C 98.234375 535.703125 96 530.667969 93.894531 525.578125 C 91.785156 520.484375 89.800781 515.34375 87.945312 510.15625 C 86.085938 504.96875 84.359375 499.734375 82.761719 494.460938 C 81.160156 489.1875 79.691406 483.878906 78.351562 478.53125 C 77.011719 473.1875 75.804688 467.8125 74.730469 462.40625 C 73.65625 457 72.714844 451.574219 71.90625 446.121094 C 71.097656 440.671875 70.421875 435.203125 69.882812 429.71875 C 69.339844 424.234375 68.9375 418.738281 68.664062 413.234375 C 68.394531 407.730469 68.261719 402.222656 68.261719 396.710938 C 68.261719 210.730469 219.019531 59.972656 405 59.972656 C 590.980469 59.972656 741.738281 210.730469 741.738281 396.710938 Z M 741.738281 396.710938 " fill-opacity="1" fill-rule="nonzero"/></g><path fill="#ed6e0f" d="M 299.761719 392.324219 C 259.714844 337.546875 262.417969 269.867188 262.417969 269.867188 C 262.417969 262.378906 270.347656 256.078125 271.515625 248.921875 C 272.585938 242.355469 266.808594 234.902344 268.789062 228.691406 C 270.828125 222.300781 281.691406 218.207031 284.613281 212.269531 C 288.035156 205.308594 283.671875 196.59375 288.191406 190.371094 C 292.234375 184.804688 300.871094 184.789062 305.695312 179.910156 C 310.484375 175.0625 311.453125 165.347656 316.925781 161.261719 C 322.570312 157.050781 330.644531 159.542969 336.917969 156.238281 C 341.625 153.757812 344.402344 145.273438 349.414062 143.355469 C 354.972656 141.226562 362.796875 145.726562 368.679688 144.339844 C 373.695312 143.152344 376.730469 135.972656 381.945312 135.363281 C 387.160156 134.753906 393.511719 141.757812 398.890625 141.757812 L 411.796875 134.4375 C 419.75 134.4375 424.402344 143.488281 431.976562 144.804688 C 438.207031 145.886719 447.425781 139.027344 453.332031 140.925781 C 459.546875 142.925781 461.378906 151.636719 467.164062 154.472656 C 474.035156 157.84375 485.8125 153.75 491.96875 158.191406 C 497.558594 162.222656 497.601562 174.699219 502.507812 179.515625 C 507.53125 184.453125 516.355469 183.5 520.5625 189.164062 C 524.777344 194.835938 521.242188 205.03125 524.539062 211.335938 C 527.898438 217.75 538.078125 220.285156 540.386719 227.253906 C 542.9375 234.957031 537.496094 244.011719 538.628906 252.257812 C 539.46875 258.355469 547.515625 263.542969 547.226562 269.867188 C 545.75 301.980469 539.476562 354.074219 509.890625 392.921875 Z M 678.113281 530.613281 C 675.242188 527.34375 672.121094 524.332031 668.75 521.578125 C 665.375 518.824219 661.800781 516.367188 658.023438 514.207031 C 654.242188 512.046875 650.3125 510.214844 646.226562 508.707031 C 642.144531 507.199219 637.964844 506.035156 633.691406 505.222656 L 573.746094 493.886719 L 571.402344 493.425781 L 537.1875 461.507812 C 535.65625 460.082031 534.039062 458.753906 532.339844 457.535156 C 530.640625 456.3125 528.871094 455.203125 527.027344 454.210938 C 525.1875 453.214844 523.289062 452.339844 521.335938 451.585938 C 519.382812 450.835938 517.386719 450.210938 515.355469 449.710938 C 513.320312 449.214844 511.265625 448.847656 509.183594 448.613281 C 507.105469 448.378906 505.019531 448.277344 502.925781 448.308594 C 500.832031 448.339844 498.75 448.503906 496.675781 448.800781 C 494.605469 449.101562 492.558594 449.527344 490.542969 450.089844 L 481.382812 452.640625 L 482.050781 453.9375 L 499.078125 486.355469 L 477.824219 531.113281 C 449.589844 590.640625 365.09375 591.101562 336.1875 531.910156 L 313.972656 486.355469 L 327.949219 455.234375 L 317.949219 453.058594 C 316.039062 452.644531 314.109375 452.34375 312.164062 452.160156 C 310.21875 451.972656 308.265625 451.90625 306.3125 451.953125 C 304.359375 452.003906 302.414062 452.167969 300.476562 452.449219 C 298.542969 452.730469 296.632812 453.125 294.746094 453.632812 C 292.855469 454.144531 291.007812 454.765625 289.195312 455.496094 C 287.378906 456.226562 285.617188 457.0625 283.902344 458.003906 C 282.191406 458.945312 280.539062 459.984375 278.949219 461.125 C 277.359375 462.261719 275.84375 463.492188 274.402344 464.8125 L 243.90625 492.671875 L 242.90625 492.882812 L 192.582031 503.964844 C 188.003906 504.976562 183.550781 506.382812 179.222656 508.1875 C 174.894531 509.996094 170.761719 512.171875 166.820312 514.71875 C 162.882812 517.261719 159.203125 520.136719 155.777344 523.34375 C 152.355469 526.546875 149.242188 530.03125 146.441406 533.792969 L 117.703125 572.445312 C 121.542969 578.71875 125.585938 584.863281 129.828125 590.875 C 134.070312 596.882812 138.507812 602.75 143.132812 608.46875 C 147.761719 614.191406 152.570312 619.753906 157.5625 625.15625 C 162.554688 630.5625 167.71875 635.796875 173.054688 640.867188 C 178.390625 645.933594 183.882812 650.820312 189.539062 655.523438 C 195.195312 660.230469 201 664.746094 206.949219 669.074219 C 212.902344 673.398438 218.988281 677.527344 225.210938 681.453125 C 231.429688 685.382812 237.773438 689.101562 244.238281 692.613281 C 250.707031 696.125 257.277344 699.421875 263.960938 702.5 C 270.640625 705.582031 277.417969 708.441406 284.285156 711.078125 C 291.15625 713.714844 298.101562 716.125 305.128906 718.304688 C 312.15625 720.488281 319.246094 722.4375 326.402344 724.152344 C 333.554688 725.871094 340.757812 727.351562 348.007812 728.59375 C 355.261719 729.839844 362.546875 730.847656 369.863281 731.613281 C 377.179688 732.382812 384.515625 732.910156 391.867188 733.195312 C 399.21875 733.480469 406.574219 733.527344 413.925781 733.332031 C 421.28125 733.136719 428.625 732.703125 435.949219 732.027344 C 443.277344 731.351562 450.574219 730.433594 457.839844 729.28125 C 465.105469 728.125 472.324219 726.734375 479.5 725.109375 C 486.675781 723.480469 493.789062 721.621094 500.84375 719.527344 C 507.898438 717.433594 514.875 715.109375 521.777344 712.558594 C 528.675781 710.007812 535.488281 707.234375 542.207031 704.238281 C 548.925781 701.238281 555.539062 698.023438 562.050781 694.59375 C 568.558594 691.164062 574.949219 687.523438 581.21875 683.675781 C 587.488281 679.824219 593.625 675.773438 599.628906 671.523438 C 605.636719 667.269531 611.492188 662.828125 617.207031 658.191406 C 622.921875 653.554688 628.476562 648.738281 633.875 643.738281 C 639.273438 638.738281 644.5 633.566406 649.558594 628.226562 C 654.617188 622.882812 659.496094 617.382812 664.195312 611.71875 C 668.894531 606.058594 673.402344 600.246094 677.71875 594.289062 C 682.039062 588.332031 686.15625 582.242188 690.074219 576.011719 C 693.992188 569.785156 697.703125 563.4375 701.207031 556.964844 Z M 678.113281 530.613281 " fill-opacity="1" fill-rule="nonzero"/><path fill="#ff9987" d="M 551.828125 378.640625 C 541.117188 400.433594 522.378906 413.109375 509.953125 407.042969 C 507.746094 405.960938 505.921875 404.429688 504.472656 402.441406 L 478.746094 447.664062 L 482.050781 453.9375 L 499.078125 486.355469 L 477.824219 531.113281 C 449.589844 590.640625 365.09375 591.101562 336.1875 531.910156 L 313.972656 486.355469 L 328.28125 454.523438 L 331.335938 447.789062 L 305.484375 402.359375 C 304.058594 404.390625 302.230469 405.953125 300.003906 407.042969 C 287.539062 413.109375 268.796875 400.433594 258.132812 378.640625 C 247.464844 356.847656 248.886719 334.257812 261.308594 328.152344 C 263.933594 326.886719 266.695312 326.398438 269.59375 326.6875 C 274.90625 347.308594 284.023438 370.820312 299.753906 392.320312 L 295.78125 385.332031 L 295.820312 385.332031 C 294.902344 383.710938 294.015625 382.070312 293.171875 380.410156 C 292.324219 378.746094 291.515625 377.066406 290.742188 375.371094 C 289.972656 373.671875 289.238281 371.957031 288.542969 370.226562 C 287.847656 368.496094 287.191406 366.75 286.574219 364.992188 C 285.957031 363.234375 285.378906 361.460938 284.839844 359.675781 C 284.304688 357.890625 283.804688 356.09375 283.347656 354.285156 C 282.890625 352.476562 282.472656 350.660156 282.09375 348.832031 C 281.71875 347.007812 281.382812 345.171875 281.085938 343.332031 C 280.792969 341.492188 280.539062 339.644531 280.324219 337.792969 C 280.113281 335.9375 279.941406 334.082031 279.8125 332.222656 C 279.679688 330.363281 279.59375 328.5 279.546875 326.636719 C 279.5 324.769531 279.496094 322.90625 279.53125 321.042969 C 279.566406 319.179688 279.644531 317.316406 279.765625 315.453125 C 279.882812 313.59375 280.046875 311.734375 280.246094 309.882812 C 280.449219 308.027344 280.695312 306.179688 280.980469 304.335938 C 281.261719 302.492188 281.589844 300.660156 281.957031 298.828125 C 282.324219 297 282.730469 295.183594 283.179688 293.371094 C 283.625 291.5625 284.113281 289.761719 284.644531 287.972656 C 285.171875 286.1875 285.738281 284.410156 286.347656 282.648438 C 286.953125 280.882812 287.601562 279.136719 288.285156 277.402344 C 288.972656 275.667969 289.695312 273.949219 290.457031 272.246094 C 291.21875 270.542969 292.019531 268.859375 292.859375 267.195312 C 293.695312 265.527344 294.570312 263.882812 295.480469 262.253906 C 296.390625 260.628906 297.335938 259.019531 298.320312 257.4375 C 299.300781 255.851562 300.320312 254.289062 301.371094 252.75 C 302.425781 251.210938 303.511719 249.695312 304.628906 248.203125 C 305.75 246.710938 306.902344 245.246094 308.085938 243.808594 C 309.273438 242.367188 310.488281 240.953125 311.738281 239.570312 C 312.988281 238.183594 314.265625 236.828125 315.574219 235.5 C 316.882812 234.171875 318.21875 232.871094 319.585938 231.601562 C 320.953125 230.335938 322.347656 229.097656 323.769531 227.890625 C 325.191406 226.683594 326.640625 225.511719 328.113281 224.367188 C 329.621094 230.433594 336.566406 234.03125 342.210938 230.808594 C 342.253906 230.769531 342.292969 230.769531 342.335938 230.726562 C 347.191406 227.839844 350.785156 223.03125 356.015625 220.855469 C 361.246094 218.679688 366.597656 222.027344 368.773438 227.253906 C 370.363281 231.101562 376.722656 231.730469 380.695312 229.472656 C 385.796875 226.542969 389.101562 220.9375 395.128906 219.597656 C 400.105469 218.46875 403.742188 221.816406 403.574219 226.921875 C 403.453125 232.105469 411.609375 234.40625 416.503906 231.773438 C 421.984375 228.761719 425.457031 222.695312 431.480469 220.519531 C 436.960938 218.511719 441.769531 223.363281 441.769531 229.21875 C 441.769531 232.566406 447.289062 234.742188 450.679688 232.859375 C 454.484375 230.769531 456.449219 226.375 459.671875 223.449219 C 460.085938 223.078125 460.539062 222.753906 461.023438 222.484375 C 461.511719 222.214844 462.023438 222 462.558594 221.84375 C 463.09375 221.6875 463.640625 221.59375 464.195312 221.5625 C 464.75 221.527344 465.304688 221.554688 465.855469 221.644531 C 466.402344 221.734375 466.9375 221.886719 467.453125 222.097656 C 467.96875 222.304688 468.457031 222.570312 468.914062 222.890625 C 469.371094 223.207031 469.785156 223.574219 470.160156 223.984375 C 470.535156 224.398438 470.859375 224.84375 471.132812 225.332031 C 471.433594 225.820312 471.765625 226.28125 472.140625 226.714844 C 472.511719 227.148438 472.917969 227.550781 473.355469 227.917969 C 473.796875 228.285156 474.261719 228.613281 474.753906 228.902344 C 475.246094 229.195312 475.757812 229.441406 476.292969 229.648438 C 476.824219 229.855469 477.371094 230.019531 477.933594 230.136719 C 478.492188 230.25 479.058594 230.320312 479.628906 230.347656 C 480.203125 230.371094 480.769531 230.347656 481.339844 230.277344 C 481.90625 230.207031 482.464844 230.09375 483.015625 229.933594 C 484.253906 229.527344 485.355469 228.882812 486.320312 228.007812 C 487.710938 229.1875 489.074219 230.402344 490.410156 231.640625 C 491.75 232.882812 493.058594 234.152344 494.34375 235.453125 C 495.625 236.75 496.878906 238.078125 498.101562 239.429688 C 499.328125 240.785156 500.519531 242.164062 501.683594 243.570312 C 502.847656 244.972656 503.980469 246.402344 505.082031 247.859375 C 506.183594 249.3125 507.253906 250.792969 508.292969 252.292969 C 509.328125 253.796875 510.332031 255.320312 511.304688 256.867188 C 512.273438 258.410156 513.210938 259.976562 514.113281 261.5625 C 515.015625 263.148438 515.882812 264.753906 516.714844 266.378906 C 517.542969 268.003906 518.339844 269.644531 519.101562 271.304688 C 519.863281 272.964844 520.585938 274.640625 521.273438 276.328125 C 521.960938 278.019531 522.609375 279.726562 523.222656 281.445312 C 523.835938 283.164062 524.410156 284.894531 524.945312 286.640625 C 525.484375 288.382812 525.980469 290.140625 526.441406 291.90625 C 526.902344 293.671875 527.324219 295.445312 527.707031 297.230469 C 528.089844 299.015625 528.433594 300.808594 528.738281 302.605469 C 529.042969 304.40625 529.304688 306.210938 529.53125 308.023438 C 529.757812 309.832031 529.941406 311.648438 530.089844 313.46875 C 530.234375 315.285156 530.34375 317.109375 530.410156 318.933594 C 530.476562 320.757812 530.503906 322.582031 530.488281 324.40625 C 530.476562 326.230469 530.421875 328.054688 530.332031 329.875 C 530.238281 331.699219 530.105469 333.519531 529.933594 335.335938 C 529.761719 337.152344 529.550781 338.964844 529.296875 340.773438 C 529.046875 342.582031 528.757812 344.382812 528.425781 346.175781 C 528.097656 347.972656 527.726562 349.757812 527.320312 351.539062 C 526.910156 353.316406 526.464844 355.085938 525.976562 356.84375 C 525.492188 358.605469 524.96875 360.351562 524.40625 362.089844 C 523.847656 363.824219 523.246094 365.546875 522.609375 367.257812 C 521.972656 368.96875 521.296875 370.664062 520.585938 372.34375 C 519.875 374.023438 519.128906 375.691406 518.34375 377.335938 C 517.5625 378.984375 516.742188 380.617188 515.886719 382.230469 C 515.03125 383.839844 514.140625 385.433594 513.21875 387.007812 L 513.257812 387.007812 L 509.914062 392.90625 C 525.179688 372.867188 534.257812 349.277344 539.613281 326.730469 C 542.75 326.3125 545.75 326.785156 548.605469 328.152344 C 561.070312 334.257812 562.492188 356.847656 551.828125 378.640625 Z M 551.828125 378.640625 " fill-opacity="1" fill-rule="nonzero"/><path fill="#b84f43" d="M 573.746094 493.886719 C 547.226562 524.214844 466.679688 608.585938 409.453125 620.507812 C 318.214844 596.972656 258.507812 510.074219 242.90625 492.882812 L 243.90625 492.671875 L 274.402344 464.8125 C 275.84375 463.492188 277.359375 462.261719 278.949219 461.125 C 280.539062 459.984375 282.191406 458.945312 283.902344 458.003906 C 285.617188 457.0625 287.378906 456.226562 289.191406 455.496094 C 291.007812 454.765625 292.855469 454.144531 294.746094 453.632812 C 296.632812 453.125 298.542969 452.730469 300.476562 452.449219 C 302.414062 452.167969 304.359375 452.003906 306.3125 451.953125 C 308.265625 451.90625 310.21875 451.972656 312.164062 452.160156 C 314.109375 452.34375 316.039062 452.644531 317.949219 453.058594 L 327.949219 455.234375 L 313.972656 486.355469 L 336.1875 531.910156 C 365.09375 591.101562 449.589844 590.640625 477.824219 531.113281 L 499.078125 486.355469 L 482.050781 453.9375 L 481.382812 452.640625 L 490.542969 450.089844 C 492.558594 449.527344 494.605469 449.101562 496.675781 448.800781 C 498.75 448.503906 500.832031 448.339844 502.925781 448.308594 C 505.019531 448.277344 507.105469 448.378906 509.183594 448.613281 C 511.265625 448.847656 513.320312 449.214844 515.355469 449.710938 C 517.386719 450.210938 519.382812 450.835938 521.335938 451.585938 C 523.289062 452.339844 525.1875 453.214844 527.027344 454.210938 C 528.867188 455.203125 530.640625 456.3125 532.339844 457.535156 C 534.039062 458.753906 535.65625 460.082031 537.1875 461.507812 L 571.402344 493.425781 Z M 371.648438 357.910156 C 371.996094 357.910156 372.328125 357.84375 372.648438 357.710938 C 372.96875 357.578125 373.253906 357.386719 373.496094 357.144531 C 373.742188 356.898438 373.929688 356.613281 374.0625 356.292969 C 374.195312 355.972656 374.261719 355.640625 374.261719 355.292969 C 374.261719 354.945312 374.195312 354.613281 374.0625 354.292969 C 373.929688 353.972656 373.742188 353.691406 373.496094 353.445312 C 373.253906 353.199219 372.96875 353.011719 372.648438 352.878906 C 372.328125 352.746094 371.996094 352.679688 371.648438 352.679688 C 371.300781 352.679688 370.96875 352.746094 370.648438 352.878906 C 370.328125 353.011719 370.046875 353.199219 369.800781 353.445312 C 369.554688 353.691406 369.367188 353.972656 369.234375 354.292969 C 369.101562 354.613281 369.035156 354.945312 369.035156 355.292969 C 369.035156 355.640625 369.101562 355.972656 369.234375 356.292969 C 369.367188 356.613281 369.554688 356.898438 369.800781 357.144531 C 370.046875 357.386719 370.328125 357.578125 370.648438 357.710938 C 370.96875 357.84375 371.300781 357.910156 371.648438 357.910156 Z M 363.28125 366.273438 C 363.628906 366.273438 363.960938 366.207031 364.28125 366.074219 C 364.601562 365.941406 364.886719 365.753906 365.132812 365.507812 C 365.375 365.265625 365.566406 364.980469 365.699219 364.660156 C 365.832031 364.339844 365.898438 364.007812 365.898438 363.660156 C 365.898438 363.3125 365.832031 362.980469 365.699219 362.660156 C 365.566406 362.339844 365.375 362.054688 365.132812 361.8125 C 364.886719 361.566406 364.601562 361.378906 364.28125 361.246094 C 363.960938 361.113281 363.628906 361.046875 363.28125 361.046875 C 362.9375 361.046875 362.601562 361.113281 362.28125 361.246094 C 361.960938 361.378906 361.679688 361.566406 361.433594 361.8125 C 361.1875 362.054688 361 362.339844 360.867188 362.660156 C 360.734375 362.980469 360.667969 363.3125 360.667969 363.660156 C 360.667969 364.007812 360.734375 364.339844 360.867188 364.660156 C 361 364.980469 361.1875 365.261719 361.433594 365.507812 C 361.679688 365.753906 361.960938 365.941406 362.28125 366.074219 C 362.601562 366.207031 362.9375 366.273438 363.28125 366.273438 Z M 354.238281 357.910156 C 354.582031 357.910156 354.917969 357.84375 355.238281 357.710938 C 355.558594 357.578125 355.839844 357.386719 356.085938 357.144531 C 356.332031 356.898438 356.519531 356.613281 356.652344 356.292969 C 356.785156 355.972656 356.851562 355.640625 356.851562 355.292969 C 356.851562 354.945312 356.785156 354.613281 356.652344 354.292969 C 356.519531 353.972656 356.332031 353.691406 356.085938 353.445312 C 355.839844 353.199219 355.558594 353.011719 355.238281 352.878906 C 354.917969 352.746094 354.582031 352.679688 354.238281 352.679688 C 353.890625 352.679688 353.554688 352.746094 353.234375 352.878906 C 352.914062 353.011719 352.632812 353.199219 352.386719 353.445312 C 352.144531 353.691406 351.953125 353.972656 351.820312 354.292969 C 351.6875 354.613281 351.621094 354.945312 351.621094 355.292969 C 351.621094 355.640625 351.6875 355.972656 351.820312 356.292969 C 351.953125 356.613281 352.144531 356.898438 352.386719 357.144531 C 352.632812 357.386719 352.914062 357.578125 353.234375 357.710938 C 353.554688 357.84375 353.890625 357.910156 354.238281 357.910156 Z M 349.007812 366.273438 C 349.355469 366.273438 349.6875 366.207031 350.007812 366.074219 C 350.328125 365.941406 350.609375 365.753906 350.855469 365.507812 C 351.101562 365.261719 351.289062 364.980469 351.421875 364.660156 C 351.554688 364.339844 351.621094 364.007812 351.621094 363.660156 C 351.621094 363.3125 351.554688 362.980469 351.421875 362.660156 C 351.289062 362.339844 351.101562 362.054688 350.855469 361.8125 C 350.609375 361.566406 350.328125 361.378906 350.007812 361.246094 C 349.6875 361.113281 349.355469 361.046875 349.007812 361.046875 C 348.660156 361.046875 348.328125 361.113281 348.007812 361.246094 C 347.6875 361.378906 347.402344 361.566406 347.160156 361.8125 C 346.914062 362.054688 346.726562 362.339844 346.59375 362.660156 C 346.460938 362.980469 346.394531 363.3125 346.394531 363.660156 C 346.394531 364.007812 346.460938 364.339844 346.59375 364.660156 C 346.726562 364.980469 346.914062 365.261719 347.160156 365.507812 C 347.402344 365.753906 347.6875 365.941406 348.007812 366.074219 C 348.328125 366.207031 348.660156 366.273438 349.007812 366.273438 Z M 333.84375 355.292969 C 334.191406 355.292969 334.523438 355.226562 334.84375 355.09375 C 335.164062 354.960938 335.449219 354.773438 335.691406 354.527344 C 335.9375 354.28125 336.125 354 336.257812 353.679688 C 336.390625 353.359375 336.457031 353.027344 336.457031 352.679688 C 336.457031 352.332031 336.390625 352 336.257812 351.679688 C 336.125 351.359375 335.9375 351.074219 335.691406 350.832031 C 335.449219 350.585938 335.164062 350.398438 334.84375 350.265625 C 334.523438 350.132812 334.191406 350.066406 333.84375 350.066406 C 333.496094 350.066406 333.164062 350.132812 332.84375 350.265625 C 332.523438 350.398438 332.242188 350.585938 331.996094 350.832031 C 331.75 351.074219 331.5625 351.359375 331.429688 351.679688 C 331.296875 352 331.230469 352.332031 331.230469 352.679688 C 331.230469 353.027344 331.296875 353.359375 331.429688 353.679688 C 331.5625 354 331.75 354.28125 331.996094 354.527344 C 332.242188 354.773438 332.523438 354.960938 332.84375 355.09375 C 333.164062 355.226562 333.496094 355.292969 333.84375 355.292969 Z M 316.589844 346.929688 C 316.933594 346.925781 317.269531 346.863281 317.589844 346.730469 C 317.910156 346.597656 318.191406 346.40625 318.4375 346.160156 C 318.683594 345.917969 318.871094 345.632812 319.003906 345.3125 C 319.136719 344.992188 319.203125 344.660156 319.203125 344.3125 C 319.203125 343.964844 319.136719 343.632812 319.003906 343.3125 C 318.871094 342.992188 318.683594 342.710938 318.4375 342.464844 C 318.191406 342.21875 317.910156 342.03125 317.589844 341.898438 C 317.269531 341.765625 316.933594 341.699219 316.589844 341.699219 C 316.242188 341.699219 315.910156 341.765625 315.589844 341.898438 C 315.269531 342.03125 314.984375 342.21875 314.738281 342.464844 C 314.496094 342.710938 314.304688 342.992188 314.171875 343.3125 C 314.039062 343.632812 313.972656 343.964844 313.972656 344.3125 C 313.972656 344.660156 314.039062 344.992188 314.171875 345.3125 C 314.304688 345.632812 314.496094 345.917969 314.738281 346.160156 C 314.984375 346.40625 315.269531 346.597656 315.589844 346.730469 C 315.910156 346.863281 316.242188 346.925781 316.589844 346.929688 Z M 319.203125 376.730469 C 319.550781 376.730469 319.882812 376.664062 320.203125 376.535156 C 320.523438 376.402344 320.808594 376.210938 321.050781 375.964844 C 321.296875 375.722656 321.484375 375.4375 321.617188 375.117188 C 321.75 374.796875 321.816406 374.464844 321.816406 374.117188 C 321.816406 373.769531 321.75 373.4375 321.617188 373.117188 C 321.484375 372.796875 321.296875 372.515625 321.050781 372.269531 C 320.808594 372.023438 320.523438 371.835938 320.203125 371.703125 C 319.882812 371.570312 319.550781 371.503906 319.203125 371.503906 C 318.855469 371.503906 318.523438 371.570312 318.203125 371.703125 C 317.882812 371.835938 317.601562 372.023438 317.355469 372.269531 C 317.109375 372.515625 316.921875 372.796875 316.789062 373.117188 C 316.65625 373.4375 316.589844 373.769531 316.589844 374.117188 C 316.589844 374.464844 316.65625 374.796875 316.789062 375.117188 C 316.921875 375.4375 317.109375 375.722656 317.355469 375.964844 C 317.601562 376.210938 317.882812 376.402344 318.203125 376.535156 C 318.523438 376.664062 318.855469 376.730469 319.203125 376.730469 Z M 313.972656 361.402344 C 314.320312 361.402344 314.65625 361.335938 314.976562 361.203125 C 315.296875 361.070312 315.578125 360.878906 315.824219 360.636719 C 316.066406 360.390625 316.257812 360.109375 316.390625 359.789062 C 316.523438 359.46875 316.589844 359.132812 316.589844 358.785156 C 316.589844 358.441406 316.523438 358.105469 316.390625 357.785156 C 316.257812 357.464844 316.066406 357.183594 315.824219 356.9375 C 315.578125 356.691406 315.296875 356.503906 314.976562 356.371094 C 314.65625 356.238281 314.320312 356.171875 313.972656 356.171875 C 313.628906 356.171875 313.292969 356.238281 312.972656 356.371094 C 312.652344 356.503906 312.371094 356.691406 312.125 356.9375 C 311.878906 357.183594 311.691406 357.464844 311.558594 357.785156 C 311.425781 358.105469 311.359375 358.441406 311.359375 358.785156 C 311.359375 359.132812 311.425781 359.46875 311.558594 359.789062 C 311.691406 360.109375 311.878906 360.390625 312.125 360.636719 C 312.371094 360.878906 312.652344 361.070312 312.972656 361.203125 C 313.292969 361.335938 313.628906 361.402344 313.972656 361.402344 Z M 331.230469 368.890625 C 331.578125 368.890625 331.910156 368.824219 332.230469 368.691406 C 332.550781 368.558594 332.832031 368.367188 333.078125 368.125 C 333.324219 367.878906 333.511719 367.59375 333.644531 367.273438 C 333.777344 366.953125 333.84375 366.621094 333.84375 366.273438 C 333.84375 365.929688 333.777344 365.59375 333.644531 365.273438 C 333.511719 364.953125 333.324219 364.671875 333.078125 364.425781 C 332.832031 364.179688 332.550781 363.992188 332.230469 363.859375 C 331.910156 363.726562 331.578125 363.660156 331.230469 363.660156 C 330.882812 363.660156 330.550781 363.726562 330.230469 363.859375 C 329.910156 363.992188 329.625 364.179688 329.382812 364.425781 C 329.136719 364.671875 328.945312 364.953125 328.8125 365.273438 C 328.679688 365.59375 328.613281 365.929688 328.613281 366.273438 C 328.613281 366.621094 328.679688 366.953125 328.8125 367.273438 C 328.945312 367.59375 329.136719 367.878906 329.382812 368.125 C 329.625 368.367188 329.910156 368.558594 330.230469 368.691406 C 330.550781 368.824219 330.882812 368.890625 331.230469 368.890625 Z M 343.257812 376.730469 C 343.601562 376.730469 343.9375 376.667969 344.257812 376.535156 C 344.578125 376.402344 344.859375 376.210938 345.105469 375.964844 C 345.351562 375.722656 345.539062 375.4375 345.671875 375.117188 C 345.804688 374.796875 345.871094 374.464844 345.871094 374.117188 C 345.871094 373.769531 345.804688 373.4375 345.671875 373.117188 C 345.539062 372.796875 345.351562 372.515625 345.105469 372.269531 C 344.859375 372.023438 344.578125 371.835938 344.257812 371.703125 C 343.9375 371.570312 343.601562 371.503906 343.257812 371.503906 C 342.910156 371.503906 342.574219 371.570312 342.253906 371.703125 C 341.933594 371.835938 341.652344 372.023438 341.40625 372.269531 C 341.164062 372.515625 340.972656 372.796875 340.839844 373.117188 C 340.707031 373.4375 340.640625 373.769531 340.640625 374.117188 C 340.640625 374.464844 340.707031 374.796875 340.839844 375.117188 C 340.972656 375.4375 341.164062 375.722656 341.40625 375.964844 C 341.652344 376.210938 341.933594 376.402344 342.253906 376.535156 C 342.574219 376.664062 342.910156 376.730469 343.257812 376.730469 Z M 356.851562 374.117188 C 357.199219 374.117188 357.53125 374.050781 357.851562 373.917969 C 358.171875 373.785156 358.453125 373.597656 358.699219 373.351562 C 358.945312 373.105469 359.132812 372.824219 359.265625 372.503906 C 359.398438 372.183594 359.464844 371.851562 359.464844 371.503906 C 359.464844 371.15625 359.398438 370.824219 359.265625 370.503906 C 359.132812 370.183594 358.945312 369.898438 358.699219 369.65625 C 358.453125 369.410156 358.171875 369.222656 357.851562 369.089844 C 357.53125 368.957031 357.199219 368.890625 356.851562 368.890625 C 356.503906 368.890625 356.171875 368.957031 355.851562 369.089844 C 355.53125 369.222656 355.246094 369.410156 355.003906 369.65625 C 354.757812 369.898438 354.566406 370.183594 354.4375 370.503906 C 354.304688 370.824219 354.238281 371.15625 354.238281 371.503906 C 354.238281 371.851562 354.304688 372.183594 354.4375 372.503906 C 354.570312 372.824219 354.757812 373.105469 355.003906 373.351562 C 355.246094 373.597656 355.53125 373.785156 355.851562 373.917969 C 356.171875 374.050781 356.503906 374.117188 356.851562 374.117188 Z M 374.261719 371.503906 C 374.609375 371.503906 374.941406 371.4375 375.261719 371.304688 C 375.582031 371.171875 375.867188 370.984375 376.113281 370.738281 C 376.355469 370.492188 376.546875 370.210938 376.679688 369.890625 C 376.8125 369.570312 376.878906 369.234375 376.878906 368.890625 C 376.878906 368.542969 376.8125 368.207031 376.679688 367.886719 C 376.546875 367.566406 376.355469 367.285156 376.113281 367.039062 C 375.867188 366.796875 375.582031 366.605469 375.261719 366.472656 C 374.941406 366.339844 374.609375 366.273438 374.261719 366.273438 C 373.917969 366.273438 373.582031 366.339844 373.261719 366.472656 C 372.941406 366.605469 372.660156 366.796875 372.414062 367.039062 C 372.167969 367.285156 371.980469 367.566406 371.847656 367.886719 C 371.714844 368.207031 371.648438 368.542969 371.648438 368.890625 C 371.648438 369.234375 371.714844 369.570312 371.847656 369.890625 C 371.980469 370.210938 372.167969 370.492188 372.414062 370.738281 C 372.660156 370.984375 372.941406 371.171875 373.261719 371.304688 C 373.582031 371.4375 373.917969 371.503906 374.261719 371.503906 Z M 441.078125 355.292969 C 441.425781 355.292969 441.757812 355.226562 442.078125 355.09375 C 442.398438 354.960938 442.683594 354.773438 442.925781 354.527344 C 443.171875 354.28125 443.363281 354 443.496094 353.679688 C 443.628906 353.359375 443.691406 353.027344 443.691406 352.679688 C 443.691406 352.332031 443.628906 352 443.496094 351.679688 C 443.363281 351.359375 443.171875 351.074219 442.925781 350.832031 C 442.683594 350.585938 442.398438 350.398438 442.078125 350.265625 C 441.757812 350.132812 441.425781 350.066406 441.078125 350.066406 C 440.730469 350.066406 440.398438 350.132812 440.078125 350.265625 C 439.757812 350.398438 439.476562 350.585938 439.230469 350.832031 C 438.984375 351.074219 438.796875 351.359375 438.664062 351.679688 C 438.53125 352 438.464844 352.332031 438.464844 352.679688 C 438.464844 353.027344 438.53125 353.359375 438.664062 353.679688 C 438.796875 354 438.984375 354.28125 439.230469 354.527344 C 439.476562 354.773438 439.757812 354.960938 440.078125 355.09375 C 440.398438 355.226562 440.730469 355.292969 441.078125 355.292969 Z M 435.851562 363.660156 C 436.195312 363.660156 436.53125 363.59375 436.851562 363.460938 C 437.171875 363.328125 437.453125 363.140625 437.699219 362.894531 C 437.945312 362.648438 438.132812 362.367188 438.265625 362.046875 C 438.398438 361.726562 438.464844 361.390625 438.464844 361.046875 C 438.464844 360.699219 438.398438 360.367188 438.265625 360.046875 C 438.132812 359.726562 437.945312 359.441406 437.699219 359.195312 C 437.453125 358.953125 437.171875 358.761719 436.851562 358.628906 C 436.53125 358.496094 436.195312 358.429688 435.851562 358.429688 C 435.503906 358.429688 435.167969 358.496094 434.847656 358.628906 C 434.527344 358.761719 434.246094 358.953125 434 359.195312 C 433.757812 359.441406 433.566406 359.726562 433.433594 360.046875 C 433.300781 360.367188 433.234375 360.699219 433.234375 361.046875 C 433.234375 361.390625 433.300781 361.726562 433.433594 362.046875 C 433.566406 362.367188 433.757812 362.648438 434 362.894531 C 434.246094 363.140625 434.527344 363.328125 434.847656 363.460938 C 435.167969 363.59375 435.503906 363.660156 435.851562 363.660156 Z M 443.691406 366.273438 C 444.039062 366.273438 444.375 366.207031 444.695312 366.074219 C 445.015625 365.941406 445.296875 365.753906 445.542969 365.507812 C 445.789062 365.261719 445.976562 364.980469 446.109375 364.660156 C 446.242188 364.339844 446.308594 364.007812 446.308594 363.660156 C 446.308594 363.3125 446.242188 362.980469 446.109375 362.660156 C 445.976562 362.339844 445.789062 362.054688 445.542969 361.8125 C 445.296875 361.566406 445.015625 361.378906 444.695312 361.246094 C 444.375 361.113281 444.039062 361.046875 443.691406 361.046875 C 443.347656 361.046875 443.011719 361.113281 442.691406 361.246094 C 442.371094 361.378906 442.089844 361.566406 441.84375 361.8125 C 441.597656 362.054688 441.410156 362.339844 441.277344 362.660156 C 441.144531 362.980469 441.078125 363.3125 441.078125 363.660156 C 441.078125 364.007812 441.144531 364.339844 441.277344 364.660156 C 441.410156 364.980469 441.597656 365.265625 441.84375 365.507812 C 442.089844 365.753906 442.371094 365.941406 442.691406 366.074219 C 443.011719 366.207031 443.347656 366.273438 443.695312 366.273438 Z M 453.878906 352.679688 C 454.226562 352.679688 454.558594 352.613281 454.878906 352.480469 C 455.199219 352.347656 455.484375 352.160156 455.726562 351.914062 C 455.972656 351.667969 456.164062 351.386719 456.292969 351.066406 C 456.425781 350.746094 456.492188 350.410156 456.492188 350.066406 C 456.492188 349.71875 456.425781 349.386719 456.292969 349.066406 C 456.164062 348.746094 455.972656 348.460938 455.726562 348.214844 C 455.484375 347.972656 455.199219 347.78125 454.878906 347.648438 C 454.558594 347.515625 454.226562 347.449219 453.878906 347.449219 C 453.53125 347.449219 453.199219 347.515625 452.878906 347.648438 C 452.558594 347.78125 452.277344 347.972656 452.03125 348.214844 C 451.785156 348.460938 451.597656 348.746094 451.464844 349.066406 C 451.332031 349.386719 451.265625 349.71875 451.265625 350.066406 C 451.265625 350.410156 451.332031 350.746094 451.464844 351.066406 C 451.597656 351.386719 451.785156 351.667969 452.03125 351.914062 C 452.277344 352.160156 452.558594 352.347656 452.878906 352.480469 C 453.199219 352.613281 453.53125 352.679688 453.878906 352.679688 Z M 453.878906 363.660156 C 454.226562 363.660156 454.558594 363.59375 454.878906 363.460938 C 455.199219 363.328125 455.484375 363.140625 455.726562 362.894531 C 455.972656 362.648438 456.164062 362.367188 456.292969 362.046875 C 456.425781 361.726562 456.492188 361.390625 456.492188 361.046875 C 456.492188 360.699219 456.425781 360.367188 456.292969 360.046875 C 456.164062 359.726562 455.972656 359.441406 455.726562 359.195312 C 455.484375 358.953125 455.199219 358.761719 454.878906 358.628906 C 454.558594 358.496094 454.226562 358.429688 453.878906 358.429688 C 453.53125 358.429688 453.199219 358.496094 452.878906 358.628906 C 452.558594 358.761719 452.277344 358.953125 452.03125 359.195312 C 451.785156 359.441406 451.597656 359.726562 451.464844 360.046875 C 451.332031 360.367188 451.265625 360.699219 451.265625 361.046875 C 451.265625 361.390625 451.332031 361.726562 451.464844 362.046875 C 451.597656 362.367188 451.785156 362.648438 452.03125 362.894531 C 452.277344 363.140625 452.558594 363.328125 452.878906 363.460938 C 453.199219 363.59375 453.53125 363.660156 453.878906 363.660156 Z M 448.921875 374.117188 C 449.269531 374.117188 449.601562 374.050781 449.921875 373.917969 C 450.242188 373.785156 450.527344 373.597656 450.769531 373.351562 C 451.015625 373.105469 451.203125 372.824219 451.335938 372.503906 C 451.46875 372.183594 451.535156 371.851562 451.535156 371.503906 C 451.535156 371.15625 451.46875 370.824219 451.335938 370.503906 C 451.203125 370.183594 451.015625 369.898438 450.769531 369.65625 C 450.527344 369.410156 450.242188 369.222656 449.921875 369.089844 C 449.601562 368.957031 449.269531 368.890625 448.921875 368.890625 C 448.574219 368.890625 448.242188 368.957031 447.921875 369.089844 C 447.601562 369.222656 447.320312 369.410156 447.074219 369.65625 C 446.828125 369.898438 446.640625 370.183594 446.507812 370.503906 C 446.375 370.824219 446.308594 371.15625 446.308594 371.503906 C 446.308594 371.851562 446.375 372.183594 446.507812 372.503906 C 446.640625 372.824219 446.828125 373.105469 447.074219 373.351562 C 447.320312 373.597656 447.601562 373.785156 447.921875 373.917969 C 448.242188 374.050781 448.574219 374.117188 448.921875 374.117188 Z M 463.292969 374.117188 C 463.636719 374.117188 463.972656 374.050781 464.292969 373.917969 C 464.613281 373.785156 464.894531 373.597656 465.140625 373.351562 C 465.386719 373.105469 465.574219 372.824219 465.707031 372.503906 C 465.839844 372.183594 465.90625 371.851562 465.90625 371.503906 C 465.90625 371.15625 465.839844 370.824219 465.707031 370.503906 C 465.574219 370.183594 465.386719 369.898438 465.140625 369.65625 C 464.894531 369.410156 464.613281 369.222656 464.292969 369.089844 C 463.972656 368.957031 463.636719 368.890625 463.292969 368.890625 C 462.945312 368.890625 462.609375 368.957031 462.289062 369.089844 C 461.96875 369.222656 461.6875 369.410156 461.441406 369.65625 C 461.199219 369.898438 461.007812 370.183594 460.875 370.503906 C 460.742188 370.824219 460.675781 371.15625 460.675781 371.503906 C 460.675781 371.851562 460.742188 372.183594 460.875 372.503906 C 461.007812 372.824219 461.199219 373.105469 461.441406 373.351562 C 461.6875 373.597656 461.96875 373.785156 462.289062 373.917969 C 462.609375 374.050781 462.945312 374.117188 463.292969 374.117188 Z M 463.292969 360.523438 C 463.636719 360.523438 463.972656 360.457031 464.292969 360.324219 C 464.613281 360.191406 464.894531 360.003906 465.140625 359.757812 C 465.386719 359.511719 465.574219 359.230469 465.707031 358.910156 C 465.839844 358.589844 465.90625 358.253906 465.90625 357.910156 C 465.90625 357.5625 465.839844 357.226562 465.707031 356.90625 C 465.574219 356.585938 465.386719 356.304688 465.140625 356.058594 C 464.894531 355.816406 464.613281 355.625 464.292969 355.492188 C 463.972656 355.359375 463.636719 355.292969 463.292969 355.292969 C 462.945312 355.292969 462.609375 355.359375 462.289062 355.492188 C 461.96875 355.625 461.6875 355.816406 461.441406 356.058594 C 461.199219 356.304688 461.007812 356.585938 460.875 356.90625 C 460.742188 357.226562 460.675781 357.5625 460.675781 357.910156 C 460.675781 358.253906 460.742188 358.589844 460.875 358.910156 C 461.007812 359.230469 461.199219 359.511719 461.441406 359.757812 C 461.6875 360.003906 461.96875 360.191406 462.289062 360.324219 C 462.609375 360.457031 462.945312 360.523438 463.292969 360.523438 Z M 474.796875 352.679688 C 475.140625 352.679688 475.476562 352.613281 475.796875 352.480469 C 476.117188 352.347656 476.398438 352.160156 476.644531 351.914062 C 476.890625 351.667969 477.078125 351.386719 477.210938 351.066406 C 477.34375 350.746094 477.410156 350.410156 477.410156 350.066406 C 477.410156 349.71875 477.34375 349.386719 477.210938 349.066406 C 477.078125 348.746094 476.890625 348.460938 476.644531 348.214844 C 476.398438 347.972656 476.117188 347.78125 475.796875 347.648438 C 475.476562 347.515625 475.140625 347.449219 474.796875 347.449219 C 474.449219 347.449219 474.113281 347.515625 473.792969 347.648438 C 473.472656 347.78125 473.191406 347.972656 472.945312 348.214844 C 472.699219 348.460938 472.511719 348.746094 472.378906 349.066406 C 472.246094 349.386719 472.179688 349.71875 472.179688 350.066406 C 472.179688 350.410156 472.246094 350.746094 472.378906 351.066406 C 472.511719 351.386719 472.699219 351.667969 472.945312 351.914062 C 473.191406 352.160156 473.472656 352.347656 473.792969 352.480469 C 474.113281 352.613281 474.449219 352.679688 474.796875 352.679688 Z M 474.796875 366.273438 C 475.140625 366.273438 475.476562 366.207031 475.796875 366.074219 C 476.117188 365.941406 476.398438 365.753906 476.644531 365.507812 C 476.890625 365.265625 477.078125 364.980469 477.210938 364.660156 C 477.34375 364.339844 477.410156 364.007812 477.410156 363.660156 C 477.410156 363.3125 477.34375 362.980469 477.210938 362.660156 C 477.078125 362.339844 476.890625 362.054688 476.644531 361.8125 C 476.398438 361.566406 476.117188 361.378906 475.796875 361.246094 C 475.476562 361.113281 475.140625 361.046875 474.796875 361.046875 C 474.449219 361.046875 474.113281 361.113281 473.792969 361.246094 C 473.472656 361.378906 473.191406 361.566406 472.945312 361.8125 C 472.699219 362.058594 472.511719 362.339844 472.378906 362.660156 C 472.246094 362.980469 472.179688 363.3125 472.179688 363.660156 C 472.179688 364.007812 472.246094 364.339844 472.378906 364.660156 C 472.511719 364.980469 472.699219 365.265625 472.945312 365.507812 C 473.191406 365.753906 473.472656 365.941406 473.792969 366.074219 C 474.113281 366.207031 474.449219 366.273438 474.796875 366.273438 Z M 484.667969 341.175781 C 485.011719 341.175781 485.347656 341.109375 485.667969 340.976562 C 485.988281 340.84375 486.269531 340.65625 486.515625 340.410156 C 486.761719 340.164062 486.949219 339.882812 487.082031 339.5625 C 487.214844 339.242188 487.28125 338.910156 487.28125 338.5625 C 487.28125 338.214844 487.214844 337.882812 487.082031 337.5625 C 486.949219 337.242188 486.761719 336.957031 486.515625 336.714844 C 486.269531 336.46875 485.988281 336.277344 485.667969 336.144531 C 485.347656 336.011719 485.011719 335.945312 484.667969 335.945312 C 484.320312 335.945312 483.984375 336.011719 483.664062 336.144531 C 483.34375 336.277344 483.0625 336.46875 482.816406 336.714844 C 482.574219 336.957031 482.382812 337.242188 482.25 337.5625 C 482.117188 337.882812 482.050781 338.214844 482.050781 338.5625 C 482.050781 338.910156 482.117188 339.242188 482.25 339.5625 C 482.382812 339.882812 482.574219 340.164062 482.816406 340.410156 C 483.0625 340.65625 483.34375 340.84375 483.664062 340.976562 C 483.984375 341.109375 484.320312 341.175781 484.667969 341.175781 Z M 491.988281 355.292969 C 492.332031 355.292969 492.667969 355.226562 492.988281 355.09375 C 493.308594 354.960938 493.589844 354.773438 493.835938 354.527344 C 494.082031 354.28125 494.269531 354 494.402344 353.679688 C 494.535156 353.359375 494.601562 353.027344 494.601562 352.679688 C 494.601562 352.332031 494.535156 352 494.402344 351.679688 C 494.269531 351.359375 494.082031 351.074219 493.835938 350.832031 C 493.589844 350.585938 493.308594 350.398438 492.988281 350.265625 C 492.667969 350.132812 492.332031 350.066406 491.988281 350.066406 C 491.640625 350.066406 491.308594 350.132812 490.988281 350.265625 C 490.667969 350.398438 490.382812 350.585938 490.136719 350.832031 C 489.894531 351.074219 489.703125 351.359375 489.570312 351.679688 C 489.4375 352 489.371094 352.332031 489.371094 352.679688 C 489.371094 353.027344 489.4375 353.359375 489.570312 353.679688 C 489.703125 354 489.894531 354.28125 490.136719 354.527344 C 490.382812 354.773438 490.667969 354.960938 490.988281 355.09375 C 491.308594 355.226562 491.640625 355.292969 491.988281 355.292969 Z M 484.667969 374.117188 C 485.011719 374.117188 485.347656 374.050781 485.667969 373.917969 C 485.988281 373.785156 486.269531 373.597656 486.515625 373.351562 C 486.761719 373.105469 486.949219 372.824219 487.082031 372.503906 C 487.214844 372.183594 487.28125 371.851562 487.28125 371.503906 C 487.28125 371.15625 487.214844 370.824219 487.082031 370.503906 C 486.949219 370.183594 486.761719 369.898438 486.515625 369.65625 C 486.269531 369.410156 485.988281 369.21875 485.667969 369.089844 C 485.347656 368.957031 485.011719 368.890625 484.667969 368.890625 C 484.320312 368.890625 483.984375 368.957031 483.664062 369.089844 C 483.34375 369.21875 483.0625 369.410156 482.816406 369.65625 C 482.574219 369.898438 482.382812 370.183594 482.25 370.503906 C 482.117188 370.824219 482.050781 371.15625 482.050781 371.503906 C 482.050781 371.851562 482.117188 372.183594 482.25 372.503906 C 482.382812 372.824219 482.574219 373.105469 482.816406 373.351562 C 483.0625 373.597656 483.34375 373.785156 483.664062 373.917969 C 483.984375 374.050781 484.320312 374.117188 484.667969 374.117188 Z M 505.582031 363.136719 C 505.929688 363.136719 506.261719 363.070312 506.582031 362.9375 C 506.902344 362.804688 507.183594 362.617188 507.429688 362.371094 C 507.675781 362.125 507.863281 361.84375 507.996094 361.523438 C 508.128906 361.203125 508.195312 360.871094 508.195312 360.523438 C 508.195312 360.175781 508.128906 359.84375 507.996094 359.523438 C 507.863281 359.203125 507.675781 358.917969 507.429688 358.675781 C 507.183594 358.429688 506.902344 358.238281 506.582031 358.105469 C 506.261719 357.976562 505.929688 357.910156 505.582031 357.910156 C 505.234375 357.910156 504.902344 357.976562 504.582031 358.105469 C 504.261719 358.238281 503.976562 358.429688 503.734375 358.675781 C 503.488281 358.917969 503.300781 359.203125 503.167969 359.523438 C 503.035156 359.84375 502.96875 360.175781 502.96875 360.523438 C 502.96875 360.871094 503.035156 361.203125 503.167969 361.523438 C 503.300781 361.84375 503.488281 362.125 503.734375 362.371094 C 503.976562 362.617188 504.261719 362.804688 504.582031 362.9375 C 504.902344 363.070312 505.234375 363.136719 505.582031 363.136719 Z M 502.96875 343.789062 C 503.3125 343.789062 503.648438 343.722656 503.96875 343.589844 C 504.289062 343.457031 504.570312 343.269531 504.816406 343.023438 C 505.0625 342.78125 505.25 342.496094 505.382812 342.175781 C 505.515625 341.855469 505.582031 341.523438 505.582031 341.175781 C 505.582031 340.828125 505.515625 340.496094 505.382812 340.175781 C 505.25 339.855469 505.0625 339.574219 504.816406 339.328125 C 504.570312 339.082031 504.289062 338.894531 503.96875 338.761719 C 503.648438 338.628906 503.3125 338.5625 502.96875 338.5625 C 502.621094 338.5625 502.289062 338.628906 501.96875 338.761719 C 501.648438 338.894531 501.363281 339.082031 501.117188 339.328125 C 500.875 339.574219 500.683594 339.855469 500.550781 340.175781 C 500.417969 340.496094 500.351562 340.828125 500.351562 341.175781 C 500.351562 341.523438 500.417969 341.855469 500.550781 342.175781 C 500.683594 342.496094 500.875 342.78125 501.117188 343.023438 C 501.363281 343.269531 501.648438 343.457031 501.96875 343.589844 C 502.289062 343.722656 502.621094 343.789062 502.96875 343.789062 Z M 300.085938 355.292969 C 300.433594 355.292969 300.765625 355.226562 301.085938 355.09375 C 301.40625 354.960938 301.691406 354.773438 301.9375 354.527344 C 302.179688 354.28125 302.371094 354 302.503906 353.679688 C 302.636719 353.359375 302.703125 353.027344 302.703125 352.679688 C 302.703125 352.332031 302.636719 352 302.503906 351.679688 C 302.371094 351.359375 302.179688 351.074219 301.9375 350.832031 C 301.691406 350.585938 301.40625 350.398438 301.085938 350.265625 C 300.765625 350.132812 300.433594 350.066406 300.085938 350.066406 C 299.742188 350.066406 299.40625 350.132812 299.085938 350.265625 C 298.765625 350.398438 298.484375 350.585938 298.238281 350.832031 C 297.992188 351.074219 297.804688 351.359375 297.671875 351.679688 C 297.539062 352 297.472656 352.332031 297.472656 352.679688 C 297.472656 353.027344 297.539062 353.359375 297.671875 353.679688 C 297.804688 354 297.992188 354.28125 298.238281 354.527344 C 298.484375 354.773438 298.765625 354.960938 299.085938 355.09375 C 299.40625 355.226562 299.742188 355.292969 300.085938 355.292969 Z M 300.085938 355.292969 " fill-opacity="1" fill-rule="nonzero"/><path fill="#242156" d="M 482.050781 453.9375 L 473.433594 469.078125 L 473.183594 469.496094 C 471.566406 472.507812 469.757812 475.402344 467.761719 478.171875 C 465.761719 480.945312 463.585938 483.574219 461.238281 486.058594 C 458.890625 488.542969 456.390625 490.859375 453.734375 493.011719 C 451.082031 495.164062 448.292969 497.132812 445.378906 498.917969 C 442.464844 500.699219 439.441406 502.285156 436.316406 503.667969 C 433.191406 505.050781 429.988281 506.21875 426.707031 507.179688 C 423.425781 508.136719 420.097656 508.875 416.71875 509.390625 C 413.339844 509.910156 409.941406 510.203125 406.523438 510.269531 C 403.105469 510.335938 399.699219 510.175781 396.304688 509.792969 C 392.90625 509.40625 389.550781 508.800781 386.234375 507.96875 C 382.917969 507.140625 379.671875 506.09375 376.496094 504.835938 C 373.316406 503.574219 370.238281 502.113281 367.253906 500.445312 C 364.269531 498.777344 361.410156 496.917969 358.671875 494.871094 C 355.9375 492.824219 353.347656 490.605469 350.902344 488.214844 C 348.460938 485.824219 346.1875 483.28125 344.078125 480.589844 C 341.972656 477.898438 340.054688 475.078125 338.320312 472.132812 L 336.523438 468.953125 L 328.28125 454.523438 L 331.335938 447.789062 L 336.523438 456.863281 L 338.320312 460.042969 C 340.054688 462.992188 341.972656 465.808594 344.078125 468.5 C 346.1875 471.195312 348.460938 473.734375 350.902344 476.125 C 353.347656 478.515625 355.9375 480.734375 358.671875 482.78125 C 361.410156 484.828125 364.269531 486.6875 367.253906 488.355469 C 370.238281 490.023438 373.316406 491.488281 376.496094 492.746094 C 379.671875 494.007812 382.917969 495.050781 386.234375 495.878906 C 389.550781 496.710938 392.90625 497.316406 396.304688 497.703125 C 399.699219 498.085938 403.105469 498.246094 406.523438 498.179688 C 409.941406 498.113281 413.339844 497.820312 416.71875 497.304688 C 420.097656 496.785156 423.425781 496.046875 426.707031 495.089844 C 429.988281 494.132812 433.191406 492.960938 436.316406 491.578125 C 439.441406 490.195312 442.464844 488.609375 445.378906 486.828125 C 448.292969 485.042969 451.082031 483.078125 453.734375 480.925781 C 456.390625 478.769531 458.890625 476.453125 461.238281 473.96875 C 463.585938 471.484375 465.761719 468.855469 467.761719 466.085938 C 469.757812 463.3125 471.566406 460.421875 473.183594 457.410156 L 473.433594 456.992188 L 478.746094 447.660156 Z M 391.042969 365.171875 L 398.53125 373.371094 C 398.941406 373.8125 399.390625 374.207031 399.878906 374.554688 C 400.371094 374.902344 400.890625 375.195312 401.441406 375.433594 C 401.992188 375.675781 402.558594 375.855469 403.148438 375.980469 C 403.738281 376.101562 404.332031 376.164062 404.929688 376.164062 C 405.53125 376.164062 406.125 376.101562 406.714844 375.980469 C 407.300781 375.855469 407.871094 375.675781 408.421875 375.433594 C 408.972656 375.195312 409.492188 374.902344 409.984375 374.554688 C 410.472656 374.207031 410.921875 373.8125 411.332031 373.371094 L 420.953125 362.867188 C 421.429688 362.347656 421.824219 361.773438 422.140625 361.140625 C 422.453125 360.511719 422.675781 359.847656 422.804688 359.15625 C 422.933594 358.460938 422.964844 357.761719 422.894531 357.0625 C 422.828125 356.359375 422.664062 355.679688 422.40625 355.023438 L 415.136719 336.601562 C 414.996094 336.242188 414.796875 335.914062 414.542969 335.621094 C 414.289062 335.328125 413.992188 335.085938 413.65625 334.890625 C 413.320312 334.695312 412.960938 334.5625 412.582031 334.492188 C 412.199219 334.417969 411.816406 334.410156 411.433594 334.464844 C 411.050781 334.519531 410.6875 334.636719 410.339844 334.8125 C 409.996094 334.992188 409.691406 335.222656 409.421875 335.503906 C 409.15625 335.785156 408.941406 336.101562 408.78125 336.453125 C 408.621094 336.808594 408.523438 337.179688 408.488281 337.5625 L 407.074219 354.320312 C 407.046875 354.664062 406.984375 355 406.894531 355.332031 C 406.800781 355.664062 406.679688 355.988281 406.527344 356.296875 C 406.378906 356.605469 406.199219 356.898438 405.992188 357.171875 C 405.785156 357.449219 405.554688 357.703125 405.304688 357.9375 C 405.050781 358.171875 404.777344 358.378906 404.484375 358.558594 C 404.191406 358.742188 403.886719 358.894531 403.5625 359.019531 C 403.242188 359.148438 402.914062 359.242188 402.574219 359.304688 C 402.234375 359.367188 401.894531 359.398438 401.550781 359.398438 L 393.59375 359.398438 C 392.910156 359.394531 392.28125 359.578125 391.703125 359.949219 C 391.128906 360.320312 390.699219 360.820312 390.425781 361.449219 C 390.148438 362.074219 390.066406 362.726562 390.175781 363.402344 C 390.289062 364.078125 390.578125 364.667969 391.042969 365.171875 Z M 350.054688 341.699219 C 353.808594 341.699219 356.851562 336.546875 356.851562 330.195312 C 356.851562 323.84375 353.808594 318.691406 350.054688 318.691406 C 346.300781 318.691406 343.257812 323.84375 343.257812 330.195312 C 343.257812 336.546875 346.300781 341.699219 350.054688 341.699219 Z M 460.675781 338.5625 C 464.429688 338.5625 467.472656 333.410156 467.472656 327.058594 C 467.472656 320.703125 464.429688 315.554688 460.675781 315.554688 C 456.921875 315.554688 453.878906 320.703125 453.878906 327.058594 C 453.878906 333.410156 456.921875 338.5625 460.675781 338.5625 Z M 323.386719 465.386719 L 303.328125 465.445312 L 313.972656 486.355469 Z M 499.109375 486.355469 L 509.753906 465.445312 L 488.234375 465.707031 Z M 499.109375 486.355469 " fill-opacity="1" fill-rule="nonzero"/></svg>