<svg xmlns="http://www.w3.org/2000/svg" xmlns:xlink="http://www.w3.org/1999/xlink" width="1080" zoomAndPan="magnify" viewBox="0 0 810 809.999993" height="1080" preserveAspectRatio="xMidYMid meet" version="1.0"><defs><clipPath id="22655810fb"><path d="M 68 59.972656 L 742 59.972656 L 742 734 L 68 734 Z M 68 59.972656 " clip-rule="nonzero"/></clipPath></defs><g clip-path="url(#22655810fb)"><path fill="#ffde59" d="M 741.738281 396.710938 C 741.738281 402.222656 741.605469 407.730469 741.332031 413.234375 C 741.0625 418.738281 740.65625 424.234375 740.117188 429.71875 C 739.578125 435.203125 738.902344 440.671875 738.09375 446.121094 C 737.285156 451.574219 736.34375 457 735.269531 462.40625 C 734.195312 467.8125 732.988281 473.1875 731.648438 478.53125 C 730.308594 483.878906 728.839844 489.1875 727.238281 494.460938 C 725.640625 499.734375 723.910156 504.96875 722.054688 510.15625 C 720.199219 515.34375 718.214844 520.484375 716.105469 525.578125 C 713.996094 530.667969 711.765625 535.703125 709.410156 540.6875 C 707.050781 545.667969 704.574219 550.589844 701.976562 555.449219 C 699.378906 560.308594 696.664062 565.105469 693.832031 569.832031 C 690.996094 574.558594 688.050781 579.210938 684.988281 583.792969 C 681.925781 588.375 678.753906 592.878906 675.472656 597.308594 C 672.1875 601.734375 668.800781 606.078125 665.304688 610.335938 C 661.808594 614.597656 658.207031 618.769531 654.507812 622.851562 C 650.804688 626.9375 647.007812 630.925781 643.109375 634.824219 C 639.214844 638.71875 635.222656 642.519531 631.140625 646.21875 C 627.058594 649.921875 622.886719 653.519531 618.625 657.015625 C 614.363281 660.511719 610.023438 663.902344 605.59375 667.183594 C 601.167969 670.464844 596.664062 673.640625 592.082031 676.699219 C 587.5 679.761719 582.84375 682.710938 578.117188 685.542969 C 573.390625 688.375 568.597656 691.089844 563.738281 693.691406 C 558.878906 696.289062 553.957031 698.765625 548.972656 701.121094 C 543.992188 703.476562 538.957031 705.710938 533.863281 707.820312 C 528.773438 709.925781 523.632812 711.910156 518.445312 713.765625 C 513.253906 715.625 508.023438 717.351562 502.75 718.953125 C 497.476562 720.550781 492.167969 722.019531 486.820312 723.359375 C 481.476562 724.699219 476.097656 725.90625 470.695312 726.980469 C 465.289062 728.054688 459.859375 728.996094 454.410156 729.808594 C 448.957031 730.617188 443.492188 731.289062 438.007812 731.828125 C 432.523438 732.371094 427.027344 732.773438 421.523438 733.046875 C 416.019531 733.316406 410.511719 733.453125 405 733.453125 C 399.488281 733.453125 393.980469 733.316406 388.476562 733.046875 C 382.972656 732.773438 377.476562 732.371094 371.992188 731.828125 C 366.507812 731.289062 361.042969 730.617188 355.589844 729.804688 C 350.136719 728.996094 344.710938 728.054688 339.304688 726.980469 C 333.898438 725.90625 328.523438 724.699219 323.179688 723.359375 C 317.832031 722.019531 312.523438 720.550781 307.25 718.953125 C 301.976562 717.351562 296.746094 715.625 291.554688 713.765625 C 286.367188 711.910156 281.226562 709.925781 276.136719 707.820312 C 271.042969 705.710938 266.007812 703.476562 261.023438 701.121094 C 256.042969 698.765625 251.121094 696.289062 246.261719 693.691406 C 241.402344 691.089844 236.609375 688.375 231.882812 685.542969 C 227.152344 682.710938 222.5 679.761719 217.917969 676.699219 C 213.335938 673.636719 208.832031 670.464844 204.402344 667.183594 C 199.976562 663.902344 195.632812 660.511719 191.375 657.015625 C 187.113281 653.519531 182.941406 649.921875 178.859375 646.21875 C 174.777344 642.519531 170.785156 638.71875 166.890625 634.824219 C 162.992188 630.925781 159.191406 626.9375 155.492188 622.851562 C 151.792969 618.769531 148.191406 614.597656 144.695312 610.335938 C 141.199219 606.078125 137.8125 601.734375 134.527344 597.308594 C 131.246094 592.878906 128.074219 588.375 125.011719 583.792969 C 121.949219 579.210938 119 574.558594 116.167969 569.832031 C 113.335938 565.105469 110.621094 560.308594 108.023438 555.449219 C 105.425781 550.589844 102.945312 545.667969 100.589844 540.6875 C 98.234375 535.703125 96 530.667969 93.894531 525.578125 C 91.785156 520.484375 89.800781 515.34375 87.945312 510.15625 C 86.085938 504.96875 84.359375 499.734375 82.761719 494.460938 C 81.160156 489.1875 79.691406 483.878906 78.351562 478.53125 C 77.011719 473.1875 75.804688 467.8125 74.730469 462.40625 C 73.65625 457 72.714844 451.574219 71.90625 446.121094 C 71.097656 440.671875 70.421875 435.203125 69.882812 429.71875 C 69.339844 424.234375 68.9375 418.738281 68.664062 413.234375 C 68.394531 407.730469 68.261719 402.222656 68.261719 396.710938 C 68.261719 210.730469 219.019531 59.972656 405 59.972656 C 590.980469 59.972656 741.738281 210.730469 741.738281 396.710938 Z M 741.738281 396.710938 " fill-opacity="1" fill-rule="nonzero"/></g><path fill="#18b9cd" d="M 676.816406 595.492188 C 672.953125 600.777344 668.9375 605.941406 664.773438 610.992188 C 660.605469 616.039062 656.296875 620.964844 651.84375 625.761719 C 647.394531 630.558594 642.804688 635.222656 638.078125 639.753906 C 633.355469 644.285156 628.503906 648.671875 623.523438 652.921875 C 618.542969 657.167969 613.441406 661.265625 608.222656 665.214844 C 603.003906 669.167969 597.671875 672.960938 592.230469 676.601562 C 586.792969 680.238281 581.25 683.714844 575.605469 687.03125 C 569.960938 690.347656 564.226562 693.496094 558.398438 696.480469 C 552.574219 699.460938 546.664062 702.269531 540.671875 704.90625 C 534.683594 707.542969 528.621094 710.003906 522.484375 712.289062 C 516.351562 714.574219 510.15625 716.675781 503.898438 718.597656 C 497.640625 720.519531 491.335938 722.257812 484.976562 723.8125 C 478.617188 725.367188 472.21875 726.738281 465.78125 727.917969 C 459.34375 729.101562 452.875 730.09375 446.378906 730.898438 C 439.882812 731.703125 433.371094 732.316406 426.839844 732.742188 C 420.304688 733.167969 413.769531 733.402344 407.222656 733.445312 C 400.675781 733.488281 394.136719 733.339844 387.597656 733.003906 C 381.0625 732.664062 374.539062 732.136719 368.035156 731.417969 C 361.527344 730.699219 355.050781 729.792969 348.59375 728.699219 C 342.140625 727.601562 335.726562 726.320312 329.347656 724.847656 C 322.96875 723.378906 316.640625 721.722656 310.359375 719.886719 C 304.074219 718.046875 297.851562 716.027344 291.6875 713.824219 C 285.523438 711.621094 279.429688 709.242188 273.402344 706.683594 C 267.378906 704.128906 261.433594 701.398438 255.566406 698.492188 C 249.699219 695.589844 243.925781 692.515625 238.238281 689.277344 C 232.550781 686.035156 226.960938 682.632812 221.472656 679.066406 C 215.984375 675.5 210.605469 671.773438 205.332031 667.894531 C 200.0625 664.015625 194.90625 659.984375 189.871094 655.804688 C 184.835938 651.621094 179.925781 647.300781 175.140625 642.832031 C 170.355469 638.363281 165.707031 633.761719 161.1875 629.023438 C 156.671875 624.285156 152.300781 619.421875 148.066406 614.425781 C 143.835938 609.433594 139.75 604.320312 135.816406 599.089844 C 137.597656 595.710938 139.488281 592.394531 141.492188 589.144531 C 143.496094 585.894531 145.609375 582.714844 147.828125 579.605469 C 150.050781 576.496094 152.371094 573.46875 154.796875 570.519531 C 157.226562 567.570312 159.746094 564.707031 162.367188 561.925781 C 164.988281 559.148438 167.699219 556.460938 170.503906 553.867188 C 173.308594 551.273438 176.195312 548.777344 179.167969 546.378906 C 182.140625 543.980469 185.191406 541.6875 188.320312 539.496094 C 191.449219 537.304688 194.648438 535.222656 197.917969 533.25 C 201.1875 531.277344 204.519531 529.414062 207.917969 527.667969 C 211.3125 525.921875 214.765625 524.292969 218.273438 522.777344 C 221.777344 521.265625 225.332031 519.875 228.933594 518.601562 C 232.535156 517.332031 236.175781 516.183594 239.855469 515.160156 C 243.535156 514.136719 247.246094 513.238281 250.988281 512.464844 C 254.726562 511.695312 258.488281 511.050781 262.273438 510.535156 C 266.058594 510.019531 269.855469 509.632812 273.667969 509.371094 C 277.476562 509.113281 281.292969 508.984375 285.113281 508.984375 L 307.15625 508.984375 L 405 645.019531 L 458.585938 570.519531 L 473.226562 550.191406 L 502.84375 508.984375 L 529.53125 508.984375 C 533.261719 508.984375 536.992188 509.109375 540.71875 509.355469 C 544.441406 509.601562 548.15625 509.972656 551.855469 510.464844 C 555.554688 510.960938 559.234375 511.574219 562.894531 512.3125 C 566.554688 513.050781 570.183594 513.910156 573.785156 514.890625 C 577.390625 515.867188 580.953125 516.964844 584.484375 518.183594 C 588.011719 519.398438 591.5 520.730469 594.941406 522.179688 C 598.378906 523.625 601.769531 525.1875 605.105469 526.859375 C 608.445312 528.53125 611.722656 530.3125 614.941406 532.203125 C 618.160156 534.09375 621.3125 536.089844 624.398438 538.191406 C 627.484375 540.289062 630.5 542.488281 633.4375 544.789062 C 636.378906 547.089844 639.238281 549.484375 642.019531 551.976562 C 644.800781 554.464844 647.496094 557.046875 650.105469 559.714844 C 652.71875 562.382812 655.234375 565.136719 657.660156 567.972656 C 660.089844 570.808594 662.417969 573.722656 664.652344 576.714844 C 666.886719 579.707031 669.015625 582.769531 671.046875 585.902344 C 673.078125 589.035156 675 592.230469 676.816406 595.492188 Z M 676.816406 595.492188 " fill-opacity="1" fill-rule="nonzero"/><path fill="#ff5e64" d="M 405.042969 153.378906 C 402.488281 153.378906 399.9375 153.441406 397.390625 153.566406 C 394.839844 153.691406 392.296875 153.878906 389.753906 154.128906 C 387.214844 154.378906 384.683594 154.691406 382.15625 155.066406 C 379.632812 155.4375 377.121094 155.875 374.617188 156.371094 C 372.113281 156.871094 369.621094 157.429688 367.148438 158.046875 C 364.671875 158.667969 362.210938 159.347656 359.769531 160.089844 C 357.328125 160.828125 354.902344 161.628906 352.5 162.488281 C 350.097656 163.347656 347.71875 164.265625 345.359375 165.242188 C 343 166.21875 340.667969 167.253906 338.359375 168.34375 C 336.054688 169.433594 333.773438 170.582031 331.523438 171.785156 C 329.273438 172.988281 327.050781 174.246094 324.863281 175.558594 C 322.671875 176.871094 320.515625 178.234375 318.394531 179.652344 C 316.273438 181.070312 314.1875 182.539062 312.136719 184.058594 C 310.085938 185.582031 308.074219 187.148438 306.101562 188.769531 C 304.128906 190.386719 302.195312 192.054688 300.304688 193.769531 C 298.414062 195.484375 296.566406 197.242188 294.761719 199.046875 C 292.957031 200.851562 291.199219 202.699219 289.484375 204.589844 C 287.769531 206.480469 286.101562 208.414062 284.484375 210.386719 C 282.863281 212.359375 281.296875 214.371094 279.773438 216.421875 C 278.253906 218.472656 276.785156 220.558594 275.367188 222.679688 C 273.949219 224.804688 272.585938 226.957031 271.273438 229.148438 C 269.960938 231.335938 268.703125 233.558594 267.5 235.808594 C 266.296875 238.058594 265.148438 240.339844 264.058594 242.644531 C 262.96875 244.953125 261.933594 247.285156 260.957031 249.644531 C 259.980469 252.003906 259.0625 254.382812 258.203125 256.785156 C 257.34375 259.1875 256.542969 261.613281 255.804688 264.054688 C 255.0625 266.496094 254.382812 268.957031 253.761719 271.433594 C 253.144531 273.910156 252.585938 276.398438 252.085938 278.902344 C 251.589844 281.40625 251.152344 283.917969 250.777344 286.445312 C 250.40625 288.96875 250.09375 291.5 249.84375 294.039062 C 249.59375 296.582031 249.40625 299.125 249.28125 301.675781 C 249.15625 304.222656 249.09375 306.773438 249.09375 309.328125 C 249.09375 314.386719 249.304688 319.367188 249.765625 324.261719 L 250.308594 329.195312 L 250.476562 329.992188 L 261.433594 425.953125 C 261.820312 430.261719 262.429688 434.539062 263.265625 438.78125 C 264.097656 443.027344 265.15625 447.214844 266.433594 451.347656 C 267.710938 455.480469 269.199219 459.535156 270.90625 463.511719 C 272.609375 467.488281 274.519531 471.363281 276.632812 475.136719 C 278.746094 478.910156 281.054688 482.566406 283.554688 486.097656 C 286.050781 489.628906 288.730469 493.015625 291.585938 496.265625 C 294.441406 499.515625 297.460938 502.601562 300.644531 505.535156 C 303.828125 508.464844 307.15625 511.21875 310.628906 513.796875 L 405 645.019531 L 458.585938 570.519531 L 473.226562 550.191406 C 473.253906 550.191406 473.269531 550.175781 473.269531 550.148438 C 477.714844 547.910156 482.007812 545.410156 486.152344 542.648438 C 490.296875 539.890625 494.257812 536.890625 498.039062 533.648438 C 501.816406 530.410156 505.386719 526.953125 508.75 523.28125 C 512.109375 519.609375 515.238281 515.746094 518.128906 511.695312 C 521.023438 507.644531 523.664062 503.433594 526.046875 499.0625 C 528.429688 494.691406 530.539062 490.191406 532.378906 485.5625 C 534.214844 480.9375 535.769531 476.21875 537.035156 471.402344 C 538.300781 466.585938 539.269531 461.714844 539.945312 456.78125 L 539.988281 456.78125 L 558.5625 336.933594 L 558.855469 334.886719 C 559.3125 332.105469 559.699219 329.3125 560.007812 326.511719 C 560.316406 323.710938 560.546875 320.902344 560.703125 318.085938 C 560.859375 315.273438 560.941406 312.453125 560.945312 309.636719 C 560.949219 306.816406 560.875 304 560.726562 301.183594 C 560.578125 298.371094 560.355469 295.5625 560.054688 292.757812 C 559.753906 289.957031 559.375 287.164062 558.921875 284.378906 C 558.46875 281.597656 557.941406 278.832031 557.339844 276.078125 C 556.738281 273.324219 556.0625 270.585938 555.3125 267.871094 C 554.558594 265.152344 553.738281 262.457031 552.839844 259.785156 C 551.945312 257.113281 550.976562 254.46875 549.933594 251.847656 C 548.894531 249.226562 547.785156 246.636719 546.605469 244.078125 C 545.421875 241.515625 544.175781 238.992188 542.855469 236.5 C 541.539062 234.007812 540.15625 231.550781 538.707031 229.136719 C 537.253906 226.71875 535.742188 224.34375 534.160156 222.007812 C 532.582031 219.671875 530.941406 217.382812 529.238281 215.136719 C 527.535156 212.890625 525.769531 210.691406 523.949219 208.539062 C 522.125 206.390625 520.246094 204.289062 518.3125 202.242188 C 516.375 200.191406 514.382812 198.199219 512.339844 196.257812 C 510.296875 194.316406 508.199219 192.433594 506.054688 190.605469 C 503.90625 188.777344 501.714844 187.007812 499.472656 185.300781 C 497.226562 183.59375 494.941406 181.945312 492.609375 180.363281 C 490.277344 178.777344 487.90625 177.257812 485.492188 175.800781 C 483.078125 174.347656 480.625 172.957031 478.136719 171.632812 C 475.648438 170.308594 473.125 169.054688 470.566406 167.871094 C 468.011719 166.683594 465.421875 165.566406 462.804688 164.519531 C 460.1875 163.476562 457.542969 162.5 454.875 161.597656 C 452.203125 160.695312 449.511719 159.867188 446.792969 159.109375 C 444.078125 158.351562 441.34375 157.667969 438.59375 157.0625 C 435.839844 156.453125 433.074219 155.917969 430.292969 155.460938 C 427.511719 155 424.71875 154.617188 421.917969 154.3125 C 419.113281 154.003906 416.304688 153.773438 413.492188 153.617188 C 410.675781 153.460938 407.859375 153.382812 405.042969 153.378906 Z M 527.1875 359.984375 L 525.136719 371.78125 C 513.46875 317.316406 464.066406 276.40625 405.042969 276.40625 C 345.933594 276.40625 296.574219 317.316406 284.984375 371.78125 L 282.894531 359.941406 C 289.167969 288.117188 341.457031 232.066406 405.042969 232.066406 C 468.625 232.066406 520.914062 288.117188 527.1875 359.941406 Z M 527.1875 359.984375 " fill-opacity="1" fill-rule="nonzero"/><path fill="#ff9987" d="M 525.097656 371.824219 L 525.097656 371.863281 L 518.027344 412.773438 C 517.785156 414.46875 517.507812 416.160156 517.1875 417.84375 C 516.871094 419.523438 516.515625 421.199219 516.125 422.867188 C 515.730469 424.535156 515.300781 426.191406 514.832031 427.839844 C 514.367188 429.484375 513.863281 431.121094 513.320312 432.746094 C 512.78125 434.371094 512.203125 435.984375 511.589844 437.582031 C 510.976562 439.179688 510.328125 440.765625 509.644531 442.335938 C 508.957031 443.902344 508.238281 445.457031 507.484375 446.996094 C 506.730469 448.53125 505.941406 450.050781 505.117188 451.554688 C 504.292969 453.054688 503.4375 454.535156 502.546875 456 C 501.65625 457.464844 500.734375 458.90625 499.78125 460.328125 C 498.824219 461.75 497.839844 463.148438 496.820312 464.523438 C 495.804688 465.902344 494.753906 467.257812 493.675781 468.585938 C 492.597656 469.917969 491.492188 471.222656 490.351562 472.5 C 489.214844 473.78125 488.050781 475.035156 486.855469 476.261719 C 485.664062 477.492188 484.441406 478.691406 483.195312 479.863281 C 481.945312 481.035156 480.671875 482.179688 479.371094 483.296875 C 478.074219 484.410156 476.75 485.496094 475.402344 486.554688 C 474.054688 487.609375 472.683594 488.632812 471.289062 489.628906 C 469.894531 490.621094 468.476562 491.585938 467.039062 492.515625 C 465.601562 493.445312 464.144531 494.34375 462.664062 495.207031 C 461.1875 496.070312 459.691406 496.902344 458.175781 497.699219 C 456.660156 498.496094 455.128906 499.261719 453.578125 499.988281 C 452.027344 500.71875 450.460938 501.410156 448.878906 502.066406 C 447.300781 502.726562 445.703125 503.347656 444.097656 503.933594 C 442.488281 504.519531 440.867188 505.070312 439.230469 505.582031 C 437.597656 506.097656 435.953125 506.570312 434.296875 507.011719 C 432.644531 507.449219 430.980469 507.851562 429.304688 508.214844 C 427.632812 508.582031 425.953125 508.90625 424.261719 509.195312 C 422.574219 509.484375 420.882812 509.734375 419.183594 509.945312 C 417.484375 510.160156 415.78125 510.332031 414.074219 510.46875 C 412.367188 510.605469 410.65625 510.703125 408.945312 510.761719 C 407.234375 510.820312 405.523438 510.839844 403.808594 510.820312 C 402.097656 510.800781 400.386719 510.746094 398.675781 510.648438 C 396.964844 510.554688 395.261719 510.421875 393.554688 510.25 C 391.851562 510.078125 390.152344 509.867188 388.457031 509.617188 C 386.765625 509.367188 385.078125 509.082031 383.394531 508.757812 C 381.714844 508.433594 380.039062 508.070312 378.375 507.671875 C 376.710938 507.269531 375.054688 506.832031 373.410156 506.359375 C 371.765625 505.882812 370.128906 505.371094 368.507812 504.824219 C 366.886719 504.277344 365.277344 503.691406 363.679688 503.070312 C 362.085938 502.453125 360.503906 501.796875 358.9375 501.105469 C 357.371094 500.414062 355.820312 499.6875 354.285156 498.925781 C 352.75 498.164062 351.234375 497.367188 349.738281 496.539062 C 348.238281 495.707031 346.761719 494.84375 345.300781 493.949219 C 343.84375 493.050781 342.40625 492.125 340.988281 491.164062 C 339.570312 490.203125 338.175781 489.210938 336.800781 488.1875 C 335.429688 487.164062 334.078125 486.109375 332.753906 485.023438 C 331.429688 483.9375 330.128906 482.824219 328.855469 481.683594 C 327.578125 480.539062 326.332031 479.367188 325.109375 478.167969 C 323.886719 476.96875 322.691406 475.742188 321.523438 474.492188 C 320.355469 473.238281 319.21875 471.960938 318.109375 470.65625 C 316.996094 469.351562 315.917969 468.023438 314.867188 466.667969 C 313.816406 465.316406 312.800781 463.941406 311.8125 462.542969 C 310.824219 461.144531 309.867188 459.722656 308.945312 458.28125 C 308.019531 456.839844 307.128906 455.378906 306.269531 453.894531 C 305.410156 452.414062 304.585938 450.914062 303.796875 449.394531 C 303.003906 447.875 302.25 446.339844 301.527344 444.785156 C 300.804688 443.234375 300.121094 441.664062 299.46875 440.082031 C 298.816406 438.496094 298.203125 436.898438 297.625 435.289062 C 297.046875 433.675781 296.503906 432.050781 295.996094 430.417969 C 295.492188 428.78125 295.023438 427.132812 294.589844 425.476562 C 294.15625 423.820312 293.765625 422.152344 293.40625 420.480469 C 293.050781 418.804688 292.730469 417.121094 292.449219 415.433594 C 292.167969 413.742188 291.925781 412.050781 291.722656 410.347656 L 284.945312 371.824219 C 296.574219 317.359375 345.933594 276.449219 405 276.449219 C 464.066406 276.449219 513.425781 317.359375 525.097656 371.824219 Z M 525.097656 371.824219 " fill-opacity="1" fill-rule="nonzero"/><path fill="#242156" d="M 525.097656 371.863281 L 525.097656 371.824219 C 513.425781 317.359375 464.066406 276.449219 405 276.449219 C 345.933594 276.449219 296.574219 317.359375 284.945312 371.824219 L 282.851562 359.984375 C 289.128906 288.160156 341.417969 232.105469 405 232.105469 C 468.582031 232.105469 520.871094 288.160156 527.144531 359.984375 L 527.144531 360.027344 M 527.398438 496.5625 C 524.425781 502.304688 521.027344 507.78125 517.199219 512.992188 C 513.367188 518.199219 509.15625 523.078125 504.5625 527.628906 C 499.96875 532.175781 495.046875 536.339844 489.796875 540.117188 C 484.550781 543.890625 479.039062 547.234375 473.269531 550.148438 C 473.269531 550.175781 473.253906 550.191406 473.226562 550.191406 C 464.621094 554.542969 455.632812 557.832031 446.25 560.0625 C 436.867188 562.289062 427.359375 563.390625 417.714844 563.367188 C 403.835938 563.367188 390.335938 561.097656 377.222656 556.546875 C 383.355469 559.988281 389.738281 562.882812 396.363281 565.230469 C 402.992188 567.578125 409.769531 569.347656 416.703125 570.539062 C 423.632812 571.726562 430.613281 572.320312 437.644531 572.320312 C 444.675781 572.316406 451.65625 571.714844 458.585938 570.519531 L 405.082031 644.894531 L 402.40625 641.421875 L 402.28125 641.257812 L 310.628906 513.796875 C 302.722656 507.914062 295.625 501.179688 289.335938 493.59375 L 246.835938 513.210938 L 334.429688 694.882812 C 334.742188 695.527344 335.09375 696.148438 335.484375 696.746094 C 335.871094 697.347656 336.296875 697.917969 336.761719 698.464844 C 337.222656 699.011719 337.71875 699.523438 338.246094 700.007812 C 338.773438 700.492188 339.328125 700.9375 339.910156 701.351562 C 340.496094 701.765625 341.101562 702.140625 341.734375 702.476562 C 342.367188 702.8125 343.015625 703.105469 343.683594 703.359375 C 344.351562 703.613281 345.035156 703.824219 345.730469 703.992188 C 346.425781 704.160156 347.128906 704.285156 347.835938 704.363281 C 348.546875 704.441406 349.261719 704.476562 349.976562 704.464844 C 350.691406 704.453125 351.402344 704.398438 352.109375 704.296875 C 352.820312 704.195312 353.515625 704.050781 354.207031 703.863281 C 354.894531 703.675781 355.570312 703.441406 356.230469 703.167969 C 356.890625 702.894531 357.53125 702.578125 358.152344 702.222656 C 358.773438 701.867188 359.371094 701.476562 359.941406 701.042969 C 360.511719 700.613281 361.050781 700.148438 361.566406 699.648438 C 362.078125 699.152344 362.554688 698.621094 363 698.0625 L 404.957031 645.230469 L 448.671875 700.65625 C 449.054688 701.144531 449.46875 701.609375 449.914062 702.046875 C 450.355469 702.484375 450.824219 702.894531 451.320312 703.269531 C 451.816406 703.648438 452.332031 703.992188 452.871094 704.304688 C 453.410156 704.617188 453.96875 704.894531 454.542969 705.136719 C 455.117188 705.378906 455.703125 705.582031 456.304688 705.75 C 456.902344 705.917969 457.511719 706.046875 458.128906 706.136719 C 458.746094 706.226562 459.363281 706.277344 459.988281 706.285156 C 460.609375 706.296875 461.230469 706.269531 461.851562 706.203125 C 462.46875 706.132812 463.082031 706.027344 463.6875 705.882812 C 464.292969 705.734375 464.886719 705.554688 465.46875 705.332031 C 466.050781 705.109375 466.617188 704.855469 467.167969 704.5625 C 467.71875 704.269531 468.246094 703.941406 468.753906 703.582031 C 469.265625 703.222656 469.746094 702.832031 470.207031 702.410156 C 470.664062 701.988281 471.09375 701.539062 471.496094 701.0625 C 471.898438 700.585938 472.269531 700.085938 472.605469 699.5625 C 472.945312 699.042969 473.25 698.5 473.519531 697.9375 L 562.660156 512.164062 Z M 506.480469 449 L 497.824219 463.140625 C 497.824219 463.140625 497.863281 463.179688 497.78125 463.179688 C 496.953125 465.121094 496.082031 467.042969 495.15625 468.9375 C 494.230469 470.832031 493.261719 472.707031 492.238281 474.550781 C 491.21875 476.398438 490.152344 478.21875 489.039062 480.007812 C 487.925781 481.800781 486.769531 483.5625 485.566406 485.292969 C 484.359375 487.027344 483.113281 488.726562 481.824219 490.394531 C 480.53125 492.0625 479.199219 493.699219 477.824219 495.296875 C 476.449219 496.898438 475.035156 498.460938 473.578125 499.988281 C 472.125 501.515625 470.632812 503.003906 469.101562 504.457031 C 467.570312 505.90625 466 507.316406 464.398438 508.6875 C 462.792969 510.058594 461.15625 511.386719 459.484375 512.671875 C 457.8125 513.960938 456.109375 515.203125 454.375 516.402344 C 452.636719 517.601562 450.875 518.753906 449.078125 519.863281 C 447.285156 520.96875 445.460938 522.03125 443.613281 523.046875 C 441.761719 524.0625 439.890625 525.027344 437.992188 525.949219 C 436.09375 526.867188 434.171875 527.738281 432.226562 528.558594 C 430.285156 529.378906 428.320312 530.148438 426.339844 530.867188 C 424.355469 531.585938 422.355469 532.253906 420.339844 532.871094 C 418.320312 533.488281 416.289062 534.054688 414.242188 534.566406 C 412.195312 535.078125 410.140625 535.539062 408.070312 535.945312 C 406 536.355469 403.921875 536.707031 401.832031 537.007812 C 399.746094 537.308594 397.652344 537.554688 395.550781 537.75 C 393.449219 537.941406 391.34375 538.082031 389.238281 538.167969 C 387.128906 538.253906 385.023438 538.285156 382.914062 538.261719 C 380.804688 538.238281 378.695312 538.160156 376.589844 538.03125 C 374.484375 537.898438 372.382812 537.714844 370.289062 537.476562 C 368.191406 537.238281 366.105469 536.945312 364.023438 536.597656 C 361.941406 536.253906 359.871094 535.855469 357.8125 535.402344 C 355.75 534.949219 353.703125 534.445312 351.667969 533.886719 C 349.632812 533.332031 347.617188 532.722656 345.613281 532.0625 C 343.609375 531.402344 341.625 530.6875 339.65625 529.925781 C 337.691406 529.164062 335.742188 528.351562 333.820312 527.488281 C 331.894531 526.628906 329.992188 525.714844 328.113281 524.757812 C 334.609375 531.640625 341.804688 537.695312 349.695312 542.921875 C 357.585938 548.148438 365.96875 552.414062 374.839844 555.710938 C 377.933594 555.960938 381.070312 556.089844 384.25 556.089844 C 386.101562 556.089844 387.949219 556.046875 389.796875 555.964844 C 391.644531 555.882812 393.488281 555.757812 395.328125 555.59375 C 397.171875 555.425781 399.007812 555.21875 400.839844 554.972656 C 402.671875 554.722656 404.5 554.433594 406.320312 554.101562 C 408.140625 553.773438 409.949219 553.402344 411.753906 552.988281 C 413.554688 552.578125 415.347656 552.125 417.128906 551.632812 C 418.914062 551.140625 420.683594 550.609375 422.441406 550.035156 C 424.199219 549.464844 425.945312 548.851562 427.675781 548.199219 C 429.40625 547.550781 431.121094 546.859375 432.820312 546.132812 C 434.523438 545.40625 436.203125 544.640625 437.871094 543.835938 C 439.535156 543.03125 441.183594 542.191406 442.808594 541.3125 C 444.4375 540.4375 446.042969 539.523438 447.632812 538.570312 C 449.21875 537.621094 450.78125 536.636719 452.324219 535.617188 C 453.867188 534.59375 455.386719 533.539062 456.878906 532.453125 C 458.375 531.363281 459.84375 530.242188 461.289062 529.085938 C 462.734375 527.933594 464.148438 526.746094 465.542969 525.527344 C 466.933594 524.308594 468.296875 523.058594 469.628906 521.777344 C 470.964844 520.5 472.269531 519.191406 473.546875 517.851562 C 474.820312 516.511719 476.066406 515.144531 477.28125 513.75 C 478.496094 512.355469 479.675781 510.933594 480.828125 509.488281 C 481.976562 508.039062 483.09375 506.566406 484.179688 505.066406 C 485.261719 503.570312 486.3125 502.046875 487.328125 500.503906 C 488.34375 498.957031 489.324219 497.390625 490.269531 495.800781 C 491.214844 494.210938 492.125 492.601562 492.996094 490.96875 C 493.867188 489.339844 494.703125 487.691406 495.503906 486.023438 C 496.300781 484.355469 497.0625 482.667969 497.785156 480.96875 C 498.507812 479.265625 499.191406 477.546875 499.835938 475.816406 C 500.480469 474.082031 501.089844 472.335938 501.65625 470.574219 C 502.222656 468.816406 502.75 467.042969 503.234375 465.257812 C 503.722656 463.472656 504.167969 461.679688 504.574219 459.875 C 504.980469 458.074219 505.347656 456.261719 505.671875 454.441406 C 505.996094 452.617188 506.28125 450.792969 506.523438 448.957031 Z M 359.953125 371.863281 C 363.640625 371.863281 366.632812 367.082031 366.632812 361.179688 C 366.632812 355.277344 363.640625 350.496094 359.953125 350.496094 C 356.265625 350.496094 353.277344 355.277344 353.277344 361.179688 C 353.277344 367.082031 356.265625 371.863281 359.953125 371.863281 Z M 418.007812 378.472656 C 417.957031 378.253906 417.867188 378.046875 417.742188 377.859375 C 417.613281 377.667969 417.460938 377.507812 417.277344 377.375 C 417.089844 377.242188 416.890625 377.144531 416.671875 377.085938 C 416.449219 377.023438 416.226562 377.003906 416 377.023438 C 415.777344 377.046875 415.558594 377.105469 415.355469 377.203125 C 415.148438 377.300781 414.96875 377.433594 414.8125 377.597656 C 414.652344 377.761719 414.53125 377.945312 414.4375 378.15625 C 414.347656 378.363281 414.296875 378.582031 414.285156 378.808594 L 413.152344 403.613281 C 413.140625 403.84375 413.085938 404.066406 412.992188 404.273438 C 412.894531 404.484375 412.765625 404.671875 412.597656 404.832031 C 412.429688 404.992188 412.238281 405.113281 412.023438 405.199219 C 411.808594 405.285156 411.585938 405.328125 411.355469 405.328125 L 392.410156 405.328125 C 391.835938 405.328125 391.3125 405.488281 390.839844 405.800781 C 390.363281 406.117188 390.011719 406.539062 389.789062 407.0625 C 389.570312 407.589844 389.511719 408.132812 389.617188 408.695312 C 389.71875 409.257812 389.972656 409.742188 390.371094 410.152344 L 400.273438 420.347656 C 400.582031 420.660156 400.917969 420.9375 401.28125 421.183594 C 401.648438 421.429688 402.03125 421.640625 402.4375 421.808594 C 402.84375 421.976562 403.261719 422.105469 403.691406 422.191406 C 404.125 422.28125 404.558594 422.324219 405 422.324219 C 405.4375 422.324219 405.875 422.28125 406.304688 422.191406 C 406.738281 422.105469 407.15625 421.976562 407.5625 421.808594 C 407.964844 421.640625 408.351562 421.429688 408.714844 421.183594 C 409.082031 420.9375 409.417969 420.660156 409.726562 420.347656 L 423.21875 406.503906 C 423.578125 406.140625 423.824219 405.710938 423.960938 405.214844 C 424.097656 404.722656 424.105469 404.230469 423.988281 403.730469 Z M 453.027344 371.863281 C 456.714844 371.863281 459.707031 367.082031 459.707031 361.179688 C 459.707031 355.277344 456.714844 350.496094 453.027344 350.496094 C 449.339844 350.496094 446.351562 355.277344 446.351562 361.179688 C 446.351562 367.082031 449.339844 371.863281 453.027344 371.863281 Z M 453.027344 371.863281 " fill-opacity="1" fill-rule="nonzero"/></svg>