<svg xmlns="http://www.w3.org/2000/svg" xmlns:xlink="http://www.w3.org/1999/xlink" width="1080" zoomAndPan="magnify" viewBox="0 0 810 809.999993" height="1080" preserveAspectRatio="xMidYMid meet" version="1.0"><defs><clipPath id="92f19c18d1"><path d="M 67.5 67.5 L 742.5 67.5 L 742.5 742.5 L 67.5 742.5 Z M 67.5 67.5 " clip-rule="nonzero"/></clipPath><clipPath id="9a17f2bae5"><path d="M 167 323 L 722 323 L 722 742.5 L 167 742.5 Z M 167 323 " clip-rule="nonzero"/></clipPath></defs><g clip-path="url(#92f19c18d1)"><path fill="#ffde59" d="M 742.433594 404.933594 C 742.453125 424.75 740.738281 444.417969 737.296875 463.933594 C 733.855469 483.449219 728.734375 502.511719 721.933594 521.125 C 674.523438 650.230469 550.535156 742.363281 405 742.363281 C 399.476562 742.363281 393.957031 742.226562 388.445312 741.953125 C 382.929688 741.683594 377.421875 741.273438 371.929688 740.734375 C 366.433594 740.191406 360.953125 739.511719 355.492188 738.703125 C 350.03125 737.890625 344.589844 736.945312 339.175781 735.867188 C 333.761719 734.789062 328.375 733.578125 323.019531 732.234375 C 317.660156 730.894531 312.339844 729.417969 307.058594 727.816406 C 301.773438 726.210938 296.53125 724.480469 291.332031 722.617188 C 286.132812 720.757812 280.984375 718.769531 275.882812 716.65625 C 270.78125 714.542969 265.734375 712.304688 260.742188 709.945312 C 255.753906 707.582031 250.820312 705.097656 245.953125 702.496094 C 241.082031 699.890625 236.28125 697.171875 231.542969 694.332031 C 226.808594 691.492188 222.144531 688.539062 217.550781 685.472656 C 212.960938 682.402344 208.449219 679.222656 204.011719 675.933594 C 199.578125 672.644531 195.226562 669.25 190.957031 665.746094 C 186.691406 662.242188 182.507812 658.636719 178.417969 654.925781 C 174.328125 651.21875 170.328125 647.414062 166.425781 643.507812 C 162.519531 639.601562 158.714844 635.605469 155.003906 631.515625 C 151.296875 627.421875 147.691406 623.242188 144.1875 618.972656 C 140.683594 614.707031 137.289062 610.355469 133.996094 605.917969 C 130.707031 601.484375 127.53125 596.972656 124.460938 592.378906 C 121.394531 587.789062 118.441406 583.125 115.601562 578.390625 C 112.761719 573.652344 110.039062 568.851562 107.4375 563.980469 C 104.832031 559.109375 102.351562 554.179688 99.988281 549.1875 C 97.628906 544.195312 95.390625 539.148438 93.277344 534.050781 C 91.160156 528.949219 89.175781 523.796875 87.3125 518.597656 C 85.453125 513.398438 83.71875 508.160156 82.117188 502.875 C 80.511719 497.589844 79.039062 492.269531 77.695312 486.914062 C 76.355469 481.558594 75.144531 476.171875 74.066406 470.757812 C 72.988281 465.339844 72.042969 459.902344 71.230469 454.441406 C 70.417969 448.976562 69.742188 443.5 69.199219 438.003906 C 68.65625 432.507812 68.25 427.003906 67.976562 421.488281 C 67.707031 415.972656 67.566406 410.453125 67.566406 404.933594 C 67.566406 218.570312 218.636719 67.5 405 67.5 C 591.363281 67.5 742.433594 218.570312 742.433594 404.933594 Z M 742.433594 404.933594 " fill-opacity="1" fill-rule="nonzero"/></g><path fill="#ff9987" d="M 569.019531 479.753906 L 568.894531 481.261719 C 568.359375 488.769531 567.167969 496.167969 565.324219 503.460938 C 563.480469 510.757812 561.007812 517.832031 557.914062 524.691406 C 557.15625 526.449219 556.320312 528.210938 555.441406 529.929688 C 554.335938 532.132812 553.171875 534.300781 551.945312 536.433594 C 550.71875 538.570312 549.429688 540.667969 548.085938 542.730469 C 546.738281 544.792969 545.335938 546.816406 543.875 548.796875 C 542.414062 550.78125 540.898438 552.71875 539.328125 554.617188 C 537.757812 556.511719 536.132812 558.363281 534.457031 560.167969 C 532.78125 561.972656 531.054688 563.726562 529.28125 565.433594 C 527.503906 567.140625 525.679688 568.792969 523.8125 570.398438 C 521.941406 572 520.027344 573.546875 518.070312 575.042969 C 516.113281 576.535156 514.113281 577.972656 512.074219 579.355469 C 510.035156 580.734375 507.957031 582.054688 505.84375 583.320312 C 503.730469 584.582031 501.582031 585.78125 499.398438 586.921875 C 497.214844 588.0625 495.003906 589.140625 492.757812 590.15625 C 490.515625 591.171875 488.246094 592.121094 485.945312 593.007812 C 483.648438 593.894531 481.328125 594.714844 478.984375 595.46875 C 476.640625 596.222656 474.273438 596.910156 471.890625 597.527344 C 469.507812 598.148438 467.109375 598.699219 464.695312 599.183594 C 462.28125 599.667969 459.851562 600.082031 457.414062 600.425781 C 454.976562 600.773438 452.53125 601.050781 450.078125 601.257812 C 447.621094 601.460938 445.164062 601.601562 442.703125 601.667969 C 440.242188 601.734375 437.78125 601.730469 435.320312 601.660156 C 432.855469 601.585938 430.398438 601.445312 427.945312 601.230469 C 425.492188 601.019531 423.046875 600.738281 420.609375 600.386719 C 418.171875 600.035156 415.746094 599.617188 413.332031 599.128906 C 410.917969 598.636719 408.519531 598.082031 406.140625 597.457031 C 403.757812 596.832031 401.394531 596.140625 399.050781 595.378906 C 396.710938 594.621094 394.390625 593.796875 392.09375 592.90625 C 389.796875 592.015625 387.53125 591.058594 385.289062 590.039062 C 383.046875 589.019531 380.835938 587.9375 378.65625 586.792969 C 376.476562 585.644531 374.328125 584.441406 372.21875 583.171875 C 370.105469 581.90625 368.03125 580.578125 365.996094 579.195312 C 363.960938 577.808594 361.964844 576.367188 360.011719 574.871094 C 358.054688 573.371094 356.144531 571.820312 354.28125 570.210938 C 348.027344 564.820312 342.332031 558.894531 337.191406 552.429688 C 332.054688 545.96875 327.566406 539.082031 323.722656 531.773438 L 339.988281 524.3125 L 360.066406 515.046875 L 359.898438 514.460938 L 356.503906 502.640625 L 336.84375 511.191406 C 336.058594 511.535156 335.257812 511.835938 334.445312 512.09375 C 333.628906 512.351562 332.800781 512.5625 331.964844 512.734375 C 331.125 512.902344 330.28125 513.027344 329.429688 513.109375 C 328.578125 513.191406 327.722656 513.226562 326.867188 513.214844 C 326.011719 513.207031 325.160156 513.148438 324.308594 513.050781 C 323.460938 512.949219 322.617188 512.804688 321.785156 512.613281 C 320.949219 512.425781 320.128906 512.191406 319.320312 511.914062 C 318.511719 511.640625 317.71875 511.320312 316.941406 510.960938 C 316.167969 510.597656 315.410156 510.199219 314.679688 509.757812 C 313.945312 509.316406 313.238281 508.839844 312.554688 508.324219 C 311.871094 507.808594 311.21875 507.257812 310.59375 506.671875 C 309.972656 506.085938 309.378906 505.472656 308.820312 504.824219 C 308.261719 504.175781 307.738281 503.5 307.25 502.796875 C 306.765625 502.09375 306.316406 501.367188 305.90625 500.617188 C 305.496094 499.867188 305.125 499.097656 304.796875 498.308594 C 304.46875 497.519531 304.179688 496.714844 303.9375 495.894531 L 286.289062 436.621094 L 283.691406 427.945312 L 280.503906 417.296875 L 255.984375 422.746094 C 254.789062 423.015625 253.578125 423.109375 252.355469 423.03125 C 251.132812 422.953125 249.945312 422.703125 248.792969 422.289062 C 247.640625 421.871094 246.570312 421.300781 245.578125 420.582031 C 244.585938 419.859375 243.71875 419.011719 242.96875 418.042969 C 242.21875 417.074219 241.617188 416.019531 241.167969 414.878906 C 240.71875 413.738281 240.4375 412.558594 240.324219 411.339844 C 240.214844 410.117188 240.273438 408.90625 240.503906 407.703125 C 240.738281 406.5 241.132812 405.351562 241.691406 404.261719 L 272.667969 343.945312 L 255.4375 332.332031 C 254.117188 331.4375 252.929688 330.386719 251.878906 329.179688 C 250.828125 327.976562 249.949219 326.65625 249.238281 325.226562 C 248.53125 323.792969 248.015625 322.292969 247.695312 320.726562 C 247.375 319.160156 247.261719 317.582031 247.351562 315.984375 L 248.773438 291.128906 L 331.4375 241.792969 L 482.292969 246.949219 L 482.628906 264.847656 C 494.28125 253.359375 507.988281 248.332031 519.222656 252.984375 C 537.414062 260.488281 542.363281 290.414062 530.246094 319.839844 C 522.40625 338.914062 509.289062 353.125 496.085938 358.699219 L 499.398438 370.226562 L 513.273438 418.347656 L 514.445312 422.414062 L 527.734375 468.5625 L 538.460938 471.457031 L 542.488281 472.546875 L 551.917969 475.101562 L 553.722656 475.605469 L 566.632812 479.085938 Z M 569.019531 479.753906 " fill-opacity="1" fill-rule="nonzero"/><path fill="#56317e" d="M 536.492188 212.113281 L 536.492188 254.828125 C 536.496094 255.769531 536.382812 256.695312 536.160156 257.613281 C 535.9375 258.527344 535.609375 259.402344 535.175781 260.238281 C 534.738281 261.074219 534.210938 261.84375 533.59375 262.554688 C 532.972656 263.261719 532.277344 263.886719 531.507812 264.425781 C 529.53125 260.761719 526.847656 257.722656 523.453125 255.3125 L 523.457031 255.332031 C 523.171875 255.121094 522.878906 254.921875 522.582031 254.730469 C 522.140625 254.453125 521.691406 254.179688 521.226562 253.933594 C 521.132812 253.882812 521.03125 253.832031 520.933594 253.785156 C 520.375 253.496094 519.808594 253.222656 519.222656 252.984375 C 506.984375 247.953125 491.894531 254.324219 479.652344 267.988281 L 337.804688 272.769531 L 251.75 300.347656 C 250.945312 300.601562 250.121094 300.753906 249.277344 300.808594 C 248.484375 300.886719 247.691406 300.878906 246.902344 300.789062 C 246.109375 300.699219 245.335938 300.53125 244.578125 300.277344 C 243.824219 300.027344 243.101562 299.699219 242.414062 299.292969 C 241.726562 298.890625 241.089844 298.421875 240.5 297.882812 C 239.914062 297.347656 239.386719 296.753906 238.921875 296.105469 C 238.457031 295.457031 238.066406 294.769531 237.746094 294.039062 C 237.425781 293.308594 237.183594 292.554688 237.023438 291.773438 C 236.863281 290.996094 236.78125 290.207031 236.785156 289.410156 L 236.785156 247.113281 C 236.789062 245.945312 236.960938 244.800781 237.3125 243.683594 C 237.660156 242.566406 238.167969 241.527344 238.835938 240.5625 C 239.503906 239.601562 240.296875 238.761719 241.21875 238.039062 C 242.140625 237.320312 243.152344 236.753906 244.246094 236.34375 L 255.984375 231.984375 C 257.28125 228.417969 258.710938 224.898438 260.34375 221.503906 C 261.574219 218.828125 262.886719 216.191406 264.285156 213.597656 C 265.683594 211.003906 267.160156 208.457031 268.71875 205.960938 C 270.277344 203.460938 271.914062 201.011719 273.628906 198.617188 C 275.34375 196.222656 277.132812 193.882812 278.996094 191.601562 C 280.859375 189.320312 282.796875 187.101562 284.800781 184.945312 C 286.804688 182.785156 288.875 180.691406 291.011719 178.667969 C 293.152344 176.640625 295.351562 174.683594 297.613281 172.796875 C 299.875 170.910156 302.195312 169.097656 304.574219 167.359375 C 306.949219 165.617188 309.382812 163.957031 311.863281 162.371094 C 314.347656 160.789062 316.878906 159.285156 319.457031 157.859375 C 322.035156 156.4375 324.660156 155.097656 327.324219 153.839844 C 329.988281 152.582031 332.6875 151.414062 335.425781 150.328125 C 338.164062 149.242188 340.9375 148.246094 343.738281 147.335938 C 346.539062 146.429688 349.367188 145.609375 352.222656 144.882812 C 355.078125 144.152344 357.949219 143.515625 360.847656 142.96875 C 363.742188 142.421875 366.648438 141.96875 369.574219 141.609375 C 372.496094 141.246094 375.429688 140.980469 378.367188 140.804688 C 381.308594 140.632812 384.253906 140.550781 387.199219 140.5625 C 390.144531 140.574219 393.085938 140.683594 396.027344 140.882812 C 398.964844 141.082031 401.894531 141.375 404.8125 141.761719 C 407.734375 142.148438 410.640625 142.625 413.53125 143.195312 C 416.417969 143.769531 419.289062 144.429688 422.136719 145.183594 C 424.984375 145.9375 427.804688 146.78125 430.597656 147.714844 C 433.390625 148.648438 436.152344 149.667969 438.882812 150.777344 C 441.613281 151.882812 444.304688 153.078125 446.957031 154.359375 C 449.609375 155.636719 452.21875 157 454.785156 158.445312 C 457.351562 159.890625 459.871094 161.417969 462.339844 163.023438 C 464.808594 164.628906 467.226562 166.3125 469.589844 168.074219 C 471.949219 169.832031 474.253906 171.664062 476.5 173.570312 C 478.746094 175.476562 480.929688 177.453125 483.050781 179.5 C 485.167969 181.542969 487.222656 183.652344 489.207031 185.828125 C 491.195312 188.003906 493.109375 190.242188 494.953125 192.539062 C 497.21875 195.347656 499.398438 198.238281 501.410156 201.214844 L 524.839844 200.460938 C 525.605469 200.460938 526.363281 200.539062 527.109375 200.691406 C 527.859375 200.839844 528.589844 201.0625 529.292969 201.355469 C 530 201.648438 530.671875 202.007812 531.308594 202.433594 C 531.941406 202.859375 532.53125 203.339844 533.070312 203.882812 C 533.613281 204.421875 534.09375 205.011719 534.519531 205.648438 C 534.945312 206.28125 535.304688 206.953125 535.597656 207.660156 C 535.890625 208.363281 536.113281 209.09375 536.265625 209.84375 C 536.414062 210.59375 536.492188 211.347656 536.492188 212.113281 Z M 536.492188 212.113281 " fill-opacity="1" fill-rule="nonzero"/><g clip-path="url(#9a17f2bae5)"><path fill="#ed6e0f" d="M 485.816406 432.011719 C 485.839844 433.050781 485.785156 434.082031 485.652344 435.113281 C 485.519531 436.144531 485.3125 437.160156 485.03125 438.15625 C 484.75 439.15625 484.398438 440.132812 483.972656 441.078125 C 483.546875 442.023438 483.050781 442.9375 482.492188 443.808594 C 481.929688 444.683594 481.308594 445.511719 480.625 446.292969 C 479.941406 447.078125 479.207031 447.804688 478.414062 448.476562 C 477.625 449.148438 476.789062 449.761719 475.90625 450.308594 C 475.023438 450.859375 474.109375 451.339844 473.15625 451.753906 L 336.84375 511.191406 C 336.058594 511.535156 335.257812 511.835938 334.445312 512.09375 C 333.628906 512.351562 332.800781 512.5625 331.964844 512.734375 C 331.125 512.902344 330.28125 513.027344 329.429688 513.109375 C 328.578125 513.191406 327.722656 513.226562 326.867188 513.214844 C 326.011719 513.203125 325.160156 513.148438 324.308594 513.050781 C 323.460938 512.949219 322.617188 512.804688 321.785156 512.613281 C 320.949219 512.425781 320.128906 512.191406 319.320312 511.914062 C 318.511719 511.640625 317.71875 511.320312 316.941406 510.960938 C 316.167969 510.597656 315.410156 510.199219 314.679688 509.757812 C 313.945312 509.316406 313.238281 508.839844 312.554688 508.324219 C 311.871094 507.808594 311.21875 507.257812 310.59375 506.671875 C 309.972656 506.085938 309.378906 505.472656 308.820312 504.824219 C 308.261719 504.175781 307.738281 503.5 307.25 502.796875 C 306.765625 502.09375 306.316406 501.367188 305.90625 500.617188 C 305.496094 499.867188 305.125 499.097656 304.796875 498.308594 C 304.46875 497.519531 304.179688 496.710938 303.9375 495.894531 L 286.289062 436.621094 L 283.691406 427.945312 C 313.035156 429.875 378.96875 434.234375 380.519531 434.316406 C 388.359375 414.78125 397.328125 393.824219 415.480469 383.09375 C 421.726562 379.40625 428.726562 377.140625 435.054688 373.621094 C 450.730469 364.902344 475.167969 343.859375 478.226562 323.320312 L 484.265625 350.523438 Z M 569.019531 479.753906 C 568.796875 483.269531 568.433594 486.773438 567.925781 490.257812 C 567.417969 493.746094 566.769531 497.207031 565.980469 500.640625 C 565.195312 504.074219 564.265625 507.472656 563.203125 510.828125 C 562.140625 514.1875 560.941406 517.5 559.609375 520.761719 C 558.277344 524.023438 556.8125 527.222656 555.21875 530.367188 C 553.625 533.511719 551.910156 536.582031 550.066406 539.585938 C 548.222656 542.589844 546.261719 545.511719 544.183594 548.359375 C 542.105469 551.203125 539.910156 553.957031 537.609375 556.621094 C 535.304688 559.289062 532.898438 561.859375 530.386719 564.328125 C 527.871094 566.796875 525.265625 569.164062 522.5625 571.421875 C 519.855469 573.679688 517.066406 575.828125 514.1875 577.859375 C 511.308594 579.890625 508.351562 581.804688 505.320312 583.59375 C 502.285156 585.386719 499.183594 587.054688 496.015625 588.59375 C 492.847656 590.132812 489.621094 591.542969 486.335938 592.820312 C 483.054688 594.101562 479.722656 595.242188 476.347656 596.25 C 472.972656 597.257812 469.558594 598.128906 466.113281 598.859375 C 462.667969 599.589844 459.195312 600.179688 455.699219 600.628906 C 452.207031 601.078125 448.699219 601.386719 445.179688 601.550781 C 441.660156 601.714844 438.140625 601.734375 434.617188 601.613281 C 431.097656 601.492188 427.585938 601.226562 424.085938 600.820312 C 420.585938 600.414062 417.109375 599.867188 413.652344 599.179688 C 410.199219 598.488281 406.777344 597.660156 403.386719 596.695312 C 400 595.726562 396.65625 594.625 393.359375 593.386719 C 390.058594 592.148438 386.816406 590.777344 383.628906 589.277344 C 380.441406 587.773438 377.320312 586.148438 374.265625 584.390625 C 371.210938 582.636719 368.230469 580.761719 365.328125 578.761719 C 362.425781 576.765625 359.609375 574.65625 356.878906 572.429688 C 354.144531 570.203125 351.507812 567.871094 348.96875 565.429688 C 346.425781 562.992188 343.988281 560.453125 341.652344 557.8125 C 339.316406 555.175781 337.089844 552.449219 334.976562 549.628906 C 332.863281 546.808594 330.863281 543.910156 328.984375 540.929688 C 327.105469 537.949219 325.351562 534.898438 323.722656 531.773438 L 223.035156 578.050781 C 217.753906 580.480469 212.738281 583.375 207.988281 586.730469 C 203.238281 590.085938 198.835938 593.847656 194.777344 598.011719 C 190.722656 602.179688 187.082031 606.683594 183.855469 611.523438 C 180.628906 616.359375 177.875 621.453125 175.585938 626.800781 L 167.832031 644.90625 C 171.726562 648.769531 175.710938 652.53125 179.785156 656.195312 C 183.863281 659.859375 188.027344 663.421875 192.277344 666.882812 C 196.527344 670.34375 200.859375 673.699219 205.277344 676.949219 C 209.691406 680.199219 214.183594 683.339844 218.75 686.367188 C 223.320312 689.398438 227.960938 692.3125 232.671875 695.117188 C 237.382812 697.917969 242.160156 700.605469 247 703.171875 C 251.84375 705.742188 256.746094 708.191406 261.710938 710.519531 C 266.671875 712.847656 271.6875 715.054688 276.757812 717.136719 C 281.828125 719.222656 286.945312 721.179688 292.113281 723.011719 C 297.28125 724.847656 302.488281 726.550781 307.738281 728.128906 C 312.988281 729.707031 318.273438 731.15625 323.59375 732.476562 C 328.914062 733.796875 334.261719 734.988281 339.640625 736.042969 C 345.019531 737.101562 350.421875 738.027344 355.84375 738.820312 C 361.269531 739.617188 366.710938 740.277344 372.164062 740.804688 C 377.621094 741.332031 383.085938 741.726562 388.5625 741.988281 C 394.039062 742.246094 399.515625 742.371094 405 742.363281 C 550.535156 742.363281 674.523438 650.230469 721.933594 521.125 Z M 569.019531 479.753906 " fill-opacity="1" fill-rule="nonzero"/></g><path fill="#242156" d="M 501.410156 201.214844 L 324.226562 206.75 L 255.984375 231.984375 C 257.28125 228.421875 258.710938 224.898438 260.34375 221.503906 L 324.226562 197.863281 L 494.953125 192.539062 C 497.21875 195.347656 499.398438 198.238281 501.410156 201.214844 Z M 303.210938 345.125 C 307.722656 344.089844 310.175781 337.992188 308.6875 331.503906 C 307.199219 325.015625 302.335938 320.597656 297.824219 321.632812 C 293.308594 322.667969 290.855469 328.765625 292.34375 335.25 C 293.832031 341.738281 298.695312 346.160156 303.210938 345.125 Z M 523.203125 506.191406 L 493.875 478.5625 C 493.648438 478.351562 493.402344 478.167969 493.128906 478.019531 C 492.859375 477.867188 492.574219 477.753906 492.273438 477.675781 C 491.972656 477.59375 491.667969 477.554688 491.359375 477.550781 C 491.050781 477.546875 490.742188 477.582031 490.441406 477.65625 C 490.140625 477.730469 489.851562 477.839844 489.578125 477.984375 C 489.304688 478.128906 489.054688 478.304688 488.824219 478.511719 C 488.59375 478.722656 488.394531 478.953125 488.222656 479.214844 C 488.050781 479.472656 487.914062 479.746094 487.808594 480.039062 L 474.453125 518.023438 C 474.308594 518.433594 474.226562 518.851562 474.207031 519.28125 C 474.183594 519.714844 474.222656 520.140625 474.324219 520.558594 C 474.429688 520.976562 474.585938 521.375 474.804688 521.746094 C 475.023438 522.121094 475.289062 522.457031 475.601562 522.75 L 504.910156 550.359375 C 505.136719 550.574219 505.386719 550.753906 505.65625 550.90625 C 505.929688 551.054688 506.214844 551.171875 506.511719 551.25 C 506.8125 551.328125 507.117188 551.371094 507.429688 551.375 C 507.738281 551.375 508.042969 551.339844 508.34375 551.269531 C 508.644531 551.195312 508.933594 551.085938 509.207031 550.941406 C 509.480469 550.796875 509.734375 550.617188 509.964844 550.410156 C 510.195312 550.203125 510.394531 549.96875 510.566406 549.710938 C 510.738281 549.453125 510.875 549.175781 510.976562 548.882812 L 524.34375 510.875 C 524.484375 510.472656 524.566406 510.054688 524.589844 509.628906 C 524.609375 509.199219 524.570312 508.78125 524.46875 508.363281 C 524.367188 507.949219 524.210938 507.554688 523.992188 507.1875 C 523.777344 506.816406 523.515625 506.484375 523.203125 506.191406 Z M 566.632812 479.082031 L 553.722656 475.605469 L 542.738281 506.75 C 542.597656 507.15625 542.515625 507.574219 542.492188 508.007812 C 542.472656 508.4375 542.511719 508.863281 542.609375 509.28125 C 542.710938 509.703125 542.867188 510.101562 543.082031 510.476562 C 543.296875 510.847656 543.558594 511.1875 543.871094 511.484375 L 557.914062 524.691406 C 561.007812 517.832031 563.480469 510.757812 565.324219 503.460938 C 567.167969 496.167969 568.359375 488.769531 568.894531 481.261719 L 569.019531 479.753906 Z M 542.488281 472.546875 L 535.570312 492.246094 C 535.492188 492.472656 535.398438 492.695312 535.289062 492.914062 C 535.183594 493.128906 535.0625 493.335938 534.929688 493.539062 C 534.796875 493.738281 534.652344 493.933594 534.496094 494.117188 C 534.335938 494.300781 534.167969 494.472656 533.992188 494.632812 C 533.8125 494.796875 533.625 494.945312 533.425781 495.085938 C 533.230469 495.222656 533.023438 495.351562 532.8125 495.464844 C 532.597656 495.578125 532.378906 495.675781 532.152344 495.761719 C 531.925781 495.847656 531.695312 495.917969 531.460938 495.976562 C 531.226562 496.035156 530.992188 496.074219 530.75 496.105469 C 530.511719 496.132812 530.269531 496.144531 530.027344 496.140625 C 529.785156 496.136719 529.546875 496.121094 529.308594 496.089844 C 529.066406 496.054688 528.832031 496.007812 528.597656 495.945312 C 528.367188 495.882812 528.136719 495.808594 527.914062 495.71875 C 527.6875 495.628906 527.472656 495.523438 527.261719 495.40625 C 527.050781 495.289062 526.847656 495.15625 526.652344 495.015625 C 526.457031 494.871094 526.273438 494.71875 526.097656 494.550781 L 496.796875 466.96875 C 496.335938 466.53125 495.945312 466.039062 495.628906 465.492188 C 495.308594 464.941406 495.074219 464.359375 494.921875 463.742188 C 494.769531 463.125 494.707031 462.5 494.734375 461.867188 C 494.761719 461.230469 494.875 460.613281 495.082031 460.011719 L 508.453125 422.035156 C 508.644531 421.535156 508.902344 421.070312 509.222656 420.640625 C 509.542969 420.214844 509.917969 419.835938 510.339844 419.511719 C 510.765625 419.1875 511.226562 418.925781 511.726562 418.726562 C 512.222656 418.527344 512.738281 418.402344 513.269531 418.347656 L 514.445312 422.410156 C 514.15625 422.316406 513.863281 422.300781 513.5625 422.371094 C 512.996094 422.523438 512.605469 422.871094 512.390625 423.417969 L 499.0625 461.394531 C 498.898438 461.835938 498.867188 462.285156 498.976562 462.742188 C 499.082031 463.199219 499.308594 463.589844 499.648438 463.910156 L 528.949219 491.535156 C 529.148438 491.726562 529.382812 491.855469 529.652344 491.925781 C 529.921875 491.992188 530.191406 491.988281 530.457031 491.910156 C 531.039062 491.773438 531.429688 491.425781 531.628906 490.863281 L 538.460938 471.453125 Z M 462.929688 590.960938 L 433.628906 563.335938 C 433.402344 563.125 433.152344 562.945312 432.882812 562.792969 C 432.609375 562.644531 432.324219 562.53125 432.027344 562.453125 C 431.726562 562.371094 431.421875 562.332031 431.109375 562.328125 C 430.800781 562.324219 430.496094 562.359375 430.195312 562.433594 C 429.894531 562.503906 429.605469 562.613281 429.332031 562.757812 C 429.054688 562.902344 428.804688 563.078125 428.574219 563.285156 C 428.34375 563.492188 428.140625 563.722656 427.96875 563.980469 C 427.792969 564.238281 427.65625 564.511719 427.550781 564.804688 L 415.3125 599.511719 C 423.179688 600.964844 431.117188 601.691406 439.121094 601.691406 C 447.050781 601.703125 454.917969 600.992188 462.71875 599.554688 L 464.101562 595.65625 C 464.242188 595.25 464.320312 594.832031 464.335938 594.402344 C 464.355469 593.972656 464.3125 593.550781 464.207031 593.136719 C 464.101562 592.71875 463.941406 592.324219 463.722656 591.957031 C 463.507812 591.585938 463.242188 591.253906 462.929688 590.960938 Z M 360.777344 543.886719 L 339.988281 524.3125 L 323.722656 531.773438 C 327.566406 539.082031 332.054688 545.964844 337.191406 552.429688 C 342.332031 558.894531 348.027344 564.820312 354.28125 570.210938 L 361.90625 548.582031 C 362.046875 548.179688 362.128906 547.761719 362.152344 547.335938 C 362.171875 546.90625 362.132812 546.484375 362.03125 546.070312 C 361.933594 545.652344 361.773438 545.257812 361.5625 544.886719 C 361.347656 544.515625 361.085938 544.183594 360.777344 543.886719 Z M 422.980469 547.15625 L 409.609375 585.175781 C 409.53125 585.402344 409.4375 585.625 409.332031 585.84375 C 409.222656 586.058594 409.101562 586.269531 408.96875 586.46875 C 408.835938 586.671875 408.691406 586.863281 408.535156 587.046875 C 408.378906 587.230469 408.210938 587.402344 408.03125 587.566406 C 407.851562 587.726562 407.664062 587.878906 407.464844 588.015625 C 407.269531 588.15625 407.0625 588.28125 406.851562 588.394531 C 406.636719 588.507812 406.417969 588.605469 406.191406 588.691406 C 405.964844 588.777344 405.734375 588.851562 405.5 588.90625 C 405.265625 588.964844 405.027344 589.007812 404.789062 589.035156 C 404.550781 589.0625 404.308594 589.074219 404.066406 589.070312 C 403.824219 589.070312 403.585938 589.050781 403.347656 589.019531 C 403.105469 588.984375 402.871094 588.9375 402.636719 588.878906 C 402.402344 588.816406 402.175781 588.738281 401.953125 588.648438 C 401.726562 588.558594 401.511719 588.453125 401.300781 588.335938 C 401.089844 588.21875 400.886719 588.089844 400.691406 587.945312 C 400.496094 587.800781 400.3125 587.648438 400.136719 587.480469 L 370.835938 559.898438 C 370.375 559.464844 369.984375 558.972656 369.667969 558.421875 C 369.347656 557.871094 369.113281 557.289062 368.964844 556.671875 C 368.816406 556.050781 368.757812 555.425781 368.792969 554.792969 C 368.824219 554.15625 368.949219 553.539062 369.160156 552.941406 L 382.488281 514.964844 C 382.667969 514.523438 382.898438 514.113281 383.175781 513.726562 C 383.457031 513.339844 383.773438 512.992188 384.136719 512.683594 C 384.496094 512.371094 384.886719 512.109375 385.3125 511.890625 C 385.734375 511.675781 386.175781 511.507812 386.640625 511.398438 C 387.101562 511.285156 387.570312 511.226562 388.046875 511.226562 C 388.519531 511.226562 388.988281 511.277344 389.453125 511.386719 C 389.914062 511.5 390.359375 511.660156 390.785156 511.875 C 391.207031 512.089844 391.601562 512.351562 391.964844 512.660156 L 421.304688 540.28125 C 421.761719 540.714844 422.148438 541.199219 422.464844 541.742188 C 422.78125 542.285156 423.011719 542.863281 423.164062 543.472656 C 423.3125 544.082031 423.371094 544.699219 423.339844 545.328125 C 423.308594 545.953125 423.191406 546.566406 422.980469 547.15625 Z M 418.453125 543.34375 L 389.113281 515.71875 C 388.679688 515.324219 388.179688 515.183594 387.605469 515.300781 C 387.039062 515.449219 386.664062 515.796875 386.472656 516.347656 L 373.101562 554.324219 C 372.9375 554.765625 372.910156 555.214844 373.015625 555.671875 C 373.121094 556.128906 373.347656 556.519531 373.6875 556.839844 L 403.03125 584.464844 C 403.449219 584.855469 403.9375 584.980469 404.496094 584.839844 C 404.773438 584.789062 405.019531 584.667969 405.230469 584.480469 C 405.441406 584.292969 405.585938 584.0625 405.671875 583.792969 L 419.042969 545.773438 C 419.179688 545.347656 419.199219 544.914062 419.09375 544.476562 C 418.988281 544.039062 418.773438 543.660156 418.453125 543.34375 Z M 514.066406 266.398438 C 507.359375 263.546875 499.105469 266.898438 492.859375 274.152344 C 495.214844 273.367188 497.636719 272.90625 500.117188 272.769531 C 502.601562 272.636719 505.058594 272.828125 507.488281 273.355469 C 510.636719 273.996094 513.582031 275.160156 516.320312 276.847656 C 519.058594 278.53125 521.425781 280.636719 523.414062 283.164062 C 523.164062 275.28125 519.894531 268.828125 514.066406 266.398438 Z M 483.800781 441.441406 C 482.710938 443.75 481.246094 445.789062 479.414062 447.5625 C 477.582031 449.339844 475.496094 450.734375 473.15625 451.753906 L 356.503906 502.640625 L 359.898438 514.460938 L 471.226562 465.921875 C 472.179688 465.507812 473.097656 465.027344 473.980469 464.476562 C 474.859375 463.929688 475.695312 463.316406 476.488281 462.644531 C 477.277344 461.972656 478.015625 461.246094 478.699219 460.460938 C 479.382812 459.679688 480.003906 458.851562 480.5625 457.976562 C 481.125 457.105469 481.617188 456.191406 482.042969 455.246094 C 482.46875 454.300781 482.820312 453.324219 483.101562 452.324219 C 483.386719 451.328125 483.589844 450.3125 483.722656 449.28125 C 483.855469 448.25 483.910156 447.21875 483.886719 446.179688 Z M 496.085938 358.699219 C 492.390625 360.34375 488.519531 361.207031 484.472656 361.296875 L 484.726562 375.339844 C 489.996094 374.726562 494.886719 373.023438 499.398438 370.226562 Z M 280.503906 417.296875 L 286.292969 436.621094 L 301.339844 412.6875 Z M 280.503906 417.296875 " fill-opacity="1" fill-rule="nonzero"/></svg>