<svg xmlns="http://www.w3.org/2000/svg" xmlns:xlink="http://www.w3.org/1999/xlink" width="1080" zoomAndPan="magnify" viewBox="0 0 810 809.999993" height="1080" preserveAspectRatio="xMidYMid meet" version="1.0"><defs><clipPath id="6a83579e39"><path d="M 67.5 49 L 742.5 49 L 742.5 724 L 67.5 724 Z M 67.5 49 " clip-rule="nonzero"/></clipPath><clipPath id="76654db371"><path d="M 268 117 L 742.5 117 L 742.5 534 L 268 534 Z M 268 117 " clip-rule="nonzero"/></clipPath></defs><g clip-path="url(#6a83579e39)"><path fill="#ffde59" d="M 742.457031 386.417969 C 742.480469 399.152344 741.78125 411.847656 740.355469 424.503906 C 738.933594 437.15625 736.796875 449.691406 733.945312 462.101562 C 731.09375 474.511719 727.546875 486.722656 723.304688 498.730469 C 719.0625 510.734375 714.152344 522.460938 708.570312 533.910156 C 708.40625 534.285156 708.199219 534.65625 708.03125 535.03125 C 707.742188 535.652344 707.410156 536.273438 707.121094 536.855469 C 701.789062 547.636719 695.871094 558.089844 689.367188 568.210938 C 679.621094 583.457031 668.699219 597.808594 656.601562 611.265625 C 653.738281 614.5 650.835938 617.609375 647.808594 620.722656 L 647.558594 620.96875 C 645.320312 623.292969 643.039062 625.613281 640.714844 627.855469 C 638.890625 629.636719 637.066406 631.378906 635.199219 633.121094 C 633.664062 634.617188 632.046875 636.066406 630.472656 637.476562 C 626.199219 641.375 621.761719 645.109375 617.28125 648.800781 L 617.242188 648.800781 C 613.113281 652.136719 608.910156 655.375 604.632812 658.511719 C 600.351562 661.652344 596.003906 664.6875 591.578125 667.621094 C 587.15625 670.554688 582.667969 673.378906 578.113281 676.101562 C 573.558594 678.824219 568.9375 681.4375 564.261719 683.9375 C 559.582031 686.441406 554.84375 688.835938 550.054688 691.113281 C 545.261719 693.394531 540.417969 695.558594 535.523438 697.613281 C 530.628906 699.664062 525.691406 701.597656 520.707031 703.417969 C 515.71875 705.234375 510.695312 706.933594 505.628906 708.515625 C 500.5625 710.097656 495.464844 711.558594 490.328125 712.898438 C 485.195312 714.242188 480.03125 715.460938 474.839844 716.554688 C 469.648438 717.652344 464.433594 718.628906 459.195312 719.480469 C 453.957031 720.328125 448.699219 721.058594 443.429688 721.660156 C 438.15625 722.261719 432.871094 722.742188 427.578125 723.09375 C 422.28125 723.449219 416.980469 723.679688 411.675781 723.78125 C 406.371094 723.886719 401.066406 723.863281 395.761719 723.71875 C 390.457031 723.570312 385.160156 723.300781 379.867188 722.902344 C 374.574219 722.507812 369.296875 721.984375 364.027344 721.339844 C 358.761719 720.695312 353.511719 719.925781 348.28125 719.03125 C 343.050781 718.136719 337.84375 717.121094 332.660156 715.984375 C 327.476562 714.84375 322.324219 713.582031 317.199219 712.199219 C 312.074219 710.820312 306.988281 709.316406 301.933594 707.695312 C 296.882812 706.070312 291.871094 704.332031 286.902344 702.472656 C 281.929688 700.613281 277.007812 698.640625 272.128906 696.546875 C 267.25 694.457031 262.425781 692.253906 257.652344 689.933594 C 252.878906 687.617188 248.164062 685.183594 243.503906 682.644531 C 238.847656 680.101562 234.25 677.453125 229.714844 674.695312 C 225.183594 671.9375 220.714844 669.074219 216.316406 666.105469 C 211.917969 663.136719 207.59375 660.066406 203.339844 656.894531 C 199.085938 653.71875 194.910156 650.449219 190.808594 647.078125 C 186.710938 643.707031 182.691406 640.242188 178.757812 636.683594 C 174.820312 633.125 170.972656 629.476562 167.207031 625.734375 C 163.445312 621.992188 159.769531 618.164062 156.1875 614.25 C 155.691406 613.710938 155.234375 613.214844 154.734375 612.675781 C 152.746094 610.515625 150.835938 608.320312 148.929688 606.078125 C 138.828125 594.328125 129.578125 581.941406 121.179688 568.917969 C 121.015625 568.628906 120.835938 568.355469 120.640625 568.085938 C 120.558594 567.921875 120.476562 567.839844 120.394531 567.671875 C 116.101562 560.949219 112.054688 554.082031 108.253906 547.070312 C 104.449219 540.058594 100.902344 532.917969 97.609375 525.65625 C 94.316406 518.390625 91.285156 511.015625 88.515625 503.535156 C 85.746094 496.054688 83.25 488.488281 81.019531 480.828125 C 78.789062 473.167969 76.835938 465.441406 75.15625 457.644531 C 73.476562 449.847656 72.078125 442 70.960938 434.101562 C 69.839844 426.203125 69.003906 418.277344 68.449219 410.320312 C 67.894531 402.363281 67.621094 394.394531 67.636719 386.417969 C 67.636719 200.066406 218.691406 49.007812 405.046875 49.007812 C 579.703125 49.007812 723.378906 181.734375 740.714844 351.828125 C 741.882812 363.328125 742.464844 374.859375 742.457031 386.417969 Z M 742.457031 386.417969 " fill-opacity="1" fill-rule="nonzero"/></g><path fill="#18b9cd" d="M 708.570312 533.910156 C 708.40625 534.285156 708.199219 534.65625 708.03125 535.03125 C 707.742188 535.652344 707.410156 536.273438 707.121094 536.855469 C 701.789062 547.636719 695.871094 558.089844 689.367188 568.210938 C 679.621094 583.457031 668.699219 597.808594 656.601562 611.265625 C 653.738281 614.5 650.835938 617.609375 647.808594 620.722656 L 647.558594 620.96875 C 645.320312 623.292969 643.039062 625.613281 640.714844 627.855469 C 638.890625 629.636719 637.066406 631.378906 635.199219 633.121094 C 633.664062 634.617188 632.046875 636.066406 630.472656 637.476562 C 626.199219 641.375 621.761719 645.109375 617.28125 648.800781 L 617.242188 648.800781 C 609.8125 654.832031 602.136719 660.535156 594.222656 665.914062 C 586.304688 671.289062 578.171875 676.316406 569.824219 680.996094 C 561.480469 685.675781 552.949219 689.992188 544.230469 693.941406 C 535.515625 697.890625 526.644531 701.464844 517.625 704.65625 C 508.601562 707.847656 499.460938 710.648438 490.199219 713.058594 C 480.9375 715.46875 471.59375 717.476562 462.160156 719.085938 C 452.726562 720.699219 443.242188 721.902344 433.707031 722.703125 C 424.167969 723.5 414.617188 723.890625 405.046875 723.871094 C 403.800781 723.871094 402.597656 723.871094 401.355469 723.832031 C 387.496094 723.710938 373.699219 722.730469 359.960938 720.886719 C 358.261719 720.679688 356.558594 720.429688 354.902344 720.140625 C 349.800781 719.394531 344.738281 718.523438 339.722656 717.570312 C 330.964844 715.828125 322.289062 713.746094 313.695312 711.320312 C 305.101562 708.894531 296.621094 706.132812 288.246094 703.03125 C 279.871094 699.933594 271.632812 696.507812 263.53125 692.757812 C 255.429688 689.007812 247.484375 684.941406 239.707031 680.5625 C 231.925781 676.183594 224.328125 671.5 216.917969 666.519531 C 209.511719 661.539062 202.308594 656.269531 195.316406 650.71875 C 188.324219 645.167969 181.5625 639.347656 175.03125 633.257812 C 168.496094 627.171875 162.21875 620.835938 156.1875 614.25 C 155.691406 613.710938 155.234375 613.214844 154.734375 612.675781 L 161.246094 603.34375 C 163.476562 599.113281 165.933594 595.023438 168.617188 591.070312 C 171.300781 587.113281 174.195312 583.320312 177.300781 579.6875 C 180.40625 576.054688 183.703125 572.605469 187.191406 569.339844 C 190.675781 566.070312 194.335938 563.007812 198.164062 560.144531 C 201.992188 557.285156 205.96875 554.644531 210.089844 552.226562 C 214.210938 549.804688 218.453125 547.621094 222.816406 545.671875 C 227.179688 543.726562 231.636719 542.023438 236.191406 540.570312 C 240.742188 539.117188 245.363281 537.921875 250.046875 536.980469 L 339.722656 518.980469 L 502.515625 486.335938 L 511.722656 484.511719 L 601.1875 466.550781 C 603.40625 466.105469 605.640625 465.75 607.886719 465.480469 C 610.136719 465.210938 612.390625 465.027344 614.652344 464.933594 C 616.914062 464.84375 619.175781 464.839844 621.4375 464.921875 C 623.699219 465.007812 625.953125 465.179688 628.199219 465.441406 C 630.449219 465.703125 632.683594 466.050781 634.902344 466.488281 C 637.125 466.925781 639.324219 467.449219 641.503906 468.058594 C 643.683594 468.667969 645.835938 469.359375 647.960938 470.140625 C 650.085938 470.917969 652.179688 471.777344 654.238281 472.71875 C 656.292969 473.664062 658.3125 474.683594 660.289062 475.785156 C 662.265625 476.886719 664.199219 478.0625 666.082031 479.316406 C 667.96875 480.566406 669.800781 481.890625 671.582031 483.289062 C 673.363281 484.683594 675.089844 486.148438 676.753906 487.679688 C 678.421875 489.210938 680.023438 490.804688 681.566406 492.464844 C 683.109375 494.121094 684.582031 495.835938 685.988281 497.609375 C 687.394531 499.382812 688.730469 501.207031 689.992188 503.085938 C 691.257812 504.964844 692.445312 506.886719 693.558594 508.859375 Z M 708.570312 533.910156 " fill-opacity="1" fill-rule="nonzero"/><path fill="#f47e53" d="M 549.386719 329.304688 C 546.761719 333.859375 543.847656 338.214844 540.644531 342.378906 C 537.441406 346.542969 533.976562 350.472656 530.25 354.175781 C 526.523438 357.878906 522.566406 361.316406 518.382812 364.492188 C 514.199219 367.667969 509.820312 370.554688 505.253906 373.148438 C 502.808594 375.136719 502.515625 374.929688 502.515625 384.554688 L 502.515625 486.378906 L 354.902344 720.140625 C 349.800781 719.394531 344.738281 718.523438 339.722656 717.570312 L 339.722656 496.996094 C 337.523438 496.375 335.324219 495.667969 333.125 494.882812 C 329.839844 493.722656 326.707031 492.25 323.71875 490.460938 C 320.730469 488.671875 317.949219 486.605469 315.375 484.257812 C 312.804688 481.910156 310.492188 479.328125 308.4375 476.515625 C 306.386719 473.703125 304.632812 470.714844 303.179688 467.546875 C 290.738281 440.796875 266.679688 389.28125 255.648438 365.640625 C 254.71875 363.667969 253.957031 361.632812 253.367188 359.535156 C 252.777344 357.4375 252.367188 355.304688 252.132812 353.136719 C 251.902344 350.96875 251.851562 348.796875 251.980469 346.621094 C 252.109375 344.445312 252.421875 342.296875 252.910156 340.171875 C 254.527344 332.914062 256.144531 325.613281 257.640625 318.316406 C 256.171875 312.492188 255.03125 306.605469 254.21875 300.652344 C 253.410156 294.703125 252.933594 288.726562 252.789062 282.71875 C 252.648438 276.714844 252.839844 270.722656 253.367188 264.738281 C 253.890625 258.757812 254.75 252.824219 255.941406 246.9375 C 257.128906 241.046875 258.644531 235.246094 260.480469 229.527344 C 262.320312 223.8125 264.46875 218.214844 266.933594 212.734375 C 269.394531 207.257812 272.15625 201.933594 275.214844 196.765625 C 278.269531 191.59375 281.605469 186.613281 285.222656 181.816406 C 296.722656 171.082031 309.59375 162.371094 323.835938 155.6875 C 350.628906 143.449219 383.394531 141.875 408.902344 156.640625 C 425.703125 166.386719 438.351562 182.644531 445.277344 200.8125 C 452.207031 218.980469 453.65625 238.96875 451.167969 258.257812 C 449.59375 270.535156 446.441406 282.605469 445.652344 294.921875 C 445.21875 300.914062 445.578125 306.859375 446.730469 312.757812 C 448.058594 319.394531 457.140625 320.347656 459.546875 314.042969 C 467.800781 292.847656 481.320312 271.652344 501.6875 260.207031 C 511.558594 254.648438 523.460938 251.414062 534.371094 254.566406 C 548.472656 258.589844 558.09375 272.773438 559.878906 287.375 C 561.621094 301.933594 556.683594 316.613281 549.386719 329.304688 Z M 549.386719 329.304688 " fill-opacity="1" fill-rule="nonzero"/><g clip-path="url(#76654db371)"><path fill="#242156" d="M 742.457031 386.417969 C 742.480469 399.152344 741.78125 411.847656 740.355469 424.503906 C 738.933594 437.15625 736.796875 449.691406 733.945312 462.101562 C 731.09375 474.511719 727.546875 486.722656 723.304688 498.730469 C 719.0625 510.734375 714.152344 522.460938 708.570312 533.910156 L 693.558594 508.859375 C 692.445312 506.886719 691.257812 504.964844 689.992188 503.085938 C 688.730469 501.207031 687.394531 499.382812 685.988281 497.609375 C 684.582031 495.835938 683.109375 494.121094 681.566406 492.464844 C 680.023438 490.804688 678.421875 489.210938 676.753906 487.679688 C 675.089844 486.148438 673.363281 484.683594 671.582031 483.289062 C 669.800781 481.890625 667.96875 480.566406 666.082031 479.316406 C 664.199219 478.0625 662.265625 476.886719 660.289062 475.785156 C 658.3125 474.683594 656.292969 473.664062 654.238281 472.71875 C 652.179688 471.777344 650.085938 470.917969 647.960938 470.140625 C 645.835938 469.359375 643.683594 468.667969 641.503906 468.058594 C 639.324219 467.449219 637.125 466.925781 634.902344 466.488281 C 632.683594 466.050781 630.449219 465.703125 628.199219 465.441406 C 625.953125 465.179688 623.699219 465.007812 621.4375 464.921875 C 619.175781 464.839844 616.914062 464.84375 614.652344 464.933594 C 612.390625 465.027344 610.136719 465.210938 607.886719 465.480469 C 605.640625 465.75 603.40625 466.105469 601.1875 466.550781 L 502.515625 486.335938 L 502.515625 384.554688 C 502.515625 374.929688 502.808594 375.136719 505.253906 373.148438 C 509.820312 370.554688 514.199219 367.667969 518.382812 364.492188 C 522.566406 361.316406 526.523438 357.878906 530.25 354.175781 C 533.976562 350.472656 537.441406 346.542969 540.644531 342.378906 C 543.847656 338.214844 546.761719 333.859375 549.386719 329.308594 C 556.683594 316.613281 561.621094 301.933594 559.878906 287.375 C 559.753906 286.296875 559.546875 285.175781 559.339844 284.097656 C 559.046875 282.535156 558.644531 281 558.136719 279.492188 C 557.804688 278.375 557.390625 277.292969 556.976562 276.257812 C 556.726562 275.589844 556.4375 274.941406 556.105469 274.308594 C 556.066406 274.191406 556.011719 274.078125 555.9375 273.976562 C 555.578125 273.179688 555.175781 272.40625 554.734375 271.652344 C 554.3125 270.835938 553.84375 270.046875 553.324219 269.289062 C 552.828125 268.5 552.289062 267.753906 551.75 267.007812 C 550.703125 265.59375 549.554688 264.265625 548.304688 263.027344 C 547.851562 262.570312 547.394531 262.113281 546.894531 261.699219 C 546.160156 260.988281 545.386719 260.328125 544.574219 259.707031 C 543.976562 259.257812 543.355469 258.839844 542.707031 258.464844 C 542.664062 258.382812 542.625 258.339844 542.542969 258.339844 C 542.0625 258.003906 541.5625 257.703125 541.046875 257.425781 C 540.726562 257.199219 540.382812 257.019531 540.011719 256.886719 C 539.585938 256.597656 539.132812 256.378906 538.640625 256.226562 C 538.574219 256.117188 538.476562 256.0625 538.351562 256.058594 C 537.0625 255.457031 535.738281 254.957031 534.371094 254.566406 C 523.460938 251.414062 511.558594 254.648438 501.6875 260.207031 C 481.320312 271.652344 467.800781 292.847656 459.546875 314.042969 C 457.140625 320.347656 448.058594 319.394531 446.730469 312.757812 C 445.578125 306.859375 445.21875 300.914062 445.652344 294.921875 C 446.441406 282.605469 449.59375 270.535156 451.167969 258.257812 C 453.65625 238.96875 452.207031 218.980469 445.277344 200.8125 C 438.351562 182.644531 425.703125 166.386719 408.902344 156.640625 C 383.394531 141.875 350.628906 143.449219 323.835938 155.683594 C 309.59375 162.371094 296.722656 171.082031 285.222656 181.816406 C 287.5 178.800781 289.882812 175.867188 292.367188 173.019531 C 294.851562 170.171875 297.433594 167.414062 300.113281 164.746094 C 302.792969 162.078125 305.5625 159.511719 308.421875 157.039062 C 311.285156 154.566406 314.226562 152.199219 317.253906 149.9375 C 320.28125 147.671875 323.386719 145.519531 326.566406 143.472656 C 329.746094 141.429688 332.992188 139.5 336.308594 137.683594 C 339.621094 135.867188 343 134.167969 346.433594 132.589844 C 349.867188 131.011719 353.355469 129.558594 356.890625 128.226562 C 360.429688 126.894531 364.011719 125.6875 367.632812 124.605469 C 371.253906 123.527344 374.910156 122.574219 378.601562 121.753906 C 382.289062 120.929688 386.003906 120.238281 389.742188 119.679688 C 393.480469 119.117188 397.234375 118.691406 401.003906 118.394531 C 404.773438 118.097656 408.546875 117.933594 412.328125 117.90625 C 416.105469 117.875 419.882812 117.980469 423.65625 118.214844 C 427.429688 118.453125 431.1875 118.820312 434.933594 119.320312 C 438.683594 119.824219 442.40625 120.457031 446.109375 121.21875 C 449.8125 121.984375 453.480469 122.875 457.121094 123.898438 C 460.761719 124.921875 464.359375 126.070312 467.917969 127.347656 C 471.476562 128.625 474.984375 130.023438 478.445312 131.546875 C 481.902344 133.070312 485.304688 134.714844 488.648438 136.476562 C 491.992188 138.242188 495.269531 140.121094 498.480469 142.113281 C 501.691406 144.109375 504.828125 146.214844 507.894531 148.429688 C 510.957031 150.644531 513.9375 152.964844 516.835938 155.390625 C 519.734375 157.816406 522.546875 160.339844 525.265625 162.964844 C 527.988281 165.589844 530.613281 168.304688 533.144531 171.113281 C 535.671875 173.921875 538.101562 176.816406 540.425781 179.796875 C 542.753906 182.777344 544.972656 185.835938 547.082031 188.972656 C 549.191406 192.109375 551.1875 195.316406 553.074219 198.59375 C 554.957031 201.867188 556.722656 205.207031 558.375 208.609375 C 560.023438 212.011719 561.550781 215.46875 562.953125 218.976562 C 564.359375 222.484375 565.640625 226.039062 566.792969 229.640625 C 567.949219 233.238281 568.976562 236.875 569.875 240.546875 C 569.875 240.628906 569.914062 240.710938 569.914062 240.796875 C 570.207031 241.914062 570.457031 243.035156 570.703125 244.238281 C 570.953125 245.523438 571.242188 246.851562 571.492188 248.179688 C 571.78125 249.546875 572.074219 250.957031 572.28125 252.367188 C 575.722656 270.90625 579.703125 294.882812 592.519531 310.269531 C 597.914062 316.738281 605.128906 322.296875 613.507812 323.003906 C 626.199219 324.121094 636.859375 314.210938 645.320312 304.710938 C 653.738281 295.210938 663.195312 284.59375 675.886719 283.597656 C 684.890625 282.9375 693.722656 287.582031 699.902344 294.175781 C 706.082031 300.8125 709.980469 309.230469 713.132812 317.691406 C 715.621094 324.371094 717.820312 331.214844 721.59375 337.230469 C 722.671875 338.980469 723.902344 340.617188 725.28125 342.144531 C 726.660156 343.667969 728.167969 345.054688 729.800781 346.304688 C 731.433594 347.550781 733.167969 348.640625 735.003906 349.566406 C 736.839844 350.496094 738.742188 351.25 740.714844 351.828125 C 741.882812 363.328125 742.464844 374.859375 742.457031 386.417969 Z M 350.171875 303.035156 C 354.753906 303.035156 358.46875 297 358.46875 289.554688 C 358.46875 282.109375 354.753906 276.074219 350.171875 276.074219 C 345.589844 276.074219 341.878906 282.109375 341.878906 289.554688 C 341.878906 297 345.589844 303.035156 350.171875 303.035156 Z M 276.925781 303.035156 C 281.507812 303.035156 285.222656 297 285.222656 289.554688 C 285.222656 282.109375 281.507812 276.074219 276.925781 276.074219 C 272.34375 276.074219 268.628906 282.109375 268.628906 289.554688 C 268.628906 297 272.34375 303.035156 276.925781 303.035156 Z M 317.363281 360.457031 L 301.777344 360.457031 C 301.488281 360.457031 301.203125 360.425781 300.921875 360.363281 C 300.636719 360.304688 300.367188 360.214844 300.101562 360.09375 C 299.839844 359.976562 299.59375 359.832031 299.359375 359.660156 C 299.128906 359.488281 298.917969 359.296875 298.726562 359.078125 C 298.535156 358.863281 298.371094 358.628906 298.230469 358.378906 C 298.085938 358.125 297.976562 357.863281 297.890625 357.585938 C 297.804688 357.3125 297.75 357.03125 297.726562 356.742188 C 297.699219 356.453125 297.707031 356.167969 297.742188 355.882812 L 307.410156 278.996094 C 307.449219 278.71875 307.429688 278.441406 307.363281 278.171875 C 307.292969 277.898438 307.179688 277.648438 307.015625 277.421875 C 306.851562 277.191406 306.648438 277.003906 306.414062 276.851562 C 306.175781 276.703125 305.921875 276.601562 305.644531 276.546875 C 305.371094 276.496094 305.09375 276.492188 304.820312 276.546875 C 304.542969 276.597656 304.285156 276.699219 304.050781 276.851562 C 303.8125 277 303.613281 277.191406 303.449219 277.417969 C 303.285156 277.644531 303.167969 277.894531 303.097656 278.164062 L 282.601562 356.671875 C 282.289062 357.871094 282.246094 359.078125 282.46875 360.296875 C 282.695312 361.515625 283.171875 362.625 283.894531 363.632812 L 296.917969 381.773438 C 297.117188 382.054688 297.347656 382.3125 297.609375 382.542969 C 297.867188 382.773438 298.148438 382.972656 298.453125 383.140625 C 298.757812 383.308594 299.074219 383.4375 299.40625 383.535156 C 299.742188 383.628906 300.082031 383.6875 300.425781 383.707031 C 300.773438 383.730469 301.117188 383.710938 301.457031 383.652344 C 301.800781 383.59375 302.132812 383.5 302.453125 383.371094 C 302.773438 383.238281 303.074219 383.074219 303.359375 382.875 C 303.644531 382.675781 303.902344 382.445312 304.132812 382.1875 L 319.523438 365.433594 C 319.925781 365.003906 320.179688 364.496094 320.28125 363.917969 C 320.378906 363.335938 320.3125 362.777344 320.078125 362.234375 C 319.84375 361.695312 319.480469 361.261719 318.988281 360.9375 C 318.496094 360.617188 317.953125 360.453125 317.363281 360.457031 Z M 377.839844 502.222656 C 374.726562 502.222656 371.617188 502.140625 368.546875 501.933594 C 358.753906 501.367188 349.144531 499.722656 339.722656 496.996094 L 339.722656 519.144531 C 349.132812 519.832031 358.519531 519.582031 367.882812 518.398438 C 385.21875 516.53125 414.125 511.894531 434.007812 493.257812 C 434.335938 492.945312 434.597656 492.582031 434.792969 492.175781 C 434.984375 491.765625 435.101562 491.335938 435.136719 490.886719 C 435.175781 490.4375 435.128906 489.992188 435.003906 489.558594 C 434.878906 489.125 434.679688 488.726562 434.40625 488.367188 C 434.132812 488.003906 433.804688 487.703125 433.421875 487.464844 C 433.039062 487.222656 432.625 487.058594 432.183594 486.96875 C 431.738281 486.882812 431.292969 486.875 430.847656 486.953125 C 430.402344 487.027344 429.984375 487.179688 429.59375 487.410156 C 425.726562 489.804688 421.710938 491.925781 417.550781 493.765625 C 413.386719 495.609375 409.121094 497.15625 404.746094 498.40625 C 400.367188 499.660156 395.929688 500.605469 391.421875 501.246094 C 386.917969 501.882812 382.390625 502.210938 377.839844 502.222656 Z M 539.679688 279.367188 C 530.140625 269.789062 514.835938 269.042969 503.015625 276.753906 C 507.550781 276.78125 512.03125 277.300781 516.453125 278.316406 C 520.875 279.332031 525.132812 280.816406 529.226562 282.769531 C 535.980469 285.863281 541.996094 290.023438 547.269531 295.253906 C 546.949219 292.25 546.140625 289.386719 544.839844 286.660156 C 543.535156 283.933594 541.816406 281.503906 539.679688 279.367188 Z M 539.679688 279.367188 " fill-opacity="1" fill-rule="nonzero"/></g><path fill="#56317e" d="M 332.171875 715.992188 L 289.949219 649.132812 L 339.722656 570.328125 L 339.722656 717.570312 M 511.722656 484.511719 L 502.515625 486.335938 L 354.902344 720.140625 C 356.558594 720.429688 358.261719 720.679688 359.960938 720.886719 C 373.699219 722.730469 387.496094 723.710938 401.355469 723.832031 L 524.085938 638.429688 Z M 511.722656 484.511719 " fill-opacity="1" fill-rule="nonzero"/></svg>