<?xml version="1.0" encoding="utf-8"?>
<!-- Generator: Adobe Illustrator 27.5.0, SVG Export Plug-In . SVG Version: 6.00 Build 0)  -->
<svg version="1.1" xmlns="http://www.w3.org/2000/svg" xmlns:xlink="http://www.w3.org/1999/xlink" x="0px" y="0px"
	 viewBox="0 0 500 500" style="enable-background:new 0 0 500 500;" xml:space="preserve">
<g id="BACKGROUND">
	<rect style="fill:#FFFFFF;" width="500" height="500"/>
	<path style="fill:#9E7AD6;" d="M400.179,402.559c29.029-17.841,53.952-43.877,65.542-75.919
		c16.444-45.462,4.195-96.875-18.402-139.613c-28.591-54.075-74.435-99.828-130.851-123.466
		c-56.416-23.638-123.346-23.715-177.64,4.457C69.633,103.921,27.518,185.906,38.633,263.064
		c3.857,26.773,14.893,54.433,37.653,69.052c17.094,10.979,38.255,13.08,57.27,20.233c9.173,3.45,18.067,8.734,24.864,15.863
		c6.763,7.094,8.294,16.345,14.09,23.744c9.974,12.734,31.379,20.518,46.029,26.101c37.457,14.274,79.081,17.452,118.318,9.347
		C359.171,422.794,380.751,414.499,400.179,402.559z"/>
</g>
<g id="OBJECTS">
	<path d="M350.661,456.117c-0.904-1.127-2.108-2.074-2.849-3.278c-3.327-5.406-6.621-10.833-9.737-16.346
		c-0.97-1.716-1.683-3.689-1.922-5.609c-0.856-6.894-1.356-13.827-2.181-20.725c-1.385-11.577-4.181-22.898-7.366-34.147
		c-0.353-1.248-0.185-2.749,0.175-4.026c1.206-4.276,0.497-6.481-3.203-9.223c-0.641-0.475-1.119-1.142-1.694-1.743
		c4.302-2.846,4.581-3.651,2.435-7.834c-1.216-2.369-1.932-4.654-1.068-7.341c0.41-1.275,0.243-2.874-0.17-4.187
		c-1.796-5.706-3.51-11.458-5.818-16.988c-0.99-2.372-1.609-4.52-0.93-6.905c0.89-3.126,0.569-6.191-0.248-9.249
		c-0.734-2.75-1.709-5.452-2.288-8.227c-1.129-5.411-2.208-10.84-3.017-16.299c-0.608-4.102-0.713-8.267-1.121-12.397
		c-0.065-0.66-0.305-1.301-0.73-1.81c-3.262-3.908-3.29-8.734-4.255-13.257c-0.282-1.32,0.182-3.19,1.077-4.232
		c1.824-2.123,1.75-4.249,0.672-6.352c-1.27-2.479-2.933-4.793-4.535-7.11c-2.422-3.505-3.495-7.847-2.618-12.017
		c0.809-3.845-0.032-7.208-2.895-10.081c-2.378-2.387-3.57-5.193-4.329-8.274c-1.405-5.704-3.528-11.131-7.139-15.996
		c-0.751-1.011-1.169-2.236-1.779-3.438c2.81-2.932,5.452-5.689,8.622-8.997c0.758,2.929,1.191,4.986,1.833,6.984
		c0.875,2.727,1.564,3.087,4.78,2.98c0.551-4.911,1.128-9.809,1.626-14.714c0.084-0.827-0.122-1.691-0.272-2.526
		c-1.03-5.754,2.419-9.181,7.204-12.318c1.82,2.875,1.48,5.688,0.995,8.455c-0.564,3.215-1.396,6.389-1.973,9.602
		c-0.221,1.231-0.409,2.641,0.029,3.75c0.414,1.048,1.57,2.381,2.581,2.53c0.965,0.143,2.405-0.887,3.187-1.754
		c0.729-0.808,1.049-2.053,1.233-3.151c0.98-5.868,2.479-11.681,1.808-17.719c-0.296-2.667-0.164-5.382-0.125-8.074
		c0.049-3.427,1.264-6.322,4.387-8.436c0.917-0.621,1.986-1.726,2.041-2.658c0.264-4.485,1.001-9.143-1.832-13.204
		c-1.814-2.601-3.993-4.987-6.103-7.398c-1.72-1.965-3.793-3.686-5.34-5.754c-7.742-10.351-15.307-20.818-23.062-31.161
		c-1.207-1.609-3.792-5.527-3.479-6.291c0.221-0.538,0.169-1.203,0.12-1.801c-0.456-5.511,0.547-10.83,2.309-16.067
		c0.425-1.264,0.636-2.59,0.957-3.885c0.436-1.759,1.258-4.349,1.107-7.082c-0.146-2.655-0.961-5.674-2.75-7.574
		c-1.66-1.764-4.202,0.156-2.438,3.891c0.571,1.401,0.338,3.321,0.311,4.721c-0.08,4.199-2.179,7.834-4.41,7.315
		c-1.245,0.415-0.429-4.211-0.322-5.717c0.371-5.223-2.724-9.495-4.298-14.177c-0.397-1.182-1.325-2.246-2.865-1.985
		c-1.762,0.299-1.644,1.774-1.416,2.914c0.424,2.124,1.034,4.225,1.709,6.295c1.248,3.828,2.212,14.053-1.246,13.915
		c-1.868,0.692-1.738-6.738-2.283-9.407c-0.87-4.27-3.932-8.054-6.011-11.795c-0.464-0.834-1.201-1.632-2.022-2.168
		c-0.637-0.416-1.755-0.841-2.389-0.477c-2.859,1.643-0.073,6.227,1.116,7.982c3.357,4.952,3.573,10.518,4.293,16.009
		c0.106,0.809-0.203,3-0.452,3.038c-1.209-8.919-5.727-14.154-12.313-17.224c-1.543-0.719-3.467,1.102-3.113,2.767
		c0.074,0.348,0.627,1.752,0.836,2.102c0.807,1.351,1.878,2.566,2.848,3.832c0.889,1.159,2.092,2.197,2.635,3.481
		c1.139,2.689,1.941,5.503,2.871,8.269c0.461,1.371,0.233,1.88-1.582,2.93c-3.917-2.073-7.932,0.646-9.131-4.634
		c0.127-2.87-0.346-6.156-4.496-6.433c-1.044-0.07-1.409,2.548-1.344,3.339c0.944,7.039,1.719,9.944,4.083,12.182
		c2.043,1.934,5.958,2.652,10.266,7.374c5.841,6.404,11.212,8.529,14.526,8.646c0.435,0.115,1.102,0.553,1.074,0.571
		c0.892,1.005,25.985,35.938,31.68,44.799c0.954,1.485,1.01,2.56-0.194,3.776c-3.301,3.335-6.568,6.7-9.923,9.987
		c-0.587,0.575-1.556,1.213-2.31,1.174c-5.227-0.272-8.009,3.153-11.185,6.085c-1.247,1.151-2.637,2.273-4.177,3.026
		c-4.959,2.425-10.162,4.352-13.497,9.026c-2.743,3.845-8.815,4.156-12.094,0.546c-2.219-2.443-3.717-5.488-5.294-8.38
		c-0.374-0.686,0.099-1.874,0.406-2.765c1.293-3.753,2.831-7.44,3.957-11.234c0.67-2.257,1.196-4.202,3.853-5.311
		c1.359-0.568,2.441-2.144,3.162-3.479c0.355-0.657,0.651-1.348,0.905-2.05c3.267-9.015,2.959-11.408-4.014-14.39
		c0-1.777,2.231-0.648,2.694-2.18c0.81-2.678-0.26-3.392,0.041-5.96c0.351-3.005,1.054-3.244,2.108-7.623
		c0-2.595-4.823-4.007-5.312-4.176c0.905-2.007,1.811-4.501,2.798-6.69c-1.721,0.801-4.697-0.91-5.23-0.487
		c-1.709,1.355-1.287,2.416-4.089,1.677c-2.84-0.749-1.637-2.112-2.689-4.105c-0.131-0.249-0.28-0.676-0.35-0.948
		c-0.527-2.036-2.091-2.353-4.086-2.028c-1.407,0.229-2.824,0.404-4.41,0.628c-0.072-1.106-0.135-1.656-0.138-2.207
		c-0.007-1.388,0.447-3.061-1.497-3.589c-2.005-0.544-3.156,0.863-3.913,2.259c-0.803,1.481-1.246,3.133-1.965,5.023
		c-0.872-0.59-1.668-1.128-2.434-1.646c-1.172,0.717-2.337,1.429-3.644,2.228c-0.714-1.005-1.104-1.599-1.543-2.16
		c-0.477-0.608-0.999-1.186-1.577-1.865c-2.459,3.668-6.564,5.522-10.817,4.844c-2.841-0.453-4.734-0.23-6.136,2.728
		c-1.3,2.742-5.51,5.488-2.469,10.232c-1.162,1.453-5.489,0.245-6.842,1.527c-1.43,1.355-3.155,2.44-4.849,3.717
		c1.067,1.305,1.943,2.376,2.815,3.443c-1.721,1.626-3.252,3.073-4.518,4.269c1.423,1.875,3.272,3.257,3.359,4.729
		c0.084,1.416-1.655,2.925-2.652,4.488c1.406,1.241,3.773,0.679,4.607,3.031c0.72,2.031,0.02,3.483-0.408,5.208
		c-0.777,3.132,2.405,10.407,5.285,12.145c0.736,0.445,1.692,0.908,2.504,0.849c2.73-0.199,4.193,1.359,5.52,3.135
		c4.117,5.509,9.411,9.578,16.245,11.873c1.406,0.472,3.09,1.002,3.935,2.019c4.436,5.332,7.045,11.395,8.033,18.786
		c-2.584,0-4.664,0.035-6.743-0.009c-2.514-0.053-4.604,0.367-6.371,2.428c-1.609,1.876-3.844,2.681-6.835,2.477
		c-2.678-0.182-6.112,0.058-7.648,2.81c-1.249,2.238-3.253,4.192-4.176,6.255c-1.761,3.937-5.487,4.091-8.58,5.502
		c-0.743,0.339-2.258,0.025-2.951-0.513c-1.946-1.508-3.906-3.116-5.378-5.01c-1.681-2.164-2.771-4.719-4.241-7.036
		c-6.194-9.758-12.31-19.563-18.726-29.194c-2.129-3.196-1.693-5.905,0.44-8.566c1.717-2.143,3.841-4.002,5.771-5.998
		c4.26-4.406,5.724-6.968,4.866-16.142c0.178-3.341,1.042-6.378-1.656-5.991c-4.379,0.243-5.315,6.045-5.271,8.028
		c0.081,3.649-3.081,6.244-9.407,8.515c-1.921-8.005-2.684-14.384,0.73-22.625c0.656-1.584,1.979-3.304,2.433-4.947
		c0.34-1.232-0.298-3.867-1.977-4.498c-1.589-0.597-2.613,0.358-3.326,1.536c-3.061,5.056-4.023,7.666-6.05,12.126
		c-0.973,3.649-0.892,7.704-1.691,16.079c-0.445-0.907-0.642-1.291-0.823-1.681c-3.734-8.034-8.048-15.897-8.118-24.976
		c-0.011-1.401-0.176-2.873-0.677-4.175c-0.356-0.924-1.374-2.23-2.141-2.257c-0.888-0.031-2.378,1.007-2.629,1.838
		c-0.553,1.828-0.622,10.038-0.22,11.848c1.103,9.042,3.34,9.056,5.224,16.64c0.162,0.651,0.19,1.331,0.28,1.998
		c-0.258,0.159-0.516,0.319-0.774,0.478c-1.56-1.631-4.441-2.685-5.581-4.54c-2.029-3.298-2.753-3.879-4.562-7.298
		c-0.682-1.288,0.323-6.254-0.73-7.42c-1.703-1.885-3.493-0.556-3.954,0.519c-0.063,0.147-0.77,3.029,0.122,7.408
		c1.912,9.384,5.003,11.138,10.457,19.34c-4.31-0.221-6.686-1.54-9.91-3.547c-1.56-1.918-2.587-5.521-4.106-7.469
		c-0.097-0.125-0.195-0.251-0.296-0.377c-1.452-1.801-4.309-0.138-3.482,2.022l0.011,0.028c2.952,7.555,4.65,11.695,11.705,14.25
		c5.23,2.189,9.167,5.798,11.089,8.174c1.621,2.004,3.703,3.758,5.85,5.297c1.693,1.213,2.691,2.561,3.097,4.479
		c0.338,1.595,0.641,11.695,1.211,13.514c1.502-0.705,1.141-10.498,2.271-11.028c3.681,8.359,8.928,17.22,12.42,25.34
		c0.494,1.148,0.517,2.485,0.672,3.744c0.259,2.11,0.296,4.256,0.728,6.332c0.244,1.173,0.776,2.741,1.725,3.255
		c2.79,1.511,3.552,4.079,4.878,6.453c2.521,4.514,5.161,8.983,8.013,13.321c2.159,3.285,5.53,4.124,9.538,3.275
		c4.474-0.947,8.809-2.153,12.76-4.412c1.262-0.721,2.69-1.191,3.92-1.723c4.465,4.024,5.598,4.147,10.307,0.918
		c1.829-1.254,3.427-2.798,5.177-4.157c0.739-0.574,1.6-1.011,2.324-1.46c1.786,1.534,0.72,4.789,4.443,4.686
		c0.668-1.511,1.329-3.008,2.148-4.863c0.583,0.884,1.141,1.41,1.301,2.026c1.001,3.846,2.09,7.683,2.802,11.579
		c0.633,3.466,0.101,7.54-2.534,9.538c-3.217,2.439-4.064,5.399-5.01,8.464c-0.734,0.353-1.29,0.587-1.811,0.877
		c-3.62,2.008-3.936,4.162-0.544,6.459c2.823,1.912,2.685,5.208,4.667,7.47c0.269,0.307-0.372,1.545-0.879,2.139
		c-0.548,0.641-1.47,0.991-2.165,1.538c-3.194,2.511-3.499,4.114-0.881,7.102c1.138,1.299,1.324,2.517,0.851,3.909
		c-0.809,2.383-0.785,4.565,0.208,7.011c0.617,1.521,0.339,3.726-0.384,5.283c-2.436,5.247-2.566,10.737-2.118,16.198
		c0.203,2.472-0.087,4.431-1.674,6.307c-0.942,1.113-2.063,2.152-2.721,3.4c-0.643,1.218-1.548,3.023-1.036,3.937
		c1.767,3.155,1.244,6.58,2.07,9.789c0.572,2.223,0.049,3.691-1.245,5.452c-2.752,3.743-2.219,6.916,1.724,9.55
		c2.027,1.354,4.542,2.075,7.122,3.207c0.747,4.084,1.398,8.432,2.354,12.721c3.035,13.618,5.266,27.331,6.28,41.217
		c0.651,8.908,1.446,17.808,2.24,26.706c0.255,2.856-1.043,5.159-3.332,6.632c-8.394,5.403-16.973,10.447-27.936,9.513
		c-1.267-0.108-2.959,0.714-3.909,1.608c-1.285,1.208-1.126,3.101,0.024,4.316c1.254,1.325,2.872,2.62,4.613,3.223
		c4.741,1.642,9.698,2.398,14.794,1.728c8.417-1.107,16.777-2.624,25.365-2.293c2.219,0.086,4.536-0.52,6.704-1.128
		c4.716-1.323,6.191-4.133,4.691-8.523c-0.322-0.943-0.692-1.884-1.17-2.765c-3.025-5.568-3.09-11.489-2.322-17.468
		c1.824-14.208,3.962-28.384,5.547-42.615c1.262-11.331,0.596-22.648-1.865-33.858c-0.683-3.11-0.832-6.321-1.226-9.486
		c1.591,0.322,2.313,1.018,3.158,1.543c1.439,0.893,2.967,1.424,4.699,0.554c1.877-0.944,2.404-2.487,2.225-4.297
		c-0.11-1.118-0.49-2.211-0.657-3.327c-0.712-4.753-1.508-9.5-2.005-14.274c-0.137-1.312,0.468-2.783,1.061-4.048
		c1.095-2.334,2.381-4.596,3.696-6.832c0.455-0.773,1.231-1.383,1.962-2.178c2.887,5.131,4.11,9.198,4.452,14.094
		c0.201,2.886-0.984,6.729,2.545,8.036c4.168,1.545,2.273,5.645,4.852,7.573c0.237,0.177,0.479,0.349,0.724,0.517
		c3.182,2.172,3.182,2.171,2.166,5.758c-0.233,0.822-0.443,1.651-0.693,2.469c-0.713,2.338-0.112,4.307,2.23,5.443
		c1.804,0.875,2.411,2.238,3.145,3.878c1.813,4.055,1.83,8.295,2.066,12.522c0.123,2.216,0.342,4.418,2.652,5.512
		c2.046,0.969,2.061,2.411,2.2,4.194c0.253,3.233,0.752,6.468,1.464,9.64c0.19,0.847,1.51,2.018,2.342,2.04
		c0.826,0.023,1.84-1.109,2.505-1.924c0.934-1.144,0.291-3.132,2.389-3.992c1.906,5.362,3.525,10.672,5.668,15.792
		c4.642,11.09,9.411,22.139,14.415,33.091c2.457,5.377,3.421,10.806,2.75,16.566c-0.237,2.037-0.482,3.851-3.071,4.636
		c-1.773,0.537-2.729,2.15-2.045,3.757c0.48,1.127,1.818,2.528,2.967,2.703c3.044,0.465,6.174,0.539,9.279,0.545
		c3.159,0.006,6.313-0.185,9.459-0.469c2.938-0.265,5.957-0.386,8.777-1.121C352.057,461.573,352.8,458.782,350.661,456.117z
		 M297.694,120.009c-5.999-9.184-11.751-18.509-17.54-27.811c-0.829-1.333-2.53-2.592-0.843-5.136
		c2.141,2.568,4.154,4.798,5.951,7.17c7.877,10.404,15.691,20.85,23.528,31.28c2.084,2.773,2.16,4.22,0.189,7.533
		c-0.974-0.674-2.134-1.165-2.806-1.997C303.251,127.432,300.212,123.865,297.694,120.009z M235.796,124.655
		c1.685,3.828,1.099,6.82-1.409,8.085c-2.366,1.194-4.224,0.318-6.296-2.969C230.121,126.996,230.121,126.996,235.796,124.655z
		 M223.158,135.286c1.524-0.508,3.419,0.208,4.609,1.482c0.907,0.971,0.002,2.54-1.302,2.283c-0.833-0.165-1.695-0.261-2.354-0.035
		c-0.764,0.262-1.418,0.707-1.977,1.137c-0.991,0.762-2.414-0.06-2.225-1.295C220.226,136.786,221.268,135.211,223.158,135.286z
		 M206.988,139.863c-0.54-0.479-1.188-1.032-1.361-1.654c-0.395-1.416-1.221-3.349-0.567-4.221c0.64-0.852,2.945-0.988,4.438-0.819
		c1.726,0.195,3.363,1.068,5.521,1.813c-0.349,1.555-0.395,2.723-0.873,3.707C212.837,141.384,209.313,141.926,206.988,139.863z
		 M235.971,148.869c-0.199,0.305-2.676-0.851-4.257-1.642c-0.973,1.521-1.026,2.456-2.554,3.224
		c-1.096,0.076-2.798-1.581-3.832-1.946c-0.426,0.791-1.77,2.979-2.27,3.545c-0.285-0.443-1.623,0.165-3.508-0.93
		c-0.182,1.521-1.819,3.697-4.865,3.284c0.228-2.453-0.721-5.903,2.444-4.968c0.477-0.576,1.083-2.573,1.301-3.187
		c0.938,0.249,2.535,0.713,3.431,1.162c0.689-0.777,0.742-1.352,1.77-2.966c1.313,0.643,3.061,1.282,4.023,1.609
		c0.606-0.722,1.482-1.84,2.456-3.048c1.232,0.322,2.971,1.122,4.002,1.191c0.479-0.083,3.121,0.664,4.352,0.112
		C237.246,146.592,236.972,147.335,235.971,148.869z"/>
</g>
</svg>
