<svg xmlns="http://www.w3.org/2000/svg" xmlns:xlink="http://www.w3.org/1999/xlink" width="1080" zoomAndPan="magnify" viewBox="0 0 810 809.999993" height="1080" preserveAspectRatio="xMidYMid meet" version="1.0"><defs><clipPath id="c9177ef093"><path d="M 67.5 63.148438 L 742.5 63.148438 L 742.5 738 L 67.5 738 Z M 67.5 63.148438 " clip-rule="nonzero"/></clipPath></defs><g clip-path="url(#c9177ef093)"><path fill="#38b6ff" d="M 742.363281 400.8125 C 742.382812 411.074219 741.929688 421.316406 741.007812 431.539062 C 740.085938 441.757812 738.699219 451.914062 736.84375 462.007812 C 734.992188 472.101562 732.683594 482.089844 729.914062 491.96875 C 727.144531 501.851562 723.929688 511.585938 720.269531 521.171875 C 716.609375 530.761719 712.515625 540.160156 707.996094 549.371094 C 703.472656 558.582031 698.539062 567.570312 693.191406 576.328125 C 687.847656 585.085938 682.109375 593.585938 675.984375 601.816406 C 669.859375 610.050781 663.371094 617.988281 656.519531 625.625 C 653.660156 628.820312 650.753906 631.972656 647.726562 635.039062 L 647.480469 635.289062 C 643.074219 639.835938 638.542969 644.253906 633.890625 648.546875 C 629.238281 652.839844 624.464844 656.996094 619.578125 661.019531 C 614.691406 665.042969 609.695312 668.925781 604.589844 672.667969 C 599.480469 676.410156 594.273438 680.007812 588.96875 683.457031 C 583.660156 686.90625 578.257812 690.203125 572.765625 693.347656 C 567.269531 696.496094 561.691406 699.484375 556.03125 702.316406 C 550.367188 705.148438 544.632812 707.820312 538.820312 710.328125 C 533.007812 712.835938 527.128906 715.179688 521.1875 717.359375 C 515.242188 719.539062 509.242188 721.546875 503.183594 723.390625 C 497.128906 725.230469 491.023438 726.902344 484.875 728.398438 C 478.722656 729.898438 472.535156 731.222656 466.308594 732.371094 C 460.082031 733.519531 453.832031 734.496094 447.550781 735.292969 C 441.269531 736.089844 434.972656 736.710938 428.660156 737.15625 C 422.34375 737.601562 416.019531 737.867188 409.691406 737.953125 C 403.359375 738.042969 397.035156 737.953125 390.707031 737.6875 C 384.382812 737.417969 378.070312 736.972656 371.769531 736.351562 C 365.472656 735.730469 359.195312 734.929688 352.9375 733.953125 C 346.683594 732.980469 340.460938 731.828125 334.269531 730.503906 C 328.082031 729.175781 321.933594 727.679688 315.828125 726.007812 C 309.71875 724.335938 303.667969 722.496094 297.664062 720.484375 C 291.660156 718.46875 285.71875 716.292969 279.839844 713.945312 C 273.960938 711.597656 268.152344 709.089844 262.414062 706.417969 C 256.671875 703.746094 251.015625 700.914062 245.433594 697.921875 C 239.855469 694.929688 234.363281 691.785156 228.960938 688.484375 C 223.558594 685.183594 218.253906 681.734375 213.046875 678.136719 C 207.835938 674.539062 202.734375 670.796875 197.734375 666.914062 C 192.738281 663.027344 187.851562 659.003906 183.082031 654.84375 C 178.308594 650.683594 173.65625 646.394531 169.128906 641.972656 C 164.597656 637.550781 160.195312 633.003906 155.917969 628.335938 C 151.644531 623.664062 147.503906 618.878906 143.5 613.976562 C 139.492188 609.074219 135.628906 604.066406 131.90625 598.945312 C 128.179688 593.824219 124.605469 588.605469 121.171875 583.285156 C 121.007812 582.984375 120.828125 582.695312 120.632812 582.414062 C 120.550781 582.289062 120.46875 582.164062 120.386719 582.039062 C 116.09375 575.316406 112.046875 568.453125 108.246094 561.441406 C 104.445312 554.429688 100.898438 547.292969 97.605469 540.027344 C 94.3125 532.765625 91.28125 525.394531 88.511719 517.914062 C 85.742188 510.433594 83.246094 502.867188 81.015625 495.210938 C 78.789062 487.550781 76.835938 479.824219 75.15625 472.027344 C 73.476562 464.230469 72.078125 456.386719 70.957031 448.488281 C 69.839844 440.59375 69.003906 432.667969 68.449219 424.710938 C 67.894531 416.753906 67.621094 408.789062 67.632812 400.8125 C 67.632812 214.484375 218.671875 63.449219 405 63.449219 C 591.328125 63.449219 742.363281 214.484375 742.363281 400.8125 Z M 742.363281 400.8125 " fill-opacity="1" fill-rule="nonzero"/></g><path fill="#fcc00a" d="M 647.480469 635.289062 C 643.074219 639.835938 638.542969 644.253906 633.890625 648.546875 C 629.238281 652.839844 624.464844 656.996094 619.578125 661.019531 C 614.691406 665.042969 609.695312 668.925781 604.589844 672.667969 C 599.480469 676.410156 594.273438 680.007812 588.96875 683.457031 C 583.660156 686.90625 578.257812 690.203125 572.765625 693.347656 C 567.269531 696.496094 561.691406 699.484375 556.03125 702.316406 C 550.367188 705.148438 544.632812 707.820312 538.820312 710.328125 C 533.007812 712.835938 527.128906 715.179688 521.1875 717.359375 C 515.242188 719.539062 509.242188 721.546875 503.183594 723.390625 C 497.128906 725.230469 491.023438 726.902344 484.875 728.398438 C 478.722656 729.898438 472.535156 731.222656 466.308594 732.371094 C 460.082031 733.519531 453.832031 734.496094 447.550781 735.292969 C 441.269531 736.089844 434.972656 736.710938 428.660156 737.15625 C 422.34375 737.601562 416.019531 737.867188 409.691406 737.953125 C 403.359375 738.042969 397.035156 737.953125 390.707031 737.6875 C 384.382812 737.417969 378.070312 736.972656 371.769531 736.351562 C 365.472656 735.730469 359.195312 734.929688 352.9375 733.953125 C 346.683594 732.980469 340.460938 731.828125 334.269531 730.503906 C 328.082031 729.175781 321.933594 727.679688 315.828125 726.007812 C 309.71875 724.335938 303.667969 722.496094 297.664062 720.484375 C 291.660156 718.46875 285.71875 716.292969 279.839844 713.945312 C 273.960938 711.597656 268.152344 709.089844 262.414062 706.417969 C 256.671875 703.746094 251.015625 700.914062 245.433594 697.921875 C 239.855469 694.929688 234.363281 691.785156 228.960938 688.484375 C 223.558594 685.183594 218.253906 681.734375 213.046875 678.136719 C 207.835938 674.539062 202.734375 670.796875 197.734375 666.914062 C 192.738281 663.027344 187.851562 659.003906 183.082031 654.84375 C 178.308594 650.683594 173.65625 646.394531 169.128906 641.972656 C 164.597656 637.550781 160.195312 633.003906 155.917969 628.335938 C 151.644531 623.664062 147.503906 618.878906 143.5 613.976562 C 139.492188 609.074219 135.628906 604.066406 131.90625 598.945312 C 128.179688 593.824219 124.605469 588.605469 121.171875 583.285156 L 174.835938 465.921875 C 176.042969 463.285156 177.359375 460.703125 178.78125 458.175781 C 180.207031 455.648438 181.734375 453.183594 183.367188 450.785156 C 185 448.386719 186.734375 446.0625 188.5625 443.8125 C 190.390625 441.5625 192.3125 439.390625 194.328125 437.300781 C 196.339844 435.210938 198.4375 433.210938 200.621094 431.300781 C 202.800781 429.390625 205.0625 427.574219 207.398438 425.851562 C 209.734375 424.132812 212.136719 422.511719 214.609375 420.996094 C 217.082031 419.476562 219.613281 418.066406 222.207031 416.765625 C 224.796875 415.460938 227.441406 414.269531 230.132812 413.191406 C 232.828125 412.113281 235.558594 411.148438 238.335938 410.300781 C 241.109375 409.453125 243.914062 408.722656 246.75 408.109375 C 249.585938 407.5 252.441406 407.007812 255.320312 406.640625 C 258.199219 406.269531 261.085938 406.023438 263.984375 405.898438 C 266.882812 405.773438 269.78125 405.769531 272.679688 405.890625 C 275.578125 406.007812 278.46875 406.25 281.34375 406.617188 C 284.222656 406.980469 287.082031 407.464844 289.917969 408.070312 L 545.335938 462.730469 C 548.265625 463.359375 551.167969 464.097656 554.042969 464.949219 C 556.917969 465.800781 559.753906 466.761719 562.554688 467.828125 C 565.355469 468.894531 568.113281 470.070312 570.824219 471.347656 C 573.535156 472.625 576.191406 474.003906 578.800781 475.484375 C 581.40625 476.964844 583.949219 478.542969 586.4375 480.21875 C 588.921875 481.894531 591.339844 483.660156 593.691406 485.519531 C 596.042969 487.378906 598.316406 489.328125 600.519531 491.359375 C 602.722656 493.394531 604.84375 495.507812 606.882812 497.703125 C 608.925781 499.898438 610.878906 502.167969 612.746094 504.511719 C 614.613281 506.859375 616.390625 509.269531 618.074219 511.75 C 619.753906 514.230469 621.34375 516.769531 622.832031 519.371094 C 624.320312 521.972656 625.710938 524.625 626.996094 527.332031 C 628.28125 530.039062 629.464844 532.792969 630.542969 535.589844 C 631.617188 538.386719 632.585938 541.222656 633.449219 544.09375 C 634.308594 546.964844 635.058594 549.863281 635.699219 552.792969 C 636.335938 555.71875 636.863281 558.667969 637.277344 561.636719 Z M 647.480469 635.289062 " fill-opacity="1" fill-rule="nonzero"/><path fill="#ed6e0f" d="M 568.769531 470.402344 C 567.816406 472.59375 566.820312 474.769531 565.78125 476.917969 C 564.738281 479.070312 563.652344 481.199219 562.523438 483.304688 C 561.390625 485.410156 560.214844 487.492188 558.996094 489.550781 C 557.777344 491.605469 556.515625 493.636719 555.210938 495.636719 C 553.90625 497.640625 552.5625 499.617188 551.175781 501.5625 C 549.789062 503.511719 548.359375 505.425781 546.890625 507.3125 C 545.421875 509.199219 543.914062 511.054688 542.371094 512.875 C 540.824219 514.699219 539.238281 516.488281 537.617188 518.246094 C 535.996094 520 534.339844 521.722656 532.644531 523.410156 C 530.949219 525.097656 529.222656 526.746094 527.457031 528.359375 C 525.695312 529.972656 523.898438 531.546875 522.066406 533.085938 C 520.238281 534.625 518.375 536.125 516.480469 537.582031 C 514.589844 539.042969 512.664062 540.460938 510.710938 541.839844 C 508.761719 543.21875 506.777344 544.554688 504.769531 545.851562 C 502.761719 547.144531 500.726562 548.398438 498.664062 549.605469 C 496.601562 550.816406 494.515625 551.980469 492.402344 553.101562 C 490.292969 554.222656 488.160156 555.300781 486 556.332031 C 483.84375 557.363281 481.667969 558.347656 479.46875 559.289062 C 477.273438 560.230469 475.054688 561.121094 472.820312 561.96875 C 470.585938 562.816406 468.332031 563.613281 466.0625 564.367188 C 463.792969 565.117188 461.511719 565.820312 459.210938 566.476562 C 456.914062 567.132812 454.601562 567.738281 452.277344 568.296875 C 449.953125 568.855469 447.617188 569.363281 445.269531 569.824219 C 442.925781 570.28125 440.570312 570.691406 438.207031 571.054688 C 435.84375 571.414062 433.476562 571.722656 431.097656 571.984375 C 428.722656 572.246094 426.34375 572.457031 423.957031 572.617188 C 421.570312 572.777344 419.183594 572.886719 416.796875 572.945312 C 414.40625 573.007812 412.015625 573.015625 409.625 572.976562 C 407.234375 572.933594 404.847656 572.84375 402.460938 572.703125 C 400.074219 572.5625 397.691406 572.371094 395.3125 572.128906 C 392.9375 571.886719 390.5625 571.59375 388.199219 571.253906 C 385.832031 570.910156 383.476562 570.519531 381.125 570.078125 C 378.777344 569.636719 376.4375 569.148438 374.109375 568.609375 C 371.78125 568.070312 369.464844 567.480469 367.160156 566.84375 C 364.855469 566.207031 362.566406 565.519531 360.289062 564.789062 C 358.015625 564.054688 355.757812 563.273438 353.515625 562.445312 C 351.273438 561.617188 349.046875 560.742188 346.84375 559.820312 C 344.636719 558.894531 342.453125 557.929688 340.289062 556.914062 C 338.125 555.898438 335.980469 554.839844 333.859375 553.734375 C 331.742188 552.632812 329.644531 551.484375 327.574219 550.289062 C 325.503906 549.097656 323.457031 547.859375 321.4375 546.582031 C 319.417969 545.304688 317.425781 543.980469 315.460938 542.621094 C 313.5 541.257812 311.5625 539.851562 309.660156 538.410156 C 307.753906 536.964844 305.882812 535.480469 304.039062 533.957031 C 302.195312 532.433594 300.386719 530.871094 298.609375 529.273438 C 296.835938 527.675781 295.09375 526.039062 293.382812 524.363281 C 291.675781 522.691406 290.003906 520.984375 288.371094 519.242188 C 286.734375 517.496094 285.136719 515.722656 283.574219 513.910156 C 282.015625 512.101562 280.492188 510.257812 279.007812 508.382812 C 277.527344 506.507812 276.082031 504.601562 274.679688 502.667969 C 273.277344 500.730469 271.914062 498.769531 270.59375 496.777344 C 269.273438 494.78125 267.996094 492.761719 266.761719 490.714844 C 265.527344 488.667969 264.335938 486.597656 263.1875 484.5 C 262.039062 482.40625 260.9375 480.285156 259.878906 478.140625 C 258.820312 476 257.804688 473.832031 256.839844 471.648438 C 255.871094 469.460938 254.949219 467.257812 254.074219 465.03125 C 253.199219 462.808594 252.375 460.566406 251.59375 458.304688 C 250.8125 456.046875 250.082031 453.769531 249.398438 451.480469 C 248.710938 449.191406 248.078125 446.886719 247.488281 444.570312 C 246.902344 442.253906 246.363281 439.921875 245.875 437.582031 C 245.386719 435.242188 244.945312 432.894531 244.554688 430.535156 C 244.164062 428.179688 243.824219 425.8125 243.535156 423.441406 C 243.242188 421.066406 243.003906 418.6875 242.8125 416.304688 C 242.621094 413.921875 242.480469 411.539062 242.390625 409.148438 C 250.160156 407.113281 258.0625 406 266.09375 405.820312 C 274.121094 405.636719 282.0625 406.386719 289.917969 408.070312 L 470.273438 446.679688 L 504.074219 453.894531 L 403.300781 499.886719 L 298.171875 451.824219 L 298.171875 488.816406 L 403.300781 536.835938 L 504.074219 490.886719 L 504.074219 453.894531 L 504.984375 454.105469 L 545.335938 462.730469 C 553.417969 464.460938 561.226562 467.019531 568.769531 470.402344 Z M 422.914062 128.476562 C 420.835938 128.476562 418.757812 128.527344 416.683594 128.628906 C 414.609375 128.730469 412.535156 128.886719 410.46875 129.089844 C 408.398438 129.292969 406.335938 129.550781 404.28125 129.855469 C 402.226562 130.160156 400.179688 130.515625 398.140625 130.921875 C 396.101562 131.328125 394.074219 131.785156 392.058594 132.289062 C 390.042969 132.796875 388.039062 133.351562 386.050781 133.953125 C 384.0625 134.558594 382.089844 135.210938 380.132812 135.910156 C 378.175781 136.609375 376.238281 137.359375 374.316406 138.15625 C 372.398438 138.949219 370.496094 139.792969 368.621094 140.683594 C 366.742188 141.570312 364.886719 142.507812 363.050781 143.488281 C 361.21875 144.464844 359.410156 145.492188 357.628906 146.558594 C 355.847656 147.628906 354.089844 148.742188 352.363281 149.894531 C 350.636719 151.050781 348.9375 152.246094 347.269531 153.488281 C 345.597656 154.726562 343.960938 156.003906 342.355469 157.320312 C 340.75 158.640625 339.175781 160 337.636719 161.394531 C 336.09375 162.789062 334.589844 164.222656 333.121094 165.695312 C 331.652344 167.164062 330.21875 168.667969 328.824219 170.207031 C 327.429688 171.75 326.070312 173.324219 324.753906 174.929688 C 323.433594 176.535156 322.15625 178.175781 320.917969 179.84375 C 319.679688 181.511719 318.484375 183.210938 317.332031 184.941406 C 316.175781 186.667969 315.0625 188.425781 313.996094 190.207031 C 312.925781 191.992188 311.902344 193.796875 310.925781 195.632812 C 309.945312 197.464844 309.011719 199.320312 308.121094 201.199219 C 307.234375 203.078125 306.390625 204.976562 305.597656 206.898438 C 304.800781 208.820312 304.054688 210.757812 303.351562 212.714844 C 302.652344 214.671875 302 216.644531 301.398438 218.632812 C 300.796875 220.621094 300.242188 222.625 299.734375 224.640625 C 299.230469 226.65625 298.777344 228.683594 298.371094 230.722656 C 297.964844 232.761719 297.609375 234.808594 297.304688 236.863281 C 297 238.921875 296.746094 240.984375 296.542969 243.050781 C 296.339844 245.121094 296.1875 247.191406 296.085938 249.269531 C 295.980469 251.34375 295.929688 253.421875 295.929688 255.5 C 295.921875 259.878906 296.144531 264.25 296.59375 268.605469 C 299.738281 266.847656 303.050781 265.515625 306.535156 264.609375 C 310.019531 263.703125 313.5625 263.25 317.164062 263.253906 C 320.1875 263.25 323.171875 263.582031 326.121094 264.25 L 335.992188 293.363281 C 336.164062 293.875 336.410156 294.347656 336.734375 294.78125 C 337.054688 295.21875 337.433594 295.59375 337.875 295.90625 C 338.3125 296.222656 338.789062 296.464844 339.304688 296.628906 C 339.816406 296.792969 340.34375 296.878906 340.886719 296.878906 C 341.425781 296.878906 341.953125 296.792969 342.46875 296.628906 C 342.980469 296.464844 343.460938 296.222656 343.898438 295.90625 C 344.335938 295.59375 344.71875 295.21875 345.039062 294.78125 C 345.359375 294.347656 345.605469 293.875 345.777344 293.363281 L 350.464844 279.554688 L 350.464844 279.511719 L 363.195312 241.898438 L 549.191406 241.898438 C 548.984375 239.972656 548.734375 238.050781 548.441406 236.136719 C 548.144531 234.222656 547.808594 232.316406 547.425781 230.417969 C 547.042969 228.519531 546.617188 226.632812 546.148438 224.753906 C 545.679688 222.871094 545.167969 221.003906 544.613281 219.148438 C 544.0625 217.292969 543.464844 215.453125 542.828125 213.625 C 542.1875 211.792969 541.507812 209.980469 540.789062 208.183594 C 540.066406 206.386719 539.304688 204.605469 538.5 202.84375 C 537.699219 201.082031 536.855469 199.339844 535.972656 197.613281 C 535.089844 195.890625 534.171875 194.1875 533.210938 192.507812 C 532.25 190.824219 531.25 189.164062 530.214844 187.527344 C 529.179688 185.894531 528.105469 184.28125 526.996094 182.695312 C 525.886719 181.105469 524.742188 179.546875 523.558594 178.011719 C 522.378906 176.476562 521.160156 174.96875 519.910156 173.492188 C 518.660156 172.011719 517.378906 170.5625 516.0625 169.140625 C 514.746094 167.722656 513.394531 166.332031 512.015625 164.972656 C 510.636719 163.613281 509.226562 162.289062 507.785156 160.992188 C 506.34375 159.699219 504.875 158.4375 503.375 157.210938 C 501.878906 155.984375 500.351562 154.792969 498.796875 153.636719 C 497.246094 152.480469 495.667969 151.359375 494.0625 150.273438 C 492.457031 149.1875 490.828125 148.140625 489.175781 147.128906 C 487.523438 146.121094 485.851562 145.148438 484.152344 144.214844 C 482.457031 143.28125 480.738281 142.386719 479.003906 141.53125 C 477.265625 140.675781 475.507812 139.859375 473.734375 139.085938 C 471.957031 138.308594 470.167969 137.574219 468.359375 136.882812 C 466.550781 136.191406 464.726562 135.539062 462.886719 134.929688 C 461.050781 134.320312 459.199219 133.753906 457.335938 133.226562 C 455.46875 132.703125 453.59375 132.222656 451.707031 131.78125 C 449.820312 131.34375 447.925781 130.945312 446.023438 130.59375 C 444.117188 130.242188 442.207031 129.933594 440.289062 129.667969 C 438.371094 129.402344 436.445312 129.183594 434.515625 129.007812 C 432.589844 128.828125 430.65625 128.695312 428.722656 128.609375 C 426.789062 128.519531 424.851562 128.476562 422.914062 128.476562 Z M 422.914062 128.476562 " fill-opacity="1" fill-rule="nonzero"/><path fill="#ff9987" d="M 559.769531 339.476562 C 559.769531 340.988281 559.734375 342.496094 559.664062 344.007812 C 559.59375 345.515625 559.488281 347.019531 559.347656 348.523438 C 559.207031 350.027344 559.03125 351.527344 558.820312 353.023438 C 558.609375 354.515625 558.367188 356.007812 558.085938 357.492188 C 557.808594 358.976562 557.492188 360.453125 557.144531 361.921875 C 556.796875 363.390625 556.414062 364.851562 556 366.300781 C 555.582031 367.753906 555.132812 369.195312 554.652344 370.625 C 554.167969 372.054688 553.652344 373.476562 553.101562 374.882812 C 552.554688 376.289062 551.972656 377.679688 551.359375 379.0625 C 550.742188 380.441406 550.097656 381.804688 549.421875 383.15625 C 548.742188 384.503906 548.035156 385.835938 547.296875 387.152344 C 546.554688 388.472656 545.785156 389.769531 544.988281 391.050781 C 544.1875 392.332031 543.359375 393.59375 542.5 394.835938 C 541.640625 396.078125 540.753906 397.296875 539.839844 398.5 C 538.921875 399.699219 537.980469 400.878906 537.011719 402.035156 C 536.039062 403.195312 535.042969 404.328125 534.019531 405.4375 C 532.996094 406.550781 531.949219 407.636719 530.875 408.699219 C 529.800781 409.761719 528.703125 410.796875 527.582031 411.808594 C 526.460938 412.816406 525.316406 413.800781 524.148438 414.761719 C 522.980469 415.71875 521.792969 416.648438 520.582031 417.550781 C 519.371094 418.453125 518.140625 419.328125 516.890625 420.171875 C 515.636719 421.015625 514.367188 421.832031 513.078125 422.617188 C 511.789062 423.402344 510.480469 424.160156 509.15625 424.886719 C 507.832031 425.609375 506.492188 426.304688 505.136719 426.96875 C 503.777344 427.628906 502.40625 428.261719 501.019531 428.859375 C 499.632812 429.457031 498.234375 430.023438 496.824219 430.558594 C 495.410156 431.09375 493.984375 431.59375 492.550781 432.0625 C 491.113281 432.527344 489.667969 432.964844 488.210938 433.363281 C 486.757812 433.765625 485.292969 434.128906 483.820312 434.460938 C 482.347656 434.796875 480.867188 435.09375 479.378906 435.355469 C 477.890625 435.621094 476.398438 435.847656 474.902344 436.042969 C 473.40625 436.238281 471.902344 436.394531 470.398438 436.519531 L 470.398438 469.28125 L 403.300781 499.886719 L 331.472656 467.042969 L 331.472656 344.785156 C 330.753906 345.046875 330.027344 345.289062 329.296875 345.511719 C 328.566406 345.730469 327.828125 345.933594 327.085938 346.113281 C 326.34375 346.296875 325.59375 346.457031 324.84375 346.597656 C 324.09375 346.738281 323.335938 346.859375 322.578125 346.957031 C 321.820312 347.058594 321.0625 347.136719 320.300781 347.195312 C 319.535156 347.25 318.773438 347.289062 318.007812 347.304688 C 317.246094 347.320312 316.480469 347.316406 315.71875 347.292969 C 314.953125 347.265625 314.191406 347.21875 313.429688 347.152344 C 312.667969 347.085938 311.90625 346.996094 311.152344 346.890625 C 310.394531 346.78125 309.640625 346.652344 308.890625 346.503906 C 308.140625 346.351562 307.398438 346.183594 306.65625 345.992188 C 305.917969 345.800781 305.179688 345.59375 304.453125 345.363281 C 303.722656 345.132812 303 344.882812 302.285156 344.613281 C 301.570312 344.34375 300.863281 344.054688 300.164062 343.746094 C 299.464844 343.4375 298.773438 343.109375 298.09375 342.761719 C 297.410156 342.417969 296.738281 342.050781 296.078125 341.671875 C 295.414062 341.289062 294.765625 340.886719 294.125 340.46875 C 293.484375 340.050781 292.855469 339.617188 292.238281 339.164062 C 291.625 338.710938 291.019531 338.242188 290.429688 337.757812 C 289.839844 337.269531 289.261719 336.769531 288.699219 336.253906 C 288.136719 335.734375 287.585938 335.203125 287.050781 334.65625 C 286.519531 334.109375 286 333.550781 285.496094 332.972656 C 284.992188 332.398438 284.503906 331.8125 284.03125 331.210938 C 283.5625 330.609375 283.105469 329.992188 282.667969 329.367188 C 282.230469 328.742188 281.808594 328.101562 281.40625 327.453125 C 281.003906 326.804688 280.617188 326.144531 280.25 325.472656 C 279.882812 324.800781 279.535156 324.121094 279.207031 323.433594 C 278.875 322.742188 278.5625 322.046875 278.273438 321.339844 C 277.980469 320.632812 277.707031 319.917969 277.453125 319.195312 C 277.203125 318.476562 276.96875 317.746094 276.753906 317.011719 C 276.542969 316.28125 276.347656 315.539062 276.175781 314.796875 C 276.003906 314.050781 275.851562 313.300781 275.71875 312.550781 C 275.585938 311.796875 275.472656 311.039062 275.382812 310.28125 C 275.292969 309.523438 275.222656 308.761719 275.171875 308 C 275.125 307.234375 275.09375 306.472656 275.085938 305.707031 C 275.078125 304.941406 275.09375 304.179688 275.125 303.414062 C 275.160156 302.652344 275.214844 301.890625 275.292969 301.128906 C 275.367188 300.367188 275.464844 299.609375 275.578125 298.855469 C 275.695312 298.097656 275.835938 297.347656 275.992188 296.597656 C 276.152344 295.851562 276.328125 295.109375 276.527344 294.371094 C 276.726562 293.632812 276.945312 292.898438 277.183594 292.171875 C 277.421875 291.445312 277.679688 290.726562 277.957031 290.015625 C 278.234375 289.304688 278.53125 288.597656 278.847656 287.902344 C 279.164062 287.207031 279.5 286.519531 279.851562 285.84375 C 280.207031 285.164062 280.578125 284.496094 280.96875 283.839844 C 281.359375 283.183594 281.765625 282.535156 282.191406 281.898438 C 282.617188 281.265625 283.058594 280.640625 283.519531 280.03125 C 283.976562 279.417969 284.453125 278.820312 284.945312 278.234375 C 285.4375 277.652344 285.945312 277.078125 286.46875 276.523438 C 286.992188 275.964844 287.527344 275.421875 288.082031 274.894531 C 288.632812 274.367188 289.203125 273.855469 289.78125 273.355469 C 290.363281 272.859375 290.957031 272.378906 291.5625 271.914062 C 292.171875 271.449219 292.789062 271 293.421875 270.570312 C 294.050781 270.140625 294.695312 269.726562 295.347656 269.328125 C 296.003906 268.933594 296.667969 268.554688 297.34375 268.195312 C 298.015625 267.835938 298.699219 267.496094 299.394531 267.171875 C 300.085938 266.851562 300.789062 266.546875 301.5 266.265625 C 302.207031 265.980469 302.925781 265.714844 303.648438 265.46875 C 304.375 265.226562 305.105469 265 305.839844 264.796875 C 306.578125 264.589844 307.316406 264.40625 308.0625 264.242188 C 308.8125 264.078125 309.5625 263.933594 310.316406 263.808594 C 311.070312 263.683594 311.828125 263.582031 312.585938 263.5 C 313.347656 263.417969 314.109375 263.355469 314.871094 263.316406 C 315.636719 263.273438 316.398438 263.253906 317.164062 263.253906 C 320.1875 263.25 323.171875 263.582031 326.121094 264.25 L 335.992188 293.363281 C 336.164062 293.875 336.410156 294.347656 336.734375 294.78125 C 337.054688 295.21875 337.433594 295.59375 337.875 295.90625 C 338.3125 296.222656 338.789062 296.464844 339.304688 296.628906 C 339.816406 296.792969 340.34375 296.878906 340.886719 296.878906 C 341.425781 296.878906 341.953125 296.792969 342.46875 296.628906 C 342.980469 296.464844 343.460938 296.222656 343.898438 295.90625 C 344.335938 295.59375 344.71875 295.21875 345.039062 294.78125 C 345.359375 294.347656 345.605469 293.875 345.777344 293.363281 L 350.464844 279.554688 L 350.464844 279.511719 L 363.195312 241.898438 L 549.191406 241.898438 C 549.402344 243.929688 549.566406 245.960938 549.691406 247.992188 L 559.269531 328.488281 L 559.148438 328.445312 C 559.5625 332.113281 559.773438 335.789062 559.769531 339.476562 Z M 559.769531 339.476562 " fill-opacity="1" fill-rule="nonzero"/><path fill="#242156" d="M 470.273438 469.242188 L 470.273438 447.179688 C 469.03125 447.21875 467.746094 447.261719 466.460938 447.261719 C 426.667969 447.261719 398.925781 432.347656 380.25 399.957031 C 376.128906 392.804688 372.476562 378.453125 374.144531 380.90625 C 396.882812 414.367188 423.328125 436.894531 462.3125 436.894531 C 465.050781 436.894531 467.746094 436.769531 470.398438 436.519531 L 470.398438 446.722656 L 504.074219 453.894531 Z M 509.164062 328.941406 C 509.164062 328.941406 499.429688 300.472656 495.199219 290.253906 C 493.621094 286.445312 491.851562 287.214844 492.683594 291.253906 C 494.722656 301.132812 500.695312 327.566406 500.695312 327.566406 C 500.75 327.886719 500.734375 328.199219 500.652344 328.511719 C 500.566406 328.820312 500.421875 329.101562 500.214844 329.347656 C 500.007812 329.59375 499.757812 329.785156 499.464844 329.921875 C 499.171875 330.054688 498.867188 330.125 498.542969 330.125 L 473.621094 330.125 C 473.378906 330.125 473.140625 330.164062 472.914062 330.242188 C 472.683594 330.320312 472.472656 330.4375 472.28125 330.585938 C 472.089844 330.734375 471.925781 330.910156 471.792969 331.113281 C 471.660156 331.320312 471.5625 331.539062 471.503906 331.773438 C 471.445312 332.011719 471.425781 332.25 471.445312 332.492188 C 471.46875 332.734375 471.527344 332.964844 471.625 333.1875 C 471.722656 333.410156 471.855469 333.613281 472.019531 333.789062 C 472.183594 333.96875 472.375 334.117188 472.589844 334.230469 L 493.5 345.46875 C 493.714844 345.582031 493.945312 345.660156 494.1875 345.699219 C 494.425781 345.738281 494.667969 345.738281 494.910156 345.695312 C 495.152344 345.652344 495.378906 345.574219 495.59375 345.453125 C 495.804688 345.335938 495.996094 345.183594 496.160156 345.003906 L 508.699219 331.042969 C 508.957031 330.757812 509.125 330.429688 509.207031 330.054688 C 509.292969 329.679688 509.277344 329.308594 509.164062 328.941406 Z M 298.171875 451.824219 L 331.554688 467.167969 L 331.554688 444.605469 M 522.886719 299.175781 C 527.183594 299.175781 530.664062 294.070312 530.664062 287.773438 C 530.664062 281.476562 527.183594 276.367188 522.886719 276.367188 C 518.59375 276.367188 515.113281 281.476562 515.113281 287.773438 C 515.113281 294.070312 518.59375 299.175781 522.886719 299.175781 Z M 312.808594 282.789062 C 301.363281 282.789062 292.074219 292.535156 292.074219 304.558594 C 292.058594 307.613281 292.65625 310.542969 293.859375 313.351562 C 295.585938 308.011719 298.089844 303.0625 301.363281 298.503906 C 305.570312 292.308594 310.867188 287.25 317.246094 283.328125 C 315.792969 282.957031 314.3125 282.777344 312.808594 282.789062 Z M 450.453125 299.175781 C 454.746094 299.175781 458.226562 294.070312 458.226562 287.773438 C 458.226562 281.476562 454.746094 276.367188 450.453125 276.367188 C 446.15625 276.367188 442.675781 281.476562 442.675781 287.773438 C 442.675781 294.070312 446.15625 299.175781 450.453125 299.175781 Z M 450.453125 299.175781 " fill-opacity="1" fill-rule="nonzero"/></svg>