<svg xmlns="http://www.w3.org/2000/svg" xmlns:xlink="http://www.w3.org/1999/xlink" width="1080" zoomAndPan="magnify" viewBox="0 0 810 809.999993" height="1080" preserveAspectRatio="xMidYMid meet" version="1.0"><defs><clipPath id="7f1d2d724e"><path d="M 67.5 53.4375 L 742.5 53.4375 L 742.5 729 L 67.5 729 Z M 67.5 53.4375 " clip-rule="nonzero"/></clipPath></defs><g clip-path="url(#7f1d2d724e)"><path fill="#5ce1e6" d="M 742.460938 390.828125 C 742.460938 395.164062 742.375 399.496094 742.210938 403.828125 C 742.042969 408.15625 741.792969 412.484375 741.460938 416.804688 C 741.125 421.125 740.710938 425.441406 740.210938 429.746094 C 739.710938 434.050781 739.128906 438.34375 738.460938 442.628906 C 737.796875 446.910156 737.050781 451.179688 736.21875 455.433594 C 735.390625 459.6875 734.476562 463.921875 733.484375 468.140625 C 732.492188 472.359375 731.417969 476.558594 730.265625 480.738281 C 729.109375 484.914062 727.875 489.066406 726.558594 493.199219 C 725.246094 497.328125 723.851562 501.429688 722.378906 505.507812 C 720.90625 509.582031 719.355469 513.628906 717.726562 517.644531 C 716.097656 521.660156 714.390625 525.644531 712.609375 529.597656 C 710.824219 533.546875 708.96875 537.460938 707.035156 541.339844 C 705.101562 545.21875 703.09375 549.058594 701.011719 552.863281 C 698.929688 556.664062 696.777344 560.421875 694.550781 564.140625 C 692.324219 567.859375 690.027344 571.535156 687.660156 575.164062 C 685.292969 578.796875 682.855469 582.378906 680.347656 585.914062 C 677.84375 589.449219 675.269531 592.9375 672.628906 596.375 C 669.988281 599.8125 667.28125 603.195312 664.511719 606.53125 C 661.742188 609.863281 658.90625 613.140625 656.011719 616.363281 C 653.113281 619.585938 650.15625 622.753906 647.136719 625.863281 C 644.117188 628.972656 641.039062 632.023438 637.902344 635.015625 C 634.765625 638.003906 631.570312 640.933594 628.324219 643.800781 C 625.074219 646.671875 621.769531 649.476562 618.410156 652.214844 C 615.054688 654.957031 611.644531 657.628906 608.183594 660.238281 C 604.722656 662.847656 601.214844 665.390625 597.652344 667.863281 C 594.09375 670.339844 590.492188 672.742188 586.839844 675.078125 C 583.1875 677.414062 579.492188 679.675781 575.753906 681.867188 C 572.015625 684.0625 568.234375 686.179688 564.414062 688.226562 C 560.59375 690.273438 556.738281 692.246094 552.839844 694.144531 C 548.945312 696.042969 545.011719 697.867188 541.046875 699.613281 C 537.078125 701.359375 533.082031 703.027344 529.050781 704.621094 C 525.019531 706.214844 520.957031 707.726562 516.867188 709.164062 C 512.78125 710.601562 508.664062 711.957031 504.523438 713.234375 C 500.378906 714.511719 496.214844 715.710938 492.027344 716.824219 C 487.839844 717.941406 483.632812 718.980469 479.40625 719.933594 C 475.175781 720.886719 470.933594 721.761719 466.671875 722.550781 C 462.410156 723.34375 458.136719 724.050781 453.847656 724.679688 C 449.558594 725.304688 445.257812 725.847656 440.949219 726.308594 C 436.640625 726.769531 432.324219 727.148438 428 727.441406 C 423.675781 727.738281 419.347656 727.949219 415.015625 728.074219 C 410.683594 728.203125 406.347656 728.246094 402.015625 728.207031 C 397.679688 728.167969 393.347656 728.046875 389.019531 727.839844 C 384.691406 727.632812 380.367188 727.34375 376.050781 726.96875 C 371.730469 726.597656 367.421875 726.140625 363.121094 725.601562 C 358.820312 725.0625 354.53125 724.441406 350.253906 723.738281 C 345.980469 723.03125 341.71875 722.246094 337.472656 721.378906 C 333.226562 720.507812 328.996094 719.558594 324.789062 718.527344 C 320.578125 717.496094 316.390625 716.382812 312.222656 715.191406 C 308.058594 713.996094 303.914062 712.722656 299.796875 711.371094 C 295.679688 710.019531 291.589844 708.585938 287.527344 707.078125 C 283.464844 705.566406 279.433594 703.980469 275.429688 702.3125 C 271.429688 700.648438 267.460938 698.90625 263.527344 697.085938 C 259.59375 695.269531 255.695312 693.375 251.835938 691.40625 C 247.972656 689.4375 244.152344 687.394531 240.367188 685.28125 C 236.585938 683.164062 232.847656 680.976562 229.148438 678.714844 C 225.449219 676.453125 221.796875 674.125 218.1875 671.722656 C 214.582031 669.320312 211.019531 666.851562 207.507812 664.3125 C 203.992188 661.777344 200.53125 659.171875 197.117188 656.5 C 193.703125 653.828125 190.34375 651.089844 187.039062 648.289062 C 183.730469 645.488281 180.476562 642.625 177.28125 639.699219 C 174.085938 636.773438 170.945312 633.785156 167.863281 630.738281 C 164.78125 627.691406 161.757812 624.585938 158.796875 621.421875 C 155.835938 618.257812 152.933594 615.035156 150.097656 611.761719 C 147.257812 608.484375 144.484375 605.15625 141.773438 601.773438 C 135.820312 594.367188 130.1875 586.722656 124.878906 578.839844 C 119.574219 570.957031 114.609375 562.863281 109.992188 554.558594 C 105.371094 546.253906 101.113281 537.769531 97.214844 529.101562 C 93.316406 520.4375 89.792969 511.621094 86.640625 502.652344 C 83.492188 493.6875 80.726562 484.605469 78.351562 475.402344 C 75.972656 466.203125 73.988281 456.917969 72.398438 447.546875 C 70.8125 438.179688 69.621094 428.757812 68.832031 419.289062 C 68.042969 409.820312 67.65625 400.332031 67.675781 390.828125 C 67.675781 204.488281 218.726562 53.4375 405.066406 53.4375 C 591.40625 53.4375 742.460938 204.488281 742.460938 390.828125 Z M 742.460938 390.828125 " fill-opacity="1" fill-rule="nonzero"/></g><path fill="#b84f43" d="M 504.105469 366.144531 L 529.410156 533.894531 L 428.886719 618.277344 C 428.160156 618.886719 427.402344 619.457031 426.613281 619.984375 C 425.820312 620.511719 425.007812 620.992188 424.164062 621.433594 C 423.320312 621.871094 422.457031 622.261719 421.574219 622.605469 C 420.6875 622.949219 419.789062 623.246094 418.871094 623.488281 C 417.953125 623.734375 417.027344 623.929688 416.085938 624.074219 C 415.148438 624.21875 414.207031 624.3125 413.257812 624.351562 C 412.308594 624.394531 411.359375 624.382812 410.414062 624.320312 C 409.464844 624.257812 408.523438 624.140625 407.589844 623.976562 C 406.65625 623.8125 405.730469 623.59375 404.820312 623.328125 C 403.910156 623.0625 403.015625 622.746094 402.140625 622.382812 C 401.261719 622.019531 400.40625 621.609375 399.574219 621.152344 C 398.742188 620.691406 397.9375 620.191406 397.164062 619.644531 C 396.386719 619.101562 395.640625 618.515625 394.925781 617.886719 C 394.214844 617.261719 393.539062 616.597656 392.898438 615.894531 C 392.257812 615.195312 391.65625 614.460938 391.097656 613.695312 C 390.535156 612.929688 390.019531 612.132812 389.546875 611.3125 L 356.523438 553.902344 L 343.371094 466.648438 C 340.78125 465.84375 338.226562 464.945312 335.703125 463.953125 C 333.179688 462.960938 330.695312 461.875 328.25 460.703125 C 325.804688 459.53125 323.40625 458.269531 321.054688 456.917969 C 318.703125 455.570312 316.402344 454.136719 314.15625 452.621094 C 311.90625 451.105469 309.71875 449.507812 307.585938 447.832031 C 305.457031 446.15625 303.386719 444.402344 301.386719 442.574219 C 299.382812 440.75 297.449219 438.851562 295.582031 436.882812 C 293.71875 434.914062 291.925781 432.878906 290.210938 430.78125 C 288.496094 428.679688 286.855469 426.523438 285.296875 424.304688 C 283.738281 422.085938 282.265625 419.8125 280.871094 417.484375 C 279.480469 415.15625 278.171875 412.785156 276.953125 410.363281 C 275.734375 407.941406 274.605469 405.476562 273.566406 402.972656 C 272.527344 400.46875 271.578125 397.929688 270.722656 395.355469 C 269.871094 392.78125 269.109375 390.179688 268.445312 387.550781 C 267.78125 384.921875 267.214844 382.273438 266.746094 379.601562 C 266.273438 376.933594 265.902344 374.246094 265.625 371.550781 C 265.617188 371.308594 265.589844 371.074219 265.542969 370.835938 C 265.542969 370.628906 265.5 370.375 265.5 370.125 L 265.082031 362.539062 L 260.09375 271.085938 L 259.546875 261.027344 L 259.546875 260.984375 L 259.296875 256.710938 C 259.296875 254.410156 259.355469 252.105469 259.476562 249.808594 C 259.59375 247.507812 259.773438 245.210938 260.007812 242.921875 C 260.246094 240.632812 260.542969 238.347656 260.894531 236.074219 C 261.25 233.796875 261.664062 231.535156 262.132812 229.28125 C 262.605469 227.023438 263.132812 224.785156 263.722656 222.558594 C 264.308594 220.332031 264.949219 218.121094 265.652344 215.925781 C 266.351562 213.734375 267.109375 211.558594 267.921875 209.40625 C 268.734375 207.25 269.601562 205.117188 270.523438 203.007812 C 271.445312 200.898438 272.421875 198.8125 273.449219 196.753906 C 274.480469 194.695312 275.5625 192.660156 276.695312 190.65625 C 277.832031 188.652344 279.015625 186.679688 280.25 184.738281 C 281.488281 182.792969 282.773438 180.882812 284.105469 179.007812 C 285.441406 177.128906 286.824219 175.289062 288.25 173.484375 C 289.679688 171.679688 291.15625 169.910156 292.675781 168.179688 C 294.195312 166.453125 295.757812 164.761719 297.367188 163.113281 C 298.972656 161.464844 300.621094 159.855469 302.3125 158.292969 C 304.003906 156.730469 305.730469 155.210938 307.5 153.734375 C 309.269531 152.257812 311.074219 150.832031 312.914062 149.449219 C 314.757812 148.066406 316.632812 146.730469 318.542969 145.445312 C 320.453125 144.160156 322.394531 142.925781 324.371094 141.738281 C 326.34375 140.554688 328.347656 139.421875 330.378906 138.339844 C 332.414062 137.257812 334.472656 136.226562 336.558594 135.25 C 338.644531 134.273438 340.753906 133.351562 342.886719 132.484375 C 345.019531 131.617188 347.171875 130.804688 349.347656 130.046875 C 351.523438 129.292969 353.714844 128.59375 355.925781 127.949219 C 358.136719 127.304688 360.363281 126.71875 362.605469 126.1875 C 364.84375 125.660156 367.097656 125.1875 369.363281 124.777344 C 371.628906 124.363281 373.902344 124.007812 376.1875 123.714844 C 378.472656 123.417969 380.761719 123.179688 383.058594 123.003906 C 385.351562 122.824219 387.652344 122.707031 389.953125 122.648438 C 392.257812 122.585938 394.558594 122.585938 396.859375 122.644531 C 399.160156 122.707031 401.460938 122.824219 403.757812 123 C 406.050781 123.179688 408.34375 123.414062 410.625 123.710938 C 412.910156 124.007812 415.183594 124.359375 417.449219 124.773438 C 419.714844 125.1875 421.96875 125.65625 424.210938 126.183594 C 426.449219 126.714844 428.675781 127.300781 430.886719 127.945312 C 433.097656 128.585938 435.292969 129.285156 437.46875 130.042969 C 439.640625 130.800781 441.796875 131.609375 443.929688 132.480469 C 446.0625 133.347656 448.171875 134.265625 450.257812 135.242188 C 452.34375 136.21875 454.402344 137.25 456.433594 138.332031 C 458.46875 139.414062 460.472656 140.546875 462.445312 141.730469 C 464.421875 142.917969 466.363281 144.152344 468.273438 145.4375 C 470.183594 146.722656 472.058594 148.054688 473.902344 149.4375 C 475.746094 150.820312 477.550781 152.25 479.316406 153.722656 C 481.085938 155.199219 482.816406 156.71875 484.507812 158.28125 C 486.195312 159.84375 487.84375 161.453125 489.453125 163.101562 C 491.058594 164.75 492.625 166.4375 494.144531 168.167969 C 495.664062 169.898438 497.140625 171.664062 498.570312 173.46875 C 499.996094 175.277344 501.378906 177.117188 502.714844 178.992188 C 504.050781 180.871094 505.335938 182.78125 506.570312 184.722656 C 507.808594 186.664062 508.992188 188.640625 510.125 190.644531 C 511.261719 192.648438 512.34375 194.679688 513.375 196.738281 C 514.402344 198.796875 515.378906 200.882812 516.300781 202.992188 C 517.222656 205.101562 518.09375 207.234375 518.90625 209.390625 C 519.71875 211.542969 520.472656 213.71875 521.175781 215.910156 C 521.875 218.105469 522.519531 220.316406 523.105469 222.542969 C 523.691406 224.769531 524.222656 227.007812 524.691406 229.261719 C 525.164062 231.515625 525.578125 233.78125 525.933594 236.054688 C 526.289062 238.332031 526.582031 240.613281 526.820312 242.90625 C 527.058594 245.195312 527.234375 247.492188 527.355469 249.789062 C 527.472656 252.089844 527.535156 254.390625 527.535156 256.695312 C 527.535156 258.996094 527.476562 261.296875 527.359375 263.597656 C 527.238281 265.898438 527.0625 268.191406 526.828125 270.484375 C 526.589844 272.773438 526.292969 275.054688 525.941406 277.332031 C 528.523438 277.609375 531.027344 278.21875 533.453125 279.15625 C 535.875 280.09375 538.136719 281.332031 540.234375 282.863281 C 556.832031 294.976562 557.542969 322.175781 541.867188 343.59375 C 531.808594 357.34375 517.476562 365.347656 504.105469 366.144531 Z M 504.105469 366.144531 " fill-opacity="1" fill-rule="nonzero"/><path fill="#fcc00a" d="M 527.535156 256.710938 C 527.535156 263.625 527.003906 270.5 525.941406 277.332031 C 514.625 275.949219 501.882812 280.308594 491.320312 289.402344 C 478.75 274.984375 464.332031 264.128906 456.746094 258.09375 C 451.503906 241.789062 441.070312 204.824219 441.070312 204.824219 C 389.433594 222.636719 310.21875 224.859375 281.300781 211.863281 C 280.753906 213.457031 261.894531 255.707031 259.546875 260.984375 L 259.296875 256.710938 C 259.296875 254.515625 259.351562 252.324219 259.460938 250.132812 C 259.570312 247.941406 259.730469 245.753906 259.945312 243.566406 C 260.164062 241.382812 260.433594 239.207031 260.753906 237.035156 C 261.078125 234.867188 261.453125 232.703125 261.882812 230.550781 C 262.3125 228.398438 262.792969 226.261719 263.324219 224.132812 C 263.859375 222.003906 264.445312 219.886719 265.082031 217.789062 C 265.71875 215.6875 266.410156 213.605469 267.148438 211.539062 C 267.890625 209.472656 268.679688 207.425781 269.519531 205.398438 C 270.359375 203.371094 271.25 201.367188 272.1875 199.382812 C 273.125 197.402344 274.113281 195.441406 275.148438 193.507812 C 276.183594 191.570312 277.265625 189.664062 278.394531 187.78125 C 279.523438 185.898438 280.695312 184.046875 281.914062 182.222656 C 283.136719 180.398438 284.398438 178.601562 285.707031 176.839844 C 287.015625 175.078125 288.363281 173.347656 289.757812 171.652344 C 291.148438 169.957031 292.582031 168.296875 294.058594 166.671875 C 295.53125 165.042969 297.042969 163.457031 298.59375 161.90625 C 300.148438 160.351562 301.738281 158.839844 303.363281 157.367188 C 304.988281 155.894531 306.652344 154.460938 308.347656 153.070312 C 310.042969 151.675781 311.773438 150.328125 313.535156 149.019531 C 315.300781 147.714844 317.09375 146.449219 318.917969 145.230469 C 320.742188 144.011719 322.597656 142.839844 324.476562 141.710938 C 326.359375 140.582031 328.269531 139.503906 330.207031 138.46875 C 332.140625 137.433594 334.101562 136.449219 336.085938 135.511719 C 338.066406 134.570312 340.074219 133.683594 342.101562 132.84375 C 344.128906 132.003906 346.175781 131.214844 348.242188 130.476562 C 350.308594 129.734375 352.390625 129.046875 354.492188 128.410156 C 356.589844 127.773438 358.707031 127.1875 360.835938 126.65625 C 362.964844 126.125 365.105469 125.644531 367.257812 125.214844 C 369.410156 124.785156 371.570312 124.410156 373.742188 124.089844 C 375.910156 123.769531 378.089844 123.5 380.273438 123.285156 C 382.457031 123.070312 384.644531 122.90625 386.835938 122.800781 C 389.027344 122.691406 391.222656 122.640625 393.414062 122.640625 C 395.609375 122.640625 397.804688 122.691406 399.996094 122.800781 C 402.1875 122.90625 404.375 123.070312 406.558594 123.285156 C 408.742188 123.5 410.917969 123.769531 413.089844 124.089844 C 415.261719 124.410156 417.421875 124.785156 419.574219 125.214844 C 421.726562 125.644531 423.867188 126.125 425.996094 126.65625 C 428.125 127.1875 430.238281 127.773438 432.339844 128.410156 C 434.441406 129.046875 436.523438 129.734375 438.589844 130.476562 C 440.65625 131.214844 442.703125 132.003906 444.730469 132.84375 C 446.757812 133.683594 448.761719 134.570312 450.746094 135.511719 C 452.730469 136.449219 454.691406 137.433594 456.625 138.46875 C 458.5625 139.503906 460.46875 140.582031 462.351562 141.710938 C 464.234375 142.839844 466.089844 144.011719 467.914062 145.230469 C 469.738281 146.449219 471.53125 147.714844 473.292969 149.019531 C 475.058594 150.328125 476.789062 151.675781 478.484375 153.070312 C 480.179688 154.460938 481.839844 155.894531 483.46875 157.367188 C 485.09375 158.839844 486.683594 160.351562 488.234375 161.90625 C 489.789062 163.457031 491.300781 165.042969 492.773438 166.671875 C 494.25 168.296875 495.679688 169.957031 497.074219 171.652344 C 498.464844 173.347656 499.816406 175.078125 501.125 176.839844 C 502.433594 178.601562 503.695312 180.398438 504.914062 182.222656 C 506.132812 184.046875 507.308594 185.898438 508.4375 187.78125 C 509.566406 189.664062 510.648438 191.570312 511.683594 193.507812 C 512.71875 195.441406 513.703125 197.402344 514.644531 199.382812 C 515.582031 201.367188 516.472656 203.371094 517.3125 205.398438 C 518.152344 207.425781 518.941406 209.472656 519.683594 211.539062 C 520.421875 213.605469 521.109375 215.6875 521.746094 217.789062 C 522.386719 219.886719 522.972656 222.003906 523.503906 224.132812 C 524.039062 226.261719 524.519531 228.398438 524.949219 230.550781 C 525.378906 232.703125 525.753906 234.867188 526.078125 237.035156 C 526.398438 239.207031 526.667969 241.382812 526.882812 243.566406 C 527.101562 245.753906 527.261719 247.941406 527.371094 250.132812 C 527.480469 252.324219 527.535156 254.515625 527.535156 256.710938 Z M 509.46875 358.484375 C 510.007812 358.484375 510.542969 358.433594 511.070312 358.328125 C 511.597656 358.222656 512.109375 358.066406 512.609375 357.863281 C 513.105469 357.65625 513.578125 357.402344 514.023438 357.105469 C 514.472656 356.804688 514.886719 356.464844 515.269531 356.082031 C 515.648438 355.703125 515.988281 355.289062 516.289062 354.839844 C 516.585938 354.394531 516.839844 353.921875 517.046875 353.421875 C 517.25 352.925781 517.40625 352.414062 517.511719 351.886719 C 517.617188 351.355469 517.667969 350.824219 517.667969 350.285156 C 517.667969 349.746094 517.617188 349.214844 517.511719 348.6875 C 517.40625 348.15625 517.25 347.644531 517.046875 347.148438 C 516.839844 346.648438 516.585938 346.179688 516.289062 345.730469 C 515.988281 345.28125 515.648438 344.867188 515.269531 344.488281 C 514.886719 344.105469 514.472656 343.765625 514.023438 343.46875 C 513.578125 343.167969 513.105469 342.917969 512.609375 342.710938 C 512.109375 342.503906 511.597656 342.347656 511.070312 342.242188 C 510.542969 342.136719 510.007812 342.085938 509.46875 342.085938 C 508.929688 342.085938 508.398438 342.136719 507.871094 342.242188 C 507.34375 342.347656 506.828125 342.503906 506.332031 342.710938 C 505.835938 342.917969 505.363281 343.167969 504.914062 343.46875 C 504.464844 343.765625 504.050781 344.105469 503.671875 344.488281 C 503.289062 344.867188 502.949219 345.28125 502.652344 345.730469 C 502.351562 346.179688 502.101562 346.648438 501.894531 347.148438 C 501.6875 347.644531 501.53125 348.15625 501.425781 348.6875 C 501.324219 349.214844 501.269531 349.746094 501.269531 350.285156 C 501.269531 350.824219 501.324219 351.355469 501.425781 351.886719 C 501.53125 352.414062 501.6875 352.925781 501.894531 353.421875 C 502.101562 353.921875 502.351562 354.394531 502.652344 354.839844 C 502.949219 355.289062 503.289062 355.703125 503.671875 356.082031 C 504.050781 356.464844 504.464844 356.804688 504.914062 357.105469 C 505.363281 357.402344 505.835938 357.65625 506.332031 357.863281 C 506.828125 358.066406 507.34375 358.222656 507.871094 358.328125 C 508.398438 358.433594 508.929688 358.484375 509.46875 358.484375 Z M 544.738281 546.730469 C 543.007812 548.898438 540.960938 550.707031 538.601562 552.160156 C 536.238281 553.617188 533.703125 554.628906 530.988281 555.199219 C 529.703125 555.449219 528.402344 555.574219 527.089844 555.574219 C 523.671875 555.589844 520.5 554.710938 517.578125 552.933594 C 518.042969 555.621094 517.957031 558.289062 517.324219 560.941406 C 517 562.234375 516.570312 563.492188 516.035156 564.714844 C 515.503906 565.9375 514.875 567.109375 514.152344 568.230469 C 513.425781 569.347656 512.613281 570.402344 511.71875 571.390625 C 510.820312 572.378906 509.847656 573.285156 508.800781 574.113281 C 507.757812 574.941406 506.648438 575.679688 505.484375 576.324219 C 504.316406 576.972656 503.105469 577.519531 501.847656 577.964844 C 500.589844 578.414062 499.304688 578.757812 497.992188 578.992188 C 496.679688 579.230469 495.355469 579.359375 494.023438 579.382812 C 491.164062 579.390625 488.425781 578.816406 485.808594 577.664062 C 486.351562 580.714844 486.15625 583.71875 485.222656 586.671875 C 484.367188 589.308594 483.09375 591.722656 481.402344 593.917969 C 479.714844 596.113281 477.703125 597.957031 475.371094 599.457031 C 473.414062 600.738281 471.316406 601.71875 469.078125 602.394531 C 466.839844 603.074219 464.550781 603.421875 462.210938 603.4375 C 460.050781 603.4375 457.941406 603.117188 455.882812 602.472656 C 455.867188 604.3125 455.632812 606.121094 455.179688 607.898438 C 454.726562 609.679688 454.070312 611.378906 453.203125 613 C 452.339844 614.621094 451.292969 616.113281 450.066406 617.480469 C 448.839844 618.847656 447.46875 620.050781 445.949219 621.082031 C 443.929688 622.558594 441.730469 623.691406 439.355469 624.480469 C 436.976562 625.265625 434.539062 625.671875 432.035156 625.695312 C 431.488281 625.695312 430.988281 625.695312 430.484375 625.652344 C 428.519531 625.507812 426.617188 625.074219 424.785156 624.351562 C 424.039062 626.023438 423.109375 627.585938 421.992188 629.035156 C 420.878906 630.484375 419.609375 631.78125 418.183594 632.929688 C 416.757812 634.078125 415.21875 635.042969 413.566406 635.824219 C 411.910156 636.605469 410.1875 637.183594 408.394531 637.554688 C 406.589844 637.96875 404.757812 638.179688 402.90625 638.183594 C 393.097656 638.183594 384.507812 632.273438 382.535156 623.429688 C 382.25 622.1875 382.113281 620.933594 382.117188 619.660156 C 382.121094 616.703125 382.820312 613.921875 384.214844 611.316406 C 383.171875 611.488281 382.125 611.570312 381.070312 611.570312 C 379.476562 611.542969 377.902344 611.355469 376.347656 611.007812 C 374.792969 610.660156 373.289062 610.15625 371.835938 609.5 C 370.382812 608.84375 369.011719 608.050781 367.722656 607.113281 C 366.433594 606.175781 365.253906 605.121094 364.179688 603.941406 C 362.890625 602.621094 361.777344 601.167969 360.839844 599.578125 C 359.90625 597.992188 359.167969 596.3125 358.636719 594.546875 C 358.105469 592.78125 357.789062 590.976562 357.691406 589.136719 C 357.59375 587.296875 357.714844 585.46875 358.058594 583.65625 C 357.046875 583.824219 356.027344 583.910156 355 583.90625 C 354.15625 583.914062 353.320312 583.859375 352.484375 583.738281 C 351.125 583.539062 349.792969 583.226562 348.488281 582.804688 C 347.179688 582.378906 345.917969 581.847656 344.703125 581.214844 C 343.484375 580.578125 342.328125 579.84375 341.234375 579.015625 C 340.140625 578.183594 339.121094 577.269531 338.183594 576.265625 C 337.242188 575.265625 336.390625 574.195312 335.628906 573.050781 C 334.871094 571.90625 334.210938 570.707031 333.652344 569.453125 C 333.09375 568.199219 332.640625 566.90625 332.300781 565.574219 C 331.957031 564.246094 331.730469 562.894531 331.613281 561.527344 C 331.511719 560.167969 331.558594 558.816406 331.757812 557.472656 C 331.953125 556.125 332.292969 554.816406 332.777344 553.542969 C 333.265625 552.273438 333.882812 551.070312 334.632812 549.933594 C 335.382812 548.800781 336.25 547.757812 337.230469 546.816406 C 338.921875 545.253906 340.84375 544.058594 342.996094 543.234375 C 345.144531 542.40625 347.375 542.007812 349.675781 542.039062 C 351.269531 542.0625 352.839844 542.25 354.390625 542.601562 C 355.941406 542.949219 357.441406 543.449219 358.890625 544.105469 C 360.339844 544.761719 361.707031 545.558594 362.992188 546.496094 C 364.28125 547.429688 365.457031 548.488281 366.527344 549.664062 C 368.441406 551.664062 369.964844 553.921875 371.09375 556.449219 C 372.222656 558.976562 372.894531 561.617188 373.105469 564.375 C 373.230469 566.269531 373.078125 568.144531 372.644531 569.992188 C 374.476562 569.75 376.304688 569.730469 378.140625 569.9375 C 379.972656 570.140625 381.753906 570.5625 383.488281 571.203125 C 385.21875 571.839844 386.847656 572.679688 388.371094 573.714844 C 389.898438 574.75 391.277344 575.953125 392.511719 577.328125 C 398.757812 583.949219 400.558594 592.960938 397.875 600.128906 C 398.503906 599.960938 399.175781 599.792969 399.847656 599.625 C 402.304688 599.046875 404.789062 598.863281 407.300781 599.078125 C 409.816406 599.292969 412.234375 599.894531 414.558594 600.882812 C 415.011719 599.667969 415.5625 598.5 416.199219 597.375 C 416.839844 596.25 417.5625 595.179688 418.371094 594.167969 C 419.179688 593.15625 420.0625 592.214844 421.019531 591.339844 C 421.976562 590.46875 422.992188 589.675781 424.074219 588.960938 C 425.15625 588.25 426.285156 587.625 427.464844 587.089844 C 428.644531 586.554688 429.859375 586.117188 431.109375 585.773438 C 432.355469 585.429688 433.625 585.183594 434.910156 585.039062 C 436.199219 584.898438 437.488281 584.855469 438.78125 584.914062 C 440.34375 585.027344 441.867188 585.332031 443.351562 585.835938 L 443.351562 585.582031 C 443.40625 583.703125 443.691406 581.859375 444.203125 580.050781 C 444.710938 578.242188 445.4375 576.523438 446.371094 574.890625 C 447.308594 573.261719 448.429688 571.769531 449.734375 570.417969 C 451.035156 569.0625 452.484375 567.886719 454.082031 566.890625 C 456.390625 565.359375 458.890625 564.261719 461.582031 563.589844 C 464.273438 562.921875 466.996094 562.722656 469.753906 562.992188 C 471.832031 563.226562 473.816406 563.785156 475.707031 564.667969 C 475.539062 563.601562 475.453125 562.523438 475.457031 561.441406 C 475.453125 559.882812 475.636719 558.347656 476 556.832031 C 476.660156 554.148438 477.75 551.65625 479.277344 549.351562 C 480.800781 547.050781 482.671875 545.074219 484.886719 543.421875 C 492.597656 537.554688 502.488281 536.925781 509.488281 541.15625 C 509.199219 539.886719 509.0625 538.601562 509.070312 537.300781 C 509.085938 534.527344 509.566406 531.839844 510.515625 529.234375 C 511.464844 526.628906 512.828125 524.261719 514.601562 522.128906 C 522.3125 512.699219 535.347656 510.519531 543.648438 517.308594 C 551.988281 524.058594 552.449219 537.300781 544.738281 546.730469 Z M 360.53125 565.171875 C 360.414062 563.875 360.089844 562.632812 359.550781 561.449219 C 359.011719 560.261719 358.289062 559.199219 357.390625 558.257812 C 353.828125 554.484375 348.546875 553.4375 345.820312 555.992188 C 345.207031 556.628906 344.757812 557.363281 344.472656 558.199219 C 344.1875 559.035156 344.089844 559.894531 344.1875 560.773438 C 344.3125 562.070312 344.648438 563.3125 345.195312 564.5 C 345.738281 565.683594 346.464844 566.75 347.371094 567.6875 C 348.253906 568.640625 349.265625 569.425781 350.40625 570.042969 C 351.546875 570.660156 352.757812 571.078125 354.035156 571.292969 C 354.90625 571.429688 355.765625 571.378906 356.613281 571.148438 C 357.460938 570.914062 358.222656 570.515625 358.898438 569.949219 C 359.511719 569.3125 359.957031 568.578125 360.242188 567.742188 C 360.53125 566.90625 360.625 566.050781 360.53125 565.171875 Z M 383.375 585.917969 C 379.8125 582.148438 374.488281 581.097656 371.808594 583.65625 C 369.082031 586.210938 369.796875 591.535156 373.359375 595.347656 C 376.921875 599.121094 382.203125 600.167969 384.882812 597.613281 C 387.609375 595.054688 386.894531 589.734375 383.375 585.917969 Z M 413.46875 616.515625 C 413.234375 615.65625 412.828125 614.886719 412.25 614.210938 C 411.667969 613.535156 410.972656 613.019531 410.15625 612.660156 C 408.980469 612.097656 407.746094 611.75 406.449219 611.621094 C 405.15625 611.492188 403.875 611.585938 402.613281 611.90625 C 397.542969 613.035156 393.976562 617.058594 394.773438 620.707031 C 395.613281 624.3125 400.601562 626.449219 405.628906 625.273438 C 410.703125 624.144531 414.265625 620.121094 413.46875 616.515625 Z M 442.429688 599.707031 C 441.871094 599.027344 441.195312 598.496094 440.40625 598.109375 C 439.617188 597.71875 438.78125 597.511719 437.902344 597.488281 C 437.695312 597.453125 437.484375 597.441406 437.273438 597.445312 C 434.816406 597.5 432.59375 598.253906 430.609375 599.707031 C 429.539062 600.453125 428.621094 601.351562 427.859375 602.410156 C 427.097656 603.464844 426.535156 604.617188 426.167969 605.871094 C 425.910156 606.710938 425.839844 607.566406 425.957031 608.4375 C 426.074219 609.308594 426.367188 610.113281 426.835938 610.855469 C 427.394531 611.542969 428.066406 612.085938 428.855469 612.480469 C 429.644531 612.875 430.480469 613.089844 431.363281 613.121094 C 432.664062 613.164062 433.933594 612.996094 435.175781 612.617188 C 436.417969 612.234375 437.566406 611.664062 438.617188 610.898438 C 442.847656 607.839844 444.566406 602.769531 442.429688 599.707031 Z M 472.730469 577.914062 C 472.210938 577.207031 471.566406 576.640625 470.796875 576.214844 C 470.027344 575.792969 469.207031 575.546875 468.332031 575.484375 C 467.03125 575.363281 465.753906 575.472656 464.492188 575.800781 C 463.234375 576.132812 462.066406 576.671875 460.996094 577.410156 C 456.636719 580.261719 454.667969 585.289062 456.722656 588.390625 C 458.773438 591.535156 464.140625 591.746094 468.5 588.9375 C 469.589844 588.234375 470.539062 587.371094 471.34375 586.351562 C 472.144531 585.332031 472.761719 584.210938 473.191406 582.984375 C 473.492188 582.148438 473.605469 581.285156 473.523438 580.398438 C 473.441406 579.511719 473.179688 578.683594 472.730469 577.914062 Z M 504.292969 553.101562 C 503.679688 552.378906 502.941406 551.828125 502.070312 551.449219 C 501.199219 551.074219 500.292969 550.914062 499.347656 550.964844 C 498.101562 550.996094 496.898438 551.226562 495.730469 551.648438 C 494.5625 552.070312 493.488281 552.667969 492.511719 553.4375 C 491.464844 554.203125 490.574219 555.121094 489.839844 556.195312 C 489.109375 557.265625 488.574219 558.429688 488.238281 559.683594 C 488.003906 560.53125 487.957031 561.390625 488.097656 562.261719 C 488.234375 563.132812 488.546875 563.933594 489.035156 564.667969 L 489.035156 564.710938 C 491.296875 567.644531 496.703125 567.519531 500.8125 564.375 C 501.863281 563.601562 502.753906 562.675781 503.488281 561.597656 C 504.21875 560.519531 504.753906 559.351562 505.085938 558.089844 C 505.332031 557.242188 505.386719 556.378906 505.246094 555.507812 C 505.105469 554.632812 504.789062 553.832031 504.292969 553.101562 Z M 535.726562 527.03125 C 534.703125 526.234375 533.542969 525.855469 532.246094 525.902344 C 530.6875 525.996094 529.214844 526.410156 527.832031 527.140625 C 526.453125 527.871094 525.28125 528.855469 524.324219 530.09375 C 523.488281 531.09375 522.84375 532.207031 522.382812 533.429688 C 521.921875 534.648438 521.675781 535.914062 521.644531 537.21875 C 521.617188 538.097656 521.777344 538.945312 522.121094 539.757812 C 522.464844 540.570312 522.960938 541.273438 523.613281 541.871094 C 524.609375 542.652344 525.742188 543.027344 527.007812 543 C 527.53125 542.996094 528.046875 542.941406 528.558594 542.832031 C 529.824219 542.546875 531.007812 542.058594 532.109375 541.367188 C 533.207031 540.679688 534.160156 539.824219 534.972656 538.808594 C 538.242188 534.785156 538.574219 529.378906 535.726562 527.03125 Z M 535.726562 527.03125 " fill-opacity="1" fill-rule="nonzero"/><path fill="#ff5e64" d="M 706.707031 542.046875 C 703.554688 548.339844 700.207031 554.523438 696.667969 560.605469 C 693.125 566.683594 689.398438 572.648438 685.484375 578.496094 C 681.570312 584.34375 677.476562 590.0625 673.207031 595.65625 C 668.933594 601.246094 664.492188 606.699219 659.878906 612.011719 C 655.265625 617.324219 650.492188 622.488281 645.554688 627.503906 C 640.621094 632.519531 635.53125 637.375 630.292969 642.070312 C 625.050781 646.765625 619.671875 651.296875 614.148438 655.65625 C 608.625 660.015625 602.972656 664.195312 597.1875 668.203125 C 591.402344 672.210938 585.496094 676.03125 579.472656 679.667969 C 573.449219 683.304688 567.316406 686.75 561.078125 690 C 554.839844 693.253906 548.503906 696.308594 542.074219 699.164062 C 535.644531 702.023438 529.128906 704.675781 522.535156 707.125 C 515.9375 709.574219 509.269531 711.8125 502.535156 713.847656 C 495.796875 715.878906 489.003906 717.699219 482.152344 719.304688 C 475.304688 720.910156 468.410156 722.304688 461.472656 723.480469 C 454.535156 724.652344 447.566406 725.613281 440.570312 726.351562 C 433.570312 727.089844 426.558594 727.613281 419.527344 727.914062 C 412.5 728.214844 405.464844 728.292969 398.429688 728.15625 C 391.394531 728.015625 384.371094 727.65625 377.359375 727.078125 C 370.347656 726.5 363.359375 725.703125 356.394531 724.6875 C 349.433594 723.671875 342.507812 722.441406 335.625 720.992188 C 328.738281 719.542969 321.90625 717.878906 315.121094 716.003906 C 308.339844 714.128906 301.625 712.039062 294.972656 709.746094 C 288.324219 707.449219 281.75 704.945312 275.253906 702.238281 C 268.761719 699.53125 262.359375 696.621094 256.046875 693.511719 C 249.730469 690.40625 243.523438 687.101562 237.417969 683.605469 C 231.3125 680.109375 225.320312 676.425781 219.445312 672.550781 C 213.570312 668.679688 207.820312 664.628906 202.199219 660.398438 C 196.578125 656.167969 191.09375 651.761719 185.746094 647.1875 C 180.398438 642.613281 175.203125 637.878906 170.152344 632.976562 C 165.101562 628.078125 160.210938 623.023438 155.476562 617.820312 C 150.742188 612.613281 146.175781 607.265625 141.773438 601.773438 L 145.378906 591.378906 C 146.269531 588.824219 147.292969 586.328125 148.449219 583.882812 C 149.609375 581.441406 150.894531 579.066406 152.308594 576.761719 C 153.722656 574.457031 155.257812 572.238281 156.910156 570.097656 C 158.5625 567.957031 160.328125 565.914062 162.199219 563.964844 C 164.074219 562.015625 166.046875 560.171875 168.117188 558.4375 C 170.191406 556.699219 172.351562 555.078125 174.597656 553.574219 C 176.84375 552.070312 179.164062 550.691406 181.558594 549.4375 C 183.953125 548.183594 186.410156 547.0625 188.925781 546.070312 L 210.59375 537.4375 L 411.226562 644.605469 L 671.207031 530.019531 Z M 706.707031 542.046875 " fill-opacity="1" fill-rule="nonzero"/><path fill="#242156" d="M 671.207031 530.019531 L 534.84375 590.121094 L 411.226562 644.605469 L 210.59375 537.4375 L 302.257812 486.097656 L 345.929688 483.582031 L 356.53125 553.910156 L 389.558594 611.328125 C 390.03125 612.152344 390.550781 612.945312 391.109375 613.710938 C 391.667969 614.476562 392.269531 615.210938 392.910156 615.910156 C 393.546875 616.613281 394.226562 617.273438 394.9375 617.902344 C 395.648438 618.527344 396.394531 619.113281 397.171875 619.660156 C 397.949219 620.203125 398.75 620.703125 399.582031 621.160156 C 400.414062 621.617188 401.269531 622.03125 402.144531 622.394531 C 403.019531 622.757812 403.914062 623.070312 404.824219 623.339844 C 405.734375 623.605469 406.65625 623.820312 407.59375 623.984375 C 408.527344 624.152344 409.464844 624.265625 410.414062 624.328125 C 411.359375 624.390625 412.308594 624.402344 413.253906 624.359375 C 414.203125 624.320312 415.144531 624.226562 416.082031 624.082031 C 417.019531 623.9375 417.949219 623.742188 418.863281 623.496094 C 419.78125 623.253906 420.679688 622.957031 421.566406 622.613281 C 422.449219 622.269531 423.3125 621.878906 424.15625 621.441406 C 424.996094 621.003906 425.8125 620.519531 426.601562 619.992188 C 427.386719 619.464844 428.144531 618.894531 428.871094 618.285156 L 529.417969 533.875 L 521.164062 479.265625 L 572.769531 482.019531 Z M 345.929688 483.582031 C 347.667969 484.207031 349.421875 484.789062 351.195312 485.320312 C 352.964844 485.847656 354.75 486.332031 356.546875 486.761719 C 358.34375 487.195312 360.152344 487.574219 361.972656 487.90625 C 363.792969 488.238281 365.617188 488.519531 367.453125 488.75 C 369.285156 488.980469 371.125 489.160156 372.972656 489.289062 C 374.816406 489.417969 376.660156 489.496094 378.511719 489.523438 C 380.359375 489.546875 382.207031 489.523438 384.054688 489.449219 C 385.902344 489.371094 387.746094 489.246094 389.585938 489.066406 C 391.425781 488.890625 393.261719 488.660156 395.085938 488.378906 C 396.914062 488.101562 398.734375 487.769531 400.542969 487.390625 C 402.351562 487.011719 404.148438 486.582031 405.9375 486.101562 C 407.722656 485.621094 409.492188 485.089844 411.25 484.515625 C 413.003906 483.9375 414.742188 483.308594 416.464844 482.636719 C 418.1875 481.960938 419.886719 481.238281 421.570312 480.472656 C 423.25 479.703125 424.910156 478.890625 426.546875 478.027344 C 428.183594 477.167969 429.796875 476.261719 431.382812 475.3125 C 432.96875 474.363281 434.527344 473.371094 436.058594 472.335938 C 437.589844 471.300781 439.089844 470.222656 440.5625 469.101562 C 442.035156 467.984375 443.476562 466.824219 444.882812 465.625 C 446.289062 464.425781 447.664062 463.191406 449.003906 461.917969 C 450.339844 460.640625 451.644531 459.332031 452.910156 457.984375 C 454.175781 456.636719 455.40625 455.253906 456.597656 453.839844 C 457.785156 452.425781 458.9375 450.980469 460.046875 449.5 C 461.15625 448.019531 462.222656 446.511719 463.25 444.976562 C 464.277344 443.4375 465.257812 441.871094 466.199219 440.28125 C 467.140625 438.6875 468.035156 437.070312 468.882812 435.429688 C 469.734375 433.785156 470.539062 432.121094 471.296875 430.4375 C 472.054688 428.75 472.765625 427.042969 473.429688 425.320312 C 474.09375 423.59375 474.707031 421.851562 475.273438 420.089844 C 475.84375 418.332031 476.359375 416.554688 476.828125 414.769531 C 477.296875 412.980469 477.714844 411.179688 478.085938 409.367188 C 478.453125 407.554688 478.773438 405.734375 479.042969 403.90625 L 478.832031 404.492188 C 478.792969 404.625 478.738281 404.753906 478.664062 404.871094 C 477.984375 406.425781 477.269531 407.960938 476.519531 409.484375 C 475.769531 411.003906 474.984375 412.507812 474.164062 413.992188 C 473.347656 415.476562 472.492188 416.945312 471.609375 418.390625 C 470.722656 419.835938 469.804688 421.261719 468.851562 422.667969 C 467.902344 424.070312 466.917969 425.453125 465.90625 426.8125 C 464.890625 428.171875 463.847656 429.507812 462.773438 430.820312 C 461.699219 432.132812 460.59375 433.417969 459.460938 434.679688 C 458.328125 435.941406 457.164062 437.179688 455.976562 438.386719 C 454.785156 439.597656 453.566406 440.777344 452.324219 441.929688 C 451.082031 443.082031 449.8125 444.207031 448.515625 445.304688 C 447.222656 446.398438 445.902344 447.464844 444.558594 448.5 C 443.214844 449.535156 441.847656 450.539062 440.457031 451.511719 C 439.070312 452.484375 437.65625 453.421875 436.226562 454.332031 C 434.792969 455.242188 433.339844 456.117188 431.867188 456.957031 C 430.394531 457.800781 428.90625 458.609375 427.394531 459.382812 C 425.886719 460.15625 424.359375 460.894531 422.816406 461.601562 C 421.273438 462.304688 419.71875 462.972656 418.144531 463.609375 C 416.570312 464.242188 414.984375 464.839844 413.382812 465.398438 C 411.78125 465.960938 410.167969 466.484375 408.542969 466.972656 C 406.921875 467.460938 405.285156 467.910156 403.640625 468.324219 C 401.996094 468.734375 400.339844 469.109375 398.679688 469.449219 C 397.015625 469.785156 395.347656 470.085938 393.671875 470.347656 C 391.996094 470.609375 390.316406 470.832031 388.628906 471.015625 C 386.941406 471.199219 385.253906 471.347656 383.5625 471.453125 C 381.867188 471.5625 380.175781 471.628906 378.476562 471.660156 C 376.78125 471.691406 375.085938 471.683594 373.390625 471.636719 C 371.695312 471.585938 370.003906 471.503906 368.308594 471.378906 C 366.617188 471.253906 364.929688 471.089844 363.246094 470.890625 C 361.5625 470.6875 359.882812 470.449219 358.210938 470.171875 C 356.539062 469.890625 354.871094 469.578125 353.210938 469.222656 C 351.554688 468.867188 349.902344 468.476562 348.261719 468.046875 C 346.621094 467.617188 344.992188 467.152344 343.371094 466.648438 M 294.398438 316.410156 C 298.738281 316.410156 302.257812 310.921875 302.257812 304.152344 C 302.257812 297.382812 298.738281 291.894531 294.398438 291.894531 C 290.058594 291.894531 286.542969 297.382812 286.542969 304.152344 C 286.542969 310.921875 290.058594 316.410156 294.398438 316.410156 Z M 411.207031 697.824219 C 411.792969 697.824219 412.378906 697.796875 412.960938 697.738281 C 413.546875 697.679688 414.125 697.59375 414.699219 697.480469 C 415.277344 697.367188 415.84375 697.222656 416.40625 697.054688 C 416.96875 696.882812 417.519531 696.683594 418.058594 696.460938 C 418.601562 696.238281 419.132812 695.984375 419.648438 695.710938 C 420.167969 695.433594 420.667969 695.132812 421.15625 694.804688 C 421.644531 694.480469 422.113281 694.132812 422.566406 693.757812 C 423.023438 693.386719 423.457031 692.992188 423.871094 692.578125 C 424.285156 692.164062 424.679688 691.730469 425.050781 691.277344 C 425.421875 690.824219 425.773438 690.351562 426.097656 689.863281 C 426.421875 689.378906 426.726562 688.875 427 688.359375 C 427.277344 687.839844 427.527344 687.3125 427.753906 686.769531 C 427.976562 686.226562 428.175781 685.675781 428.34375 685.113281 C 428.515625 684.550781 428.65625 683.984375 428.773438 683.410156 C 428.886719 682.832031 428.972656 682.253906 429.03125 681.671875 C 429.085938 681.085938 429.117188 680.5 429.117188 679.914062 C 429.117188 679.328125 429.085938 678.742188 429.03125 678.160156 C 428.972656 677.578125 428.886719 676.996094 428.773438 676.421875 C 428.65625 675.847656 428.515625 675.277344 428.34375 674.714844 C 428.175781 674.15625 427.976562 673.605469 427.753906 673.0625 C 427.527344 672.519531 427.277344 671.992188 427 671.472656 C 426.722656 670.957031 426.421875 670.453125 426.097656 669.964844 C 425.773438 669.476562 425.421875 669.007812 425.050781 668.554688 C 424.679688 668.101562 424.285156 667.667969 423.871094 667.25 C 423.457031 666.835938 423.023438 666.445312 422.566406 666.070312 C 422.113281 665.699219 421.644531 665.351562 421.15625 665.023438 C 420.667969 664.699219 420.167969 664.398438 419.648438 664.121094 C 419.132812 663.84375 418.601562 663.59375 418.058594 663.371094 C 417.519531 663.144531 416.96875 662.949219 416.40625 662.777344 C 415.84375 662.609375 415.277344 662.464844 414.699219 662.351562 C 414.125 662.238281 413.546875 662.152344 412.960938 662.09375 C 412.378906 662.035156 411.792969 662.007812 411.207031 662.007812 C 410.621094 662.007812 410.035156 662.035156 409.453125 662.09375 C 408.867188 662.152344 408.289062 662.238281 407.714844 662.351562 C 407.136719 662.464844 406.570312 662.609375 406.007812 662.777344 C 405.445312 662.949219 404.894531 663.144531 404.355469 663.371094 C 403.8125 663.59375 403.28125 663.84375 402.765625 664.121094 C 402.246094 664.398438 401.746094 664.699219 401.257812 665.023438 C 400.769531 665.351562 400.300781 665.699219 399.847656 666.070312 C 399.390625 666.445312 398.957031 666.835938 398.542969 667.25 C 398.128906 667.667969 397.734375 668.101562 397.363281 668.554688 C 396.992188 669.007812 396.640625 669.476562 396.316406 669.964844 C 395.992188 670.453125 395.6875 670.957031 395.414062 671.472656 C 395.136719 671.992188 394.886719 672.519531 394.660156 673.0625 C 394.4375 673.605469 394.238281 674.15625 394.070312 674.714844 C 393.898438 675.277344 393.757812 675.847656 393.640625 676.421875 C 393.527344 676.996094 393.441406 677.578125 393.382812 678.160156 C 393.328125 678.742188 393.296875 679.328125 393.296875 679.914062 C 393.296875 680.5 393.328125 681.085938 393.382812 681.671875 C 393.441406 682.253906 393.527344 682.832031 393.640625 683.410156 C 393.757812 683.984375 393.898438 684.550781 394.070312 685.113281 C 394.238281 685.675781 394.4375 686.226562 394.660156 686.769531 C 394.886719 687.3125 395.136719 687.839844 395.414062 688.359375 C 395.6875 688.875 395.992188 689.378906 396.316406 689.863281 C 396.640625 690.351562 396.992188 690.824219 397.363281 691.277344 C 397.734375 691.730469 398.128906 692.164062 398.542969 692.578125 C 398.957031 692.992188 399.390625 693.386719 399.847656 693.757812 C 400.300781 694.132812 400.769531 694.480469 401.257812 694.804688 C 401.746094 695.132812 402.246094 695.433594 402.765625 695.710938 C 403.28125 695.984375 403.8125 696.238281 404.355469 696.460938 C 404.894531 696.683594 405.445312 696.882812 406.007812 697.054688 C 406.570312 697.222656 407.136719 697.367188 407.714844 697.480469 C 408.289062 697.59375 408.867188 697.679688 409.453125 697.738281 C 410.035156 697.796875 410.621094 697.824219 411.207031 697.824219 Z M 364.601562 316.410156 C 368.941406 316.410156 372.460938 310.921875 372.460938 304.152344 C 372.460938 297.382812 368.941406 291.894531 364.601562 291.894531 C 360.261719 291.894531 356.742188 297.382812 356.742188 304.152344 C 356.742188 310.921875 360.261719 316.410156 364.601562 316.410156 Z M 536.042969 297.15625 C 535.179688 296.320312 534.25 295.5625 533.257812 294.878906 C 532.265625 294.199219 531.226562 293.605469 530.136719 293.097656 C 529.046875 292.589844 527.921875 292.175781 526.761719 291.859375 C 525.601562 291.539062 524.425781 291.316406 523.226562 291.195312 C 522.03125 291.070312 520.832031 291.050781 519.632812 291.128906 C 518.433594 291.203125 517.246094 291.382812 516.078125 291.65625 C 514.90625 291.933594 513.765625 292.300781 512.65625 292.769531 C 511.546875 293.234375 510.484375 293.789062 509.46875 294.433594 C 512.828125 294.804688 516.09375 295.566406 519.265625 296.722656 C 522.441406 297.878906 525.433594 299.390625 528.246094 301.261719 C 533.886719 304.886719 538.441406 309.570312 541.910156 315.304688 C 542.167969 313.667969 542.234375 312.023438 542.105469 310.371094 C 541.976562 308.71875 541.65625 307.105469 541.148438 305.527344 C 540.636719 303.953125 539.953125 302.457031 539.089844 301.039062 C 538.226562 299.625 537.210938 298.332031 536.042969 297.15625 Z M 337.796875 381.191406 L 324.320312 381.191406 C 323.921875 381.191406 323.527344 381.148438 323.136719 381.066406 C 322.746094 380.984375 322.371094 380.863281 322.003906 380.703125 C 321.636719 380.542969 321.292969 380.347656 320.96875 380.117188 C 320.644531 379.886719 320.347656 379.621094 320.074219 379.328125 C 319.804688 379.035156 319.566406 378.71875 319.363281 378.375 C 319.15625 378.03125 318.992188 377.671875 318.859375 377.296875 C 318.730469 376.917969 318.640625 376.53125 318.589844 376.136719 C 318.539062 375.738281 318.53125 375.34375 318.5625 374.945312 L 323.882812 309.394531 C 323.902344 309.144531 323.878906 308.898438 323.808594 308.660156 C 323.738281 308.417969 323.628906 308.195312 323.480469 307.996094 C 323.328125 307.796875 323.148438 307.628906 322.933594 307.496094 C 322.722656 307.363281 322.492188 307.269531 322.246094 307.222656 C 322 307.171875 321.753906 307.167969 321.507812 307.210938 C 321.261719 307.253906 321.027344 307.335938 320.8125 307.464844 C 320.597656 307.589844 320.410156 307.75 320.253906 307.945312 C 320.09375 308.140625 319.980469 308.359375 319.902344 308.597656 L 298.613281 376.378906 C 298.382812 377.117188 298.246094 377.871094 298.203125 378.640625 C 298.164062 379.410156 298.222656 380.175781 298.375 380.933594 C 298.527344 381.6875 298.773438 382.414062 299.109375 383.109375 C 299.445312 383.804688 299.863281 384.445312 300.363281 385.035156 L 310.765625 397.285156 C 311.046875 397.617188 311.355469 397.917969 311.691406 398.191406 C 312.03125 398.46875 312.390625 398.707031 312.769531 398.917969 C 313.152344 399.125 313.550781 399.296875 313.964844 399.429688 C 314.375 399.566406 314.800781 399.660156 315.230469 399.71875 C 315.660156 399.773438 316.09375 399.792969 316.527344 399.769531 C 316.960938 399.746094 317.390625 399.683594 317.8125 399.582031 C 318.234375 399.480469 318.644531 399.339844 319.042969 399.164062 C 319.4375 398.988281 319.816406 398.773438 320.171875 398.527344 L 339.125 385.445312 C 339.546875 385.15625 339.839844 384.769531 340.003906 384.285156 C 340.171875 383.804688 340.179688 383.316406 340.027344 382.832031 C 339.875 382.34375 339.59375 381.945312 339.183594 381.644531 C 338.769531 381.339844 338.308594 381.191406 337.796875 381.191406 Z M 337.796875 381.191406 " fill-opacity="1" fill-rule="nonzero"/></svg>