<svg xmlns="http://www.w3.org/2000/svg" xmlns:xlink="http://www.w3.org/1999/xlink" width="1080" zoomAndPan="magnify" viewBox="0 0 810 809.999993" height="1080" preserveAspectRatio="xMidYMid meet" version="1.0"><defs><clipPath id="0421b8e359"><path d="M 68 59.972656 L 742 59.972656 L 742 734 L 68 734 Z M 68 59.972656 " clip-rule="nonzero"/></clipPath></defs><g clip-path="url(#0421b8e359)"><path fill="#cb6ce6" d="M 741.738281 396.710938 C 741.738281 402.222656 741.605469 407.730469 741.332031 413.234375 C 741.0625 418.738281 740.65625 424.234375 740.117188 429.71875 C 739.578125 435.203125 738.902344 440.671875 738.09375 446.121094 C 737.285156 451.574219 736.34375 457 735.269531 462.40625 C 734.195312 467.8125 732.988281 473.1875 731.648438 478.53125 C 730.308594 483.878906 728.839844 489.1875 727.238281 494.460938 C 725.640625 499.734375 723.910156 504.96875 722.054688 510.15625 C 720.199219 515.34375 718.214844 520.484375 716.105469 525.578125 C 713.996094 530.667969 711.765625 535.703125 709.410156 540.6875 C 707.050781 545.667969 704.574219 550.589844 701.976562 555.449219 C 699.378906 560.308594 696.664062 565.105469 693.832031 569.832031 C 690.996094 574.558594 688.050781 579.210938 684.988281 583.792969 C 681.925781 588.375 678.753906 592.878906 675.472656 597.308594 C 672.1875 601.734375 668.800781 606.078125 665.304688 610.335938 C 661.808594 614.597656 658.207031 618.769531 654.507812 622.851562 C 650.804688 626.9375 647.007812 630.925781 643.109375 634.824219 C 639.214844 638.71875 635.222656 642.519531 631.140625 646.21875 C 627.058594 649.921875 622.886719 653.519531 618.625 657.015625 C 614.363281 660.511719 610.023438 663.902344 605.59375 667.183594 C 601.167969 670.464844 596.664062 673.640625 592.082031 676.699219 C 587.5 679.761719 582.84375 682.710938 578.117188 685.542969 C 573.390625 688.375 568.597656 691.089844 563.738281 693.691406 C 558.878906 696.289062 553.957031 698.765625 548.972656 701.121094 C 543.992188 703.476562 538.957031 705.710938 533.863281 707.820312 C 528.773438 709.925781 523.632812 711.910156 518.445312 713.765625 C 513.253906 715.625 508.023438 717.351562 502.75 718.953125 C 497.476562 720.550781 492.167969 722.019531 486.820312 723.359375 C 481.476562 724.699219 476.097656 725.90625 470.695312 726.980469 C 465.289062 728.054688 459.859375 728.996094 454.410156 729.808594 C 448.957031 730.617188 443.492188 731.289062 438.007812 731.828125 C 432.523438 732.371094 427.027344 732.773438 421.523438 733.046875 C 416.019531 733.316406 410.511719 733.453125 405 733.453125 C 399.488281 733.453125 393.980469 733.316406 388.476562 733.046875 C 382.972656 732.773438 377.476562 732.371094 371.992188 731.828125 C 366.507812 731.289062 361.042969 730.617188 355.589844 729.804688 C 350.136719 728.996094 344.710938 728.054688 339.304688 726.980469 C 333.898438 725.90625 328.523438 724.699219 323.179688 723.359375 C 317.832031 722.019531 312.523438 720.550781 307.25 718.953125 C 301.976562 717.351562 296.746094 715.625 291.554688 713.765625 C 286.367188 711.910156 281.226562 709.925781 276.136719 707.820312 C 271.042969 705.710938 266.007812 703.476562 261.023438 701.121094 C 256.042969 698.765625 251.121094 696.289062 246.261719 693.691406 C 241.402344 691.089844 236.609375 688.375 231.882812 685.542969 C 227.152344 682.710938 222.5 679.761719 217.917969 676.699219 C 213.335938 673.636719 208.832031 670.464844 204.402344 667.183594 C 199.976562 663.902344 195.632812 660.511719 191.375 657.015625 C 187.113281 653.519531 182.941406 649.921875 178.859375 646.21875 C 174.777344 642.519531 170.785156 638.71875 166.890625 634.824219 C 162.992188 630.925781 159.191406 626.9375 155.492188 622.851562 C 151.792969 618.769531 148.191406 614.597656 144.695312 610.335938 C 141.199219 606.078125 137.8125 601.734375 134.527344 597.308594 C 131.246094 592.878906 128.074219 588.375 125.011719 583.792969 C 121.949219 579.210938 119 574.558594 116.167969 569.832031 C 113.335938 565.105469 110.621094 560.308594 108.023438 555.449219 C 105.425781 550.589844 102.945312 545.667969 100.589844 540.6875 C 98.234375 535.703125 96 530.667969 93.894531 525.578125 C 91.785156 520.484375 89.800781 515.34375 87.945312 510.15625 C 86.085938 504.96875 84.359375 499.734375 82.761719 494.460938 C 81.160156 489.1875 79.691406 483.878906 78.351562 478.53125 C 77.011719 473.1875 75.804688 467.8125 74.730469 462.40625 C 73.65625 457 72.714844 451.574219 71.90625 446.121094 C 71.097656 440.671875 70.421875 435.203125 69.882812 429.71875 C 69.339844 424.234375 68.9375 418.738281 68.664062 413.234375 C 68.394531 407.730469 68.261719 402.222656 68.261719 396.710938 C 68.261719 210.730469 219.019531 59.972656 405 59.972656 C 590.980469 59.972656 741.738281 210.730469 741.738281 396.710938 Z M 741.738281 396.710938 " fill-opacity="1" fill-rule="nonzero"/></g><path fill="#fcc00a" d="M 654.355469 623.058594 C 649.996094 627.867188 645.5 632.542969 640.867188 637.089844 C 636.234375 641.636719 631.476562 646.046875 626.589844 650.320312 C 621.703125 654.589844 616.699219 658.71875 611.574219 662.699219 C 606.449219 666.683594 601.214844 670.515625 595.867188 674.195312 C 590.519531 677.875 585.074219 681.394531 579.523438 684.761719 C 573.972656 688.125 568.332031 691.328125 562.59375 694.363281 C 556.859375 697.402344 551.042969 700.273438 545.140625 702.976562 C 539.238281 705.675781 533.265625 708.207031 527.21875 710.5625 C 521.167969 712.917969 515.058594 715.097656 508.886719 717.101562 C 502.710938 719.105469 496.484375 720.925781 490.207031 722.570312 C 483.929688 724.214844 477.605469 725.671875 471.242188 726.949219 C 464.878906 728.226562 458.484375 729.320312 452.058594 730.226562 C 445.632812 731.136719 439.183594 731.855469 432.714844 732.390625 C 426.246094 732.925781 419.769531 733.273438 413.28125 733.433594 C 406.792969 733.59375 400.304688 733.566406 393.820312 733.351562 C 387.332031 733.136719 380.855469 732.734375 374.394531 732.144531 C 367.929688 731.554688 361.488281 730.777344 355.070312 729.816406 C 348.652344 728.851562 342.265625 727.707031 335.914062 726.375 C 329.5625 725.042969 323.253906 723.53125 316.988281 721.832031 C 310.722656 720.136719 304.511719 718.261719 298.355469 716.207031 C 292.199219 714.152344 286.109375 711.917969 280.082031 709.511719 C 274.054688 707.105469 268.101562 704.523438 262.222656 701.773438 C 256.347656 699.019531 250.550781 696.101562 244.84375 693.011719 C 239.132812 689.925781 233.519531 686.675781 227.996094 683.265625 C 222.476562 679.855469 217.058594 676.285156 211.742188 672.558594 C 206.429688 668.835938 201.226562 664.960938 196.132812 660.933594 C 191.042969 656.90625 186.074219 652.738281 181.222656 648.425781 C 176.375 644.109375 171.652344 639.660156 167.0625 635.074219 C 162.46875 630.488281 158.011719 625.773438 153.691406 620.929688 C 149.375 616.085938 145.199219 611.121094 141.164062 606.035156 C 137.132812 600.949219 133.25 595.75 129.519531 590.441406 C 125.785156 585.132812 122.210938 579.71875 118.792969 574.199219 L 169.113281 488.699219 C 170.078125 487.058594 171.101562 485.460938 172.1875 483.902344 C 173.269531 482.339844 174.410156 480.824219 175.609375 479.347656 C 176.808594 477.875 178.058594 476.449219 179.367188 475.066406 C 180.671875 473.6875 182.03125 472.359375 183.4375 471.082031 C 184.84375 469.804688 186.296875 468.582031 187.792969 467.414062 C 189.292969 466.25 190.835938 465.140625 192.417969 464.085938 C 194 463.035156 195.621094 462.046875 197.277344 461.117188 C 198.933594 460.1875 200.625 459.324219 202.347656 458.523438 C 204.070312 457.722656 205.820312 456.988281 207.597656 456.316406 C 209.378906 455.648438 211.179688 455.046875 213.003906 454.515625 C 214.824219 453.980469 216.667969 453.519531 218.527344 453.125 C 220.382812 452.730469 222.253906 452.40625 224.136719 452.15625 C 226.023438 451.902344 227.910156 451.722656 229.808594 451.613281 C 231.707031 451.503906 233.605469 451.464844 235.503906 451.496094 C 237.402344 451.53125 239.296875 451.636719 241.191406 451.8125 C 243.082031 451.988281 244.964844 452.238281 246.835938 452.554688 L 579.015625 509.277344 C 581.046875 509.625 583.058594 510.046875 585.058594 510.542969 C 587.054688 511.042969 589.03125 511.617188 590.984375 512.265625 C 592.9375 512.914062 594.867188 513.636719 596.765625 514.429688 C 598.664062 515.226562 600.53125 516.09375 602.363281 517.027344 C 604.195312 517.964844 605.992188 518.972656 607.746094 520.046875 C 609.503906 521.121094 611.21875 522.257812 612.886719 523.460938 C 614.558594 524.667969 616.179688 525.933594 617.753906 527.257812 C 619.324219 528.585938 620.847656 529.972656 622.316406 531.414062 C 623.785156 532.859375 625.195312 534.355469 626.550781 535.90625 C 627.902344 537.457031 629.195312 539.054688 630.429688 540.707031 C 631.664062 542.355469 632.832031 544.046875 633.933594 545.785156 C 635.039062 547.523438 636.074219 549.300781 637.042969 551.117188 C 638.011719 552.933594 638.910156 554.785156 639.738281 556.671875 C 640.566406 558.554688 641.320312 560.46875 642.003906 562.410156 C 642.683594 564.355469 643.292969 566.320312 643.824219 568.308594 C 644.359375 570.296875 644.8125 572.300781 645.195312 574.324219 Z M 654.355469 623.058594 " fill-opacity="1" fill-rule="nonzero"/><path fill="#b84f43" d="M 463.3125 394.242188 L 464.066406 396.628906 L 495.269531 496.5625 C 495.597656 497.613281 495.875 498.675781 496.097656 499.753906 C 496.320312 500.828125 496.492188 501.914062 496.609375 503.007812 C 496.726562 504.101562 496.789062 505.199219 496.796875 506.296875 C 496.808594 507.398438 496.765625 508.496094 496.667969 509.589844 C 496.570312 510.6875 496.421875 511.773438 496.214844 512.855469 C 496.011719 513.9375 495.757812 515.003906 495.449219 516.0625 C 495.140625 517.117188 494.78125 518.15625 494.375 519.175781 C 493.964844 520.195312 493.507812 521.195312 493 522.171875 C 492.492188 523.148438 491.9375 524.097656 491.339844 525.019531 C 490.738281 525.941406 490.097656 526.832031 489.410156 527.691406 C 488.722656 528.550781 487.996094 529.371094 487.230469 530.160156 C 486.464844 530.949219 485.660156 531.699219 484.820312 532.40625 C 483.980469 533.117188 483.105469 533.785156 482.199219 534.410156 C 481.296875 535.03125 480.363281 535.613281 479.398438 536.144531 C 478.4375 536.679688 477.453125 537.164062 476.441406 537.601562 C 475.433594 538.035156 474.40625 538.421875 473.359375 538.757812 L 435.957031 550.777344 L 385.421875 667.734375 L 370.113281 618.707031 L 356.851562 576.207031 L 346.898438 544.25 L 335.683594 508.316406 L 331.964844 496.480469 C 324.015625 498.527344 309.792969 501.707031 309.792969 501.707031 C 309.023438 501.894531 308.246094 502.039062 307.457031 502.140625 C 306.671875 502.246094 305.882812 502.304688 305.09375 502.320312 C 304.300781 502.335938 303.507812 502.308594 302.71875 502.234375 C 301.929688 502.164062 301.148438 502.050781 300.371094 501.894531 C 299.59375 501.738281 298.828125 501.539062 298.074219 501.296875 C 297.320312 501.058594 296.578125 500.777344 295.855469 500.453125 C 295.132812 500.132812 294.425781 499.773438 293.742188 499.371094 C 293.058594 498.972656 292.398438 498.539062 291.761719 498.066406 C 291.125 497.59375 290.515625 497.089844 289.933594 496.550781 C 289.351562 496.011719 288.800781 495.445312 288.28125 494.84375 C 287.765625 494.246094 287.277344 493.621094 286.828125 492.96875 C 286.378906 492.316406 285.964844 491.644531 285.589844 490.945312 C 285.210938 490.25 284.875 489.53125 284.578125 488.800781 C 284.277344 488.066406 284.023438 487.316406 283.804688 486.554688 C 283.589844 485.792969 283.417969 485.019531 283.285156 484.238281 C 283.152344 483.457031 283.066406 482.671875 283.019531 481.878906 L 279.675781 421.226562 L 279.296875 421.265625 L 253.195312 423.023438 C 252.667969 423.058594 252.140625 423.0625 251.609375 423.03125 C 251.082031 422.996094 250.558594 422.929688 250.039062 422.832031 C 249.519531 422.730469 249.007812 422.597656 248.503906 422.429688 C 248.003906 422.261719 247.511719 422.066406 247.035156 421.835938 C 246.558594 421.605469 246.101562 421.34375 245.65625 421.054688 C 245.214844 420.765625 244.792969 420.445312 244.390625 420.101562 C 243.988281 419.757812 243.609375 419.386719 243.257812 418.992188 C 242.902344 418.597656 242.578125 418.183594 242.277344 417.746094 C 241.976562 417.3125 241.707031 416.859375 241.46875 416.386719 C 241.226562 415.914062 241.015625 415.429688 240.839844 414.929688 C 240.660156 414.433594 240.515625 413.925781 240.40625 413.40625 C 240.292969 412.890625 240.214844 412.367188 240.171875 411.839844 C 240.128906 411.3125 240.117188 410.785156 240.144531 410.253906 C 240.167969 409.726562 240.226562 409.199219 240.320312 408.679688 C 240.414062 408.160156 240.539062 407.644531 240.699219 407.140625 C 240.859375 406.636719 241.050781 406.144531 241.273438 405.664062 L 274.820312 333.628906 L 274.695312 331.75 L 264.449219 302.132812 L 278.628906 247.164062 L 278.878906 246.121094 C 278.964844 245.660156 279.089844 245.242188 279.214844 244.78125 C 281.371094 235.535156 284.578125 226.664062 288.835938 218.175781 C 295.179688 205.472656 303.476562 194.207031 313.722656 184.378906 C 316.75 181.460938 319.910156 178.695312 323.203125 176.082031 C 326.496094 173.46875 329.910156 171.019531 333.4375 168.734375 C 336.96875 166.453125 340.601562 164.34375 344.332031 162.410156 C 348.066406 160.476562 351.886719 158.726562 355.789062 157.164062 C 359.691406 155.597656 363.65625 154.222656 367.691406 153.042969 C 371.726562 151.859375 375.808594 150.875 379.9375 150.089844 C 384.070312 149.300781 388.226562 148.714844 392.414062 148.328125 C 396.601562 147.941406 400.796875 147.757812 405 147.777344 C 476.238281 147.777344 534.007812 203.496094 534.007812 272.265625 C 534.003906 279.222656 533.40625 286.132812 532.214844 292.988281 C 531.023438 299.847656 529.25 306.550781 526.902344 313.101562 C 524.554688 319.652344 521.660156 325.957031 518.226562 332.007812 C 514.789062 338.0625 510.859375 343.773438 506.441406 349.148438 C 500.878906 376.632812 482.054688 396.25 463.3125 394.242188 Z M 463.3125 394.242188 " fill-opacity="1" fill-rule="nonzero"/><path fill="#e7dcc1" d="M 593.492188 202.03125 C 593.492188 203.757812 593.40625 205.484375 593.238281 207.203125 C 593.066406 208.925781 592.8125 210.632812 592.476562 212.328125 C 592.140625 214.023438 591.71875 215.699219 591.21875 217.355469 C 590.714844 219.007812 590.132812 220.636719 589.472656 222.230469 C 588.8125 223.828125 588.074219 225.390625 587.257812 226.914062 C 586.441406 228.441406 585.554688 229.921875 584.59375 231.359375 C 583.632812 232.796875 582.605469 234.183594 581.507812 235.519531 C 580.410156 236.855469 579.25 238.136719 578.027344 239.359375 C 576.808594 240.582031 575.527344 241.742188 574.191406 242.839844 C 572.855469 243.933594 571.46875 244.964844 570.03125 245.925781 C 568.59375 246.882812 567.109375 247.773438 565.585938 248.585938 C 564.0625 249.402344 562.5 250.140625 560.902344 250.800781 C 559.304688 251.464844 557.679688 252.046875 556.023438 252.546875 C 554.371094 253.050781 552.695312 253.46875 551 253.808594 C 549.304688 254.144531 547.59375 254.398438 545.875 254.566406 C 544.152344 254.734375 542.429688 254.820312 540.699219 254.820312 C 537.992188 254.824219 535.300781 254.617188 532.625 254.195312 C 533.554688 260.179688 534.015625 266.207031 534.007812 272.265625 C 534.003906 279.222656 533.40625 286.132812 532.214844 292.988281 C 531.023438 299.847656 529.25 306.550781 526.902344 313.101562 C 524.554688 319.652344 521.660156 325.957031 518.226562 332.007812 C 514.789062 338.0625 510.859375 343.773438 506.441406 349.148438 C 506.566406 348.605469 506.691406 348.0625 506.773438 347.519531 C 512.128906 318.238281 500.417969 291.589844 480.671875 288.035156 C 460.929688 284.4375 440.597656 305.226562 435.285156 334.507812 C 430.558594 360.570312 439.300781 384.496094 455.195312 392.027344 L 450.050781 431.722656 C 449.832031 433.414062 449.5 435.082031 449.050781 436.722656 C 448.605469 438.367188 448.046875 439.976562 447.382812 441.542969 C 446.71875 443.113281 445.949219 444.628906 445.074219 446.089844 C 444.203125 447.554688 443.238281 448.953125 442.175781 450.285156 C 441.113281 451.617188 439.964844 452.871094 438.730469 454.046875 C 437.5 455.222656 436.191406 456.308594 434.8125 457.308594 C 433.429688 458.304688 431.988281 459.203125 430.484375 460.007812 C 428.980469 460.808594 427.429688 461.503906 425.832031 462.09375 C 425.832031 462.09375 358.359375 488.445312 335.269531 495.515625 C 328.992188 497.398438 309.792969 501.707031 309.792969 501.707031 C 309.023438 501.894531 308.246094 502.039062 307.457031 502.140625 C 306.671875 502.246094 305.882812 502.304688 305.09375 502.320312 C 304.300781 502.335938 303.507812 502.308594 302.71875 502.238281 C 301.929688 502.164062 301.148438 502.050781 300.371094 501.894531 C 299.59375 501.738281 298.828125 501.539062 298.074219 501.296875 C 297.320312 501.058594 296.578125 500.777344 295.855469 500.453125 C 295.132812 500.132812 294.425781 499.773438 293.742188 499.371094 C 293.058594 498.972656 292.398438 498.539062 291.761719 498.066406 C 291.125 497.59375 290.515625 497.089844 289.933594 496.550781 C 289.351562 496.011719 288.800781 495.445312 288.28125 494.84375 C 287.765625 494.246094 287.277344 493.621094 286.828125 492.96875 C 286.378906 492.316406 285.964844 491.644531 285.589844 490.945312 C 285.210938 490.25 284.875 489.535156 284.578125 488.800781 C 284.277344 488.066406 284.023438 487.316406 283.804688 486.554688 C 283.589844 485.792969 283.417969 485.019531 283.285156 484.238281 C 283.152344 483.457031 283.066406 482.671875 283.019531 481.878906 L 279.675781 421.226562 L 367.8125 410.933594 C 370.085938 410.667969 372.328125 410.234375 374.535156 409.625 C 376.742188 409.015625 378.886719 408.242188 380.976562 407.300781 C 383.0625 406.363281 385.066406 405.269531 386.988281 404.023438 C 388.90625 402.773438 390.722656 401.386719 392.425781 399.863281 C 394.132812 398.335938 395.714844 396.6875 397.167969 394.917969 C 398.621094 393.152344 399.929688 391.28125 401.097656 389.3125 C 402.261719 387.339844 403.269531 385.292969 404.121094 383.167969 C 404.972656 381.042969 405.65625 378.863281 406.171875 376.632812 L 414.703125 339.695312 C 415.09375 338.046875 415.257812 336.375 415.191406 334.683594 C 415.125 332.988281 414.835938 331.335938 414.320312 329.722656 C 413.804688 328.109375 413.082031 326.59375 412.152344 325.175781 C 411.222656 323.757812 410.121094 322.492188 408.847656 321.375 C 406.464844 319.28125 404.328125 316.960938 402.4375 314.414062 C 400.550781 311.867188 398.949219 309.148438 397.640625 306.257812 C 396.332031 303.371094 395.34375 300.375 394.671875 297.273438 C 394 294.175781 393.664062 291.039062 393.664062 287.867188 C 393.671875 286.046875 393.78125 284.234375 394 282.429688 L 397.46875 253.648438 C 397.554688 252.953125 397.601562 252.25 397.609375 251.546875 C 397.613281 250.84375 397.582031 250.140625 397.507812 249.441406 C 397.433594 248.742188 397.320312 248.050781 397.167969 247.363281 C 397.015625 246.675781 396.828125 246 396.597656 245.335938 C 396.367188 244.671875 396.101562 244.019531 395.800781 243.386719 C 395.496094 242.75 395.160156 242.132812 394.785156 241.539062 C 394.414062 240.941406 394.007812 240.367188 393.570312 239.816406 C 393.132812 239.265625 392.664062 238.742188 392.167969 238.246094 C 391.671875 237.746094 391.148438 237.28125 390.597656 236.84375 C 390.046875 236.40625 389.472656 236 388.875 235.625 C 388.277344 235.253906 387.664062 234.914062 387.027344 234.613281 C 386.394531 234.308594 385.742188 234.042969 385.078125 233.816406 C 384.414062 233.585938 383.738281 233.394531 383.050781 233.242188 C 382.363281 233.09375 381.671875 232.980469 380.96875 232.90625 C 380.269531 232.832031 379.570312 232.796875 378.867188 232.804688 C 378.164062 232.8125 377.460938 232.855469 376.765625 232.941406 L 279.214844 244.78125 C 281.371094 235.535156 284.578125 226.664062 288.835938 218.175781 L 288.875 218.175781 C 288.96875 217.894531 289.09375 217.632812 289.253906 217.382812 C 289.753906 216.335938 290.339844 215.289062 290.925781 214.246094 C 295.671875 205.4375 301.445312 197.363281 308.246094 190.023438 C 308.996094 189.144531 309.792969 188.308594 310.628906 187.472656 C 311.632812 186.425781 312.679688 185.382812 313.722656 184.378906 C 315.203125 182.964844 316.714844 181.589844 318.253906 180.246094 C 319.796875 178.90625 321.371094 177.601562 322.972656 176.332031 C 324.574219 175.0625 326.207031 173.832031 327.867188 172.640625 C 329.527344 171.445312 331.214844 170.292969 332.925781 169.179688 C 334.640625 168.0625 336.378906 166.988281 338.140625 165.953125 C 339.902344 164.921875 341.691406 163.929688 343.5 162.976562 C 345.308594 162.023438 347.140625 161.117188 348.992188 160.25 C 350.839844 159.382812 352.710938 158.558594 354.601562 157.78125 C 356.492188 157 358.398438 156.265625 360.320312 155.574219 C 362.246094 154.882812 364.183594 154.234375 366.136719 153.632812 C 368.089844 153.03125 370.058594 152.476562 372.035156 151.964844 C 374.015625 151.453125 376.003906 150.992188 378.007812 150.574219 C 380.007812 150.152344 382.015625 149.78125 384.035156 149.457031 C 386.054688 149.132812 388.078125 148.855469 390.109375 148.625 C 392.140625 148.390625 394.175781 148.207031 396.214844 148.070312 C 398.253906 147.933594 400.296875 147.84375 402.339844 147.804688 C 404.382812 147.761719 406.425781 147.765625 408.46875 147.820312 C 410.511719 147.871094 412.554688 147.972656 414.59375 148.117188 C 416.632812 148.265625 418.664062 148.460938 420.695312 148.703125 C 422.726562 148.945312 424.75 149.230469 426.765625 149.566406 C 428.78125 149.902344 430.789062 150.285156 432.789062 150.714844 C 434.785156 151.140625 436.773438 151.617188 438.75 152.136719 C 440.726562 152.65625 442.691406 153.222656 444.640625 153.835938 C 446.589844 154.445312 448.527344 155.105469 450.445312 155.804688 C 452.367188 156.507812 454.269531 157.25 456.15625 158.042969 C 458.039062 158.832031 459.90625 159.664062 461.753906 160.539062 C 463.601562 161.414062 465.425781 162.335938 467.230469 163.296875 C 469.035156 164.253906 470.816406 165.257812 472.574219 166.300781 C 474.332031 167.34375 476.0625 168.429688 477.769531 169.550781 C 479.480469 170.675781 481.160156 171.835938 482.8125 173.039062 C 484.464844 174.242188 486.089844 175.480469 487.6875 176.757812 C 489.285156 178.035156 490.851562 179.347656 492.386719 180.695312 C 492.992188 179.324219 493.652344 177.976562 494.375 176.660156 C 495.09375 175.34375 495.867188 174.0625 496.699219 172.8125 C 497.527344 171.558594 498.410156 170.347656 499.339844 169.171875 C 500.273438 167.996094 501.253906 166.863281 502.285156 165.769531 C 503.316406 164.679688 504.390625 163.632812 505.507812 162.632812 C 506.625 161.632812 507.785156 160.683594 508.984375 159.78125 C 510.183594 158.878906 511.421875 158.03125 512.695312 157.234375 C 513.964844 156.4375 515.269531 155.699219 516.605469 155.015625 C 517.941406 154.328125 519.300781 153.703125 520.691406 153.132812 C 522.082031 152.566406 523.492188 152.058594 524.921875 151.609375 C 526.355469 151.160156 527.804688 150.773438 529.269531 150.449219 C 530.734375 150.125 532.210938 149.863281 533.699219 149.664062 C 535.183594 149.464844 536.679688 149.328125 538.175781 149.257812 C 539.675781 149.1875 541.175781 149.179688 542.675781 149.234375 C 544.175781 149.292969 545.667969 149.410156 547.160156 149.59375 C 548.648438 149.777344 550.125 150.027344 551.59375 150.335938 C 553.0625 150.644531 554.515625 151.015625 555.953125 151.449219 C 557.390625 151.882812 558.804688 152.378906 560.199219 152.933594 C 561.59375 153.488281 562.960938 154.101562 564.304688 154.769531 C 565.648438 155.441406 566.957031 156.167969 568.238281 156.953125 C 569.519531 157.734375 570.761719 158.570312 571.972656 159.460938 C 573.179688 160.347656 574.351562 161.289062 575.480469 162.277344 C 576.609375 163.265625 577.691406 164.300781 578.734375 165.382812 C 579.773438 166.460938 580.765625 167.585938 581.710938 168.75 C 582.65625 169.917969 583.550781 171.121094 584.390625 172.363281 C 585.234375 173.605469 586.023438 174.882812 586.753906 176.191406 C 587.488281 177.5 588.164062 178.839844 588.785156 180.203125 C 589.402344 181.570312 589.964844 182.960938 590.464844 184.378906 C 590.964844 185.792969 591.40625 187.226562 591.785156 188.675781 C 592.164062 190.128906 592.476562 191.59375 592.730469 193.074219 C 592.984375 194.554688 593.175781 196.039062 593.300781 197.535156 C 593.429688 199.03125 593.492188 200.53125 593.492188 202.03125 Z M 435.957031 550.777344 C 432.636719 551.84375 429.382812 553.085938 426.199219 554.5 C 423.011719 555.914062 419.910156 557.492188 416.890625 559.238281 C 413.875 560.984375 410.957031 562.882812 408.140625 564.9375 C 405.328125 566.996094 402.628906 569.195312 400.046875 571.535156 C 397.464844 573.878906 395.015625 576.351562 392.699219 578.957031 C 390.382812 581.5625 388.207031 584.28125 386.179688 587.117188 C 384.152344 589.953125 382.28125 592.886719 380.566406 595.921875 C 378.851562 598.957031 377.300781 602.074219 375.917969 605.273438 L 370.113281 618.707031 L 324.726562 723.832031 C 335.855469 726.542969 347.09375 728.675781 358.441406 730.230469 L 385.421875 667.734375 Z M 435.957031 550.777344 " fill-opacity="1" fill-rule="nonzero"/><path fill="#242156" d="M 535.972656 225.039062 C 535.988281 232.761719 534.453125 240.167969 531.371094 247.25 C 530.511719 243.277344 529.457031 239.359375 528.210938 235.492188 C 526.964844 231.621094 525.535156 227.824219 523.914062 224.097656 C 522.296875 220.371094 520.5 216.730469 518.527344 213.179688 C 516.550781 209.625 514.410156 206.179688 512.097656 202.839844 C 509.785156 199.496094 507.3125 196.277344 504.6875 193.175781 C 502.058594 190.078125 499.285156 187.113281 496.367188 184.285156 C 493.449219 181.460938 490.398438 178.78125 487.214844 176.253906 C 484.035156 173.722656 480.738281 171.355469 477.324219 169.152344 C 478.246094 169.109375 479.125 169.066406 480.046875 169.066406 C 481.878906 169.066406 483.707031 169.15625 485.53125 169.335938 C 487.351562 169.515625 489.164062 169.785156 490.960938 170.144531 C 492.757812 170.5 494.535156 170.945312 496.289062 171.480469 C 498.039062 172.011719 499.765625 172.628906 501.457031 173.328125 C 503.148438 174.03125 504.804688 174.8125 506.421875 175.679688 C 508.035156 176.542969 509.605469 177.484375 511.128906 178.503906 C 512.652344 179.523438 514.121094 180.613281 515.539062 181.773438 C 516.953125 182.9375 518.308594 184.167969 519.605469 185.464844 C 520.902344 186.761719 522.128906 188.117188 523.292969 189.535156 C 524.453125 190.953125 525.542969 192.421875 526.5625 193.945312 C 527.578125 195.46875 528.519531 197.039062 529.382812 198.65625 C 530.246094 200.273438 531.027344 201.929688 531.726562 203.621094 C 532.425781 205.316406 533.042969 207.039062 533.574219 208.792969 C 534.105469 210.546875 534.546875 212.324219 534.90625 214.121094 C 535.261719 215.917969 535.527344 217.730469 535.707031 219.550781 C 535.886719 221.375 535.972656 223.203125 535.972656 225.039062 Z M 463.3125 394.242188 C 462.679688 394.199219 462.050781 394.117188 461.429688 393.992188 C 459.269531 393.597656 457.191406 392.941406 455.195312 392.027344 L 450.050781 431.722656 C 449.832031 433.414062 449.5 435.082031 449.050781 436.722656 C 448.605469 438.367188 448.046875 439.976562 447.382812 441.542969 C 446.71875 443.113281 445.949219 444.628906 445.074219 446.089844 C 444.203125 447.554688 443.238281 448.953125 442.175781 450.285156 C 441.113281 451.617188 439.964844 452.871094 438.730469 454.046875 C 437.5 455.222656 436.191406 456.308594 434.8125 457.308594 C 433.429688 458.304688 431.988281 459.203125 430.484375 460.007812 C 428.980469 460.808594 427.429688 461.503906 425.832031 462.09375 C 425.832031 462.09375 358.359375 488.445312 335.269531 495.515625 C 334.390625 495.769531 333.261719 496.101562 331.964844 496.4375 L 335.683594 508.316406 C 337.191406 507.941406 338.488281 507.5625 339.449219 507.269531 C 362.542969 500.203125 430.015625 473.847656 430.015625 473.847656 C 431.613281 473.257812 433.164062 472.5625 434.667969 471.761719 C 436.171875 470.960938 437.613281 470.058594 438.992188 469.0625 C 440.375 468.0625 441.683594 466.976562 442.914062 465.800781 C 444.148438 464.625 445.296875 463.371094 446.359375 462.039062 C 447.421875 460.707031 448.386719 459.308594 449.257812 457.847656 C 450.132812 456.382812 450.898438 454.867188 451.566406 453.296875 C 452.230469 451.730469 452.789062 450.125 453.234375 448.480469 C 453.679688 446.835938 454.015625 445.167969 454.234375 443.480469 L 460.09375 398.386719 C 461.429688 397.839844 462.769531 397.253906 464.066406 396.628906 Z M 351.289062 557.929688 L 369.277344 620.589844 L 370.113281 618.707031 L 375.925781 605.28125 C 378.988281 598.167969 382.84375 591.515625 387.488281 585.324219 C 392.132812 579.128906 397.441406 573.566406 403.410156 568.636719 C 371.199219 579.597656 351.289062 557.929688 351.289062 557.929688 Z M 306.660156 340.949219 C 310.332031 340.566406 312.777344 335.144531 312.117188 328.835938 C 311.460938 322.53125 307.945312 317.730469 304.273438 318.117188 C 300.597656 318.5 298.152344 323.921875 298.8125 330.230469 C 299.472656 336.535156 302.984375 341.335938 306.660156 340.949219 Z M 478.582031 308.742188 C 470.589844 306.859375 462.308594 311.585938 457.457031 319.867188 C 458.867188 319.347656 460.300781 318.914062 461.765625 318.5625 C 463.226562 318.214844 464.703125 317.949219 466.195312 317.773438 C 467.6875 317.597656 469.1875 317.511719 470.6875 317.511719 C 472.191406 317.511719 473.691406 317.601562 475.183594 317.78125 C 476.675781 317.957031 478.152344 318.222656 479.613281 318.574219 C 481.074219 318.925781 482.511719 319.363281 483.917969 319.882812 C 485.328125 320.402344 486.703125 321.007812 488.042969 321.6875 C 489.382812 322.371094 490.675781 323.132812 491.925781 323.96875 C 490.25 316.3125 485.359375 310.332031 478.582031 308.742188 Z M 391.136719 619.152344 C 391.722656 619.152344 392.304688 619.097656 392.878906 618.980469 C 393.453125 618.867188 394.011719 618.699219 394.554688 618.472656 C 395.097656 618.25 395.613281 617.972656 396.097656 617.648438 C 396.585938 617.320312 397.039062 616.953125 397.453125 616.535156 C 397.867188 616.121094 398.238281 615.671875 398.5625 615.183594 C 398.890625 614.695312 399.164062 614.179688 399.390625 613.636719 C 399.613281 613.097656 399.785156 612.539062 399.898438 611.960938 C 400.011719 611.386719 400.070312 610.808594 400.070312 610.21875 C 400.070312 609.632812 400.011719 609.054688 399.898438 608.476562 C 399.785156 607.902344 399.613281 607.34375 399.390625 606.800781 C 399.164062 606.261719 398.890625 605.746094 398.5625 605.257812 C 398.238281 604.769531 397.867188 604.320312 397.453125 603.902344 C 397.039062 603.488281 396.585938 603.117188 396.097656 602.792969 C 395.613281 602.46875 395.097656 602.191406 394.554688 601.96875 C 394.011719 601.742188 393.453125 601.574219 392.878906 601.460938 C 392.304688 601.34375 391.722656 601.289062 391.136719 601.289062 C 390.550781 601.289062 389.96875 601.34375 389.394531 601.460938 C 388.820312 601.574219 388.261719 601.742188 387.71875 601.96875 C 387.175781 602.191406 386.660156 602.46875 386.175781 602.792969 C 385.6875 603.117188 385.234375 603.488281 384.820312 603.902344 C 384.40625 604.320312 384.035156 604.769531 383.710938 605.257812 C 383.382812 605.746094 383.109375 606.261719 382.882812 606.800781 C 382.660156 607.34375 382.488281 607.902344 382.375 608.476562 C 382.261719 609.054688 382.203125 609.632812 382.203125 610.21875 C 382.203125 610.808594 382.261719 611.386719 382.375 611.960938 C 382.488281 612.539062 382.660156 613.097656 382.882812 613.636719 C 383.109375 614.179688 383.382812 614.695312 383.710938 615.183594 C 384.035156 615.671875 384.40625 616.121094 384.820312 616.535156 C 385.234375 616.953125 385.6875 617.320312 386.175781 617.648438 C 386.660156 617.972656 387.175781 618.25 387.71875 618.472656 C 388.261719 618.699219 388.820312 618.867188 389.394531 618.980469 C 389.96875 619.097656 390.550781 619.152344 391.136719 619.152344 Z M 371.972656 665.167969 C 372.5625 665.167969 373.140625 665.109375 373.71875 664.996094 C 374.292969 664.882812 374.851562 664.710938 375.394531 664.488281 C 375.933594 664.261719 376.449219 663.988281 376.9375 663.660156 C 377.425781 663.335938 377.875 662.964844 378.289062 662.550781 C 378.707031 662.136719 379.074219 661.683594 379.402344 661.195312 C 379.726562 660.710938 380.003906 660.195312 380.226562 659.652344 C 380.453125 659.109375 380.621094 658.550781 380.734375 657.976562 C 380.851562 657.402344 380.90625 656.820312 380.90625 656.234375 C 380.90625 655.648438 380.851562 655.066406 380.734375 654.492188 C 380.621094 653.917969 380.453125 653.359375 380.226562 652.816406 C 380.003906 652.273438 379.726562 651.757812 379.402344 651.269531 C 379.074219 650.785156 378.707031 650.332031 378.289062 649.917969 C 377.875 649.503906 377.425781 649.132812 376.9375 648.808594 C 376.449219 648.480469 375.933594 648.207031 375.394531 647.980469 C 374.851562 647.757812 374.292969 647.585938 373.71875 647.472656 C 373.140625 647.359375 372.5625 647.300781 371.972656 647.300781 C 371.386719 647.300781 370.808594 647.359375 370.230469 647.472656 C 369.65625 647.585938 369.097656 647.757812 368.554688 647.980469 C 368.015625 648.207031 367.5 648.480469 367.011719 648.808594 C 366.523438 649.132812 366.074219 649.503906 365.65625 649.917969 C 365.242188 650.332031 364.875 650.785156 364.546875 651.269531 C 364.222656 651.757812 363.945312 652.273438 363.722656 652.816406 C 363.496094 653.359375 363.328125 653.917969 363.214844 654.492188 C 363.097656 655.066406 363.042969 655.648438 363.042969 656.234375 C 363.042969 656.820312 363.097656 657.402344 363.214844 657.976562 C 363.328125 658.550781 363.496094 659.109375 363.722656 659.652344 C 363.945312 660.195312 364.222656 660.710938 364.546875 661.195312 C 364.875 661.683594 365.242188 662.136719 365.65625 662.550781 C 366.074219 662.964844 366.523438 663.335938 367.011719 663.660156 C 367.5 663.988281 368.015625 664.261719 368.554688 664.488281 C 369.097656 664.710938 369.65625 664.882812 370.230469 664.996094 C 370.808594 665.109375 371.386719 665.167969 371.972656 665.167969 Z M 352.105469 710.136719 C 352.691406 710.136719 353.273438 710.078125 353.847656 709.964844 C 354.421875 709.847656 354.980469 709.679688 355.523438 709.457031 C 356.066406 709.230469 356.578125 708.957031 357.066406 708.628906 C 357.554688 708.304688 358.007812 707.933594 358.421875 707.519531 C 358.835938 707.105469 359.207031 706.652344 359.53125 706.164062 C 359.859375 705.675781 360.132812 705.164062 360.359375 704.621094 C 360.582031 704.078125 360.75 703.519531 360.867188 702.945312 C 360.980469 702.371094 361.039062 701.789062 361.039062 701.203125 C 361.039062 700.617188 360.980469 700.035156 360.867188 699.460938 C 360.75 698.882812 360.582031 698.324219 360.359375 697.785156 C 360.132812 697.242188 359.859375 696.726562 359.53125 696.238281 C 359.207031 695.753906 358.835938 695.300781 358.421875 694.886719 C 358.007812 694.472656 357.554688 694.101562 357.066406 693.777344 C 356.578125 693.449219 356.066406 693.175781 355.523438 692.949219 C 354.980469 692.726562 354.421875 692.554688 353.847656 692.441406 C 353.273438 692.328125 352.691406 692.269531 352.105469 692.269531 C 351.519531 692.269531 350.9375 692.328125 350.363281 692.441406 C 349.785156 692.554688 349.226562 692.726562 348.6875 692.949219 C 348.144531 693.175781 347.628906 693.449219 347.140625 693.777344 C 346.65625 694.101562 346.203125 694.472656 345.789062 694.886719 C 345.375 695.300781 345.003906 695.753906 344.675781 696.238281 C 344.351562 696.726562 344.078125 697.242188 343.851562 697.785156 C 343.628906 698.324219 343.457031 698.882812 343.34375 699.460938 C 343.230469 700.035156 343.171875 700.617188 343.171875 701.203125 C 343.171875 701.789062 343.230469 702.371094 343.34375 702.945312 C 343.457031 703.519531 343.628906 704.078125 343.851562 704.621094 C 344.078125 705.164062 344.351562 705.679688 344.675781 706.164062 C 345.003906 706.652344 345.375 707.105469 345.789062 707.519531 C 346.203125 707.933594 346.65625 708.304688 347.140625 708.628906 C 347.628906 708.957031 348.144531 709.230469 348.6875 709.457031 C 349.226562 709.679688 349.785156 709.847656 350.363281 709.964844 C 350.9375 710.078125 351.519531 710.136719 352.105469 710.136719 Z M 352.105469 710.136719 " fill-opacity="1" fill-rule="nonzero"/></svg>