<svg xmlns="http://www.w3.org/2000/svg" xmlns:xlink="http://www.w3.org/1999/xlink" width="1080" zoomAndPan="magnify" viewBox="0 0 810 809.999993" height="1080" preserveAspectRatio="xMidYMid meet" version="1.0"><defs><clipPath id="bdb1918047"><path d="M 67.5 62.519531 L 742.5 62.519531 L 742.5 738 L 67.5 738 Z M 67.5 62.519531 " clip-rule="nonzero"/></clipPath></defs><g clip-path="url(#bdb1918047)"><path fill="#ff66c4" d="M 742.5 400.339844 C 742.5 405.863281 742.363281 411.386719 742.09375 416.902344 C 741.820312 422.417969 741.414062 427.925781 740.875 433.421875 C 740.332031 438.917969 739.65625 444.398438 738.847656 449.863281 C 738.035156 455.328125 737.09375 460.765625 736.015625 466.183594 C 734.9375 471.601562 733.726562 476.988281 732.386719 482.347656 C 731.042969 487.703125 729.570312 493.027344 727.96875 498.3125 C 726.363281 503.597656 724.632812 508.839844 722.769531 514.042969 C 720.910156 519.242188 718.921875 524.394531 716.808594 529.496094 C 714.695312 534.601562 712.457031 539.648438 710.097656 544.640625 C 707.734375 549.632812 705.25 554.566406 702.648438 559.4375 C 700.042969 564.308594 697.324219 569.113281 694.484375 573.851562 C 691.644531 578.589844 688.6875 583.253906 685.621094 587.847656 C 682.550781 592.4375 679.371094 596.953125 676.082031 601.390625 C 672.792969 605.828125 669.394531 610.179688 665.890625 614.449219 C 662.386719 618.71875 658.78125 622.898438 655.070312 626.992188 C 651.359375 631.085938 647.554688 635.085938 643.648438 638.988281 C 639.742188 642.894531 635.742188 646.703125 631.652344 650.414062 C 627.558594 654.121094 623.378906 657.726562 619.105469 661.230469 C 614.835938 664.734375 610.484375 668.132812 606.046875 671.421875 C 601.613281 674.714844 597.097656 677.894531 592.503906 680.960938 C 587.910156 684.03125 583.246094 686.984375 578.507812 689.824219 C 573.773438 692.664062 568.96875 695.386719 564.097656 697.988281 C 559.226562 700.59375 554.292969 703.074219 549.300781 705.4375 C 544.304688 707.800781 539.257812 710.035156 534.15625 712.152344 C 529.050781 714.265625 523.902344 716.25 518.699219 718.113281 C 513.5 719.972656 508.257812 721.707031 502.972656 723.308594 C 497.683594 724.910156 492.363281 726.382812 487.003906 727.726562 C 481.648438 729.070312 476.261719 730.277344 470.84375 731.355469 C 465.425781 732.433594 459.984375 733.378906 454.519531 734.1875 C 449.058594 735 443.578125 735.675781 438.082031 736.214844 C 432.582031 736.757812 427.078125 737.164062 421.558594 737.433594 C 416.042969 737.707031 410.523438 737.839844 405 737.839844 C 399.476562 737.839844 393.957031 737.707031 388.4375 737.433594 C 382.921875 737.164062 377.414062 736.757812 371.917969 736.214844 C 366.421875 735.675781 360.941406 735 355.476562 734.1875 C 350.015625 733.378906 344.574219 732.433594 339.15625 731.355469 C 333.738281 730.277344 328.351562 729.070312 322.992188 727.726562 C 317.636719 726.382812 312.3125 724.910156 307.027344 723.308594 C 301.742188 721.707031 296.5 719.972656 291.300781 718.113281 C 286.097656 716.25 280.945312 714.265625 275.84375 712.152344 C 270.742188 710.035156 265.691406 707.800781 260.699219 705.4375 C 255.707031 703.074219 250.773438 700.59375 245.902344 697.988281 C 241.03125 695.386719 236.226562 692.664062 231.488281 689.824219 C 226.753906 686.984375 222.085938 684.03125 217.496094 680.960938 C 212.902344 677.894531 208.386719 674.714844 203.949219 671.421875 C 199.515625 668.132812 195.160156 664.734375 190.890625 661.230469 C 186.621094 657.726562 182.441406 654.121094 178.347656 650.414062 C 174.257812 646.703125 170.257812 642.894531 166.351562 638.988281 C 162.445312 635.085938 158.636719 631.085938 154.929688 626.992188 C 151.21875 622.898438 147.613281 618.71875 144.109375 614.449219 C 140.605469 610.179688 137.207031 605.828125 133.917969 601.390625 C 130.625 596.953125 127.449219 592.4375 124.378906 587.847656 C 121.308594 583.253906 118.355469 578.589844 115.515625 573.851562 C 112.675781 569.113281 109.953125 564.308594 107.351562 559.4375 C 104.746094 554.566406 102.265625 549.632812 99.902344 544.640625 C 97.542969 539.648438 95.304688 534.601562 93.191406 529.496094 C 91.078125 524.394531 89.089844 519.242188 87.230469 514.042969 C 85.367188 508.839844 83.636719 503.597656 82.03125 498.3125 C 80.429688 493.027344 78.957031 487.703125 77.613281 482.347656 C 76.273438 476.988281 75.0625 471.601562 73.984375 466.183594 C 72.90625 460.765625 71.964844 455.328125 71.152344 449.863281 C 70.34375 444.398438 69.667969 438.917969 69.125 433.421875 C 68.582031 427.925781 68.175781 422.417969 67.90625 416.902344 C 67.636719 411.386719 67.5 405.863281 67.5 400.339844 C 67.5 213.941406 218.597656 62.839844 405 62.839844 C 591.398438 62.839844 742.5 213.941406 742.5 400.339844 Z M 742.5 400.339844 " fill-opacity="1" fill-rule="nonzero"/></g><path fill="#b84f43" d="M 526.941406 323.441406 C 523.226562 400.859375 462.269531 464.886719 385.109375 472.195312 C 372.972656 473.367188 360.859375 473.136719 348.773438 471.503906 C 336.6875 469.867188 324.949219 466.875 313.558594 462.515625 C 303.539062 469.265625 293.519531 475.976562 283.5 482.726562 C 282.785156 474.003906 282.046875 465.285156 281.277344 456.5625 C 271.464844 461.21875 261.613281 465.871094 251.804688 470.523438 C 251.363281 458.101562 250.933594 445.679688 250.515625 433.265625 C 250.398438 428.5625 249.605469 423.972656 248.140625 419.5 C 246.671875 415.027344 244.589844 410.863281 241.898438 407.003906 C 239.304688 403.375 236.867188 399.640625 234.59375 395.804688 C 232.320312 391.964844 230.210938 388.039062 228.269531 384.023438 C 226.332031 380.003906 224.566406 375.910156 222.976562 371.742188 C 221.386719 367.574219 219.976562 363.347656 218.746094 359.058594 C 217.515625 354.769531 216.46875 350.4375 215.609375 346.0625 C 214.75 341.683594 214.078125 337.277344 213.59375 332.84375 C 213.109375 328.40625 212.816406 323.960938 212.710938 319.5 C 212.609375 315.039062 212.695312 310.585938 212.96875 306.132812 C 217.597656 227.953125 280.605469 164.261719 358.734375 158.859375 C 361.496094 158.664062 364.265625 158.539062 367.035156 158.488281 C 369.804688 158.441406 372.574219 158.460938 375.339844 158.558594 C 378.109375 158.65625 380.875 158.824219 383.632812 159.066406 C 386.394531 159.308594 389.144531 159.625 391.890625 160.011719 C 394.632812 160.398438 397.363281 160.859375 400.082031 161.390625 C 402.800781 161.921875 405.503906 162.527344 408.191406 163.199219 C 410.878906 163.875 413.546875 164.621094 416.191406 165.4375 C 418.839844 166.253906 421.464844 167.136719 424.066406 168.09375 C 426.664062 169.046875 429.238281 170.070312 431.785156 171.160156 C 434.332031 172.25 436.847656 173.410156 439.335938 174.632812 C 441.820312 175.855469 444.273438 177.144531 446.6875 178.496094 C 449.105469 179.851562 451.488281 181.265625 453.828125 182.746094 C 456.171875 184.222656 458.472656 185.765625 460.734375 187.363281 C 462.996094 188.964844 465.214844 190.625 467.386719 192.34375 C 469.5625 194.058594 471.6875 195.832031 473.769531 197.664062 C 475.847656 199.496094 477.878906 201.378906 479.859375 203.316406 C 481.835938 205.253906 483.765625 207.242188 485.640625 209.28125 C 487.515625 211.320312 489.335938 213.40625 491.101562 215.542969 C 492.863281 217.679688 494.574219 219.859375 496.222656 222.085938 C 497.871094 224.3125 499.460938 226.578125 500.992188 228.890625 C 502.519531 231.199219 503.988281 233.546875 505.394531 235.933594 C 506.796875 238.324219 508.140625 240.746094 509.417969 243.203125 C 510.695312 245.664062 511.90625 248.152344 513.050781 250.675781 C 514.199219 253.199219 515.277344 255.75 516.289062 258.328125 C 517.300781 260.90625 518.242188 263.511719 519.113281 266.140625 C 519.988281 268.769531 520.789062 271.417969 521.523438 274.089844 C 522.257812 276.761719 522.917969 279.453125 523.511719 282.160156 C 524.101562 284.867188 524.621094 287.585938 525.070312 290.320312 C 525.515625 293.054688 525.890625 295.796875 526.191406 298.550781 C 526.496094 301.304688 526.726562 304.066406 526.882812 306.832031 C 527.039062 309.597656 527.121094 312.367188 527.132812 315.136719 C 527.140625 317.90625 527.078125 320.675781 526.941406 323.441406 Z M 526.941406 323.441406 " fill-opacity="1" fill-rule="nonzero"/><path fill="#ff9987" d="M 528.679688 365.710938 L 514.425781 448.597656 C 514.179688 450.015625 513.839844 451.40625 513.394531 452.777344 C 512.953125 454.144531 512.417969 455.472656 511.785156 456.765625 C 511.152344 458.058594 510.429688 459.296875 509.621094 460.484375 C 508.8125 461.675781 507.921875 462.800781 506.949219 463.859375 C 505.980469 464.921875 504.9375 465.90625 503.828125 466.820312 C 502.714844 467.734375 501.542969 468.5625 500.316406 469.304688 C 499.085938 470.050781 497.808594 470.703125 496.484375 471.265625 C 495.160156 471.828125 493.804688 472.292969 492.414062 472.664062 L 470.949219 478.363281 C 470.488281 478.492188 469.984375 478.617188 469.523438 478.699219 L 467.046875 492.199219 L 439.839844 639.148438 L 274.90625 608.585938 L 311.96875 408.515625 C 297.292969 413.085938 277.253906 402.144531 264.71875 381.808594 C 250.714844 359.128906 251.382812 333.386719 266.140625 324.246094 C 278.84375 316.449219 297.839844 323.40625 311.800781 339.925781 C 311.925781 335.945312 312.007812 332.003906 312.132812 328.019531 C 319.511719 331.289062 326.347656 334.601562 333.222656 337.871094 C 332.804688 316.238281 345.296875 298.757812 360.179688 287.226562 C 375.023438 275.65625 392.628906 267.941406 407.265625 256.117188 C 421.9375 244.292969 433.84375 226.226562 430.699219 207.695312 C 443 210.417969 454.9375 214.257812 466.519531 219.210938 C 478.101562 224.167969 489.121094 230.152344 499.582031 237.167969 C 502.882812 244.5625 505.375 252.21875 507.058594 260.140625 C 508.738281 268.058594 509.574219 276.070312 509.5625 284.164062 C 509.566406 288.878906 509.273438 293.574219 508.679688 298.253906 L 526.960938 347.429688 C 528.046875 350.347656 528.738281 353.355469 529.03125 356.457031 C 529.320312 359.558594 529.203125 362.640625 528.679688 365.710938 Z M 528.679688 365.710938 " fill-opacity="1" fill-rule="nonzero"/><path fill="#ff5e64" d="M 635.796875 646.570312 C 631.332031 650.757812 626.757812 654.820312 622.070312 658.757812 C 617.382812 662.695312 612.589844 666.5 607.699219 670.179688 C 602.804688 673.855469 597.8125 677.394531 592.726562 680.800781 C 587.640625 684.207031 582.464844 687.472656 577.199219 690.59375 C 571.933594 693.71875 566.589844 696.699219 561.160156 699.53125 C 555.734375 702.363281 550.234375 705.046875 544.664062 707.582031 C 539.089844 710.113281 533.453125 712.492188 527.75 714.722656 C 522.050781 716.949219 516.289062 719.019531 510.476562 720.929688 C 504.660156 722.84375 498.796875 724.597656 492.886719 726.191406 C 486.976562 727.789062 481.027344 729.21875 475.039062 730.492188 C 469.050781 731.761719 463.035156 732.867188 456.984375 733.8125 C 450.9375 734.753906 444.867188 735.53125 438.777344 736.144531 C 432.6875 736.757812 426.582031 737.207031 420.46875 737.484375 C 414.351562 737.765625 408.234375 737.882812 402.113281 737.828125 C 395.992188 737.777344 389.875 737.558594 383.765625 737.171875 C 377.65625 736.789062 371.5625 736.238281 365.484375 735.519531 C 359.402344 734.804688 353.347656 733.921875 347.316406 732.878906 C 341.285156 731.832031 335.289062 730.621094 329.320312 729.25 C 323.355469 727.875 317.433594 726.34375 311.550781 724.648438 C 305.667969 722.953125 299.835938 721.097656 294.054688 719.085938 C 288.273438 717.074219 282.550781 714.90625 276.886719 712.582031 C 271.222656 710.257812 265.628906 707.785156 260.097656 705.15625 C 254.570312 702.527344 249.117188 699.75 243.738281 696.824219 C 238.363281 693.898438 233.066406 690.832031 227.859375 687.617188 C 222.648438 684.40625 217.527344 681.054688 212.5 677.5625 C 207.472656 674.070312 202.542969 670.445312 197.710938 666.683594 C 192.878906 662.925781 188.15625 659.035156 183.535156 655.019531 C 178.917969 651 174.410156 646.863281 170.015625 642.601562 C 165.621094 638.335938 161.347656 633.960938 157.191406 629.464844 C 153.035156 624.96875 149.007812 620.363281 145.101562 615.652344 C 141.195312 610.9375 137.421875 606.121094 133.777344 601.199219 C 130.136719 596.28125 126.628906 591.265625 123.257812 586.15625 C 125.515625 582.222656 128.074219 578.5 130.933594 574.980469 C 133.792969 571.464844 136.917969 568.203125 140.308594 565.191406 C 143.695312 562.179688 147.304688 559.460938 151.132812 557.035156 C 154.964844 554.609375 158.960938 552.507812 163.132812 550.726562 L 261.53125 508.71875 L 262.789062 508.171875 L 299.097656 477.777344 L 443.613281 598.105469 L 445.082031 599.320312 L 445.5 597.347656 L 466.921875 492.996094 L 498.660156 495.679688 L 552.03125 500.164062 C 553.492188 500.289062 554.941406 500.46875 556.386719 500.699219 C 557.835938 500.929688 559.269531 501.214844 560.695312 501.554688 C 562.117188 501.890625 563.527344 502.28125 564.925781 502.726562 C 566.320312 503.167969 567.699219 503.664062 569.054688 504.207031 C 570.414062 504.753906 571.75 505.347656 573.066406 505.992188 C 574.382812 506.636719 575.671875 507.328125 576.933594 508.070312 C 578.195312 508.808594 579.429688 509.597656 580.636719 510.429688 C 581.839844 511.261719 583.011719 512.136719 584.152344 513.054688 C 585.292969 513.972656 586.398438 514.933594 587.464844 515.933594 C 588.535156 516.9375 589.5625 517.976562 590.554688 519.054688 C 591.546875 520.132812 592.496094 521.242188 593.40625 522.390625 C 594.3125 523.539062 595.179688 524.71875 596 525.933594 C 596.820312 527.144531 597.59375 528.386719 598.324219 529.65625 C 599.050781 530.925781 599.734375 532.222656 600.367188 533.542969 C 600.996094 534.863281 601.582031 536.203125 602.113281 537.570312 C 602.644531 538.933594 603.128906 540.3125 603.558594 541.714844 Z M 635.796875 646.570312 " fill-opacity="1" fill-rule="nonzero"/><path fill="#242156" d="M 469.523438 478.699219 L 467.046875 492.199219 C 463.535156 492.152344 460.097656 491.621094 456.734375 490.605469 L 368.734375 464.152344 C 365.765625 463.261719 362.921875 462.066406 360.207031 460.566406 C 357.496094 459.066406 354.96875 457.296875 352.632812 455.257812 C 350.300781 453.21875 348.207031 450.957031 346.355469 448.46875 C 344.503906 445.980469 342.933594 443.328125 341.648438 440.507812 L 338.546875 433.753906 C 339.941406 435.882812 341.511719 437.871094 343.253906 439.71875 C 344.996094 441.570312 346.886719 443.253906 348.921875 444.773438 C 350.960938 446.292969 353.113281 447.625 355.386719 448.765625 C 357.65625 449.910156 360.011719 450.84375 362.445312 451.574219 L 450.445312 478.03125 C 453.546875 478.945312 456.710938 479.460938 459.941406 479.574219 C 463.171875 479.6875 466.367188 479.398438 469.523438 478.699219 Z M 466.921875 492.996094 L 445.5 597.347656 L 444.996094 598.691406 L 443.613281 598.105469 L 299.097656 477.777344 L 262.789062 508.171875 L 261.53125 508.71875 L 408.519531 661.410156 L 444.367188 608.082031 L 498.660156 635.207031 L 498.660156 495.679688 Z M 492.902344 302.605469 C 496.308594 301.914062 498.230469 297.21875 497.195312 292.109375 C 496.160156 287.003906 492.5625 283.425781 489.15625 284.113281 C 485.753906 284.804688 483.832031 289.503906 484.867188 294.609375 C 485.902344 299.714844 489.5 303.292969 492.902344 302.605469 Z M 454.316406 655.179688 C 455.160156 655.179688 455.992188 655.097656 456.820312 654.933594 C 457.648438 654.769531 458.449219 654.527344 459.230469 654.203125 C 460.007812 653.878906 460.75 653.484375 461.449219 653.015625 C 462.152344 652.546875 462.800781 652.015625 463.398438 651.417969 C 463.992188 650.824219 464.523438 650.175781 464.992188 649.472656 C 465.460938 648.773438 465.859375 648.03125 466.179688 647.253906 C 466.503906 646.472656 466.746094 645.671875 466.910156 644.84375 C 467.074219 644.015625 467.15625 643.183594 467.15625 642.339844 C 467.15625 641.496094 467.074219 640.660156 466.910156 639.832031 C 466.746094 639.007812 466.503906 638.203125 466.179688 637.425781 C 465.859375 636.644531 465.460938 635.90625 464.992188 635.203125 C 464.523438 634.503906 463.992188 633.855469 463.398438 633.257812 C 462.800781 632.660156 462.152344 632.128906 461.449219 631.660156 C 460.75 631.191406 460.007812 630.796875 459.230469 630.472656 C 458.449219 630.152344 457.648438 629.90625 456.820312 629.742188 C 455.992188 629.578125 455.160156 629.496094 454.316406 629.496094 C 453.472656 629.496094 452.636719 629.578125 451.808594 629.742188 C 450.984375 629.90625 450.179688 630.152344 449.402344 630.472656 C 448.621094 630.796875 447.882812 631.191406 447.179688 631.660156 C 446.480469 632.128906 445.832031 632.660156 445.234375 633.257812 C 444.636719 633.855469 444.105469 634.503906 443.636719 635.203125 C 443.167969 635.90625 442.773438 636.644531 442.449219 637.425781 C 442.128906 638.203125 441.882812 639.007812 441.71875 639.832031 C 441.554688 640.660156 441.472656 641.496094 441.472656 642.339844 C 441.472656 643.183594 441.554688 644.015625 441.71875 644.84375 C 441.882812 645.671875 442.128906 646.472656 442.449219 647.253906 C 442.773438 648.03125 443.167969 648.773438 443.636719 649.472656 C 444.105469 650.175781 444.636719 650.824219 445.234375 651.417969 C 445.832031 652.015625 446.480469 652.546875 447.179688 653.015625 C 447.882812 653.484375 448.621094 653.878906 449.402344 654.203125 C 450.179688 654.527344 450.984375 654.769531 451.808594 654.933594 C 452.636719 655.097656 453.472656 655.179688 454.316406 655.179688 Z M 273.144531 335.230469 C 264.171875 340.890625 261.742188 353.679688 266.773438 365.417969 C 266.851562 364.40625 266.984375 363.40625 267.175781 362.410156 C 267.363281 361.417969 267.605469 360.4375 267.898438 359.46875 C 268.195312 358.5 268.542969 357.550781 268.941406 356.617188 C 269.339844 355.6875 269.785156 354.78125 270.28125 353.898438 C 270.78125 353.019531 271.324219 352.164062 271.910156 351.34375 C 272.5 350.519531 273.132812 349.730469 273.808594 348.976562 C 274.484375 348.21875 275.195312 347.503906 275.949219 346.828125 C 276.703125 346.152344 277.488281 345.515625 278.308594 344.925781 C 279.132812 344.332031 279.980469 343.789062 280.863281 343.289062 C 281.742188 342.789062 282.648438 342.339844 283.578125 341.9375 C 284.507812 341.535156 285.457031 341.1875 286.421875 340.890625 C 287.390625 340.589844 288.371094 340.347656 289.367188 340.152344 C 290.359375 339.960938 291.359375 339.824219 292.371094 339.742188 C 293.378906 339.660156 294.390625 339.632812 295.402344 339.65625 C 296.414062 339.683594 297.421875 339.765625 298.421875 339.902344 C 299.425781 340.039062 300.417969 340.226562 301.402344 340.472656 C 293.015625 332.421875 281.527344 329.949219 273.144531 335.230469 Z M 422.679688 317.277344 C 426.082031 316.589844 428.003906 311.890625 426.96875 306.785156 C 425.933594 301.679688 422.335938 298.097656 418.933594 298.789062 C 415.527344 299.476562 413.609375 304.175781 414.640625 309.28125 C 415.675781 314.386719 419.273438 317.96875 422.679688 317.277344 Z M 472.289062 295.109375 C 472.1875 294.90625 472.054688 294.730469 471.886719 294.582031 C 471.71875 294.429688 471.53125 294.3125 471.320312 294.234375 C 471.109375 294.15625 470.890625 294.117188 470.664062 294.121094 C 470.441406 294.121094 470.222656 294.164062 470.015625 294.25 C 469.804688 294.335938 469.621094 294.453125 469.457031 294.609375 C 469.292969 294.765625 469.160156 294.945312 469.066406 295.148438 C 468.96875 295.351562 468.914062 295.566406 468.898438 295.789062 C 468.882812 296.015625 468.910156 296.234375 468.976562 296.449219 L 483.039062 342.4375 C 483.101562 342.640625 483.144531 342.851562 483.164062 343.066406 C 483.179688 343.277344 483.179688 343.492188 483.152344 343.707031 C 483.128906 343.917969 483.082031 344.128906 483.011719 344.332031 C 482.945312 344.535156 482.855469 344.730469 482.746094 344.914062 C 482.636719 345.097656 482.507812 345.269531 482.363281 345.429688 C 482.21875 345.585938 482.058594 345.730469 481.886719 345.855469 C 481.710938 345.980469 481.527344 346.085938 481.328125 346.171875 C 481.132812 346.257812 480.929688 346.324219 480.71875 346.371094 L 463.757812 349.949219 C 463.398438 350.027344 463.097656 350.199219 462.847656 350.46875 C 462.601562 350.738281 462.453125 351.058594 462.410156 351.421875 C 462.363281 351.785156 462.429688 352.128906 462.601562 352.449219 C 462.777344 352.773438 463.03125 353.015625 463.359375 353.175781 L 480.085938 361.351562 C 480.484375 361.539062 480.890625 361.6875 481.316406 361.796875 C 481.738281 361.90625 482.167969 361.976562 482.605469 362.003906 C 483.042969 362.027344 483.480469 362.011719 483.914062 361.957031 C 484.347656 361.898438 484.769531 361.800781 485.183594 361.660156 C 485.601562 361.519531 485.996094 361.34375 486.378906 361.125 C 486.757812 360.910156 487.113281 360.660156 487.445312 360.375 C 487.777344 360.089844 488.082031 359.773438 488.351562 359.429688 C 488.621094 359.085938 488.859375 358.722656 489.058594 358.332031 L 495.636719 345.28125 C 496.007812 344.546875 496.191406 343.769531 496.1875 342.949219 C 496.1875 342.125 495.996094 341.347656 495.621094 340.617188 Z M 472.289062 295.109375 " fill-opacity="1" fill-rule="nonzero"/></svg>