<?xml version="1.0" encoding="utf-8"?>
<!-- Generator: Adobe Illustrator 27.5.0, SVG Export Plug-In . SVG Version: 6.00 Build 0)  -->
<svg version="1.1" xmlns="http://www.w3.org/2000/svg" xmlns:xlink="http://www.w3.org/1999/xlink" x="0px" y="0px"
	 viewBox="0 0 500 500" style="enable-background:new 0 0 500 500;" xml:space="preserve">
<g id="Background_complete">
	<g>
		<g>
			<g>
				<g>
					<g>
						<path style="fill:#E0E0E0;" d="M443.92,327.007H263.174c-3.232,0-5.862-2.63-5.862-5.862V57.871
							c0-3.232,2.63-5.862,5.862-5.862H443.92c3.232,0,5.862,2.629,5.862,5.862v263.273
							C449.783,324.377,447.153,327.007,443.92,327.007z M263.174,52.259c-3.095,0-5.612,2.518-5.612,5.612v263.273
							c0,3.095,2.518,5.612,5.612,5.612H443.92c3.095,0,5.612-2.517,5.612-5.612V57.871c0-3.094-2.518-5.612-5.612-5.612H263.174z"
							/>
					</g>
				</g>
				<g>
					<g>
						<path style="fill:#E0E0E0;" d="M235.493,327.007H54.746c-3.232,0-5.862-2.63-5.862-5.862V57.871
							c0-3.232,2.629-5.862,5.862-5.862h180.747c3.232,0,5.862,2.629,5.862,5.862v263.273
							C241.355,324.377,238.725,327.007,235.493,327.007z M54.746,52.259c-3.094,0-5.612,2.518-5.612,5.612v263.273
							c0,3.095,2.518,5.612,5.612,5.612h180.747c3.095,0,5.612-2.517,5.612-5.612V57.871c0-3.094-2.518-5.612-5.612-5.612H54.746z"
							/>
					</g>
				</g>
			</g>
			<g>
				<g>
					<rect x="0" y="388.076" style="fill:#E0E0E0;" width="500" height="0.25"/>
				</g>
			</g>
		</g>
		<rect x="51.672" y="402.341" style="fill:#E0E0E0;" width="16.06" height="0.25"/>
		<rect x="170.352" y="399.631" style="fill:#E0E0E0;" width="53.53" height="0.25"/>
		<rect x="68.732" y="411.631" style="fill:#E0E0E0;" width="36.25" height="0.25"/>
		<rect x="378.352" y="399.501" style="fill:#E0E0E0;" width="43.19" height="0.25"/>
		<rect x="430.452" y="399.501" style="fill:#E0E0E0;" width="6.33" height="0.25"/>
		<rect x="316.212" y="405.731" style="fill:#E0E0E0;" width="53.89" height="0.25"/>
	</g>
	<g>
		<g>
			<g>
				<rect x="304.204" y="163.952" style="fill:#E0E0E0;" width="36.986" height="69.728"/>
				<rect x="295.929" y="163.952" style="fill:#EBEBEB;" width="43.446" height="69.728"/>
				<rect x="302.533" y="170.145" style="fill:#FFFFFF;" width="30.219" height="57.341"/>
			</g>
		</g>
		<path style="fill:#E0E0E0;" d="M295.929,163.952c0.534,0,6.604,6.193,6.604,6.193h30.219l6.624-6.193H295.929z"/>
		<path style="fill:#E0E0E0;" d="M339.375,233.679c-0.535,0-6.604-6.193-6.604-6.193h-30.219l-6.624,6.193H339.375z"/>
		<rect x="312.865" y="185.078" style="fill:#E0E0E0;" width="10.754" height="16.997"/>
	</g>
	<g>
		<g>
			<g>
				<rect x="79.321" y="145.917" style="fill:#E0E0E0;" width="55.018" height="103.722"/>
				<rect x="67.012" y="145.917" style="fill:#EBEBEB;" width="64.628" height="103.722"/>
				<rect x="76.835" y="155.13" style="fill:#FFFFFF;" width="44.951" height="85.296"/>
			</g>
		</g>
		<path style="fill:#E0E0E0;" d="M67.012,145.917c0.795,0,9.823,9.213,9.823,9.213h44.951l9.854-9.213H67.012z"/>
		<path style="fill:#E0E0E0;" d="M131.64,249.638c-0.795,0-9.823-9.213-9.823-9.213H76.866l-9.854,9.213H131.64z"/>
		<rect x="92.206" y="177.343" style="fill:#E0E0E0;" width="15.997" height="25.283"/>
	</g>
	<g>
		<g>
			<g>
				<rect x="373.373" y="145.917" style="fill:#E0E0E0;" width="55.018" height="103.722"/>
				<rect x="361.064" y="145.917" style="fill:#EBEBEB;" width="64.628" height="103.722"/>
				<rect x="370.887" y="155.13" style="fill:#FFFFFF;" width="44.951" height="85.296"/>
			</g>
		</g>
		<path style="fill:#E0E0E0;" d="M361.064,145.917c0.795,0,9.823,9.213,9.823,9.213h44.951l9.854-9.213H361.064z"/>
		<path style="fill:#E0E0E0;" d="M425.692,249.638c-0.795,0-9.823-9.213-9.823-9.213h-44.951l-9.854,9.213H425.692z"/>
		<rect x="386.258" y="177.343" style="fill:#E0E0E0;" width="15.997" height="25.283"/>
	</g>
	<path style="fill:#F0F0F0;" d="M327.176,355.218c-0.976-4.71-2.843-9.089-5.395-12.978l4.647-5.613l-9.935-9.935l-5.613,4.646
		c-3.889-2.551-8.268-4.418-12.977-5.395l-0.681-7.235h-14.05l-0.682,7.235c-4.709,0.977-9.089,2.843-12.977,5.395l-5.613-4.646
		l-9.935,9.935l4.647,5.613c-2.552,3.889-4.418,8.267-5.395,12.977l-7.235,0.682v14.049l7.235,0.682
		c0.977,4.709,2.843,9.088,5.395,12.977l-4.647,5.613l9.935,9.935l5.613-4.647c3.888,2.553,8.268,4.419,12.977,5.396l0.682,7.235
		h14.05l0.681-7.234c4.709-0.976,9.088-2.843,12.977-5.396l5.613,4.647l9.935-9.935l-4.647-5.613
		c2.553-3.89,4.419-8.268,5.395-12.977l7.234-0.682V355.9L327.176,355.218z M309.216,362.924c0,10.504-8.516,19.02-19.02,19.02
		c-10.505,0-19.02-8.516-19.02-19.02c0-10.505,8.516-19.02,19.02-19.02C300.701,343.904,309.216,352.419,309.216,362.924z"/>
	<path style="fill:#F0F0F0;" d="M370.374,291.483c0.118-3.379-0.428-6.68-1.523-9.76l4.108-3.059l-5.129-8.438l-4.607,2.238
		c-2.231-2.39-4.91-4.394-7.963-5.845l0.739-5.054l-9.594-2.34l-1.67,4.827c-3.379-0.117-6.68,0.428-9.76,1.523l-3.059-4.108
		l-8.439,5.13l2.238,4.607c-2.39,2.23-4.394,4.91-5.845,7.963l-5.054-0.739l-2.339,9.594l4.827,1.671
		c-0.117,3.379,0.428,6.679,1.523,9.76l-4.108,3.059l5.13,8.439l4.607-2.239c2.23,2.391,4.91,4.394,7.963,5.845l-0.739,5.054
		l9.594,2.34l1.67-4.826c3.378,0.118,6.68-0.428,9.76-1.524l3.059,4.108l8.438-5.13l-2.238-4.606
		c2.391-2.231,4.394-4.91,5.845-7.963l5.054,0.739l2.339-9.594L370.374,291.483z M356.827,293.755
		c-1.749,7.173-8.982,11.57-16.155,9.82c-7.173-1.749-11.57-8.982-9.821-16.155c1.749-7.173,8.982-11.57,16.155-9.821
		C354.18,279.348,358.577,286.581,356.827,293.755z"/>
	<path style="fill:#F0F0F0;" d="M136.232,366.22c-0.381-1.84-1.11-3.551-2.107-5.07l1.815-2.193l-3.881-3.881l-2.193,1.815
		c-1.519-0.997-3.23-1.726-5.069-2.107l-0.266-2.826h-5.488l-0.266,2.826c-1.84,0.381-3.55,1.111-5.069,2.107l-2.193-1.815
		l-3.881,3.881l1.815,2.193c-0.997,1.519-1.726,3.229-2.108,5.07l-2.826,0.266v5.488l2.826,0.266c0.382,1.84,1.111,3.55,2.108,5.069
		l-1.815,2.193l3.881,3.881l2.193-1.815c1.519,0.997,3.229,1.726,5.069,2.108l0.266,2.826h5.488l0.266-2.826
		c1.84-0.381,3.55-1.111,5.069-2.108l2.193,1.815l3.881-3.881l-1.815-2.193c0.997-1.52,1.726-3.23,2.107-5.069l2.826-0.266v-5.488
		L136.232,366.22z M129.216,369.231c0,4.103-3.326,7.43-7.43,7.43c-4.103,0-7.43-3.327-7.43-7.43c0-4.104,3.326-7.43,7.43-7.43
		C125.89,361.801,129.216,365.127,129.216,369.231z"/>
	<path style="fill:#F0F0F0;" d="M389.647,350.159c-0.381-1.84-1.111-3.551-2.108-5.07l1.815-2.193l-3.881-3.881l-2.193,1.815
		c-1.519-0.997-3.23-1.726-5.069-2.107l-0.266-2.826h-5.488l-0.266,2.826c-1.84,0.381-3.55,1.111-5.069,2.107l-2.193-1.815
		l-3.881,3.881l1.815,2.193c-0.997,1.519-1.726,3.23-2.108,5.07l-2.826,0.266v5.488l2.826,0.267c0.382,1.84,1.111,3.55,2.108,5.069
		l-1.815,2.193l3.881,3.881l2.193-1.815c1.519,0.997,3.23,1.726,5.069,2.108l0.266,2.826h5.488l0.266-2.826
		c1.84-0.381,3.55-1.111,5.069-2.108l2.193,1.815l3.881-3.881l-1.815-2.193c0.997-1.52,1.726-3.23,2.108-5.069l2.826-0.267v-5.488
		L389.647,350.159z M382.631,353.169c0,4.103-3.327,7.43-7.43,7.43c-4.104,0-7.43-3.326-7.43-7.43c0-4.104,3.327-7.43,7.43-7.43
		C379.305,345.739,382.631,349.066,382.631,353.169z"/>
	<path style="fill:#F0F0F0;" d="M342.236,101.893c-0.764-3.687-2.225-7.115-4.224-10.16l3.638-4.394l-7.777-7.778l-4.395,3.638
		c-3.044-1.997-6.473-3.459-10.159-4.223l-0.534-5.664h-10.999l-0.534,5.664c-3.687,0.764-7.115,2.226-10.159,4.223l-4.394-3.638
		l-7.778,7.778l3.638,4.394c-1.998,3.044-3.459,6.472-4.224,10.16l-5.664,0.534v10.998l5.664,0.534
		c0.765,3.687,2.226,7.114,4.224,10.159l-3.638,4.394l7.778,7.778l4.394-3.638c3.044,1.999,6.472,3.459,10.159,4.224l0.534,5.664
		h10.999l0.534-5.663c3.687-0.764,7.115-2.226,10.159-4.224l4.395,3.638l7.777-7.778l-3.638-4.394
		c1.998-3.045,3.459-6.472,4.224-10.159l5.663-0.534v-10.998L342.236,101.893z M328.176,107.926c0,8.223-6.667,14.89-14.89,14.89
		c-8.223,0-14.89-6.667-14.89-14.89c0-8.224,6.667-14.89,14.89-14.89C321.509,93.035,328.176,99.702,328.176,107.926z"/>
	<path style="fill:#F0F0F0;" d="M233.939,54.917c-0.764-3.687-2.225-7.115-4.223-10.16l3.638-4.394l-7.777-7.778l-4.395,3.638
		c-3.044-1.997-6.473-3.459-10.159-4.223l-0.533-5.664H199.49l-0.534,5.664c-3.687,0.764-7.115,2.226-10.159,4.223l-4.394-3.638
		l-7.778,7.778l3.638,4.394c-1.998,3.044-3.459,6.472-4.224,10.16l-5.664,0.534v10.998l5.664,0.534
		c0.765,3.687,2.226,7.114,4.224,10.159l-3.638,4.394l7.778,7.778l4.394-3.638c3.044,1.999,6.472,3.459,10.159,4.224l0.534,5.664
		h10.999l0.533-5.663c3.687-0.764,7.115-2.226,10.159-4.224l4.395,3.638l7.777-7.778l-3.638-4.394
		c1.998-3.045,3.459-6.472,4.223-10.159l5.663-0.534V55.45L233.939,54.917z M219.879,60.95c0,8.223-6.666,14.89-14.89,14.89
		c-8.223,0-14.89-6.667-14.89-14.89c0-8.224,6.667-14.89,14.89-14.89C213.213,46.059,219.879,52.726,219.879,60.95z"/>
	<path style="fill:#F0F0F0;" d="M144.892,60.278c-0.425-2.049-1.237-3.954-2.347-5.646l2.021-2.442l-4.322-4.322l-2.442,2.021
		c-1.692-1.11-3.597-1.922-5.646-2.347l-0.296-3.147h-6.112l-0.297,3.147c-2.049,0.425-3.954,1.237-5.645,2.347l-2.442-2.021
		l-4.322,4.322l2.022,2.442c-1.11,1.692-1.922,3.597-2.347,5.646l-3.147,0.297v6.112l3.147,0.297
		c0.425,2.049,1.237,3.953,2.347,5.645l-2.022,2.442l4.322,4.322l2.442-2.022c1.692,1.111,3.597,1.922,5.645,2.347l0.297,3.147
		h6.112l0.296-3.147c2.049-0.425,3.954-1.237,5.646-2.348l2.442,2.022l4.322-4.322l-2.021-2.442c1.11-1.692,1.922-3.597,2.347-5.646
		l3.147-0.297v-6.112L144.892,60.278z M137.079,63.63c0,4.57-3.705,8.274-8.275,8.274c-4.57,0-8.274-3.705-8.274-8.274
		c0-4.57,3.705-8.275,8.274-8.275C133.374,55.356,137.079,59.06,137.079,63.63z"/>
	<path style="fill:#F0F0F0;" d="M199.631,314.919c-0.763-3.684-2.223-7.108-4.219-10.149l3.634-4.39l-7.769-7.77l-4.39,3.634
		c-3.041-1.995-6.466-3.455-10.149-4.219l-0.533-5.658h-10.988l-0.533,5.658c-3.683,0.764-7.108,2.224-10.149,4.219l-4.39-3.634
		l-7.77,7.77l3.634,4.39c-1.996,3.041-3.455,6.465-4.219,10.149l-5.658,0.533v10.987l5.658,0.534
		c0.764,3.683,2.223,7.107,4.219,10.149l-3.634,4.39l7.77,7.77l4.39-3.635c3.041,1.997,6.466,3.456,10.149,4.22l0.533,5.658h10.988
		l0.533-5.657c3.683-0.763,7.107-2.224,10.149-4.22l4.39,3.635l7.769-7.77l-3.634-4.389c1.996-3.042,3.456-6.466,4.219-10.149
		l5.658-0.534v-10.987L199.631,314.919z M185.586,320.946c0,8.215-6.66,14.875-14.875,14.875c-8.215,0-14.875-6.66-14.875-14.875
		c0-8.215,6.66-14.875,14.875-14.875C178.926,306.071,185.586,312.731,185.586,320.946z"/>
</g>
<g id="Background_simple" style="display:none;">
	<g style="display:inline;">
		<path style="fill:#407BFF;" d="M158.069,156.603c-24.955,2.847-49.02,8.907-70.362,18.413
			c-25.155,11.204-50.857,28.659-43.265,51.49c14.015,42.149,81.247,42.917,67.823,71.257
			c-15.205,32.102-5.008,69.757,63.221,80.228c129.592,19.889,286.25-96.484,242.25-160.43
			C390.343,177.751,290.576,141.488,158.069,156.603z"/>
		<path style="opacity:0.9;fill:#FFFFFF;" d="M158.069,156.603c-24.955,2.847-49.02,8.907-70.362,18.413
			c-25.155,11.204-50.857,28.659-43.265,51.49c14.015,42.149,81.247,42.917,67.823,71.257
			c-15.205,32.102-5.008,69.757,63.221,80.228c129.592,19.889,286.25-96.484,242.25-160.43
			C390.343,177.751,290.576,141.488,158.069,156.603z"/>
	</g>
</g>
<g id="Shadow">
	<g>
		<g>
			<path style="fill:#F5F5F5;" d="M461.208,466.336c0,3.387-93.517,6.132-208.875,6.132s-208.875-2.746-208.875-6.132
				c0-3.387,93.517-6.132,208.875-6.132S461.208,462.949,461.208,466.336z"/>
		</g>
	</g>
</g>
<g id="Plants">
	<g>
		<g>
			<g>
				<path style="fill:#407BFF;" d="M91.128,333.049c-13.786,16.125-17.812,39.995-10.078,59.75
					c8.592-7.669,14.643-19.358,15.026-29.582C96.458,352.993,93.782,342.93,91.128,333.049z"/>
			</g>
			<g>
				<path style="fill:#407BFF;" d="M88.723,394.662c-4.678,7.167-6.917,15.895-6.267,24.429
					c7.452-2.595,14.022-11.013,17.961-17.851c3.939-6.838,6.141-14.518,8.145-22.15C100.488,381.932,93.4,387.495,88.723,394.662z"
					/>
			</g>
			<g>
				<g>
					<path style="fill:#263238;" d="M86.915,361.185c-5.537,19.918-8.362,40.569-8.346,61.244
						c0.004,5.873,0.245,11.744,0.702,17.599c0.037,0.478,0.788,0.482,0.75,0c-1.611-20.624-0.416-41.444,3.595-61.74
						c1.123-5.684,2.47-11.321,4.022-16.904C87.768,360.918,87.045,360.72,86.915,361.185L86.915,361.185z"/>
				</g>
			</g>
			<g>
				<g>
					<path style="fill:#263238;" d="M79.606,425.858c5.66-13.461,13.093-26.067,21.685-37.858c0.285-0.391-0.366-0.765-0.648-0.379
						c-8.633,11.848-16.073,24.512-21.76,38.037C78.696,426.103,79.422,426.297,79.606,425.858L79.606,425.858z"/>
				</g>
			</g>
			<g>
				<path style="fill:#407BFF;" d="M71.494,405.83c3.9,5.976,5.767,13.254,5.226,20.37c-6.214-2.163-11.692-9.183-14.976-14.884
					c-3.284-5.702-5.121-12.106-6.792-18.47C61.683,395.215,67.594,399.854,71.494,405.83z"/>
			</g>
			<g>
				<g>
					<path style="fill:#263238;" d="M79.438,430.892c-4.649-11.049-10.779-21.287-17.83-30.964
						c-0.282-0.386-0.932-0.012-0.648,0.379c7.008,9.619,13.132,19.799,17.754,30.784C78.899,431.529,79.625,431.337,79.438,430.892
						L79.438,430.892z"/>
				</g>
			</g>
			<g>
				<g>
					<path style="fill:#263238;" d="M79.632,434.648c8.77-9.022,17.723-17.862,26.492-26.884c0.337-0.346-0.193-0.877-0.53-0.53
						c-8.77,9.022-17.723,17.862-26.492,26.884C78.765,434.464,79.295,434.995,79.632,434.648L79.632,434.648z"/>
				</g>
			</g>
			<g>
				<path style="fill:#407BFF;" d="M106.39,403.554c-7.608,7.337-14.54,15.376-20.679,23.98l1.392,0
					c5.791-0.272,11.412-3.128,15.045-7.646C105.782,415.372,107.367,409.269,106.39,403.554z"/>
			</g>
			<g>
				<g>
					<g>
						<path style="fill:#263238;" d="M70.296,386.102c3.267,5.342,6.344,10.798,9.228,16.356c0.222,0.429,0.87,0.05,0.648-0.379
							c-2.884-5.559-5.962-11.014-9.228-16.356C70.693,385.313,70.044,385.689,70.296,386.102L70.296,386.102z"/>
					</g>
				</g>
				<g>
					<path style="fill:#407BFF;" d="M62.497,359.083c-1.246,5.604-2.481,12.891-2.494,18.726
						c-0.013,5.835,1.768,11.529,5.083,15.439c3.316,3.91,10.009,5.623,12.708,3.385L62.497,359.083z"/>
				</g>
			</g>
		</g>
		<rect x="62.327" y="437.189" style="fill:#263238;" width="33.236" height="6.159"/>
		<polygon style="fill:#263238;" points="90.179,465.291 69.542,465.291 65.791,441.936 93.142,441.936 		"/>
		<polygon style="opacity:0.2;" points="66.036,443.462 92.949,443.462 92.613,446.106 66.461,446.106 		"/>
	</g>
	<g>
		<g>
			<g>
				<path style="fill:#407BFF;" d="M425.209,333.049c-13.786,16.125-17.812,39.995-10.079,59.75
					c8.592-7.669,14.643-19.358,15.026-29.582C430.539,352.993,427.863,342.93,425.209,333.049z"/>
			</g>
			<g>
				<path style="fill:#407BFF;" d="M422.804,394.662c-4.678,7.167-6.917,15.895-6.267,24.429
					c7.452-2.595,14.022-11.013,17.961-17.851c3.939-6.838,6.141-14.518,8.145-22.15
					C434.57,381.932,427.482,387.495,422.804,394.662z"/>
			</g>
			<g>
				<g>
					<path style="fill:#263238;" d="M420.997,361.185c-5.537,19.918-8.362,40.569-8.346,61.244
						c0.005,5.873,0.245,11.744,0.702,17.599c0.037,0.478,0.788,0.482,0.75,0c-1.611-20.624-0.416-41.444,3.595-61.74
						c1.123-5.684,2.47-11.321,4.022-16.904C421.849,360.918,421.126,360.72,420.997,361.185L420.997,361.185z"/>
				</g>
			</g>
			<g>
				<g>
					<path style="fill:#263238;" d="M413.688,425.858c5.66-13.461,13.093-26.067,21.684-37.858c0.285-0.391-0.366-0.765-0.648-0.379
						c-8.633,11.848-16.074,24.512-21.76,38.037C412.778,426.103,413.503,426.297,413.688,425.858L413.688,425.858z"/>
				</g>
			</g>
			<g>
				<path style="fill:#407BFF;" d="M405.575,405.83c3.9,5.976,5.767,13.254,5.226,20.37c-6.214-2.163-11.692-9.183-14.977-14.884
					c-3.284-5.702-5.121-12.106-6.792-18.47C395.765,395.215,401.675,399.854,405.575,405.83z"/>
			</g>
			<g>
				<g>
					<path style="fill:#263238;" d="M413.52,430.892c-4.649-11.049-10.779-21.287-17.83-30.964
						c-0.281-0.386-0.932-0.012-0.648,0.379c7.008,9.619,13.132,19.799,17.754,30.784
						C412.981,431.529,413.707,431.337,413.52,430.892L413.52,430.892z"/>
				</g>
			</g>
			<g>
				<g>
					<path style="fill:#263238;" d="M413.714,434.648c8.77-9.022,17.723-17.862,26.492-26.884c0.337-0.346-0.193-0.877-0.53-0.53
						c-8.77,9.022-17.723,17.862-26.492,26.884C412.847,434.464,413.376,434.995,413.714,434.648L413.714,434.648z"/>
				</g>
			</g>
			<g>
				<path style="fill:#407BFF;" d="M440.471,403.554c-7.608,7.337-14.54,15.376-20.679,23.98l1.392,0
					c5.791-0.272,11.412-3.128,15.045-7.646C439.863,415.372,441.448,409.269,440.471,403.554z"/>
			</g>
			<g>
				<g>
					<g>
						<path style="fill:#263238;" d="M404.378,386.102c3.267,5.342,6.344,10.798,9.228,16.356c0.222,0.429,0.87,0.05,0.648-0.379
							c-2.884-5.559-5.961-11.014-9.228-16.356C404.774,385.313,404.125,385.689,404.378,386.102L404.378,386.102z"/>
					</g>
				</g>
				<g>
					<path style="fill:#407BFF;" d="M396.579,359.083c-1.246,5.604-2.481,12.891-2.494,18.726
						c-0.013,5.835,1.768,11.529,5.083,15.439c3.316,3.91,10.009,5.623,12.708,3.385L396.579,359.083z"/>
				</g>
			</g>
		</g>
		<rect x="396.408" y="437.189" style="fill:#263238;" width="33.236" height="6.159"/>
		<polygon style="fill:#263238;" points="424.261,465.291 403.623,465.291 399.873,441.936 427.224,441.936 		"/>
		<polygon style="opacity:0.2;" points="400.118,443.462 427.03,443.462 426.695,446.106 400.542,446.106 		"/>
	</g>
</g>
<g id="Characters">
	<g>
		<g>
			<g>
				<path style="fill:#263238;" d="M135.412,135.614c5.095,21.329,10.697,42.537,16.813,63.596
					c1.734,5.972,3.511,11.932,5.326,17.88c0.14,0.46,0.865,0.264,0.723-0.199c-6.4-20.975-12.301-42.101-17.683-63.359
					c-1.526-6.028-3.011-12.068-4.455-18.116C136.023,134.946,135.299,135.144,135.412,135.614L135.412,135.614z"/>
			</g>
		</g>
		<g>
			<g>
				<path style="fill:#263238;" d="M261.843,107.925c1.097,21.295,2.351,42.581,3.73,63.86c1.453,22.43,3.045,44.85,4.758,67.261
					c1.734,22.689,3.594,45.369,5.577,68.038c1.966,22.476,4.054,44.941,6.278,67.393c2.118,21.388,4.359,42.764,6.755,64.122
					c0.291,2.592,0.584,5.184,0.879,7.776c0.054,0.474,0.805,0.479,0.75,0c-2.415-21.186-4.673-42.389-6.807-63.605
					c-2.249-22.364-4.361-44.741-6.351-67.13c-2.015-22.666-3.905-45.343-5.671-68.03c-1.751-22.494-3.381-44.997-4.874-67.509
					c-1.422-21.445-2.722-42.899-3.866-64.361c-0.139-2.605-0.275-5.21-0.409-7.814
					C262.568,107.445,261.818,107.442,261.843,107.925L261.843,107.925z"/>
			</g>
		</g>
		<g>
			<g>
				<path style="fill:#263238;" d="M140.565,94.684c-0.538,0.636-0.146,2.256-0.08,2.976c0.224,2.442,0.563,4.875,0.901,7.304
					c1.226,8.814,2.658,17.601,4.095,26.383c2.12,12.954,4.319,25.896,6.543,38.833c2.71,15.767,5.464,31.527,8.237,47.283
					c3.036,17.248,6.099,34.492,9.177,51.733c3.106,17.397,6.228,34.791,9.362,52.183c2.921,16.213,5.853,32.423,8.794,48.633
					c2.484,13.695,4.974,27.389,7.471,41.083c1.795,9.845,3.592,19.689,5.393,29.533c0.852,4.654,1.575,9.355,2.562,13.982
					c0.042,0.198,0.073,0.399,0.11,0.598c0.087,0.474,0.81,0.273,0.723-0.199c-0.583-3.177-1.166-6.355-1.747-9.533
					c-1.578-8.615-3.152-17.23-4.724-25.846c-2.335-12.795-4.664-25.591-6.989-38.388c-2.83-15.578-5.652-31.157-8.465-46.738
					c-3.086-17.091-6.161-34.184-9.222-51.28c-3.107-17.355-6.201-34.714-9.271-52.076c-2.863-16.192-5.708-32.387-8.516-48.588
					c-2.395-13.821-4.767-27.646-7.074-41.482c-1.674-10.045-3.331-20.094-4.843-30.164c-0.74-4.931-1.791-10.022-1.887-15.024
					c-0.007-0.381,0.113-0.83-0.019-0.673C141.405,94.848,140.877,94.314,140.565,94.684L140.565,94.684z"/>
			</g>
		</g>
		<g>
			<path style="fill:#FDAD6A;" d="M224.537,106.675l-11.978-2.401l-20.265,26.198c0,0,7.503,13.081,2.35,23.671
				c-5.068,10.415-12.631,1.866-12.631,1.866s-9.054,9.874-14.246,2.492c-1.231-1.749,2.368-35.16,2.368-35.16
				s-12.424,19.793-27.713,15.902c0,0-3.369-1.815-0.154-6.168c3.215-4.353,11.248-25.017,15.408-29.512
				c4.161-4.495,27.747-20.04,28.901-21.374c1.154-1.334-17.772-1.925-27.505,2.828c-9.732,4.753-28.959,9.392-32.23-3.372
				c-0.962-3.753,31.659-16.321,42.13-20.025c10.471-3.704,47.493-2.142,55.165-3.876c7.671-1.735,104.56-21.123,104.56-21.123
				l10.108,53.039l-44.663-7.203c0,0-12.112,10.252-31.435,20.704"/>
			<path style="opacity:0.3;" d="M214.281,104.665c0,0,9.052-17.446,22.568-17.945l-12.313,19.956L214.281,104.665z"/>
			<polygon style="fill:#407BFF;" points="303.495,38.765 314.357,96.698 368.07,92.639 354.727,25.961 			"/>
			<path style="fill:none;stroke:#FE7F3A;stroke-linecap:round;stroke-linejoin:round;stroke-miterlimit:10;" d="M180.859,157.609
				c5.704-10.609,5.38-30.303,5.997-32.975c0,0,14.319-15.335,19.88-24.157"/>
			<path style="fill:none;stroke:#FE7F3A;stroke-linecap:round;stroke-linejoin:round;stroke-miterlimit:10;" d="M170.136,123.342
				c4.795-12.776,28.22-28.393,28.22-28.393"/>
			<path style="fill:none;stroke:#FE7F3A;stroke-linecap:round;stroke-linejoin:round;stroke-miterlimit:10;" d="M173.549,80.856
				c6.59,0.766,13.294,0.533,19.815-0.687"/>
			<path style="fill:none;stroke:#FE7F3A;stroke-linecap:round;stroke-linejoin:round;stroke-miterlimit:10;" d="M192.885,90.474
				c6.895,6.105,14.43,10.972,22.629,14.236"/>
			<path style="opacity:0.2;fill:#FFFFFF;" d="M140.893,136.701c0.09,0.235,2.402-0.32,5.192-2.92
				c2.789-2.6,2.131-6.049,1.596-6.326c-0.534-0.277-2.114-0.443-2.114-0.443S140.191,134.882,140.893,136.701z"/>
		</g>
		<g>
			<polygon style="fill:#263238;" points="257.505,148.927 133.12,96.058 138.005,86.801 262.39,139.67 			"/>
			<polygon style="fill:#263238;" points="265.299,107.57 131.936,138.083 129.117,128.158 262.48,97.645 			"/>
		</g>
		<polygon style="opacity:0.4;" points="303.495,38.765 314.357,96.698 368.07,92.639 354.727,25.961 		"/>
		<path style="fill:#FFFFFF;" d="M330.804,82.458c0,1.959-1.588,3.548-3.547,3.548c-1.959,0-3.547-1.588-3.547-3.548
			c0-1.959,1.588-3.548,3.547-3.548C329.216,78.911,330.804,80.499,330.804,82.458z"/>
		<polygon style="opacity:0.3;" points="196.98,123.201 214.314,119.235 217.93,120.772 200.84,124.842 		"/>
		<path style="opacity:0.3;" d="M180.859,116.349c0,0,17.704-4.08,17.496-4.033s-3.339-1.283-3.339-1.283l-17.835,3.753
			L180.859,116.349z"/>
		<g>
			<path style="fill:#FDAD6A;" d="M218.4,117.06c6.644-10.576,13.254-24.032,20.514-34.038l55.228-0.564
				c0,0-23.003,22.963-46.802,29.132c0,0-14.449,25.897-24.175,27.772S208.892,132.195,218.4,117.06z"/>
			<path style="opacity:0.2;fill:#FFFFFF;" d="M217.732,131.066c0,0-3.178,5.281,0.509,7.115c3.687,1.835,4.724,2.182,7.183-0.302
				c2.459-2.484,4.447-4.938,4.447-4.938s-5.75-2.052-8.147-3.699C219.327,127.596,217.732,131.066,217.732,131.066z"/>
			<path style="fill:none;stroke:#FE7F3A;stroke-linecap:round;stroke-linejoin:round;stroke-miterlimit:10;" d="M233.013,111.033
				c2.181,1.685,4.534,3.146,7.011,4.353"/>
			<path style="fill:none;stroke:#FE7F3A;stroke-linecap:round;stroke-linejoin:round;stroke-miterlimit:10;" d="M231.802,113.51
				c2.181,1.685,4.536,3.147,7.014,4.354"/>
		</g>
	</g>
	<g>
		<g>
			<g>
				<path style="fill:#FFB2A8;" d="M205.365,249.013c0,0,0.092-5.074-3.876-13.369c-0.001-0.009,0.424-0.289,0.423-0.298
					c-0.549-1.161-1.106-2.226-1.617-3.144c-0.013-0.027-0.014-0.037-0.014-0.037l13.137,5.395
					c0.181,2.833,2.072,8.051,3.044,10.227c0,0,1.958,2.708-3.49,3.793C208.992,252.374,205.365,249.013,205.365,249.013z"/>
				<path style="opacity:0.2;" d="M214.271,241.444l-7.115-0.412c0.975,2.03,3.281,4.247,8.089,3.664
					C215.244,244.696,214.374,242.387,214.271,241.444z"/>
			</g>
			<g>
				<path style="fill:#FFB2A8;" d="M199.232,226.391c2.053,7.423,3.062,11.651,7.677,14.672c6.943,4.543,15.313-0.738,15.519-8.649
					c0.185-7.12-3.204-18.063-11.199-19.425C203.352,211.647,197.178,218.967,199.232,226.391z"/>
				<path style="fill:#263238;" d="M208.623,208.365c-3.349-1.504-12.019,4.2-12.174,8.564c-4.896,1.363-5.211,6.672-3.119,10.466
					c1.404,2.546,5.497,8.019,8.394,8.744c2.561-4.029-0.208-15.491-0.208-15.491c0.161-1.482,0.927-2.189,1.394-2.184
					c0,0,6.06,0.426,9.592-0.001c3.532-0.427,4.867-1.843,4.867-1.843s4.096-1.436,1.856-5.768
					C215.088,202.853,208.623,208.365,208.623,208.365z"/>
				<path style="fill:#FFB2A8;" d="M197.588,233.288c1.011,1.809,2.765,2.974,4.414,3.399c2.48,0.64,2.798-1.991,2.084-4.316
					c-0.643-2.092-1.815-4.559-4.292-4.169C197.353,228.588,196.432,231.22,197.588,233.288z"/>
				<path style="fill:#263238;" d="M207.633,226.578c0.163,0.77,0.702,1.303,1.205,1.192c0.503-0.111,0.778-0.826,0.616-1.596
					c-0.163-0.77-0.702-1.303-1.205-1.192C207.746,225.094,207.47,225.808,207.633,226.578z"/>
				<path style="fill:#263238;" d="M215.761,225.444c0.163,0.77,0.702,1.303,1.205,1.192c0.503-0.112,0.778-0.826,0.616-1.596
					c-0.163-0.77-0.702-1.303-1.205-1.192C215.874,223.96,215.598,224.675,215.761,225.444z"/>
				<path style="fill:#D7504D;" d="M214.057,225.242c0,0,3.246,3.309,4.356,4.701c-0.867,1.194-2.806,1.139-2.806,1.139
					L214.057,225.242z"/>
				<path style="fill:#263238;" d="M206.437,223.393c0.115,0.058,0.257,0.054,0.372-0.023c1.375-0.911,2.63-0.396,2.642-0.391
					c0.187,0.079,0.405-0.008,0.486-0.194c0.081-0.186-0.006-0.402-0.192-0.481c-0.066-0.028-1.639-0.674-3.344,0.457
					c-0.17,0.113-0.217,0.341-0.105,0.509C206.334,223.325,206.382,223.366,206.437,223.393z"/>
				<path style="fill:#263238;" d="M215.007,221.758c0.115,0.058,0.257,0.054,0.372-0.023c1.375-0.911,2.63-0.396,2.642-0.391
					c0.187,0.079,0.405-0.008,0.486-0.194c0.081-0.186-0.006-0.402-0.192-0.481c-0.066-0.028-1.639-0.673-3.344,0.457
					c-0.17,0.113-0.217,0.341-0.105,0.509C214.903,221.689,214.952,221.73,215.007,221.758z"/>
			</g>
			
				<path style="opacity:0.2;fill:none;stroke:#000000;stroke-width:0.5;stroke-linecap:round;stroke-linejoin:round;stroke-miterlimit:10;" d="
				M198.866,230.846c0.208-0.513,0.791-0.809,1.344-0.791c0.553,0.018,1.07,0.302,1.483,0.67c0.496,0.442,0.874,1.016,1.083,1.647"
				/>
			<path style="fill:#263238;" d="M215.518,235.43c0.257-0.825,0.227-1.763-0.303-2.446c-0.53-0.683-1.41-1.061-2.275-1.037
				c-0.864,0.024-1.699,0.432-2.298,1.055c-0.298,0.311-0.553,0.708-0.532,1.138c0.023,0.495,0.414,0.912,0.867,1.112
				c0.453,0.2,0.961,0.225,1.456,0.241c0.495,0.016,1.002,0.028,1.463,0.208c0.221,0.086,0.434,0.211,0.671,0.225
				C214.567,235.926,215.345,235.983,215.518,235.43z"/>
			<path style="fill:#FFFFFF;" d="M211.356,232.428c0.207,0.045,3.442,0.74,3.598,0.683c0.134-0.049,0.112-0.255,0.101-0.324
				c-0.085-0.092-0.168-0.186-0.266-0.264c-0.025-0.02-0.055-0.042-0.084-0.063c-0.505-0.37-1.137-0.57-1.766-0.553
				C212.374,231.924,211.839,232.131,211.356,232.428z"/>
			<path style="fill:#FD504E;" d="M213.583,234.632c-1.213-0.576-3.348-0.11-3.372-0.105c0.147,0.319,0.438,0.579,0.765,0.724
				c0.453,0.2,0.961,0.225,1.456,0.241c0.495,0.016,1.002,0.028,1.463,0.208c0.221,0.086,0.434,0.211,0.671,0.225
				c0,0,0.187,0.013,0.398-0.038C214.81,235.586,214.431,235.035,213.583,234.632z"/>
		</g>
		<g>
			<g>
				<g>
					<g>
						<polygon style="fill:#FDBBB5;" points="275.992,439.94 281.579,458.881 287.53,456.958 288.601,438.254 						"/>
					</g>
				</g>
			</g>
			<g>
				<g>
					<g>
						<g>
							<g>
								<g>
									<g>
										<g>
											<g>
												<g>
													<g>
														<path style="fill:#263238;" d="M280.938,466.336l5.396-0.04c0,0,1.086-0.588,1.728-0.516
															c0.639,0.073,2.864,0.48,2.864,0.48l14.328-0.108c-0.119-0.6-0.265-1.133-0.429-1.606
															c-0.201-0.577-0.433-1.065-0.689-1.477c-0.899-1.442-2.114-1.948-3.431-2.022c-2.007-0.111-8.353-4.277-8.353-4.277
															s-2.297-0.784-2.439-3.221c-0.054-0.914-1.412-2.02-2.055-2.106c-1.312-0.179-2.034,0.656-2.215,1.967l-0.208,1.523
															l-3.03-0.449c0,0-3.09-1.526-2.93-0.022c0.092,0.859,0.638,4.681,0.986,7.713c0.082,0.707,0.158,1.376,0.224,1.963
															l0.001,0.001C280.834,465.441,280.938,466.336,280.938,466.336z"/>
													</g>
												</g>
											</g>
										</g>
									</g>
								</g>
								<g style="opacity:0.2;">
									<path style="fill:#FFFFFF;" d="M305.254,466.152l-14.328,0.108c0,0-2.225-0.407-2.864-0.48
										c-0.641-0.073-1.728,0.516-1.728,0.516l-5.396,0.04c0,0-0.104-0.895-0.252-2.197l24.139,0.407
										C304.989,465.019,305.135,465.552,305.254,466.152z"/>
								</g>
								<g>
									<g>
										<g>
											<g>
												<path style="fill:#407BFF;" d="M295.507,458.31c-0.067-0.064-0.169-0.071-0.247-0.019
													c-0.353,0.238-0.649,0.574-0.849,0.993c-0.105,0.221,0.218,0.431,0.324,0.208c0.177-0.372,0.436-0.669,0.745-0.878
													c0.103-0.07,0.119-0.215,0.029-0.301C295.508,458.312,295.508,458.311,295.507,458.31z"/>
											</g>
										</g>
									</g>
								</g>
								<g>
									<g>
										<g>
											<g>
												<path style="fill:#407BFF;" d="M294.362,457.647c-0.067-0.065-0.169-0.071-0.247-0.019
													c-0.353,0.238-0.649,0.574-0.849,0.993c-0.105,0.221,0.218,0.431,0.324,0.208c0.178-0.372,0.436-0.669,0.745-0.878
													c0.103-0.07,0.119-0.215,0.029-0.301C294.364,457.649,294.363,457.648,294.362,457.647z"/>
											</g>
										</g>
									</g>
								</g>
								<g>
									<g>
										<g>
											<g>
												<path style="fill:#407BFF;" d="M293.181,457.029c-0.067-0.064-0.169-0.071-0.246-0.019
													c-0.353,0.238-0.649,0.574-0.849,0.993c-0.105,0.221,0.218,0.431,0.324,0.208c0.177-0.372,0.436-0.669,0.745-0.878
													c0.103-0.07,0.119-0.215,0.03-0.301C293.183,457.031,293.182,457.03,293.181,457.029z"/>
											</g>
										</g>
									</g>
								</g>
							</g>
						</g>
					</g>
				</g>
			</g>
		</g>
		<g>
			<g>
				<g>
					<g>
						<polygon style="fill:#FDBBB5;" points="202.454,438.254 198.137,459.4 204.867,460.595 215.489,443.09 						"/>
					</g>
				</g>
			</g>
			<g>
				<g>
					<g>
						<g>
							<g>
								<g>
									<g>
										<g>
											<g>
												<g>
													<g>
														<path style="fill:#263238;" d="M198.349,469.233l5.897-0.044c0,0,1.187-0.643,1.888-0.564
															c0.699,0.08,3.13,0.525,3.13,0.525l15.66-0.118c-0.13-0.656-0.289-1.239-0.469-1.756
															c-0.219-0.63-0.473-1.164-0.753-1.614c-0.982-1.576-2.31-2.129-3.75-2.209c-2.194-0.121-9.129-4.675-9.129-4.675
															s-2.51-0.857-2.666-3.521c-0.059-0.999-1.543-2.207-2.246-2.302c-1.434-0.196-2.223,0.717-2.421,2.15l-0.228,1.665
															l-2.481-0.586c0,0-1.518-2.003-2.644,0.595c-0.375,0.866-0.69,4.592-0.311,7.906c0.089,0.773,0.172,1.504,0.245,2.145
															l0.002,0.001C198.236,468.254,198.349,469.233,198.349,469.233z"/>
													</g>
												</g>
											</g>
										</g>
									</g>
								</g>
								<g style="opacity:0.2;">
									<path style="fill:#FFFFFF;" d="M224.924,469.032l-15.659,0.118c0,0-2.432-0.445-3.13-0.525
										c-0.701-0.079-1.888,0.564-1.888,0.564l-5.897,0.044c0,0-0.113-0.978-0.276-2.402l26.382,0.445
										C224.635,467.793,224.794,468.376,224.924,469.032z"/>
								</g>
								<g>
									<g>
										<g>
											<g>
												<path style="fill:#407BFF;" d="M214.271,460.461c-0.073-0.071-0.185-0.077-0.27-0.02
													c-0.386,0.261-0.709,0.627-0.928,1.085c-0.115,0.242,0.238,0.471,0.354,0.227c0.194-0.407,0.477-0.731,0.814-0.96
													c0.113-0.076,0.13-0.235,0.032-0.329C214.273,460.463,214.272,460.462,214.271,460.461z"/>
											</g>
										</g>
									</g>
								</g>
								<g>
									<g>
										<g>
											<g>
												<path style="fill:#407BFF;" d="M213.02,459.737c-0.073-0.071-0.185-0.077-0.269-0.021
													c-0.386,0.261-0.71,0.627-0.928,1.085c-0.115,0.241,0.238,0.471,0.354,0.227c0.194-0.407,0.477-0.731,0.814-0.96
													c0.113-0.076,0.13-0.235,0.032-0.329C213.022,459.739,213.021,459.738,213.02,459.737z"/>
											</g>
										</g>
									</g>
								</g>
								<g>
									<g>
										<g>
											<g>
												<path style="fill:#407BFF;" d="M211.73,459.062c-0.073-0.071-0.185-0.077-0.269-0.021
													c-0.386,0.261-0.71,0.627-0.928,1.085c-0.115,0.241,0.238,0.471,0.354,0.227c0.194-0.407,0.477-0.731,0.814-0.959
													c0.113-0.076,0.13-0.235,0.032-0.329C211.732,459.064,211.731,459.063,211.73,459.062z"/>
											</g>
										</g>
									</g>
								</g>
							</g>
						</g>
					</g>
				</g>
			</g>
		</g>
		<g id="freepik--character-1--inject-2">
			<path style="fill:#407BFF;" d="M206.587,311.385l40.282-11.877c8.999,19.647,37.36,84.767,45.367,151.882l-15.828,2.353
				c0,0-17.333-80.561-37.278-109.458c0,0,3.968,39.177,1.805,45.57c-1.781,5.258-30.296,66.019-30.296,66.019l-14.19-4.484
				c0,0,22.386-66.383,22.925-68.412l-9.929-47.517c-1.064-3.992-2.448-18.273-2.448-18.273S206.778,312.21,206.587,311.385z"/>
			<path style="opacity:0.2;enable-background:new    ;" d="M239.141,344.309c3.367,5.094,6.305,10.458,8.784,16.038
				c-2.749-15.464-11.27-30.439-11.27-30.439L239.141,344.309z"/>
			<g>
				<g>
					<path style="fill:#263238;" d="M197.555,447.288c1.92,0.7,3.859,1.351,5.804,1.975c3.143,1.007,6.354,2.039,9.628,2.516
						c0.472,0.069,0.676-0.654,0.199-0.723c-3.274-0.477-6.486-1.509-9.628-2.516c-1.946-0.624-3.884-1.275-5.804-1.975
						C197.3,446.4,197.104,447.124,197.555,447.288L197.555,447.288z"/>
				</g>
			</g>
			<g>
				<g>
					<path style="fill:#263238;" d="M275.296,449.385c5.389-1.157,10.831-2.038,16.31-2.634c0.475-0.052,0.48-0.802,0-0.75
						c-5.546,0.604-11.055,1.49-16.509,2.661C274.624,448.763,274.824,449.486,275.296,449.385L275.296,449.385z"/>
				</g>
			</g>
		</g>
		<g>
			<path style="fill:#FFFFFF;" d="M225.38,246.601c-4.012,0.782-18.901,4.304-34.366,11.464l14.718,47.441
				c0,0,0.818,8.416,1.541,16.378c9.566,0.933,18.883-0.2,26.929-2.783c7.351-2.359,13.642-5.928,18.095-10.234
				c-0.018-0.078-3.06-4.675-6.24-13.668c-5.604-15.848-9.692-34.085-15.948-48.028C229.95,246.828,225.78,246.523,225.38,246.601z"
				/>
			<polygon style="fill:#407BFF;" points="213.006,254.962 215.693,257.439 218.242,256.676 218.12,253.099 214.207,250.533 			"/>
			<polygon style="opacity:0.2;" points="215.693,257.439 226.619,312.908 236.093,319.15 237.841,309.607 217.587,257.312 			"/>
			<polygon style="fill:#407BFF;" points="215.693,257.439 228.633,312.337 236.093,319.15 238.687,309.402 218.239,256.606 			"/>
			<path style="opacity:0.2;" d="M207.259,255.796l5.561,2.342l1.806-6.559l4.595,3.318l-0.86-6.251c0,0-0.946,3.831-1.032,3.693
				c-0.086-0.138-2.9-1.695-2.9-1.695l-3.627,3.811c0,0-4.214-1.257-4.204-1.215C206.607,253.281,207.259,255.796,207.259,255.796z"
				/>
			<path style="fill:#FFFFFF;" d="M204.62,244.573l8.952,3.992l0.976-5.97l3.761,5.113l0.344,6.179l-4.445-3.354
				c0,0-1.769,6.411-1.997,6.583c-0.228,0.172-5.535-3.485-5.535-3.485C205.801,250.765,205.222,247.786,204.62,244.573z"/>
			<path style="fill:#407BFF;" d="M246.801,295.138c0,0-6.62-30.705-7.163-32.47c-1.704-5.542-6.084-14.827-7.53-17.24
				c0,0-7.848,0.241-12.499,0.178l-4.09-1.691c6.699,13.327,10.86,29.895,10.025,43.759c-5.815-9.872-20.636-40.972-20.636-40.972
				l-3.462,4.188c-3.841,1.812-6.387,3.079-8.076,3.961c-2.236-2.298-4.421-2.379-4.664-0.955l3.124,21.637l11.151,23.364
				c-0.137-0.53-0.182-0.592,0,0l4.052,39.246c0.759,2.546,21.979-2.151,28.406-4.429l-1.167-14.55l6.088,12.917
				c0,0,20.098-4.925,20.823-7.57C261.586,323.064,246.801,295.138,246.801,295.138z"/>
			<path style="opacity:0.4;enable-background:new    ;" d="M246.801,295.138c0,0-6.62-30.705-7.163-32.47
				c-1.704-5.542-6.084-14.827-7.53-17.24c0,0-7.848,0.241-12.499,0.178l-4.09-1.691c6.699,13.327,10.86,29.895,10.025,43.759
				c-5.815-9.872-20.636-40.972-20.636-40.972l-3.462,4.188c-3.841,1.812-6.387,3.079-8.076,3.961
				c-2.236-2.298-4.421-2.379-4.664-0.955l3.124,21.637l11.151,23.364c-0.137-0.53-0.182-0.592,0,0l4.052,39.246
				c0.759,2.546,21.979-2.151,28.406-4.429l-1.167-14.55l6.088,12.917c0,0,20.098-4.925,20.823-7.57
				C261.586,323.064,246.801,295.138,246.801,295.138z"/>
			<polygon style="opacity:0.2;enable-background:new    ;" points="204.928,246.764 201.496,251.099 204.883,271.076 
				211.287,272.94 209.648,277.06 227.298,294.598 226.202,290.385 			"/>
			<path style="opacity:0.2;enable-background:new    ;" d="M219.647,245.764l9.019,16.899l-2.609,4.737l3.228,3.319l-1.986,23.88
				l-1.096-4.213c0,0,0.053-18.426-4.464-30.606c-4.517-12.18-6.22-15.863-6.22-15.863L219.647,245.764z"/>
			
				<line style="opacity:0.2;fill:none;stroke:#000000;stroke-width:0.25;stroke-miterlimit:10;enable-background:new    ;" x1="227.206" y1="294.242" x2="234.196" y2="319.083"/>
		</g>
		<g>
			<path style="fill:#407BFF;" d="M268.379,255.034c-3.644-2.852-28.081-8.58-31.391-9.237c-2.425-0.481-9.798-0.294-9.798-0.294
				l3.51,9.63l5.047,7.188c0,0,23.126,2.06,23.351,2.06c0.224,0,6.113,23.496,6.113,23.496l10.299-1.949
				C275.509,285.929,272.023,257.886,268.379,255.034z"/>
			<path style="opacity:0.4;enable-background:new    ;" d="M268.379,255.034c-3.644-2.852-28.081-8.58-31.391-9.237
				c-2.425-0.481-9.798-0.294-9.798-0.294l3.51,9.63l5.047,7.188c0,0,23.126,2.06,23.351,2.06c0.224,0,6.113,23.496,6.113,23.496
				l10.299-1.949C275.509,285.929,272.023,257.886,268.379,255.034z"/>
			<g>
				<g>
					<path style="fill:#263238;" d="M264.429,284.936c3.592-0.325,7.179-0.711,10.771-1.036c0.477-0.043,0.481-0.793,0-0.75
						c-3.592,0.325-7.179,0.711-10.771,1.036C263.952,284.23,263.948,284.98,264.429,284.936L264.429,284.936z"/>
				</g>
			</g>
		</g>
		<g>
			<path style="fill:#FFB2A8;" d="M269.604,290.146l-0.911-2.927l5.791-1.096c1.561,3.461,1.841,9.781,2.462,13.516
				c0.385,2.435-2.958,5.987-2.958,5.987s-0.751,3.143-1.719,2.428c-0.969-0.714,0.261-5.09,0.141-6.017
				c-0.378-2.883-0.739-5.797-1.059-6.127c-0.32-0.33,0.49,3.605-0.55,4.714c-1.04,1.108-1.154-3.99-1.955-5.561
				C268.045,293.493,268.676,290.539,269.604,290.146z"/>
			<path style="opacity:0.2;enable-background:new    ;" d="M274.285,305.179c0.705-1.851,0.876-3.857,0.493-5.798
				c0-0.157-0.288-0.141-0.256,0c0.379,1.9,0.216,3.865-0.469,5.68c-0.056,0.149,0.176,0.251,0.232,0.102V305.179z"/>
			<path style="opacity:0.2;enable-background:new    ;" d="M275.515,300.292c0.152,0.989,0.074,1.999-0.231,2.954
				c-0.056,0.149,0.2,0.196,0.248,0.039c0.311-0.975,0.392-2.006,0.238-3.017c0-0.157-0.28-0.133-0.256,0V300.292z"/>
		</g>
		<g>
			<g>
				<path style="fill:#FFB2A8;" d="M165.534,215.4v2.275l-5.373-0.684l1.593-3.585c1.416-3.523,3.279-6.842,5.544-9.877
					c1.49-1.964,6.368-2.012,6.368-2.012s2.787-1.635,2.942-0.441c0.155,1.194-3.854,3.336-4.439,4.065
					c-1.818,2.269-3.302,3.951-3.318,4.411c-0.016,0.459,1.893-2.254,3.413-2.271c1.52-0.017-2.079,3.596-2.658,5.261
					C169.028,214.207,166.46,215.797,165.534,215.4z"/>
			</g>
			
				<path style="opacity:0.3;fill:none;stroke:#000000;stroke-width:0.25;stroke-linecap:round;stroke-linejoin:round;stroke-miterlimit:10;" d="
				M168.591,209.859c-0.001,0.001,0.075,2.239-0.49,3.612c-0.565,1.373-2.567,1.929-2.567,1.929"/>
			
				<path style="opacity:0.3;fill:none;stroke:#000000;stroke-width:0.25;stroke-linecap:round;stroke-linejoin:round;stroke-miterlimit:10;" d="
				M173.666,201.516c0,0,1.483,0.66,0,1.288c-1.483,0.628-3.933,1.57-3.933,1.57l-0.882,1.729"/>
		</g>
		<g>
			<path style="fill:#407BFF;" d="M153.849,249.523c2.592,4.114,24.725,18.451,27.765,20.275c2.227,1.336,13.027,7.289,13.027,7.289
				l-3.495-14.291l-2.44-8.9c0,0-22.139-10.244-22.361-10.324c-0.222-0.08,2.293-25.405,2.293-25.405l-10.876-1.728
				C157.763,216.44,151.258,245.41,153.849,249.523z"/>
			<path style="opacity:0.4;enable-background:new    ;" d="M153.849,249.523c2.592,4.114,24.725,18.451,27.765,20.275
				c2.227,1.336,13.027,7.289,13.027,7.289l-3.495-14.291l-2.44-8.9c0,0-22.139-10.244-22.361-10.324
				c-0.222-0.08,2.293-25.405,2.293-25.405l-10.876-1.728C157.763,216.44,151.258,245.41,153.849,249.523z"/>
		</g>
		<g>
			<g>
				<path style="fill:#263238;" d="M157.128,218.678c3.336,0.835,6.672,1.669,10.007,2.504c0.474,0.118,0.947,0.237,1.421,0.355
					c0.468,0.117,0.668-0.606,0.199-0.723c-3.303-0.827-6.607-1.653-9.91-2.48c-0.506-0.126-1.012-0.253-1.518-0.38
					C156.859,217.837,156.659,218.56,157.128,218.678L157.128,218.678z"/>
			</g>
		</g>
		<g>
			<g>
				<g>
					<path style="fill:#407BFF;" d="M210.461,356.87c1.382,6.77,2.742,13.552,4.311,20.282c0.109,0.47,0.833,0.271,0.723-0.199
						c-1.569-6.73-2.928-13.512-4.31-20.282C211.088,356.198,210.365,356.398,210.461,356.87L210.461,356.87z"/>
				</g>
			</g>
			
				<line style="fill:none;stroke:#407BFF;stroke-width:0.75;stroke-linecap:round;stroke-linejoin:round;stroke-miterlimit:10;" x1="209.117" y1="350.643" x2="209.91" y2="353.891"/>
		</g>
	</g>
	<g>
		<g>
			<path style="fill:#263238;" d="M251.958,142.666c0.834,18.775,1.742,37.551,3.118,56.296c1.311,17.859,3.081,35.682,5.482,53.429
				c1.453,10.735,3.133,21.438,5.009,32.107c0.083,0.474,0.806,0.273,0.723-0.199c-3.26-18.536-5.897-37.176-7.861-55.895
				c-1.867-17.786-3.144-35.628-4.14-53.482c-0.6-10.748-1.103-21.501-1.581-32.255
				C252.687,142.185,251.937,142.182,251.958,142.666L251.958,142.666z"/>
		</g>
	</g>
</g>
<g id="Speech_Bubble">
	<g>
		<path style="fill:#407BFF;" d="M258.026,182.555c-7.45-6.574-18.82-5.864-25.394,1.586c-6.574,7.45-5.864,18.82,1.586,25.394
			c0.076,0.067,0.157,0.121,0.234,0.186l0.593,5.678l4.782-2.516c6.782,2.533,14.71,0.818,19.785-4.934
			C266.186,200.499,265.476,189.13,258.026,182.555z"/>
		<g>
			<path style="fill:#FFFFFF;" d="M245.626,204.811c-0.653,0-1.198-0.211-1.636-0.633c-0.438-0.422-0.657-0.935-0.657-1.541
				c0-0.605,0.215-1.111,0.645-1.517c0.43-0.406,0.979-0.609,1.648-0.609c0.669,0,1.218,0.203,1.648,0.609
				c0.43,0.406,0.645,0.912,0.645,1.517c0,0.605-0.219,1.119-0.657,1.541C246.825,204.6,246.279,204.811,245.626,204.811z
				 M247.107,198.815h-2.962l-0.74-10.916h4.443L247.107,198.815z"/>
		</g>
		<path style="fill:none;stroke:#407BFF;stroke-width:0.5;stroke-linecap:round;stroke-linejoin:round;stroke-miterlimit:10;" d="
			M234.439,178.106c-5.232,2.616-8.97,8.01-9.581,13.828"/>
		<path style="fill:none;stroke:#407BFF;stroke-width:0.5;stroke-linecap:round;stroke-linejoin:round;stroke-miterlimit:10;" d="
			M224.672,194.611c-0.159,0.878-0.134,1.789,0.073,2.657"/>
	</g>
</g>
</svg>
