<svg xmlns="http://www.w3.org/2000/svg" xmlns:xlink="http://www.w3.org/1999/xlink" width="1080" zoomAndPan="magnify" viewBox="0 0 810 809.999993" height="1080" preserveAspectRatio="xMidYMid meet" version="1.0"><defs><clipPath id="d3ad86787d"><path d="M 67.5 67.5 L 742.5 67.5 L 742.5 742.5 L 67.5 742.5 Z M 67.5 67.5 " clip-rule="nonzero"/></clipPath><clipPath id="e416948275"><path d="M 152 538 L 658 538 L 658 742.5 L 152 742.5 Z M 152 538 " clip-rule="nonzero"/></clipPath></defs><g clip-path="url(#d3ad86787d)"><path fill="#ff66c4" d="M 742.324219 404.910156 C 742.359375 425.195312 740.574219 445.316406 736.957031 465.277344 C 733.339844 485.238281 727.957031 504.707031 720.804688 523.691406 C 717.105469 533.472656 712.976562 543.082031 708.46875 552.394531 C 708.257812 552.777344 708.089844 553.160156 707.875 553.5 C 707.578125 554.140625 707.238281 554.777344 706.980469 555.332031 C 701.65625 566.121094 695.742188 576.582031 689.25 586.714844 C 684.101562 594.710938 678.574219 602.578125 672.789062 610.148438 C 672.152344 610.957031 671.558594 611.765625 670.917969 612.570312 C 666.75 617.886719 662.414062 623.035156 657.992188 628.007812 L 657.90625 628.09375 C 657.480469 628.605469 656.925781 629.199219 656.460938 629.753906 C 653.609375 632.984375 650.675781 636.089844 647.65625 639.195312 L 647.402344 639.449219 C 645.191406 641.789062 642.894531 644.085938 640.597656 646.339844 C 638.769531 648.125 636.941406 649.867188 635.070312 651.613281 C 633.539062 653.101562 631.878906 654.589844 630.347656 655.949219 C 626.09375 659.863281 621.628906 663.605469 617.121094 667.304688 L 617.078125 667.304688 C 609.652344 673.335938 601.980469 679.039062 594.0625 684.414062 C 586.144531 689.785156 578.015625 694.8125 569.667969 699.492188 C 561.324219 704.171875 552.792969 708.484375 544.078125 712.4375 C 535.363281 716.386719 526.496094 719.957031 517.472656 723.148438 C 508.453125 726.339844 499.3125 729.140625 490.054688 731.546875 C 480.792969 733.957031 471.449219 735.96875 462.015625 737.578125 C 452.582031 739.1875 443.101562 740.394531 433.566406 741.191406 C 424.03125 741.992188 414.480469 742.382812 404.910156 742.363281 C 375.566406 742.375 346.703125 738.648438 318.324219 731.179688 C 310.582031 729.101562 302.921875 726.753906 295.34375 724.132812 C 287.765625 721.511719 280.289062 718.628906 272.917969 715.480469 C 265.542969 712.328125 258.292969 708.925781 251.160156 705.261719 C 244.027344 701.597656 237.03125 697.6875 230.175781 693.53125 C 223.320312 689.375 216.621094 684.980469 210.074219 680.347656 C 203.53125 675.71875 197.15625 670.859375 190.957031 665.777344 C 184.753906 660.695312 178.742188 655.402344 172.914062 649.894531 C 167.089844 644.386719 161.464844 638.679688 156.042969 632.773438 C 155.574219 632.175781 155.105469 631.710938 154.597656 631.15625 C 153.871094 630.390625 153.148438 629.625 152.46875 628.816406 C 151.234375 627.414062 150.046875 626.011719 148.8125 624.605469 C 138.703125 612.839844 129.445312 600.4375 121.042969 587.394531 C 120.898438 587.101562 120.710938 586.832031 120.488281 586.585938 C 120.433594 586.4375 120.363281 586.296875 120.277344 586.164062 C 117.9375 582.546875 115.683594 578.890625 113.515625 575.191406 C 109.347656 568.003906 105.390625 560.644531 101.777344 553.160156 C 99.226562 548.015625 96.800781 542.785156 94.546875 537.46875 C 92.589844 532.917969 90.761719 528.324219 89.019531 523.691406 C 81.882812 504.703125 76.507812 485.230469 72.890625 465.273438 C 69.273438 445.316406 67.476562 425.195312 67.5 404.910156 C 67.5 218.558594 218.558594 67.5 404.910156 67.5 C 579.570312 67.5 723.269531 200.226562 740.578125 370.292969 C 741.761719 381.804688 742.34375 393.34375 742.324219 404.910156 Z M 742.324219 404.910156 " fill-opacity="1" fill-rule="nonzero"/></g><g clip-path="url(#e416948275)"><path fill="#18b9cd" d="M 657.90625 628.09375 C 657.480469 628.605469 656.925781 629.199219 656.460938 629.753906 C 653.609375 632.984375 650.675781 636.089844 647.65625 639.195312 L 647.402344 639.449219 C 645.191406 641.789062 642.894531 644.085938 640.597656 646.339844 C 638.769531 648.125 636.941406 649.867188 635.070312 651.613281 C 633.539062 653.101562 631.878906 654.589844 630.347656 655.949219 C 626.09375 659.863281 621.628906 663.605469 617.121094 667.304688 L 617.078125 667.304688 C 609.652344 673.335938 601.980469 679.039062 594.0625 684.414062 C 586.144531 689.785156 578.015625 694.8125 569.667969 699.492188 C 561.324219 704.171875 552.792969 708.484375 544.078125 712.4375 C 535.363281 716.386719 526.496094 719.957031 517.472656 723.148438 C 508.453125 726.339844 499.3125 729.136719 490.054688 731.546875 C 480.792969 733.957031 471.449219 735.96875 462.015625 737.578125 C 452.582031 739.1875 443.101562 740.394531 433.566406 741.191406 C 424.03125 741.992188 414.480469 742.382812 404.910156 742.363281 C 375.566406 742.375 346.703125 738.648438 318.324219 731.179688 C 310.582031 729.101562 302.921875 726.753906 295.34375 724.132812 C 287.765625 721.511719 280.289062 718.628906 272.917969 715.480469 C 265.542969 712.328125 258.292969 708.925781 251.160156 705.261719 C 244.027344 701.597656 237.03125 697.6875 230.175781 693.53125 C 223.320312 689.375 216.621094 684.980469 210.074219 680.347656 C 203.53125 675.71875 197.15625 670.859375 190.957031 665.777344 C 184.753906 660.695312 178.742188 655.402344 172.914062 649.894531 C 167.089844 644.386719 161.464844 638.679688 156.042969 632.773438 C 155.574219 632.175781 155.105469 631.710938 154.597656 631.15625 C 153.871094 630.390625 153.148438 629.625 152.46875 628.816406 C 156.167969 624.054688 160.25 618.910156 164.292969 613.761719 C 166.523438 610.9375 168.921875 608.257812 171.484375 605.730469 C 174.046875 603.199219 176.757812 600.839844 179.613281 598.644531 C 182.464844 596.449219 185.445312 594.441406 188.550781 592.613281 C 191.652344 590.789062 194.859375 589.160156 198.164062 587.734375 C 201.46875 586.304688 204.851562 585.082031 208.304688 584.074219 C 211.761719 583.0625 215.269531 582.269531 218.824219 581.691406 C 222.375 581.113281 225.953125 580.757812 229.550781 580.625 C 233.148438 580.492188 236.742188 580.578125 240.332031 580.890625 L 266.699219 583.144531 L 266.910156 582.972656 L 320.539062 538.914062 L 336.953125 539.253906 L 481.546875 542.0625 L 498.003906 542.402344 L 553.925781 581.78125 L 554.097656 581.910156 L 560.304688 580.378906 C 562.1875 579.90625 564.085938 579.503906 565.996094 579.167969 C 567.910156 578.832031 569.828125 578.570312 571.761719 578.375 C 573.691406 578.179688 575.625 578.054688 577.566406 578 C 579.507812 577.945312 581.445312 577.957031 583.382812 578.042969 C 585.324219 578.128906 587.257812 578.285156 589.183594 578.511719 C 591.109375 578.738281 593.027344 579.035156 594.933594 579.398438 C 596.839844 579.765625 598.730469 580.199219 600.605469 580.703125 C 602.480469 581.203125 604.332031 581.773438 606.164062 582.410156 C 608 583.046875 609.804688 583.75 611.589844 584.519531 C 613.371094 585.289062 615.121094 586.117188 616.84375 587.015625 C 618.566406 587.910156 620.253906 588.867188 621.90625 589.882812 C 623.558594 590.902344 625.171875 591.976562 626.746094 593.113281 C 628.320312 594.246094 629.851562 595.4375 631.339844 596.683594 C 632.828125 597.929688 634.269531 599.226562 635.660156 600.578125 C 637.054688 601.929688 638.398438 603.328125 639.691406 604.777344 C 640.980469 606.222656 642.21875 607.71875 643.402344 609.253906 Z M 657.90625 628.09375 " fill-opacity="1" fill-rule="nonzero"/></g><path fill="#b84f43" d="M 538.753906 353.003906 C 538.757812 357.46875 538.503906 361.921875 537.988281 366.355469 C 537.996094 366.5 537.980469 366.640625 537.949219 366.78125 L 537.90625 367.164062 L 536.117188 378.265625 L 523.742188 455.410156 L 522.59375 462.554688 C 518.300781 480.710938 503.074219 496.40625 481.554688 506.613281 L 481.554688 559.855469 L 476.792969 666.214844 C 476.757812 666.949219 476.671875 667.671875 476.53125 668.390625 C 476.394531 669.109375 476.203125 669.816406 475.960938 670.507812 C 475.71875 671.199219 475.425781 671.867188 475.085938 672.515625 C 474.746094 673.164062 474.359375 673.785156 473.929688 674.375 C 473.496094 674.96875 473.023438 675.527344 472.511719 676.050781 C 472 676.570312 471.453125 677.054688 470.871094 677.5 C 470.285156 677.941406 469.675781 678.339844 469.03125 678.695312 C 468.390625 679.046875 467.726562 679.351562 467.042969 679.609375 C 466.355469 679.867188 465.65625 680.070312 464.941406 680.226562 C 464.222656 680.378906 463.5 680.480469 462.769531 680.53125 C 462.039062 680.578125 461.308594 680.574219 460.578125 680.515625 C 459.847656 680.457031 459.128906 680.347656 458.414062 680.183594 C 457.699219 680.019531 457 679.808594 456.320312 679.542969 C 455.636719 679.277344 454.976562 678.960938 454.339844 678.601562 C 453.703125 678.238281 453.097656 677.832031 452.519531 677.382812 C 451.941406 676.933594 451.398438 676.441406 450.894531 675.914062 L 336.964844 556.328125 L 336.964844 486.15625 C 334.132812 483.058594 331.679688 479.679688 329.613281 476.027344 C 327.546875 472.371094 325.914062 468.535156 324.714844 464.511719 L 324.671875 464.339844 L 320.71875 451.964844 C 320.277344 452.230469 319.824219 452.472656 319.355469 452.6875 C 303.027344 460.683594 280.273438 447.667969 268.535156 423.683594 C 256.84375 399.65625 260.628906 373.714844 277 365.761719 C 292.4375 358.191406 313.617188 369.417969 325.820312 390.9375 C 328.414062 379.625 330.667969 370.863281 331.390625 370.4375 C 380.085938 357.722656 420.316406 316.726562 435.03125 268.078125 C 450.636719 266.246094 466.160156 272.414062 479.726562 280.367188 C 496.398438 290.0625 511.496094 302.734375 522.59375 318.554688 C 529.152344 328.164062 534.511719 338.398438 538.671875 349.261719 C 538.753906 350.496094 538.753906 351.726562 538.753906 353.003906 Z M 538.753906 353.003906 " fill-opacity="1" fill-rule="nonzero"/><path fill="#242156" d="M 481.554688 506.613281 L 481.554688 526.640625 C 466.488281 531.773438 450.992188 534.296875 435.074219 534.210938 C 391.441406 534.210938 354.355469 515.710938 340.492188 489.8125 C 358.523438 507.378906 388.929688 518.945312 423.378906 518.945312 C 445.066406 518.945312 465.140625 514.394531 481.554688 506.613281 Z M 537.949219 366.78125 L 537.90625 367.164062 L 536.117188 378.265625 L 535.609375 381.367188 C 536.949219 378.535156 538.199219 375.660156 539.359375 372.75 C 540.519531 369.835938 541.585938 366.890625 542.5625 363.910156 C 543.539062 360.933594 544.417969 357.925781 545.203125 354.890625 C 545.992188 351.855469 546.683594 348.800781 547.277344 345.71875 C 547.871094 342.640625 548.367188 339.546875 548.769531 336.4375 C 549.167969 333.328125 549.46875 330.210938 549.675781 327.082031 C 549.878906 323.953125 549.984375 320.824219 549.992188 317.6875 C 550 314.550781 549.910156 311.421875 549.71875 308.292969 C 549.53125 305.160156 549.242188 302.042969 548.859375 298.929688 C 548.472656 295.820312 547.992188 292.722656 547.410156 289.640625 C 546.832031 286.5625 546.15625 283.5 545.386719 280.460938 C 544.613281 277.421875 543.746094 274.414062 542.785156 271.429688 C 541.824219 268.445312 540.773438 265.492188 539.625 262.574219 C 538.480469 259.65625 537.242188 256.777344 535.917969 253.9375 C 534.589844 251.097656 533.175781 248.300781 531.671875 245.550781 C 530.171875 242.796875 528.582031 240.097656 526.910156 237.445312 C 525.238281 234.792969 523.484375 232.195312 521.648438 229.652344 C 519.816406 227.113281 517.902344 224.628906 515.910156 222.207031 C 513.917969 219.789062 511.855469 217.429688 509.714844 215.136719 C 507.578125 212.847656 505.367188 210.625 503.089844 208.472656 C 500.8125 206.316406 498.464844 204.238281 496.058594 202.230469 C 493.648438 200.226562 491.179688 198.296875 488.648438 196.445312 C 486.117188 194.597656 483.53125 192.824219 480.890625 191.136719 C 478.25 189.449219 475.558594 187.84375 472.816406 186.324219 C 470.074219 184.804688 467.285156 183.375 464.453125 182.03125 C 461.621094 180.683594 458.75 179.429688 455.839844 178.265625 C 452.929688 177.101562 449.984375 176.03125 447.003906 175.050781 C 444.027344 174.074219 441.019531 173.1875 437.988281 172.398438 C 434.953125 171.605469 431.898438 170.914062 428.820312 170.3125 C 425.742188 169.714844 422.648438 169.214844 419.542969 168.808594 C 416.433594 168.40625 413.3125 168.097656 410.1875 167.890625 C 407.058594 167.683594 403.925781 167.570312 400.792969 167.558594 C 397.65625 167.546875 394.523438 167.636719 391.394531 167.820312 C 388.265625 168.003906 385.144531 168.289062 382.03125 168.667969 C 378.921875 169.050781 375.824219 169.527344 372.742188 170.101562 C 369.660156 170.679688 366.597656 171.351562 363.558594 172.117188 C 360.519531 172.886719 357.507812 173.746094 354.523438 174.703125 C 351.535156 175.660156 348.585938 176.710938 345.664062 177.851562 C 342.746094 178.996094 339.863281 180.226562 337.023438 181.550781 C 334.179688 182.875 331.382812 184.285156 328.628906 185.78125 C 325.875 187.28125 323.171875 188.867188 320.515625 190.535156 C 317.863281 192.203125 315.265625 193.953125 312.71875 195.785156 C 310.175781 197.617188 307.691406 199.527344 305.265625 201.515625 C 302.84375 203.503906 300.484375 205.5625 298.1875 207.699219 C 295.894531 209.835938 293.667969 212.042969 291.511719 214.316406 C 289.355469 216.59375 287.273438 218.933594 285.265625 221.339844 C 283.253906 223.746094 281.324219 226.214844 279.46875 228.742188 C 277.613281 231.269531 275.839844 233.855469 274.148438 236.492188 C 272.457031 239.132812 270.847656 241.820312 269.328125 244.5625 C 267.804688 247.300781 266.367188 250.085938 265.019531 252.917969 C 263.671875 255.75 262.414062 258.617188 261.246094 261.527344 C 260.078125 264.4375 259 267.378906 258.019531 270.355469 C 257.035156 273.332031 256.144531 276.339844 255.351562 279.371094 C 254.558594 282.402344 253.859375 285.457031 253.257812 288.535156 C 252.652344 291.613281 252.148438 294.703125 251.738281 297.8125 C 251.332031 300.921875 251.019531 304.039062 250.808594 307.167969 C 250.59375 310.292969 250.480469 313.425781 250.464844 316.5625 C 250.449219 319.695312 250.53125 322.828125 250.710938 325.957031 C 250.894531 329.085938 251.171875 332.207031 251.546875 335.320312 C 251.925781 338.433594 252.398438 341.53125 252.96875 344.613281 C 253.542969 347.695312 254.207031 350.757812 254.972656 353.796875 C 255.734375 356.839844 256.59375 359.851562 257.546875 362.839844 C 258.5 365.824219 259.542969 368.78125 260.683594 371.699219 C 261.820312 374.621094 263.050781 377.503906 264.371094 380.347656 C 264.910156 378.785156 265.589844 377.289062 266.417969 375.859375 C 267.242188 374.425781 268.195312 373.085938 269.277344 371.835938 C 270.359375 370.585938 271.550781 369.453125 272.847656 368.429688 C 274.148438 367.40625 275.53125 366.519531 277 365.761719 C 292.4375 358.191406 313.617188 369.417969 325.820312 390.9375 C 328.414062 379.625 330.667969 370.863281 331.390625 370.441406 C 380.085938 357.722656 420.316406 316.726562 435.03125 268.078125 C 450.640625 266.246094 466.160156 272.414062 479.726562 280.367188 C 496.398438 290.0625 511.496094 302.734375 522.59375 318.554688 C 529.152344 328.164062 534.511719 338.398438 538.671875 349.261719 C 538.753906 350.496094 538.753906 351.726562 538.753906 353.003906 C 538.757812 357.46875 538.503906 361.921875 537.988281 366.355469 C 537.996094 366.5 537.980469 366.640625 537.949219 366.78125 Z M 456.039062 361.464844 C 455.953125 361.144531 455.808594 360.847656 455.609375 360.578125 C 455.410156 360.308594 455.167969 360.082031 454.882812 359.902344 C 454.601562 359.722656 454.292969 359.601562 453.964844 359.535156 C 453.636719 359.472656 453.304688 359.46875 452.976562 359.527344 C 452.644531 359.585938 452.335938 359.703125 452.050781 359.875 C 451.765625 360.050781 451.519531 360.269531 451.3125 360.535156 C 451.109375 360.800781 450.960938 361.097656 450.867188 361.417969 C 450.769531 361.738281 450.738281 362.066406 450.765625 362.402344 L 455.539062 424.234375 C 455.570312 424.648438 455.558594 425.0625 455.503906 425.476562 C 455.453125 425.890625 455.355469 426.292969 455.21875 426.6875 C 455.082031 427.078125 454.90625 427.453125 454.691406 427.8125 C 454.476562 428.167969 454.230469 428.5 453.945312 428.804688 C 453.664062 429.109375 453.351562 429.382812 453.011719 429.625 C 452.671875 429.867188 452.3125 430.070312 451.933594 430.238281 C 451.550781 430.402344 451.15625 430.53125 450.746094 430.617188 C 450.339844 430.699219 449.929688 430.742188 449.511719 430.742188 L 439.285156 430.742188 C 438.855469 430.742188 438.433594 430.800781 438.019531 430.925781 C 437.609375 431.050781 437.226562 431.234375 436.867188 431.472656 C 436.511719 431.714844 436.199219 432 435.929688 432.335938 C 435.660156 432.671875 435.445312 433.039062 435.285156 433.441406 C 435.128906 433.839844 435.03125 434.253906 435 434.683594 C 434.964844 435.113281 434.996094 435.535156 435.089844 435.957031 C 435.1875 436.375 435.339844 436.769531 435.554688 437.144531 C 435.769531 437.515625 436.035156 437.851562 436.347656 438.144531 L 448 449.03125 C 448.257812 449.265625 448.535156 449.472656 448.828125 449.65625 C 449.125 449.835938 449.433594 449.992188 449.757812 450.117188 C 450.082031 450.242188 450.414062 450.335938 450.753906 450.402344 C 451.09375 450.464844 451.441406 450.496094 451.785156 450.496094 C 452.132812 450.496094 452.476562 450.464844 452.820312 450.402344 C 453.160156 450.335938 453.492188 450.242188 453.816406 450.117188 C 454.140625 449.992188 454.449219 449.835938 454.746094 449.65625 C 455.039062 449.472656 455.316406 449.265625 455.570312 449.03125 L 471.835938 433.859375 C 472.339844 433.390625 472.773438 432.859375 473.128906 432.273438 C 473.488281 431.683594 473.761719 431.058594 473.949219 430.394531 C 474.136719 429.734375 474.230469 429.058594 474.234375 428.371094 C 474.234375 427.679688 474.144531 427.003906 473.960938 426.339844 Z M 404.140625 386.792969 C 407.941406 386.792969 411.023438 381.554688 411.023438 375.097656 C 411.023438 368.636719 407.941406 363.402344 404.140625 363.402344 C 400.335938 363.402344 397.253906 368.636719 397.253906 375.097656 C 397.253906 381.554688 400.335938 386.792969 404.140625 386.792969 Z M 488.441406 386.792969 C 492.246094 386.792969 495.328125 381.554688 495.328125 375.097656 C 495.328125 368.636719 492.246094 363.402344 488.441406 363.402344 C 484.640625 363.402344 481.554688 368.636719 481.554688 375.097656 C 481.554688 381.554688 484.640625 386.792969 488.441406 386.792969 Z M 336.964844 526.023438 L 320.527344 538.902344 L 336.964844 556.328125 Z M 481.554688 559.820312 L 497.992188 542.398438 L 481.554688 529.519531 Z M 428.40625 137.425781 C 428.242188 136.734375 428.046875 136.050781 427.820312 135.378906 C 427.589844 134.703125 427.328125 134.042969 427.035156 133.398438 C 426.738281 132.75 426.414062 132.117188 426.058594 131.503906 C 425.703125 130.886719 425.316406 130.289062 424.902344 129.710938 C 424.484375 129.132812 424.042969 128.578125 423.574219 128.042969 C 423.105469 127.511719 422.609375 127 422.089844 126.515625 C 421.570312 126.03125 421.027344 125.570312 420.464844 125.136719 C 419.898438 124.707031 419.3125 124.300781 418.707031 123.929688 C 418.105469 123.554688 417.484375 123.207031 416.84375 122.894531 C 416.207031 122.582031 415.554688 122.300781 414.886719 122.050781 C 414.222656 121.800781 413.546875 121.585938 412.859375 121.402344 C 412.171875 121.21875 411.476562 121.070312 410.773438 120.953125 C 410.074219 120.839844 409.367188 120.757812 408.65625 120.714844 C 407.945312 120.667969 407.238281 120.660156 406.527344 120.683594 C 405.816406 120.707031 405.105469 120.765625 404.402344 120.859375 C 403.695312 120.953125 403 121.082031 402.304688 121.246094 L 374.578125 127.761719 L 340.730469 135.6875 L 320.023438 140.539062 C 319.332031 140.703125 318.648438 140.898438 317.972656 141.128906 C 317.300781 141.359375 316.640625 141.621094 315.992188 141.914062 C 315.34375 142.210938 314.714844 142.535156 314.097656 142.890625 C 313.480469 143.25 312.886719 143.632812 312.308594 144.050781 C 311.730469 144.464844 311.171875 144.90625 310.640625 145.378906 C 310.105469 145.847656 309.59375 146.34375 309.109375 146.863281 C 308.621094 147.382812 308.164062 147.925781 307.730469 148.492188 C 307.300781 149.054688 306.894531 149.640625 306.519531 150.246094 C 306.144531 150.851562 305.800781 151.472656 305.488281 152.109375 C 305.171875 152.75 304.890625 153.402344 304.640625 154.066406 C 304.390625 154.734375 304.175781 155.410156 303.992188 156.097656 C 303.808594 156.785156 303.660156 157.480469 303.542969 158.183594 C 303.429688 158.886719 303.347656 159.59375 303.304688 160.300781 C 303.257812 161.011719 303.246094 161.722656 303.269531 162.433594 C 303.296875 163.144531 303.355469 163.855469 303.449219 164.558594 C 303.542969 165.265625 303.667969 165.964844 303.832031 166.65625 C 303.996094 167.347656 304.191406 168.03125 304.417969 168.707031 C 304.648438 169.378906 304.910156 170.039062 305.207031 170.6875 C 305.5 171.335938 305.824219 171.96875 306.183594 172.582031 C 306.539062 173.199219 306.925781 173.796875 307.339844 174.375 C 307.753906 174.953125 308.195312 175.507812 308.667969 176.042969 C 309.136719 176.578125 309.632812 177.085938 310.152344 177.574219 C 310.671875 178.058594 311.214844 178.519531 311.777344 178.953125 C 312.34375 179.382812 312.929688 179.789062 313.53125 180.164062 C 314.136719 180.539062 314.757812 180.882812 315.398438 181.195312 C 316.035156 181.511719 316.6875 181.792969 317.355469 182.042969 C 318.019531 182.292969 318.699219 182.511719 319.386719 182.695312 C 320.074219 182.878906 320.769531 183.027344 321.46875 183.140625 C 322.171875 183.257812 322.878906 183.339844 323.589844 183.382812 C 324.296875 183.429688 325.007812 183.441406 325.71875 183.417969 C 326.429688 183.394531 327.140625 183.335938 327.84375 183.242188 C 328.550781 183.148438 329.25 183.019531 329.941406 182.855469 L 350.722656 177.96875 L 383.011719 170.40625 L 412.226562 163.527344 C 413.40625 163.246094 414.558594 162.871094 415.679688 162.398438 C 416.796875 161.925781 417.871094 161.363281 418.894531 160.710938 C 419.921875 160.058594 420.886719 159.328125 421.789062 158.511719 C 422.691406 157.699219 423.519531 156.816406 424.273438 155.863281 C 425.027344 154.914062 425.699219 153.90625 426.285156 152.839844 C 426.871094 151.773438 427.363281 150.667969 427.765625 149.523438 C 428.167969 148.375 428.46875 147.203125 428.675781 146.003906 C 428.878906 144.808594 428.984375 143.601562 428.984375 142.386719 C 428.988281 140.710938 428.792969 139.058594 428.40625 137.425781 Z M 283.285156 376.671875 C 282.441406 376.890625 281.617188 377.175781 280.8125 377.523438 C 280.007812 377.867188 279.238281 378.277344 278.5 378.742188 C 277.757812 379.210938 277.058594 379.730469 276.398438 380.304688 C 275.742188 380.878906 275.128906 381.503906 274.566406 382.171875 C 274.003906 382.84375 273.496094 383.550781 273.042969 384.300781 C 272.589844 385.046875 272.199219 385.828125 271.867188 386.636719 C 271.535156 387.445312 271.265625 388.277344 271.0625 389.125 C 270.859375 389.976562 270.722656 390.839844 270.652344 391.710938 C 275.5625 387.597656 281.121094 384.746094 287.328125 383.15625 C 291.613281 381.980469 295.976562 381.445312 300.421875 381.5625 C 299.359375 380.402344 298.15625 379.410156 296.820312 378.585938 C 295.480469 377.757812 294.054688 377.128906 292.542969 376.699219 C 291.03125 376.265625 289.488281 376.046875 287.917969 376.042969 C 286.34375 376.039062 284.800781 376.25 283.285156 376.671875 Z M 283.285156 376.671875 " fill-opacity="1" fill-rule="nonzero"/><path fill="#fcc00a" d="M 325.011719 448.730469 C 322.441406 444.773438 319.1875 441.488281 315.253906 438.878906 C 314.613281 438.460938 313.914062 438.238281 313.148438 438.207031 C 312.386719 438.175781 311.667969 438.34375 310.996094 438.707031 C 310.324219 439.070312 309.792969 439.578125 309.402344 440.234375 C 309.007812 440.890625 308.8125 441.601562 308.808594 442.363281 C 308.828125 443.082031 309.011719 443.753906 309.363281 444.378906 C 309.71875 445.003906 310.195312 445.511719 310.804688 445.894531 C 313.6875 447.867188 316.042969 450.34375 317.867188 453.324219 C 319.035156 455.277344 320.007812 457.324219 320.785156 459.464844 C 321.5625 461.601562 322.128906 463.796875 322.484375 466.042969 C 322.84375 468.289062 322.984375 470.550781 322.90625 472.824219 C 322.832031 475.097656 322.542969 477.34375 322.035156 479.5625 C 318.464844 497.128906 304.132812 508.992188 290.011719 506.101562 C 275.9375 503.253906 267.429688 486.667969 271.003906 469.144531 C 273.128906 458.855469 278.914062 450.5625 286.144531 446.011719 C 284.167969 444.46875 282.324219 442.785156 280.613281 440.949219 C 270.917969 448.09375 263.433594 460.386719 260.882812 475.226562 C 256.5 501.039062 268.878906 524.6875 288.523438 528.046875 C 308.214844 531.40625 327.734375 513.246094 332.15625 487.433594 C 334.667969 472.675781 331.734375 458.683594 325.011719 448.730469 Z M 546.238281 472.546875 C 542.835938 458.980469 535.308594 447.882812 526.039062 441.203125 L 524.382812 451.367188 C 526.765625 453.882812 528.761719 456.671875 530.367188 459.746094 C 531.972656 462.816406 533.121094 466.050781 533.820312 469.441406 C 537.605469 486.964844 529.273438 503.59375 515.195312 506.613281 C 507.539062 508.269531 499.757812 505.546875 493.632812 499.851562 C 490.085938 502.152344 486.414062 504.238281 482.621094 506.101562 C 492.019531 522.007812 507.796875 531.023438 522.636719 527.324219 C 542.03125 522.433594 552.578125 497.980469 546.238281 472.546875 Z M 383.011719 170.40625 L 350.722656 177.96875 C 347.730469 173.839844 345.335938 169.386719 343.539062 164.617188 C 341.738281 159.84375 340.597656 154.917969 340.113281 149.84375 C 339.683594 145.097656 339.886719 140.378906 340.730469 135.6875 L 374.578125 127.761719 C 368.308594 135.96875 372.40625 158.453125 383.011719 170.40625 Z M 454.582031 678.746094 L 454.582031 678.785156 L 266.910156 582.972656 L 320.539062 538.914062 L 336.953125 556.308594 L 450.882812 675.894531 C 451.960938 677.046875 453.195312 677.996094 454.582031 678.746094 Z M 553.925781 581.78125 L 474.359375 673.8125 C 475.875 671.5 476.683594 668.960938 476.78125 666.199219 L 481.546875 559.839844 L 498.003906 542.402344 Z M 553.925781 581.78125 " fill-opacity="1" fill-rule="nonzero"/></svg>