<?xml version="1.0" encoding="utf-8"?>
<!-- Generator: Adobe Illustrator 27.5.0, SVG Export Plug-In . SVG Version: 6.00 Build 0)  -->
<svg version="1.1" xmlns="http://www.w3.org/2000/svg" xmlns:xlink="http://www.w3.org/1999/xlink" x="0px" y="0px"
	 viewBox="0 0 500 500" style="enable-background:new 0 0 500 500;" xml:space="preserve">
<g id="BACKGROUND">
	<rect style="fill:#F2E4CE;" width="500" height="500"/>
</g>
<g id="OBJECTS">
	<g>
		<path style="fill:#EAD3B5;" d="M452.499,290.194c-19.147-23.95-45.546-23.025-73.049-27.891
			c-13.29-2.351-26.393-7.355-36.518-16.28c-10.124-8.925-16.946-22.118-16.263-35.597c0.803-15.848,11.413-29.503,23.164-40.166
			c11.751-10.663,25.223-19.658,34.911-32.226c13.322-17.282,18.021-41.982,8.362-61.548c-9.667-19.582-31.377-30.66-52.884-34.446
			c-17.986-3.167-36.061-2.002-53.076,2.771c-37.474,10.511-64.323,37.098-82.215,70.761
			c-10.804,20.326-20.657,40.567-36.498,57.578c-22.693,24.368-50.011,38.911-78.681,54.777
			c-20.184,11.171-51.629,29.498-46.257,57.174c3.009,15.504,17.25,26.557,31.969,30.151c36.695,8.96,66.582-16.186,103.422-12.1
			c8.63,0.957,17.198,2.97,25.07,6.632c8.993,4.182,16.858,10.395,24.719,16.441c25.672,19.745,52.47,38.425,82.07,51.567
			c32.945,14.627,71.299,23.039,107.078,14.64C459.658,382.61,479.134,323.512,452.499,290.194z"/>
		<path style="fill:#FFFFFF;" d="M114.025,242.27c-0.198-1.777-0.742-3.653-2.147-4.759c-1.203-0.948-2.827-1.16-4.359-1.133
			c-5.81,0.101-11.471,3.34-14.503,8.296c2.144-3.291,3.813-7.02,3.956-10.946c0.144-3.925-1.454-8.059-4.714-10.249
			c-3.897-2.617-9.146-1.968-13.545-0.33c-10.697,3.984-18.748,12.792-26.357,21.301c0.061-3.605-3.571-6.441-7.168-6.676
			c-3.598-0.235-7.031,1.471-10.059,3.428c-5.247,3.391-15.478,14.476-19.288,19.428h89.277
			C110.297,255.827,114.796,249.194,114.025,242.27z"/>
		<path style="fill:#FFFFFF;" d="M423.122,63.542c-2.978-3.186-7.75-3.594-12.002-2.624c-3.62,0.826-6.548,2.656-10.128,5.686
			c-0.128-4.883-0.268-9.844-1.759-14.497c-1.491-4.652-4.545-9.036-9.028-10.978c-4.008-1.735-8.612-1.332-12.878-0.397
			c-14.827,3.249-34.736,22.022-42.6,35.005h90.526C426.923,71.709,426.1,66.728,423.122,63.542z"/>
	</g>
	<g>
		<g>
			<path style="fill:#3F372D;" d="M302.325,129.565c-0.518-8.687-10.972-8.78-17.28-7.013c-2.795,0.783-5.461,2.412-6.921,4.92
				c-1.918,3.296-1.018,6.976,1.688,9.469c4.727,4.356,13.743,6.489,19.023,1.898C301.476,136.541,302.529,132.987,302.325,129.565z
				"/>
			<path style="fill:#FFAC8E;" d="M302.35,123.201l-7.044,19.093l-8.859,4.321c0,0,23.681,16.123,29.985,12.546
				c6.304-3.578,16.696-11.074,16.696-11.074l-8.689-5.452l0.511-16.73"/>
			<path style="fill:#FFAC8E;" d="M301.628,104.81c-0.446,3.353-0.218,6.838,0.394,9.801c2.155,10.435,10.974,19.15,21.666,20.594
				c3.401,0.459,7.061-0.226,9.779-2.423c4.454-3.6,2.995-10.347,2.806-16.163c-0.127-3.884-0.667-8.748-1.902-12.628
				c-1.105-3.473-2.792-7.475-5.196-10.296c-2.227-2.615-5.867-3.678-9.3-3.559c-4.081,0.141-8.398,1.122-11.913,3.333
				C304.102,95.897,302.237,100.231,301.628,104.81z"/>
			<path style="fill:#3F372D;" d="M334.245,103.591c-4.143-9.047-14.806-8.973-14.806-8.973c-1.153,2.899-3.189,7.603-4.845,10.247
				c-1.754,2.8-3.961,7.872-6.848,9.478c-1.648,0.917-7.422,14.351-7.422,14.351l-2.23-3.088c-5.054-3.231-6.907-6.098-7.893-9.864
				c-1.409-5.381,0.592-15.39,4.247-20.709c6.946-10.108,20.394-8.227,20.394-8.227s4.94-1.672,10.843-1.219
				c6.497,0.498,10.323,3.681,11.085,9.095C337.566,100.353,334.245,103.591,334.245,103.591z"/>
			<path style="fill:none;stroke:#000000;stroke-linejoin:round;stroke-miterlimit:10;" d="M309.435,129.183
				c4.292,3.49,9.617,5.693,15.12,6.256"/>
			<path style="fill:none;stroke:#C4735B;stroke-linejoin:round;stroke-miterlimit:10;" d="M326.905,111.269
				c0.813,2.612,2.207,5.042,4.052,7.062c0.839,0.919-0.059,2.083-1.014,2.548c-0.732,0.356-1.564,0.434-2.375,0.506"/>
			<path style="fill:none;stroke:#000000;stroke-linejoin:round;stroke-miterlimit:10;" d="M322.609,123.04
				c0.526,0.446,1.064,0.899,1.705,1.155c0.414,0.166,0.858,0.243,1.301,0.296c1.252,0.151,2.518,0.117,3.778,0.083"/>
			<g>
				
					<line style="fill:none;stroke:#000000;stroke-width:1.5;stroke-linejoin:round;stroke-miterlimit:10;" x1="329.097" y1="110.662" x2="324.395" y2="111.17"/>
				
					<line style="fill:none;stroke:#000000;stroke-width:1.5;stroke-linejoin:round;stroke-miterlimit:10;" x1="314.116" y1="111.534" x2="304.462" y2="115.652"/>
				<path d="M313.511,109.887l10.157-1.097c0.406-0.044,0.777,0.261,0.832,0.688c0.209,1.622,0.555,5.351-0.489,6.553
					c-1.348,1.553-5.611,1.286-7.666,0.156c-1.569-0.862-3.098-3.679-3.472-5.36C312.772,110.371,313.07,109.935,313.511,109.887z"
					/>
				<g>
					<defs>
						<path id="SVGID_1_" d="M313.511,109.887l10.157-1.097c0.406-0.044,0.777,0.261,0.832,0.688
							c0.209,1.622,0.555,5.351-0.489,6.553c-1.348,1.553-5.611,1.286-7.666,0.156c-1.569-0.862-3.098-3.679-3.472-5.36
							C312.772,110.371,313.07,109.935,313.511,109.887z"/>
					</defs>
					<clipPath id="SVGID_00000119089340363734728580000017244689181356976276_">
						<use xlink:href="#SVGID_1_"  style="overflow:visible;"/>
					</clipPath>
					<path style="clip-path:url(#SVGID_00000119089340363734728580000017244689181356976276_);fill:#6B6B6B;" d="M316.451,121.984
						l-1.678-0.948l7.127-14.339l1.677,0.948L316.451,121.984z M320.325,106.331l-0.84-0.474l-7.126,14.339l0.839,0.474
						L320.325,106.331z"/>
				</g>
				<path d="M328.705,108.229l8.089-0.694c0.324-0.028,0.632,0.289,0.693,0.715c0.23,1.618-0.542,5.016-1.33,6.169
					c-1.019,1.489-3.659,2.182-5.349,0.981c-1.289-0.917-2.212-4.579-2.577-6.262C328.131,108.68,328.353,108.259,328.705,108.229z"
					/>
				<g>
					<defs>
						<path id="SVGID_00000180348384861650833010000009379040529843654292_" d="M328.705,108.229l8.089-0.694
							c0.324-0.028,0.632,0.289,0.693,0.715c0.23,1.618-0.542,5.016-1.33,6.169c-1.019,1.489-3.659,2.182-5.349,0.981
							c-1.289-0.917-2.212-4.579-2.577-6.262C328.131,108.68,328.353,108.259,328.705,108.229z"/>
					</defs>
					<clipPath id="SVGID_00000126314401240530808920000008237552649474643633_">
						<use xlink:href="#SVGID_00000180348384861650833010000009379040529843654292_"  style="overflow:visible;"/>
					</clipPath>
					<path style="clip-path:url(#SVGID_00000126314401240530808920000008237552649474643633_);fill:#6B6B6B;" d="M331.527,120.348
						l-1.38-1.006l5.149-13.954l1.379,1.006L331.527,120.348z M334.021,104.964l-0.69-0.503l-5.148,13.954l0.69,0.503
						L334.021,104.964z"/>
				</g>
			</g>
			<g>
				<path style="fill:#FFAC8E;" d="M306.778,127.925c0.938-0.077,1.758-0.466,2.494-1.034c1.553-1.197,0.498-3.591,0.102-5.108
					c-0.761-2.913-0.734-7.687-4.281-8.756c-0.941-0.283-1.983-0.152-2.865,0.28c-0.882,0.433-1.607,1.152-2.124,1.987
					c-0.818,1.322-1.124,2.928-0.982,4.475c0.141,1.548,0.713,3.038,1.527,4.362c0.663,1.078,1.5,2.066,2.548,2.774
					C304.245,127.615,305.517,128.029,306.778,127.925z"/>
				<path style="fill:none;stroke:#000000;stroke-linejoin:round;stroke-miterlimit:10;" d="M302.238,118.404
					c2.773-0.604,7.23,3.686,7.23,3.686"/>
				<path style="fill:none;stroke:#000000;stroke-linejoin:round;stroke-miterlimit:10;" d="M308.895,116.62
					c-0.692-1.84-2.257-3.329-4.129-3.93"/>
				<path style="fill:none;stroke:#000000;stroke-linejoin:round;stroke-miterlimit:10;" d="M310.273,125.959
					c-0.25,1.068-1.341,1.736-2.41,1.982c-2.415,0.556-4.899-1.125-6.299-2.06"/>
			</g>
			<path d="M315.481,105.356c-1.249,0.23-3.862,1.507-3.862,1.507c1.962-0.323,4.762-0.417,6.029-0.218
				c1.248,0.196,5.794,1.13,5.794,1.13l0.243-1.334C323.685,106.44,318.28,104.841,315.481,105.356z"/>
			<path d="M332.966,104.814c0.803,0.269,2.533,1.622,2.533,1.622c-1.259-0.384-3.033-0.568-3.82-0.41
				c-0.775,0.155-3.587,0.937-3.587,0.937l-0.237-1.334C327.855,105.629,331.166,104.212,332.966,104.814z"/>
		</g>
		<g>
			<g>
				<path style="fill:#404049;" d="M416.743,461.805l-0.458,9.724h-15.79l1.394-31.493l30.446-5.249
					c2.369,6.644,5.639,14.72,9.39,18.51c4.198,4.243,11.467,8.897,14.509,10.497c3.625,1.907,6.7,2.26,7.703,3.116
					c1.002,0.856,2.002,3.172,2.158,4.619c0,0-28.679,0-30.625,0c-1.946,0-12.485-7.935-14.553-8.912L416.743,461.805z"/>
				
					<line style="fill:none;stroke:#000000;stroke-linejoin:round;stroke-miterlimit:10;" x1="400.98" y1="460.566" x2="416.743" y2="461.805"/>
			</g>
			<path style="fill:#14151C;" d="M340.174,221.323c0,0,5.536,17.928,7.31,20.318c1.774,2.39,39.996,50.886,49.079,64.511
				c9.083,13.625,11.423,21.791,16.739,42.197c4.727,18.147,22.604,92.552,22.604,92.552l-59.335,9.111l-13.133-113.838
				c0,0-39.162-49.594-44.838-56.287c-5.676-6.693-21.204-23.57-16.308-45.131"/>
			<path style="fill:none;stroke:#515466;stroke-miterlimit:10;" d="M400.788,343.997c-1.368,17.993-5.965,49.472-9.799,67.105"/>
			<path style="fill:none;stroke:#515466;stroke-miterlimit:10;" d="M389.428,353.755c-3.488,10.418-6.754,20.911-9.796,31.468"/>
			<g>
				<path style="fill:#404049;" d="M264.159,445.668l-3.453,9.463l-15.192-6.327l17.036-36.12l27.724,14.96
					c-0.275,7.082-0.234,15.848,1.918,20.85c2.409,5.599,6.871,8.943,9.872,11.944c2.999,3.001,5.578,4.771,6.213,5.963
					c0.635,1.192,0.707,3.73,0.301,5.128c0,0-27.247-7.768-29.12-8.548c-1.872-0.78-9.255-12.491-10.869-14.222L264.159,445.668z"/>
				
					<line style="fill:none;stroke:#000000;stroke-linejoin:round;stroke-miterlimit:10;" x1="250.32" y1="438.613" x2="264.159" y2="445.668"/>
			</g>
			<path style="fill:#14151C;" d="M327.182,246.171l-0.277,12.364c0,0,13.343,46.063,17.304,57.596s2.488,28.114-2.454,44.178
				c-4.943,16.064-23.767,83.301-23.767,83.301l-59.418-25.816l44.228-88.241c0,0-19.118-51.936-21.276-57.712
				c-4.99-13.359-5.064-25.882,1.938-40.302"/>
			<path style="fill:none;stroke:#515466;stroke-miterlimit:10;" d="M342.297,310.247c0,0-15.543-50.22-15.392-51.711
				c0.151-1.491,0.277-14.098,0.277-14.098"/>
			<path style="fill:none;stroke:#515466;stroke-miterlimit:10;" d="M363.994,336.555c1.445,2.329,3.201,4.464,5.206,6.332"/>
			<path style="fill:none;stroke:#515466;stroke-miterlimit:10;" d="M302.574,329.936c1.387,3.832,2.775,7.664,4.162,11.496"/>
			<path style="fill:none;stroke:#515466;stroke-miterlimit:10;" d="M304.255,382.062c10.283-12.12,20.009-24.713,29.137-37.726"/>
			<path style="fill:none;stroke:#515466;stroke-miterlimit:10;" d="M341.294,350.445c-3.461,6.767-6.656,13.67-9.577,20.688"/>
		</g>
		<g>
			<path style="fill:#FFFFFF;" d="M340.465,172.8c-0.926-7.177-3.731-22.456-3.731-22.456l-3.12-4.36l-9.864-4.367l-9.445,2.65
				l-20.983-2.719l-18.092,3.528c0,0,16.136,74.075,16.724,73.703c0.589-0.373,46.427,0.001,46.427,0.001L340.465,172.8z"/>
			<g>
				<polygon style="fill:#BF9E6F;" points="310.87,147.621 321.636,147.621 320.939,155.574 326.207,200.971 321.112,210.135 
					311.119,201.943 314.483,155.835 				"/>
				<line style="fill:none;stroke:#9B7053;stroke-miterlimit:10;" x1="314.483" y1="155.835" x2="320.939" y2="155.835"/>
			</g>
			<g>
				<path style="fill:#1A1A1A;" d="M360.697,110.563c-1.142-2.491-8.652-3.901-10.043-3.366c-1.391,0.536-8.141,13.004-7.843,14.377
					c0.298,1.373,0.7,2.608,0.7,2.608s-4.656,9.812-4.199,11.046c0.457,1.235,7.952,4.629,9.328,4.236
					C350.016,139.071,361.839,113.054,360.697,110.563z"/>
				<path style="fill:none;stroke:#544643;stroke-linejoin:round;stroke-miterlimit:10;" d="M345.806,138.41
					c1.13-0.342,11.611-24.076,10.684-26.208c-0.927-2.132-6.825-3.271-6.825-3.271"/>
				<path style="fill:#1A1A1A;" d="M359.339,113.022l-1.983-0.883l5.943-14.103c0.243-0.576,0.884-0.846,1.431-0.602l0,0
					c0.548,0.244,0.794,0.909,0.552,1.485L359.339,113.022z"/>
				<path style="fill:#1A1A1A;" d="M357.715,109.317l-2.567-1.143l0.813-1.928c0.18-0.428,0.656-0.628,1.062-0.447l1.096,0.488
					c0.406,0.181,0.59,0.674,0.409,1.102L357.715,109.317z"/>
				<path style="fill:#1A1A1A;" d="M353.964,109.002l-2.567-1.143l0.813-1.928c0.18-0.428,0.656-0.628,1.062-0.447l1.096,0.488
					c0.406,0.181,0.589,0.674,0.409,1.102L353.964,109.002z"/>
				
					<line style="fill:none;stroke:#544643;stroke-linejoin:round;stroke-miterlimit:10;" x1="345.691" y1="124.844" x2="348.536" y2="125.881"/>
				
					<line style="fill:none;stroke:#544643;stroke-linejoin:round;stroke-miterlimit:10;" x1="344.159" y1="128.198" x2="347.004" y2="129.235"/>
				
					<line style="fill:none;stroke:#544643;stroke-linejoin:round;stroke-miterlimit:10;" x1="342.627" y1="131.551" x2="345.472" y2="132.589"/>
			</g>
			<g>
				<path style="fill:#FFAC8E;" d="M369.451,157.1c-1.268-7.453-4.757-26.646-5.589-32.119c-0.446-2.933-4.716-8.112-7.893-8.866
					c-0.854-0.203-1.726-0.406-2.607-0.291c-0.85,0.111-1.835,1.807-2.365,2.385c-0.917,1.002-1.888,1.955-2.908,2.852
					c-0.389,0.342-0.816,0.9-0.499,1.31c0.051,0.066,0.118,0.12,0.154,0.195c0.085,0.177-0.035,0.38-0.153,0.537
					c-0.62,0.823-1.455,1.59-1.642,2.591c-0.201,1.083-0.407,1.967-1.034,2.908c-0.663,0.996-1.512,1.854-2.252,2.794
					c-0.134,0.171-0.268,0.35-0.327,0.559c-0.134,0.478,0.178,1,0.618,1.231c0.44,0.231,0.968,0.224,1.456,0.13
					c1.736-0.336,3.12-1.655,4.798-2.213c0.668-0.222,2.025-0.256,2.823,0.661c0.797,0.916,0.568,6.025-0.118,9.544
					c-0.114,0.584-0.265,1.166-0.281,1.761c-0.022,0.817,0.21,1.617,0.439,2.401c0.779,2.659,1.557,5.319,2.336,7.978"/>
				<path style="fill:none;stroke:#000000;stroke-linejoin:round;stroke-miterlimit:10;" d="M345.159,128.199
					c1.128-0.799,3.596-3.085,4.869-2.836c1.273,0.25,4.226,1.358,5.341,2.048"/>
				<path style="fill:none;stroke:#000000;stroke-linejoin:round;stroke-miterlimit:10;" d="M347.59,123.104
					c0.893-0.66,1.99-1.657,3.187-1.582c0.88,0.055,1.878,0.446,2.73,0.687c1.117,0.315,2.536,0.613,3.366,1.462"/>
				<path style="fill:none;stroke:#000000;stroke-linejoin:round;stroke-miterlimit:10;" d="M350.564,118.674
					c0.927-0.231,1.895-0.466,2.857-0.355c1.026,0.118,1.764,0.714,2.582,1.284c0.746,0.52,1.466,1.077,2.158,1.667"/>
			</g>
			<polyline style="fill:#FFFFFF;" points="348.904,156.893 347.957,149.31 367.37,142.973 372.243,163.476 			"/>
			<path style="fill:#14151C;" d="M275.452,148.636c0,1.259-1.015,27.775,1.299,36.776c2.315,9.001,9.578,25.895,9.578,28.209
				c0,2.314-7.777,26.99-7.777,26.99s32.768,13.245,34.643,12.327c1.875-0.918,13.987-24.566,13.987-24.566
				s9.98,21.188,11.266,20.159c1.286-1.029,7.758-12.607,7.758-12.607s-5.313-17.118-5.313-19.432s0.667-26.707,0.667-27.736
				s2.996-8.909,2.81-12.247c-0.514-9.258-6.587-27.733-6.587-27.733l-8.127-4.753l-8.67,36.761l-31.983-38.606L275.452,148.636z"/>
			<path style="fill:none;stroke:#515466;stroke-miterlimit:10;" d="M278.552,240.612c0,0,32.768,13.245,34.643,12.327
				c1.875-0.918,13.987-24.566,13.987-24.566s9.98,21.188,11.266,20.159c1.286-1.029,7.758-12.607,7.758-12.607"/>
			<path style="fill:#14151C;" d="M329.655,144.022c0,0,9.302,3.391,12.972,7.06c3.67,3.67,34.545,43.073,34.545,43.073
				l-18.164,16.156l-31.826-28.193"/>
			<path style="fill:#14151C;" d="M336.734,190.581c0,0,17.373,18.533,25.91,23.794c3.962,2.442,21.951,5.009,16.878-19.618
				c-4.432-21.517-11.189-48.377-11.189-48.377l-20.376,6.999l3.406,42.401"/>
			<polygon style="fill:#FFFFFF;" points="298.593,133.386 316.219,143.154 324.727,137.986 327.182,142.581 323.807,150.163 
				316.4,145.441 306.156,152.923 293.322,141.548 			"/>
			<polyline style="fill:none;stroke:#000000;stroke-linejoin:round;stroke-miterlimit:10;" points="327.182,142.581 
				323.807,150.163 316.4,145.441 306.156,152.923 293.322,141.548 			"/>
			<path style="fill:none;stroke:#515466;stroke-miterlimit:10;" d="M348.536,158.085c0,0,3.673,35.816,3.641,35.275"/>
			<path style="fill:none;stroke:#515466;stroke-miterlimit:10;" d="M341.381,194.784c0.48-2.599,0.959-5.199,1.439-7.798
				c1.549-8.399-0.971-17.288-3.538-25.362"/>
			<polyline style="fill:none;stroke:#515466;stroke-miterlimit:10;" points="320.985,180.783 324.494,186.049 330.348,223.127 
				327.182,228.372 			"/>
			<path style="fill:none;stroke:#515466;stroke-miterlimit:10;" d="M289.818,212.619c2.302,0,4.604,0,6.905,0"/>
			<path style="fill:none;stroke:#515466;stroke-miterlimit:10;" d="M289.94,215.09c2.945,1.209,5.97,2.221,9.05,3.026"/>
			<line style="fill:none;stroke:#515466;stroke-miterlimit:10;" x1="364.72" y1="147.621" x2="366.225" y2="155.126"/>
			<path style="fill:#515466;" d="M363.518,152.672c0,0.884-0.716,1.601-1.6,1.601c-0.884,0-1.6-0.717-1.6-1.601
				c0-0.884,0.717-1.601,1.6-1.601C362.801,151.072,363.518,151.788,363.518,152.672z"/>
			<g>
				<path style="fill:#FFAC8E;" d="M291.955,244.315c0,0,3.841,3.509,4.963,5.167c1.122,1.658,3.409,5.329,3.409,5.329
					l-15.391,9.274l-1.364-2.667l-8.342-9.022"/>
				<path style="fill:#FFFFFF;" d="M288.226,237.975c0.161,0.235,5.873,8.231,5.873,8.231s-11.818,15.392-11.982,15.212
					c-0.164-0.18-10.084-8.718-10.084-8.718"/>
				<path style="fill:#14151C;" d="M289.003,142.177c0,0-12.074,1.401-18.875,4.943c-10.351,5.391-13.236,16.061-19.837,25.363
					c-6.601,9.302-17.947,26.685-18.387,34.386c-0.44,7.701,5.281,16.917,16.079,26.275c8.055,6.981,31.324,27.118,31.324,27.118
					l12.648-17.759l-26.343-36.02l19.043-26.963"/>
				<line style="fill:none;stroke:#515466;stroke-miterlimit:10;" x1="282.118" y1="229.052" x2="292.242" y2="242.796"/>
				<path style="fill:none;stroke:#515466;stroke-miterlimit:10;" d="M265.419,206.096c-3.121-3.055-7.414-4.884-11.779-5.018"/>
				<path style="fill:none;stroke:#515466;stroke-miterlimit:10;" d="M254.257,195.001c2.925,0.835,5.685,2.245,8.076,4.126"/>
				<path style="fill:none;stroke:#515466;stroke-miterlimit:10;" d="M278.043,188.992c2.806-3.098,5.638-6.174,8.495-9.226"/>
				<circle style="fill:#515466;" cx="278.043" cy="253.212" r="1.6"/>
				<line style="fill:none;stroke:#515466;stroke-miterlimit:10;" x1="283.572" y1="253.638" x2="278.178" y2="247.302"/>
				<path style="fill:none;stroke:#515466;stroke-miterlimit:10;" d="M282.754,265.517c0,0,14.677-7.699,20.099-13.002"/>
			</g>
			<path style="fill:#515466;" d="M321.983,187.736c0,0.949-0.769,1.718-1.718,1.718c-0.949,0-1.718-0.769-1.718-1.718
				c0-0.949,0.769-1.718,1.718-1.718C321.214,186.018,321.983,186.787,321.983,187.736z"/>
			<path style="fill:#515466;" d="M324.79,202.938c0,0.949-0.769,1.718-1.718,1.718c-0.949,0-1.718-0.769-1.718-1.718
				c0-0.949,0.769-1.718,1.718-1.718C324.021,201.22,324.79,201.989,324.79,202.938z"/>
			<path style="fill:#515466;" d="M327.833,221.92c0,0.949-0.769,1.718-1.718,1.718c-0.949,0-1.718-0.769-1.718-1.718
				c0-0.949,0.769-1.718,1.718-1.718C327.064,220.202,327.833,220.971,327.833,221.92z"/>
		</g>
	</g>
	<g>
		<g>
			<g>
				<polyline style="fill:#ED925D;" points="208.933,413.693 230.976,452.814 272.799,453.787 246.91,408.397 				"/>
				<path style="fill:#0E1419;" d="M258.776,457.843l2.66,4.614l16.957-3.117l-12.145-17.964l-10.307,1.66l-1.928-1.831
					c-1.184-1.49-2.323-2.41-6.503-1.781l-23.66,5.292c0,0,1.554,3.487,1.292,4.647c-0.552,2.439-3.23,3.015-6.607,5.42
					c-2.464,1.755-9.217,5.118-12.334,6.864c-4.719,2.644-6.227,5.527-5.282,9.919c0,0,38.889-5.853,41.299-6.216
					c2.41-0.363,6.136-5.125,8.577-6.306L258.776,457.843z"/>
				
					<line style="fill:none;stroke:#485468;stroke-linejoin:round;stroke-miterlimit:10;" x1="275.663" y1="455.301" x2="201.173" y2="466.513"/>
			</g>
			<g>
				<polyline style="fill:#ED925D;" points="84.636,415.491 71.642,454.613 113.465,455.585 126.459,410.196 				"/>
				<path style="fill:#0E1419;" d="M98.443,466.607l-1.404,4.959h15.969l2.828-19.53l-17.993-0.492l-0.174-1.452
					c-0.143-1.19-1.124-2.103-2.321-2.159l-23.173-0.036c-3.226,6.378-7.616,6.928-13.07,9.695
					c-2.698,1.369-9.876,3.689-13.218,4.952c-5.06,1.912-6.981,4.539-6.7,9.022c0,0,39.327,0,41.764,0s6.831-4.155,9.42-4.959
					H98.443z"/>
				
					<line style="fill:none;stroke:#485468;stroke-linejoin:round;stroke-miterlimit:10;" x1="112.674" y1="466.607" x2="40.191" y2="466.607"/>
			</g>
			<path style="fill:#1F3548;" d="M176.526,246.809v16.337c0,0-9.397,37.252-12.935,54.437c-3.538,17.185-7.448,32.185,3.206,48.279
				c9.906,14.964,50.329,76.278,50.329,76.278l45.449-8.472l-49.288-88.31c0,0,10.06-47.057,13.413-61.308
				c3.353-14.251,13.009-34.014,7.057-68.776"/>
			<path style="fill:#1F3548;" d="M156.142,222.267l-1.508,9.456c0,0-26.048,42.929-35.07,59.107
				c-9.023,16.179-18.259,31.143-24.481,50.121C88.86,359.93,72.847,443.61,72.847,443.61h49.903l22.623-101.56
				c0,0,47.156-79.337,50.024-83.693c2.868-4.356,14.957-14.457,14.824-39.897"/>
			<polyline style="fill:none;stroke:#000000;stroke-linejoin:round;stroke-miterlimit:10;" points="165.712,307.873 
				176.045,265.06 174.562,251.6 			"/>
			<path style="fill:none;stroke:#000000;stroke-linejoin:round;stroke-miterlimit:10;" d="M100.096,337.842
				c0.803,11.517,2.629,22.962,5.451,34.156"/>
			<path style="fill:none;stroke:#000000;stroke-linejoin:round;stroke-miterlimit:10;" d="M107.894,350.213
				c1.942,5.968,4.329,11.791,7.133,17.405"/>
			<path style="fill:none;stroke:#000000;stroke-linejoin:round;stroke-miterlimit:10;" d="M213.24,345.332
				c-0.333,2.818-0.452,5.66-0.355,8.496"/>
			<path style="fill:none;stroke:#000000;stroke-linejoin:round;stroke-miterlimit:10;" d="M172.102,361.186
				c8.452,6.535,17.684,12.06,27.438,16.419"/>
			<path style="fill:none;stroke:#000000;stroke-linejoin:round;stroke-miterlimit:10;" d="M182.85,359.836
				c6.65,2.442,13.56,4.179,20.574,5.173"/>
		</g>
		<g>
			<path style="fill:#FFFFFF;" d="M204.825,114.179l-27.253,15.174l-10.138-6.813c0,0-9.28,8.334-9.942,9.38
				c-0.662,1.046-1.268,80.908-1.351,84.397c-0.083,3.488-1.508,15.407-1.508,15.407l82.856-7.754c0,0-0.247-49.067-4.176-68.291
				c-3.929-19.224-6.838-39.629-6.838-39.629L204.825,114.179z"/>
			<g>
				<polygon points="152.502,239.345 153.968,231.486 239.623,223.731 238.158,231.591 				"/>
			</g>
			<path style="fill:#1F3548;" d="M243.202,208.861c-0.684-11.124-1.301-30.279-2.415-41.368
				c-1.54-15.329-15.554-51.551-15.554-51.551l-18.622-2.451c-6.381,19.127-9.66,39.146-11.271,59.203
				c-1.362,16.953-2.412,34.114-2.364,51.114c0.015,5.193,0.611,10.544,2.833,15.297c2.186,4.675,6.893,8.16,11.125,10.909
				c6.607,4.292,28.492,18.319,30.557,19.286C242.089,234.018,243.921,220.559,243.202,208.861z"/>
			<path style="fill:none;stroke:#000000;stroke-linejoin:round;stroke-miterlimit:10;" d="M192.973,228.372
				c0.416,5.33,0.612,5.979,2.835,10.732c2.186,4.675,6.893,8.16,11.125,10.909c6.607,4.292,28.492,18.319,30.557,19.286"/>
			<path style="fill:#1F3548;" d="M167.435,122.539c-0.668,18.935-4.526,45.498-5.809,63.206
				c-1.167,16.107-1.551,32.46-6.094,47.957c-0.979,3.34-2.167,6.664-4.099,9.56c-2.022,3.03-4.834,6.54-7.562,8.954
				c-2.867,2.537-6.234,4.879-6.234,4.879s8.868-21.366,10.089-29.522c1.221-8.156,5.014-83.477,5.014-83.477s-0.869-14.856,0-15.73
				C153.608,127.491,167.435,122.539,167.435,122.539z"/>
			<path style="fill:none;stroke:#000000;stroke-linejoin:round;stroke-miterlimit:10;" d="M156.064,233.702
				c-0.979,3.34-2.699,6.664-4.631,9.56c-2.022,3.03-4.834,6.54-7.562,8.954c-2.867,2.537-6.234,4.879-6.234,4.879"/>
			<path style="fill:#1F3548;" d="M152.74,128.365l-57.657,29.508l6.892,23.872c0,0,5.907,2.803,18.115,0
				c12.208-2.803,39.972-16.98,39.972-16.98"/>
			
				<line style="fill:none;stroke:#000000;stroke-linejoin:round;stroke-miterlimit:10;" x1="151.437" y1="169.077" x2="152.74" y2="144.096"/>
			<path style="fill:none;stroke:#000000;stroke-linejoin:round;stroke-miterlimit:10;" d="M219.726,115.217
				c-9.447,21.702-18.53,42.42-23.89,65.474"/>
			<path style="fill:none;stroke:#000000;stroke-linejoin:round;stroke-miterlimit:10;" d="M160.816,124.973
				c-2.569,17.994-1.751,42.22,0,60.083"/>
			<path style="fill:none;stroke:#8C9FAD;stroke-miterlimit:10;" d="M174.562,229.621c0,0-2.872-4.248-2.872-5.983
				c0-1.735,2.727-8.593,2.855-11.999c0.129-3.406,3.209-83.274,3.209-83.274"/>
			<g>
				<polygon style="fill:#BF9E6F;" points="184.078,132.975 171.876,132.975 173.982,141.988 168.012,193.44 172.47,203.826 
					183.796,194.541 181.631,142.284 				"/>
				<line style="fill:none;stroke:#9B7053;stroke-miterlimit:10;" x1="181.579" y1="142.284" x2="173.93" y2="142.284"/>
			</g>
			<path style="fill:none;stroke:#000000;stroke-linejoin:round;stroke-miterlimit:10;" d="M161.825,218.446
				c8.606-2.554,17.107-5.462,25.474-8.716"/>
			<path style="fill:none;stroke:#000000;stroke-linejoin:round;stroke-miterlimit:10;" d="M169.818,211.925
				c5.032-1.959,9.841-4.487,14.308-7.521"/>
		</g>
		<g>
			<g>
				<path style="fill:#ED925D;" d="M206.2,229.767c-2.684,3.24-5.866,6.991-8.706,10.087c-4.291,4.678-6.759,10.51-7.116,16.93
					c-0.044,0.782-0.051,1.591,0.232,2.319c0.271,0.7,0.791,1.27,1.357,1.748c1.337,1.129,2.658,0.927,4.322,0.441
					c0.382,1.167,1.474,1.985,2.639,2.266c1.165,0.281,2.393,0.096,3.543-0.246c0.98,2.104,3.539,2.517,5.396,1.541
					c0.269,0.657,1.107,1.235,1.777,1.35c0.484,0.083,0.978-0.007,1.461-0.096c2.861-0.531,5.829-0.311,8.747-0.34
					c0.225-0.002,0.462-0.008,0.656-0.125c0.293-0.177,0.406-0.562,0.4-0.911c-0.019-1.168-1.025-2.052-2.023-2.609
					c-1.195-0.667-2.509-1.108-3.856-1.296c-0.366-0.051-0.742-0.085-1.081-0.236c-3.099-1.372-0.075-5.07,1.422-6.343
					c1.586-1.35,3.074-2.821,4.449-4.396c0.795-0.911,1.557-1.865,2.117-2.945c0.501-0.965,0.832-2.014,1.326-2.982
					c0.77-1.506,1.911-2.77,3.039-4.015c1.518-1.675,3.036-3.351,4.554-5.026"/>
				<path style="fill:none;stroke:#000000;stroke-linejoin:round;stroke-miterlimit:10;" d="M207.859,264.873
					c-1.032-1.237-1.814-2.428-2.004-4.086c-0.277-2.415-0.133-5.318,0.577-7.641"/>
				<path style="fill:none;stroke:#000000;stroke-linejoin:round;stroke-miterlimit:10;" d="M202.485,263.631
					c-0.832-0.914-1.675-1.889-2.002-3.095c-0.174-0.641-0.191-1.313-0.201-1.978c-0.04-2.636-0.002-6.271-0.002-6.271"/>
				<path style="fill:none;stroke:#000000;stroke-linejoin:round;stroke-miterlimit:10;" d="M196.214,261.034
					c-0.884-0.848-1.104-2.187-1.182-3.428c-0.162-2.583,0.079-5.191,0.711-7.696"/>
			</g>
			<polyline style="fill:#FFFFFF;" points="215.358,218.305 203.539,232.008 227.06,250.002 240.965,237.49 			"/>
			<path style="fill:#1F3548;" d="M220.165,115.353c0,0,6.382,0.526,10.688,1.499c4.306,0.973,10.672,2.874,14.331,8.901
				c10.037,16.531,17.595,38.524,25.615,58.187c1.932,4.737,2.985,10.931,1.925,15.951c-1.381,6.538-5.525,12.076-9.949,16.981
				c-4.424,4.905-30.566,30.704-30.566,30.704l-26.093-19.646l30.422-33.58l-20.605-36.177"/>
			<polyline style="fill:none;stroke:#000000;stroke-linejoin:round;stroke-miterlimit:10;" points="206.116,227.93 
				236.537,194.351 217.481,160.661 			"/>
			
				<line style="fill:none;stroke:#000000;stroke-linejoin:round;stroke-miterlimit:10;" x1="232.209" y1="247.576" x2="242.382" y2="237.497"/>
			
				<line style="fill:none;stroke:#000000;stroke-linejoin:round;stroke-miterlimit:10;" x1="223.705" y1="241.174" x2="235.182" y2="229.377"/>
			
				<line style="fill:none;stroke:#000000;stroke-linejoin:round;stroke-miterlimit:10;" x1="229.497" y1="240.009" x2="232.209" y2="242.048"/>
			
				<line style="fill:none;stroke:#000000;stroke-linejoin:round;stroke-miterlimit:10;" x1="235.182" y1="235.352" x2="237.893" y2="237.391"/>
			<path style="fill:none;stroke:#000000;stroke-linejoin:round;stroke-miterlimit:10;" d="M236.636,194.71
				c0.729-0.606,1.551-1.089,2.408-1.479c4.017-1.826,8.6-1.565,12.984-1.27"/>
			<path style="fill:none;stroke:#000000;stroke-linejoin:round;stroke-miterlimit:10;" d="M245.341,187.037
				c3.143-0.505,7.954-2.149,10.815-0.07"/>
			<path style="fill:none;stroke:#000000;stroke-linejoin:round;stroke-miterlimit:10;" d="M217.481,160.661
				c-0.821-11.014,1.813-22.273,7.416-31.697c1.487-2.5,3.383-5.03,6.125-5.829"/>
		</g>
		<g>
			<g>
				<path style="fill:#D67849;" d="M137.579,106.403c2.784-2.495,5.432-5.144,7.927-7.928c0.559-0.624,1.256-1.254,1.661-1.993
					c0.33-0.602,0.546-1.195,0.94-1.782c1.141-1.698,2.287-3.391,3.431-5.087c0.341-0.506,0.686-1.016,1.13-1.434
					c0.587-0.553,1.32-0.921,2.042-1.28c3.388-1.688,6.889-3.406,10.666-3.663c0.616-0.042,1.295-0.024,1.764,0.378
					c0.469,0.402,0.49,1.316-0.087,1.534c0.914-0.141,1.903-0.271,2.718,0.165c0.815,0.436,1.229,1.692,0.531,2.298
					c0.685-0.31,1.444,0.506,1.385,1.255c-0.059,0.749-0.612,1.353-1.135,1.893c0.471-0.02,0.838,0.463,0.87,0.933
					c0.09,1.289-1.006,2.154-1.798,2.988c-2.601,2.743-4.72,5.845-5.592,9.579c0.669-1.034,1.006-1.508,1.77-2.473
					c0.764-0.966,2.029-2.435,3.259-2.5c0.775-0.041,1.706,0.425,1.685,1.201c-0.007,0.262-0.125,0.507-0.24,0.742
					c-2.372,4.824-4.982,9.554-8.209,13.854c-3.227,4.3-7.093,8.172-11.662,11.004"/>
				<path style="fill:none;stroke:#000000;stroke-linejoin:round;stroke-miterlimit:10;" d="M164.363,103.235
					c-0.533,1.479-0.825,3.046-0.861,4.618"/>
				<path style="fill:none;stroke:#000000;stroke-linejoin:round;stroke-miterlimit:10;" d="M166.931,85.509
					c-2.594,1.456-5.291,2.731-8.063,3.812c-0.216,0.084-0.438,0.171-0.612,0.325c-0.144,0.128-0.247,0.296-0.347,0.461
					c-0.316,0.521-0.632,1.042-0.948,1.563c-0.208,0.343-0.418,0.69-0.535,1.074c-0.134,0.439-0.141,0.905-0.167,1.364
					c-0.218,3.851-1.854,7.46-3.464,10.965"/>
				<path style="fill:none;stroke:#000000;stroke-linejoin:round;stroke-miterlimit:10;" d="M170.732,87.233
					c-1.007,0.571-2.014,1.143-3.021,1.714c-1.465,0.831-2.937,1.667-4.247,2.725c-1.31,1.058-2.462,2.358-3.12,3.909"/>
				<path style="fill:none;stroke:#000000;stroke-linejoin:round;stroke-miterlimit:10;" d="M170.547,90.794
					c-2.926,2.3-5.425,5.141-7.333,8.336"/>
			</g>
			<polyline style="fill:#FFFFFF;" points="132.193,110.109 139.955,102.752 159.065,123.182 146.42,137.545 			"/>
			<path style="fill:#1F3548;" d="M136.827,104.946l20.953,22.013l-31.389,39.578c0,0-6.343,12.709-17.959,16.418
				c-20.428,0.65-23.786-17.403-18.469-28.232C95.28,143.893,136.827,104.946,136.827,104.946z"/>
			
				<line style="fill:none;stroke:#000000;stroke-linejoin:round;stroke-miterlimit:10;" x1="157.78" y1="126.959" x2="126.391" y2="166.537"/>
			
				<line style="fill:none;stroke:#000000;stroke-linejoin:round;stroke-miterlimit:10;" x1="154.398" y1="123.406" x2="142.841" y2="134.844"/>
			
				<line style="fill:none;stroke:#000000;stroke-linejoin:round;stroke-miterlimit:10;" x1="148.88" y1="124.571" x2="146.358" y2="122.352"/>
			
				<line style="fill:none;stroke:#000000;stroke-linejoin:round;stroke-miterlimit:10;" x1="144.052" y1="128.992" x2="141.531" y2="126.772"/>
		</g>
		<g>
			<polygon style="fill:#ED925D;" points="170.401,110.996 171.595,125.8 180.214,128.831 200.904,113.375 194.404,97.947 
				183.641,88.972 			"/>
			<polygon style="fill:#FFFFFF;" points="198.865,108.535 177.373,126.358 171.084,119.47 167.435,122.539 170.154,135.926 
				177.572,129.353 188.72,137.039 204.825,114.179 			"/>
			<polyline style="fill:none;stroke:#000000;stroke-linejoin:round;stroke-miterlimit:10;" points="167.435,122.539 
				170.154,135.926 177.572,129.353 188.72,137.039 204.825,114.179 			"/>
			<path style="fill:#ED925D;" d="M181.729,72.43c-3.414-1.126-14.249,1.18-18.345,3.31c-0.938,0.488-5.548,2.381-5.85,4.685
				c-0.302,2.304,1.15,12.8,1.007,13.22c-0.197,0.586-0.005,1.556,0.011,2.166c0.044,1.619,0.11,3.238,0.179,4.856
				c0.091,2.126,0.245,4.252,0.398,6.376c0.122,1.689-0.129,4.592,1.041,5.932c0.434,0.497,0.999,0.84,1.554,1.174
				c1.147,0.691,2.504,1.592,3.816,1.825c1.441,0.256,3.218-0.206,4.625-0.477c3.601-0.691,7.23-1.698,10.684-2.907
				c1.617-0.566,3.672-1.032,4.991-2.212c0.616-0.551,1.027-1.313,1.389-2.079c3.082-6.528,3.967-13.616,2.452-20.863
				c-0.599-2.864-1.612-5.662-2.852-8.299c-0.999-2.126-2.248-4.733-4.135-6.157C182.393,72.755,182.083,72.546,181.729,72.43z"/>
			<path style="fill:none;stroke:#000000;stroke-width:1.5;stroke-miterlimit:10;" d="M171.576,85.323
				c1.518-0.958,3.055-1.924,4.738-2.403c1.683-0.479,3.554-0.433,5.16,0.57"/>
			<path style="fill:none;stroke:#5E3C2A;stroke-linejoin:round;stroke-miterlimit:10;" d="M167.322,89.361
				c0,0-1.588,3.91-1.918,4.382c-0.33,0.471-1.108,7.3-0.403,7.517c0.706,0.217,5.153-1.343,5.153-1.343"/>
			<path style="fill:#7A5E49;" d="M198.942,74.359c-0.305-1.046-0.813-2.023-1.393-2.946c-0.87-1.384-1.926-2.679-3.269-3.613
				c-0.671-0.466-1.419-0.837-2.202-1.068c-0.63-0.58-1.368-1.091-1.919-1.584c-1.287-1.15-2.641-2.244-4.169-3.06
				c-0.157-0.084-0.318-0.164-0.483-0.241c-3.171-1.48-7.797-1.676-9.842,1.689c0.128-0.211-5.144-1.854-5.628-1.948
				c-2.007-0.388-4.078-0.481-6.107-0.213c-3.427,0.453-8.113,2.227-9.74,5.513c-0.488,0.985-0.785,2.103-0.604,3.188
				c0.182,1.084,0.914,2.116,1.965,2.439c-1.815,0.359-3.518,1.265-4.83,2.568c-2.128,2.112-0.893,4.779,1.389,6.126
				c2.499,1.475,5.818,1.923,8.608,1.138c1.195-0.337,2.283-0.963,3.41-1.486c0.32-0.149,0.659-0.292,1.012-0.272
				c0.337,0.019,0.646,0.184,0.95,0.33c4.28,2.046,9.094,0,12.68-2.528c0.161-0.114,0.338-0.235,0.535-0.225
				c0.217,0.01,0.443,0.16,0.671,0.342c1.671,1.34,3.88,1.946,6.005,1.783c0.136,3.52,1.664,6.967,4.181,9.431
				c0.357,0.349,0.737,0.685,1.001,1.108c0.222,0.355,0.353,0.758,0.481,1.156c0.624,1.929,0.525,8.357,0.525,8.357
				s1.938,0,3.641,0.937c0.874-0.745,4.339-11.224,3.544-23.018C199.264,76.952,199.31,75.62,198.942,74.359z"/>
			<g>
				
					<line style="fill:none;stroke:#000000;stroke-width:2;stroke-linejoin:round;stroke-miterlimit:10;" x1="164.23" y1="89.361" x2="169.363" y2="88.926"/>
				
					<line style="fill:none;stroke:#000000;stroke-width:2;stroke-linejoin:round;stroke-miterlimit:10;" x1="180.93" y1="88.06" x2="191.478" y2="90.955"/>
				<path d="M181.483,87.548c-0.05,1.875-0.333,5.982-1.83,7.23c-1.963,1.635-7.23,2.03-8.994,0.65
					c-1.366-1.069-1.772-5.127-1.886-6.904c-0.03-0.469,0.303-0.871,0.746-0.909l11.086-0.94
					C181.087,86.634,181.497,87.039,181.483,87.548z"/>
				<g>
					<defs>
						<path id="SVGID_00000054957220489066903890000007528736145722533796_" d="M181.483,87.548c-0.05,1.875-0.333,5.982-1.83,7.23
							c-1.963,1.635-7.23,2.03-8.994,0.65c-1.366-1.069-1.772-5.127-1.886-6.904c-0.03-0.469,0.303-0.871,0.746-0.909l11.086-0.94
							C181.087,86.634,181.497,87.039,181.483,87.548z"/>
					</defs>
					<clipPath id="SVGID_00000021080018060364739970000005325528759344486312_">
						<use xlink:href="#SVGID_00000054957220489066903890000007528736145722533796_"  style="overflow:visible;"/>
					</clipPath>
					<path style="clip-path:url(#SVGID_00000021080018060364739970000005325528759344486312_);fill:#6B6B6B;" d="M169.379,86.372
						l1.596-1.363l10.602,13.846l-1.597,1.363L169.379,86.372z M183.184,98.137l0.798-0.681L173.381,83.61l-0.799,0.681
						L183.184,98.137z"/>
				</g>
				<path d="M164.715,88.936c-0.04,1.875-0.264,5.982-1.452,7.23c-1.556,1.635-5.733,2.03-7.132,0.65
					c-1.083-1.069-1.405-5.127-1.495-6.904c-0.024-0.469,0.24-0.871,0.592-0.909l8.791-0.94
					C164.4,88.022,164.726,88.426,164.715,88.936z"/>
				<g>
					<defs>
						<path id="SVGID_00000074430852757833987440000000219356894643698052_" d="M164.715,88.936c-0.04,1.875-0.264,5.982-1.452,7.23
							c-1.556,1.635-5.733,2.03-7.132,0.65c-1.083-1.069-1.405-5.127-1.495-6.904c-0.024-0.469,0.24-0.871,0.592-0.909l8.791-0.94
							C164.4,88.022,164.726,88.426,164.715,88.936z"/>
					</defs>
					<clipPath id="SVGID_00000167357937270021635880000010607592798656584848_">
						<use xlink:href="#SVGID_00000074430852757833987440000000219356894643698052_"  style="overflow:visible;"/>
					</clipPath>
					<path style="clip-path:url(#SVGID_00000167357937270021635880000010607592798656584848_);fill:#6B6B6B;" d="M155.117,87.759
						l1.265-1.363l8.407,13.846l-1.266,1.363L155.117,87.759z M166.063,99.525l0.633-0.681l-8.406-13.846l-0.633,0.681
						L166.063,99.525z"/>
				</g>
			</g>
			<g>
				<path style="fill:#ED925D;" d="M189.689,101.975c-0.895,0.103-1.739-0.108-2.537-0.503c-1.683-0.833-1.141-3.28-1.054-4.779
					c0.168-2.879-0.753-7.358,2.378-9.027c0.83-0.443,1.834-0.515,2.744-0.274c0.91,0.241,1.726,0.78,2.368,1.468
					c1.016,1.088,1.604,2.539,1.762,4.019c0.158,1.48-0.1,2.987-0.616,4.383c-0.42,1.136-1.021,2.221-1.873,3.083
					C192.01,101.209,190.893,101.837,189.689,101.975z"/>
				<path style="fill:none;stroke:#000000;stroke-linejoin:round;stroke-miterlimit:10;" d="M192.167,92.181
					c-2.718-0.047-6.1,4.818-6.1,4.818"/>
				<path style="fill:none;stroke:#000000;stroke-linejoin:round;stroke-miterlimit:10;" d="M185.579,91.754
					c0.305-1.858,1.495-3.551,3.141-4.465"/>
				<path style="fill:none;stroke:#000000;stroke-linejoin:round;stroke-miterlimit:10;" d="M186.037,100.785
					c0.435,0.956,1.585,1.377,2.635,1.41c2.377,0.075,3.495-0.695,4.624-1.847"/>
			</g>
			<path style="fill:none;stroke:#000000;stroke-linejoin:round;stroke-miterlimit:10;" d="M173.449,101.273
				c-0.46,0.729-1.195,1.182-1.842,1.417c-1.932,0.7-3.886,1.355-5.86,1.965"/>
			<path style="fill:none;stroke:#000000;stroke-width:1.5;stroke-miterlimit:10;" d="M156.142,85.532
				c2.231-1.366,5.143-0.524,7.448,0.2"/>
			<path style="fill:none;stroke:#000000;stroke-linejoin:round;stroke-miterlimit:10;" d="M170.481,115.353
				c5.774-1.997,12.355-3.026,16.96-7.384c0.893-0.845,1.716-1.881,1.843-3.103"/>
		</g>
	</g>
	<g>
		<g>
			<path style="fill:none;stroke:#CCA97F;stroke-linejoin:round;stroke-miterlimit:10;" d="M347.658,25.307
				c0,2.065,1.674,3.738,3.738,3.738s3.738-1.674,3.738-3.738c0-2.064-1.674-3.738-3.738-3.738S347.658,23.243,347.658,25.307z"/>
			<path style="fill:none;stroke:#CCA97F;stroke-linejoin:round;stroke-miterlimit:10;" d="M413.005,231.538
				c0,2.065,1.674,3.738,3.738,3.738c2.065,0,3.738-1.674,3.738-3.738c0-2.064-1.674-3.738-3.738-3.738
				C414.679,227.8,413.005,229.474,413.005,231.538z"/>
			<path style="fill:none;stroke:#CCA97F;stroke-linejoin:round;stroke-miterlimit:10;" d="M267.362,313.985
				c0,2.065,1.674,3.738,3.738,3.738c2.065,0,3.738-1.674,3.738-3.738s-1.674-3.738-3.738-3.738
				C269.035,310.247,267.362,311.921,267.362,313.985z"/>
			<path style="fill:none;stroke:#CCA97F;stroke-linejoin:round;stroke-miterlimit:10;" d="M42.887,333.056
				c0,2.065,1.674,3.738,3.738,3.738c2.065,0,3.738-1.674,3.738-3.738c0-2.065-1.674-3.738-3.738-3.738
				C44.561,329.317,42.887,330.991,42.887,333.056z"/>
			<path style="fill:none;stroke:#CCA97F;stroke-linejoin:round;stroke-miterlimit:10;" d="M68.015,111.17
				c0,2.065,1.674,3.738,3.738,3.738s3.738-1.674,3.738-3.738c0-2.065-1.674-3.738-3.738-3.738S68.015,109.106,68.015,111.17z"/>
			<g>
				
					<line style="fill:none;stroke:#CCA97F;stroke-linejoin:round;stroke-miterlimit:10;" x1="379.632" y1="238.863" x2="379.632" y2="246.21"/>
				
					<line style="fill:none;stroke:#CCA97F;stroke-linejoin:round;stroke-miterlimit:10;" x1="375.958" y1="242.537" x2="383.305" y2="242.537"/>
			</g>
			<g>
				
					<line style="fill:none;stroke:#CCA97F;stroke-linejoin:round;stroke-miterlimit:10;" x1="305.919" y1="60.83" x2="305.919" y2="68.177"/>
				
					<line style="fill:none;stroke:#CCA97F;stroke-linejoin:round;stroke-miterlimit:10;" x1="302.245" y1="64.504" x2="309.592" y2="64.504"/>
			</g>
			<g>
				
					<line style="fill:none;stroke:#CCA97F;stroke-linejoin:round;stroke-miterlimit:10;" x1="416.743" y1="119.997" x2="416.743" y2="127.344"/>
				
					<line style="fill:none;stroke:#CCA97F;stroke-linejoin:round;stroke-miterlimit:10;" x1="413.07" y1="123.671" x2="420.417" y2="123.671"/>
			</g>
			<g>
				
					<line style="fill:none;stroke:#CCA97F;stroke-linejoin:round;stroke-miterlimit:10;" x1="85.277" y1="286.183" x2="85.277" y2="293.53"/>
				
					<line style="fill:none;stroke:#CCA97F;stroke-linejoin:round;stroke-miterlimit:10;" x1="81.604" y1="289.857" x2="88.95" y2="289.857"/>
			</g>
			<g>
				
					<line style="fill:none;stroke:#CCA97F;stroke-linejoin:round;stroke-miterlimit:10;" x1="192.973" y1="31.048" x2="192.973" y2="38.395"/>
				
					<line style="fill:none;stroke:#CCA97F;stroke-linejoin:round;stroke-miterlimit:10;" x1="189.3" y1="34.721" x2="196.647" y2="34.721"/>
			</g>
			<g>
				
					<line style="fill:none;stroke:#CCA97F;stroke-linejoin:round;stroke-miterlimit:10;" x1="439.579" y1="332.881" x2="439.579" y2="340.228"/>
				
					<line style="fill:none;stroke:#CCA97F;stroke-linejoin:round;stroke-miterlimit:10;" x1="435.906" y1="336.555" x2="443.253" y2="336.555"/>
			</g>
			<g>
				
					<line style="fill:none;stroke:#CCA97F;stroke-linejoin:round;stroke-miterlimit:10;" x1="163.214" y1="419.155" x2="163.214" y2="426.501"/>
				
					<line style="fill:none;stroke:#CCA97F;stroke-linejoin:round;stroke-miterlimit:10;" x1="159.54" y1="422.828" x2="166.887" y2="422.828"/>
			</g>
		</g>
		<line style="fill:none;stroke:#CCA97F;stroke-miterlimit:10;" x1="25.018" y1="471.529" x2="474.982" y2="471.529"/>
	</g>
</g>
</svg>
