<svg xmlns="http://www.w3.org/2000/svg" xmlns:xlink="http://www.w3.org/1999/xlink" width="1080" zoomAndPan="magnify" viewBox="0 0 810 809.999993" height="1080" preserveAspectRatio="xMidYMid meet" version="1.0"><defs><clipPath id="3dafd563ed"><path d="M 67.5 53.4375 L 742.5 53.4375 L 742.5 729 L 67.5 729 Z M 67.5 53.4375 " clip-rule="nonzero"/></clipPath></defs><g clip-path="url(#3dafd563ed)"><path fill="#38b6ff" d="M 742.363281 391.03125 C 742.378906 400.835938 741.964844 410.621094 741.125 420.390625 C 740.28125 430.15625 739.015625 439.871094 737.324219 449.527344 C 735.632812 459.183594 733.523438 468.746094 730.996094 478.21875 C 728.464844 487.691406 725.53125 497.035156 722.183594 506.25 C 718.839844 515.464844 715.097656 524.515625 710.957031 533.402344 C 706.820312 542.292969 702.304688 550.980469 697.40625 559.472656 C 692.507812 567.964844 687.246094 576.230469 681.625 584.261719 C 676.003906 592.292969 670.042969 600.066406 663.742188 607.574219 C 660.808594 611.054688 657.792969 614.492188 654.734375 617.886719 C 652.636719 620.191406 650.542969 622.453125 648.363281 624.675781 C 647.398438 625.722656 646.394531 626.769531 645.34375 627.773438 C 643.753906 629.410156 642.160156 631.003906 640.527344 632.554688 C 639.855469 633.265625 639.183594 633.894531 638.515625 634.480469 C 636.796875 636.15625 635.078125 637.792969 633.359375 639.34375 C 632.355469 640.304688 631.347656 641.226562 630.34375 642.109375 C 628.039062 644.203125 625.734375 646.214844 623.34375 648.226562 C 620.957031 650.28125 618.480469 652.292969 616.007812 654.261719 C 614.710938 655.351562 613.371094 656.398438 612.027344 657.40625 C 611.0625 658.160156 610.101562 658.914062 609.136719 659.625 C 607.667969 660.800781 606.160156 661.890625 604.652344 662.980469 C 597.191406 668.46875 589.480469 673.664062 581.601562 678.527344 C 579.339844 679.953125 576.992188 681.335938 574.6875 682.675781 C 574.519531 682.757812 574.394531 682.886719 574.226562 682.96875 C 571.878906 684.308594 569.53125 685.652344 567.144531 686.949219 C 564.714844 688.292969 562.199219 689.632812 559.726562 690.890625 L 559.472656 691.015625 C 557.085938 692.273438 554.699219 693.445312 552.265625 694.621094 C 549.125 696.171875 545.980469 697.636719 542.792969 699.0625 C 540.492188 700.109375 538.183594 701.117188 535.839844 702.078125 C 534.289062 702.75 532.695312 703.421875 531.0625 704.007812 C 530.574219 704.253906 530.070312 704.460938 529.550781 704.636719 C 528 705.265625 526.410156 705.894531 524.859375 706.480469 C 521.210938 707.863281 517.566406 709.160156 513.878906 710.417969 C 512.242188 711.003906 510.609375 711.550781 508.933594 712.054688 C 508.808594 712.09375 508.722656 712.136719 508.597656 712.179688 C 498.707031 715.355469 488.691406 718.070312 478.550781 720.328125 C 468.410156 722.582031 458.1875 724.367188 447.882812 725.679688 C 437.578125 726.992188 427.238281 727.832031 416.855469 728.191406 C 406.472656 728.554688 396.097656 728.4375 385.726562 727.84375 C 375.355469 727.25 365.035156 726.183594 354.761719 724.640625 C 344.488281 723.097656 334.308594 721.085938 324.21875 718.601562 C 314.132812 716.121094 304.179688 713.183594 294.363281 709.789062 C 284.546875 706.390625 274.90625 702.550781 265.445312 698.265625 C 264.226562 697.722656 263.054688 697.175781 261.878906 696.589844 C 259.703125 695.582031 257.5625 694.578125 255.429688 693.488281 C 253.457031 692.523438 251.488281 691.519531 249.519531 690.472656 C 247.339844 689.339844 245.117188 688.207031 242.980469 686.949219 C 241.515625 686.195312 240.089844 685.398438 238.664062 684.5625 C 236.441406 683.347656 234.265625 682.046875 232.125 680.746094 C 229.863281 679.40625 227.601562 678.023438 225.378906 676.640625 C 224.5 676.097656 223.660156 675.550781 222.824219 675.007812 C 221.0625 673.875 219.300781 672.742188 217.585938 671.570312 C 217.292969 671.390625 217.015625 671.191406 216.746094 670.984375 C 214.441406 669.472656 212.175781 667.925781 209.957031 666.289062 C 207.566406 664.613281 205.179688 662.894531 202.832031 661.09375 C 198.136719 657.613281 193.570312 654.011719 189.085938 650.238281 L 188.960938 650.113281 C 186.738281 648.269531 184.515625 646.382812 182.378906 644.453125 C 180.242188 642.609375 178.148438 640.726562 176.050781 638.753906 C 175.847656 638.585938 175.652344 638.402344 175.464844 638.210938 C 173.539062 636.410156 171.609375 634.605469 169.722656 632.761719 C 167.082031 630.207031 164.527344 627.609375 162.011719 624.96875 C 160.839844 623.792969 159.707031 622.621094 158.578125 621.40625 C 157.152344 619.855469 155.726562 618.304688 154.300781 616.710938 C 154.132812 616.542969 153.964844 616.335938 153.800781 616.167969 C 152.960938 615.246094 152.164062 614.324219 151.324219 613.402344 C 139.585938 600.082031 128.996094 585.902344 119.558594 570.863281 C 115.332031 564.179688 111.34375 557.359375 107.597656 550.394531 C 103.851562 543.429688 100.359375 536.339844 97.117188 529.128906 C 93.871094 521.917969 90.886719 514.601562 88.164062 507.179688 C 85.4375 499.753906 82.976562 492.246094 80.785156 484.648438 C 78.589844 477.050781 76.667969 469.386719 75.015625 461.652344 C 73.367188 453.917969 71.992188 446.136719 70.890625 438.304688 C 69.792969 430.476562 68.96875 422.617188 68.425781 414.726562 C 67.882812 406.839844 67.617188 398.941406 67.632812 391.03125 C 67.632812 204.707031 218.671875 53.667969 405 53.667969 C 591.324219 53.667969 742.363281 204.707031 742.363281 391.03125 Z M 742.363281 391.03125 " fill-opacity="1" fill-rule="nonzero"/></g><path fill="#ff5e64" d="M 654.734375 617.886719 C 643.695312 630.019531 631.839844 641.292969 619.167969 651.707031 C 606.492188 662.121094 593.132812 671.5625 579.089844 680.035156 C 575.265625 682.339844 571.402344 684.570312 567.492188 686.722656 C 563.582031 688.875 559.632812 690.945312 555.640625 692.941406 C 551.644531 694.9375 547.617188 696.851562 543.546875 698.6875 C 539.480469 700.519531 535.375 702.273438 531.238281 703.945312 C 527.101562 705.617188 522.929688 707.207031 518.730469 708.710938 C 514.527344 710.21875 510.300781 711.640625 506.042969 712.976562 C 501.785156 714.316406 497.5 715.570312 493.195312 716.734375 C 488.886719 717.902344 484.558594 718.984375 480.207031 719.980469 C 475.855469 720.976562 471.488281 721.886719 467.101562 722.707031 C 462.714844 723.53125 458.316406 724.265625 453.898438 724.914062 C 449.484375 725.558594 445.054688 726.121094 440.617188 726.589844 C 436.179688 727.0625 431.734375 727.445312 427.28125 727.738281 C 422.828125 728.035156 418.371094 728.242188 413.910156 728.359375 C 409.449219 728.476562 404.988281 728.503906 400.523438 728.445312 C 396.0625 728.386719 391.601562 728.238281 387.144531 728 C 382.6875 727.761719 378.238281 727.4375 373.796875 727.023438 C 369.351562 726.609375 364.917969 726.109375 360.492188 725.519531 C 356.070312 724.929688 351.660156 724.25 347.261719 723.488281 C 342.867188 722.722656 338.488281 721.871094 334.125 720.929688 C 329.761719 719.992188 325.417969 718.964844 321.097656 717.855469 C 316.773438 716.742188 312.476562 715.546875 308.199219 714.261719 C 303.925781 712.980469 299.679688 711.613281 295.457031 710.160156 C 291.238281 708.710938 287.046875 707.175781 282.890625 705.558594 C 278.730469 703.941406 274.605469 702.242188 270.511719 700.460938 C 266.421875 698.675781 262.367188 696.816406 258.347656 694.871094 C 254.328125 692.929688 250.351562 690.90625 246.414062 688.808594 C 242.476562 686.707031 238.582031 684.527344 234.730469 682.273438 C 230.882812 680.015625 227.078125 677.683594 223.316406 675.277344 C 219.558594 672.871094 215.851562 670.390625 212.191406 667.835938 C 208.53125 665.28125 204.925781 662.65625 201.367188 659.960938 C 197.8125 657.261719 194.3125 654.496094 190.867188 651.65625 C 187.421875 648.820312 184.035156 645.917969 180.703125 642.945312 C 176.765625 639.46875 172.910156 635.863281 169.136719 632.132812 C 163.855469 627.019531 158.742188 621.65625 153.800781 616.167969 C 158.613281 609.289062 164.128906 603.035156 170.355469 597.40625 C 176.578125 591.773438 183.355469 586.90625 190.679688 582.808594 C 195.625 580.042969 200.738281 577.570312 205.890625 575.265625 C 225.253906 566.628906 245.871094 560.46875 264.5625 550.539062 C 266.574219 549.488281 268.585938 548.398438 270.554688 547.226562 C 277.453125 543.183594 283.75 538.367188 289.457031 532.769531 C 299.222656 523.339844 306.976562 511.855469 310.371094 499.492188 L 310.664062 499.324219 L 310.664062 467.808594 C 312.464844 468.1875 314.226562 468.5625 315.984375 468.898438 C 432.699219 493.121094 466.773438 467.808594 466.773438 467.808594 L 466.773438 526.398438 L 503.738281 533.105469 L 565.886719 544.335938 L 568.316406 544.753906 C 572.71875 545.546875 577.054688 546.597656 581.328125 547.910156 C 585.601562 549.222656 589.78125 550.785156 593.867188 552.597656 C 597.953125 554.410156 601.917969 556.457031 605.757812 558.746094 C 609.601562 561.03125 613.292969 563.539062 616.832031 566.269531 C 620.375 568.996094 623.738281 571.925781 626.929688 575.058594 C 630.121094 578.191406 633.109375 581.503906 635.90625 584.992188 C 638.699219 588.480469 641.273438 592.125 643.632812 595.925781 C 645.988281 599.722656 648.109375 603.648438 649.996094 607.703125 Z M 654.734375 617.886719 " fill-opacity="1" fill-rule="nonzero"/><path fill="#fcc00a" d="M 579.089844 680.035156 C 575.65625 682.101562 572.1875 684.109375 568.683594 686.050781 C 565.179688 687.996094 561.644531 689.875 558.070312 691.695312 C 554.5 693.511719 550.898438 695.265625 547.265625 696.953125 C 543.632812 698.644531 539.96875 700.265625 536.277344 701.824219 C 532.585938 703.382812 528.871094 704.875 525.125 706.304688 C 521.382812 707.730469 517.613281 709.089844 513.820312 710.378906 C 510.027344 711.671875 506.210938 712.894531 502.375 714.050781 C 498.539062 715.207031 494.683594 716.296875 490.808594 717.3125 C 486.933594 718.332031 483.042969 719.28125 479.132812 720.160156 C 475.222656 721.042969 471.300781 721.851562 467.363281 722.59375 C 463.425781 723.332031 459.472656 724.003906 455.511719 724.601562 C 451.550781 725.199219 447.578125 725.730469 443.597656 726.1875 C 439.617188 726.644531 435.632812 727.03125 431.636719 727.347656 C 427.640625 727.664062 423.644531 727.910156 419.640625 728.082031 C 415.636719 728.253906 411.632812 728.359375 407.625 728.386719 C 403.621094 728.417969 399.613281 728.378906 395.609375 728.265625 C 391.601562 728.152344 387.601562 727.972656 383.601562 727.714844 C 379.601562 727.460938 375.609375 727.136719 371.625 726.738281 C 367.636719 726.339844 363.65625 725.875 359.6875 725.335938 C 355.714844 724.796875 351.757812 724.1875 347.808594 723.507812 C 343.859375 722.828125 339.925781 722.078125 336.003906 721.257812 C 332.078125 720.4375 328.175781 719.546875 324.285156 718.589844 C 320.394531 717.628906 316.519531 716.601562 312.667969 715.503906 C 308.8125 714.40625 304.980469 713.242188 301.167969 712.007812 C 297.355469 710.773438 293.566406 709.472656 289.800781 708.105469 C 286.035156 706.734375 282.296875 705.300781 278.582031 703.796875 C 274.867188 702.296875 271.179688 700.730469 267.519531 699.09375 C 263.863281 697.460938 260.234375 695.765625 256.636719 694 C 253.039062 692.238281 249.472656 690.414062 245.9375 688.523438 C 242.40625 686.632812 238.90625 684.679688 235.441406 682.667969 C 231.980469 680.652344 228.550781 678.578125 225.164062 676.441406 C 221.773438 674.304688 218.421875 672.109375 215.109375 669.851562 L 205.890625 575.265625 L 198.851562 502.59375 L 259.324219 496.726562 L 264.5625 550.539062 L 264.992188 554.957031 C 265.125 556.328125 265.289062 557.695312 265.484375 559.0625 C 265.683594 560.425781 265.910156 561.785156 266.167969 563.140625 C 266.429688 564.496094 266.71875 565.84375 267.039062 567.183594 C 267.359375 568.523438 267.710938 569.859375 268.09375 571.183594 C 268.476562 572.507812 268.886719 573.824219 269.332031 575.128906 C 269.773438 576.433594 270.246094 577.730469 270.75 579.015625 C 271.253906 580.296875 271.785156 581.570312 272.34375 582.828125 C 272.90625 584.089844 273.496094 585.335938 274.117188 586.566406 C 274.734375 587.800781 275.378906 589.015625 276.054688 590.21875 C 276.730469 591.421875 277.433594 592.609375 278.160156 593.777344 C 278.890625 594.949219 279.648438 596.101562 280.429688 597.238281 C 281.210938 598.371094 282.019531 599.488281 282.855469 600.585938 C 283.6875 601.6875 284.546875 602.765625 285.429688 603.824219 C 286.3125 604.882812 287.222656 605.917969 288.152344 606.9375 C 289.085938 607.953125 290.039062 608.949219 291.015625 609.921875 C 291.992188 610.894531 292.992188 611.84375 294.015625 612.769531 C 295.035156 613.695312 296.078125 614.597656 297.140625 615.476562 C 298.203125 616.355469 299.285156 617.210938 300.386719 618.039062 C 301.488281 618.867188 302.609375 619.671875 303.746094 620.449219 C 304.886719 621.226562 306.042969 621.976562 307.214844 622.699219 C 308.390625 623.425781 309.578125 624.121094 310.785156 624.789062 C 311.992188 625.460938 313.210938 626.101562 314.445312 626.714844 C 315.683594 627.328125 316.929688 627.910156 318.191406 628.464844 C 319.453125 629.023438 320.730469 629.546875 322.015625 630.042969 C 323.300781 630.542969 324.597656 631.007812 325.90625 631.445312 C 327.214844 631.882812 328.53125 632.289062 329.859375 632.664062 C 331.183594 633.042969 332.519531 633.386719 333.863281 633.703125 C 335.203125 634.015625 336.554688 634.300781 337.910156 634.554688 C 339.265625 634.804688 340.625 635.027344 341.992188 635.21875 C 343.355469 635.40625 344.726562 635.566406 346.097656 635.691406 C 347.472656 635.820312 348.847656 635.914062 350.226562 635.976562 C 351.601562 636.042969 352.980469 636.074219 354.359375 636.074219 L 414.808594 636.074219 C 416.367188 636.074219 417.925781 636.03125 419.484375 635.949219 C 421.042969 635.871094 422.597656 635.75 424.152344 635.585938 C 425.703125 635.421875 427.25 635.222656 428.789062 634.976562 C 430.332031 634.734375 431.863281 634.453125 433.390625 634.128906 C 434.917969 633.804688 436.433594 633.445312 437.941406 633.042969 C 439.449219 632.640625 440.945312 632.199219 442.429688 631.71875 C 443.914062 631.238281 445.386719 630.71875 446.84375 630.164062 C 448.300781 629.605469 449.742188 629.011719 451.167969 628.382812 C 452.59375 627.75 454.003906 627.082031 455.394531 626.375 C 456.789062 625.671875 458.160156 624.929688 459.511719 624.152344 C 460.867188 623.375 462.199219 622.5625 463.507812 621.71875 C 464.820312 620.871094 466.109375 619.992188 467.371094 619.078125 C 468.636719 618.164062 469.878906 617.21875 471.09375 616.242188 C 472.308594 615.261719 473.496094 614.253906 474.660156 613.214844 C 475.824219 612.175781 476.957031 611.105469 478.066406 610.003906 C 479.171875 608.90625 480.25 607.777344 481.300781 606.625 C 482.347656 605.46875 483.367188 604.285156 484.351562 603.078125 C 485.339844 601.871094 486.292969 600.636719 487.214844 599.378906 C 488.140625 598.121094 489.027344 596.839844 489.882812 595.535156 C 490.738281 594.230469 491.5625 592.902344 492.347656 591.554688 C 493.132812 590.207031 493.886719 588.839844 494.601562 587.457031 C 495.316406 586.070312 495.996094 584.664062 496.636719 583.242188 C 497.277344 581.820312 497.882812 580.382812 498.449219 578.929688 C 499.019531 577.476562 499.546875 576.007812 500.039062 574.527344 C 500.527344 573.046875 500.980469 571.554688 501.394531 570.050781 C 501.804688 568.546875 502.179688 567.03125 502.515625 565.507812 C 502.847656 563.984375 503.140625 562.453125 503.394531 560.910156 C 503.648438 559.371094 503.863281 557.828125 504.039062 556.277344 C 504.210938 554.726562 504.34375 553.171875 504.4375 551.617188 C 504.53125 550.058594 504.582031 548.5 504.59375 546.9375 C 504.605469 545.378906 504.574219 543.820312 504.503906 542.261719 C 504.433594 540.703125 504.324219 539.144531 504.171875 537.59375 L 503.738281 533.105469 L 500.59375 500.5 L 561.066406 494.632812 L 565.886719 544.335938 Z M 579.089844 680.035156 " fill-opacity="1" fill-rule="nonzero"/><path fill="#ff9987" d="M 536.425781 353.398438 C 537.40625 362.15625 536.613281 370.746094 534.035156 379.171875 C 534.035156 379.171875 512.914062 505.777344 438.066406 505.777344 C 421.335938 505.777344 405.648438 499.226562 392.339844 487.824219 C 392.285156 487.78125 392.230469 487.738281 392.175781 487.699219 L 380.089844 478.925781 C 379.546875 478.527344 378.941406 478.304688 378.273438 478.25 C 356.511719 476.324219 334.957031 473.050781 313.605469 468.433594 C 313.191406 468.347656 312.804688 468.195312 312.445312 467.972656 C 312.082031 467.753906 311.769531 467.480469 311.5 467.152344 C 311.234375 466.824219 311.027344 466.460938 310.882812 466.066406 C 310.738281 465.667969 310.667969 465.257812 310.664062 464.832031 L 310.664062 402.347656 L 309.574219 400 L 309.53125 400 C 294.949219 407.042969 274.410156 394.636719 263.515625 372.257812 C 252.660156 349.878906 255.679688 325.992188 270.261719 318.949219 C 280.535156 313.957031 293.757812 318.636719 304.480469 329.605469 C 305.167969 330.320312 305.515625 331.171875 305.523438 332.164062 L 305.886719 370.078125 L 305.886719 370.289062 L 309.363281 362.703125 L 311.332031 358.46875 C 313.09375 354.78125 314.855469 351.050781 316.613281 347.324219 C 330.820312 317.316406 345.28125 286.847656 350.6875 275.53125 C 361.039062 252.398438 371.890625 232.828125 390.582031 221.679688 C 392.90625 220.316406 395.289062 219.074219 397.738281 217.953125 C 400.1875 216.832031 402.6875 215.839844 405.234375 214.976562 C 407.785156 214.113281 410.375 213.382812 413 212.785156 C 415.625 212.1875 418.273438 211.722656 420.945312 211.398438 C 423.621094 211.070312 426.300781 210.882812 428.992188 210.832031 C 431.6875 210.777344 434.375 210.863281 437.054688 211.089844 C 439.738281 211.3125 442.40625 211.671875 445.050781 212.171875 C 447.695312 212.667969 450.3125 213.300781 452.890625 214.066406 C 454.117188 214.425781 495.15625 200.128906 520.164062 234.582031 C 535.175781 255.257812 537.808594 276.175781 537.808594 303.988281 C 537.808594 314.109375 536.691406 324.105469 534.457031 333.976562 C 534.371094 334.351562 534.351562 334.734375 534.394531 335.117188 Z M 536.425781 353.398438 " fill-opacity="1" fill-rule="nonzero"/><path fill="#242156" d="M 415.847656 337.453125 C 415.847656 331.089844 419.367188 325.929688 423.707031 325.929688 C 428.046875 325.929688 431.5625 331.089844 431.5625 337.453125 C 431.5625 343.820312 428.046875 348.980469 423.707031 348.980469 C 419.367188 348.980469 415.847656 343.820312 415.847656 337.453125 Z M 505.429688 348.980469 C 509.769531 348.980469 513.285156 343.820312 513.285156 337.453125 C 513.285156 331.089844 509.769531 325.929688 505.429688 325.929688 C 501.089844 325.929688 497.570312 331.089844 497.570312 337.453125 C 497.570312 343.820312 501.089844 348.980469 505.429688 348.980469 Z M 277.679688 328.296875 C 269.59375 331.605469 265.316406 340.699219 266.953125 350.003906 C 269.777344 345.429688 273.355469 341.546875 277.679688 338.355469 C 280.242188 336.402344 282.996094 334.773438 285.941406 333.46875 C 288.890625 332.167969 291.945312 331.226562 295.113281 330.644531 C 293.878906 329.722656 292.550781 328.976562 291.125 328.394531 C 289.699219 327.816406 288.226562 327.421875 286.699219 327.21875 C 285.175781 327.011719 283.648438 327 282.121094 327.183594 C 280.59375 327.367188 279.113281 327.738281 277.679688 328.296875 Z M 454.300781 531.882812 C 411.167969 539.785156 366.832031 539.1875 324.84375 528.886719 C 360.953125 556.757812 415.09375 557.128906 454.300781 531.882812 Z M 496.925781 395.117188 L 482.109375 339.90625 C 482.050781 339.671875 481.949219 339.457031 481.808594 339.261719 C 481.664062 339.066406 481.492188 338.902344 481.285156 338.773438 C 481.082031 338.644531 480.863281 338.558594 480.625 338.511719 C 480.386719 338.46875 480.148438 338.46875 479.914062 338.515625 C 479.675781 338.558594 479.453125 338.644531 479.25 338.777344 C 479.046875 338.90625 478.875 339.066406 478.730469 339.261719 C 478.589844 339.457031 478.488281 339.671875 478.429688 339.90625 C 478.367188 340.140625 478.351562 340.378906 478.382812 340.617188 L 485.226562 394.601562 C 485.261719 394.863281 485.265625 395.128906 485.242188 395.390625 C 485.21875 395.652344 485.171875 395.910156 485.09375 396.160156 C 485.015625 396.414062 484.914062 396.65625 484.785156 396.886719 C 484.65625 397.117188 484.503906 397.328125 484.328125 397.527344 C 484.15625 397.726562 483.960938 397.902344 483.75 398.058594 C 483.539062 398.214844 483.3125 398.347656 483.070312 398.457031 C 482.832031 398.566406 482.582031 398.648438 482.324219 398.703125 C 482.066406 398.757812 481.804688 398.785156 481.542969 398.785156 L 466.785156 398.785156 C 466.242188 398.785156 465.75 398.9375 465.300781 399.242188 C 464.851562 399.546875 464.527344 399.949219 464.328125 400.453125 C 464.128906 400.957031 464.085938 401.472656 464.203125 402.003906 C 464.320312 402.53125 464.578125 402.984375 464.972656 403.355469 L 473.734375 411.617188 C 474.089844 411.949219 474.472656 412.25 474.886719 412.511719 C 475.296875 412.773438 475.730469 412.992188 476.183594 413.171875 C 476.636719 413.355469 477.105469 413.488281 477.582031 413.582031 C 478.0625 413.671875 478.546875 413.71875 479.035156 413.71875 C 479.523438 413.71875 480.007812 413.671875 480.484375 413.578125 C 480.964844 413.488281 481.433594 413.351562 481.886719 413.171875 C 482.339844 412.992188 482.773438 412.769531 483.183594 412.507812 C 483.59375 412.246094 483.976562 411.945312 484.332031 411.609375 L 495.148438 401.394531 C 495.566406 401 495.925781 400.558594 496.222656 400.066406 C 496.519531 399.574219 496.746094 399.054688 496.902344 398.5 C 497.058594 397.949219 497.140625 397.386719 497.144531 396.8125 C 497.148438 396.238281 497.074219 395.671875 496.925781 395.117188 Z M 663.742188 607.574219 C 660.808594 611.054688 657.792969 614.492188 654.734375 617.886719 L 649.996094 607.699219 C 648.109375 603.648438 645.988281 599.722656 643.632812 595.925781 C 641.273438 592.125 638.699219 588.480469 635.90625 584.992188 C 633.109375 581.5 630.121094 578.191406 626.929688 575.058594 C 623.738281 571.925781 620.375 568.996094 616.832031 566.269531 C 613.292969 563.539062 609.601562 561.03125 605.757812 558.746094 C 601.917969 556.457031 597.953125 554.410156 593.867188 552.597656 C 589.78125 550.785156 585.601562 549.222656 581.328125 547.910156 C 577.054688 546.597656 572.71875 545.546875 568.316406 544.753906 L 466.773438 526.398438 L 466.773438 508.210938 C 462.074219 510.863281 457.117188 512.875 451.894531 514.238281 C 446.675781 515.601562 441.367188 516.273438 435.96875 516.257812 C 419.207031 516.257812 403.492188 509.675781 390.164062 498.234375 L 360.117188 476.359375 L 334.339844 457.625 C 331.972656 455.90625 329.851562 453.917969 327.988281 451.660156 C 326.121094 449.402344 324.566406 446.949219 323.320312 444.300781 L 310.664062 417.351562 L 310.664062 442.789062 C 313.46875 451.285156 315.242188 459.988281 315.984375 468.898438 C 319.128906 504.230469 306.683594 541.109375 281.328125 566.085938 C 263.472656 583.6875 240.632812 595.171875 219.59375 608.789062 C 205.136719 618.179688 190.929688 629.242188 180.703125 642.945312 C 176.765625 639.46875 172.910156 635.863281 169.136719 632.132812 C 180.578125 617.550781 196.125 605.941406 211.882812 595.800781 C 233.929688 581.632812 257.523438 569.101562 275.835938 550.285156 C 281.015625 544.984375 285.542969 539.171875 289.414062 532.851562 C 283.695312 538.386719 277.40625 543.175781 270.554688 547.226562 C 245.410156 562.019531 216.117188 568.558594 190.679688 582.808594 C 183.355469 586.910156 176.578125 591.773438 170.355469 597.40625 C 164.128906 603.035156 158.613281 609.289062 153.800781 616.167969 L 153.789062 616.167969 C 141.070312 602.054688 129.660156 586.953125 119.558594 570.863281 L 284.429688 209.441406 C 300.058594 169.125 336.773438 143.898438 373.273438 151.148438 C 381 152.691406 388.207031 155.542969 394.898438 159.695312 C 398.589844 156.664062 402.585938 154.109375 406.886719 152.027344 C 444.351562 133.839844 493.175781 157.058594 515.933594 203.867188 C 518.132812 208.398438 520.035156 213.050781 521.632812 217.824219 L 522.09375 219.125 Z M 534.328125 334.539062 C 536.648438 324.488281 537.808594 314.304688 537.808594 303.988281 C 537.808594 302.816406 537.808594 301.601562 537.765625 300.425781 C 537.765625 299.292969 537.722656 298.164062 537.640625 297.03125 C 537.402344 289.191406 536.648438 281.398438 535.378906 273.65625 C 534.269531 266.902344 532.453125 260.34375 529.933594 253.980469 C 527.410156 247.617188 524.242188 241.59375 520.429688 235.910156 C 510.058594 220.542969 495.570312 208.320312 457.007812 221.386719 C 435.71875 215.140625 408.855469 210.824219 390.582031 221.679688 C 371.890625 232.828125 361.039062 252.398438 350.6875 275.53125 C 345.28125 286.847656 330.820312 317.316406 316.613281 347.324219 C 314.855469 351.050781 313.09375 354.78125 311.332031 358.46875 L 309.363281 362.703125 L 305.886719 370.289062 L 305.886719 370.078125 L 305.507812 330.683594 C 294.613281 318.949219 280.867188 313.796875 270.261719 318.949219 C 255.679688 325.992188 252.660156 349.878906 263.515625 372.257812 C 274.410156 394.636719 294.949219 407.042969 309.53125 400 L 309.574219 400 L 310.664062 402.347656 L 325.414062 433.820312 C 326.660156 436.472656 328.214844 438.925781 330.082031 441.183594 C 331.949219 443.441406 334.066406 445.429688 336.4375 447.148438 L 379.265625 478.328125 L 392.257812 487.757812 C 405.585938 499.199219 421.300781 505.777344 438.066406 505.777344 C 439.40625 505.777344 440.707031 505.738281 442.003906 505.652344 C 443.042969 505.621094 444.078125 505.523438 445.105469 505.359375 C 445.652344 505.316406 446.195312 505.277344 446.699219 505.191406 C 447.664062 505.066406 448.585938 504.898438 449.507812 504.730469 C 450.429688 504.5625 451.308594 504.394531 452.1875 504.1875 C 452.734375 504.0625 453.277344 503.933594 453.824219 503.808594 C 454.578125 503.601562 455.332031 503.390625 456.085938 503.140625 C 457.511719 502.71875 458.894531 502.257812 460.234375 501.753906 C 461.074219 501.421875 461.910156 501.085938 462.75 500.707031 C 464.121094 500.160156 465.464844 499.546875 466.773438 498.863281 L 466.773438 498.820312 C 469.195312 497.570312 471.542969 496.1875 473.8125 494.671875 C 474.566406 494.171875 475.324219 493.667969 476.035156 493.121094 C 476.789062 492.578125 477.5 492.03125 478.257812 491.488281 C 479.679688 490.355469 481.105469 489.183594 482.488281 487.96875 C 483.871094 486.792969 485.210938 485.496094 486.511719 484.152344 C 487.140625 483.484375 487.8125 482.855469 488.441406 482.140625 C 489.070312 481.472656 489.695312 480.800781 490.324219 480.089844 C 490.953125 479.375 491.582031 478.707031 492.167969 477.992188 C 492.796875 477.238281 493.382812 476.527344 493.972656 475.8125 C 495.144531 474.347656 496.320312 472.839844 497.449219 471.289062 C 499.125 469.023438 500.71875 466.636719 502.269531 464.246094 C 502.773438 463.453125 503.316406 462.613281 503.820312 461.816406 C 504.550781 460.660156 505.195312 459.410156 506.003906 458.203125 C 507.296875 456.175781 508.453125 454.070312 509.472656 451.894531 C 509.894531 451.050781 510.355469 450.210938 510.777344 449.371094 C 510.945312 449.035156 511.113281 448.699219 511.28125 448.40625 C 512.285156 446.4375 513.207031 444.464844 514.128906 442.496094 C 514.632812 441.40625 515.136719 440.277344 515.597656 439.1875 C 516.351562 437.511719 517.105469 435.792969 517.777344 434.117188 C 517.859375 433.949219 517.902344 433.78125 517.984375 433.613281 C 518.949219 431.265625 519.871094 428.917969 520.75 426.613281 C 521.171875 425.566406 521.546875 424.476562 521.925781 423.429688 C 522.261719 422.421875 522.636719 421.417969 522.972656 420.453125 C 523.351562 419.40625 523.683594 418.398438 524.019531 417.394531 C 524.144531 417.101562 524.230469 416.765625 524.355469 416.472656 C 524.648438 415.550781 524.941406 414.667969 525.234375 413.789062 C 525.527344 412.867188 525.78125 411.988281 526.074219 411.105469 C 526.410156 410.019531 526.742188 408.929688 527.039062 407.878906 C 528.796875 402.097656 530.136719 396.859375 531.1875 392.457031 C 531.4375 391.492188 531.648438 390.570312 531.855469 389.691406 C 533.15625 384.160156 533.828125 380.429688 533.996094 379.425781 C 534.019531 379.34375 534.03125 379.257812 534.035156 379.171875 C 536.613281 370.746094 537.40625 362.15625 536.425781 353.398438 Z M 534.328125 334.539062 " fill-opacity="1" fill-rule="nonzero"/></svg>