<svg xmlns="http://www.w3.org/2000/svg" xmlns:xlink="http://www.w3.org/1999/xlink" width="1080" zoomAndPan="magnify" viewBox="0 0 810 809.999993" height="1080" preserveAspectRatio="xMidYMid meet" version="1.0"><defs><clipPath id="1c16dda288"><path d="M 68 59.972656 L 742 59.972656 L 742 734 L 68 734 Z M 68 59.972656 " clip-rule="nonzero"/></clipPath></defs><g clip-path="url(#1c16dda288)"><path fill="#38b6ff" d="M 741.738281 396.710938 C 741.738281 402.222656 741.605469 407.730469 741.332031 413.234375 C 741.0625 418.738281 740.65625 424.234375 740.117188 429.71875 C 739.578125 435.203125 738.902344 440.671875 738.09375 446.121094 C 737.285156 451.574219 736.34375 457 735.269531 462.40625 C 734.195312 467.8125 732.988281 473.1875 731.648438 478.53125 C 730.308594 483.878906 728.839844 489.1875 727.238281 494.460938 C 725.640625 499.734375 723.910156 504.96875 722.054688 510.15625 C 720.199219 515.34375 718.214844 520.484375 716.105469 525.578125 C 713.996094 530.667969 711.765625 535.703125 709.410156 540.6875 C 707.050781 545.667969 704.574219 550.589844 701.976562 555.449219 C 699.378906 560.308594 696.664062 565.105469 693.832031 569.832031 C 690.996094 574.558594 688.050781 579.210938 684.988281 583.792969 C 681.925781 588.375 678.753906 592.878906 675.472656 597.308594 C 672.1875 601.734375 668.796875 606.078125 665.300781 610.335938 C 661.804688 614.597656 658.207031 618.769531 654.507812 622.851562 C 650.804688 626.9375 647.007812 630.925781 643.109375 634.824219 C 639.214844 638.71875 635.222656 642.519531 631.140625 646.21875 C 627.054688 649.921875 622.886719 653.519531 618.625 657.015625 C 614.363281 660.511719 610.019531 663.902344 605.59375 667.183594 C 601.167969 670.464844 596.664062 673.640625 592.082031 676.699219 C 587.5 679.761719 582.84375 682.710938 578.117188 685.542969 C 573.390625 688.375 568.597656 691.089844 563.738281 693.691406 C 558.878906 696.289062 553.957031 698.765625 548.972656 701.121094 C 543.992188 703.476562 538.957031 705.710938 533.863281 707.820312 C 528.773438 709.925781 523.632812 711.910156 518.445312 713.765625 C 513.253906 715.625 508.023438 717.351562 502.75 718.953125 C 497.476562 720.550781 492.167969 722.019531 486.820312 723.359375 C 481.472656 724.699219 476.097656 725.90625 470.695312 726.980469 C 465.289062 728.054688 459.859375 729 454.410156 729.808594 C 448.957031 730.617188 443.488281 731.289062 438.003906 731.828125 C 432.519531 732.371094 427.027344 732.777344 421.523438 733.046875 C 416.019531 733.316406 410.511719 733.453125 405 733.453125 C 399.488281 733.453125 393.980469 733.316406 388.476562 733.046875 C 382.972656 732.777344 377.476562 732.371094 371.992188 731.828125 C 366.507812 731.289062 361.039062 730.617188 355.589844 729.808594 C 350.136719 729 344.710938 728.054688 339.304688 726.980469 C 333.898438 725.90625 328.523438 724.699219 323.179688 723.359375 C 317.832031 722.019531 312.523438 720.550781 307.25 718.953125 C 301.976562 717.351562 296.742188 715.625 291.554688 713.765625 C 286.367188 711.910156 281.226562 709.925781 276.132812 707.820312 C 271.042969 705.710938 266.007812 703.476562 261.023438 701.121094 C 256.042969 698.765625 251.121094 696.289062 246.261719 693.691406 C 241.402344 691.089844 236.609375 688.375 231.878906 685.542969 C 227.152344 682.710938 222.5 679.761719 217.917969 676.699219 C 213.335938 673.640625 208.832031 670.464844 204.402344 667.183594 C 199.976562 663.902344 195.632812 660.511719 191.375 657.015625 C 187.113281 653.519531 182.941406 649.921875 178.859375 646.21875 C 174.777344 642.519531 170.785156 638.71875 166.886719 634.824219 C 162.992188 630.925781 159.191406 626.9375 155.492188 622.851562 C 151.789062 618.769531 148.191406 614.597656 144.695312 610.335938 C 141.199219 606.078125 137.808594 601.734375 134.527344 597.308594 C 131.246094 592.878906 128.074219 588.375 125.011719 583.792969 C 121.949219 579.210938 119 574.558594 116.167969 569.832031 C 113.335938 565.105469 110.621094 560.308594 108.023438 555.449219 C 105.421875 550.589844 102.945312 545.667969 100.589844 540.6875 C 98.234375 535.703125 96 530.667969 93.890625 525.578125 C 91.785156 520.484375 89.800781 515.34375 87.945312 510.15625 C 86.085938 504.96875 84.359375 499.734375 82.757812 494.460938 C 81.160156 489.1875 79.691406 483.878906 78.351562 478.53125 C 77.011719 473.1875 75.804688 467.8125 74.730469 462.40625 C 73.65625 457 72.714844 451.574219 71.90625 446.121094 C 71.097656 440.671875 70.421875 435.203125 69.882812 429.71875 C 69.339844 424.234375 68.9375 418.738281 68.664062 413.234375 C 68.394531 407.730469 68.261719 402.222656 68.261719 396.710938 C 68.261719 210.730469 219.015625 59.972656 405 59.972656 C 590.980469 59.972656 741.738281 210.730469 741.738281 396.710938 Z M 741.738281 396.710938 " fill-opacity="1" fill-rule="nonzero"/></g><path fill="#f47e53" d="M 565.648438 574.457031 C 533.320312 615.105469 473.464844 642.425781 405 642.425781 C 389.960938 642.507812 375.050781 641.179688 360.265625 638.433594 C 345.480469 635.691406 331.085938 631.585938 317.078125 626.117188 C 287.855469 614.566406 263.308594 597.390625 246.046875 576.570312 C 251.015625 577.617188 256.035156 578.144531 261.113281 578.140625 C 308.511719 578.140625 347.296875 533.269531 349.945312 476.726562 C 296.050781 453.378906 258.050781 396.878906 258.050781 330.8125 C 258.035156 320.007812 259.054688 309.300781 261.113281 298.691406 C 274.277344 230.679688 328.503906 178.730469 394.816406 173.886719 C 398.167969 173.640625 401.5625 173.515625 405 173.515625 C 408.433594 173.515625 411.828125 173.640625 415.183594 173.886719 C 481.453125 178.730469 535.679688 230.679688 548.886719 298.691406 C 550.941406 309.300781 551.964844 320.007812 551.949219 330.8125 C 551.949219 399.320312 511.007812 457.601562 453.925781 479.167969 C 457.15625 529.046875 488.613281 569.367188 528.972656 576.859375 C 533.472656 577.726562 538.011719 578.15625 542.59375 578.140625 C 550.472656 578.140625 558.160156 576.910156 565.648438 574.457031 Z M 565.648438 574.457031 " fill-opacity="1" fill-rule="nonzero"/><path fill="#242156" d="M 548.886719 298.691406 C 538.160156 301.5625 527.246094 302.980469 516.140625 302.953125 C 466.757812 302.953125 424.164062 275.097656 405 235.027344 C 385.835938 275.097656 343.238281 302.953125 293.855469 302.953125 C 282.753906 302.980469 271.839844 301.5625 261.113281 298.691406 C 274.277344 230.679688 328.503906 178.730469 394.816406 173.886719 C 398.167969 173.640625 401.5625 173.515625 405 173.515625 C 408.433594 173.515625 411.828125 173.640625 415.183594 173.886719 C 481.453125 178.730469 535.679688 230.679688 548.886719 298.691406 Z M 676.046875 388.351562 C 634.15625 377.585938 574.21875 327.171875 548.761719 298.773438 C 550.820312 309.355469 551.839844 320.035156 551.824219 330.8125 C 551.824219 399.277344 510.96875 457.5625 453.925781 479.128906 L 453.925781 479.210938 C 446.105469 482.152344 438.085938 484.375 429.863281 485.867188 C 421.644531 487.363281 413.355469 488.109375 405 488.109375 C 395.527344 488.121094 386.152344 487.160156 376.878906 485.230469 C 367.605469 483.296875 358.625 480.4375 349.945312 476.644531 L 349.945312 476.726562 C 296.050781 453.378906 258.050781 396.878906 258.050781 330.8125 C 258.035156 320.035156 259.054688 309.355469 261.113281 298.773438 C 235.65625 327.171875 175.675781 377.585938 133.828125 388.351562 C 133.519531 388.433594 133.21875 388.550781 132.933594 388.695312 C 132.648438 388.84375 132.382812 389.019531 132.136719 389.222656 C 131.886719 389.425781 131.664062 389.65625 131.464844 389.90625 C 131.261719 390.15625 131.09375 390.425781 130.949219 390.714844 C 130.804688 391 130.695312 391.300781 130.617188 391.613281 C 130.535156 391.921875 130.492188 392.238281 130.480469 392.558594 C 130.464844 392.878906 130.488281 393.199219 130.542969 393.515625 C 130.597656 393.832031 130.6875 394.136719 130.804688 394.433594 C 138.339844 412.8125 156.96875 427.34375 177.996094 429 C 178.992188 429.0625 179.960938 429.269531 180.898438 429.613281 C 181.839844 429.960938 182.707031 430.433594 183.507812 431.03125 C 184.308594 431.632812 185.007812 432.332031 185.605469 433.132812 C 186.203125 433.9375 186.675781 434.808594 187.019531 435.746094 C 208.792969 495.023438 247.828125 526.152344 316.042969 526.152344 C 323.40625 526.164062 330.734375 525.65625 338.023438 524.621094 C 342.285156 515.726562 345.417969 506.457031 347.421875 496.800781 C 354.175781 499.492188 361.125 501.511719 368.269531 502.855469 C 375.414062 504.199219 382.621094 504.84375 389.890625 504.792969 C 416.21875 504.792969 439.769531 496.472656 454.300781 483.640625 C 455.59375 497.589844 459.222656 510.90625 465.1875 523.585938 C 474.65625 525.304688 484.203125 526.160156 493.832031 526.152344 C 562.046875 526.152344 601.082031 495.023438 622.855469 435.746094 C 623.199219 434.808594 623.671875 433.9375 624.269531 433.132812 C 624.867188 432.332031 625.566406 431.632812 626.367188 431.03125 C 627.167969 430.433594 628.035156 429.960938 628.976562 429.613281 C 629.914062 429.269531 630.882812 429.0625 631.878906 429 C 652.90625 427.34375 671.492188 412.8125 679.070312 394.433594 C 679.1875 394.136719 679.273438 393.832031 679.324219 393.515625 C 679.378906 393.199219 679.398438 392.882812 679.386719 392.5625 C 679.371094 392.242188 679.324219 391.925781 679.246094 391.617188 C 679.167969 391.304688 679.054688 391.007812 678.914062 390.71875 C 678.769531 390.433594 678.601562 390.164062 678.402344 389.914062 C 678.203125 389.660156 677.980469 389.433594 677.730469 389.230469 C 677.484375 389.027344 677.21875 388.851562 676.9375 388.703125 C 676.652344 388.554688 676.355469 388.4375 676.046875 388.351562 Z M 454.257812 346.714844 C 459.535156 346.714844 463.8125 340.96875 463.8125 333.882812 C 463.8125 326.796875 459.535156 321.054688 454.257812 321.054688 C 448.980469 321.054688 444.703125 326.796875 444.703125 333.882812 C 444.703125 340.96875 448.980469 346.714844 454.257812 346.714844 Z M 348.703125 346.714844 C 353.980469 346.714844 358.257812 340.96875 358.257812 333.882812 C 358.257812 326.796875 353.980469 321.054688 348.703125 321.054688 C 343.425781 321.054688 339.148438 326.796875 339.148438 333.882812 C 339.148438 340.96875 343.425781 346.714844 348.703125 346.714844 Z M 383.585938 382.234375 L 404.796875 405.375 C 404.929688 405.519531 405.089844 405.636719 405.273438 405.714844 C 405.457031 405.796875 405.648438 405.835938 405.847656 405.835938 C 406.046875 405.835938 406.238281 405.796875 406.421875 405.714844 C 406.605469 405.636719 406.765625 405.519531 406.902344 405.375 L 426.421875 384.078125 C 426.613281 383.871094 426.730469 383.625 426.777344 383.347656 C 426.824219 383.066406 426.789062 382.796875 426.675781 382.539062 C 426.5625 382.28125 426.386719 382.074219 426.148438 381.917969 C 425.910156 381.761719 425.652344 381.6875 425.367188 381.6875 L 397.023438 381.6875 C 396.828125 381.6875 396.636719 381.644531 396.457031 381.566406 C 396.277344 381.488281 396.117188 381.378906 395.980469 381.234375 C 395.847656 381.089844 395.746094 380.925781 395.679688 380.738281 C 395.613281 380.550781 395.585938 380.359375 395.601562 380.164062 L 399.460938 321.402344 C 399.472656 321.222656 399.453125 321.046875 399.398438 320.878906 C 399.34375 320.707031 399.257812 320.550781 399.144531 320.410156 C 399.03125 320.269531 398.898438 320.15625 398.742188 320.066406 C 398.585938 319.980469 398.417969 319.921875 398.238281 319.894531 C 398.0625 319.871094 397.882812 319.878906 397.710938 319.917969 C 397.535156 319.960938 397.371094 320.03125 397.226562 320.132812 C 397.078125 320.238281 396.953125 320.363281 396.851562 320.511719 C 396.75 320.660156 396.679688 320.824219 396.640625 321 L 383.242188 380.957031 C 383.136719 381.445312 383.25 381.867188 383.585938 382.234375 Z M 542.59375 578.140625 C 538.011719 578.15625 533.472656 577.726562 528.972656 576.859375 C 519.363281 583.742188 509.261719 589.8125 498.671875 595.070312 C 488.085938 600.324219 477.144531 604.699219 465.847656 608.195312 C 428.097656 620.15625 388.195312 623.714844 348.621094 625.082031 C 338.148438 625.453125 327.59375 625.660156 317.078125 626.117188 C 331.085938 631.585938 345.480469 635.691406 360.265625 638.433594 C 375.050781 641.179688 389.960938 642.507812 405 642.425781 C 473.464844 642.425781 533.320312 615.105469 565.648438 574.457031 C 558.160156 576.910156 550.472656 578.140625 542.59375 578.140625 Z M 542.59375 578.140625 " fill-opacity="1" fill-rule="nonzero"/><path fill="#fcc00a" d="M 550.125 464.058594 C 534.191406 475.113281 511.464844 471.46875 493.003906 456.773438 C 495.527344 454.789062 497.96875 452.675781 500.328125 450.484375 C 505.296875 445.914062 509.949219 441.050781 514.292969 435.886719 C 518.636719 430.726562 522.632812 425.304688 526.28125 419.632812 C 529.933594 413.957031 533.203125 408.070312 536.101562 401.976562 C 538.996094 395.882812 541.492188 389.628906 543.585938 383.21875 C 544.164062 381.4375 544.746094 379.699219 545.242188 377.878906 C 548.066406 380.867188 550.644531 384.054688 552.984375 387.441406 C 572.273438 415.257812 570.988281 449.53125 550.125 464.058594 Z M 632.957031 552.269531 C 630.347656 552.023438 627.699219 551.898438 625.007812 551.898438 C 619.539062 551.890625 614.113281 552.378906 608.730469 553.359375 C 603.347656 554.34375 598.101562 555.804688 592.988281 557.75 C 587.875 559.691406 582.976562 562.078125 578.300781 564.914062 C 573.621094 567.75 569.238281 570.988281 565.152344 574.625 C 565.316406 574.582031 565.484375 574.5 565.648438 574.457031 C 533.320312 615.105469 473.464844 642.425781 405 642.425781 C 389.960938 642.507812 375.050781 641.179688 360.265625 638.4375 C 345.480469 635.691406 331.085938 631.585938 317.078125 626.117188 C 287.855469 614.566406 263.308594 597.390625 246.046875 576.570312 L 246.171875 576.570312 C 245.121094 575.578125 244.050781 574.617188 242.957031 573.675781 C 241.863281 572.738281 240.746094 571.828125 239.609375 570.941406 C 238.46875 570.058594 237.3125 569.199219 236.132812 568.371094 C 234.953125 567.542969 233.753906 566.742188 232.539062 565.96875 C 231.320312 565.199219 230.085938 564.453125 228.832031 563.742188 C 227.582031 563.027344 226.3125 562.347656 225.027344 561.695312 C 223.742188 561.042969 222.441406 560.417969 221.125 559.828125 C 219.808594 559.238281 218.480469 558.679688 217.140625 558.152344 C 215.796875 557.628906 214.445312 557.132812 213.078125 556.671875 C 211.714844 556.207031 210.335938 555.78125 208.953125 555.382812 C 207.566406 554.988281 206.171875 554.625 204.769531 554.292969 C 203.363281 553.964844 201.953125 553.667969 200.535156 553.40625 C 199.117188 553.144531 197.695312 552.917969 196.269531 552.722656 C 194.839844 552.527344 193.40625 552.367188 191.972656 552.242188 C 190.535156 552.117188 189.097656 552.023438 187.65625 551.96875 C 186.214844 551.910156 184.777344 551.890625 183.332031 551.902344 C 181.890625 551.914062 180.453125 551.960938 179.011719 552.039062 C 177.574219 552.121094 176.136719 552.234375 174.703125 552.386719 C 173.269531 552.535156 171.839844 552.71875 170.414062 552.9375 C 168.992188 553.152344 167.570312 553.40625 166.160156 553.691406 C 164.746094 553.976562 163.339844 554.296875 161.941406 554.648438 C 160.546875 555 159.15625 555.386719 157.777344 555.804688 C 156.398438 556.226562 155.03125 556.675781 153.671875 557.160156 C 152.316406 557.644531 150.96875 558.164062 149.636719 558.710938 C 148.304688 559.261719 146.984375 559.839844 145.679688 560.453125 C 144.375 561.066406 143.085938 561.707031 141.808594 562.382812 C 140.535156 563.054688 139.277344 563.757812 138.035156 564.492188 C 136.796875 565.226562 135.574219 565.988281 134.367188 566.78125 C 133.164062 567.574219 131.980469 568.394531 130.816406 569.242188 C 129.648438 570.089844 128.503906 570.964844 127.382812 571.871094 C 126.257812 572.773438 125.15625 573.703125 124.078125 574.660156 C 123 575.617188 121.945312 576.597656 120.914062 577.601562 C 124.691406 583.542969 128.65625 589.355469 132.800781 595.046875 C 136.945312 600.734375 141.261719 606.289062 145.753906 611.707031 C 150.25 617.128906 154.90625 622.402344 159.730469 627.527344 C 164.554688 632.652344 169.53125 637.625 174.667969 642.441406 C 179.804688 647.253906 185.085938 651.902344 190.511719 656.386719 C 195.9375 660.871094 201.5 665.179688 207.195312 669.3125 C 212.894531 673.449219 218.714844 677.402344 224.660156 681.171875 C 230.605469 684.941406 236.660156 688.519531 242.832031 691.910156 C 249 695.300781 255.269531 698.492188 261.636719 701.488281 C 268.007812 704.488281 274.464844 707.28125 281.007812 709.871094 C 287.554688 712.464844 294.171875 714.847656 300.867188 717.027344 C 307.5625 719.203125 314.316406 721.167969 321.136719 722.921875 C 327.953125 724.671875 334.820312 726.210938 341.730469 727.535156 C 348.644531 728.855469 355.59375 729.960938 362.578125 730.847656 C 369.5625 731.734375 376.566406 732.402344 383.589844 732.847656 C 390.613281 733.296875 397.648438 733.523438 404.6875 733.53125 C 411.726562 733.539062 418.757812 733.324219 425.785156 732.890625 C 432.808594 732.457031 439.816406 731.800781 446.800781 730.925781 C 453.785156 730.054688 460.734375 728.960938 467.652344 727.652344 C 474.566406 726.34375 481.4375 724.820312 488.257812 723.078125 C 495.078125 721.339844 501.835938 719.386719 508.535156 717.222656 C 515.234375 715.058594 521.859375 712.6875 528.40625 710.105469 C 534.957031 707.527344 541.417969 704.746094 547.796875 701.761719 C 554.171875 698.777344 560.445312 695.59375 566.621094 692.214844 C 572.796875 688.839844 578.859375 685.269531 584.8125 681.511719 C 590.765625 677.753906 596.59375 673.8125 602.296875 669.6875 C 608.003906 665.5625 613.570312 661.265625 619.007812 656.792969 C 624.441406 652.320312 629.734375 647.679688 634.875 642.875 C 640.019531 638.070312 645.011719 633.109375 649.84375 627.992188 C 654.675781 622.875 659.34375 617.609375 663.847656 612.199219 C 668.351562 606.789062 672.679688 601.242188 676.835938 595.5625 C 680.992188 589.878906 684.964844 584.074219 688.753906 578.140625 C 685.035156 574.445312 681.027344 571.097656 676.722656 568.101562 C 672.417969 565.101562 667.890625 562.5 663.132812 560.296875 C 658.375 558.089844 653.460938 556.3125 648.394531 554.964844 C 643.328125 553.617188 638.179688 552.71875 632.957031 552.269531 Z M 308.925781 449.902344 C 303.789062 445.105469 298.992188 439.988281 294.535156 434.550781 C 290.082031 429.117188 286.003906 423.410156 282.304688 417.433594 C 278.609375 411.457031 275.320312 405.261719 272.445312 398.847656 C 269.570312 392.433594 267.132812 385.855469 265.128906 379.121094 C 264.757812 377.917969 264.382812 376.675781 264.054688 375.433594 C 260.273438 379.109375 256.878906 383.113281 253.871094 387.441406 C 234.582031 415.257812 235.863281 449.53125 256.769531 464.058594 C 273.117188 475.402344 296.671875 471.261719 315.421875 455.53125 C 313.1875 453.710938 311.035156 451.847656 308.925781 449.902344 Z M 308.925781 449.902344 " fill-opacity="1" fill-rule="nonzero"/><path fill="#ff5e64" d="M 308.925781 449.902344 C 296.464844 453.464844 283.964844 452.222656 274.113281 445.351562 C 255.734375 432.640625 252.546875 404.578125 265.128906 379.121094 C 267.132812 385.855469 269.570312 392.433594 272.445312 398.847656 C 275.320312 405.261719 278.609375 411.457031 282.304688 417.433594 C 286.003906 423.410156 290.082031 429.117188 294.535156 434.550781 C 298.992188 439.988281 303.789062 445.105469 308.925781 449.902344 Z M 625.007812 551.898438 C 619.539062 551.890625 614.113281 552.378906 608.730469 553.359375 C 603.347656 554.34375 598.101562 555.804688 592.988281 557.75 C 587.875 559.691406 582.976562 562.078125 578.300781 564.914062 C 573.621094 567.75 569.238281 570.988281 565.152344 574.625 C 565.316406 574.582031 565.484375 574.5 565.648438 574.457031 C 533.320312 615.105469 473.464844 642.425781 405 642.425781 C 389.960938 642.507812 375.050781 641.179688 360.265625 638.4375 C 345.480469 635.691406 331.085938 631.585938 317.078125 626.117188 C 297.25 627.027344 277.546875 628.847656 258.546875 634.230469 C 247.996094 637.253906 237.855469 641.308594 228.125 646.390625 C 218.394531 651.46875 209.273438 657.476562 200.761719 664.40625 C 205.582031 668.078125 210.496094 671.617188 215.507812 675.027344 C 220.519531 678.433594 225.617188 681.703125 230.804688 684.839844 C 235.988281 687.972656 241.257812 690.960938 246.605469 693.8125 C 251.953125 696.660156 257.371094 699.363281 262.867188 701.921875 C 268.359375 704.480469 273.917969 706.886719 279.542969 709.144531 C 285.164062 711.402344 290.84375 713.507812 296.582031 715.460938 C 302.316406 717.414062 308.101562 719.207031 313.933594 720.847656 C 319.769531 722.488281 325.640625 723.972656 331.554688 725.296875 C 337.46875 726.621094 343.410156 727.785156 349.386719 728.789062 C 355.363281 729.792969 361.363281 730.632812 367.382812 731.316406 C 373.40625 731.996094 379.441406 732.515625 385.488281 732.871094 C 391.539062 733.226562 397.59375 733.417969 403.652344 733.449219 C 409.710938 733.476562 415.765625 733.34375 421.820312 733.046875 C 427.871094 732.75 433.910156 732.292969 439.9375 731.667969 C 445.964844 731.046875 451.972656 730.265625 457.957031 729.316406 C 463.941406 728.371094 469.898438 727.265625 475.824219 726 C 476.488281 725.132812 477.148438 724.261719 477.851562 723.394531 C 497.101562 699.425781 521.234375 679.929688 545.242188 660.765625 C 569.210938 641.558594 593.464844 622.226562 613.003906 598.546875 C 620.332031 589.691406 626.996094 580.085938 630.511719 569.199219 C 632.347656 563.703125 633.160156 558.0625 632.957031 552.269531 C 630.347656 552.023438 627.699219 551.898438 625.007812 551.898438 Z M 543.585938 383.21875 C 541.492188 389.628906 538.996094 395.882812 536.101562 401.976562 C 533.203125 408.070312 529.933594 413.957031 526.28125 419.632812 C 522.632812 425.304688 518.636719 430.726562 514.292969 435.886719 C 509.949219 441.050781 505.296875 445.914062 500.328125 450.484375 C 512.003906 453.257812 523.511719 451.765625 532.742188 445.351562 C 550.125 433.304688 553.933594 407.515625 543.585938 383.21875 Z M 543.585938 383.21875 " fill-opacity="1" fill-rule="nonzero"/></svg>