<svg xmlns="http://www.w3.org/2000/svg" xmlns:xlink="http://www.w3.org/1999/xlink" width="1080" zoomAndPan="magnify" viewBox="0 0 810 809.999993" height="1080" preserveAspectRatio="xMidYMid meet" version="1.0"><defs><clipPath id="5cef60c39f"><path d="M 67.5 48.714844 L 742.5 48.714844 L 742.5 724 L 67.5 724 Z M 67.5 48.714844 " clip-rule="nonzero"/></clipPath></defs><g clip-path="url(#5cef60c39f)"><path fill="#ff66c4" d="M 742.5 386.332031 C 742.523438 399.066406 741.824219 411.761719 740.402344 424.417969 C 738.980469 437.074219 736.84375 449.609375 733.992188 462.019531 C 731.140625 474.433594 727.59375 486.640625 723.347656 498.648438 C 719.105469 510.65625 714.191406 522.382812 708.609375 533.832031 C 708.445312 534.246094 708.238281 534.578125 708.070312 534.992188 C 707.78125 535.574219 707.449219 536.238281 707.160156 536.816406 C 696.359375 558.578125 683.320312 578.902344 668.042969 597.792969 C 664.851562 601.773438 661.574219 605.671875 658.171875 609.488281 C 657.675781 610.027344 657.136719 610.652344 656.636719 611.230469 C 653.777344 614.425781 650.871094 617.535156 647.84375 620.648438 L 647.59375 620.894531 C 645.355469 623.21875 643.074219 625.542969 640.75 627.824219 C 638.925781 629.605469 637.101562 631.308594 635.234375 633.050781 C 633.699219 634.582031 632.082031 635.996094 630.503906 637.445312 C 626.234375 641.34375 621.796875 645.035156 617.316406 648.769531 L 617.273438 648.769531 C 613.148438 652.109375 608.945312 655.351562 604.667969 658.492188 C 600.390625 661.632812 596.039062 664.671875 591.617188 667.605469 C 587.195312 670.542969 582.703125 673.371094 578.148438 676.09375 C 573.59375 678.816406 568.976562 681.433594 564.296875 683.9375 C 559.617188 686.445312 554.882812 688.839844 550.089844 691.121094 C 545.296875 693.402344 540.453125 695.570312 535.558594 697.621094 C 530.664062 699.675781 525.722656 701.613281 520.738281 703.433594 C 515.753906 705.253906 510.726562 706.953125 505.660156 708.539062 C 500.59375 710.121094 495.492188 711.582031 490.355469 712.925781 C 485.222656 714.265625 480.058594 715.484375 474.863281 716.582031 C 469.671875 717.683594 464.453125 718.65625 459.214844 719.507812 C 453.976562 720.359375 448.71875 721.085938 443.445312 721.691406 C 438.171875 722.292969 432.890625 722.773438 427.59375 723.128906 C 422.296875 723.480469 416.996094 723.710938 411.6875 723.8125 C 406.382812 723.917969 401.074219 723.894531 395.769531 723.75 C 390.464844 723.601562 385.164062 723.332031 379.871094 722.933594 C 374.578125 722.535156 369.296875 722.015625 364.027344 721.367188 C 358.761719 720.722656 353.511719 719.949219 348.277344 719.054688 C 343.046875 718.164062 337.839844 717.144531 332.65625 716.003906 C 327.472656 714.863281 322.316406 713.601562 317.191406 712.21875 C 312.066406 710.835938 306.980469 709.332031 301.925781 707.707031 C 296.871094 706.082031 291.859375 704.339844 286.890625 702.480469 C 281.917969 700.621094 276.992188 698.644531 272.117188 696.550781 C 267.238281 694.457031 262.414062 692.25 257.640625 689.929688 C 252.867188 687.609375 248.148438 685.175781 243.492188 682.632812 C 238.832031 680.089844 234.234375 677.4375 229.703125 674.675781 C 225.167969 671.914062 220.703125 669.046875 216.304688 666.078125 C 211.90625 663.105469 207.582031 660.03125 203.328125 656.855469 C 199.074219 653.679688 194.898438 650.40625 190.800781 647.03125 C 186.703125 643.660156 182.6875 640.191406 178.753906 636.628906 C 174.816406 633.066406 170.96875 629.414062 167.207031 625.667969 C 163.445312 621.925781 159.773438 618.09375 156.191406 614.175781 C 155.695312 613.636719 155.238281 613.140625 154.742188 612.601562 C 153.660156 611.480469 152.625 610.277344 151.589844 609.117188 C 150.71875 608.078125 149.804688 607.082031 148.933594 606.046875 C 138.820312 594.289062 129.570312 581.886719 121.183594 568.839844 C 121.019531 568.554688 120.839844 568.277344 120.644531 568.011719 C 120.5625 567.886719 120.480469 567.761719 120.394531 567.636719 C 118.074219 564.027344 115.832031 560.296875 113.675781 556.601562 C 106.152344 543.75 99.507812 530.453125 93.753906 516.714844 C 87.996094 502.980469 83.171875 488.921875 79.285156 474.542969 C 75.398438 460.164062 72.476562 445.589844 70.527344 430.824219 C 68.578125 416.058594 67.613281 401.226562 67.632812 386.332031 C 67.632812 200.007812 218.703125 48.941406 405.066406 48.941406 C 579.734375 48.941406 723.417969 181.671875 740.757812 351.78125 C 741.925781 363.265625 742.503906 374.785156 742.5 386.332031 Z M 742.5 386.332031 " fill-opacity="1" fill-rule="nonzero"/></g><path fill="#e7dcc1" d="M 668.042969 597.792969 C 664.851562 601.773438 661.574219 605.671875 658.171875 609.488281 C 657.675781 610.027344 657.136719 610.652344 656.636719 611.230469 C 653.777344 614.425781 650.871094 617.535156 647.84375 620.648438 L 647.59375 620.894531 C 645.355469 623.21875 643.074219 625.542969 640.75 627.824219 C 638.925781 629.605469 637.101562 631.308594 635.234375 633.050781 C 633.699219 634.582031 632.082031 635.996094 630.503906 637.445312 C 626.234375 641.34375 621.796875 645.035156 617.316406 648.769531 L 617.273438 648.769531 C 613.148438 652.109375 608.945312 655.351562 604.667969 658.492188 C 600.390625 661.632812 596.039062 664.671875 591.617188 667.605469 C 587.195312 670.542969 582.703125 673.371094 578.148438 676.09375 C 573.59375 678.816406 568.976562 681.433594 564.296875 683.9375 C 559.617188 686.445312 554.882812 688.839844 550.089844 691.121094 C 545.296875 693.402344 540.453125 695.570312 535.558594 697.621094 C 530.664062 699.675781 525.722656 701.613281 520.738281 703.433594 C 515.75 705.253906 510.726562 706.953125 505.660156 708.539062 C 500.59375 710.121094 495.492188 711.582031 490.355469 712.925781 C 485.222656 714.265625 480.058594 715.484375 474.863281 716.582031 C 469.671875 717.683594 464.453125 718.65625 459.214844 719.507812 C 453.976562 720.359375 448.71875 721.085938 443.445312 721.691406 C 438.171875 722.292969 432.890625 722.773438 427.59375 723.128906 C 422.296875 723.480469 416.996094 723.710938 411.6875 723.8125 C 406.382812 723.917969 401.074219 723.894531 395.769531 723.75 C 390.464844 723.601562 385.164062 723.332031 379.871094 722.933594 C 374.578125 722.535156 369.296875 722.015625 364.027344 721.367188 C 358.761719 720.722656 353.511719 719.949219 348.277344 719.054688 C 343.046875 718.164062 337.839844 717.144531 332.65625 716.003906 C 327.472656 714.863281 322.316406 713.601562 317.191406 712.21875 C 312.066406 710.835938 306.980469 709.332031 301.925781 707.707031 C 296.871094 706.082031 291.859375 704.339844 286.890625 702.480469 C 281.917969 700.621094 276.992188 698.644531 272.117188 696.550781 C 267.238281 694.457031 262.414062 692.25 257.640625 689.929688 C 252.867188 687.609375 248.148438 685.175781 243.492188 682.632812 C 238.832031 680.089844 234.234375 677.4375 229.703125 674.675781 C 225.167969 671.914062 220.703125 669.046875 216.304688 666.078125 C 211.90625 663.105469 207.582031 660.03125 203.328125 656.855469 C 199.074219 653.679688 194.898438 650.40625 190.800781 647.03125 C 186.703125 643.660156 182.6875 640.191406 178.753906 636.628906 C 174.816406 633.066406 170.96875 629.414062 167.207031 625.667969 C 163.445312 621.925781 159.773438 618.09375 156.191406 614.175781 C 155.695312 613.636719 155.238281 613.140625 154.742188 612.601562 C 153.660156 611.480469 152.625 610.277344 151.589844 609.117188 C 217.207031 552 311.695312 516.160156 416.679688 516.160156 C 514.570312 516.160156 603.335938 547.3125 668.042969 597.792969 Z M 542.09375 322.980469 L 526.785156 173.796875 C 526.402344 171.296875 525.886719 168.820312 525.234375 166.371094 C 524.585938 163.921875 523.808594 161.515625 522.902344 159.152344 C 521.992188 156.785156 520.960938 154.476562 519.804688 152.222656 C 518.652344 149.96875 517.378906 147.78125 515.988281 145.664062 C 514.597656 143.546875 513.097656 141.511719 511.488281 139.554688 C 509.878906 137.597656 508.171875 135.734375 506.363281 133.960938 C 504.554688 132.1875 502.65625 130.515625 500.667969 128.949219 C 498.675781 127.378906 496.609375 125.921875 494.464844 124.574219 C 438.132812 89.339844 374.300781 87.867188 314.90625 124.089844 C 312.664062 125.457031 310.503906 126.945312 308.429688 128.550781 C 306.355469 130.160156 304.375 131.878906 302.488281 133.707031 C 300.601562 135.535156 298.824219 137.460938 297.152344 139.484375 C 295.480469 141.511719 293.925781 143.621094 292.488281 145.820312 C 291.050781 148.015625 289.742188 150.285156 288.554688 152.628906 C 287.371094 154.972656 286.320312 157.375 285.398438 159.835938 C 284.480469 162.292969 283.703125 164.796875 283.0625 167.34375 C 282.421875 169.890625 281.921875 172.464844 281.566406 175.066406 L 268.0625 324.019531 Z M 542.09375 322.980469 " fill-opacity="1" fill-rule="nonzero"/><path fill="#b84f43" d="M 494.570312 432.21875 L 494.570312 549.386719 L 321.082031 549.386719 L 321.082031 439.03125 C 318.597656 436.921875 316.195312 434.71875 313.878906 432.425781 C 311.558594 430.132812 309.332031 427.753906 307.195312 425.292969 C 305.058594 422.828125 303.015625 420.289062 301.074219 417.671875 C 299.128906 415.054688 297.289062 412.363281 295.546875 409.605469 C 293.808594 406.847656 292.175781 404.027344 290.652344 401.144531 C 289.128906 398.261719 287.714844 395.328125 286.414062 392.335938 C 285.113281 389.347656 283.925781 386.3125 282.855469 383.234375 C 281.785156 380.152344 280.835938 377.035156 280 373.882812 C 279.167969 370.730469 278.457031 367.550781 277.867188 364.34375 C 277.273438 361.136719 276.804688 357.914062 276.460938 354.671875 C 276.113281 351.429688 275.890625 348.175781 275.792969 344.917969 C 275.695312 341.660156 275.71875 338.402344 275.871094 335.144531 C 276.019531 331.886719 276.292969 328.640625 276.6875 325.402344 C 277.085938 322.164062 277.605469 318.949219 278.246094 315.75 C 278.886719 312.554688 279.648438 309.386719 280.53125 306.246094 C 281.414062 303.109375 282.414062 300.007812 283.53125 296.945312 L 289.296875 277.738281 C 290.21875 274.679688 291.257812 271.660156 292.417969 268.679688 C 293.578125 265.703125 294.855469 262.777344 296.25 259.902344 C 297.644531 257.027344 299.152344 254.210938 300.773438 251.457031 C 302.390625 248.699219 304.117188 246.015625 305.953125 243.398438 C 307.789062 240.78125 309.722656 238.242188 311.761719 235.777344 C 313.800781 233.316406 315.933594 230.9375 318.160156 228.648438 C 320.386719 226.355469 322.703125 224.15625 325.105469 222.050781 C 327.511719 219.945312 329.996094 217.9375 332.558594 216.03125 C 335.121094 214.121094 337.757812 212.320312 340.46875 210.621094 C 343.175781 208.925781 345.945312 207.339844 348.78125 205.863281 C 351.617188 204.390625 354.507812 203.03125 357.449219 201.785156 C 360.394531 200.542969 363.382812 199.417969 366.417969 198.414062 C 369.449219 197.40625 372.519531 196.523438 375.625 195.765625 C 378.730469 195.003906 381.859375 194.371094 385.011719 193.863281 C 388.167969 193.351562 391.339844 192.96875 394.523438 192.714844 C 397.710938 192.457031 400.902344 192.332031 404.097656 192.328125 C 407.292969 192.328125 410.484375 192.457031 413.671875 192.710938 C 416.855469 192.964844 420.027344 193.347656 423.179688 193.855469 C 426.335938 194.363281 429.46875 194.996094 432.570312 195.753906 C 435.675781 196.511719 438.746094 197.394531 441.78125 198.398438 C 444.8125 199.402344 447.804688 200.527344 450.746094 201.769531 C 453.691406 203.011719 456.582031 204.371094 459.417969 205.84375 C 462.253906 207.320312 465.023438 208.902344 467.734375 210.601562 C 470.441406 212.296875 473.078125 214.097656 475.644531 216.003906 C 478.210938 217.910156 480.695312 219.917969 483.097656 222.023438 C 485.503906 224.128906 487.820312 226.324219 490.046875 228.617188 C 492.277344 230.90625 494.410156 233.285156 496.449219 235.746094 C 498.488281 238.207031 500.425781 240.746094 502.257812 243.363281 C 504.09375 245.976562 505.824219 248.664062 507.445312 251.417969 C 509.066406 254.171875 510.574219 256.988281 511.96875 259.863281 C 513.363281 262.738281 514.644531 265.664062 515.804688 268.640625 C 516.964844 271.617188 518.007812 274.636719 518.925781 277.699219 L 525.023438 297.898438 C 526.042969 300.75 526.957031 303.636719 527.769531 306.554688 C 528.585938 309.472656 529.292969 312.417969 529.898438 315.386719 C 530.503906 318.355469 531.003906 321.339844 531.398438 324.34375 C 531.792969 327.347656 532.078125 330.359375 532.261719 333.386719 C 532.441406 336.410156 532.515625 339.433594 532.484375 342.464844 C 532.449219 345.492188 532.308594 348.519531 532.0625 351.539062 C 531.816406 354.558594 531.464844 357.5625 531.003906 360.558594 C 530.542969 363.550781 529.980469 366.527344 529.308594 369.480469 C 528.640625 372.4375 527.867188 375.363281 526.988281 378.261719 C 526.113281 381.164062 525.136719 384.027344 524.054688 386.859375 C 522.976562 389.6875 521.796875 392.476562 520.519531 395.226562 C 519.246094 397.972656 517.871094 400.671875 516.40625 403.320312 C 514.9375 405.972656 513.378906 408.566406 511.726562 411.105469 C 510.074219 413.648438 508.335938 416.125 506.511719 418.542969 C 504.683594 420.960938 502.777344 423.308594 500.78125 425.589844 C 498.789062 427.871094 496.71875 430.082031 494.570312 432.21875 Z M 494.570312 432.21875 " fill-opacity="1" fill-rule="nonzero"/><path fill="#242156" d="M 452.722656 287.410156 C 452.722656 280.25 455.972656 274.449219 459.980469 274.449219 C 463.992188 274.449219 467.242188 280.25 467.242188 287.410156 C 467.242188 294.570312 463.992188 300.371094 459.980469 300.371094 C 455.972656 300.371094 452.722656 294.570312 452.722656 287.410156 Z M 355.105469 300.371094 C 359.117188 300.371094 362.367188 294.570312 362.367188 287.410156 C 362.367188 280.25 359.117188 274.449219 355.105469 274.449219 C 351.097656 274.449219 347.847656 280.25 347.847656 287.410156 C 347.847656 294.570312 351.097656 300.371094 355.105469 300.371094 Z M 415.902344 270.972656 C 415.765625 270.460938 415.542969 269.988281 415.230469 269.558594 C 414.921875 269.128906 414.542969 268.765625 414.101562 268.476562 C 413.65625 268.183594 413.175781 267.984375 412.65625 267.871094 C 412.140625 267.757812 411.617188 267.738281 411.09375 267.820312 C 410.570312 267.898438 410.074219 268.070312 409.613281 268.332031 C 409.152344 268.59375 408.753906 268.929688 408.417969 269.339844 C 408.078125 269.75 407.828125 270.203125 407.660156 270.707031 C 407.488281 271.210938 407.417969 271.726562 407.4375 272.257812 L 410.695312 344.324219 C 410.722656 344.882812 410.691406 345.441406 410.601562 345.996094 C 410.515625 346.554688 410.371094 347.09375 410.175781 347.621094 C 409.976562 348.144531 409.730469 348.648438 409.429688 349.125 C 409.132812 349.597656 408.789062 350.039062 408.398438 350.445312 C 408.011719 350.851562 407.585938 351.214844 407.125 351.535156 C 406.664062 351.855469 406.171875 352.125 405.65625 352.347656 C 405.140625 352.570312 404.605469 352.734375 404.054688 352.847656 C 403.503906 352.960938 402.949219 353.015625 402.386719 353.015625 L 381.472656 353.015625 C 381.046875 353.019531 380.65625 353.144531 380.304688 353.386719 C 379.957031 353.628906 379.703125 353.945312 379.546875 354.34375 C 379.390625 354.742188 379.359375 355.148438 379.453125 355.566406 C 379.550781 355.980469 379.75 356.335938 380.0625 356.625 L 401.714844 377.15625 C 402.058594 377.484375 402.429688 377.777344 402.828125 378.03125 C 403.230469 378.289062 403.648438 378.503906 404.089844 378.679688 C 404.53125 378.855469 404.984375 378.988281 405.449219 379.078125 C 405.914062 379.167969 406.382812 379.210938 406.859375 379.210938 C 407.332031 379.210938 407.800781 379.167969 408.269531 379.078125 C 408.734375 378.988281 409.1875 378.855469 409.628906 378.679688 C 410.066406 378.503906 410.488281 378.289062 410.886719 378.03125 C 411.285156 377.777344 411.65625 377.484375 412 377.15625 L 433.117188 357.109375 C 433.769531 356.488281 434.332031 355.796875 434.796875 355.027344 C 435.261719 354.253906 435.617188 353.4375 435.863281 352.570312 C 436.113281 351.707031 436.238281 350.824219 436.25 349.925781 C 436.257812 349.023438 436.148438 348.140625 435.921875 347.269531 Z M 480.429688 417.398438 C 480.433594 418.589844 480.40625 419.777344 480.347656 420.964844 C 480.289062 422.152344 480.203125 423.335938 480.089844 424.519531 C 479.972656 425.703125 479.828125 426.882812 479.65625 428.058594 C 479.484375 429.234375 479.28125 430.40625 479.050781 431.570312 C 478.820312 432.738281 478.558594 433.898438 478.273438 435.050781 C 477.984375 436.203125 477.667969 437.351562 477.324219 438.488281 C 476.980469 439.625 476.609375 440.753906 476.210938 441.875 C 475.808594 442.996094 475.382812 444.101562 474.929688 445.203125 C 474.476562 446.300781 473.992188 447.386719 473.488281 448.460938 C 472.980469 449.539062 472.445312 450.601562 471.886719 451.648438 C 471.328125 452.699219 470.742188 453.730469 470.132812 454.753906 C 469.519531 455.773438 468.886719 456.777344 468.226562 457.765625 C 467.566406 458.753906 466.882812 459.726562 466.175781 460.683594 C 465.46875 461.636719 464.738281 462.574219 463.984375 463.492188 C 463.230469 464.414062 462.453125 465.3125 461.65625 466.195312 C 460.859375 467.078125 460.039062 467.9375 459.199219 468.777344 C 458.359375 469.621094 457.5 470.4375 456.617188 471.238281 C 455.738281 472.035156 454.839844 472.8125 453.917969 473.566406 C 453 474.324219 452.0625 475.054688 451.109375 475.761719 C 450.15625 476.472656 449.183594 477.15625 448.195312 477.816406 C 447.207031 478.476562 446.203125 479.113281 445.183594 479.726562 C 444.164062 480.335938 443.132812 480.921875 442.082031 481.484375 C 441.035156 482.046875 439.972656 482.578125 438.898438 483.089844 C 437.824219 483.597656 436.738281 484.078125 435.640625 484.535156 C 434.542969 484.988281 433.433594 485.417969 432.3125 485.816406 C 431.195312 486.21875 430.066406 486.59375 428.929688 486.9375 C 427.792969 487.28125 426.644531 487.601562 425.492188 487.890625 C 424.339844 488.179688 423.179688 488.4375 422.015625 488.671875 C 420.847656 488.902344 419.675781 489.105469 418.5 489.28125 C 417.324219 489.453125 416.144531 489.601562 414.964844 489.71875 C 413.78125 489.832031 412.59375 489.921875 411.40625 489.980469 C 410.21875 490.039062 409.03125 490.066406 407.84375 490.066406 C 406.652344 490.066406 405.464844 490.039062 404.277344 489.980469 C 403.089844 489.921875 401.90625 489.832031 400.722656 489.71875 C 399.539062 489.601562 398.359375 489.453125 397.183594 489.28125 C 396.007812 489.105469 394.839844 488.902344 393.671875 488.671875 C 392.507812 488.4375 391.347656 488.179688 390.195312 487.890625 C 389.039062 487.601562 387.894531 487.28125 386.757812 486.9375 C 385.621094 486.59375 384.492188 486.21875 383.371094 485.816406 C 382.253906 485.417969 381.144531 484.988281 380.046875 484.535156 C 378.949219 484.078125 377.863281 483.597656 376.789062 483.089844 C 375.710938 482.578125 374.652344 482.046875 373.601562 481.484375 C 372.554688 480.921875 371.519531 480.335938 370.5 479.726562 C 369.480469 479.113281 368.480469 478.476562 367.492188 477.816406 C 366.503906 477.15625 365.53125 476.472656 364.578125 475.761719 C 363.621094 475.054688 362.683594 474.324219 361.765625 473.566406 C 360.847656 472.8125 359.949219 472.035156 359.066406 471.238281 C 358.1875 470.4375 357.328125 469.621094 356.488281 468.777344 C 355.648438 467.9375 354.828125 467.078125 354.03125 466.195312 C 353.230469 465.3125 352.457031 464.414062 351.703125 463.492188 C 350.949219 462.574219 350.21875 461.636719 349.511719 460.683594 C 348.804688 459.726562 348.121094 458.753906 347.460938 457.765625 C 346.800781 456.777344 346.164062 455.773438 345.554688 454.753906 C 344.945312 453.730469 344.359375 452.699219 343.800781 451.648438 C 343.242188 450.601562 342.707031 449.539062 342.199219 448.460938 C 341.691406 447.386719 341.210938 446.300781 340.757812 445.203125 C 340.304688 444.101562 339.875 442.996094 339.476562 441.875 C 339.078125 440.753906 338.707031 439.625 338.363281 438.488281 C 338.015625 437.351562 337.703125 436.203125 337.414062 435.050781 C 337.125 433.898438 336.867188 432.738281 336.636719 431.570312 C 336.40625 430.40625 336.203125 429.234375 336.03125 428.058594 C 335.855469 426.882812 335.710938 425.703125 335.597656 424.519531 C 335.480469 423.335938 335.394531 422.152344 335.339844 420.964844 C 335.28125 419.777344 335.253906 418.589844 335.253906 417.398438 C 335.257812 416.648438 335.316406 415.902344 335.433594 415.160156 C 335.550781 414.417969 335.722656 413.691406 335.953125 412.976562 C 336.179688 412.261719 336.464844 411.566406 336.800781 410.898438 C 337.136719 410.226562 337.523438 409.585938 337.960938 408.972656 C 338.394531 408.363281 338.875 407.789062 339.402344 407.25 C 339.925781 406.714844 340.488281 406.21875 341.089844 405.769531 C 341.691406 405.320312 342.320312 404.917969 342.984375 404.566406 C 343.648438 404.214844 344.335938 403.914062 345.042969 403.667969 L 403.113281 383.761719 C 404.648438 383.242188 406.222656 382.980469 407.84375 382.980469 C 409.460938 382.980469 411.039062 383.242188 412.570312 383.761719 L 470.640625 403.667969 C 471.351562 403.914062 472.039062 404.214844 472.699219 404.566406 C 473.363281 404.917969 473.996094 405.320312 474.597656 405.769531 C 475.199219 406.21875 475.761719 406.714844 476.285156 407.25 C 476.808594 407.789062 477.289062 408.363281 477.726562 408.972656 C 478.164062 409.585938 478.546875 410.226562 478.886719 410.898438 C 479.222656 411.566406 479.503906 412.261719 479.734375 412.976562 C 479.964844 413.691406 480.136719 414.417969 480.253906 415.160156 C 480.371094 415.902344 480.429688 416.648438 480.429688 417.398438 Z M 459.980469 417.484375 C 459.953125 416.453125 459.765625 415.457031 459.414062 414.488281 C 459.066406 413.519531 458.574219 412.628906 457.9375 411.820312 C 457.304688 411.011719 456.558594 410.320312 455.703125 409.75 C 454.847656 409.179688 453.921875 408.753906 452.929688 408.480469 L 411.246094 395.457031 C 408.976562 394.734375 406.710938 394.734375 404.441406 395.457031 L 362.753906 408.480469 C 361.761719 408.753906 360.839844 409.179688 359.984375 409.75 C 359.125 410.320312 358.382812 411.011719 357.746094 411.820312 C 357.113281 412.628906 356.621094 413.519531 356.269531 414.488281 C 355.921875 415.457031 355.734375 416.453125 355.703125 417.484375 C 355.703125 424.078125 358.9375 430.214844 363.832031 435.734375 C 385.445312 460.164062 430.242188 460.164062 451.851562 435.734375 C 456.746094 430.214844 459.980469 424.078125 459.980469 417.484375 Z M 252.78125 310.886719 L 252.230469 311.730469 C 251.730469 312.488281 251.269531 313.273438 250.84375 314.074219 C 250.417969 314.878906 250.03125 315.703125 249.679688 316.542969 C 249.332031 317.382812 249.023438 318.238281 248.757812 319.105469 C 248.488281 319.972656 248.261719 320.855469 248.074219 321.746094 C 247.890625 322.636719 247.746094 323.53125 247.644531 324.4375 C 247.542969 325.339844 247.484375 326.246094 247.46875 327.15625 C 247.449219 328.066406 247.476562 328.972656 247.546875 329.878906 C 247.613281 330.785156 247.726562 331.6875 247.878906 332.585938 C 248.03125 333.480469 248.226562 334.367188 248.464844 335.246094 C 248.703125 336.125 248.980469 336.992188 249.296875 337.84375 C 249.617188 338.695312 249.972656 339.53125 250.371094 340.347656 C 250.765625 341.167969 251.199219 341.964844 251.671875 342.742188 C 252.140625 343.519531 252.648438 344.273438 253.191406 345.003906 C 253.734375 345.734375 254.308594 346.4375 254.917969 347.113281 C 255.527344 347.792969 256.164062 348.4375 256.832031 349.054688 C 257.5 349.671875 258.199219 350.253906 258.921875 350.804688 L 278.027344 365.347656 L 302.371094 249.28125 L 279.425781 254.40625 C 278.574219 254.597656 277.734375 254.824219 276.90625 255.089844 C 276.074219 255.355469 275.257812 255.660156 274.457031 256 C 273.652344 256.339844 272.867188 256.714844 272.097656 257.121094 C 271.328125 257.53125 270.578125 257.976562 269.847656 258.453125 C 269.121094 258.929688 268.414062 259.441406 267.730469 259.980469 C 267.046875 260.523438 266.386719 261.09375 265.753906 261.695312 C 265.125 262.292969 264.519531 262.921875 263.945312 263.574219 C 263.367188 264.230469 262.824219 264.910156 262.308594 265.613281 C 261.792969 266.316406 261.3125 267.042969 260.863281 267.789062 C 260.414062 268.535156 259.996094 269.300781 259.617188 270.085938 C 259.238281 270.871094 258.890625 271.671875 258.582031 272.484375 C 258.273438 273.300781 258.003906 274.128906 257.769531 274.96875 C 257.535156 275.808594 257.339844 276.65625 257.183594 277.511719 C 257.023438 278.371094 256.90625 279.234375 256.824219 280.101562 C 256.746094 280.96875 256.703125 281.839844 256.703125 282.710938 C 256.703125 283.582031 256.738281 284.453125 256.816406 285.320312 L 257.4375 292.386719 C 257.726562 295.644531 257.46875 298.859375 256.671875 302.03125 C 255.875 305.203125 254.578125 308.15625 252.78125 310.886719 Z M 551.113281 292.386719 L 551.738281 285.320312 C 551.8125 284.453125 551.851562 283.582031 551.847656 282.710938 C 551.847656 281.839844 551.804688 280.96875 551.726562 280.101562 C 551.644531 279.234375 551.527344 278.371094 551.371094 277.511719 C 551.210938 276.65625 551.015625 275.808594 550.78125 274.96875 C 550.546875 274.128906 550.277344 273.300781 549.96875 272.484375 C 549.660156 271.671875 549.316406 270.871094 548.933594 270.085938 C 548.554688 269.300781 548.140625 268.535156 547.691406 267.789062 C 547.242188 267.042969 546.757812 266.316406 546.242188 265.613281 C 545.730469 264.910156 545.183594 264.230469 544.609375 263.574219 C 544.03125 262.921875 543.429688 262.292969 542.796875 261.695312 C 542.164062 261.09375 541.507812 260.523438 540.824219 259.980469 C 540.140625 259.441406 539.433594 258.933594 538.703125 258.453125 C 537.972656 257.976562 537.222656 257.53125 536.453125 257.121094 C 535.6875 256.714844 534.898438 256.339844 534.097656 256 C 533.292969 255.660156 532.476562 255.355469 531.648438 255.089844 C 530.816406 254.824219 529.976562 254.597656 529.125 254.40625 L 506.179688 249.28125 L 530.523438 365.347656 L 549.628906 350.804688 C 550.355469 350.253906 551.050781 349.671875 551.71875 349.054688 C 552.386719 348.4375 553.027344 347.792969 553.632812 347.113281 C 554.242188 346.4375 554.816406 345.734375 555.359375 345.003906 C 555.902344 344.273438 556.410156 343.519531 556.878906 342.742188 C 557.351562 341.964844 557.785156 341.167969 558.183594 340.347656 C 558.578125 339.53125 558.9375 338.695312 559.253906 337.84375 C 559.574219 336.992188 559.851562 336.125 560.085938 335.246094 C 560.324219 334.367188 560.519531 333.480469 560.671875 332.585938 C 560.824219 331.6875 560.9375 330.785156 561.007812 329.878906 C 561.074219 328.972656 561.101562 328.066406 561.085938 327.15625 C 561.066406 326.246094 561.007812 325.339844 560.90625 324.4375 C 560.804688 323.53125 560.664062 322.636719 560.476562 321.746094 C 560.292969 320.855469 560.0625 319.972656 559.796875 319.105469 C 559.527344 318.238281 559.21875 317.382812 558.871094 316.542969 C 558.523438 315.703125 558.136719 314.878906 557.710938 314.074219 C 557.285156 313.273438 556.820312 312.488281 556.320312 311.730469 L 555.769531 310.886719 C 553.976562 308.15625 552.679688 305.203125 551.878906 302.03125 C 551.082031 298.859375 550.828125 295.644531 551.113281 292.386719 Z M 302.363281 490.03125 L 302.363281 489.988281 L 302.324219 489.988281 Z M 302.363281 489.988281 L 321.070312 500.441406 L 321.070312 489.988281 Z M 494.570312 490.007812 L 494.570312 500.460938 L 513.277344 490.007812 Z M 494.570312 490.007812 " fill-opacity="1" fill-rule="nonzero"/><path fill="#18b9cd" d="M 513.328125 489.988281 L 513.328125 541.007812 L 407.847656 599.90625 L 302.363281 541.007812 L 302.363281 489.988281 L 407.847656 548.886719 Z M 407.84375 112.984375 L 388.644531 144.613281 L 407.84375 176.238281 L 427.011719 144.613281 Z M 372.382812 144.589844 L 353.175781 176.238281 L 366.617188 198.347656 C 371.113281 196.847656 375.691406 195.644531 380.34375 194.738281 L 391.542969 176.238281 Z M 442.066406 144.589844 L 422.863281 176.238281 L 435.140625 196.398438 C 439.058594 197.464844 442.917969 198.722656 446.710938 200.171875 L 461.230469 176.238281 Z M 332.128906 121.90625 L 312.929688 153.535156 L 332.128906 185.160156 L 351.296875 153.535156 Z M 305.789062 164.734375 L 286.589844 196.363281 L 305.789062 227.992188 L 324.957031 196.363281 Z M 480.445312 123.980469 L 461.246094 155.609375 L 480.445312 187.234375 L 499.617188 155.609375 Z M 506.195312 170.125 L 486.996094 201.753906 L 506.195312 233.378906 L 525.363281 201.753906 Z M 407.828125 649.433594 C 408.78125 649.433594 409.726562 649.339844 410.660156 649.15625 C 411.59375 648.96875 412.503906 648.691406 413.382812 648.328125 C 414.265625 647.964844 415.101562 647.515625 415.894531 646.988281 C 416.6875 646.457031 417.417969 645.855469 418.09375 645.179688 C 418.765625 644.507812 419.367188 643.773438 419.898438 642.980469 C 420.429688 642.1875 420.875 641.351562 421.238281 640.472656 C 421.605469 639.589844 421.878906 638.683594 422.066406 637.75 C 422.253906 636.8125 422.34375 635.871094 422.34375 634.914062 C 422.34375 633.960938 422.253906 633.019531 422.066406 632.082031 C 421.878906 631.148438 421.605469 630.242188 421.238281 629.359375 C 420.875 628.480469 420.429688 627.644531 419.898438 626.851562 C 419.367188 626.058594 418.765625 625.324219 418.09375 624.648438 C 417.417969 623.976562 416.6875 623.375 415.894531 622.84375 C 415.101562 622.316406 414.265625 621.867188 413.382812 621.503906 C 412.503906 621.136719 411.59375 620.863281 410.660156 620.675781 C 409.726562 620.492188 408.78125 620.398438 407.828125 620.398438 C 406.875 620.398438 405.929688 620.492188 404.996094 620.675781 C 404.058594 620.863281 403.152344 621.136719 402.273438 621.503906 C 401.390625 621.867188 400.554688 622.316406 399.761719 622.84375 C 398.96875 623.375 398.234375 623.976562 397.5625 624.648438 C 396.886719 625.324219 396.285156 626.058594 395.757812 626.851562 C 395.226562 627.644531 394.78125 628.480469 394.414062 629.359375 C 394.050781 630.242188 393.773438 631.148438 393.589844 632.082031 C 393.402344 633.019531 393.308594 633.960938 393.308594 634.914062 C 393.308594 635.871094 393.402344 636.8125 393.589844 637.75 C 393.773438 638.683594 394.050781 639.589844 394.414062 640.472656 C 394.78125 641.351562 395.226562 642.1875 395.757812 642.980469 C 396.285156 643.773438 396.886719 644.507812 397.5625 645.179688 C 398.234375 645.855469 398.96875 646.457031 399.761719 646.988281 C 400.554688 647.515625 401.390625 647.964844 402.273438 648.328125 C 403.152344 648.695312 404.058594 648.96875 404.996094 649.15625 C 405.929688 649.339844 406.875 649.433594 407.828125 649.433594 Z M 407.828125 712.507812 C 408.78125 712.507812 409.726562 712.414062 410.660156 712.226562 C 411.59375 712.039062 412.503906 711.765625 413.382812 711.402344 C 414.265625 711.035156 415.101562 710.589844 415.894531 710.058594 C 416.6875 709.53125 417.417969 708.929688 418.09375 708.253906 C 418.765625 707.578125 419.367188 706.847656 419.898438 706.054688 C 420.429688 705.261719 420.875 704.425781 421.238281 703.542969 C 421.605469 702.664062 421.878906 701.753906 422.066406 700.820312 C 422.253906 699.886719 422.34375 698.941406 422.34375 697.988281 C 422.34375 697.035156 422.253906 696.089844 422.066406 695.15625 C 421.878906 694.222656 421.605469 693.3125 421.238281 692.433594 C 420.875 691.550781 420.429688 690.714844 419.898438 689.921875 C 419.367188 689.128906 418.765625 688.398438 418.09375 687.722656 C 417.417969 687.046875 416.6875 686.445312 415.894531 685.917969 C 415.101562 685.386719 414.265625 684.941406 413.382812 684.574219 C 412.503906 684.210938 411.59375 683.933594 410.660156 683.75 C 409.726562 683.5625 408.78125 683.46875 407.828125 683.46875 C 406.875 683.46875 405.929688 683.5625 404.996094 683.75 C 404.058594 683.933594 403.152344 684.210938 402.273438 684.574219 C 401.390625 684.941406 400.554688 685.386719 399.761719 685.917969 C 398.96875 686.445312 398.234375 687.046875 397.5625 687.722656 C 396.886719 688.398438 396.285156 689.128906 395.757812 689.921875 C 395.226562 690.714844 394.78125 691.550781 394.414062 692.433594 C 394.050781 693.3125 393.773438 694.222656 393.589844 695.15625 C 393.402344 696.089844 393.308594 697.035156 393.308594 697.988281 C 393.308594 698.941406 393.402344 699.886719 393.589844 700.820312 C 393.773438 701.753906 394.050781 702.664062 394.414062 703.542969 C 394.78125 704.425781 395.226562 705.261719 395.757812 706.054688 C 396.285156 706.847656 396.886719 707.578125 397.5625 708.253906 C 398.234375 708.929688 398.96875 709.53125 399.761719 710.058594 C 400.554688 710.589844 401.390625 711.035156 402.273438 711.402344 C 403.152344 711.765625 404.058594 712.039062 404.996094 712.226562 C 405.929688 712.414062 406.875 712.507812 407.828125 712.507812 Z M 407.828125 712.507812 " fill-opacity="1" fill-rule="nonzero"/></svg>