<svg xmlns="http://www.w3.org/2000/svg" xmlns:xlink="http://www.w3.org/1999/xlink" width="1080" zoomAndPan="magnify" viewBox="0 0 810 809.999993" height="1080" preserveAspectRatio="xMidYMid meet" version="1.0"><defs><clipPath id="c1b40a2b58"><path d="M 67.5 49.398438 L 742.5 49.398438 L 742.5 724 L 67.5 724 Z M 67.5 49.398438 " clip-rule="nonzero"/></clipPath></defs><g clip-path="url(#c1b40a2b58)"><path fill="#cb6ce6" d="M 742.082031 386.460938 C 742.117188 406.734375 740.328125 426.847656 736.714844 446.796875 C 733.101562 466.746094 727.722656 486.207031 720.578125 505.179688 C 716.890625 514.917969 712.785156 524.492188 708.226562 533.816406 C 708.0625 534.230469 707.855469 534.601562 707.6875 534.976562 C 707.648438 535.101562 707.566406 535.183594 707.523438 535.308594 L 706.777344 536.800781 C 701.441406 547.566406 695.527344 558.011719 689.042969 568.128906 C 679.714844 582.695312 669.3125 596.453125 657.839844 609.398438 C 657.339844 609.980469 656.800781 610.519531 656.304688 611.140625 C 653.445312 614.371094 650.546875 617.480469 647.519531 620.589844 L 647.273438 620.835938 C 645.035156 623.15625 642.753906 625.476562 640.433594 627.714844 C 638.609375 629.496094 636.789062 631.195312 634.921875 632.980469 C 633.390625 634.46875 631.773438 635.878906 630.199219 637.328125 C 625.929688 641.226562 621.496094 644.914062 617.019531 648.601562 L 616.980469 648.601562 C 612.859375 651.933594 608.660156 655.171875 604.382812 658.308594 C 600.109375 661.445312 595.761719 664.476562 591.34375 667.410156 C 586.925781 670.339844 582.441406 673.164062 577.890625 675.886719 C 573.339844 678.605469 568.726562 681.214844 564.054688 683.71875 C 559.378906 686.21875 554.648438 688.609375 549.859375 690.890625 C 545.074219 693.167969 540.234375 695.332031 535.34375 697.382812 C 530.457031 699.433594 525.519531 701.367188 520.539062 703.183594 C 515.558594 705.003906 510.539062 706.703125 505.476562 708.28125 C 500.417969 709.863281 495.320312 711.324219 490.191406 712.664062 C 485.0625 714.003906 479.902344 715.222656 474.714844 716.320312 C 469.527344 717.414062 464.320312 718.390625 459.085938 719.242188 C 453.851562 720.089844 448.601562 720.820312 443.335938 721.421875 C 438.066406 722.023438 432.789062 722.503906 427.496094 722.859375 C 422.207031 723.210938 416.910156 723.441406 411.609375 723.546875 C 406.308594 723.648438 401.007812 723.628906 395.710938 723.484375 C 390.410156 723.335938 385.117188 723.066406 379.828125 722.671875 C 374.542969 722.273438 369.265625 721.753906 364.003906 721.109375 C 358.742188 720.464844 353.496094 719.695312 348.269531 718.804688 C 343.042969 717.914062 337.84375 716.898438 332.664062 715.757812 C 327.484375 714.621094 322.335938 713.363281 317.21875 711.984375 C 312.097656 710.601562 307.015625 709.101562 301.964844 707.480469 C 296.917969 705.859375 291.910156 704.121094 286.945312 702.265625 C 281.976562 700.410156 277.058594 698.433594 272.183594 696.347656 C 267.3125 694.257812 262.492188 692.054688 257.722656 689.738281 C 252.953125 687.421875 248.242188 684.996094 243.585938 682.457031 C 238.933594 679.917969 234.339844 677.269531 229.808594 674.515625 C 225.28125 671.757812 220.816406 668.898438 216.421875 665.933594 C 212.027344 662.964844 207.707031 659.898438 203.457031 656.726562 C 199.207031 653.558594 195.035156 650.289062 190.9375 646.921875 C 186.84375 643.554688 182.828125 640.09375 178.894531 636.539062 C 174.964844 632.980469 171.117188 629.335938 167.355469 625.597656 C 163.597656 621.859375 159.925781 618.035156 156.347656 614.125 C 155.847656 613.585938 155.394531 613.089844 154.894531 612.550781 C 152.90625 610.394531 151 608.15625 149.09375 605.960938 C 138.992188 594.210938 129.75 581.824219 121.371094 568.789062 C 121.207031 568.519531 121.027344 568.253906 120.832031 568.003906 C 120.757812 567.859375 120.675781 567.722656 120.585938 567.589844 C 118.265625 563.984375 116.027344 560.253906 113.871094 556.605469 C 113.582031 556.070312 113.25 555.570312 112.960938 555.03125 C 103.71875 539.070312 95.859375 522.453125 89.382812 505.179688 C 82.25 486.203125 76.878906 466.742188 73.265625 446.792969 C 69.652344 426.84375 67.855469 406.734375 67.875 386.460938 C 67.875 200.273438 218.792969 49.398438 404.980469 49.398438 C 579.476562 49.398438 723.023438 182 740.34375 351.941406 C 741.507812 363.417969 742.089844 374.925781 742.082031 386.460938 Z M 742.082031 386.460938 " fill-opacity="1" fill-rule="nonzero"/></g><path fill="#e7dcc1" d="M 586.066406 280.460938 L 580.804688 281.203125 C 579.515625 281.386719 578.273438 281.738281 577.082031 282.261719 C 575.890625 282.785156 574.792969 283.457031 573.789062 284.285156 C 572.78125 285.109375 571.910156 286.058594 571.164062 287.125 C 570.421875 288.191406 569.835938 289.339844 569.40625 290.570312 L 546.574219 357.121094 L 546.988281 361.886719 C 547.046875 362.578125 547.039062 363.265625 546.960938 363.957031 C 546.882812 364.644531 546.734375 365.320312 546.523438 365.980469 C 546.308594 366.636719 546.035156 367.269531 545.695312 367.875 C 545.355469 368.480469 544.960938 369.046875 544.511719 369.574219 C 544.058594 370.097656 543.558594 370.578125 543.015625 371.003906 C 542.46875 371.429688 541.886719 371.800781 541.265625 372.109375 C 540.644531 372.421875 540.003906 372.667969 539.332031 372.851562 C 538.664062 373.035156 537.984375 373.152344 537.292969 373.199219 L 502.320312 375.5625 L 505.300781 366.238281 L 302.914062 359.980469 L 307.929688 375.5625 L 272.957031 373.199219 C 272.265625 373.148438 271.585938 373.03125 270.917969 372.847656 C 270.25 372.664062 269.605469 372.414062 268.988281 372.105469 C 268.367188 371.792969 267.785156 371.421875 267.242188 370.996094 C 266.695312 370.566406 266.199219 370.089844 265.746094 369.566406 C 265.296875 369.039062 264.902344 368.472656 264.5625 367.871094 C 264.222656 367.265625 263.949219 366.632812 263.734375 365.976562 C 263.519531 365.316406 263.375 364.640625 263.292969 363.953125 C 263.214844 363.265625 263.203125 362.578125 263.257812 361.886719 L 263.878906 354.34375 C 262.421875 352.675781 261.414062 350.769531 260.855469 348.625 L 242.375 277.808594 C 242.179688 277.058594 241.925781 276.332031 241.613281 275.625 C 241.296875 274.921875 240.929688 274.246094 240.503906 273.601562 C 240.078125 272.953125 239.605469 272.347656 239.078125 271.78125 C 238.554688 271.214844 237.984375 270.695312 237.375 270.222656 C 236.765625 269.75 236.117188 269.332031 235.4375 268.964844 C 234.757812 268.597656 234.054688 268.289062 233.324219 268.039062 C 232.589844 267.789062 231.84375 267.601562 231.082031 267.472656 C 230.320312 267.347656 229.554688 267.28125 228.78125 267.28125 C 227.589844 267.289062 226.414062 267.441406 225.257812 267.738281 C 223.96875 268.074219 222.65625 268.222656 221.320312 268.1875 C 219.988281 268.148438 218.683594 267.925781 217.414062 267.515625 C 216.144531 267.109375 214.953125 266.53125 213.847656 265.785156 C 212.742188 265.039062 211.761719 264.152344 210.910156 263.125 C 210.054688 262.101562 209.359375 260.976562 208.828125 259.753906 C 208.292969 258.53125 207.941406 257.257812 207.769531 255.933594 C 207.597656 254.609375 207.613281 253.289062 207.820312 251.96875 C 208.023438 250.652344 208.410156 249.386719 208.972656 248.179688 L 231.683594 199.40625 C 232.550781 197.578125 233.757812 196.007812 235.292969 194.695312 C 236.832031 193.382812 238.570312 192.4375 240.507812 191.863281 L 314.933594 170.066406 C 316.472656 169.605469 317.894531 168.90625 319.195312 167.960938 C 320.496094 167.015625 321.601562 165.878906 322.515625 164.554688 L 348.914062 126.390625 C 349.871094 124.980469 351.050781 123.792969 352.453125 122.820312 C 353.851562 121.847656 355.378906 121.160156 357.035156 120.753906 L 407.632812 107.992188 C 408.519531 107.765625 409.425781 107.625 410.339844 107.574219 C 411.257812 107.523438 412.171875 107.5625 413.078125 107.691406 C 413.988281 107.820312 414.875 108.039062 415.742188 108.339844 C 416.609375 108.640625 417.441406 109.027344 418.230469 109.492188 C 419.023438 109.957031 419.761719 110.492188 420.449219 111.105469 C 421.136719 111.714844 421.757812 112.382812 422.3125 113.117188 C 422.867188 113.847656 423.34375 114.625 423.746094 115.449219 C 424.148438 116.273438 424.46875 117.132812 424.703125 118.019531 L 429.179688 134.800781 C 429.398438 135.636719 429.691406 136.441406 430.058594 137.222656 C 430.425781 138 430.863281 138.742188 431.367188 139.441406 C 431.871094 140.140625 432.433594 140.789062 433.054688 141.382812 C 433.679688 141.980469 434.351562 142.511719 435.070312 142.984375 C 435.792969 143.457031 436.550781 143.859375 437.34375 144.195312 C 438.140625 144.527344 438.957031 144.785156 439.800781 144.964844 C 440.644531 145.148438 441.496094 145.253906 442.355469 145.277344 C 443.21875 145.304688 444.074219 145.25 444.925781 145.121094 L 493.078125 137.621094 C 494.839844 137.355469 496.589844 137.417969 498.328125 137.8125 C 500.066406 138.203125 501.671875 138.898438 503.148438 139.898438 L 548.523438 170.644531 C 548.925781 170.917969 549.316406 171.210938 549.6875 171.527344 C 550.0625 171.839844 550.417969 172.171875 550.753906 172.523438 C 551.09375 172.875 551.414062 173.242188 551.714844 173.625 C 552.015625 174.007812 552.292969 174.40625 552.554688 174.820312 C 552.8125 175.230469 553.046875 175.65625 553.261719 176.09375 C 553.476562 176.53125 553.667969 176.980469 553.835938 177.4375 C 554.003906 177.894531 554.148438 178.359375 554.269531 178.832031 C 554.390625 179.304688 554.484375 179.78125 554.554688 180.265625 C 554.625 180.746094 554.667969 181.230469 554.6875 181.71875 C 554.707031 182.207031 554.703125 182.691406 554.671875 183.179688 C 554.640625 183.664062 554.582031 184.148438 554.503906 184.628906 C 554.421875 185.109375 554.316406 185.585938 554.183594 186.054688 C 554.054688 186.523438 553.898438 186.984375 553.71875 187.4375 C 553.539062 187.890625 553.339844 188.335938 553.113281 188.765625 C 552.890625 189.199219 552.640625 189.617188 552.375 190.023438 C 552.105469 190.433594 551.816406 190.824219 551.507812 191.199219 L 546.699219 197.085938 C 546.339844 197.523438 546.011719 197.984375 545.707031 198.464844 C 545.40625 198.941406 545.132812 199.4375 544.890625 199.949219 C 544.648438 200.464844 544.4375 200.988281 544.257812 201.527344 C 544.078125 202.0625 543.929688 202.609375 543.816406 203.167969 C 543.703125 203.722656 543.625 204.28125 543.578125 204.847656 C 543.53125 205.414062 543.519531 205.980469 543.542969 206.546875 C 543.566406 207.113281 543.621094 207.675781 543.714844 208.234375 C 543.804688 208.796875 543.925781 209.347656 544.085938 209.890625 C 544.242188 210.4375 544.433594 210.96875 544.652344 211.492188 C 544.875 212.015625 545.128906 212.519531 545.410156 213.011719 C 545.691406 213.503906 546.003906 213.976562 546.34375 214.429688 C 546.683594 214.882812 547.050781 215.316406 547.441406 215.726562 C 547.835938 216.136719 548.25 216.519531 548.6875 216.878906 C 549.125 217.238281 549.585938 217.570312 550.0625 217.875 C 550.542969 218.179688 551.039062 218.453125 551.550781 218.699219 C 552.0625 218.941406 552.585938 219.15625 553.121094 219.335938 L 582.460938 229.242188 C 583.570312 229.613281 584.617188 230.117188 585.601562 230.753906 C 586.582031 231.386719 587.472656 232.132812 588.269531 232.992188 C 589.066406 233.847656 589.742188 234.792969 590.304688 235.820312 C 590.863281 236.847656 591.289062 237.929688 591.578125 239.0625 L 597.753906 263.011719 C 597.875 263.492188 597.972656 263.976562 598.046875 264.464844 C 598.117188 264.953125 598.164062 265.445312 598.1875 265.9375 C 598.207031 266.433594 598.203125 266.925781 598.171875 267.421875 C 598.140625 267.914062 598.082031 268.402344 598 268.890625 C 597.914062 269.378906 597.808594 269.859375 597.671875 270.335938 C 597.539062 270.8125 597.382812 271.277344 597.199219 271.738281 C 597.015625 272.199219 596.808594 272.644531 596.578125 273.082031 C 596.347656 273.519531 596.09375 273.945312 595.820312 274.355469 C 595.542969 274.765625 595.25 275.160156 594.933594 275.539062 C 594.613281 275.921875 594.277344 276.28125 593.925781 276.625 C 593.570312 276.96875 593.195312 277.292969 592.808594 277.597656 C 592.417969 277.90625 592.015625 278.1875 591.597656 278.449219 C 591.175781 278.710938 590.746094 278.953125 590.300781 279.167969 C 589.855469 279.386719 589.402344 279.578125 588.9375 279.746094 C 588.472656 279.914062 588 280.058594 587.519531 280.179688 C 587.039062 280.296875 586.554688 280.390625 586.066406 280.460938 Z M 586.066406 280.460938 " fill-opacity="1" fill-rule="nonzero"/><path fill="#ff9987" d="M 567.832031 373.820312 C 560.414062 395.285156 542.929688 409.332031 526.105469 408.753906 C 522.441406 428.910156 516.351562 448.304688 507.832031 466.933594 C 497.96875 488.398438 484.25 510.363281 465.6875 526.234375 C 465.191406 526.6875 464.691406 527.101562 464.195312 527.515625 C 463.449219 528.179688 462.660156 528.84375 461.875 529.464844 C 461.046875 530.167969 460.175781 530.832031 459.304688 531.496094 C 458.351562 532.199219 457.398438 532.902344 456.40625 533.566406 C 455.453125 534.230469 454.457031 534.894531 453.460938 535.515625 L 451.015625 536.964844 C 450.105469 537.546875 449.195312 538.082031 448.242188 538.582031 C 446.957031 539.285156 445.671875 539.988281 444.347656 540.570312 C 434.816406 545.171875 424.789062 548.003906 414.261719 549.066406 C 412.726562 549.191406 411.195312 549.3125 409.660156 549.398438 C 408.292969 549.480469 406.925781 549.519531 405.519531 549.519531 C 403.941406 549.519531 402.328125 549.480469 400.792969 549.398438 C 397.976562 549.273438 395.242188 549.023438 392.546875 548.652344 C 391.222656 548.484375 389.894531 548.277344 388.570312 548.03125 C 387.410156 547.820312 386.25 547.574219 385.089844 547.324219 C 384.964844 547.285156 384.796875 547.285156 384.675781 547.242188 C 383.886719 547.078125 383.097656 546.867188 382.269531 546.660156 C 381.070312 546.371094 379.867188 546.039062 378.707031 545.667969 C 377.851562 545.433594 377.007812 545.160156 376.179688 544.839844 C 375.351562 544.589844 374.5625 544.300781 373.777344 544.011719 C 372.367188 543.511719 371.039062 542.972656 369.671875 542.394531 C 369.632812 542.433594 369.589844 542.394531 369.550781 542.351562 C 368.222656 541.8125 366.898438 541.191406 365.613281 540.570312 C 364.160156 539.90625 362.753906 539.160156 361.386719 538.375 C 360.183594 537.753906 359.023438 537.089844 357.90625 536.386719 C 333.539062 521.921875 316.257812 497.226562 304.242188 472.488281 C 294.449219 452.160156 287.597656 430.890625 283.6875 408.671875 C 267.941406 407.511719 252.152344 393.917969 245.273438 373.820312 C 236.65625 348.832031 245.066406 323.308594 264.003906 316.761719 C 265.03125 316.386719 266.082031 316.097656 267.152344 315.890625 L 263.257812 361.886719 C 263.203125 362.578125 263.214844 363.265625 263.292969 363.953125 C 263.375 364.640625 263.519531 365.316406 263.734375 365.976562 C 263.949219 366.632812 264.222656 367.265625 264.5625 367.871094 C 264.902344 368.472656 265.296875 369.039062 265.746094 369.566406 C 266.199219 370.089844 266.695312 370.566406 267.242188 370.996094 C 267.785156 371.421875 268.367188 371.792969 268.988281 372.105469 C 269.605469 372.417969 270.25 372.664062 270.917969 372.847656 C 271.585938 373.03125 272.265625 373.148438 272.957031 373.199219 L 279.832031 373.65625 C 279.667969 369.800781 279.585938 365.90625 279.585938 362.011719 L 279.585938 317.835938 C 279.578125 315.789062 279.675781 313.742188 279.875 311.703125 C 280.03125 309.957031 280.257812 308.214844 280.546875 306.484375 C 280.839844 304.753906 281.195312 303.035156 281.617188 301.332031 C 282.039062 299.628906 282.527344 297.941406 283.082031 296.277344 C 283.632812 294.609375 284.246094 292.96875 284.925781 291.347656 C 285.601562 289.726562 286.34375 288.136719 287.140625 286.574219 C 287.941406 285.011719 288.800781 283.484375 289.71875 281.984375 C 290.636719 280.488281 291.609375 279.03125 292.636719 277.609375 C 293.667969 276.1875 294.75 274.804688 295.886719 273.464844 C 297.019531 272.128906 298.207031 270.832031 299.441406 269.585938 C 300.675781 268.335938 301.957031 267.136719 303.28125 265.988281 C 304.609375 264.839844 305.976562 263.742188 307.386719 262.695312 C 308.796875 261.652344 310.246094 260.664062 311.734375 259.730469 C 313.21875 258.796875 314.742188 257.917969 316.292969 257.101562 C 317.847656 256.285156 319.429688 255.527344 321.042969 254.832031 C 322.65625 254.136719 324.289062 253.503906 325.949219 252.933594 C 327.609375 252.363281 329.289062 251.859375 330.988281 251.417969 C 332.6875 250.976562 334.402344 250.601562 336.128906 250.292969 C 337.859375 249.980469 339.597656 249.738281 341.34375 249.5625 C 343.089844 249.386719 344.839844 249.277344 346.59375 249.234375 C 348.351562 249.191406 350.105469 249.21875 351.855469 249.308594 C 353.609375 249.402344 355.355469 249.5625 357.097656 249.789062 C 358.839844 250.015625 360.570312 250.308594 362.285156 250.664062 C 364.003906 251.023438 365.707031 251.449219 367.394531 251.9375 C 369.078125 252.429688 370.742188 252.980469 372.386719 253.601562 C 374.03125 254.21875 375.648438 254.898438 377.238281 255.636719 C 378.828125 256.378906 380.390625 257.179688 381.921875 258.042969 C 383.449219 258.902344 384.945312 259.820312 386.402344 260.796875 C 387.863281 261.773438 389.28125 262.804688 390.664062 263.890625 C 392.042969 264.972656 393.378906 266.109375 394.671875 267.296875 C 395.964844 268.484375 397.210938 269.71875 398.410156 271.003906 C 399.609375 272.285156 400.753906 273.613281 401.851562 274.984375 C 402.949219 276.355469 403.992188 277.765625 404.980469 279.214844 C 405.96875 277.765625 407.007812 276.355469 408.105469 274.984375 C 409.203125 273.613281 410.351562 272.285156 411.546875 271.003906 C 412.746094 269.71875 413.992188 268.484375 415.285156 267.296875 C 416.578125 266.109375 417.914062 264.972656 419.296875 263.890625 C 420.675781 262.804688 422.09375 261.773438 423.554688 260.796875 C 425.015625 259.820312 426.507812 258.902344 428.039062 258.042969 C 429.566406 257.179688 431.128906 256.378906 432.71875 255.636719 C 434.3125 254.898438 435.929688 254.21875 437.570312 253.601562 C 439.214844 252.984375 440.878906 252.429688 442.566406 251.9375 C 444.25 251.449219 445.953125 251.023438 447.671875 250.664062 C 449.390625 250.308594 451.121094 250.015625 452.859375 249.789062 C 454.601562 249.5625 456.347656 249.402344 458.101562 249.308594 C 459.855469 249.21875 461.609375 249.191406 463.363281 249.234375 C 465.117188 249.277344 466.867188 249.386719 468.617188 249.5625 C 470.363281 249.738281 472.097656 249.980469 473.828125 250.292969 C 475.554688 250.601562 477.269531 250.976562 478.96875 251.417969 C 480.667969 251.859375 482.347656 252.363281 484.007812 252.933594 C 485.667969 253.503906 487.304688 254.136719 488.914062 254.832031 C 490.527344 255.53125 492.109375 256.285156 493.664062 257.101562 C 495.21875 257.917969 496.738281 258.796875 498.222656 259.730469 C 499.710938 260.664062 501.160156 261.652344 502.570312 262.695312 C 503.980469 263.742188 505.351562 264.839844 506.675781 265.988281 C 508.003906 267.136719 509.285156 268.335938 510.519531 269.585938 C 511.753906 270.832031 512.9375 272.128906 514.074219 273.464844 C 515.207031 274.804688 516.289062 276.1875 517.320312 277.609375 C 518.347656 279.03125 519.324219 280.488281 520.238281 281.984375 C 521.15625 283.484375 522.015625 285.011719 522.816406 286.574219 C 523.617188 288.136719 524.355469 289.726562 525.03125 291.347656 C 525.710938 292.96875 526.324219 294.609375 526.878906 296.277344 C 527.429688 297.941406 527.917969 299.628906 528.339844 301.332031 C 528.761719 303.035156 529.121094 304.753906 529.410156 306.484375 C 529.703125 308.214844 529.925781 309.957031 530.082031 311.703125 C 530.285156 313.742188 530.378906 315.789062 530.371094 317.835938 L 530.371094 361.015625 C 530.371094 365.242188 530.289062 369.46875 530.082031 373.695312 L 537.292969 373.199219 C 537.984375 373.152344 538.664062 373.035156 539.332031 372.851562 C 540.003906 372.667969 540.644531 372.421875 541.265625 372.109375 C 541.886719 371.800781 542.46875 371.429688 543.015625 371.003906 C 543.558594 370.578125 544.058594 370.097656 544.511719 369.574219 C 544.960938 369.046875 545.355469 368.480469 545.695312 367.875 C 546.035156 367.269531 546.308594 366.636719 546.523438 365.980469 C 546.734375 365.320312 546.882812 364.644531 546.960938 363.957031 C 547.039062 363.265625 547.046875 362.578125 546.988281 361.886719 L 543.054688 315.433594 C 545.105469 315.648438 547.109375 316.089844 549.0625 316.757812 C 568.039062 323.304688 576.410156 348.832031 567.832031 373.820312 Z M 567.832031 373.820312 " fill-opacity="1" fill-rule="nonzero"/><path fill="#ed6e0f" d="M 437.875 432.222656 C 438.042969 432.761719 438.183594 433.304688 438.296875 433.855469 C 438.410156 434.402344 438.5 434.957031 438.558594 435.515625 C 438.621094 436.074219 438.652344 436.636719 438.65625 437.199219 C 438.664062 437.757812 438.640625 438.320312 438.589844 438.878906 C 438.539062 439.441406 438.460938 439.996094 438.359375 440.546875 C 438.253906 441.097656 438.121094 441.644531 437.964844 442.183594 C 437.804688 442.722656 437.621094 443.253906 437.410156 443.773438 C 437.199219 444.296875 436.964844 444.804688 436.703125 445.304688 C 436.445312 445.800781 436.160156 446.285156 435.851562 446.753906 C 435.542969 447.226562 435.214844 447.679688 434.863281 448.117188 C 434.507812 448.554688 434.136719 448.972656 433.742188 449.375 C 433.347656 449.773438 432.9375 450.15625 432.503906 450.515625 C 432.074219 450.875 431.625 451.214844 431.160156 451.53125 C 430.699219 451.847656 430.21875 452.140625 429.726562 452.410156 C 429.234375 452.679688 428.726562 452.921875 428.210938 453.144531 C 427.691406 453.363281 427.167969 453.554688 426.628906 453.722656 C 426.09375 453.890625 425.550781 454.035156 425 454.148438 C 424.449219 454.261719 423.898438 454.351562 423.339844 454.410156 C 422.777344 454.46875 422.21875 454.503906 421.65625 454.507812 C 421.09375 454.511719 420.535156 454.492188 419.976562 454.441406 C 419.414062 454.390625 418.859375 454.3125 418.308594 454.207031 C 417.753906 454.105469 417.210938 453.972656 416.671875 453.8125 C 416.132812 453.65625 415.601562 453.472656 415.082031 453.261719 C 414.558594 453.050781 414.050781 452.816406 413.550781 452.554688 C 413.054688 452.292969 412.570312 452.011719 412.101562 451.703125 C 411.628906 451.394531 411.175781 451.066406 410.738281 450.710938 C 410.300781 450.359375 409.882812 449.988281 409.480469 449.59375 C 409.082031 449.199219 408.699219 448.785156 408.339844 448.355469 C 407.980469 447.925781 407.640625 447.476562 407.324219 447.011719 C 407.007812 446.546875 406.714844 446.070312 406.445312 445.578125 C 406.175781 445.082031 405.933594 444.578125 405.710938 444.0625 C 405.492188 443.542969 405.296875 443.015625 405.128906 442.480469 C 404.605469 440.820312 404.34375 439.121094 404.347656 437.378906 C 404.351562 435.640625 404.617188 433.9375 405.144531 432.28125 C 405.035156 433.730469 405.199219 435.148438 405.636719 436.535156 C 405.859375 437.246094 406.148438 437.925781 406.5 438.582031 C 406.855469 439.238281 407.269531 439.851562 407.738281 440.425781 C 408.210938 441.003906 408.734375 441.527344 409.304688 442.003906 C 409.878906 442.480469 410.488281 442.898438 411.140625 443.253906 C 411.792969 443.613281 412.472656 443.90625 413.183594 444.136719 C 413.890625 444.363281 414.613281 444.519531 415.355469 444.609375 C 416.09375 444.699219 416.832031 444.71875 417.574219 444.664062 C 418.316406 444.613281 419.046875 444.488281 419.765625 444.296875 C 420.484375 444.105469 421.179688 443.84375 421.847656 443.519531 C 422.519531 443.191406 423.148438 442.808594 423.746094 442.359375 C 424.339844 441.914062 424.886719 441.414062 425.386719 440.863281 C 425.886719 440.308594 426.328125 439.714844 426.714844 439.078125 C 427.097656 438.441406 427.421875 437.777344 427.675781 437.078125 C 427.933594 436.378906 428.125 435.664062 428.242188 434.929688 C 428.363281 434.195312 428.414062 433.453125 428.390625 432.710938 C 428.371094 431.96875 428.277344 431.230469 428.117188 430.507812 C 427.953125 429.78125 427.722656 429.074219 427.425781 428.394531 C 427.128906 427.710938 426.769531 427.0625 426.347656 426.449219 C 425.925781 425.835938 425.449219 425.269531 424.921875 424.746094 C 424.390625 424.226562 423.816406 423.757812 423.195312 423.347656 C 422.574219 422.933594 421.921875 422.585938 421.234375 422.296875 C 420.546875 422.011719 419.839844 421.792969 419.113281 421.640625 C 418.382812 421.492188 417.648438 421.410156 416.902344 421.402344 C 416.160156 421.390625 415.421875 421.453125 414.6875 421.585938 C 415.21875 421.359375 415.808594 421.144531 416.382812 420.964844 C 416.917969 420.796875 417.464844 420.65625 418.011719 420.542969 C 418.5625 420.425781 419.117188 420.339844 419.675781 420.28125 C 420.234375 420.222656 420.796875 420.1875 421.355469 420.183594 C 421.917969 420.179688 422.480469 420.203125 423.039062 420.253906 C 423.597656 420.304688 424.15625 420.382812 424.707031 420.488281 C 425.257812 420.59375 425.804688 420.722656 426.34375 420.882812 C 426.882812 421.042969 427.410156 421.226562 427.933594 421.4375 C 428.453125 421.648438 428.960938 421.882812 429.460938 422.144531 C 429.957031 422.40625 430.441406 422.691406 430.910156 422.996094 C 431.378906 423.304688 431.835938 423.636719 432.273438 423.988281 C 432.707031 424.34375 433.128906 424.714844 433.527344 425.109375 C 433.929688 425.503906 434.308594 425.917969 434.667969 426.347656 C 435.027344 426.777344 435.367188 427.226562 435.683594 427.691406 C 436 428.15625 436.292969 428.636719 436.5625 429.128906 C 436.828125 429.621094 437.074219 430.125 437.292969 430.644531 C 437.511719 431.160156 437.707031 431.6875 437.875 432.222656 Z M 456.40625 533.566406 C 455.453125 534.230469 454.457031 534.894531 453.460938 535.515625 L 451.015625 536.964844 C 450.105469 537.546875 449.195312 538.082031 448.242188 538.582031 C 446.957031 539.285156 445.671875 539.988281 444.347656 540.570312 C 434.816406 545.171875 424.789062 548.003906 414.261719 549.066406 C 412.726562 549.191406 411.195312 549.3125 409.660156 549.398438 C 408.292969 549.480469 406.925781 549.519531 405.519531 549.519531 C 403.941406 549.519531 402.328125 549.480469 400.792969 549.398438 C 397.976562 549.273438 395.242188 549.023438 392.546875 548.652344 C 391.222656 548.484375 389.894531 548.277344 388.570312 548.03125 C 387.410156 547.820312 386.25 547.574219 385.089844 547.324219 C 384.964844 547.285156 384.796875 547.285156 384.675781 547.242188 C 383.886719 547.078125 383.097656 546.867188 382.269531 546.660156 C 381.070312 546.371094 379.867188 546.039062 378.707031 545.667969 C 377.851562 545.433594 377.007812 545.160156 376.179688 544.839844 C 375.351562 544.589844 374.5625 544.300781 373.777344 544.007812 C 372.367188 543.511719 371.039062 542.972656 369.671875 542.394531 C 369.632812 542.433594 369.589844 542.394531 369.550781 542.351562 C 368.222656 541.8125 366.898438 541.191406 365.613281 540.570312 C 364.992188 540.28125 364.410156 539.992188 363.789062 539.699219 L 392.589844 723.441406 C 396.691406 723.5625 400.835938 723.648438 404.980469 723.648438 C 412.726562 723.648438 420.394531 723.398438 427.976562 722.902344 L 457.773438 532.574219 C 457.316406 532.945312 456.859375 533.234375 456.40625 533.566406 Z M 456.40625 533.566406 " fill-opacity="1" fill-rule="nonzero"/><path fill="#242156" d="M 363.789062 539.699219 L 392.589844 723.4375 C 383.660156 723.125 374.753906 722.457031 365.878906 721.433594 C 357 720.410156 348.179688 719.03125 339.410156 717.300781 C 330.644531 715.570312 321.960938 713.492188 313.359375 711.066406 C 304.761719 708.640625 296.269531 705.875 287.890625 702.769531 C 279.511719 699.664062 271.269531 696.226562 263.167969 692.460938 C 255.0625 688.699219 247.121094 684.617188 239.34375 680.214844 C 231.566406 675.816406 223.976562 671.109375 216.578125 666.101562 C 209.175781 661.09375 201.984375 655.800781 195.007812 650.21875 C 181.167969 639.207031 168.28125 627.175781 156.347656 614.125 C 155.847656 613.585938 155.394531 613.085938 154.894531 612.550781 C 152.90625 610.394531 151 608.15625 149.09375 605.960938 C 138.992188 594.210938 129.75 581.824219 121.371094 568.789062 C 121.207031 568.519531 121.027344 568.253906 120.832031 568.003906 C 120.757812 567.859375 120.675781 567.722656 120.585938 567.589844 C 118.265625 563.984375 116.027344 560.253906 113.871094 556.605469 C 113.582031 556.070312 113.25 555.570312 112.960938 555.03125 L 126.757812 529.546875 C 128.859375 525.667969 131.167969 521.914062 133.683594 518.292969 C 136.203125 514.671875 138.914062 511.199219 141.820312 507.878906 C 144.726562 504.5625 147.808594 501.414062 151.066406 498.4375 C 154.324219 495.464844 157.738281 492.679688 161.308594 490.085938 C 164.878906 487.492188 168.578125 485.105469 172.414062 482.925781 C 176.25 480.746094 180.195312 478.789062 184.25 477.050781 C 188.304688 475.3125 192.445312 473.804688 196.667969 472.527344 C 200.890625 471.253906 205.171875 470.21875 209.511719 469.417969 L 296.121094 453.507812 C 298.523438 459.929688 301.230469 466.257812 304.242188 472.484375 C 316.257812 497.226562 333.539062 521.921875 357.90625 536.386719 C 359.023438 537.089844 360.183594 537.753906 361.386719 538.375 C 362.171875 538.828125 362.960938 539.285156 363.789062 539.699219 Z M 702.925781 527.433594 C 700.738281 523.707031 698.355469 520.113281 695.773438 516.644531 C 693.195312 513.179688 690.433594 509.867188 687.492188 506.703125 C 684.546875 503.539062 681.441406 500.542969 678.171875 497.71875 C 674.902344 494.898438 671.488281 492.257812 667.929688 489.808594 C 664.371094 487.359375 660.6875 485.109375 656.882812 483.0625 C 653.078125 481.015625 649.175781 479.179688 645.167969 477.5625 C 641.164062 475.941406 637.082031 474.542969 632.925781 473.371094 C 628.765625 472.195312 624.554688 471.253906 620.296875 470.539062 L 513.796875 452.761719 C 511.972656 457.527344 509.984375 462.25 507.832031 466.933594 C 497.96875 488.398438 484.25 510.359375 465.6875 526.234375 C 465.191406 526.6875 464.691406 527.101562 464.195312 527.515625 C 463.449219 528.179688 462.660156 528.84375 461.875 529.464844 C 461.046875 530.167969 460.175781 530.832031 459.304688 531.496094 C 458.808594 531.867188 458.3125 532.242188 457.773438 532.574219 L 427.976562 722.902344 C 436.558594 722.324219 445.105469 721.421875 453.617188 720.1875 C 462.128906 718.953125 470.582031 717.394531 478.972656 715.511719 C 487.367188 713.628906 495.675781 711.425781 503.898438 708.90625 C 512.121094 706.382812 520.234375 703.546875 528.238281 700.402344 C 536.242188 697.253906 544.113281 693.804688 551.851562 690.050781 C 559.59375 686.300781 567.175781 682.253906 574.605469 677.917969 C 582.03125 673.582031 589.28125 668.96875 596.355469 664.074219 C 603.429688 659.179688 610.304688 654.023438 616.980469 648.601562 L 617.019531 648.601562 C 621.496094 644.914062 625.929688 641.226562 630.199219 637.328125 C 631.773438 635.878906 633.390625 634.46875 634.921875 632.980469 C 636.789062 631.195312 638.609375 629.496094 640.433594 627.714844 C 642.753906 625.476562 645.035156 623.15625 647.273438 620.835938 L 647.519531 620.589844 C 650.546875 617.480469 653.445312 614.371094 656.304688 611.140625 C 656.800781 610.519531 657.339844 609.980469 657.839844 609.398438 C 669.3125 596.453125 679.714844 582.695312 689.042969 568.125 C 695.527344 558.011719 701.441406 547.566406 706.777344 536.800781 L 707.523438 535.308594 Z M 280.746094 387.207031 C 279.839844 387.050781 278.929688 386.984375 278.011719 386.996094 C 277.296875 387 276.585938 387.03125 275.875 387.101562 C 275.164062 387.171875 274.457031 387.277344 273.757812 387.417969 C 273.058594 387.554688 272.367188 387.730469 271.683594 387.9375 C 271 388.144531 270.328125 388.382812 269.667969 388.65625 C 269.011719 388.929688 268.367188 389.234375 267.734375 389.570312 C 267.105469 389.910156 266.496094 390.273438 265.902344 390.671875 C 265.308594 391.066406 264.734375 391.492188 264.183594 391.945312 C 263.632812 392.398438 263.101562 392.878906 262.597656 393.382812 C 262.09375 393.886719 261.613281 394.414062 261.160156 394.96875 C 260.707031 395.519531 260.285156 396.089844 259.886719 396.683594 C 259.492188 397.277344 259.125 397.890625 258.789062 398.519531 C 258.449219 399.148438 258.144531 399.792969 257.871094 400.453125 C 257.601562 401.113281 257.359375 401.785156 257.152344 402.46875 C 256.945312 403.152344 256.773438 403.84375 256.632812 404.542969 C 256.492188 405.242188 256.390625 405.949219 256.320312 406.660156 C 256.25 407.367188 256.214844 408.082031 256.214844 408.792969 C 256.214844 409.507812 256.25 410.222656 256.320312 410.929688 C 256.390625 411.640625 256.492188 412.347656 256.632812 413.046875 C 256.773438 413.746094 256.945312 414.4375 257.152344 415.121094 C 257.359375 415.804688 257.601562 416.476562 257.871094 417.136719 C 258.144531 417.796875 258.449219 418.441406 258.789062 419.070312 C 259.125 419.699219 259.492188 420.3125 259.886719 420.90625 C 260.285156 421.5 260.707031 422.070312 261.160156 422.621094 C 261.613281 423.175781 262.09375 423.703125 262.597656 424.207031 C 263.101562 424.710938 263.632812 425.191406 264.183594 425.644531 C 264.734375 426.097656 265.308594 426.523438 265.902344 426.917969 C 266.496094 427.316406 267.105469 427.679688 267.734375 428.019531 C 268.367188 428.355469 269.011719 428.660156 269.667969 428.933594 C 270.328125 429.207031 271 429.445312 271.683594 429.652344 C 272.367188 429.859375 273.058594 430.035156 273.757812 430.171875 C 274.457031 430.3125 275.164062 430.417969 275.875 430.488281 C 276.585938 430.558594 277.296875 430.589844 278.011719 430.589844 C 281.527344 430.605469 284.84375 429.789062 287.957031 428.148438 C 284.449219 414.695312 282.046875 401.046875 280.746094 387.207031 Z M 531.949219 386.996094 C 530.988281 387.003906 530.035156 387.074219 529.089844 387.207031 C 527.757812 401.023438 525.328125 414.640625 521.796875 428.0625 C 524.96875 429.753906 528.351562 430.597656 531.949219 430.589844 C 532.660156 430.589844 533.375 430.558594 534.085938 430.488281 C 534.792969 430.417969 535.5 430.3125 536.199219 430.171875 C 536.898438 430.035156 537.589844 429.859375 538.273438 429.652344 C 538.957031 429.445312 539.628906 429.207031 540.289062 428.933594 C 540.949219 428.660156 541.59375 428.355469 542.222656 428.019531 C 542.851562 427.679688 543.464844 427.316406 544.058594 426.917969 C 544.652344 426.523438 545.222656 426.097656 545.773438 425.644531 C 546.328125 425.191406 546.855469 424.710938 547.359375 424.207031 C 547.863281 423.703125 548.34375 423.175781 548.796875 422.621094 C 549.25 422.070312 549.675781 421.5 550.070312 420.90625 C 550.46875 420.3125 550.835938 419.699219 551.171875 419.070312 C 551.507812 418.441406 551.8125 417.796875 552.085938 417.136719 C 552.359375 416.476562 552.597656 415.804688 552.804688 415.121094 C 553.011719 414.4375 553.1875 413.746094 553.324219 413.046875 C 553.464844 412.347656 553.570312 411.640625 553.640625 410.929688 C 553.710938 410.222656 553.746094 409.507812 553.746094 408.792969 C 553.746094 408.082031 553.710938 407.367188 553.640625 406.660156 C 553.570312 405.949219 553.464844 405.242188 553.324219 404.542969 C 553.1875 403.84375 553.011719 403.152344 552.804688 402.46875 C 552.597656 401.785156 552.359375 401.113281 552.085938 400.453125 C 551.8125 399.792969 551.507812 399.148438 551.171875 398.519531 C 550.835938 397.890625 550.46875 397.277344 550.070312 396.683594 C 549.675781 396.089844 549.25 395.519531 548.796875 394.96875 C 548.34375 394.414062 547.863281 393.886719 547.359375 393.382812 C 546.855469 392.878906 546.328125 392.398438 545.773438 391.945312 C 545.222656 391.492188 544.652344 391.066406 544.058594 390.671875 C 543.464844 390.273438 542.851562 389.910156 542.222656 389.570312 C 541.59375 389.234375 540.949219 388.929688 540.289062 388.65625 C 539.628906 388.382812 538.957031 388.144531 538.273438 387.9375 C 537.589844 387.730469 536.898438 387.554688 536.199219 387.417969 C 535.5 387.277344 534.792969 387.171875 534.085938 387.101562 C 533.375 387.03125 532.660156 387 531.949219 386.996094 Z M 345.117188 375.117188 C 349.691406 375.117188 353.402344 368.855469 353.402344 361.132812 C 353.402344 353.410156 349.691406 347.148438 345.117188 347.148438 C 340.539062 347.148438 336.828125 353.410156 336.828125 361.132812 C 336.828125 368.855469 340.539062 375.117188 345.117188 375.117188 Z M 459.074219 375.117188 C 463.648438 375.117188 467.359375 368.855469 467.359375 361.132812 C 467.359375 353.410156 463.648438 347.148438 459.074219 347.148438 C 454.496094 347.148438 450.785156 353.410156 450.785156 361.132812 C 450.785156 368.855469 454.496094 375.117188 459.074219 375.117188 Z M 422.050781 429.847656 L 402.644531 429.847656 C 402.226562 429.847656 401.808594 429.804688 401.398438 429.71875 C 400.988281 429.636719 400.589844 429.511719 400.203125 429.347656 C 399.816406 429.183594 399.449219 428.980469 399.105469 428.742188 C 398.757812 428.503906 398.441406 428.230469 398.148438 427.929688 C 397.859375 427.625 397.601562 427.296875 397.375 426.941406 C 397.152344 426.585938 396.964844 426.214844 396.816406 425.820312 C 396.667969 425.429688 396.558594 425.023438 396.492188 424.609375 C 396.425781 424.195312 396.402344 423.777344 396.417969 423.359375 L 399.550781 346.886719 C 399.5625 346.589844 399.515625 346.300781 399.417969 346.019531 C 399.320312 345.738281 399.171875 345.484375 398.980469 345.261719 C 398.785156 345.035156 398.558594 344.851562 398.292969 344.714844 C 398.03125 344.574219 397.753906 344.488281 397.457031 344.453125 C 397.164062 344.421875 396.871094 344.441406 396.585938 344.515625 C 396.296875 344.59375 396.03125 344.71875 395.792969 344.894531 C 395.554688 345.070312 395.351562 345.28125 395.195312 345.53125 C 395.035156 345.785156 394.925781 346.054688 394.867188 346.347656 L 379.28125 426.066406 C 379.167969 426.632812 379.136719 427.207031 379.1875 427.78125 C 379.234375 428.359375 379.363281 428.917969 379.566406 429.457031 C 379.773438 430 380.046875 430.5 380.390625 430.964844 C 380.738281 431.429688 381.140625 431.835938 381.597656 432.1875 L 398.066406 444.808594 C 398.761719 445.34375 399.523438 445.75 400.351562 446.03125 C 401.183594 446.3125 402.035156 446.453125 402.910156 446.453125 C 403.789062 446.453125 404.640625 446.3125 405.46875 446.027344 C 406.296875 445.746094 407.0625 445.339844 407.753906 444.804688 L 423.128906 432.996094 C 423.429688 432.765625 423.632812 432.46875 423.738281 432.109375 C 423.847656 431.75 423.84375 431.390625 423.71875 431.035156 C 423.597656 430.675781 423.382812 430.390625 423.078125 430.171875 C 422.769531 429.953125 422.429688 429.84375 422.050781 429.847656 Z M 422.050781 429.847656 " fill-opacity="1" fill-rule="nonzero"/></svg>