<svg xmlns="http://www.w3.org/2000/svg" xmlns:xlink="http://www.w3.org/1999/xlink" width="1080" zoomAndPan="magnify" viewBox="0 0 810 809.999993" height="1080" preserveAspectRatio="xMidYMid meet" version="1.0"><defs><clipPath id="2c538b4734"><path d="M 67.5 53.4375 L 742.5 53.4375 L 742.5 729 L 67.5 729 Z M 67.5 53.4375 " clip-rule="nonzero"/></clipPath></defs><g clip-path="url(#2c538b4734)"><path fill="#cb6ce6" d="M 742.5 390.960938 C 742.5 395.238281 742.417969 399.511719 742.253906 403.785156 C 742.09375 408.058594 741.847656 412.328125 741.523438 416.589844 C 741.199219 420.855469 740.792969 425.109375 740.308594 429.359375 C 739.820312 433.605469 739.253906 437.84375 738.605469 442.070312 C 737.960938 446.296875 737.230469 450.507812 736.421875 454.707031 C 735.617188 458.90625 734.730469 463.089844 733.761719 467.253906 C 732.796875 471.417969 731.75 475.5625 730.625 479.6875 C 729.5 483.816406 728.300781 487.917969 727.019531 491.996094 C 725.738281 496.078125 724.382812 500.128906 722.945312 504.160156 C 721.511719 508.1875 720 512.1875 718.414062 516.15625 C 716.828125 520.128906 715.167969 524.066406 713.429688 527.972656 C 711.695312 531.882812 709.886719 535.753906 708.003906 539.59375 C 706.117188 543.433594 704.164062 547.234375 702.136719 550.996094 C 700.105469 554.761719 698.007812 558.488281 695.839844 562.171875 C 693.667969 565.855469 691.429688 569.496094 689.121094 573.097656 C 686.816406 576.695312 684.441406 580.25 681.996094 583.761719 C 679.554688 587.269531 677.042969 590.730469 674.46875 594.144531 C 671.894531 597.558594 669.257812 600.921875 666.554688 604.234375 C 663.851562 607.550781 661.085938 610.808594 658.261719 614.019531 C 655.433594 617.226562 652.546875 620.378906 649.601562 623.480469 C 646.65625 626.578125 643.652344 629.617188 640.589844 632.601562 C 637.527344 635.589844 634.410156 638.511719 631.234375 641.378906 C 628.0625 644.246094 624.835938 647.050781 621.554688 649.792969 C 618.277344 652.535156 614.945312 655.214844 611.5625 657.832031 C 608.183594 660.449219 604.753906 663 601.273438 665.488281 C 597.792969 667.972656 594.269531 670.394531 590.699219 672.746094 C 587.128906 675.097656 583.515625 677.382812 579.855469 679.597656 C 576.199219 681.8125 572.5 683.957031 568.761719 686.03125 C 565.023438 688.105469 561.246094 690.105469 557.429688 692.039062 C 553.617188 693.96875 549.765625 695.824219 545.878906 697.609375 C 541.996094 699.394531 538.078125 701.105469 534.125 702.738281 C 530.175781 704.375 526.195312 705.933594 522.183594 707.417969 C 518.175781 708.902344 514.136719 710.308594 510.074219 711.640625 C 506.011719 712.972656 501.921875 714.222656 497.8125 715.398438 C 493.699219 716.574219 489.570312 717.671875 485.414062 718.691406 C 481.261719 719.707031 477.09375 720.648438 472.902344 721.507812 C 468.714844 722.367188 464.511719 723.144531 460.292969 723.84375 C 456.074219 724.546875 451.84375 725.164062 447.605469 725.703125 C 443.363281 726.242188 439.113281 726.699219 434.851562 727.078125 C 430.59375 727.457031 426.328125 727.753906 422.058594 727.96875 C 417.789062 728.183594 413.515625 728.316406 409.238281 728.371094 C 404.964844 728.421875 400.6875 728.394531 396.414062 728.285156 C 392.140625 728.175781 387.871094 727.984375 383.601562 727.710938 C 379.335938 727.441406 375.074219 727.085938 370.820312 726.652344 C 366.566406 726.21875 362.324219 725.703125 358.089844 725.109375 C 353.855469 724.515625 349.632812 723.839844 345.425781 723.082031 C 341.214844 722.328125 337.023438 721.492188 332.847656 720.578125 C 328.667969 719.660156 324.511719 718.667969 320.371094 717.59375 C 316.234375 716.519531 312.117188 715.367188 308.023438 714.140625 C 303.925781 712.910156 299.855469 711.601562 295.8125 710.21875 C 291.765625 708.832031 287.746094 707.371094 283.757812 705.835938 C 279.765625 704.296875 275.808594 702.6875 271.878906 701 C 267.949219 699.308594 264.054688 697.546875 260.195312 695.714844 C 256.332031 693.878906 252.507812 691.96875 248.71875 689.988281 C 244.929688 688.007812 241.179688 685.953125 237.46875 683.828125 C 233.757812 681.707031 230.085938 679.511719 226.460938 677.25 C 222.832031 674.984375 219.246094 672.65625 215.707031 670.253906 C 212.167969 667.855469 208.675781 665.390625 205.230469 662.859375 C 201.785156 660.324219 198.390625 657.730469 195.042969 655.066406 C 191.699219 652.40625 188.402344 649.683594 185.160156 646.894531 C 181.917969 644.109375 178.726562 641.261719 175.59375 638.355469 C 172.457031 635.445312 169.378906 632.480469 166.355469 629.453125 C 163.335938 626.429688 160.371094 623.347656 157.464844 620.210938 C 154.5625 617.074219 151.71875 613.882812 148.933594 610.636719 C 138.519531 598.5 129.007812 585.699219 120.394531 572.226562 C 116.105469 565.503906 112.058594 558.632812 108.253906 551.621094 C 104.453125 544.609375 100.902344 537.472656 97.609375 530.207031 C 94.316406 522.941406 91.285156 515.566406 88.515625 508.085938 C 85.746094 500.605469 83.25 493.035156 81.019531 485.378906 C 78.789062 477.71875 76.835938 469.988281 75.15625 462.191406 C 73.476562 454.394531 72.078125 446.546875 70.960938 438.648438 C 69.839844 430.75 69.003906 422.820312 68.449219 414.863281 C 67.894531 406.90625 67.621094 398.941406 67.632812 390.960938 C 67.632812 204.597656 218.703125 53.53125 405.066406 53.53125 C 591.433594 53.53125 742.5 204.597656 742.5 390.960938 Z M 742.5 390.960938 " fill-opacity="1" fill-rule="nonzero"/></g><path fill="#242156" d="M 442.230469 397.144531 L 442.230469 482.175781 L 348.488281 482.175781 L 345.875 499.886719 L 310.453125 485.492188 C 307.140625 484.148438 303.96875 482.535156 300.933594 480.648438 C 297.898438 478.761719 295.042969 476.632812 292.375 474.257812 C 289.703125 471.882812 287.253906 469.300781 285.023438 466.507812 C 282.792969 463.714844 280.816406 460.75 279.09375 457.621094 L 275.445312 450.984375 C 274.269531 448.847656 272.960938 446.800781 271.511719 444.839844 C 270.066406 442.878906 268.492188 441.023438 266.796875 439.273438 C 265.101562 437.523438 263.296875 435.894531 261.382812 434.386719 C 259.46875 432.878906 257.464844 431.503906 255.367188 430.265625 C 253.269531 429.023438 251.097656 427.929688 248.855469 426.980469 C 246.609375 426.027344 244.3125 425.230469 241.960938 424.589844 C 239.613281 423.945312 237.230469 423.464844 234.8125 423.140625 C 232.398438 422.816406 229.972656 422.652344 227.535156 422.652344 L 226.625 422.652344 C 225.050781 422.679688 223.480469 422.652344 221.90625 422.566406 C 220.335938 422.480469 218.769531 422.339844 217.210938 422.144531 C 215.648438 421.945312 214.097656 421.691406 212.554688 421.382812 C 211.011719 421.074219 209.484375 420.710938 207.964844 420.292969 C 206.449219 419.875 204.949219 419.402344 203.46875 418.875 C 201.984375 418.347656 200.523438 417.769531 199.082031 417.140625 C 197.640625 416.507812 196.222656 415.824219 194.832031 415.09375 C 193.441406 414.359375 192.074219 413.578125 190.738281 412.746094 C 189.402344 411.917969 188.097656 411.039062 186.824219 410.117188 C 185.554688 409.191406 184.3125 408.222656 183.109375 407.210938 C 181.90625 406.195312 180.742188 405.140625 179.613281 404.042969 C 178.484375 402.945312 177.398438 401.8125 176.351562 400.636719 C 175.304688 399.460938 174.304688 398.25 173.34375 397.003906 C 172.382812 395.757812 171.472656 394.476562 170.601562 393.164062 C 169.734375 391.851562 168.917969 390.511719 168.144531 389.140625 C 167.375 387.769531 166.652344 386.371094 165.980469 384.949219 L 165.359375 383.664062 C 162.542969 377.671875 158.851562 372.277344 154.285156 367.484375 C 149.71875 362.695312 144.523438 358.742188 138.6875 355.621094 C 137.847656 355.167969 137.039062 354.660156 136.265625 354.097656 C 135.492188 353.535156 134.761719 352.921875 134.074219 352.261719 C 133.382812 351.597656 132.742188 350.890625 132.148438 350.140625 C 131.554688 349.394531 131.015625 348.605469 130.527344 347.785156 C 130.042969 346.960938 129.613281 346.109375 129.242188 345.226562 C 128.871094 344.347656 128.5625 343.445312 128.316406 342.519531 C 128.066406 341.597656 127.882812 340.660156 127.761719 339.714844 C 127.640625 338.765625 127.585938 337.8125 127.59375 336.855469 C 127.601562 335.902344 127.675781 334.949219 127.8125 334.003906 C 127.949219 333.058594 128.152344 332.125 128.414062 331.207031 C 128.679688 330.289062 129.003906 329.390625 129.390625 328.515625 C 129.777344 327.644531 130.222656 326.796875 130.722656 325.984375 C 131.222656 325.171875 131.777344 324.394531 132.382812 323.65625 C 132.992188 322.914062 133.644531 322.222656 134.347656 321.570312 C 135.046875 320.921875 135.789062 320.320312 136.570312 319.773438 C 137.355469 319.222656 138.171875 318.730469 139.019531 318.292969 L 139.808594 317.917969 C 142.851562 316.347656 145.707031 314.484375 148.363281 312.324219 C 151.023438 310.164062 153.433594 307.753906 155.589844 305.09375 C 157.75 302.4375 159.613281 299.582031 161.183594 296.539062 C 162.753906 293.492188 163.992188 290.320312 164.902344 287.015625 L 165.441406 285.066406 C 165.863281 283.539062 166.339844 282.027344 166.878906 280.539062 C 167.417969 279.046875 168.011719 277.582031 168.667969 276.136719 C 169.320312 274.695312 170.03125 273.28125 170.796875 271.890625 C 171.5625 270.503906 172.382812 269.148438 173.253906 267.828125 C 174.128906 266.503906 175.050781 265.21875 176.027344 263.96875 C 177 262.71875 178.023438 261.507812 179.09375 260.339844 C 180.160156 259.171875 181.277344 258.042969 182.433594 256.964844 C 183.59375 255.882812 184.792969 254.847656 186.03125 253.863281 C 187.273438 252.875 188.550781 251.9375 189.863281 251.050781 C 191.175781 250.167969 192.523438 249.332031 193.902344 248.554688 C 195.285156 247.773438 196.691406 247.050781 198.128906 246.382812 C 199.566406 245.714844 201.027344 245.101562 202.511719 244.550781 C 203.996094 243.996094 205.5 243.5 207.023438 243.066406 C 208.546875 242.632812 210.085938 242.257812 211.640625 241.945312 C 213.195312 241.632812 214.757812 241.382812 216.332031 241.191406 C 217.902344 241 219.480469 240.875 221.066406 240.808594 C 222.335938 240.753906 223.597656 240.605469 224.847656 240.363281 C 226.097656 240.121094 227.320312 239.789062 228.523438 239.367188 C 229.722656 238.945312 230.886719 238.4375 232.011719 237.84375 C 233.136719 237.25 234.210938 236.574219 235.238281 235.824219 C 236.265625 235.070312 237.230469 234.246094 238.136719 233.351562 C 239.039062 232.457031 239.875 231.5 240.636719 230.480469 C 241.402344 229.460938 242.085938 228.394531 242.691406 227.273438 C 243.296875 226.15625 243.816406 225 244.253906 223.800781 L 244.378906 223.429688 C 245.414062 220.578125 246.640625 217.808594 248.058594 215.128906 C 249.480469 212.445312 251.078125 209.875 252.851562 207.414062 C 254.628906 204.957031 256.566406 202.628906 258.664062 200.4375 C 260.761719 198.246094 263 196.210938 265.382812 194.328125 C 267.761719 192.449219 270.261719 190.738281 272.878906 189.207031 C 275.496094 187.671875 278.207031 186.324219 281.011719 185.164062 C 283.8125 184.007812 286.683594 183.046875 289.621094 182.285156 C 292.558594 181.523438 295.535156 180.972656 298.546875 180.621094 L 309.167969 179.417969 L 309.375 179.835938 L 373.003906 315.804688 L 361.015625 397.144531 Z M 677.832031 320.367188 L 677.046875 319.992188 C 674 318.421875 671.148438 316.558594 668.488281 314.398438 C 665.832031 312.238281 663.421875 309.828125 661.261719 307.167969 C 659.101562 304.511719 657.238281 301.65625 655.667969 298.613281 C 654.101562 295.566406 652.863281 292.390625 651.949219 289.089844 L 651.410156 287.140625 C 650.992188 285.613281 650.511719 284.101562 649.972656 282.613281 C 649.4375 281.121094 648.839844 279.65625 648.1875 278.210938 C 647.53125 276.769531 646.820312 275.351562 646.054688 273.964844 C 645.289062 272.578125 644.46875 271.222656 643.597656 269.902344 C 642.726562 268.578125 641.800781 267.292969 640.828125 266.042969 C 639.851562 264.792969 638.832031 263.582031 637.761719 262.414062 C 636.691406 261.242188 635.578125 260.117188 634.417969 259.039062 C 633.261719 257.957031 632.0625 256.921875 630.820312 255.933594 C 629.582031 254.949219 628.304688 254.011719 626.992188 253.125 C 625.675781 252.242188 624.328125 251.40625 622.949219 250.628906 C 621.570312 249.847656 620.160156 249.125 618.726562 248.457031 C 617.289062 247.789062 615.828125 247.175781 614.34375 246.621094 C 612.859375 246.070312 611.351562 245.574219 609.828125 245.140625 C 608.304688 244.707031 606.765625 244.332031 605.214844 244.019531 C 603.660156 243.707031 602.097656 243.453125 600.523438 243.265625 C 598.949219 243.074219 597.371094 242.949219 595.789062 242.882812 C 594.515625 242.828125 593.257812 242.679688 592.007812 242.4375 C 590.757812 242.195312 589.53125 241.863281 588.332031 241.441406 C 587.132812 241.019531 585.96875 240.511719 584.84375 239.917969 C 583.714844 239.324219 582.640625 238.648438 581.613281 237.894531 C 580.589844 237.144531 579.625 236.320312 578.71875 235.425781 C 577.8125 234.53125 576.980469 233.574219 576.214844 232.554688 C 575.453125 231.535156 574.769531 230.46875 574.164062 229.347656 C 573.554688 228.230469 573.035156 227.070312 572.601562 225.875 L 572.476562 225.503906 C 562.976562 199.414062 542.859375 189.085938 529.214844 185.019531 C 519.238281 181.933594 510.167969 177.136719 502.003906 170.625 C 499.027344 168.285156 495.964844 166.0625 492.816406 163.957031 C 489.667969 161.851562 486.441406 159.867188 483.140625 158.011719 C 479.839844 156.15625 476.472656 154.429688 473.039062 152.832031 C 469.605469 151.234375 466.113281 149.773438 462.566406 148.445312 C 459.019531 147.117188 455.425781 145.929688 451.789062 144.878906 C 448.148438 143.828125 444.476562 142.917969 440.765625 142.152344 C 437.058594 141.386719 433.324219 140.761719 429.566406 140.285156 C 425.808594 139.804688 422.039062 139.472656 418.257812 139.285156 C 414.472656 139.09375 410.691406 139.054688 406.902344 139.15625 C 403.117188 139.261719 399.34375 139.511719 395.574219 139.90625 C 391.808594 140.300781 388.0625 140.839844 384.335938 141.523438 C 380.613281 142.210938 376.917969 143.035156 373.257812 144.003906 C 369.597656 144.972656 365.976562 146.082031 362.402344 147.332031 C 358.828125 148.578125 355.304688 149.964844 351.835938 151.484375 C 348.367188 153.003906 344.960938 154.65625 341.617188 156.4375 C 338.277344 158.21875 335.007812 160.128906 331.816406 162.164062 C 335.382812 185.601562 344.921875 208.289062 357.78125 228.40625 C 375.90625 256.652344 400.378906 280.253906 426.015625 301.867188 C 432.070312 306.96875 438.292969 312.109375 443.972656 317.667969 L 443.851562 317.875 L 468.53125 485.410156 L 471.101562 485.410156 L 471.101562 501.917969 L 506.402344 487.566406 C 509.710938 486.222656 512.886719 484.609375 515.921875 482.722656 C 518.957031 480.835938 521.808594 478.707031 524.480469 476.332031 C 527.152344 473.957031 529.601562 471.375 531.832031 468.578125 C 534.058594 465.785156 536.035156 462.824219 537.757812 459.695312 L 541.410156 453.058594 C 542.582031 450.921875 543.894531 448.875 545.339844 446.914062 C 546.789062 444.953125 548.359375 443.097656 550.054688 441.347656 C 551.753906 439.597656 553.558594 437.96875 555.472656 436.460938 C 557.382812 434.953125 559.390625 433.578125 561.488281 432.339844 C 563.585938 431.097656 565.753906 430.003906 568 429.054688 C 570.242188 428.101562 572.539062 427.304688 574.890625 426.664062 C 577.242188 426.019531 579.625 425.535156 582.039062 425.210938 C 584.453125 424.886719 586.878906 424.726562 589.316406 424.726562 L 590.230469 424.726562 C 591.800781 424.753906 593.375 424.726562 594.945312 424.640625 C 596.515625 424.554688 598.082031 424.414062 599.644531 424.21875 C 601.203125 424.019531 602.753906 423.765625 604.296875 423.457031 C 605.839844 423.148438 607.371094 422.785156 608.886719 422.367188 C 610.402344 421.949219 611.902344 421.476562 613.386719 420.949219 C 614.867188 420.421875 616.332031 419.84375 617.773438 419.214844 C 619.210938 418.582031 620.628906 417.898438 622.019531 417.167969 C 623.414062 416.433594 624.777344 415.652344 626.113281 414.820312 C 627.449219 413.992188 628.753906 413.113281 630.027344 412.1875 C 631.300781 411.265625 632.539062 410.296875 633.742188 409.28125 C 634.945312 408.269531 636.113281 407.214844 637.238281 406.117188 C 638.367188 405.019531 639.453125 403.886719 640.5 402.710938 C 641.546875 401.535156 642.550781 400.324219 643.507812 399.078125 C 644.46875 397.832031 645.382812 396.550781 646.25 395.238281 C 647.117188 393.925781 647.9375 392.585938 648.707031 391.214844 C 649.480469 389.84375 650.199219 388.445312 650.871094 387.023438 L 651.496094 385.738281 C 654.3125 379.746094 658.003906 374.351562 662.570312 369.558594 C 667.125 364.78125 672.3125 360.828125 678.125 357.695312 C 678.96875 357.246094 679.777344 356.738281 680.550781 356.175781 C 681.324219 355.617188 682.058594 355.003906 682.746094 354.34375 C 683.4375 353.683594 684.082031 352.976562 684.675781 352.226562 C 685.273438 351.480469 685.8125 350.695312 686.300781 349.871094 C 686.789062 349.046875 687.222656 348.195312 687.59375 347.316406 C 687.964844 346.433594 688.277344 345.53125 688.527344 344.609375 C 688.777344 343.6875 688.960938 342.75 689.082031 341.800781 C 689.207031 340.851562 689.261719 339.898438 689.253906 338.945312 C 689.25 337.988281 689.175781 337.035156 689.039062 336.089844 C 688.902344 335.140625 688.703125 334.210938 688.4375 333.289062 C 688.175781 332.371094 687.847656 331.472656 687.464844 330.597656 C 687.078125 329.722656 686.632812 328.878906 686.132812 328.0625 C 685.632812 327.25 685.078125 326.472656 684.472656 325.730469 C 683.863281 324.992188 683.210938 324.296875 682.507812 323.648438 C 681.808594 322.996094 681.066406 322.398438 680.28125 321.847656 C 679.5 321.296875 678.683594 320.804688 677.832031 320.367188 Z M 677.832031 320.367188 " fill-opacity="1" fill-rule="nonzero"/><path fill="#b84f43" d="M 642.203125 581.601562 C 641.199219 579.21875 640.125 576.867188 638.976562 574.550781 C 637.828125 572.234375 636.609375 569.953125 635.324219 567.710938 C 634.035156 565.46875 632.679688 563.265625 631.257812 561.109375 C 629.835938 558.949219 628.347656 556.835938 626.796875 554.765625 C 625.242188 552.699219 623.628906 550.679688 621.953125 548.710938 C 620.277344 546.742188 618.542969 544.824219 616.75 542.960938 C 614.953125 541.101562 613.105469 539.292969 611.199219 537.542969 C 609.296875 535.796875 607.339844 534.105469 605.332031 532.476562 C 603.324219 530.847656 601.265625 529.28125 599.164062 527.777344 C 597.058594 526.277344 594.910156 524.839844 592.71875 523.46875 C 590.527344 522.097656 588.292969 520.792969 586.019531 519.558594 C 583.75 518.324219 581.441406 517.160156 579.097656 516.070312 C 576.753906 514.976562 574.378906 513.957031 571.972656 513.007812 C 569.566406 512.0625 567.132812 511.191406 564.671875 510.390625 C 562.214844 509.59375 559.730469 508.871094 557.226562 508.226562 C 554.722656 507.582031 552.203125 507.015625 549.664062 506.523438 L 488.8125 494.703125 L 471.101562 501.917969 L 471.101562 491.257812 L 471.058594 491.257812 L 471.058594 384.328125 C 472.269531 384.277344 473.472656 384.167969 474.667969 384 C 475.867188 383.832031 477.054688 383.605469 478.230469 383.320312 C 479.40625 383.035156 480.5625 382.691406 481.703125 382.292969 C 482.847656 381.894531 483.964844 381.4375 485.0625 380.929688 C 486.160156 380.417969 487.226562 379.855469 488.269531 379.242188 C 489.308594 378.625 490.316406 377.960938 491.292969 377.246094 C 492.269531 376.53125 493.207031 375.769531 494.105469 374.960938 C 495.007812 374.152344 495.867188 373.304688 496.683594 372.410156 C 497.5 371.519531 498.269531 370.589844 498.992188 369.621094 C 499.71875 368.652344 500.394531 367.648438 501.019531 366.613281 C 501.644531 365.582031 502.21875 364.515625 502.738281 363.425781 C 503.257812 362.332031 503.722656 361.21875 504.136719 360.082031 C 504.546875 358.945312 504.898438 357.789062 505.195312 356.617188 C 505.492188 355.445312 505.730469 354.257812 505.910156 353.0625 C 506.089844 351.867188 506.210938 350.664062 506.273438 349.457031 C 506.332031 348.25 506.335938 347.042969 506.277344 345.832031 C 506.207031 344.652344 506.082031 343.480469 505.902344 342.308594 C 505.71875 341.140625 505.484375 339.984375 505.191406 338.839844 C 504.902344 337.691406 504.554688 336.5625 504.15625 335.449219 C 503.757812 334.335938 503.308594 333.246094 502.804688 332.175781 C 502.300781 331.105469 501.75 330.058594 501.148438 329.042969 C 500.542969 328.023438 499.894531 327.039062 499.199219 326.082031 C 498.5 325.125 497.761719 324.207031 496.976562 323.320312 C 496.191406 322.4375 495.367188 321.589844 494.503906 320.785156 C 493.640625 319.976562 492.738281 319.214844 491.800781 318.492188 C 490.863281 317.773438 489.894531 317.097656 488.890625 316.46875 C 487.890625 315.839844 486.859375 315.261719 485.804688 314.730469 C 484.746094 314.203125 483.667969 313.722656 482.5625 313.296875 C 481.460938 312.867188 480.339844 312.496094 479.203125 312.175781 C 478.0625 311.855469 476.914062 311.589844 475.75 311.378906 C 474.585938 311.167969 473.414062 311.011719 472.238281 310.914062 C 471.058594 310.8125 469.878906 310.769531 468.695312 310.785156 C 466.613281 310.828125 464.550781 311.046875 462.507812 311.441406 C 460.460938 311.839844 458.464844 312.40625 456.519531 313.144531 C 454.574219 313.882812 452.703125 314.78125 450.910156 315.839844 C 449.117188 316.898438 447.425781 318.105469 445.839844 319.453125 C 445.21875 318.832031 444.597656 318.207031 443.972656 317.667969 C 438.292969 312.109375 432.070312 306.96875 426.015625 301.867188 C 400.378906 280.253906 375.90625 256.652344 357.78125 228.40625 C 344.921875 208.289062 335.382812 185.601562 331.816406 162.164062 C 323.75 167.308594 316.269531 173.199219 309.375 179.835938 C 303.585938 185.324219 298.277344 191.25 293.457031 197.609375 C 288.632812 203.96875 284.359375 210.675781 280.632812 217.730469 C 276.902344 224.785156 273.773438 232.097656 271.238281 239.664062 C 268.707031 247.234375 266.804688 254.957031 265.53125 262.832031 L 237.078125 360.933594 L 258.105469 364.789062 L 281.460938 369.0625 C 281.878906 369.136719 282.234375 369.324219 282.53125 369.632812 C 282.828125 369.9375 283.003906 370.304688 283.058594 370.726562 C 283.117188 371.148438 283.042969 371.546875 282.839844 371.917969 C 282.636719 372.292969 282.34375 372.570312 281.957031 372.753906 L 261.671875 382.085938 C 262.363281 384.359375 263.136719 386.605469 263.988281 388.820312 C 264.84375 391.039062 265.777344 393.21875 266.792969 395.367188 C 267.804688 397.515625 268.894531 399.625 270.0625 401.691406 C 271.230469 403.761719 272.472656 405.785156 273.789062 407.761719 C 275.105469 409.738281 276.492188 411.667969 277.949219 413.542969 C 279.402344 415.421875 280.925781 417.242188 282.515625 419.007812 C 284.105469 420.769531 285.757812 422.476562 287.472656 424.121094 C 289.1875 425.765625 290.960938 427.34375 292.789062 428.859375 C 294.617188 430.375 296.5 431.820312 298.4375 433.195312 C 300.371094 434.574219 302.355469 435.878906 304.386719 437.109375 C 306.417969 438.34375 308.492188 439.5 310.605469 440.578125 C 312.722656 441.660156 314.875 442.660156 317.0625 443.585938 C 319.25 444.507812 321.46875 445.351562 323.71875 446.113281 C 325.96875 446.871094 328.246094 447.550781 330.546875 448.144531 C 332.84375 448.738281 335.164062 449.25 337.5 449.675781 C 339.835938 450.101562 342.1875 450.441406 344.550781 450.691406 L 344.550781 450.734375 C 347.328125 451.023438 350.191406 451.191406 353.050781 451.230469 C 353.675781 451.273438 354.339844 451.273438 354.960938 451.273438 C 359.78125 451.285156 364.578125 450.9375 369.34375 450.234375 C 374.113281 449.527344 378.804688 448.472656 383.417969 447.066406 C 388.027344 445.660156 392.511719 443.917969 396.859375 441.84375 C 401.210938 439.769531 405.386719 437.382812 409.378906 434.683594 C 409.628906 434.507812 409.898438 434.382812 410.1875 434.304688 C 410.480469 434.230469 410.777344 434.207031 411.078125 434.234375 C 411.378906 434.265625 411.664062 434.347656 411.9375 434.476562 C 412.207031 434.609375 412.445312 434.785156 412.65625 435.003906 C 412.863281 435.222656 413.027344 435.46875 413.148438 435.746094 C 413.265625 436.023438 413.335938 436.316406 413.347656 436.617188 C 413.363281 436.917969 413.328125 437.210938 413.238281 437.5 C 413.144531 437.789062 413.007812 438.050781 412.824219 438.289062 C 399.800781 454.050781 377.109375 464.960938 350.8125 466.414062 C 349.113281 466.539062 347.410156 466.621094 345.710938 466.621094 L 345.710938 499.804688 L 310.453125 485.492188 C 307.140625 484.148438 303.96875 482.535156 300.933594 480.648438 C 297.898438 478.761719 295.042969 476.632812 292.375 474.257812 C 289.703125 471.882812 287.253906 469.300781 285.023438 466.507812 C 282.792969 463.710938 280.816406 460.75 279.09375 457.621094 L 277.644531 454.964844 C 275.039062 454.867188 272.433594 454.875 269.832031 454.984375 C 267.226562 455.09375 264.632812 455.304688 262.046875 455.621094 C 259.457031 455.933594 256.886719 456.351562 254.335938 456.871094 C 251.78125 457.390625 249.25 458.007812 246.746094 458.726562 C 244.242188 459.445312 241.769531 460.265625 239.328125 461.179688 C 236.890625 462.09375 234.488281 463.105469 232.128906 464.210938 C 229.769531 465.316406 227.457031 466.511719 225.191406 467.800781 C 222.929688 469.089844 220.71875 470.464844 218.5625 471.929688 C 216.40625 473.394531 214.3125 474.941406 212.277344 476.570312 C 210.242188 478.199219 208.277344 479.90625 206.378906 481.691406 C 204.480469 483.480469 202.65625 485.335938 200.90625 487.265625 C 199.15625 489.195312 197.484375 491.195312 195.890625 493.257812 C 194.300781 495.320312 192.792969 497.441406 191.367188 499.625 C 189.941406 501.804688 188.605469 504.042969 187.359375 506.328125 C 186.113281 508.617188 184.957031 510.953125 183.894531 513.332031 C 182.832031 515.710938 181.867188 518.128906 180.996094 520.585938 L 148.933594 610.636719 C 159.519531 622.972656 170.9375 634.488281 183.179688 645.183594 C 195.425781 655.878906 208.371094 665.640625 222.019531 674.472656 C 222.558594 674.847656 223.140625 675.175781 223.679688 675.507812 C 226.167969 677.128906 228.699219 678.703125 231.226562 680.195312 C 237.152344 683.753906 243.179688 687.125 249.308594 690.316406 C 255.441406 693.503906 261.664062 696.5 267.976562 699.304688 C 274.292969 702.109375 280.6875 704.71875 287.164062 707.132812 C 293.636719 709.546875 300.179688 711.757812 306.792969 713.769531 C 313.402344 715.78125 320.066406 717.589844 326.789062 719.191406 C 333.511719 720.792969 340.277344 722.1875 347.082031 723.375 C 353.890625 724.5625 360.726562 725.539062 367.59375 726.308594 C 374.460938 727.074219 381.347656 727.628906 388.25 727.976562 C 395.148438 728.320312 402.054688 728.453125 408.964844 728.375 C 415.875 728.292969 422.773438 728.003906 429.667969 727.5 C 436.558594 726.996094 443.429688 726.285156 450.277344 725.359375 C 457.125 724.433594 463.9375 723.300781 470.714844 721.960938 C 477.492188 720.617188 484.222656 719.066406 490.90625 717.3125 C 497.589844 715.554688 504.214844 713.597656 510.777344 711.433594 C 517.339844 709.269531 523.832031 706.910156 530.25 704.347656 C 536.667969 701.789062 543 699.03125 549.25 696.082031 C 551.984375 694.796875 554.722656 693.46875 557.460938 692.101562 C 559.617188 690.980469 561.691406 689.902344 563.808594 688.742188 C 564.472656 688.410156 565.175781 688.035156 565.839844 687.664062 C 582.933594 678.402344 599.105469 667.738281 614.351562 655.675781 C 629.597656 643.613281 643.691406 630.328125 656.636719 615.820312 Z M 307.964844 302.238281 C 303.070312 302.238281 299.128906 295.769531 299.128906 287.804688 C 299.128906 279.882812 303.070312 273.410156 307.964844 273.410156 C 312.816406 273.410156 316.757812 279.882812 316.757812 287.804688 C 316.757812 295.769531 312.816406 302.238281 307.964844 302.238281 Z M 459.488281 324.761719 C 464.671875 318.25 476.492188 319.039062 485.910156 326.503906 C 489.386719 329.179688 492.097656 332.484375 494.039062 336.417969 C 488.617188 333.082031 482.839844 330.566406 476.703125 328.867188 C 470.722656 327.160156 464.625 326.316406 458.410156 326.339844 C 458.742188 325.800781 459.113281 325.261719 459.488281 324.761719 Z M 459.488281 324.761719 " fill-opacity="1" fill-rule="nonzero"/><path fill="#ed6e0f" d="M 565.839844 687.664062 C 559.222656 691.246094 552.496094 694.601562 545.652344 697.734375 C 538.8125 700.867188 531.875 703.769531 524.839844 706.4375 C 517.804688 709.109375 510.6875 711.539062 503.492188 713.730469 C 496.292969 715.925781 489.03125 717.875 481.703125 719.582031 C 474.375 721.292969 467 722.753906 459.574219 723.96875 C 452.148438 725.183594 444.691406 726.148438 437.199219 726.863281 C 429.710938 727.578125 422.203125 728.042969 414.683594 728.257812 C 407.164062 728.472656 399.640625 728.4375 392.125 728.148438 C 384.605469 727.859375 377.105469 727.320312 369.621094 726.53125 C 362.140625 725.738281 354.691406 724.699219 347.277344 723.414062 C 339.863281 722.125 332.503906 720.589844 325.191406 718.8125 C 317.882812 717.03125 310.640625 715.007812 303.464844 712.746094 C 296.289062 710.480469 289.195312 707.980469 282.1875 705.242188 C 275.179688 702.503906 268.269531 699.535156 261.460938 696.335938 C 254.652344 693.132812 247.957031 689.710938 241.375 686.0625 C 234.792969 682.414062 228.34375 678.550781 222.019531 674.472656 L 224.550781 637.722656 C 224.613281 635.964844 224.734375 634.214844 224.921875 632.46875 C 225.105469 630.722656 225.351562 628.984375 225.65625 627.253906 C 225.960938 625.523438 226.328125 623.808594 226.753906 622.101562 C 227.179688 620.398438 227.664062 618.710938 228.207031 617.039062 C 228.75 615.371094 229.351562 613.722656 230.011719 612.09375 C 230.667969 610.464844 231.382812 608.859375 232.152344 607.28125 C 232.921875 605.703125 233.746094 604.152344 234.625 602.632812 C 235.503906 601.109375 236.433594 599.621094 237.414062 598.164062 C 238.398438 596.707031 239.429688 595.289062 240.511719 593.902344 C 241.589844 592.519531 242.71875 591.171875 243.894531 589.867188 C 245.070312 588.5625 246.289062 587.296875 247.550781 586.078125 C 248.816406 584.855469 250.117188 583.683594 251.464844 582.550781 C 252.808594 581.421875 254.191406 580.339844 255.613281 579.308594 C 257.03125 578.273438 258.488281 577.289062 259.976562 576.359375 C 261.464844 575.425781 262.984375 574.546875 264.535156 573.722656 C 266.085938 572.894531 267.660156 572.125 269.265625 571.40625 C 270.871094 570.691406 272.496094 570.03125 274.144531 569.429688 C 275.796875 568.828125 277.464844 568.28125 279.152344 567.796875 C 280.839844 567.308594 282.542969 566.882812 284.261719 566.515625 C 285.980469 566.148438 287.707031 565.839844 289.445312 565.59375 C 291.1875 565.347656 292.933594 565.160156 294.683594 565.035156 C 296.4375 564.910156 298.191406 564.847656 299.945312 564.84375 C 301.703125 564.839844 303.457031 564.898438 305.210938 565.019531 C 306.964844 565.136719 308.710938 565.316406 310.449219 565.558594 C 312.1875 565.800781 313.917969 566.101562 315.636719 566.464844 C 317.355469 566.824219 319.0625 567.246094 320.75 567.726562 C 322.441406 568.207031 324.109375 568.746094 325.761719 569.34375 C 327.414062 569.941406 329.042969 570.59375 330.648438 571.304688 C 332.257812 572.015625 333.835938 572.78125 335.390625 573.601562 C 336.941406 574.421875 338.464844 575.296875 339.957031 576.222656 C 341.449219 577.152344 342.90625 578.128906 344.332031 579.15625 C 345.753906 580.1875 347.140625 581.261719 348.488281 582.390625 C 363.007812 594.5 380.925781 601.800781 399.839844 601.800781 L 402.953125 601.800781 C 417.84375 601.800781 432.691406 598.027344 445.09375 589.8125 C 446.4375 588.925781 447.808594 588.082031 449.207031 587.28125 C 450.605469 586.480469 452.027344 585.726562 453.472656 585.015625 C 454.917969 584.304688 456.386719 583.644531 457.875 583.027344 C 459.363281 582.410156 460.871094 581.84375 462.394531 581.324219 C 463.917969 580.804688 465.460938 580.335938 467.015625 579.914062 C 468.570312 579.492188 470.136719 579.121094 471.714844 578.800781 C 473.292969 578.480469 474.878906 578.210938 476.476562 577.992188 C 478.070312 577.773438 479.671875 577.605469 481.28125 577.488281 C 482.886719 577.371094 484.496094 577.304688 486.105469 577.289062 C 487.714844 577.277344 489.324219 577.3125 490.933594 577.402344 C 492.542969 577.492188 494.144531 577.632812 495.746094 577.824219 C 497.34375 578.015625 498.9375 578.257812 500.519531 578.550781 C 502.105469 578.84375 503.675781 579.1875 505.238281 579.578125 C 506.800781 579.972656 508.347656 580.417969 509.882812 580.910156 C 511.417969 581.402344 512.933594 581.941406 514.433594 582.53125 C 515.929688 583.121094 517.410156 583.757812 518.867188 584.441406 C 520.328125 585.128906 521.761719 585.855469 523.171875 586.632812 C 524.585938 587.410156 525.96875 588.230469 527.328125 589.09375 C 528.6875 589.957031 530.019531 590.863281 531.320312 591.8125 C 532.621094 592.765625 533.890625 593.753906 535.128906 594.785156 C 536.367188 595.816406 537.570312 596.882812 538.742188 597.992188 C 539.910156 599.101562 541.042969 600.242188 542.140625 601.421875 C 543.234375 602.605469 544.292969 603.816406 545.3125 605.066406 C 546.332031 606.3125 547.308594 607.589844 548.246094 608.902344 C 549.183594 610.210938 550.078125 611.550781 550.929688 612.917969 C 551.78125 614.285156 552.585938 615.679688 553.351562 617.097656 C 554.113281 618.515625 554.828125 619.957031 555.5 621.421875 C 556.167969 622.886719 556.792969 624.371094 557.367188 625.878906 C 557.941406 627.382812 558.46875 628.902344 558.949219 630.441406 C 559.425781 631.980469 559.855469 633.53125 560.234375 635.097656 C 560.613281 636.664062 560.941406 638.238281 561.21875 639.824219 C 561.496094 641.414062 561.722656 643.007812 561.898438 644.609375 C 561.941406 645.1875 562.023438 645.726562 562.023438 646.308594 L 562.273438 646.308594 Z M 565.839844 687.664062 " fill-opacity="1" fill-rule="nonzero"/><path fill="#fcc00a" d="M 563.808594 688.742188 C 561.691406 689.902344 559.617188 690.980469 557.460938 692.101562 C 557.238281 690.53125 556.96875 688.96875 556.648438 687.414062 C 556.328125 685.859375 555.960938 684.316406 555.542969 682.785156 C 555.128906 681.253906 554.664062 679.738281 554.148438 678.234375 C 553.636719 676.734375 553.078125 675.25 552.472656 673.78125 C 551.867188 672.316406 551.214844 670.871094 550.519531 669.445312 C 549.820312 668.019531 549.078125 666.617188 548.292969 665.238281 C 547.507812 663.859375 546.679688 662.507812 545.8125 661.179688 C 544.941406 659.851562 544.027344 658.554688 543.078125 657.285156 C 542.125 656.015625 541.132812 654.777344 540.101562 653.570312 C 539.074219 652.363281 538.003906 651.191406 536.902344 650.050781 C 535.796875 648.910156 534.65625 647.808594 533.484375 646.742188 C 532.3125 645.671875 531.105469 644.640625 529.867188 643.652344 C 528.628906 642.660156 527.359375 641.707031 526.058594 640.792969 C 524.761719 639.882812 523.4375 639.011719 522.082031 638.183594 C 520.730469 637.355469 519.351562 636.570312 517.949219 635.828125 C 516.546875 635.085938 515.121094 634.390625 513.675781 633.738281 C 512.226562 633.085938 510.761719 632.480469 509.277344 631.921875 C 507.792969 631.359375 506.292969 630.847656 504.773438 630.382812 C 503.257812 629.917969 501.726562 629.5 500.183594 629.132812 C 498.640625 628.761719 497.085938 628.441406 495.523438 628.171875 C 493.960938 627.902344 492.390625 627.679688 490.8125 627.507812 C 489.234375 627.335938 487.652344 627.214844 486.066406 627.140625 C 484.480469 627.070312 482.894531 627.046875 481.308594 627.074219 C 479.722656 627.101562 478.140625 627.179688 476.558594 627.304688 C 474.976562 627.433594 473.398438 627.609375 471.828125 627.835938 C 470.257812 628.0625 468.695312 628.339844 467.144531 628.664062 C 465.589844 628.988281 464.046875 629.363281 462.519531 629.785156 C 460.988281 630.207031 459.472656 630.675781 457.972656 631.191406 C 456.472656 631.710938 454.992188 632.273438 453.527344 632.886719 C 452.0625 633.496094 450.617188 634.152344 449.195312 634.855469 C 447.773438 635.554688 446.371094 636.300781 444.996094 637.089844 C 443.621094 637.882812 442.269531 638.714844 440.945312 639.589844 C 428.542969 647.800781 413.695312 651.574219 398.804688 651.574219 L 395.691406 651.574219 C 376.777344 651.574219 358.859375 644.277344 344.339844 632.164062 C 343.167969 631.183594 341.964844 630.242188 340.734375 629.335938 C 339.503906 628.429688 338.246094 627.558594 336.960938 626.730469 C 335.675781 625.898438 334.371094 625.109375 333.039062 624.359375 C 331.707031 623.605469 330.351562 622.898438 328.976562 622.230469 C 327.601562 621.558594 326.207031 620.933594 324.796875 620.351562 C 323.382812 619.765625 321.953125 619.226562 320.507812 618.726562 C 319.0625 618.230469 317.601562 617.777344 316.128906 617.367188 C 314.65625 616.960938 313.171875 616.597656 311.675781 616.277344 C 310.179688 615.957031 308.675781 615.6875 307.164062 615.457031 C 305.652344 615.230469 304.136719 615.050781 302.613281 614.914062 C 301.089844 614.777344 299.566406 614.691406 298.035156 614.648438 C 296.507812 614.605469 294.980469 614.609375 293.453125 614.660156 C 291.921875 614.707031 290.398438 614.804688 288.875 614.949219 C 287.355469 615.089844 285.835938 615.277344 284.328125 615.515625 C 282.816406 615.75 281.3125 616.027344 279.820312 616.355469 C 278.324219 616.679688 276.84375 617.050781 275.371094 617.46875 C 273.902344 617.882812 272.445312 618.34375 271 618.847656 C 269.558594 619.351562 268.128906 619.898438 266.71875 620.488281 C 265.308594 621.082031 263.917969 621.714844 262.546875 622.390625 C 261.175781 623.066406 259.824219 623.78125 258.496094 624.539062 C 257.167969 625.296875 255.863281 626.09375 254.585938 626.929688 C 253.304688 627.765625 252.050781 628.640625 250.824219 629.550781 C 249.597656 630.464844 248.402344 631.414062 247.230469 632.398438 C 246.0625 633.382812 244.925781 634.402344 243.816406 635.457031 C 242.710938 636.511719 241.636719 637.597656 240.59375 638.71875 C 239.550781 639.839844 238.546875 640.988281 237.574219 642.167969 C 236.601562 643.347656 235.667969 644.558594 234.769531 645.796875 C 233.871094 647.03125 233.011719 648.296875 232.191406 649.585938 C 231.371094 650.875 230.585938 652.1875 229.847656 653.527344 C 229.105469 654.863281 228.402344 656.222656 227.746094 657.601562 C 227.085938 658.980469 226.46875 660.378906 225.894531 661.792969 C 225.320312 663.210938 224.789062 664.644531 224.300781 666.09375 L 224.550781 662.609375 C 224.613281 660.855469 224.734375 659.101562 224.921875 657.355469 C 225.105469 655.609375 225.351562 653.871094 225.65625 652.140625 C 225.960938 650.410156 226.328125 648.695312 226.753906 646.988281 C 227.179688 645.285156 227.664062 643.597656 228.207031 641.929688 C 228.75 640.257812 229.351562 638.609375 230.011719 636.980469 C 230.667969 635.351562 231.382812 633.746094 232.152344 632.167969 C 232.921875 630.589844 233.746094 629.039062 234.625 627.519531 C 235.503906 625.996094 236.433594 624.507812 237.414062 623.050781 C 238.398438 621.59375 239.429688 620.175781 240.511719 618.789062 C 241.589844 617.40625 242.71875 616.0625 243.894531 614.753906 C 245.070312 613.449219 246.289062 612.1875 247.550781 610.964844 C 248.816406 609.746094 250.117188 608.570312 251.464844 607.4375 C 252.808594 606.308594 254.191406 605.226562 255.613281 604.195312 C 257.03125 603.160156 258.488281 602.179688 259.976562 601.246094 C 261.464844 600.3125 262.984375 599.433594 264.535156 598.609375 C 266.085938 597.78125 267.660156 597.011719 269.265625 596.296875 C 270.871094 595.578125 272.496094 594.921875 274.144531 594.316406 C 275.796875 593.714844 277.464844 593.171875 279.152344 592.683594 C 280.839844 592.199219 282.542969 591.769531 284.261719 591.402344 C 285.980469 591.035156 287.707031 590.726562 289.445312 590.480469 C 291.1875 590.234375 292.933594 590.046875 294.683594 589.921875 C 296.4375 589.796875 298.191406 589.734375 299.945312 589.730469 C 301.703125 589.726562 303.457031 589.785156 305.210938 589.90625 C 306.964844 590.023438 308.710938 590.207031 310.449219 590.445312 C 312.1875 590.6875 313.917969 590.988281 315.636719 591.351562 C 317.355469 591.710938 319.0625 592.132812 320.75 592.613281 C 322.441406 593.09375 324.109375 593.632812 325.761719 594.230469 C 327.414062 594.828125 329.042969 595.480469 330.648438 596.191406 C 332.257812 596.902344 333.835938 597.667969 335.390625 598.488281 C 336.941406 599.3125 338.464844 600.183594 339.957031 601.113281 C 341.449219 602.039062 342.90625 603.015625 344.332031 604.046875 C 345.753906 605.074219 347.140625 606.152344 348.488281 607.277344 C 363.007812 619.386719 380.925781 626.6875 399.839844 626.6875 L 402.953125 626.6875 C 417.84375 626.6875 432.691406 622.914062 445.09375 614.699219 C 446.4375 613.8125 447.808594 612.96875 449.207031 612.167969 C 450.605469 611.367188 452.027344 610.613281 453.472656 609.902344 C 454.917969 609.195312 456.386719 608.53125 457.875 607.914062 C 459.363281 607.300781 460.871094 606.730469 462.394531 606.210938 C 463.917969 605.691406 465.460938 605.222656 467.015625 604.800781 C 468.570312 604.382812 470.136719 604.011719 471.714844 603.6875 C 473.292969 603.367188 474.878906 603.097656 476.476562 602.878906 C 478.070312 602.660156 479.671875 602.492188 481.28125 602.375 C 482.886719 602.257812 484.496094 602.191406 486.105469 602.179688 C 487.714844 602.164062 489.324219 602.203125 490.933594 602.289062 C 492.542969 602.378906 494.144531 602.519531 495.746094 602.710938 C 497.34375 602.902344 498.9375 603.144531 500.519531 603.4375 C 502.105469 603.730469 503.675781 604.074219 505.238281 604.46875 C 506.800781 604.859375 508.347656 605.304688 509.882812 605.796875 C 511.417969 606.289062 512.933594 606.832031 514.433594 607.421875 C 515.929688 608.007812 517.410156 608.644531 518.867188 609.332031 C 520.328125 610.015625 521.761719 610.746094 523.171875 611.519531 C 524.585938 612.296875 525.96875 613.117188 527.328125 613.980469 C 528.6875 614.84375 530.019531 615.753906 531.320312 616.703125 C 532.621094 617.652344 533.890625 618.640625 535.128906 619.671875 C 536.367188 620.703125 537.570312 621.773438 538.742188 622.878906 C 539.910156 623.988281 541.042969 625.132812 542.140625 626.3125 C 543.234375 627.492188 544.292969 628.703125 545.3125 629.953125 C 546.332031 631.199219 547.308594 632.480469 548.246094 633.789062 C 549.183594 635.097656 550.078125 636.4375 550.929688 637.804688 C 551.78125 639.171875 552.585938 640.566406 553.351562 641.984375 C 554.113281 643.402344 554.828125 644.847656 555.5 646.3125 C 556.167969 647.777344 556.792969 649.261719 557.367188 650.765625 C 557.941406 652.269531 558.46875 653.789062 558.949219 655.328125 C 559.425781 656.867188 559.855469 658.417969 560.234375 659.984375 C 560.613281 661.550781 560.941406 663.125 561.21875 664.714844 C 561.496094 666.300781 561.722656 667.894531 561.898438 669.496094 C 561.941406 670.074219 562.023438 670.613281 562.023438 671.195312 L 562.273438 671.195312 Z M 489.226562 656.386719 C 485.003906 656.011719 480.777344 655.992188 476.550781 656.328125 C 472.324219 656.667969 468.15625 657.355469 464.046875 658.398438 C 459.9375 659.441406 455.941406 660.820312 452.066406 662.535156 C 448.1875 664.253906 444.480469 666.28125 440.945312 668.625 C 428.542969 676.835938 413.695312 680.613281 398.804688 680.613281 L 395.691406 680.613281 C 376.777344 680.613281 358.859375 673.3125 344.339844 661.199219 C 343.300781 660.328125 342.234375 659.488281 341.148438 658.675781 C 340.0625 657.863281 338.953125 657.082031 337.824219 656.332031 C 336.695312 655.578125 335.546875 654.855469 334.378906 654.167969 C 333.210938 653.476562 332.023438 652.816406 330.820312 652.191406 C 329.617188 651.5625 328.398438 650.96875 327.160156 650.410156 C 325.925781 649.847656 324.675781 649.320312 323.414062 648.828125 C 322.148438 648.335938 320.871094 647.875 319.582031 647.449219 C 318.292969 647.027344 316.996094 646.636719 315.6875 646.28125 C 314.375 645.925781 313.058594 645.605469 311.730469 645.324219 C 310.402344 645.039062 309.070312 644.792969 307.730469 644.582031 C 306.390625 644.367188 305.042969 644.191406 303.695312 644.054688 C 302.34375 643.914062 300.992188 643.8125 299.636719 643.746094 C 298.28125 643.675781 296.925781 643.648438 295.570312 643.652344 C 294.210938 643.660156 292.855469 643.703125 291.5 643.785156 C 290.148438 643.863281 288.796875 643.980469 287.449219 644.132812 C 286.097656 644.285156 284.757812 644.472656 283.417969 644.695312 C 282.078125 644.921875 280.75 645.183594 279.425781 645.480469 C 278.101562 645.773438 276.785156 646.105469 275.480469 646.472656 C 274.171875 646.839844 272.878906 647.242188 271.59375 647.679688 C 270.308594 648.117188 269.035156 648.589844 267.777344 649.09375 C 266.519531 649.601562 265.273438 650.140625 264.042969 650.710938 C 262.8125 651.285156 261.597656 651.890625 260.402344 652.527344 C 259.203125 653.167969 258.023438 653.835938 256.863281 654.539062 C 255.703125 655.238281 254.558594 655.972656 253.4375 656.734375 C 252.316406 657.5 251.214844 658.292969 250.136719 659.113281 C 249.058594 659.9375 248 660.789062 246.96875 661.667969 C 245.933594 662.546875 244.925781 663.453125 243.941406 664.386719 C 242.957031 665.320312 241.996094 666.28125 241.066406 667.265625 C 240.132812 668.25 239.226562 669.261719 238.347656 670.292969 C 237.46875 671.328125 236.617188 672.386719 235.796875 673.464844 C 234.976562 674.546875 234.183594 675.648438 233.421875 676.769531 C 232.660156 677.890625 231.929688 679.035156 231.226562 680.195312 C 237.152344 683.753906 243.179688 687.128906 249.308594 690.316406 C 255.441406 693.503906 261.664062 696.5 267.976562 699.304688 C 274.292969 702.109375 280.6875 704.71875 287.164062 707.132812 C 293.636719 709.546875 300.179688 711.757812 306.792969 713.769531 C 313.402344 715.78125 320.066406 717.589844 326.789062 719.191406 C 333.511719 720.792969 340.277344 722.1875 347.082031 723.375 C 353.890625 724.5625 360.726562 725.539062 367.59375 726.304688 C 374.460938 727.074219 381.347656 727.628906 388.25 727.976562 C 395.148438 728.320312 402.054688 728.453125 408.964844 728.375 C 415.875 728.292969 422.773438 728.003906 429.667969 727.5 C 436.558594 726.996094 443.429688 726.285156 450.277344 725.359375 C 457.125 724.433594 463.9375 723.300781 470.714844 721.957031 C 477.492188 720.617188 484.222656 719.066406 490.90625 717.3125 C 497.589844 715.554688 504.214844 713.597656 510.777344 711.433594 C 517.339844 709.269531 523.832031 706.910156 530.25 704.347656 C 536.667969 701.789062 543 699.03125 549.25 696.082031 C 547.765625 693.328125 546.121094 690.679688 544.308594 688.128906 C 542.5 685.578125 540.539062 683.148438 538.429688 680.839844 C 536.324219 678.53125 534.078125 676.363281 531.703125 674.328125 C 529.328125 672.296875 526.835938 670.417969 524.226562 668.695312 C 521.617188 666.96875 518.914062 665.410156 516.113281 664.019531 C 513.3125 662.628906 510.4375 661.414062 507.488281 660.375 C 504.539062 659.339844 501.535156 658.484375 498.480469 657.820312 C 495.425781 657.152344 492.339844 656.675781 489.226562 656.386719 Z M 477.804688 402.089844 C 478.414062 402.089844 479.023438 402.058594 479.632812 402 C 480.242188 401.9375 480.84375 401.847656 481.445312 401.730469 C 482.042969 401.609375 482.636719 401.460938 483.222656 401.285156 C 483.808594 401.105469 484.382812 400.902344 484.945312 400.667969 C 485.511719 400.433594 486.0625 400.171875 486.601562 399.882812 C 487.140625 399.597656 487.664062 399.28125 488.171875 398.941406 C 488.683594 398.601562 489.171875 398.238281 489.644531 397.851562 C 490.117188 397.464844 490.570312 397.054688 491.003906 396.621094 C 491.433594 396.1875 491.84375 395.738281 492.230469 395.265625 C 492.621094 394.792969 492.984375 394.300781 493.324219 393.792969 C 493.664062 393.285156 493.976562 392.761719 494.265625 392.222656 C 494.554688 391.683594 494.8125 391.128906 495.046875 390.566406 C 495.28125 390 495.488281 389.425781 495.664062 388.839844 C 495.84375 388.257812 495.992188 387.664062 496.109375 387.0625 C 496.230469 386.464844 496.320312 385.859375 496.378906 385.253906 C 496.4375 384.644531 496.46875 384.035156 496.46875 383.421875 C 496.46875 382.8125 496.4375 382.203125 496.378906 381.59375 C 496.320312 380.984375 496.230469 380.382812 496.109375 379.78125 C 495.992188 379.183594 495.84375 378.589844 495.664062 378.003906 C 495.488281 377.417969 495.28125 376.84375 495.046875 376.28125 C 494.8125 375.714844 494.554688 375.164062 494.265625 374.625 C 493.976562 374.085938 493.664062 373.5625 493.324219 373.054688 C 492.984375 372.542969 492.621094 372.054688 492.230469 371.582031 C 491.84375 371.109375 491.433594 370.65625 491.003906 370.222656 C 490.570312 369.792969 490.117188 369.382812 489.644531 368.996094 C 489.171875 368.605469 488.683594 368.242188 488.171875 367.902344 C 487.664062 367.5625 487.140625 367.25 486.601562 366.960938 C 486.0625 366.671875 485.511719 366.414062 484.945312 366.179688 C 484.382812 365.945312 483.808594 365.738281 483.222656 365.5625 C 482.636719 365.382812 482.042969 365.234375 481.445312 365.117188 C 480.84375 364.996094 480.242188 364.90625 479.632812 364.847656 C 479.023438 364.789062 478.414062 364.757812 477.804688 364.757812 C 477.191406 364.757812 476.582031 364.789062 475.972656 364.847656 C 475.367188 364.90625 474.761719 364.996094 474.160156 365.117188 C 473.5625 365.234375 472.96875 365.382812 472.386719 365.5625 C 471.800781 365.738281 471.226562 365.945312 470.660156 366.179688 C 470.09375 366.414062 469.542969 366.671875 469.003906 366.960938 C 468.464844 367.25 467.941406 367.5625 467.433594 367.902344 C 466.925781 368.242188 466.433594 368.605469 465.960938 368.996094 C 465.488281 369.382812 465.039062 369.792969 464.605469 370.222656 C 464.171875 370.65625 463.761719 371.109375 463.375 371.582031 C 462.988281 372.054688 462.625 372.542969 462.285156 373.054688 C 461.945312 373.5625 461.628906 374.085938 461.34375 374.625 C 461.054688 375.164062 460.792969 375.714844 460.558594 376.28125 C 460.324219 376.84375 460.117188 377.417969 459.941406 378.003906 C 459.765625 378.589844 459.617188 379.183594 459.496094 379.78125 C 459.378906 380.382812 459.289062 380.984375 459.226562 381.59375 C 459.167969 382.203125 459.136719 382.8125 459.136719 383.421875 C 459.136719 384.035156 459.167969 384.644531 459.226562 385.253906 C 459.289062 385.859375 459.378906 386.464844 459.496094 387.0625 C 459.617188 387.664062 459.765625 388.257812 459.941406 388.839844 C 460.117188 389.425781 460.324219 390 460.558594 390.566406 C 460.792969 391.128906 461.054688 391.683594 461.34375 392.222656 C 461.628906 392.761719 461.945312 393.285156 462.285156 393.792969 C 462.625 394.300781 462.988281 394.792969 463.375 395.265625 C 463.761719 395.738281 464.171875 396.1875 464.605469 396.621094 C 465.039062 397.054688 465.488281 397.464844 465.960938 397.851562 C 466.433594 398.238281 466.925781 398.601562 467.433594 398.941406 C 467.941406 399.28125 468.464844 399.597656 469.003906 399.882812 C 469.542969 400.171875 470.09375 400.433594 470.660156 400.667969 C 471.226562 400.902344 471.800781 401.105469 472.386719 401.285156 C 472.96875 401.460938 473.5625 401.609375 474.160156 401.730469 C 474.761719 401.847656 475.367188 401.9375 475.972656 402 C 476.582031 402.058594 477.191406 402.089844 477.804688 402.089844 Z M 477.804688 402.089844 " fill-opacity="1" fill-rule="nonzero"/></svg>