<?xml version="1.0" encoding="utf-8"?>
<!-- Generator: Adobe Illustrator 27.5.0, SVG Export Plug-In . SVG Version: 6.00 Build 0)  -->
<svg version="1.1" xmlns="http://www.w3.org/2000/svg" xmlns:xlink="http://www.w3.org/1999/xlink" x="0px" y="0px"
	 viewBox="0 0 500 500" style="enable-background:new 0 0 500 500;" xml:space="preserve">
<g id="Background_Complete">
	<g>
		<rect y="382.398" style="fill:#EBEBEB;" width="500" height="0.25"/>
		<rect x="392.321" y="398.494" style="fill:#EBEBEB;" width="45.79" height="0.25"/>
		<rect x="322.527" y="401.208" style="fill:#EBEBEB;" width="50.029" height="0.25"/>
		<rect x="443.889" y="389.208" style="fill:#EBEBEB;" width="19.192" height="0.25"/>
		<rect x="52.459" y="390.888" style="fill:#EBEBEB;" width="43.193" height="0.25"/>
		<rect x="104.556" y="390.888" style="fill:#EBEBEB;" width="25.444" height="0.25"/>
		<rect x="131.471" y="395.111" style="fill:#EBEBEB;" width="41.529" height="0.25"/>
		<path style="fill:#EBEBEB;" d="M237.014,337.8H43.915c-3.147,0-5.708-2.561-5.708-5.708V60.66c0-3.147,2.561-5.708,5.708-5.708
			h193.099c3.146,0,5.707,2.561,5.707,5.708v271.432C242.721,335.239,240.16,337.8,237.014,337.8z M43.915,55.203
			c-3.01,0-5.458,2.448-5.458,5.458v271.432c0,3.01,2.448,5.458,5.458,5.458h193.099c3.009,0,5.457-2.448,5.457-5.458V60.66
			c0-3.009-2.448-5.458-5.457-5.458H43.915z"/>
		<path style="fill:#EBEBEB;" d="M453.31,337.8H260.212c-3.147,0-5.707-2.561-5.707-5.708V60.66c0-3.147,2.561-5.708,5.707-5.708
			H453.31c3.148,0,5.708,2.561,5.708,5.708v271.432C459.019,335.239,456.458,337.8,453.31,337.8z M260.212,55.203
			c-3.009,0-5.457,2.448-5.457,5.458v271.432c0,3.01,2.448,5.458,5.457,5.458H453.31c3.01,0,5.458-2.448,5.458-5.458V60.66
			c0-3.009-2.448-5.458-5.458-5.458H260.212z"/>
	</g>
	<g>
		<circle style="fill:#FAFAFA;" cx="156.165" cy="120.092" r="46.768"/>
		<path style="fill:#E6E6E6;" d="M61.461,96.915c7.611-9.746,17.566-16.684,24.932-16.684c4.619,0,7.369,2.731,8.099,7.177
			c3.393-2.535,6.824-4.054,9.678-4.054c5.024,0,6.833,4.694,5.047,11.316c2.924-1.476,5.812-2.381,8.415-2.526
			c5.134-0.299,8.018,2.398,8.299,6.785c1.238-0.734,2.493-1.195,3.605-1.263c2.957-0.171,3.74,2.552,1.761,6.076
			c-0.126,0.222-0.255,0.435-0.385,0.649h-5.755h-4.579h-15.906h-7.828h-6.086h-9.375h-1.701H56.427h-6.858
			C50.765,100.937,57.8,97.089,61.461,96.915z"/>
		<path style="fill:#FAFAFA;" d="M289.883,251.091c8.417-10.777,19.426-18.45,27.571-18.45c5.108,0,8.149,3.02,8.957,7.937
			c3.752-2.803,7.546-4.483,10.703-4.483c5.556,0,7.556,5.19,5.581,12.514c3.234-1.633,6.428-2.633,9.306-2.794
			c5.677-0.33,8.867,2.652,9.178,7.503c1.37-0.812,2.757-1.321,3.987-1.397c3.27-0.189,4.136,2.822,1.947,6.719
			c-0.139,0.245-0.282,0.481-0.426,0.717h-6.364h-5.064h-17.59h-8.656h-6.731h-10.367h-1.882h-25.716h-7.584
			C278.055,255.538,285.835,251.284,289.883,251.091z"/>
		<path style="fill:#E6E6E6;" d="M292.11,99.944c12.617-16.156,29.121-27.658,41.331-27.658c7.657,0,12.217,4.527,13.427,11.898
			c5.625-4.202,11.312-6.72,16.045-6.72c8.329,0,11.327,7.781,8.367,18.759c4.848-2.447,9.636-3.947,13.951-4.188
			c8.51-0.495,13.292,3.975,13.758,11.247c2.053-1.217,4.133-1.981,5.977-2.094c4.902-0.283,6.2,4.23,2.919,10.073
			c-0.208,0.368-0.423,0.722-0.638,1.075h-9.541h-7.591h-26.369h-12.976h-10.09h-15.541h-2.82h-38.551h-11.369
			C274.38,106.61,286.042,100.232,292.11,99.944z"/>
		<path style="fill:#F0F0F0;" d="M140.073,157.621c0.475-0.065,0.919-0.098,1.335-0.098c6.567-6.374,13.21-10.443,17.922-10.443
			c3.4,0,5.257,2.125,5.59,5.72c12.27-12.371,24.932-20.412,33.755-20.412c7.118,0,10.428,5.23,10.029,13.76
			c6.071-4.854,11.865-7.763,16.271-7.763c7.741,0,8.941,8.988,3.936,21.67c0,0-0.015,0.016,0.011,0
			c4.987-2.827,9.757-4.576,13.823-4.854c7.994-0.572,11.516,4.592,10.455,13.008c2.167-1.422,4.253-2.304,5.986-2.419
			c4.369-0.311,4.864,4.331,1.32,10.541h-9.403h-6.374h-24.514h-11.48h-10.223h-14.52H156.56h-10.693h-3.805h-15.22h-13.656
			C119.99,166.92,131.724,158.683,140.073,157.621z"/>
		<path style="fill:#F5F5F5;" d="M360.569,194.59c0.255-0.035,0.495-0.053,0.719-0.053c3.535-3.431,7.111-5.622,9.648-5.622
			c1.83,0,2.83,1.144,3.009,3.079c6.605-6.66,13.421-10.988,18.171-10.988c3.832,0,5.614,2.815,5.399,7.408
			c3.268-2.613,6.387-4.179,8.759-4.179c4.167,0,4.813,4.839,2.119,11.665c0,0-0.008,0.009,0.006,0
			c2.685-1.522,5.252-2.463,7.441-2.613c4.304-0.308,6.199,2.472,5.628,7.003c1.167-0.765,2.29-1.24,3.222-1.302
			c2.352-0.167,2.618,2.331,0.711,5.674h-5.062h-3.431h-13.196h-6.18h-5.503h-7.816h-14.768h-5.756h-2.048h-8.193h-7.351
			C349.757,199.596,356.074,195.162,360.569,194.59z"/>
		<path style="fill:#F5F5F5;" d="M170.805,75.751c0.133-0.018,0.258-0.028,0.375-0.028c1.845-1.791,3.711-2.934,5.035-2.934
			c0.955,0,1.477,0.597,1.57,1.607c3.447-3.476,7.005-5.735,9.483-5.735c2,0,2.93,1.469,2.818,3.866
			c1.706-1.364,3.333-2.181,4.571-2.181c2.175,0,2.512,2.525,1.106,6.088c0,0-0.004,0.005,0.003,0
			c1.401-0.794,2.741-1.286,3.884-1.364c2.246-0.161,3.235,1.29,2.937,3.655c0.609-0.399,1.195-0.647,1.682-0.68
			c1.228-0.087,1.367,1.217,0.371,2.961h-2.642h-1.791h-6.887h-3.225h-2.872h-4.079h-7.707h-3.004h-1.069h-4.276h-3.837
			C165.163,78.363,168.46,76.049,170.805,75.751z"/>
		<path style="fill:#FAFAFA;" d="M60.585,195.129c0.133-0.018,0.258-0.028,0.375-0.028c1.845-1.791,3.711-2.934,5.035-2.934
			c0.955,0,1.477,0.597,1.571,1.607c3.447-3.476,7.005-5.735,9.483-5.735c2,0,2.93,1.469,2.818,3.866
			c1.706-1.364,3.333-2.181,4.571-2.181c2.175,0,2.512,2.525,1.106,6.088c0,0-0.004,0.005,0.003,0
			c1.401-0.794,2.741-1.286,3.883-1.364c2.246-0.161,3.235,1.29,2.937,3.655c0.609-0.4,1.195-0.647,1.682-0.68
			c1.228-0.087,1.367,1.217,0.371,2.961h-2.642h-1.791h-6.887h-3.225h-2.872h-4.079h-7.707h-3.004h-1.069h-4.276h-3.837
			C54.943,197.741,58.24,195.427,60.585,195.129z"/>
		<path style="fill:#E0E0E0;" d="M358.338,137.832c-5.693-1.423-9.239-4.357-13.262,0.597c5.603-3.833,13.057,1.766,13.057,1.766
			s8.306-4.234,13.166,0.506C368.189,135.129,364.191,137.409,358.338,137.832z"/>
		<path style="fill:#E0E0E0;" d="M384.567,154.138c-3.615-0.904-5.867-2.767-8.422,0.379c3.559-2.434,8.292,1.122,8.292,1.122
			s5.275-2.689,8.361,0.321C390.823,152.421,388.284,153.869,384.567,154.138z"/>
		<path style="fill:#E0E0E0;" d="M85.144,133.027c-4.755-1.189-7.717-3.639-11.077,0.499c4.681-3.202,10.906,1.475,10.906,1.475
			s6.938-3.537,10.997,0.423C93.372,130.77,90.033,132.674,85.144,133.027z"/>
	</g>
</g>
<g id="Background_Simple" style="display:none;">
	<g style="display:inline;">
		<path style="fill:#407BFF;" d="M176.16,346.805c31.067,26.629,83.495-16.904,109.984-43.456
			c13.339-13.371,23.739-24.239,42.355-29.331c17.277-4.725,29.081-2.653,42.639-17.253c12.469-13.427,15.954-44.307,8.254-60.326
			c-9.447-19.655-26.454-20.274-38.75-33.824c-17.718-19.524,15.129-93.491-42.814-80.965c-15.11,3.267-23.683,17.116-34.407,26.757
			c-15.952,14.341-29.176,15.87-49.979,17.358c-18.973,1.357-39.525,3.99-53.71,18.178c-13.791,13.793-15.228,33.564-30.576,46.64
			c-24.486,20.859-80.553,53.756-33.729,78.917c16.625,8.933,45.963,8.866,57.816,21.966
			C165.785,305.33,157.346,330.679,176.16,346.805z"/>
		<path style="opacity:0.9;fill:#FFFFFF;" d="M176.16,346.805c31.067,26.629,83.495-16.904,109.984-43.456
			c13.339-13.371,23.739-24.239,42.355-29.331c17.277-4.725,29.081-2.653,42.639-17.253c12.469-13.427,15.954-44.307,8.254-60.326
			c-9.447-19.655-26.454-20.274-38.75-33.824c-17.718-19.524,15.129-93.491-42.814-80.965c-15.11,3.267-23.683,17.116-34.407,26.757
			c-15.952,14.341-29.176,15.87-49.979,17.358c-18.973,1.357-39.525,3.99-53.71,18.178c-13.791,13.793-15.228,33.564-30.576,46.64
			c-24.486,20.859-80.553,53.756-33.729,78.917c16.625,8.933,45.963,8.866,57.816,21.966
			C165.785,305.33,157.346,330.679,176.16,346.805z"/>
	</g>
</g>
<g id="Shadow_1_">
	<ellipse id="_x3C_Path_x3E__94_" style="fill:#F5F5F5;" cx="250" cy="416.238" rx="193.889" ry="11.323"/>
</g>
<g id="Character">
	<g>
		<g>
			<g>
				<path style="fill:#407BFF;" d="M274.307,130.051c-10.504-1.091-21.1,1.63-29.846,7.689
					c-16.055,11.124-36.826,29.812-62.301,59.213c-34.598,39.929-95.082,9.193-126.049,40.213
					c23.235,0.621,48.628,17.324,54.338,42.562c5.711,25.238,43.984,38.462,68.643,36.589c24.659-1.874,84.94,32.799,104.514-3.183
					c14.552-26.75,36.072-97.674,31.452-144.045c-2.046-20.535-18.131-36.688-38.67-38.821L274.307,130.051z"/>
				<path style="opacity:0.4;fill:#FFFFFF;" d="M274.307,130.051c-10.504-1.091-21.1,1.63-29.846,7.689
					c-16.055,11.124-36.826,29.812-62.301,59.213c-34.598,39.929-95.082,9.193-126.049,40.213
					c23.235,0.621,48.628,17.324,54.338,42.562c5.711,25.238,43.984,38.462,68.643,36.589c24.659-1.874,84.94,32.799,104.514-3.183
					c14.552-26.75,36.072-97.674,31.452-144.045c-2.046-20.535-18.131-36.688-38.67-38.821L274.307,130.051z"/>
			</g>
			<g>
				<path style="opacity:0.2;fill:#407BFF;" d="M178.411,316.362c0.231-0.015,0.461-0.03,0.682-0.045
					c2.699-0.21,5.832,0.031,9.285,0.559c18.382-28.245,31.809-62.322,43.81-92.31C214.947,261.178,195.181,292.602,178.411,316.362
					z"/>
				<path style="opacity:0.2;fill:#407BFF;" d="M115.099,290.314c1.453,2.173,3.18,4.222,5.113,6.136
					c40.143-17.549,82.921-73.027,99.828-110.377C191.122,231.916,144.399,269.526,115.099,290.314z"/>
			</g>
		</g>
		<g>
			<g>
				<path style="fill:#407BFF;" d="M246.203,195.467c0,0-13.57,59.953-17.734,80.885c-4.56,22.922,13.052,86.439,13.052,86.439
					l14.042-4.139c0,0-11.325-53.024-4.577-75.233c7.324-24.104,23.894-87.037,23.894-87.037L246.203,195.467z"/>
			</g>
			<g style="opacity:0.5;">
				<path d="M246.203,195.467c0,0-13.57,59.953-17.734,80.885c-4.56,22.922,13.052,86.439,13.052,86.439l14.042-4.139
					c0,0-11.325-53.024-4.577-75.233c7.324-24.104,23.894-87.037,23.894-87.037L246.203,195.467z"/>
			</g>
			<g>
				<path style="fill:#407BFF;" d="M230.107,314.347c0.891,7.305,9.557,46.725,10.62,50.037c1.063,3.312-3.669,12.891-7.799,17.513
					c-2.926,3.274,3.557,5.02,7.975,1.76c7.375-5.44,12.769-12.684,17.289-15.742c2.776-1.878,1.79-6.892-1.507-10.61
					c-1.644-1.854-6.936-45.974-7.501-49.091c-0.565-3.117-13.637,3.42-16.695,9.712
					C231.127,313.004,229.217,307.043,230.107,314.347z"/>
				<path style="fill:#FFFFFF;" d="M233.126,323.46c-0.179,0-0.347-0.096-0.436-0.255c-1.515-2.696-2.633-5.919-2.782-6.819
					c-0.045-0.272,0.139-0.53,0.411-0.575c0.267-0.045,0.53,0.138,0.575,0.411c0.107,0.647,0.925,3.09,2.119,5.461
					c2.244-5.308,11.351-9.685,15.322-9.635c1.601,0.028,1.98,0.808,2.064,1.27c0.049,0.272-0.131,0.532-0.403,0.581
					c-0.264,0.048-0.531-0.13-0.581-0.403c-0.067-0.375-0.717-0.442-1.098-0.449c-0.027,0-0.055-0.001-0.082-0.001
					c-3.97,0-13.517,4.955-14.622,10.02c-0.044,0.203-0.209,0.357-0.414,0.388C233.175,323.458,233.15,323.46,233.126,323.46z"/>
			</g>
			<path style="opacity:0.2;" d="M265.107,216.661c-12.65,15.036-12.334,40.973-10.202,53.359
				c4.977-17.522,11.391-41.373,15.597-57.129C269.121,212.877,267.349,213.991,265.107,216.661z"/>
		</g>
		<path style="fill:#407BFF;" d="M254.479,147.331l-1.779,2.63c-0.605,0.931-1.235,1.852-1.83,2.802
			c-1.217,1.88-2.393,3.796-3.546,5.723c-1.124,1.941-2.264,3.879-3.307,5.858l-1.551,2.975l-0.74,1.501l-0.339,0.69
			c-0.029,0.073-0.075,0.134-0.122,0.21c-0.325,0.677-0.503,2.322-0.23,4.132c0.236,1.835,0.759,3.861,1.426,5.903
			c1.337,4.077,3.25,8.363,5.173,12.402l-5.583,4.113c-1.849-1.883-3.397-3.766-4.936-5.805c-1.51-2.033-2.919-4.169-4.189-6.47
			c-1.26-2.308-2.397-4.768-3.227-7.576c-0.405-1.405-0.717-2.922-0.871-4.573c-0.148-1.651-0.128-3.468,0.349-5.436
			c0.127-0.492,0.284-0.991,0.442-1.483l0.338-0.962l0.641-1.792c0.449-1.182,0.9-2.369,1.407-3.524
			c0.975-2.333,2.052-4.612,3.206-6.85c1.141-2.245,2.401-4.422,3.719-6.572c0.67-1.067,1.348-2.134,2.071-3.18
			c0.366-0.524,0.722-1.047,1.107-1.57l1.236-1.631L254.479,147.331z"/>
		<path style="fill:#407BFF;" d="M245.564,135.895c-3.525,3.513-6.112,8.606-8.2,12.412l11.747,10.02
			c4.799-5.396,12.64-16.041,12.605-20.997C261.664,129.919,252.967,128.518,245.564,135.895z"/>
		<g>
			<g>
				<path style="fill:#407BFF;" d="M261.893,195.589c0,0-3.327,56.586-2.986,77.836c0.374,23.27,9.054,98.336,9.054,98.336
					l14.511-2.322c0,0-1.881-70.187,0.046-93.153c2.091-24.926,7.07-79.814,7.07-79.814L261.893,195.589z"/>
			</g>
			<g style="opacity:0.5;">
				<path d="M261.893,195.589c0,0-3.327,56.586-2.986,77.836c0.374,23.27,9.054,98.336,9.054,98.336l14.511-2.322
					c0,0-1.881-70.187,0.046-93.153c2.091-24.926,7.07-79.814,7.07-79.814L261.893,195.589z"/>
			</g>
			<g>
				<path style="fill:#407BFF;" d="M261.554,320.076c0.822,7.314,4.787,48.878,5.357,52.315c0.57,3.437-4.075,12.373-6.828,15.792
					c-2.753,3.42,5.274,3.253,10.516,1.669c5.242-1.584,9.015-11.22,11.926-12.878s3.125-7.176,1.494-9.042
					c-1.631-1.866-1.095-47.648-1.202-50.82c-0.107-3.172-11.814,1.207-15.746,7.003
					C263.447,319.413,260.732,312.762,261.554,320.076z"/>
				<path style="fill:#FFFFFF;" d="M266.665,329.272c-0.147,0-0.288-0.065-0.384-0.179c-2.419-2.891-4.346-6.147-5.027-7.465
					c-0.127-0.245-0.03-0.547,0.215-0.674c0.242-0.126,0.547-0.032,0.674,0.215c0.018,0.035,1.768,3.4,4.482,6.766
					c3.571-5.031,11.009-8.056,14.505-7.655c1.45,0.166,1.981,0.85,2.171,1.394c0.092,0.261-0.046,0.546-0.307,0.637
					c-0.262,0.091-0.546-0.047-0.637-0.307c-0.174-0.496-0.825-0.671-1.341-0.73c-3.306-0.38-10.78,2.786-13.929,7.766
					c-0.086,0.135-0.23,0.221-0.39,0.232C266.688,329.272,266.676,329.272,266.665,329.272z"/>
			</g>
		</g>
		<path style="fill:#407BFF;" d="M247.105,195.496l7.661,1.488c1.924,0.374,3.582,1.561,4.549,3.257l2.109,3.698l5.371-4.519
			c1.159-0.975,2.604-1.544,4.108-1.618l19.119-0.938c0.463-3.528,0.097-15.067,1.421-29.704c0.89-9.828,2.547-21.052,5.728-32.178
			l0.007-0.024c0.372-1.278-0.417-2.587-1.717-2.835c-0.799-0.152-1.763-0.328-2.841-0.509c-2.571-0.432-5.802-0.895-8.978-1.137
			c-5.466-0.414-13.393-0.827-18.238-0.582c-2.814,0.151-5.572,0.493-7.776,0.813c-1.782,0.272-2.544,0.212-3.333,0.397
			c-0.607,0.143-1.406,0.683-1.791,1.176C249.743,135.819,239.381,152.46,247.105,195.496z"/>
		<path style="opacity:0.2;fill:#FFFFFF;" d="M276.461,154.903c-0.827,8.746-5.95,15.683-11.442,15.494
			c-5.492-0.189-9.274-7.432-8.447-16.178c0.827-8.746,5.95-15.683,11.442-15.494C273.506,138.914,277.288,146.157,276.461,154.903z
			"/>
		<path style="fill:#FFC3BD;" d="M244.528,190.117l5.591-1.272l-2.805,7.675c0,0-4.605,1.356-5.469-1.652L244.528,190.117z"/>
		<polygon style="fill:#FFC3BD;" points="254.131,191.688 250.167,198.969 247.314,196.52 250.118,188.845 		"/>
		<path style="fill:#407BFF;" d="M295.395,132.124c-7.436-1.328-10.879,3.493-8.247,12.573c1.358,4.709,4.554,12.356,8.083,17.963
			l12.623-3.711C305.663,150.207,300.369,133.012,295.395,132.124z"/>
		<path style="fill:#FFC3BD;" d="M280.804,109.469l-6.284,4.221l-8.555,5.756c0.282,1.086,0.508,2.179,0.633,3.226
			c0.574,4.305-0.55,8.077-7.47,8.944c0,0-4.68,5.061,5.902,6.852c13.672,2.315,17.811-4.617,17.811-4.617
			C277.515,128.752,279.202,116.265,280.804,109.469z"/>
		<g>
			<g>
				<path style="fill:#407BFF;" d="M258.914,124.006c-2.052-1.014-3.847,3.027-3.358,4.729c0.49,1.702-1.407-0.031-3.488,2.654
					c-2.081,2.685,4.993,13.459,14.764,19.219c8.565-2.84,15.37-7.114,18.294-9.784c2.591-2.367,9.444-10.101,6.671-11.023
					c-2.774-0.922-1.202-4.284-3.862-5.787C285.276,122.512,270.453,129.711,258.914,124.006z"/>
				<path style="opacity:0.7;fill:#FFFFFF;" d="M258.914,124.006c-2.052-1.014-3.847,3.027-3.358,4.729
					c0.49,1.702-1.407-0.031-3.488,2.654c-2.081,2.685,4.993,13.459,14.764,19.219c8.565-2.84,15.37-7.114,18.294-9.784
					c2.591-2.367,9.444-10.101,6.671-11.023c-2.774-0.922-1.202-4.284-3.862-5.787C285.276,122.512,270.453,129.711,258.914,124.006
					z"/>
			</g>
			<g>
				<path style="opacity:0.4;fill:#407BFF;" d="M257.508,130.017c1.777,1.874,13.076,3.683,22.72,1.553
					C271.483,134.304,260.425,134.417,257.508,130.017z"/>
				<path style="opacity:0.4;fill:#407BFF;" d="M268.655,141.478c0,0,7.123-1.007,12-4.482
					C278.196,139.317,275.258,142.21,268.655,141.478z"/>
			</g>
		</g>
		<path style="opacity:0.2;" d="M265.965,119.446c0.282,1.086,0.508,2.179,0.633,3.225c3.236-0.301,7.503-3.039,7.883-5.995
			c0.142-1.112,0.144-2.198,0.039-2.986L265.965,119.446z"/>
		<path style="fill:#263238;" d="M264.644,91.919c-3.739,1.504-6.322,11.706-1.792,14.103S271.726,89.07,264.644,91.919z"/>
		<path style="fill:#FFC3BD;" d="M280.709,103.71c-1.951,7.138-2.73,11.398-7.159,14.514c-6.662,4.687-14.908-0.044-15.131-7.517
			c-0.201-6.726,3.023-17.27,10.708-19.006C276.698,89.99,282.66,96.571,280.709,103.71z"/>
		<path style="fill:#407BFF;" d="M265.125,101.496c0,0-2.981-2.374-5.676-1.367c0,0-4.475,7.632,4.592,5.242
			c9.546,4.776,10.49-3.473,10.49-3.473C268.818,99.529,265.125,101.496,265.125,101.496z"/>
		<path style="fill:#263238;" d="M290.4,96.612c3.414,1.695,0.009,9.244-3.159,11.51c-4.294,3.072-6.296,4.078-8.576,2.03
			c-2.081-1.158-5.533-8.359-1.785-12.649c-3.178-2.292-13.924,2.282-17.051-6.79c-1.399-4.061-0.27-12.506,10.451-7.691
			c0.595,4.333,6.76,5.53,11.488,5.368C288.883,88.145,293.704,91.662,290.4,96.612z"/>
		<path style="fill:#263238;" d="M264.394,93.907c-2.606,0.734-5.524-1.132-5.087,2.009c0.437,3.141-2.499,3.297-2.499,3.297
			s3.734-0.085,3.414-2.525c-0.32-2.439,2.724-0.811,5.317-0.504C268.133,96.491,265.855,93.496,264.394,93.907z"/>
		<path style="fill:#FFC3BD;" d="M281.966,111.291c-1.37,1.496-3.192,2.338-4.715,2.535c-2.292,0.297-2.691-1.828-1.428-3.814
			c1.137-1.788,3.699-4.096,5.698-3.478C283.491,107.143,283.533,109.58,281.966,111.291z"/>
		<path style="fill:#FFFFFF;" d="M269.329,103.57c-0.123,0.587-0.534,1.013-0.92,0.951c-0.385-0.062-0.598-0.588-0.475-1.174
			c0.123-0.587,0.534-1.013,0.92-0.951C269.239,102.457,269.452,102.983,269.329,103.57z"/>
		<path style="fill:#FFFFFF;" d="M262.555,102.667c-0.123,0.587-0.534,1.013-0.92,0.951c-0.385-0.062-0.598-0.587-0.476-1.174
			c0.123-0.587,0.534-1.013,0.92-0.951C262.465,101.554,262.678,102.08,262.555,102.667z"/>
		<path style="fill:#ED847E;" d="M264.536,103.527c0,0-2.048,3.172-3.865,4.57c0.84,1.136,2.706,0.977,2.706,0.977L264.536,103.527z
			"/>
		<path style="fill:#263238;" d="M265.621,111.047c2.353,0.094,3.747-1.32,3.811-1.386c0.068-0.07,0.066-0.181-0.003-0.248
			c-0.069-0.067-0.18-0.064-0.248,0.006c-0.016,0.016-1.601,1.629-4.192,1.211c-0.096-0.016-0.186,0.05-0.203,0.146
			c-0.017,0.096,0.047,0.186,0.143,0.201C265.168,111.016,265.399,111.038,265.621,111.047z"/>
		<path style="fill:#263238;" d="M272.162,100.137c0.054-0.02,0.105-0.053,0.146-0.099c0.129-0.146,0.117-0.368-0.029-0.495
			c-1.434-1.257-3.002-0.792-3.067-0.771c-0.18,0.037-0.293,0.253-0.237,0.439c0.055,0.185,0.25,0.288,0.436,0.231
			c0.065-0.019,1.275-0.357,2.401,0.631C271.911,100.16,272.046,100.18,272.162,100.137z"/>
		<path style="fill:#263238;" d="M263.537,99.242c-0.052-0.099-0.15-0.171-0.27-0.184c-1.586-0.169-2.209-1.31-2.215-1.321
			c-0.09-0.171-0.303-0.234-0.474-0.141c-0.171,0.092-0.237,0.304-0.148,0.474c0,0,0.001,0.001,0.001,0.002
			c0.032,0.06,0.805,1.476,2.753,1.683c0.193,0.021,0.368-0.119,0.391-0.312C263.583,99.371,263.568,99.301,263.537,99.242z"/>
		<path style="fill:#FFC3BD;" d="M289.267,190.557l-7.4-1.095l3.896,8.441c0,0,6.739-0.213,6.387-3.675L289.267,190.557z"/>
		<path style="fill:#407BFF;" d="M298.822,136.962c1.304,2.393,2.371,4.63,3.435,6.995c1.044,2.345,2.033,4.716,2.936,7.135
			c0.895,2.426,1.761,4.867,2.49,7.389c0.748,2.518,1.428,5.068,1.924,7.74l0.197,0.994c0.069,0.376,0.143,0.905,0.204,1.349
			c0.076,0.465,0.085,0.926,0.113,1.388c0.032,0.464,0.036,0.92,0.012,1.371c-0.064,1.812-0.377,3.543-0.858,5.119
			c-0.94,3.18-2.487,5.817-4.149,8.15c-1.703,2.322-3.589,4.332-5.595,6.148c-0.996,0.913-2.046,1.752-3.104,2.567
			c-1.09,0.816-2.126,1.531-3.387,2.302l-4.365-5.389c0.639-0.806,1.414-1.773,2.089-2.685c0.704-0.915,1.36-1.863,2.002-2.798
			c1.258-1.887,2.419-3.789,3.283-5.689c0.912-1.873,1.492-3.76,1.725-5.384c0.122-0.818,0.106-1.561,0.015-2.216
			c-0.008-0.168-0.033-0.327-0.073-0.477c-0.036-0.152-0.044-0.311-0.103-0.45l-0.388-1.274c-1.323-4.279-3.063-8.642-4.922-12.967
			c-0.941-2.163-1.911-4.326-2.904-6.479l-2.986-6.355L298.822,136.962z"/>
		<polygon style="fill:#FFC3BD;" points="276.411,193.895 279.966,200.704 285.762,197.903 281.867,189.462 		"/>
	</g>
</g>
</svg>
