<?xml version="1.0" encoding="utf-8"?>
<!-- Generator: Adobe Illustrator 27.5.0, SVG Export Plug-In . SVG Version: 6.00 Build 0)  -->
<svg version="1.1" xmlns="http://www.w3.org/2000/svg" xmlns:xlink="http://www.w3.org/1999/xlink" x="0px" y="0px"
	 viewBox="0 0 500 500" style="enable-background:new 0 0 500 500;" xml:space="preserve">
<g id="BACKGROUND">
	<rect style="fill:#FFFFFF;" width="500" height="500"/>
	<path style="fill:#FFEBE3;" d="M74.661,146.284c9.922,20.875-28.792,42.636-27.993,72.489
		c0.699,26.131,30.873,28.618,68.487,76.355c32.406,41.127,23.266,56.104,45.145,69.908c39.448,24.887,111.59,2.967,152.182-41.911
		c31.452-34.773,45.635-85.178,35.835-130.36C325.737,88.67,180.028,31.56,112.05,67.38c-24.371,12.842-56.267,46.858-49.173,65.426
		C65.46,139.568,71.188,138.978,74.661,146.284z"/>
</g>
<g id="OBJECTS">
	<g>
		<path style="fill:#FFFFFF;" d="M179.628,206.914c-15.063,0-27.274,9.604-27.274,21.451h54.548
			C206.902,216.517,194.691,206.914,179.628,206.914z"/>
		<path style="fill:#FFFFFF;" d="M149.992,192.91c-16.945,0-30.681,15.874-30.681,35.455h61.362
			C180.673,208.783,166.937,192.91,149.992,192.91z"/>
		<path style="fill:#FFFFFF;" d="M213.458,216.065c-8.637,0-15.638,5.506-15.638,12.299h31.276
			C229.096,221.572,222.094,216.065,213.458,216.065z"/>
		<path style="fill:#FFFFFF;" d="M122.718,216.065c-8.637,0-15.638,5.506-15.638,12.299h31.276
			C138.356,221.572,131.355,216.065,122.718,216.065z"/>
	</g>
	<g>
		<g>
			<polygon style="fill:#E09941;" points="290.23,355.647 226.155,345.367 136.177,366.116 200.253,376.396 			"/>
			<polygon style="fill:#AD7632;" points="290.23,365.263 199.999,385.872 199.999,376.256 290.23,355.647 			"/>
			<polygon style="fill:#785223;" points="199.999,386.012 136.177,375.567 136.177,365.951 199.999,376.396 			"/>
		</g>
		<g>
			<path style="fill:#182838;" d="M158.588,356.656c0,0-2.086,7.633-3.126,11.555l41.377,3.366c1.147,0.093,2.299,0.121,3.449,0.082
				l13.846-0.466c0,0,0.771-4.389-18.56-9.839L158.588,356.656z"/>
			<path style="fill:#182838;" d="M220.25,341.489c0,0-1.696,7.729-2.535,11.699h58.748c0,0,0.547-4.422-19.035-8.884
				L220.25,341.489z"/>
			<path style="fill:#6697CF;" d="M247.43,160.962l-61.599,13.131c0,0-1.247,9.866-2.822,18.547l-0.928,10.136
				c0,0,25.827-1.597,37.71,7.861h19.039l16.767-22.169C255.595,188.468,250.507,166.282,247.43,160.962z"/>
			<polygon style="fill:#6697CF;" points="197.617,361.491 156.934,362.621 173.023,283.98 183.807,188.468 223.381,194.678 
				212.607,290.128 			"/>
			<polygon style="fill:#6697CF;" points="254.739,344.433 220.029,343.921 221.181,252.276 216.393,191.677 255.661,188.468 
				260.596,250.925 			"/>
			<polygon style="fill:#6697CF;" points="214.138,240.812 228.77,232.551 216.393,221.354 			"/>
			
				<line style="fill:none;stroke:#182838;stroke-width:0.5;stroke-miterlimit:10;" x1="220.013" y1="237.495" x2="234.41" y2="225.811"/>
			<path style="fill:none;stroke:#182838;stroke-width:0.5;stroke-miterlimit:10;" d="M190.786,175.535
				c0,0-8.499,97.016-11.197,107.929c-2.697,10.913-15.409,78.956-15.409,78.956"/>
			
				<line style="fill:none;stroke:#182838;stroke-width:0.5;stroke-miterlimit:10;" x1="226.608" y1="344.433" x2="224.67" y2="233.716"/>
			<path style="fill:#EBA283;" d="M232.323,128.741c2.886,3.956,6.794,7.198,10.835,10.185c1.459,1.081,3.511,2.332,5.333,3.027
				c5.042,1.901,10.464,2.663,15.632,3.412c7.714,1.03,15.586,1.634,23.351,1.96c2.591,0.105,5.15,0.168,7.788,0.172l1.675-14.44
				c-11.848-2.917-24.426-5.319-36.085-8.627c-1.583-0.499-2.944-0.865-4.305-1.545c0.084-0.001,0.223,0.066,0.32,0.104
				c0.019,0.002,0.018-0.01,0.027-0.012c0.009-0.013,0.036-0.005,0.026-0.025c-0.09-0.133-0.302-0.312-0.597-0.606
				c-2.79-2.686-5.415-5.524-8.477-8.076L232.323,128.741L232.323,128.741z"/>
			<polygon style="fill:#182838;" points="251.588,115.564 238.265,127.769 226.608,92.742 			"/>
			
				<rect x="238.737" y="117.028" transform="matrix(0.7873 -0.6166 0.6166 0.7873 -22.233 177.8515)" style="fill:#FFFFFF;" width="15.819" height="8.242"/>
			<path style="fill:#182838;" d="M184.105,144.877c-9.225,7.539-10.801,9.141-10.801,9.141
				c-31.573-45.118-9.093-55.618-4.484-58.271c3.058-1.76,23.448-6.942,36.831-10.232c7.8-1.918,16,0.906,20.956,7.228
				c3.894,4.967,14.019,25.018,16.118,35.026c6.695,31.926,7.998,36.339,7.998,36.339s-10.956,18.816-65.234,10.703L184.105,144.877
				z"/>
			<polyline style="fill:none;stroke:#6697CF;stroke-width:0.5;stroke-miterlimit:10;" points="184.105,118.37 189.22,127.904 
				192.815,137.438 			"/>
			<g>
				<polygon style="fill:#B270CC;" points="261.551,164.437 341.549,118.676 336.492,113.027 255.154,156.989 				"/>
				<polygon style="fill:#520044;" points="238.335,196.104 261.551,164.437 255.154,156.989 232.323,190.034 				"/>
				<polygon style="fill:#743085;" points="341.549,118.676 261.551,164.437 238.335,196.104 318.643,148.7 				"/>
			</g>
			<path style="fill:#EBA283;" d="M174.471,152.953c2.553,4.178,6.48,5.755,10.265,9.061c1.366,1.196,4.546,2.107,6.305,2.948
				c4.871,2.306,10.212,3.508,15.302,4.675c7.605,1.655,15.401,2.899,23.113,3.857c2.574,0.316,5.119,0.588,7.748,0.807
				l2.847-14.255c-11.571-3.873-20.615-5.31-31.965-9.558c-1.537-0.627-2.864-1.102-4.164-1.891
				c0.084,0.006,0.217,0.084,0.311,0.129c0.018,0.003,0.018-0.008,0.028-0.01c0.01-0.012,0.036-0.002,0.028-0.023
				c-0.079-0.14-0.276-0.336-0.546-0.653c-2.562-2.905-8.243-7.931-11.087-10.724L174.471,152.953L174.471,152.953z"/>
			<g>
				<path style="fill:#EBA283;" d="M236.96,159.9c0,0,2.986-2.517,10.66-3.896c7.674-1.38,14.14-3.104,14.744-2.587
					c0.604,0.517,0.69,4.311-3.88,6.035c-4.57,1.724-8.45,3.363-7.76,4.656c0.69,1.293,3.19,3.449,5.173,3.966
					c0,0,6.37,3.305,7.491,3.047c1.121-0.259,5.024-2.04,5.787-2.529c3.084-1.974,4.541,0.23,1.466,3.736
					c0,0,2.328,0.402-3.018,5.576c0,0,1.466,0.949-1.724,2.931c0,0,0.431,0.949-1.552,2.069c-1.983,1.121-7.539,2.094-8.45,1.897
					c-0.91-0.198-5.518-2.673-11.898-5.001s-11.112-6.208-11.591-6.725C231.928,172.558,223.368,162.589,236.96,159.9z"/>
				<path style="fill:none;stroke:#8C5F48;stroke-miterlimit:10;" d="M270.641,172.328c0,0-4.828,3.937-6.208,4.196
					c-1.38,0.259-7.37-1.77-8.298-1.575"/>
				<path style="fill:none;stroke:#8C5F48;stroke-miterlimit:10;" d="M267.623,177.903c0,0-3.707,2.5-4.656,2.759
					c-0.948,0.259-8.45-1.035-9.398-1.38"/>
				<path style="fill:none;stroke:#8C5F48;stroke-miterlimit:10;" d="M265.899,180.835c0,0-3.667,1.824-5.303,1.552
					s-5.001-0.762-5.001-0.762"/>
			</g>
			<polyline style="fill:none;stroke:#6697CF;stroke-width:0.5;stroke-miterlimit:10;" points="228.77,101.232 229.848,105.286 
				241.902,123.25 			"/>
			<path style="fill:#EBA283;" d="M182.708,77.775l-6.011,15.484c0,0,13.745,10.689,22.32,6.986
				c8.575-3.703,2.745-13.517,2.745-13.517l2.326-7.629L182.708,77.775z"/>
			<path style="fill:#CF8160;" d="M181.303,81.42c3.324,5.367,10.813,12.33,20.439,6.329l2.347-8.649l-20.643-4.836L181.303,81.42z"
				/>
			<g>
				<path style="fill:#0F1923;" d="M177.446,71.059c0,0,2.07,5.412,4.97,5.839c2.9,0.427-1.243-6.344-1.243-6.344L177.446,71.059z"
					/>
				<g>
					<g>
						<g>
							<path style="fill:#EBA283;" d="M177.446,60.788c0,16.413,11.721,25.237,23.328,25.237c8.524,0,15.321-9.894,15.321-26.307
								s-6.228-22.126-18.169-22.126S177.446,44.375,177.446,60.788z"/>
							<g>
								<g>
									<path style="fill:#0F1923;" d="M195.964,66.353c0.099,1.054,0.697,1.859,1.338,1.799c0.64-0.06,1.079-0.962,0.981-2.016
										c-0.098-1.053-0.697-1.859-1.337-1.799C196.305,64.397,195.866,65.299,195.964,66.353z"/>
									<path style="fill:none;stroke:#0F1923;stroke-width:0.5;stroke-miterlimit:10;" d="M199.057,65.907
										c0,0-0.913-2.143-3.577-1.526c-0.391,0.09-0.987,0.272-1.575,0.502"/>
								</g>
								<g>
									<path style="fill:#0F1923;" d="M213.742,65.78c-0.013,0.959-0.496,1.73-1.079,1.722c-0.583-0.008-1.044-0.792-1.031-1.751
										c0.013-0.959,0.496-1.73,1.079-1.722C213.294,64.037,213.755,64.821,213.742,65.78z"/>
									<path style="fill:none;stroke:#0F1923;stroke-width:0.5;stroke-miterlimit:10;" d="M210.618,65.811
										c0.051-0.112,0.113-0.219,0.178-0.324c0.156-0.251,0.34-0.486,0.548-0.695c0.434-0.436,0.997-0.767,1.613-0.847
										c0.324-0.042,0.655-0.024,0.975,0.041c0.191,0.039,0.38,0.095,0.552,0.188c0.18,0.098,0.313,0.243,0.453,0.39"/>
								</g>
								<path style="fill:none;stroke:#0F1923;stroke-width:0.5;stroke-miterlimit:10;" d="M206.686,61.598
									c0,0-1.383,3.9,0.583,5.512c1.966,1.611,1.259,3.859-0.161,4.806"/>
								<g>
									<path style="fill:none;stroke:#0F1923;stroke-width:0.5;stroke-miterlimit:10;" d="M196.77,74.688
										c0,0,2.3,1.156,4.971,1.321c2.359,0.146,4.971-0.436,4.971-0.436"/>
								</g>
							</g>
							<polygon style="fill:#0F1923;" points="182.708,56.095 182.408,66.055 174.947,62.862 175.05,57.446 							"/>
							<path style="fill:#EBA283;" d="M174.4,67.756c0.623,3.33,3.095,5.662,5.521,5.208c2.426-0.454,3.888-3.522,3.265-6.852
								c-0.623-3.33-3.095-5.662-5.521-5.208C175.239,61.358,173.777,64.425,174.4,67.756z"/>
							<path style="fill:none;stroke:#0F1923;stroke-width:0.5;stroke-miterlimit:10;" d="M177.426,64.274
								c0,0,1.97,0.283,2.431,3.323c0,0-1.761-0.171-2.202,1.218"/>
						</g>
					</g>
					<path style="fill:#0F1923;" d="M182.662,57.616c0,0,5.096,1.154,7.045-10.929c0,0,18.213,6.22,26.387,1.811
						c8.174-4.409,5.056-11.685,5.056-11.685h-10.682l1.965-1.819c0,0-14.281-2.859-26.494,1.299
						c-12.213,4.158-15.229,6.754-10.993,26.57l1.378-5.261L182.662,57.616z"/>
				</g>
			</g>
			<g>
				<path style="fill:#EBA283;" d="M330.61,133.041c0.959,5.698,0.82,9.257,0.388,10.164c-0.432,0.907-3.571,4.098-3.571,4.098
					c-5.788,3.572-6.521,1.764-6.521,1.764c-3.586,0.431-1.983-1.661-1.983-1.661c-5.228,0.255-6.242-2.468-2.392-3.762
					c0.953-0.32,5.576-2.34,6.561-3.12L330.61,133.041z"/>
				<path style="fill:none;stroke:#8C5F48;stroke-miterlimit:10;" d="M318.209,147.314c0,0,8.208-1.673,9.166-2.093
					c0.957-0.42,2.867-2.03,2.867-2.03"/>
				<path style="fill:none;stroke:#8C5F48;stroke-miterlimit:10;" d="M321.028,149.068c0,0,6.071-2.784,6.648-3.074"/>
				<line style="fill:none;stroke:#8C5F48;stroke-miterlimit:10;" x1="327.393" y1="138.663" x2="323.091" y2="140.523"/>
			</g>
		</g>
		<polygon style="fill:#FFFFFF;" points="179.858,85.118 174.947,93.576 194.792,107.47 199.018,100.245 		"/>
		<polygon style="fill:#FFFFFF;" points="202.11,86.39 199.018,100.245 206.213,102.679 208.724,89.643 		"/>
		<path style="fill:#6697CF;" d="M196.484,104.577l5.464,4.213c0,0,3.352-0.989,3.746-1.32l-0.479-5.129l-6.197-2.096
			L196.484,104.577z"/>
		<path style="fill:#6697CF;" d="M201.089,106.509c0,0,2.036,16.845,3,18.472c0.964,1.626,22.044,21.444,22.519,21.59
			c0.475,0.146-2.186-18.337-5.735-22.329c-3.549-3.992-15.18-17.732-15.18-17.732H201.089z"/>
		
			<rect x="170.851" y="142.842" transform="matrix(0.7873 -0.6166 0.6166 0.7873 -51.309 145.1999)" style="fill:#FFFFFF;" width="27.871" height="8.242"/>
		<path style="fill:none;stroke:#0F1923;stroke-width:0.5;stroke-miterlimit:10;" d="M189.707,46.687c0,0,2.149,3.465,9.35,5.1"/>
	</g>
	<g>
		<polygon style="fill:#E09941;" points="193.546,413.083 135.949,402.072 55.068,424.297 112.665,435.308 		"/>
		<polygon style="fill:#AD7632;" points="193.546,420.432 112.437,442.507 112.437,435.157 193.546,413.083 		"/>
		<polygon style="fill:#785223;" points="112.437,442.657 55.068,431.47 55.068,424.12 112.437,435.308 		"/>
	</g>
	<polygon style="fill:#FFEBE3;" points="440.641,393.382 448.92,317.748 373.287,326.028 394.616,347.357 314.972,427.001 
		339.668,451.696 419.312,372.052 	"/>
	<g>
		<path style="fill:#FFEBE3;" d="M394.308,34.035c-16.558,0-29.981,10.557-29.981,23.58h59.962
			C424.289,44.592,410.866,34.035,394.308,34.035z"/>
		<path style="fill:#FFEBE3;" d="M431.495,44.096c-9.494,0-17.19,6.053-17.19,13.52h34.38
			C448.685,50.148,440.989,44.096,431.495,44.096z"/>
	</g>
	<g>
		<path style="fill:#FFEBE3;" d="M88.527,358.611c16.558,0,29.981,6.644,29.981,14.841H58.546
			C58.546,365.256,71.969,358.611,88.527,358.611z"/>
		<path style="fill:#FFEBE3;" d="M51.34,364.943c9.494,0,17.19,3.81,17.19,8.509H34.15C34.15,368.753,41.846,364.943,51.34,364.943z
			"/>
	</g>
	<g>
		<path style="fill:#FFEBE3;" d="M221.473,449.519c9.494,0,17.19,3.81,17.19,8.509h-34.38
			C204.283,453.328,211.979,449.519,221.473,449.519z"/>
		<path style="fill:#FFEBE3;" d="M200.151,453.149c5.443,0,9.856,2.184,9.856,4.879h-19.712
			C190.295,455.333,194.708,453.149,200.151,453.149z"/>
	</g>
	<g>
		<polygon style="fill:#E09941;" points="477.055,213.612 412.98,205.765 323.002,221.605 387.078,229.453 		"/>
		<polygon style="fill:#AD7632;" points="477.055,220.953 386.824,236.686 386.824,229.345 477.055,213.612 		"/>
		<polygon style="fill:#785223;" points="386.824,236.794 323.002,228.82 323.002,221.479 386.824,229.453 		"/>
	</g>
	<g>
		<defs>
			<rect id="SVGID_1_" x="406.272" y="119.849" width="93.728" height="77.35"/>
		</defs>
		<clipPath id="SVGID_00000137125633300161869820000006463660892953820809_">
			<use xlink:href="#SVGID_1_"  style="overflow:visible;"/>
		</clipPath>
		<g style="clip-path:url(#SVGID_00000137125633300161869820000006463660892953820809_);">
			<polygon style="fill:#E09941;" points="588.077,156.966 524.002,151.561 434.024,162.472 498.099,167.877 			"/>
			<polygon style="fill:#AD7632;" points="588.077,166.538 497.845,177.375 497.845,167.803 588.077,156.966 			"/>
			<polygon style="fill:#785223;" points="497.845,177.449 434.024,171.957 434.024,162.385 497.845,167.877 			"/>
		</g>
	</g>
	<g>
		<defs>
			<rect id="SVGID_00000035513826146174820930000009064089421951194796_" y="446.51" width="128.164" height="63.623"/>
		</defs>
		<clipPath id="SVGID_00000117675130267076504290000000249289844760773766_">
			<use xlink:href="#SVGID_00000035513826146174820930000009064089421951194796_"  style="overflow:visible;"/>
		</clipPath>
		<g style="clip-path:url(#SVGID_00000117675130267076504290000000249289844760773766_);">
			<g>
				<polygon style="fill:#E09941;" points="120.82,466.992 62.814,455.264 -18.641,478.936 39.365,490.664 				"/>
				<polygon style="fill:#AD7632;" points="120.82,472.964 39.135,496.476 39.135,490.504 120.82,466.992 				"/>
				<polygon style="fill:#785223;" points="39.135,496.637 -18.641,484.72 -18.641,478.748 39.135,490.664 				"/>
			</g>
		</g>
	</g>
</g>
</svg>
