<?xml version="1.0" encoding="utf-8"?>
<!-- Generator: Adobe Illustrator 27.5.0, SVG Export Plug-In . SVG Version: 6.00 Build 0)  -->
<svg version="1.1" xmlns="http://www.w3.org/2000/svg" xmlns:xlink="http://www.w3.org/1999/xlink" x="0px" y="0px"
	 viewBox="0 0 500 500" style="enable-background:new 0 0 500 500;" xml:space="preserve">
<g id="BACKGROUND">
	<g>
		<defs>
			<rect id="SVGID_1_" width="500" height="500"/>
		</defs>
		<clipPath id="SVGID_00000035513461152691266680000003319384064697188773_">
			<use xlink:href="#SVGID_1_"  style="overflow:visible;"/>
		</clipPath>
		
			<rect style="clip-path:url(#SVGID_00000035513461152691266680000003319384064697188773_);fill:#1A62AB;" width="500" height="500"/>
		<path style="clip-path:url(#SVGID_00000035513461152691266680000003319384064697188773_);fill:#144B82;" d="M248.213-199.33
			c-173.06,0-313.85,164.199-313.85,429.58v392.32h627.7V114.53C562.063-58.53,421.273-199.33,248.213-199.33z M507.063,567.57
			h-517.7V230.25c0-142.73,116.12-258.86,258.85-258.86s258.85,116.13,258.85,258.86V567.57z"/>
		<path style="clip-path:url(#SVGID_00000035513461152691266680000003319384064697188773_);fill:#165696;" d="M248.213-28.61
			c-142.73,0-258.85,116.13-258.85,258.86v337.32h517.7V230.25C507.063,87.52,390.943-28.61,248.213-28.61z M462.063,522.57h-427.7
			V230.25c0-117.92,95.93-213.86,213.85-213.86s213.85,95.94,213.85,213.86V522.57z"/>
		<path style="clip-path:url(#SVGID_00000035513461152691266680000003319384064697188773_);fill:#195FA6;" d="M248.213,16.39
			c-117.92,0-213.85,95.94-213.85,213.86v292.32h427.7V230.25C462.063,112.33,366.133,16.39,248.213,16.39z M427.063,487.57h-357.7
			V230.25c0-98.62,80.23-178.86,178.85-178.86s178.85,80.24,178.85,178.86V487.57z"/>
		<path style="clip-path:url(#SVGID_00000035513461152691266680000003319384064697188773_);fill:#1B66B3;" d="M248.213,51.39
			c-98.62,0-178.85,80.24-178.85,178.86v257.32h357.7V230.25C427.063,131.63,346.833,51.39,248.213,51.39z M402.063,462.57h-307.7
			V230.25c0-84.84,69.01-153.86,153.85-153.86s153.85,69.02,153.85,153.86V462.57z"/>
		<path style="clip-path:url(#SVGID_00000035513461152691266680000003319384064697188773_);fill:#1D6CBD;" d="M248.213,76.39
			c-84.84,0-153.85,69.02-153.85,153.86v232.32h307.7V230.25C402.063,145.41,333.053,76.39,248.213,76.39z M382.063,442.57h-267.7
			V230.25c0-73.93,59.92-133.86,133.85-133.86c36.96,0,70.43,14.98,94.65,39.21c24.22,24.22,39.2,57.68,39.2,94.65V442.57z"/>
		<polygon style="clip-path:url(#SVGID_00000035513461152691266680000003319384064697188773_);fill:#3A90E8;" points="
			114.363,442.57 8.624,546.966 503.671,544.644 382.063,442.57 		"/>
		<g style="clip-path:url(#SVGID_00000035513461152691266680000003319384064697188773_);">
			<path style="fill:#378ADE;" d="M382.063,230.25v212.32h-267.7V230.25c0-15.28,2.56-29.97,7.28-43.65
				c2.39-6.94,5.33-13.62,8.78-19.99c22.64-41.82,66.89-70.22,117.79-70.22c36.96,0,70.43,14.98,94.65,39.21
				C367.083,159.82,382.063,193.28,382.063,230.25z"/>
			<path style="fill:#1D6CBD;" d="M180.473,185.8c0,0-29.8,0.55-58.83,0.8c2.39-6.94,5.33-13.62,8.78-19.99
				c6.38,3.85,10.51,9.01,10.51,9.01C161.893,166.04,180.473,185.8,180.473,185.8z"/>
			<path style="fill:#1D6CBD;" d="M382.063,308.68v22.47c-22.81,0.12-42.12-0.02-41.64-0.89c11.39-20.37,28.16-9.58,28.16-9.58
				C373.053,314.35,377.623,310.61,382.063,308.68z"/>
			<g>
				<path style="fill:#FFFFFF;" d="M148.472,237.624c-1.266,0.41-1.598,0.743-2.008,2.008c-0.41-1.265-0.743-1.598-2.008-2.008
					c1.266-0.41,1.598-0.743,2.008-2.008C146.874,236.881,147.206,237.213,148.472,237.624z"/>
			</g>
			<g>
				<path style="fill:#FFFFFF;" d="M327.037,142.441c-1.265,0.41-1.598,0.743-2.008,2.008c-0.41-1.265-0.743-1.598-2.008-2.008
					c1.265-0.41,1.598-0.743,2.008-2.008C325.439,141.699,325.772,142.031,327.037,142.441z"/>
			</g>
			<g>
				<path style="fill:#FFFFFF;" d="M192.314,129.636c-1.265,0.41-1.598,0.743-2.008,2.008c-0.41-1.266-0.743-1.598-2.008-2.008
					c1.265-0.41,1.598-0.743,2.008-2.008C190.716,128.893,191.048,129.226,192.314,129.636z"/>
			</g>
		</g>
		<g style="clip-path:url(#SVGID_00000035513461152691266680000003319384064697188773_);">
			<path style="fill:none;stroke:#001121;stroke-miterlimit:10;" d="M-15.958,26.173c0,0,67.789,51.348,119.346-33.612"/>
			<path style="fill:none;stroke:#001121;stroke-miterlimit:10;" d="M-13.529,146.28c0,0,36.141-1.902,46.286-46.92
				c0,0,26.296,11.225,45.3-14.629c15.427-20.988,14.376-40.195,14.376-40.195s30.36,13.61,61.428-52.331"/>
			<path style="fill:none;stroke:#001121;stroke-miterlimit:10;" d="M512.642,26.173c0,0-67.79,51.348-119.346-33.612"/>
			<path style="fill:none;stroke:#001121;stroke-miterlimit:10;" d="M510.213,146.28c0,0-36.141-1.902-46.286-46.92
				c0,0-26.296,11.225-45.3-14.629c-15.427-20.988-14.376-40.195-14.376-40.195s-30.36,13.61-61.428-52.331"/>
		</g>
		<g style="clip-path:url(#SVGID_00000035513461152691266680000003319384064697188773_);">
			<path style="fill:#FFFFFF;" d="M-39.903,112.205c1.065,0.036,2.414-0.003,3.71-0.079c1.317-0.079,2.662-0.204,4.014-0.358
				c2.708-0.318,5.448-0.755,8.186-1.313c5.481-1.105,10.951-2.643,16.347-4.487c10.799-3.7,21.297-8.666,31.352-14.499
				C43.846,79.78,62.218,64.698,78.892,47.896c8.367-8.389,16.257-17.293,23.845-26.467c7.545-9.213,14.738-18.743,21.602-28.525
				c13.731-19.568,26.11-40.144,37.504-61.271l0,0l0.926-2.015l1.596,1.769c5.468,6.06,11.606,11.703,17.975,16.875
				c6.396,5.173,13.159,9.855,20.227,13.947c3.538,2.038,7.165,3.906,10.867,5.584c3.691,1.701,7.467,3.2,11.307,4.474
				c7.684,2.528,15.613,4.229,23.629,4.831c4.008,0.307,8.028,0.27,12.034,0.058c4.005-0.233,8.003-0.711,11.943-1.518
				c7.886-1.566,15.612-4.084,22.971-7.511c14.795-6.76,28.143-16.668,40.495-27.708l0,0l1.415-1.47l1.006,1.896
				c6.103,11.507,13.092,22.653,20.424,33.455c7.356,10.806,15.198,21.261,23.475,31.319c16.558,20.1,34.963,38.609,55.254,54.413
				c20.286,15.76,42.589,28.714,66.295,37.019c2.949,1.072,5.948,1.981,8.932,2.913c1.499,0.445,3.011,0.84,4.513,1.264
				c1.499,0.437,3.015,0.804,4.532,1.162c6.048,1.512,12.169,2.639,18.309,3.482c12.28,1.727,24.679,2.022,36.967,1.203
				l0.874,24.621c-13.995-0.021-27.982-1.34-41.606-4.218c-6.812-1.418-13.547-3.15-20.136-5.283
				c-1.654-0.513-3.302-1.037-4.926-1.631c-1.628-0.58-3.265-1.135-4.882-1.738c-3.219-1.249-6.439-2.479-9.588-3.872
				c-25.328-10.888-48.075-26.403-68.136-44.313c-20.063-17.97-37.618-38.29-53.072-59.904
				c-7.722-10.816-14.94-21.958-21.626-33.391c-6.672-11.452-12.91-23.09-18.32-35.235l2.42,0.427l0,0
				c-5.61,6.284-11.776,12.106-18.418,17.398c-6.657,5.267-13.801,10.018-21.493,13.834c-3.817,1.961-7.813,3.582-11.862,5.051
				c-4.048,1.485-8.234,2.609-12.466,3.497c-8.47,1.769-17.217,2.335-25.851,1.641c-8.633-0.708-17.148-2.562-25.248-5.464
				c-4.055-1.438-8.017-3.107-11.87-4.978c-3.844-1.893-7.577-3.985-11.201-6.235c-7.257-4.491-14.002-9.719-20.304-15.381
				c-3.126-2.862-6.173-5.804-9.041-8.916c-2.887-3.11-5.62-6.288-8.18-9.755l2.521-0.247l0,0
				C154.2-45.233,142.833-23.884,129.974-3.363c-6.429,10.259-13.223,20.311-20.421,30.099
				c-7.244,9.752-14.841,19.283-23.002,28.367c-16.268,18.186-34.529,34.922-55.356,48.519c-10.408,6.783-21.457,12.76-33.192,17.48
				c-5.87,2.353-11.903,4.402-18.141,6.005c-3.117,0.807-6.289,1.489-9.53,2.043c-1.624,0.272-3.263,0.513-4.941,0.702
				c-1.698,0.186-3.352,0.336-5.294,0.385V112.205z"/>
		</g>
		<g style="clip-path:url(#SVGID_00000035513461152691266680000003319384064697188773_);">
			<path style="fill:#3A90E8;" d="M-70.777,42.221c0.061,0.027,0.326,0.118,0.536,0.188l0.7,0.226l1.459,0.445
				c0.986,0.293,1.995,0.57,3.005,0.841c2.025,0.539,4.08,1.03,6.148,1.479c4.137,0.898,8.327,1.636,12.54,2.197
				c8.426,1.14,16.951,1.58,25.427,1.247c16.927-0.655,33.781-4.68,48.485-13.069c7.312-4.216,14.11-9.408,20.035-15.547
				C53.514,14.122,58.674,7.17,62.999-0.319c4.383-7.463,7.871-15.489,10.771-23.738c2.889-8.259,5.127-16.781,6.84-25.425
				l2.958,0.497c-1.228,8.847-2.997,17.649-5.471,26.298c-2.487,8.639-5.611,17.163-9.754,25.263
				c-4.084,8.12-9.131,15.843-15.174,22.803C47.163,32.37,40.074,38.49,32.3,43.588c-7.802,5.066-16.326,9.02-25.17,11.889
				c-8.85,2.873-18.015,4.667-27.229,5.574c-9.219,0.899-18.495,0.955-27.708,0.25c-4.609-0.343-9.203-0.879-13.786-1.6
				c-2.292-0.36-4.58-0.769-6.873-1.238c-1.148-0.237-2.294-0.481-3.452-0.753l-1.751-0.425l-0.898-0.233
				c-0.321-0.087-0.587-0.157-1.054-0.3L-70.777,42.221z"/>
		</g>
		<g style="clip-path:url(#SVGID_00000035513461152691266680000003319384064697188773_);">
			<path style="fill:#3A90E8;" d="M405.205-36.095l0.118,0.651l0.167,0.824c0.11,0.549,0.258,1.114,0.384,1.669
				c0.266,1.115,0.577,2.231,0.88,3.343c0.635,2.223,1.34,4.427,2.085,6.617c1.499,4.379,3.277,8.657,5.17,12.865
				c3.886,8.375,8.514,16.377,13.928,23.744c5.411,7.366,11.618,14.09,18.547,19.868c6.923,5.784,14.565,10.6,22.67,14.323
				l3.031,1.408c1.021,0.444,2.087,0.791,3.126,1.192l3.13,1.166l1.561,0.584c0.531,0.167,1.072,0.308,1.607,0.464l6.418,1.833
				l6.549,1.335c8.774,1.509,17.694,2.311,26.66,1.926c17.913-0.455,35.776-4.011,53.095-9.437l4.823,17.598
				c-18.853,4.528-38.412,7.105-58.069,6.274c-9.813-0.257-19.636-1.787-29.208-4.125l-7.136-1.974l-6.975-2.51
				c-0.579-0.213-1.162-0.412-1.736-0.637l-1.691-0.761l-3.376-1.523c-1.118-0.521-2.259-0.988-3.354-1.554l-3.247-1.778
				c-8.655-4.712-16.652-10.564-23.703-17.319c-7.06-6.75-13.176-14.371-18.343-22.506c-5.172-8.139-9.41-16.787-12.833-25.698
				c-1.661-4.477-3.188-8.995-4.423-13.598c-0.613-2.303-1.183-4.615-1.682-6.947c-0.236-1.172-0.477-2.337-0.676-3.522
				c-0.094-0.597-0.205-1.177-0.285-1.786l-0.121-0.912c-0.043-0.275-0.068-0.739-0.091-1.097H405.205z"/>
		</g>
	</g>
</g>
<g id="OBJECTS">
	<ellipse style="fill:#1D6CBD;" cx="250.516" cy="469.546" rx="119.072" ry="16.522"/>
	<g>
		<path style="fill:#002A54;" d="M163.131,468.778c-1.589-0.229,20.81-263.421,42.127-278.647
			c21.317-15.227,90.852,1.015,90.852,1.015s36.036,105.825,41.619,277.632C337.73,468.778,281.953,485.919,163.131,468.778z"/>
		<path style="fill:#001121;" d="M170.693,336.505c0,0-1.103,5.791,1.655,14.064c2.758,8.273,5.791,7.997,5.791,6.894
			c0-1.103-1.69-7.911-1.69-7.911s3.373,9.96,5.218,9.392c2.713-0.835-1.044-10.853-1.044-10.853s2.795,10.286,4.174,9.183
			c1.379-1.103,1.67-12.522,1.67-12.522s0.251,7.597,3.757,7.096c1.461-0.209,1.153-7.622,0.326-13.965
			C189.721,331.541,170.693,336.505,170.693,336.505z"/>
		<path style="fill:#002A54;" d="M368.373,264.114c-16.03,19.52-40.86,45.59-53.72,38.02c-19.98-11.76-34.67-95.79-34.67-95.79
			l11.16-17.63l30.56,41.72l13.33-18.58c-0.43,4.3,4.35,15.85,11.98,28.42C355.953,255.014,365.473,265.614,368.373,264.114z"/>
		<path style="fill:#002A54;" d="M205.258,190.13c0,0-37.876,25.955-51.477,144.97c0,0,31.454,17.002,62.908,4.251
			C216.689,339.351,226.982,196.48,205.258,190.13z"/>
		<path style="fill:#002040;" d="M233.575,157.038c0,0,9.779,15.311,19.906,15.133c10.127-0.178,15.818-17.705,15.818-17.705
			s-8.052-19.535-19.6-18.647C238.151,136.707,233.575,157.038,233.575,157.038z"/>
		<path style="fill:#FFFFFF;" d="M362.743,227.124c-1.53-2.51-3.07-4.91-4.59-7.14l-17.02-16.54l-0.04-0.04l-4.8,6.7c0,0,0,0-0.01,0
			l-1.25,1.75c-0.43,4.3,4.35,15.85,11.98,28.42c8.94,14.74,18.46,25.34,21.36,23.84c0.21-0.26,0.43-0.52,0.64-0.78
			c1.79-2.2,3.47-4.31,5-6.26c0.16-0.2,0.32-0.4,0.47-0.6c0,0,0.01,0,0.01-0.01C375.913,253.184,371.013,240.754,362.743,227.124z"
			/>
		<path style="fill:#001121;" d="M335.793,210.274c0.15-0.09,0.31-0.14,0.49-0.17l-1.25,1.75c0.06-0.67,0.26-1.17,0.59-1.46
			C335.673,210.354,335.733,210.314,335.793,210.274z"/>
		<path style="fill:#001121;" d="M369.013,263.334c-0.01,0.03-0.02,0.06-0.03,0.08c0,0.01-0.01,0.01-0.01,0.01
			c-0.11,0.27-0.27,0.47-0.47,0.6c-0.02,0.02-0.04,0.04-0.06,0.05c-0.02,0.01-0.04,0.03-0.07,0.04
			C368.583,263.854,368.803,263.594,369.013,263.334z"/>
		<g>
			<path style="fill:#FFFFFF;" d="M378.453,192.924c0,9.51-7.71,17.22-17.22,17.22c-8.93,0-16.27-6.8-17.13-15.5
				c-0.05-0.42-0.07-0.84-0.08-1.27c-0.01-0.15-0.01-0.3-0.01-0.45c0-9.51,7.71-17.22,17.22-17.22c3.04,0,5.89,0.79,8.37,2.17
				c0.37,0.2,0.74,0.43,1.09,0.66C375.363,181.614,378.453,186.904,378.453,192.924z"/>
		</g>
		<path style="fill:#001121;" d="M374.493,256.464c0,0.01-0.01,0.01-0.01,0.01c-0.11,0.27-0.27,0.47-0.47,0.6
			c-0.02,0.02-0.04,0.04-0.06,0.05c-2.82,1.71-12.42-8.94-21.43-23.8c-8.83-14.54-13.83-27.71-11.39-29.88
			c0.05-0.04,0.11-0.08,0.17-0.12c2.35-1.42,9.37,5.7,16.85,16.66c1.52,2.23,3.06,4.63,4.59,7.14
			C371.013,240.754,375.913,253.184,374.493,256.464z"/>
		<path style="fill:#001121;" d="M346.749,212.743c6.69-0.078,12.429-4.737,13.984-11.243c0.71-2.97,1.476-5.533,2.016-5.593
			c1.298-0.144,1.73,9.228,1.73,9.228s1.976-2.454,3.237-5.166c1.26-2.712,1.805-5.683,2.808-6.686
			c1.039-1.039,1.676,2.62,1.203,6.151c-0.362,2.706-1.769,5.413-1.769,5.413s3.893-4.037,5.479-10.958c0,0,2.74-2.595,1.586,5.479
			c-1.153,8.074-5.479,15.428-11.535,18.888c-6.056,3.46-15.428,4.614-15.428,4.614l-3.627-10.124
			C346.434,212.745,346.545,212.745,346.749,212.743z"/>
		<path style="fill:#FFFFFF;" d="M155.002,324.653c0,0,18.234,11.401,49.856,12.104l-1.026,9.982c0,0-24.561,0.264-50.051-11.639
			L155.002,324.653z"/>
		<path style="fill:none;stroke:#001121;stroke-miterlimit:10;" d="M301.417,227.073c0,0,13.12,28.799,19.84,74.878"/>
		<path style="fill:none;stroke:#001121;stroke-miterlimit:10;" d="M321.703,230.434c0,0-1.202,6.841,0.089,22.339"/>
		<path style="fill:none;stroke:#001121;stroke-miterlimit:10;" d="M210.818,234.359c0,0-3.832,59.611-5.959,102.398"/>
		<path style="fill:#001121;" d="M291.043,475.484c-1.97-31-14.57-222.71-26.59-265.72l-14.46,2.07c0,1.99-0.64,210.44-8.14,264.22
			L291.043,475.484z"/>
		<g>
			<g>
				<g>
					<path style="fill:#FFFFFF;" d="M304.263,182.174c0,0-2.29,6.11-6.95,13.61c-0.17,0.29-0.36,0.58-0.54,0.87
						c-4.38,6.9-10.71,14.8-19.04,20.19c-0.29,0.2-0.58,0.38-0.87,0.56c-5.03,3.1-10.78,5.28-17.24,5.78
						c-4.79,0.37-9.53,0.05-14.13-0.78c-0.34-0.06-0.67-0.12-1-0.19c-8.75-1.71-17.01-5.23-24.28-9.32c-0.3-0.16-0.59-0.33-0.89-0.5
						c-7.88-4.52-14.54-9.67-19.33-13.78c-0.26-0.22-0.52-0.44-0.77-0.65c-4.66-4.07-7.34-6.97-7.34-6.97
						c3.89-16.61,29.59-18.17,29.59-18.17s4.11,0.68,10.35,1.43c2.32,0.28,4.93,0.56,7.74,0.82c11.46,1.07,26.15,1.74,37.19-0.17
						C297.783,171.274,304.263,182.174,304.263,182.174z"/>
				</g>
				<g>
					<path style="fill:#1D6CBD;" d="M239.783,175.344c1.99,2.87-2.31,8.34-2.8,8.95c-0.18,0.18-12.24,11.74-16.77,28.6
						c-0.3-0.16-0.59-0.33-0.89-0.5c4.66-17.02,16.79-28.64,16.93-28.77c1.17-1.46,4.04-5.8,2.71-7.71
						c-0.88-1.26-3.97-2.08-13.72,1.17c-12.89,4.29-20.77,13.82-25.25,21.53c-0.26-0.22-0.52-0.44-0.77-0.65
						c4.6-7.85,12.63-17.47,25.71-21.83c2.65-0.88,4.94-1.51,6.89-1.88c3.99-0.78,6.55-0.51,7.74,0.82
						C239.643,175.154,239.713,175.244,239.783,175.344z"/>
					<path style="fill:#1D6CBD;" d="M277.733,216.844c-0.29,0.2-0.58,0.38-0.87,0.56c-5.17-14.83-14.15-24.33-15.5-25.7l-7.74,1.16
						c-6.2,7.8-7.82,18.72-8.09,26.53c-0.03,1.03-0.05,2.04-0.04,3.01c-0.34-0.06-0.67-0.12-1-0.19c0-0.91,0.01-1.86,0.04-2.83
						c0.27-8.02,1.95-19.27,8.44-27.3l0.12-0.15l8.61-1.29l0.18,0.17C262.003,190.934,272.053,200.774,277.733,216.844z"/>
					<path style="fill:#1D6CBD;" d="M297.313,195.784c-0.17,0.29-0.36,0.58-0.54,0.87c-5.36-5.15-13.38-11.25-24.07-15.15l0.34-0.94
						C283.793,184.484,291.873,190.594,297.313,195.784z"/>
				</g>
			</g>
			<path style="fill:#001121;" d="M232.094,147.386c0,0-15.682-5.948-12.708,12.708c0,0-14.6-3.785-11.626,14.871
				c0,0,26.33,23.596,50.934,28.462c0,0,19.904-11.699,29.908-31.707c0,0-2.974-16.223-12.978-6.219c0,0,0.811-20.549-11.356-13.248
				L232.094,147.386z"/>
			<path style="fill:#FFFFFF;" d="M238.472,144.298c0,0,1.022,14.608,8.765,23.519c7.742,8.911,17.884,2.321,17.237-20.159
				C263.745,122.301,238.764,143.713,238.472,144.298z"/>
			<path style="fill:#002A54;" d="M277.873,81.304l-1.32,11.31l-7.25,61.85c0,0-9.63-12.95-14.87-13.43
				c-4.84-0.45-20.86,16-20.86,16l-27.3-63.54l-6.06-14.11l0.04,0.02l31.32,12.19c0,0,9.17,26.7,18.86,26
				c8.01-0.57,9.72-29.15,9.72-29.15L277.873,81.304z"/>
			<path style="fill:#3A90E8;" d="M277.873,81.304c-1.98,6.36-15.68,13.27-15.68,13.27s-3.14,27.08-11.19,26.69
				c-8.05-0.39-17.67-24.54-17.67-24.54l-21.49-8.24c-4.64-2.13-8.7-3.98-10.63-7.18c-0.77-1.28-1.25-2.48-1.46-3.61
				c-1.87-9.47,14.14-14.06,26.57-16.19c11.12-1.9,22.58-1.13,33.19,2.7c7.21,2.61,12.27,5.88,15.27,9.06
				C277.563,76.214,278.563,79.084,277.873,81.304z"/>
			<path style="fill:#FFFFFF;" d="M277.873,81.304l-1.32,11.31c-4.98,3.77-9.4,6.52-9.4,6.52s-3.96,33.36-16.51,29.73
				c-12.55-3.63-21.47-26.09-21.47-26.09c-10.23-2.95-17.92-6.54-22.9-9.28l-6.06-14.11l0.04,0.02c0.25,0.61,0.57,1.25,0.96,1.9
				c1.93,3.2,5.99,5.05,10.63,7.18l21.49,8.24c0,0,9.62,24.15,17.67,24.54c8.05,0.39,11.19-26.69,11.19-26.69
				S275.893,87.664,277.873,81.304z"/>
			<path style="fill:#001121;" d="M254.437,141.033c0,0-13.797-12.309-4.254-29.487
				C250.184,111.546,263.701,122.326,254.437,141.033z"/>
		</g>
		<path style="fill:none;stroke:#002D57;stroke-miterlimit:10;" d="M233.573,157.034c0,0,9.819,20.764,22.027,18.897
			c12.207-1.867,13.703-21.467,13.703-21.467"/>
		<path style="fill:#001121;" d="M244.463,151.983c0,0,3.835-2.024,5.965,1.491C250.428,153.474,246.593,156.563,244.463,151.983z"
			/>
		<path style="fill:#001121;" d="M262.88,151.374c0,0-3.835-2.024-5.965,1.491C256.915,152.866,260.75,155.955,262.88,151.374z"/>
		<path style="fill:#001121;" d="M251.867,158.463l4.692-0.117C256.559,158.346,254.213,162.452,251.867,158.463z"/>
		<path style="fill:#001121;" d="M251.705,164.5c0,0,2.667-2.791,5.148,0.124C256.852,164.624,254.558,169.152,251.705,164.5z"/>
		<g>
			<path style="fill:#1D6CBD;" d="M370.693,178.534c-0.35-0.23-0.72-0.46-1.09-0.66c0.12,0.79,0.18,1.59,0.18,2.41
				c0,8.94-7.28,16.21-16.21,16.21c-3.57,0-6.87-1.16-9.55-3.12c0.01,0.43,0.03,0.85,0.08,1.27c2.71,1.8,5.97,2.85,9.47,2.85
				c9.49,0,17.21-7.72,17.21-17.21C370.783,179.694,370.753,179.114,370.693,178.534z"/>
		</g>
	</g>
</g>
</svg>
