<?xml version="1.0" encoding="utf-8"?>
<!-- Generator: Adobe Illustrator 27.5.0, SVG Export Plug-In . SVG Version: 6.00 Build 0)  -->
<svg version="1.1" xmlns="http://www.w3.org/2000/svg" xmlns:xlink="http://www.w3.org/1999/xlink" x="0px" y="0px"
	 viewBox="0 0 500 500" style="enable-background:new 0 0 500 500;" xml:space="preserve">
<g id="Background_Simple">
	<g>
		<g>
			<g>
				<path style="fill:#FFE6DE;" d="M254.864,438.548c-111.806,4.17-133.013-11.026-164.407-27.967
					c-13.063-7.05-24.356-17.407-33.886-29.181C20.15,336.402,10.621,270.58,27.495,214.142S85.551,111.107,135.321,83.845
					s107.461-36.133,163.348-31.321c51.697,4.451,105.302,22.21,139.085,63.749c14.688,18.06,24.959,39.889,31.033,62.81
					c16.627,62.743,4.403,137.556-33.227,188.058C400.159,414.652,322.512,434.876,254.864,438.548"/>
			</g>
		</g>
		<g>
			<g>
				<path style="fill:#FFFFFF;" d="M75.427,176.274l-0.877,0.386c0.452,1.704,2.926,15.197-3.877,22.151
					c-7.139,7.298-18.135,7.747-18.135,7.747v0.894c2.657,0.802,13.997,3.794,15.846,11.959c2.113,9.332-4.754,19.896-4.754,19.896
					l0.282,0.297c1.544-1.277,10.183-8.505,21.022-7.868c11.973,0.704,17.607,12.501,17.431,12.325
					c-0.176-0.176,1.585-0.88,1.232-1.056c-0.352-0.176-5.634-13.733,1.409-21.832c7.043-8.099,18.487-7.571,18.487-7.571v-2.289
					c0,0-14.79-1.409-16.022-10.564c-1.232-9.156,6.69-16.022,6.162-16.198c-0.528-0.176-1.127-0.823-1.127-0.823
					s-8.557,8.746-20.882,4.873C79.301,184.725,75.427,176.274,75.427,176.274z"/>
			</g>
		</g>
		<g>
			<g>
				<path style="fill:#FFFFFF;" d="M262.108,275.322l-0.356,0.157c0.184,0.692,1.188,6.173-1.575,8.997
					c-2.9,2.964-7.366,3.147-7.366,3.147v0.363c1.079,0.326,5.685,1.541,6.436,4.858c0.858,3.79-1.931,8.081-1.931,8.081
					l0.114,0.121c0.627-0.519,4.136-3.455,8.539-3.196c4.863,0.286,7.152,5.078,7.08,5.006c-0.072-0.072,0.644-0.358,0.501-0.429
					c-0.143-0.072-2.289-5.578,0.572-8.868c2.861-3.29,7.509-3.075,7.509-3.075v-0.93c0,0-6.007-0.572-6.508-4.291
					c-0.501-3.719,2.718-6.508,2.503-6.579c-0.215-0.072-0.458-0.334-0.458-0.334s-3.476,3.553-8.482,1.979
					C263.681,278.755,262.108,275.322,262.108,275.322z"/>
			</g>
		</g>
		<g>
			<g>
				<path style="fill:#FFFFFF;" d="M190.642,89.078l-0.598,0.263c0.308,1.161,1.994,10.359-2.643,15.1
					c-4.867,4.975-12.362,5.281-12.362,5.281v0.609c1.811,0.546,9.542,2.586,10.802,8.152c1.44,6.361-3.241,13.563-3.241,13.563
					l0.192,0.202c1.053-0.871,6.941-5.798,14.331-5.363c8.161,0.48,12.002,8.521,11.882,8.402c-0.12-0.12,1.08-0.6,0.84-0.72
					c-0.24-0.12-3.841-9.362,0.96-14.883c4.801-5.521,12.602-5.161,12.602-5.161v-1.56c0,0-10.082-0.96-10.922-7.201
					c-0.84-6.241,4.561-10.922,4.201-11.042c-0.36-0.12-0.768-0.561-0.768-0.561s-5.833,5.962-14.235,3.322
					C193.283,94.839,190.642,89.078,190.642,89.078z"/>
			</g>
		</g>
		<g>
			<path style="fill:#FFFFFF;" d="M124.038,404.548c-0.583-4.264-1.166-8.528-1.749-12.792c-3.03,0.512-6.117,1.025-9.162,0.609
				c-3.045-0.416-6.098-1.913-7.64-4.572s-1.075-6.54,1.494-8.226c-6.16-2.11-12.22-4.999-16.784-9.644s-7.445-11.295-6.329-17.711
				c1.116-6.415,6.909-12.081,13.417-11.852c-1.415-9.898,3.337-20.417,11.7-25.897c8.363-5.48,19.904-5.639,28.415-0.391
				c-1.821-0.329-2.32-2.977-1.254-4.489c1.066-1.512,2.987-2.118,4.778-2.579c9.999-2.574,20.387-3.632,30.7-3.126
				c4.764,0.234,9.705,0.865,13.714,3.451c4.008,2.586,6.79,7.622,5.4,12.185c4.392-5.085,12.808-6.036,18.224-2.059
				c5.416,3.976,7.029,12.29,3.494,18.004c-3.536,5.713-11.696,7.979-17.671,4.906c1.414,2.909,0.974,6.492-0.619,9.307
				c-1.593,2.815-4.208,4.933-7.038,6.499c-10.608,5.866-24.971,3.896-33.607-4.609c0.821,5.924-3.364,11.691-8.716,14.358
				c-5.353,2.667-11.601,2.812-17.562,2.33c3.507,1.008,6.163,4.449,6.25,8.096c0.087,3.647-2.402,7.211-5.857,8.384
				c3.008,0.344,6.184,1.94,7.099,4.826c0.916,2.886-1.906,6.592-4.754,5.564c0.345,2.704,0.689,5.408,1.034,8.113"/>
		</g>
		<g>
			<g>
				<g>
					<path style="fill:#FFFFFF;" d="M450.589,272.345l2.757-8.394l3.13,8.394c0,0,6.254,1.064,6.327,1.647
						c0.071,0.57-5.986,2.356-5.986,2.356s-2.542,8.139-3.471,6.296c-0.93-1.843-1.831-5.924-1.831-5.924s-7.875-1.636-7.875-2.439
						C443.639,273.41,450.589,272.345,450.589,272.345z"/>
				</g>
			</g>
		</g>
		<g>
			<g>
				<g>
					<path style="fill:#FFFFFF;" d="M153.63,144.322l2.757-8.394l3.13,8.394c0,0,6.254,1.064,6.327,1.647
						c0.071,0.57-5.986,2.356-5.986,2.356s-2.542,8.139-3.471,6.296c-0.93-1.843-1.831-5.924-1.831-5.924s-7.876-1.636-7.876-2.439
						C146.68,145.388,153.63,144.322,153.63,144.322z"/>
				</g>
			</g>
		</g>
		<g>
			<g>
				<g>
					<path style="fill:#FFFFFF;" d="M47.883,291.774l2.757-8.394l3.13,8.394c0,0,6.254,1.064,6.327,1.647
						c0.071,0.57-5.986,2.356-5.986,2.356s-2.542,8.139-3.471,6.296c-0.93-1.843-1.831-5.924-1.831-5.924s-7.875-1.636-7.875-2.439
						C40.933,292.839,47.883,291.774,47.883,291.774z"/>
				</g>
			</g>
		</g>
		<g>
			<g>
				<g>
					<path style="fill:#FFFFFF;" d="M414.224,137.405l1.536-4.679l1.745,4.679c0,0,3.486,0.593,3.527,0.918
						c0.04,0.318-3.336,1.313-3.336,1.313s-1.417,4.536-1.935,3.509c-0.518-1.027-1.021-3.302-1.021-3.302s-4.39-0.912-4.39-1.359
						C410.35,137.999,414.224,137.405,414.224,137.405z"/>
				</g>
			</g>
		</g>
		<g>
			<g>
				<g>
					<path style="fill:#FFFFFF;" d="M299.756,86.933l3.613-11.002l4.103,11.002c0,0,8.197,1.394,8.293,2.159
						c0.093,0.747-7.846,3.088-7.846,3.088s-3.332,10.668-4.55,8.252c-1.219-2.416-2.4-7.764-2.4-7.764s-10.323-2.145-10.323-3.197
						C290.646,88.33,299.756,86.933,299.756,86.933z"/>
				</g>
			</g>
		</g>
		<g>
			<g>
				<g>
					<path style="fill:#FFFFFF;" d="M209.313,288.917l1.536-4.679l1.745,4.679c0,0,3.486,0.593,3.526,0.918
						c0.04,0.318-3.336,1.313-3.336,1.313s-1.417,4.536-1.935,3.509c-0.518-1.027-1.021-3.302-1.021-3.302s-4.39-0.912-4.39-1.359
						C205.439,289.511,209.313,288.917,209.313,288.917z"/>
				</g>
			</g>
		</g>
	</g>
</g>
<g id="Speech_Bubble">
	<g>
		<g>
			<path style="fill:#A0D2F4;" d="M270.948,231.764c0,26.721-20.944,41.669-46.779,41.669s-46.779-14.948-46.779-41.669
				s20.944-48.383,46.779-48.383S270.948,205.042,270.948,231.764z"/>
		</g>
		<g>
			<g>
				<path style="fill:#421B36;" d="M222.803,196.247c0.31,12.445,0.621,24.889,0.931,37.334c0.02,0.804,0.896,1.051,1.464,0.606
					c9.194-7.205,18.696-14.007,28.472-20.4c0.92-0.602,0.062-2.087-0.865-1.481c-9.9,6.474-19.51,13.373-28.82,20.669
					c0.488,0.202,0.976,0.404,1.464,0.606c-0.311-12.445-0.621-24.889-0.931-37.334C224.49,195.145,222.775,195.141,222.803,196.247
					L222.803,196.247z"/>
			</g>
		</g>
		<g>
			<g>
				<path style="fill:#421B36;" d="M224.093,191.229c0.339-1.967,0.439-3.961,0.253-5.95c-0.042-0.445-0.365-0.879-0.857-0.857
					c-0.429,0.019-0.902,0.379-0.857,0.857c0.171,1.833,0.117,3.705-0.192,5.494c-0.076,0.44,0.117,0.945,0.599,1.055
					C223.455,191.923,224.012,191.702,224.093,191.229L224.093,191.229z"/>
			</g>
		</g>
		<g>
			<g>
				<path style="fill:#421B36;" d="M189.922,203.782c1.816,1.105,3.632,2.211,5.448,3.316c0.384,0.233,0.959,0.097,1.173-0.308
					c0.22-0.417,0.102-0.924-0.307-1.173c-1.816-1.105-3.632-2.211-5.448-3.316c-0.383-0.233-0.959-0.097-1.173,0.308
					C189.394,203.026,189.512,203.533,189.922,203.782L189.922,203.782z"/>
			</g>
		</g>
		<g>
			<g>
				<path style="fill:#421B36;" d="M179.46,231.89c2.29-0.058,4.58-0.117,6.87-0.175c1.101-0.028,1.106-1.743,0-1.715
					c-2.29,0.058-4.58,0.117-6.87,0.175C178.359,230.204,178.355,231.919,179.46,231.89L179.46,231.89z"/>
			</g>
		</g>
		<g>
			<g>
				<path style="fill:#421B36;" d="M260.241,229.19c2.182,0.523,4.473,0.477,6.628-0.153c0.444-0.13,0.723-0.603,0.599-1.055
					c-0.122-0.442-0.609-0.729-1.055-0.599c-1.864,0.546-3.828,0.606-5.716,0.153c-0.45-0.108-0.929,0.142-1.055,0.599
					C259.522,228.572,259.789,229.082,260.241,229.19L260.241,229.19z"/>
			</g>
		</g>
		<g>
			<g>
				<path style="fill:#421B36;" d="M249.781,204.738c1.793-1.244,3.586-2.488,5.379-3.732c0.257-0.178,0.513-0.356,0.77-0.534
					c0.38-0.264,0.554-0.751,0.307-1.173c-0.22-0.376-0.791-0.573-1.173-0.308c-1.793,1.244-3.586,2.488-5.379,3.732
					c-0.257,0.178-0.514,0.356-0.77,0.534c-0.38,0.264-0.554,0.751-0.308,1.173C248.828,204.806,249.399,205.003,249.781,204.738
					L249.781,204.738z"/>
			</g>
		</g>
		<g>
			<g>
				<path style="fill:#421B36;" d="M228.398,270.545c0-2.684,0-5.369,0-8.053c0-1.103-1.715-1.105-1.715,0c0,2.684,0,5.369,0,8.053
					C226.683,271.648,228.398,271.65,228.398,270.545L228.398,270.545z"/>
			</g>
		</g>
		<g>
			<g>
				<path style="fill:#421B36;" d="M248.397,255.933c0.219,0.141,0.435,0.288,0.646,0.441c0.05,0.036,0.1,0.073,0.15,0.111
					c0.016,0.012,0.176,0.135,0.091,0.068c-0.086-0.067,0.073,0.058,0.089,0.071c0.058,0.047,0.116,0.094,0.173,0.141
					c0.392,0.325,0.765,0.672,1.118,1.039c0.172,0.179,0.339,0.363,0.501,0.551c0.089,0.103,0.177,0.208,0.263,0.314
					c0.039,0.048,0.077,0.097,0.116,0.146c0.087,0.107-0.117-0.158,0.025,0.033c0.313,0.418,0.603,0.85,0.869,1.3
					c0.228,0.386,0.783,0.559,1.173,0.308c0.389-0.251,0.552-0.76,0.308-1.173c-1.151-1.95-2.753-3.603-4.656-4.829
					c-0.378-0.243-0.963-0.09-1.173,0.308C247.865,255.186,247.994,255.673,248.397,255.933L248.397,255.933z"/>
			</g>
		</g>
		<g>
			<g>
				<path style="fill:#421B36;" d="M203.321,264.087c1.687-1.789,3.374-3.578,5.06-5.366c0.308-0.327,0.348-0.893,0-1.212
					c-0.334-0.307-0.884-0.349-1.212,0c-1.687,1.789-3.374,3.577-5.06,5.366c-0.308,0.327-0.348,0.893,0,1.213
					C202.443,264.394,202.993,264.436,203.321,264.087L203.321,264.087z"/>
			</g>
		</g>
		<g>
			<path style="fill:#A0D2F4;" d="M263.536,248.469c0,0,12.737,15.371,10.773,16.825c-1.963,1.454-19.758-3.752-19.758-3.752
				L263.536,248.469z"/>
		</g>
		<g>
			<path style="fill:#8380FF;" d="M204.986,258.483c0,11.749-8.671,19.065-20.42,19.065c-11.748,0-22.125-7.317-22.125-19.065
				c0-11.748,9.524-21.273,21.273-21.273C195.462,237.211,204.986,246.735,204.986,258.483z"/>
		</g>
		<g>
			<g>
				<path style="fill:#A0D2F4;" d="M194.708,245.262c-1.027,0.842-14.131,19.096-14.131,19.096s-8.238-11.238-8.406-11.58
					c0,0-3.706,1.836-3.964,3.089c-0.259,1.253,9.125,15.11,12.465,14.592c3.34-0.518,18.551-22.116,18.551-22.116L194.708,245.262z
					"/>
			</g>
		</g>
	</g>
</g>
<g id="Mail">
	<g>
		<g>
			<g>
				<g>
					<path style="fill:#8380FF;" d="M349.591,195.485c-1.094-0.462-48.561,6.229-48.021,9.263
						c0.288,1.616,7.129,34.069,10.71,35.447c3.581,1.378,45.612-9.262,46.565-10.385
						C359.798,228.687,351.747,196.395,349.591,195.485z"/>
				</g>
			</g>
		</g>
		<g>
			<g>
				<path style="fill:#421B36;" d="M300.94,205.961c5.462,3.109,11.023,6.039,16.685,8.766c2.733,1.316,5.488,2.586,8.264,3.81
					c1.388,0.612,2.781,1.211,4.179,1.8c1.089,0.459,2.237,1.091,3.409,1.271c2.241,0.345,3.734-1.353,4.985-2.964
					c1.663-2.14,3.213-4.368,4.648-6.666c3.051-4.886,5.54-10.097,7.504-15.509c0.377-1.039-1.279-1.487-1.653-0.456
					c-1.776,4.894-4.007,9.602-6.695,14.062c-1.309,2.172-2.723,4.28-4.233,6.317c-0.735,0.991-1.486,2.16-2.465,2.941
					c-1.388,1.108-2.83,0.277-4.239-0.312c-10.129-4.233-19.983-9.11-29.523-14.54C300.845,203.934,299.98,205.415,300.94,205.961
					L300.94,205.961z"/>
			</g>
		</g>
		<g>
			<g>
				<path style="fill:#421B36;" d="M313.581,240.545c3.885-7.628,7.77-15.257,11.655-22.885c0.5-0.981-0.979-1.85-1.481-0.865
					c-3.885,7.628-7.77,15.257-11.655,22.885C311.6,240.661,313.079,241.529,313.581,240.545L313.581,240.545z"/>
			</g>
		</g>
		<g>
			<g>
				<path style="fill:#421B36;" d="M340.227,216.26c6.5,3.552,12.49,7.946,17.822,13.088c0.795,0.766,2.009-0.445,1.212-1.213
					c-5.432-5.238-11.547-9.737-18.169-13.356C340.123,214.25,339.257,215.73,340.227,216.26L340.227,216.26z"/>
			</g>
		</g>
	</g>
</g>
<g id="Device">
	<g>
		<g>
			<g>
				<path style="fill:#421B36;" d="M263.846,440.309c-3.814-0.183-77.224-1.192-83.829-3.54
					c-6.605-2.348-42.045-84.447-30.621-89.937c11.424-5.49,99.322-11.479,111.367-5.974c12.046,5.504,17.901,75.121,17.901,75.121
					s49.334,2.017,50.61,8.04C330.551,430.041,267.132,440.466,263.846,440.309z"/>
			</g>
			<g>
				<path style="fill:#A0D2F4;" d="M156.263,351.28c0,0,26.319,73.498,29.963,75.18c3.643,1.682,86.309-8.572,86.87-9.413
					c0.56-0.841-9.249-69.461-14.013-72.001C254.317,342.506,160.096,345.473,156.263,351.28z"/>
			</g>
			<g>
				<path style="fill:#FFFFFF;" d="M191.255,421.637c0,0-23.99-64.87-23.078-65.796c0.912-0.925,85.051-5.988,86.956-3.457
					c1.905,2.531,14.288,57.777,11.748,60.317C264.339,415.242,193.418,423.269,191.255,421.637z"/>
			</g>
			<g>
				<g>
					<path style="fill:#FFFFFF;" d="M189.625,362.556c-0.883,0,20.375,57.122,20.375,57.122"/>
				</g>
				<g>
					<g>
						<path style="fill:#421B36;" d="M189.397,361.73c-1.645,0.439,0.482,4.924,0.757,5.741c1.519,4.521,3.131,9.012,4.744,13.5
							c3.79,10.547,7.659,21.066,11.548,31.578c0.907,2.453,1.816,4.906,2.728,7.357c0.382,1.025,2.039,0.582,1.654-0.456
							c-2.31-6.208-4.604-12.422-6.888-18.64c-3.734-10.163-7.477-20.327-11.024-30.557c-0.62-1.788-1.238-3.578-1.813-5.382
							c-0.172-0.54-0.348-1.081-0.494-1.629c-0.338-1.268,0.2-0.114-0.755,0.141C190.918,363.099,190.466,361.444,189.397,361.73
							L189.397,361.73z"/>
					</g>
				</g>
			</g>
			<g>
				<g>
					<path style="fill:#421B36;" d="M170.962,364.654c28.553-1.89,57.163-2.752,85.716-4.642c1.095-0.072,1.103-1.788,0-1.715
						c-28.553,1.89-57.163,2.752-85.716,4.642C169.866,363.012,169.858,364.727,170.962,364.654L170.962,364.654z"/>
				</g>
			</g>
			<g>
				<g>
					<path style="fill:#421B36;" d="M201.269,373.751c-0.119-1.397,0.868-2.858,2.346-2.972c1.447-0.112,2.704,1.217,2.734,2.61
						c0.017,0.779,1.241,1.26,1.598,0.433c1.541-3.579,5.743-4.975,9.082-2.895c0.939,0.585,1.801-0.898,0.865-1.481
						c-4.057-2.527-9.526-0.91-11.428,3.51c0.533,0.144,1.065,0.289,1.598,0.433c-0.05-2.326-2.057-4.43-4.449-4.325
						c-2.358,0.104-4.258,2.361-4.06,4.687C199.648,374.843,201.363,374.853,201.269,373.751L201.269,373.751z"/>
				</g>
			</g>
			<g>
				<g>
					<path style="fill:#421B36;" d="M202.923,383.241c2.057-2.521,5.94-3.022,8.46-0.864c0.273,0.234,0.713,0.359,1.039,0.134
						c3.953-2.729,9.073-3.072,13.319-0.793c0.373,0.201,0.98,0.129,1.173-0.307c1.021-2.3,3.348-2.99,5.656-3.351
						c2.538-0.397,5.104-0.66,7.652-0.986c4.858-0.62,9.716-1.241,14.574-1.861c1.08-0.138,1.093-1.854,0-1.715
						c-5.741,0.733-11.482,1.466-17.224,2.2c-4.113,0.525-10.153,0.372-12.139,4.848c0.391-0.102,0.782-0.205,1.173-0.308
						c-4.755-2.552-10.596-2.282-15.05,0.793c0.346,0.045,0.693,0.089,1.039,0.134c-3.178-2.721-8.2-2.427-10.885,0.864
						C201.018,382.877,202.224,384.097,202.923,383.241L202.923,383.241z"/>
				</g>
			</g>
			<g>
				<g>
					<path style="fill:#421B36;" d="M205.288,390.733c17.019-2.372,34.037-4.744,51.056-7.117c1.088-0.152,0.625-1.804-0.456-1.653
						c-17.019,2.372-34.037,4.744-51.056,7.117C203.744,389.231,204.207,390.884,205.288,390.733L205.288,390.733z"/>
				</g>
			</g>
			<g>
				<g>
					<path style="fill:#421B36;" d="M207.725,397.958c16.53-2.009,33.06-4.018,49.59-6.027c1.082-0.131,1.095-1.848,0-1.715
						c-16.53,2.009-33.06,4.018-49.59,6.027C206.643,396.375,206.63,398.091,207.725,397.958L207.725,397.958z"/>
				</g>
			</g>
			<g>
				<g>
					<path style="fill:#421B36;" d="M211.803,406.667c0.541-1.615,2.027-2.839,3.765-2.85c0.843-0.005,1.693,0.275,2.38,0.764
						c0.353,0.252,0.687,0.568,0.935,0.924c0.063,0.099,0.126,0.198,0.188,0.298c0.306,0.425,0.333,0.882,0.083,1.373
						c-0.678-0.383,0.461-1.722,0.787-2.056c0.573-0.587,1.311-1.024,2.107-1.222c1.796-0.447,3.538,0.363,4.646,1.773
						c0.268,0.341,0.944,0.328,1.212,0c1.985-2.421,4.925-3.612,8.035-3.267c1.095,0.122,1.086-1.594,0-1.715
						c-3.502-0.389-7.014,1.046-9.247,3.769c0.404,0,0.808,0,1.212,0c-2.04-2.596-5.8-3.159-8.462-1.169
						c-1.1,0.823-2.191,2.196-2.213,3.637c-0.02,1.314,1.111,2.381,2.43,1.891c1.438-0.535,1.669-2.144,1.117-3.42
						c-0.602-1.39-1.856-2.436-3.262-2.949c-3.106-1.133-6.348,0.722-7.367,3.763C209.798,407.26,211.453,407.709,211.803,406.667
						L211.803,406.667z"/>
				</g>
			</g>
			<g>
				<g>
					<path style="fill:#421B36;" d="M239.635,404.053c1.103,0,1.105-1.715,0-1.715C238.532,402.338,238.53,404.053,239.635,404.053
						L239.635,404.053z"/>
				</g>
			</g>
			<g>
				<g>
					<path style="fill:#421B36;" d="M216.185,414.648c3.575-0.523,7.149-1.045,10.724-1.568c0.459-0.067,0.711-0.648,0.599-1.055
						c-0.135-0.492-0.595-0.666-1.055-0.599c-3.575,0.523-7.149,1.045-10.724,1.568c-0.459,0.067-0.711,0.648-0.599,1.055
						C215.266,414.541,215.725,414.715,216.185,414.648L216.185,414.648z"/>
				</g>
			</g>
			<g>
				<g>
					<path style="fill:#421B36;" d="M172.595,359.039c0.044,0.1,0.089,0.2,0.133,0.301c0.054,0.1,0.128,0.18,0.221,0.241
						c0.083,0.076,0.18,0.127,0.292,0.154c0.114,0.036,0.228,0.041,0.342,0.015c0.114-0.005,0.22-0.039,0.319-0.102
						c0.058-0.045,0.116-0.089,0.174-0.134c0.106-0.107,0.18-0.233,0.22-0.378c0.01-0.076,0.021-0.152,0.031-0.228
						c-0.001-0.155-0.039-0.299-0.117-0.433c-0.044-0.1-0.089-0.2-0.133-0.301c-0.054-0.1-0.128-0.18-0.221-0.241
						c-0.083-0.076-0.18-0.127-0.291-0.153c-0.114-0.036-0.228-0.041-0.342-0.015c-0.114,0.005-0.22,0.039-0.319,0.102
						c-0.058,0.045-0.116,0.089-0.173,0.134c-0.106,0.107-0.18,0.233-0.221,0.378c-0.01,0.076-0.02,0.152-0.031,0.228
						C172.479,358.761,172.518,358.905,172.595,359.039L172.595,359.039z"/>
				</g>
			</g>
			<g>
				<g>
					<path style="fill:#421B36;" d="M177.724,358.937c0.049-0.049,0.098-0.098,0.147-0.147c0.084-0.078,0.143-0.17,0.177-0.276
						c0.054-0.102,0.078-0.212,0.074-0.33c0.005-0.118-0.02-0.228-0.074-0.33c-0.035-0.106-0.094-0.198-0.177-0.276
						c-0.058-0.045-0.116-0.089-0.174-0.134c-0.134-0.077-0.278-0.116-0.433-0.117c-0.076,0.01-0.152,0.02-0.228,0.031
						c-0.145,0.041-0.271,0.114-0.378,0.22c-0.049,0.049-0.098,0.098-0.147,0.147c-0.084,0.078-0.143,0.17-0.177,0.276
						c-0.054,0.102-0.078,0.212-0.074,0.33c-0.004,0.118,0.02,0.228,0.074,0.33c0.035,0.106,0.094,0.198,0.177,0.276
						c0.058,0.045,0.116,0.089,0.174,0.134c0.134,0.078,0.278,0.117,0.433,0.117c0.076-0.01,0.152-0.02,0.228-0.031
						C177.491,359.117,177.617,359.043,177.724,358.937L177.724,358.937z"/>
				</g>
			</g>
			<g>
				<g>
					<path style="fill:#421B36;" d="M180.796,358.894c0.098,0,0.196,0,0.294,0c0.118,0.004,0.228-0.02,0.33-0.074
						c0.106-0.035,0.198-0.094,0.276-0.177c0.084-0.078,0.143-0.17,0.177-0.276c0.054-0.102,0.078-0.212,0.074-0.33
						c-0.01-0.076-0.021-0.152-0.031-0.228c-0.041-0.145-0.114-0.271-0.221-0.378c-0.058-0.045-0.116-0.089-0.173-0.134
						c-0.134-0.078-0.278-0.117-0.433-0.117c-0.098,0-0.196,0-0.294,0c-0.118-0.004-0.228,0.02-0.33,0.074
						c-0.106,0.035-0.198,0.094-0.276,0.177c-0.084,0.078-0.143,0.17-0.177,0.276c-0.054,0.102-0.078,0.212-0.074,0.33
						c0.01,0.076,0.02,0.152,0.031,0.228c0.041,0.145,0.114,0.271,0.221,0.378c0.058,0.045,0.116,0.089,0.174,0.134
						C180.497,358.854,180.641,358.893,180.796,358.894L180.796,358.894z"/>
				</g>
			</g>
		</g>
		<g>
			<path style="fill:#8380FF;" d="M200.889,430.401c0,0,46.88,2.626,51.621,1.949c4.742-0.677,52.836-9.476,51.255-10.496
				c-1.581-1.02-22.969-2.124-22.969-2.124L200.889,430.401z"/>
		</g>
	</g>
</g>
<g id="Lines">
	<g>
		<g>
			<g>
				<path style="fill:#421B36;" d="M333.499,242.834c-1.121-1.758-1.558-3.896-1.165-5.92c0.088-0.454-0.128-0.925-0.599-1.055
					c-0.42-0.116-0.966,0.142-1.055,0.599c-0.483,2.487-0.029,5.098,1.338,7.241c0.249,0.39,0.762,0.548,1.173,0.308
					C333.58,243.78,333.749,243.226,333.499,242.834L333.499,242.834z"/>
			</g>
		</g>
		<g>
			<g>
				<path style="fill:#421B36;" d="M218.754,339.343c-0.122-2.553-0.244-5.106-0.367-7.659c-0.022-0.463-0.378-0.857-0.857-0.857
					c-0.447,0-0.88,0.393-0.857,0.857c0.122,2.553,0.244,5.106,0.367,7.659c0.022,0.463,0.378,0.857,0.857,0.857
					C218.343,340.201,218.776,339.808,218.754,339.343L218.754,339.343z"/>
			</g>
		</g>
		<g>
			<g>
				<path style="fill:#421B36;" d="M219.304,326.924c1.526-3.659,3.782-6.998,6.567-9.814c0.777-0.785-0.435-1.999-1.212-1.212
					c-3.007,3.04-5.364,6.628-7.008,10.571c-0.178,0.427,0.192,0.943,0.599,1.055C218.744,327.658,219.125,327.353,219.304,326.924
					L219.304,326.924z"/>
			</g>
		</g>
		<g>
			<g>
				<path style="fill:#421B36;" d="M230.399,315.461c3.336-1.798,7.003-2.974,10.77-3.416c0.46-0.054,0.857-0.355,0.857-0.857
					c0-0.421-0.394-0.912-0.857-0.857c-4.082,0.479-8.014,1.699-11.635,3.651C228.562,314.504,229.427,315.985,230.399,315.461
					L230.399,315.461z"/>
			</g>
		</g>
		<g>
			<g>
				<path style="fill:#421B36;" d="M247.741,312.508c3.994,0.228,7.947,1.15,11.621,2.738c0.428,0.185,0.915,0.123,1.173-0.307
					c0.216-0.36,0.117-0.99-0.308-1.173c-3.968-1.716-8.168-2.726-12.487-2.973C246.639,310.731,246.642,312.446,247.741,312.508
					L247.741,312.508z"/>
			</g>
		</g>
		<g>
			<g>
				<path style="fill:#421B36;" d="M269.035,320.826c3.156,0.495,6.081,1.941,8.356,4.189c0.785,0.777,1.999-0.435,1.212-1.212
					c-2.467-2.439-5.681-4.093-9.112-4.63c-0.457-0.072-0.922,0.117-1.055,0.599C268.325,320.179,268.575,320.754,269.035,320.826
					L269.035,320.826z"/>
			</g>
		</g>
		<g>
			<g>
				<path style="fill:#421B36;" d="M284.947,328.668c2.112,1.101,4.29,2.091,6.525,2.916c0.793,0.292,1.595,0.568,2.414,0.778
					c0.515,0.132,1.091,0.287,1.626,0.238c0.461-0.042,0.857-0.364,0.857-0.857c0-0.431-0.393-0.9-0.857-0.857
					c-0.087,0.008-0.171,0.005-0.258,0.003c-0.14-0.004-0.204-0.024-0.151-0.015c-0.274-0.047-0.544-0.109-0.813-0.179
					c-0.801-0.209-1.586-0.478-2.362-0.764c-2.097-0.774-4.134-1.71-6.116-2.743C284.835,326.678,283.967,328.157,284.947,328.668
					L284.947,328.668z"/>
			</g>
		</g>
		<g>
			<g>
				<path style="fill:#421B36;" d="M307.048,329.909c3.385-0.472,6.454-2.51,8.291-5.378c0.597-0.932-0.886-1.793-1.481-0.866
					c-1.615,2.522-4.313,4.178-7.266,4.59c-0.459,0.064-0.71,0.65-0.599,1.055C306.129,329.805,306.587,329.974,307.048,329.909
					L307.048,329.909z"/>
			</g>
		</g>
		<g>
			<g>
				<path style="fill:#421B36;" d="M318.374,319.893c1.264-1.125,2.147-2.716,2.409-4.39c0.069-0.441-0.112-0.944-0.599-1.055
					c-0.41-0.093-0.98,0.125-1.055,0.599c-0.058,0.368-0.144,0.731-0.261,1.085c-0.03,0.091-0.062,0.181-0.096,0.271
					c-0.015,0.04-0.031,0.079-0.047,0.119c-0.076,0.195,0.052-0.109,0,0.001c-0.082,0.174-0.162,0.347-0.254,0.516
					c-0.087,0.159-0.18,0.314-0.279,0.466c-0.052,0.08-0.107,0.159-0.162,0.237c-0.025,0.035-0.051,0.068-0.075,0.103
					c-0.06,0.086,0.1-0.122-0.002,0.003c-0.243,0.298-0.504,0.576-0.791,0.832c-0.336,0.299-0.328,0.912,0,1.212
					C317.52,320.222,318.016,320.212,318.374,319.893L318.374,319.893z"/>
			</g>
		</g>
	</g>
</g>
<g id="Clock">
	<g>
		<g>
			<g>
				<path style="fill:#FFFFFF;" d="M237.901,126.268c27.042,0.118,25.215-31.86,24.702-32.18l-53.244-8.292
					c-0.586,0.146-12.152,30.015,13.617,38.214c0,0-24.891,2.196-26.501,31.918l29.283,4.539l0.015-0.087l27.537,4.405
					C260.912,136.008,237.901,126.268,237.901,126.268z"/>
			</g>
			<g>
				<g>
					<path style="fill:#421B36;" d="M237.901,127.125c6.907-0.014,13.659-2.203,18.323-7.487c3.684-4.173,5.758-9.546,6.745-14.969
						c0.398-2.186,0.641-4.407,0.704-6.629c0.034-1.209,0.157-2.638-0.149-3.827c-0.208-0.807-0.616-0.922-1.353-1.054
						c-1.498-0.268-3.012-0.469-4.515-0.703c-12.218-1.903-24.436-3.805-36.654-5.708c-3.698-0.576-7.415-1.329-11.137-1.734
						c-2.153-0.234-2.726,4.059-3.116,5.59c-2.992,11.729-1.162,25.285,10.245,31.759c1.821,1.033,3.765,1.828,5.753,2.476
						c0.076-0.561,0.152-1.123,0.228-1.684c-9.864,0.893-19.037,7.898-23.378,16.587c-2.518,5.038-3.65,10.596-3.98,16.189
						c-0.02,0.338,0.278,0.772,0.629,0.827c8.52,1.321,17.041,2.641,25.561,3.962c1.241,0.192,2.481,0.385,3.721,0.577
						c0.421,0.065,0.971-0.102,1.055-0.599c0.005-0.029,0.01-0.058,0.015-0.087c-0.352,0.2-0.703,0.399-1.055,0.599
						c9.179,1.468,18.358,2.937,27.537,4.405c0.452,0.072,0.928-0.111,1.055-0.599c2.223-8.595,2.318-17.807-1.804-25.858
						c-2.504-4.892-6.416-9.039-11.037-11.994c-0.945-0.604-1.928-1.194-2.962-1.635c-1.004-0.428-1.878,1.049-0.865,1.481
						c8.432,3.593,14.531,12.321,16.072,21.156c0.952,5.463,0.322,11.063-1.057,16.394c0.352-0.2,0.703-0.399,1.055-0.599
						c-9.179-1.468-18.358-2.937-27.537-4.405c-0.42-0.067-0.971,0.103-1.055,0.599c-0.005,0.029-0.01,0.058-0.015,0.087
						c0.352-0.2,0.703-0.399,1.055-0.599c-8.521-1.321-17.041-2.641-25.561-3.962c-1.24-0.192-2.481-0.385-3.721-0.577
						c0.21,0.276,0.42,0.551,0.629,0.827c0.508-8.601,3.203-17.174,9.552-23.26c3.685-3.532,8.337-6.014,13.279-7.259
						c0.92-0.232,2.216-0.489,2.813-0.543c0.947-0.086,1.184-1.373,0.228-1.684c-6.784-2.21-12.448-6.691-14.756-13.608
						c-1.716-5.142-1.62-10.777-0.598-16.051c0.358-1.846,0.824-3.679,1.443-5.455c0.162-0.465,0.463-0.988,0.542-1.398
						c0.013-0.07,0.195-0.284,0.176-0.339c0.056,0.161-0.93,0.162-0.81,0.302c0.299,0.348,2.249,0.35,2.681,0.418
						c1.984,0.309,3.968,0.618,5.952,0.927c11.683,1.82,23.367,3.639,35.05,5.458c2.079,0.324,4.158,0.648,6.238,0.971
						c0.601,0.094,2.523,0.75,3.094,0.482c0.023-0.011,0.143,0.042,0.156,0.024c0.021-0.03-0.67-0.427-0.547-0.486
						c-0.005,0.003,0.042,0.173,0.037,0.182c-0.014,0.028,0.072,0.812,0.087,1.139c0.071,1.584,0.004,3.177-0.135,4.756
						c-0.966,10.978-6.443,21.933-18.087,24.359c-1.919,0.4-3.869,0.542-5.826,0.546
						C236.798,125.413,236.796,127.128,237.901,127.125z"/>
				</g>
			</g>
		</g>
		<g>
			<path style="fill:#421B36;" d="M206.827,79.406c0,0-1.782,6.235-0.891,7.572c0.891,1.336,59.459,11.357,60.127,10.467
				c0.668-0.891,1.709-8.133,0.816-8.432C265.958,88.702,207.287,77.652,206.827,79.406z"/>
		</g>
		<g>
			<path style="fill:#A0D2F4;" d="M198.89,158.126c-0.272-0.272-0.454-7.533,0.545-7.805c0.998-0.272,19.875,2.178,23.687,0
				c3.812-2.178,4.232-5.716,4.05-8.348c-0.149-2.164,0.124-13.252-0.335-16.87c-0.097-0.761-0.584-1.412-1.288-1.717
				c-4.044-1.752-16.821-9.926-16.667-19.497c0,0,49.747,1.361,49.475,1.724c-0.272,0.363-3.757,18.334-21.9,18.264
				c0,0-1.445,0.941-1.808,2.121c-0.363,1.18-1.089,16.971-1.089,16.971s0,6.353,1.906,6.807c1.906,0.454,17.334,0.544,17.334,0.544
				s-0.817,11.961-2.269,13.422C249.078,165.205,198.89,158.126,198.89,158.126z"/>
		</g>
		<g>
			<path style="fill:#421B36;" d="M193.848,154.762c0,0-1.781,6.235-0.891,7.572c0.891,1.336,61.117,11.413,61.785,10.523
				c0.668-0.891,1.709-8.133,0.816-8.432C254.636,164.114,194.308,153.008,193.848,154.762z"/>
		</g>
	</g>
</g>
<g id="Cup">
	<g>
		<g>
			<g>
				<path style="fill:#A0D2F4;" d="M104.846,403.451c-0.096,0.547-0.702,40.742,2.459,45.484c3.161,4.742,42.147,9.483,43.201-2.81
					c1.054-12.293,2.634-43.727-1.581-46.01C144.71,397.832,106.075,396.427,104.846,403.451z"/>
			</g>
			<g>
				<path style="fill:#A0D2F4;" d="M164.971,414.645c-3.518-4.637-10.327-6.429-15.671-4.123l1.909,7.873
					c1.814-1.406,4.417-1.838,6.483-0.839c2.067,0.999,3.368,3.504,2.751,5.714c-0.419,1.501-1.61,2.7-2.986,3.43
					c-2.422,1.285-5.508,1.216-7.87-0.176l-0.664,7.95c5.269,2.473,12.131,0.897,15.793-3.628
					C168.378,426.323,168.489,419.283,164.971,414.645z"/>
			</g>
			<g>
				<g>
					<path style="fill:#421B36;" d="M109.144,405.649c12.318,4.441,26.023,4.197,38.17-0.697c1.145-0.461,0.645-2.341-0.516-1.873
						c-11.866,4.781-25.101,5.036-37.137,0.697C108.483,403.351,107.975,405.227,109.144,405.649L109.144,405.649z"/>
				</g>
			</g>
			<g>
				<g>
					<path style="fill:#421B36;" d="M150.726,408.533c0.677,10.871,0.607,21.77-0.208,32.631c-0.094,1.247,1.85,1.241,1.943,0
						c0.816-10.861,0.885-21.76,0.208-32.631C152.591,407.291,150.648,407.282,150.726,408.533L150.726,408.533z"/>
				</g>
			</g>
		</g>
		<g>
			<g>
				<path style="fill:#8380FF;" d="M119.991,433.173c-2.32-2.09-3.264-5.517-2.546-8.556c0.718-3.039,2.994-5.618,5.834-6.914
					c1.998-0.911,4.207-1.116,6.363-1.041l0,0c0,0,11.667-0.26,11.306,10.755c0,0-0.185,4.385-1.875,6.04
					c1.012,0.657,1.922,1.47,2.688,2.403c0.6,0.73,1.127,1.749,0.676,2.579c-0.548,1.009-2.107,0.876-3.023,0.184
					c-0.916-0.692-1.506-1.749-2.431-2.428c0.322,0.979,0.649,1.997,0.532,3.021c-0.117,1.025-0.808,2.061-1.825,2.229
					c-0.971,0.161-1.924-0.519-2.396-1.382c-0.473-0.863-0.57-1.875-0.658-2.855c0.121,1.143,0.237,2.327-0.124,3.418
					c-0.361,1.091-1.34,2.066-2.489,2.039c-1.097-0.026-2.005-0.957-2.361-1.995c-0.356-1.038-0.277-2.168-0.195-3.262l-0.473,0.118
					c-0.296,1.098-0.617,2.243-1.391,3.076c-0.774,0.833-2.15,1.226-3.067,0.552c-0.661-0.486-0.903-1.388-0.811-2.203
					c0.092-0.815,0.464-1.568,0.83-2.302c-0.897,0.923-1.876,1.891-3.14,2.135c-1.263,0.244-2.814-0.642-2.732-1.926
					C116.789,435.166,119.247,434.701,119.991,433.173z"/>
			</g>
			<g>
				<path style="fill:#FFFFFF;" d="M124.099,421.036c1.144-0.828,2.536-1.306,3.966-1.452l-0.205,0.002
					c2.165-0.457,4.519-0.205,6.442,0.848c1.923,1.053,3.367,2.931,3.674,5.024c0.307,2.093-0.598,4.347-2.393,5.589
					c-1.197,0.828-2.682,1.181-4.144,1.398c-2.704,0.402-5.716,0.323-7.85-1.309c-1.589-1.215-2.459-3.207-2.332-5.144
					C121.386,424.054,122.477,422.211,124.099,421.036z"/>
			</g>
			<g>
				<path style="fill:#A0D2F4;" d="M130.373,420.873c0,0,3.17,0.656,3.082,3.738c-0.088,3.082-0.456,6.552-3.434,6.472
					c-2.69-0.072-3.168-3.603-2.729-7.132C127.709,420.596,129.642,420.849,130.373,420.873z"/>
			</g>
		</g>
		<g>
			<path style="fill:#421B36;" d="M113.905,405.983c8.716-2.901,18.256-3.279,27.175-1.076c-7.649,3.119-16.35,3.586-24.289,1.301"
				/>
		</g>
	</g>
</g>
<g id="Lightbulb">
	<g>
		<g>
			<g>
				<g>
					<g>
						<g>
							<path style="fill:#8380FF;" d="M106.005,166.305c-0.811,0.284-28.755,18.807-11.7,43.075
								c17.055,24.268,35.525,8.605,36.122,8.487c0.596-0.118,2.564,4.203,4.353,3.85c1.789-0.353,15.306-9.091,14.621-11.31
								c-0.686-2.219-3.493-4.515-3.493-4.515s17.571-15.304-1.212-37.554C128.266,148.878,106.005,166.305,106.005,166.305z"/>
						</g>
					</g>
					<g>
						<g>
							<g>
								<path style="fill:#421B36;" d="M135.976,216.956c-3.715-4.94-7.301-10.019-11.186-14.827
									c-2.742-3.394-7.048-6.716-11.655-4.853c-3.787,1.531-4.525,6.044-2.724,9.378c2.065,3.82,6.653,4.895,10.687,4.552
									c9.035-0.768,17.171-7.614,20.117-16.08c1.378-3.958,2.106-9.328-1.09-12.641c-2.605-2.7-7.19-2.44-9.778,0.156
									c-3.76,3.772-0.976,9.45,1.035,13.328c3.126,6.029,6.845,11.725,11.083,17.03c0.89,1.114,2.647-0.24,1.754-1.357
									c-2.879-3.604-5.531-7.38-7.902-11.338c-2.022-3.376-4.519-7.193-5.389-11.088c-0.8-3.58,1.544-7.235,5.564-6.338
									c4.181,0.933,3.975,6.442,3.191,9.66c-1.71,7.02-7.242,12.934-13.998,15.38c-3.339,1.209-7.532,1.83-10.808,0.109
									c-2.785-1.464-4.923-6.3-1.525-8.393c4.693-2.891,9.072,2.996,11.466,6.177c3.136,4.166,6.269,8.335,9.403,12.502
									C135.079,219.454,136.834,218.097,135.976,216.956L135.976,216.956z"/>
							</g>
						</g>
					</g>
					<g>
						<g>
							<g>
								<path style="fill:#421B36;" d="M130.393,222.612c0,0,6.136,6.407,7.935,7.588c1.799,1.182,6.229,1.759,9.458-0.167
									c3.23-1.927,6.368-4.926,6.368-4.926s3.369-4.036,1.085-8.704c-2.283-4.668-4.734-8.948-4.734-8.948
									C148.619,207.454,129.105,221.284,130.393,222.612z"/>
							</g>
						</g>
						<g>
							<g>
								<g>
									<path style="fill:#8380FF;" d="M134.325,227.028c7.04-3.869,13.443-8.772,19.032-14.54
										c0.989-1.021-0.792-2.345-1.775-1.331c-5.289,5.458-11.439,10.158-18.1,13.818
										C132.244,225.657,133.076,227.715,134.325,227.028L134.325,227.028z"/>
								</g>
							</g>
						</g>
						<g>
							<g>
								<g>
									<path style="fill:#8380FF;" d="M139.072,230.958c6.715-2.885,12.634-7.42,17.172-13.148
										c0.886-1.118-0.887-2.451-1.775-1.331c-4.293,5.418-9.888,9.698-16.24,12.426
										C136.918,229.47,137.76,231.522,139.072,230.958L139.072,230.958z"/>
								</g>
							</g>
						</g>
					</g>
				</g>
			</g>
		</g>
	</g>
</g>
<g id="Character">
	<g>
		<g>
			<g>
				<g>
					<path style="fill:#FFFFFF;" d="M275.794,131.21c0,0,20.632,60.321,42.599,75.782l85.483-44.673c0,0-50.83-59.548-48.663-60.422
						C357.38,101.022,275.794,131.21,275.794,131.21z"/>
					<path style="fill:#421B36;" d="M318.341,207.794l-0.343-0.241c-21.897-15.411-42.008-73.65-42.853-76.121l-0.216-0.633
						l0.628-0.232c0,0,19.86-7.348,39.723-14.689c9.93-3.671,19.864-7.339,27.315-10.086c3.725-1.374,6.831-2.516,9.005-3.315
						c1.611-0.591,2.581-0.947,3.181-1.121l0.095-0.05c-0.019,0.011-0.036,0.025-0.054,0.039c0.873-0.249,0.928-0.092,1.074,0.287
						l0.244,0.63l-0.182,0.074c2.17,4.584,29.802,37.704,48.44,59.539l0.56,0.654L318.341,207.794z M276.663,131.62
						c2.269,6.44,21.574,59.9,41.786,74.569l84.347-44.08c-14.203-16.645-44.618-52.621-48.01-59.338
						C347.511,105.409,283.742,129.001,276.663,131.62z M355.472,102.532l-0.001,0.001
						C355.471,102.533,355.472,102.533,355.472,102.532z"/>
				</g>
				<g>
					<path style="fill:#FFFFFF;" d="M276.144,129.345c0,0,23.783,56.053,45.789,71.457l85.368-44.893
						c0,0-50.982-59.417-48.818-60.297C360.648,94.732,276.144,129.345,276.144,129.345z"/>
					<path style="fill:#421B36;" d="M321.882,201.604l-0.343-0.24c-9.212-6.45-19.763-20.493-31.355-41.739
						c-8.613-15.786-14.612-29.872-14.672-30.012l-0.271-0.64l0.643-0.263c0.811-0.332,80.372-32.92,82.337-33.731l0.004-0.001
						c0.008-0.003,0.015-0.006,0.023-0.009c0.004-0.001,0.007-0.003,0.008-0.003v0.001c0.474-0.177,0.801,0.121,0.904,0.371
						c0.092,0.228,0.153,0.374-0.004,0.548c1.53,3.88,29.727,37.508,48.665,59.579l0.56,0.653L321.882,201.604z M277.051,129.715
						c2.702,6.212,24.693,55.735,44.936,70.284l84.233-44.295c-14.233-16.597-44.707-52.456-48.153-59.201
						c-0.608,0.272-1.508,0.641-2.82,1.179L277.051,129.715z M358.752,96.171l0.024,0.063c0.126-0.051,0.21-0.145,0.263-0.243
						C358.966,96.046,358.871,96.105,358.752,96.171z"/>
				</g>
				<g>
					<g>
						<path style="fill:#421B36;" d="M293.099,150.242c3.732,7.652,8.827,14.611,14.021,21.322
							c5.313,6.865,10.943,13.472,16.489,20.148c0.706,0.85,1.913-0.369,1.212-1.212c-5.425-6.531-10.934-12.993-16.141-19.7
							c-5.229-6.735-10.351-13.736-14.1-21.424C294.096,148.385,292.617,149.253,293.099,150.242L293.099,150.242z"/>
					</g>
				</g>
				<g>
					<g>
						<path style="fill:#421B36;" d="M327.011,191.652c23.381-12.711,47.001-24.979,70.847-36.798
							c0.537-0.266,0.498-0.953,0.174-1.347c-9.162-11.114-18.325-22.227-27.487-33.341c-1.311-1.59-2.621-3.179-3.932-4.769
							c-0.702-0.852-1.909,0.367-1.212,1.212c9.162,11.114,18.325,22.228,27.487,33.341c1.311,1.59,2.621,3.179,3.932,4.769
							c0.058-0.449,0.116-0.898,0.174-1.347c-23.845,11.818-47.465,24.087-70.846,36.798
							C325.176,190.699,326.041,192.18,327.011,191.652L327.011,191.652z"/>
					</g>
				</g>
				<g>
					<g>
						<path style="fill:#421B36;" d="M301.546,161.733c24.097-12.272,48.599-23.736,73.462-34.372
							c1.012-0.433,0.139-1.91-0.865-1.481c-24.862,10.636-49.365,22.101-73.462,34.372
							C299.697,160.753,300.563,162.233,301.546,161.733L301.546,161.733z"/>
					</g>
				</g>
				<g>
					<g>
						<path style="fill:#421B36;" d="M311.73,175.752c24.542-11.714,49.475-22.697,73.145-36.142
							c0.959-0.545,0.096-2.027-0.866-1.481c-23.67,13.444-48.603,24.428-73.145,36.141
							C309.869,174.747,310.738,176.226,311.73,175.752L311.73,175.752z"/>
					</g>
				</g>
				<g>
					<g>
						<path style="fill:#421B36;" d="M306.238,143.977c10.406,13.27,21.271,26.173,31.677,39.443
							c0.68,0.868,1.886-0.353,1.212-1.212c-10.406-13.27-21.271-26.173-31.677-39.443
							C306.77,141.896,305.564,143.117,306.238,143.977L306.238,143.977z"/>
					</g>
				</g>
				<g>
					<g>
						<path style="fill:#421B36;" d="M321.943,135.631c10.091,14.091,20.949,27.69,32.597,40.527
							c0.743,0.819,1.953-0.396,1.213-1.212c-11.55-12.73-22.322-26.207-32.329-40.18
							C322.786,133.876,321.298,134.732,321.943,135.631L321.943,135.631z"/>
					</g>
				</g>
				<g>
					<g>
						<path style="fill:#421B36;" d="M339.388,129.272c9.545,13.35,19.133,26.716,30.168,38.894c0.743,0.82,1.952-0.396,1.212-1.212
							c-10.938-12.071-20.438-25.315-29.9-38.547C340.233,127.516,338.745,128.372,339.388,129.272L339.388,129.272z"/>
					</g>
				</g>
				<g>
					<g>
						<path style="fill:#421B36;" d="M354.405,121.911c9.545,13.35,19.133,26.716,30.168,38.894c0.742,0.82,1.952-0.396,1.212-1.213
							c-10.938-12.071-20.439-25.315-29.9-38.547C355.249,120.156,353.762,121.011,354.405,121.911L354.405,121.911z"/>
					</g>
				</g>
				<g>
					<path style="fill:#8380FF;" d="M283.212,134.296c0,0,6.887,13.776,9.29,14.576c2.403,0.8,74.234-32.516,74.517-33.637
						s-8.756-12.72-10.197-12.56C355.38,102.836,281.996,131.936,283.212,134.296z"/>
				</g>
			</g>
			<g>
				<g>
					<path style="fill:#421B36;" d="M298.521,137.439c0.865-3.076,3.282-5.516,6.326-6.492c1.472-0.472,3.123-0.631,4.633-0.237
						c0.863,0.225,1.776,0.605,2.347,1.319c0.565,0.706,0.803,2.731-0.637,2.803c-0.568,0.028-0.952-0.788-0.994-1.229
						c-0.03-0.31,0.104-0.706,0.195-1.003c0.224-0.73,0.649-1.373,1.089-1.988c1.036-1.45,2.313-2.776,3.862-3.678
						c2.864-1.666,6.956-1.463,8.73,1.666c0.438,0.772,1.552,0.386,1.598-0.433c0.43-7.682,9.475-11.609,15.358-6.619
						c0.374,0.318,0.836,0.322,1.213,0c1.735-1.486,3.471-2.972,5.206-4.458c0.84-0.719-0.378-1.927-1.212-1.213
						c-1.735,1.486-3.471,2.972-5.206,4.458c0.404,0,0.808,0,1.213,0c-3.204-2.718-7.733-3.613-11.653-1.932
						c-3.909,1.676-6.398,5.575-6.632,9.764c0.533-0.144,1.065-0.288,1.598-0.433c-1.917-3.381-6.233-4.332-9.707-2.95
						c-3.205,1.276-7.313,5.092-7.364,8.818c-0.051,3.703,4.685,3.698,5.502,0.364c1.007-4.108-4.74-5.464-7.651-5.095
						c-4.438,0.562-8.255,3.809-9.464,8.111C296.568,138.047,298.223,138.501,298.521,137.439L298.521,137.439z"/>
				</g>
			</g>
			<g>
				<g>
					<path style="fill:#421B36;" d="M352.367,113.898c1.103,0,1.105-1.715,0-1.715C351.264,112.183,351.262,113.898,352.367,113.898
						L352.367,113.898z"/>
				</g>
			</g>
			<g>
				<g>
					<path style="fill:#421B36;" d="M310.991,167.51c0.904-2.68,1.983-5.292,3.237-7.826c0.205-0.415,0.111-0.928-0.308-1.173
						c-0.379-0.221-0.967-0.109-1.173,0.308c-1.319,2.665-2.46,5.418-3.41,8.236C308.985,168.102,310.64,168.552,310.991,167.51
						L310.991,167.51z"/>
				</g>
			</g>
			<g>
				<g>
					<path style="fill:#421B36;" d="M314.458,167.717c0.374-0.812,0.748-1.623,1.121-2.434c0.099-0.215,0.151-0.425,0.086-0.661
						c-0.055-0.199-0.208-0.414-0.394-0.512c-0.199-0.105-0.44-0.158-0.661-0.086c-0.201,0.065-0.421,0.195-0.512,0.394
						c-0.374,0.811-0.748,1.623-1.121,2.434c-0.099,0.215-0.151,0.425-0.086,0.661c0.055,0.199,0.208,0.414,0.394,0.512
						c0.199,0.105,0.44,0.158,0.661,0.086C314.146,168.046,314.366,167.916,314.458,167.717L314.458,167.717z"/>
				</g>
			</g>
			<g>
				<g>
					<path style="fill:#421B36;" d="M340.941,177.531c0.022-3.015,0.246-6.028,0.694-9.011c0.069-0.457-0.115-0.922-0.599-1.055
						c-0.405-0.111-0.985,0.138-1.055,0.599c-0.471,3.136-0.732,6.295-0.755,9.467C339.218,178.635,340.933,178.636,340.941,177.531
						L340.941,177.531z"/>
				</g>
			</g>
			<g>
				<g>
					<path style="fill:#421B36;" d="M336.592,172.76c0.034-0.88,0.068-1.76,0.102-2.64c0.017-0.449-0.407-0.878-0.857-0.857
						c-0.479,0.021-0.839,0.377-0.857,0.857c-0.034,0.88-0.068,1.76-0.102,2.64c-0.017,0.449,0.407,0.878,0.857,0.857
						C336.214,173.596,336.573,173.24,336.592,172.76L336.592,172.76z"/>
				</g>
			</g>
			<g>
				<g>
					<path style="fill:#421B36;" d="M328.559,136.889c1.781,1.708,3.562,3.417,5.343,5.125c0.576,0.553,1.749,0.008,1.433-0.834
						c-0.604-1.609-1.209-3.219-1.813-4.829c-0.352,0.352-0.703,0.703-1.055,1.055c1.042,0.374,2.084,0.747,3.126,1.121
						c0.45,0.161,0.921-0.185,1.055-0.599c0.194-0.598,0.043-1.143-0.01-1.744c-0.005-0.052-0.017-0.386,0.017-0.377
						c0.006,0.001-0.099,0.077-0.122,0.082c-0.173,0.033-0.322-0.202-0.367-0.315c0.169,0.431,0.574,0.731,1.055,0.599
						c0.41-0.113,0.769-0.621,0.599-1.055c-0.185-0.469-0.501-0.804-1.008-0.905c-0.499-0.099-1.048,0.052-1.405,0.422
						c-0.364,0.378-0.506,0.92-0.49,1.433c0.014,0.46,0.224,0.955,0.078,1.404c0.352-0.2,0.703-0.399,1.055-0.599
						c-1.042-0.374-2.084-0.747-3.126-1.121c-0.589-0.211-1.278,0.459-1.055,1.055c0.604,1.609,1.209,3.219,1.813,4.829
						c0.478-0.278,0.955-0.556,1.433-0.834c-1.781-1.708-3.562-3.417-5.343-5.125C328.975,134.912,327.761,136.123,328.559,136.889
						L328.559,136.889z"/>
				</g>
			</g>
			<g>
				<g>
					<path style="fill:#421B36;" d="M281.84,125.656c-0.849-0.612-0.978-1.945-0.552-2.833c0.553-1.154,1.883-1.804,3.118-1.875
						c1.387-0.08,2.821,0.44,3.719,1.527c0.802,0.971,1.075,2.468,0.538,3.627c-0.561,1.211-1.983,1.958-3.289,1.618
						c-1.069-0.278-1.525,1.375-0.456,1.653c1.858,0.483,3.813-0.333,4.912-1.877c1.138-1.598,1.034-3.895,0.029-5.528
						c-2.08-3.382-7.806-3.804-9.934-0.223c-1.058,1.781-0.635,4.174,1.051,5.391c0.376,0.271,0.955,0.065,1.173-0.308
						C282.4,126.397,282.216,125.928,281.84,125.656L281.84,125.656z"/>
				</g>
			</g>
			<g>
				<g>
					<path style="fill:#421B36;" d="M295.474,120.105c-0.849-0.612-0.978-1.945-0.552-2.833c0.553-1.154,1.883-1.804,3.118-1.875
						c1.387-0.08,2.821,0.44,3.719,1.527c0.802,0.971,1.075,2.468,0.538,3.627c-0.561,1.211-1.983,1.958-3.289,1.618
						c-1.069-0.278-1.525,1.375-0.456,1.653c1.858,0.483,3.813-0.333,4.912-1.876c1.138-1.598,1.034-3.895,0.029-5.528
						c-2.08-3.382-7.806-3.804-9.934-0.223c-1.058,1.781-0.635,4.174,1.051,5.391c0.376,0.271,0.955,0.065,1.173-0.308
						C296.034,120.846,295.85,120.377,295.474,120.105L295.474,120.105z"/>
				</g>
			</g>
			<g>
				<g>
					<path style="fill:#421B36;" d="M309.108,114.554c-0.849-0.612-0.978-1.945-0.552-2.833c0.553-1.154,1.883-1.804,3.118-1.875
						c1.387-0.08,2.821,0.44,3.719,1.527c0.802,0.971,1.075,2.468,0.538,3.627c-0.561,1.211-1.983,1.958-3.289,1.618
						c-1.069-0.278-1.525,1.375-0.456,1.653c1.858,0.483,3.813-0.333,4.912-1.877c1.138-1.598,1.034-3.895,0.029-5.528
						c-2.08-3.382-7.806-3.804-9.934-0.223c-1.058,1.781-0.635,4.174,1.051,5.391c0.376,0.271,0.955,0.065,1.173-0.308
						C309.668,115.295,309.484,114.826,309.108,114.554L309.108,114.554z"/>
				</g>
			</g>
			<g>
				<g>
					<path style="fill:#421B36;" d="M322.742,109.003c-0.848-0.612-0.978-1.945-0.552-2.833c0.553-1.154,1.882-1.804,3.118-1.875
						c1.387-0.08,2.821,0.44,3.719,1.527c0.802,0.971,1.075,2.468,0.537,3.627c-0.561,1.212-1.982,1.958-3.289,1.618
						c-1.069-0.278-1.525,1.375-0.456,1.653c1.858,0.483,3.813-0.333,4.911-1.877c1.138-1.598,1.034-3.895,0.029-5.528
						c-2.08-3.381-7.806-3.804-9.934-0.223c-1.058,1.781-0.635,4.174,1.051,5.391c0.376,0.271,0.955,0.065,1.173-0.308
						C323.302,109.744,323.118,109.275,322.742,109.003L322.742,109.003z"/>
				</g>
			</g>
			<g>
				<g>
					<path style="fill:#421B36;" d="M336.376,103.452c-0.848-0.612-0.978-1.945-0.552-2.833c0.553-1.154,1.883-1.804,3.118-1.875
						c1.387-0.08,2.821,0.44,3.719,1.527c0.802,0.971,1.075,2.468,0.537,3.627c-0.561,1.212-1.982,1.958-3.289,1.618
						c-1.069-0.278-1.525,1.375-0.456,1.653c1.858,0.483,3.813-0.333,4.912-1.876c1.138-1.598,1.034-3.895,0.029-5.528
						c-2.08-3.382-7.806-3.804-9.934-0.223c-1.058,1.781-0.635,4.174,1.051,5.391c0.376,0.271,0.955,0.065,1.173-0.308
						C336.936,104.193,336.752,103.724,336.376,103.452L336.376,103.452z"/>
				</g>
			</g>
			<g>
				<g>
					<path style="fill:#421B36;" d="M350.01,97.901c-0.848-0.612-0.978-1.945-0.552-2.833c0.553-1.154,1.883-1.804,3.118-1.875
						c1.387-0.08,2.821,0.44,3.719,1.527c0.802,0.971,1.075,2.468,0.537,3.627c-0.561,1.211-1.983,1.958-3.289,1.618
						c-1.069-0.278-1.525,1.375-0.456,1.654c1.858,0.483,3.813-0.333,4.912-1.877c1.138-1.598,1.034-3.895,0.029-5.528
						c-2.08-3.382-7.806-3.804-9.934-0.223c-1.058,1.781-0.635,4.174,1.051,5.391c0.376,0.271,0.955,0.065,1.173-0.308
						C350.57,98.642,350.386,98.173,350.01,97.901L350.01,97.901z"/>
				</g>
			</g>
		</g>
		<g>
			<path style="fill:#FFAE7A;" d="M378.29,171.408c-0.744,0.734,29.452,25.146,35.496,35.601
				c6.152,10.643-31.335,70.366-29.136,73.115c2.199,2.749,35.183,15.393,41.23,12.644s30.785-69.266,26.937-91.256
				c-3.848-21.989-53.324-49.476-53.324-49.476L378.29,171.408z"/>
		</g>
		<g>
			<path style="fill:#8380FF;" d="M389.143,266.838c-4.948,0-42.879,61.592-36.282,69.277c6.597,7.685,58.028,27.804,58.028,27.804
				s26.631-75.092,26.631-81.689S389.143,266.838,389.143,266.838z"/>
		</g>
		<g>
			<g>
				<g>
					<g>
						<g>
							<g>
								<path style="fill:#FFAE7A;" d="M353.437,302.233l0.47-58.455c-27.439-8.471-41.034,11.346-41.034,11.346
									c-5.946-1.339-11.892-2.678-17.839-4.018c-0.724-0.163-1.514-0.32-2.193,0.011c-1.307,0.637-1.304,2.508-0.99,3.921
									c1.06,4.773,3.333,9.235,6.541,12.843l-1.189,2.975c-4.728,8.191-5.719,18.765-1.666,27.121
									c5.596,11.537,19.237,15.766,28.288,17.521l11.406,21.006l30.679-9.397L353.437,302.233z"/>
							</g>
						</g>
					</g>
					<g>
						<g>
							<path style="fill:#421B36;" d="M389.111,280.377c0.713-6.278-1.492-14.304-4.554-19.831
								c-4.094-7.391-8.122-10.693-13.531-13.959c-9.076-5.479-22.135-8.776-32.03-4.971c-7.313,16.644,3.023,34.701,5.752,52.675
								c0.816,5.374-6.595,16.107,5.253,32.283l-0.117-4.476C358.48,318.305,384.09,324.623,389.111,280.377z"/>
						</g>
					</g>
					<g>
						<g>
							<g>
								<path style="fill:#421B36;" d="M320.021,261.258c-0.617,1.091-0.34,2.416,0.62,2.959c0.96,0.543,2.238,0.098,2.855-0.994
									c0.617-1.091,0.339-2.416-0.62-2.959C321.916,259.721,320.638,260.166,320.021,261.258z"/>
							</g>
						</g>
					</g>
					<g>
						<g>
							<g>
								<g>
									<path style="fill:#421B36;" d="M338.629,257.294c-2.026-4.83-6.284-9.786-12.079-9.626
										c-1.264,0.035-1.565,1.921-0.427,2.406c2.204,0.939,4.375,1.348,6.372,2.775c1.862,1.33,3.758,3.098,4.902,5.069
										C337.792,258.598,338.934,258.02,338.629,257.294L338.629,257.294z"/>
								</g>
							</g>
						</g>
					</g>
				</g>
				<g style="opacity:0.2;">
					<g>
						<g>
							<path style="fill:#421B36;" d="M331.423,280.598c-0.918,1.624-4.428,1.377-7.838-0.552c-3.411-1.928-5.431-4.809-4.513-6.432
								c0.918-1.624,4.428-1.377,7.838,0.552C330.321,276.094,332.341,278.974,331.423,280.598z"/>
						</g>
					</g>
				</g>
			</g>
		</g>
		<g>
			<g>
				<g>
					<g>
						<g>
							<path style="fill:#421B36;" d="M295.225,279.457c2.342,1.538,4.719,2.388,7.566,2.277c2.341-0.091,5.768-0.714,7.108-2.829
								c0.355-0.559-0.253-1.386-0.881-1.285c-1.04,0.167-1.834,0.749-2.805,1.143c-1.056,0.428-2.163,0.698-3.297,0.805
								c-2.326,0.22-4.89-0.15-7.003-1.167C295.29,278.101,294.611,279.053,295.225,279.457L295.225,279.457z"/>
						</g>
					</g>
				</g>
			</g>
		</g>
		<g>
			<g>
				<g>
					<path style="fill:#FFFFFF;" d="M128.783,256.718c0,0-64.801,21.262-72.146,24.467c-7.344,3.206,21.88,95.716,31.986,96.741
						c10.106,1.025,79.809-24.704,73.692-29.337C156.199,343.957,128.783,256.718,128.783,256.718z"/>
				</g>
				<g>
					<g>
						<path style="fill:#421B36;" d="M128.555,255.891c-10.43,3.422-20.85,6.873-31.263,10.345
							c-13.239,4.415-26.664,8.55-39.669,13.628c-1.19,0.465-2.13,0.802-2.598,2.081c-0.503,1.373-0.452,2.98-0.388,4.416
							c0.248,5.539,1.512,11.076,2.766,16.456c3.629,15.567,8.518,30.917,14.174,45.861c2.463,6.509,5.082,12.996,8.229,19.21
							c1.731,3.418,3.769,8.009,7.084,10.228c1.169,0.782,2.434,0.752,3.789,0.616c2.378-0.24,4.729-0.777,7.046-1.346
							c7.118-1.747,14.112-4.034,21.035-6.429c7.888-2.728,15.705-5.678,23.398-8.918c5.826-2.453,11.793-4.958,17.158-8.337
							c1.984-1.249,5.679-3.448,3.368-5.931c-0.872-0.937-1.578-2.365-2.201-3.609c-1.128-2.253-2.12-4.575-3.08-6.903
							c-5.926-14.372-10.858-29.176-15.797-43.909c-3.897-11.624-7.695-23.282-11.397-34.969c-0.199-0.63-0.399-1.26-0.597-1.89
							c-0.33-1.049-1.986-0.601-1.653,0.456c2.602,8.278,5.279,16.534,7.987,24.778c4.958,15.094,10.003,30.172,15.551,45.06
							c2.095,5.622,4.219,11.265,6.763,16.703c0.719,1.536,1.454,3.113,2.426,4.51c0.308,0.442,0.638,0.83,1.025,1.199
							c0.227,0.216,0.168,0.078,0.108,0.177c-0.703,1.159-2.088,2.038-3.289,2.799c-2.269,1.437-4.676,2.661-7.089,3.834
							c-6.818,3.313-13.863,6.164-20.942,8.864c-7.539,2.876-15.16,5.558-22.87,7.942c-5.383,1.665-10.952,3.485-16.569,4.163
							c-1.403,0.169-2.378,0.32-3.343-0.368c-1.249-0.89-2.222-2.356-3.064-3.639c-3.11-4.742-5.429-10.037-7.632-15.244
							c-6.143-14.522-11.102-29.621-15.272-44.82c-1.774-6.468-3.424-12.997-4.558-19.612c-0.393-2.292-0.733-4.605-0.837-6.93
							c-0.057-1.263-0.134-2.885,0.329-3.97c0.174-0.409,0.108-0.324,0.544-0.532c0.474-0.226,1.313-0.52,1.922-0.748
							c2.309-0.867,4.637-1.684,6.965-2.499c7.033-2.46,14.094-4.841,21.157-7.215c13.12-4.409,26.259-8.761,39.408-13.085
							c0.778-0.256,1.556-0.512,2.334-0.767C130.055,257.202,129.608,255.546,128.555,255.891z"/>
					</g>
				</g>
			</g>
			<g>
				<g>
					<path style="fill:#FFFFFF;" d="M128.382,255.597c0,0-62.64,19.192-69.972,22.277c-7.332,3.085,22.17,92.862,32.276,93.886
						c10.106,1.025,79.707-23.703,73.578-28.213C158.135,339.038,128.382,255.597,128.382,255.597z"/>
				</g>
				<g>
					<g>
						<path style="fill:#421B36;" d="M128.154,254.77c-10.351,3.172-20.692,6.375-31.026,9.603c-7.802,2.438-15.6,4.888-23.38,7.394
							c-4.971,1.601-10.008,3.116-14.88,5.005c-2.857,1.108-2.59,4.293-2.39,6.934c0.418,5.52,1.724,10.999,3.06,16.356
							c3.799,15.229,8.797,30.241,14.614,44.815c2.474,6.198,5.094,12.382,8.279,18.253c1.644,3.03,3.715,7.388,6.935,9.083
							c1.243,0.654,2.738,0.446,4.077,0.282c2.435-0.299,4.839-0.838,7.221-1.417c7.009-1.703,13.909-3.877,20.747-6.164
							c7.721-2.583,15.38-5.37,22.921-8.439c5.711-2.324,11.545-4.697,16.837-7.893c1.344-0.812,2.97-1.741,3.868-3.079
							c0.754-1.124,0.326-2.043-0.313-2.68c-2.454-2.446-3.932-6.514-5.383-9.664c-6.325-13.734-11.65-27.955-16.995-42.091
							c-4.258-11.259-8.418-22.556-12.487-33.885c-0.217-0.604-0.434-1.208-0.65-1.813c-0.368-1.032-2.025-0.587-1.653,0.456
							c2.85,7.991,5.772,15.957,8.723,23.911c5.387,14.517,10.857,29.017,16.813,43.311c2.227,5.344,4.472,10.711,7.13,15.858
							c0.751,1.455,1.523,2.939,2.518,4.246c0.288,0.378,0.849,0.943,0.997,1.066c0.07,0.058,0.178-0.056-0.044,0.213
							c-2.379,2.887-6.934,4.685-10.349,6.284c-6.633,3.105-13.473,5.777-20.342,8.31c-7.37,2.718-14.814,5.249-22.336,7.513
							c-5.514,1.66-11.152,3.387-16.87,4.194c-0.785,0.111-1.581,0.203-2.375,0.202c-0.624-0.001-0.8-0.005-1.231-0.222
							c-1.234-0.623-2.187-1.952-2.976-3.046c-3.139-4.354-5.432-9.365-7.617-14.243c-6.242-13.939-11.243-28.509-15.513-43.163
							c-1.875-6.435-3.617-12.932-4.876-19.519c-0.444-2.326-0.839-4.671-1.018-7.034c-0.106-1.402-0.26-3.005,0.165-4.361
							c0.118-0.376,0.292-0.622,0.355-0.665c0.206-0.143,1.101-0.441,1.578-0.615c2.142-0.782,4.307-1.5,6.471-2.217
							c6.845-2.269,13.721-4.445,20.598-6.613c12.965-4.088,25.95-8.111,38.944-12.103c0.768-0.236,1.537-0.472,2.305-0.707
							C129.662,256.102,129.213,254.446,128.154,254.77z"/>
					</g>
				</g>
			</g>
			<g>
				<g>
					<path style="fill:#FFFFFF;" d="M128.382,255.597c0,0-61.543,17.801-68.526,21.61c-6.984,3.809,27.758,87.882,37.916,87.882
						c10.158,0,80.576-29.355,74.024-33.224C165.243,327.996,128.382,255.597,128.382,255.597z"/>
				</g>
				<g>
					<g>
						<path style="fill:#421B36;" d="M128.154,254.77c-9.989,2.89-19.959,5.846-29.913,8.853c-7.624,2.303-15.241,4.635-22.821,7.08
							c-4.998,1.612-10.122,3.127-14.934,5.254c-1.1,0.486-1.87,0.963-2.203,2.184c-0.39,1.428-0.198,3.029-0.012,4.47
							c0.681,5.282,2.316,10.467,3.957,15.515c4.691,14.425,10.592,28.546,17.264,42.163c2.875,5.868,5.905,11.711,9.493,17.181
							c1.83,2.789,4.278,7.014,7.618,8.24c1.252,0.459,2.65,0.138,3.917-0.112c2.217-0.439,4.395-1.084,6.552-1.751
							c6.595-2.039,13.07-4.478,19.491-7.007c13.4-5.277,27.053-10.817,39.508-18.108c1.788-1.047,3.59-2.142,5.175-3.485
							c0.785-0.665,1.879-1.625,1.835-2.763c-0.042-1.105-1.197-1.563-1.818-2.231c-1.261-1.355-2.303-2.928-3.329-4.461
							c-7.874-11.762-14.473-24.455-21.16-36.911c-5.69-10.598-11.27-21.255-16.755-31.961c-0.299-0.584-0.599-1.169-0.897-1.754
							c-0.501-0.984-1.981-0.117-1.481,0.865c3.865,7.59,7.805,15.143,11.779,22.677c6.974,13.221,14.01,26.437,21.641,39.294
							c2.509,4.227,5.02,8.564,8.097,12.412c0.418,0.523,0.848,1.05,1.338,1.508c0.202,0.189,0.413,0.361,0.633,0.529
							c0.222,0.169,0.295,0.181,0.269,0.169c-0.127-0.061,0.13-0.197-0.192,0.223c-0.27,0.352-0.745,0.829-1.174,1.192
							c-3.707,3.131-8.432,5.295-12.737,7.447c-6.536,3.268-13.215,6.253-19.941,9.106c-6.98,2.961-14.029,5.772-21.158,8.355
							c-5.095,1.846-10.273,3.738-15.581,4.887c-1.135,0.246-2.574,0.639-3.514,0.245c-1.144-0.479-2.266-1.712-3.129-2.706
							c-3.438-3.955-6.048-8.701-8.541-13.281c-7.081-13.011-12.988-26.738-18.13-40.621c-2.228-6.014-4.331-12.103-5.941-18.315
							c-0.809-3.123-2.286-7.5-1.389-10.68c0.105-0.373,0.173-0.431,0.393-0.564c0.525-0.319,1.135-0.537,1.702-0.768
							c2.139-0.873,4.331-1.624,6.517-2.371c6.697-2.287,13.456-4.39,20.218-6.474c12.495-3.85,25.031-7.57,37.585-11.224
							c0.741-0.216,1.482-0.431,2.223-0.646C129.668,256.118,129.218,254.463,128.154,254.77z"/>
					</g>
				</g>
			</g>
			<g>
				<g>
					<path style="fill:#421B36;" d="M64.968,274.971c-0.337-1.773,0.596-3.411,1.97-4.479c1.398-1.087,3.121-1.495,4.867-1.221
						c2.046,0.321,3.926,1.488,4.927,3.327c0.925,1.699,1.076,3.908,0.153,5.642c-1.059,1.99-3.253,3.157-5.488,2.926
						c-1.096-0.114-1.089,1.602,0,1.715c2.529,0.262,5.012-0.998,6.494-3.024c1.496-2.045,1.684-4.865,0.755-7.185
						c-1.874-4.684-8.07-6.747-12.291-3.862c-2.206,1.507-3.551,3.921-3.04,6.617C63.52,276.51,65.173,276.052,64.968,274.971
						L64.968,274.971z"/>
				</g>
			</g>
			<g>
				<g>
					<path style="fill:#421B36;" d="M76.524,270.489c-0.337-1.773,0.596-3.411,1.97-4.479c1.398-1.087,3.121-1.495,4.867-1.221
						c2.046,0.321,3.926,1.488,4.927,3.327c0.925,1.699,1.076,3.908,0.153,5.642c-1.059,1.99-3.253,3.157-5.488,2.926
						c-1.096-0.114-1.089,1.602,0,1.715c2.529,0.262,5.012-0.998,6.494-3.024c1.496-2.045,1.684-4.865,0.755-7.185
						c-1.874-4.684-8.07-6.747-12.291-3.862c-2.205,1.507-3.551,3.921-3.039,6.617C75.076,272.027,76.729,271.569,76.524,270.489
						L76.524,270.489z"/>
				</g>
			</g>
			<g>
				<g>
					<path style="fill:#421B36;" d="M88.948,266.11c-0.336-1.773,0.596-3.411,1.97-4.479c1.398-1.087,3.121-1.495,4.867-1.221
						c2.046,0.321,3.926,1.488,4.927,3.327c0.925,1.699,1.076,3.908,0.153,5.642c-1.059,1.99-3.253,3.157-5.488,2.926
						c-1.096-0.114-1.088,1.602,0,1.715c2.529,0.262,5.012-0.998,6.494-3.024c1.496-2.045,1.684-4.865,0.755-7.185
						c-1.874-4.684-8.07-6.747-12.291-3.862c-2.206,1.507-3.551,3.921-3.039,6.617C87.5,267.649,89.153,267.19,88.948,266.11
						L88.948,266.11z"/>
				</g>
			</g>
			<g>
				<g>
					<path style="fill:#421B36;" d="M100.604,262.174c-0.337-1.773,0.596-3.411,1.97-4.479c1.398-1.087,3.121-1.495,4.867-1.221
						c2.046,0.321,3.926,1.489,4.927,3.327c0.925,1.699,1.076,3.908,0.153,5.642c-1.059,1.99-3.253,3.157-5.488,2.926
						c-1.096-0.114-1.089,1.602,0,1.715c2.529,0.262,5.012-0.998,6.494-3.024c1.496-2.045,1.684-4.865,0.755-7.185
						c-1.874-4.683-8.07-6.747-12.291-3.861c-2.206,1.507-3.551,3.921-3.039,6.617C99.156,263.713,100.809,263.254,100.604,262.174
						L100.604,262.174z"/>
				</g>
			</g>
			<g>
				<g>
					<path style="fill:#421B36;" d="M112.759,258.122c-0.337-1.773,0.596-3.411,1.97-4.479c1.398-1.087,3.121-1.495,4.867-1.221
						c2.046,0.321,3.926,1.488,4.926,3.327c0.925,1.699,1.076,3.908,0.153,5.642c-1.059,1.99-3.253,3.157-5.488,2.926
						c-1.096-0.114-1.089,1.602,0,1.715c2.529,0.262,5.012-0.998,6.494-3.024c1.496-2.045,1.684-4.865,0.755-7.185
						c-1.874-4.684-8.07-6.747-12.291-3.861c-2.205,1.507-3.551,3.921-3.039,6.617C111.311,259.661,112.964,259.202,112.759,258.122
						L112.759,258.122z"/>
				</g>
			</g>
			<g>
				<g>
					<path style="fill:#A0D2F4;" d="M69.761,296.484c0.151,0.273,3.026,10.044,4.842,10.816c1.816,0.771,12.672-6.166,12.672-6.166
						s-4.716-9.32-5.322-9.752C81.348,290.95,69.329,295.706,69.761,296.484z"/>
				</g>
				<g>
					<path style="fill:#421B36;" d="M74.865,297.948l-1.551,2.228c0,0,5.077,2.64,6.399,2.638c1.322-0.003,2.561-1.159,2.561-1.159
						s1.423-10.406,1.563-11.408c0.16-1.147-3.049-0.664-3.049-0.664s-0.906,10.546-1.154,10.283L74.865,297.948z"/>
				</g>
			</g>
			<g>
				<g>
					<path style="fill:#A0D2F4;" d="M78.053,313.125c0.151,0.272,3.027,10.044,4.842,10.816c1.816,0.771,12.672-6.166,12.672-6.166
						s-4.716-9.32-5.322-9.752C89.64,307.591,77.62,312.347,78.053,313.125z"/>
				</g>
				<g>
					<path style="fill:#421B36;" d="M83.156,314.589l-1.551,2.228c0,0,5.077,2.64,6.398,2.638c1.322-0.003,2.561-1.159,2.561-1.159
						s1.423-10.405,1.563-11.408c0.16-1.147-3.049-0.664-3.049-0.664s-0.906,10.546-1.154,10.283L83.156,314.589z"/>
				</g>
			</g>
			<g>
				<g>
					<path style="fill:#A0D2F4;" d="M86.816,329.765c0.151,0.273,3.027,10.044,4.842,10.816c1.816,0.772,12.672-6.166,12.672-6.166
						s-4.716-9.32-5.322-9.752C98.403,324.231,86.383,328.987,86.816,329.765z"/>
				</g>
				<g>
					<path style="fill:#421B36;" d="M91.919,331.229l-1.551,2.228c0,0,5.077,2.64,6.398,2.638c1.322-0.003,2.561-1.159,2.561-1.159
						s1.423-10.405,1.563-11.408c0.16-1.147-3.049-0.664-3.049-0.664s-0.906,10.546-1.154,10.283L91.919,331.229z"/>
				</g>
			</g>
			<g>
				<g>
					<path style="fill:#A0D2F4;" d="M95.817,345.47c0.151,0.272,3.026,10.044,4.842,10.816c1.816,0.772,12.672-6.166,12.672-6.166
						s-4.716-9.32-5.322-9.752C107.404,339.935,95.384,344.691,95.817,345.47z"/>
				</g>
				<g>
					<path style="fill:#421B36;" d="M100.92,346.933l-1.551,2.228c0,0,5.077,2.64,6.398,2.638c1.322-0.003,2.561-1.159,2.561-1.159
						s1.423-10.405,1.563-11.408c0.16-1.147-3.049-0.664-3.049-0.664s-0.906,10.546-1.154,10.283L100.92,346.933z"/>
				</g>
			</g>
			<g>
				<g>
					<path style="fill:#421B36;" d="M94.344,294.588c-0.167-1.454,0.693-3.023,2.232-3.321c1.369-0.265,2.726,0.61,4.105,0.572
						c2.79-0.078,2.702-2.642,3.996-4.387c0.925-1.248,2.994-1.532,4.392-1.99c1.685-0.552,3.371-1.105,5.056-1.657
						c3.371-1.105,6.742-2.209,10.113-3.314c1.044-0.342,0.597-1.998-0.456-1.653c-3.745,1.227-7.491,2.455-11.236,3.682
						c-1.873,0.614-3.746,1.226-5.618,1.841c-1.342,0.441-2.735,0.853-3.614,2.039c-0.708,0.956-0.814,2.718-1.789,3.411
						c-1.28,0.909-3.403-0.425-4.903-0.275c-2.445,0.245-4.267,2.657-3.992,5.052C92.754,295.671,94.47,295.684,94.344,294.588
						L94.344,294.588z"/>
				</g>
			</g>
			<g>
				<g>
					<path style="fill:#421B36;" d="M103.056,309.905c-0.167-1.454,0.693-3.023,2.231-3.321c1.369-0.265,2.727,0.61,4.105,0.571
						c2.79-0.078,2.702-2.642,3.996-4.387c0.925-1.248,2.994-1.532,4.392-1.99c1.685-0.552,3.371-1.105,5.056-1.657
						c3.371-1.105,6.742-2.209,10.113-3.314c1.044-0.342,0.597-1.999-0.456-1.654c-3.745,1.227-7.491,2.455-11.236,3.682
						c-1.873,0.614-3.746,1.226-5.618,1.841c-1.342,0.441-2.735,0.853-3.614,2.039c-0.708,0.956-0.814,2.718-1.789,3.411
						c-1.281,0.909-3.403-0.425-4.904-0.275c-2.445,0.245-4.267,2.657-3.992,5.053C101.466,310.988,103.182,311.001,103.056,309.905
						L103.056,309.905z"/>
				</g>
			</g>
			<g>
				<g>
					<path style="fill:#421B36;" d="M111.768,325.221c-0.167-1.454,0.693-3.023,2.231-3.321c1.369-0.265,2.726,0.61,4.105,0.572
						c2.79-0.078,2.702-2.642,3.996-4.387c0.925-1.248,2.994-1.532,4.392-1.99c1.686-0.552,3.371-1.105,5.056-1.657
						c3.371-1.105,6.742-2.209,10.113-3.314c1.044-0.342,0.597-1.998-0.456-1.653c-3.745,1.227-7.491,2.455-11.236,3.682
						c-1.873,0.614-3.746,1.226-5.618,1.841c-1.342,0.441-2.735,0.853-3.614,2.039c-0.708,0.955-0.814,2.718-1.789,3.411
						c-1.281,0.91-3.403-0.425-4.904-0.275c-2.445,0.245-4.267,2.657-3.992,5.053C110.178,326.305,111.894,326.318,111.768,325.221
						L111.768,325.221z"/>
				</g>
			</g>
			<g>
				<g>
					<path style="fill:#421B36;" d="M120.48,340.538c-0.167-1.455,0.693-3.023,2.232-3.321c1.369-0.265,2.726,0.61,4.105,0.572
						c2.79-0.078,2.703-2.642,3.996-4.387c0.925-1.248,2.994-1.532,4.392-1.99c1.685-0.552,3.371-1.105,5.056-1.657
						c3.371-1.105,6.742-2.209,10.113-3.314c1.044-0.342,0.597-1.999-0.456-1.654c-3.745,1.227-7.491,2.455-11.236,3.682
						c-1.873,0.614-3.746,1.226-5.618,1.841c-1.342,0.441-2.735,0.853-3.614,2.039c-0.708,0.956-0.814,2.718-1.789,3.411
						c-1.281,0.909-3.403-0.425-4.903-0.275c-2.445,0.245-4.267,2.657-3.992,5.053C118.89,341.622,120.606,341.634,120.48,340.538
						L120.48,340.538z"/>
				</g>
			</g>
		</g>
		<g>
			<path style="fill:#8380FF;" d="M311.999,341.276"/>
		</g>
		<g>
			<path style="fill:#421B36;" d="M191.146,295.342c0,0-62.424,44.221-65.222,46.87c-2.798,2.649-3.141,7.453-3.141,7.453
				s6.786,1.305,9.411-0.868c2.625-2.173,63.744-43.901,64.093-47.193C196.636,298.314,195.181,294.319,191.146,295.342z"/>
		</g>
		<g>
			<path style="fill:#FFAE7A;" d="M150.266,352.944c0.623,0.311-2.491,4.359,1.401,12.923c3.892,8.563,16.675,15.882,16.675,15.882
				l18.825-25.211l-10.121-9.199c0,0,2.865-16.958,2.024-23.51c-0.594-4.633-9.964-19.306-19.462-17.282
				c-9.497,2.024-10.899,14.324-10.899,14.324s-11.144-2.433-10.425,7.223c0,0-7.601,2.465-1.438,11.916
				c0,0-7.807,3.082-3.698,11.505c4.109,8.423,9.773,7.396,12.59,5.855c2.818-1.541,1.585-4.109,1.585-4.109L150.266,352.944z"/>
		</g>
		<g>
			<path style="fill:#FFAE7A;" d="M167.222,380.332c1.707,1.423,41.98,45.064,61.045,44.494
				c19.066-0.569,57.901-18.313,57.901-18.313l-19.35-37.28c0,0-35.056,15.162-38.14,15.736
				c-4.373,0.814-45.44-30.162-44.098-30.818L167.222,380.332z"/>
		</g>
		<g>
			<g>
				<path style="fill:#421B36;" d="M136.961,329.251c8.165,0.6,16.177,2.665,23.61,6.098c0.995,0.46,1.867-1.018,0.865-1.481
					c-7.724-3.567-15.99-5.709-24.475-6.332C135.86,327.456,135.865,329.171,136.961,329.251L136.961,329.251z"/>
			</g>
		</g>
		<g>
			<g>
				<path style="fill:#421B36;" d="M136.187,341.037c3.721-0.575,7.6,1.091,11.109,2.127c3.603,1.064,7.205,2.129,10.808,3.193
					c1.06,0.313,1.513-1.341,0.456-1.654c-3.885-1.148-7.77-2.295-11.655-3.443c-3.632-1.073-7.332-2.471-11.173-1.877
					C134.644,339.552,135.105,341.204,136.187,341.037L136.187,341.037z"/>
			</g>
		</g>
		<g>
			<g>
				<path style="fill:#421B36;" d="M140.37,347.538c-0.043,1.445-0.087,2.89-0.13,4.336c-0.013,0.449,0.404,0.878,0.857,0.857
					c0.476-0.021,0.843-0.377,0.857-0.857c0.043-1.445,0.087-2.89,0.13-4.336c0.014-0.449-0.404-0.878-0.857-0.857
					C140.751,346.702,140.384,347.057,140.37,347.538L140.37,347.538z"/>
			</g>
		</g>
		<g>
			<g>
				<path style="fill:#421B36;" d="M148.387,354.043c-1.399-2.709-3.982-4.754-6.932-5.516c-0.448-0.116-0.931,0.147-1.055,0.599
					c-0.122,0.442,0.149,0.938,0.599,1.055c2.545,0.658,4.691,2.375,5.907,4.728c0.212,0.411,0.788,0.533,1.173,0.308
					C148.496,354.971,148.6,354.455,148.387,354.043L148.387,354.043z"/>
			</g>
		</g>
		<g>
			<g>
				<path style="fill:#421B36;" d="M147.946,321.949c3.577,0.567,7.129,1.276,10.646,2.142c1.726,0.425,3.443,0.886,5.15,1.383
					c1.412,0.411,4.214,0.812,4.339,2.688c0.073,1.095,1.788,1.103,1.715,0c-0.111-1.673-1.245-2.796-2.74-3.421
					c-1.936-0.81-4.068-1.285-6.094-1.817c-4.14-1.088-8.333-1.959-12.56-2.629C147.322,320.124,146.857,321.776,147.946,321.949
					L147.946,321.949z"/>
			</g>
		</g>
		<g>
			<g>
				<path style="fill:#421B36;" d="M158.328,322.845c0.562-2.104,1.301-4.156,2.228-6.127c0.197-0.419,0.117-0.925-0.308-1.173
					c-0.372-0.218-0.975-0.113-1.173,0.308c-0.99,2.105-1.801,4.289-2.401,6.536c-0.119,0.447,0.15,0.931,0.599,1.055
					C157.719,323.566,158.208,323.294,158.328,322.845L158.328,322.845z"/>
			</g>
		</g>
		<g>
			<g>
				<path style="fill:#421B36;" d="M158.42,317.754c1.456,2.685,3.1,5.264,4.919,7.719c0.275,0.371,0.742,0.559,1.173,0.308
					c0.366-0.214,0.585-0.799,0.308-1.173c-1.819-2.454-3.463-5.033-4.919-7.719C159.374,315.918,157.893,316.783,158.42,317.754
					L158.42,317.754z"/>
			</g>
		</g>
		<g>
			<path style="fill:#FFAE7A;" d="M394.913,147.571c0,0,2.164-19.764-4.039-27.122c-6.203-7.358-12.407-1.443-12.407-1.443
				s-5.915-5.626-12.695-0.721c0,0-11.253-1.731-11.83,5.049c0,0-8.656-0.421-13.994,8.59c-5.338,9.01-3.751,16.079,0.577,16.801
				c4.328,0.721,6.348-9.377,9.666-12.551c3.318-3.174,8.656,1.587,9.089,4.472c0.433,2.885,5.049,10.82,2.164,13.561
				c-2.885,2.741-4.616-2.02-12.407-2.452s-6.492,6.059-4.184,8.079c2.308,2.02,8.375,7.935,16.879,7.502
				c8.505-0.433,11.658-0.605,11.658-0.605s15.023,14.428,15.387,14.29c9.897-3.755,21.572-21.619,21.572-21.619L394.913,147.571z"
				/>
		</g>
		<g>
			<g>
				<path style="fill:#421B36;" d="M353.649,124.195c5.752-0.983,11.457,1.949,14.136,7.091c0.51,0.979,1.991,0.113,1.481-0.866
					c-3.057-5.866-9.583-8.987-16.073-7.879C352.107,122.727,352.568,124.38,353.649,124.195L353.649,124.195z"/>
			</g>
		</g>
		<g>
			<g>
				<path style="fill:#421B36;" d="M364.951,119.222c4.482,0.869,8.399,4.093,9.988,8.397c0.379,1.026,2.037,0.583,1.653-0.456
					c-1.788-4.846-6.092-8.608-11.185-9.595C364.329,117.359,363.867,119.012,364.951,119.222L364.951,119.222z"/>
			</g>
		</g>
		<g>
			<g>
				<path style="fill:#421B36;" d="M377.658,119.694c3.464,1.555,6.024,4.942,6.398,8.75c0.045,0.461,0.362,0.857,0.857,0.857
					c0.429,0,0.903-0.394,0.857-0.857c-0.43-4.382-3.204-8.415-7.247-10.23c-0.422-0.189-0.922-0.122-1.173,0.308
					C377.136,118.887,377.234,119.503,377.658,119.694L377.658,119.694z"/>
			</g>
		</g>
		<g>
			<path style="fill:#8380FF;" d="M301.207,406.534c0,0-1.749,13.872,12.535,18.431c0,0-0.608,12.157,3.343,17.628
				c3.951,5.471,83.277,3.343,89.355-4.863c6.079-8.206-6.873-68.409-15.079-76.311c-8.206-7.902-14.706-24.594-26.559-26.417
				c-4.788-0.737-12.452-0.581-21.25,0.488c-12.982,1.577-28.432,5.141-40.751,10.757c-20.667,9.422-39.815,20.363-39.815,20.363
				s-3.955,24.963,22.795,44.07C287.908,412.2,301.207,406.534,301.207,406.534z"/>
		</g>
		<g style="opacity:0.2;">
			<path style="fill:#421B36;" d="M354.691,378.267c-0.767,0-1.536,0-2.304,0c0.321-0.891,0.218-1.995,1.44-2.118
				c0.339,0.23,0.729,0.497,1.096,0.746C355.127,377.427,355.078,377.879,354.691,378.267z M383.663,378.267c0.11,0,0.22,0,0.33,0
				c0.987,0,1.975,0,2.963,0c0-0.034-0.011-0.058-0.013-0.09l-1.05-1.139c-0.376-0.16-0.783-0.301-1.104-0.52
				C384.231,377.055,383.604,377.43,383.663,378.267z M369.582,376.464c-0.878,0.299-1.689,0.667-1.721,1.803
				c1.097,0,2.194,0,3.291,0C370.776,377.556,370.382,376.859,369.582,376.464z M378.412,377.087
				c-0.694-0.458-1.414-0.464-2.245-0.182c-0.133,0.446-0.268,0.904-0.405,1.362c0.987,0,1.975,0,2.963,0
				C378.619,377.872,378.513,377.477,378.412,377.087z M362.843,377.237c-1.344-0.812-2.461-0.593-2.555,1.03
				c0.877,0,1.756,0,2.634,0C362.894,377.908,362.867,377.548,362.843,377.237z M337.155,355.931
				c1.946,0.531,3.146-1.397,2.635-3.202c-1.985-0.561-3.681,0.282-3.35,1.835c0.154,0.346,0.316,0.689,0.473,1.034
				C336.987,355.707,337.062,355.817,337.155,355.931z M330.577,339.938c0.47-0.325,0.951-0.656,1.471-1.014
				c-0.128-0.732-0.374-1.213-0.671-1.535l-1.574,0.449C330.055,338.54,330.32,339.238,330.577,339.938z M340.267,351.814
				c1.572,0.241,3.791,0.208,3.209-1.985C342.091,347.432,339.564,349.456,340.267,351.814z M343.641,333.888l-3.369,0.962
				c0.262,0.56,0.514,1.019,0.862,1.612C342.68,336.929,344.219,335.327,343.641,333.888z M350.948,344.005
				c0.807-1.518,0.198-4.248-1.863-3.23C347.182,342.057,348.481,344.488,350.948,344.005z M358.326,348.478
				c-0.595,0.225-1.197,0.453-1.771,0.671c-1.595,3.058,1.796,3.777,3.159,1.228C359.443,349.609,359.237,348.831,358.326,348.478z
				 M333.869,348.53c0.39,0.963,0.803,1.915,1.207,2.872C336.362,349.575,335.088,348.531,333.869,348.53z M338.952,347.838
				c1.209-1.137,0.538-2.932-0.967-3.317C334.713,345.386,336.591,348.401,338.952,347.838z M347.461,370.265
				c0.247-2.069-2.975-2.349-3.249-0.613c0.394,0.655,0.804,1.299,1.211,1.946C346.274,371.824,347.278,371.424,347.461,370.265z
				 M335.954,342.469c-0.806-1.107-1.624-1.972-3.094-1.629C330.913,343.407,335.084,345.284,335.954,342.469z M348.25,351.121
				c2.796,2.456,4.723-1.739,1.857-2.592c-0.442,0.445-0.83,0.58-1.512,0.666C348.504,349.924,347.889,350.449,348.25,351.121z
				 M348.916,372.924c-0.672,0.878-0.781,2.865,0.679,2.802C353.42,375.953,350.949,371.072,348.916,372.924z M343.826,342.579
				c-0.193-0.612-0.364-1.161-0.518-1.65c-2.969-0.754-4.357,2.801-0.885,3.172C342.851,343.634,343.293,343.158,343.826,342.579z
				 M345.934,336.65c-1.056,0.448-1.101,0.493-1.536,1.506C343.522,342.16,350.332,339.153,345.934,336.65z M375.687,370.03
				c0.552,0.41,0.171,1.334,1.157,1.729c0.614-0.392,1.115-0.893,1.93-0.751c0.569-0.249,0.682-0.68,0.534-1.111l-0.96-1.041
				C377.47,368.378,376.263,368.428,375.687,370.03z M351.424,366.124c-0.491-1.697-3.025-2.352-3.29-0.181
				C348.156,367.936,350.976,368.552,351.424,366.124z M355.296,345.731c-1.175,0.125-1.58-0.937-2.503-0.202
				C350.029,348.065,356.549,350.046,355.296,345.731z M365.404,375.981c5.042-1.685-1.737-4.973-0.737-2.382
				c-0.214,0.241-0.458,0.514-0.729,0.82C364.331,375.067,364.839,375.526,365.404,375.981z M346.522,344.764
				c-1.725,0.229-2.541,1.273-1.606,2.833c1.858,0.515,2.26,0.262,2.9-1.431C347.395,345.711,346.968,345.247,346.522,344.764z
				 M354.466,368.929c-0.872-0.206-1.842-0.388-2.522,0.63C352.408,373.674,357.363,370.795,354.466,368.929z M345.95,364.136
				c0.332-0.222,0.687-0.462,1.117-0.753C348.408,358.666,341.206,361.526,345.95,364.136z M371.861,374.405
				c0.658,0.547,1.225,1.02,1.828,1.523c2.368-0.855,0.941-2.367-0.14-3.782C372.908,372.945,372.015,373.454,371.861,374.405z
				 M358.161,359.906c1.541-0.542,1.558-2.779-0.382-2.914C355.491,357.556,355.644,360.368,358.161,359.906z M340.26,358.303
				c1.301,3.385,5.149,0.049,2.025-1.605C341.12,357.24,341.12,357.24,340.26,358.303z M362.666,371.635
				c0.279-0.597,0.543-1.165,0.766-1.645C361.677,366.563,357.713,371.342,362.666,371.635z M357.692,367.664
				c0.307-0.11,0.604-0.214,0.837-0.295c0.415-1.01,0.818-1.932-0.217-2.802c-1.171,0.33-2.483,0.317-2.54,1.87
				C356.429,366.855,357.05,367.253,357.692,367.664z M348.275,358.555c0.781,0.75,1.689,0.857,2.693,0.587
				c0.146-0.445,0.28-0.849,0.443-1.348C350.127,355.907,348.124,355.881,348.275,358.555z M343.143,365.321
				c-0.697-0.568-1.261-0.67-1.677-0.49c0.454,0.841,0.922,1.675,1.395,2.505C343.455,366.867,343.672,366.087,343.143,365.321z
				 M368.93,368.611c-0.241,0.414-0.502,0.865-0.726,1.25c0.193,0.673,0.351,1.23,0.517,1.81c1.348-0.07,2.162-0.811,2.773-1.865
				C370.61,368.948,370.61,368.948,368.93,368.611z M360.721,363.78c1.781,0.687,3.113-1.242,1.491-2.46
				c-0.541-0.08-1.119-0.166-1.669-0.249C359.646,362.051,360,362.894,360.721,363.78z M369.671,364.112
				c1.68-0.371,2.146-2.802,0.212-3.129c-0.596,0.225-1.242,0.467-1.961,0.737C368.185,362.968,369.118,363.394,369.671,364.112z
				 M379.818,374.202c0.442,0.832,1.385,0.405,1.908,0.823c0.521-0.279,0.975-0.522,1.546-0.828l-1.467-1.591
				C380.952,372.42,380.072,372.893,379.818,374.202z M355.349,360.862c-1.921-0.736-2.69,0.291-3.188,1.816
				C353.4,364.262,355.426,362.404,355.349,360.862z M354.371,353.635c-0.455-0.082-0.813-0.599-1.439-0.267
				c-0.134,0.386-0.292,0.836-0.464,1.329c0.261,0.525,0.667,0.931,1.22,1.243c0.41-0.142,0.812-0.279,1.19-0.41
				c0.243-0.505,0.466-0.975,0.678-1.42C355.262,353.62,354.785,353.708,354.371,353.635z M337.861,340.449
				c1.663-0.313,1.931-2.872-0.178-2.362c-0.216-0.339-0.38-0.598-0.544-0.856C335.324,338.184,336.848,339.641,337.861,340.449z
				 M363.973,358.686c0.531,0.407,1.074,0.822,1.593,1.22c0.773-0.307,0.776-1.108,1.321-1.46c-0.163-0.484-0.3-0.885-0.464-1.368
				C364.871,356.978,364.394,357.301,363.973,358.686z M374.192,367.769c1.366-0.995-0.193-1.82-0.579-2.781
				C370.618,364.934,371.821,367.537,374.192,367.769z M365.59,364.24c-0.452,0.316-0.848,0.592-1.269,0.887
				c0,0.383,0,0.756,0,1.321C367.744,368.135,367.844,366.255,365.59,364.24z M360.94,355.586c1.111,0.243,2.017-0.022,2.31-1.235
				c-0.462-0.879-1.985-2.065-2.417-0.623C360.499,354.315,359.953,355.318,360.94,355.586z M356.147,374.014
				c0.063,1.273,2.084,1.91,2.804,0.841c-0.234-0.726-0.484-1.491-0.81-2.502C357.35,373.012,356.736,373.524,356.147,374.014z
				 M346.494,355.554c0.777-1.361,0.718-1.978-0.556-2.829c-0.715,0.332-1.224,0.837-1.679,1.616
				C345.271,354.536,345.588,355.642,346.494,355.554z M366.122,367.9c-0.146-0.1-0.163-0.018-0.212,0.107
				C366.014,368.018,366.092,368.017,366.122,367.9z M371.152,378.267c-1.097,0-2.194,0-3.291,0
				c-0.227,1.304,1.222,1.777,2.312,1.706c0.762-0.233,0.922-1.11,1.309-1.706C371.372,378.267,371.262,378.267,371.152,378.267z
				 M378.725,378.267c-0.989,0-1.976,0-2.963,0c-0.11,0-0.22,0-0.33,0c0.402,1.963,3.502,2.19,3.951,0
				C379.164,378.267,378.944,378.267,378.725,378.267z M384.567,379.887c1.958,0.318,2.431-0.188,2.388-1.62
				c-0.988,0-1.976,0-2.963,0C384.011,378.872,384.077,379.46,384.567,379.887z M361.964,379.963
				c0.825-0.326,1.08-0.907,0.958-1.696c-0.877,0-1.756,0-2.634,0c-0.109,0-0.219,0-0.328,0
				C360.651,378.813,361.036,379.737,361.964,379.963z M354.17,379.713c0.316-0.536,0.584-0.991,0.851-1.445c-0.11,0-0.22,0-0.33,0
				c-0.767,0-1.536,0-2.304,0C352.936,378.901,353.628,378.874,354.17,379.713z M387.277,386.218
				c-0.564-1.09-2.278-2.999-3.106-1.184c0.131,1.069-0.015,1.327-0.416,2.368C385.211,388.641,386.799,388.169,387.277,386.218z
				 M374.83,389.159c-1.444-1.648-2.472-0.351-3.288,1.089C372.694,392.637,376.776,391.839,374.83,389.159z M371.466,386.092
				c-1.322-3.079-6.073-0.472-2.572,1.801C370.219,387.809,370.653,386.657,371.466,386.092z M393.06,403.933
				c1.049-0.287,1.539-1.015,1.813-1.974c-0.287-2.957-3.341-1.758-3.18,0.654C392.126,403.094,392.52,403.603,393.06,403.933z
				 M365.838,392.033c0.571-0.56,1.133-1.113,1.716-1.687c-0.998-1.974-2.88-2.383-3.629-0.052
				C364.172,391.434,364.766,392.006,365.838,392.033z M374.641,381.122c-1.864-1.171-2.429,0.215-3.155,1.731
				C373.284,384.509,376.254,383.849,374.641,381.122z M363.949,382.314c0.542,2.073,3.682,2.202,3.12-0.311
				C367.12,379.77,364.192,380.343,363.949,382.314z M398.168,396.704c-0.929-0.42-2.193-0.334-2.559,0.769
				c0.747,2.271,0.86,2.355,3.108,2.165C398.385,398.608,398.791,397.626,398.168,396.704z M359.298,381.332
				c-0.671-0.886-1.652-0.565-2.54-0.29C353.913,382.945,359.564,385.999,359.298,381.332z M400.952,400.6
				c-0.795,0.093-1.516,0.795-1.437,1.874C400.083,401.931,400.565,401.293,400.952,400.6z M390.901,382.583
				c-0.177-0.242-0.312-0.425-0.434-0.582l-0.539-0.585c-0.235-0.198-0.524-0.376-1.048-0.693
				C385.858,383.034,389.775,386.162,390.901,382.583z M379.126,394.185c-0.743-2.041-2.938-2.314-3.302,0.098
				C376.567,396.27,378.405,396.174,379.126,394.185z M394.798,395.305c0.238-0.946-0.339-1.531-0.731-2.402
				c-1.086-0.371-2.5-0.273-2.623,1.294c0.512,0.498,1.084,1.056,1.633,1.591C393.738,395.602,394.293,395.447,394.798,395.305z
				 M381.457,380.751c-0.608,0.167-1.119,0.307-1.598,0.438c-0.271,1.89,0.044,2.045,1.737,2.384
				c0.521-0.338,1.143-0.742,1.759-1.141C383.237,381.109,382.078,381.219,381.457,380.751z M396.898,388.976
				c-1.143,0.548-1.196,1.099-0.498,2.548c1.059,0.293,1.918-0.013,2.343-0.547L396.898,388.976z M379.015,385.768
				c-0.806-0.817-1.703-0.983-2.698-0.688c-1.131,1.827-0.102,2.303,1.492,2.781C378.962,387.98,378.76,386.628,379.015,385.768z
				 M380.964,388.582c-0.387,0.384-0.797,0.789-1.207,1.195c0.312,0.596,0.576,1.102,0.898,1.716
				C383.449,392.209,383.805,388.731,380.964,388.582z M382.908,398.96c0.503-1.327-0.774-2.867-2.02-2.35
				C378.83,397.992,381.051,400.337,382.908,398.96z M392.078,386.438c0.713,0.329,0.206,0.809,0.134,1.294
				c0.381,0.161,0.768,0.324,1.096,0.461c0.764-0.418,1.203-1.044,1.351-1.645l-1.573-1.706c-0.255,0.036-0.534,0.108-0.847,0.241
				C392.178,385.598,392.128,386.017,392.078,386.438z M400.912,395.496c0.316-0.105,0.623-0.207,0.918-0.305
				c-0.223-0.909-0.662-1.741-1.351-2.414c-0.381,0.275-0.677,0.63-0.991,1.069C399.997,394.436,400.432,394.941,400.912,395.496z
				 M387.333,394.23c-0.332-0.604-0.753-0.991-1.19-1.261c-0.565,0.059-1.034,0.107-1.546,0.158
				c-0.291,0.314-0.713,0.645-0.849,1.085C385.21,395.814,385.637,395.883,387.333,394.23z M377.972,400.742
				c-0.284,0.07-0.541,0.148-0.775,0.232c0.681,0.309,1.37,0.599,2.063,0.881C378.953,401.411,378.574,400.997,377.972,400.742z
				 M368.295,393.78c-0.379,2.35,1.907,2.314,2.84,1.108C371.205,393.07,369.389,392.806,368.295,393.78z M361.605,387.578
				c0.67-0.273,1.267-0.51,1.739-1.474c-0.844-0.1-0.924-0.626-0.825-1.28c-0.552-0.908-2.091,0.693-2.136,1.584
				C360.692,386.849,361.154,387.25,361.605,387.578z M388.196,397.101c-0.047,0.411-0.083,0.734-0.139,1.23
				c0.865,0.26,1.633,1.15,2.475,0.879c-0.007-0.372-0.285-0.758-0.04-1.195C390.956,396.56,389.024,396.19,388.196,397.101z
				 M374.029,396.675c-0.602,0.766-0.986,1.069-1.862,1.395c0.107,0.2,0.226,0.37,0.35,0.528c0.431,0.244,0.87,0.473,1.307,0.706
				C375.289,398.926,375.631,397.578,374.029,396.675z M389.461,388.943c-3.892,0.475-0.127,3.831,1.155,1.195
				C390.223,389.732,389.852,389.349,389.461,388.943z M386.524,402.209c-0.875-1.414-2.688-0.619-2.087,1.01
				C385.179,402.65,385.99,403.027,386.524,402.209z"/>
		</g>
		<g>
			<g>
				<path style="fill:#421B36;" d="M288.412,412.295c13.595-4.375,27.008-9.295,40.207-14.75c1.005-0.416,0.565-2.075-0.456-1.654
					c-13.199,5.455-26.612,10.376-40.207,14.75C286.91,410.978,287.357,412.634,288.412,412.295L288.412,412.295z"/>
			</g>
		</g>
		<g>
			<g>
				<path style="fill:#421B36;" d="M327.307,398.03c1.699,1.569,3.111,3.247,4.335,5.151c0.242,0.377,0.773,0.566,1.173,0.308
					c0.377-0.243,0.567-0.77,0.307-1.173c-1.296-2.016-2.842-3.872-4.603-5.498c-0.33-0.304-0.891-0.35-1.212,0
					C327.004,397.149,326.956,397.706,327.307,398.03L327.307,398.03z"/>
			</g>
		</g>
		<g>
			<path style="fill:#421B36;" d="M392.479,116.346c0,0-66.22,38.304-69.249,40.684c-3.03,2.38-3.812,7.133-3.812,7.133
				s6.638,1.922,9.451,0c2.813-1.922,67.506-37.863,68.155-41.109C397.673,119.808,396.591,115.697,392.479,116.346z"/>
		</g>
		<g>
			<path style="fill:#421B36;" d="M383.161,257.187c5.751,12.302,4.867,26.199,4.451,37.833c9.341-0.685,19.103-1.125,27.684,2.629
				c8.581,3.754,15.497,13.018,13.428,22.153c-0.423,1.866-1.196,3.791-0.66,5.627c0.587,2.007,2.534,3.239,4.243,4.444
				c5.893,4.158,10.502,10.112,13.05,16.86c5.831,15.442-0.091,34.047-12.741,44.649c-5.922,4.963-13.492,8.417-21.198,7.851
				c-10.24-0.752-18.581-8.169-26.068-15.194c-13.319-12.497-26.638-24.995-39.957-37.492c-3.904-3.663-8.009-7.444-13.147-8.946
				l-23.025,6.027c5.61-12.269,18.073-21.12,31.505-22.373c0,0-9.076-24.423,9.67-31.959L383.161,257.187z"/>
		</g>
		<g>
			<g>
				<g>
					<g>
						<path style="fill:#FFAE7A;" d="M355.818,288.297c1.17-2.759,1.406-6.081-0.108-8.668c-1.514-2.587-10.906-6.531-14.447-0.27
							l-0.208,15.902c2.484,0.534,7.816,0.159,9.969-1.19C353.178,292.723,354.826,290.637,355.818,288.297z"/>
					</g>
				</g>
			</g>
			<g>
				<g>
					<g>
						<g>
							<path style="fill:#421B36;" d="M339.48,286.365c0.795-0.041,1.624,0.225,2.459,0.153c1.048-0.091,2.096-0.232,3.144-0.329
								c1.951-0.181,4.094,0.107,5.99-0.301c1.434-0.308,0.854-2.185-0.207-2.503c-1.861-0.557-4.626,0.092-6.482,0.429
								c-1.023,0.186-2.118,0.387-3.087,0.77c-0.847,0.335-1.276,0.907-1.95,1.405C339.18,286.112,339.271,286.376,339.48,286.365
								L339.48,286.365z"/>
						</g>
					</g>
				</g>
			</g>
		</g>
		<g>
			<path style="fill:#421B36;" d="M379.167,260.8c-0.324-5.748,2.181-11.589,6.569-15.317c4.388-3.728,10.557-5.255,16.177-4.006
				c4.124,0.917,7.982,3.35,10.198,6.947c2.216,3.597,2.607,8.37,0.605,12.09c-2.002,3.72-6.496,6.062-10.624,5.163
				c1.841,0.521,3.738,1.07,5.224,2.275c1.486,1.206,2.463,3.253,1.845,5.064c-0.679,1.986-3.041,2.98-5.131,2.78
				c-2.09-0.199-3.968-1.307-5.767-2.387c0.888,1.413,1.801,2.901,1.921,4.565c0.119,1.664-0.852,3.535-2.495,3.823
				c-1.383,0.242-2.687-0.659-3.76-1.564c-2.904-2.448-5.475-5.29-7.621-8.423"/>
		</g>
	</g>
</g>
</svg>
