<?xml version="1.0" encoding="utf-8"?>
<!-- Generator: Adobe Illustrator 27.5.0, SVG Export Plug-In . SVG Version: 6.00 Build 0)  -->
<svg version="1.1" xmlns="http://www.w3.org/2000/svg" xmlns:xlink="http://www.w3.org/1999/xlink" x="0px" y="0px"
	 viewBox="0 0 500 500" style="enable-background:new 0 0 500 500;" xml:space="preserve">
<g id="BACKGROUND">
	<g>
		<rect style="fill:#CC3B50;" width="500" height="500"/>
		<rect style="fill:#459DD8;" width="250" height="500"/>
		<circle style="opacity:0.1;fill:#3E3D5E;" cx="250" cy="250" r="170.836"/>
	</g>
</g>
<g id="OBJECTS">
	<g>
		<g>
			<polygon style="fill:#EDB29A;" points="197.652,361.283 202.652,359.171 203.43,363.449 			"/>
			<g>
				<g>
					<polygon style="fill:#535284;" points="256.95,500 291.191,500 291.191,396.235 253.95,396.235 					"/>
				</g>
				<path style="fill:#535284;" d="M269.281,374.696h-36.265c-17.591,0-31.984,12.184-31.984,27.076v0
					c0,14.892,14.392,27.076,31.984,27.076h36.265c17.591,0,31.984-12.184,31.984-27.076l0,0
					C301.265,386.881,286.872,374.696,269.281,374.696z"/>
				<g>
					<polygon style="fill:#535284;" points="210.183,500 244.424,500 247.424,396.235 210.183,396.235 					"/>
				</g>
			</g>
			<g>
				<path style="fill:#231E2D;" d="M322.416,241.966l-55.91-23.813l-15.358,11.608l-15.358-11.608l-55.91,23.813
					c0,0,5.522,38.653,23.468,89.731l-6.212,74.307h39.689h5.577l7.709-29.63l9.246,29.63h6.113h39.689l-6.212-74.307
					C316.894,280.62,322.416,241.966,322.416,241.966z"/>
				<g>
					<g>
						<g>
							<path style="fill:#EDB29A;" d="M269.624,197.845l-0.013,19.836c-0.007,10.836-8.797,19.614-19.632,19.607l0,0
								c-10.835-0.007-19.614-8.796-19.607-19.632l0.012-19.837L269.624,197.845z"/>
							<path style="fill:#D88D87;" d="M269.618,206.116c-14.032,12.225-27.127,17.25-37.837,18.855
								c-0.908-2.261-1.411-4.728-1.409-7.314l0.013-19.837l39.239,0.025L269.618,206.116z"/>
						</g>
					</g>
					<path style="fill:#EDB29A;" d="M205.005,152.539c-0.021,32.54,18.874,58.931,45.899,58.949
						c27.025,0.017,45.954-26.349,45.975-58.89c0.021-32.54-18.882-46.948-45.907-46.965
						C223.948,105.615,205.026,119.999,205.005,152.539z"/>
					<path style="fill:#D88D87;" d="M291.588,135.116c-4.688-22.899-17.743-29.468-40.616-29.483
						c-17.663-0.011-31.861,6.133-39.587,19.473C239.366,146.116,278.603,148.967,291.588,135.116z"/>
					<path style="fill:#5B4433;" d="M295.357,110.096c-1.382-23.75-27.213-24.869-27.213-24.869l4,10.667
						c0,0-8.222-9.556-29.111-9.778l7.111,8.222c0,0-64.222-6.222-45.111,67.333c14-9.778,10.667-35.778,10.667-35.778
						s49.524,15.091,70.405,4.108c-1.594,18.152,9.373,28.114,9.373,28.114C302.777,147.076,304.787,122.924,295.357,110.096z"/>
					<path style="fill:#6D513E;" d="M295.357,110.096c-0.201-3.456-0.931-6.42-2.013-8.984
						c-7.258,11.91-21.623,25.996-46.533,16.115c-12.625-5.008-23.833-8.893-33.261-11.868c-3.248,2.966-6.102,6.706-8.217,11.428
						c26.518-0.836,72.931,21.029,93.668,0.165C298.057,114.448,296.852,112.129,295.357,110.096z"/>
					<g>
						<g>
							<path style="fill:#231E2D;" d="M262.712,159.301c-0.002,3.204,2.594,5.803,5.798,5.806c3.204,0.002,5.804-2.594,5.806-5.798
								c0.002-3.205-2.594-5.804-5.798-5.806C265.314,153.501,262.714,156.096,262.712,159.301z"/>
							<path style="fill:#231E2D;" d="M227.981,159.278c-0.002,3.204,2.594,5.803,5.798,5.805c3.204,0.002,5.804-2.594,5.806-5.798
								c0.002-3.204-2.594-5.803-5.798-5.806C230.583,153.478,227.983,156.074,227.981,159.278z"/>
						</g>
						<path style="fill:#D88D87;" d="M247.723,152.302l4.474,14.771l9.099-0.653c0,0-0.006,8.834-7.919,10.675l3.961-7.316
							l-8.044,1.248L247.723,152.302z"/>
					</g>
					<g>
						<g>
							<path style="fill:#EDB29A;" d="M216.008,164.275c1.385,8.547-2.121,16.353-7.832,17.437
								c-5.711,1.083-11.464-4.967-12.85-13.513c-1.386-8.547,2.121-16.354,7.832-17.437
								C208.869,149.678,214.622,155.728,216.008,164.275z"/>
							<path style="fill:#D88D87;" d="M209.969,165.134c0.872-0.166,1.745-0.069,2.584,0.231c-0.019-0.142-0.031-0.282-0.054-0.425
								c-0.915-5.646-4.716-9.643-8.489-8.927c-3.773,0.716-6.09,5.873-5.174,11.519c0.704,4.341,3.115,7.697,5.905,8.697
								C204.006,170.751,206.291,165.831,209.969,165.134z"/>
						</g>
						<g>
							<path style="fill:#EDB29A;" d="M286.29,164.32c-1.397,8.545,2.1,16.356,7.81,17.447c5.71,1.091,11.47-4.952,12.867-13.496
								c1.397-8.545-2.1-16.357-7.81-17.447S287.686,155.775,286.29,164.32z"/>
							<path style="fill:#D88D87;" d="M292.328,165.187c-0.872-0.167-1.745-0.071-2.584,0.228c0.019-0.142,0.032-0.282,0.055-0.425
								c0.922-5.645,4.728-9.637,8.501-8.917c3.772,0.721,6.082,5.881,5.159,11.526c-0.709,4.34-3.124,7.693-5.917,8.689
								C298.283,170.811,296.005,165.889,292.328,165.187z"/>
						</g>
					</g>
					<path style="fill:#352A23;" d="M224.403,155.227l17.333-5.185c0,0-2.963-5.778-8.296-3.259
						C228.107,149.301,224.551,152.857,224.403,155.227z"/>
					<path style="fill:#352A23;" d="M280.292,148.783l-17.333-5.185c0,0,2.963-5.778,8.296-3.259
						C276.588,142.857,280.144,146.412,280.292,148.783z"/>
					<path style="fill:#BA7B78;" d="M243.403,188.783c11.704-9.852,17.926-6.963,20.889-3.704L243.403,188.783z"/>
				</g>
				<path style="fill:#3E384C;" d="M295.639,247.882l0.192-0.944l-14.138,6.185l1.75-6.22l-0.031-0.127
					c-1.795-7.441-9.426-22.166-11.661-26.39l-1.465-0.624c0.429,0.798,10.057,18.779,12.124,27.123l-2.25,8.001l14.286-6.249
					c-1.615,6.889-12.684,49.297-44.815,72.934c-32.122-23.631-43.197-66.044-44.814-72.934l14.285,6.249l-2.25-8.001
					c2.096-8.472,11.382-25.357,11.477-25.527l-0.027-0.015l-1.438,0.613c-2.117,3.922-9.225,17.402-11.015,24.821l-0.031,0.127
					l1.75,6.22l-14.137-6.185l0.192,0.944c0.098,0.485,10.249,48.674,45.471,74.541v57.867l1-3.844v-53.965
					C285.376,296.627,295.54,248.367,295.639,247.882z"/>
				<path style="fill:#FFFFFF;" d="M228.339,219.847c0,0-10.227,41.491,21.328,102.38c0,0,29.568-44.929,20.784-102.353
					l-21.08,12.65L228.339,219.847z"/>
				<path style="fill:#535284;" d="M263.336,241.817c-7.754-7.754-20.325-7.754-28.079,0h0l14.04,14.04L263.336,241.817
					L263.336,241.817z"/>
				<path style="fill:#535284;" d="M237.359,294.132c3.147,8.789,7.171,18.183,12.308,28.095c0,0,6.332-9.627,12.265-25.657
					l-12.635-44.125L237.359,294.132z"/>
				<path style="fill:#DACEEA;" d="M228.339,219.847c0,0-1.338,13.714,10.81,29.417l10.296-11.704l10.444,11.444
					c0,0,13.124-13.188,10.562-29.131l-21.08,12.65L228.339,219.847z"/>
				<polygon style="fill:#3E384C;" points="209.297,349.135 235.667,349.374 234.354,356.652 210.371,356.175 				"/>
				<polygon style="fill:#3E384C;" points="267.519,349.135 293.889,349.374 292.577,356.652 268.593,356.175 				"/>
			</g>
			<path style="fill:#231E2D;" d="M322.416,241.966c0,0,29.591,57.331,17.561,83.483l-26.944-50.222L322.416,241.966z"/>
			<g>
				<g>
					<path style="fill:#EDB29A;" d="M279.701,208.112c0,0-4.242-2.86-5.449-6.206c0,0-5.883,3.432-2.026,10.748l-20.236-20.828
						c-1.245-1.282-3.314-1.246-4.514,0.078l0,0c-1.037,1.144-1.072,2.878-0.082,4.064l11.652,13.951c0,0-9.186,12.224-9.042,15.179
						c0.144,2.955,10.589,14.83,11.885,14.842c1.296,0.012,5.821-0.993,5.821-0.993l5.253,6.738l13.042-12.988l-4.379-6.463
						C281.626,226.234,288.105,214.175,279.701,208.112z"/>
					<path style="fill:none;stroke:#D88D87;stroke-miterlimit:10;" d="M279.701,208.112c0,0-4.242-2.86-5.449-6.206
						c0,0-5.883,3.432-2.026,10.748l-20.236-20.828c-1.245-1.282-3.314-1.246-4.514,0.078l0,0c-1.037,1.144-1.072,2.878-0.082,4.064
						l11.652,13.951c0,0-9.186,12.224-9.042,15.179c0.144,2.955,10.589,14.83,11.885,14.842c1.296,0.012,5.821-0.993,5.821-0.993
						l5.253,6.738l13.042-12.988l-4.379-6.463C281.626,226.234,288.105,214.175,279.701,208.112z"/>
				</g>
				<polygon style="fill:#FFFFFF;" points="271.979,249.781 266.645,241.707 288.56,228.234 294.028,237.302 				"/>
				<g>
					<path style="fill:#231E2D;" d="M339.991,325.45c0.021,0.047,0.001,0.101-0.046,0.123l-7.218,3.291
						c-11.716,5.342-25.544,0.174-30.886-11.542l-34.308-70.242l28.517-13.001L339.991,325.45z"/>
					<g>
						<path style="fill:#3E384C;" d="M325.662,330.824c-4.412,0.924-9.188,0.196-13.279-1.847c-4.101-2.034-7.61-5.273-9.921-9.237
							c-0.593-0.981-1.066-2.036-1.561-3.028l-1.482-3.012l-2.965-6.024l-5.929-12.048l-11.771-24.139l-11.67-24.188l-0.001-0.002
							l-0.225-0.462l0.467-0.213l28.515-13.001l0.001-0.001l0.435-0.205l0.221,0.44c2.701,5.363,5.431,10.71,8.073,16.102
							c2.674,5.375,5.313,10.768,7.925,16.174c2.626,5.399,5.259,10.795,7.806,16.232c2.576,5.424,5.061,10.892,7.45,16.407
							c-2.895-5.267-5.694-10.581-8.402-15.94c-2.736-5.345-5.387-10.732-8.045-16.115c-2.672-5.376-5.317-10.766-7.926-16.173
							c-2.642-5.391-5.195-10.826-7.779-16.245l0.656,0.235l-0.001,0.001l-28.515,13.001l0.242-0.674l0.001,0.002l11.905,24.08
							l11.804,24.129l5.858,12.085l2.929,6.043l1.465,3.021c0.497,1.013,0.937,2.007,1.498,2.947c2.183,3.787,5.511,6.89,9.42,8.854
							C316.776,329.997,321.175,330.897,325.662,330.824z"/>
					</g>
				</g>
			</g>
			<g>
				<path style="fill:#EDB29A;" d="M202.952,381.533l-3.773-3.602c0,0-3.444,1.962-8.394,1.221c-0.696-0.137-1.393-0.287-2.051-0.45
					c-2.285-0.664-4.799-1.938-7.392-4.201c-0.615-0.537-1.193-0.943-1.74-1.244c-0.767-0.625-1.269-1.052-1.269-1.052l13.58-16.928
					l3.907,3.534l16.566,3.298c0,0,7.375,5.574,10.162,10.762c0.175,0.326,2.136,5.592,1.972,6.046
					c-0.43,1.192-2.679,1.489-3.021,0.268c-0.381-1.363-2.511-5.842-2.511-5.842l-7.118-5.917l6.646,9.476l1.313,7.253
					c0.047,0.697-0.258,1.366-0.805,1.8l-0.036,0.029c-1.286,1.018-3.189,0.215-3.357-1.416l-0.524-5.093l-8.94-9.326l6.946,9.905
					l0.183,6.654c0.035,1.262-0.923,2.33-2.181,2.433l-0.04,0.003c-1.353,0.111-2.527-0.936-2.56-2.294
					c-0.065-2.693-0.032-5.382-0.032-5.382l-6.367-8.683l4.952,9.326l-0.388,4.078c-0.124,1.3-1.549,2.079-2.685,1.434
					c-0.011-0.006-0.022-0.013-0.033-0.019c-0.574-0.328-0.945-0.923-0.953-1.583L202.952,381.533z"/>
				<polygon style="fill:#FFFFFF;" points="174.819,370.634 186.523,379.227 200.218,358.634 189.708,351.671 				"/>
				<path style="fill:#231E2D;" d="M179.881,241.966c0,0-47.145,73.705-47.589,84.372c-0.444,10.667,3.556,18.667,3.556,18.667
					l44.972,30.222l17.037-20.741c0,0-30.157-24.741-29.268-26.519c0.889-1.778,28.148-37.63,28.148-37.63
					S190.581,254.039,179.881,241.966z"/>
			</g>
		</g>
		<g>
			<g>
				<path style="fill:#D3EFEF;" d="M129.283,122.649c14.211-21.055-8.897-35.399-16.701-41.104
					c-7.804-5.705-6.871-24.605-6.871-24.605S95.2,57.808,95.493,68.67l-2.119-3.378c0,0-6.505,4.216-4.314,13.661l-2.613-2.354
					c0,0-5.768,5.214-1.599,13.588l-3.206-1.6c0,0-3.73,7.918,2.646,14.951l-2.87,0.035c0,0,1.314,11.029,10.809,14.327
					l-1.285,0.912c0,0,3.426,9.746,17.195,9.263L129.283,122.649z"/>
				<path style="fill:#C0E2E1;" d="M110.709,114.639c4.178-3.221,8.437,3.758,8.437,3.758c2.718-8.518,2.942-19.335-5.389-23.829
					c-8.331-4.494-8.949-9.061-8.949-9.061c-2.207,2.58-1.388,5.906-1.388,5.906s-9.217-9.281,2.266-34.471
					c-0.521,0.05-10.478,1.15-10.193,11.728l-2.119-3.378c0,0-6.505,4.216-4.314,13.661l-2.613-2.354c0,0-5.768,5.214-1.599,13.588
					l-3.206-1.6c0,0-3.73,7.918,2.646,14.951l-2.87,0.035c0,0,1.314,11.029,10.809,14.327l-1.285,0.912
					c0,0,3.426,9.746,17.195,9.263l1.478-0.379C108.882,124.807,107.354,117.226,110.709,114.639z"/>
			</g>
			<g>
				<path style="fill:#D3EFEF;" d="M118.235,118.993c4.445-25.01-22.494-28.744-31.942-30.792
					C76.845,86.153,70.029,68.5,70.029,68.5s-9.255,5.059-4.58,14.867l-3.307-2.228c0,0-4.235,6.493,1.6,14.236l-3.344-1.091
					c0,0-3.156,7.106,4.052,13.068l-3.58-0.161c0,0-0.197,8.751,8.485,12.591l-2.608,1.197c0,0,5.676,9.547,15.692,8.708
					l-0.804,1.356c0,0,7.086,7.517,19.474,1.49L118.235,118.993z"/>
				<path style="fill:#C0E2E1;" d="M98.009,119.208c2.511-4.639,9.236,0.011,9.236,0.011c-0.972-8.888-5.156-18.866-14.594-19.593
					c-9.438-0.728-11.855-4.65-11.855-4.65c-0.97,3.254,1.128,5.962,1.128,5.962s-12.19-4.743-11.916-32.425
					c-0.456,0.257-9.111,5.303-4.558,14.855l-3.307-2.228c0,0-4.235,6.493,1.6,14.236l-3.344-1.091c0,0-3.156,7.106,4.052,13.068
					l-3.58-0.161c0,0-0.197,8.751,8.485,12.591l-2.608,1.197c0,0,5.676,9.547,15.692,8.708l-0.804,1.356
					c0,0,7.086,7.517,19.474,1.49l1.197-0.946C100.464,129.243,95.992,122.934,98.009,119.208z"/>
			</g>
			<g>
				<g>
					<path style="fill:none;stroke:#EDB29A;stroke-width:6;stroke-miterlimit:10;" d="M127.346,124.459
						c16.051,30.112,37.5-0.724,37.5-0.724"/>
				</g>
				<path style="fill:#FFFFFF;" d="M125.715,131.141l9.426-5.035l-3.233-6.012c-1.505-2.799-5.051-3.762-7.765-2.107l0,0
					c-2.624,1.599-3.446,5.029-1.831,7.644L125.715,131.141z"/>
				<path style="fill:#EDB29A;" d="M162.372,123.547c-3.476-4.232-0.921-8.74-0.921-8.74s1.367-0.066,2.629,2.646
					c0,0,1.147-6.7,3.997-7.249c2.85-0.549,6.162,3.468,4.7,9.687c-1.462,6.218-6.066,6.613-6.066,6.613L162.372,123.547z"/>
			</g>
			<polyline style="fill:none;stroke:#EDB29A;stroke-width:7;stroke-miterlimit:10;" points="114.106,152.26 113.529,177.769 
				100.348,203.957 			"/>
			<g>
				<g>
					<g>
						<path style="fill:#336FC4;" d="M90.082,214.955c0,0,7.144,7.302,19.513,7.748c0.768,0.028,1.472-0.461,1.674-1.203
							c0.433-1.597,0.446-4.361-3.821-5.861c-5.281-1.856-8.172-7.99-11.297-7.52C93.027,208.59,89.875,211.579,90.082,214.955z"/>
					</g>
				</g>
				<g>
					<g>
						<path style="fill:#336FC4;" d="M99.818,213.035l5.811-10.26c0,0-4.73-0.445-8.249-3.55l-6.649,13.034
							C90.73,212.259,95.01,216.058,99.818,213.035z"/>
					</g>
				</g>
				<g>
					<path style="fill:#FEFFFF;" d="M108.881,216.27c0,0-2.559-0.56-4.285,4.32c0,0-7.452-1.539-14.309-7.443
						c0,0-0.672,1.072-0.426,2.198c0,0,4.596,4.069,10.939,5.967c4.813,1.44,7.89,2.188,9.268,2.286
						c0.41,0.029,1.149-0.594,1.277-0.984C111.82,221.18,112.505,217.743,108.881,216.27z"/>
				</g>
				<g>
					<path style="fill:#FEFFFF;" d="M96.825,210.231c-0.598,1.242-1.708,1.949-2.478,1.578c-0.77-0.371-0.909-1.679-0.311-2.921
						c0.598-1.242,1.708-1.949,2.478-1.578C97.284,207.681,97.423,208.989,96.825,210.231z"/>
				</g>
			</g>
			<polyline style="fill:none;stroke:#EDB29A;stroke-width:7;stroke-miterlimit:10;" points="99.039,150.902 95.266,180.402 
				82.084,206.591 			"/>
			<path style="fill:#C0E2E1;" d="M100.341,155.765l9.308,2.609c4.875,1.366,9.934-1.478,11.3-6.353l2.04-7.278l-26.961-7.556
				l-2.04,7.278C92.622,149.34,95.466,154.399,100.341,155.765z"/>
			<g>
				<path style="fill:#FFFFFF;" d="M94.157,141.541l27.987,7.844l6.171-22.019c1.811-6.46-1.959-13.165-8.419-14.976l-4.592-1.287
					c-6.46-1.811-13.165,1.959-14.976,8.419L94.157,141.541z"/>
				<g>
					<g>
						<path style="fill:#EDB29A;" d="M135.497,102.127c-0.447,1.594-2.1,2.523-3.694,2.077c-1.593-0.447-2.523-2.1-2.077-3.694
							c0.447-1.593,2.101-2.523,3.694-2.076C135.014,98.88,135.943,100.534,135.497,102.127z"/>
						<path style="fill:#D88D87;" d="M134.111,101.739c-0.232,0.828-1.091,1.311-1.919,1.079c-0.828-0.232-1.311-1.091-1.079-1.919
							c0.232-0.828,1.091-1.311,1.919-1.079C133.86,100.052,134.343,100.911,134.111,101.739z"/>
					</g>
					<g>
						<path style="fill:#EDB29A;" d="M117.053,115.449l-0.43-0.096c-2.002-0.447-3.273-2.451-2.826-4.452l0.684-3.062
							c0.447-2.001,2.451-3.273,4.452-2.826l0.43,0.096c2.001,0.447,3.273,2.451,2.826,4.452l-0.684,3.062
							C121.058,114.625,119.054,115.896,117.053,115.449z"/>
					</g>
					<path style="fill:#D88D87;" d="M119.55,105.151l-0.803-0.179c-1.899-0.424-3.8,0.782-4.224,2.681l-0.668,2.99
						c2.17,2.414,4.55,3.449,6.768,3.754c0.398-0.438,0.703-0.971,0.841-1.587l0.768-3.435
						C122.655,107.476,121.449,105.575,119.55,105.151z"/>
					<g>
						<path style="fill:#EDB29A;" d="M119.862,111.482l-1.358-0.364c-7.104-1.903-11.359-9.273-9.456-16.377l1.138-4.249
							c1.484-5.541,7.232-8.859,12.773-7.375l4.201,1.125c5.541,1.485,8.86,7.232,7.375,12.773l-1.9,7.092
							C131.151,109.648,125.403,112.966,119.862,111.482z"/>
					</g>
					<path style="fill:#5B4433;" d="M108.227,93.611c-0.118-10.944,4.119-18.475,20.593-11.532l-0.824-5.178
						c0,0,4.119,3.295,4.354,7.649l4.119-7.884c0,0,8.355,9.649-2.471,21.887l-0.314-5.57c0,0-9.924,2.805-18.455-6.256
						C115.229,86.727,114.817,94.611,108.227,93.611z"/>
					<g>
						<path style="fill:#EDB29A;" d="M110.794,95.448c-0.447,1.594-2.1,2.523-3.694,2.077c-1.593-0.447-2.523-2.1-2.077-3.694
							c0.447-1.593,2.101-2.523,3.694-2.076C110.311,92.201,111.241,93.855,110.794,95.448z"/>
						<path style="fill:#D88D87;" d="M109.408,95.059c-0.232,0.828-1.091,1.311-1.919,1.079c-0.828-0.232-1.311-1.091-1.079-1.919
							c0.232-0.828,1.091-1.311,1.919-1.079C109.157,93.373,109.64,94.232,109.408,95.059z"/>
					</g>
					<g>
						<g>
							<g>
								<g>
									<path style="fill:#393F44;" d="M119.786,95.91c-0.257,0.671,0.079,1.422,0.749,1.679s1.422-0.079,1.679-0.749
										c0.257-0.671-0.079-1.422-0.749-1.679C120.795,94.904,120.043,95.239,119.786,95.91z"/>
								</g>
							</g>
							<g>
								<g>
									<path style="fill:#393F44;" d="M127.884,98.179c-0.257,0.671,0.079,1.422,0.75,1.679c0.671,0.257,1.422-0.079,1.679-0.749
										c0.257-0.671-0.079-1.422-0.749-1.679C128.892,97.173,128.14,97.509,127.884,98.179z"/>
								</g>
							</g>
							<g>
								<path style="fill:#D88D87;" d="M125.067,102.628c0.088,0.034,0.19,0.031,0.281-0.016c0.719-0.376,1.098-0.851,1.126-1.409
									c0.042-0.842-0.747-1.548-1.123-1.835l0.389-2.658c0.027-0.187-0.103-0.359-0.289-0.388
									c-0.187-0.027-0.361,0.102-0.388,0.289l-0.451,3.078l0.181,0.12c0.287,0.19,1.026,0.806,0.997,1.36
									c-0.015,0.3-0.271,0.581-0.76,0.837c-0.167,0.088-0.232,0.294-0.144,0.462C124.926,102.544,124.992,102.599,125.067,102.628
									z"/>
							</g>
						</g>
						<g>
							<path style="fill:#393F44;" d="M118.985,101.745l7.234,3.379c0,0-1.93,3.301-5.585,1.642
								C117.42,105.306,118.985,101.745,118.985,101.745z"/>
							<path style="fill:#FF839E;" d="M120.394,104.139c-0.612-0.487-1.205-0.771-1.765-0.92c-0.112,1.155,0.145,2.702,2.006,3.547
								c0.375,0.17,0.727,0.277,1.066,0.352C121.809,106.169,121.57,105.076,120.394,104.139z"/>
							<path style="fill:#FFFFFF;" d="M118.985,101.745c0.851,3.888,4.854,4.586,7.234,3.379L118.985,101.745z"/>
						</g>
					</g>
					<g>
						<path style="fill:#352A23;" d="M122.074,90.852c-1.622,0.437-2.798,1.254-2.959,1.911l5.12-0.578
							C124.235,92.184,123.696,90.415,122.074,90.852z"/>
						<path style="fill:#352A23;" d="M130.813,93.295c-1.195-1.181-2.537,0.091-2.537,0.091l4.166,3.032
							C132.626,95.768,132.007,94.476,130.813,93.295z"/>
					</g>
				</g>
			</g>
			<g>
				<g>
					<g>
						<path style="fill:#336FC4;" d="M71.819,217.589c0,0,7.144,7.303,19.513,7.748c0.768,0.028,1.472-0.461,1.674-1.203
							c0.433-1.596,0.446-4.361-3.821-5.861c-5.281-1.856-8.172-7.99-11.297-7.52C74.764,211.223,71.612,214.212,71.819,217.589z"/>
					</g>
				</g>
				<g>
					<g>
						<path style="fill:#336FC4;" d="M81.555,215.669l5.811-10.261c0,0-4.73-0.445-8.249-3.55l-6.649,13.034
							C72.467,214.892,76.746,218.691,81.555,215.669z"/>
					</g>
				</g>
				<g>
					<path style="fill:#FEFFFF;" d="M90.618,218.903c0,0-2.559-0.56-4.285,4.32c0,0-7.452-1.539-14.309-7.443
						c0,0-0.672,1.072-0.425,2.198c0,0,4.675,3.822,10.939,5.966c4.827,1.653,8.042,2.222,9.42,2.32
						c0.409,0.029,0.997-0.627,1.125-1.017C93.556,223.814,94.241,220.376,90.618,218.903z"/>
				</g>
				<g>
					<path style="fill:#FEFFFF;" d="M78.562,212.864c-0.598,1.242-1.708,1.949-2.478,1.578c-0.77-0.371-0.909-1.679-0.311-2.921
						c0.598-1.242,1.708-1.949,2.478-1.578C79.021,210.314,79.16,211.622,78.562,212.864z"/>
				</g>
			</g>
			<g>
				<path style="fill:none;stroke:#EDB29A;stroke-width:6;stroke-miterlimit:10;" d="M105.815,115.504
					c-40.093,5.165-40.803,11.707-27.049,28.369"/>
				<path style="fill:#FFFFFF;" d="M95.586,111.514l1.064,10.634l6.79-0.698c3.161-0.325,5.402-3.237,4.907-6.377h0
					c-0.479-3.036-3.337-5.102-6.369-4.605L95.586,111.514z"/>
				<path style="fill:#EDB29A;" d="M75.61,144.111c-1.078,4.248,1.436,4.896,1.436,4.896s-1.929,0.47-1.165,1.752
					c0.764,1.282,6.733,3.235,9.511-1.266c2.778-4.501-4.421-8.878-4.421-8.878L75.61,144.111z"/>
			</g>
			
				<ellipse style="fill:none;stroke:#FFE161;stroke-width:2;stroke-miterlimit:10;" cx="125.584" cy="72.901" rx="11.944" ry="3.177"/>
			<path style="fill:#C0E2E1;" d="M106.736,155.005l1.444,22.111l-14.444,26.556c0,0,3.333,5.667,11,5l15.555-29.667l1.111-29
				L106.736,155.005z"/>
			<path style="fill:#C0E2E1;" d="M106.18,153.005l-4.444,29.333L87.18,210.005c0,0-9.889,1.444-12.111-6.222l12.556-23.444
				l6.111-34.556L106.18,153.005z"/>
		</g>
		<g>
			<path style="fill:#683038;" d="M458.995,176.56l-13.185,2.815l1.781,2.42c-2.517,1.426-8.711,4.382-13.646,2.166
				c-3.777-1.697-6.164-6.196-7.092-13.371c-1.95-15.081-7.378-25.057-15.282-28.089c-4.616-1.769-12.348-1.97-22.961,7.143
				l1.955,2.276c7.51-6.45,14.401-8.74,19.931-6.619c6.827,2.619,11.58,11.737,13.383,25.673c1.07,8.279,4.044,13.569,8.837,15.723
				c1.686,0.757,3.448,1.056,5.182,1.056c4.861,0,9.475-2.347,11.485-3.524l2.206,2.997L458.995,176.56z"/>
			<path style="fill:#42252B;" d="M365.055,123.69c28.997-16.255-1.131-65.397-1.131-65.397s32.51,4.895,48.167,37.63
				c0,0-19.912-8.038-16.72,12.6c0,0-10.986-7.113-11.122,6.386c0,0-6.983-5.45-10.538,9.332L365.055,123.69z"/>
			<path style="fill:#683038;" d="M378.846,116.568c39.134-9.69,19.26-64.33,19.26-64.33s36.597,11.792,44.659,47.239
				c0,0-20.828-12.161-23.582,8.75c0,0-10.649-9.335-15.058,3.866c0,0-6.476-6.844-15.299,6.878L378.846,116.568z"/>
			<polyline style="fill:none;stroke:#EDB29A;stroke-width:7;stroke-miterlimit:10;" points="379.479,152.26 380.056,177.769 
				393.237,203.957 			"/>
			<g>
				<g>
					<path style="fill:#42252B;" d="M403.503,214.955c0,0-7.144,7.302-19.513,7.748c-0.768,0.028-1.472-0.461-1.674-1.203
						c-0.433-1.597-0.446-4.361,3.821-5.861c5.28-1.856,8.172-7.99,11.297-7.52C400.558,208.59,403.71,211.579,403.503,214.955z"/>
				</g>
				<g>
					<path style="fill:#42252B;" d="M393.767,213.035l-5.811-10.26c0,0,4.73-0.445,8.25-3.55l6.649,13.034
						C402.855,212.259,398.576,216.058,393.767,213.035z"/>
				</g>
				<g>
					<path style="fill:#FEFFFF;" d="M384.704,216.27c0,0,2.559-0.56,4.285,4.32c0,0,7.452-1.539,14.309-7.443
						c0,0,0.672,1.072,0.425,2.198c0,0-4.596,4.069-10.939,5.967c-4.813,1.44-7.89,2.188-9.268,2.286
						c-0.409,0.029-1.149-0.594-1.277-0.984C381.765,221.18,381.081,217.743,384.704,216.27z"/>
				</g>
				<g>
					<path style="fill:#FEFFFF;" d="M396.76,210.231c0.598,1.242,1.708,1.949,2.478,1.578c0.77-0.371,0.909-1.679,0.311-2.921
						c-0.598-1.242-1.708-1.949-2.478-1.578C396.301,207.681,396.162,208.989,396.76,210.231z"/>
				</g>
			</g>
			<polyline style="fill:none;stroke:#EDB29A;stroke-width:7;stroke-miterlimit:10;" points="394.546,150.902 398.319,180.402 
				411.501,206.591 			"/>
			<path style="fill:#683038;" d="M393.244,155.765l-9.308,2.609c-4.875,1.366-9.934-1.478-11.3-6.353l-2.04-7.278l26.961-7.556
				l2.04,7.278C400.963,149.34,398.119,154.399,393.244,155.765z"/>
			<g>
				<path style="fill:#FF5252;" d="M399.428,141.541l-27.987,7.844l-6.171-22.019c-1.81-6.46,1.959-13.165,8.419-14.976l4.592-1.287
					c6.46-1.811,13.165,1.959,14.976,8.419L399.428,141.541z"/>
				<g>
					<g>
						<path style="fill:#EDB29A;" d="M358.088,102.127c0.447,1.594,2.1,2.523,3.694,2.077c1.594-0.447,2.523-2.1,2.077-3.694
							c-0.447-1.593-2.101-2.523-3.694-2.076C358.571,98.88,357.642,100.534,358.088,102.127z"/>
						<path style="fill:#D88D87;" d="M359.474,101.739c0.232,0.828,1.091,1.311,1.919,1.079c0.828-0.232,1.311-1.091,1.079-1.919
							c-0.232-0.828-1.091-1.311-1.919-1.079C359.725,100.052,359.242,100.911,359.474,101.739z"/>
					</g>
					<g>
						<path style="fill:#EDB29A;" d="M376.532,115.449l0.43-0.096c2.001-0.447,3.273-2.451,2.826-4.452l-0.684-3.062
							c-0.447-2.001-2.451-3.273-4.452-2.826l-0.43,0.096c-2.002,0.447-3.273,2.451-2.826,4.452l0.684,3.062
							C372.527,114.625,374.531,115.896,376.532,115.449z"/>
					</g>
					<path style="fill:#D88D87;" d="M374.035,105.151l0.803-0.179c1.899-0.424,3.8,0.782,4.224,2.681l0.668,2.99
						c-2.169,2.414-4.55,3.449-6.768,3.754c-0.398-0.438-0.703-0.971-0.841-1.587l-0.768-3.435
						C370.93,107.476,372.136,105.575,374.035,105.151z"/>
					<g>
						<path style="fill:#EDB29A;" d="M373.723,111.482l1.358-0.364c7.104-1.903,11.359-9.273,9.456-16.377l-1.138-4.249
							c-1.484-5.541-7.232-8.859-12.773-7.375l-4.201,1.125c-5.541,1.485-8.859,7.232-7.375,12.773l1.9,7.092
							C362.434,109.648,368.182,112.966,373.723,111.482z"/>
					</g>
					<path style="fill:#5B4433;" d="M385.358,93.611c0.118-10.944-4.119-18.475-20.593-11.532l0.824-5.178
						c0,0-4.119,3.295-4.354,7.649l-4.118-7.884c0,0-8.355,9.649,2.471,21.887l0.314-5.57c0,0,9.924,2.805,18.455-6.256
						C378.356,86.727,378.768,94.611,385.358,93.611z"/>
					<g>
						<path style="fill:#EDB29A;" d="M382.791,95.448c0.447,1.594,2.1,2.523,3.694,2.077c1.594-0.447,2.523-2.1,2.077-3.694
							c-0.447-1.593-2.101-2.523-3.694-2.076C383.274,92.201,382.344,93.855,382.791,95.448z"/>
						<path style="fill:#D88D87;" d="M384.177,95.059c0.232,0.828,1.091,1.311,1.919,1.079c0.828-0.232,1.311-1.091,1.079-1.919
							c-0.232-0.828-1.091-1.311-1.919-1.079C384.428,93.373,383.945,94.232,384.177,95.059z"/>
					</g>
					<g>
						<g>
							<g>
								<g>
									<path style="fill:#393F44;" d="M373.799,95.91c0.257,0.671-0.079,1.422-0.75,1.679c-0.671,0.257-1.422-0.079-1.679-0.749
										c-0.257-0.671,0.079-1.422,0.749-1.679C372.79,94.904,373.542,95.239,373.799,95.91z"/>
								</g>
							</g>
							<g>
								<g>
									<path style="fill:#393F44;" d="M365.702,98.179c0.257,0.671-0.079,1.422-0.75,1.679c-0.671,0.257-1.422-0.079-1.679-0.749
										c-0.257-0.671,0.079-1.422,0.749-1.679C364.693,97.173,365.445,97.509,365.702,98.179z"/>
								</g>
							</g>
							<g>
								<path style="fill:#D88D87;" d="M368.518,102.628c-0.089,0.034-0.19,0.031-0.281-0.016c-0.719-0.376-1.098-0.851-1.126-1.409
									c-0.042-0.842,0.747-1.548,1.123-1.835l-0.389-2.658c-0.027-0.187,0.103-0.359,0.289-0.388
									c0.187-0.027,0.361,0.102,0.388,0.289l0.451,3.078l-0.181,0.12c-0.287,0.19-1.026,0.806-0.997,1.36
									c0.015,0.3,0.271,0.581,0.76,0.837c0.167,0.088,0.232,0.294,0.144,0.462C368.659,102.544,368.593,102.599,368.518,102.628z"
									/>
							</g>
						</g>
						<g>
							<path style="fill:#393F44;" d="M374.6,101.745l-7.234,3.379c0,0,1.93,3.301,5.585,1.642
								C376.165,105.306,374.6,101.745,374.6,101.745z"/>
							<path style="fill:#FF839E;" d="M373.191,104.139c0.612-0.487,1.205-0.771,1.765-0.92c0.112,1.155-0.145,2.702-2.006,3.547
								c-0.375,0.17-0.727,0.277-1.066,0.352C371.776,106.169,372.015,105.076,373.191,104.139z"/>
							<path style="fill:#FFFFFF;" d="M374.6,101.745c-0.851,3.888-4.854,4.586-7.234,3.379L374.6,101.745z"/>
						</g>
					</g>
					<g>
						<path style="fill:#352A23;" d="M364.706,95.208c-1.652-0.304-3.065-0.072-3.493,0.451l4.871,1.681
							C366.083,97.34,366.358,95.512,364.706,95.208z"/>
						<path style="fill:#352A23;" d="M370.992,93.453c-1.367,0.976-0.342,2.515-0.342,2.515l3.697-3.59
							C373.737,92.086,372.359,92.477,370.992,93.453z"/>
					</g>
				</g>
			</g>
			<g>
				<g>
					<path style="fill:#42252B;" d="M421.766,217.589c0,0-7.144,7.303-19.513,7.748c-0.768,0.028-1.472-0.461-1.674-1.203
						c-0.433-1.596-0.446-4.361,3.821-5.861c5.281-1.856,8.172-7.99,11.297-7.52C418.821,211.223,421.973,214.212,421.766,217.589z"
						/>
				</g>
				<g>
					<path style="fill:#42252B;" d="M412.03,215.669l-5.811-10.261c0,0,4.729-0.445,8.249-3.55l6.649,13.034
						C421.118,214.892,416.839,218.691,412.03,215.669z"/>
				</g>
				<g>
					<path style="fill:#FEFFFF;" d="M402.967,218.903c0,0,2.559-0.56,4.285,4.32c0,0,7.452-1.539,14.309-7.443
						c0,0,0.672,1.072,0.426,2.198c0,0-4.675,3.822-10.939,5.966c-4.827,1.653-8.042,2.222-9.42,2.32
						c-0.409,0.029-0.997-0.627-1.125-1.017C400.029,223.814,399.344,220.376,402.967,218.903z"/>
				</g>
				<g>
					<path style="fill:#FEFFFF;" d="M415.023,212.864c0.598,1.242,1.708,1.949,2.478,1.578c0.77-0.371,0.909-1.679,0.311-2.921
						c-0.598-1.242-1.708-1.949-2.478-1.578C414.564,210.314,414.425,211.622,415.023,212.864z"/>
				</g>
			</g>
			<path style="fill:#683038;" d="M386.849,155.005l-1.444,22.111l14.444,26.556c0,0-3.333,5.667-11,5l-15.556-29.667l-1.111-29
				L386.849,155.005z"/>
			<path style="fill:#683038;" d="M387.405,153.005l4.444,29.333l14.556,27.667c0,0,9.889,1.444,12.111-6.222l-12.556-23.444
				l-6.111-34.556L387.405,153.005z"/>
			<g>
				<path style="fill:none;stroke:#EDB29A;stroke-width:6;stroke-miterlimit:10;" d="M389.162,113.623
					c36.193,18.006,26.537,30.233,1.648,24.604"/>
				<path style="fill:#FF5252;" d="M400.133,113.202l-4.487,9.699l-6.187-2.883c-2.881-1.342-4.045-4.827-2.549-7.632h0
					c1.446-2.712,4.823-3.728,7.526-2.266L400.133,113.202z"/>
				<path style="fill:#EDB29A;" d="M391.422,141.606c-3.957,1.883-5.082-0.458-5.082-0.458s-0.087,1.984-1.492,1.483
					c-1.405-0.501-4.481-5.976-0.605-9.576c3.876-3.6,9.568,2.612,9.568,2.612L391.422,141.606z"/>
			</g>
			<g>
				<path style="fill:none;stroke:#EDB29A;stroke-width:6;stroke-miterlimit:10;" d="M369.074,117.781
					c-30.366,26.684-17.898,36.026,4.715,24.204"/>
				<path style="fill:#FF5252;" d="M358.362,120.187l6.823,8.225l5.241-4.373c2.44-2.036,2.672-5.703,0.507-8.03h0
					c-2.093-2.25-5.618-2.367-7.856-0.261L358.362,120.187z"/>
				<path style="fill:#EDB29A;" d="M374.064,145.408c4.308,0.805,4.795-1.746,4.795-1.746s0.592,1.895,1.823,1.051
					c1.23-0.845,2.799-6.925-1.87-9.411c-4.669-2.486-8.578,4.978-8.578,4.978L374.064,145.408z"/>
			</g>
		</g>
	</g>
</g>
</svg>
