<?xml version="1.0" encoding="utf-8"?>
<!-- Generator: Adobe Illustrator 27.5.0, SVG Export Plug-In . SVG Version: 6.00 Build 0)  -->
<svg version="1.1" xmlns="http://www.w3.org/2000/svg" xmlns:xlink="http://www.w3.org/1999/xlink" x="0px" y="0px"
	 viewBox="0 0 500 500" style="enable-background:new 0 0 500 500;" xml:space="preserve">
<g id="Background_Complete">
	<g>
		<rect y="382.398" style="fill:#EBEBEB;" width="500" height="0.25"/>
		<rect x="372.333" y="398.494" style="fill:#EBEBEB;" width="77.568" height="0.25"/>
		<rect x="278" y="394.986" style="fill:#EBEBEB;" width="55.333" height="0.25"/>
		<rect x="356.762" y="389.208" style="fill:#EBEBEB;" width="59.016" height="0.25"/>
		<rect x="52.459" y="390.888" style="fill:#EBEBEB;" width="12.693" height="0.25"/>
		<rect x="74.056" y="390.888" style="fill:#EBEBEB;" width="71.611" height="0.25"/>
		<rect x="173.162" y="395.111" style="fill:#EBEBEB;" width="46.838" height="0.25"/>
		<path style="fill:#EBEBEB;" d="M237.014,337.8H43.915c-3.147,0-5.708-2.561-5.708-5.708V60.66c0-3.147,2.561-5.708,5.708-5.708
			h193.099c3.146,0,5.707,2.561,5.707,5.708v271.432C242.721,335.239,240.16,337.8,237.014,337.8z M43.915,55.203
			c-3.01,0-5.458,2.448-5.458,5.458v271.432c0,3.01,2.448,5.458,5.458,5.458h193.099c3.009,0,5.457-2.448,5.457-5.458V60.66
			c0-3.009-2.448-5.458-5.457-5.458H43.915z"/>
		<path style="fill:#EBEBEB;" d="M453.31,337.8H260.212c-3.147,0-5.707-2.561-5.707-5.708V60.66c0-3.147,2.561-5.708,5.707-5.708
			H453.31c3.148,0,5.708,2.561,5.708,5.708v271.432C459.019,335.239,456.458,337.8,453.31,337.8z M260.212,55.203
			c-3.009,0-5.457,2.448-5.457,5.458v271.432c0,3.01,2.448,5.458,5.457,5.458H453.31c3.01,0,5.458-2.448,5.458-5.458V60.66
			c0-3.009-2.448-5.458-5.458-5.458H260.212z"/>
	</g>
	<g>
		<g>
			<g>
				
					<rect x="283.349" y="230.659" transform="matrix(-1 -1.224647e-16 1.224647e-16 -1 604.8574 613.0581)" style="fill:#E6E6E6;" width="38.159" height="151.74"/>
				<polygon style="fill:#FAFAFA;" points="300.637,382.399 283.349,382.399 283.349,361.452 318.763,361.452 				"/>
				
					<rect x="395.129" y="230.659" transform="matrix(-1 -1.224647e-16 1.224647e-16 -1 828.4158 613.0581)" style="fill:#E6E6E6;" width="38.159" height="151.74"/>
				
					<rect x="283.349" y="230.659" transform="matrix(-1 -1.224647e-16 1.224647e-16 -1 693.5655 605.8481)" style="fill:#FAFAFA;" width="126.867" height="144.529"/>
				<polygon style="fill:#FAFAFA;" points="392.928,382.399 410.216,382.399 410.216,361.452 374.802,361.452 				"/>
				
					<rect x="296.76" y="284.516" transform="matrix(-1 -1.224647e-16 1.224647e-16 -1 693.5655 605.2003)" style="fill:#F0F0F0;" width="100.045" height="36.169"/>
				
					<rect x="296.76" y="328.415" transform="matrix(-1 -1.224647e-16 1.224647e-16 -1 693.5655 692.9997)" style="fill:#F0F0F0;" width="100.045" height="36.169"/>
				<path style="fill:#FAFAFA;" d="M328.62,288.383h36.326c3.295,0,5.967-2.671,5.967-5.967v-1.033h-48.259v1.033
					C322.653,285.711,325.324,288.383,328.62,288.383z"/>
				
					<rect x="296.76" y="240.616" transform="matrix(-1 -1.224647e-16 1.224647e-16 -1 693.5655 517.4009)" style="fill:#F0F0F0;" width="100.045" height="36.169"/>
				<path style="fill:#FAFAFA;" d="M328.62,244.483h36.326c3.295,0,5.967-2.671,5.967-5.967v-1.033h-48.259v1.033
					C322.653,241.812,325.324,244.483,328.62,244.483z"/>
				<path style="fill:#FAFAFA;" d="M328.62,332.283h36.326c3.295,0,5.967-2.671,5.967-5.967v-1.033h-48.259v1.033
					C322.653,329.611,325.324,332.283,328.62,332.283z"/>
			</g>
		</g>
		<g>
			<path style="fill:#EBEBEB;" d="M370.504,215.033c3.092-1.779-0.183-4.201,3.969-5.92c4.152-1.718,0.59-4.304,0.738-6.696
				s5.576-2.771,7.128-5.55c0.648-1.161-0.113-2.614-1.219-3.912c-2.349-2.758-8.794-3.393-12.281-1.091
				c-0.167,0.11-0.328,0.226-0.482,0.347c-3.074,2.426-0.057,4.76-3.487,6.392c-3.43,1.632-9.588,1.968-9.387,4.694
				c0.201,2.726-4.461,2.958-6.947,5.06c-1.529,1.293-0.363,3.437,0.762,4.897c0.794,1.031,2.224,1.844,4.002,2.272
				C357.433,216.52,365.523,217.898,370.504,215.033z"/>
			<path style="fill:#E0E0E0;" d="M377.373,221.471c5.228-1.3,3.195-5.188,9.671-6.115c6.475-0.926,4.224-5.095,6.351-7.979
				c2.127-2.883,9.073-1.811,13.231-4.769c2.563-1.823,1.892-5.294,1.001-7.688c-0.641-1.721-3.159-2.986-6.142-3.067
				c-2.472-0.068-5.497,0.13-8.165,1.105c-5.733,2.096-3.943,5.804-9.466,6.829c-5.522,1.025-13.325-0.307-15.297,3.083
				c-1.973,3.39-7.862,2.354-12.612,4.221c-3.404,1.338-3.275,5.126-2.928,7.164c0.15,0.882,0.811,1.702,1.863,2.335
				C358.557,218.804,368.172,223.759,377.373,221.471z"/>
			<path style="fill:#EBEBEB;" d="M373.193,205.853c3.43-1.548,7.023,0.712,10.505-1.464c3.481-2.175,7.307,0.275,11.342,0.534
				c4.035,0.258,5.453-2.855,10.339-3.361c2.041-0.211,4.37,0.442,6.389,1.275c4.29,1.768,4.427,5.621,0.063,7.324
				c-0.209,0.082-0.426,0.159-0.652,0.231c-4.513,1.445-7.995-0.652-11.228,1.115c-3.233,1.767-4.682,5.312-9.228,4.802
				s-5.606,2.178-9.491,3.326c-2.389,0.706-5.82-0.283-8.107-1.15c-1.616-0.612-2.774-1.563-3.236-2.663
				C368.815,213.267,367.666,208.347,373.193,205.853z"/>
			<g>
				<path style="fill:#F5F5F5;" d="M336.118,209.08c0,0,1.086,21.58,42.728,21.58s42.728-21.58,42.728-21.58H336.118z"/>
			</g>
		</g>
		<g>
			<g>
				<path style="fill:#F5F5F5;" d="M81.81,373.333h-1.543c-6.915,0-12.572-5.657-12.572-12.572V252.683
					c0-6.915,5.657-12.572,12.572-12.572h1.543c6.915,0,12.572,5.657,12.572,12.572v108.078
					C94.382,367.675,88.725,373.333,81.81,373.333z"/>
				<path style="fill:#EBEBEB;" d="M88.678,368.883L88.678,368.883c-4.96,0-9.018-4.058-9.018-9.018V253.579
					c0-4.96,4.058-9.018,9.018-9.018l0,0c4.96,0,9.018,4.058,9.018,9.018v106.286C97.695,364.825,93.637,368.883,88.678,368.883z"/>
			</g>
			<g>
				<path style="fill:#F5F5F5;" d="M101.193,373.333h-1.543c-6.915,0-12.572-5.657-12.572-12.572V252.683
					c0-6.915,5.657-12.572,12.572-12.572h1.543c6.915,0,12.572,5.657,12.572,12.572v108.078
					C113.766,367.675,108.108,373.333,101.193,373.333z"/>
				<path style="fill:#EBEBEB;" d="M108.061,368.883L108.061,368.883c-4.96,0-9.018-4.058-9.018-9.018V253.579
					c0-4.96,4.058-9.018,9.018-9.018l0,0c4.96,0,9.018,4.058,9.018,9.018v106.286C117.078,364.825,113.021,368.883,108.061,368.883z
					"/>
			</g>
			<g>
				<path style="fill:#F5F5F5;" d="M120.577,373.333h-1.543c-6.915,0-12.572-5.657-12.572-12.572V252.683
					c0-6.915,5.657-12.572,12.572-12.572h1.543c6.915,0,12.572,5.657,12.572,12.572v108.078
					C133.149,367.675,127.491,373.333,120.577,373.333z"/>
				<path style="fill:#EBEBEB;" d="M127.444,368.883L127.444,368.883c-4.96,0-9.018-4.058-9.018-9.018V253.579
					c0-4.96,4.058-9.018,9.018-9.018l0,0c4.96,0,9.018,4.058,9.018,9.018v106.286C136.462,364.825,132.404,368.883,127.444,368.883z
					"/>
			</g>
			<g>
				<path style="fill:#F5F5F5;" d="M139.96,373.333h-1.543c-6.915,0-12.572-5.657-12.572-12.572V252.683
					c0-6.915,5.657-12.572,12.572-12.572h1.543c6.915,0,12.572,5.657,12.572,12.572v108.078
					C152.532,367.675,146.875,373.333,139.96,373.333z"/>
				<path style="fill:#EBEBEB;" d="M146.828,368.883L146.828,368.883c-4.96,0-9.018-4.058-9.018-9.018V253.579
					c0-4.96,4.058-9.018,9.018-9.018h0c4.96,0,9.018,4.058,9.018,9.018v106.286C155.845,364.825,151.787,368.883,146.828,368.883z"
					/>
			</g>
			<g>
				<path style="fill:#F5F5F5;" d="M159.344,373.333h-1.543c-6.915,0-12.572-5.657-12.572-12.572V252.683
					c0-6.915,5.657-12.572,12.572-12.572h1.543c6.914,0,12.572,5.657,12.572,12.572v108.078
					C171.915,367.675,166.258,373.333,159.344,373.333z"/>
				<path style="fill:#EBEBEB;" d="M166.211,368.883L166.211,368.883c-4.96,0-9.018-4.058-9.018-9.018V253.579
					c0-4.96,4.058-9.018,9.018-9.018l0,0c4.96,0,9.018,4.058,9.018,9.018v106.286C175.229,364.825,171.171,368.883,166.211,368.883z
					"/>
			</g>
			<g>
				<path style="fill:#F5F5F5;" d="M178.727,373.333h-1.543c-6.915,0-12.572-5.657-12.572-12.572V252.683
					c0-6.915,5.657-12.572,12.572-12.572h1.543c6.915,0,12.572,5.657,12.572,12.572v108.078
					C191.299,367.675,185.641,373.333,178.727,373.333z"/>
				<path style="fill:#EBEBEB;" d="M185.594,368.883L185.594,368.883c-4.96,0-9.018-4.058-9.018-9.018V253.579
					c0-4.96,4.058-9.018,9.018-9.018l0,0c4.96,0,9.018,4.058,9.018,9.018v106.286C194.612,364.825,190.554,368.883,185.594,368.883z
					"/>
			</g>
			<g>
				<path style="fill:#F5F5F5;" d="M198.11,373.333h-1.543c-6.915,0-12.572-5.657-12.572-12.572V252.683
					c0-6.915,5.657-12.572,12.572-12.572h1.543c6.915,0,12.572,5.657,12.572,12.572v108.078
					C210.682,367.675,205.025,373.333,198.11,373.333z"/>
			</g>
			<path style="fill:#F5F5F5;" d="M213.558,358.522h-21.74c-1.134,0-2.061-0.927-2.061-2.061v-0.884
				c0-1.134,0.928-2.061,2.061-2.061h21.74c1.134,0,2.061,0.927,2.061,2.061v0.884C215.619,357.595,214.691,358.522,213.558,358.522
				z"/>
			<path style="fill:#F5F5F5;" d="M213.558,263.195h-21.74c-1.134,0-2.061-0.927-2.061-2.061v-0.884
				c0-1.134,0.928-2.061,2.061-2.061h21.74c1.134,0,2.061,0.927,2.061,2.061v0.884C215.619,262.268,214.691,263.195,213.558,263.195
				z"/>
		</g>
	</g>
</g>
<g id="Background_Simple" style="display:none;">
	<g style="display:inline;">
		<path style="fill:#407BFF;" d="M57.994,188.887c-16.958-22.93-25.505-52.342-20.025-80.21
			c6.978-35.481,39.861-68.877,77.896-62.838c16.641,2.642,31.871,10.623,46.987,18.067c22.807,11.232,46.252,21.546,70.969,27.492
			c23.515,5.657,48.145,1.783,72.045,1.178c20.367-0.516,41.24,0.705,60.076,8.47c44.344,18.281,68.741,79.12,61.839,124.277
			c-7.64,49.986-47.723,89.017-98.519,92.424c-23.95,1.606-48.377-5.043-68.208-18.567c-25.35-17.288-45.352-51.902-78.119-56.296
			c-20.942-2.808-38.531-0.402-59.038-7.594c-21.266-7.458-41.213-19.204-56.822-35.593
			C63.834,196.296,60.799,192.68,57.994,188.887z"/>
		<path style="opacity:0.9;fill:#FFFFFF;" d="M57.994,188.887c-16.958-22.93-25.505-52.342-20.025-80.21
			c6.978-35.481,39.861-68.877,77.896-62.838c16.641,2.642,31.871,10.623,46.987,18.067c22.807,11.232,46.252,21.546,70.969,27.492
			c23.515,5.657,48.145,1.783,72.045,1.178c20.367-0.516,41.24,0.705,60.076,8.47c44.344,18.281,68.741,79.12,61.839,124.277
			c-7.64,49.986-47.723,89.017-98.519,92.424c-23.95,1.606-48.377-5.043-68.208-18.567c-25.35-17.288-45.352-51.902-78.119-56.296
			c-20.942-2.808-38.531-0.402-59.038-7.594c-21.266-7.458-41.213-19.204-56.822-35.593
			C63.834,196.296,60.799,192.68,57.994,188.887z"/>
	</g>
</g>
<g id="Shadow_1_">
	<ellipse id="_x3C_Path_x3E__163_" style="fill:#F5F5F5;" cx="250" cy="416.238" rx="193.889" ry="11.323"/>
</g>
<g id="Thoughts">
	<g>
		<g>
			<path style="fill:#407BFF;" d="M87.97,57.419c32.08-21.724,76.839-23.629,119.979-14.357
				c24.736,5.316,48.94,13.488,73.835,17.883c13.728,2.424,27.841,3.635,41.411,2.403c12.911-1.173,28.385-2.509,41.359,2.226
				c20.929,7.639,31.918,21.62,37.791,39.239c6.331,18.994,6.867,39.145,2.73,57.65c-0.359,1.606-0.756,3.202-1.192,4.786
				c-3.614,13.129-10.151,25.275-20.614,33.677c-19.606,15.745-58.133,23.288-86.144,7.315
				c-20.014-10.661-34.871-25.998-51.344-12.725l-21.233-8.036c3.527-6.593-3.551-19.596-17.544-21.285
				c-14.227-1.718-25.375,1.247-36.031,1.71c-12.949,0.563-26.222,0.529-39.635-2.011c-29.843-5.652-63.411-31.342-68.159-60.976
				C59.7,83.187,72.118,68.153,87.97,57.419z"/>
			<path style="opacity:0.8;fill:#FFFFFF;" d="M87.97,57.419c32.08-21.724,76.839-23.629,119.979-14.357
				c24.736,5.316,48.94,13.488,73.835,17.883c13.728,2.424,27.841,3.635,41.411,2.403c12.911-1.173,28.385-2.509,41.359,2.226
				c20.929,7.639,31.918,21.62,37.791,39.239c6.331,18.994,6.867,39.145,2.73,57.65c-0.359,1.606-0.756,3.202-1.192,4.786
				c-3.614,13.129-10.151,25.275-20.614,33.677c-19.606,15.745-58.133,23.288-86.144,7.315
				c-20.014-10.661-34.871-25.998-51.344-12.725l-21.233-8.036c3.527-6.593-3.551-19.596-17.544-21.285
				c-14.227-1.718-25.375,1.247-36.031,1.71c-12.949,0.563-26.222,0.529-39.635-2.011c-29.843-5.652-63.411-31.342-68.159-60.976
				C59.7,83.187,72.118,68.153,87.97,57.419z"/>
		</g>
		<g>
			<path style="fill:#407BFF;" d="M401.55,83.755c-29.824-31.441-74.789-42.826-119.438-41.098
				c-25.601,0.991-51.003,5.357-76.656,5.261c-14.146-0.053-28.538-1.57-42.093-5.771c-12.896-3.997-28.361-8.708-42.02-5.962
				c-22.032,4.43-34.777,18.157-42.786,37.097c-8.634,20.418-11.554,43.351-9.562,65.362c0.173,1.91,0.385,3.817,0.638,5.718
				c2.099,15.757,7.265,30.99,16.837,42.751c17.936,22.038,55.943,38.589,86.109,26.085c18.15-6.827,23.89-19.613,34.337-12.174
				c5.534,3.94,12.306,5.763,19.077,5.204l2.38-0.197c8.998-0.743,17.199-5.596,22-13.242c3.359-5.35,9.797-9.688,18.156-9.135
				c14.566,0.962,25.471,6.645,36.176,9.367c13.007,3.307,26.412,5.999,40.253,5.853c30.797-0.325,67.721-22.797,76.012-55.707
				C427.05,119.037,416.287,99.291,401.55,83.755z"/>
			<path style="opacity:0.7;fill:#FFFFFF;" d="M401.55,83.755c-29.824-31.441-74.789-42.826-119.438-41.098
				c-25.601,0.991-51.003,5.357-76.656,5.261c-14.146-0.053-28.538-1.57-42.093-5.771c-12.896-3.997-28.361-8.708-42.02-5.962
				c-22.032,4.43-34.777,18.157-42.786,37.097c-8.634,20.418-11.554,43.351-9.562,65.362c0.173,1.91,0.385,3.817,0.638,5.718
				c2.099,15.757,7.265,30.99,16.837,42.751c17.936,22.038,55.943,38.589,86.109,26.085c18.15-6.827,23.89-19.613,34.337-12.174
				c5.534,3.94,12.306,5.763,19.077,5.204l2.38-0.197c8.998-0.743,17.199-5.596,22-13.242c3.359-5.35,9.797-9.688,18.156-9.135
				c14.566,0.962,25.471,6.645,36.176,9.367c13.007,3.307,26.412,5.999,40.253,5.853c30.797-0.325,67.721-22.797,76.012-55.707
				C427.05,119.037,416.287,99.291,401.55,83.755z"/>
		</g>
		<path style="opacity:0.2;fill:#FFFFFF;" d="M132.805,108.079c6.534-7.704,15.022-14.054,23.184-18.563
			c19.969-11.03,43.331-15.313,65.988-14.208c23.713,1.156,48.041,1.189,70.967-5.8c10.548-3.215,21.133-8.001,32.39-5.816
			c17.137,3.325,27.886,18.005,33.916,33.371c8.198,20.89,7.164,46.756-7.008,64.774c-12.698,16.144-33.789,24.939-53.927,18.779
			c-6.191-1.683-14.888-9.364-21.23-7.435c-2.695,0.82-5.008,2.55-7.55,3.764c-6.362,3.039-14.266,2.582-20.236-1.17
			c-5.172-3.25-8.763-8.303-15.166-9.372c-6.032-1.007-11.97,1.745-17.602,4.13c-12.961,5.488-26.817,9.387-40.892,9.269
			c-17.106-0.144-33.704-6.858-44.934-19.981c-4.881-5.705-8.4-12.725-9.189-20.191
			C120.266,127.795,125.219,117.024,132.805,108.079z"/>
		<path style="fill:#407BFF;" d="M127.574,187.635c-9.896,0-19.367-3.492-26.103-9.906c-9.553-9.097-12.508-24.238-6.872-35.219
			c6.726-13.106,22.928-18.061,36.002-17.155c12.921,0.894,25.07,6.251,36.82,11.432l2.818,1.24
			c12.534,5.495,25.931,10.784,39.808,9.89c15.195-0.979,28.614-9.255,41.591-17.258c6.824-4.208,13.879-8.559,21.18-11.867
			c22.041-9.987,48.735-11.345,75.166-3.824c24.627,7.007,44.021,17.637,62.885,34.468c7.538,6.726,19.133,14.813,31.563,15.147
			l-0.027,0.999c-12.732-0.342-24.539-8.563-32.202-15.4c-18.745-16.725-38.019-27.289-62.493-34.252
			c-26.203-7.456-52.654-6.116-74.479,3.773c-7.242,3.281-14.271,7.616-21.068,11.807c-13.082,8.067-26.609,16.409-42.052,17.405
			c-14.098,0.909-27.627-4.428-40.274-9.972l-2.82-1.241c-11.671-5.146-23.738-10.468-36.485-11.35
			c-12.745-0.88-28.525,3.913-35.043,16.614c-5.441,10.602-2.573,25.235,6.672,34.038c8.663,8.249,21.997,11.527,34.796,8.552
			l0.226,0.974C133.987,187.273,130.758,187.635,127.574,187.635z"/>
		<path style="fill:#407BFF;" d="M442.953,150.605c-18.605-4.575-19.369,8.672-19.369,8.672S433.974,167.53,442.953,150.605z"/>
		<path style="fill:#407BFF;" d="M271.362,103.158c-16.049,10.464-6.895,20.071-6.895,20.071S277.591,121.275,271.362,103.158z"/>
		<path style="fill:#407BFF;" d="M219.022,134.953c-19.158,0.18-16.615,13.203-16.615,13.203S214.519,153.575,219.022,134.953z"/>
		<path style="fill:#407BFF;" d="M391.688,152.612c7.815-17.492-5.084-20.604-5.084-20.604S376.633,140.762,391.688,152.612z"/>
		<path style="fill:#407BFF;" d="M263.566,135.726c-6.965-9.873-12.808-3.883-12.808-3.883S252.292,140.07,263.566,135.726z"/>
		<path style="fill:#407BFF;" d="M101.262,146.097c-11.868,2.266-8.825,10.061-8.825,10.061S100.562,158.159,101.262,146.097z"/>
		<g>
			<defs>
				<path id="SVGID_1_" d="M401.55,83.755c-29.824-31.441-74.789-42.826-119.438-41.098c-25.601,0.991-51.003,5.357-76.656,5.261
					c-14.146-0.053-28.538-1.57-42.093-5.771c-12.896-3.997-28.361-8.708-42.02-5.962c-22.032,4.43-34.777,18.157-42.786,37.097
					c-8.634,20.418-11.554,43.351-9.562,65.362c0.173,1.91,0.385,3.817,0.638,5.718c2.099,15.757,7.265,30.99,16.837,42.751
					c17.936,22.038,55.943,38.589,86.109,26.085c18.15-6.827,23.89-19.613,34.337-12.174c5.534,3.94,12.306,5.763,19.077,5.204
					l2.38-0.197c8.998-0.743,17.199-5.596,22-13.242c3.359-5.35,9.797-9.688,18.156-9.135c14.566,0.962,25.471,6.645,36.176,9.367
					c13.007,3.307,26.412,5.999,40.253,5.853c30.797-0.325,67.721-22.797,76.012-55.707
					C427.05,119.037,416.287,99.291,401.55,83.755z"/>
			</defs>
			<clipPath id="SVGID_00000069391249145604485400000010755404708638549126_">
				<use xlink:href="#SVGID_1_"  style="overflow:visible;"/>
			</clipPath>
			<g style="clip-path:url(#SVGID_00000069391249145604485400000010755404708638549126_);">
				<path style="opacity:0.5;fill:#FFFFFF;" d="M165.63,101.873c0,8.91-3.1,17.08-8.27,23.51c-3.027,3.754-5.469,7.908-7.221,12.317
					c-1.477,3.716-5.02,6.193-9.019,6.193h-26.25c-3.989,0-7.537-2.462-9.009-6.169c-1.793-4.515-4.27-8.779-7.321-12.661
					c-5.47-6.94-8.53-15.86-7.95-25.51c1.12-18.64,16.12-33.82,34.75-35.13C147.32,62.863,165.63,80.233,165.63,101.873z"/>
				<path style="fill:#FFFFFF;" d="M141.63,155.336h-27.11c-2.383,0-4.333-1.95-4.333-4.333l0,0c0-2.383,1.95-4.333,4.333-4.333
					h27.11c2.383,0,4.333,1.95,4.333,4.333l0,0C145.963,153.386,144.013,155.336,141.63,155.336z"/>
				<path style="fill:#FFFFFF;" d="M141.63,167.003h-27.11c-2.383,0-4.333-1.95-4.333-4.333l0,0c0-2.383,1.95-4.333,4.333-4.333
					h27.11c2.383,0,4.333,1.95,4.333,4.333l0,0C145.963,165.053,144.013,167.003,141.63,167.003z"/>
				<path style="fill:#407BFF;" d="M128.075,118.503c-7.937,0-14.394-6.457-14.394-14.394c0-7.937,6.457-14.394,14.394-14.394
					c7.937,0,14.394,6.457,14.394,14.394C142.469,112.046,136.012,118.503,128.075,118.503z M128.075,90.715
					c-7.385,0-13.394,6.009-13.394,13.394c0,7.385,6.008,13.394,13.394,13.394c7.385,0,13.394-6.008,13.394-13.394
					C141.469,96.724,135.46,90.715,128.075,90.715z"/>
				<path style="fill:#407BFF;" d="M138.075,118.503c-7.937,0-14.394-6.457-14.394-14.394c0-7.937,6.457-14.394,14.394-14.394
					c7.937,0,14.394,6.457,14.394,14.394C152.469,112.046,146.012,118.503,138.075,118.503z M138.075,90.715
					c-7.385,0-13.394,6.009-13.394,13.394c0,7.385,6.008,13.394,13.394,13.394c7.385,0,13.394-6.008,13.394-13.394
					C151.469,96.724,145.46,90.715,138.075,90.715z"/>
				<path style="fill:#407BFF;" d="M118.075,118.503c-7.937,0-14.394-6.457-14.394-14.394c0-7.937,6.457-14.394,14.394-14.394
					c7.937,0,14.394,6.457,14.394,14.394C132.469,112.046,126.012,118.503,118.075,118.503z M118.075,90.715
					c-7.385,0-13.394,6.009-13.394,13.394c0,7.385,6.008,13.394,13.394,13.394c7.385,0,13.394-6.008,13.394-13.394
					C131.469,96.724,125.46,90.715,118.075,90.715z"/>
				<path style="fill:#407BFF;" d="M119.019,143.893h-1c0-7.852-3.92-14.992-7.712-21.897c-3.407-6.206-6.626-12.068-6.626-17.886h1
					c0,5.563,3.158,11.315,6.502,17.405C115.036,128.53,119.019,135.785,119.019,143.893z"/>
				<path style="fill:#407BFF;" d="M138.131,143.893h-1c0-8.108,3.983-15.363,7.835-22.379c3.344-6.09,6.502-11.843,6.502-17.405h1
					c0,5.819-3.218,11.681-6.626,17.886C142.051,128.901,138.131,136.041,138.131,143.893z"/>
			</g>
			<g style="clip-path:url(#SVGID_00000069391249145604485400000010755404708638549126_);">
				<g>
					<path style="fill:#407BFF;" d="M162.544,193.779c49.648-26.816,115.58-46.623,125.907-46.623
						c14.299,0,115.182,32.39,141.397,53.981C377.419,238.269,200.872,226.233,162.544,193.779z"/>
					<path style="opacity:0.6;fill:#FFFFFF;" d="M162.544,193.779c49.648-26.816,115.58-46.623,125.907-46.623
						c14.299,0,115.182,32.39,141.397,53.981C377.419,238.269,200.872,226.233,162.544,193.779z"/>
				</g>
				<path style="opacity:0.1;fill:#407BFF;" d="M162.544,193.779c49.648-26.816,115.58-46.623,125.907-46.623
					c-9.334,4.571,11.518,19.198,1.986,27.882c-9.532,8.685,26.413,43.924-6.752,50.53
					C250.519,232.175,162.544,193.779,162.544,193.779z"/>
			</g>
			<g style="clip-path:url(#SVGID_00000069391249145604485400000010755404708638549126_);">
				<g>
					<path style="fill:#407BFF;" d="M60,193c41.667-29.333,97-51,105.667-51c12,0,96.666,35.431,118.666,59.049
						C240.333,241.667,92.167,228.5,60,193z"/>
					<path style="opacity:0.4;fill:#FFFFFF;" d="M60,193c41.667-29.333,97-51,105.667-51c12,0,96.666,35.431,118.666,59.049
						C240.333,241.667,92.167,228.5,60,193z"/>
				</g>
				<path style="opacity:0.3;fill:#407BFF;" d="M60,193c41.667-29.333,97-51,105.667-51c-7.833,5,9.667,21,1.667,30.5
					s22.167,48.047-5.667,55.274C133.833,235,60,193,60,193z"/>
			</g>
		</g>
		<g>
			<circle style="fill:#FFFFFF;" cx="358.083" cy="90.083" r="19.75"/>
			
				<ellipse transform="matrix(0.7071 -0.7071 0.7071 0.7071 32.8479 291.7384)" style="fill:#FFFFFF;" cx="368.583" cy="106.218" rx="15.792" ry="15.792"/>
			<circle style="fill:#FFFFFF;" cx="344.75" cy="108.052" r="22.411"/>
			
				<ellipse transform="matrix(0.9239 -0.3827 0.3827 0.9239 -16.8032 127.9611)" style="fill:#FFFFFF;" cx="313.25" cy="106.218" rx="16.75" ry="16.75"/>
			
				<ellipse transform="matrix(0.8252 -0.5648 0.5648 0.8252 6.4105 176.9743)" style="fill:#FFFFFF;" cx="289.16" cy="78.129" rx="15.779" ry="15.779"/>
			<path style="fill:#FFFFFF;" d="M287.154,88.834c-1.215,6.483-7.455,10.754-13.938,9.539c-6.483-1.215-10.754-7.455-9.539-13.938
				c1.215-6.483,7.455-10.754,13.938-9.539C284.098,76.11,288.369,82.351,287.154,88.834z"/>
			
				<ellipse transform="matrix(0.7071 -0.7071 0.7071 0.7071 0.8882 205.2645)" style="fill:#FFFFFF;" cx="248.22" cy="101.56" rx="9.552" ry="9.552"/>
			<circle style="fill:#FFFFFF;" cx="250.106" cy="112.741" r="7.687"/>
			<circle style="fill:#FFFFFF;" cx="241.597" cy="111.112" r="6.085"/>
			<path style="fill:#FFFFFF;" d="M237.778,129.629c0,2.431-1.97,4.401-4.401,4.401c-2.431,0-4.401-1.97-4.401-4.401
				c0-2.431,1.97-4.401,4.401-4.401C235.807,125.228,237.778,127.198,237.778,129.629z"/>
			<path style="fill:#FFFFFF;" d="M217.954,126.029c0,1.546-1.254,2.8-2.8,2.8s-2.8-1.254-2.8-2.8c0-1.547,1.254-2.8,2.8-2.8
				S217.954,124.482,217.954,126.029z"/>
		</g>
		<path style="fill:#FFFFFF;" d="M207.027,73.809c2.256,8.551-2.844,17.32-11.404,19.579c-6.313,1.665-12.749-0.68-16.586-5.474
			c2.575,0.686,5.358,0.729,8.127-0.002c8.551-2.256,13.663-11.018,11.405-19.578c-0.591-2.239-1.621-4.235-2.993-5.931
			C200.985,63.8,205.499,68.017,207.027,73.809z"/>
		<g>
			<path style="fill:#263238;" d="M391.8,69.011c-20.668-9.445-29.816,9.921-29.816,9.921l29.568,5.381L391.8,69.011z"/>
			<path style="fill:#263238;" d="M401.816,89.129c-4.921,22.185-25.887,17.812-25.887,17.812l13.528-26.837L401.816,89.129z"/>
			<path style="fill:#407BFF;" d="M441.197,56.97c-30.862-5.361-66.489,18.559-66.489,18.559l-4.706,16.887l16.311,6.423
				C386.313,98.839,426.873,84.827,441.197,56.97z"/>
			<path style="fill:#263238;" d="M378.157,78.162c-22.178,1.957-24.758,14.957-24.758,14.957l28.359-8.738L378.157,78.162z"/>
			<path style="fill:#263238;" d="M386.291,94.499c-14.93,16.517-26.858,10.741-26.858,10.741l24.066-17.362L386.291,94.499z"/>
			<path style="fill:#FFFFFF;" d="M405.838,84.667c-4.467,2.224-9.891,0.406-12.115-4.061c-2.224-4.467-0.406-9.891,4.061-12.115
				c4.467-2.224,9.891-0.406,12.115,4.061C412.123,77.019,410.305,82.443,405.838,84.667z"/>
			<path style="opacity:0.4;fill:#407BFF;" d="M405.148,83.281c-3.701,1.843-8.196,0.336-10.038-3.365
				c-1.843-3.701-0.336-8.196,3.365-10.038c3.701-1.843,8.196-0.336,10.038,3.365C410.356,76.943,408.849,81.438,405.148,83.281z"/>
		</g>
		<path style="opacity:0.6;fill:#FFFFFF;" d="M135.667,54.889c0,0.491-0.398,0.889-0.889,0.889s-0.889-0.398-0.889-0.889
			c0-0.491,0.398-0.889,0.889-0.889S135.667,54.398,135.667,54.889z"/>
		<circle style="opacity:0.6;fill:#FFFFFF;" cx="179.037" cy="109.809" r="0.889"/>
		<path style="opacity:0.6;fill:#FFFFFF;" d="M86.333,80.555c0,0.491-0.398,0.889-0.889,0.889c-0.491,0-0.889-0.398-0.889-0.889
			c0-0.491,0.398-0.889,0.889-0.889C85.935,79.667,86.333,80.065,86.333,80.555z"/>
		<circle style="opacity:0.6;fill:#FFFFFF;" cx="243.736" cy="71.251" r="0.889"/>
		<circle style="opacity:0.6;fill:#FFFFFF;" cx="309.667" cy="52.833" r="0.889"/>
		<circle style="opacity:0.6;fill:#FFFFFF;" cx="372.862" cy="146.667" r="0.889"/>
		<path style="opacity:0.7;fill:#FFFFFF;" d="M174.794,69.5c-2.633,0.889-3.354,1.609-4.243,4.243
			c-0.889-2.633-1.609-3.354-4.243-4.243c2.633-0.889,3.354-1.609,4.243-4.243C171.44,67.891,172.161,68.611,174.794,69.5z"/>
		<path style="opacity:0.7;fill:#FFFFFF;" d="M227.209,93.922c-1.684,0.568-2.145,1.029-2.713,2.713
			c-0.568-1.684-1.029-2.145-2.713-2.713c1.684-0.568,2.145-1.029,2.713-2.713C225.064,92.892,225.525,93.353,227.209,93.922z"/>
		<path style="opacity:0.7;fill:#FFFFFF;" d="M86.333,127.451c-1.684,0.568-2.145,1.029-2.713,2.713
			c-0.568-1.684-1.029-2.145-2.713-2.713c1.684-0.568,2.145-1.029,2.713-2.713C84.188,126.422,84.649,126.883,86.333,127.451z"/>
		<path style="opacity:0.7;fill:#FFFFFF;" d="M285.833,52.833c-1.727,0.583-2.199,1.055-2.782,2.782
			c-0.583-1.727-1.055-2.199-2.782-2.782c1.727-0.583,2.199-1.055,2.782-2.782C283.634,51.778,284.107,52.25,285.833,52.833z"/>
		<path style="opacity:0.7;fill:#FFFFFF;" d="M407.38,125.228c-1.727,0.583-2.199,1.055-2.782,2.782
			c-0.583-1.727-1.055-2.199-2.782-2.782c1.727-0.583,2.199-1.055,2.782-2.782C405.181,124.173,405.653,124.645,407.38,125.228z"/>
		<g>
			<path style="fill:#407BFF;" d="M324.518,190.581c1.076-2.38,12.318,0.373,25.104,6.155c12.798,5.787,22.278,12.405,21.202,14.784
				l13.455,6.084c1.702-3.765-13.3-14.228-33.524-23.373c-20.212-9.139-37.976-13.494-39.679-9.729L324.518,190.581z"/>
			<path style="opacity:0.2;" d="M331.53,186.705c5.764,1.869,12.353,4.42,19.225,7.528c6.872,3.107,13.14,6.369,18.359,9.467
				c-0.046,1.38-0.228,2.774-0.54,4.151c-3.461-3.083-10.48-7.284-18.951-11.114c-8.453-3.822-16.239-6.327-20.853-6.884
				C329.598,188.708,330.516,187.647,331.53,186.705z"/>
			<g>
				
					<ellipse transform="matrix(0.4529 -0.8915 0.8915 0.4529 10.9564 419.953)" style="fill:#407BFF;" cx="347.677" cy="201.049" rx="19.489" ry="19.489"/>
				
					<ellipse transform="matrix(0.4529 -0.8915 0.8915 0.4529 10.9564 419.953)" style="opacity:0.4;fill:#FFFFFF;" cx="347.677" cy="201.049" rx="19.489" ry="19.489"/>
				<path style="opacity:0.1;fill:#FFFFFF;" d="M336.81,189.075c-1.769,3.912-0.032,8.517,3.88,10.286
					c3.912,1.769,8.517,0.032,10.286-3.88c1.769-3.912,0.032-8.517-3.88-10.286S338.579,185.163,336.81,189.075z"/>
				<path style="opacity:0.1;fill:#FFFFFF;" d="M356.005,190.563c-0.578,1.278-0.01,2.782,1.267,3.36
					c1.278,0.578,2.782,0.01,3.36-1.268c0.578-1.278,0.01-2.782-1.267-3.36C358.087,188.718,356.582,189.285,356.005,190.563z"/>
				<path style="opacity:0.1;fill:#FFFFFF;" d="M344.119,215.048c-0.578,1.278-0.01,2.782,1.268,3.36
					c1.278,0.578,2.782,0.01,3.36-1.267c0.578-1.278,0.01-2.782-1.268-3.36C346.201,213.202,344.697,213.77,344.119,215.048z"/>
			</g>
			<path style="opacity:0.5;fill:#407BFF;" d="M344.95,207.071c6.81,3.079,13.167,5.291,17.792,6.345
				c-0.812,0.991-1.706,1.881-2.687,2.678c-5.013-1.732-10.529-3.938-16.237-6.519c-5.709-2.582-11.008-5.266-15.619-7.886
				c-0.049-1.262,0.028-2.522,0.236-3.786C332.28,200.679,338.149,203.996,344.95,207.071z"/>
			<path style="fill:#407BFF;" d="M324.518,190.581c-1.076,2.38,8.416,9.003,21.202,14.784c12.798,5.787,24.028,8.534,25.104,6.154
				l13.455,6.084c-1.702,3.765-19.467-0.59-39.691-9.734c-20.212-9.14-35.214-19.602-33.512-23.367L324.518,190.581z"/>
		</g>
	</g>
</g>
<g id="Character_1_">
	<g>
		<path style="fill:#263238;" d="M228.333,200.291c-0.4,7.971,10.157,16.276,16.108,16.393c5.753,0.113,9.7-5.1,7.622-10.785
			c-4.825,5.13-13.433-0.438-16.871-5.387S228.686,193.256,228.333,200.291z"/>
		<path style="fill:#263238;" d="M253.292,213.258c-6.439,1.361-11.214-5.744-13.12-10.574l3.692,14.029
			C248.998,218.567,252.547,218.355,253.292,213.258z"/>
		<g>
			<path style="fill:#263238;" d="M210.213,352.955c0.896-6.393,6.805-11.576,13.199-11.576h11.576l9.557-68.19
				c0.78-5.565,5.924-10.077,11.489-10.077h50.347c5.565,0,9.445,4.512,8.664,10.077l-8.803,62.813
				c-1.353,9.655-10.277,17.483-19.933,17.483h-0.844h-52.174h-23.152L210.213,352.955z"/>
			<g>
				<polygon style="fill:#E0E0E0;" points="277.617,416.591 287.709,416.591 286.142,353.483 279.184,353.483 				"/>
				<polygon style="opacity:0.3;fill:#263238;" points="279.113,356.43 286.253,358.088 286.142,353.483 279.184,353.483 				"/>
			</g>
			<g>
				<polygon style="fill:#E0E0E0;" points="254.887,416.591 264.979,416.591 263.412,353.483 256.454,353.483 				"/>
				<polygon style="opacity:0.3;fill:#263238;" points="256.383,356.43 263.523,358.088 263.412,353.483 256.454,353.483 				"/>
			</g>
			<g>
				<polygon style="fill:#E0E0E0;" points="238.335,416.591 248.426,416.591 246.859,353.483 239.901,353.483 				"/>
				<polygon style="opacity:0.3;fill:#263238;" points="239.83,356.43 246.971,358.088 246.859,353.483 239.901,353.483 				"/>
			</g>
			<g>
				<polygon style="fill:#E0E0E0;" points="215.605,416.591 225.696,416.591 224.13,353.483 217.171,353.483 				"/>
				<polygon style="opacity:0.3;fill:#263238;" points="217.1,356.43 224.241,358.088 224.13,353.483 217.171,353.483 				"/>
			</g>
		</g>
		<path style="fill:#263238;" d="M221.14,216.356c-9.592,0.573-10.724-10.853-7.552-15.307c2.733,2.665,7.161,5.639,10.803,7.49
			C221.962,218.277,221.14,216.356,221.14,216.356z"/>
		<path style="fill:#FF8B7B;" d="M242.205,261.563c-0.811,1.834-1.653,4.375-2.678,7.356c-0.508,1.499-1.117,3.101-1.855,4.828
			c-0.741,1.725-1.656,3.571-2.922,5.461c-1.249,1.883-2.892,3.836-4.96,5.479c-2.063,1.636-4.491,2.89-6.869,3.641
			c-2.387,0.755-4.697,1.09-6.847,1.146c-2.146,0.053-4.115-0.138-6.015-0.397l-0.499-0.068c-2.405-0.328-4.438-1.707-5.682-3.583
			c-0.736-1.121-1.239-2.242-1.571-3.252c-0.322-0.998-0.523-1.938-0.63-2.768c-0.228-1.685-0.197-3.097-0.089-4.388
			c0.228-2.564,0.735-4.69,1.294-6.728c1.138-4.032,2.669-7.584,4.257-11.051c1.633-3.441,3.392-6.741,5.278-9.949
			c1.907-3.215,3.85-6.299,6.088-9.38c1.542-2.124,4.515-2.594,6.639-1.052c1.709,1.241,2.347,3.408,1.728,5.314l-0.045,0.135
			c-1.074,3.291-2.242,6.683-3.302,10.008c-1.071,3.336-2.109,6.656-2.998,9.939c-0.919,3.259-1.665,6.538-2.117,9.512
			c-0.213,1.467-0.322,2.894-0.249,3.92c0.037,0.502,0.119,0.894,0.179,0.982c0.026,0.058,0.051-0.01,0.017-0.158
			c-0.035-0.162-0.132-0.477-0.375-0.847l-6.18-3.651c1.12,0.003,2.186-0.038,3.068-0.188c0.871-0.168,1.572-0.358,2.047-0.605
			c0.483-0.245,0.747-0.482,1.016-0.784c0.277-0.283,0.592-0.695,0.963-1.371c0.363-0.668,0.772-1.561,1.196-2.633
			c0.426-1.073,0.824-2.332,1.295-3.702c0.936-2.75,1.923-6.015,3.801-9.625c2.421-4.655,8.157-6.465,12.812-4.044
			c4.466,2.323,6.314,7.698,4.317,12.241L242.205,261.563z"/>
		<path style="fill:#FF8B7B;" d="M213.253,230.44l0.249,0.94c0.887,3.353,2.594,6.384,5.004,8.884l0.846,0.878
			c1.285,1.334,3.339,1.932,5.429,1.428c3.377-0.814,5.729-3.973,5.097-6.841c-0.627-2.848-2.451-5.376-2.451-5.376l-2.032-4.478
			c-0.689-1.517-2.567-2.19-4.438-1.588l-4.699,1.511C214.117,226.488,212.761,228.581,213.253,230.44z"/>
		<path style="opacity:0.2;" d="M229.88,235.73c-0.63-2.85-2.45-5.38-2.45-5.38l-2.03-4.47c-0.69-1.52-2.57-2.19-4.44-1.59
			l-1.95,0.62c1.23,3.9,3.13,7.49,5.15,10.15c1.42,1.86,3.21,3.21,5.18,4.06C229.91,238.06,230.13,236.87,229.88,235.73z"/>
		<path style="fill:#FF8B7B;" d="M201.786,391.6c1.549-1.096,10.901-1.771,10.901-1.771c2.689,11.172,3.719,21.242,3.719,21.242
			l-11.833-1.45C204.573,409.622,203.861,397.808,201.786,391.6z"/>
		<g>
			<path style="fill:#407BFF;" d="M216.046,390.443c-2.532-18.745,2.147-36.809-0.441-48.443
				c13.045,2.308,40.018,7.071,44.503-11.334c1.741-7.146,9.268-15.848,8.659-19.831c-11.352-0.028-48.422-0.412-61.934,2.164
				c-22.087,4.212-21.096,19.421-15.167,45.088c2.316,10.026,3.534,11.762,6.437,24.823c1.559,7.016,1.228,11.374,3.249,15.95
				c5.056,3.562,11.544,1.908,14.679,0.305C218.599,396.727,216.564,394.279,216.046,390.443z"/>
			<path style="opacity:0.5;fill:#263238;" d="M216.046,390.443c-2.532-18.745,2.147-36.809-0.441-48.443
				c13.045,2.308,40.018,7.071,44.503-11.334c1.741-7.146,9.268-15.848,8.659-19.831c-11.352-0.028-48.422-0.412-61.934,2.164
				c-22.087,4.212-21.096,19.421-15.167,45.088c2.316,10.026,3.534,11.762,6.437,24.823c1.559,7.016,1.228,11.374,3.249,15.95
				c5.056,3.562,11.544,1.908,14.679,0.305C218.599,396.727,216.564,394.279,216.046,390.443z"/>
		</g>
		<path style="fill:#FF8B7B;" d="M243.676,392.697c1.071-1.697,9.331-6.186,9.331-6.186c5.809,9.712,9.783,19.038,9.783,19.038
			l-11.147,3.45C251.643,408.999,247.429,397.855,243.676,392.697z"/>
		<path style="fill:#263238;" d="M238.972,241.625c15.139,2.278,5.37,30.832,0.032,39.875c-8.282-4.593-19.253-7.209-20.807-13.945
			C222.196,259.917,219.967,238.766,238.972,241.625z"/>
		<path style="fill:#407BFF;" d="M270.652,229.525c-11.35,1.14-31.874,6.893-41.798,13.366c-4.899,3.195-6.921,9.498-5.885,16.004
			c3.791,23.794,6.337,36.525,5.648,52.642c4.992,6.75,52.011,12.17,63.749,2.019c1.622-9.035,4.081-31.887-0.366-66.635
			C290.43,234.643,281.071,228.478,270.652,229.525z"/>
		<path style="opacity:0.2;" d="M292,246.92c-0.04-0.33-0.09-0.65-0.15-0.97c-22.53,2.56-29.15,44.31,1.94,56.45
			C294.83,290.42,295.17,271.69,292,246.92z"/>
		<path style="fill:#FF8B7B;" d="M246.023,213.182c1.525,8.818,5.959,16.917,12.351,19.554c0,0-5.623,10.986-19.03,20.712
			c-6.371-5.782-5.646-11.393-5.646-11.393c2.333-3.125,3.887-6.509,0.745-9.931L246.023,213.182z"/>
		<path style="opacity:0.2;" d="M242.973,223.538l-7.773,9.542c1.33,1.96,1.22,3.91,0.42,5.79c2.47-1.2,6.391-3.656,7.792-6.713
			C245.751,227.055,244.428,223.167,242.973,223.538z"/>
		<path style="fill:#FF8B7B;" d="M243.229,205.24c3.388,9.522,5.854,14.887,3.198,21.988c-3.996,10.682-17.265,12.222-23.431,4.119
			c-5.549-7.294-10.157-21.641-2.647-29.892C227.749,193.326,239.841,195.717,243.229,205.24z"/>
		<path style="fill:#263238;" d="M233.377,203.085c-1.391,5.21,7.096,7.415,6.359,13.425c4.295-0.281,7.817-3.563,9.128-8.459
			c1.311-4.896-2.84-14.828-9.012-10.695C235.575,198.281,234.334,199.5,233.377,203.085z"/>
		<path style="fill:#263238;" d="M231.657,218.076c0.277,0.784,0.086,1.565-0.426,1.746c-0.512,0.181-1.152-0.308-1.428-1.091
			c-0.277-0.784-0.086-1.565,0.426-1.746C230.741,216.803,231.38,217.292,231.657,218.076z"/>
		<path style="fill:#263238;" d="M222.578,222.286c0.277,0.784,0.086,1.565-0.426,1.746c-0.512,0.181-1.152-0.308-1.428-1.091
			c-0.277-0.783-0.086-1.565,0.426-1.746C221.662,221.014,222.301,221.503,222.578,222.286z"/>
		<path style="fill:#263238;" d="M234.908,228.458c-0.344,0.27-0.732,0.528-1.172,0.763c-0.119,0.063-0.266,0.019-0.33-0.1
			c-0.063-0.118-0.021-0.264,0.1-0.33c3.214-1.717,3.516-4.769,3.519-4.8c0.011-0.135,0.13-0.234,0.264-0.222
			c0.134,0.011,0.234,0.13,0.222,0.264C237.501,224.15,237.26,226.608,234.908,228.458z"/>
		<path style="fill:#263238;" d="M231.408,213.171c-0.126,0.028-0.263,0.006-0.378-0.072c-1.802-1.22-3.465-0.545-3.484-0.537
			c-0.246,0.101-0.534-0.012-0.639-0.261c-0.104-0.248,0.012-0.534,0.261-0.639c0.087-0.036,2.173-0.886,4.41,0.629
			c0.223,0.151,0.281,0.455,0.13,0.678C231.635,213.076,231.527,213.145,231.408,213.171z"/>
		<path style="fill:#263238;" d="M220.166,217.544c0.112-0.046,0.242-0.05,0.363-0.002c0.251,0.099,0.374,0.383,0.275,0.633
			c-0.992,2.51-3.194,2.987-3.288,3.005c-0.264,0.054-0.522-0.116-0.576-0.38c-0.054-0.264,0.116-0.521,0.379-0.576
			c0.087-0.018,1.788-0.412,2.577-2.408C219.947,217.687,220.047,217.592,220.166,217.544z"/>
		<path style="fill:#FF5652;" d="M225.088,219.761c0,0,1.023,4.956,0.548,7.97c1.96,0.345,3.694-1.505,3.694-1.505L225.088,219.761z
			"/>
		<path style="fill:#FF8B7B;" d="M289.513,243.309c0.593,1.718,1.079,3.227,1.552,4.848c0.483,1.592,0.9,3.199,1.323,4.809
			c0.812,3.227,1.557,6.489,2.13,9.833c0.289,1.674,0.564,3.356,0.792,5.075c0.207,1.723,0.39,3.462,0.509,5.256
			c0.11,1.797,0.202,3.635,0.136,5.573c-0.061,1.94-0.209,3.969-0.674,6.286l-0.1,0.501c-0.237,1.179-0.756,2.268-1.441,3.163
			c-1.116,1.447-2.449,2.602-3.76,3.456c-1.315,0.862-2.612,1.444-3.835,1.859c-2.447,0.825-4.611,1.1-6.622,1.225
			c-2.008,0.121-3.879,0.031-5.674-0.149c-1.795-0.181-3.518-0.431-5.196-0.764c-3.353-0.674-6.539-1.562-9.64-2.618
			c-3.118-1.081-6.057-2.237-9.102-3.739c-2.358-1.163-3.327-4.018-2.163-6.376c0.897-1.817,2.798-2.81,4.703-2.636l0.252,0.025
			c2.861,0.268,5.911,0.598,8.823,0.797c2.932,0.21,5.831,0.36,8.61,0.329c2.758,0.007,5.462-0.22,7.588-0.678
			c1.047-0.227,1.933-0.56,2.362-0.855c0.212-0.147,0.299-0.263,0.251-0.281c-0.045-0.023-0.237,0.067-0.436,0.272l-1.541,3.664
			c0.046-0.82,0.023-1.978-0.092-3.213c-0.122-1.239-0.26-2.571-0.477-3.934c-0.444-2.737-1.044-5.597-1.712-8.481
			c-0.698-2.881-1.422-5.803-2.226-8.719l-2.409-8.653l-0.063-0.226c-1.407-5.055,1.55-10.293,6.605-11.7
			C282.844,235.905,287.88,238.611,289.513,243.309z"/>
		<path style="fill:#263238;" d="M233.298,287.417c-0.299,0-0.594-0.133-0.791-0.387c-0.338-0.436-0.259-1.065,0.178-1.403
			l23.571-18.267c0.437-0.338,1.065-0.259,1.403,0.178c0.338,0.437,0.259,1.065-0.178,1.403l-23.571,18.267
			C233.727,287.348,233.512,287.417,233.298,287.417z"/>
		<path style="fill:#FF8B7B;" d="M242.419,277.681l3.907-0.379c1.552-0.151,3.086,0.089,4.496,0.702l3.915,1.702
			c1.816,0.789,2.989,2.769,3.011,5.083l0,0c0.032,3.209-2.124,6.154-4.894,6.538c-2.917,0.405-5.918-0.415-5.918-0.415
			l-4.926-0.337c-1.669-0.114-2.919-1.63-2.953-3.581l-0.085-4.901C238.933,279.858,240.488,277.868,242.419,277.681z"/>
		<g>
			<path style="fill:#407BFF;" d="M257.066,379.833c-8.083-16.833-2.921-18.333-10.175-34.33
				c12.675,1.33,35.434,2.422,43.082-14.245c3.068-6.685,2.419-14.418,2.393-17.704c-8.701-4.68-36.572-3.419-50.018-0.519
				c-21.98,4.741-31.951,9.004-23.015,35.965c2.939,8.868,7.076,16.889,15.84,31.07c3.779,6.114,5.735,15.646,9.353,19.1
				c3.529,2.95,7.005-3.188,14.122-2.381C261.7,392.369,258.742,383.323,257.066,379.833z"/>
			<path style="opacity:0.4;fill:#263238;" d="M257.066,379.833c-8.083-16.833-2.921-18.333-10.175-34.33
				c12.675,1.33,35.434,2.422,43.082-14.245c3.068-6.685,2.419-14.418,2.393-17.704c-8.701-4.68-36.572-3.419-50.018-0.519
				c-21.98,4.741-31.951,9.004-23.015,35.965c2.939,8.868,7.076,16.889,15.84,31.07c3.779,6.114,5.735,15.646,9.353,19.1
				c3.529,2.95,7.005-3.188,14.122-2.381C261.7,392.369,258.742,383.323,257.066,379.833z"/>
		</g>
		<path style="fill:#263238;" d="M263.57,401.879c-2.439-1.45-9.976,2.061-9.976,2.061s-0.034-1.044-0.965-2.709
			c-0.931-1.665-5.562,0.079-6.976,2.138c-1.414,2.059,2.784,3.048,2.784,3.048c-2.242,4.559-0.768,6.998-7.626,8.842
			c-1.428,0.384-0.913,3.381,2.492,3.429c5.632,0.08,5.155-1.911,9.766-3.253c3.944-1.148,8.998-2.561,13.056-3.804
			c0.747-0.229,1.199-1.019,0.918-1.656L263.57,401.879z"/>
		<path style="fill:#263238;" d="M217.193,408.554c-1.907-2.101-10.142-0.952-10.142-0.952s0.273-1.008-0.129-2.873
			c-0.402-1.865-5.341-1.554-7.296,0c-1.955,1.554,1.768,3.73,1.768,3.73c-3.479,3.702-4.138,4.956-10.996,6.8
			c-1.428,0.384-0.913,3.381,2.492,3.429c5.632,0.08,5.488-0.317,10.291-0.249c4.107,0.058,9.353,0.188,13.598,0.188
			c0.781,0,1.445-0.622,1.363-1.314L217.193,408.554z"/>
		<g>
			<g>
				<g>
					
						<rect x="150.46" y="287.396" transform="matrix(-1 -1.224647e-16 1.224647e-16 -1 415.0732 582.8157)" style="fill:#407BFF;" width="114.153" height="8.024"/>
					
						<rect x="222.667" y="287.396" transform="matrix(-1 -1.224647e-16 1.224647e-16 -1 487.2805 582.8157)" style="opacity:0.3;fill:#263238;" width="41.946" height="8.024"/>
				</g>
				<polygon style="fill:#E0E0E0;" points="202.434,420.167 212.64,420.167 209.99,295.42 205.083,295.42 				"/>
				<polygon style="opacity:0.3;fill:#263238;" points="204.997,299.54 210.126,301.912 209.99,295.42 205.083,295.42 				"/>
			</g>
		</g>
		<g>
			<path style="fill:#407BFF;" d="M207.561,282.417c-3.329,0.917-25.172,3.5-35.005,1c2.25,1.5,10.083,3.979,16.917,3.979h53.081
				c0,0,5.502,0,6.752-1.479C241.806,286.667,212.39,285.75,207.561,282.417z"/>
			<path style="opacity:0.7;fill:#FFFFFF;" d="M207.561,282.417c-3.329,0.917-25.172,3.5-35.005,1
				c2.25,1.5,10.083,3.979,16.917,3.979h53.081c0,0,5.502,0,6.752-1.479C241.806,286.667,212.39,285.75,207.561,282.417z"/>
		</g>
		<path style="fill:#263238;" d="M272.674,229.41c19.767-0.161,18.078,15.97,22.545,27.292
			c-7.444,11.667-23.553,12.519-23.553,12.519S251.031,229.586,272.674,229.41z"/>
		<path style="fill:#FF8B7B;" d="M250.482,213.761c0.214,2.811-0.795,5.18-2.211,6.556c-2.13,2.069-4.955-0.169-5.838-3.485
			c-0.794-2.985-0.644-7.659,2.203-8.417C247.442,207.667,250.238,210.546,250.482,213.761z"/>
		<path style="fill:#263238;" d="M235.03,204.491c-4.08,6.859-17.47,7.93-22.49,4.733c-4.854-3.091-4.917-10.418-0.04-14.002
			c1.178,6.944,11.093,7.873,16.696,5.656C234.799,198.661,238.632,198.438,235.03,204.491z"/>
		<path style="fill:#263238;" d="M231.64,202.667c-6.708-7.916-0.5-16.167,7.417-15.917c-5.042,6.125-1.544,10.058,1.417,10.748
			C236.393,203.258,231.64,202.667,231.64,202.667z"/>
		<path style="fill:#263238;" d="M229.33,209.138c-8.83,4.584-20.377,2.803-21.775-1.694c4.421,1.643,9.106,0.064,9.522-1.695
			C220.494,208.187,229.33,209.138,229.33,209.138z"/>
		<path style="fill:#263238;" d="M239.851,197.355c3.626-3.189,9.918,0.848,10.75,4.439c-3.357-1.537-5.207,0.341-5.503,1.724
			C242.384,201.669,239.851,197.355,239.851,197.355z"/>
		<path style="fill:#263238;" d="M217.731,202.849c-4.349-5.958-0.776-14.82,6.926-16.368c-2.289,4.041,5.841,9.497,9.292,7.48
			c3.707,8.579,0.387,10.887-5.899,12.692C223.364,207.998,219.245,204.924,217.731,202.849z"/>
		<path style="fill:#263238;" d="M232.251,195.555c1.683-4.261,12.742-6.111,15.297-2c-3.833,0.945-2.437,6-3.075,8.995
			C243.465,207.283,229.64,202.167,232.251,195.555z"/>
		<path style="fill:#FF8B7B;" d="M251.68,218.864c-0.47-0.47-1.11-0.76-1.82-0.76c-0.71,0-1.36,0.29-1.83,0.76
			c-0.47,0.46-0.76,1.11-0.76,1.82c0,1.42,1.17,2.58,2.59,2.58c0.71,0,1.35-0.29,1.82-0.76c0.47-0.46,0.76-1.11,0.76-1.82
			C252.439,219.974,252.149,219.324,251.68,218.864z M249.859,221.964c-0.7,0-1.28-0.58-1.28-1.28c0-0.7,0.58-1.28,1.28-1.28
			c0.7,0,1.27,0.58,1.27,1.28C251.13,221.384,250.56,221.964,249.859,221.964z"/>
		<path style="fill:#263238;" d="M251.22,219.324c-0.35-0.35-0.83-0.57-1.36-0.57c-0.53,0-1.01,0.22-1.36,0.57s-0.57,0.83-0.57,1.36
			c0,1.06,0.87,1.93,1.93,1.93c0.53,0,1.01-0.22,1.36-0.57c0.35-0.35,0.57-0.83,0.57-1.36
			C251.79,220.154,251.57,219.674,251.22,219.324z M249.859,221.964c-0.7,0-1.28-0.58-1.28-1.28c0-0.7,0.58-1.28,1.28-1.28
			c0.7,0,1.27,0.58,1.27,1.28C251.13,221.384,250.56,221.964,249.859,221.964z"/>
	</g>
</g>
</svg>
