<?xml version="1.0" encoding="UTF-8" standalone="no"?>
<!-- Created with Inkscape (http://www.inkscape.org/) -->

<svg
   version="1.1"
   id="svg2"
   width="666.66669"
   height="666.66669"
   viewBox="0 0 666.66669 666.66669"
   sodipodi:docname="82648093_9886318.ai"
   xmlns:inkscape="http://www.inkscape.org/namespaces/inkscape"
   xmlns:sodipodi="http://sodipodi.sourceforge.net/DTD/sodipodi-0.dtd"
   xmlns="http://www.w3.org/2000/svg"
   xmlns:svg="http://www.w3.org/2000/svg">
  <defs
     id="defs6">
    <clipPath
       clipPathUnits="userSpaceOnUse"
       id="clipPath16">
      <path
         d="M 0,500 H 500 V 0 H 0 Z"
         id="path14" />
    </clipPath>
    <clipPath
       clipPathUnits="userSpaceOnUse"
       id="clipPath174">
      <path
         d="M 0,500 H 500 V 0 H 0 Z"
         id="path172" />
    </clipPath>
    <clipPath
       clipPathUnits="userSpaceOnUse"
       id="clipPath186">
      <path
         d="M 54.9338,423.843 H 437.26 V 161.159 H 54.9338 Z"
         id="path184" />
    </clipPath>
    <clipPath
       clipPathUnits="userSpaceOnUse"
       id="clipPath202">
      <path
         d="M 0,500 H 500 V 0 H 0 Z"
         id="path200" />
    </clipPath>
    <clipPath
       clipPathUnits="userSpaceOnUse"
       id="clipPath214">
      <path
         d="M 0,500 H 500 V 0 H 0 Z"
         id="path212" />
    </clipPath>
    <clipPath
       clipPathUnits="userSpaceOnUse"
       id="clipPath230">
      <path
         d="m 360.965,55.5093 h 52.2 v -7.4801 h -52.2 z"
         id="path228" />
    </clipPath>
    <clipPath
       clipPathUnits="userSpaceOnUse"
       id="clipPath258">
      <path
         d="m 101.602,62.2046 h 52.2 v -7.4801 h -52.2 z"
         id="path256" />
    </clipPath>
    <clipPath
       clipPathUnits="userSpaceOnUse"
       id="clipPath286">
      <path
         d="m 428.696,34.0634 h 52.199 v -7.4801 h -52.199 z"
         id="path284" />
    </clipPath>
    <clipPath
       clipPathUnits="userSpaceOnUse"
       id="clipPath314">
      <path
         d="m 294.183,29.7685 h 52.2 v -7.4801 h -52.2 z"
         id="path312" />
    </clipPath>
    <clipPath
       clipPathUnits="userSpaceOnUse"
       id="clipPath342">
      <path
         d="m 224.519,61.9414 h 52.2 v -7.4801 h -52.2 z"
         id="path340" />
    </clipPath>
    <clipPath
       clipPathUnits="userSpaceOnUse"
       id="clipPath370">
      <path
         d="M 30.7872,46.0848 H 82.987 V 38.6047 H 30.7872 Z"
         id="path368" />
    </clipPath>
    <clipPath
       clipPathUnits="userSpaceOnUse"
       id="clipPath398">
      <path
         d="m 158.028,35.588 h 52.199 v -7.4801 h -52.199 z"
         id="path396" />
    </clipPath>
    <clipPath
       clipPathUnits="userSpaceOnUse"
       id="clipPath418">
      <path
         d="M 0,500 H 500 V 0 H 0 Z"
         id="path416" />
    </clipPath>
    <clipPath
       clipPathUnits="userSpaceOnUse"
       id="clipPath434">
      <path
         d="m 205.709,410.632 h 76.925 v -74.118 h -76.925 z"
         id="path432" />
    </clipPath>
    <clipPath
       clipPathUnits="userSpaceOnUse"
       id="clipPath450">
      <path
         d="m 266.821,348.951 h 8.438 v -8.438 h -8.438 z"
         id="path448" />
    </clipPath>
    <clipPath
       clipPathUnits="userSpaceOnUse"
       id="clipPath470">
      <path
         d="M 0,500 H 500 V 0 H 0 Z"
         id="path468" />
    </clipPath>
    <clipPath
       clipPathUnits="userSpaceOnUse"
       id="clipPath514">
      <path
         d="m 380.981,261.639 h 29.768 v -26.515 h -29.768 z"
         id="path512" />
    </clipPath>
    <clipPath
       clipPathUnits="userSpaceOnUse"
       id="clipPath590">
      <path
         d="m 283.406,336.384 h 68.351 v -23.11 h -68.351 z"
         id="path588" />
    </clipPath>
    <clipPath
       clipPathUnits="userSpaceOnUse"
       id="clipPath610">
      <path
         d="m 293.648,311.349 h 9.799 v -23.697 h -9.799 z"
         id="path608" />
    </clipPath>
    <clipPath
       clipPathUnits="userSpaceOnUse"
       id="clipPath662">
      <path
         d="m 295.45,325.298 h 4.886 v -7.381 h -4.886 z"
         id="path660" />
    </clipPath>
    <clipPath
       clipPathUnits="userSpaceOnUse"
       id="clipPath682">
      <path
         d="m 292.71,333.864 h 48.257 V 316.037 H 292.71 Z"
         id="path680" />
    </clipPath>
    <clipPath
       clipPathUnits="userSpaceOnUse"
       id="clipPath706">
      <path
         d="m 301.191,347.345 h 39.948 v -15.381 h -39.948 z"
         id="path704" />
    </clipPath>
    <clipPath
       clipPathUnits="userSpaceOnUse"
       id="clipPath722">
      <path
         d="m 316.719,354.144 h 10.622 v -2.125 h -10.622 z"
         id="path720" />
    </clipPath>
    <clipPath
       clipPathUnits="userSpaceOnUse"
       id="clipPath738">
      <path
         d="m 337.082,345.772 h 1.607 v -7.458 h -1.607 z"
         id="path736" />
    </clipPath>
    <clipPath
       clipPathUnits="userSpaceOnUse"
       id="clipPath754">
      <path
         d="m 218.95,256.357 h 79.168 V 87.0441 H 218.95 Z"
         id="path752" />
    </clipPath>
    <clipPath
       clipPathUnits="userSpaceOnUse"
       id="clipPath786">
      <path
         d="m 268.207,200.842 h 11.848 v -18.89 h -11.848 z"
         id="path784" />
    </clipPath>
    <clipPath
       clipPathUnits="userSpaceOnUse"
       id="clipPath806">
      <path
         d="m 270.875,292.483 h 28.174 v -23.276 h -28.174 z"
         id="path804" />
    </clipPath>
    <clipPath
       clipPathUnits="userSpaceOnUse"
       id="clipPath822">
      <path
         d="m 172.226,239.144 h 62.243 V 86.2109 h -62.243 z"
         id="path820" />
    </clipPath>
    <clipPath
       clipPathUnits="userSpaceOnUse"
       id="clipPath846">
      <path
         d="m 238.281,189.582 h 9.028 v -24.656 h -9.028 z"
         id="path844" />
    </clipPath>
    <clipPath
       clipPathUnits="userSpaceOnUse"
       id="clipPath862">
      <path
         d="m 226.66,313.824 h 27.523 V 286.088 H 226.66 Z"
         id="path860" />
    </clipPath>
    <clipPath
       clipPathUnits="userSpaceOnUse"
       id="clipPath878">
      <path
         d="m 150.217,262.436 h 19.83 v -18.513 h -19.83 z"
         id="path876" />
    </clipPath>
    <clipPath
       clipPathUnits="userSpaceOnUse"
       id="clipPath898">
      <path
         d="m 240.407,304.132 h 40.642 V 245.02 h -40.642 z"
         id="path896" />
    </clipPath>
    <clipPath
       clipPathUnits="userSpaceOnUse"
       id="clipPath918">
      <path
         d="m 294.599,287.837 h 12.725 v -68.38 h -12.725 z"
         id="path916" />
    </clipPath>
    <clipPath
       clipPathUnits="userSpaceOnUse"
       id="clipPath934">
      <path
         d="m 301.009,254.134 h 10.846 v -61.219 h -10.846 z"
         id="path932" />
    </clipPath>
    <clipPath
       clipPathUnits="userSpaceOnUse"
       id="clipPath950">
      <path
         d="m 179.03,216.302 h 22.168 v -3.713 H 179.03 Z"
         id="path948" />
    </clipPath>
    <clipPath
       clipPathUnits="userSpaceOnUse"
       id="clipPath970">
      <path
         d="m 304.421,156.123 h 13.991 v -6.106 h -13.991 z"
         id="path968" />
    </clipPath>
    <clipPath
       clipPathUnits="userSpaceOnUse"
       id="clipPath986">
      <path
         d="m 306.371,149.774 h 10.095 v -3.808 h -10.095 z"
         id="path984" />
    </clipPath>
    <clipPath
       clipPathUnits="userSpaceOnUse"
       id="clipPath1002">
      <path
         d="m 310.875,225.919 h 9.584 v -18.715 h -9.584 z"
         id="path1000" />
    </clipPath>
    <clipPath
       clipPathUnits="userSpaceOnUse"
       id="clipPath1018">
      <path
         d="m 309.264,248.578 h 5.013 v -5.583 h -5.013 z"
         id="path1016" />
    </clipPath>
    <clipPath
       clipPathUnits="userSpaceOnUse"
       id="clipPath1034">
      <path
         d="m 389.431,259.624 h 12.791 V 237.71 h -12.791 z"
         id="path1032" />
    </clipPath>
    <clipPath
       clipPathUnits="userSpaceOnUse"
       id="clipPath1050">
      <path
         d="m 247.783,146.419 h 5.515 V 110.94 h -5.515 z"
         id="path1048" />
    </clipPath>
    <clipPath
       clipPathUnits="userSpaceOnUse"
       id="clipPath1066">
      <path
         d="m 258.532,146.978 h 6.708 V 87.3346 h -6.708 z"
         id="path1064" />
    </clipPath>
  </defs>
  <sodipodi:namedview
     id="namedview4"
     pagecolor="#ffffff"
     bordercolor="#000000"
     borderopacity="0.25"
     inkscape:showpageshadow="2"
     inkscape:pageopacity="0.0"
     inkscape:pagecheckerboard="0"
     inkscape:deskcolor="#d1d1d1" />
  <g
     id="g8"
     inkscape:groupmode="layer"
     inkscape:label="82648093_9886318"
     transform="matrix(1.3333333,0,0,-1.3333333,0,666.66667)">
    <g
       id="g10">
      <g
         id="g12"
         clip-path="url(#clipPath16)">
        <g
           id="g18"
           transform="translate(351.8297,250.6726)">
          <path
             d="m 0,0 h -28.873 c -0.754,0 -1.365,0.742 -1.365,1.658 v 6.983 c 0,0.916 0.611,1.658 1.365,1.658 H 0 c 0.754,0 1.365,-0.742 1.365,-1.658 V 1.658 C 1.365,0.742 0.754,0 0,0"
             style="fill:#f5f5f5;fill-opacity:1;fill-rule:nonzero;stroke:none"
             id="path20" />
        </g>
        <g
           id="g22"
           transform="translate(388.2369,251.066)">
          <path
             d="m 0,0 h -28.873 c -0.753,0 -1.365,0.742 -1.365,1.658 v 6.983 c 0,0.916 0.612,1.658 1.365,1.658 H 0 c 0.754,0 1.365,-0.742 1.365,-1.658 V 1.658 C 1.365,0.742 0.754,0 0,0"
             style="fill:#f5f5f5;fill-opacity:1;fill-rule:nonzero;stroke:none"
             id="path24" />
        </g>
        <g
           id="g26"
           transform="translate(369.6003,264.1247)">
          <path
             d="m 0,0 h -28.873 c -0.753,0 -1.365,0.742 -1.365,1.658 v 6.983 c 0,0.916 0.612,1.658 1.365,1.658 H 0 c 0.754,0 1.365,-0.742 1.365,-1.658 V 1.658 C 1.365,0.742 0.754,0 0,0"
             style="fill:#f5f5f5;fill-opacity:1;fill-rule:nonzero;stroke:none"
             id="path28" />
        </g>
        <g
           id="g30"
           transform="translate(408.3108,163.4134)">
          <path
             d="m 0,0 h -28.873 c -0.754,0 -1.365,0.742 -1.365,1.658 v 6.983 c 0,0.916 0.611,1.658 1.365,1.658 H 0 c 0.754,0 1.365,-0.742 1.365,-1.658 V 1.658 C 1.365,0.742 0.754,0 0,0"
             style="fill:#f5f5f5;fill-opacity:1;fill-rule:nonzero;stroke:none"
             id="path32" />
        </g>
        <g
           id="g34"
           transform="translate(444.718,163.8068)">
          <path
             d="m 0,0 h -28.873 c -0.753,0 -1.365,0.742 -1.365,1.658 v 6.983 c 0,0.916 0.612,1.658 1.365,1.658 H 0 c 0.754,0 1.365,-0.742 1.365,-1.658 V 1.658 C 1.365,0.742 0.754,0 0,0"
             style="fill:#f5f5f5;fill-opacity:1;fill-rule:nonzero;stroke:none"
             id="path36" />
        </g>
        <g
           id="g38"
           transform="translate(426.0814,176.8655)">
          <path
             d="m 0,0 h -28.873 c -0.753,0 -1.365,0.742 -1.365,1.658 v 6.983 c 0,0.916 0.612,1.658 1.365,1.658 H 0 c 0.754,0 1.365,-0.742 1.365,-1.658 V 1.658 C 1.365,0.742 0.754,0 0,0"
             style="fill:#f5f5f5;fill-opacity:1;fill-rule:nonzero;stroke:none"
             id="path40" />
        </g>
        <g
           id="g42"
           transform="translate(125.0007,188.3967)">
          <path
             d="m 0,0 h -28.873 c -0.753,0 -1.365,0.742 -1.365,1.658 v 6.983 c 0,0.916 0.612,1.658 1.365,1.658 H 0 c 0.754,0 1.365,-0.742 1.365,-1.658 V 1.658 C 1.365,0.742 0.754,0 0,0"
             style="fill:#f0f0f0;fill-opacity:1;fill-rule:nonzero;stroke:none"
             id="path44" />
        </g>
        <g
           id="g46"
           transform="translate(125.0007,162.8502)">
          <path
             d="m 0,0 h -28.873 c -0.753,0 -1.365,0.742 -1.365,1.658 v 6.983 c 0,0.916 0.612,1.658 1.365,1.658 H 0 c 0.754,0 1.365,-0.742 1.365,-1.658 V 1.658 C 1.365,0.742 0.754,0 0,0"
             style="fill:#f0f0f0;fill-opacity:1;fill-rule:nonzero;stroke:none"
             id="path48" />
        </g>
        <g
           id="g50"
           transform="translate(134.6594,175.6234)">
          <path
             d="m 0,0 h -28.873 c -0.754,0 -1.365,0.742 -1.365,1.658 v 6.983 c 0,0.916 0.611,1.658 1.365,1.658 H 0 c 0.754,0 1.365,-0.742 1.365,-1.658 V 1.658 C 1.365,0.742 0.754,0 0,0"
             style="fill:#f0f0f0;fill-opacity:1;fill-rule:nonzero;stroke:none"
             id="path52" />
        </g>
        <g
           id="g54"
           transform="translate(101.5779,175.6234)">
          <path
             d="m 0,0 h -28.873 c -0.754,0 -1.365,0.742 -1.365,1.658 v 6.983 c 0,0.916 0.611,1.658 1.365,1.658 H 0 c 0.754,0 1.365,-0.742 1.365,-1.658 V 1.658 C 1.365,0.742 0.754,0 0,0"
             style="fill:#ececec;fill-opacity:1;fill-rule:nonzero;stroke:none"
             id="path56" />
        </g>
        <g
           id="g58"
           transform="translate(182.7189,431.8129)">
          <path
             d="m 0,0 h -28.873 c -0.754,0 -1.365,0.742 -1.365,1.658 v 6.983 c 0,0.916 0.611,1.658 1.365,1.658 H 0 c 0.754,0 1.365,-0.742 1.365,-1.658 V 1.658 C 1.365,0.742 0.754,0 0,0"
             style="fill:#f0f0f0;fill-opacity:1;fill-rule:nonzero;stroke:none"
             id="path60" />
        </g>
        <g
           id="g62"
           transform="translate(192.3776,444.5861)">
          <path
             d="m 0,0 h -28.873 c -0.754,0 -1.365,0.742 -1.365,1.658 v 6.983 c 0,0.916 0.611,1.658 1.365,1.658 H 0 c 0.754,0 1.365,-0.742 1.365,-1.658 V 1.658 C 1.365,0.742 0.754,0 0,0"
             style="fill:#f0f0f0;fill-opacity:1;fill-rule:nonzero;stroke:none"
             id="path64" />
        </g>
        <g
           id="g66"
           transform="translate(159.2961,444.5861)">
          <path
             d="m 0,0 h -28.873 c -0.754,0 -1.365,0.742 -1.365,1.658 v 6.983 c 0,0.916 0.611,1.658 1.365,1.658 H 0 c 0.754,0 1.365,-0.742 1.365,-1.658 V 1.658 C 1.365,0.742 0.754,0 0,0"
             style="fill:#ececec;fill-opacity:1;fill-rule:nonzero;stroke:none"
             id="path68" />
        </g>
        <g
           id="g70"
           transform="translate(440.0604,339.5874)">
          <path
             d="m 0,0 h -28.873 c -0.753,0 -1.365,0.742 -1.365,1.658 v 6.983 c 0,0.916 0.612,1.658 1.365,1.658 H 0 c 0.754,0 1.365,-0.742 1.365,-1.658 V 1.658 C 1.365,0.742 0.754,0 0,0"
             style="fill:#f0f0f0;fill-opacity:1;fill-rule:nonzero;stroke:none"
             id="path72" />
        </g>
        <g
           id="g74"
           transform="translate(440.0604,314.0409)">
          <path
             d="m 0,0 h -28.873 c -0.753,0 -1.365,0.742 -1.365,1.658 v 6.983 c 0,0.916 0.612,1.658 1.365,1.658 H 0 c 0.754,0 1.365,-0.742 1.365,-1.658 V 1.658 C 1.365,0.742 0.754,0 0,0"
             style="fill:#f0f0f0;fill-opacity:1;fill-rule:nonzero;stroke:none"
             id="path76" />
        </g>
        <g
           id="g78"
           transform="translate(449.7191,326.8141)">
          <path
             d="m 0,0 h -28.873 c -0.754,0 -1.365,0.742 -1.365,1.658 v 6.983 c 0,0.916 0.611,1.658 1.365,1.658 H 0 c 0.754,0 1.365,-0.742 1.365,-1.658 V 1.658 C 1.365,0.742 0.754,0 0,0"
             style="fill:#f0f0f0;fill-opacity:1;fill-rule:nonzero;stroke:none"
             id="path80" />
        </g>
        <g
           id="g82"
           transform="translate(416.6376,326.8141)">
          <path
             d="m 0,0 h -28.873 c -0.754,0 -1.365,0.742 -1.365,1.658 v 6.983 c 0,0.916 0.611,1.658 1.365,1.658 H 0 c 0.754,0 1.365,-0.742 1.365,-1.658 V 1.658 C 1.365,0.742 0.754,0 0,0"
             style="fill:#ececec;fill-opacity:1;fill-rule:nonzero;stroke:none"
             id="path84" />
        </g>
        <g
           id="g86"
           transform="translate(263.1743,419.9388)">
          <path
             d="m 0,0 c -3.095,0 -5.612,-2.518 -5.612,-5.612 v -263.273 c 0,-3.095 2.517,-5.612 5.612,-5.612 h 180.746 c 3.095,0 5.612,2.517 5.612,5.612 V -5.612 c 0,3.094 -2.517,5.612 -5.612,5.612 z M 180.746,-274.747 H 0 c -3.232,0 -5.862,2.629 -5.862,5.862 V -5.612 c 0,3.233 2.63,5.862 5.862,5.862 h 180.746 c 3.233,0 5.862,-2.629 5.862,-5.862 v -263.273 c 0,-3.233 -2.629,-5.862 -5.862,-5.862"
             style="fill:#e1e1e1;fill-opacity:1;fill-rule:nonzero;stroke:none"
             id="path88" />
        </g>
        <g
           id="g90"
           transform="translate(54.7461,419.9388)">
          <path
             d="m 0,0 c -3.094,0 -5.612,-2.518 -5.612,-5.612 v -263.273 c 0,-3.095 2.518,-5.612 5.612,-5.612 h 180.747 c 3.094,0 5.612,2.517 5.612,5.612 V -5.612 c 0,3.094 -2.518,5.612 -5.612,5.612 z M 180.747,-274.747 H 0 c -3.232,0 -5.862,2.629 -5.862,5.862 V -5.612 c 0,3.233 2.63,5.862 5.862,5.862 h 180.747 c 3.232,0 5.862,-2.629 5.862,-5.862 v -263.273 c 0,-3.233 -2.63,-5.862 -5.862,-5.862"
             style="fill:#e1e1e1;fill-opacity:1;fill-rule:nonzero;stroke:none"
             id="path92" />
        </g>
        <path
           d="M 500,112.717 H 0 v 0.25 h 500 z"
           style="fill:#e1e1e1;fill-opacity:1;fill-rule:nonzero;stroke:none"
           id="path94" />
        <path
           d="m 51.672,98.702 h 16.06 v -0.25 h -16.06 z"
           style="fill:#e1e1e1;fill-opacity:1;fill-rule:nonzero;stroke:none"
           id="path96" />
        <path
           d="m 170.352,101.412 h 53.53 v -0.25 h -53.53 z"
           style="fill:#e1e1e1;fill-opacity:1;fill-rule:nonzero;stroke:none"
           id="path98" />
        <path
           d="m 68.732,89.412 h 36.25 v -0.25 h -36.25 z"
           style="fill:#e1e1e1;fill-opacity:1;fill-rule:nonzero;stroke:none"
           id="path100" />
        <path
           d="m 378.352,101.542 h 43.19 v -0.25 h -43.19 z"
           style="fill:#e1e1e1;fill-opacity:1;fill-rule:nonzero;stroke:none"
           id="path102" />
        <path
           d="m 430.452,101.542 h 6.33 v -0.25 h -6.33 z"
           style="fill:#e1e1e1;fill-opacity:1;fill-rule:nonzero;stroke:none"
           id="path104" />
        <path
           d="m 316.212,95.312 h 53.89 v -0.25 h -53.89 z"
           style="fill:#e1e1e1;fill-opacity:1;fill-rule:nonzero;stroke:none"
           id="path106" />
        <g
           id="g108"
           transform="translate(356.6371,418.4614)">
          <path
             d="m 0,0 h -28.873 c -0.754,0 -1.365,0.742 -1.365,1.658 v 6.983 c 0,0.916 0.611,1.658 1.365,1.658 H 0 c 0.754,0 1.365,-0.742 1.365,-1.658 V 1.658 C 1.365,0.742 0.754,0 0,0"
             style="fill:#f5f5f5;fill-opacity:1;fill-rule:nonzero;stroke:none"
             id="path110" />
        </g>
        <g
           id="g112"
           transform="translate(393.0443,418.8548)">
          <path
             d="m 0,0 h -28.873 c -0.753,0 -1.365,0.742 -1.365,1.658 v 6.983 c 0,0.916 0.612,1.658 1.365,1.658 H 0 c 0.754,0 1.365,-0.742 1.365,-1.658 V 1.658 C 1.365,0.742 0.754,0 0,0"
             style="fill:#f5f5f5;fill-opacity:1;fill-rule:nonzero;stroke:none"
             id="path114" />
        </g>
        <g
           id="g116"
           transform="translate(374.4077,431.9135)">
          <path
             d="m 0,0 h -28.873 c -0.753,0 -1.365,0.742 -1.365,1.658 v 6.983 c 0,0.916 0.612,1.658 1.365,1.658 H 0 c 0.754,0 1.365,-0.742 1.365,-1.658 V 1.658 C 1.365,0.742 0.754,0 0,0"
             style="fill:#f5f5f5;fill-opacity:1;fill-rule:nonzero;stroke:none"
             id="path118" />
        </g>
        <path
           d="M 51.007,423.611 H 247.454 V 256.075 H 51.007 Z"
           style="fill:#f0f0f0;fill-opacity:1;fill-rule:nonzero;stroke:none"
           id="path120" />
        <path
           d="m 249.043,256.085 h -1.589 v 167.536 h 1.589 z"
           style="fill:#e1e1e1;fill-opacity:1;fill-rule:nonzero;stroke:none"
           id="path122" />
        <path
           d="M 239.512,265.348 H 58.95 v 148.99 h 180.562 z"
           style="fill:#fafafa;fill-opacity:1;fill-rule:nonzero;stroke:none"
           id="path124" />
        <g
           id="g126"
           transform="translate(44.5339,406.159)">
          <path
             d="m 0,0 -0.866,-22.886 131.023,5.017 80.357,1.261 0.882,21.235 L 99.554,3.162 Z"
             style="fill:#ececec;fill-opacity:1;fill-rule:nonzero;stroke:none"
             id="path128" />
        </g>
        <g
           id="g130"
           transform="translate(44.2877,353.6645)">
          <path
             d="m 0,0 -0.357,-22.904 131.039,1.094 80.301,3.672 0.413,21.254 -111.77,-4.813 z"
             style="fill:#ececec;fill-opacity:1;fill-rule:nonzero;stroke:none"
             id="path132" />
        </g>
        <g
           id="g134"
           transform="translate(252.7764,353.4883)">
          <path
             d="m 0,0 1.779,22.812 -131.087,1.669 -80.324,2.837 -1.732,-21.179 111.786,-4.229 z"
             style="fill:#e1e1e1;fill-opacity:1;fill-rule:nonzero;stroke:none"
             id="path136" />
        </g>
        <g
           id="g138"
           transform="translate(251.8471,268.4362)">
          <path
             d="M 0,0 1.454,22.839 -129.641,22.441 -209.99,23.999 -211.42,2.81 -99.594,0.343 Z"
             style="fill:#e1e1e1;fill-opacity:1;fill-rule:nonzero;stroke:none"
             id="path140" />
        </g>
        <g
           id="g142"
           transform="translate(253.4515,313.4567)">
          <path
             d="m 0,0 0.945,22.876 -131.007,3.515 -80.357,-0.844 -0.961,-21.226 111.842,0.881 z"
             style="fill:#e1e1e1;fill-opacity:1;fill-rule:nonzero;stroke:none"
             id="path144" />
        </g>
        <g
           id="g146"
           transform="translate(45.0581,324.7049)">
          <path
             d="m 0,0 -2.367,-22.747 130.984,-6.278 80.213,-5.656 2.28,21.096 -111.627,8.17 z"
             style="fill:#ececec;fill-opacity:1;fill-rule:nonzero;stroke:none"
             id="path148" />
        </g>
        <g
           id="g150"
           transform="translate(472.627,143.3445)">
          <path
             d="M 0,0 -0.45,0.66 C -1.703,2.536 -2.482,4.687 -2.72,6.93 L -4.08,20 c 0.276,0.017 0.486,0.254 0.47,0.53 -0.017,0.276 -0.254,0.487 -0.53,0.47 h -5.35 c -0.276,0.017 -0.514,-0.194 -0.53,-0.47 -0.017,-0.276 0.194,-0.513 0.47,-0.53 L -10.91,6.94 c -0.229,-2.245 -1.009,-4.399 -2.27,-6.27 l -0.44,-0.66 c -0.727,-1.075 -1.113,-2.343 -1.11,-3.64 V -31.3 c 0,-1.16 0.94,-2.1 2.1,-2.1 H -1 c 1.16,0 2.1,0.94 2.1,2.1 V -3.62 C 1.098,-2.331 0.715,-1.072 0,0"
             style="fill:#e7e7e7;fill-opacity:1;fill-rule:nonzero;stroke:none"
             id="path152" />
        </g>
        <path
           d="m 457.897,135.544 h 11.83 v -17.57 h -11.83 z"
           style="fill:#fafafa;fill-opacity:1;fill-rule:nonzero;stroke:none"
           id="path154" />
        <g
           id="g156"
           transform="translate(402.127,111.0545)">
          <path
             d="M 0,0 -0.66,0.44 C -2.532,1.7 -4.685,2.479 -6.93,2.71 l -13.06,1.36 c -0.03,-0.241 -0.237,-0.422 -0.48,-0.42 -0.271,0 -0.49,0.219 -0.49,0.49 v 5.34 c -0.017,0.276 0.194,0.513 0.47,0.53 0.276,0.017 0.513,-0.194 0.53,-0.47 L -6.9,10.9 c 2.242,0.241 4.393,1.019 6.27,2.27 l 0.66,0.45 c 1.077,0.722 2.343,1.108 3.64,1.11 h 27.6 c 1.165,0 2.11,-0.945 2.11,-2.11 V 0.99 c 0,-1.16 -0.94,-2.1 -2.1,-2.1 H 31.27 3.64 C 2.343,-1.108 1.077,-0.722 0,0"
             style="fill:#e7e7e7;fill-opacity:1;fill-rule:nonzero;stroke:none"
             id="path158" />
        </g>
        <path
           d="m 427.527,113.945 h -17.57 v 11.83 h 17.57 z"
           style="fill:#fafafa;fill-opacity:1;fill-rule:nonzero;stroke:none"
           id="path160" />
        <g
           id="g162"
           transform="translate(451.287,143.3445)">
          <path
             d="M 0,0 -0.44,0.66 C -1.701,2.531 -2.481,4.685 -2.71,6.93 L -4.07,20 c 0.276,0.017 0.487,0.254 0.47,0.53 -0.017,0.276 -0.254,0.487 -0.53,0.47 h -5.35 c -0.276,0.017 -0.513,-0.194 -0.53,-0.47 -0.017,-0.276 0.194,-0.513 0.47,-0.53 L -10.89,6.95 c -0.238,-2.243 -1.017,-4.394 -2.27,-6.27 l -0.45,-0.66 c -0.719,-1.078 -1.102,-2.344 -1.1,-3.64 V -31.3 c 0,-1.16 0.94,-2.1 2.1,-2.1 h 11.62 c 1.16,0 2.1,0.94 2.1,2.1 V -3.62 C 1.104,-2.33 0.718,-1.071 0,0"
             style="fill:#e7e7e7;fill-opacity:1;fill-rule:nonzero;stroke:none"
             id="path164" />
        </g>
        <path
           d="m 439.317,135.544 h 11.83 v -17.57 h -11.83 z"
           style="fill:#fafafa;fill-opacity:1;fill-rule:nonzero;stroke:none"
           id="path166" />
      </g>
    </g>
    <g
       id="g168">
      <g
         id="g170"
         clip-path="url(#clipPath174)">
        <g
           id="g176"
           transform="translate(145.6195,423.4754)">
          <path
             d="m 0,0 c -32.395,-2.86 -59.084,-25.674 -74.896,-52.146 -12.296,-20.573 -18.745,-45.035 -14.47,-68.944 7.057,-39.495 41.245,-70.55 76.945,-92.875 41.882,-26.176 89.631,-45.159 138.836,-48.005 49.206,-2.845 99.86,11.788 133.175,44.76 17.761,17.598 30.407,40.6 31.911,65.325 1.504,24.725 -9.161,51.131 -30.231,66.811 -26.468,19.667 -64.456,19.259 -93.785,6.14 -14.538,-6.502 -30.719,-15.973 -45.837,-9.446 -9.413,4.047 -15.131,13.196 -20.227,21.769 C 95.586,-56.652 65.386,5.701 0,0"
             style="fill:#007cff;fill-opacity:1;fill-rule:nonzero;stroke:none"
             id="path178" />
        </g>
        <g
           id="g180">
          <g
             id="g182" />
          <g
             id="g194">
            <g
               clip-path="url(#clipPath186)"
               opacity="0.899994"
               id="g192">
              <g
                 transform="translate(145.6195,423.4754)"
                 id="g190">
                <path
                   d="m 0,0 c -32.395,-2.86 -59.084,-25.674 -74.896,-52.146 -12.296,-20.573 -18.745,-45.035 -14.47,-68.944 7.057,-39.495 41.245,-70.55 76.945,-92.875 41.882,-26.176 89.631,-45.159 138.836,-48.005 49.206,-2.845 99.86,11.788 133.175,44.76 17.761,17.598 30.407,40.6 31.911,65.325 1.504,24.725 -9.161,51.131 -30.231,66.811 -26.468,19.667 -64.456,19.259 -93.785,6.14 -14.538,-6.502 -30.719,-15.973 -45.837,-9.446 -9.413,4.047 -15.131,13.196 -20.227,21.769 C 95.586,-56.652 65.386,5.701 0,0"
                   style="fill:#ffffff;fill-opacity:1;fill-rule:nonzero;stroke:none"
                   id="path188" />
              </g>
            </g>
          </g>
        </g>
      </g>
    </g>
    <g
       id="g196">
      <g
         id="g198"
         clip-path="url(#clipPath202)">
        <g
           id="g204"
           transform="translate(442.3604,46.0847)">
          <path
             d="m 0,0 c 0,-5.02 -86.172,-9.089 -192.471,-9.089 -106.299,0 -192.471,4.069 -192.471,9.089 0,5.02 86.172,9.089 192.471,9.089 C -86.172,9.089 0,5.02 0,0"
             style="fill:#f5f5f5;fill-opacity:1;fill-rule:nonzero;stroke:none"
             id="path206" />
        </g>
      </g>
    </g>
    <g
       id="g208">
      <g
         id="g210"
         clip-path="url(#clipPath214)">
        <g
           id="g216"
           transform="translate(377.9001,53.1844)">
          <path
             d="m 0,0 3.091,-3.832 c 0,0 9.522,-0.547 19.909,-1.204 10.387,-0.657 13.231,1.533 11.995,3.394 C 33.758,0.219 22.382,5.255 0,0"
             style="fill:#007cff;fill-opacity:1;fill-rule:nonzero;stroke:none"
             id="path218" />
        </g>
        <g
           id="g220"
           transform="translate(372.5829,53.2938)">
          <path
             d="m 0,0 4.081,-4.16 c 0,0 -14.097,-2.19 -15.581,0.985 C -12.984,0 0,0 0,0"
             style="fill:#007cff;fill-opacity:1;fill-rule:nonzero;stroke:none"
             id="path222" />
        </g>
        <g
           id="g224">
          <g
             id="g226" />
          <g
             id="g242">
            <g
               clip-path="url(#clipPath230)"
               opacity="0.5"
               id="g240">
              <g
                 transform="translate(377.9001,53.1844)"
                 id="g234">
                <path
                   d="m 0,0 3.091,-3.832 c 0,0 9.522,-0.547 19.909,-1.204 10.387,-0.657 13.231,1.533 11.995,3.394 C 33.758,0.219 22.382,5.255 0,0"
                   style="fill:#ffffff;fill-opacity:1;fill-rule:nonzero;stroke:none"
                   id="path232" />
              </g>
              <g
                 transform="translate(372.5829,53.2938)"
                 id="g238">
                <path
                   d="m 0,0 4.081,-4.16 c 0,0 -14.097,-2.19 -15.581,0.985 C -12.984,0 0,0 0,0"
                   style="fill:#ffffff;fill-opacity:1;fill-rule:nonzero;stroke:none"
                   id="path236" />
              </g>
            </g>
          </g>
        </g>
        <g
           id="g244"
           transform="translate(118.5377,59.8796)">
          <path
             d="m 0,0 3.091,-3.832 c 0,0 9.522,-0.547 19.909,-1.204 10.387,-0.657 13.231,1.533 11.994,3.394 C 33.758,0.219 22.382,5.255 0,0"
             style="fill:#007cff;fill-opacity:1;fill-rule:nonzero;stroke:none"
             id="path246" />
        </g>
        <g
           id="g248"
           transform="translate(113.2205,59.9891)">
          <path
             d="m 0,0 4.081,-4.16 c 0,0 -14.097,-2.19 -15.581,0.985 C -12.984,0 0,0 0,0"
             style="fill:#007cff;fill-opacity:1;fill-rule:nonzero;stroke:none"
             id="path250" />
        </g>
        <g
           id="g252">
          <g
             id="g254" />
          <g
             id="g270">
            <g
               clip-path="url(#clipPath258)"
               opacity="0.5"
               id="g268">
              <g
                 transform="translate(118.5377,59.8796)"
                 id="g262">
                <path
                   d="m 0,0 3.091,-3.832 c 0,0 9.522,-0.547 19.909,-1.204 10.387,-0.657 13.231,1.533 11.994,3.394 C 33.758,0.219 22.382,5.255 0,0"
                   style="fill:#ffffff;fill-opacity:1;fill-rule:nonzero;stroke:none"
                   id="path260" />
              </g>
              <g
                 transform="translate(113.2205,59.9891)"
                 id="g266">
                <path
                   d="m 0,0 4.081,-4.16 c 0,0 -14.097,-2.19 -15.581,0.985 C -12.984,0 0,0 0,0"
                   style="fill:#ffffff;fill-opacity:1;fill-rule:nonzero;stroke:none"
                   id="path264" />
              </g>
            </g>
          </g>
        </g>
        <g
           id="g272"
           transform="translate(445.6308,28.9083)">
          <path
             d="m 0,0 3.091,3.832 c 0,0 9.522,0.547 19.909,1.204 C 33.387,5.693 36.231,3.503 34.994,1.642 33.758,-0.219 22.382,-5.255 0,0"
             style="fill:#007cff;fill-opacity:1;fill-rule:nonzero;stroke:none"
             id="path274" />
        </g>
        <g
           id="g276"
           transform="translate(440.3136,28.7988)">
          <path
             d="m 0,0 4.081,4.16 c 0,0 -14.097,2.19 -15.581,-0.985 C -12.984,0 0,0 0,0"
             style="fill:#007cff;fill-opacity:1;fill-rule:nonzero;stroke:none"
             id="path278" />
        </g>
        <g
           id="g280">
          <g
             id="g282" />
          <g
             id="g298">
            <g
               clip-path="url(#clipPath286)"
               opacity="0.5"
               id="g296">
              <g
                 transform="translate(445.6308,28.9083)"
                 id="g290">
                <path
                   d="m 0,0 3.091,3.832 c 0,0 9.522,0.547 19.909,1.204 C 33.387,5.693 36.231,3.503 34.994,1.642 33.758,-0.219 22.382,-5.255 0,0"
                   style="fill:#ffffff;fill-opacity:1;fill-rule:nonzero;stroke:none"
                   id="path288" />
              </g>
              <g
                 transform="translate(440.3136,28.7988)"
                 id="g294">
                <path
                   d="m 0,0 4.081,4.16 c 0,0 -14.097,2.19 -15.581,-0.985 C -12.984,0 0,0 0,0"
                   style="fill:#ffffff;fill-opacity:1;fill-rule:nonzero;stroke:none"
                   id="path292" />
              </g>
            </g>
          </g>
        </g>
        <g
           id="g300"
           transform="translate(311.1183,24.6134)">
          <path
             d="m 0,0 3.091,3.832 c 0,0 9.522,0.547 19.909,1.204 C 33.387,5.693 36.231,3.503 34.995,1.642 33.758,-0.219 22.382,-5.255 0,0"
             style="fill:#007cff;fill-opacity:1;fill-rule:nonzero;stroke:none"
             id="path302" />
        </g>
        <g
           id="g304"
           transform="translate(305.8011,24.5039)">
          <path
             d="m 0,0 4.081,4.16 c 0,0 -14.097,2.19 -15.581,-0.985 C -12.984,0 0,0 0,0"
             style="fill:#007cff;fill-opacity:1;fill-rule:nonzero;stroke:none"
             id="path306" />
        </g>
        <g
           id="g308">
          <g
             id="g310" />
          <g
             id="g326">
            <g
               clip-path="url(#clipPath314)"
               opacity="0.5"
               id="g324">
              <g
                 transform="translate(311.1183,24.6134)"
                 id="g318">
                <path
                   d="m 0,0 3.091,3.832 c 0,0 9.522,0.547 19.909,1.204 C 33.387,5.693 36.231,3.503 34.995,1.642 33.758,-0.219 22.382,-5.255 0,0"
                   style="fill:#ffffff;fill-opacity:1;fill-rule:nonzero;stroke:none"
                   id="path316" />
              </g>
              <g
                 transform="translate(305.8011,24.5039)"
                 id="g322">
                <path
                   d="m 0,0 4.081,4.16 c 0,0 -14.097,2.19 -15.581,-0.985 C -12.984,0 0,0 0,0"
                   style="fill:#ffffff;fill-opacity:1;fill-rule:nonzero;stroke:none"
                   id="path320" />
              </g>
            </g>
          </g>
        </g>
        <g
           id="g328"
           transform="translate(241.4544,59.6165)">
          <path
             d="m 0,0 3.091,-3.832 c 0,0 9.522,-0.547 19.909,-1.204 10.387,-0.657 13.231,1.533 11.994,3.394 C 33.758,0.219 22.382,5.255 0,0"
             style="fill:#007cff;fill-opacity:1;fill-rule:nonzero;stroke:none"
             id="path330" />
        </g>
        <g
           id="g332"
           transform="translate(236.1372,59.726)">
          <path
             d="m 0,0 4.081,-4.16 c 0,0 -14.097,-2.19 -15.581,0.985 C -12.984,0 0,0 0,0"
             style="fill:#007cff;fill-opacity:1;fill-rule:nonzero;stroke:none"
             id="path334" />
        </g>
        <g
           id="g336">
          <g
             id="g338" />
          <g
             id="g354">
            <g
               clip-path="url(#clipPath342)"
               opacity="0.5"
               id="g352">
              <g
                 transform="translate(241.4544,59.6165)"
                 id="g346">
                <path
                   d="m 0,0 3.091,-3.832 c 0,0 9.522,-0.547 19.909,-1.204 10.387,-0.657 13.231,1.533 11.994,3.394 C 33.758,0.219 22.382,5.255 0,0"
                   style="fill:#ffffff;fill-opacity:1;fill-rule:nonzero;stroke:none"
                   id="path344" />
              </g>
              <g
                 transform="translate(236.1372,59.726)"
                 id="g350">
                <path
                   d="m 0,0 4.081,-4.16 c 0,0 -14.097,-2.19 -15.581,0.985 C -12.984,0 0,0 0,0"
                   style="fill:#ffffff;fill-opacity:1;fill-rule:nonzero;stroke:none"
                   id="path348" />
              </g>
            </g>
          </g>
        </g>
        <g
           id="g356"
           transform="translate(47.7225,43.7598)">
          <path
             d="m 0,0 3.091,-3.832 c 0,0 9.522,-0.547 19.909,-1.204 10.387,-0.657 13.231,1.533 11.995,3.394 C 33.758,0.219 22.382,5.255 0,0"
             style="fill:#007cff;fill-opacity:1;fill-rule:nonzero;stroke:none"
             id="path358" />
        </g>
        <g
           id="g360"
           transform="translate(42.4053,43.8693)">
          <path
             d="m 0,0 4.081,-4.16 c 0,0 -14.097,-2.19 -15.581,0.985 C -12.984,0 0,0 0,0"
             style="fill:#007cff;fill-opacity:1;fill-rule:nonzero;stroke:none"
             id="path362" />
        </g>
        <g
           id="g364">
          <g
             id="g366" />
          <g
             id="g382">
            <g
               clip-path="url(#clipPath370)"
               opacity="0.5"
               id="g380">
              <g
                 transform="translate(47.7225,43.7598)"
                 id="g374">
                <path
                   d="m 0,0 3.091,-3.832 c 0,0 9.522,-0.547 19.909,-1.204 10.387,-0.657 13.231,1.533 11.995,3.394 C 33.758,0.219 22.382,5.255 0,0"
                   style="fill:#ffffff;fill-opacity:1;fill-rule:nonzero;stroke:none"
                   id="path372" />
              </g>
              <g
                 transform="translate(42.4053,43.8693)"
                 id="g378">
                <path
                   d="m 0,0 4.081,-4.16 c 0,0 -14.097,-2.19 -15.581,0.985 C -12.984,0 0,0 0,0"
                   style="fill:#ffffff;fill-opacity:1;fill-rule:nonzero;stroke:none"
                   id="path376" />
              </g>
            </g>
          </g>
        </g>
        <g
           id="g384"
           transform="translate(174.963,30.4329)">
          <path
             d="m 0,0 3.091,3.832 c 0,0 9.522,0.547 19.909,1.204 C 33.387,5.693 36.231,3.503 34.994,1.642 33.758,-0.219 22.382,-5.255 0,0"
             style="fill:#007cff;fill-opacity:1;fill-rule:nonzero;stroke:none"
             id="path386" />
        </g>
        <g
           id="g388"
           transform="translate(169.6458,30.3234)">
          <path
             d="m 0,0 4.081,4.16 c 0,0 -14.097,2.19 -15.581,-0.985 C -12.984,0 0,0 0,0"
             style="fill:#007cff;fill-opacity:1;fill-rule:nonzero;stroke:none"
             id="path390" />
        </g>
        <g
           id="g392">
          <g
             id="g394" />
          <g
             id="g410">
            <g
               clip-path="url(#clipPath398)"
               opacity="0.5"
               id="g408">
              <g
                 transform="translate(174.963,30.4329)"
                 id="g402">
                <path
                   d="m 0,0 3.091,3.832 c 0,0 9.522,0.547 19.909,1.204 C 33.387,5.693 36.231,3.503 34.994,1.642 33.758,-0.219 22.382,-5.255 0,0"
                   style="fill:#ffffff;fill-opacity:1;fill-rule:nonzero;stroke:none"
                   id="path400" />
              </g>
              <g
                 transform="translate(169.6458,30.3234)"
                 id="g406">
                <path
                   d="m 0,0 4.081,4.16 c 0,0 -14.097,2.19 -15.581,-0.985 C -12.984,0 0,0 0,0"
                   style="fill:#ffffff;fill-opacity:1;fill-rule:nonzero;stroke:none"
                   id="path404" />
              </g>
            </g>
          </g>
        </g>
      </g>
    </g>
    <g
       id="g412">
      <g
         id="g414"
         clip-path="url(#clipPath418)">
        <g
           id="g420"
           transform="translate(219.4183,381.8285)">
          <path
             d="m 0,0 c -6.62,3.174 -8.991,12.374 -5.71,18.942 3.281,6.568 11.01,10.202 18.343,9.837 7.333,-0.365 14.166,-4.213 19.4,-9.361 5.244,6.441 15.822,7.612 22.347,2.474 6.415,-5.052 5.345,-15.404 0.527,-22.031 5.646,-2.755 9.404,-9.496 8.022,-15.726 -1.702,-7.67 -10.793,-12.759 -18.221,-10.2 0.016,-9.933 -8.867,-19.028 -18.798,-19.246 -9.931,-0.218 -19.204,8.48 -19.623,18.405 -7.576,-3.516 -17.779,1.456 -19.68,9.589 C -15.293,-9.184 -8.35,-0.206 0,0"
             style="fill:#007cff;fill-opacity:1;fill-rule:nonzero;stroke:none"
             id="path422" />
        </g>
        <g
           id="g424"
           transform="translate(266.8212,344.7316)">
          <path
             d="m 0,0 c 0,-2.33 1.889,-4.219 4.219,-4.219 2.33,0 4.218,1.889 4.218,4.219 0,2.33 -1.888,4.219 -4.218,4.219 C 1.889,4.219 0,2.33 0,0"
             style="fill:#007cff;fill-opacity:1;fill-rule:nonzero;stroke:none"
             id="path426" />
        </g>
        <g
           id="g428">
          <g
             id="g430" />
          <g
             id="g442">
            <g
               clip-path="url(#clipPath434)"
               opacity="0.600006"
               id="g440">
              <g
                 transform="translate(219.4183,381.8285)"
                 id="g438">
                <path
                   d="m 0,0 c -6.62,3.174 -8.991,12.374 -5.71,18.942 3.281,6.568 11.01,10.202 18.343,9.837 7.333,-0.365 14.166,-4.213 19.4,-9.361 5.244,6.441 15.822,7.612 22.347,2.474 6.415,-5.052 5.345,-15.404 0.527,-22.031 5.646,-2.755 9.404,-9.496 8.022,-15.726 -1.702,-7.67 -10.793,-12.759 -18.221,-10.2 0.016,-9.933 -8.867,-19.028 -18.798,-19.246 -9.931,-0.218 -19.204,8.48 -19.623,18.405 -7.576,-3.516 -17.779,1.456 -19.68,9.589 C -15.293,-9.184 -8.35,-0.206 0,0"
                   style="fill:#ffffff;fill-opacity:1;fill-rule:nonzero;stroke:none"
                   id="path436" />
              </g>
            </g>
          </g>
        </g>
        <g
           id="g444">
          <g
             id="g446" />
          <g
             id="g458">
            <g
               clip-path="url(#clipPath450)"
               opacity="0.600006"
               id="g456">
              <g
                 transform="translate(266.8212,344.7316)"
                 id="g454">
                <path
                   d="m 0,0 c 0,-2.33 1.889,-4.219 4.219,-4.219 2.33,0 4.218,1.889 4.218,4.219 0,2.33 -1.888,4.219 -4.218,4.219 C 1.889,4.219 0,2.33 0,0"
                   style="fill:#ffffff;fill-opacity:1;fill-rule:nonzero;stroke:none"
                   id="path452" />
              </g>
            </g>
          </g>
        </g>
        <g
           id="g460"
           transform="translate(243.5681,358.9427)">
          <path
             d="m 0,0 c -0.69,0.698 -1.035,1.548 -1.035,2.551 0,1.001 0.338,1.838 1.015,2.511 C 0.657,5.733 1.522,6.07 2.574,6.07 3.627,6.07 4.491,5.733 5.168,5.062 5.845,4.389 6.183,3.552 6.183,2.551 6.183,1.548 5.84,0.698 5.15,0 4.46,-0.698 3.602,-1.047 2.574,-1.047 1.547,-1.047 0.688,-0.698 0,0 m 0.6,13.389 c 0.589,1.001 1.448,2.105 2.576,3.313 0.828,0.884 1.435,1.627 1.823,2.231 0.39,0.603 0.584,1.287 0.584,2.054 0,1.089 -0.37,1.95 -1.11,2.584 -0.739,0.633 -1.723,0.95 -2.951,0.95 -1.179,0 -2.225,-0.288 -3.139,-0.862 -0.916,-0.573 -1.685,-1.377 -2.312,-2.407 l -4.55,3.136 c 1.053,1.885 2.475,3.343 4.268,4.374 1.791,1.03 3.916,1.546 6.372,1.546 2.883,0 5.195,-0.723 6.936,-2.165 1.742,-1.443 2.613,-3.445 2.613,-6.008 0,-1.208 -0.17,-2.267 -0.508,-3.18 C 10.864,18.042 10.451,17.268 9.962,16.636 9.474,16.003 8.84,15.274 8.064,14.449 7.137,13.477 6.46,12.66 6.034,11.998 5.607,11.335 5.394,10.533 5.394,9.59 h -5.676 c 0,1.532 0.294,2.797 0.882,3.799"
             style="fill:#007cff;fill-opacity:1;fill-rule:nonzero;stroke:none"
             id="path462" />
        </g>
      </g>
    </g>
    <g
       id="g464">
      <g
         id="g466"
         clip-path="url(#clipPath470)">
        <g
           id="g472"
           transform="translate(156.6384,244.873)">
          <path
             d="m 0,0 c 0.086,-0.382 0.826,-7.072 0.272,-11.374 -0.555,-4.303 -2.687,-13.179 -4.043,-13.043 -1.356,0.136 -2.071,0.456 -2.244,3.711 -0.173,3.254 1.085,7.113 -0.284,7.125 -1.368,0.012 -7.84,-1.209 -10.651,-3.169 -2.81,-1.96 -9.517,-8.013 -11.267,-6.842 -1.751,1.171 -1.131,2.388 0.414,4.147 1.546,1.758 8.168,8.218 7.902,9.29 -0.267,1.073 -9.396,-5.797 -12.449,-5.797 -2.588,0 -1.279,2.987 -0.848,3.566 0,0 -3.311,-1.25 -3.506,2.276 -0.104,1.885 6.206,4.8 12.801,8.499 0,0 -5.873,-1.948 -9.447,-3.733 -0.949,-0.474 -2.133,-0.152 -2.616,0.793 -0.006,0.013 -0.013,0.026 -0.019,0.039 -0.652,1.31 1.76,2.742 4.546,4.455 2.786,1.714 17.114,3.34 19.074,5.51 1.961,2.169 5.051,9.13 5.051,9.13 L 3.5,5.132 Z"
             style="fill:#cd7a63;fill-opacity:1;fill-rule:nonzero;stroke:none"
             id="path474" />
        </g>
        <g
           id="g476"
           transform="translate(358.0071,226.4232)">
          <path
             d="m 0,0 c 0,0 11.99,8.753 13.189,9.113 1.199,0.359 14.868,-7.434 14.629,-10.552 -0.24,-3.117 -2.279,-3.597 -2.279,-3.597 0,0 1.679,-3.117 -1.798,-4.796 0,0 2.278,-2.158 -0.6,-4.316 -2.877,-2.159 -11.151,-1.799 -10.671,0 0,0 -6.863,-3.991 -10.7,-3.463 l -5.007,16.292 z"
             style="fill:#cd7a63;fill-opacity:1;fill-rule:nonzero;stroke:none"
             id="path478" />
        </g>
        <g
           id="g480"
           transform="translate(381.3492,217.6063)">
          <path
             d="m 0,0 c -1.95,-0.313 -3.963,-0.238 -5.882,0.228 -1.06,0.257 -3.269,0.89 -2.713,2.428 0.634,1.755 3.087,1.55 4.561,1.435 1.99,-0.156 3.944,-0.609 5.82,-1.288 0.909,-0.329 1.3,1.12 0.398,1.446 -1.805,0.654 -3.673,1.079 -5.582,1.283 -1.698,0.182 -3.739,0.349 -5.232,-0.656 -1.286,-0.866 -1.99,-2.54 -1.2,-3.975 0.731,-1.327 2.376,-1.853 3.754,-2.168 2.134,-0.488 4.318,-0.526 6.475,-0.179 C 1.349,-1.294 0.946,0.152 0,0"
             style="fill:#b94d3c;fill-opacity:1;fill-rule:nonzero;stroke:none"
             id="path482" />
        </g>
        <g
           id="g484"
           transform="translate(371.2474,212.0762)">
          <path
             d="M 0,0 C -0.352,0.941 -0.326,1.939 0.166,2.809 0.225,2.912 0.288,3.012 0.355,3.11 0.385,3.153 0.415,3.196 0.447,3.237 0.39,3.164 0.485,3.278 0.504,3.3 0.658,3.478 0.829,3.644 1.013,3.792 1.285,4.009 1.728,4.231 2.105,4.341 2.494,4.454 2.737,4.868 2.629,5.263 2.522,5.65 2.096,5.901 1.706,5.787 0.523,5.441 -0.519,4.643 -1.129,3.566 -1.802,2.376 -1.927,0.883 -1.446,-0.399 -1.304,-0.778 -0.939,-1.037 -0.524,-0.923 -0.16,-0.823 0.143,-0.381 0,0"
             style="fill:#b94d3c;fill-opacity:1;fill-rule:nonzero;stroke:none"
             id="path486" />
        </g>
        <g
           id="g488"
           transform="translate(362.7225,219.383)">
          <path
             d="M 0,0 18.567,16.234 21.492,12.49 -0.462,-7.506 C -2.424,-5.311 -2.216,-1.937 0,0"
             style="fill:#1a2e35;fill-opacity:1;fill-rule:nonzero;stroke:none"
             id="path490" />
        </g>
        <g
           id="g492"
           transform="translate(391.0123,253.9231)">
          <path
             d="m 0,0 c -8.752,-7.665 -13.675,-16.359 -10.995,-19.42 2.68,-3.06 11.948,0.672 20.701,8.337 C 18.458,-3.419 23.381,5.276 20.701,8.336 18.02,11.397 8.752,7.665 0,0"
             style="fill:#1a2e35;fill-opacity:1;fill-rule:nonzero;stroke:none"
             id="path494" />
        </g>
        <g
           id="g496"
           transform="translate(394.374,250.5614)">
          <path
             d="m 0,0 c -8.752,-7.665 -13.675,-16.359 -10.995,-19.42 2.68,-3.06 11.948,0.672 20.701,8.337 C 18.458,-3.419 23.381,5.276 20.701,8.336 18.02,11.397 8.752,7.664 0,0"
             style="fill:#1a2e35;fill-opacity:1;fill-rule:nonzero;stroke:none"
             id="path498" />
        </g>
        <g
           id="g500"
           transform="translate(379.9359,234.6016)">
          <path
             d="m 0,0 3.443,-3.46 31.696,27.756 -3.744,3.651 z"
             style="fill:#1a2e35;fill-opacity:1;fill-rule:nonzero;stroke:none"
             id="path502" />
        </g>
        <g
           id="g504"
           transform="translate(382.9414,235.1242)">
          <path
             d="m 0,0 c -0.557,0 -1.295,0.086 -1.652,0.493 -0.607,0.693 -0.407,2.829 1.409,6.037 1.985,3.507 5.333,7.412 9.427,10.997 7.09,6.209 13.478,8.987 16.664,8.987 0.557,0 1.295,-0.085 1.651,-0.492 0.608,-0.694 0.408,-2.83 -1.409,-6.037 C 24.105,16.478 20.757,12.572 16.664,8.988 9.574,2.779 3.186,0 0,0"
             style="fill:#007cff;fill-opacity:1;fill-rule:nonzero;stroke:none"
             id="path506" />
        </g>
        <g
           id="g508">
          <g
             id="g510" />
          <g
             id="g522">
            <g
               clip-path="url(#clipPath514)"
               opacity="0.300003"
               id="g520">
              <g
                 transform="translate(382.9414,235.1242)"
                 id="g518">
                <path
                   d="m 0,0 c -0.557,0 -1.295,0.086 -1.652,0.493 -0.607,0.693 -0.407,2.829 1.409,6.037 1.985,3.507 5.333,7.412 9.427,10.997 7.09,6.209 13.478,8.987 16.664,8.987 0.557,0 1.295,-0.085 1.651,-0.492 0.608,-0.694 0.408,-2.83 -1.409,-6.037 C 24.105,16.478 20.757,12.572 16.664,8.988 9.574,2.779 3.186,0 0,0"
                   style="fill:#ffffff;fill-opacity:1;fill-rule:nonzero;stroke:none"
                   id="path516" />
              </g>
            </g>
          </g>
        </g>
        <g
           id="g524"
           transform="translate(375.0543,233.2331)">
          <path
             d="m 0,0 c 2.354,-2.554 4.244,-5.543 5.49,-8.786 0.28,-0.728 0.532,-1.496 0.461,-2.273 -0.07,-0.777 -0.54,-1.567 -1.289,-1.786 -0.884,-0.258 -1.778,0.323 -2.489,0.909 -1.932,1.59 -3.646,3.443 -5.082,5.493 0,0 -2.858,-4.332 -13.66,-1.98"
             style="fill:#cd7a63;fill-opacity:1;fill-rule:nonzero;stroke:none"
             id="path526" />
        </g>
        <g
           id="g528"
           transform="translate(374.5239,232.7028)">
          <path
             d="m 0,0 c 2.357,-2.592 4.737,-5.932 5.608,-9.384 0.221,-0.878 0.136,-2.517 -1.205,-2.188 -0.886,0.218 -1.705,1.13 -2.36,1.735 -1.406,1.3 -2.664,2.742 -3.774,4.302 -0.334,0.471 -0.965,0.492 -1.295,0 -0.086,-0.128 0.132,0.141 -0.035,-0.038 -0.137,-0.148 -0.276,-0.291 -0.43,-0.422 -0.566,-0.481 -1.255,-0.836 -1.947,-1.097 -3.287,-1.239 -7.055,-0.787 -10.401,-0.078 -0.942,0.2 -1.344,-1.246 -0.399,-1.446 3.659,-0.775 7.777,-1.254 11.358,0.138 1.154,0.449 2.435,1.125 3.149,2.186 h -1.295 c 1.382,-1.944 7.663,-10.25 9.971,-5.328 0.946,2.018 -0.546,4.604 -1.461,6.382 C 4.304,-2.945 2.793,-0.845 1.061,1.061 0.41,1.776 -0.648,0.713 0,0"
             style="fill:#b94d3c;fill-opacity:1;fill-rule:nonzero;stroke:none"
             id="path530" />
        </g>
        <g
           id="g532"
           transform="translate(299.945,196.3068)">
          <path
             d="M 0,0 C -0.199,0.776 -13.098,81.733 -4.712,88.441 3.674,95.149 12.746,76.926 15.506,57.11 18.266,37.294 20.001,29.063 20.001,29.063 20.297,28.404 56.683,37.559 58.279,32.584 59.874,27.609 63.256,7.564 59.863,7.262 56.436,6.956 1.535,-5.995 0,0"
             style="fill:#007cff;fill-opacity:1;fill-rule:nonzero;stroke:none"
             id="path534" />
        </g>
        <g
           id="g536"
           transform="translate(96.7965,94.096)">
          <path
             d="M 0,0 1.664,-13.852 33.662,-16.485 32.001,-2.65 Z"
             style="fill:#1a2e35;fill-opacity:1;fill-rule:nonzero;stroke:none"
             id="path538" />
        </g>
        <g
           id="g540"
           transform="translate(105.2602,78.3014)">
          <path
             d="m 0,0 -0.478,5.192 c -0.109,1.174 -0.777,2.228 -1.748,2.869 -4.189,2.767 -2.917,5.103 0.461,8.573 0.041,2.083 -2.284,2.509 -2.911,2.642 l -13.868,3.097 c -1.159,0.272 -2.272,-0.479 -2.486,-1.677 -0.038,-0.213 -0.046,-0.432 -0.022,-0.65 0.58,-6.304 0.855,-9.287 1.578,-17.134 l 2.211,-23.997 c 0.602,-6.542 7.037,-7.532 7.372,-4.803 1.446,12.266 4.068,21.045 7.097,24.986 C -2.268,-0.173 -1.76,-0.861 0,0"
             style="fill:#1a2e35;fill-opacity:1;fill-rule:nonzero;stroke:none"
             id="path542" />
        </g>
        <g
           id="g544"
           transform="translate(102.4813,74.6742)">
          <path
             d="M 0,0 C -0.448,1.949 -1.731,3.704 -3.468,4.699 -3.809,4.895 -4.304,4.791 -4.495,4.43 -4.683,4.074 -4.589,3.612 -4.226,3.404 -4.041,3.298 -3.861,3.185 -3.689,3.061 -3.637,3.024 -3.585,2.986 -3.534,2.947 -3.59,2.99 -3.589,2.99 -3.535,2.945 c 0.082,-0.068 0.164,-0.137 0.244,-0.208 0.159,-0.144 0.312,-0.296 0.457,-0.454 0.072,-0.08 0.143,-0.161 0.212,-0.244 0.01,-0.012 0.144,-0.18 0.043,-0.051 0.034,-0.043 0.066,-0.086 0.097,-0.13 0.255,-0.35 0.476,-0.725 0.659,-1.117 0.023,-0.049 0.045,-0.098 0.067,-0.148 -0.044,0.098 -0.011,0.028 0.012,-0.031 0.04,-0.1 0.078,-0.202 0.112,-0.305 0.074,-0.215 0.135,-0.434 0.186,-0.656 0.088,-0.382 0.548,-0.645 0.922,-0.524 C -0.124,-0.793 0.094,-0.41 0,0"
             style="fill:#007cff;fill-opacity:1;fill-rule:nonzero;stroke:none"
             id="path546" />
        </g>
        <g
           id="g548"
           transform="translate(100.4543,71.3128)">
          <path
             d="M 0,0 C -0.448,1.949 -1.731,3.704 -3.469,4.699 -3.809,4.895 -4.304,4.791 -4.495,4.43 -4.683,4.074 -4.589,3.613 -4.226,3.404 -4.041,3.298 -3.861,3.185 -3.689,3.061 -3.637,3.024 -3.585,2.986 -3.534,2.947 -3.59,2.99 -3.589,2.99 -3.535,2.945 c 0.082,-0.068 0.164,-0.136 0.244,-0.208 0.159,-0.144 0.312,-0.296 0.457,-0.454 0.072,-0.08 0.143,-0.161 0.212,-0.244 0.01,-0.012 0.144,-0.18 0.044,-0.051 0.033,-0.043 0.065,-0.086 0.096,-0.13 0.255,-0.35 0.476,-0.725 0.659,-1.117 0.023,-0.049 0.045,-0.098 0.067,-0.148 -0.044,0.098 -0.011,0.028 0.012,-0.031 0.04,-0.1 0.078,-0.202 0.112,-0.305 0.074,-0.215 0.135,-0.434 0.186,-0.656 0.088,-0.382 0.548,-0.645 0.922,-0.524 C -0.124,-0.793 0.094,-0.41 0,0"
             style="fill:#007cff;fill-opacity:1;fill-rule:nonzero;stroke:none"
             id="path550" />
        </g>
        <g
           id="g552"
           transform="translate(98.8697,67.1853)">
          <path
             d="M 0,0 C -0.448,1.949 -1.731,3.704 -3.468,4.699 -3.809,4.894 -4.304,4.79 -4.495,4.43 -4.683,4.073 -4.589,3.612 -4.225,3.404 -4.041,3.298 -3.861,3.185 -3.688,3.061 -3.636,3.024 -3.585,2.986 -3.534,2.947 -3.59,2.99 -3.589,2.99 -3.535,2.945 c 0.082,-0.068 0.164,-0.137 0.244,-0.209 0.159,-0.143 0.312,-0.295 0.457,-0.453 0.072,-0.08 0.143,-0.161 0.212,-0.244 0.01,-0.013 0.144,-0.18 0.044,-0.051 0.033,-0.043 0.065,-0.086 0.096,-0.13 0.255,-0.35 0.476,-0.725 0.659,-1.117 0.023,-0.049 0.045,-0.099 0.067,-0.148 -0.044,0.098 -0.011,0.028 0.012,-0.031 0.04,-0.1 0.078,-0.202 0.112,-0.305 0.074,-0.215 0.135,-0.434 0.186,-0.656 0.087,-0.382 0.548,-0.645 0.922,-0.524 C -0.124,-0.793 0.094,-0.41 0,0"
             style="fill:#007cff;fill-opacity:1;fill-rule:nonzero;stroke:none"
             id="path554" />
        </g>
        <g
           id="g556"
           transform="translate(296.9782,55.8457)">
          <path
             d="M 0,0 13.951,-0.03 20.45,31.411 6.516,31.443 Z"
             style="fill:#1a2e35;fill-opacity:1;fill-rule:nonzero;stroke:none"
             id="path558" />
        </g>
        <g
           id="g560"
           transform="translate(313.7521,62.8701)">
          <path
             d="m 0,0 -5.211,0.156 c -1.179,0.035 -2.307,-0.501 -3.061,-1.387 -3.255,-3.822 -5.419,-2.276 -8.453,1.499 -2.063,0.293 -2.768,-1.963 -2.976,-2.569 l -4.758,-13.389 c -0.41,-1.118 0.2,-2.314 1.362,-2.671 0.207,-0.064 0.423,-0.098 0.643,-0.102 6.328,-0.189 9.322,-0.278 17.199,-0.513 l 24.088,-0.72 c 6.567,-0.196 8.33,6.071 5.663,6.735 -12,2.925 -20.396,6.593 -23.94,10.078 C -0.103,-2.272 0.641,-1.851 0,0"
             style="fill:#1a2e35;fill-opacity:1;fill-rule:nonzero;stroke:none"
             id="path562" />
        </g>
        <g
           id="g564"
           transform="translate(317.1251,59.6793)">
          <path
             d="m 0,0 c -2.096,-0.221 -3.982,-1.266 -5.247,-2.956 -0.236,-0.315 -0.061,-0.852 0.269,-1.026 0.394,-0.208 0.775,-0.068 1.027,0.269 0.079,0.107 -0.018,-0.019 0.033,0.043 0.03,0.036 0.059,0.073 0.09,0.109 0.068,0.081 0.138,0.16 0.211,0.237 0.145,0.155 0.299,0.303 0.459,0.442 0.036,0.031 0.072,0.062 0.108,0.092 0.013,0.01 0.155,0.126 0.091,0.075 -0.054,-0.043 0.056,0.042 0.066,0.049 0.048,0.035 0.096,0.07 0.145,0.104 0.176,0.123 0.358,0.237 0.545,0.342 0.178,0.099 0.359,0.191 0.545,0.274 0.041,0.019 0.15,0.063 0.052,0.023 0.044,0.018 0.089,0.036 0.133,0.053 0.101,0.038 0.203,0.074 0.305,0.107 0.205,0.067 0.413,0.124 0.623,0.171 0.106,0.023 0.211,0.043 0.317,0.061 0.048,0.008 0.095,0.016 0.142,0.023 C -0.241,-1.532 -0.011,-1.501 0,-1.5 0.389,-1.459 0.769,-1.184 0.75,-0.75 0.733,-0.379 0.418,0.044 0,0"
             style="fill:#007cff;fill-opacity:1;fill-rule:nonzero;stroke:none"
             id="path566" />
        </g>
        <g
           id="g568"
           transform="translate(320.2156,57.2591)">
          <path
             d="m 0,0 c -2.096,-0.22 -3.982,-1.266 -5.247,-2.956 -0.236,-0.315 -0.061,-0.852 0.269,-1.026 0.394,-0.208 0.775,-0.068 1.026,0.269 0.08,0.106 -0.017,-0.019 0.034,0.043 0.03,0.036 0.059,0.073 0.089,0.109 0.069,0.08 0.139,0.16 0.212,0.237 0.145,0.155 0.299,0.302 0.459,0.442 0.036,0.031 0.072,0.062 0.108,0.092 0.013,0.01 0.155,0.126 0.091,0.075 -0.054,-0.043 0.056,0.042 0.066,0.049 0.048,0.035 0.096,0.07 0.145,0.104 0.176,0.123 0.358,0.237 0.545,0.342 0.177,0.099 0.359,0.191 0.544,0.274 0.042,0.019 0.151,0.063 0.052,0.023 0.045,0.018 0.089,0.036 0.134,0.053 0.101,0.038 0.202,0.074 0.305,0.107 0.205,0.067 0.413,0.124 0.623,0.171 0.105,0.023 0.211,0.044 0.317,0.062 0.048,0.007 0.095,0.015 0.142,0.022 C -0.241,-1.532 -0.011,-1.501 0,-1.5 0.389,-1.459 0.769,-1.184 0.75,-0.75 0.733,-0.379 0.418,0.044 0,0"
             style="fill:#007cff;fill-opacity:1;fill-rule:nonzero;stroke:none"
             id="path570" />
        </g>
        <g
           id="g572"
           transform="translate(324.1201,55.1851)">
          <path
             d="m 0,0 c -2.096,-0.22 -3.981,-1.266 -5.246,-2.956 -0.236,-0.315 -0.062,-0.851 0.269,-1.026 0.393,-0.208 0.774,-0.067 1.026,0.269 0.08,0.107 -0.018,-0.019 0.033,0.043 0.03,0.037 0.06,0.073 0.09,0.109 0.068,0.081 0.139,0.16 0.211,0.237 0.146,0.155 0.299,0.303 0.459,0.442 0.036,0.031 0.072,0.062 0.109,0.092 0.012,0.011 0.154,0.126 0.09,0.075 -0.054,-0.042 0.056,0.042 0.066,0.049 0.048,0.036 0.096,0.07 0.145,0.104 0.176,0.123 0.359,0.237 0.546,0.342 0.177,0.1 0.358,0.191 0.544,0.274 0.041,0.019 0.15,0.063 0.052,0.023 0.044,0.018 0.089,0.036 0.133,0.053 0.101,0.038 0.203,0.074 0.305,0.107 0.205,0.067 0.413,0.124 0.624,0.171 0.105,0.023 0.21,0.044 0.317,0.062 0.047,0.007 0.094,0.015 0.141,0.022 C -0.241,-1.532 -0.011,-1.501 0,-1.5 0.389,-1.459 0.77,-1.184 0.75,-0.75 0.733,-0.379 0.418,0.044 0,0"
             style="fill:#007cff;fill-opacity:1;fill-rule:nonzero;stroke:none"
             id="path574" />
        </g>
        <g
           id="g576"
           transform="translate(304.7534,283.4357)">
          <path
             d="m 0,0 c 0,0 6.687,-25.809 4.997,-39.522 -1.481,-12.013 -15.006,-93.112 -17.811,-122.964 -2.804,-29.852 -3.005,-32.857 -6.811,-33.058 -3.807,-0.2 -38.668,-1.803 -39.469,0 -0.801,1.803 -1.002,17.431 -1.002,17.431 0,0 -0.4,-19.635 -7.813,-17.431 -7.413,2.204 -35.863,6.411 -36.864,6.612 -1.002,0.2 13.022,152.665 13.022,152.665 l 62.262,52.802 C -17.449,10.833 -2.784,4.904 0,0"
             style="fill:#007cff;fill-opacity:1;fill-rule:nonzero;stroke:none"
             id="path578" />
        </g>
        <g
           id="g580"
           transform="translate(351.7565,315.6834)">
          <path
             d="M 0,0 C 0,0 -17.521,-3.257 -22.591,-2.198 -28.213,-1.024 -57.129,7.616 -60.392,10.553 -63.655,13.49 -68.35,20.7 -68.35,20.7 l 16.975,-0.843 c 0,0 36.113,-12.941 36.307,-12.988 C -14.873,6.822 0,0 0,0"
             style="fill:#007cff;fill-opacity:1;fill-rule:nonzero;stroke:none"
             id="path582" />
        </g>
        <g
           id="g584">
          <g
             id="g586" />
          <g
             id="g598">
            <g
               clip-path="url(#clipPath590)"
               opacity="0.399994"
               id="g596">
              <g
                 transform="translate(351.7565,315.6834)"
                 id="g594">
                <path
                   d="M 0,0 C 0,0 -17.521,-3.257 -22.591,-2.198 -28.213,-1.024 -57.129,7.616 -60.392,10.553 -63.655,13.49 -68.35,20.7 -68.35,20.7 h 15.315 L -11.758,9.836 Z"
                   style="fill:#000000;fill-opacity:1;fill-rule:nonzero;stroke:none"
                   id="path592" />
              </g>
            </g>
          </g>
        </g>
        <g
           id="g600"
           transform="translate(297.8191,279.4342)">
          <path
             d="m 0,0 c 0,0 -0.07,4.853 1.628,8.239 0.893,1.943 2.272,3.623 4.003,4.879 0.933,0.727 1.916,1.39 2.94,1.982 L 1.653,41.972 c -4.294,-8.535 -11.796,-24.534 -21.414,-25.514 0,0 5.668,-11.851 10.734,-16.195 C -3.961,-4.081 0,0 0,0"
             style="fill:#cd7a63;fill-opacity:1;fill-rule:nonzero;stroke:none"
             id="path602" />
        </g>
        <g
           id="g604">
          <g
             id="g606" />
          <g
             id="g618">
            <g
               clip-path="url(#clipPath610)"
               opacity="0.199997"
               id="g616">
              <g
                 transform="translate(297.0897,311.3493)"
                 id="g614">
                <path
                   d="m 0,0 c -7.311,-8.372 -1.247,-19.066 2.354,-23.698 0.893,1.943 2.272,3.623 4.003,4.879 z"
                   style="fill:#000000;fill-opacity:1;fill-rule:nonzero;stroke:none"
                   id="path612" />
              </g>
            </g>
          </g>
        </g>
        <g
           id="g620"
           transform="translate(336.2094,330.7372)">
          <path
             d="M 0,0 C 9.353,-5.871 -0.762,-8.262 6.746,-17.639 1.959,-23.08 -9.63,-23.273 -8.821,-17.903 -7.933,-12 -7.716,4.951 0,0"
             style="fill:#1a2e35;fill-opacity:1;fill-rule:nonzero;stroke:none"
             id="path622" />
        </g>
        <g
           id="g624"
           transform="translate(301.2063,330.2365)">
          <path
             d="m 0,0 c -5.288,-12.207 -8.523,-18.979 -5.454,-28.163 4.615,-13.815 21.955,-16.1 30.896,-5.764 8.048,9.303 15.344,27.702 5.793,38.442 C 21.826,15.096 5.288,12.207 0,0"
             style="fill:#cd7a63;fill-opacity:1;fill-rule:nonzero;stroke:none"
             id="path626" />
        </g>
        <g
           id="g628"
           transform="translate(315.8182,319.341)">
          <path
             d="m 0,0 c -0.617,-1.21 -0.456,-2.524 0.361,-2.937 0.816,-0.411 1.978,0.235 2.596,1.445 0.617,1.21 0.456,2.524 -0.36,2.936 C 1.78,1.857 0.618,1.21 0,0"
             style="fill:#1a2e35;fill-opacity:1;fill-rule:nonzero;stroke:none"
             id="path630" />
        </g>
        <g
           id="g632"
           transform="translate(327.4719,312.2401)">
          <path
             d="m 0,0 c -0.618,-1.21 -0.456,-2.524 0.36,-2.937 0.816,-0.412 1.979,0.235 2.596,1.445 0.618,1.21 0.457,2.524 -0.36,2.936 C 1.78,1.856 0.617,1.21 0,0"
             style="fill:#1a2e35;fill-opacity:1;fill-rule:nonzero;stroke:none"
             id="path634" />
        </g>
        <g
           id="g636"
           transform="translate(325.2572,314.0458)">
          <path
             d="m 0,0 c 0,0 0.861,-8.041 0.871,-11.139 -2.504,-0.629 -5.121,1.61 -5.121,1.61 z"
             style="fill:#af2711;fill-opacity:1;fill-rule:nonzero;stroke:none"
             id="path638" />
        </g>
        <g
           id="g640"
           transform="translate(317.5816,327.0044)">
          <path
             d="m 0,0 c 0.007,-0.227 0.13,-0.447 0.343,-0.566 2.52,-1.416 2.772,-3.808 2.774,-3.833 0.035,-0.358 0.346,-0.63 0.696,-0.605 0.35,0.025 0.606,0.337 0.574,0.695 C 4.375,-4.183 4.06,-1.184 0.933,0.572 0.621,0.747 0.235,0.634 0.072,0.32 0.019,0.218 -0.004,0.109 0,0"
             style="fill:#1a2e35;fill-opacity:1;fill-rule:nonzero;stroke:none"
             id="path642" />
        </g>
        <g
           id="g644"
           transform="translate(337.6224,314.4141)">
          <path
             d="M 0,0 C 0.124,0.011 0.245,0.056 0.348,0.138 0.628,0.359 0.672,0.76 0.446,1.034 -1.825,3.784 -4.811,3.501 -4.946,3.505 -5.305,3.469 -5.565,3.157 -5.529,2.807 -5.492,2.458 -5.175,2.204 -4.819,2.236 -4.695,2.253 -2.392,2.442 -0.569,0.235 -0.426,0.062 -0.21,-0.019 0,0"
             style="fill:#1a2e35;fill-opacity:1;fill-rule:nonzero;stroke:none"
             id="path646" />
        </g>
        <g
           id="g648"
           transform="translate(340.3315,321.3464)">
          <path
             d="m 0,0 c -9.344,0.606 -16.288,12.744 -16.288,12.744 -3.825,-3.736 -12.311,-1.738 -12.311,-1.738 -0.782,-2.373 -1.877,-4.632 -3.254,-6.717 -1.983,-2.452 -4.3,-4.615 -6.884,-6.425 -0.554,0.736 -1.156,1.311 -1.776,1.792 l -3.925,-8.947 c -4.496,-0.863 -9.39,0.76 -12.481,4.137 2.218,0.063 4.416,0.693 6.331,1.814 -3.358,1.257 -6.257,3.699 -8.066,6.794 2.139,-0.816 4.447,-1.646 6.669,-1.092 1.202,0.3 2.191,1.578 2.879,3.226 7.823,20.95 19.108,20.037 19.108,20.037 0,0 14.864,6.043 22.797,-1.333 C 0.732,16.916 -2.554,16.685 -1.019,9.223 0.515,1.76 0,0 0,0"
             style="fill:#1a2e35;fill-opacity:1;fill-rule:nonzero;stroke:none"
             id="path650" />
        </g>
        <g
           id="g652"
           transform="translate(291.3874,322.8566)">
          <path
             d="m 0,0 c -0.584,-3.545 0.565,-7.057 2.376,-9.465 2.725,-3.622 6.043,-0.462 7.601,3.439 1.402,3.512 2.482,8.114 -1.366,10.358 C 4.819,6.541 0.668,4.053 0,0"
             style="fill:#cd7a63;fill-opacity:1;fill-rule:nonzero;stroke:none"
             id="path654" />
        </g>
        <g
           id="g656">
          <g
             id="g658" />
          <g
             id="g670">
            <g
               clip-path="url(#clipPath662)"
               opacity="0.199997"
               id="g668">
              <g
                 transform="translate(295.8254,324.694)"
                 id="g666">
                <path
                   d="M 0,0 C 0.849,0.453 1.978,0.198 2.722,-0.444 3.467,-1.085 3.87,-2.04 4.037,-2.994 4.238,-4.138 4.131,-5.326 3.731,-6.402"
                   style="fill:none;stroke:#000000;stroke-width:0.75;stroke-linecap:round;stroke-linejoin:round;stroke-miterlimit:10;stroke-dasharray:none;stroke-opacity:1"
                   id="path664" />
              </g>
            </g>
          </g>
        </g>
        <g
           id="g672"
           transform="translate(311.5604,304.7959)">
          <path
             d="m 0,0 c 0.126,-0.029 0.25,-0.061 0.373,-0.1 0.061,-0.02 0.122,-0.041 0.182,-0.063 0.018,-0.007 0.181,-0.072 0.089,-0.034 -0.086,0.037 0.095,-0.044 0.115,-0.054 0.048,-0.023 0.096,-0.047 0.143,-0.072 0.114,-0.06 0.224,-0.125 0.332,-0.194 0.054,-0.035 0.108,-0.07 0.16,-0.107 0.028,-0.02 0.181,-0.134 0.055,-0.036 0.093,-0.072 0.183,-0.149 0.27,-0.228 0.183,-0.167 0.35,-0.348 0.508,-0.538 0.102,-0.122 -0.059,0.09 0.04,-0.052 0.031,-0.044 0.063,-0.088 0.093,-0.132 0.066,-0.097 0.13,-0.197 0.189,-0.299 0.064,-0.112 0.125,-0.225 0.18,-0.341 0.028,-0.058 0.055,-0.117 0.08,-0.176 -0.052,0.122 10e-4,-0.01 0.019,-0.059 0.081,-0.221 0.146,-0.448 0.191,-0.679 0.012,-0.063 0.022,-0.126 0.033,-0.189 -0.032,0.177 0.002,-0.03 0.004,-0.056 0.012,-0.128 0.017,-0.256 0.017,-0.385 0.003,-0.393 0.344,-0.768 0.75,-0.75 0.405,0.018 0.753,0.329 0.75,0.75 C 4.56,-1.372 2.771,0.906 0.399,1.446 0.017,1.533 -0.431,1.33 -0.524,0.923 -0.611,0.541 -0.409,0.093 0,0"
             style="fill:#1a2e35;fill-opacity:1;fill-rule:nonzero;stroke:none"
             id="path674" />
        </g>
        <g
           id="g676">
          <g
             id="g678" />
          <g
             id="g690">
            <g
               clip-path="url(#clipPath682)"
               opacity="0.399994"
               id="g688">
              <g
                 transform="translate(340.9672,316.037)"
                 id="g686">
                <path
                   d="m 0,0 c 0,0 -14.534,7.074 -23.497,9.321 -8.963,2.246 -24.761,5.206 -24.761,5.206 l 1.815,3.3 c 0,0 37.682,-5.922 37.822,-6.037 0.14,-0.115 7.137,-5.44 7.137,-5.44 z"
                   style="fill:#000000;fill-opacity:1;fill-rule:nonzero;stroke:none"
                   id="path684" />
              </g>
            </g>
          </g>
        </g>
        <g
           id="g692"
           transform="translate(341.1167,331.9636)">
          <path
             d="m 0,0 c 0,0 0.794,20.646 -6.829,22.904 -7.623,2.258 -9.646,-4.491 -13.769,-0.187 -4.123,4.304 -5.375,5.822 -7.911,4.598 -2.536,-1.223 -7.308,-6.346 -11.416,-15.536 z"
             style="fill:#007cff;fill-opacity:1;fill-rule:nonzero;stroke:none"
             id="path694" />
        </g>
        <g
           id="g696"
           transform="translate(351.7118,315.355)">
          <path
             d="M 0,0 -10.595,16.609 -50.52,28.387 c 0,0 -18.21,-7.124 -17.732,-7.588 0.479,-0.464 16.926,-2.635 36.595,-9.087 C -11.989,5.261 0,0 0,0"
             style="fill:#007cff;fill-opacity:1;fill-rule:nonzero;stroke:none"
             id="path698" />
        </g>
        <g
           id="g700">
          <g
             id="g702" />
          <g
             id="g714">
            <g
               clip-path="url(#clipPath706)"
               opacity="0.399994"
               id="g712">
              <g
                 transform="translate(341.104,335.8687)"
                 id="g710">
                <path
                   d="M 0,0 C 0,0 -28.576,11.061 -38.169,11.477 L -39.913,7.874 0.013,-3.905 C 0.051,-2.776 0.037,-1.434 0,0"
                   style="fill:#000000;fill-opacity:1;fill-rule:nonzero;stroke:none"
                   id="path708" />
              </g>
            </g>
          </g>
        </g>
        <g
           id="g716">
          <g
             id="g718" />
          <g
             id="g730">
            <g
               clip-path="url(#clipPath722)"
               opacity="0.199997"
               id="g728">
              <g
                 transform="translate(326.7777,354.0942)"
                 id="g726">
                <path
                   d="m 0,0 c -2.886,-1.598 -6.46,-1.779 -9.485,-0.447 -0.437,0.193 -0.819,-0.453 -0.378,-0.647 3.28,-1.445 7.101,-1.292 10.242,0.446 C 0.801,-0.414 0.423,0.234 0,0"
                   style="fill:#000000;fill-opacity:1;fill-rule:nonzero;stroke:none"
                   id="path724" />
              </g>
            </g>
          </g>
        </g>
        <g
           id="g732">
          <g
             id="g734" />
          <g
             id="g746">
            <g
               clip-path="url(#clipPath738)"
               opacity="0.199997"
               id="g744">
              <g
                 transform="translate(337.6408,345.5188)"
                 id="g742">
                <path
                   d="m 0,0 c -0.863,-2.273 -0.714,-4.838 0.358,-7.014 0.213,-0.433 0.86,-0.054 0.648,0.378 -0.988,2.004 -1.073,4.354 -0.283,6.437 C 0.895,0.252 0.17,0.448 0,0"
                   style="fill:#000000;fill-opacity:1;fill-rule:nonzero;stroke:none"
                   id="path740" />
              </g>
            </g>
          </g>
        </g>
        <g
           id="g748">
          <g
             id="g750" />
          <g
             id="g762">
            <g
               clip-path="url(#clipPath754)"
               opacity="0.399994"
               id="g760">
              <g
                 transform="translate(243.6759,210.6997)"
                 id="g758">
                <path
                   d="m 0,0 54.443,45.657 c 0,0 -2.192,-33.484 -5.732,-50.716 -3.54,-17.233 -13.193,-117.878 -13.193,-117.878 l -0.28,-0.151 c -11.136,-0.456 -32.627,-1.131 -33.254,0.28 -0.802,1.803 -1.002,17.43 -1.002,17.43 0,0 -0.401,-19.634 -7.814,-17.43 -3.265,0.971 -10.61,2.33 -17.894,3.564 z"
                   style="fill:#000000;fill-opacity:1;fill-rule:nonzero;stroke:none"
                   id="path756" />
              </g>
            </g>
          </g>
        </g>
        <g
           id="g764"
           transform="translate(255.022,204.1172)">
          <path
             d="m 0,0 c 1.013,0.15 58.299,-14.622 81.829,-26.238 6.262,-3.091 10.587,-11.607 10.301,-19.296 -0.338,-9.101 -22.917,-93.354 -22.917,-93.354 -4.063,-0.369 -33.504,6.629 -33.504,6.629 0,0 17.387,70.73 15.544,76.649 -1.844,5.919 -84.544,17.625 -87.494,24.63 -2.95,7.006 -11.868,52.233 -11.868,52.233 L 4.229,9.093 Z"
             style="fill:#1a2e35;fill-opacity:1;fill-rule:nonzero;stroke:none"
             id="path766" />
        </g>
        <g
           id="g768"
           transform="translate(243.6759,204.0634)">
          <path
             d="m 0,0 c 0,0 -16.736,-127.463 -26.569,-137.762 -9.226,-9.664 -104.78,2.054 -104.78,2.054 l 4.147,29.632 c 0,0 71.444,-8.795 73.288,-2.158 1.843,6.637 -7.115,87.894 -4.165,99.378 2.95,11.483 21.316,30.162 21.316,30.162 z"
             style="fill:#1a2e35;fill-opacity:1;fill-rule:nonzero;stroke:none"
             id="path770" />
        </g>
        <g
           id="g772"
           transform="translate(298.7144,286.3172)">
          <path
             d="m 0,0 c 0.2,-0.601 12.986,-12.779 4.879,-25.457 -2.062,-3.224 -39.542,-50.038 -45.059,-52.642 -5.517,-2.605 -43.412,9.717 -46.903,14.314 -3.492,4.598 60.708,79.482 60.708,79.482 l 10.992,-4.072 4.802,-15.512 z"
             style="fill:#e1e1e1;fill-opacity:1;fill-rule:nonzero;stroke:none"
             id="path774" />
        </g>
        <g
           id="g776"
           transform="translate(288.3712,278.7701)">
          <path
             d="m 0,0 0.58,-7.328 -3.41,-2.163 h -4.208 l -1.798,6.69 5.741,4.127 z"
             style="fill:#007cff;fill-opacity:1;fill-rule:nonzero;stroke:none"
             id="path778" />
        </g>
        <g
           id="g780">
          <g
             id="g782" />
          <g
             id="g794">
            <g
               clip-path="url(#clipPath786)"
               opacity="0.399994"
               id="g792">
              <g
                 transform="translate(268.2073,200.8425)"
                 id="g790">
                <path
                   d="m 0,0 c 0,0 0.593,-10.301 2.538,-12.559 1.944,-2.258 9.31,-6.331 9.31,-6.331 l -0.52,15.76 z"
                   style="fill:#000000;fill-opacity:1;fill-rule:nonzero;stroke:none"
                   id="path788" />
              </g>
            </g>
          </g>
        </g>
        <g
           id="g796"
           transform="translate(285.541,273.8867)">
          <path
             d="m 0,0 c 0,-0.883 2.949,-70.942 3.005,-74.855 0.075,-5.221 -8.401,-16.813 -8.401,-16.813 0,0 -6.825,7.76 -7.026,17.697 C -12.622,-64.035 -3.406,0 -3.406,0 Z"
             style="fill:#007cff;fill-opacity:1;fill-rule:nonzero;stroke:none"
             id="path798" />
        </g>
        <g
           id="g800">
          <g
             id="g802" />
          <g
             id="g814">
            <g
               clip-path="url(#clipPath806)"
               opacity="0.300003"
               id="g812">
              <g
                 transform="translate(270.8755,292.4828)"
                 id="g810">
                <path
                   d="m 0,0 7.432,-17.396 9.747,7.007 1.042,-10.932 c 3.727,2.069 6.552,3.733 9.952,6.303 0,0 -10.249,-9.156 -10.719,-8.186 -0.47,0.969 -0.982,10.893 -0.982,10.893 0,0 -10.119,-7.732 -10.518,-6.74 C 5.554,-18.059 0,0 0,0"
                   style="fill:#1a2e35;fill-opacity:1;fill-rule:nonzero;stroke:none"
                   id="path808" />
              </g>
            </g>
          </g>
        </g>
        <g
           id="g816">
          <g
             id="g818" />
          <g
             id="g830">
            <g
               clip-path="url(#clipPath822)"
               opacity="0.300003"
               id="g828">
              <g
                 transform="translate(186.2879,201.606)"
                 id="g826">
                <path
                   d="m 0,0 c -0.081,0.325 10.075,11.538 10.238,12.188 0.162,0.65 37.943,25.35 37.943,25.35 0,0 -31.769,-36.401 -34.54,-43.388 -2.772,-6.988 -2.266,-13.488 -2.022,-22.994 0.244,-9.506 3.494,-71.013 1.625,-79.95 -1.869,-8.938 -12.422,-6.209 -12.422,-6.209 0,0 -14.553,42.122 -14.878,42.203 C -14.381,-72.719 0.081,-0.325 0,0"
                   style="fill:#000000;fill-opacity:1;fill-rule:nonzero;stroke:none"
                   id="path824" />
              </g>
            </g>
          </g>
        </g>
        <g
           id="g832"
           transform="translate(281.0486,298.7879)">
          <path
             d="m 0,0 c 0,0 -17.816,10.817 -27.922,16.601 -5.046,2.888 -80.106,-91.369 -85.212,-100.967 -8.775,-16.494 -16.943,-115.343 -16.943,-115.343 0,0 33.322,-18.96 43.561,-11.477 10.239,7.482 -8.664,100.753 0.394,111.418 9.058,10.664 29.93,27.814 42.532,42.474 C -30.988,-42.634 0,0 0,0"
             style="fill:#007cff;fill-opacity:1;fill-rule:nonzero;stroke:none"
             id="path834" />
        </g>
        <g
           id="g836"
           transform="translate(177.7772,305.6803)">
          <path
             d="m 0,0 c 0.699,0.393 69.258,16.81 76.502,8.882 7.244,-7.927 -6.481,-25.786 -26.099,-29.713 -1.668,-0.334 -34.679,-2.648 -35.231,-3.113 -1.947,-1.64 -26.54,-38.136 -31.399,-40.055 -4.86,-1.919 -20.615,9.487 -19.969,12.831 C -35.551,-47.823 -6.421,-3.607 0,0"
             style="fill:#007cff;fill-opacity:1;fill-rule:nonzero;stroke:none"
             id="path838" />
        </g>
        <g
           id="g840">
          <g
             id="g842" />
          <g
             id="g854">
            <g
               clip-path="url(#clipPath846)"
               opacity="0.399994"
               id="g852">
              <g
                 transform="translate(238.2814,166.0279)"
                 id="g850">
                <path
                   d="M 0,0 2.817,16.798 9.028,23.554 4.982,14.975 4.041,-1.102 Z"
                   style="fill:#000000;fill-opacity:1;fill-rule:nonzero;stroke:none"
                   id="path848" />
              </g>
            </g>
          </g>
        </g>
        <g
           id="g856">
          <g
             id="g858" />
          <g
             id="g870">
            <g
               clip-path="url(#clipPath862)"
               opacity="0.300003"
               id="g868">
              <g
                 transform="translate(252.6827,313.1005)"
                 id="g866">
                <path
                   d="m 0,0 c -0.228,-6.593 -2.979,-12.963 -7.667,-17.617 -4.69,-4.656 -11.069,-7.404 -17.635,-7.893 -0.957,-0.071 -0.965,-1.571 0,-1.5 6.967,0.518 13.715,3.387 18.696,8.333 C -1.637,-13.743 1.258,-6.986 1.5,0 1.533,0.966 0.033,0.964 0,0"
                   style="fill:#000000;fill-opacity:1;fill-rule:nonzero;stroke:none"
                   id="path864" />
              </g>
            </g>
          </g>
        </g>
        <g
           id="g872">
          <g
             id="g874" />
          <g
             id="g886">
            <g
               clip-path="url(#clipPath878)"
               opacity="0.300003"
               id="g884">
              <g
                 transform="translate(169.8364,251.851)"
                 id="g882">
                <path
                   d="m 0,0 c -2.07,2.182 -4.467,4.067 -6.902,5.823 -2.451,1.768 -5.029,3.472 -7.812,4.675 -0.388,0.167 -0.781,0.103 -1.026,-0.269 -1.257,-1.915 -2.515,-3.83 -3.773,-5.744 -0.242,-0.369 -0.038,-0.79 0.269,-1.026 4.598,-3.536 9.266,-7.122 13.427,-11.172 0.692,-0.674 1.754,0.386 1.061,1.061 -4.253,4.139 -9.032,7.792 -13.731,11.406 0.09,-0.342 0.18,-0.684 0.27,-1.026 1.257,1.914 2.515,3.829 3.772,5.743 -0.342,-0.089 -0.684,-0.179 -1.026,-0.269 2.698,-1.166 5.2,-2.807 7.584,-4.511 2.415,-1.726 4.78,-3.594 6.826,-5.752 C -0.395,-1.762 0.665,-0.701 0,0"
                   style="fill:#000000;fill-opacity:1;fill-rule:nonzero;stroke:none"
                   id="path880" />
              </g>
            </g>
          </g>
        </g>
        <g
           id="g888"
           transform="translate(154.1976,256.8382)">
          <path
             d="M 0,0 C -0.145,-0.751 0.346,-1.477 1.097,-1.622 1.848,-1.767 2.575,-1.276 2.72,-0.525 2.865,0.226 2.373,0.953 1.622,1.098 0.871,1.242 0.145,0.751 0,0"
             style="fill:#1a2e35;fill-opacity:1;fill-rule:nonzero;stroke:none"
             id="path890" />
        </g>
        <g
           id="g892">
          <g
             id="g894" />
          <g
             id="g906">
            <g
               clip-path="url(#clipPath898)"
               opacity="0.300003"
               id="g904">
              <g
                 transform="translate(240.4067,245.0197)"
                 id="g902">
                <path
                   d="m 0,0 c 1.038,4.206 -0.291,11.351 0.513,15.604 0.804,4.253 2.111,8.518 4.828,12.016 2.717,3.498 7.046,6.148 11.803,6.206 -0.632,2.872 -1.267,5.765 -1.302,8.681 -0.035,2.917 0.565,5.891 2.244,8.338 3.016,4.395 8.158,6.973 13.697,8.267 l 8.859,-5.344 z"
                   style="fill:#000000;fill-opacity:1;fill-rule:nonzero;stroke:none"
                   id="path900" />
              </g>
            </g>
          </g>
        </g>
        <g
           id="g908"
           transform="translate(304.7534,283.4357)">
          <path
             d="m 0,0 c 4.759,-7.526 2.414,-18.203 -2.972,-25.294 4.124,-5.968 4.827,-13.826 3.206,-20.897 -1.621,-7.072 -5.791,-11.845 -9.953,-17.788 0,0 3.508,41.121 3.626,43.091 0.118,1.97 -0.023,24.269 0.054,23.77 0.077,-0.5 1.908,1.519 1.908,1.519 0,0 2.879,-2.421 4.131,-4.401"
             style="fill:#007cff;fill-opacity:1;fill-rule:nonzero;stroke:none"
             id="path910" />
        </g>
        <g
           id="g912">
          <g
             id="g914" />
          <g
             id="g926">
            <g
               clip-path="url(#clipPath918)"
               opacity="0.300003"
               id="g924">
              <g
                 transform="translate(304.7534,283.4357)"
                 id="g922">
                <path
                   d="m 0,0 c 4.759,-7.526 2.414,-18.203 -2.972,-25.294 4.124,-5.968 4.827,-13.826 3.206,-20.897 -1.621,-7.072 -6.227,-11.845 -10.388,-17.788 0,0 0.916,7.284 1.74,15.939 1.122,11.779 2.253,26.017 2.321,27.152 0.118,1.97 -0.023,24.269 0.054,23.77 0.077,-0.5 1.908,1.519 1.908,1.519 0,0 2.879,-2.421 4.131,-4.401"
                   style="fill:#000000;fill-opacity:1;fill-rule:nonzero;stroke:none"
                   id="path920" />
              </g>
            </g>
          </g>
        </g>
        <g
           id="g928">
          <g
             id="g930" />
          <g
             id="g942">
            <g
               clip-path="url(#clipPath934)"
               opacity="0.300003"
               id="g940">
              <g
                 transform="translate(302.4639,193.4588)"
                 id="g938">
                <path
                   d="m 0,0 c 2.221,15.787 5.471,31.408 7.779,47.182 0.621,4.247 1.174,8.505 1.608,12.776 0.097,0.96 -1.404,0.953 -1.5,0 C 6.29,44.238 3.162,28.721 0.545,13.152 -0.168,8.909 -0.847,4.66 -1.446,0.399 -1.579,-0.545 -0.134,-0.954 0,0"
                   style="fill:#000000;fill-opacity:1;fill-rule:nonzero;stroke:none"
                   id="path936" />
              </g>
            </g>
          </g>
        </g>
        <g
           id="g944">
          <g
             id="g946" />
          <g
             id="g958">
            <g
               clip-path="url(#clipPath950)"
               opacity="0.300003"
               id="g956">
              <g
                 transform="translate(200.301,216.2431)"
                 id="g954">
                <path
                   d="m 0,0 c -6.493,-2.659 -13.734,-2.858 -20.358,-0.539 -0.913,0.32 -1.305,-1.129 -0.399,-1.446 6.843,-2.396 14.446,-2.21 21.156,0.539 C 1.28,-1.086 0.894,0.366 0,0"
                   style="fill:#000000;fill-opacity:1;fill-rule:nonzero;stroke:none"
                   id="path952" />
              </g>
            </g>
          </g>
        </g>
        <g
           id="g960"
           transform="translate(123.2816,231.6132)">
          <path
             d="M 0,0 C 2.839,2.904 6.294,5.166 10.106,6.573 11.005,6.904 10.616,8.354 9.708,8.019 5.65,6.522 1.965,4.156 -1.061,1.061 -1.736,0.37 -0.676,-0.692 0,0"
             style="fill:#b94d3c;fill-opacity:1;fill-rule:nonzero;stroke:none"
             id="path962" />
        </g>
        <g
           id="g964">
          <g
             id="g966" />
          <g
             id="g978">
            <g
               clip-path="url(#clipPath970)"
               opacity="0.300003"
               id="g976">
              <g
                 transform="translate(317.5026,156.074)"
                 id="g974">
                <path
                   d="m 0,0 c -4.19,-1.521 -8.38,-3.042 -12.571,-4.562 -0.9,-0.327 -0.511,-1.777 0.399,-1.447 4.19,1.521 8.381,3.042 12.571,4.562 C 1.299,-1.12 0.91,0.33 0,0"
                   style="fill:#000000;fill-opacity:1;fill-rule:nonzero;stroke:none"
                   id="path972" />
              </g>
            </g>
          </g>
        </g>
        <g
           id="g980">
          <g
             id="g982" />
          <g
             id="g994">
            <g
               clip-path="url(#clipPath986)"
               opacity="0.300003"
               id="g992">
              <g
                 transform="translate(315.915,147.4468)"
                 id="g990">
                <path
                   d="m 0,0 c -2.799,1.002 -5.674,1.775 -8.598,2.312 -0.398,0.073 -0.809,-0.11 -0.923,-0.524 -0.1,-0.365 0.124,-0.849 0.524,-0.923 2.925,-0.536 5.799,-1.309 8.598,-2.311 0.382,-0.137 0.821,0.154 0.923,0.523 C 0.638,-0.507 0.383,-0.137 0,0"
                   style="fill:#000000;fill-opacity:1;fill-rule:nonzero;stroke:none"
                   id="path988" />
              </g>
            </g>
          </g>
        </g>
        <g
           id="g996">
          <g
             id="g998" />
          <g
             id="g1010">
            <g
               clip-path="url(#clipPath1002)"
               opacity="0.300003"
               id="g1008">
              <g
                 transform="translate(318.9578,225.4152)"
                 id="g1006">
                <path
                   d="m 0,0 c -2.291,-5.861 -4.961,-11.565 -7.984,-17.084 -0.464,-0.847 0.831,-1.605 1.295,-0.757 3.085,5.633 5.798,11.46 8.135,17.442 C 1.798,0.501 0.348,0.891 0,0"
                   style="fill:#000000;fill-opacity:1;fill-rule:nonzero;stroke:none"
                   id="path1004" />
              </g>
            </g>
          </g>
        </g>
        <g
           id="g1012">
          <g
             id="g1014" />
          <g
             id="g1026">
            <g
               clip-path="url(#clipPath1018)"
               opacity="0.300003"
               id="g1024">
              <g
                 transform="translate(313.0024,248.3614)"
                 id="g1022">
                <path
                   d="m 0,0 c -1.175,-1.363 -2.35,-2.726 -3.524,-4.089 -0.256,-0.297 -0.314,-0.773 0,-1.061 0.281,-0.258 0.787,-0.317 1.06,0 1.175,1.363 2.35,2.726 3.525,4.089 0.256,0.297 0.313,0.773 0,1.061 C 0.78,0.258 0.273,0.317 0,0"
                   style="fill:#000000;fill-opacity:1;fill-rule:nonzero;stroke:none"
                   id="path1020" />
              </g>
            </g>
          </g>
        </g>
        <g
           id="g1028">
          <g
             id="g1030" />
          <g
             id="g1042">
            <g
               clip-path="url(#clipPath1034)"
               opacity="0.300003"
               id="g1040">
              <g
                 transform="translate(402.2224,259.6234)"
                 id="g1038">
                <path
                   d="m 0,0 c 0,0 -1.15,-5.654 -4.717,-9.382 -3.568,-3.729 -3.125,-10.206 -3.125,-10.206 l -3.776,-2.326 c 0,0 -2.639,0.152 0,6.782 2.639,6.631 5.543,3.221 6.901,8.21 1.358,4.989 0.576,4.518 0.576,4.518 0,0 3.08,2.443 4.141,2.404"
                   style="fill:#ffffff;fill-opacity:1;fill-rule:nonzero;stroke:none"
                   id="path1036" />
              </g>
            </g>
          </g>
        </g>
        <g
           id="g1044">
          <g
             id="g1046" />
          <g
             id="g1058">
            <g
               clip-path="url(#clipPath1050)"
               opacity="0.300003"
               id="g1056">
              <g
                 transform="translate(251.8429,145.8758)"
                 id="g1054">
                <path
                   d="m 0,0 c -1.641,-11.37 -2.996,-22.779 -4.056,-34.217 -0.089,-0.961 1.412,-0.955 1.5,0 1.048,11.305 2.38,22.581 4.003,33.818 C 1.583,0.545 0.138,0.953 0,0"
                   style="fill:#000000;fill-opacity:1;fill-rule:nonzero;stroke:none"
                   id="path1052" />
              </g>
            </g>
          </g>
        </g>
        <g
           id="g1060">
          <g
             id="g1062" />
          <g
             id="g1074">
            <g
               clip-path="url(#clipPath1066)"
               opacity="0.300003"
               id="g1072">
              <g
                 transform="translate(263.7363,146.2596)"
                 id="g1070">
                <path
                   d="m 0,0 c -1.733,-19.402 -3.467,-38.804 -5.2,-58.206 -0.086,-0.961 1.414,-0.956 1.5,0 C -1.967,-38.804 -0.233,-19.402 1.5,0 1.586,0.961 0.085,0.955 0,0"
                   style="fill:#000000;fill-opacity:1;fill-rule:nonzero;stroke:none"
                   id="path1068" />
              </g>
            </g>
          </g>
        </g>
      </g>
    </g>
  </g>
</svg>
