<?xml version="1.0" encoding="utf-8"?>
<!-- Generator: Adobe Illustrator 27.5.0, SVG Export Plug-In . SVG Version: 6.00 Build 0)  -->
<svg version="1.1" xmlns="http://www.w3.org/2000/svg" xmlns:xlink="http://www.w3.org/1999/xlink" x="0px" y="0px"
	 viewBox="0 0 500 500" style="enable-background:new 0 0 500 500;" xml:space="preserve">
<g id="Background_Complete">
	<g>
		<rect y="382.398" style="fill:#EBEBEB;" width="500" height="0.25"/>
		<rect x="416.779" y="398.494" style="fill:#EBEBEB;" width="33.122" height="0.25"/>
		<rect x="322.527" y="401.208" style="fill:#EBEBEB;" width="8.693" height="0.25"/>
		<rect x="396.586" y="389.208" style="fill:#EBEBEB;" width="19.192" height="0.25"/>
		<rect x="52.459" y="390.888" style="fill:#EBEBEB;" width="43.193" height="0.25"/>
		<rect x="104.556" y="390.888" style="fill:#EBEBEB;" width="6.333" height="0.25"/>
		<rect x="131.471" y="395.111" style="fill:#EBEBEB;" width="93.676" height="0.25"/>
		<path style="fill:#EBEBEB;" d="M237.014,337.8H43.915c-3.147,0-5.708-2.561-5.708-5.708V60.66c0-3.147,2.561-5.708,5.708-5.708
			h193.099c3.146,0,5.707,2.561,5.707,5.708v271.432C242.721,335.239,240.16,337.8,237.014,337.8z M43.915,55.203
			c-3.01,0-5.458,2.448-5.458,5.458v271.432c0,3.01,2.448,5.458,5.458,5.458h193.099c3.009,0,5.457-2.448,5.457-5.458V60.66
			c0-3.009-2.448-5.458-5.457-5.458H43.915z"/>
		<path style="fill:#EBEBEB;" d="M453.31,337.8H260.212c-3.147,0-5.707-2.561-5.707-5.708V60.66c0-3.147,2.561-5.708,5.707-5.708
			H453.31c3.148,0,5.708,2.561,5.708,5.708v271.432C459.019,335.239,456.458,337.8,453.31,337.8z M260.212,55.203
			c-3.009,0-5.457,2.448-5.457,5.458v271.432c0,3.01,2.448,5.458,5.457,5.458H453.31c3.01,0,5.458-2.448,5.458-5.458V60.66
			c0-3.009-2.448-5.458-5.458-5.458H260.212z"/>
	</g>
	<g>
		
			<rect x="268.15" y="159.743" transform="matrix(-1 -1.224647e-16 1.224647e-16 -1 712.5898 542.72)" style="fill:#F0F0F0;" width="176.289" height="223.233"/>
		<g>
			
				<rect x="274.382" y="167.88" transform="matrix(-1 -1.224647e-16 1.224647e-16 -1 712.59 383.4944)" style="fill:#E0E0E0;" width="163.826" height="47.735"/>
			
				<rect x="428.902" y="175.607" transform="matrix(-1 -1.224647e-16 1.224647e-16 -1 867.11 391.2222)" style="fill:#EBEBEB;" width="9.306" height="40.008"/>
			
				<rect x="383.902" y="175.607" transform="matrix(-1 -1.224647e-16 1.224647e-16 -1 777.11 391.2222)" style="fill:#EBEBEB;" width="9.306" height="40.008"/>
			
				<rect x="329.351" y="175.108" transform="matrix(-0.9855 -0.1698 0.1698 -0.9855 630.0173 444.1154)" style="fill:#EBEBEB;" width="9.306" height="40.008"/>
			
				<rect x="417.37" y="180.88" transform="matrix(-1 -1.224647e-16 1.224647e-16 -1 844.047 396.4944)" style="fill:#EBEBEB;" width="9.306" height="34.735"/>
			
				<rect x="395.979" y="180.88" transform="matrix(-1 -1.224647e-16 1.224647e-16 -1 801.2654 396.4944)" style="fill:#EBEBEB;" width="9.306" height="34.735"/>
			
				<rect x="341.987" y="180.88" transform="matrix(-1 -1.224647e-16 1.224647e-16 -1 693.28 396.4944)" style="fill:#EBEBEB;" width="9.306" height="34.735"/>
			
				<rect x="367.8" y="180.284" transform="matrix(-0.9762 -0.2169 0.2169 -0.9762 693.1686 471.3835)" style="fill:#EBEBEB;" width="9.306" height="34.735"/>
			
				<rect x="409.323" y="173.621" transform="matrix(-1 -1.224647e-16 1.224647e-16 -1 823.2992 389.2359)" style="fill:#EBEBEB;" width="4.653" height="41.994"/>
			
				<rect x="353.968" y="173.621" transform="matrix(-1 -1.224647e-16 1.224647e-16 -1 712.59 389.2359)" style="fill:#EBEBEB;" width="4.653" height="41.994"/>
		</g>
		<g>
			<rect x="274.382" y="223.173" style="fill:#E0E0E0;" width="163.826" height="47.735"/>
			<rect x="274.382" y="230.901" style="fill:#EBEBEB;" width="9.306" height="40.008"/>
			<rect x="319.382" y="230.901" style="fill:#EBEBEB;" width="9.306" height="40.008"/>
			
				<rect x="373.933" y="230.402" transform="matrix(0.9855 -0.1698 0.1698 0.9855 -37.0286 67.937)" style="fill:#EBEBEB;" width="9.306" height="40.008"/>
			<rect x="285.913" y="236.173" style="fill:#EBEBEB;" width="9.306" height="34.735"/>
			<rect x="307.304" y="236.173" style="fill:#EBEBEB;" width="9.307" height="34.735"/>
			<rect x="361.297" y="236.173" style="fill:#EBEBEB;" width="9.306" height="34.735"/>
			
				<rect x="335.483" y="235.578" transform="matrix(0.9762 -0.2169 0.2169 0.9762 -46.7671 79.7985)" style="fill:#EBEBEB;" width="9.306" height="34.735"/>
			<rect x="298.614" y="228.915" style="fill:#EBEBEB;" width="4.653" height="41.994"/>
			<rect x="353.968" y="228.915" style="fill:#EBEBEB;" width="4.653" height="41.994"/>
			
				<rect x="428.902" y="230.901" transform="matrix(-1 -1.224647e-16 1.224647e-16 -1 867.11 501.8102)" style="fill:#EBEBEB;" width="9.306" height="40.008"/>
			
				<rect x="417.37" y="236.173" transform="matrix(-1 -1.224647e-16 1.224647e-16 -1 844.047 507.0824)" style="fill:#EBEBEB;" width="9.306" height="34.735"/>
			
				<rect x="395.979" y="236.173" transform="matrix(-1 -1.224647e-16 1.224647e-16 -1 801.2654 507.0824)" style="fill:#EBEBEB;" width="9.306" height="34.735"/>
			
				<rect x="409.323" y="228.915" transform="matrix(-1 -1.224647e-16 1.224647e-16 -1 823.2992 499.8239)" style="fill:#EBEBEB;" width="4.653" height="41.994"/>
		</g>
		<g>
			
				<rect x="274.382" y="278.468" transform="matrix(-1 -1.224647e-16 1.224647e-16 -1 712.5898 604.6706)" style="fill:#E0E0E0;" width="163.826" height="47.735"/>
			<g>
				
					<rect x="334.871" y="286.195" transform="matrix(-1 -1.224647e-16 1.224647e-16 -1 679.048 612.3984)" style="fill:#EBEBEB;" width="9.306" height="40.008"/>
				
					<rect x="280.32" y="285.696" transform="matrix(-0.9855 -0.1698 0.1698 -0.9855 513.8854 655.3575)" style="fill:#EBEBEB;" width="9.306" height="40.008"/>
				
					<rect x="368.339" y="291.468" transform="matrix(-1 -1.224647e-16 1.224647e-16 -1 745.9851 617.6706)" style="fill:#EBEBEB;" width="9.307" height="34.735"/>
				
					<rect x="346.948" y="291.468" transform="matrix(-1 -1.224647e-16 1.224647e-16 -1 703.2034 617.6706)" style="fill:#EBEBEB;" width="9.306" height="34.735"/>
				
					<rect x="292.956" y="291.468" transform="matrix(-1 -1.224647e-16 1.224647e-16 -1 595.2181 617.6706)" style="fill:#EBEBEB;" width="9.307" height="34.735"/>
				
					<rect x="318.769" y="290.872" transform="matrix(-0.9762 -0.2169 0.2169 -0.9762 572.2862 679.2926)" style="fill:#EBEBEB;" width="9.306" height="34.735"/>
				
					<rect x="360.292" y="284.209" transform="matrix(-1 -1.224647e-16 1.224647e-16 -1 725.2372 610.4121)" style="fill:#EBEBEB;" width="4.653" height="41.994"/>
				
					<rect x="304.937" y="284.209" transform="matrix(-1 -1.224647e-16 1.224647e-16 -1 614.528 610.4121)" style="fill:#EBEBEB;" width="4.653" height="41.994"/>
				
					<rect x="387.387" y="285.696" transform="matrix(-0.9855 -0.1698 0.1698 -0.9855 726.4647 673.5418)" style="fill:#EBEBEB;" width="9.306" height="40.008"/>
				
					<rect x="400.023" y="291.468" transform="matrix(-1 -1.224647e-16 1.224647e-16 -1 809.3529 617.6706)" style="fill:#EBEBEB;" width="9.307" height="34.735"/>
				
					<rect x="425.837" y="290.872" transform="matrix(-0.9762 -0.2169 0.2169 -0.9762 783.872 702.5161)" style="fill:#EBEBEB;" width="9.306" height="34.735"/>
				
					<rect x="412.005" y="284.209" transform="matrix(-1 -1.224647e-16 1.224647e-16 -1 828.6628 610.4121)" style="fill:#EBEBEB;" width="4.653" height="41.994"/>
			</g>
		</g>
		<rect x="55.357" y="95.227" style="fill:#E9E9E9;" width="112.616" height="124.616"/>
		<rect x="60.313" y="100.163" style="fill:#F4F4F4;" width="103" height="115"/>
		<polygon style="fill:#FFFFFF;" points="89.422,100.163 60.313,209.183 60.313,150.163 73.633,100.163 		"/>
		<polygon style="fill:#FFFFFF;" points="102.433,100.163 71.732,215.163 65.942,215.163 96.643,100.163 		"/>
		<polygon style="fill:#FFFFFF;" points="163.313,131.523 163.313,190.553 156.792,215.163 141.002,215.163 		"/>
		<rect x="109.665" y="95.227" style="fill:#E9E9E9;" width="4" height="124.616"/>
		<rect x="57.313" y="120.513" style="fill:#E9E9E9;" width="108.5" height="4"/>
	</g>
</g>
<g id="Background_Simple" style="display:none;">
	<path style="display:inline;fill:#FFFFFF;" d="M84.85,207.44c-38.905,7.912,42.02-35.554,13.03-30.041"/>
	<g style="display:inline;">
		<path style="fill:#407BFF;" d="M84.268,184.771c-5.452,0.629-10.735,2.303-15.517,5.297c-14.447,9.046-19.68,27.585-21.893,43.465
			c-3.595,25.798-0.786,52.775,10.195,76.394c10.981,23.619,30.464,43.61,54.704,53.143c32.768,12.888,70.247,5.821,102.646-7.969
			c43.747-18.621,81.78-48.767,115.063-82.719c10.758-10.974,21.718-22.798,36.296-27.661c10.321-3.443,21.464-3.03,32.344-3.026
			c10.88,0.003,22.19-0.55,31.808-5.637c27.913-14.761,11.142-48.438-9.296-60.986c-12.311-7.559-26.81-10.775-41.17-12.353
			c-57.022-6.264-114.116,11.551-166.147,35.706c-17.848,8.285-37.005,17.589-56.317,13.812
			C130.687,207.093,112.639,181.496,84.268,184.771z"/>
		<path style="opacity:0.9;fill:#FFFFFF;enable-background:new    ;" d="M84.268,184.771c-5.452,0.629-10.735,2.303-15.517,5.297
			c-14.447,9.046-19.68,27.585-21.893,43.465c-3.595,25.798-0.786,52.775,10.195,76.394c10.981,23.619,30.464,43.61,54.704,53.143
			c32.768,12.888,70.247,5.821,102.646-7.969c43.747-18.621,81.78-48.767,115.063-82.719c10.758-10.974,21.718-22.798,36.296-27.661
			c10.321-3.443,21.464-3.03,32.344-3.026c10.88,0.003,22.19-0.55,31.808-5.637c27.913-14.761,11.142-48.438-9.296-60.986
			c-12.311-7.559-26.81-10.775-41.17-12.353c-57.022-6.264-114.116,11.551-166.147,35.706
			c-17.848,8.285-37.005,17.589-56.317,13.812C130.687,207.093,112.639,181.496,84.268,184.771z"/>
	</g>
</g>
<g id="Shadow_1_">
	<ellipse id="_x3C_Path_x3E__359_" style="fill:#F5F5F5;" cx="250" cy="416.238" rx="193.889" ry="11.323"/>
</g>
<g id="Lamp">
	<g>
		<g>
			<path style="fill:#263238;" d="M96.106,336.742h-29.8c0-1.57,1.06-2.95,2.57-3.35l10.33-2.77v-57.38h4.01v57.38l10.32,2.77
				C95.057,333.792,96.106,335.172,96.106,336.742z"/>
			<g>
				<polygon style="fill:#407BFF;" points="112.117,291.649 50.299,291.649 55.302,239.994 107.114,239.994 				"/>
			</g>
			<g style="opacity:0.4;enable-background:new    ;">
				<polygon style="fill:#FFFFFF;" points="112.117,291.649 50.299,291.649 55.302,239.994 107.114,239.994 				"/>
			</g>
			<path style="opacity:0.2;fill:#FFFFFF;" d="M96.106,336.742h-29.8c0-1.57,1.06-2.95,2.57-3.35l10.33-2.77v-21.55l4.01-1.82v23.37
				l10.32,2.77C95.057,333.792,96.106,335.172,96.106,336.742z"/>
		</g>
		<g>
			<g>
				<polygon style="fill:#263238;" points="113.274,417.942 109.142,417.942 107.142,405.857 113.274,405.857 				"/>
				<polygon style="fill:#263238;" points="49.142,417.942 53.274,417.942 55.274,405.857 49.142,405.857 				"/>
			</g>
			<rect x="46.432" y="338.492" style="fill:#407BFF;" width="69.552" height="70.45"/>
			<path style="fill:#407BFF;" d="M47.766,336.742h66.884c1.646,0,2.979,1.334,2.979,2.979l0,0c0,1.646-1.334,2.979-2.979,2.979
				H47.766c-1.646,0-2.979-1.334-2.979-2.979l0,0C44.787,338.076,46.121,336.742,47.766,336.742z"/>
			<path style="opacity:0.4;fill:#FFFFFF;enable-background:new    ;" d="M47.766,336.742h66.884c1.646,0,2.979,1.334,2.979,2.979
				l0,0c0,1.646-1.334,2.979-2.979,2.979H47.766c-1.646,0-2.979-1.334-2.979-2.979l0,0
				C44.787,338.076,46.121,336.742,47.766,336.742z"/>
			<rect x="50.715" y="347.263" style="opacity:0.4;fill:#FFFFFF;enable-background:new    ;" width="60.988" height="15.929"/>
			<circle style="opacity:0.2;enable-background:new    ;" cx="81.208" cy="355.109" r="2.077"/>
			<rect x="50.715" y="367.263" style="opacity:0.4;fill:#FFFFFF;enable-background:new    ;" width="60.988" height="15.929"/>
			<circle style="opacity:0.2;enable-background:new    ;" cx="81.208" cy="375.109" r="2.077"/>
			<rect x="50.715" y="387.263" style="opacity:0.4;fill:#FFFFFF;enable-background:new    ;" width="60.988" height="15.929"/>
			<circle style="opacity:0.2;enable-background:new    ;" cx="81.208" cy="395.109" r="2.077"/>
		</g>
	</g>
</g>
<g id="Sofa">
	<g>
		<g>
			<path style="fill:#407BFF;" d="M147.905,270.91v113.71h278.86V270.91c0-6.06-4.91-10.98-10.98-10.98h-256.9
				C152.816,259.93,147.905,264.85,147.905,270.91z"/>
			<path style="opacity:0.4;fill:#FFFFFF;enable-background:new    ;" d="M147.905,270.91v113.71h278.86V270.91
				c0-6.06-4.91-10.98-10.98-10.98h-256.9C152.816,259.93,147.905,264.85,147.905,270.91z"/>
		</g>
		<g>
			
				<rect x="154.773" y="376.955" transform="matrix(-1 -1.224647e-16 1.224647e-16 -1 574.6705 791.1723)" style="fill:#407BFF;" width="265.124" height="37.262"/>
			
				<rect x="154.773" y="376.955" transform="matrix(-1 -1.224647e-16 1.224647e-16 -1 574.6705 791.1723)" style="opacity:0.4;fill:#FFFFFF;enable-background:new    ;" width="265.124" height="37.262"/>
		</g>
		<g>
			<path style="fill:#407BFF;" d="M408.465,324.302v87.87c0,3.19,2.59,5.77,5.78,5.77h31.18c3.19,0,5.78-2.58,5.78-5.77v-87.87
				c0-3.19-2.59-5.78-5.78-5.78h-31.18C411.055,318.522,408.465,321.112,408.465,324.302z"/>
			<path style="fill:#407BFF;" d="M123.465,324.3v87.87c0,3.19,2.59,5.77,5.78,5.77h31.18c3.19,0,5.78-2.58,5.78-5.77V324.3
				c0-3.19-2.59-5.78-5.78-5.78h-31.18C126.055,318.52,123.465,321.11,123.465,324.3z"/>
			<path style="opacity:0.5;fill:#FFFFFF;enable-background:new    ;" d="M408.465,324.302v87.87c0,3.19,2.59,5.77,5.78,5.77h31.18
				c3.19,0,5.78-2.58,5.78-5.77v-87.87c0-3.19-2.59-5.78-5.78-5.78h-31.18C411.055,318.522,408.465,321.112,408.465,324.302z"/>
			<path style="opacity:0.5;fill:#FFFFFF;enable-background:new    ;" d="M123.465,324.3v87.87c0,3.19,2.59,5.77,5.78,5.77h31.18
				c3.19,0,5.78-2.58,5.78-5.77V324.3c0-3.19-2.59-5.78-5.78-5.78h-31.18C126.055,318.52,123.465,321.11,123.465,324.3z"/>
		</g>
		<g>
			<path style="fill:#407BFF;" d="M157.316,355.95v22.64c0,3.33,2.7,6.03,6.03,6.03h247.98c3.33,0,6.03-2.7,6.03-6.03v-22.64
				c0-3.33-2.7-6.03-6.03-6.03h-247.98c-0.85,0-1.67,0.18-2.4,0.51C158.805,351.35,157.316,353.48,157.316,355.95z"/>
			<path style="opacity:0.6;fill:#FFFFFF;enable-background:new    ;" d="M157.316,355.95v22.64c0,3.33,2.7,6.03,6.03,6.03h247.98
				c3.33,0,6.03-2.7,6.03-6.03v-22.64c0-3.33-2.7-6.03-6.03-6.03h-247.98c-0.85,0-1.67,0.18-2.4,0.51
				C158.805,351.35,157.316,353.48,157.316,355.95z"/>
		</g>
	</g>
</g>
<g id="Space">
	<g>
		<g>
			<path style="fill:#263238;" d="M261.131,78.628c-33.139-4.547-61.052-2.488-83.602,4.256
				c-28.89,8.606-48.973,24.884-60.006,44.721c-6.583,11.824-9.93,24.899-10.024,38.381c-0.317,47.187,43.557,58.054,85.759,36.954
				c19.329-9.666,38.432-13.918,55.967-13.377c20.763,0.628,39.309,7.978,53.383,21.051c16.546,15.362,33.838,23.457,48.23,17.133
				c8.197-3.616,15.446-11.896,21.09-26.177C387.479,162.214,362.02,92.467,261.131,78.628z"/>
			<path style="opacity:0.1;fill:#FFFFFF;enable-background:new    ;" d="M282.652,174.117c12.456-16.71-6.7-44.105-53.222-60.207
				c-22.449-7.778-39.884-20.23-51.901-31.026c-28.89,8.606-48.973,24.884-60.006,44.721c5.681,3.321,13.678,6.797,24.923,10.16
				c44.922,13.438,70.262,2.517,87.092,13.784c16.83,11.266,4.793,15.846,18.639,36.547c0.33,0.486,0.679,0.975,1.048,1.469
				c20.763,0.628,39.309,7.978,53.383,21.051c16.546,15.362,33.838,23.457,48.23,17.133
				C327.839,216.409,272.752,187.398,282.652,174.117z"/>
			<g>
				<path style="opacity:0.2;fill:#FFFFFF;enable-background:new    ;" d="M343.117,181.919c0.289-1.421-0.628-2.808-2.049-3.097
					c-1.421-0.29-2.808,0.628-3.097,2.049s0.628,2.808,2.049,3.097C341.441,184.257,342.828,183.34,343.117,181.919z"/>
				<path style="opacity:0.2;fill:#FFFFFF;enable-background:new    ;" d="M341.831,181.657c0.145-0.711-0.314-1.404-1.024-1.549
					c-0.711-0.145-1.404,0.314-1.549,1.024c-0.145,0.71,0.314,1.404,1.024,1.549C340.993,182.826,341.686,182.367,341.831,181.657z"
					/>
			</g>
			<g>
				<path style="opacity:0.2;fill:#FFFFFF;enable-background:new    ;" d="M132.061,169.889c0.289-1.421-0.628-2.808-2.049-3.097
					c-1.421-0.29-2.808,0.628-3.097,2.049c-0.29,1.421,0.628,2.808,2.049,3.097C130.385,172.227,131.772,171.31,132.061,169.889z"/>
				<path style="opacity:0.2;fill:#FFFFFF;enable-background:new    ;" d="M130.775,169.626c0.145-0.711-0.314-1.404-1.024-1.549
					c-0.711-0.145-1.404,0.314-1.549,1.025c-0.145,0.711,0.314,1.404,1.024,1.549C129.936,170.796,130.63,170.337,130.775,169.626z"
					/>
			</g>
			<g>
				<path style="opacity:0.2;fill:#FFFFFF;enable-background:new    ;" d="M279.075,120.932c0.29-1.421-0.628-2.808-2.049-3.097
					c-1.421-0.29-2.808,0.628-3.097,2.049c-0.29,1.421,0.628,2.808,2.049,3.097C277.399,123.27,278.786,122.353,279.075,120.932z"/>
				<path style="opacity:0.2;fill:#FFFFFF;enable-background:new    ;" d="M277.789,120.67c0.145-0.711-0.314-1.404-1.024-1.549
					c-0.711-0.145-1.404,0.314-1.549,1.024c-0.145,0.711,0.314,1.404,1.025,1.549C276.951,121.839,277.644,121.381,277.789,120.67z"
					/>
			</g>
			<g>
				<path style="opacity:0.2;fill:#FFFFFF;enable-background:new    ;" d="M195.314,103.867c0.289-1.421-0.628-2.808-2.049-3.097
					c-1.421-0.289-2.808,0.628-3.098,2.049c-0.289,1.421,0.628,2.808,2.049,3.097C193.638,106.205,195.024,105.288,195.314,103.867z
					"/>
				<path style="opacity:0.2;fill:#FFFFFF;enable-background:new    ;" d="M194.027,103.605c0.145-0.711-0.314-1.404-1.024-1.549
					c-0.711-0.145-1.404,0.314-1.549,1.024c-0.145,0.711,0.314,1.404,1.025,1.549C193.189,104.774,193.883,104.316,194.027,103.605z
					"/>
			</g>
			<g>
				<path style="opacity:0.2;fill:#FFFFFF;enable-background:new    ;" d="M264.897,183.947c0.29-1.421-0.628-2.808-2.049-3.097
					c-1.421-0.29-2.808,0.628-3.097,2.049c-0.289,1.421,0.628,2.808,2.049,3.097C263.221,186.285,264.608,185.368,264.897,183.947z"
					/>
				<path style="opacity:0.2;fill:#FFFFFF;enable-background:new    ;" d="M263.611,183.685c0.145-0.71-0.314-1.404-1.024-1.549
					c-0.711-0.145-1.404,0.314-1.549,1.025c-0.145,0.711,0.314,1.404,1.025,1.549C262.772,184.854,263.466,184.395,263.611,183.685z
					"/>
			</g>
			<g>
				<path style="opacity:0.2;fill:#FFFFFF;enable-background:new    ;" d="M327.637,137.137c0.175-0.861-0.38-1.701-1.241-1.877
					c-0.861-0.175-1.702,0.38-1.877,1.242c-0.175,0.861,0.38,1.702,1.242,1.877S327.461,137.998,327.637,137.137z"/>
				<path style="opacity:0.2;fill:#FFFFFF;enable-background:new    ;" d="M326.857,136.978c0.088-0.431-0.19-0.851-0.621-0.938
					c-0.431-0.088-0.851,0.19-0.939,0.621c-0.088,0.431,0.19,0.851,0.621,0.939C326.349,137.686,326.769,137.408,326.857,136.978z"
					/>
			</g>
			<g>
				<path style="opacity:0.2;fill:#FFFFFF;enable-background:new    ;" d="M262.443,89.248c0.176-0.861-0.38-1.701-1.242-1.877
					c-0.861-0.175-1.701,0.38-1.877,1.242c-0.176,0.861,0.38,1.701,1.241,1.877C261.427,90.665,262.267,90.109,262.443,89.248z"/>
				<path style="opacity:0.2;fill:#FFFFFF;enable-background:new    ;" d="M261.663,89.089c0.088-0.431-0.19-0.851-0.621-0.938
					c-0.431-0.088-0.851,0.19-0.938,0.621c-0.088,0.431,0.19,0.851,0.621,0.938C261.155,89.797,261.575,89.519,261.663,89.089z"/>
			</g>
			<g>
				<path style="opacity:0.2;fill:#FFFFFF;enable-background:new    ;" d="M146.842,133.008c0.175-0.861-0.38-1.701-1.242-1.877
					s-1.701,0.38-1.877,1.241c-0.175,0.861,0.38,1.701,1.242,1.877C145.826,134.424,146.666,133.869,146.842,133.008z"/>
				<path style="opacity:0.2;fill:#FFFFFF;enable-background:new    ;" d="M146.062,132.849c0.088-0.431-0.19-0.851-0.621-0.938
					c-0.43-0.088-0.851,0.19-0.938,0.621c-0.088,0.431,0.19,0.851,0.621,0.938C145.554,133.557,145.974,133.279,146.062,132.849z"/>
			</g>
			<g>
				<path style="opacity:0.2;fill:#FFFFFF;enable-background:new    ;" d="M312.418,188.43c0.176-0.861-0.38-1.702-1.242-1.877
					c-0.861-0.175-1.701,0.38-1.877,1.242c-0.176,0.861,0.38,1.701,1.242,1.877C311.402,189.847,312.242,189.292,312.418,188.43z"/>
				<path style="opacity:0.2;fill:#FFFFFF;enable-background:new    ;" d="M311.638,188.271c0.088-0.43-0.19-0.851-0.621-0.938
					c-0.431-0.088-0.851,0.19-0.939,0.621c-0.088,0.43,0.19,0.851,0.621,0.938C311.13,188.98,311.551,188.702,311.638,188.271z"/>
			</g>
			<g>
				<path style="opacity:0.2;fill:#FFFFFF;enable-background:new    ;" d="M161.252,199.915c0.176-0.861-0.38-1.701-1.242-1.877
					s-1.701,0.38-1.877,1.242s0.38,1.701,1.242,1.877C160.236,201.332,161.077,200.776,161.252,199.915z"/>
				<path style="opacity:0.2;fill:#FFFFFF;enable-background:new    ;" d="M160.472,199.756c0.088-0.431-0.19-0.851-0.621-0.938
					c-0.431-0.088-0.851,0.19-0.938,0.621c-0.088,0.431,0.19,0.851,0.621,0.938C159.964,200.465,160.385,200.187,160.472,199.756z"
					/>
			</g>
		</g>
		<g>
			<path style="fill:#263238;" d="M177.421,215.14c-2.417-2.284-9.618-3.383-12.724,2.127c-3.107,5.51,4.768,9.946,9.363,6.855
				C178.655,221.03,179.074,216.703,177.421,215.14z"/>
			<path style="fill:#263238;" d="M179.667,225.752c-1.793-2.017-8.016-0.956-4.243,3.425
				C179.197,233.56,181.923,228.289,179.667,225.752z"/>
			<path style="fill:#263238;" d="M185.391,228.139c-0.809-0.91-3.616-0.432-1.914,1.545
				C185.179,231.661,186.409,229.283,185.391,228.139z"/>
			<path style="opacity:0.1;fill:#FFFFFF;enable-background:new    ;" d="M177.421,215.14c-2.417-2.284-9.618-3.383-12.724,2.127
				c-3.107,5.51,4.768,9.946,9.363,6.855C178.655,221.03,179.074,216.703,177.421,215.14z"/>
			<path style="opacity:0.2;fill:#FFFFFF;enable-background:new    ;" d="M179.667,225.752c-1.793-2.017-8.016-0.956-4.243,3.425
				C179.197,233.56,181.923,228.289,179.667,225.752z"/>
			<path style="opacity:0.3;fill:#FFFFFF;enable-background:new    ;" d="M185.391,228.139c-0.809-0.91-3.616-0.432-1.914,1.545
				C185.179,231.661,186.409,229.283,185.391,228.139z"/>
		</g>
		<g>
			<path style="fill:#407BFF;" d="M324.684,168.795c-1.638-1.802-2.86-3.943-3.509-6.367c-2.531-9.459,4.52-19.563,15.749-22.568
				c11.229-3.005,22.384,2.226,24.915,11.685c0.649,2.424,0.66,4.89,0.14,7.269L324.684,168.795z"/>
			<path style="opacity:0.4;fill:#FFFFFF;enable-background:new    ;" d="M324.684,168.795c-1.638-1.802-2.86-3.943-3.509-6.367
				c-2.531-9.459,4.52-19.563,15.749-22.568c11.229-3.005,22.384,2.226,24.915,11.685c0.649,2.424,0.66,4.89,0.14,7.269
				L324.684,168.795z"/>
			<path style="fill:#407BFF;" d="M296.542,173.462c0.127,0.474,0.407,0.907,0.833,1.271c4.457,3.978,24.662,2.531,47.895-3.687
				c23.247-6.221,41.474-15.06,43.334-20.728c0.187-0.528,0.214-1.044,0.087-1.518c-1.467-5.48-23.282-4.409-48.732,2.402
				C314.523,158.01,295.075,167.982,296.542,173.462z"/>
			<path style="opacity:0.2;enable-background:new    ;" d="M297.375,174.733c4.457,3.978,24.662,2.531,47.895-3.687
				c23.247-6.221,41.474-15.06,43.334-20.728c-4.443-3.981-24.652-2.548-47.899,3.673
				C317.473,160.209,299.249,169.061,297.375,174.733z"/>
			<path style="fill:#407BFF;" d="M328.243,170.074c0.045,0.167,0.142,0.306,0.28,0.433c1.514,1.358,8.376,0.867,16.269-1.246
				c7.893-2.112,14.083-5.114,14.717-7.047c0.057-0.18,0.071-0.348,0.027-0.515c-0.164-0.614-1.088-0.994-2.557-1.124
				c-2.974-0.28-8.201,0.402-13.988,1.95c-5.787,1.549-10.656,3.569-13.093,5.297C328.689,168.669,328.079,169.46,328.243,170.074z"
				/>
			<path style="opacity:0.4;fill:#FFFFFF;enable-background:new    ;" d="M329.898,167.823c2.978,0.294,8.205-0.387,13.992-1.936
				c5.787-1.549,10.656-3.569,13.089-5.311c-2.974-0.28-8.201,0.402-13.988,1.95C337.203,164.074,332.334,166.095,329.898,167.823z"
				/>
			<path style="fill:#407BFF;" d="M337.504,159.009c0.245,0.914,1.956,1.25,3.822,0.751c1.866-0.499,3.181-1.645,2.936-2.559
				c-0.245-0.914-1.956-1.25-3.822-0.751C338.574,156.949,337.259,158.095,337.504,159.009z"/>
			<path style="fill:#407BFF;" d="M319.784,165.525c0.245,0.914,1.956,1.25,3.822,0.751c1.866-0.499,3.181-1.645,2.936-2.559
				c-0.245-0.914-1.956-1.25-3.822-0.751C320.854,163.465,319.539,164.611,319.784,165.525z"/>
			<path style="fill:#407BFF;" d="M308.65,173.517c0.245,0.914,1.956,1.25,3.822,0.751c1.866-0.499,3.181-1.645,2.936-2.559
				c-0.245-0.914-1.956-1.25-3.822-0.751C309.72,171.457,308.405,172.603,308.65,173.517z"/>
			<path style="fill:#407BFF;" d="M362.304,153.412c0.245,0.914-1.07,2.06-2.936,2.559c-1.866,0.499-3.577,0.163-3.822-0.751
				c-0.245-0.914,1.07-2.06,2.936-2.559C360.348,152.162,362.059,152.498,362.304,153.412z"/>
			<path style="fill:#407BFF;" d="M375.942,154.775c0.245,0.914-1.07,2.06-2.936,2.559c-1.866,0.499-3.577,0.163-3.822-0.751
				c-0.245-0.914,1.07-2.06,2.936-2.559C373.986,153.525,375.697,153.861,375.942,154.775z"/>
			<g>
				<path style="fill:#FFFFFF;" d="M331.162,144.95c0.061-0.016,0.121-0.044,0.176-0.084c1.297-0.932,2.708-1.708,4.195-2.305
					c0.277-0.111,0.412-0.426,0.3-0.704c-0.111-0.277-0.422-0.42-0.704-0.3c-1.567,0.63-3.055,1.447-4.423,2.431
					c-0.242,0.174-0.298,0.512-0.123,0.755C330.718,144.931,330.951,145.006,331.162,144.95z"/>
			</g>
			<g>
				<path style="fill:#FFFFFF;" d="M355.158,145.386c0.104-0.028,0.199-0.086,0.274-0.175c0.192-0.229,0.162-0.57-0.067-0.763
					c-4.489-3.768-10.777-5.241-16.819-3.939c-0.278,0.058-0.479,0.351-0.415,0.643c0.063,0.293,0.351,0.478,0.643,0.415
					c5.718-1.232,11.66,0.155,15.895,3.71C354.809,145.396,354.993,145.43,355.158,145.386z"/>
			</g>
		</g>
		<g>
			<path style="fill:#407BFF;" d="M131.398,113.358c0,0-2.587-11.427-3.724-12.034c-1.137-0.607-7.437,10.504-7.437,10.504
				s-10.852-0.644-11.825,0.118c-0.973,0.761,7.14,9.031,7.14,9.031s-5.622,10.574-5.043,11.462
				c0.579,0.887,13.781-4.488,13.781-4.488s8.861,8.427,9.906,8.246s-1.482-13.218-1.482-13.218s10.335-5.145,10.182-6.135
				S131.398,113.358,131.398,113.358z"/>
			<polygon style="opacity:0.2;fill:#FFFFFF;enable-background:new    ;" points="139.822,116.612 125.537,117.617 127.336,102.777 
				130.798,113.571 			"/>
			<path style="opacity:0.2;fill:#FFFFFF;enable-background:new    ;" d="M109.982,112.712l15.555,4.904l-5.288-5.109
				C120.249,112.507,110.82,111.712,109.982,112.712z"/>
			<polygon style="opacity:0.2;fill:#FFFFFF;enable-background:new    ;" points="125.537,117.617 133.909,135.031 131.497,122.728 
							"/>
			<polygon style="opacity:0.2;enable-background:new    ;" points="124.831,118.356 112.077,131.571 123.676,126.792 			"/>
			<path style="opacity:0.2;enable-background:new    ;" d="M116.698,120.398l7.561-2.448l-14.277-5.238
				C109.982,112.712,113.01,117.835,116.698,120.398z"/>
		</g>
		<g>
			<path style="fill:#407BFF;" d="M337.737,204.359c0,0-0.316-5.436-0.791-5.8c-0.475-0.365-4.209,4.249-4.209,4.249
				s-4.926-1.121-5.43-0.846c-0.504,0.275,2.585,4.684,2.585,4.684s-3.382,4.419-3.185,4.87c0.198,0.451,6.66-1.008,6.66-1.008
				s3.421,4.538,3.913,4.535c0.492-0.003,0.327-6.173,0.327-6.173s5.13-1.571,5.135-2.037
				C342.749,206.366,337.737,204.359,337.737,204.359z"/>
			<polygon style="opacity:0.2;fill:#FFFFFF;enable-background:new    ;" points="341.352,206.492 334.726,205.865 336.681,199.199 
				337.446,204.411 			"/>
			<path style="opacity:0.2;fill:#FFFFFF;enable-background:new    ;" d="M327.969,202.432l6.758,3.433l-2.035-2.745
				C332.691,203.12,328.429,202.038,327.969,202.432z"/>
			<polygon style="opacity:0.2;fill:#FFFFFF;enable-background:new    ;" points="334.726,205.865 337.238,214.486 337.069,208.662 
							"/>
			<polygon style="opacity:0.2;enable-background:new    ;" points="334.346,206.15 327.493,211.237 333.174,209.93 			"/>
			<path style="opacity:0.2;enable-background:new    ;" d="M330.462,206.467l3.652-0.546l-6.146-3.489
				C327.969,202.432,328.967,205.011,330.462,206.467z"/>
		</g>
		<g>
			
				<ellipse transform="matrix(0.6529 -0.7575 0.7575 0.6529 -81.5725 183.3491)" style="fill:#407BFF;" cx="159.261" cy="180.676" rx="10.375" ry="10.375"/>
			<path style="opacity:0.2;fill:#FFFFFF;enable-background:new    ;" d="M152.7,177.986c0.294,3.969,3.75,6.948,7.72,6.654
				c3.969-0.294,6.948-3.751,6.654-7.72c-0.294-3.969-3.751-6.948-7.72-6.654C155.385,170.561,152.406,174.017,152.7,177.986z"/>
		</g>
	</g>
</g>
<g id="Character_2">
	<g id="_x3C_Group_x3E__7_">
		<g>
			<path style="fill:#407BFF;" d="M252.003,129.114l-3.941,5.241c0,0,6.296,21.407,0.896,31.845
				c-5.4,10.438-43.649,2.974-43.649,2.974l0.216-5.844c0,0,22.212-0.922,24.333-5.78c2.122-4.858-2.878-20.592-2.878-20.592
				s-18.456,7.084-31.127,6.54c-12.672-0.545-32.386-21.78-32.386-21.78l3.993-4.492c0,0,27.451,10.03,30.592,8.835
				c3.141-1.195,29.259-18.302,35.747-18.241C240.289,107.88,252.003,129.114,252.003,129.114z"/>
			<path style="opacity:0.7;fill:#FFFFFF;enable-background:new    ;" d="M163.471,121.716c0,0,19.71,21.24,32.379,21.784
				c12.677,0.545,31.135-6.544,31.135-6.544s1.94,6.107,2.893,11.886c0.567,3.501,0.78,6.874-0.018,8.705
				c-2.124,4.858-24.336,5.785-24.336,5.785l-0.213,5.839c0,0,38.251,7.468,43.65-2.971c5.399-10.439-0.899-31.85-0.899-31.85
				l3.941-5.235c0,0-11.525-20.898-18.045-21.285c-0.051-0.01-0.104-0.011-0.156-0.012c-6.494-0.055-32.607,17.052-35.743,18.245
				c-2.386,0.912-18.721-4.631-26.494-7.371c-2.486-0.879-4.101-1.468-4.101-1.468L163.471,121.716z"/>
		</g>
		<path style="opacity:0.2;enable-background:new    ;" d="M226.982,136.956c0,0,1.942,6.109,2.892,11.887
			c3.897-5.201,7.215-12.212,7.215-12.212L226.982,136.956z"/>
		<path style="opacity:0.2;enable-background:new    ;" d="M231.257,108.304c1.018-0.313,1.887-0.491,2.545-0.486
			c0.053,0.001,0.105,0.003,0.156,0.012l2.796,4.155c0,0-1.721,0.315-4.313,1.125C232.143,111.482,231.764,109.868,231.257,108.304z
			"/>
		<path style="opacity:0.2;enable-background:new    ;" d="M225.716,110.579c1.667-0.794,3.209-1.465,4.541-1.942
			c0.505,1.563,0.882,3.174,1.176,4.799c-1.414,0.473-3.026,1.083-4.722,1.845C226.359,113.72,226.048,112.147,225.716,110.579z"/>
		<path style="opacity:0.2;enable-background:new    ;" d="M219.585,119.323c-0.314-1.682-0.66-3.358-1.025-5.03
			c2.137-1.176,4.237-2.287,6.189-3.245c0.329,1.565,0.64,3.134,0.993,4.693C223.72,116.703,221.612,117.883,219.585,119.323z"/>
		<path style="opacity:0.2;enable-background:new    ;" d="M207.861,120.447c1.416-0.837,2.911-1.717,4.45-2.611
			c0.063,2.203,0.047,4.41,0.139,6.612c-1.477,0.891-2.948,1.663-4.38,2.337C207.926,124.669,207.748,122.553,207.861,120.447z"/>
		<path style="opacity:0.2;enable-background:new    ;" d="M203.276,128.246c0.096-1.634,0.126-3.338-0.217-4.956
			c1.129-0.665,2.379-1.408,3.739-2.213c-0.042,2.051,0.15,4.107,0.28,6.163c-1.339,0.594-2.624,1.087-3.84,1.503
			C203.249,128.577,203.266,128.412,203.276,128.246z"/>
		<path style="opacity:0.2;enable-background:new    ;" d="M198.323,125.95c0.708-0.325,2.041-1.081,3.781-2.099
			c0.268,1.494,0.216,3.071,0.116,4.558c-0.016,0.231-0.04,0.462-0.059,0.693c-1.699,0.534-3.207,0.888-4.43,1.089
			C197.911,128.775,198.105,127.361,198.323,125.95z"/>
		<path style="opacity:0.2;enable-background:new    ;" d="M187.338,123.896c1.79,0.534,3.494,1.012,5.003,1.39
			c-0.23,1.321-0.583,2.623-1.021,3.894c-1.53-0.538-3.285-1.219-5.109-1.962C186.583,126.11,186.936,124.994,187.338,123.896z"/>
		<path style="opacity:0.2;enable-background:new    ;" d="M174.88,122.304c-2.486-1.128-4.158-1.913-4.158-1.913l0.844-1.699
			c1.248,0.44,2.72,0.953,4.317,1.499C175.561,120.898,175.225,121.603,174.88,122.304z"/>
		<path style="opacity:0.2;enable-background:new    ;" d="M176.884,120.532c1.179,0.4,2.413,0.813,3.668,1.226
			c-0.563,0.762-1.068,1.567-1.522,2.404c-1.132-0.499-2.209-0.98-3.191-1.423C176.2,122.006,176.55,121.271,176.884,120.532z"/>
		<path style="opacity:0.2;enable-background:new    ;" d="M181.606,122.1c1.581,0.514,3.177,1.021,4.728,1.493
			c-0.385,1.068-0.728,2.153-1.091,3.229c-1.753-0.724-3.546-1.492-5.247-2.236C180.473,123.717,181.003,122.882,181.606,122.1z"/>
		<path style="opacity:0.2;enable-background:new    ;" d="M193.351,125.531c1.644,0.382,2.993,0.616,3.872,0.628
			c-0.207,1.391-0.394,2.784-0.572,4.179c-0.218,0.022-0.425,0.038-0.613,0.047c-0.698,0.031-2.029-0.303-3.729-0.865
			C192.755,128.216,193.111,126.884,193.351,125.531z"/>
		<path style="opacity:0.2;enable-background:new    ;" d="M213.342,117.24c1.408-0.812,2.837-1.626,4.261-2.418
			c0.376,1.732,0.731,3.469,1.047,5.212c-0.309,0.235-0.623,0.455-0.926,0.703c-1.387,1.141-2.816,2.156-4.249,3.073
			C213.402,121.621,213.419,119.429,213.342,117.24z"/>
		<path style="fill:#407BFF;" d="M174.956,118.858l-6.76,9.834l-6.799-6.414c0,0-6.079,0.796-8.188,2.714s-1.276-2.457,0.951-4.996
			c2.227-2.54,5.332-7.857,7.208-8.556c1.877-0.698,4.364,3.513,4.364,3.513L174.956,118.858z"/>
		<path style="fill:#407BFF;" d="M211.704,160.253l0.864,11.902l-9.315-0.761c0,0-4.25,4.419-4.699,7.234
			c-0.449,2.815-2.531-1.122-2.378-4.496c0.153-3.374-0.744-9.466,0.285-11.184c1.029-1.718,5.602,0.018,5.602,0.018
			L211.704,160.253z"/>
		<g>
			<path style="fill:#407BFF;" d="M284.328,99.812c0,0,8.507,9.895,17.931,9.839c9.424-0.056,16.694-9.149,16.694-9.149l3.717,3.277
				c0,0-4.317,17.321-19.026,18.928c-14.71,1.607-31.228-10.727-31.228-10.727L284.328,99.812z"/>
			<path style="opacity:0.7;fill:#FFFFFF;enable-background:new    ;" d="M272.418,111.98c0,0,4.436,3.321,10.765,6.28
				c5.872,2.766,13.372,5.226,20.457,4.45c14.71-1.615,19.03-18.932,19.03-18.932l-3.714-3.272c0,0-4.36,5.446-10.702,7.923
				c-1.849,0.732-3.871,1.211-5.997,1.22c-9.424,0.057-17.934-9.831-17.934-9.831l-1.794,1.827l-5.186,5.297L272.418,111.98z"/>
		</g>
		<g>
			<path style="fill:#407BFF;" d="M319.156,101.038c0,0,2.162-2.969,1.892-3.437c-0.269-0.468-1.015-2.254-0.679-2.937
				c0.337-0.683,0.918-4.76,1.551-4.824c0.633-0.064,5.23,0.117,5.472,0.809c0.242,0.692-1.446,6.811-1.994,7.334
				c-0.548,0.523-0.98,1.196-0.98,1.196l-1.75,4.6L319.156,101.038z"/>
			<path style="opacity:0.2;enable-background:new    ;" d="M319.156,101.038c0,0,2.162-2.969,1.892-3.437
				c-0.269-0.468-1.015-2.254-0.679-2.937c0.337-0.683,0.918-4.76,1.551-4.824c0.633-0.064,5.23,0.117,5.472,0.809
				c0.242,0.692-1.446,6.811-1.994,7.334c-0.548,0.523-0.98,1.196-0.98,1.196l-1.75,4.6L319.156,101.038z"/>
		</g>
		<polygon style="fill:#407BFF;" points="323.553,103.727 318.878,99.848 316.743,100.936 322.93,105.851 		"/>
		<path style="opacity:0.2;enable-background:new    ;" d="M285.85,105.633c-0.629-0.587-1.185-1.176-1.661-1.737
			c0.031-0.062,0.058-0.127,0.09-0.189c0.419-0.811,0.929-1.628,1.583-2.285c0.375,0.366,0.815,0.779,1.307,1.217
			C286.811,103.665,286.357,104.661,285.85,105.633z"/>
		<path style="opacity:0.2;enable-background:new    ;" d="M288.688,107.824c-0.74-0.469-1.421-0.967-2.034-1.48
			c0.513-0.967,0.973-1.958,1.357-2.978c0.531,0.447,1.114,0.911,1.734,1.374C289.395,105.769,289.033,106.794,288.688,107.824z"/>
		<path style="opacity:0.2;enable-background:new    ;" d="M291.465,109.267c-0.655-0.272-1.277-0.57-1.86-0.894
			c0.33-1.001,0.68-1.997,1.024-2.994c0.59,0.413,1.22,0.813,1.867,1.201C292.199,107.489,291.81,108.374,291.465,109.267z"/>
		<path style="opacity:0.2;enable-background:new    ;" d="M294.796,110.287c-0.829-0.171-1.617-0.387-2.358-0.646
			c0.061-0.159,0.124-0.316,0.187-0.473c0.272-0.679,0.554-1.359,0.795-2.052c0.581,0.319,1.184,0.617,1.799,0.893
			C295.072,108.767,294.929,109.526,294.796,110.287z"/>
		<path style="opacity:0.2;enable-background:new    ;" d="M302.257,109.649c0.415-0.002,0.823-0.036,1.23-0.072
			c0.087,0.281,0.176,0.561,0.259,0.842c-1.072,0.221-2.337,0.36-3.827,0.361c-0.099-0.462-0.194-0.924-0.299-1.385
			C300.487,109.553,301.366,109.654,302.257,109.649z"/>
		<path style="opacity:0.2;enable-background:new    ;" d="M304.767,110.169c-0.071-0.243-0.144-0.486-0.218-0.728
			c1.29-0.206,2.535-0.549,3.705-1.012C307.595,108.983,306.487,109.678,304.767,110.169z"/>
		<path style="opacity:0.2;enable-background:new    ;" d="M298.483,109.146c0.125,0.536,0.243,1.073,0.361,1.611
			c-0.84-0.035-1.739-0.109-2.71-0.237c-0.105-0.014-0.204-0.034-0.308-0.049c0.121-0.683,0.25-1.365,0.382-2.047
			C296.948,108.714,297.71,108.948,298.483,109.146z"/>
		<path style="opacity:0.2;enable-background:new    ;" d="M284.324,99.818c0,0,0.284,0.33,0.801,0.864
			c-0.669,0.674-1.206,1.485-1.655,2.313c-0.376-0.498-0.694-0.96-0.94-1.351L284.324,99.818z"/>
		<path style="opacity:0.2;enable-background:new    ;" d="M272.415,111.982c0,0,4.439,3.315,10.769,6.283
			c-2.909-4.78-5.839-11.321-5.839-11.321L272.415,111.982z"/>
		<path style="fill:#407BFF;" d="M258.224,124.065l-6.221,5.049c0,0-15.462-9.792-18.383-20.348l4.115-3.957L258.224,124.065z"/>
		<g>
			<path style="fill:#407BFF;" d="M283.038,103.162c0,0-15.164,20.003-24.332,22.094c-6.994,1.595-17.344-11.159-21.859-17.298
				c-1.344-1.827-1.153-4.356,0.448-5.963c5.983-6.004,20.703-19.726,31.42-20.992L283.038,103.162z"/>
			<path style="opacity:0.7;fill:#FFFFFF;enable-background:new    ;" d="M236.852,107.958c4.508,6.138,14.861,18.889,21.853,17.303
				c9.169-2.097,24.339-22.099,24.339-22.099l-12.964-20.053l-1.363-2.102l0.002-0.008l-0.009-0.002
				c-1.055,0.125-2.141,0.368-3.257,0.72c-2.454,0.758-5.027,2.005-7.619,3.538c-1.978,1.175-3.952,2.518-5.87,3.933
				c-1.557,1.14-3.073,2.341-4.525,3.537c-4.195,3.467-7.829,6.953-10.147,9.271C235.697,103.604,235.498,106.131,236.852,107.958z"
				/>
		</g>
		
			<ellipse transform="matrix(0.6267 -0.7793 0.7793 0.6267 42.0595 255.22)" style="fill:#407BFF;" cx="287.393" cy="83.714" rx="16.387" ry="16.387"/>
		
			<ellipse transform="matrix(0.6267 -0.7793 0.7793 0.6267 42.0595 255.22)" style="opacity:0.4;fill:#FFFFFF;enable-background:new    ;" cx="287.393" cy="83.714" rx="16.387" ry="16.387"/>
		<path style="fill:#EBB376;" d="M273.658,89.481c-0.448,2.937,3.148,7.015,3.148,7.015s2.627,2.291,3.111,1.122
			c-0.823-1.831-0.584-3.141,0.182-4.125c0.447-0.572,1.073-1.03,1.773-1.419c0.365-0.208,0.754-0.39,1.144-0.56l0.423-8.275
			C281.211,85.767,276.814,89.969,273.658,89.481z"/>
		<path style="opacity:0.2;enable-background:new    ;" d="M281.554,85.887c-3.379,2.148-2.771,5.558-2.197,7.075
			c0.494-0.532,1.158-0.934,1.888-1.261L281.554,85.887z"/>
		<g>
			<path style="fill:#263238;" d="M295.419,80.692c0,0-0.584,6.263-4.364,7.787c-3.78,1.524-0.986-9.71-0.986-9.71L295.419,80.692z"
				/>
			<path style="fill:#EBB376;" d="M280.563,90.962c0.999,2.62,3.388,3.836,5.761,3.687c1.526-0.094,3.045-0.757,4.187-1.969
				c0.152-0.157,0.295-0.329,0.434-0.507c2.494-3.296,4.6-9.622,1.302-13.009c-2.335-2.432-6.207-2.514-8.64-0.174
				c-0.697,0.661-1.221,1.483-1.541,2.391C280.513,85.573,279.404,87.965,280.563,90.962z"/>
			<path style="fill:#A24E3F;" d="M290.277,86.538c-0.05,1.193,0.066,2.388,0.343,3.55c-0.609,0.128-1.243-0.019-1.733-0.403
				L290.277,86.538z"/>
			<path style="fill:#263238;" d="M287.143,83.515c0.068,0.042,0.153,0.045,0.223,0.007c0.468-0.276,1.039-0.316,1.54-0.107
				c0.104,0.055,0.232,0.015,0.287-0.089c0.055-0.104,0.015-0.232-0.089-0.287c0,0-0.001,0-0.001,0
				c-0.627-0.281-1.352-0.24-1.943,0.109c-0.104,0.054-0.144,0.183-0.09,0.286c0.001,0.002,0.002,0.003,0.002,0.005
				C287.092,83.468,287.116,83.494,287.143,83.515z"/>
			<path style="fill:#263238;" d="M293.735,86.309c0.03,0.031,0.069,0.051,0.112,0.059c0.117-0.003,0.21-0.1,0.207-0.217
				c0-0.002,0-0.003,0-0.005c-0.011-0.689-0.357-1.33-0.927-1.717c-0.101-0.06-0.231-0.027-0.291,0.074l0,0
				c-0.057,0.102-0.025,0.23,0.074,0.292l0,0c0.441,0.319,0.706,0.828,0.713,1.372C293.637,86.228,293.678,86.28,293.735,86.309z"/>
			<path style="fill:#263238;" d="M287.307,77.589l-0.479,1.926c-0.727,0.091-1.351,0.632-1.35,1.464
				c0.002,1.775-1.794,3.84-3.348,4.343c0,0,0.22-0.685-0.407-0.742c-0.627-0.057-1.806,3.494-1.339,5.582
				c0,0-1.093-2.145-0.634-6.171c0.425-3.724,1.397-6.591,2.595-7.636L287.307,77.589z"/>
			<path style="fill:#263238;" d="M285.793,79.097c0,0,2.024,3.463,4.612,3.486c0,0-1.356-0.577-1.913-1.859
				c0,0,3.307,3.203,4.873,2.805s2.04,1.237,3.41,0.434c1.37-0.804,0.373-3.813,0.373-3.813s0.928,0.035,0.328-1.619
				c-0.6-1.653-1.311-1.732-2.146-2.232c-0.835-0.501,0.395-2.174-0.908-3.487c-1.303-1.313-6.237-3.128-7.228,0.195
				c0,0-2.055-1.921-4.414,0.205c-1.158,1.044-0.418,1.901-0.418,1.901s-1.466-0.889-3.399,1.514
				c-1.934,2.403-0.724,5.84-0.724,5.84s-0.899-0.029-0.226,2.068c0.673,2.097,2.076,2.775,2.076,2.775
				S281.243,80.318,285.793,79.097z"/>
			<path style="fill:#EBB376;" d="M278.806,83.954c0.048,1.125,0.541,2.185,1.37,2.948c1.105,1.002,2.323,0.173,2.577-1.217
				c0.214-1.238-0.08-3.286-1.465-3.744C279.901,81.482,278.764,82.572,278.806,83.954z"/>
			<path style="fill:none;stroke:#263238;stroke-width:0.5;stroke-linecap:round;stroke-linejoin:round;stroke-miterlimit:10;" d="
				M294.809,76.28c0,0,2.286,0.362,2.306-1.135"/>
			<path style="fill:none;stroke:#263238;stroke-width:0.5;stroke-linecap:round;stroke-linejoin:round;stroke-miterlimit:10;" d="
				M296.254,79.642c0,0,2.11,1.129,1.585,3.449"/>
			<path style="fill:none;stroke:#263238;stroke-width:0.5;stroke-linecap:round;stroke-linejoin:round;stroke-miterlimit:10;" d="
				M282.72,75.525c0,0-1.161-1-1.009-2.439"/>
			<path style="fill:none;stroke:#263238;stroke-width:0.5;stroke-linecap:round;stroke-linejoin:round;stroke-miterlimit:10;" d="
				M282.363,75.113c0,0-4.266-0.469-5.101,4.02"/>
			<path style="fill:#263238;" d="M287.552,85.016c-0.156,0.326-0.065,0.682,0.16,0.77c0.225,0.088,0.509-0.119,0.644-0.455
				c0.135-0.336,0.06-0.684-0.16-0.77C287.977,84.474,287.69,84.674,287.552,85.016z"/>
			<path style="fill:#263238;" d="M291.379,86.527c-0.156,0.326-0.06,0.684,0.16,0.77c0.22,0.086,0.509-0.119,0.644-0.456
				c0.135-0.336,0.06-0.684-0.16-0.77C291.803,85.986,291.507,86.207,291.379,86.527z"/>
			<g>
				<path style="fill:#263238;" d="M288.095,90.789c-0.465,0.38-1.137,1.189-1.137,1.189c-0.085-0.048-0.169-0.095-0.25-0.147
					c-1.128-0.675-1.428-1.361-1.418-1.916c0.006-0.304,0.109-0.57,0.22-0.772c0.125-0.234,0.267-0.373,0.267-0.373
					c0.384,0.715,1.386,1.426,1.938,1.783C287.943,90.705,288.095,90.789,288.095,90.789z"/>
				<path style="fill:#FFFFFF;" d="M287.714,90.553l-0.345,0.342c-1.06-0.639-1.721-1.231-1.861-1.752
					c0.125-0.234,0.267-0.373,0.267-0.373C286.16,89.485,287.162,90.196,287.714,90.553z"/>
				<path style="fill:#DE5753;" d="M286.707,91.831c-1.128-0.675-1.428-1.361-1.418-1.916c0.375,0.245,0.801,0.582,1.103,0.998
					C286.625,91.23,286.699,91.549,286.707,91.831z"/>
			</g>
		</g>
		<path style="fill:none;stroke:#FFFFFF;stroke-linecap:round;stroke-linejoin:round;stroke-miterlimit:10;" d="M294.634,71.161
			c0,0,6.618,4.049,6.528,11.434c-0.09,7.385-4.408,12.154-8.487,13.401"/>
		<path style="fill:none;stroke:#FFFFFF;stroke-linecap:round;stroke-linejoin:round;stroke-miterlimit:10;" d="M292.294,70.155
			c0,0-2.005-0.942-3.458-1.107"/>
		<path style="fill:#407BFF;" d="M271.295,80.649c0,0,0.901,11.831,13.033,19.163l-1.289,3.35c0,0-13.874-5.951-14.323-22.159
			L271.295,80.649z"/>
		<g>
			<path style="opacity:0.2;enable-background:new    ;" d="M275.486,107.951c0,0-9.423-7.917-9.737-8.623
				c-0.314-0.705-9.671,7.076-9.507,7.555c0.164,0.479,8.48,9.609,10.355,9.966S276.1,108.497,275.486,107.951z"/>
			<path style="fill:#FFFFFF;enable-background:new    ;" d="M275.56,108.809c0,0-8.672-7.287-8.961-7.936
				c-0.289-0.649-8.9,6.512-8.75,6.953c0.151,0.441,7.805,8.844,9.53,9.172C269.104,117.327,276.125,109.312,275.56,108.809z"/>
		</g>
		<g>
			<path style="fill:#263238;" d="M264.806,104.808c-0.148,0.777,0.362,1.526,1.139,1.674c0.777,0.148,1.526-0.362,1.674-1.139
				c0.148-0.777-0.362-1.526-1.139-1.674C265.703,103.521,264.954,104.031,264.806,104.808z"/>
			<path style="opacity:0.2;fill:#FFFFFF;enable-background:new    ;" d="M265.428,104.926c-0.115,0.605,0.282,1.188,0.887,1.304
				c0.605,0.115,1.188-0.282,1.303-0.887c0.115-0.605-0.282-1.188-0.887-1.303C266.127,103.925,265.544,104.322,265.428,104.926z"/>
		</g>
		<g>
			<path style="fill:#407BFF;" d="M261.202,108.425c-0.148,0.777,0.362,1.526,1.139,1.674c0.777,0.148,1.526-0.362,1.674-1.139
				c0.148-0.777-0.362-1.526-1.139-1.674C262.099,107.139,261.35,107.649,261.202,108.425z"/>
			<path style="opacity:0.2;enable-background:new    ;" d="M261.825,108.544c-0.115,0.605,0.282,1.188,0.887,1.304
				c0.605,0.115,1.188-0.282,1.304-0.887c0.115-0.605-0.282-1.188-0.887-1.303C262.524,107.542,261.94,107.939,261.825,108.544z"/>
		</g>
		<g>
			<path style="fill:#263238;" d="M271.155,109.715c-0.148,0.777,0.362,1.526,1.139,1.674c0.777,0.148,1.526-0.362,1.674-1.139
				c0.148-0.777-0.362-1.526-1.139-1.674C272.053,108.428,271.303,108.938,271.155,109.715z"/>
			<path style="opacity:0.2;fill:#FFFFFF;enable-background:new    ;" d="M271.778,109.833c-0.115,0.605,0.282,1.188,0.887,1.304
				c0.605,0.115,1.188-0.282,1.304-0.887c0.115-0.605-0.282-1.188-0.887-1.303C272.477,108.832,271.893,109.229,271.778,109.833z"/>
		</g>
		<g>
			<path style="fill:#407BFF;" d="M267.074,113.354c-0.148,0.777,0.362,1.526,1.139,1.674c0.777,0.148,1.526-0.362,1.674-1.139
				c0.148-0.777-0.362-1.526-1.139-1.674C267.972,112.067,267.222,112.577,267.074,113.354z"/>
			<path style="opacity:0.2;enable-background:new    ;" d="M267.697,113.472c-0.115,0.605,0.282,1.188,0.886,1.304
				c0.605,0.115,1.188-0.282,1.303-0.887c0.115-0.605-0.282-1.188-0.886-1.303C268.396,112.47,267.812,112.867,267.697,113.472z"/>
		</g>
		<path style="opacity:0.2;enable-background:new    ;" d="M247.437,92.723c11.79,4.137,14.152-4.58,14.152-4.58l-3.755-2.891
			C254.257,87.376,250.677,90.048,247.437,92.723z"/>
		<g>
			<path style="fill:#407BFF;" d="M217.208,77.996c0,0-3.315,1.58-3.301,2.12c0.014,0.54-0.181,2.466-0.803,2.906
				c-0.621,0.44-3.075,3.748-3.662,3.503c-0.587-0.245-4.543-2.595-4.426-3.318c0.117-0.724,4.517-5.299,5.248-5.498
				c0.731-0.199,1.431-0.584,1.431-0.584l3.73-3.211L217.208,77.996z"/>
			<path style="opacity:0.2;enable-background:new    ;" d="M217.208,77.996c0,0-3.315,1.58-3.301,2.12
				c0.014,0.54-0.181,2.466-0.803,2.906c-0.621,0.44-3.075,3.748-3.662,3.503c-0.587-0.245-4.543-2.595-4.426-3.318
				c0.117-0.724,4.517-5.299,5.248-5.498c0.731-0.199,1.431-0.584,1.431-0.584l3.73-3.211L217.208,77.996z"/>
		</g>
		<g>
			<path style="fill:#407BFF;" d="M268.715,81.004c0,0-18.768-16.79-34.938-14.262c-16.17,2.528-19.052,5.892-19.052,5.892
				l1.625,6.77c0,0,21.841-2.507,28.034,1.861c6.192,4.368,8.08,8.871,8.08,8.871S262.662,94.227,268.715,81.004z"/>
			<path style="opacity:0.7;fill:#FFFFFF;enable-background:new    ;" d="M214.729,72.632l1.62,6.769c0,0,21.843-2.505,28.036,1.865
				c4.46,3.15,6.685,6.367,7.579,7.922c0.353,0.596,0.498,0.95,0.498,0.95s8.892,3.571,14.994-6.717
				c0.438-0.728,0.857-1.538,1.261-2.413c0,0,0,0-0.007-0.01c-0.476-0.417-18.969-16.754-34.931-14.257
				c-1.063,0.168-2.055,0.331-3.005,0.503C217.245,69.691,214.729,72.632,214.729,72.632z"/>
		</g>
		<polygon style="fill:#407BFF;" points="214.925,71.588 217.334,80.514 215.352,80.136 213.482,73.282 		"/>
		<path style="opacity:0.2;enable-background:new    ;" d="M268.323,80.663c0.214,0.182,0.352,0.303,0.386,0.333l0.009,0.002
			l-0.002,0.008l1.363,2.102l-0.163,2.525c0,0-0.696-0.66-1.892-1.715C268.108,82.831,268.191,81.744,268.323,80.663z"/>
		<path style="opacity:0.2;enable-background:new    ;" d="M264.767,77.847c1.062,0.79,1.946,1.487,2.6,2.021
			c-0.152,1.06-0.244,2.127-0.326,3.195c-0.485-0.419-1.007-0.865-1.589-1.347c-0.524-0.439-1.094-0.906-1.684-1.384
			C264.068,79.49,264.4,78.66,264.767,77.847z"/>
		<path style="opacity:0.2;enable-background:new    ;" d="M260.709,75.018c1.168,0.762,2.241,1.506,3.193,2.194
			c-0.366,0.793-0.697,1.604-0.998,2.427c-0.977-0.775-2.027-1.58-3.12-2.385C260.074,76.501,260.379,75.754,260.709,75.018z"/>
		<path style="opacity:0.2;enable-background:new    ;" d="M256.778,72.624c1.061,0.602,2.08,1.213,3.037,1.819
			c-0.323,0.715-0.624,1.441-0.909,2.173c-0.948-0.683-1.927-1.359-2.921-2.013C256.217,73.926,256.474,73.263,256.778,72.624z"/>
		<path style="opacity:0.2;enable-background:new    ;" d="M253.393,70.834c0.849,0.416,1.678,0.848,2.482,1.287
			c-0.293,0.62-0.542,1.261-0.77,1.913c-0.791-0.504-1.589-0.98-2.387-1.439C252.927,72.001,253.15,71.413,253.393,70.834z"/>
		<path style="opacity:0.2;enable-background:new    ;" d="M249.584,69.147c0.971,0.386,1.926,0.799,2.859,1.235
			c-0.233,0.555-0.448,1.118-0.648,1.688c-0.95-0.52-1.896-0.99-2.828-1.41C249.196,70.165,249.399,69.66,249.584,69.147z"/>
		<path style="opacity:0.2;enable-background:new    ;" d="M244.39,67.455c1.425,0.362,2.836,0.802,4.216,1.316
			c-0.177,0.501-0.376,0.993-0.599,1.476c-1.469-0.601-2.888-1.035-4.218-1.253C243.99,68.481,244.191,67.968,244.39,67.455z"/>
		<path style="opacity:0.2;enable-background:new    ;" d="M234.52,66.645c1.27-0.151,2.552-0.191,3.839-0.13
			c-0.18,0.672-0.358,1.344-0.535,2.016c-1.563-0.083-2.771-0.122-3.715-0.136C234.251,67.813,234.391,67.23,234.52,66.645z"/>
		<path style="opacity:0.2;enable-background:new    ;" d="M239.425,66.59c1.315,0.117,2.632,0.325,3.938,0.615
			c-0.214,0.55-0.43,1.101-0.644,1.651c-1.444-0.111-2.71-0.197-3.827-0.264C239.068,67.924,239.245,67.256,239.425,66.59z"/>
	</g>
</g>
<g id="Character_shadow">
	<g>
		<path style="opacity:0.2;enable-background:new    ;" d="M160.945,350.43l0.08,0.6c0,0-0.26,7.14,1.58,10.25
			c0.38,0.64,1.72,0.77,3.6,0.57c7.34-0.79,22.98-6.53,22.98-6.53s28.58,15.19,137.35,0c0,0,22.01,24.37,24.64,23.58
			c2.18-0.65,19.62-21.66,25.65-28.98l-194.956-5.877l-15.664-1.464l-6.14,0.72L160.945,350.43z"/>
	</g>
</g>
<g id="Cushions">
	<g>
		<path style="fill:#FFFFFF;" d="M313.415,339.14c2.69,3.82,52.82,18.81,59.19,15.78c6.27-2.98,29.86-49.28,27.26-54.92l-0.16-0.25
			c-4.26-5.09-53.18-21.49-55.07-21.54c-1.15,0-12.84,20.05-21.62,37.19C316.986,327.17,312.315,337.58,313.415,339.14z"/>
		<path style="opacity:0.1;enable-background:new    ;" d="M313.415,339.14c2.69,3.82,52.82,18.81,59.19,15.78
			c6.27-2.98,29.86-49.28,27.26-54.92l-0.16-0.25c0,0-14.7,9.24-22.25,18.09c-7.55,8.84-10.19,19.15-10.19,19.15l-24.98,0.42
			c0,0-10.47-15.16-19.27-22.01C316.986,327.17,312.315,337.58,313.415,339.14z"/>
	</g>
	<g>
		<path style="fill:#FFFFFF;" d="M168.405,352.76c2.83,1.49,38.98-14.94,42.43-18.66c3.46-3.73-0.62-9-0.62-9
			s-5.25-12.02-10.46-23.77c-4.2-9.47-8.38-18.75-9.77-21.42c-3.11-5.98-41.12,5.61-47.96,6.59c-0.72,0.1-1.14,0.84-1.3,2.09
			C139.405,299.22,157.025,346.76,168.405,352.76z"/>
		<path style="opacity:0.1;enable-background:new    ;" d="M168.405,352.76c2.83,1.49,38.98-14.94,42.43-18.66
			c3.46-3.73-0.62-9-0.62-9s-5.25-12.02-10.46-23.77c-18.55-3.31-40.84-5.84-40.83,1.1c0,11.87,13.44,42.66,13.44,42.66
			c-1.58,3.63-5.01,2.34-5.01,2.34s-5.54-20.48-10.76-34.99c-5.22-14.51-14.57-25.94-14.57-25.94l-1.3,2.09
			C139.405,299.22,157.025,346.76,168.405,352.76z"/>
	</g>
</g>
<g id="Character_1">
	<g id="_x3C_Group_x3E__2_">
		<path style="fill:#EBB376;" d="M219.632,272.523c0,0-5.302,3.085-7.328,5.235c-2.027,2.151-4.469,12.704-5.396,15.451
			c-0.927,2.747,7.128,7.258,8.71,7.258c1.582,0,3.654-13.611,3.706-15.589s-1.44-3.906-1.44-3.906l6.093-4.401L219.632,272.523z"/>
		<g>
			<path style="fill:#407BFF;" d="M203.862,248.271c0,0,43.881-7.923,45.781,5.442c1.9,13.365-27.992,27.903-27.992,27.903
				l-7.762-6.195c0,0,17.566-12.612,16.9-15.489c-0.666-2.877-27.566,5.517-27.566,5.517L203.862,248.271z"/>
			<path style="opacity:0.2;enable-background:new    ;" d="M215.445,274.28c-0.97,0.71-1.56,1.14-1.56,1.14l0.09,0.07l7.68,6.13
				c0,0,29.89-14.54,27.99-27.91c-0.75-5.27-8.04-7.23-16.58-7.67c-13.11-0.67-29.2,2.23-29.2,2.23l-0.64,17.18
				c0,0,16.95-5.29,24.27-6.03c1.9-0.2,3.15-0.08,3.29,0.51C231.335,262.28,219.736,271.11,215.445,274.28z"/>
			<path style="opacity:0.2;enable-background:new    ;" d="M203.225,265.45c0,0,16.95-5.29,24.27-6.03
				c2.87-5.15,4.59-9.98,5.57-13.38c-13.11-0.67-29.2,2.23-29.2,2.23L203.225,265.45z"/>
		</g>
		<g>
			<polygon style="fill:#EBB376;" points="377.453,346.988 375.43,339.138 357.074,343.174 359.099,351.035 			"/>
			<path style="fill:#263238;" d="M374.241,338.283l2.458,9.538c0.085,0.321,0.38,0.541,0.712,0.53l7.391-0.253
				c0.66-0.029,1.172-0.587,1.143-1.247c-0.004-0.089-0.018-0.176-0.041-0.261c-0.845-3.073-1.614-5.272-2.612-9.147
				c-0.615-2.387-2.221-9.653-3.07-12.949c-0.849-3.296-4.216-2.887-4.168-1.461c0.241,6.392-0.413,11.418-1.652,13.803
				C374.163,337.28,374.106,337.798,374.241,338.283z"/>
			<path style="fill:#407BFF;" d="M375.19,337.463c-0.001,0.08-0.049,0.152-0.124,0.181c-0.07,0.031-0.152,0.014-0.203-0.044
				c-0.252-0.233-2.464-2.369-2.238-3.354c0.043-0.224,0.215-0.402,0.437-0.454c0.365-0.15,0.781-0.1,1.099,0.132
				c0.415,0.365,0.693,0.861,0.788,1.405C375.108,336.031,375.189,336.746,375.19,337.463z M374.792,336.991
				c0.073-0.996-0.234-1.983-0.86-2.761c-0.217-0.145-0.491-0.173-0.734-0.077c-0.147,0.049-0.202,0.127-0.189,0.176
				c-0.02,0.083-0.017,0.171,0.012,0.253C373.452,335.491,374.053,336.308,374.792,336.991z"/>
			<path style="fill:#407BFF;" d="M375.243,337.503c-0.023,0.067-0.078,0.117-0.147,0.134c-0.112,0.018-2.419,0.41-3.392-0.308
				c-0.245-0.167-0.407-0.432-0.443-0.727c-0.076-0.291,0.064-0.595,0.335-0.725c0.788-0.373,2.92,0.75,3.568,1.445l0.023,0.09
				C375.215,337.435,375.235,337.467,375.243,337.503z M371.862,337.032c0.848,0.37,1.788,0.474,2.697,0.296
				c-0.818-0.652-2.384-1.314-2.867-1.083c-0.047,0.023-0.182,0.079-0.12,0.319l0.023,0.09
				C371.635,336.808,371.73,336.942,371.862,337.032z"/>
			<polygon style="opacity:0.2;enable-background:new    ;" points="359.109,351.032 357.084,343.172 366.551,341.095 
				368.576,348.956 			"/>
			<polygon style="fill:#EBB376;" points="357.066,368.874 361.985,362.429 347.461,350.501 342.536,356.953 			"/>
			<path style="fill:#263238;" d="M361.921,360.966l-5.976,7.83c-0.2,0.265-0.19,0.633,0.023,0.887l4.769,5.651
				c0.431,0.501,1.186,0.558,1.687,0.127c0.067-0.058,0.128-0.123,0.18-0.193c1.893-2.565,3.145-4.529,5.573-7.71
				c1.496-1.96,6.213-7.715,8.278-10.42c2.065-2.706-0.339-5.098-1.43-4.179c-4.875,4.143-9.229,6.736-11.869,7.238
				C362.661,360.285,362.219,360.56,361.921,360.966z"/>
			<path style="fill:#407BFF;" d="M363.152,361.206c-0.063,0.049-0.15,0.055-0.219,0.015c-0.068-0.036-0.105-0.111-0.091-0.186
				c0.028-0.342,0.338-3.401,1.252-3.833c0.203-0.105,0.449-0.08,0.627,0.063c0.343,0.194,0.561,0.552,0.576,0.946
				c-0.03,0.552-0.248,1.077-0.617,1.488C364.228,360.255,363.716,360.761,363.152,361.206z M363.277,360.6
				c0.828-0.558,1.413-1.41,1.638-2.383c-0.021-0.26-0.168-0.493-0.393-0.624c-0.129-0.086-0.224-0.08-0.256-0.039
				c-0.078,0.035-0.145,0.093-0.191,0.166C363.627,358.619,363.357,359.597,363.277,360.6z"/>
			<path style="fill:#407BFF;" d="M363.154,361.272c-0.066,0.023-0.14,0.011-0.196-0.033c-0.084-0.077-1.818-1.647-1.855-2.856
				c-0.02-0.296,0.088-0.587,0.298-0.798c0.182-0.239,0.507-0.317,0.777-0.185c0.781,0.388,1.217,2.758,1.07,3.698l-0.056,0.074
				C363.19,361.207,363.177,361.243,363.154,361.272z M361.433,358.323c0.233,0.895,0.734,1.698,1.435,2.302
				c0.007-1.046-0.442-2.686-0.922-2.923c-0.047-0.023-0.175-0.094-0.325,0.102l-0.056,0.074
				C361.469,358.006,361.422,358.164,361.433,358.323z"/>
			<polygon style="opacity:0.2;enable-background:new    ;" points="342.544,356.96 347.469,350.507 354.955,356.662 
				350.03,363.115 			"/>
			<path style="fill:#263238;" d="M173.875,316.79l5.01,20.97c1.67,29.51,97.5,18.35,130.29,16.63c1.74-0.09,4.17-0.2,7.04-0.32
				c13.64-0.6,37.28-1.49,44.67-1.76c1.45-0.06,2.28-0.09,2.28-0.09l-0.36-13.22c-2.99,0.08-6.7,0.02-10.98-0.12
				c-1.45-0.05-2.97-0.11-4.55-0.18c-14.26-0.64-33.42-2.14-53.42-3.95c-0.56-0.05-1.11-0.1-1.67-0.15
				c-48.41-4.42-101.14-10.53-101.14-10.53L173.875,316.79z"/>
			<g>
				<polygon style="fill:#407BFF;" points="363.668,336.15 368.033,353.09 362.969,354.395 358.11,336.9 				"/>
				<polygon style="opacity:0.6;fill:#FFFFFF;enable-background:new    ;" points="363.668,336.15 368.033,353.09 362.969,354.395 
					358.11,336.9 				"/>
			</g>
			<path style="opacity:0.2;enable-background:new    ;" d="M292.185,334.6c6.77,5.05,16.67,13.26,24.03,19.47
				c13.64-0.6,37.28-1.49,44.67-1.76l-13.61-13.61c-14.26-0.64-33.42-2.14-53.42-3.95C293.296,334.7,292.746,334.65,292.185,334.6z"
				/>
			<path style="fill:#263238;" d="M178.885,337.76c20.03,28.89,67.84-6.6,67.85-6.6c0.53-0.24,1.08-0.48,1.66-0.71
				c0,0,0.01,0,0.03-0.01c6.68-2.71,16.16-5.08,21.3-6.53c0.72-0.2,1.34-0.39,1.87-0.55c2.72-0.86,4.84-1.22,6.26-0.91
				c1.34,0.3,3.15,0.97,5.32,1.94c18.57,8.27,63.5,38.13,63.5,38.13l7.96-10.66c0,0-9.4-8.63-22.35-18.87
				c-18.88-14.92-45.3-33.25-61.16-33.24c-26.72,0.02-61.5,16.07-61.5,16.07l-19.21-10.43L178.885,337.76z"/>
			<g>
				<polygon style="fill:#407BFF;" points="357.059,351.339 346.446,365.244 342.289,362.071 353.032,347.435 				"/>
				<polygon style="opacity:0.6;fill:#FFFFFF;enable-background:new    ;" points="357.059,351.339 346.446,365.244 
					342.289,362.071 353.032,347.435 				"/>
			</g>
			<path style="opacity:0.2;enable-background:new    ;" d="M219.325,328.38l29.07,2.07c0,0,0.01,0,0.03-0.01
				c6.68-2.71,16.16-5.08,21.3-6.53C242.655,323.8,219.325,328.38,219.325,328.38z"/>
		</g>
		<path style="fill:#407BFF;" d="M180.555,346.8l32.6-33.43c-4.91-1.89-8.11-5.22-10.07-9.26c-2.83-5.85-3.09-13.19-2.26-19.87
			c0.39-3.17,1.03-6.19,1.76-8.82c3.32-12.05,1.41-24.78,1.41-24.78c-21.63-4.53-45.94,6.65-47.4,16.51
			C150.375,309.06,180.555,346.8,180.555,346.8z"/>
		<path style="fill:#EBB376;" d="M214.164,259.905l4.185-7.17c0,0,0.551-3.66,1.284-5.439c0.733-1.779,10.725-4.168,13.624-2.593
			c2.898,1.574,3.666,1.66,3.666,1.66s-4.017,7.005-6.133,8.025c-2.116,1.02-5.246,0.908-5.246,0.908l-5.91,8.482L214.164,259.905z"
			/>
		<path style="fill:#EBB376;" d="M178.885,261.27c2.74,2.51,7.86,2.73,10.67,2.64c1.2-0.03,1.98-0.13,1.98-0.13
			c-0.35-2.12,5.69-5.02,5.69-5.02l-5.46-10.07l-0.23-0.42c-0.19,0.18-0.38,0.35-0.57,0.51l-0.01,0.01
			c-0.77,0.65-1.53,1.15-2.27,1.54c-3.47,1.85-6.32,1.16-6.32,1.16S172.505,255.4,178.885,261.27z"/>
		<path style="opacity:0.2;enable-background:new    ;" d="M189.555,263.91c1.2-0.03,1.98-0.13,1.98-0.13
			c-0.35-2.12,5.69-5.02,5.69-5.02l-5.46-10.07l-0.8,0.09l-0.01,0.01l-1.77,0.21c0,0-0.22,0.5-0.5,1.33
			C187.745,253.1,186.115,259.57,189.555,263.91z"/>
		<g>
			<path style="fill:#263238;" d="M221.104,247.176c0,0-6.649,9.139-13.888,8.024c-7.239-1.115,7.388-15.904,7.388-15.904
				L221.104,247.176z"/>
			<path style="fill:#EBB376;" d="M188.729,249.407c-0.862,4.964,1.713,9.034,5.516,10.982c2.443,1.256,5.399,1.626,8.275,0.8
				c0.379-0.104,0.757-0.237,1.136-0.385c6.877-2.802,15.936-10.642,13.95-18.901c-1.374-5.9-7.281-9.58-13.188-8.198
				c-1.683,0.381-3.246,1.17-4.575,2.279C193.598,241.037,189.689,243.713,188.729,249.407z"/>
			<path style="fill:#A24E3F;" d="M207.794,251.488c-1.172,1.798-2.09,3.749-2.728,5.798c-1.058-0.361-1.903-1.171-2.308-2.213
				L207.794,251.488z"/>
			<path style="fill:#263238;" d="M205.727,243.942c0.066,0.127,0.195,0.209,0.339,0.216c0.976,0.002,1.895,0.465,2.477,1.249
				c0.11,0.18,0.345,0.236,0.525,0.126c0.18-0.11,0.236-0.345,0.126-0.525c0,0-0.001-0.001-0.001-0.001
				c-0.711-1.009-1.867-1.611-3.102-1.615c-0.21-0.012-0.391,0.149-0.402,0.36c0,0.003,0,0.006-0.001,0.009
				C205.692,243.823,205.705,243.884,205.727,243.942z"/>
			<path style="fill:#263238;" d="M213.346,254.307c0.018,0.075,0.06,0.143,0.119,0.193c0.184,0.103,0.416,0.038,0.52-0.146
				c0.001-0.003,0.003-0.005,0.004-0.007c0.615-1.075,0.669-2.382,0.143-3.504c-0.1-0.185-0.332-0.254-0.517-0.154l-0.001,0
				c-0.181,0.105-0.249,0.332-0.153,0.518l0,0c0.389,0.897,0.331,1.926-0.157,2.774C213.269,254.091,213.285,254.21,213.346,254.307
				z"/>
			<path style="fill:#263238;" d="M211.419,234.938l-2.508,2.536c-1.205-0.526-2.667-0.263-3.429,1.023
				c-1.626,2.744-6.296,4.285-9.158,3.636c0,0,0.968-0.856,0.053-1.52c-0.916-0.663-5.997,3.741-7.192,7.394
				c0,0,0.28-4.317,4.685-10.115c4.074-5.362,8.207-8.899,11.017-9.414L211.419,234.938z"/>
			<path style="fill:none;stroke:#263238;stroke-width:0.5;stroke-linecap:round;stroke-linejoin:round;stroke-miterlimit:10;" d="
				M206.121,248.652c0,0-2.225,0.271-2.812-1.47"/>
			<path style="fill:none;stroke:#263238;stroke-width:0.5;stroke-linecap:round;stroke-linejoin:round;stroke-miterlimit:10;" d="
				M210.279,252.735c0,0-0.474,1.85,1.185,2.241"/>
			<path style="fill:#263238;" d="M196.646,253.146c0.354,0.194,0.71,0.521,0.9,0.765c0.518,0.666,1.582,1.918,1.187,2.847
				c-0.342,0.801-2.033-1.116-2.229-1.363c-0.304-0.384-0.85-1.024-0.865-1.546C195.611,252.865,196.126,252.861,196.646,253.146z"
				/>
			<path style="fill:#263238;" d="M207.697,235.879c0,0-0.052,7.207,3.925,9.618c0,0-1.564-2.136-1.249-4.626
				c0,0,2.169,7.983,4.954,8.805c2.785,0.822,2.015,3.783,4.87,3.799c2.854,0.016,4.075-5.548,4.075-5.548s1.402,0.906,1.992-2.199
				c0.591-3.105-0.436-3.878-1.267-5.418c-0.831-1.54,2.605-2.996,1.797-6.221c-0.808-3.225-6.764-10.557-11.344-6.331
				c0,0-1.412-4.853-7.007-3.734c-2.746,0.549-2.389,2.553-2.389,2.553s-1.448-2.719-6.64-0.782
				c-5.192,1.937-6.477,8.357-6.477,8.357s-1.362-0.87-2.247,2.987c-0.886,3.857,0.66,6.193,0.66,6.193
				S199.548,233.587,207.697,235.879z"/>
			<path style="fill:#EBB376;" d="M192.446,236.968c-0.958,1.783-1.17,3.872-0.589,5.811c0.787,2.562,3.429,2.399,5.098,0.484
				c1.467-1.717,2.893-5.15,1.173-7.129C196.407,234.155,193.65,234.795,192.446,236.968z"/>
			<path style="fill:none;stroke:#263238;stroke-width:0.5;stroke-linecap:round;stroke-linejoin:round;stroke-miterlimit:10;" d="
				M224.209,239.801c0,0,3.199,2.657,4.604,0.362"/>
			<path style="fill:none;stroke:#263238;stroke-width:0.5;stroke-linecap:round;stroke-linejoin:round;stroke-miterlimit:10;" d="
				M223.356,246.321c0,0,2.222,3.681-0.716,6.783"/>
			<path style="fill:none;stroke:#263238;stroke-width:0.5;stroke-linecap:round;stroke-linejoin:round;stroke-miterlimit:10;" d="
				M206.228,227.539c0,0-0.875-2.61,0.679-4.694"/>
			<path style="fill:none;stroke:#263238;stroke-width:0.5;stroke-linecap:round;stroke-linejoin:round;stroke-miterlimit:10;" d="
				M206.054,226.576c0,0-6.158-4.64-11.569,1.529"/>
		</g>
		<path style="opacity:0.2;enable-background:new    ;" d="M215.445,274.28c-0.97,0.71-1.56,1.14-1.56,1.14l0.09,0.07
			C214.475,275.09,214.965,274.69,215.445,274.28z"/>
		<path style="opacity:0.2;enable-background:new    ;" d="M161.025,283.56c0,0,18.46,29.14,39.3,21.63
			c0.98-0.35,1.9-0.71,2.76-1.08c-2.83-5.85-3.09-13.19-2.26-19.87c-2.52,2.76-5.96,5.55-9.29,5.18
			C185.155,288.7,161.025,283.56,161.025,283.56z"/>
		<g>
			<path style="fill:#407BFF;" d="M156.594,267.153c3.858-6.807,34.579,17.793,37.891,15.946c3.312-1.846,20.92-28.086,20.92-28.086
				l8.88,4.393c0,0-15.024,31.708-20.976,37.54c-7.671,7.516-37.417-5.207-41.713-10.45
				C157.3,281.252,154.01,271.712,156.594,267.153z"/>
			<path style="opacity:0.1;enable-background:new    ;" d="M156.594,267.153c3.858-6.807,34.579,17.793,37.891,15.946
				c3.312-1.846,20.92-28.086,20.92-28.086l8.88,4.393c0,0-15.024,31.708-20.976,37.54c-7.671,7.516-37.417-5.207-41.713-10.45
				C157.3,281.252,154.01,271.712,156.594,267.153z"/>
		</g>
		<g>
			<path style="fill:#407BFF;" d="M212.42,306.575l23.962,4.492c0,0-7.831,10.285-9.913,17.811c0,0-11.818,4.895-15.399,14.42
				l-22.52-8.247c0,0,2.979-8.731,16.143-13.827C204.693,321.224,206.03,310.198,212.42,306.575z"/>
			<path style="opacity:0.3;enable-background:new    ;" d="M212.42,306.575l23.962,4.492c0,0-7.831,10.285-9.913,17.811
				c0,0-11.818,4.895-15.399,14.42l-22.52-8.247c0,0,2.979-8.731,16.143-13.827C204.693,321.224,206.03,310.198,212.42,306.575z"/>
			<path style="fill:#FFFFFF;" d="M233.407,307.593l0.237,1.8l1.062-0.295l-0.391,2.083c0,0-6.652,6.679-8.637,16.908
				c0,0-10.869,6.148-14.787,13.867l-22.949-8.454l0.458-0.693l-1.226-0.23l18.416-12.562l4.325-13.411L233.407,307.593z"/>
			<path style="opacity:0.2;enable-background:new    ;" d="M233.407,307.593l0.237,1.8l1.062-0.295l-0.391,2.083
				c0,0-6.652,6.679-8.637,16.908c0,0-10.869,6.148-14.787,13.867l-22.949-8.454l0.458-0.693l-1.226-0.23l18.416-12.562
				l4.325-13.411L233.407,307.593z"/>
			<path style="fill:#FFFFFF;" d="M225.678,328.09c0,0-7.178,1.981-14.266,13.411l-24.867-9.871c0,0,5.576-10.044,16.411-12.103
				c0,0,1.13-10.095,6.62-15.017l2.086,0.269l21.744,2.815C233.407,307.593,225.591,321.878,225.678,328.09z"/>
			<path style="opacity:0.1;enable-background:new    ;" d="M225.678,328.09l-22.721-8.563c0,0,1.13-10.095,6.62-15.017l2.086,0.269
				c-0.971,2.575-1.695,6.163-0.13,9.326C214.37,319.866,225.678,328.09,225.678,328.09z"/>
		</g>
	</g>
</g>
</svg>
