<?xml version="1.0" encoding="utf-8"?>
<!-- Generator: Adobe Illustrator 27.5.0, SVG Export Plug-In . SVG Version: 6.00 Build 0)  -->
<svg version="1.1" xmlns="http://www.w3.org/2000/svg" xmlns:xlink="http://www.w3.org/1999/xlink" x="0px" y="0px"
	 viewBox="0 0 500 500" style="enable-background:new 0 0 500 500;" xml:space="preserve">
<g id="BACKGROUND">
	<rect style="fill:#FFF1DC;" width="500" height="500"/>
</g>
<g id="OBJECTS">
	<g>
		<g>
			<defs>
				<rect id="SVGID_1_" width="500" height="500"/>
			</defs>
			<clipPath id="SVGID_00000116940732730289557370000002201145399235949474_">
				<use xlink:href="#SVGID_1_"  style="overflow:visible;"/>
			</clipPath>
			<path style="clip-path:url(#SVGID_00000116940732730289557370000002201145399235949474_);fill:#FDE2C4;" d="M150.36-3.678
				c-13.937,40.212-27.873,80.424-41.81,120.635c-4.537,13.091-9.813,27.151-21.475,34.631c-5.463,3.504-11.913,5.239-17.362,8.765
				c-5.449,3.525-9.993,9.92-8.295,16.184c2.122,7.83,12.325,10.746,15.725,18.112c2.769,5.999,0.239,12.987-2.29,19.091
				c-9.453,22.809-18.907,45.619-28.36,68.428c9.348,4.845,18.724,10.759,28.072,15.603
				c20.838-64.771,38.059-128.237,58.898-193.008c11.703-36.377,23.407-72.753,35.11-109.13L150.36-3.678z"/>
			<path style="clip-path:url(#SVGID_00000116940732730289557370000002201145399235949474_);fill:#FDE2C4;" d="M403.273-8.581
				c-21.893,56.106-43.787,112.212-65.681,168.319c-4.523,11.59-9.496,23.79-19.441,31.265c-7.239,5.441-16.298,7.727-25.094,9.881
				c-8.795,2.155-17.857,4.422-25.115,9.837c-7.258,5.414-12.313,14.851-9.848,23.564c2.483,8.776,11.675,14.571,13.613,23.483
				c3.581,16.47-19.269,30.671-14.533,46.848l24.271,34.102c18.939-44.269,41.1-87.159,66.249-128.22
				c5.046-8.239,11.135-17.091,20.536-19.319c6.93-1.642,14.247,0.748,21.29-0.301c15.278-2.274,23.407-18.824,28.988-33.227
				c21.961-56.684,45.374-111.297,67.335-167.982C457.366-9.327,431.75-9.585,403.273-8.581z"/>
			<path style="clip-path:url(#SVGID_00000116940732730289557370000002201145399235949474_);fill:#FDE2C4;" d="M190.333,132.801
				c-6.94-3.971-16.283-4.907-20.489-11.708c-4.252-6.874-0.785-15.74,2.726-23.02C189.94,62.056,207.31,26.04,224.68-9.977
				c-14.64,1.702-25.685,2.329-40.325,4.031c-14.406,35.283-28.813,70.567-43.22,105.851c-3.224,7.895-6.512,16.281-5.213,24.71
				c1.418,9.205,8.088,16.84,10.159,25.921c2.467,10.821-1.976,22.128-8.298,31.249c-6.322,9.122-14.508,16.817-20.978,25.835
				c-9.525,13.275-15.017,28.946-20.387,44.377c-8.75,25.144-17.5,50.288-26.25,75.432l56.959,26.691
				c22.568-52.449,45.137-104.897,67.706-157.345c4.649-10.804,9.37-21.91,9.863-33.661
				C205.191,151.361,200.542,138.643,190.333,132.801z"/>
			<path style="clip-path:url(#SVGID_00000116940732730289557370000002201145399235949474_);fill:#FDE2C4;" d="M-11.989,0.107
				l-4.932,288.01c11.494-30.962,22.988-61.925,34.482-92.887c5.331-14.36,10.841-29.034,20.697-40.759
				c4.48-5.33,10.1-10.627,10.52-17.577c0.469-7.762-5.887-14.967-4.569-22.631c1.553-9.032,12.607-12.911,21.764-12.554
				c9.157,0.357,18.639,3.079,27.261-0.026c12.053-4.34,17.475-18.012,21.492-30.177c8.445-25.574,16.889-51.149,25.333-76.723
				C90.18-13.562,36.476-14.345-11.989,0.107z"/>
			<path style="clip-path:url(#SVGID_00000116940732730289557370000002201145399235949474_);fill:#FDE2C4;" d="M503.745-10.775
				c-19.759,42.356-39.519,84.712-59.278,127.068c-7.747,16.605-15.294,36.977-5.073,52.185
				c9.731,14.478,31.814,17.397,39.907,32.851c5.947,11.357,1.673,26.019-7.185,35.287c-8.858,9.268-21.336,14.118-33.686,17.558
				c-12.35,3.44-25.121,5.795-36.698,11.302c-25.952,12.347-42.15,38.509-55.371,64.027
				c-32.722,63.157-56.28,131.054-69.708,200.906c82.275-18.347,167.446-26.699,251.622-22.205L503.745-10.775z"/>
		</g>
		<g>
			<path style="fill:none;stroke:#101825;stroke-linecap:round;stroke-linejoin:round;stroke-miterlimit:10;" d="M393.749,264.151
				c2.003-0.935,4.006-1.87,6.009-2.806"/>
			<path style="fill:none;stroke:#101825;stroke-linecap:round;stroke-linejoin:round;stroke-miterlimit:10;" d="M407.823,249.588
				c0,1.529,0,3.059,0,4.588"/>
			<path style="fill:none;stroke:#101825;stroke-linecap:round;stroke-linejoin:round;stroke-miterlimit:10;" d="M395.051,255.6
				c0.12,0.705,0.241,1.411,0.361,2.116"/>
			<path style="fill:none;stroke:#101825;stroke-linecap:round;stroke-linejoin:round;stroke-miterlimit:10;" d="M417.033,255.753
				c1.879-0.37,3.758-0.741,5.637-1.111"/>
			<path style="fill:none;stroke:#101825;stroke-linecap:round;stroke-linejoin:round;stroke-miterlimit:10;" d="M421.588,226.647
				c0.706-0.941,1.412-1.882,2.118-2.824"/>
			<path style="fill:none;stroke:#101825;stroke-linecap:round;stroke-linejoin:round;stroke-miterlimit:10;" d="M411,235.471
				c0.588,1.294,1.177,2.588,1.765,3.882"/>
			<path style="fill:none;stroke:#101825;stroke-linecap:round;stroke-linejoin:round;stroke-miterlimit:10;" d="M439.97,239.774
				c1.651-0.697,3.302-1.394,4.953-2.091"/>
			<path style="fill:none;stroke:#101825;stroke-linecap:round;stroke-linejoin:round;stroke-miterlimit:10;" d="M459.706,224.176
				c0.353,2.118,0.706,4.235,1.059,6.353"/>
			<path style="fill:none;stroke:#101825;stroke-linecap:round;stroke-linejoin:round;stroke-miterlimit:10;" d="M455.471,241.471
				c-0.471,1.176-0.941,2.353-1.412,3.529"/>
			<path style="fill:none;stroke:#101825;stroke-linecap:round;stroke-linejoin:round;stroke-miterlimit:10;" d="M467.242,229.225
				c0.493,1.048,0.986,2.096,1.479,3.145"/>
			<path style="fill:none;stroke:#101825;stroke-linecap:round;stroke-linejoin:round;stroke-miterlimit:10;" d="M471.706,218.529
				c1.059-0.235,2.118-0.471,3.176-0.706"/>
			<path style="fill:none;stroke:#101825;stroke-linecap:round;stroke-linejoin:round;stroke-miterlimit:10;" d="M468.529,201.235
				c-0.353-1.059-0.706-2.118-1.059-3.176"/>
			<path style="fill:none;stroke:#101825;stroke-linecap:round;stroke-linejoin:round;stroke-miterlimit:10;" d="M442.453,247.479
				c-0.119,0.588-0.239,1.176-0.358,1.764"/>
			<path style="fill:none;stroke:#101825;stroke-linecap:round;stroke-linejoin:round;stroke-miterlimit:10;" d="M438.882,218.529
				c0.941-0.706,1.882-1.412,2.824-2.118"/>
			<path style="fill:none;stroke:#101825;stroke-linecap:round;stroke-linejoin:round;stroke-miterlimit:10;" d="M439.235,189.941
				c-0.353,1.294-0.706,2.588-1.059,3.882"/>
			<path style="fill:none;stroke:#101825;stroke-linecap:round;stroke-linejoin:round;stroke-miterlimit:10;" d="M377.536,224.714
				c1.753-0.62,3.507-1.241,5.26-1.861"/>
			<path style="fill:none;stroke:#101825;stroke-linecap:round;stroke-linejoin:round;stroke-miterlimit:10;" d="M372.529,235.118
				c0.118,1.765,0.235,3.529,0.353,5.294"/>
			<path style="fill:none;stroke:#101825;stroke-linecap:round;stroke-linejoin:round;stroke-miterlimit:10;" d="M361.533,243.913
				c-0.595,1.173-1.19,2.346-1.785,3.519"/>
			<path style="fill:none;stroke:#101825;stroke-linecap:round;stroke-linejoin:round;stroke-miterlimit:10;" d="M35.824,169.471
				c-0.118,1.294-0.235,2.588-0.353,3.882"/>
			<path style="fill:none;stroke:#101825;stroke-linecap:round;stroke-linejoin:round;stroke-miterlimit:10;" d="M38.647,186.765
				c1.412-0.353,2.824-0.706,4.235-1.059"/>
			<path style="fill:none;stroke:#101825;stroke-linecap:round;stroke-linejoin:round;stroke-miterlimit:10;" d="M47.824,147.941
				c-0.118,1.529-0.235,3.059-0.353,4.588"/>
			<path style="fill:none;stroke:#101825;stroke-linecap:round;stroke-linejoin:round;stroke-miterlimit:10;" d="M55.588,129.588
				c1.765-0.353,3.529-0.706,5.294-1.059"/>
			<path style="fill:none;stroke:#101825;stroke-linecap:round;stroke-linejoin:round;stroke-miterlimit:10;" d="M60.882,143
				c0,1.412,0,2.824,0,4.235"/>
			<path style="fill:none;stroke:#101825;stroke-linecap:round;stroke-linejoin:round;stroke-miterlimit:10;" d="M69,141.588
				c0.941-0.118,1.882-0.235,2.824-0.353"/>
			<path style="fill:none;stroke:#101825;stroke-linecap:round;stroke-linejoin:round;stroke-miterlimit:10;" d="M51.287,114.751
				c-0.239,1.176-0.479,2.351-0.718,3.527"/>
			<path style="fill:none;stroke:#101825;stroke-linecap:round;stroke-linejoin:round;stroke-miterlimit:10;" d="M58.059,115.824
				c1.059-0.824,2.118-1.647,3.176-2.471"/>
			<path style="fill:none;stroke:#101825;stroke-linecap:round;stroke-linejoin:round;stroke-miterlimit:10;" d="M85.23,112.379
				c1.765,0.109,3.53,0.218,5.296,0.327"/>
			<path style="fill:none;stroke:#101825;stroke-linecap:round;stroke-linejoin:round;stroke-miterlimit:10;" d="M88.765,126.412
				c0.118,0.824,0.235,1.647,0.353,2.471"/>
			<path style="fill:none;stroke:#101825;stroke-linecap:round;stroke-linejoin:round;stroke-miterlimit:10;" d="M67.588,207.588
				c0,1.647,0,3.294,0,4.941"/>
			<path style="fill:none;stroke:#101825;stroke-linecap:round;stroke-linejoin:round;stroke-miterlimit:10;" d="M36.529,199.118
				c0.118,1.059,0.235,2.118,0.353,3.176"/>
			<path style="fill:none;stroke:#101825;stroke-linecap:round;stroke-linejoin:round;stroke-miterlimit:10;" d="M41.118,174.412
				c0.471-0.824,0.941-1.647,1.412-2.471"/>
			<path style="fill:none;stroke:#101825;stroke-linecap:round;stroke-linejoin:round;stroke-miterlimit:10;" d="M240.184,186.124
				c1.884-0.222,3.768-0.444,5.652-0.666"/>
			<path style="fill:none;stroke:#101825;stroke-linecap:round;stroke-linejoin:round;stroke-miterlimit:10;" d="M245.824,215.706
				c0.235,1.412,0.471,2.824,0.706,4.235"/>
			<path style="fill:none;stroke:#101825;stroke-linecap:round;stroke-linejoin:round;stroke-miterlimit:10;" d="M260.561,206.461
				c0.938-1.179,1.876-2.358,2.814-3.537"/>
		</g>
	</g>
	<g>
		<path style="fill:#FFAE00;" d="M366.494,282.323C370,269,371,256,372,243c-3,7-8,12-12,18c6-19,5-39,7-59c-9,20-23,37-36,54
			c3-6,4-13,5-19c7-26,5-51,14-76c-9,17-20,34-34,48c-15,17-29,34-41.517,51.043c-5.941,8.848-11.228,18.036-15.68,27.692
			c-4.448,9.652-8.06,19.773-10.649,30.463c-2.071,8.552-3.488,17.469-4.154,26.804C243,361,228,375,230,388
			c7.662,41.184,61.382,112,61.382,112l10.206,0.002C317.599,463.887,340,451,355.454,414.375
			c9.991-21.122,16.824-43.451,21.914-66.279c2.545-11.414,4.668-22.965,6.546-34.736C389,272,397,231,413,192
			c-22,21-28,52-41.402,78.31C368.584,277.495,366.494,282.323,366.494,282.323z"/>
		<path style="fill:#FFAE00;" d="M115.058,296.642c-1.514-4.91-3.588-9.656-5.912-14.343c-6.573-11.649-12.36-23.474-17.628-35.386
			C87,235,81,223,77,211c-1,21,5,42,6,63c-16-34-31-70-34-108c-6,28-12,57-9,86c-10-25-11-52-13-78c-1-22-8-43-12-65
			c-4,31-8,59.118-15,90.118V500h140.729c0,0,5.626-69.189,9.845-121.081c0.844-10.378,1.653-20.09,2.585-28.689
			c2.796-18.143,4.735-30.271,4.735-30.271s-9.75-6.868-19.698-13.26S115.058,296.642,115.058,296.642z"/>
		<path style="fill:#FF2419;" d="M260.235,445.662C270,422,291,405,308,386c-8,18-19,34-25,53c19-15,39-28,59-40
			c-25,28-56.647,101.002-56.647,101.002S256,483,256.903,473.887C258.499,459.904,260.235,445.662,260.235,445.662z"/>
	</g>
	<g>
		<path style="fill:#FFAE00;" d="M339.411,489.362c15.442-29.521,30.552-58.839,47.672-87.003
			c5.708-9.392,11.639-18.656,17.903-27.831C436,330,472,289,491,237c-8,36-17,72-32,106c18-17,28-40.118,41-61.118V500l-73.118,0
			L339.411,489.362z"/>
		<path style="fill:#FF2419;" d="M84.412,500C79.917,489.026,73,479,66,469c-18-26-40-46-51-75c1,28,8,56,18,83
			c-11-15-26.941-30.898-33-56.684V500H84.412z"/>
		<path style="fill:#FF2419;" d="M314.326,500.258L426.882,500C427.765,469.118,457,431,464,397c-24,27-53,49-79,74
			c10-19,18-38,23-59c-16,25-38,44-56,67c12-27,25-54,31-83c-16,28-37.344,52.096-54.215,78.637
			C319.696,488.936,314.326,500.258,314.326,500.258z"/>
		<path style="fill:#FF2419;" d="M446.059,500L500,500v-39.706c0,0-18.765,18.706-29,33.706c1-9,6-17,7-26
			c-4,7-9.793,12.203-15.622,16.845C450.882,494,446.059,500,446.059,500z"/>
	</g>
	<g>
		<path style="fill:#FF2419;" d="M341.158,325.706c-11.744,2.452-24.954,3.898-36.698,6.35
			c-13.451-14.442-27.316-29.457-40.767-43.899l-3.064,53.832c5.344,7.02,10.689,14.041,16.034,21.061
			c4.886,6.417,11.624,13.203,19.615,14.299c7.991,1.096,16.05-0.859,23.879-2.8c11.599-2.875,23.815-7.531,35.414-10.407
			C350.83,350.708,345.899,339.139,341.158,325.706z"/>
		<g>
			<path style="fill:#FF2419;" d="M99.706,308.529c-1.176,2.706-2.353,5.412-3.529,8.118c-9.188-6.572-18.213-12.525-27.401-19.097
				c-3.588,13.955-7.732,27.757-11.32,41.712c6.811,8.415,14.494,16.369,22.943,23.138c6.512,5.217,15.32,6.727,23.448,4.841
				s15.357-7.353,19.385-14.66c11.777-21.361,26.279-40.638,35.88-63.062L99.706,308.529z"/>
			<path style="fill:none;stroke:#101825;stroke-linecap:round;stroke-linejoin:round;stroke-miterlimit:10;" d="M95.879,316.247
				c2.209,1.956,4.419,3.912,6.628,5.868"/>
		</g>
		<g>
			<path style="fill:none;stroke:#101825;stroke-linecap:round;stroke-linejoin:round;stroke-miterlimit:10;" d="M168.123,228.882
				c1.606-2.981,4.367-5.32,7.57-6.416c3.204-1.095,6.819-0.936,9.914,0.438c3.031,1.345,5.451,3.735,8.13,5.689
				c2.679,1.954,5.964,3.544,9.217,2.898"/>
			<path style="fill:none;stroke:#101825;stroke-linecap:round;stroke-linejoin:round;stroke-miterlimit:10;" d="M234.056,230.314
				c3.491,0.473,6.439,3.593,6.712,7.105c0.274,3.512-2.155,7.051-5.531,8.059"/>
			<path style="fill:none;stroke:#101825;stroke-linecap:round;stroke-linejoin:round;stroke-miterlimit:10;" d="M95.706,262.412
				c0.859-4.232,4.43-7.783,8.667-8.617c4.237-0.835,8.888,1.096,11.287,4.686"/>
			<path style="fill:#101825;" d="M259.389,263.235c-2.198-3.294-6.634-4.523-10.323-3.084c0.387-4.512-2.409-9.118-6.59-10.858
				c-4.181-1.74-9.308-1.045-12.236,2.409c0.134-2.705-0.068-4.779,0.066-7.485c4.001,0.658,8.23-2.448,8.801-6.462
				c0.571-4.014-2.861-7.587-6.886-8.071c-3.258-3.846-8.194-6.218-13.233-6.358c-5.039-0.14-10.252,4.529-14.689,6.921
				c-2.818,1.519-6.359,0.576-9.12-1.044c-2.761-1.62-5.148-3.87-8.065-5.188c-3.368-1.52-7.334-1.664-10.803-0.391
				c-3.469,1.273-6.559,4.99-8.144,8.328c-2.355-1.941-5.576-2.787-8.581-2.254c-3.004,0.534-6.456,2.785-7.998,5.418
				c-1.099-1.665-3.241-2.57-5.201-2.199c-1.96,0.372-4.083,2.525-4.497,4.476c-2.971-2.835-7.864-3.4-11.403-1.316
				c-3.539,2.084-6.075,6.83-5.036,10.804c-1.2-0.213-2.502,0.387-3.118,1.439c-0.616,1.051-0.833,2.863-0.061,3.806
				c-3.362-1.181-6.852,0.104-8.652,3.178c-4.534-2.365-10.722-0.821-13.614,3.396c-2.892,4.217-1.995,10.835,1.843,14.213
				c-3.526,2.44-5.3,7.161-4.254,11.319c1.046,4.159,4.842,7.478,9.103,7.96l151.719-18.011
				C261.16,271.33,261.587,266.529,259.389,263.235z"/>
		</g>
		<g>
			<polygon style="fill:#101825;" points="275.318,500 195.366,414.09 126.739,489.344 129.654,500 			"/>
			<path style="fill:none;stroke:#23314E;stroke-linecap:round;stroke-linejoin:round;stroke-miterlimit:10;" d="M156.272,463.887
				c2.379,14.497,4.755,21.489,11.702,34.434"/>
			<path style="fill:none;stroke:#23314E;stroke-linecap:round;stroke-linejoin:round;stroke-miterlimit:10;" d="M161.274,459.721
				c2.613,13.942,8.34,25.979,15.491,38.229"/>
			<path style="fill:none;stroke:#23314E;stroke-linecap:round;stroke-linejoin:round;stroke-miterlimit:10;" d="M175.824,440.559
				c7.431,17.78,15.862,39.485,23.293,57.265"/>
			<path style="fill:none;stroke:#23314E;stroke-linecap:round;stroke-linejoin:round;stroke-miterlimit:10;" d="M198.466,441.936
				c7.353,19.429,14.705,36.955,22.058,56.384"/>
		</g>
		<g>
			<path style="fill:#5786DE;" d="M131.034,500c19.844-24.658,40.107-49.208,59.891-73.882
				c7.381,21.563,21.438,41.983,39.403,56.008c9.758,7.618,20.74,13.639,32.372,17.874h28.681
				c-9.571-37.596-19.241-74.301-28.799-112.013l-134.073-15.64c-18.679,39.626-19.85,87.086-3.381,127.653H131.034z"/>
			<path style="fill:none;stroke:#101825;stroke-linecap:round;stroke-linejoin:round;stroke-miterlimit:10;" d="M191.57,427.668
				c-5.881-15.213-8.473-31.687-7.547-47.97"/>
			<path style="fill:none;stroke:#101825;stroke-linecap:round;stroke-linejoin:round;stroke-miterlimit:10;" d="M197.55,384.356
				c2.177,16.859,10.578,32.844,23.229,44.198"/>
			<path style="fill:none;stroke:#101825;stroke-linecap:round;stroke-linejoin:round;stroke-miterlimit:10;" d="M203.267,382.274
				c1.706,12.885,8.519,25.023,18.63,33.189"/>
			<path style="fill:none;stroke:#101825;stroke-linecap:round;stroke-linejoin:round;stroke-miterlimit:10;" d="M241.592,387.587
				c4.661,11.806,12.44,22.364,22.334,30.313"/>
			<path style="fill:none;stroke:#101825;stroke-linecap:round;stroke-linejoin:round;stroke-miterlimit:10;" d="M137.249,465.697
				c15.879-19.179,31.758-38.358,47.637-57.538"/>
			<path style="fill:none;stroke:#101825;stroke-linecap:round;stroke-linejoin:round;stroke-miterlimit:10;" d="M184.269,399.12
				c-12.689,15.661-25.378,31.321-38.067,46.982"/>
			<path style="fill:none;stroke:#101825;stroke-linecap:round;stroke-linejoin:round;stroke-miterlimit:10;" d="M166.335,380.133
				c-9.451,16.466-18.901,32.931-28.352,49.397"/>
			<path style="fill:none;stroke:#101825;stroke-linecap:round;stroke-linejoin:round;stroke-miterlimit:10;" d="M157.721,376.383
				c-10.59,15.763-21.18,31.527-31.77,47.29"/>
		</g>
		<g>
			<path style="fill:#276653;" d="M262.003,279.298c-9.153-3.797-18.414-7.326-27.567-11.123c-4.481,6.457-12.913,9.91-20.635,8.451
				c-7.723-1.459-14.863-7.558-16.68-15.205c-16.663,3.571-33.327,7.141-49.99,10.711c-5.292,31.608-10.337,62.97-15.63,94.578
				l129.129,19.996C267.51,350.227,268.953,315.763,262.003,279.298z"/>
			<path style="fill:none;stroke:#101825;stroke-linecap:round;stroke-linejoin:round;stroke-miterlimit:10;" d="M166.516,295.53
				c2.044,0.448,4.088,0.896,6.133,1.344"/>
			<path style="fill:none;stroke:#101825;stroke-linecap:round;stroke-linejoin:round;stroke-miterlimit:10;" d="M181.796,282.323
				c1.093,1.025,2.186,2.05,3.279,3.075"/>
			<path style="fill:none;stroke:#101825;stroke-linecap:round;stroke-linejoin:round;stroke-miterlimit:10;" d="M181.31,307.2
				c-0.781,0.944-1.561,1.889-2.341,2.833"/>
			<path style="fill:none;stroke:#101825;stroke-linecap:round;stroke-linejoin:round;stroke-miterlimit:10;" d="M152.412,314.765
				c0.314,1.569,0.627,3.137,0.941,4.706"/>
			<path style="fill:none;stroke:#101825;stroke-linecap:round;stroke-linejoin:round;stroke-miterlimit:10;" d="M175.447,329.415
				c1.878,0.717,3.756,1.435,5.634,2.152"/>
			<path style="fill:none;stroke:#101825;stroke-linecap:round;stroke-linejoin:round;stroke-miterlimit:10;" d="M200.882,296.882
				c1.176,1.412,2.353,2.824,3.529,4.235"/>
			<path style="fill:none;stroke:#101825;stroke-linecap:round;stroke-linejoin:round;stroke-miterlimit:10;" d="M199.872,321.334
				c-0.388,1.413-0.777,2.826-1.165,4.239"/>
			<path style="fill:none;stroke:#101825;stroke-linecap:round;stroke-linejoin:round;stroke-miterlimit:10;" d="M161.364,340.854
				c1.056,1.143,2.111,2.286,3.167,3.43"/>
			<path style="fill:none;stroke:#101825;stroke-linecap:round;stroke-linejoin:round;stroke-miterlimit:10;" d="M146.294,346.765
				c-0.627,1.569-1.255,3.137-1.882,4.706"/>
			<path style="fill:none;stroke:#101825;stroke-linecap:round;stroke-linejoin:round;stroke-miterlimit:10;" d="M167,359.941
				c1.647,0.471,3.294,0.941,4.941,1.412"/>
			<path style="fill:none;stroke:#101825;stroke-linecap:round;stroke-linejoin:round;stroke-miterlimit:10;" d="M187.48,348.437
				c1.568-0.551,3.136-1.102,4.704-1.654"/>
			<path style="fill:none;stroke:#101825;stroke-linecap:round;stroke-linejoin:round;stroke-miterlimit:10;" d="M213.561,338.439
				c1.649,0.304,3.298,0.608,4.947,0.912"/>
			<path style="fill:none;stroke:#101825;stroke-linecap:round;stroke-linejoin:round;stroke-miterlimit:10;" d="M207.644,348.184
				c0.161,1.411,0.323,2.823,0.484,4.234"/>
			<path style="fill:none;stroke:#101825;stroke-linecap:round;stroke-linejoin:round;stroke-miterlimit:10;" d="M196.647,364.647
				c0.549,0.784,1.098,1.569,1.647,2.353"/>
			<path style="fill:none;stroke:#101825;stroke-linecap:round;stroke-linejoin:round;stroke-miterlimit:10;" d="M233.118,362.529
				c1.725-0.392,3.451-0.784,5.176-1.176"/>
			<path style="fill:none;stroke:#101825;stroke-linecap:round;stroke-linejoin:round;stroke-miterlimit:10;" d="M234.294,343.537
				c1.49,0.01,2.98,0.02,4.47,0.029"/>
			<path style="fill:none;stroke:#101825;stroke-linecap:round;stroke-linejoin:round;stroke-miterlimit:10;" d="M235.471,324.177
				c-0.784,0.863-1.569,1.725-2.353,2.588"/>
			<path style="fill:none;stroke:#101825;stroke-linecap:round;stroke-linejoin:round;stroke-miterlimit:10;" d="M216.412,312.647
				c0.471,1.098,0.941,2.196,1.412,3.294"/>
			<path style="fill:none;stroke:#101825;stroke-linecap:round;stroke-linejoin:round;stroke-miterlimit:10;" d="M235.941,300.647
				c1.412-0.549,2.824-1.098,4.235-1.647"/>
			<path style="fill:none;stroke:#101825;stroke-linecap:round;stroke-linejoin:round;stroke-miterlimit:10;" d="M239.101,284.075
				c1.096,1.1,2.192,2.2,3.288,3.301"/>
			<path style="fill:none;stroke:#101825;stroke-linecap:round;stroke-linejoin:round;stroke-miterlimit:10;" d="M224.647,294.294
				c-0.235,1.255-0.471,2.51-0.706,3.765"/>
			<path style="fill:none;stroke:#101825;stroke-linecap:round;stroke-linejoin:round;stroke-miterlimit:10;" d="M253.589,319.697
				c1.647,0.237,3.294,0.474,4.941,0.71"/>
			<path style="fill:none;stroke:#101825;stroke-linecap:round;stroke-linejoin:round;stroke-miterlimit:10;" d="M253.43,331.477
				c-0.15,1.726-0.3,3.452-0.451,5.178"/>
			<path style="fill:none;stroke:#101825;stroke-linecap:round;stroke-linejoin:round;stroke-miterlimit:10;" d="M255.197,354.591
				c1.25,0.792,2.5,1.584,3.75,2.376"/>
			<path style="fill:none;stroke:#101825;stroke-linecap:round;stroke-linejoin:round;stroke-miterlimit:10;" d="M252.647,366.529
				c-0.392,1.333-0.784,2.667-1.176,4"/>
		</g>
		<g>
			<g>
				<path style="fill:#FF2419;" d="M231.002,230.489c-3.216,0.073-6.346,0.408-9.561,0.481c0.294,1.728-0.2,3.575-1.319,4.924
					c-1.118,1.35-2.841,2.179-4.593,2.211c-0.913,0.017-1.89-0.159-2.695,0.273c-0.865,0.464-1.254,1.481-1.936,2.186
					c-0.895,0.924-2.351,1.254-3.556,0.806c-1.206-0.448-2.411-1.833-2.486-3.117c-2.552-0.361-5.261,1.009-6.482,3.279
					c-1.222,2.27-0.873,5.285,0.835,7.216c1.707,1.931,4.657,2.647,7.06,1.712c-1.53,5.725-3.233,11.059-4.763,16.784
					c4.045,3.005,7.841,5.345,12.258,7.77l8.601-8.859c1.137-2.628,2.416-5.169,3.552-7.796c3.049-0.455,6.067-2.794,6.724-5.806
					c0.54-2.473,1.476-4.794,1.662-7.318C234.67,240.219,233.398,234.912,231.002,230.489z"/>
				<path style="fill:none;stroke:#101825;stroke-linecap:round;stroke-linejoin:round;stroke-miterlimit:10;" d="M201.932,242.313
					c1.181,0.579,2.361,1.159,3.542,1.738"/>
				<path style="fill:none;stroke:#101825;stroke-linecap:round;stroke-linejoin:round;stroke-miterlimit:10;" d="M216.766,238.392
					c1.491,0.107,2.982,0.215,4.473,0.322"/>
				<path style="fill:none;stroke:#101825;stroke-linecap:round;stroke-linejoin:round;stroke-miterlimit:10;" d="M228.174,237.986
					c1.412,0.077,2.824,0.153,4.236,0.23"/>
				<path style="fill:none;stroke:#101825;stroke-linecap:round;stroke-linejoin:round;stroke-miterlimit:10;" d="M225.068,242.407
					c0.081,1.214,0.162,2.429,0.243,3.643c-0.339-0.075-0.678-0.151-1.018-0.226"/>
				<path style="fill:none;stroke:#101825;stroke-linecap:round;stroke-linejoin:round;stroke-miterlimit:10;" d="M229.242,242.639
					c0.899,0.75,2.387,0.644,3.17-0.226"/>
				<path style="fill:none;stroke:#101825;stroke-linecap:round;stroke-linejoin:round;stroke-miterlimit:10;" d="M216.036,242.898
					c0.81,1.118,2.564,1.4,3.682,0.59"/>
				<path style="fill:none;stroke:#101825;stroke-linecap:round;stroke-linejoin:round;stroke-miterlimit:10;" d="M221.589,248.289
					c0.627,0.039,1.255,0.078,1.882,0.117"/>
				<path style="fill:none;stroke:#101825;stroke-linecap:round;stroke-linejoin:round;stroke-miterlimit:10;" d="M210.441,255.082
					c4.358,3.536,10.422,4.864,15.859,3.472"/>
			</g>
			<g>
				<path style="fill:#23314E;" d="M219.511,201.865c-5.963-7.887-14.673-13.656-24.262-16.07
					c-9.589-2.414-19.991-1.456-28.978,2.668l33.189,11.876l-28.64-1.019l25.25,12.69l-13.536-1.697l22.484,19.043L219.511,201.865z
					"/>
				<g>
					<path style="fill:#FFAE00;" d="M218.106,198.156c-9.887,4.814-17.396,14.919-17.997,25.899
						c-0.216,3.96-0.433,7.919-0.649,11.879l35.122-4.451C233.668,218.646,227.712,206.721,218.106,198.156z"/>
					<path style="fill:none;stroke:#101825;stroke-linecap:round;stroke-linejoin:round;stroke-miterlimit:10;" d="M218.277,200.325
						c3.963,10.014,6.348,20.651,7.042,31.398"/>
				</g>
			</g>
		</g>
		<g>
			<path style="fill:#5786DE;" d="M239.301,272.288c-2.902,7.653-9.574,13.77-17.449,15.998s-16.763,0.515-23.245-4.482
				c-6.482-4.997-10.4-13.156-10.249-21.339l10.114-9.636l16.116,5.942l-0.314,9.327l4.905-8.094h14.814L239.301,272.288z"/>
			<path style="fill:none;stroke:#101825;stroke-linecap:round;stroke-linejoin:round;stroke-miterlimit:10;" d="M214.543,267.708
				c-0.951,6.822-1.902,13.644-2.853,20.466"/>
		</g>
		<g>
			<path style="fill:#353E4D;" d="M182.646,258.461c-18.351-6.425-39.577-4.021-56.027,6.346
				c-16.449,10.367-27.776,28.479-29.897,47.806c18.067,2.025,36.31-1.724,51.719-11.372
				C163.851,291.592,176.577,275.598,182.646,258.461z"/>
			<path style="fill:none;stroke:#101825;stroke-linecap:round;stroke-linejoin:round;stroke-miterlimit:10;" d="M104.59,301.848
				c26.948-3.476,51.892-20.079,65.499-43.599"/>
			<path style="fill:none;stroke:#101825;stroke-linecap:round;stroke-linejoin:round;stroke-miterlimit:10;" d="M110.728,290.619
				c18.762-4.749,35.713-16.336,46.95-32.093"/>
		</g>
		<g>
			<path style="fill:#353E4D;" d="M305.792,342.911c-16.661-3.61-31.94-13.279-42.335-26.79
				c-10.395-13.512-15.823-30.759-15.041-47.788c17.901,0.683,34.847,8.098,45.558,22.457
				C304.686,305.149,310.239,325.557,305.792,342.911z"/>
			<path style="fill:none;stroke:#101825;stroke-linecap:round;stroke-linejoin:round;stroke-miterlimit:10;" d="M261.129,273.117
				c0.81,12.534,5.191,24.818,12.496,35.035c7.305,10.217,17.511,18.336,29.109,23.157"/>
			<path style="fill:none;stroke:#101825;stroke-linecap:round;stroke-linejoin:round;stroke-miterlimit:10;" d="M271.778,278.978
				c4.672,15.553,15.453,29.181,29.513,37.306"/>
		</g>
		<g>
			<polygon style="fill:#101825;" points="125.25,374.548 130.107,363.693 264.019,382.273 264.351,390.245 			"/>
			<g>
				<polygon style="fill:#101825;" points="224.243,374.003 222.946,388.927 227.01,390.443 224.106,453.399 230.607,453.399 
					231.193,472.175 244.444,470.27 235.188,389.595 237.042,375.163 				"/>
				<path style="fill:none;stroke:#23314E;stroke-linecap:round;stroke-linejoin:round;stroke-miterlimit:10;" d="M223.485,375.472
					c-0.236,3.372-0.471,6.745-0.707,10.118"/>
				<path style="fill:none;stroke:#23314E;stroke-linecap:round;stroke-linejoin:round;stroke-miterlimit:10;" d="M226.046,390.942
					c3.53-0.781,6.39-1.713,9.92-2.494c0.512-3.691,1.024-7.383,1.536-11.074"/>
				<path style="fill:none;stroke:#23314E;stroke-linecap:round;stroke-linejoin:round;stroke-miterlimit:10;" d="M229.404,453.125
					c-0.365-20.885-0.731-41.771-1.096-62.657"/>
			</g>
		</g>
		<g>
			<path style="fill:#FF2419;" d="M67.551,298.501l-18.146,0.401c-2.637,11.518-5.303,23.029-7.939,34.547
				c5.68,0.645,11.299,1.828,16.757,3.529c6.987-2.907,12.556-9.825,14.341-17.179C74.349,312.445,72.429,304.288,67.551,298.501z"
				/>
			<g>
				<path style="fill:#FF2419;" d="M70.281,291.372c-11.377-4.767-25.094-3.478-35.384,3.325l24.985,13.378
					c1.294,1.425,2.62,2.875,4.303,3.81c1.682,0.935,3.757,1.408,5.472,0.534C69.409,305.297,69.62,298.468,70.281,291.372z"/>
				<path style="fill:none;stroke:#101825;stroke-linecap:round;stroke-linejoin:round;stroke-miterlimit:10;" d="M64.579,311.534
					c0.771,1.457,2.705,2.172,4.238,1.566c0.207-4.172,0.459-8.157,0.666-12.329"/>
			</g>
			<g>
				<g>
					<polygon style="fill:#666060;" points="67.326,340.632 37.968,340.632 43.069,500 69.632,500 					"/>
					
						<line style="fill:none;stroke:#101825;stroke-linecap:round;stroke-linejoin:round;stroke-miterlimit:10;" x1="52.589" y1="345.25" x2="56.881" y2="498.82"/>
				</g>
				<g>
					<polygon style="fill:#353E4D;" points="55.724,284.261 44.772,284.261 44.772,335.944 58.952,335.944 					"/>
					<path style="fill:#101825;" d="M70.598,333.353H33.959c-7.014,0-13.76,2.702-18.834,7.544v0l1.549,3.868h71.209l1.549-3.868v0
						C84.358,336.055,77.613,333.353,70.598,333.353z"/>
					
						<ellipse transform="matrix(0.3827 -0.9239 0.9239 0.3827 -223.5381 216.1573)" style="fill:#101825;" cx="49.982" cy="275.353" rx="11.522" ry="11.522"/>
				</g>
			</g>
			<g>
				<path style="fill:#FF2419;" d="M37.73,331.518c1.394,1.921,3.844,2.762,6.132,2.13l11.778-3.255
					c1.711-0.473,3.52-1.005,4.708-2.324c1.188-1.32,1.127-3.688-0.34-4.689c1.646-0.495,2.945-1.992,3.204-3.691
					c0.259-1.699-0.749-3.548-2.173-4.51c1.911-0.671,3.272-2.666,3.199-4.691c-0.073-2.025-0.898-3.78-2.852-4.313
					c1.875-0.803,3.126-2.871,2.967-4.904c-0.159-2.034-1.984-4.236-4.013-4.445c-8.524-0.876-17.048-1.753-25.572-2.629
					c-3.388,6.307-4.722,13.753-3.918,20.867C31.507,320.872,34.201,326.657,37.73,331.518z"/>
				<path style="fill:none;stroke:#101825;stroke-linecap:round;stroke-linejoin:round;stroke-miterlimit:10;" d="M56.483,296.27
					c1.529,0.234,3.059,0.469,4.589,0.704c2.012,0.309,3.326,2.221,3.483,4.25c0.158,2.03-1.068,4.095-2.925,4.928
					c1.789,0.669,2.979,2.706,2.916,4.614c-0.062,1.908-1.441,3.703-3.27,4.254c1.556,0.882,2.237,3.019,1.975,4.788
					c-0.262,1.769-1.688,3.307-3.433,3.701c1.013,0.904,1.408,2.28,1.048,3.59c-0.36,1.309-1.505,2.369-2.838,2.628"/>
				<path style="fill:none;stroke:#101825;stroke-linecap:round;stroke-linejoin:round;stroke-miterlimit:10;" d="M43.404,305.379
					c5.889,0.235,11.779,0.47,17.668,0.704"/>
				<path style="fill:none;stroke:#101825;stroke-linecap:round;stroke-linejoin:round;stroke-miterlimit:10;" d="M43.94,315.087
					c5.707-0.051,11.413-0.103,17.119-0.154"/>
				<path style="fill:none;stroke:#101825;stroke-linecap:round;stroke-linejoin:round;stroke-miterlimit:10;" d="M45.002,324.961
					c4.823-0.591,9.646-1.183,14.47-1.774"/>
			</g>
		</g>
		<g>
			<path style="fill:#FF2419;" d="M339.739,326.922c-6.759,5.648-9.382,15.741-6.228,23.965
				c3.154,8.224,11.853,13.975,20.655,13.656c0,0,16.673-4.281,31.106-15.589l-40.01-23.01L339.739,326.922z"/>
			<g>
				<g>
					<path style="fill:#3D8369;" d="M316.653,298.794c-0.875-1.895-2.452-3.456-4.355-4.313c-1.903-0.857-4.117-1.003-6.116-0.402
						c0.895,2.024,2.231,3.483,4.288,4.298C312.529,299.191,314.615,299.657,316.653,298.794z"/>
					<path style="fill:#3D8369;" d="M316.418,297.744c-4.203-1.372-7.189-5.803-6.881-10.214c2.23,0.513,4.408,1.574,5.654,3.493
						C316.438,292.943,316.857,295.498,316.418,297.744z"/>
					<path style="fill:none;stroke:#101825;stroke-linecap:round;stroke-linejoin:round;stroke-miterlimit:10;" d="M311.753,294.356
						c3.825,1.581,6.546,5.168,7.97,9.053c1.424,3.886,1.711,8.085,1.865,12.221"/>
				</g>
				<g>
					<path style="fill:#FFFEFA;" d="M381.209,326.525c-3.461-5.981-8.661-10.809-14.38-14.687
						c-5.719-3.879-12.042-6.54-17.892-10.218c-2.909-1.829-6.147-3.338-8.964-5.305c-3.792-2.648-8.882-3.333-13.239-1.782
						c-4.357,1.552-7.869,5.299-9.134,9.748c2.129-0.092,3.785,0.086,5.914-0.006c2.122,1.738,4.554,3.498,6.675,5.237
						c1.454,6.46,2.974,12.836,4.428,19.295c1.151,5.115,3.909,9.679,8.137,12.78c4.227,3.101,9.732,4.402,14.9,3.521l27.07,1.356
						C386.272,339.729,384.669,332.506,381.209,326.525z"/>
					<circle style="fill:#101825;" cx="328.275" cy="301.651" r="1"/>
					<path style="fill:none;stroke:#101825;stroke-linecap:round;stroke-linejoin:round;stroke-miterlimit:10;" d="M352.371,304.521
						c-3.426,0.461-6.515,2.896-7.763,6.119c-1.249,3.223-0.607,7.103,1.615,9.752c4.339,5.175,8.121,10.805,12.286,16.12"/>
					<path style="fill:none;stroke:#101825;stroke-linecap:round;stroke-linejoin:round;stroke-miterlimit:10;" d="M355.571,320.896
						c4.449,5.782,8.897,11.563,13.346,17.345"/>
					<path style="fill:none;stroke:#101825;stroke-linecap:round;stroke-linejoin:round;stroke-miterlimit:10;" d="M358.999,317.837
						c4.503,5.668,9.005,11.337,13.507,17.005"/>
					<path style="fill:none;stroke:#101825;stroke-linecap:round;stroke-linejoin:round;stroke-miterlimit:10;" d="M319.998,299.417
						c0.87,1.622,1.74,3.244,2.61,4.866"/>
				</g>
			</g>
			<g>
				<path style="fill:#FF2419;" d="M385.273,348.954c2.14-6.089,4.389-12.199,6.53-18.288c-1.562-0.597-2.726,0.006-3.728,1.345
					c-2.741,3.665-5.557,7.51-8.298,11.175c2.031-5.561,3.959-11.277,5.99-16.838c-1.504-0.467-3.021,0.094-3.978,1.345
					c-3.981,5.205-7.855,10.892-11.836,16.098c1.77-5.686,3.112-11.305,4.882-16.991c-1.942-0.247-3.513,1.1-4.643,2.698
					c-3.561,5.037-7.355,10.203-10.916,15.24c0.818-4.06,1.495-8.15,2.314-12.21c-1.205-0.165-2.494,0.759-3.208,1.744
					c-2.941,4.059-5.882,8.118-8.823,12.176c4.839,4.193,10.935,6.763,17.322,7.226
					C373.265,354.138,379.879,352.405,385.273,348.954z"/>
				<path style="fill:none;stroke:#101825;stroke-linecap:round;stroke-linejoin:round;stroke-miterlimit:10;" d="M359.957,342.932
					c-0.471,2.235-0.942,4.47-1.414,6.706"/>
				<path style="fill:none;stroke:#101825;stroke-linecap:round;stroke-linejoin:round;stroke-miterlimit:10;" d="M370.368,341.688
					c-1.116,2.648-2.233,5.295-3.349,7.943"/>
				<path style="fill:none;stroke:#101825;stroke-linecap:round;stroke-linejoin:round;stroke-miterlimit:10;" d="M380.603,341.052
					c-1.099,2.808-2.199,5.615-3.298,8.423"/>
				<path style="fill:none;stroke:#101825;stroke-linecap:round;stroke-linejoin:round;stroke-miterlimit:10;" d="M351.143,344.839
					c-4.108-0.444-8.341,0.354-12.005,2.264"/>
			</g>
		</g>
	</g>
</g>
</svg>
