<?xml version="1.0" encoding="utf-8"?>
<!-- Generator: Adobe Illustrator 27.5.0, SVG Export Plug-In . SVG Version: 6.00 Build 0)  -->
<svg version="1.1" xmlns="http://www.w3.org/2000/svg" xmlns:xlink="http://www.w3.org/1999/xlink" x="0px" y="0px"
	 viewBox="0 0 500 500" style="enable-background:new 0 0 500 500;" xml:space="preserve">
<g id="Background_Complete">
	<g>
		<rect x="416.779" y="398.494" style="fill:#EBEBEB;" width="33.122" height="0.25"/>
		<rect x="322.527" y="401.208" style="fill:#EBEBEB;" width="8.693" height="0.25"/>
		<rect x="396.586" y="389.208" style="fill:#EBEBEB;" width="19.192" height="0.25"/>
		<rect x="52.459" y="390.888" style="fill:#EBEBEB;" width="43.193" height="0.25"/>
		<rect x="104.556" y="390.888" style="fill:#EBEBEB;" width="6.333" height="0.25"/>
		<rect x="131.471" y="395.111" style="fill:#EBEBEB;" width="93.676" height="0.25"/>
		<path style="fill:#EBEBEB;" d="M237.014,337.8H43.915c-3.147,0-5.708-2.561-5.708-5.708V60.66c0-3.147,2.561-5.708,5.708-5.708
			h193.099c3.146,0,5.707,2.561,5.707,5.708v271.432C242.721,335.239,240.16,337.8,237.014,337.8z M43.915,55.203
			c-3.01,0-5.458,2.448-5.458,5.458v271.432c0,3.01,2.448,5.458,5.458,5.458h193.099c3.009,0,5.457-2.448,5.457-5.458V60.66
			c0-3.009-2.448-5.458-5.457-5.458H43.915z"/>
		<path style="fill:#EBEBEB;" d="M453.31,337.8H260.212c-3.147,0-5.707-2.561-5.707-5.708V60.66c0-3.147,2.561-5.708,5.707-5.708
			H453.31c3.148,0,5.708,2.561,5.708,5.708v271.432C459.019,335.239,456.458,337.8,453.31,337.8z M260.212,55.203
			c-3.009,0-5.457,2.448-5.457,5.458v271.432c0,3.01,2.448,5.458,5.457,5.458H453.31c3.01,0,5.458-2.448,5.458-5.458V60.66
			c0-3.009-2.448-5.458-5.458-5.458H260.212z"/>
		<rect y="382.398" style="fill:#EBEBEB;" width="500" height="0.25"/>
	</g>
	<g>
		
			<ellipse transform="matrix(0.7071 -0.7071 0.7071 0.7071 -96.5085 243.1645)" style="fill:#F0F0F0;" cx="245.271" cy="238.078" rx="22.946" ry="22.946"/>
		<polygon style="fill:#F0F0F0;" points="245.271,238.078 38.457,314.95 38.207,273.182 		"/>
		<polygon style="fill:#F0F0F0;" points="38.457,213.613 245.271,238.078 38.457,199 		"/>
		<polygon style="fill:#F0F0F0;" points="215.242,54.953 245.271,238.078 78.441,55.203 		"/>
		<polygon style="fill:#F0F0F0;" points="38.457,103.6 245.271,238.078 38.457,97.6 		"/>
		<polygon style="fill:#F0F0F0;" points="245.271,238.078 250,54.953 310.042,54.953 		"/>
		<polygon style="fill:#F0F0F0;" points="372.441,54.953 245.271,240.7 387.741,55.203 		"/>
		<polygon style="fill:#F0F0F0;" points="458.769,276.514 245.271,238.078 459.019,204.7 		"/>
		<polygon style="fill:#F0F0F0;" points="458.769,66.1 245.271,238.078 458.769,116.5 		"/>
		<polygon style="fill:#F0F0F0;" points="433.34,337.8 245.271,238.078 387.741,337.55 		"/>
		<polygon style="fill:#F0F0F0;" points="331.22,337.55 245.271,238.078 322.527,337.8 		"/>
		<polygon style="fill:#F0F0F0;" points="296.841,337.55 245.271,238.078 222.325,337.8 		"/>
		<polygon style="fill:#F0F0F0;" points="172.641,337.55 245.271,240.7 104.556,337.55 		"/>
	</g>
</g>
<g id="Background_Simple" style="display:none;">
	<g style="display:inline;">
		<path style="fill:#407BFF;" d="M386.626,178.945c-12.07-27.208-44.159-107.723-128.5-107.787
			c-87.894-0.066-101.809,47.212-90.545,111.4c10.52,59.943-79.034,44.717-64.804,125.797
			c12.048,68.65,157.026,116.895,253.322,32.75C414.565,290.018,400.267,209.697,386.626,178.945z"/>
		<path style="opacity:0.9;fill:#FFFFFF;" d="M386.626,178.945c-12.07-27.208-44.159-107.723-128.5-107.787
			c-87.894-0.066-101.809,47.212-90.545,111.4c10.52,59.943-79.034,44.717-64.804,125.797
			c12.048,68.65,157.026,116.895,253.322,32.75C414.565,290.018,400.267,209.697,386.626,178.945z"/>
	</g>
</g>
<g id="Shadow">
	
		<ellipse id="_x3C_Path_x3E__00000096051966273156733920000004739393173016863635_" style="fill:#F5F5F5;" cx="250" cy="430.86" rx="193.889" ry="11.323"/>
</g>
<g id="Plants">
	<g>
		<g>
			<g>
				<path style="fill:#407BFF;" d="M279.526,424.74c0,0,0.009-0.007,0.028-0.012c6.222-1.547,32.051,0.999,9.93-39.426
					c-1.629-2.977-3.023-5.481-3.002-5.492c18.243,13.715,22.118,23.983,29.304,39.29c3.299,1.47-6.845-24.921-12.54-33.152
					c12.434,7.661,17.523,23.093,24.676,33.979c-7.824-17.064-7.349-26.686-7.195-32.222c4.577,14.88,10.048,25.633,17.787,32.097
					c8.319,1.414-2.667-20.968-9.564-30.177c12.158,7.416,16.17,19.372,27.267,27.699c-2.329-8.362-5.241-16.377-6.114-24.889
					c2.62,3.571,4.12,7.536,6.105,11.334c1.984,3.798,8.32,13.194,13.91,13.194c6.653-0.303,3.631-22.114-2.644-29.911
					c9.535,3.06,12.929,24.413,15,28.216c2.047-4.993,2.519-20.4,1.132-25.547c3.309,5.046,5.818,20.256,8.373,25.547
					c0.673-4.742,2.376-25.373,15.396-32.756c0.503-0.285,0.851-0.783,1.276-1.174c-2.181,3.15-10.019,19.563-6.692,29.072
					c0.746-15.142,7.98-27.354,12.638-30.153c-7.176,13.139-8.04,28.256-2.396,41.911c0.435,1.052,1.499,2.475,1.764,3.558
					C385.59,425.69,279.555,424.728,279.526,424.74z"/>
			</g>
		</g>
		<g style="opacity:0.8;">
			<g>
				<path style="fill:#FFFFFF;" d="M279.526,424.74c0,0,0.009-0.007,0.028-0.012c6.222-1.547,32.051,0.999,9.93-39.426
					c-1.629-2.977-3.023-5.481-3.002-5.492c18.243,13.715,22.118,23.983,29.304,39.29c3.299,1.47-6.845-24.921-12.54-33.152
					c12.434,7.661,17.523,23.093,24.676,33.979c-7.824-17.064-7.349-26.686-7.195-32.222c4.577,14.88,10.048,25.633,17.787,32.097
					c8.319,1.414-2.667-20.968-9.564-30.177c12.158,7.416,16.17,19.372,27.267,27.699c-2.329-8.362-5.241-16.377-6.114-24.889
					c2.62,3.571,4.12,7.536,6.105,11.334c1.984,3.798,8.32,13.194,13.91,13.194c6.653-0.303,3.631-22.114-2.644-29.911
					c9.535,3.06,12.929,24.413,15,28.216c2.047-4.993,2.519-20.4,1.132-25.547c3.309,5.046,5.818,20.256,8.373,25.547
					c0.673-4.742,2.376-25.373,15.396-32.756c0.503-0.285,0.851-0.783,1.276-1.174c-2.181,3.15-10.019,19.563-6.692,29.072
					c0.746-15.142,7.98-27.354,12.638-30.153c-7.176,13.139-8.04,28.256-2.396,41.911c0.435,1.052,1.499,2.475,1.764,3.558
					C385.59,425.69,279.555,424.728,279.526,424.74z"/>
			</g>
		</g>
	</g>
	<g>
		<g>
			<path style="fill:#407BFF;" d="M241.792,423.989c-0.81,0.13-1.74,0.26-2.77,0.39h-152.9c-0.26-1.68,0.16-3.62,0.72-5.17
				c2.93-8.04,3.14-16.83,0.57-24.87c3.88,6.67,5.23,12.95,5.31,20.57c0.7-7.22-1-28.6-0.28-35.81c8.95,10.3,3.73,32.05,8.95,38.95
				c6.2-1.67,0.9-37.51,1.51-34.96c3.33,0.1,6.44,19.46,7.36,25.99c-0.3-10.26,4.48-30.11,20.37-42.92
				c-15.43,20.46-11.12,37.51-10.64,52.39c4.83-12.66,6.87-17.4,3.57-30.33c12.6,11.8,0.64,32.59,7.12,33.44
				c0,0,6.13-23.5,16.67-37.23c-3.49,15.62,0.76,28.65,2.27,32.51c3.64,2.82,0.14-29.76,7.15-38.23c0.85,6.09,3.48,34.82,6.87,31
				c-0.32-10.24-3.21-32.84-9.18-41.05c5.87,4.33,10.65,10.17,13.78,16.84c0.27-0.75,0.54-1.5,0.8-2.26
				c1.88-5.5,3.37-11.1,4.47-16.68c0.27,5.89-0.24,15.42-1.29,25.22c1.55,4.74,2.66,9.3,3.44,13.46c1.77-5.13,3.54-11.08,6.2-18.34
				c-2.68,7.61-1.62,15.06,0,22.85c11.43,1.58,9.79-24.58,7.78-32.78c9.25,3.22,10.68,24.62,10.87,35.81c0,0,8.97-6.81,14.96-35.95
				c5.12,9.63-1.96,35.68,5.12,41.43c2,1.63,2.55-32.39,16.72-40.05c-5.53,2.99-6.35,19.27-3.96,30.89
				C235.292,418.539,241.792,423.989,241.792,423.989z"/>
			<path style="opacity:0.8;fill:#FFFFFF;" d="M241.792,423.989c-0.81,0.13-1.74,0.26-2.77,0.39h-152.9
				c-0.26-1.68,0.16-3.62,0.72-5.17c2.93-8.04,3.14-16.83,0.57-24.87c3.88,6.67,5.23,12.95,5.31,20.57c0.7-7.22-1-28.6-0.28-35.81
				c8.95,10.3,3.73,32.05,8.95,38.95c6.2-1.67,0.9-37.51,1.51-34.96c3.33,0.1,6.44,19.46,7.36,25.99
				c-0.3-10.26,4.48-30.11,20.37-42.92c-15.43,20.46-11.12,37.51-10.64,52.39c4.83-12.66,6.87-17.4,3.57-30.33
				c12.6,11.8,0.64,32.59,7.12,33.44c0,0,6.13-23.5,16.67-37.23c-3.49,15.62,0.76,28.65,2.27,32.51c3.64,2.82,0.14-29.76,7.15-38.23
				c0.85,6.09,3.48,34.82,6.87,31c-0.32-10.24-3.21-32.84-9.18-41.05c5.87,4.33,10.65,10.17,13.78,16.84
				c0.27-0.75,0.54-1.5,0.8-2.26c1.88-5.5,3.37-11.1,4.47-16.68c0.27,5.89-0.24,15.42-1.29,25.22c1.55,4.74,2.66,9.3,3.44,13.46
				c1.77-5.13,3.54-11.08,6.2-18.34c-2.68,7.61-1.62,15.06,0,22.85c11.43,1.58,9.79-24.58,7.78-32.78
				c9.25,3.22,10.68,24.62,10.87,35.81c0,0,8.97-6.81,14.96-35.95c5.12,9.63-1.96,35.68,5.12,41.43c2,1.63,2.55-32.39,16.72-40.05
				c-5.53,2.99-6.35,19.27-3.96,30.89C235.292,418.539,241.792,423.989,241.792,423.989z"/>
		</g>
		<g>
			<g>
				<path style="fill:#407BFF;" d="M283.156,425.559c0,0-15.87-42.479-11.835-16.926c0,0-18.022-12.235-8.608,4.373
					c0,0-19.367-5.18-8.876,6.387c0,0-16.408,4.801-6.187,6.166C257.872,426.924,283.156,425.559,283.156,425.559z"/>
				<path style="opacity:0.2;fill:#FFFFFF;" d="M283.156,425.559c0,0-15.87-42.479-11.835-16.926c0,0-18.022-12.235-8.608,4.373
					c0,0-19.367-5.18-8.876,6.387c0,0-16.408,4.801-6.187,6.166C257.872,426.924,283.156,425.559,283.156,425.559z"/>
			</g>
			<g>
				<path style="fill:#407BFF;" d="M278.555,425.637c0,0,5.085-29.629,14.771-19.9c0,0,7.265-5.042,10.171,3.918
					c0,0,10.413-3.148,6.538,1.695c0,0,6.296,1.453,4.117,6.78c0,0,6.054,0,4.843,4.843
					C317.784,427.817,278.555,425.637,278.555,425.637z"/>
				<path style="opacity:0.3;fill:#FFFFFF;" d="M278.555,425.637c0,0,5.085-29.629,14.771-19.9c0,0,7.265-5.042,10.171,3.918
					c0,0,10.413-3.148,6.538,1.695c0,0,6.296,1.453,4.117,6.78c0,0,6.054,0,4.843,4.843
					C317.784,427.817,278.555,425.637,278.555,425.637z"/>
			</g>
		</g>
		<g>
			<g>
				<g>
					<g>
						<path style="fill:#407BFF;" d="M103.745,425.418c-2.518,0.046-4.901-2.128-5.226-4.768c-0.325-2.64,1.452-5.386,3.897-6.023
							c-4.15-1.165-7.316-5.469-7.362-10.007c-0.046-4.538,3.033-8.912,7.159-10.17c1.626-0.496,3.535-0.484,4.834,0.663
							c1.299,1.147,1.472,3.668,0.021,4.589c-1.247-4.069,0.603-8.944,4.165-10.974c3.562-2.031,8.432-0.986,10.963,2.35
							c-1.233-1.729-1.257-4.313-0.056-6.068c1.202-1.755,3.532-2.537,5.471-1.838c0.483-2.795,3.267-4.906,5.927-4.493
							c2.659,0.412,4.753,3.279,4.457,6.103c0.306-2.359,3.973-3.05,5.031-0.948c1.49-0.418-0.442,0.348-0.442,0.348
							c1.638-3.225,5.374-5.091,8.771-4.38c3.397,0.711,6.179,3.94,6.531,7.581c2.403-1.797,5.839-1.887,8.323-0.219
							c2.485,1.668,3.867,4.994,3.35,8.057c2.709-2.188,7.149-1.284,8.896,1.81c1.747,3.095,0.392,7.654-2.716,9.136
							c2.115,0.153,3.93,2.262,3.874,4.502c-0.056,2.24-1.975,4.245-4.094,4.28c2.143,0.049,4.115,1.934,4.374,4.183
							c0.259,2.249-1.226,5.78-3.295,6.371L103.745,425.418z"/>
					</g>
				</g>
			</g>
			<g style="opacity:0.4;">
				<g>
					<path style="fill:#FFFFFF;" d="M141.598,410.445c1.088-0.756,2.463-1.163,3.762-0.903c1.299,0.26,2.475,1.263,2.742,2.562
						c0.267,1.298-0.541,2.784-1.829,3.095c-1.567,0.379-3.136-0.913-4.732-0.687c-0.57,0.081-1.094,0.351-1.65,0.499
						c-2.294,0.613-4.567-0.885-6.471-2.304c-0.67-0.499-1.355-1.014-1.802-1.72c-0.448-0.705-0.613-1.653-0.192-2.374
						c0.586-1.005,1.975-1.153,3.131-1.021c2.319,0.265,4.557,1.201,6.376,2.665c-0.059-0.363-0.119-0.727-0.179-1.09
						L141.598,410.445z"/>
				</g>
				<g>
					<path style="fill:#FFFFFF;" d="M108.262,408.475c0.622-0.435,1.265-0.88,2.004-1.054c0.739-0.174,1.609-0.016,2.077,0.583
						c0.641,0.82,0.234,2.104-0.579,2.753c-0.814,0.649-1.894,0.83-2.923,0.99c-1.057,0.164-2.39,0.202-2.912-0.731
						c-0.38-0.68-0.075-1.579,0.494-2.112c0.569-0.533,1.337-0.787,2.079-1.025L108.262,408.475z"/>
				</g>
				<g>
					<path style="fill:#FFFFFF;" d="M160.926,391.136c2.123,0.887,3.763,2.851,4.258,5.098c0.149,0.678,0.128,1.531-0.465,1.891
						c-0.421,0.256-0.959,0.15-1.438,0.036c-2.035-0.483-4.069-0.966-6.103-1.449c0.974,0.375,1.971,0.763,2.749,1.459
						c0.778,0.696,1.301,1.776,1.046,2.788c-0.299,1.189-1.602,1.92-2.828,1.902c-1.226-0.017-2.366-0.626-3.363-1.341
						c-1.063-0.762-2.102-1.818-2.122-3.126c-0.02-1.308,1.627-2.521,2.631-1.682c-2.326-0.632-4.548-1.644-6.551-2.983
						c-0.725-0.485-1.439-1.03-1.896-1.773c-0.457-0.743-0.613-1.725-0.193-2.489c2.087-3.79,4.721,1.769,6.005,2.264
						C155.09,392.672,157.836,389.845,160.926,391.136z"/>
					<path style="fill:#FFFFFF;" d="M170.411,407.312c0.215,0.741,0.067,1.634-0.536,2.116c-0.603,0.481-1.671,0.319-1.949-0.4
						c1.362,0.425,2.817,0.915,3.666,2.062c0.849,1.147,0.639,3.153-0.717,3.596c-0.847,0.277-1.75-0.139-2.532-0.566
						c-2.21-1.209-4.322-2.6-6.305-4.154c0.605,1.398-0.852,2.984-2.37,3.114c-1.518,0.13-2.936-0.69-4.238-1.481
						c-1.597-0.97-3.428-2.452-3.008-4.272c0.365-1.585,2.392-2.286,3.951-1.821c1.558,0.465,2.731,1.722,3.823,2.927
						c-0.856-1.247,0.36-3.098,1.858-3.301c1.456-0.197,2.909,0.69,3.817,1.762c-1.696-0.931-2.076-3.359,0.196-3.64
						C167.546,403.069,170.054,406.08,170.411,407.312z"/>
					<path style="fill:#FFFFFF;" d="M123.838,401.864c1.282-0.479,2.888,0.355,3.233,1.679c0.345,1.324-0.649,2.836-2.001,3.044
						c0.994,0.085,1.947,0.582,2.586,1.348c0.356,0.426,0.624,0.973,0.544,1.522c-0.119,0.822-0.994,1.361-1.824,1.391
						c-0.83,0.03-1.62-0.321-2.375-0.666c0.819,0.077,1.687,0.172,2.337,0.676s0.932,1.572,0.348,2.152
						c-0.488,0.485-1.291,0.404-1.954,0.219c-1.487-0.417-2.871-1.196-3.998-2.251c-0.846,0.938-2.101,1.614-3.348,1.41
						c-1.247-0.203-2.305-1.531-1.915-2.733c0.278-0.857,1.175-1.397,2.07-1.506c0.895-0.108,1.792,0.137,2.649,0.414
						c-0.877-0.623-1.808-1.318-2.129-2.345c-0.321-1.027,0.373-2.406,1.448-2.324c1.207,0.095,1.824,1.738,2.776,2.328
						C123.461,405.121,121.259,402.827,123.838,401.864z"/>
					<g>
						<path style="fill:#FFFFFF;" d="M145.583,396.844c1.373,0.93,1.848,2.763,1.752,4.418c-0.105,1.827-0.936,3.78-2.613,4.514
							c-2.206,0.964-4.962-0.871-5.367-3.245c-0.405-2.373,1.153-4.787,3.289-5.897
							C142.644,396.634,144.209,395.915,145.583,396.844z"/>
					</g>
					<g>
						<path style="fill:#FFFFFF;" d="M130.179,394.872c-0.189,0.164-0.379,0.327-0.568,0.49c0.936-1.185,2.911-1.34,4.022-0.318
							c1.111,1.023,1.117,3.004,0.014,4.034c-1.104,1.03-3.08,0.887-4.024-0.291c-1.592,0.74-3.692,0.452-4.813-0.9
							c-1.12-1.352-0.866-3.709,0.66-4.575c1.527-0.867,3.849,0.433,3.687,2.182c0.221-0.246,0.442-0.492,0.663-0.738
							L130.179,394.872z"/>
					</g>
					<g>
						<path style="fill:#FFFFFF;" d="M113.176,397.617c1.09,1.073,2.224,2.22,2.624,3.697c0.4,1.477-0.26,3.357-1.743,3.734
							c-1.473,0.374-2.871-0.841-3.711-2.107c-0.759-1.144-1.338-2.569-0.901-3.87c0.437-1.301,2.311-2.072,3.248-1.07
							L113.176,397.617z"/>
					</g>
					<path style="fill:#FFFFFF;" d="M137.677,388.695c0.557-1.238,2.315-1.671,3.468-0.954c1.152,0.718,1.577,2.333,1.074,3.594
						c-0.503,1.261-1.797,2.116-3.147,2.263c-1.672,0.183-3.647-1.167-3.271-2.806c-0.721,0.95-2.015,1.326-3.201,1.209
						c-1.186-0.116-2.288-0.655-3.321-1.25c-1.403-0.807-2.899-2.056-2.752-3.668c0.118-1.285,1.361-2.273,2.645-2.392
						c1.285-0.119,2.549,0.477,3.53,1.315c0.771,0.658,1.411,1.47,2.245,2.047c0.834,0.577,1.967,0.885,2.86,0.405L137.677,388.695z
						"/>
				</g>
			</g>
		</g>
		<g>
			<g>
				<g>
					<g>
						<path style="fill:#407BFF;" d="M313.319,425.418c-2.518,0.046-4.901-2.128-5.226-4.768c-0.325-2.64,1.452-5.386,3.897-6.023
							c-4.15-1.165-7.316-5.469-7.362-10.007c-0.046-4.538,3.033-8.912,7.159-10.17c1.626-0.496,3.535-0.484,4.834,0.663
							c1.299,1.147,1.472,3.668,0.021,4.589c-1.247-4.069,0.603-8.944,4.165-10.974c3.562-2.031,8.432-0.986,10.963,2.35
							c-1.233-1.729-1.257-4.313-0.056-6.068c1.202-1.755,3.532-2.537,5.471-1.838c0.483-2.795,3.267-4.906,5.927-4.493
							c2.659,0.412,4.753,3.279,4.457,6.103c0.306-2.359,3.973-3.05,5.032-0.948c1.49-0.418-0.442,0.348-0.442,0.348
							c1.637-3.225,5.374-5.091,8.771-4.38c3.397,0.711,6.179,3.94,6.531,7.581c2.402-1.797,5.838-1.887,8.323-0.219
							c2.484,1.668,3.867,4.994,3.35,8.057c2.709-2.188,7.149-1.284,8.896,1.81c1.747,3.095,0.391,7.654-2.716,9.136
							c2.115,0.153,3.93,2.262,3.874,4.502c-0.056,2.24-1.974,4.245-4.094,4.28c2.143,0.049,4.114,1.934,4.374,4.183
							c0.259,2.249-1.226,5.78-3.295,6.371L313.319,425.418z"/>
					</g>
				</g>
			</g>
			<g style="opacity:0.4;">
				<g>
					<path style="fill:#FFFFFF;" d="M351.171,410.445c1.088-0.756,2.463-1.163,3.762-0.903c1.299,0.26,2.475,1.263,2.742,2.562
						c0.267,1.298-0.541,2.784-1.829,3.095c-1.567,0.379-3.136-0.913-4.732-0.687c-0.57,0.081-1.094,0.351-1.65,0.499
						c-2.294,0.613-4.567-0.885-6.471-2.304c-0.67-0.499-1.355-1.014-1.802-1.72c-0.448-0.705-0.613-1.653-0.192-2.374
						c0.586-1.005,1.975-1.153,3.131-1.021c2.319,0.265,4.558,1.201,6.376,2.665c-0.059-0.363-0.119-0.727-0.179-1.09
						L351.171,410.445z"/>
				</g>
				<g>
					<path style="fill:#FFFFFF;" d="M317.835,408.475c0.622-0.435,1.265-0.88,2.004-1.054c0.739-0.174,1.609-0.016,2.077,0.583
						c0.641,0.82,0.234,2.104-0.579,2.753c-0.814,0.649-1.894,0.83-2.923,0.99c-1.057,0.164-2.39,0.202-2.912-0.731
						c-0.38-0.68-0.075-1.579,0.494-2.112c0.568-0.533,1.336-0.787,2.079-1.025L317.835,408.475z"/>
				</g>
				<g>
					<path style="fill:#FFFFFF;" d="M370.499,391.136c2.124,0.887,3.763,2.851,4.258,5.098c0.149,0.678,0.128,1.531-0.465,1.891
						c-0.422,0.256-0.959,0.15-1.438,0.036c-2.034-0.483-4.069-0.966-6.103-1.449c0.974,0.375,1.971,0.763,2.749,1.459
						c0.778,0.696,1.301,1.776,1.046,2.788c-0.299,1.189-1.602,1.92-2.828,1.902c-1.226-0.017-2.366-0.626-3.363-1.341
						c-1.063-0.762-2.102-1.818-2.121-3.126c-0.02-1.308,1.627-2.521,2.631-1.682c-2.326-0.632-4.548-1.644-6.551-2.983
						c-0.725-0.485-1.439-1.03-1.896-1.773c-0.457-0.743-0.613-1.725-0.193-2.489c2.087-3.79,4.722,1.769,6.005,2.264
						C364.664,392.672,367.409,389.845,370.499,391.136z"/>
					<path style="fill:#FFFFFF;" d="M379.984,407.312c0.215,0.741,0.067,1.634-0.536,2.116c-0.603,0.481-1.671,0.319-1.949-0.4
						c1.362,0.425,2.817,0.915,3.666,2.062c0.849,1.147,0.639,3.153-0.717,3.596c-0.846,0.277-1.75-0.139-2.532-0.566
						c-2.21-1.209-4.322-2.6-6.305-4.154c0.605,1.398-0.852,2.984-2.37,3.114c-1.518,0.13-2.936-0.69-4.239-1.481
						c-1.597-0.97-3.428-2.452-3.007-4.272c0.365-1.585,2.392-2.286,3.951-1.821c1.558,0.465,2.731,1.722,3.823,2.927
						c-0.856-1.247,0.36-3.098,1.858-3.301c1.456-0.197,2.909,0.69,3.817,1.762c-1.696-0.931-2.076-3.359,0.196-3.64
						C377.119,403.069,379.627,406.08,379.984,407.312z"/>
					<path style="fill:#FFFFFF;" d="M333.411,401.864c1.282-0.479,2.888,0.355,3.233,1.679c0.345,1.324-0.649,2.836-2.002,3.044
						c0.994,0.085,1.947,0.582,2.586,1.348c0.356,0.426,0.624,0.973,0.544,1.522c-0.119,0.822-0.994,1.361-1.824,1.391
						c-0.83,0.03-1.62-0.321-2.375-0.666c0.819,0.077,1.687,0.172,2.337,0.676c0.65,0.504,0.932,1.572,0.348,2.152
						c-0.488,0.485-1.291,0.404-1.954,0.219c-1.487-0.417-2.871-1.196-3.998-2.251c-0.846,0.938-2.101,1.614-3.348,1.41
						c-1.247-0.203-2.305-1.531-1.915-2.733c0.278-0.857,1.175-1.397,2.07-1.506c0.895-0.108,1.792,0.137,2.649,0.414
						c-0.877-0.623-1.808-1.318-2.129-2.345c-0.321-1.027,0.373-2.406,1.448-2.324c1.207,0.095,1.824,1.738,2.776,2.328
						C333.034,405.121,330.832,402.827,333.411,401.864z"/>
					<g>
						<path style="fill:#FFFFFF;" d="M355.156,396.844c1.373,0.93,1.848,2.763,1.752,4.418c-0.105,1.827-0.936,3.78-2.613,4.514
							c-2.206,0.964-4.962-0.871-5.367-3.245c-0.405-2.373,1.153-4.787,3.289-5.897
							C352.217,396.634,353.783,395.915,355.156,396.844z"/>
					</g>
					<g>
						<path style="fill:#FFFFFF;" d="M339.752,394.872c-0.189,0.164-0.379,0.327-0.568,0.49c0.936-1.185,2.911-1.34,4.022-0.318
							c1.11,1.023,1.117,3.004,0.014,4.034c-1.104,1.03-3.08,0.887-4.024-0.291c-1.592,0.74-3.692,0.452-4.813-0.9
							c-1.12-1.352-0.866-3.709,0.66-4.575c1.527-0.867,3.85,0.433,3.687,2.182c0.221-0.246,0.442-0.492,0.663-0.738
							L339.752,394.872z"/>
					</g>
					<g>
						<path style="fill:#FFFFFF;" d="M322.749,397.617c1.091,1.073,2.224,2.22,2.624,3.697c0.4,1.477-0.26,3.357-1.743,3.734
							c-1.473,0.374-2.871-0.841-3.711-2.107c-0.759-1.144-1.338-2.569-0.901-3.87c0.436-1.301,2.311-2.072,3.248-1.07
							L322.749,397.617z"/>
					</g>
					<path style="fill:#FFFFFF;" d="M347.251,388.695c0.556-1.238,2.315-1.671,3.468-0.954c1.152,0.718,1.577,2.333,1.074,3.594
						c-0.503,1.261-1.797,2.116-3.147,2.263c-1.672,0.183-3.647-1.167-3.271-2.806c-0.721,0.95-2.015,1.326-3.201,1.209
						c-1.186-0.116-2.288-0.655-3.321-1.25c-1.403-0.807-2.899-2.056-2.752-3.668c0.118-1.285,1.361-2.273,2.645-2.392
						c1.284-0.119,2.549,0.477,3.53,1.315c0.771,0.658,1.411,1.47,2.245,2.047c0.834,0.577,1.967,0.885,2.86,0.405L347.251,388.695z
						"/>
				</g>
			</g>
		</g>
		<g>
			<g>
				<path style="fill:#407BFF;" d="M149.582,425.559c0,0-15.87-42.479-11.835-16.926c0,0-18.022-12.235-8.608,4.373
					c0,0-19.367-5.18-8.876,6.387c0,0-16.408,4.801-6.187,6.166C124.298,426.924,149.582,425.559,149.582,425.559z"/>
				<path style="opacity:0.2;fill:#FFFFFF;" d="M149.582,425.559c0,0-15.87-42.479-11.835-16.926c0,0-18.022-12.235-8.608,4.373
					c0,0-19.367-5.18-8.876,6.387c0,0-16.408,4.801-6.187,6.166C124.298,426.924,149.582,425.559,149.582,425.559z"/>
			</g>
			<g>
				<path style="fill:#407BFF;" d="M144.982,425.637c0,0,5.085-29.629,14.771-19.9c0,0,7.265-5.042,10.171,3.918
					c0,0,10.413-3.148,6.538,1.695c0,0,6.296,1.453,4.117,6.78c0,0,6.054,0,4.843,4.843
					C184.211,427.817,144.982,425.637,144.982,425.637z"/>
				<path style="opacity:0.3;fill:#FFFFFF;" d="M144.982,425.637c0,0,5.085-29.629,14.771-19.9c0,0,7.265-5.042,10.171,3.918
					c0,0,10.413-3.148,6.538,1.695c0,0,6.296,1.453,4.117,6.78c0,0,6.054,0,4.843,4.843
					C184.211,427.817,144.982,425.637,144.982,425.637z"/>
			</g>
		</g>
		<g>
			<g>
				<g>
					<g>
						<g>
							<g>
								<path style="fill:#407BFF;" d="M313.194,391.814c0.095,0.137-0.62,0.914,1.909,0.847c6.229-0.164,17.185-1.326,20.928-7.253
									c5.344-8.462-8.189-6.804-7.168-11.34c1.02-4.536,15.858-1.891,18.278-8.432c2.419-6.541-8.111-4.585-7.839-7.884
									c0.271-3.3,11.693,0.18,14.908-6.801c3.215-6.982-6.269-2.722-4.881-5.618c1.387-2.896,12.951-15.345,7.774-17.596
									c-5.178-2.251-15.963,10.658-19.701,12.214c-3.739,1.556-5.428-10.276-10.189-5.957c-4.761,4.32-0.247,22.048-5.963,24.673
									c-4.257,1.956-2.308-4.639-7.684-4.028C306.263,355.47,305.556,380.803,313.194,391.814z"/>
							</g>
						</g>
						<g style="opacity:0.5;">
							<path style="fill:#FFFFFF;" d="M313.194,391.814c0.095,0.137-0.62,0.914,1.909,0.847c6.229-0.164,17.185-1.326,20.928-7.253
								c5.344-8.462-8.189-6.804-7.168-11.34c1.02-4.536,15.858-1.891,18.278-8.432c2.419-6.541-8.111-4.585-7.839-7.884
								c0.271-3.3,11.693,0.18,14.908-6.801c3.215-6.982-6.269-2.722-4.881-5.618c1.387-2.896,12.951-15.345,7.774-17.596
								c-5.178-2.251-15.963,10.658-19.701,12.214c-3.739,1.556-5.428-10.276-10.189-5.957c-4.761,4.32-0.247,22.048-5.963,24.673
								c-4.257,1.956-2.308-4.639-7.684-4.028C306.263,355.47,305.556,380.803,313.194,391.814z"/>
						</g>
					</g>
					<g>
						<g>
							<g>
								<g>
									<g>
										<g>
											<g>
												<g>
													<g>
														<path style="fill:#407BFF;" d="M282.107,414.221c-0.011,0-0.022,0-0.033-0.001c-0.223-0.011-0.395-0.201-0.383-0.425
															c2.182-42.077,25.028-60.714,25.259-60.898c0.175-0.138,0.43-0.11,0.569,0.065c0.139,0.175,0.11,0.43-0.065,0.569
															c-0.228,0.182-22.792,18.615-24.954,60.305C282.488,414.05,282.315,414.215,282.107,414.221z"/>
													</g>
													<g>
														<path style="fill:#407BFF;" d="M301.885,359.077c-0.164,0.005-0.322-0.092-0.387-0.253
															c-0.084-0.207,0.016-0.443,0.223-0.527c0.146-0.059,3.646-1.441,9.596-0.606c0.221,0.031,0.376,0.236,0.345,0.457
															c-0.031,0.221-0.236,0.377-0.457,0.345c-5.719-0.801-9.147,0.542-9.181,0.555
															C301.978,359.066,301.931,359.076,301.885,359.077z"/>
													</g>
													<g>
														<path style="fill:#407BFF;" d="M297.797,364.455c-0.214,0.006-0.398-0.156-0.415-0.372
															c-1.006-12.609,5.609-22.977,5.676-23.081c0.121-0.188,0.372-0.241,0.56-0.119c0.188,0.121,0.241,0.372,0.12,0.56
															c-0.065,0.101-6.532,10.25-5.548,22.576c0.017,0.223-0.148,0.418-0.371,0.436
															C297.811,364.454,297.804,364.455,297.797,364.455z"/>
													</g>
													<g>
														<path style="fill:#407BFF;" d="M291.386,375.634c-0.102,0.003-0.205-0.032-0.286-0.107
															c-0.164-0.151-0.175-0.407-0.024-0.572c0.051-0.055,5.109-5.432,12.366-3.39c0.215,0.061,0.341,0.284,0.28,0.5
															c-0.061,0.215-0.284,0.341-0.499,0.28c-6.786-1.911-11.505,3.108-11.551,3.159
															C291.595,375.587,291.491,375.631,291.386,375.634z"/>
													</g>
													<g>
														<path style="fill:#407BFF;" d="M288.166,383.345c-0.151,0.004-0.299-0.077-0.372-0.22
															c-0.132-0.257-3.223-6.416-2.396-15.556c0.021-0.222,0.209-0.39,0.44-0.366c0.223,0.02,0.387,0.217,0.367,0.439
															c-0.805,8.894,2.279,15.053,2.31,15.114c0.102,0.199,0.023,0.443-0.176,0.545
															C288.283,383.329,288.224,383.344,288.166,383.345z"/>
													</g>
												</g>
											</g>
										</g>
									</g>
								</g>
							</g>
							<g>
								<path style="fill:#407BFF;" d="M223.3,401.934c-4.921,1.421-14.602-0.905-19.118-4.484c-4.582-3.631,5.64-3.359,3.712-6.658
									c-1.928-3.3-12.894,2.464-16.417-2.058c-3.523-4.522,5.213-5.609,4.18-8.127c-1.033-2.517-9.616,0.354-13.872-4.316
									c-4.256-4.67,4.234-3.692,2.426-5.616c-1.808-1.924-13.964-8.8-10.468-11.851c3.496-3.052,15.157,4.378,18.473,4.667
									c3.316,0.289,2.197-6.704,7.001-4.505c4.805,2.2,5.678,17.211,10.81,17.846c3.822,0.473,0.608-5.646,5.018-5.067
									C222.764,372.777,225.298,401.356,223.3,401.934z"/>
								<g style="opacity:0.2;">
									<path style="fill:#FFFFFF;" d="M223.3,401.934c-4.921,1.421-14.602-0.905-19.118-4.484
										c-4.582-3.631,5.64-3.359,3.712-6.658c-1.928-3.3-12.894,2.464-16.417-2.058c-3.523-4.522,5.213-5.609,4.18-8.127
										c-1.033-2.517-9.616,0.354-13.872-4.316c-4.256-4.67,4.234-3.692,2.426-5.616c-1.808-1.924-13.964-8.8-10.468-11.851
										c3.496-3.052,15.157,4.378,18.473,4.667c3.316,0.289,2.197-6.704,7.001-4.505c4.805,2.2,5.678,17.211,10.81,17.846
										c3.822,0.473,0.608-5.646,5.018-5.067C222.764,372.777,225.298,401.356,223.3,401.934z"/>
								</g>
							</g>
							<g>
								<g>
									<g>
										<path style="fill:#407BFF;" d="M233.872,430.658c-0.205,0.046-0.414-0.075-0.475-0.279l-3.347-10.573
											c-10.939-35.203-41.781-52.941-42.091-53.116c-0.195-0.11-0.264-0.357-0.154-0.552c0.111-0.195,0.357-0.263,0.551-0.154
											c0.313,0.177,31.429,18.063,42.467,53.586l3.349,10.576c0.064,0.214-0.058,0.44-0.272,0.504
											C233.891,430.654,233.881,430.656,233.872,430.658z"/>
									</g>
									<g>
										<path style="fill:#407BFF;" d="M201.577,377.393c-0.022,0.005-0.044,0.008-0.066,0.009
											c-0.036,0.002-0.083-0.004-0.126-0.013l-0.14-0.018c-3.549-0.48-7.304-0.222-10.572,0.722
											c-0.217,0.069-0.44-0.061-0.502-0.277c-0.062-0.215,0.062-0.439,0.276-0.501c3.375-0.973,7.247-1.241,10.906-0.746
											l0.144,0.019c0.026,0.002,0.051,0.007,0.076,0.014c0.174,0.037,0.309,0.188,0.319,0.375
											C201.904,377.177,201.767,377.351,201.577,377.393z"/>
									</g>
									<g>
										<path style="fill:#407BFF;" d="M206.246,381.062c-0.007,0.001-0.013,0.003-0.02,0.004c-0.22,0.038-0.43-0.111-0.467-0.33
											c-1.841-10.759-9.576-17.961-9.654-18.032c-0.165-0.151-0.176-0.407-0.025-0.572c0.153-0.165,0.408-0.176,0.572-0.025
											c0.08,0.073,8.015,7.453,9.905,18.492C206.594,380.813,206.455,381.016,206.246,381.062z"/>
									</g>
									<g>
										<path style="fill:#407BFF;" d="M211.424,386.204c-0.096,0.021-0.201,0.007-0.293-0.046
											c-0.05-0.03-5.053-2.892-10.447,0.193c-0.195,0.113-0.442,0.043-0.553-0.15c-0.111-0.194-0.044-0.441,0.15-0.553
											c5.813-3.328,11.041-0.318,11.26-0.188c0.192,0.114,0.256,0.361,0.143,0.554
											C211.626,386.115,211.53,386.181,211.424,386.204z"/>
									</g>
									<g>
										<path style="fill:#407BFF;" d="M218.608,395.036c-0.057,0.013-0.117,0.013-0.177,0c-0.218-0.05-0.355-0.266-0.305-0.484
											c0.013-0.06,1.308-6.026-1.315-13.441c-0.075-0.211,0.036-0.442,0.247-0.516c0.21-0.084,0.442,0.035,0.516,0.247
											c2.705,7.648,1.398,13.637,1.341,13.889C218.879,394.889,218.756,395.004,218.608,395.036z"/>
									</g>
								</g>
							</g>
						</g>
					</g>
					<g>
						<g>
							<g>
								<g>
									<g>
										<path style="fill:#407BFF;" d="M183.295,417.24c-0.016,0.004-0.033,0.007-0.05,0.008c-0.223,0.021-0.42-0.143-0.441-0.366
											c-0.009-0.073-0.128-0.856-0.363-2.202c-0.338-2.015-1.099-6.224-2.398-11.795c-0.017-0.102-0.036-0.167-0.055-0.24
											c-1.46-6.222-3.156-12.288-5.044-18.039c-1.758-5.364-3.713-10.518-5.81-15.319c-1.908-4.342-3.939-8.408-6.037-12.085
											c-0.007-0.01-0.013-0.02-0.019-0.031l-0.001,0c-0.33-0.576-0.669-1.151-1.008-1.725c-0.28-0.465-0.563-0.934-0.854-1.399
											c-0.749-1.209-1.442-2.37-2.061-3.454c-1.372-2.381-2.647-4.78-3.79-7.13c-0.693-1.409-1.339-2.803-1.92-4.142
											c-2.294-5.23-4.11-10.517-5.397-15.713c-0.526-2.118-0.967-4.252-1.31-6.339c-0.373-2.277-0.622-4.502-0.74-6.614
											c-0.006-0.159-0.016-0.305-0.025-0.445l-0.01-0.208c-0.019-0.096-0.004-0.2,0.051-0.29
											c0.116-0.191,0.364-0.253,0.556-0.136c0.126,0.076,0.199,0.222,0.2,0.367l0.002,0l0.009,0.214
											c0.01,0.148,0.02,0.301,0.026,0.46c0.116,2.076,0.362,4.272,0.73,6.521c0.34,2.066,0.776,4.178,1.297,6.275
											c1.276,5.152,3.077,10.395,5.353,15.585c0.576,1.328,1.217,2.711,1.905,4.11c1.135,2.334,2.402,4.716,3.765,7.083
											c0.615,1.077,1.303,2.23,2.046,3.429c0.292,0.469,0.577,0.94,0.862,1.412c0.341,0.577,0.679,1.152,1.01,1.728
											c0.007,0.01,0.014,0.022,0.02,0.033l0,0c2.114,3.703,4.159,7.797,6.08,12.169c2.108,4.826,4.072,10.003,5.838,15.391
											c1.896,5.773,3.598,11.862,5.06,18.094c0.024,0.087,0.047,0.177,0.064,0.28c1.299,5.566,2.063,9.794,2.403,11.816
											c0.24,1.37,0.364,2.19,0.371,2.263C183.63,417.013,183.492,417.197,183.295,417.24z"/>
									</g>
								</g>
								<g>
									<g>
										<g>
											<path style="fill:#407BFF;" d="M146.368,310.06c0.004-0.019,0.004-0.019,0.013-0.022c0.004-0.02,0.004-0.02,0.013-0.022
												c0.52-0.788,1.132-1.508,1.811-2.153c0.749-0.692,1.585-1.305,2.492-1.789"/>
											<path style="fill:#407BFF;" d="M146.454,310.452c-0.052,0.012-0.108,0.013-0.164,0.002
												c-0.219-0.043-0.362-0.253-0.32-0.472c0.009-0.049,0.029-0.096,0.056-0.14c0.009-0.017,0.019-0.033,0.03-0.048
												l-0.001-0.001c0.524-0.794,1.154-1.542,1.87-2.223c0.811-0.749,1.678-1.371,2.58-1.853
												c0.196-0.105,0.443-0.031,0.548,0.166c0.105,0.197,0.031,0.442-0.166,0.548c-0.841,0.449-1.651,1.031-2.408,1.729
												c-0.668,0.635-1.257,1.336-1.748,2.079c-0.003,0.003-0.005,0.007-0.007,0.01
												C146.667,310.353,146.568,310.427,146.454,310.452z"/>
										</g>
									</g>
								</g>
								<g>
									<g>
										<path style="fill:#407BFF;" d="M147.227,317.601c-0.089,0.02-0.185,0.01-0.272-0.035l-3.151-1.616
											c-0.199-0.102-0.277-0.346-0.175-0.545c0.102-0.198,0.345-0.278,0.545-0.175l3.151,1.616
											c0.199,0.102,0.277,0.346,0.175,0.545C147.442,317.502,147.34,317.576,147.227,317.601z"/>
									</g>
								</g>
								<g>
									<g>
										<path style="fill:#407BFF;" d="M159.604,350.831c-0.212,0.047-0.43-0.112-0.486-0.324l-0.002-0.009
											c-0.064-0.813-0.039-1.552,0.062-2.273c0.127-1.055,0.415-2.093,0.854-3.079c0.319-0.721,0.727-1.419,1.212-2.075
											c0.132-0.179,0.387-0.218,0.566-0.084c0.18,0.133,0.217,0.386,0.084,0.566c-0.449,0.607-0.827,1.253-1.122,1.921
											c-0.407,0.913-0.673,1.873-0.792,2.855c-0.094,0.673-0.118,1.355-0.07,2.035c0.058,0.216-0.076,0.404-0.292,0.462
											C159.613,350.828,159.608,350.83,159.604,350.831z"/>
									</g>
								</g>
								<g>
									<g>
										<path style="fill:#407BFF;" d="M163.536,357.391c-0.151,0.034-0.315-0.022-0.413-0.154
											c-1.109-1.498-2.877-2.502-4.731-2.687c-0.222-0.022-0.385-0.221-0.363-0.443c0.022-0.222,0.22-0.386,0.443-0.363
											c2.077,0.208,4.059,1.334,5.301,3.011c0.133,0.18,0.095,0.433-0.084,0.566
											C163.642,357.357,163.59,357.379,163.536,357.391z"/>
									</g>
								</g>
								<g>
									<g>
										<path style="fill:#407BFF;" d="M177.359,391.237c-1.122-0.796-2.809-4.518-3.716-6.518
											c-0.216-0.478-0.401-0.886-0.542-1.178"/>
										<path style="fill:#407BFF;" d="M177.447,391.632c-0.108,0.024-0.225,0.004-0.322-0.065
											c-1.118-0.792-2.574-3.864-3.85-6.68c-0.215-0.476-0.399-0.88-0.539-1.17c-0.098-0.201-0.013-0.443,0.188-0.541
											c0.199-0.102,0.443-0.013,0.541,0.188c0.143,0.294,0.329,0.705,0.547,1.188c0.827,1.826,2.548,5.623,3.581,6.354
											c0.183,0.13,0.226,0.383,0.096,0.564C177.629,391.555,177.542,391.611,177.447,391.632z"/>
									</g>
								</g>
							</g>
							<g>
								<path style="fill:#407BFF;" d="M155.829,343.717c-0.205,0.046-0.414-0.075-0.475-0.279
									c-0.191-0.635-4.582-15.644,2.472-23.601c0.149-0.167,0.405-0.182,0.572-0.034c0.167,0.148,0.183,0.404,0.034,0.572
									c-6.753,7.618-2.348,22.68-2.302,22.831c0.064,0.214-0.058,0.44-0.272,0.504
									C155.849,343.713,155.839,343.715,155.829,343.717z"/>
							</g>
							<g>
								<path style="fill:#407BFF;" d="M163.879,376.698c-0.146,3.903,9.461,8.68,9.461,8.68s9.938-4.045,10.084-7.948
									c0.146-3.903-4.041-9.101-9.438-9.303C168.589,367.924,164.025,372.795,163.879,376.698z"/>
								<path style="fill:#407BFF;" d="M143.524,335.272c2.012,3.563,10.097,4.308,10.097,4.308s3.536-7.309,1.523-10.872
									c-2.012-3.563-7.21-6.69-10.419-4.878C141.517,325.643,141.511,331.709,143.524,335.272z"/>
								<path style="fill:#407BFF;" d="M166.201,342.329c-0.782,0.986-1.59,1.996-2.678,2.629c-1.088,0.633-2.535,0.813-3.579,0.109
									c-1.294-0.873-1.501-2.706-1.247-4.246c0.504-3.05,3.817-8.886,7.668-8.5C171.925,332.879,168.004,340.055,166.201,342.329z
									"/>
								<path style="fill:#407BFF;" d="M157.732,352.03c0.882,0.643,1.863,1.488,1.766,2.576c-0.086,0.965-1.056,1.657-2.019,1.765
									c-0.962,0.108-1.913-0.224-2.825-0.551c-2.114-0.759-6.462-2.374-4.782-5.428
									C151.619,347.219,155.873,350.675,157.732,352.03z"/>
								<path style="fill:#407BFF;" d="M163.366,313.483c0.785-0.12,1.694,0.183,2.027,0.904c0.389,0.843-0.136,1.813-0.7,2.551
									c-1.403,1.838-5.733,6.944-7.872,3.713C154.801,317.598,160.946,313.854,163.366,313.483z"/>
								<g>
									<path style="fill:#407BFF;" d="M150.433,304.437c1.125-0.19,2.113-0.882,3.231-1.107c1.118-0.225,2.576,0.332,2.62,1.472
										c0.041,1.053-1.105,1.717-2.104,2.054c-1.705,0.574-3.485,0.923-5.281,1.033c-0.417,0.026-0.879,0.024-1.195-0.249
										c-0.62-0.536-0.149-1.603,0.546-2.038c0.694-0.435,1.569-0.587,2.151-1.164L150.433,304.437z"/>
								</g>
								<g>
									<path style="fill:#407BFF;" d="M141.738,314.862c-1.093,0.327-2.284,0.144-3.387,0.437
										c-1.103,0.293-2.163,1.437-1.698,2.479c0.43,0.963,1.751,1.051,2.796,0.911c1.783-0.239,3.534-0.715,5.193-1.41
										c0.385-0.161,0.799-0.367,0.961-0.752c0.319-0.755-0.576-1.503-1.391-1.586c-0.815-0.083-1.667,0.168-2.444-0.092
										L141.738,314.862z"/>
								</g>
							</g>
						</g>
						<g>
							<path style="fill:#407BFF;" d="M146.388,311.605c-0.009,0.002-0.019,0.004-0.028,0.005c-0.221,0.033-0.427-0.119-0.46-0.341
								c-0.328-2.198-1.022-4.225-1.456-4.253c-0.223-0.015-0.392-0.207-0.378-0.43c0.014-0.223,0.204-0.394,0.43-0.378
								c1.339,0.086,1.988,3.484,2.204,4.941C146.731,311.362,146.593,311.56,146.388,311.605z"/>
						</g>
						<g>
							<path style="fill:#407BFF;" d="M145.996,306.365c-1.066-1.315-2.205-2.684-3.785-3.291c-1.58-0.606-3.717-0.11-4.326,1.469
								c-0.68,1.766,0.999,3.722,2.859,4.067c1.861,0.345,3.73-0.411,5.471-1.151c-0.057-0.273-0.115-0.545-0.173-0.818
								L145.996,306.365z"/>
						</g>
					</g>
				</g>
			</g>
			<g>
				<g>
					<g>
						<g>
							<g>
								<g>
									<g>
										<g>
											<g>
												<g>
													<g>
														<path style="fill:#407BFF;" d="M309.397,403.507c-0.033-0.019-0.066-0.041-0.097-0.067
															c-0.268-0.223-0.306-0.621-0.082-0.889c14.685-17.683,30.713-20.044,30.874-20.066
															c0.345-0.047,0.662,0.196,0.711,0.541c0.047,0.345-0.195,0.664-0.54,0.712c-0.156,0.021-15.721,2.34-30.072,19.619
															C309.993,403.595,309.658,403.651,309.397,403.507z"/>
													</g>
													<g>
														<path style="fill:#407BFF;" d="M334.917,384.985c-0.225-0.125-0.359-0.382-0.318-0.65
															c0.054-0.344,0.375-0.581,0.719-0.528c0.109,0.017,2.697,0.433,5.923,3.024c0.272,0.219,0.316,0.616,0.098,0.889
															c-0.218,0.272-0.619,0.318-0.888,0.098c-2.94-2.357-5.302-2.758-5.325-2.762
															C335.05,385.045,334.98,385.02,334.917,384.985z"/>
													</g>
													<g>
														<path style="fill:#407BFF;" d="M330.705,386.686c-0.292-0.163-0.409-0.527-0.259-0.831
															c3.806-7.739,11.07-11.396,11.377-11.548c0.312-0.154,0.691-0.028,0.846,0.287c0.155,0.312,0.027,0.691-0.285,0.845
															c-0.072,0.036-7.191,3.63-10.803,10.973c-0.154,0.313-0.533,0.442-0.846,0.288
															C330.724,386.697,330.715,386.691,330.705,386.686z"/>
													</g>
													<g>
														<path style="fill:#407BFF;" d="M323.158,390.942c-0.139-0.077-0.25-0.207-0.298-0.372
															c-0.1-0.334,0.09-0.686,0.425-0.786c0.204-0.061,5.031-1.439,8.674,2.39c0.24,0.254,0.23,0.653-0.023,0.894
															c-0.253,0.241-0.652,0.231-0.893-0.023c-3.111-3.278-7.354-2.063-7.396-2.049
															C323.476,391.046,323.301,391.022,323.158,390.942z"/>
													</g>
													<g>
														<path style="fill:#407BFF;" d="M318.646,394.29c-0.206-0.115-0.339-0.341-0.323-0.592
															c0.012-0.198,0.35-4.919,4.031-10c0.205-0.281,0.596-0.355,0.882-0.14c0.283,0.204,0.346,0.599,0.141,0.882
															c-3.454,4.768-3.79,9.293-3.793,9.338c-0.023,0.349-0.324,0.612-0.672,0.59
															C318.816,394.362,318.726,394.334,318.646,394.29z"/>
													</g>
												</g>
											</g>
										</g>
									</g>
								</g>
								<g>
									<g>
										<path style="fill:#407BFF;" d="M314.15,397.639c0.008,0.118-0.692,0.279,0.832,1.26
											c3.754,2.418,10.665,6.166,14.987,4.246c6.17-2.741-2.446-7.241-0.234-9.455c2.213-2.214,10.079,5.303,13.832,2.494
											c3.753-2.81-3.187-5.925-1.856-7.725c1.331-1.8,6.873,4.821,11.255,2.078c4.382-2.743-2.754-4.104-0.904-5.221
											c1.85-1.116,13.123-3.656,10.849-7.048s-13.248-0.271-16.017-0.879c-2.77-0.608,0.422-8.137-3.933-7.558
											c-4.355,0.579-7.961,12.66-12.283,11.874c-3.219-0.586,0.275-3.616-3.131-5.431
											C322.92,373.81,313.52,388.186,314.15,397.639z"/>
									</g>
									<g style="opacity:0.3;">
										<path style="fill:#FFFFFF;" d="M314.15,397.639c0.008,0.118-0.692,0.279,0.832,1.26
											c3.754,2.418,10.665,6.166,14.987,4.246c6.17-2.741-2.446-7.241-0.234-9.455c2.213-2.214,10.079,5.303,13.832,2.494
											c3.753-2.81-3.187-5.925-1.856-7.725c1.331-1.8,6.873,4.821,11.255,2.078c4.382-2.743-2.754-4.104-0.904-5.221
											c1.85-1.116,13.123-3.656,10.849-7.048s-13.248-0.271-16.017-0.879c-2.77-0.608,0.422-8.137-3.933-7.558
											c-4.355,0.579-7.961,12.66-12.283,11.874c-3.219-0.586,0.275-3.616-3.131-5.431
											C322.92,373.81,313.52,388.186,314.15,397.639z"/>
									</g>
								</g>
							</g>
							<g>
								<g>
									<g>
										<path style="fill:#407BFF;" d="M308.706,403.752c-0.245-0.136-0.377-0.424-0.304-0.709
											c4.814-18.829-0.764-35.46-0.82-35.626c-0.114-0.33,0.063-0.69,0.392-0.803c0.332-0.113,0.691,0.062,0.803,0.392
											c0.058,0.169,5.76,17.141,0.849,36.351c-0.086,0.338-0.43,0.542-0.768,0.455
											C308.803,403.798,308.753,403.778,308.706,403.752z"/>
									</g>
									<g>
										<path style="fill:#407BFF;" d="M309.815,379.074c-0.036-0.02-0.071-0.043-0.103-0.071
											c-0.033-0.028-0.067-0.065-0.097-0.104l-0.054-0.063c-1.536-1.79-3.497-3.303-5.519-4.268
											c-0.309-0.145-0.45-0.527-0.299-0.843c0.15-0.315,0.527-0.448,0.842-0.298c2.176,1.04,4.286,2.667,5.935,4.586
											c0.012,0.014,0.034,0.042,0.058,0.072c0.222,0.231,0.237,0.597,0.025,0.846
											C310.405,379.165,310.073,379.218,309.815,379.074z M310.58,378.086c0.035,0.045,0.073,0.094,0.086,0.117
											C310.643,378.162,310.614,378.122,310.58,378.086z M310.532,378.041c0.001,0,0.001,0.001,0.002,0.001
											C310.533,378.041,310.532,378.041,310.532,378.041z"/>
									</g>
									<g>
										<path style="fill:#407BFF;" d="M310.525,383.003c-0.009-0.005-0.018-0.01-0.027-0.016
											c-0.297-0.184-0.387-0.574-0.203-0.87c3.807-6.118,3.151-13.078,3.145-13.148c-0.035-0.348,0.217-0.658,0.564-0.693
											c0.344-0.034,0.657,0.216,0.693,0.564c0.031,0.301,0.714,7.448-3.329,13.945
											C311.189,383.072,310.817,383.166,310.525,383.003z"/>
									</g>
									<g>
										<path style="fill:#407BFF;" d="M310.832,387.898c-0.134-0.075-0.242-0.198-0.294-0.355
											c-0.047-0.142-1.197-3.514-5.07-4.326c-0.343-0.07-0.559-0.407-0.489-0.748c0.071-0.342,0.406-0.56,0.748-0.489
											c4.607,0.961,5.957,5.003,6.013,5.174c0.107,0.332-0.075,0.686-0.406,0.794
											C311.16,388.004,310.98,387.981,310.832,387.898z"/>
									</g>
									<g>
										<path style="fill:#407BFF;" d="M310.5,395.547c-0.079-0.044-0.149-0.105-0.206-0.184
											c-0.203-0.283-0.139-0.677,0.144-0.882c0.033-0.023,3.268-2.396,5.216-7.187c0.131-0.324,0.5-0.479,0.823-0.347
											c0.328,0.121,0.479,0.5,0.347,0.823c-2.092,5.148-5.505,7.635-5.65,7.739C310.97,395.656,310.707,395.662,310.5,395.547z"
											/>
									</g>
								</g>
								<g>
									<path style="fill:#407BFF;" d="M309.954,400.794c-3.108-1.482-6.936-6.974-7.608-10.788
										c-0.682-3.871,4.334,0.829,4.839-1.69c0.504-2.519-7.582-4.518-7.334-8.363c0.248-3.846,5.125-0.492,5.729-2.219
										c0.604-1.727-4.992-4.115-5.046-8.362c-0.055-4.247,3.776,0.034,3.727-1.74c-0.05-1.774-3.091-10.658,0.029-10.631
										c3.12,0.027,5.665,8.967,7.203,10.593c1.538,1.626,4.097-2.39,5.53,0.861c1.433,3.251-4.829,11.187-2.533,13.796
										c1.71,1.944,2.826-2.566,4.784-0.307C322.701,385.898,311.216,401.395,309.954,400.794z"/>
									<g style="opacity:0.2;">
										<path style="fill:#FFFFFF;" d="M309.954,400.794c-3.108-1.482-6.936-6.974-7.608-10.788
											c-0.682-3.871,4.334,0.829,4.839-1.69c0.504-2.519-7.582-4.518-7.334-8.363c0.248-3.846,5.125-0.492,5.729-2.219
											c0.604-1.727-4.992-4.115-5.046-8.362c-0.055-4.247,3.776,0.034,3.727-1.74c-0.05-1.774-3.091-10.658,0.029-10.631
											c3.12,0.027,5.665,8.967,7.203,10.593c1.538,1.626,4.097-2.39,5.53,0.861c1.433,3.251-4.829,11.187-2.533,13.796
											c1.71,1.944,2.826-2.566,4.784-0.307C322.701,385.898,311.216,401.395,309.954,400.794z"/>
									</g>
								</g>
							</g>
						</g>
					</g>
				</g>
			</g>
		</g>
		<g>
			<g>
				<path style="fill:#407BFF;" d="M225.643,404.505c0.085,0.062-0.203,0.629,1.33,0.15c3.777-1.18,10.252-3.752,11.401-7.782
					c1.64-5.754-6.315-2.449-6.564-5.212c-0.249-2.763,9.332-3.843,9.553-7.992c0.221-4.149-5.84-1.198-6.309-3.126
					c-0.469-1.928,7.184-1.936,7.806-6.475c0.623-4.539-4.356-0.458-4.065-2.35c0.291-1.892,4.967-11.003,1.369-11.382
					c-3.599-0.38-7.71,8.857-9.696,10.395c-1.987,1.539-5.295-4.909-7.375-1.618c-2.08,3.292,4.089,12.606,1.099,15.099
					c-2.227,1.857-2.303-2.241-5.472-0.955C214.416,385.004,218.855,399.564,225.643,404.505z"/>
			</g>
			<g style="opacity:0.3;">
				<path style="fill:#FFFFFF;" d="M225.643,404.505c0.085,0.062-0.203,0.629,1.33,0.15c3.777-1.18,10.252-3.752,11.401-7.782
					c1.64-5.754-6.315-2.449-6.564-5.212c-0.249-2.763,9.332-3.843,9.553-7.992c0.221-4.149-5.84-1.198-6.309-3.126
					c-0.469-1.928,7.184-1.936,7.806-6.475c0.623-4.539-4.356-0.458-4.065-2.35c0.291-1.892,4.967-11.003,1.369-11.382
					c-3.599-0.38-7.71,8.857-9.696,10.395c-1.987,1.539-5.295-4.909-7.375-1.618c-2.08,3.292,4.089,12.606,1.099,15.099
					c-2.227,1.857-2.303-2.241-5.472-0.955C214.416,385.004,218.855,399.564,225.643,404.505z"/>
			</g>
		</g>
		<g>
			<g>
				<g>
					<g>
						<g>
							<g>
								<g>
									<path style="fill:#407BFF;" d="M226.934,411.07c-0.032,0.012-0.066,0.022-0.1,0.028c-0.304,0.056-0.596-0.145-0.651-0.449
										c-3.686-20.033,3.812-32.276,3.889-32.398c0.164-0.261,0.51-0.339,0.772-0.176c0.262,0.164,0.341,0.51,0.177,0.772
										c-0.074,0.118-7.339,12.022-3.737,31.599C227.333,410.716,227.181,410.976,226.934,411.07z"/>
								</g>
								<g>
									<path style="fill:#407BFF;" d="M228.832,383.192c-0.213,0.082-0.464,0.027-0.623-0.153
										c-0.203-0.232-0.182-0.585,0.049-0.789c0.073-0.064,1.826-1.588,5.421-2.311c0.304-0.06,0.599,0.135,0.66,0.439
										c0.061,0.302-0.135,0.602-0.438,0.66c-3.273,0.661-4.887,2.04-4.903,2.053
										C228.948,383.135,228.891,383.169,228.832,383.192z"/>
								</g>
								<g>
									<path style="fill:#407BFF;" d="M227.596,387.023c-0.277,0.106-0.59-0.021-0.712-0.296
										c-3.102-6.985-1.463-14.002-1.393-14.298c0.073-0.3,0.373-0.486,0.676-0.412c0.3,0.072,0.486,0.374,0.413,0.674
										c-0.016,0.069-1.616,6.954,1.328,13.581c0.125,0.282-0.002,0.614-0.285,0.739
										C227.614,387.016,227.605,387.019,227.596,387.023z"/>
								</g>
								<g>
									<path style="fill:#407BFF;" d="M226.204,394.574c-0.132,0.051-0.282,0.052-0.422-0.009
										c-0.284-0.122-0.415-0.451-0.293-0.736c0.074-0.174,1.88-4.239,6.553-4.543c0.309-0.019,0.575,0.215,0.594,0.524
										c0.02,0.309-0.213,0.574-0.523,0.595c-3.997,0.254-5.58,3.83-5.595,3.867C226.455,394.416,226.34,394.522,226.204,394.574z
										"/>
								</g>
								<g>
									<path style="fill:#407BFF;" d="M225.919,399.544c-0.195,0.075-0.425,0.037-0.586-0.117
										c-0.128-0.121-3.147-3.033-4.512-8.422c-0.075-0.299,0.097-0.607,0.406-0.68c0.299-0.076,0.604,0.105,0.68,0.405
										c1.281,5.058,4.168,7.857,4.197,7.884c0.224,0.214,0.232,0.568,0.02,0.792C226.064,399.47,225.994,399.515,225.919,399.544
										z"/>
								</g>
							</g>
						</g>
					</g>
				</g>
			</g>
		</g>
		<g>
			<g>
				<g>
					<defs>
						<path id="XMLID_6_" d="M353.116,416.373c0,0,4.218-8.162,11.48-8.096c7.262,0.066,10.458-1.213,10.458-1.213
							S369.119,419.838,353.116,416.373z"/>
					</defs>
					<use xlink:href="#XMLID_6_"  style="overflow:visible;fill:#407BFF;"/>
					<clipPath id="XMLID_00000143607534834037389820000007855546205278679443_">
						<use xlink:href="#XMLID_6_"  style="overflow:visible;"/>
					</clipPath>
					<path style="opacity:0.2;clip-path:url(#XMLID_00000143607534834037389820000007855546205278679443_);fill:#FFFFFF;" d="
						M353.116,416.373c0,0,4.218-8.162,11.48-8.096c7.262,0.066,10.458-1.213,10.458-1.213S369.119,419.838,353.116,416.373z"/>
				</g>
				<g>
					<path style="fill:#407BFF;" d="M353.33,416.369c-0.114-0.033-0.216-0.105-0.284-0.213c-0.148-0.233-0.079-0.542,0.155-0.689
						c4.293-2.722,9.175-4.376,14.925-5.053c0.271-0.032,0.522,0.164,0.555,0.438c0.032,0.275-0.164,0.523-0.438,0.556
						c-5.598,0.659-10.343,2.264-14.506,4.903C353.61,416.391,353.463,416.408,353.33,416.369z"/>
				</g>
			</g>
			<g>
				<g>
					<g>
						<g>
							<defs>
								<path id="XMLID_5_" d="M351.894,422.842c0,0,4.503-13.648-3.519-21.69c-8.022-8.042-10.091-13.013-10.091-13.013
									S330.506,408.754,351.894,422.842z"/>
							</defs>
							<use xlink:href="#XMLID_5_"  style="overflow:visible;fill:#407BFF;"/>
							<clipPath id="XMLID_00000007424300583327069960000007997819346394666401_">
								<use xlink:href="#XMLID_5_"  style="overflow:visible;"/>
							</clipPath>
						</g>
						<g style="opacity:0.2;">
							<defs>
								<path id="XMLID_3_" style="opacity:0.2;" d="M351.894,422.842c0,0,4.503-13.648-3.519-21.69
									c-8.022-8.042-10.091-13.013-10.091-13.013S330.506,408.754,351.894,422.842z"/>
							</defs>
							<use xlink:href="#XMLID_3_"  style="overflow:visible;fill:#FFFFFF;"/>
							<clipPath id="XMLID_00000052785644840128436600000005108971734344967094_">
								<use xlink:href="#XMLID_3_"  style="overflow:visible;"/>
							</clipPath>
						</g>
					</g>
					<path style="fill:#407BFF;" d="M351.189,422.221c-0.17-0.049-0.308-0.187-0.35-0.371c-0.866-3.857-3.784-13.957-12.165-24.416
						c-0.173-0.215-0.138-0.53,0.077-0.702c0.215-0.172,0.531-0.139,0.703,0.078c8.512,10.621,11.48,20.897,12.361,24.822
						c0.06,0.27-0.109,0.537-0.378,0.597C351.351,422.247,351.267,422.243,351.189,422.221z"/>
				</g>
			</g>
			<g>
				<path style="fill:#407BFF;" d="M351.39,424.361c-0.256-0.074-0.411-0.338-0.346-0.6c5.498-22.33,8.025-27.028,8.13-27.216
					c0.134-0.241,0.437-0.322,0.678-0.195c0.241,0.134,0.329,0.438,0.197,0.679c-0.026,0.046-2.592,4.871-8.034,26.972
					c-0.066,0.268-0.336,0.431-0.605,0.366C351.403,424.364,351.397,424.363,351.39,424.361z"/>
			</g>
			<g>
				<path style="fill:#407BFF;" d="M358.121,380.599c-0.192,1.771,0.561,8.221,2.332,8.413c1.771,0.192,3.888-5.948,4.08-7.718
					c0.192-1.771-1.088-3.362-2.859-3.554C359.904,377.548,358.313,378.829,358.121,380.599z"/>
				<path style="fill:#407BFF;" d="M362.36,401.355c0.192-1.771-0.561-8.221-2.332-8.413c-1.771-0.192-3.888,5.947-4.08,7.718
					c-0.192,1.77,1.088,3.362,2.859,3.553C360.577,404.406,362.168,403.126,362.36,401.355z"/>
				<path style="fill:#407BFF;" d="M349.862,393.096c1.771,0.192,8.221-0.561,8.413-2.333c0.192-1.77-5.947-3.888-7.718-4.08
					c-1.771-0.192-3.362,1.088-3.553,2.859C346.812,391.314,348.091,392.905,349.862,393.096z"/>
				<path style="fill:#407BFF;" d="M370.618,388.858c-1.771-0.192-8.221,0.561-8.413,2.332c-0.192,1.771,5.947,3.888,7.718,4.08
					c1.77,0.192,3.362-1.088,3.553-2.859C373.669,390.641,372.389,389.049,370.618,388.858z"/>
				<path style="fill:#407BFF;" d="M351.403,385.137c1.117,1.388,6.21,5.416,7.598,4.3c1.388-1.117-1.456-6.955-2.572-8.342
					c-1.117-1.388-3.147-1.608-4.534-0.491C350.507,381.72,350.287,383.749,351.403,385.137z"/>
				<path style="fill:#407BFF;" d="M369.077,396.817c-1.116-1.388-6.21-5.416-7.598-4.299c-1.388,1.116,1.456,6.954,2.572,8.342
					c1.116,1.388,3.147,1.608,4.534,0.491C369.974,400.234,370.194,398.204,369.077,396.817z"/>
				<path style="fill:#407BFF;" d="M354.401,399.814c1.388-1.117,5.416-6.21,4.299-7.598c-1.116-1.388-6.954,1.456-8.342,2.573
					c-1.388,1.116-1.608,3.147-0.491,4.534C350.983,400.711,353.013,400.931,354.401,399.814z"/>
				<path style="fill:#407BFF;" d="M366.08,382.14c-1.388,1.116-5.416,6.21-4.299,7.598c1.117,1.388,6.955-1.456,8.342-2.573
					c1.388-1.117,1.608-3.146,0.491-4.534C369.498,381.243,367.468,381.024,366.08,382.14z"/>
				<path style="opacity:0.5;fill:#FFFFFF;" d="M358.121,380.599c-0.192,1.771,0.561,8.221,2.332,8.413
					c1.771,0.192,3.888-5.948,4.08-7.718c0.192-1.771-1.088-3.362-2.859-3.554C359.904,377.548,358.313,378.829,358.121,380.599z"/>
				<path style="opacity:0.5;fill:#FFFFFF;" d="M362.36,401.355c0.192-1.771-0.561-8.221-2.332-8.413
					c-1.771-0.192-3.888,5.947-4.08,7.718c-0.192,1.77,1.088,3.362,2.859,3.553C360.577,404.406,362.168,403.126,362.36,401.355z"/>
				<path style="opacity:0.5;fill:#FFFFFF;" d="M349.862,393.096c1.771,0.192,8.221-0.561,8.413-2.333
					c0.192-1.77-5.947-3.888-7.718-4.08c-1.771-0.192-3.362,1.088-3.553,2.859C346.812,391.314,348.091,392.905,349.862,393.096z"/>
				<path style="opacity:0.5;fill:#FFFFFF;" d="M370.618,388.858c-1.771-0.192-8.221,0.561-8.413,2.332
					c-0.192,1.771,5.947,3.888,7.718,4.08c1.77,0.192,3.362-1.088,3.553-2.859C373.669,390.641,372.389,389.049,370.618,388.858z"/>
				<path style="opacity:0.5;fill:#FFFFFF;" d="M351.403,385.137c1.117,1.388,6.21,5.416,7.598,4.3
					c1.388-1.117-1.456-6.955-2.572-8.342c-1.117-1.388-3.147-1.608-4.534-0.491C350.507,381.72,350.287,383.749,351.403,385.137z"
					/>
				<path style="opacity:0.5;fill:#FFFFFF;" d="M369.077,396.817c-1.116-1.388-6.21-5.416-7.598-4.299
					c-1.388,1.116,1.456,6.954,2.572,8.342c1.116,1.388,3.147,1.608,4.534,0.491C369.974,400.234,370.194,398.204,369.077,396.817z"
					/>
				<path style="opacity:0.5;fill:#FFFFFF;" d="M354.401,399.814c1.388-1.117,5.416-6.21,4.299-7.598
					c-1.116-1.388-6.954,1.456-8.342,2.573c-1.388,1.116-1.608,3.147-0.491,4.534C350.983,400.711,353.013,400.931,354.401,399.814z
					"/>
				<path style="opacity:0.5;fill:#FFFFFF;" d="M366.08,382.14c-1.388,1.116-5.416,6.21-4.299,7.598
					c1.117,1.388,6.955-1.456,8.342-2.573c1.388-1.117,1.608-3.146,0.491-4.534C369.498,381.243,367.468,381.024,366.08,382.14z"/>
				<path style="fill:#FFFFFF;" d="M356.443,390.566c-0.227,2.097,1.288,3.981,3.385,4.208c2.097,0.227,3.981-1.288,4.209-3.385
					c0.227-2.097-1.289-3.982-3.386-4.209C358.555,386.953,356.671,388.468,356.443,390.566z"/>
			</g>
		</g>
	</g>
</g>
<g id="Hand">
	<g>
		<path style="fill:#FF8A7B;" d="M255.964,176.935l63.32,68.746c21.986-1.103,33.811-16.495,33.512-48.938l-79.219-51.772
			L255.964,176.935z"/>
		<path style="opacity:0.2;" d="M265.914,171.268l20.539,30.354c13.508-6.675,22.376-17.003,27.624-30.184l4.073,2.529
			c-5.154,13.304-15.125,23.845-28.44,32.468l10.858,16.047c17.219-7.451,28.532-20.236,34.811-37.565l3.548,2.762
			c-5.076,17.93-16.802,31.024-35.474,39.067l4.458,6.588L260.4,181.75L265.914,171.268z"/>
		<path style="fill:#FF8A7B;" d="M261.69,180.96c-11.663,7.348-25.434,10.496-39.743,12.967l-14.314-21.387l3.179-15.598
			c7.35-3.879,12.306-8.413,12.651-14.209l53.23,8.438C278.446,163.121,271.224,172.954,261.69,180.96z"/>
		<path style="fill:#FF8A7B;" d="M210.811,156.942c-6.148,2.187-11.911,4.393-15.788,6.694c-1.463-2.855-3.212-5.56-5.431-8.02
			c3.473-12.072-3.987-20.492-9.073-13.672c0.605,2.399-2.168,18.155-2.168,18.155c4.247,7.628,8.22,13.849,10.988,13.893
			c6.422,0.142,13.637-2.122,21.156-5.305C211.283,164.393,211.439,160.449,210.811,156.942z"/>
		<path style="opacity:0.2;" d="M184.473,169.986l6.193,0.839l20.533-7.704l-0.704,6.694l-23.039,3.383
			C186.287,172.263,185.329,171.164,184.473,169.986z"/>
		<path style="fill:#FF8A7B;" d="M210.996,165.243c-6.25,2.534-12.984,4.443-19.194,6.96l-19.872,4.547
			c-4.47-1.997-27.624,1.274-17.893,11.704c5.581-0.021,13.842,0.704,18.398-1.431c6.133-0.318,13.409-1.546,21.219-3.2
			l17.682-6.231C212.345,171.695,213.104,167.333,210.996,165.243z"/>
		<path style="opacity:0.2;" d="M212.205,171.868c-5.541,0.95-11.386,3.312-17.409,6.506c-5.413,0.977-10.567,2.294-15.371,4.071
			c-8.15-0.51-15.03,1.137-20.082,6.111l2.014-0.001l50.465-12.931L212.205,171.868z"/>
		<path style="fill:#FF8A7B;" d="M212.326,173.614c-6.795,2.034-13.191,4.125-16.672,6.631c-6.376,1.156-12.633,2.328-15.914,3.915
			c-11.397,0.427-20.963,1.829-19.387,9.157c2.517,4.929,12.384,3.351,21.471,2.463l17.114-3.852l16.104-5.747
			C215.524,179.986,215.543,174.461,212.326,173.614z"/>
		<path style="opacity:0.2;" d="M215.131,182.276c-4.437,1.148-8.636,2.957-12.551,5.558l-11.788,2.358
			c-7.142-1.07-12.125,3.05-13.738,6.076l1.139-0.116l36.669-6.88L215.131,182.276z"/>
		<path style="fill:#FF8A7B;" d="M215.277,183.582c-5.986,2.482-10.694,4.398-12.676,6.072c-4.46,0.577-8.87,1.165-11.367,2.147
			c-9.193,0.711-15.013,3.104-14.083,8.862c1.732,3.472,9.749,2.049,16.84,1.347l12.967-2.379l14.988-5.705
			C220.872,188.872,217.924,185.315,215.277,183.582z"/>
		<path style="opacity:0.2;" d="M184.701,139.701c6.378,7.452,3.986,13.442,2.814,16.852c3.186,3.098,4.539,5.512,5.297,7.705
			l-0.505,4.072c1.085-0.86,2.088-2.042,2.715-4.694l-5.431-8.02C190.302,152.24,193.037,143.68,184.701,139.701z"/>
		<path style="fill:#FF8A7B;" d="M224.641,147.785c-2.159-2.442-4.914-5.085-5.221-6.905c-2.477-0.395-4.666-0.586-6.904-1.873
			c-5.052,1.642-22.314,7.4-24.786-1.663c-0.727-1.21,0.447-4.916,2.746-6.041c3.31-1.241,18.572-6.957,21.535-6.505l22.229,1.937
			c18.527,1.921,40.164,13.147,42.452,24.436l-16.854,1.161C250.717,153.775,238.28,151.46,224.641,147.785z"/>
		<path style="opacity:0.2;" d="M213.105,135.557c1.431,1.798,5.563,2.053,8.841,1.672c2.905,2.273,9.389,7.578,9.389,7.578
			c7.556,5.181,21.943,6.467,35.968,7.959c-13.242,0.617-26.641-0.224-40.399-4.382c-0.492,0.489-7.033-4.586-7.483-7.504
			c-2.564-0.266-4.947-0.779-6.904-1.874c-3.922,1.363-8.359,2.44-12.967,3.422C204.828,140.865,210.097,137.232,213.105,135.557z"
			/>
		<path style="fill:#263238;" d="M299.866,162.151c0,0,7.812-4.48,11.011-1.908c3.2,2.572,0.707,15.852-9.649,26.764
			c-7.421,7.819-25.294,21.272-29.168,17.319c-3.873-3.953-0.075-9.849-0.075-9.849l-2.853-3.315c0,0-7.56,9.743,0.065,16.616
			c5.978,5.389,26.154-6.782,35.185-17.354c13.12-15.359,16.424-30.297,10.368-34.682c-7.326-5.305-18.674,3.933-18.674,3.933
			L299.866,162.151z"/>
		<path style="fill:#263238;" d="M322.579,176.964c0,0,4.667-3.126,7.867-0.555c3.2,2.572,2.661,15.118-8.453,27.748
			c-13.845,15.733-26.048,19.8-30.364,16.335c-3.801-3.052-1.706-6.668-1.706-6.668l-3.572-3.905c0,0-4.964,7.457,2.415,14.025
			c6.013,5.351,21.363,0.662,37.133-16.672c12.766-14.031,14.477-30.979,8.42-35.365c-7.326-5.305-16.169,2.059-16.169,2.059
			L322.579,176.964z"/>
	</g>
</g>
<g id="Flower">
	<g>
		<g>
			<path style="fill:#407BFF;" d="M181.373,86.052c0,0-13.267,3.354-13.818,13.489c-0.551,10.135,14.387,21.788,14.387,21.788
				s14.938-11.591,13.687-25.886C194.924,88.715,181.373,86.052,181.373,86.052z"/>
			<path style="opacity:0.1;" d="M181.373,86.052c0,0-13.267,3.354-13.818,13.489c-0.551,10.135,14.387,21.788,14.387,21.788
				s14.938-11.591,13.687-25.886C194.924,88.715,181.373,86.052,181.373,86.052z"/>
		</g>
		<g>
			<g>
				<path style="fill:#407BFF;" d="M162.84,87.809c0,0-8.072,6.969-14.285,4.056c-6.213-2.913-8.332-15.26-8.332-15.26
					s12.008-7.569,18.366-3.001C164.947,78.172,162.84,87.809,162.84,87.809z"/>
				<path style="opacity:0.4;fill:#FFFFFF;" d="M162.84,87.809c0,0-8.072,6.969-14.285,4.056c-6.213-2.913-8.332-15.26-8.332-15.26
					s12.008-7.569,18.366-3.001C164.947,78.172,162.84,87.809,162.84,87.809z"/>
			</g>
			<g>
				<path style="fill:#407BFF;" d="M177.188,88.402c0,0-6.398-5.975-14.874-2.979c-8.475,2.996-12.533,14.067-12.533,14.067
					s11.872,6.983,21.694,2.94C181.298,98.388,177.188,88.402,177.188,88.402z"/>
				<path style="opacity:0.3;fill:#FFFFFF;" d="M177.188,88.402c0,0-6.398-5.975-14.874-2.979
					c-8.475,2.996-12.533,14.067-12.533,14.067s11.872,6.983,21.694,2.94C181.298,98.388,177.188,88.402,177.188,88.402z"/>
			</g>
			<g>
				<path style="fill:#407BFF;" d="M200.621,87.809c0,0,8.072,6.969,14.285,4.056c6.213-2.913,8.332-15.26,8.332-15.26
					s-12.008-7.569-18.366-3.001C198.514,78.172,200.621,87.809,200.621,87.809z"/>
				<path style="opacity:0.4;fill:#FFFFFF;" d="M200.621,87.809c0,0,8.072,6.969,14.285,4.056c6.213-2.913,8.332-15.26,8.332-15.26
					s-12.008-7.569-18.366-3.001C198.514,78.172,200.621,87.809,200.621,87.809z"/>
			</g>
			<g>
				<path style="fill:#407BFF;" d="M186.274,88.402c0,0,6.398-5.975,14.874-2.979c8.475,2.996,12.533,14.067,12.533,14.067
					s-11.872,6.983-21.694,2.94C182.164,98.388,186.274,88.402,186.274,88.402z"/>
				<path style="opacity:0.3;fill:#FFFFFF;" d="M186.274,88.402c0,0,6.398-5.975,14.874-2.979
					c8.475,2.996,12.533,14.067,12.533,14.067s-11.872,6.983-21.694,2.94C182.164,98.388,186.274,88.402,186.274,88.402z"/>
			</g>
		</g>
		<g>
			<path style="fill:#407BFF;" d="M181.583,26.469c-1.38,0-2.145,0.623-2.145,2.032s2.145,5.891,2.145,5.891
				s2.382-4.995,2.382-5.891C183.966,27.604,182.964,26.469,181.583,26.469z"/>
			<path style="fill:#407BFF;" d="M219.07,41.899c-0.976-0.976-1.957-1.077-2.954-0.08c-0.996,0.996-2.649,5.683-2.649,5.683
				s5.217-1.847,5.851-2.481C219.952,44.386,220.046,42.875,219.07,41.899z"/>
			<path style="fill:#407BFF;" d="M144.333,116.971c0.976,0.976,1.958,1.077,2.954,0.08c0.996-0.996,2.649-5.683,2.649-5.683
				s-5.216,1.847-5.85,2.481C143.452,114.484,143.358,115.995,144.333,116.971z"/>
			<path style="fill:#407BFF;" d="M234.668,79.316c0-1.38-0.623-2.145-2.032-2.145c-1.409,0-5.891,2.145-5.891,2.145
				s4.995,2.382,5.891,2.382S234.668,80.696,234.668,79.316z"/>
			<path style="fill:#407BFF;" d="M128.736,79.553c0,1.38,0.623,2.145,2.032,2.145c1.409,0,5.891-2.145,5.891-2.145
				s-4.995-2.382-5.891-2.382S128.736,78.173,128.736,79.553z"/>
			<path style="fill:#407BFF;" d="M219.238,116.803c0.976-0.976,1.076-1.957,0.08-2.954c-0.996-0.996-5.683-2.649-5.683-2.649
				s1.847,5.216,2.481,5.851C216.751,117.685,218.262,117.779,219.238,116.803z"/>
			<path style="fill:#407BFF;" d="M144.166,42.066c-0.976,0.976-1.077,1.958-0.08,2.954c0.996,0.996,5.683,2.649,5.683,2.649
				s-1.847-5.216-2.481-5.85C146.653,41.184,145.142,41.09,144.166,42.066z"/>
		</g>
		<g>
			<g>
				<path style="fill:#407BFF;" d="M173.195,73.577c0,0-8.548-1.327-9.881-9.288c-1.333-7.96,7.404-10.342,7.404-10.342
					c0.167,5.276,4.875,4.799,7.497,8.69C181.785,67.935,173.195,73.577,173.195,73.577z"/>
				<path style="opacity:0.4;fill:#FFFFFF;" d="M173.195,73.577c0,0-8.548-1.327-9.881-9.288c-1.333-7.96,7.404-10.342,7.404-10.342
					c0.167,5.276,4.875,4.799,7.497,8.69C181.785,67.935,173.195,73.577,173.195,73.577z"/>
			</g>
			<g>
				<path style="fill:#407BFF;" d="M190.267,73.577c0,0,8.548-1.327,9.881-9.288c1.333-7.96-7.404-10.342-7.404-10.342
					c-0.167,5.276-4.875,4.799-7.497,8.69C181.677,67.935,190.267,73.577,190.267,73.577z"/>
				<path style="opacity:0.4;fill:#FFFFFF;" d="M190.267,73.577c0,0,8.548-1.327,9.881-9.288c1.333-7.96-7.404-10.342-7.404-10.342
					c-0.167,5.276-4.875,4.799-7.497,8.69C181.677,67.935,190.267,73.577,190.267,73.577z"/>
			</g>
			<g>
				<path style="fill:#407BFF;" d="M200.287,93.653l-39.233-0.624c0,0,7.394,10.661,21.022,10.661S200.287,93.653,200.287,93.653z"
					/>
				<path style="opacity:0.2;" d="M200.287,93.653l-39.233-0.624c0,0,7.394,10.661,21.022,10.661S200.287,93.653,200.287,93.653z"/>
			</g>
			<g>
				<path style="fill:#407BFF;" d="M154.408,57.402c0,0-6.44,20.599-1.67,29.358c4.771,8.759,20.402,7.91,20.402,7.91
					s8.636-9.606,4.124-20.569C172.753,63.138,154.408,57.402,154.408,57.402z"/>
				<path style="opacity:0.2;fill:#FFFFFF;" d="M154.408,57.402c0,0-6.44,20.599-1.67,29.358c4.771,8.759,20.402,7.91,20.402,7.91
					s2.131-2.37,3.722-6.099c1.613-3.779,2.673-8.953,0.402-14.47C172.753,63.138,154.408,57.402,154.408,57.402z"/>
			</g>
			<g>
				<path style="fill:#407BFF;" d="M209.053,57.402c0,0,6.44,20.599,1.669,29.358c-4.771,8.759-20.402,7.91-20.402,7.91
					s-8.636-9.606-4.124-20.569C190.709,63.138,209.053,57.402,209.053,57.402z"/>
				<path style="opacity:0.2;fill:#FFFFFF;" d="M209.053,57.402c0,0,6.44,20.599,1.669,29.358c-4.771,8.759-20.402,7.91-20.402,7.91
					s-2.131-2.37-3.722-6.099c-1.613-3.779-2.673-8.953-0.402-14.47C190.709,63.138,209.053,57.402,209.053,57.402z"/>
			</g>
			<g>
				<path style="fill:#407BFF;" d="M183.243,100.684c0,0,18.244-4.475,18.845-18.62c0.601-14.145-20.185-30.653-20.185-30.653
					s-20.42,15.952-18.469,35.936C164.512,96.753,183.243,100.684,183.243,100.684z"/>
				<path style="opacity:0;fill:#FFFFFF;" d="M183.243,100.684c0,0,18.244-4.475,18.845-18.62
					c0.601-14.145-20.185-30.653-20.185-30.653s-20.42,15.952-18.469,35.936C164.512,96.753,183.243,100.684,183.243,100.684z"/>
			</g>
		</g>
		<path style="fill:#263238;" d="M182.275,103.69c0.563,24.829,6.606,46.431,24.517,64.375c8.223,8.552,17.753,15.772,26.131,24.251
			c8.486,8.469,16.27,17.844,22.12,28.316l-0.33,0.226c-7.638-9.141-15.78-17.653-24.562-25.658
			c-17.218-15.977-37.07-32.451-43.999-55.96c-3.593-11.498-4.518-23.591-4.277-35.551
			C181.875,103.69,182.275,103.69,182.275,103.69L182.275,103.69z"/>
		<path style="opacity:0.4;fill:#FFFFFF;" d="M182.275,103.69c0.563,24.829,6.606,46.431,24.517,64.375
			c8.223,8.552,17.753,15.772,26.131,24.251c8.486,8.469,16.27,17.844,22.12,28.316l-0.33,0.226
			c-7.638-9.141-15.78-17.653-24.562-25.658c-17.218-15.977-37.07-32.451-43.999-55.96c-3.593-11.498-4.518-23.591-4.277-35.551
			C181.875,103.69,182.275,103.69,182.275,103.69L182.275,103.69z"/>
	</g>
</g>
<g id="Character">
	<g>
		<ellipse style="fill:#263238;" cx="248.377" cy="406.21" rx="72.692" ry="18.753"/>
		<g>
			<g>
				<path style="fill:#FF8B7B;" d="M231.624,275.991c10.943-1.35,26.472-1.227,36.779,0.571c5.244,0.915,9.173,5.293,9.605,10.599
					c1.28,15.715-2.197,43.193-5.198,70.848c-24.243,8.134-48.852-0.11-48.852-0.11c-0.283-2.923,0.406-9.329,1.396-16.169
					c1.842-12.724,1.456-25.683-1.254-38.251c-0.968-4.489-1.913-9.214-2.647-14.194
					C220.495,282.792,225.11,276.795,231.624,275.991z"/>
			</g>
			<g>
				<g>
					<path style="fill:#407BFF;" d="M261.732,273.536l-37.071,43.756c0,0-0.987,31.315-2.356,40.235c0,0,4.57,8.227,26.584,7.716
						c22.014-0.51,26.661-6.004,26.661-6.004s4.181-16.062,4.181-32.163c0-16.101-6.591-51.993-6.591-51.993L261.732,273.536z"/>
				</g>
				<g style="opacity:0.1;">
					<path style="fill:#FFFFFF;" d="M261.732,273.536l-37.071,43.756c0,0-0.987,31.315-2.356,40.235c0,0,4.57,8.227,26.584,7.716
						c22.014-0.51,26.661-6.004,26.661-6.004s4.181-16.062,4.181-32.163c0-16.101-6.591-51.993-6.591-51.993L261.732,273.536z"/>
				</g>
			</g>
			<g>
				<path style="fill:#407BFF;" d="M313.911,413.53c-12.789,9.368-49.087-7.492-66.62-16.431
					c-17.532,8.932-53.831,25.8-66.627,16.431c-21.064-15.434,7.832-38.877,15.323-43.635c7.492-4.758,15.863-7.935,24.16-11.082
					c8.385-3.17,18.175,2.098,27.144,2.29c8.969-0.199,18.759-5.46,27.137-2.29c8.304,3.147,16.668,6.324,24.16,11.082
					C306.079,374.653,334.982,398.096,313.911,413.53z"/>
				<path style="opacity:0.1;fill:#FFFFFF;" d="M313.911,413.53c-12.789,9.368-49.087-7.492-66.62-16.431
					c-17.532,8.932-53.831,25.8-66.627,16.431c-21.064-15.434,7.832-38.877,15.323-43.635c7.492-4.758,15.863-7.935,24.16-11.082
					c8.385-3.17,18.175,2.098,27.144,2.29c8.969-0.199,18.759-5.46,27.137-2.29c8.304,3.147,16.668,6.324,24.16,11.082
					C306.079,374.653,334.982,398.096,313.911,413.53z"/>
			</g>
			<path style="opacity:0.2;" d="M248.929,380.19c-2.054-3.536-7.278-9.605-7.278-9.605l-3.311,0.696c0,0,3.767,6.237,4.545,9.886
				c-3.075-3.632-10.421-8.933-10.421-8.933l-3.196,0.238c0,0,7.067,5.596,9.58,9.348c-6.551-6.166-17.12-9.701-32.877-9.839
				c12.77,0.847,22.85,4.194,29.951,10.312c-18.895-0.763-37.347-1.366-46.566,1.369l54.206,15.312l3.73-1.875L248.929,380.19z"/>
			<path style="opacity:0.2;" d="M248.929,380.19c5.691-10.265,13.24-15.55,21.361-19.304c-7.851,5.37-13.263,9.556-16.201,17.87
				c5.959-7.879,12.575-11.025,20.907-14.807c-7.718,4.332-12.141,7.055-17.519,14.336c7.137-6.646,13.521-8.023,23.329-10.491
				c-8.988,3.311-13.571,4.528-19.946,10.645c14.143,0.294,26.835,0.937,35.464,2.554l1.028,11.548l-46.333,6.431l-2.089-1.044
				c-1.104-4.511-0.971-10.094,0.053-16.868L248.929,380.19z"/>
			<g>
				<g>
					<path style="fill:#FF8B7B;" d="M241.147,252.482c1.508,6.488,3.13,18.398-1.658,22.835c3.868,3.448,9.456,6.944,13.845,6.294
						c5.532-0.819,8.435-4.761,7.676-6.699c-7.819-1.589-7.568-6.982-6.321-12.069L241.147,252.482z"/>
					<path style="opacity:0.2;" d="M246.668,256.71l8.015,6.128c-0.3,1.204-0.526,2.423-0.591,3.606
						c-2.981-0.345-6.75-2.611-7.989-5.635C245.331,258.928,245.907,256.942,246.668,256.71z"/>
				</g>
				<g>
					<path style="fill:#FF8B7B;" d="M238.568,242.706c0.92,8.727,1.015,13.881,5.631,18.179c6.943,6.465,17.569,1.985,19.275-6.841
						c1.535-7.944-0.227-20.881-8.945-23.988C245.941,226.994,237.648,233.979,238.568,242.706z"/>
					<path style="fill:#263238;" d="M258.106,232.193c-1.518-0.589-1.334-0.56-2.807,0.125c-3.684-1.857-8.252-0.516-9.74-0.081
						c0.42,1.473,0.685,2.984,0.796,4.509c0.074,0.921,0.059,1.916-0.494,2.653c-0.56,0.751-1.54,1.039-2.276,1.613
						c-1.194,0.928-1.65,2.571-1.533,4.082c0.125,1.51,2.71,11.012-4.437,11.012c-1.061-1.591-4.713-7.555-4.757-9.471
						c-2.046-7.221,1.52-13.192,5.64-17.226c4.12-4.034,13.863-2.671,18.107-1.175C257.246,229.022,257.863,231.206,258.106,232.193
						z"/>
					<path style="fill:#FF5652;" d="M257.125,244.852c0,0,2.161,3.859,4.197,5.585c-1.092,1.337-3.29,1.092-3.29,1.092
						L257.125,244.852z"/>
					<path style="fill:#263238;" d="M255.938,255.295c-2.726-0.247-4.066-2.073-4.127-2.159c-0.067-0.094-0.046-0.224,0.048-0.292
						c0.094-0.067,0.225-0.046,0.292,0.048c0.016,0.021,1.581,2.142,4.699,2.005c0.116-0.004,0.213,0.085,0.218,0.2
						c0.005,0.116-0.085,0.213-0.2,0.218C256.542,255.33,256.232,255.322,255.938,255.295z"/>
					<path style="fill:#263238;" d="M254.4,246.195c-2.62,0.794-3.94-0.184-4.029-0.241c-0.098-0.062-0.126-0.191-0.065-0.289
						c0.062-0.098,0.191-0.127,0.289-0.065c0.022,0.014,1.662,1.18,4.501-0.116c0.105-0.048,0.23-0.002,0.278,0.103
						c0.048,0.105,0.002,0.229-0.104,0.277C254.973,246.001,254.683,246.109,254.4,246.195z"/>
					<path style="fill:#263238;" d="M263.023,245.174c-2.478,1.162-3.512,0.383-3.608,0.34c-0.105-0.047-0.153-0.171-0.106-0.276
						c0.047-0.106,0.171-0.153,0.277-0.106c0.024,0.011,1.4,0.929,4.024-0.761c0.097-0.062,0.227-0.035,0.289,0.063
						c0.063,0.097,0.035,0.227-0.063,0.289C263.562,244.899,263.29,245.048,263.023,245.174z"/>
					<path style="fill:#263238;" d="M250.509,241.553c-0.07-0.006-0.138-0.03-0.2-0.072c-0.19-0.131-0.238-0.392-0.107-0.583
						c1.316-1.907,3.249-1.878,3.331-1.876c0.232,0.006,0.414,0.199,0.408,0.43c-0.006,0.23-0.197,0.412-0.428,0.408l0,0
						c-0.064-0.001-1.571-0.008-2.621,1.514C250.803,241.503,250.654,241.566,250.509,241.553z"/>
					<path style="fill:#263238;" d="M263.35,241.297c-0.135-0.012-0.262-0.09-0.331-0.218c-0.88-1.626-2.379-1.782-2.443-1.788
						c-0.229-0.021-0.4-0.224-0.38-0.453c0.02-0.23,0.22-0.4,0.45-0.381c0.083,0.009,2.007,0.187,3.109,2.224
						c0.11,0.204,0.034,0.458-0.169,0.568C263.511,241.288,263.429,241.304,263.35,241.297z"/>
					<path style="fill:#263238;" d="M245.239,222.631c0,3.696-2.697,6.693-6.024,6.693c-3.327,0-6.024-2.996-6.024-6.693
						s2.697-6.693,6.024-6.693C242.542,215.938,245.239,218.934,245.239,222.631z"/>
					<path style="fill:#263238;" d="M258.034,236.606c0,0.789-0.64,1.429-1.429,1.429s-1.429-0.64-1.429-1.429
						c0-0.789,0.64-1.429,1.429-1.429S258.034,235.816,258.034,236.606z"/>
					<path style="fill:#FF8B7B;" d="M243.725,252.508c-0.273-2.479-1.973-6.128-4.824-6.247c-2.809-0.117-4.396,2.614-3.545,5.182
						c0.572,1.726,1.718,3.121,3.012,4.059c-0.051,0.122-0.104,0.243-0.146,0.37c-0.571,1.723,0.494,3.556,2.379,3.478
						c1.913-0.08,3.054-2.528,3.237-4.192C243.892,254.66,243.774,252.952,243.725,252.508z"/>
				</g>
			</g>
			<polygon style="opacity:0.2;" points="224.373,302.454 226.44,319.07 261.096,275.631 257.353,273.536 228.268,309.849 
				230.847,297.501 			"/>
			<path style="fill:#FF8B7B;" d="M221.327,284.655l-11.232,34.589c0,0-2.037,3.755,0.901,8.473c2.938,4.718,7.7,1.698,7.7,1.698
				l15.385-40.404c2.899-5.221-0.14-9.068-3.497-12.841C226.737,276.581,223.791,279.852,221.327,284.655z"/>
			<polygon style="opacity:0.2;" points="224.197,314.969 225.245,312.215 217.381,316.711 			"/>
			<g>
				<path style="fill:#407BFF;" d="M300.102,327.075c0,0-11.414-40.517-14.205-43.824c-2.792-3.307-3.422-6.307-12.756-8.169
					c-9.334-1.862,1.856,56.567,1.856,56.567L300.102,327.075z"/>
				<path style="opacity:0.2;fill:#FFFFFF;" d="M300.102,327.075c0,0-11.414-40.517-14.205-43.824
					c-2.792-3.307-3.422-6.307-12.756-8.169c-9.334-1.862,1.856,56.567,1.856,56.567L300.102,327.075z"/>
			</g>
			<path style="opacity:0.2;" d="M274.996,331.649c-1.067-10.175,0.295-21.292,3.233-33.02c-1.16,10.686-1.763,20.677,0,27.712
				c1.108-6.185,5.349-11.461,10.438-16.493c-4.445,6.317-7.903,12.203-7.709,16.493c8.214-1.605,11.767-0.85,14.868,0.133
				L274.996,331.649z"/>
			<path style="opacity:0.2;" d="M275.548,336.043l-0.552-4.394l-1.49-8.215l1.129-48.038l-4.481-0.951l-3.267,38.592l7.444,18.094
				l-17.02,9.823l6.465,10.762l-7.249,2.173l-0.498,0.422l8.474-1.386l4.578,8.532c2.026-1.021,4.128-1.878,6.469-2.221l0.653-2.758
				L275.548,336.043z"/>
			<g>
				<g>
					<g>
						<g>
							<path style="fill:#FF8B7B;" d="M246.999,379.672l-0.214,0.089l-0.207,0.089l-8.356,3.539
								c-0.022,0.008-0.044,0.015-0.067,0.022c-0.251,0.103-0.51,0.163-0.776,0.199c-0.14,0.022-0.281,0.03-0.421,0.03
								c-0.111,0.015-0.221,0.007-0.332,0h-0.059c-0.133-0.008-0.266-0.015-0.399-0.037c-0.044,0-0.081-0.007-0.118-0.007
								c-0.015,0-0.029-0.007-0.044-0.007c-0.214-0.03-0.428-0.059-0.635-0.089c-0.296-0.044-0.584-0.081-0.864-0.118
								c-5.682-0.732-7.189-0.355-13.58,0.85c-1.522,0.288-2.135-3.384,1.16-4.78c5.46-2.313,5.585-2.069,10.24-4.034
								c3.975-1.685,8.46-3.805,11.6-5.201c0.754-0.332,1.64,0.126,1.818,0.924l1.684,7.706
								C247.501,379.184,247.324,379.531,246.999,379.672z"/>
						</g>
					</g>
					<g>
						<polygon style="fill:#FF8B7B;" points="243.596,378.285 237.12,382.759 252.251,392.833 255.917,384.917 						"/>
						<g>
							<polygon style="opacity:0.2;" points="252.248,392.829 247.29,389.53 248.982,381.06 255.915,384.91 							"/>
						</g>
					</g>
				</g>
				<g>
					<path style="fill:#407BFF;" d="M313.953,384.246c5.837,5.031,9.838,13.572,9.361,21.017
						c-1.225,10.005-6.33,15.314-15.218,15.314c-14.049,0-53.178-14.228-53.178-14.228c-5.378-2.828-6.187-13.245-4.586-26.065
						C267.484,384.246,299.627,377.176,313.953,384.246z"/>
					<path style="opacity:0.2;fill:#FFFFFF;" d="M313.953,384.246c5.837,5.031,9.838,13.572,9.361,21.017
						c-1.225,10.005-6.33,15.314-15.218,15.314c-14.049,0-53.178-14.228-53.178-14.228c-5.378-2.828-6.187-13.245-4.586-26.065
						C267.484,384.246,299.627,377.176,313.953,384.246z"/>
				</g>
			</g>
			<path style="opacity:0.2;" d="M207.297,363.957l-1.433,0.646c0,0,11.75,9.93,27.704,7.48c15.954-2.45,16.158-4.426,18.629-6.96
				c2.472-2.535,6.79-21.376,6.79-21.376l-0.92-1.532L207.297,363.957z"/>
			<g>
				<path style="fill:#407BFF;" d="M257.844,273.43l16.122,0.313c0,0-17.951,85.648-23.811,91.522
					c-5.86,5.873-21.538,6.028-29.297,4.84c-7.759-1.188-14.173-7.007-14.173-7.007c7.226-2.111,12.514-6.32,14.193-10.903
					l2.337-34.904L257.844,273.43z"/>
				<path style="opacity:0.2;fill:#FFFFFF;" d="M257.844,273.43l16.122,0.313c0,0-17.951,85.648-23.811,91.522
					c-5.86,5.873-21.538,6.028-29.297,4.84c-7.759-1.188-14.173-7.007-14.173-7.007c7.226-2.111,12.514-6.32,14.193-10.903
					l2.337-34.904L257.844,273.43z"/>
			</g>
			<path style="opacity:0.2;" d="M263.262,273.743c0,0-10.683,19.177-12.244,25.852c-1.562,6.675,0,44.004,0,44.004l8.003-5.339
				l-0.278,1.868l15.588-8.997l-1.191-2.44l-8.2-54.721L263.262,273.743z"/>
			<g>
				<path style="fill:#407BFF;" d="M264.981,271.927c0,0-5.91,12.941-9.936,24.764c-4.027,11.822-2.602,43.921-2.602,43.921
					l20.698-11.92c0,0-1.982-16.288-1.353-28.727c0.629-12.44,1.353-26.745,1.353-26.745L264.981,271.927z"/>
				<path style="opacity:0.2;fill:#FFFFFF;" d="M264.981,271.927c0,0-5.91,12.941-9.936,24.764
					c-4.027,11.822-2.602,43.921-2.602,43.921l20.698-11.92c0,0-1.982-16.288-1.353-28.727c0.629-12.44,1.353-26.745,1.353-26.745
					L264.981,271.927z"/>
				<path style="opacity:0.3;" d="M254.36,339.508c0,0-2.118-31.241,3.747-31.241s-1.966,19.285,3.506,19.549
					c5.471,0.264,3.913-5.566,6.5-6.474c2.587-0.908,3.411,8.283,3.411,8.283L254.36,339.508z"/>
			</g>
			<g>
				<g>
					<polygon style="fill:#FF8B7B;" points="294.048,327.075 296.887,341.79 253.378,354.835 253.486,346.362 					"/>
				</g>
				<g>
					<path style="fill:#407BFF;" d="M258.171,340.955l13.277,17.957c0,0,25.932-12.433,28.791-17.957c2.859-5.525,0-13.88,0-13.88
						s-11.796-2.728-21.034,2.34C269.966,334.483,258.171,340.955,258.171,340.955z"/>
					<path style="opacity:0.2;fill:#FFFFFF;" d="M258.171,340.955l13.277,17.957c0,0,25.932-12.433,28.791-17.957
						c2.859-5.525,0-13.88,0-13.88s-11.796-2.728-21.034,2.34C269.966,334.483,258.171,340.955,258.171,340.955z"/>
				</g>
				<path style="fill:#FF8B7B;" d="M256.527,353.891c0,0-6.658,3.719-10.921,3.64c-4.263-0.079-5.56-0.931-5.56-0.931l-4.299-4.411
					l1.542-6.957l6.654-1.664l9.542,2.793l2.543,4.189L256.527,353.891z"/>
			</g>
			<path style="opacity:0.2;" d="M249.586,393.97l0.047-5.164l8.284-5.066l3.543,0.507l15.531-1.538c0,0,1.287,2.928-0.013,3.464
				c-0.798,0.329-12.649-1.763-13.408-0.868c-1.731,0.595-3.544,1.719-5.399,1.393L249.586,393.97z"/>
			<g>
				<g>
					<polygon style="fill:#FF8B7B;" points="252.555,379.423 259.031,383.896 243.9,393.97 240.234,386.054 					"/>
					<g>
						<polygon style="opacity:0.2;" points="243.903,393.966 248.758,390.736 248.758,381.367 240.236,386.047 						"/>
					</g>
				</g>
				<g>
					<g>
						<path style="fill:#FF8B7B;" d="M258.745,384.699l-8.772-3.715c-0.328-0.139-0.508-0.484-0.432-0.83l1.689-7.705
							c0.175-0.799,1.059-1.252,1.811-0.918c3.14,1.393,7.627,3.512,11.605,5.197c4.65,1.969,4.781,1.725,10.234,4.035
							c3.298,1.397,2.683,5.068,1.164,4.781c-6.915-1.307-8.111-1.64-15.077-0.641C260.21,385.01,259.438,384.993,258.745,384.699z"
							/>
					</g>
				</g>
			</g>
			<g>
				<path style="fill:#407BFF;" d="M248.202,380.946c-0.713,9.715-1.295,19.529-7.852,24.82c0,0-39.711,15.988-51.213,15.988
					c-11.502,0-17.083-5.241-21.114-14.906c-4.031-9.665,12.074-21.565,12.074-21.565
					C202.615,379.423,234.553,388.056,248.202,380.946z"/>
				<path style="opacity:0.2;fill:#FFFFFF;" d="M248.202,380.946c-0.713,9.715-1.295,19.529-7.852,24.82
					c0,0-39.711,15.988-51.213,15.988c-11.502,0-17.083-5.241-21.114-14.906c-4.031-9.665,12.074-21.565,12.074-21.565
					C202.615,379.423,234.553,388.056,248.202,380.946z"/>
			</g>
			<polygon style="opacity:0.2;" points="222.325,332.878 245.606,318.694 237.861,312.215 226.557,313.058 223.214,317.292 			"/>
			<g>
				<g>
					<path style="fill:#FF8B7B;" d="M210.446,319.244c1.547-1.866,33.496-8.706,33.496-8.706l6.213,6.354
						c0,0-26.765,10.57-31.108,12.522c-3.945,1.774-5.168,0.834-7.7-1.698C209.699,326.069,209.46,320.434,210.446,319.244z"/>
				</g>
				<g>
					<path style="fill:#FF8B7B;" d="M246.886,297.524l3.825,1.803l4.585,0.368l-0.832,7.036l-1.149,9.464
						c-2.042,0.63-4.077,1.045-6.069,0.297c-1.259-0.086-2.325-1.669-3.044-3.464C243.484,311.234,246.293,300.438,246.886,297.524z
						"/>
					<path style="fill:#FF8B7B;" d="M255.681,306.774c0.537-0.598,1.1-1.224,1.392-1.55c0.515-3.296,1.59-5.607,4.374-4.912
						c-0.236,2.472-0.436,5.318-0.827,6.146l-1.532,3.246c-1.675,2.857-3.686,4.78-5.774,6.491c-2.989,0.803-5.469-1.65-3.556-6.847
						c0.897-2.437,2.683-3.142,4.609-3.246C254.734,306.61,255.161,306.875,255.681,306.774z"/>
					<path style="fill:#FF8B7B;" d="M261.448,300.312c0,0-2.501-3.728-3.162-3.905c-0.661-0.177-6.172,0.742-6.661,1.273
						c-0.489,0.531-2.929,5.136-2.929,5.136c0.984,0.537,2.484,1.018,3.543,0.518c0.449-0.913,1.115-2.07,1.505-2.864
						c0.664-0.266,2.008-0.504,3.154-0.589C257.198,299.965,259.085,301.598,261.448,300.312z"/>
					<path style="fill:#FF8B7B;" d="M258.625,298.61c0,0-3.754-2.929-4.254-3.063c-0.5-0.134-7.145,1.532-7.485,1.976
						c-0.34,0.445-0.941,6.294-0.941,6.294c1.323,0.067,2.751,0.083,3.755-0.557c0.414-1.589,0.868-2.962,1.01-3.935
						c1.27-0.069,2.282-0.634,3.147-0.922C255.911,300.235,257.848,299.49,258.625,298.61z"/>
				</g>
			</g>
		</g>
		<g>
			<g>
				<path style="fill:#263238;" d="M187.582,422.195L177,421.23c-6.114,1.95-10.707,5.167-12.772,10.49l-6.382,1.39
					C169.138,435.084,181.609,432.17,187.582,422.195z"/>
				<path style="opacity:0.6;fill:#FFFFFF;" d="M187.582,422.195L177,421.23c-6.114,1.95-10.707,5.167-12.772,10.49l-6.382,1.39
					C169.138,435.084,181.609,432.17,187.582,422.195z"/>
			</g>
			<g>
				<path style="fill:#263238;" d="M198.882,425.985l-12.568-3.283c-6.559,2.859-11.064,7.782-16.391,14.168l-5.148,1.447
					C180.793,440.372,190.636,436.633,198.882,425.985z"/>
				<path style="opacity:0.6;fill:#FFFFFF;" d="M198.882,425.985l-12.568-3.283c-6.559,2.859-11.064,7.782-16.391,14.168
					l-5.148,1.447C180.793,440.372,190.636,436.633,198.882,425.985z"/>
			</g>
			<g>
				<path style="fill:#263238;" d="M214.089,424.963l-17.59,1.008c-11.226,9.072-4.757,12.764-2.84,17.742
					C201.706,439.68,214.091,443.712,214.089,424.963z"/>
				<path style="opacity:0.5;fill:#FFFFFF;" d="M214.089,424.963l-17.59,1.008c-11.226,9.072-4.757,12.764-2.84,17.742
					C201.706,439.68,214.091,443.712,214.089,424.963z"/>
			</g>
			<g>
				<path style="fill:#263238;" d="M302.492,424.876l10.458-1.622c6.108,1.444,10.742,4.193,12.928,9.109l6.359,0.895
					C321.102,435.885,308.671,433.949,302.492,424.876z"/>
				<path style="opacity:0.6;fill:#FFFFFF;" d="M302.492,424.876l10.458-1.622c6.108,1.444,10.742,4.193,12.928,9.109l6.359,0.895
					C321.102,435.885,308.671,433.949,302.492,424.876z"/>
			</g>
			<g>
				<path style="fill:#263238;" d="M293.978,421.804l12.958,0.013c5.421,3.54,8.276,8.259,11.486,14.276l4.489,2.163
					C307.019,436.593,298.723,431.707,293.978,421.804z"/>
				<path style="opacity:0.6;fill:#FFFFFF;" d="M293.978,421.804l12.958,0.013c5.421,3.54,8.276,8.259,11.486,14.276l4.489,2.163
					C307.019,436.593,298.723,431.707,293.978,421.804z"/>
			</g>
			<g>
				<path style="fill:#263238;" d="M276.956,422.721l17.59,1.081c11.226,9.728,4.757,13.687,2.84,19.023
					C289.339,438.501,276.954,442.825,276.956,422.721z"/>
				<path style="opacity:0.5;fill:#FFFFFF;" d="M276.956,422.721l17.59,1.081c11.226,9.728,4.757,13.687,2.84,19.023
					C289.339,438.501,276.954,442.825,276.956,422.721z"/>
			</g>
			<g>
				<path style="fill:#263238;" d="M232.323,423.838l-18.228,0.625c-15.066,10.102,0,14.268,2.237,17.809
					C221.751,437.793,241.369,442.272,232.323,423.838z"/>
				<path style="opacity:0.4;fill:#FFFFFF;" d="M232.323,423.838l-18.228,0.625c-15.066,10.102,0,14.268,2.237,17.809
					C221.751,437.793,241.369,442.272,232.323,423.838z"/>
			</g>
			<g>
				<path style="fill:#263238;" d="M258.728,423.285l18.228,0.662c15.066,10.708,0,15.124-2.237,18.878
					C269.3,438.078,249.683,442.825,258.728,423.285z"/>
				<path style="opacity:0.4;fill:#FFFFFF;" d="M258.728,423.285l18.228,0.662c15.066,10.708,0,15.124-2.237,18.878
					C269.3,438.078,249.683,442.825,258.728,423.285z"/>
			</g>
			<g>
				<path style="fill:#263238;" d="M259.943,425.802c-8.859-1.931-17.713-2.169-26.562-0.587
					c-13.766,17.912,6.535,12.757,12.587,19.374C252.135,437.54,269.976,443.127,259.943,425.802z"/>
				<path style="opacity:0.3;fill:#FFFFFF;" d="M259.943,425.802c-8.859-1.931-17.713-2.169-26.562-0.587
					c-13.766,17.912,6.535,12.757,12.587,19.374C252.135,437.54,269.976,443.127,259.943,425.802z"/>
			</g>
		</g>
		<g>
			<g>
				<path style="fill:#263238;" d="M307.304,424.173l10.233-4.435c5.021-6.195,8.169-13.388,8.205-22.238l5.47-5.532
					C319.957,395.333,309.337,406.43,307.304,424.173z"/>
				<path style="opacity:0.5;fill:#FFFFFF;" d="M307.304,424.173l10.233-4.435c5.021-6.195,8.169-13.388,8.205-22.238l5.47-5.532
					C319.957,395.333,309.337,406.43,307.304,424.173z"/>
			</g>
			<g>
				<path style="fill:#263238;" d="M294.79,426.356l12.903-2.104c5.074-7.067,7.486-15.785,10.133-26.832l4.272-4.507
					C306.425,398.375,298.61,408.261,294.79,426.356z"/>
				<path style="opacity:0.4;fill:#FFFFFF;" d="M294.79,426.356l12.903-2.104c5.074-7.067,7.486-15.785,10.133-26.832l4.272-4.507
					C306.425,398.375,298.61,408.261,294.79,426.356z"/>
			</g>
			<g>
				<path style="fill:#263238;" d="M277.883,427.46l17.59-1.578c11.226-14.201,4.757-19.98,2.84-27.771
					C290.266,404.423,277.881,398.112,277.883,427.46z"/>
				<path style="opacity:0.3;fill:#FFFFFF;" d="M277.883,427.46l17.59-1.578c11.226-14.201,4.757-19.98,2.84-27.771
					C290.266,404.423,277.881,398.112,277.883,427.46z"/>
			</g>
			<g>
				<path style="fill:#263238;" d="M184.668,424.173l-10.233-4.435c-5.021-6.195-8.169-13.388-8.205-22.238l-5.47-5.532
					C172.015,395.333,182.634,406.43,184.668,424.173z"/>
				<path style="opacity:0.5;fill:#FFFFFF;" d="M184.668,424.173l-10.233-4.435c-5.021-6.195-8.169-13.388-8.205-22.238l-5.47-5.532
					C172.015,395.333,182.634,406.43,184.668,424.173z"/>
			</g>
			<g>
				<path style="fill:#263238;" d="M197.293,426.356l-12.903-2.104c-5.074-7.067-7.486-15.785-10.133-26.832l-4.273-4.507
					C185.658,398.375,193.473,408.261,197.293,426.356z"/>
				<path style="opacity:0.4;fill:#FFFFFF;" d="M197.293,426.356l-12.903-2.104c-5.074-7.067-7.486-15.785-10.133-26.832
					l-4.273-4.507C185.658,398.375,193.473,408.261,197.293,426.356z"/>
			</g>
			<g>
				<path style="fill:#263238;" d="M215.016,427.46l-17.59-1.578c-11.226-14.201-4.757-19.98-2.84-27.771
					C202.633,404.423,215.018,398.112,215.016,427.46z"/>
				<path style="opacity:0.3;fill:#FFFFFF;" d="M215.016,427.46l-17.59-1.578c-11.226-14.201-4.757-19.98-2.84-27.771
					C202.633,404.423,215.018,398.112,215.016,427.46z"/>
			</g>
			<g>
				<path style="fill:#263238;" d="M259.649,427.46l18.228-0.947c15.066-15.305,0-21.617-2.237-26.982
					C270.22,406.317,250.603,399.532,259.649,427.46z"/>
				<path style="opacity:0.2;fill:#FFFFFF;" d="M259.649,427.46l18.228-0.947c15.066-15.305,0-21.617-2.237-26.982
					C270.22,406.317,250.603,399.532,259.649,427.46z"/>
			</g>
			<g>
				<path style="fill:#263238;" d="M233.243,427.46l-18.228-0.947c-15.066-15.305,0-21.617,2.237-26.982
					C222.672,406.317,242.289,399.532,233.243,427.46z"/>
				<path style="opacity:0.2;fill:#FFFFFF;" d="M233.243,427.46l-18.228-0.947c-15.066-15.305,0-21.617,2.237-26.982
					C222.672,406.317,242.289,399.532,233.243,427.46z"/>
			</g>
			<g>
				<path style="fill:#263238;" d="M232.029,426.461c8.859,2.768,17.713,3.109,26.562,0.842
					c13.766-25.675-6.535-18.286-12.587-27.771C239.837,409.635,221.996,401.628,232.029,426.461z"/>
				<path style="opacity:0.1;fill:#FFFFFF;" d="M232.029,426.461c8.859,2.768,17.713,3.109,26.562,0.842
					c13.766-25.675-6.535-18.286-12.587-27.771C239.837,409.635,221.996,401.628,232.029,426.461z"/>
			</g>
		</g>
	</g>
</g>
</svg>
