<?xml version="1.0" encoding="utf-8"?>
<!-- Generator: Adobe Illustrator 27.5.0, SVG Export Plug-In . SVG Version: 6.00 Build 0)  -->
<svg version="1.1" xmlns="http://www.w3.org/2000/svg" xmlns:xlink="http://www.w3.org/1999/xlink" x="0px" y="0px"
	 viewBox="0 0 500 500" style="enable-background:new 0 0 500 500;" xml:space="preserve">
<g id="Background_complete">
	<g>
		<g>
			<path style="fill:#E0E0E0;" d="M375.477,446.837c3.222,0.031,5.977,1.635,8.458,3.161c-3.932-3.909-7.865-7.818-11.797-11.727
				c-1.672-1.662-3.411-3.849-2.059-5.664c0.829-1.112,2.644-1.661,4.355-1.646c1.711,0.015,3.346,0.502,4.899,1.036
				c9.597,3.298,17.852,8.715,23.439,15.381c-2.255-3.026-4.511-6.051-6.766-9.077c-1.083-1.453-2.156-3.299-0.894-4.67
				c1.029-1.119,3.128-1.32,4.951-1.258c5.416,0.182,10.725,1.79,14.766,4.473c-3.124-3.942-5.854-8.056-8.159-12.297
				c-0.567-1.043-1.117-2.183-0.723-3.27c0.501-1.384,2.463-2.263,4.388-2.382c1.925-0.12,3.818,0.368,5.605,0.912
				c13.458,4.095,24.772,11.946,31.183,21.638c7.318,0.301,13.875,4.925,14.655,10.335l-91.426-0.312
				C368.945,449.316,372.255,446.806,375.477,446.837z"/>
		</g>
	</g>
	<g>
		<g>
			<path style="fill:#E0E0E0;" d="M203.12,458.934c2.301,0.022,4.27,1.168,6.042,2.258c-2.809-2.793-5.618-5.585-8.428-8.378
				c-1.194-1.187-2.437-2.749-1.471-4.046c0.592-0.794,1.889-1.187,3.111-1.176c1.222,0.011,2.39,0.359,3.5,0.74
				c6.856,2.356,12.753,6.226,16.745,10.988c-1.611-2.162-3.223-4.323-4.834-6.485c-0.774-1.038-1.54-2.357-0.638-3.336
				c0.735-0.799,2.235-0.943,3.537-0.899c3.869,0.13,7.662,1.279,10.549,3.195c-2.232-2.816-4.182-5.755-5.829-8.785
				c-0.405-0.745-0.798-1.56-0.517-2.336c0.358-0.989,1.76-1.617,3.135-1.702c1.375-0.085,2.727,0.263,4.004,0.651
				c9.614,2.925,17.697,8.534,22.277,15.458c5.228,0.215,9.912,3.518,10.47,7.383l-65.313-0.223
				C198.454,460.705,200.819,458.912,203.12,458.934z"/>
		</g>
	</g>
	<g>
		<g>
			<path style="fill:#E0E0E0;" d="M28.765,456.237c1.551,0.015,2.877,0.787,4.071,1.522c-1.893-1.882-3.786-3.763-5.679-5.645
				c-0.805-0.8-1.642-1.853-0.991-2.726c0.399-0.535,1.273-0.8,2.096-0.793c0.823,0.007,1.611,0.242,2.358,0.499
				c4.62,1.587,8.593,4.195,11.283,7.404c-1.086-1.456-2.171-2.913-3.257-4.369c-0.521-0.699-1.038-1.588-0.43-2.248
				c0.496-0.538,1.506-0.635,2.383-0.606c2.607,0.087,5.163,0.861,7.108,2.153c-1.504-1.897-2.818-3.878-3.928-5.919
				c-0.273-0.502-0.538-1.051-0.348-1.574c0.241-0.667,1.186-1.089,2.112-1.147c0.926-0.058,1.838,0.177,2.698,0.439
				c6.478,1.971,11.924,5.75,15.01,10.416c3.522,0.145,6.679,2.371,7.054,4.975l-44.009-0.15
				C25.621,457.43,27.214,456.222,28.765,456.237z"/>
		</g>
	</g>
	<g>
		<g>
			<g>
				<g>
					<path style="fill:#E0E0E0;" d="M445.424,330.389H264.678c-3.232,0-5.862-2.63-5.862-5.862V61.253
						c0-3.232,2.63-5.862,5.862-5.862h180.746c3.232,0,5.862,2.629,5.862,5.862v263.273
						C451.286,327.759,448.656,330.389,445.424,330.389z M264.678,55.641c-3.095,0-5.612,2.518-5.612,5.612v263.273
						c0,3.095,2.518,5.612,5.612,5.612h180.746c3.095,0,5.612-2.518,5.612-5.612V61.253c0-3.094-2.518-5.612-5.612-5.612H264.678z"
						/>
				</g>
			</g>
			<g>
				<g>
					<path style="fill:#E0E0E0;" d="M236.996,330.389H56.249c-3.232,0-5.862-2.63-5.862-5.862V61.253
						c0-3.232,2.629-5.862,5.862-5.862h180.747c3.232,0,5.862,2.629,5.862,5.862v263.273
						C242.858,327.759,240.228,330.389,236.996,330.389z M56.249,55.641c-3.094,0-5.612,2.518-5.612,5.612v263.273
						c0,3.095,2.518,5.612,5.612,5.612h180.747c3.095,0,5.612-2.518,5.612-5.612V61.253c0-3.094-2.518-5.612-5.612-5.612H56.249z"/>
				</g>
			</g>
		</g>
		<g>
			<g>
				<g>
					<rect x="0" y="338.814" style="fill:#E0E0E0;" width="500" height="0.25"/>
				</g>
			</g>
			<rect x="51.672" y="353.078" style="fill:#E0E0E0;" width="16.06" height="0.25"/>
			<rect x="170.352" y="350.368" style="fill:#E0E0E0;" width="53.53" height="0.25"/>
			<rect x="68.732" y="362.368" style="fill:#E0E0E0;" width="36.25" height="0.25"/>
			<rect x="378.352" y="350.238" style="fill:#E0E0E0;" width="43.19" height="0.25"/>
			<rect x="430.452" y="350.238" style="fill:#E0E0E0;" width="6.33" height="0.25"/>
			<rect x="316.212" y="356.468" style="fill:#E0E0E0;" width="53.89" height="0.25"/>
		</g>
	</g>
	<g>
		<path style="fill:#F0F0F0;" d="M292.194,136.435c0,2.951-4.268,5.296-4.996,8.013c-0.728,2.718,1.746,6.977,0.327,9.433
			c-1.42,2.456-6.313,2.41-8.34,4.427c-2.027,2.017-1.933,6.902-4.427,8.34c-2.494,1.438-6.621-1.074-9.433-0.327
			c-2.811,0.747-5.071,4.996-8.013,4.996c-2.942,0-5.296-4.268-8.013-4.996c-2.718-0.728-6.967,1.756-9.433,0.327
			c-2.465-1.429-2.4-6.313-4.427-8.34c-2.027-2.027-6.892-1.924-8.34-4.427c-1.448-2.503,1.074-6.649,0.327-9.451
			c-0.747-2.802-4.996-5.062-4.996-8.013s4.268-5.286,4.996-8.004c0.729-2.718-1.746-6.976-0.327-9.433
			c1.42-2.456,6.313-2.41,8.34-4.436c2.027-2.027,1.933-6.892,4.427-8.34c2.494-1.447,6.621,1.084,9.433,0.327
			c2.811-0.756,5.071-4.987,8.013-4.987c2.942,0,5.296,4.268,8.013,4.987c2.718,0.719,6.967-1.746,9.433-0.327
			c2.466,1.42,2.4,6.314,4.427,8.34c2.027,2.027,6.892,1.933,8.34,4.436c1.448,2.503-1.074,6.621-0.327,9.433
			C287.945,131.224,292.194,133.493,292.194,136.435z"/>
		
			<ellipse transform="matrix(0.0051 -1 1 0.0051 119.5797 393.0482)" style="fill:#E0E0E0;" cx="257.31" cy="136.431" rx="24.927" ry="24.927"/>
	</g>
	<g>
		<path style="fill:#F0F0F0;" d="M345.364,65.134c-0.155-2.305-2.254-4.005-4.384-4.9c-5.366-2.255-12.018-1.023-16.22,3.006
			c-0.073-5.317-3.086-10.501-7.669-13.197c-4.584-2.696-10.578-2.81-15.261-0.291l2.329-1.182
			c-1.991-9.838-13.621-11.077-19.331-8.017c-5.71,3.06-8.559,10.584-6.308,16.658c-5.167-2.465-12.185,2.016-12.123,7.74
			c-1.934,0.575-4.008,0.238-6.022,0.354c-2.015,0.116-4.259,0.922-4.989,2.803c-0.832,2.143,0.883,4.619,3.063,5.348
			c2.18,0.729,4.576,0.152,6.723-0.666c2.148-0.818,4.245-1.883,6.527-2.154c2.451,3.374,6.549,5.489,10.719,5.534
			c4.17,0.045,8.312-1.982,10.835-5.302c5.121,5.507,15.057,5.368,20.022-0.279c8.263,4.056,18.3,4.315,26.761,0.691
			C342.701,70.14,345.559,68.026,345.364,65.134z"/>
	</g>
	<g>
		<path style="fill:#E0E0E0;" d="M192.896,246.355c0,0,9.124-5.498,11.133-6.654c2.009-1.156,18.188-6.356,17.725-6.125
			c-0.462,0.231,1.734,4.16-3.814,7.396c-5.547,3.236-16.988,7.743-17.451,7.743S192.896,246.355,192.896,246.355z"/>
		<g>
			<path style="fill:#F0F0F0;" d="M177.598,248.526c0,0,7.237,0.022,8.785-0.233c1.547-0.255,11.457-1.998,13.254-2.589
				c1.797-0.591,3.988-2.584,7.385,0.419l-0.896,0.954c-0.332,0.353-0.725,0.643-1.161,0.855l-2.412,1.173
				c0,0-1.813,2.327-4.905,3.674c-3.092,1.347-9.973-2.034-11.342-1.726c-0.376,0.085-3.609,3.545-4.949,2.963
				C180.017,253.435,177.641,249.028,177.598,248.526z"/>
			<g>
				<path style="fill:#E0E0E0;" d="M187.971,250.379c-0.827,0.586-1.664,1.159-2.51,1.718c-0.187,0.123-0.284,0.384-0.154,0.586
					c0.12,0.186,0.386,0.286,0.586,0.154c0.846-0.559,1.683-1.132,2.51-1.718c0.182-0.129,0.286-0.38,0.154-0.586
					C188.44,250.352,188.166,250.241,187.971,250.379L187.971,250.379z"/>
			</g>
			<path style="fill:#E0E0E0;" d="M183.118,252.311c0,0,0.395,1.829,0.945,1.877c0.55,0.048,2.492-2.308,2.492-2.308
				L183.118,252.311z"/>
			<g>
				<path style="fill:#E0E0E0;" d="M190.133,251.702c-0.827,0.586-1.664,1.159-2.51,1.718c-0.187,0.123-0.284,0.384-0.154,0.586
					c0.12,0.186,0.386,0.286,0.586,0.154c0.846-0.559,1.683-1.132,2.51-1.718c0.182-0.129,0.286-0.38,0.154-0.586
					C190.602,251.675,190.328,251.564,190.133,251.702L190.133,251.702z"/>
			</g>
			<path style="fill:#E0E0E0;" d="M185.28,253.633c0,0,0.395,1.828,0.945,1.877c0.55,0.048,2.492-2.308,2.492-2.308L185.28,253.633z
				"/>
			<path style="fill:#F0F0F0;" d="M172.426,231.501c-0.105-0.194,16.407,0.331,20.213,2.868c3.806,2.537,6.29,12.652,6.29,12.652
				l-7.119,2.274c0,0-4.845-10.113-4.924-9.899C186.805,239.609,174.821,235.937,172.426,231.501z"/>
			<path style="fill:#E0E0E0;" d="M204.638,245.947c-0.083,0.25-0.352,0.386-0.602,0.303c-0.25-0.083-0.386-0.352-0.303-0.602
				c0.083-0.25,0.352-0.386,0.602-0.303C204.585,245.427,204.72,245.697,204.638,245.947z"/>
			<path style="fill:#E6E6E6;" d="M205.84,246.355l0.583-0.64c0,0,1.258-0.351,2.22,0.091c0,0,0.311,0.076,0.196,0.424
				L205.84,246.355L205.84,246.355z"/>
			<path style="fill:#E6E6E6;" d="M208.322,247.377l-2.324-1.077l0.482-0.162C206.48,246.138,208.265,246.582,208.322,247.377z"/>
			<path style="fill:#E0E0E0;" d="M194.785,248.345l-7.137-11.309c-3.733-0.491-8.524-3.481-11.322-5.465
				c-2.332-0.12-3.934-0.13-3.901-0.069c2.395,4.436,14.38,8.108,14.459,7.895c0.079-0.214,4.924,9.899,4.924,9.899L194.785,248.345
				z"/>
		</g>
	</g>
	<g>
		<path style="fill:#EBEBEB;" d="M82.9,252.594c-0.711-1.548-2.785-1.895-4.465-1.606c-1.679,0.289-3.339,0.998-5.025,0.751
			c0.587-3.811-2.87-7.484-6.708-7.863c-3.838-0.379-7.587,1.973-9.693,5.203c-1.131-1.798-3.484-2.727-5.538-2.187
			s-3.647,2.505-3.749,4.626c-2.714,0.09-5.425-0.661-8.126-0.379c-2.701,0.282-5.6,2.142-5.635,4.857
			c-0.03,2.324,2.131,4.208,4.405,4.685c2.275,0.477,5.043-0.131,7.293-0.711c0.977,1.854,3.192,4.023,5.287,4.078
			c2.095,0.056,4.18-1.091,5.254-2.891c2.004,2.13,5.16,3.104,8.017,2.474c2.856-0.63,5.309-2.842,6.231-5.617
			c3.648,0.723,7.766,1.052,10.766-1.144C82.556,255.892,83.594,254.104,82.9,252.594z"/>
	</g>
	<g>
		<path style="fill:#EBEBEB;" d="M383.427,227.426c1.205-2.625,4.722-3.213,7.569-2.723c2.847,0.49,5.661,1.692,8.519,1.274
			c-0.996-6.462,4.866-12.688,11.373-13.33s12.862,3.345,16.434,8.822c1.918-3.047,5.907-4.623,9.389-3.708
			c3.483,0.915,6.183,4.247,6.356,7.843c4.602,0.153,9.197-1.12,13.777-0.642c4.579,0.479,9.493,3.631,9.553,8.235
			c0.051,3.94-3.612,7.134-7.468,7.943c-3.856,0.809-8.549-0.221-12.365-1.205c-1.656,3.143-5.412,6.82-8.963,6.915
			c-3.551,0.094-7.086-1.85-8.907-4.9c-3.398,3.611-8.749,5.262-13.591,4.194c-4.842-1.068-9.001-4.818-10.565-9.523
			c-6.184,1.225-13.166,1.784-18.253-1.939C384.011,233.016,382.252,229.986,383.427,227.426z"/>
	</g>
</g>
<g id="Background_simple" style="display:none;">
	<g style="display:inline;">
		<path style="fill:#407BFF;" d="M322.7,43.278c-10.357-7.856-24.029-10.447-36.97-9.213c-16.284,1.553-31.949,8.945-43.5,20.528
			c-10.578,10.607-18.341,24.958-32.1,30.882c-8.078,3.478-17.196,3.513-25.968,2.859c-8.771-0.654-17.589-1.938-26.322-0.892
			c-8.733,1.046-17.628,4.831-22.473,12.172c-4.844,7.341-1.789,20.658,5.794,29.705c19.609,22.077,40.251,23.061,65.295,27.894
			c25.044,4.833,51.347,1.84,75.211-7.166c21.799-8.227,42.525-22.359,52.703-43.319C344.548,85.768,341.264,57.358,322.7,43.278z"
			/>
	</g>
	<g style="display:inline;opacity:0.9;">
		<path style="fill:#FFFFFF;" d="M322.7,43.278c-10.357-7.856-24.029-10.447-36.97-9.213c-16.284,1.553-31.949,8.945-43.5,20.528
			c-10.578,10.607-18.341,24.958-32.1,30.882c-8.078,3.478-17.196,3.513-25.968,2.859c-8.771-0.654-17.589-1.938-26.322-0.892
			c-8.733,1.046-17.628,4.831-22.473,12.172c-4.844,7.341-1.789,20.658,5.794,29.705c19.609,22.077,40.251,23.061,65.295,27.894
			c25.044,4.833,51.347,1.84,75.211-7.166c21.799-8.227,42.525-22.359,52.703-43.319C344.548,85.768,341.264,57.358,322.7,43.278z"
			/>
	</g>
</g>
<g id="Shadow">
	<g>
		<g>
			<path style="fill:#F5F5F5;" d="M445.172,482.143c0,3.387-82.45,6.132-184.158,6.132s-184.158-2.746-184.158-6.132
				c0-3.387,82.45-6.132,184.158-6.132S445.172,478.757,445.172,482.143z"/>
		</g>
	</g>
</g>
<g id="Plants">
	<g>
		<g>
			<g>
				<path style="fill:#407BFF;" d="M213.135,386.195c2.791,0.036,5.178,1.908,7.328,3.689c-3.407-4.562-6.814-9.123-10.22-13.685
					c-1.448-1.939-2.956-4.491-1.783-6.609c0.718-1.297,2.291-1.939,3.773-1.922c1.482,0.018,2.899,0.586,4.244,1.209
					c8.315,3.849,15.466,10.17,20.307,17.949c-1.954-3.531-3.908-7.062-5.862-10.593c-0.938-1.696-1.867-3.85-0.774-5.45
					c0.892-1.306,2.71-1.54,4.29-1.469c4.692,0.212,9.292,2.088,12.792,5.219c-2.706-4.6-5.071-9.401-7.069-14.35
					c-0.491-1.217-0.967-2.548-0.627-3.815c0.434-1.616,2.134-2.641,3.802-2.78s3.307,0.429,4.856,1.064
					c11.659,4.779,21.461,13.941,27.015,25.251c6.34,0.351,12.021,5.747,12.697,12.06l-79.207-0.364
					C207.477,389.088,210.344,386.159,213.135,386.195z"/>
			</g>
			<g style="opacity:0.5;">
				<path style="fill:#FFFFFF;" d="M213.135,386.195c2.791,0.036,5.178,1.908,7.328,3.689c-3.407-4.562-6.814-9.123-10.22-13.685
					c-1.448-1.939-2.956-4.491-1.783-6.609c0.718-1.297,2.291-1.939,3.773-1.922c1.482,0.018,2.899,0.586,4.244,1.209
					c8.315,3.849,15.466,10.17,20.307,17.949c-1.954-3.531-3.908-7.062-5.862-10.593c-0.938-1.696-1.867-3.85-0.774-5.45
					c0.892-1.306,2.71-1.54,4.29-1.469c4.692,0.212,9.292,2.088,12.792,5.219c-2.706-4.6-5.071-9.401-7.069-14.35
					c-0.491-1.217-0.967-2.548-0.627-3.815c0.434-1.616,2.134-2.641,3.802-2.78s3.307,0.429,4.856,1.064
					c11.659,4.779,21.461,13.941,27.015,25.251c6.34,0.351,12.021,5.747,12.697,12.06l-79.207-0.364
					C207.477,389.088,210.344,386.159,213.135,386.195z"/>
			</g>
		</g>
		<g style="opacity:0.3;">
			<g>
				<path d="M251.736,386.224c-2.616-3.078-5.456-5.957-8.498-8.615c-0.724-0.633-1.789,0.424-1.061,1.061
					c3.042,2.657,5.882,5.537,8.498,8.615c0.262,0.309,0.791,0.27,1.061,0C252.042,386.979,252,386.534,251.736,386.224
					L251.736,386.224z"/>
			</g>
		</g>
		<g style="opacity:0.3;">
			<g>
				<path d="M269.515,386.554c-3.847-8.652-9.258-16.542-15.927-23.262c-0.681-0.686-1.742,0.374-1.061,1.061
					c6.585,6.636,11.894,14.417,15.692,22.959C268.611,388.191,269.904,387.429,269.515,386.554L269.515,386.554z"/>
			</g>
		</g>
		<g style="opacity:0.3;">
			<g>
				<path d="M264.877,383.72c-2.472-2.066-4.67-4.447-6.507-7.095c-0.231-0.332-0.657-0.485-1.026-0.269
					c-0.329,0.193-0.501,0.692-0.269,1.026c1.91,2.754,4.169,5.249,6.741,7.398c0.311,0.26,0.756,0.304,1.061,0
					C265.143,384.513,265.189,383.981,264.877,383.72L264.877,383.72z"/>
			</g>
		</g>
	</g>
	<g>
		<g>
			<path style="fill:#407BFF;" d="M369.336,339.491l111.662-0.34c-1.69-3.47-5.53-6.48-9.11-8.296
				c-1.648-0.836-3.623-1.444-5.377-0.823c-1.754,0.62-2.802,2.955-1.502,4.22c-8.825-7.013-18.821-12.73-29.511-16.882
				c-1.148-0.445-2.433-0.877-3.601-0.482c-2.294,0.777-2.226,3.954-0.969,5.913c1.257,1.959,3.275,3.607,3.658,5.864
				c-8.359-10.75-20.178-19.106-33.505-23.689c-2.355-0.81-5.487-1.303-6.952,0.605c-0.99,1.29-0.662,3.067-0.207,4.598
				c1.563,5.257,4.134,10.249,7.553,14.667c-1.764-2.623-6.027-3.406-8.687-1.561c-2.66,1.845-3.081,5.944-0.807,8.197
				c-3.005-2.075-6.159-4.21-9.84-4.789c-3.681-0.579-8.028,0.939-9.239,4.247c-8.308-10.054-18.515-18.727-30.006-25.494
				c-1.876-1.105-4.374-2.11-6.268-1.404c-7.469-7.331-16.544-13.232-26.556-17.076c-2.291-0.879-4.717-1.668-7.184-1.474
				c-2.467,0.193-4.982,1.614-5.625,3.853c-0.504,1.757,0.2,3.601,0.927,5.288c2.955,6.86,6.454,13.514,10.459,19.89
				c-5.18-4.339-11.985-6.94-18.927-7.234c-2.337-0.099-5.027,0.226-6.347,2.035c-1.617,2.218-0.243,5.203,1.146,7.554
				c2.891,4.894,5.782,9.788,8.673,14.682c-7.162-10.782-17.743-19.543-30.045-24.877c-1.99-0.863-4.086-1.651-6.279-1.675
				c-2.193-0.024-4.52,0.866-5.582,2.663c-1.734,2.935,0.496,6.473,2.639,9.16c5.04,6.323,10.081,12.645,15.122,18.968
				c-3.181-2.468-6.712-5.062-10.842-5.113c-1.75-0.021-3.515,0.7-4.837,1.798c-0.851-0.583-1.767-1.123-2.762-1.628
				c-1.648-0.836-3.623-1.444-5.377-0.823c-1.754,0.62-2.802,2.955-1.502,4.22c-8.825-7.013-18.821-12.73-29.511-16.882
				c-1.148-0.445-2.433-0.877-3.601-0.482c-2.294,0.777-2.225,3.954-0.969,5.913c1.256,1.959,3.275,3.607,3.658,5.864
				c-8.359-10.75-20.178-19.106-33.505-23.689c-2.355-0.81-5.487-1.303-6.951,0.605c-0.99,1.29-0.662,3.067-0.207,4.598
				c1.563,5.257,4.134,10.249,7.553,14.667c-1.764-2.623-6.027-3.406-8.687-1.561c-2.66,1.845-3.081,5.944-0.807,8.197
				c-3.005-2.075-6.159-4.21-9.84-4.789c-3.681-0.579-8.028,0.939-9.239,4.247c-8.308-10.054-18.515-18.727-30.006-25.494
				c-2.235-1.316-5.355-2.5-7.28-0.808c-0.591,0.52-0.917,1.226-1.025,1.979c-3.829-3.691-6.704-6.403-7.544-7.09
				c-1.432-1.17-3.149-2.333-5.173-1.627c-1.283,0.448-2.187,1.515-2.592,2.74c-0.734,2.223,0.035,4.475,0.793,6.614
				c-8.093-10.874-19.495-19.561-32.508-24.768c-2.276-0.911-5.358-1.58-6.612,0.911c-0.565,1.122-0.433,2.446,0.227,3.522
				l11.633,18.973c-2.161-2.464-5.38-4.217-8.783-4.268c-3.404-0.051-6.883,1.81-8.133,4.776c-0.889,2.109-0.409,4.665,1.071,6.406
				c-4.289-2.947-9.028-5.322-14.033-7.009c-2.364-0.797-4.988-1.44-7.35-0.639c-4.159,1.411-5.359,6.491-4.652,10.581
				c0.707,4.091,2.654,8.067,2.26,12.194c-1.332-1.295-2.887-2.384-4.581-3.228c-2.929-1.459-6.383,1.011-5.58,4.026
				c0.538,2.02,1.357,3.975,2.437,5.794c-1.793-1.799-4.023-3.329-6.598-3.817c-2.575-0.488-5.518,0.249-7.069,2.236
				c-1.55,1.987-1.73,4.488,0.519,5.76l247.543,0.512c-0.024-0.048-0.052-0.091-0.076-0.139L369.336,339.491
				C369.323,339.379,369.351,339.602,369.336,339.491z"/>
		</g>
		<g style="opacity:0.3;">
			<g>
				<path d="M94.067,312.546c7.533,7.417,15.066,14.834,22.6,22.252c0.688,0.678,1.75-0.382,1.061-1.061
					c-7.533-7.417-15.066-14.835-22.6-22.252C94.44,310.807,93.378,311.867,94.067,312.546L94.067,312.546z"/>
			</g>
		</g>
		<g style="opacity:0.3;">
			<g>
				<path d="M89.049,317.318c5.238,3.767,10.069,8.072,14.432,12.825c0.654,0.713,1.713-0.35,1.061-1.061
					c-4.45-4.849-9.393-9.217-14.735-13.06C89.021,315.458,88.272,316.759,89.049,317.318L89.049,317.318z"/>
			</g>
		</g>
		<g style="opacity:0.3;">
			<g>
				<path d="M190.222,322.795c4.592,3.629,8.737,7.794,12.342,12.404c0.594,0.76,1.649-0.308,1.061-1.061
					c-3.605-4.611-7.75-8.776-12.342-12.405C190.533,321.142,189.464,322.197,190.222,322.795L190.222,322.795z"/>
			</g>
		</g>
		<g style="opacity:0.3;">
			<g>
				<path d="M326.121,315.856c5.664,4.284,10.82,9.219,15.376,14.665c0.62,0.741,1.676-0.325,1.061-1.061
					c-4.643-5.55-9.908-10.535-15.679-14.899C326.108,313.979,325.36,315.281,326.121,315.856L326.121,315.856z"/>
			</g>
		</g>
		<g style="opacity:0.3;">
			<g>
				<path d="M338.403,317.832c1.648,1.548,3.296,3.096,4.945,4.645c0.295,0.277,0.768,0.293,1.061,0c0.28-0.28,0.296-0.782,0-1.061
					c-1.648-1.548-3.296-3.097-4.945-4.645c-0.295-0.277-0.768-0.293-1.061,0C338.122,317.052,338.106,317.554,338.403,317.832
					L338.403,317.832z"/>
			</g>
		</g>
		<g style="opacity:0.3;">
			<path d="M369.336,339.491l111.662-0.34c-1.69-3.47-5.53-6.48-9.11-8.296c-1.648-0.836-3.623-1.444-5.377-0.823
				c-1.754,0.62-2.802,2.955-1.502,4.22c-8.825-7.013-18.821-12.73-29.511-16.882c-1.148-0.445-2.433-0.877-3.601-0.482
				c-2.294,0.777-2.226,3.954-0.969,5.913c1.257,1.959,3.275,3.607,3.658,5.864c-8.359-10.75-20.178-19.106-33.505-23.689
				c-2.355-0.81-5.487-1.303-6.952,0.605c-0.99,1.29-0.662,3.067-0.207,4.598c1.563,5.257,4.134,10.249,7.553,14.667
				c-1.764-2.623-6.027-3.406-8.687-1.561c-2.66,1.845-3.081,5.944-0.807,8.197c-3.005-2.075-6.159-4.21-9.84-4.789
				c-3.681-0.579-8.028,0.939-9.239,4.247c-8.308-10.054-18.515-18.727-30.006-25.494c-1.876-1.105-4.374-2.11-6.268-1.404
				c-7.469-7.331-16.544-13.232-26.556-17.076c-2.291-0.879-4.717-1.668-7.184-1.474c-2.467,0.193-4.982,1.614-5.625,3.853
				c-0.504,1.757,0.2,3.601,0.927,5.288c2.955,6.86,6.454,13.514,10.459,19.89c-5.18-4.339-11.985-6.94-18.927-7.234
				c-2.337-0.099-5.027,0.226-6.347,2.035c-1.617,2.218-0.243,5.203,1.146,7.554c2.891,4.894,5.782,9.788,8.673,14.682
				c-7.162-10.782-17.743-19.543-30.045-24.877c-1.99-0.863-4.086-1.651-6.279-1.675c-2.193-0.024-4.52,0.866-5.582,2.663
				c-1.734,2.935,0.496,6.473,2.639,9.16c5.04,6.323,10.081,12.645,15.122,18.968c-3.181-2.468-6.712-5.062-10.842-5.113
				c-1.75-0.021-3.515,0.7-4.837,1.798c-0.851-0.583-1.767-1.123-2.762-1.628c-1.648-0.836-3.623-1.444-5.377-0.823
				c-1.754,0.62-2.802,2.955-1.502,4.22c-8.825-7.013-18.821-12.73-29.511-16.882c-1.148-0.445-2.433-0.877-3.601-0.482
				c-2.294,0.777-2.225,3.954-0.969,5.913c1.256,1.959,3.275,3.607,3.658,5.864c-8.359-10.75-20.178-19.106-33.505-23.689
				c-2.355-0.81-5.487-1.303-6.951,0.605c-0.99,1.29-0.662,3.067-0.207,4.598c1.563,5.257,4.134,10.249,7.553,14.667
				c-1.764-2.623-6.027-3.406-8.687-1.561c-2.66,1.845-3.081,5.944-0.807,8.197c-3.005-2.075-6.159-4.21-9.84-4.789
				c-3.681-0.579-8.028,0.939-9.239,4.247c-8.308-10.054-18.515-18.727-30.006-25.494c-2.235-1.316-5.355-2.5-7.28-0.808
				c-0.591,0.52-0.917,1.226-1.025,1.979c-3.829-3.691-6.704-6.403-7.544-7.09c-1.432-1.17-3.149-2.333-5.173-1.627
				c-1.283,0.448-2.187,1.515-2.592,2.74c-0.734,2.223,0.035,4.475,0.793,6.614c-8.093-10.874-19.495-19.561-32.508-24.768
				c-2.276-0.911-5.358-1.58-6.612,0.911c-0.565,1.122-0.433,2.446,0.227,3.522l11.633,18.973c-2.161-2.464-5.38-4.217-8.783-4.268
				c-3.404-0.051-6.883,1.81-8.133,4.776c-0.889,2.109-0.409,4.665,1.071,6.406c-4.289-2.947-9.028-5.322-14.033-7.009
				c-2.364-0.797-4.988-1.44-7.35-0.639c-4.159,1.411-5.359,6.491-4.652,10.581c0.707,4.091,2.654,8.067,2.26,12.194
				c-1.332-1.295-2.887-2.384-4.581-3.228c-2.929-1.459-6.383,1.011-5.58,4.026c0.538,2.02,1.357,3.975,2.437,5.794
				c-1.793-1.799-4.023-3.329-6.598-3.817c-2.575-0.488-5.518,0.249-7.069,2.236c-1.55,1.987-1.73,4.488,0.519,5.76l247.543,0.512
				c-0.024-0.048-0.052-0.091-0.076-0.139L369.336,339.491C369.323,339.379,369.351,339.602,369.336,339.491z"/>
		</g>
		<g>
			<g>
				<path style="fill:#263238;" d="M6.599,339.096c61.954,0.001,123.908,0.114,185.861,0.25
					c61.982,0.137,123.964,0.297,185.946,0.396c34.58,0.055,69.16,0.09,103.741,0.091c0.483,0,0.483-0.75,0-0.75
					c-61.954-0.001-123.908-0.114-185.861-0.25c-61.982-0.137-123.964-0.297-185.946-0.396c-34.58-0.055-69.16-0.09-103.741-0.091
					C6.116,338.346,6.115,339.096,6.599,339.096L6.599,339.096z"/>
			</g>
		</g>
	</g>
	<g>
		<g>
			<path style="fill:#407BFF;" d="M89.345,474.18c3.222,0.031,5.977,1.635,8.458,3.161c-3.932-3.909-7.865-7.818-11.797-11.727
				c-1.672-1.662-3.411-3.849-2.059-5.664c0.829-1.111,2.644-1.661,4.355-1.647c1.711,0.015,3.346,0.502,4.899,1.036
				c9.597,3.298,17.852,8.715,23.439,15.381c-2.255-3.026-4.511-6.052-6.766-9.077c-1.083-1.453-2.156-3.299-0.894-4.67
				c1.029-1.119,3.128-1.32,4.952-1.258c5.416,0.182,10.725,1.79,14.766,4.473c-3.124-3.942-5.854-8.056-8.159-12.297
				c-0.567-1.043-1.117-2.183-0.723-3.27c0.502-1.384,2.464-2.263,4.388-2.382c1.924-0.12,3.818,0.368,5.605,0.912
				c13.458,4.095,24.772,11.946,31.183,21.638c7.318,0.301,13.875,4.925,14.655,10.335l-91.425-0.312
				C82.814,476.659,86.124,474.149,89.345,474.18z"/>
		</g>
		<g style="opacity:0.5;">
			<path style="fill:#FFFFFF;" d="M89.345,474.18c3.222,0.031,5.977,1.635,8.458,3.161c-3.932-3.909-7.865-7.818-11.797-11.727
				c-1.672-1.662-3.411-3.849-2.059-5.664c0.829-1.111,2.644-1.661,4.355-1.647c1.711,0.015,3.346,0.502,4.899,1.036
				c9.597,3.298,17.852,8.715,23.439,15.381c-2.255-3.026-4.511-6.052-6.766-9.077c-1.083-1.453-2.156-3.299-0.894-4.67
				c1.029-1.119,3.128-1.32,4.952-1.258c5.416,0.182,10.725,1.79,14.766,4.473c-3.124-3.942-5.854-8.056-8.159-12.297
				c-0.567-1.043-1.117-2.183-0.723-3.27c0.502-1.384,2.464-2.263,4.388-2.382c1.924-0.12,3.818,0.368,5.605,0.912
				c13.458,4.095,24.772,11.946,31.183,21.638c7.318,0.301,13.875,4.925,14.655,10.335l-91.425-0.312
				C82.814,476.659,86.124,474.149,89.345,474.18z"/>
		</g>
	</g>
	<g>
		<g>
			<g>
				<path style="fill:#407BFF;" d="M177.477,391.452c2.268-2.128,5.944-0.639,8.578,1.016c13.539,8.511,25.566,19.42,35.354,32.065
					c1.427-4.16,6.549-6.07,10.886-5.342c4.337,0.728,8.054,3.414,11.595,6.024c-2.679-2.833-2.183-7.99,0.951-10.31
					c3.134-2.32,8.157-1.335,10.235,1.964c-4.028-5.557-7.057-11.836-8.899-18.447c-0.536-1.926-0.924-4.161,0.243-5.784
					c1.726-2.4,5.416-1.78,8.191-0.762c15.703,5.764,29.629,16.275,39.478,29.795c-0.451-2.839-2.829-4.912-4.31-7.376
					c-1.48-2.464-1.562-6.46,1.142-7.437c1.377-0.497,2.891,0.046,4.243,0.606c12.596,5.222,24.373,12.414,34.771,21.234
					c-1.531-1.592-0.296-4.528,1.77-5.308s4.393-0.016,6.336,1.036c4.218,2.284,7.344,5.054,9.336,9.418l-138.337,0.005
					c-9.76-10.842-19.519-21.683-29.279-32.525c-1.26-1.399-2.549-2.846-3.186-4.618
					C175.938,394.937,176.104,392.74,177.477,391.452z"/>
			</g>
			<g style="opacity:0.3;">
				<path style="fill:#FFFFFF;" d="M177.477,391.452c2.268-2.128,5.944-0.639,8.578,1.016c13.539,8.511,25.566,19.42,35.354,32.065
					c1.427-4.16,6.549-6.07,10.886-5.342c4.337,0.728,8.054,3.414,11.595,6.024c-2.679-2.833-2.183-7.99,0.951-10.31
					c3.134-2.32,8.157-1.335,10.235,1.964c-4.028-5.557-7.057-11.836-8.899-18.447c-0.536-1.926-0.924-4.161,0.243-5.784
					c1.726-2.4,5.416-1.78,8.191-0.762c15.703,5.764,29.629,16.275,39.478,29.795c-0.451-2.839-2.829-4.912-4.31-7.376
					c-1.48-2.464-1.562-6.46,1.142-7.437c1.377-0.497,2.891,0.046,4.243,0.606c12.596,5.222,24.373,12.414,34.771,21.234
					c-1.531-1.592-0.296-4.528,1.77-5.308s4.393-0.016,6.336,1.036c4.218,2.284,7.344,5.054,9.336,9.418l-138.337,0.005
					c-9.76-10.842-19.519-21.683-29.279-32.525c-1.26-1.399-2.549-2.846-3.186-4.618
					C175.938,394.937,176.104,392.74,177.477,391.452z"/>
			</g>
			<g>
				<g>
					<path style="fill:#407BFF;" d="M55.769,434.305c-2.65-1.6-2.438-4.746-0.611-7.245c1.827-2.499,5.295-3.427,8.328-2.812
						c3.034,0.614,5.661,2.538,7.774,4.801c-1.273-2.289-2.238-4.747-2.872-7.288c-0.946-3.792,3.124-6.898,6.575-5.064
						c1.997,1.061,3.829,2.431,5.398,4.06c0.465-5.191-1.83-10.192-2.663-15.338c-0.833-5.145,0.581-11.534,5.481-13.309
						c2.784-1.008,5.875-0.199,8.66,0.803c6.957,2.503,13.484,6.198,19.211,10.875c-3.706-1.534-5.412-6.386-3.938-10.117
						c1.473-3.731,5.572-6.072,9.583-6.008c4.01,0.064,7.803,2.269,10.349,5.368l-13.707-23.864
						c-0.777-1.354-0.933-3.019-0.267-4.431c1.478-3.133,5.109-2.291,7.791-1.145c15.333,6.549,28.767,17.475,38.303,31.152
						c-0.892-2.69-1.799-5.523-0.934-8.319c0.477-1.542,1.542-2.883,3.054-3.447c2.385-0.889,4.408,0.574,6.095,2.046
						c3.829,3.34,43.365,44.642,46.176,48.875l-36.156-0.26L55.769,434.305z"/>
				</g>
			</g>
			<g style="opacity:0.3;">
				<g>
					<path style="fill:#FFFFFF;" d="M55.769,434.305c-2.65-1.6-2.438-4.746-0.611-7.245c1.827-2.499,5.295-3.427,8.328-2.812
						c3.034,0.614,5.661,2.538,7.774,4.801c-1.273-2.289-2.238-4.747-2.872-7.288c-0.946-3.792,3.124-6.898,6.575-5.064
						c1.997,1.061,3.829,2.431,5.398,4.06c0.465-5.191-1.83-10.192-2.663-15.338c-0.833-5.145,0.581-11.534,5.481-13.309
						c2.784-1.008,5.875-0.199,8.66,0.803c6.957,2.503,13.484,6.198,19.211,10.875c-3.706-1.534-5.412-6.386-3.938-10.117
						c1.473-3.731,5.572-6.072,9.583-6.008c4.01,0.064,7.803,2.269,10.349,5.368l-13.707-23.864
						c-0.777-1.354-0.933-3.019-0.267-4.431c1.478-3.133,5.109-2.291,7.791-1.145c15.333,6.549,28.767,17.475,38.303,31.152
						c-0.892-2.69-1.799-5.523-0.934-8.319c0.477-1.542,1.542-2.883,3.054-3.447c2.385-0.889,4.408,0.574,6.095,2.046
						c3.829,3.34,43.365,44.642,46.176,48.875l-36.156-0.26L55.769,434.305z"/>
				</g>
			</g>
		</g>
		<g style="opacity:0.3;">
			<g>
				<path d="M145.057,406.315c6.043,6.522,11.348,13.678,15.838,21.352c0.487,0.833,1.784,0.079,1.295-0.757
					c-4.552-7.78-9.947-15.043-16.073-21.655C145.46,404.545,144.401,405.608,145.057,406.315L145.057,406.315z"/>
			</g>
		</g>
		<g style="opacity:0.3;">
			<g>
				<path d="M160.895,408.853c2.371,5.066,4.742,10.132,7.113,15.198c0.335,0.716,0.67,1.432,1.005,2.147
					c0.409,0.874,1.702,0.113,1.295-0.757c-2.371-5.066-4.742-10.132-7.113-15.198c-0.335-0.716-0.67-1.431-1.005-2.147
					C161.782,407.222,160.488,407.983,160.895,408.853L160.895,408.853z"/>
			</g>
		</g>
		<g style="opacity:0.3;">
			<g>
				<path d="M137.315,415.204c3.853,3.289,7.372,6.971,10.452,10.994c0.248,0.324,0.643,0.487,1.026,0.269
					c0.319-0.181,0.515-0.705,0.269-1.026c-3.161-4.13-6.729-7.921-10.686-11.298C137.645,413.52,136.579,414.576,137.315,415.204
					L137.315,415.204z"/>
			</g>
		</g>
	</g>
	<g>
		<g>
			<g>
				<path style="fill:#407BFF;" d="M363.855,393.702c3.808,0.05,7.065,2.604,9.998,5.033c-4.648-6.224-9.297-12.448-13.945-18.672
					c-1.976-2.646-4.032-6.128-2.433-9.018c0.979-1.77,3.125-2.645,5.148-2.622c2.022,0.024,3.955,0.8,5.791,1.649
					c11.345,5.251,21.102,13.876,27.707,24.49c-2.666-4.818-5.332-9.635-7.998-14.453c-1.28-2.314-2.548-5.253-1.056-7.436
					c1.217-1.781,3.698-2.101,5.853-2.004c6.402,0.289,12.678,2.849,17.454,7.121c-3.693-6.276-6.919-12.827-9.645-19.58
					c-0.67-1.661-1.32-3.476-0.855-5.206c0.593-2.204,2.912-3.603,5.187-3.793c2.275-0.19,4.513,0.586,6.625,1.451
					c15.908,6.52,29.282,19.021,36.86,34.453c8.65,0.479,16.401,7.841,17.324,16.455l-108.07-0.497
					C356.134,397.648,360.046,393.652,363.855,393.702z"/>
			</g>
			<g style="opacity:0.2;">
				<path style="fill:#FFFFFF;" d="M363.855,393.702c3.808,0.05,7.065,2.604,9.998,5.033c-4.648-6.224-9.297-12.448-13.945-18.672
					c-1.976-2.646-4.032-6.128-2.433-9.018c0.979-1.77,3.125-2.645,5.148-2.622c2.022,0.024,3.955,0.8,5.791,1.649
					c11.345,5.251,21.102,13.876,27.707,24.49c-2.666-4.818-5.332-9.635-7.998-14.453c-1.28-2.314-2.548-5.253-1.056-7.436
					c1.217-1.781,3.698-2.101,5.853-2.004c6.402,0.289,12.678,2.849,17.454,7.121c-3.693-6.276-6.919-12.827-9.645-19.58
					c-0.67-1.661-1.32-3.476-0.855-5.206c0.593-2.204,2.912-3.603,5.187-3.793c2.275-0.19,4.513,0.586,6.625,1.451
					c15.908,6.52,29.282,19.021,36.86,34.453c8.65,0.479,16.401,7.841,17.324,16.455l-108.07-0.497
					C356.134,397.648,360.046,393.652,363.855,393.702z"/>
			</g>
		</g>
		<g style="opacity:0.3;">
			<g>
				<path d="M416.33,393.935c-3.569-4.199-7.445-8.128-11.595-11.754c-0.724-0.633-1.789,0.424-1.061,1.061
					c4.15,3.626,8.026,7.555,11.595,11.754C415.895,395.732,416.952,394.667,416.33,393.935L416.33,393.935z"/>
			</g>
		</g>
		<g style="opacity:0.3;">
			<g>
				<path d="M440.544,394.328c-5.232-11.782-12.604-22.539-21.688-31.684c-0.681-0.686-1.742,0.375-1.061,1.061
					c9.001,9.061,16.271,19.709,21.454,31.381C439.64,395.966,440.933,395.204,440.544,394.328L440.544,394.328z"/>
			</g>
		</g>
		<g style="opacity:0.3;">
			<g>
				<path d="M434.258,390.517c-3.391-2.834-6.401-6.104-8.92-9.735c-0.547-0.788-1.847-0.039-1.295,0.757
					c2.593,3.738,5.664,7.121,9.155,10.039C433.934,392.193,435,391.137,434.258,390.517L434.258,390.517z"/>
			</g>
		</g>
	</g>
	<g>
		<g>
			<g>
				<path style="fill:#407BFF;" d="M408.496,443.942c-0.323-0.913-1.205-2.132-1.85-2.854c-0.645-0.723-1.628-1.215-2.578-1.03
					c-1.213,0.236-2.005,1.509-2.088,2.742c-0.083,1.233,0.188,2.867,0.672,4.004c2.066,4.853,3.987,9.301,7.857,13.376
					C411.567,454.875,410.288,449.004,408.496,443.942z"/>
			</g>
		</g>
		<g>
			<g>
				<path style="fill:#263238;" d="M417.843,467.906c-5.048-5.363-8.626-11.953-10.393-19.101c-0.232-0.937-1.678-0.54-1.446,0.399
					c1.828,7.395,5.559,14.218,10.779,19.763C417.445,469.671,418.504,468.608,417.843,467.906L417.843,467.906z"/>
			</g>
		</g>
		<g>
			<path style="fill:#407BFF;" d="M420.986,443.403c-1.202-0.371-3.041,0.88-3.876,1.821c-1.656,1.866-2.533,3.645-3.288,6.023
				c-0.959,3.019-0.355,6.859-0.053,9.314c3.19-3.89,6.435-7.873,8.2-12.584c0.308-0.822,0.572-1.691,0.479-2.564
				C422.356,444.54,421.825,443.662,420.986,443.403z"/>
		</g>
		<g>
			<g>
				<path style="fill:#263238;" d="M414.142,463.297c-0.031-3.815,1.256-7.217,2.954-10.576c0.434-0.859-0.859-1.62-1.295-0.757
					c-0.896,1.773-1.748,3.584-2.329,5.488c-0.578,1.894-0.846,3.866-0.83,5.845C412.649,464.262,414.149,464.264,414.142,463.297
					L414.142,463.297z"/>
			</g>
		</g>
	</g>
	<g>
		<g>
			<g>
				<path style="fill:#407BFF;" d="M47.979,367.248c-0.507-0.852-1.637-1.899-2.428-2.496c-0.792-0.597-1.877-0.894-2.795-0.518
					c-1.171,0.479-1.711,1.916-1.548,3.171c0.164,1.255,0.762,2.841,1.476,3.886c3.045,4.459,5.865,8.541,10.565,11.859
					C53.25,377.611,50.791,371.972,47.979,367.248z"/>
			</g>
		</g>
		<g>
			<g>
				<path style="fill:#263238;" d="M62.111,389.43c-6.142-4.369-11.05-10.304-14.248-17.124c-0.41-0.873-1.703-0.113-1.295,0.757
					c3.31,7.058,8.437,13.146,14.786,17.662C62.141,391.285,62.891,389.985,62.111,389.43L62.111,389.43z"/>
			</g>
		</g>
		<g>
			<path style="fill:#407BFF;" d="M63.771,363.994c-1.234-0.369-3.106,0.927-3.953,1.897c-1.68,1.924-2.563,3.753-3.316,6.193
				c-0.957,3.099-0.307,7.025,0.024,9.536c3.234-4.009,6.523-8.114,8.291-12.951c0.309-0.844,0.572-1.736,0.469-2.629
				C65.183,365.147,64.631,364.252,63.771,363.994z"/>
		</g>
		<g>
			<g>
				<path style="fill:#263238;" d="M57.188,385.534c-0.069-4.142,0.831-8.25,2.659-11.971c0.424-0.863-0.869-1.624-1.295-0.757
					c-1.945,3.959-2.938,8.316-2.864,12.728C55.704,386.498,57.204,386.501,57.188,385.534L57.188,385.534z"/>
			</g>
		</g>
	</g>
	<g>
		<g>
			<path style="fill:#263238;" d="M352.58,401.946c30.595,0,61.191,0,91.786,0c8.647,0,17.293,0,25.94,0c0.483,0,0.483-0.75,0-0.75
				c-30.595,0-61.191,0-91.786,0c-8.647,0-17.293,0-25.94,0C352.098,401.196,352.097,401.946,352.58,401.946L352.58,401.946z"/>
		</g>
	</g>
	<g>
		<g>
			<path style="fill:#263238;" d="M40.38,434.12c40.812,0,81.624,0,122.436,0c40.604,0,81.208,0,121.812,0
				c22.905,0,45.81,0,68.714,0c0.483,0,0.483-0.75,0-0.75c-40.812,0-81.624,0-122.436,0c-40.604,0-81.208,0-121.812,0
				c-22.905,0-45.81,0-68.714,0C39.898,433.37,39.897,434.12,40.38,434.12L40.38,434.12z"/>
		</g>
	</g>
</g>
<g id="Clouds">
	<g>
		<g>
			<g>
				<path style="fill:#407BFF;" d="M458.448,31.661c-5.617-0.381-11.5-0.42-16.553,2.342c-5.053,2.763-8.944,9.146-7.54,15.228
					c-12.732-9.55-29.314-12.415-44.037-7.61c-14.723,4.805-27.31,17.19-33.426,32.892c-2.609,6.698-4.089,14.121-3.113,21.342
					c0.976,7.222,4.663,14.189,10.439,17.62c-14.31,7.948-19.912,30.755-11.233,45.737c-8.805-1.343-18.128,3.422-22.97,11.739
					c-9.051-3.622-20.144,0.932-24.935,10.237c-13.876-5.905-30.64-2.216-41.47,9.124c-8.275-5.984-22.08-0.256-22.479,10.452
					c11.981,6.842,26.397,8.173,39.222,3.619c11.456,8.21,27.651,7.057,38.08-2.71c10.852,8.319,26.334,8.241,37.118-0.189
					c17.637,4.775,36.54,3.546,53.561-3.482c2.619-1.081,5.469-2.607,6.388-5.55c1.339-4.286-2.27-8.54-5.95-10.471
					c-3.681-1.931-8.01-3.01-10.518-6.584c18.251,1.335,36.754-10.242,45.258-28.316c0.688,12.648,12.736,22.942,23.854,20.381
					c-8.232,4.295-10.456,17.816-5.113,26.02c5.343,8.204,16.207,10.503,24.562,6.516l0.437-183.603
					C476.665,14.698,464.65,20.897,458.448,31.661z"/>
			</g>
			<g style="opacity:0.8;">
				<path style="fill:#FFFFFF;" d="M458.448,31.661c-5.617-0.381-11.5-0.42-16.553,2.342c-5.053,2.763-8.944,9.146-7.54,15.228
					c-12.732-9.55-29.314-12.415-44.037-7.61c-14.723,4.805-27.31,17.19-33.426,32.892c-2.609,6.698-4.089,14.121-3.113,21.342
					c0.976,7.222,4.663,14.189,10.439,17.62c-14.31,7.948-19.912,30.755-11.233,45.737c-8.805-1.343-18.128,3.422-22.97,11.739
					c-9.051-3.622-20.144,0.932-24.935,10.237c-13.876-5.905-30.64-2.216-41.47,9.124c-8.275-5.984-22.08-0.256-22.479,10.452
					c11.981,6.842,26.397,8.173,39.222,3.619c11.456,8.21,27.651,7.057,38.08-2.71c10.852,8.319,26.334,8.241,37.118-0.189
					c17.637,4.775,36.54,3.546,53.561-3.482c2.619-1.081,5.469-2.607,6.388-5.55c1.339-4.286-2.27-8.54-5.95-10.471
					c-3.681-1.931-8.01-3.01-10.518-6.584c18.251,1.335,36.754-10.242,45.258-28.316c0.688,12.648,12.736,22.942,23.854,20.381
					c-8.232,4.295-10.456,17.816-5.113,26.02c5.343,8.204,16.207,10.503,24.562,6.516l0.437-183.603
					C476.665,14.698,464.65,20.897,458.448,31.661z"/>
			</g>
			<g style="opacity:0.2;">
				<path style="fill:#407BFF;" d="M375.523,112.683c-7.191-1.799-10.4-10.155-11.517-17.484c-1.787-11.721-1.1-23.701,1.182-35.359
					c-3.398,4.399-6.221,9.345-8.297,14.674c-2.609,6.698-4.089,14.121-3.113,21.342c0.976,7.222,4.663,14.189,10.439,17.62
					c-14.31,7.948-19.912,30.756-11.233,45.737c-8.805-1.343-18.128,3.422-22.97,11.739c-9.051-3.622-20.143,0.932-24.935,10.237
					c-13.876-5.905-30.64-2.216-41.47,9.124c-6.424-4.646-16.179-2.23-20.409,4.094c7.493-2.83,16.215-2.518,23.313,1.247
					c-1.345-1.842,0.734-4.244,2.69-5.417c12.74-7.641,29.788-7.416,42.322,0.557c-2.189-5.246-0.013-11.936,4.845-14.889
					c4.858-2.954,11.798-1.807,15.449,2.551c-0.769-6.343,5.124-11.978,11.413-13.109c6.289-1.13,12.67,1.089,18.527,3.641
					c-3.499-3.98-2.427-11.039,2.095-13.801c-3.307,0.054-6.089-2.622-7.566-5.581c-3.399-6.805-1.687-15.29,2.489-21.647
					C362.954,121.603,369.24,116.97,375.523,112.683z"/>
			</g>
		</g>
		<g>
			<g>
				<path style="fill:#407BFF;" d="M195.626,282.172c-0.875-9.612-10.612-12.938-15.659-13.354
					c-5.047-0.417-10.228,2.171-12.927,6.455c-0.902-4.027-4.165-7.432-8.15-8.505c-3.985-1.073-8.516,0.232-11.319,3.26
					c0.875-8.007-2.237-17.02-9.426-20.652c-7.189-3.632-17.906,1.105-18.069,9.158c-4.905-2.992-11.357-3.266-16.498-0.7
					c-5.141,2.566-8.801,7.886-9.359,13.605c-8.906-3.967-20.11-2.059-27.202,4.631c0,0-11.971-4.097-13.774,5.809L195.626,282.172z
					"/>
			</g>
			<g style="opacity:0.8;">
				<path style="fill:#FFFFFF;" d="M195.626,282.172c-0.875-9.612-10.612-12.938-15.659-13.354
					c-5.047-0.417-10.228,2.171-12.927,6.455c-0.902-4.027-4.165-7.432-8.15-8.505c-3.985-1.073-8.516,0.232-11.319,3.26
					c0.875-8.007-2.237-17.02-9.426-20.652c-7.189-3.632-17.906,1.105-18.069,9.158c-4.905-2.992-11.357-3.266-16.498-0.7
					c-5.141,2.566-8.801,7.886-9.359,13.605c-8.906-3.967-20.11-2.059-27.202,4.631c0,0-11.971-4.097-13.774,5.809L195.626,282.172z
					"/>
			</g>
			<g>
				<g style="opacity:0.2;">
					<path style="fill:#407BFF;" d="M121.192,267.572c1.309-3.383-0.677-7.082-0.872-10.723c-0.142,0.602-0.23,1.225-0.243,1.872
						c-4.605-2.809-10.574-3.221-15.541-1.138C111.031,258.704,117.116,262.296,121.192,267.572z"/>
				</g>
				<g style="opacity:0.2;">
					<path style="fill:#407BFF;" d="M179.968,269.005c-5.047-0.417-10.228,2.171-12.927,6.455c-0.902-4.027-4.165-7.432-8.15-8.505
						c-3.985-1.073-8.516,0.232-11.319,3.26c0.875-8.007-2.237-17.02-9.426-20.652c-1.425-0.72-2.988-1.106-4.58-1.208
						c2.11,0.832,4.021,2.269,5.459,4.055c2.558,3.176,3.75,7.317,3.981,11.415c0.231,4.098-0.437,8.192-1.252,12.213
						c3.568-3.696,8.886-5.56,13.935-4.886c5.05,0.674,9.714,3.871,12.223,8.378c3.968-4.19,9.676-6.617,15.395-6.547
						c3.361,0.041,6.694,0.95,9.658,2.557C189.507,271.084,183.558,269.301,179.968,269.005z"/>
				</g>
			</g>
		</g>
		<g>
			<g>
				<path style="fill:#407BFF;" d="M198.485,184.955c-6.371-9.06-21.449-10.513-28.838-2.262
					c-1.033-5.226-5.554-9.577-10.815-10.409c-5.262-0.833-10.904,1.91-13.501,6.561c-0.193-4.469-3.525-8.624-7.845-9.784
					c-3.361-0.902-7.107,0.071-9.739,2.32c7.278-9.147,8.464-22.781,2.972-33.185c-5.954-11.279-19.003-18.187-31.735-17.432
					c-12.732,0.755-24.62,8.817-30.645,20.058c1.327-6.71-1.242-14.05-6.463-18.468c-5.222-4.419-12.885-5.738-19.283-3.319
					c3.593-9.192,1.427-20.366-5.341-27.549c-6.768-7.183-17.793-10.011-27.182-6.971l-0.58,151.539
					c10.996,5.227,20.397,4.12,31.11-1.665c4.739-2.559,9.148-6.176,14.486-6.899c6.212-0.841,12.13,2.411,18.058,4.449
					c16.577,5.697,36.171,1.402,48.844-10.708c12.591,9.329,33.144,4.369,40.094-9.676c8.127,7.525,21.528,9.05,30.623,2.73
					C201.8,207.962,204.856,194.015,198.485,184.955z"/>
			</g>
			<g style="opacity:0.8;">
				<path style="fill:#FFFFFF;" d="M198.485,184.955c-6.371-9.06-21.449-10.513-28.838-2.262
					c-1.033-5.226-5.554-9.577-10.815-10.409c-5.262-0.833-10.904,1.91-13.501,6.561c-0.193-4.469-3.525-8.624-7.845-9.784
					c-3.361-0.902-7.107,0.071-9.739,2.32c7.278-9.147,8.464-22.781,2.972-33.185c-5.954-11.279-19.003-18.187-31.735-17.432
					c-12.732,0.755-24.62,8.817-30.645,20.058c1.327-6.71-1.242-14.05-6.463-18.468c-5.222-4.419-12.885-5.738-19.283-3.319
					c3.593-9.192,1.427-20.366-5.341-27.549c-6.768-7.183-17.793-10.011-27.182-6.971l-0.58,151.539
					c10.996,5.227,20.397,4.12,31.11-1.665c4.739-2.559,9.148-6.176,14.486-6.899c6.212-0.841,12.13,2.411,18.058,4.449
					c16.577,5.697,36.171,1.402,48.844-10.708c12.591,9.329,33.144,4.369,40.094-9.676c8.127,7.525,21.528,9.05,30.623,2.73
					C201.8,207.962,204.856,194.015,198.485,184.955z"/>
			</g>
			<g style="opacity:0.2;">
				<path style="fill:#407BFF;" d="M115.159,174.868c3.592-2.757,8.232-4.021,12.741-3.694c7.135-9.145,8.271-22.65,2.82-32.977
					c-5.954-11.279-19.003-18.187-31.735-17.432c-12.732,0.755-24.62,8.817-30.645,20.058c1.327-6.71-1.242-14.05-6.463-18.468
					c-5.222-4.419-12.885-5.738-19.283-3.319c3.593-9.192,1.427-20.366-5.341-27.549c-6.768-7.183-17.793-10.011-27.182-6.971
					l-0.022,5.682c8.17,1.09,15.867,5.563,20.761,12.207c5.434,7.379,7.3,17.268,4.928,26.12c5.294-5.77,15.581-4.224,20.764,1.645
					c5.184,5.869,6.098,14.467,4.876,22.202c7.682-8.305,15.683-16.841,26.078-21.306c10.394-4.465,23.914-3.74,31.378,4.761
					c4.681,5.332,6.259,12.936,5.2,19.951C122.974,162.792,119.51,169.264,115.159,174.868z"/>
			</g>
			<g style="opacity:0.2;">
				<path style="fill:#407BFF;" d="M198.485,184.955c-6.371-9.06-21.449-10.513-28.838-2.262
					c-1.033-5.226-5.554-9.577-10.815-10.409c-5.262-0.833-10.904,1.91-13.501,6.561c-0.193-4.469-3.525-8.624-7.845-9.784
					c-3.253-0.873-6.858,0.022-9.474,2.12c2.279,0.179,4.522,0.757,6.576,1.769c6.15,3.031,10.313,9.721,10.315,16.577
					c1.283-5.356,6.69-9.408,12.191-9.135c5.501,0.273,10.481,4.839,11.227,10.296c4.843-6.023,13.383-8.384,20.956-6.843
					c4.135,0.841,7.967,2.719,11.346,5.256C200.09,187.646,199.394,186.248,198.485,184.955z"/>
			</g>
		</g>
		<g>
			<g>
				<path style="fill:#407BFF;" d="M394.232,262.389c0.132-5.119-2.894-12.106-7.459-14.427c-4.565-2.321-10.443-1.773-14.501,1.351
					c-0.594-4.099-3.531-7.775-7.398-9.259c-3.867-1.484-8.509-0.717-11.692,1.932c-5.298-10.464-18.106-16.508-29.551-13.946
					c-11.445,2.562-20.453,13.492-20.783,25.215c-3.523,0.04-7.602,9.133-7.602,9.133H394.232z"/>
			</g>
			<g style="opacity:0.8;">
				<path style="fill:#FFFFFF;" d="M394.232,262.389c0.132-5.119-2.894-12.106-7.459-14.427c-4.565-2.321-10.443-1.773-14.501,1.351
					c-0.594-4.099-3.531-7.775-7.398-9.259c-3.867-1.484-8.509-0.717-11.692,1.932c-5.298-10.464-18.106-16.508-29.551-13.946
					c-11.445,2.562-20.453,13.492-20.783,25.215c-3.523,0.04-7.602,9.133-7.602,9.133H394.232z"/>
			</g>
			<g style="opacity:0.2;">
				<path style="fill:#407BFF;" d="M307.238,257.576c-0.394-7.005,3.11-14.018,8.715-18.239c5.605-4.221,13.105-5.67,19.975-4.246
					c6.87,1.424,13.056,5.6,17.294,11.192c4.092-3.271,9.462-4.834,14.677-4.458c-0.916-0.735-1.927-1.349-3.025-1.77
					c-3.867-1.484-8.509-0.717-11.693,1.932c-5.298-10.464-18.106-16.508-29.551-13.946c-11.445,2.563-20.453,13.492-20.783,25.215
					c-3.523,0.04-7.602,9.133-7.602,9.133h0.257C298.192,258.866,302.848,256.944,307.238,257.576z"/>
			</g>
		</g>
		<g>
			<g>
				<path style="fill:#407BFF;" d="M186.883,52.605c-1.677-5.257-7.572-8.981-12.934-7.683c-0.761-4.04-3.712-7.598-7.541-9.092
					c-3.83-1.494-8.411-0.875-11.706,1.582c0.593-3.17-1.475-6.406-4.291-7.978c-2.816-1.572-6.203-1.762-9.414-1.464
					c-5.378,0.5-11.059,2.615-13.8,7.269c-2.622,4.451-0.91,11.366,3.873,12.91c-3.248,0.202-6.022,3.309-6.223,6.616
					c-0.216,3.545,2.051,6.935,5.106,8.745c3.056,1.81,6.763,2.233,10.303,1.95c-0.42,6.451,4.615,12.803,10.992,13.866
					s13.2-3.31,14.897-9.549c5.275,1.617,11.364,0.894,15.743-2.463C186.266,63.958,188.56,57.862,186.883,52.605z"/>
			</g>
			<g style="opacity:0.8;">
				<path style="fill:#FFFFFF;" d="M186.883,52.605c-1.677-5.257-7.572-8.981-12.934-7.683c-0.761-4.04-3.712-7.598-7.541-9.092
					c-3.83-1.494-8.411-0.875-11.706,1.582c0.593-3.17-1.475-6.406-4.291-7.978c-2.816-1.572-6.203-1.762-9.414-1.464
					c-5.378,0.5-11.059,2.615-13.8,7.269c-2.622,4.451-0.91,11.366,3.873,12.91c-3.248,0.202-6.022,3.309-6.223,6.616
					c-0.216,3.545,2.051,6.935,5.106,8.745c3.056,1.81,6.763,2.233,10.303,1.95c-0.42,6.451,4.615,12.803,10.992,13.866
					s13.2-3.31,14.897-9.549c5.275,1.617,11.364,0.894,15.743-2.463C186.266,63.958,188.56,57.862,186.883,52.605z"/>
			</g>
		</g>
	</g>
</g>
<g id="Birds">
	<g>
		<g>
			<path style="fill:#407BFF;" d="M195.666,110.129c0.842,5.842,5.621,13.295,8.785,17.643c-0.511-7.993-1.921-21.455-4.701-25.517
				c-4.05-5.918-19.954-9.617-19.954-9.617l-1.995,6.521L195.666,110.129z"/>
			<path style="opacity:0.3;fill:#FFFFFF;" d="M195.666,110.129c0.842,5.842,5.621,13.295,8.785,17.643
				c-0.511-7.993-1.921-21.455-4.701-25.517c-4.05-5.918-19.954-9.617-19.954-9.617l-1.995,6.521L195.666,110.129z"/>
			<path style="fill:#263238;" d="M177.801,99.159l-1.433,4.684c0,0,15.947,7.4,15.613,7.529
				c-0.333,0.129,5.654,18.845,12.654,22.514c0.096,0.05,0.05-2.461-0.184-6.114c-3.164-4.348-7.943-11.8-8.785-17.643
				L177.801,99.159z"/>
		</g>
		<path style="fill:#407BFF;" d="M144.241,106.187c0,0,12.053-3.94,14.487-5.215c2.434-1.275,17.963-9.619,20.629-11.589
			c2.665-1.97,5.215-6.49,12.516-3.361l-0.966,2.08c-0.357,0.77-0.853,1.468-1.461,2.06l-3.368,3.277c0,0-1.738,4.868-6.142,8.808
			c-4.404,3.94-17.71,2.096-19.818,3.361c-0.579,0.348-4.056,7.881-6.606,7.649C150.963,113.025,144.589,106.999,144.241,106.187z"
			/>
		<path style="opacity:0.3;fill:#FFFFFF;" d="M144.241,106.187c0,0,12.053-3.94,14.487-5.215
			c2.434-1.275,17.963-9.619,20.629-11.589c2.665-1.97,5.215-6.49,12.516-3.361l-0.966,2.08c-0.357,0.77-0.853,1.468-1.461,2.06
			l-3.368,3.277c0,0-1.738,4.868-6.142,8.808c-4.404,3.94-17.71,2.096-19.818,3.361c-0.579,0.348-4.056,7.881-6.606,7.649
			C150.963,113.025,144.589,106.999,144.241,106.187z"/>
		<g>
			<g>
				<path style="fill:#E97F3F;" d="M162.432,103.688c-0.519,0.704-1.043,1.404-1.573,2.099c-0.522,0.685-0.989,1.286-1.542,1.986
					c-0.242,0.307-0.322,0.765,0,1.061c0.27,0.248,0.801,0.329,1.061,0c1.14-1.445,2.258-2.908,3.35-4.389
					c0.234-0.317,0.063-0.851-0.269-1.026C163.067,103.213,162.682,103.35,162.432,103.688L162.432,103.688z"/>
			</g>
		</g>
		<path style="fill:#E97F3F;" d="M155.505,109.45c0,0,1.662,2.825,2.604,2.604c0.942-0.222,2.878-5.209,2.878-5.209L155.505,109.45z
			"/>
		<g>
			<g>
				<path style="fill:#E97F3F;" d="M166.756,104.701c-0.519,0.704-1.043,1.404-1.573,2.099c-0.522,0.685-0.989,1.286-1.542,1.986
					c-0.243,0.307-0.322,0.765,0,1.061c0.27,0.248,0.801,0.329,1.061,0c1.14-1.445,2.258-2.907,3.35-4.389
					c0.234-0.317,0.063-0.851-0.269-1.026C167.391,104.226,167.006,104.363,166.756,104.701L166.756,104.701z"/>
			</g>
		</g>
		<path style="fill:#E97F3F;" d="M159.829,110.463c0,0,1.662,2.825,2.604,2.604c0.942-0.222,2.878-5.209,2.878-5.209
			L159.829,110.463z"/>
		<path style="fill:#407BFF;" d="M129.557,69.423c-0.221-0.318,28.633-2.613,35.753,1.065c7.12,3.678,13.411,20.808,13.411,20.808
			l-11.954,5.344c0,0-10.402-16.668-10.499-16.28C156.171,80.746,134.589,76.681,129.557,69.423z"/>
		<path style="opacity:0.3;fill:#FFFFFF;" d="M129.557,69.423c-0.221-0.318,28.633-2.613,35.753,1.065
			c7.12,3.678,13.411,20.808,13.411,20.808l-11.954,5.344c0,0-10.402-16.668-10.499-16.28
			C156.171,80.746,134.589,76.681,129.557,69.423z"/>
		<path style="fill:#263238;" d="M187.811,87.039c0,0.461-0.374,0.836-0.835,0.836s-0.835-0.374-0.835-0.836
			c0-0.461,0.374-0.836,0.835-0.836S187.811,86.577,187.811,87.039z"/>
		<path style="fill:#E97F3F;" d="M190.035,87.058l0.619-1.386c0,0,1.9-1.275,3.744-1.068c0,0,0.559-0.045,0.559,0.598
			L190.035,87.058L190.035,87.058z"/>
		<path style="fill:#E97F3F;" d="M194.725,87.395l-4.458-0.516l0.713-0.535C190.981,86.344,194.194,86.103,194.725,87.395z"/>
		<path style="fill:#263238;" d="M171.764,94.405l-14.625-18.305c-6.596-0.129-15.519-4.404-20.776-7.315
			c-4.084,0.243-6.875,0.538-6.806,0.637c5.033,7.258,26.615,11.323,26.711,10.936c0.097-0.387,10.499,16.28,10.499,16.28
			L171.764,94.405z"/>
	</g>
	<g>
		<path style="fill:#263238;" d="M291.989,68.093c0,0,15.986-9.633,19.505-11.658c3.519-2.025,31.867-11.137,31.057-10.732
			c-0.81,0.405,3.037,7.289-6.682,12.959c-9.719,5.669-29.765,13.566-30.575,13.566S291.989,68.093,291.989,68.093z"/>
		<g>
			<path style="fill:#407BFF;" d="M265.185,71.896c0,0,12.68,0.038,15.391-0.409c2.711-0.447,20.074-3.5,23.223-4.535
				c3.149-1.035,6.987-4.527,12.939,0.734l-1.569,1.672c-0.581,0.619-1.27,1.127-2.034,1.498l-4.225,2.055
				c0,0-3.177,4.077-8.595,6.437c-5.417,2.36-17.473-3.563-19.872-3.024c-0.659,0.148-6.323,6.211-8.671,5.191
				C269.423,80.497,265.26,72.775,265.185,71.896z"/>
			<path style="opacity:0.3;fill:#FFFFFF;" d="M265.185,71.896c0,0,12.68,0.038,15.391-0.409c2.711-0.447,20.074-3.5,23.223-4.535
				c3.149-1.035,6.987-4.527,12.939,0.734l-1.569,1.672c-0.581,0.619-1.27,1.127-2.034,1.498l-4.225,2.055
				c0,0-3.177,4.077-8.595,6.437c-5.417,2.36-17.473-3.563-19.872-3.024c-0.659,0.148-6.323,6.211-8.671,5.191
				C269.423,80.497,265.26,72.775,265.185,71.896z"/>
			<g>
				<g>
					<path style="fill:#E97F3F;" d="M283.359,75.143c-1.45,1.027-2.916,2.031-4.398,3.01c-0.327,0.216-0.497,0.673-0.269,1.026
						c0.21,0.326,0.676,0.5,1.026,0.269c1.483-0.979,2.949-1.982,4.398-3.01c0.319-0.226,0.502-0.665,0.269-1.026
						C284.181,75.095,283.702,74.9,283.359,75.143L283.359,75.143z"/>
				</g>
			</g>
			<path style="fill:#E97F3F;" d="M274.857,78.527c0,0,0.692,3.204,1.656,3.289c0.964,0.085,4.366-4.044,4.366-4.044L274.857,78.527
				z"/>
			<g>
				<g>
					<path style="fill:#E97F3F;" d="M287.148,77.461c-1.45,1.027-2.916,2.031-4.398,3.01c-0.327,0.216-0.497,0.673-0.269,1.026
						c0.21,0.326,0.676,0.5,1.026,0.269c1.483-0.979,2.949-1.982,4.398-3.01c0.319-0.226,0.502-0.665,0.269-1.026
						C287.97,77.413,287.49,77.218,287.148,77.461L287.148,77.461z"/>
				</g>
			</g>
			<path style="fill:#E97F3F;" d="M278.645,80.844c0,0,0.692,3.204,1.656,3.289c0.964,0.085,4.366-4.044,4.366-4.044L278.645,80.844
				z"/>
			<path style="fill:#407BFF;" d="M256.123,42.067c-0.184-0.341,28.746,0.58,35.414,5.025c6.668,4.445,11.02,22.167,11.02,22.167
				l-12.473,3.985c0,0-8.489-17.719-8.628-17.345C281.317,56.273,260.319,49.839,256.123,42.067z"/>
			<path style="opacity:0.3;fill:#FFFFFF;" d="M256.123,42.067c-0.184-0.341,28.746,0.58,35.414,5.025
				c6.668,4.445,11.02,22.167,11.02,22.167l-12.473,3.985c0,0-8.489-17.719-8.628-17.345
				C281.317,56.273,260.319,49.839,256.123,42.067z"/>
			<path style="fill:#263238;" d="M312.561,67.377c-0.145,0.438-0.617,0.676-1.055,0.531c-0.438-0.145-0.676-0.617-0.531-1.055
				c0.145-0.438,0.617-0.676,1.055-0.531S312.706,66.939,312.561,67.377z"/>
			<path style="fill:#E97F3F;" d="M314.668,68.093l1.022-1.122c0,0,2.204-0.615,3.891,0.16c0,0,0.545,0.133,0.343,0.743
				L314.668,68.093L314.668,68.093z"/>
			<path style="fill:#E97F3F;" d="M319.016,69.883l-4.071-1.888l0.845-0.284C315.79,67.711,318.917,68.49,319.016,69.883z"/>
			<path style="fill:#263238;" d="M295.298,71.578l-12.504-19.814c-6.541-0.86-14.935-6.099-19.836-9.575
				c-4.085-0.211-6.893-0.228-6.835-0.121c4.196,7.772,25.194,14.206,25.333,13.832c0.139-0.374,8.628,17.345,8.628,17.345
				L295.298,71.578z"/>
		</g>
	</g>
	<g>
		<path style="fill:#263238;" d="M378.595,121.755c-1.584,0.746-27.306,17.334-27.306,17.334s-0.373-7.828,3.169-13.047
			c3.541-5.219,10.147-7.922,10.479-8.388c0.332-0.466,0-5.077,0-5.077l8.813,0.231L378.595,121.755z"/>
		<g>
			<path style="fill:#407BFF;" d="M346.33,107.847c0,0,11.713,0.035,14.217-0.378s18.542-3.233,21.451-4.189
				c2.909-0.956,6.454-4.182,11.952,0.678l-1.45,1.545c-0.537,0.572-1.173,1.041-1.878,1.384l-3.903,1.898
				c0,0-2.935,3.766-7.939,5.946c-5.004,2.18-16.141-3.292-18.356-2.793c-0.609,0.137-5.841,5.737-8.01,4.796
				C350.245,115.791,346.4,108.659,346.33,107.847z"/>
			<path style="opacity:0.3;fill:#FFFFFF;" d="M346.33,107.847c0,0,11.713,0.035,14.217-0.378s18.542-3.233,21.451-4.189
				c2.909-0.956,6.454-4.182,11.952,0.678l-1.45,1.545c-0.537,0.572-1.173,1.041-1.878,1.384l-3.903,1.898
				c0,0-2.935,3.766-7.939,5.946c-5.004,2.18-16.141-3.292-18.356-2.793c-0.609,0.137-5.841,5.737-8.01,4.796
				C350.245,115.791,346.4,108.659,346.33,107.847z"/>
			<g>
				<g>
					<path style="fill:#E97F3F;" d="M363.089,110.797c-1.339,0.949-2.693,1.876-4.063,2.78c-0.327,0.216-0.497,0.673-0.269,1.026
						c0.21,0.326,0.676,0.5,1.026,0.269c1.369-0.904,2.724-1.831,4.063-2.78c0.319-0.226,0.502-0.665,0.269-1.026
						C363.911,110.749,363.432,110.554,363.089,110.797L363.089,110.797z"/>
				</g>
			</g>
			<path style="fill:#E97F3F;" d="M355.264,113.971c0,0,0.639,2.959,1.529,3.038c0.89,0.078,4.033-3.735,4.033-3.735
				L355.264,113.971z"/>
			<g>
				<g>
					<path style="fill:#E97F3F;" d="M366.589,112.938c-1.339,0.949-2.694,1.876-4.063,2.78c-0.327,0.216-0.497,0.673-0.269,1.026
						c0.21,0.326,0.676,0.5,1.026,0.269c1.369-0.904,2.724-1.831,4.063-2.78c0.319-0.226,0.502-0.665,0.269-1.026
						C367.411,112.89,366.931,112.695,366.589,112.938L366.589,112.938z"/>
				</g>
			</g>
			<path style="fill:#E97F3F;" d="M358.764,116.113c0,0,0.639,2.959,1.529,3.038c0.89,0.078,4.033-3.735,4.033-3.735
				L358.764,116.113z"/>
			<path style="fill:#263238;" d="M390.093,103.673c-0.134,0.405-0.57,0.624-0.975,0.491c-0.405-0.134-0.625-0.57-0.491-0.975
				c0.134-0.405,0.57-0.624,0.975-0.491C390.007,102.831,390.227,103.268,390.093,103.673z"/>
			<path style="fill:#E97F3F;" d="M392.039,104.333l0.944-1.036c0,0,2.036-0.568,3.594,0.148c0,0,0.503,0.123,0.317,0.686
				L392.039,104.333L392.039,104.333z"/>
			<path style="fill:#E97F3F;" d="M396.055,105.988l-3.761-1.744l0.781-0.263C393.075,103.981,395.963,104.701,396.055,105.988z"/>
		</g>
		<path style="fill:#407BFF;" d="M371.306,109.639c-0.197,0.219,1.957,13.7,1.957,13.7s-14.818,14.538-12.674,22.46
			c0,0,23.299-12.302,25.722-16.961c2.423-4.66-3.635-21.062-3.635-21.062S373.729,106.937,371.306,109.639z"/>
		<path style="opacity:0.3;fill:#FFFFFF;" d="M371.306,109.639c-0.197,0.219,1.957,13.7,1.957,13.7s-14.818,14.538-12.674,22.46
			c0,0,23.299-12.302,25.722-16.961c2.423-4.66-3.635-21.062-3.635-21.062S373.729,106.937,371.306,109.639z"/>
		<path style="fill:#263238;" d="M374.102,135.548c-3.376-1.447-6.949-1.67-9.692-1.51c-2.679,4.053-4.711,8.476-3.822,11.762
			c0,0,8.433-4.453,15.68-9.016C375.705,136.349,374.998,135.931,374.102,135.548z"/>
	</g>
	<g>
		<path style="fill:#263238;" d="M101.924,205.186c1.316,0.62,22.688,14.403,22.688,14.403s0.31-6.505-2.633-10.841
			c-2.943-4.336-8.431-6.582-8.707-6.969c-0.276-0.387,0-4.219,0-4.219l-7.322,0.192L101.924,205.186z"/>
		<g>
			<g>
				<g>
					<path style="fill:#E97F3F;" d="M111.207,199.046c1.113,0.788,2.238,1.559,3.376,2.31c0.328,0.217,0.844,0.076,1.026-0.269
						c0.199-0.376,0.081-0.795-0.269-1.026c-1.138-0.751-2.263-1.522-3.376-2.31c-0.321-0.227-0.848-0.068-1.026,0.269
						C110.734,198.406,110.864,198.803,111.207,199.046L111.207,199.046z"/>
				</g>
			</g>
			<path style="fill:#E97F3F;" d="M118.402,200.498c0,0-0.531,2.459-1.271,2.524c-0.74,0.065-3.351-3.104-3.351-3.104
				L118.402,200.498z"/>
			<path style="fill:#407BFF;" d="M128.733,193.63c0,0-9.732,0.029-11.813-0.314c-2.081-0.343-15.407-2.687-17.824-3.481
				c-2.417-0.794-5.363-3.475-9.931,0.563l1.205,1.284c0.446,0.475,0.975,0.865,1.561,1.15l3.243,1.577c0,0,2.439,3.129,6.596,4.941
				c4.158,1.812,13.411-2.735,15.252-2.321c0.506,0.114,4.853,4.767,6.655,3.984C125.48,200.231,128.675,194.305,128.733,193.63z"/>
			<path style="opacity:0.3;fill:#FFFFFF;" d="M128.733,193.63c0,0-9.732,0.029-11.813-0.314
				c-2.081-0.343-15.407-2.687-17.824-3.481c-2.417-0.794-5.363-3.475-9.931,0.563l1.205,1.284c0.446,0.475,0.975,0.865,1.561,1.15
				l3.243,1.577c0,0,2.439,3.129,6.596,4.941c4.158,1.812,13.411-2.735,15.252-2.321c0.506,0.114,4.853,4.767,6.655,3.984
				C125.48,200.231,128.675,194.305,128.733,193.63z"/>
			<g>
				<g>
					<path style="fill:#E97F3F;" d="M114.114,197.267c1.113,0.788,2.238,1.559,3.376,2.31c0.328,0.217,0.844,0.076,1.026-0.269
						c0.199-0.376,0.081-0.795-0.269-1.026c-1.138-0.751-2.263-1.521-3.376-2.31c-0.321-0.228-0.848-0.068-1.026,0.269
						C113.641,196.626,113.771,197.024,114.114,197.267L114.114,197.267z"/>
				</g>
			</g>
			<path style="fill:#E97F3F;" d="M121.309,198.719c0,0-0.531,2.459-1.271,2.524s-3.351-3.104-3.351-3.104L121.309,198.719z"/>
			<path style="fill:#263238;" d="M92.37,190.162c0.111,0.336,0.474,0.519,0.81,0.408c0.336-0.111,0.519-0.474,0.408-0.81
				c-0.111-0.336-0.474-0.519-0.81-0.408C92.442,189.463,92.259,189.826,92.37,190.162z"/>
			<path style="fill:#E97F3F;" d="M90.754,190.711l-0.784-0.861c0,0-1.692-0.472-2.986,0.123c0,0-0.418,0.102-0.263,0.57
				L90.754,190.711L90.754,190.711z"/>
			<path style="fill:#E97F3F;" d="M87.417,192.085l3.125-1.449l-0.649-0.218C89.893,190.418,87.493,191.016,87.417,192.085z"/>
		</g>
		<path style="fill:#407BFF;" d="M107.98,195.12c0.164,0.182-1.626,11.383-1.626,11.383s12.312,12.08,10.531,18.662
			c0,0-19.359-10.221-21.372-14.093c-2.013-3.872,3.02-17.5,3.02-17.5S105.967,192.874,107.98,195.12z"/>
		<path style="opacity:0.3;fill:#FFFFFF;" d="M107.98,195.12c0.164,0.182-1.626,11.383-1.626,11.383s12.312,12.08,10.531,18.662
			c0,0-19.359-10.221-21.372-14.093c-2.013-3.872,3.02-17.5,3.02-17.5S105.967,192.874,107.98,195.12z"/>
		<path style="fill:#263238;" d="M105.657,216.647c2.805-1.202,5.774-1.387,8.053-1.255c2.226,3.367,3.914,7.042,3.175,9.773
			c0,0-7.007-3.7-13.028-7.491C104.325,217.313,104.913,216.965,105.657,216.647z"/>
	</g>
	<g>
		<g>
			<path style="fill:#407BFF;" d="M410.773,233.209c0.096,2.222,1.609,5.195,2.633,6.944c0.108-3.016,0.084-8.116-0.806-9.743
				c-1.297-2.37-7.121-4.353-7.121-4.353l-0.992,2.37L410.773,233.209z"/>
			<path style="opacity:0.3;fill:#FFFFFF;" d="M410.773,233.209c0.096,2.222,1.609,5.195,2.633,6.944
				c0.108-3.016,0.084-8.116-0.806-9.743c-1.297-2.37-7.121-4.353-7.121-4.353l-0.992,2.37L410.773,233.209z"/>
			<path style="fill:#263238;" d="M404.486,228.426l-0.713,1.702c0,0,5.702,3.372,5.572,3.408c-0.13,0.036,1.414,7.277,3.901,8.915
				c0.034,0.022,0.111-0.921,0.16-2.299c-1.023-1.749-2.536-4.722-2.633-6.944L404.486,228.426z"/>
		</g>
		<path style="fill:#407BFF;" d="M391.64,229.804c0,0,4.667-1.026,5.627-1.413c0.96-0.387,7.095-2.933,8.169-3.572
			c1.073-0.639,2.198-2.238,4.819-0.791l-0.44,0.744c-0.163,0.275-0.375,0.518-0.625,0.718l-1.385,1.102c0,0-0.834,1.76-2.633,3.072
			c-1.799,1.312-6.718,0.122-7.556,0.518c-0.23,0.109-1.816,2.803-2.763,2.62C393.904,232.62,391.74,230.122,391.64,229.804z"/>
		<path style="opacity:0.3;fill:#FFFFFF;" d="M391.64,229.804c0,0,4.667-1.026,5.627-1.413c0.96-0.387,7.095-2.933,8.169-3.572
			c1.073-0.639,2.198-2.238,4.819-0.791l-0.44,0.744c-0.163,0.275-0.375,0.518-0.625,0.718l-1.385,1.102c0,0-0.834,1.76-2.633,3.072
			c-1.799,1.312-6.718,0.122-7.556,0.518c-0.23,0.109-1.816,2.803-2.763,2.62C393.904,232.62,391.74,230.122,391.64,229.804z"/>
		<g>
			<g>
				<path style="fill:#E97F3F;" d="M398.252,229.185c-0.449,0.497-0.906,0.986-1.371,1.467c-0.135,0.14-0.22,0.335-0.22,0.53
					c0,0.184,0.082,0.404,0.22,0.53c0.143,0.131,0.331,0.229,0.53,0.22c0.197-0.009,0.39-0.075,0.53-0.22
					c0.465-0.482,0.922-0.971,1.371-1.467c0.133-0.147,0.22-0.328,0.22-0.53c0-0.184-0.082-0.404-0.22-0.53
					c-0.143-0.131-0.331-0.229-0.53-0.22C398.589,228.974,398.386,229.037,398.252,229.185L398.252,229.185z"/>
			</g>
		</g>
		<path style="fill:#E97F3F;" d="M395.74,231.45c0,0,0.517,1.121,0.879,1.074c0.361-0.048,1.274-1.845,1.274-1.845L395.74,231.45z"
			/>
		<g>
			<g>
				<path style="fill:#E97F3F;" d="M399.835,229.727c-0.449,0.497-0.906,0.986-1.371,1.467c-0.135,0.14-0.22,0.335-0.22,0.53
					c0,0.184,0.082,0.404,0.22,0.53c0.143,0.131,0.331,0.229,0.53,0.22c0.197-0.009,0.39-0.075,0.53-0.22
					c0.465-0.482,0.922-0.971,1.371-1.468c0.133-0.147,0.22-0.328,0.22-0.53c0-0.184-0.082-0.404-0.22-0.53
					c-0.143-0.131-0.331-0.229-0.53-0.22C400.173,229.516,399.969,229.579,399.835,229.727L399.835,229.727z"/>
			</g>
		</g>
		<path style="fill:#E97F3F;" d="M397.324,231.992c0,0,0.517,1.121,0.879,1.074c0.361-0.048,1.274-1.845,1.274-1.845
			L397.324,231.992z"/>
		<path style="fill:#407BFF;" d="M387.512,215.47c-0.071-0.127,10.833,0.093,13.365,1.739c2.532,1.646,4.249,8.304,4.249,8.304
			l-4.682,1.556c0,0-3.275-6.639-3.326-6.497C397.066,220.713,389.127,218.38,387.512,215.47z"/>
		<path style="opacity:0.3;fill:#FFFFFF;" d="M387.512,215.47c-0.071-0.127,10.833,0.093,13.365,1.739
			c2.532,1.646,4.249,8.304,4.249,8.304l-4.682,1.556c0,0-3.275-6.639-3.326-6.497C397.066,220.713,389.127,218.38,387.512,215.47z"
			/>
		<path style="fill:#263238;" d="M408.693,224.258c-0.017,0.173-0.172,0.299-0.345,0.282s-0.299-0.172-0.282-0.345
			c0.017-0.173,0.172-0.299,0.345-0.282C408.584,223.93,408.71,224.085,408.693,224.258z"/>
		<path style="fill:#E97F3F;" d="M409.526,224.348l0.284-0.496c0,0,0.76-0.407,1.444-0.26c0,0,0.211,0.004,0.187,0.245
			L409.526,224.348L409.526,224.348z"/>
		<path style="fill:#E97F3F;" d="M411.272,224.65l-1.652-0.36l0.288-0.174C409.907,224.116,411.121,224.146,411.272,224.65z"/>
		<path style="fill:#263238;" d="M402.4,226.418l-4.797-7.411c-2.468-0.296-5.654-2.233-7.516-3.521
			c-1.54-0.062-2.598-0.056-2.576-0.016c1.615,2.91,9.554,5.243,9.605,5.101c0.051-0.141,3.326,6.497,3.326,6.497L402.4,226.418z"/>
	</g>
</g>
<g id="Character">
	<g>
		<g>
			<path style="fill:#263238;" d="M243.467,160.962c-0.161,0.765-0.671,1.302-1.181,1.208c-0.51-0.094-0.765-0.792-0.617-1.557
				c0.148-0.765,0.684-1.288,1.181-1.194C243.346,159.499,243.628,160.197,243.467,160.962z"/>
			<path style="fill:#882828;" d="M243.78,162.18c-1.371,2.143-3.033,4.086-4.939,5.771c0.895,0.967,2.173,1.488,3.489,1.423
				L243.78,162.18z"/>
			<path style="fill:#263238;" d="M246.599,158.05c0.254-0.007,0.456-0.215,0.456-0.47c-0.012-0.108-0.054-0.21-0.121-0.295
				c-0.965-1.095-2.4-1.655-3.852-1.503c-0.052-0.009-0.106-0.009-0.158,0c-0.256,0.044-0.428,0.286-0.384,0.542
				c0.044,0.256,0.287,0.428,0.542,0.384h0.148l0,0c1.174-0.08,2.313,0.422,3.046,1.342
				C246.381,158.089,246.495,158.089,246.599,158.05z"/>
			<path style="fill:#FDBBB5;" d="M265.091,174.728c-1.342,7.032-2.241,16.776,2.684,21.473c0,0-1.933,7.14-15.004,7.14
				c-14.387,0-6.911-6.254-6.911-6.254c5.972-1.865,5.891-8.67,4.549-14.145L265.091,174.728z"/>
			<path style="fill:#FDBBB5;" d="M269.628,164.435c-2.416,9.193-3.449,14.736-9.126,18.587
				c-8.562,5.757-19.285-0.859-19.567-10.629c-0.295-8.804,3.785-22.412,13.689-24.278c7.07-1.352,13.899,3.279,15.259,10.347
				C270.262,160.446,270.175,162.491,269.628,164.435z"/>
			<path style="fill:#263238;" d="M247.355,156.919c-1.332-1.971-0.567-4.617,0.155-6.884c0,0-3-0.123-1.737-2.154
				c3.464-0.504,13.543-11.087,18.293-0.681c0,0,6.161,0.412,8.187,1.383c8.575,4.112,8.079,15.952,0,17.169
				c-0.053,0.008-2.854-1.498-2.908-1.491C261.87,165.267,251.918,162.931,247.355,156.919z"/>
			<path style="fill:#263238;" d="M273.828,157.937c-2.872,3.865-25.753-1.366-25.753-1.366l0.416,15.214l5.57,7.882
				c4.093,1.769,7.663,2.017,10.414-0.121l9.394-15.071C273.868,164.475,276.7,154.072,273.828,157.937z"/>
			<path style="fill:#FDBBB5;" d="M252.664,164.676c-0.57,2.302-1.881,4.354-3.731,5.838c-2.442,1.919-4.362,0.148-4.268-2.684
				c0.094-2.577,1.543-6.643,4.227-7.475C251.577,159.523,253.308,161.885,252.664,164.676z"/>
			<g>
				<path style="fill:#263238;" d="M263.788,147.896l-0.064-0.184c0.674-1.471-0.163-3.293-1.5-4.205
					c-1.337-0.912-3.028-1.109-4.646-1.152c-1.618-0.043-3.268,0.036-4.821-0.419c-1.936-0.567-3.855-1.956-5.776-1.339
					c1.052,0.807,1.916,1.856,2.506,3.043c-3.505-0.644-7.173-0.377-10.548,0.767c0.471,1.355,2.136,1.825,3.566,1.927
					c1.43,0.102,3.028,0.094,4.065,1.084c-3.11,0.804-6.221,1.607-9.331,2.411c2.649,1.228,5.648,1.686,8.543,1.306
					c-2.145,1.01-4.437,1.706-6.782,2.058c2.359,1.936,6.117,0.413,8.82,1.83c1.625,0.851,2.558,2.606,3.986,3.757
					c1.62,1.305,3.841,1.753,5.889,1.393c2.048-0.36,3.92-1.477,5.383-2.955c1.244-1.257,2.236-2.835,2.483-4.586
					C265.807,150.88,265.205,148.954,263.788,147.896z"/>
			</g>
			<g>
				<path style="fill:#263238;" d="M265.133,143.219c-0.695-1.251-2.083-1.945-3.442-2.393c-1.359-0.448-2.798-0.738-4.006-1.506
					c-0.266,0.722,0.134,1.551,0.735,2.031c0.601,0.481,1.364,0.697,2.098,0.929c0.734,0.232,1.489,0.51,2.015,1.072
					c0.826,0.884,0.871,2.296,0.39,3.406c-0.481,1.11-1.394,1.972-2.337,2.729l0.184,0.31c1.059,0.273,2.169-0.276,2.983-1.006
					c0.77-0.69,1.387-1.57,1.671-2.564C265.706,145.233,265.635,144.122,265.133,143.219z"/>
			</g>
			<g>
				<path style="fill:#263238;" d="M263.435,153.15l-0.099-0.766C263.336,152.639,263.359,152.895,263.435,153.15z"/>
			</g>
			<g>
				<path style="fill:#263238;" d="M271.618,139.904c-0.354,2.115-2.24,3.594-4.052,4.739c-1.813,1.145-3.812,2.301-4.682,4.261
					l0.451,3.48c-0.004-1.35,0.949-2.665,2.076-3.506c1.34-1,3.469-2.524,4.703-3.652
					C271.799,143.687,272.786,140.443,271.618,139.904z"/>
			</g>
			<g>
				<g>
					<path d="M270.086,161.758c-2.767,0.731-5.303,2.207-7.306,4.252c-0.338,0.345,0.192,0.876,0.53,0.53
						c1.916-1.956,4.328-3.359,6.975-4.059C270.752,162.358,270.554,161.634,270.086,161.758L270.086,161.758z"/>
				</g>
			</g>
			<g>
				<g>
					<path d="M264.348,162.421c-1.152,0.768-2.304,1.536-3.456,2.304c-0.168,0.112-0.241,0.331-0.134,0.513
						c0.098,0.167,0.344,0.247,0.513,0.134c1.152-0.768,2.304-1.536,3.456-2.304c0.168-0.112,0.241-0.331,0.135-0.513
						C264.763,162.388,264.517,162.308,264.348,162.421L264.348,162.421z"/>
				</g>
			</g>
			<g>
				<g>
					<path d="M252.451,156.338c-2.137-1.817-4.996-2.586-7.756-2.091c-0.474,0.085-0.273,0.808,0.199,0.723
						c2.477-0.445,5.109,0.268,7.026,1.898C252.286,157.18,252.819,156.652,252.451,156.338L252.451,156.338z"/>
				</g>
			</g>
			<g>
				<g>
					<path d="M245.237,151.919c1.729-1.215,3.912-1.679,5.982-1.23c0.471,0.102,0.672-0.621,0.199-0.723
						c-2.257-0.49-4.666-0.025-6.559,1.306C244.467,151.547,244.841,152.198,245.237,151.919L245.237,151.919z"/>
				</g>
			</g>
			<g>
				<g>
					<path d="M255.248,146.536c-2.602,0.079-5.184-0.3-7.654-1.121c-0.459-0.153-0.656,0.572-0.199,0.723
						c2.528,0.84,5.191,1.229,7.854,1.148C255.729,147.271,255.732,146.521,255.248,146.536L255.248,146.536z"/>
				</g>
			</g>
			<g style="opacity:0.3;">
				<g>
					<path d="M249.317,162.959c0.489-0.076,0.764,0.516,0.784,0.908c0.028,0.554-0.188,1.139-0.407,1.64
						c-0.426,0.976-1.078,1.827-1.893,2.51c-0.37,0.31,0.163,0.838,0.53,0.53c1.052-0.881,1.846-2.05,2.28-3.352
						c0.226-0.677,0.375-1.453,0.051-2.124c-0.286-0.593-0.896-0.935-1.545-0.835c-0.202,0.031-0.309,0.282-0.262,0.461
						C248.913,162.912,249.118,162.99,249.317,162.959L249.317,162.959z"/>
				</g>
			</g>
		</g>
		<g>
			<path d="M287.131,275.078L218.4,279.09c0.668,2.251,2.855,3.668,4.962,4.705c8.327,4.103,17.82,5.385,27.097,5.057
				c9.277-0.327,18.424-2.195,27.505-4.117c2.542-0.538,5.186-1.128,7.212-2.755C287.202,280.353,288.382,277.356,287.131,275.078z"
				/>
		</g>
		<g>
			<path d="M224.086,202.206c-1.248-3.959-3.944-7.468-7.49-9.752l-1.84,0.123c-0.1,0.038-1.429,0.56-2.088,1.875
				c-0.659,1.315-0.535,2.882-0.127,4.29c0.408,1.408,1.078,2.734,1.495,4.14c0.417,1.406,0.561,2.968-0.072,4.295
				c-0.439,0.918-1.224,1.671-1.52,2.641c-0.313,1.025-0.022,2.153,0.536,3.074c0.558,0.921,1.362,1.673,2.156,2.412
				c1.476,1.376,3.357,2.862,5.329,2.341c1.513-0.4,2.449-1.861,3.045-3.273C225.127,210.543,225.335,206.165,224.086,202.206z"/>
		</g>
		<g>
			<path style="fill:#FDBBB5;" d="M157.27,184.567c0,0,28.593,6.045,41.244,7.018c12.651,0.973,34.716,3.835,34.716,3.835
				l-2.975,15.271c0,0-58.813-10.24-73.02-17.942"/>
			<path style="opacity:0.3;" d="M210.175,192.686c0,0,7.771,11.978,6.603,15.51l4.244,0.808c0,0,1.676-8.927-5.452-15.739
				L210.175,192.686z"/>
			<path style="fill:#FDBBB5;" d="M158.03,185.722c0,0-3.198-5.587-4.427-6.928c-1.229-1.341-3.717-5.759-4.387-5.2
				c-0.671,0.559-0.35,2.293,0.656,3.857c1.006,1.565,1.676,3.353,0.782,3.353c-0.894,0-13.175-2.911-14.851-2.016
				c-1.676,0.894,1.551,1.458,3.116,1.905c1.565,0.447,6.147,1.341,5.476,1.788c-0.671,0.447-9.947-0.782-10.059,0.223
				c-0.112,1.006,2.012,1.565,4.806,1.676c2.794,0.112,6.035,1.118,5.141,1.341c-0.894,0.223-8.941-0.112-8.717,0.894
				c0.224,1.006,7.358,1.146,8.717,1.118c0.702-0.015,0.261,1.121,0.261,1.121s-6.519-0.003-6.296,1.003
				c0.224,1.006,6.143,0.447,7.933,0.894c1.79,0.447,6.931,2.012,11.849,2.012l1.565-6.482L158.03,185.722z"/>
		</g>
		<g>
			<path style="fill:#FDBBB5;" d="M348.694,184.902c0,0-28.593,6.045-41.244,7.018c-12.651,0.973-34.716,3.835-34.716,3.835
				l2.975,15.271c0,0,58.813-10.24,73.02-17.942"/>
			<polygon style="opacity:0.3;" points="304.241,192.189 301.887,205.996 298.245,206.696 299.7,192.486 			"/>
			<path style="fill:#FDBBB5;" d="M347.934,186.057c0,0,3.198-5.587,4.427-6.928c1.229-1.341,3.717-5.759,4.387-5.2
				c0.671,0.559,0.35,2.293-0.656,3.857c-1.006,1.565-1.677,3.353-0.782,3.353s13.175-2.911,14.851-2.016
				c1.676,0.894-1.551,1.458-3.116,1.905c-1.565,0.447-6.147,1.341-5.476,1.788c0.671,0.447,9.947-0.782,10.059,0.223
				c0.112,1.006-2.012,1.565-4.806,1.676c-2.794,0.112-6.035,1.118-5.141,1.341c0.894,0.224,8.941-0.112,8.717,0.894
				c-0.224,1.006-7.358,1.146-8.717,1.118c-0.702-0.015-0.261,1.121-0.261,1.121s6.519-0.003,6.296,1.003
				c-0.224,1.006-6.143,0.447-7.933,0.894c-1.79,0.447-6.931,2.012-11.849,2.012l-1.565-6.482L347.934,186.057z"/>
		</g>
		<g>
			<g id="freepik--character-1--inject-2_00000000939534679290525070000004405581844031296902_">
				<polygon style="fill:#FDBBB5;" points="249.592,442.328 253.295,471.078 262.005,471.078 264.241,442.861 				"/>
				<polygon style="fill:#FDBBB5;" points="311.882,442.629 323.41,470.408 331.927,468.984 326.763,438.047 				"/>
				<g>
					<path style="fill:#263238;" d="M319.243,464.517h3.893c0.881,0,1.695,0.446,2.216,1.156c2.245,3.065,3.932,1.907,6.373-0.975
						c1.552-0.181,1.97,1.6,2.097,2.079l2.91,10.585c0.253,0.884-0.259,1.805-1.143,2.058c-0.157,0.045-0.32,0.067-0.484,0.064
						c-4.727,0-6.964,0-12.847,0h-17.993c-4.905,0-5.922-4.943-3.901-5.4c9.086-2.008,15.519-4.681,18.327-7.324
						C319.211,466.297,318.677,465.951,319.243,464.517z"/>
					<path style="fill:#407BFF;" d="M313.935,468.06c1.229-0.029,2.451-0.187,3.647-0.47c0.112-0.04,0.171-0.164,0.13-0.276
						c-0.022-0.061-0.07-0.108-0.13-0.13c-0.546-0.267-5.413-2.541-6.633-1.677c-0.229,0.149-0.352,0.415-0.318,0.686
						c0.006,0.505,0.251,0.976,0.661,1.271C312.087,467.939,313.013,468.148,313.935,468.06z M316.819,467.298
						c-1.436,0.267-4.104,0.623-5.21-0.203c-0.287-0.226-0.462-0.564-0.483-0.928c-0.023-0.115,0.028-0.231,0.127-0.292
						C311.927,465.405,314.799,466.408,316.819,467.298z"/>
					<path style="fill:#407BFF;" d="M317.531,467.603c0.05,0.015,0.103,0.015,0.152,0c0.065-0.057,0.09-0.147,0.063-0.229
						c0-0.203-1.144-4.994-3.812-4.689c-0.661,0.089-0.851,0.407-0.877,0.673c-0.165,1.271,2.897,3.672,4.358,4.282L317.531,467.603
						z M314.202,463.066c1.69,0,2.668,2.796,2.999,3.914c-1.588-0.839-3.812-2.834-3.672-3.609c0-0.064,0-0.241,0.495-0.292
						L314.202,463.066z"/>
				</g>
				<g>
					<g>
						<path style="fill:#263238;" d="M249.649,464.995h3.892c0.881,0,1.696,0.445,2.216,1.156c2.245,3.065,3.932,1.907,6.373-0.975
							c1.552-0.181,1.97,1.6,2.096,2.079l2.91,10.585c0.253,0.884-0.259,1.805-1.143,2.058c-0.157,0.045-0.32,0.066-0.484,0.064
							c-4.727,0-6.964,0-12.847,0h-17.993c-4.905,0-5.921-4.943-3.901-5.4c9.085-2.008,15.519-4.681,18.327-7.324
							C249.618,466.774,249.083,466.428,249.649,464.995z"/>
						<path style="fill:#407BFF;" d="M244.341,468.538c1.229-0.03,2.451-0.187,3.647-0.47c0.112-0.04,0.171-0.164,0.13-0.276
							c-0.022-0.061-0.07-0.108-0.13-0.13c-0.546-0.267-5.413-2.541-6.633-1.677c-0.229,0.149-0.352,0.416-0.318,0.686
							c0.006,0.505,0.251,0.976,0.661,1.271C242.493,468.416,243.419,468.625,244.341,468.538z M247.226,467.775
							c-1.436,0.267-4.104,0.623-5.21-0.203c-0.287-0.226-0.463-0.564-0.483-0.928c-0.023-0.115,0.028-0.231,0.127-0.292
							C242.334,465.882,245.205,466.886,247.226,467.775z"/>
						<path style="fill:#407BFF;" d="M247.938,468.08c0.05,0.015,0.103,0.015,0.153,0c0.065-0.057,0.09-0.147,0.063-0.229
							c0-0.203-1.144-4.994-3.812-4.689c-0.661,0.089-0.851,0.407-0.877,0.673c-0.165,1.271,2.897,3.672,4.358,4.282L247.938,468.08
							z M244.608,463.544c1.69,0,2.668,2.796,2.999,3.914c-1.588-0.839-3.812-2.834-3.672-3.609c0-0.063,0-0.241,0.496-0.292
							L244.608,463.544z"/>
					</g>
				</g>
				<path style="fill:#407BFF;" d="M249.62,274.796c8.605,16.871,15.826,34.414,21.59,52.455
					c9.129,29.826,43.872,128.778,43.872,128.778l16.845-3.692c0,0-23.802-84.999-33.677-126.605
					c-7.583-31.918-12.135-53.65-12.135-53.65L249.62,274.796z"/>
				<path style="fill:#407BFF;" d="M231.495,274.822c-0.706,17.483-0.1,34.995,1.813,52.388
					c3.292,30.265,15.726,129.524,15.726,129.524h16.245c0,0,0.64-97.3,0-127.059c-0.72-32.451-0.12-54.854-0.12-54.854H231.495z"/>
			</g>
			<path style="opacity:0.3;" d="M231.21,290.899c0,0,0.553,3.497,17.177-2.003c16.623-5.5,24.614-7.41,31.412-8.63
				c6.798-1.22,8.454,0.697,8.454,0.697l-0.958-4.358l-56.084,2.963V290.899z"/>
			<path style="opacity:0.2;" d="M264.971,309.405c-0.006-0.781,0-4.009,0-4.009l8.282-5.382l-4.08,7.018
				c0,0,8.042,38.667,7.925,38.511C276.207,344.358,265.41,308.956,264.971,309.405z"/>
		</g>
		<g>
			<path style="fill:#263238;" d="M214.705,192.583c0,0,10.637,12.323,3.33,24.806l13.962,2.271
				c0.578,1.96-9.048,46.509-14.778,59.019c-1.102,2.405,20.851,7.556,37.624,3.185c24.149-6.293,33.409-4.077,33.409-4.077
				s-4.741-57.114-4.737-60.034c0.005-3.997-0.819-25.049-0.819-25.049l-16.837,1.004c0,0-5.165,1.16-9.099,0.523
				c-3.934-0.637-6.835-1.867-6.835-1.867s-8.765-0.739-11.282-0.549c-1.402,0.106-8.535,1.716-13.617,1.146
				c-0.848-0.095-3.982-0.288-4.75-0.377C217.378,192.248,214.705,192.583,214.705,192.583z"/>
			<path style="fill:#263238;" d="M300.25,191.712c-0.233-1.28-18.889-0.035-22.756,1.125c-3.867,1.16-4.759,3.502-4.759,3.502
				s10.478,23.277,10.56,21.972c0.082-1.305,4.759-5.222,14.576-6.527C297.87,211.783,300.547,193.344,300.25,191.712z"/>
			<g style="opacity:0.3;">
				<g>
					<path d="M238.295,268.855c2.304-8.849,4.123-17.814,5.452-26.861c0.139-0.944-1.306-1.352-1.446-0.399
						c-1.329,9.047-3.148,18.012-5.452,26.86C236.605,269.391,238.051,269.79,238.295,268.855L238.295,268.855z"/>
				</g>
			</g>
			<g style="opacity:0.3;">
				<g>
					<path d="M219.079,278.141c8.023-9.71,14.194-20.819,18.184-32.767c0.306-0.918-1.142-1.311-1.446-0.399
						c-3.903,11.689-9.947,22.604-17.798,32.105C217.408,277.819,218.463,278.886,219.079,278.141L219.079,278.141z"/>
				</g>
			</g>
			<g style="opacity:0.3;">
				<g>
					<path d="M284.541,218.404c-0.027-6.529-0.054-13.057-0.081-19.586c-0.004-0.965-1.504-0.967-1.5,0
						c0.027,6.529,0.054,13.057,0.081,19.586C283.045,219.369,284.545,219.371,284.541,218.404L284.541,218.404z"/>
				</g>
			</g>
			<g style="opacity:0.3;">
				<g>
					<path d="M234.55,193.845c3.315,2.882,5.293,7.119,5.161,11.536c-0.128,4.288-2.256,8.298-5.567,10.979
						c-0.75,0.608,0.317,1.663,1.061,1.061c3.612-2.925,5.868-7.382,6.007-12.04c0.143-4.781-2.006-9.473-5.6-12.597
						C234.885,192.154,233.82,193.211,234.55,193.845L234.55,193.845z"/>
				</g>
			</g>
		</g>
	</g>
</g>
</svg>
