<?xml version="1.0" encoding="utf-8"?>
<!-- Generator: Adobe Illustrator 27.5.0, SVG Export Plug-In . SVG Version: 6.00 Build 0)  -->
<svg version="1.1" xmlns="http://www.w3.org/2000/svg" xmlns:xlink="http://www.w3.org/1999/xlink" x="0px" y="0px"
	 viewBox="0 0 500 500" style="enable-background:new 0 0 500 500;" xml:space="preserve">
<g id="BACKGROUND">
	<rect x="0" style="fill:#B3CCC4;" width="500" height="500"/>
</g>
<g id="OBJECTS">
	<g style="display:none;">
		<g style="display:inline;">
			<line style="fill:none;stroke:#FF5C5C;stroke-miterlimit:10;" x1="39.11" y1="0" x2="39.11" y2="500"/>
			<line style="fill:none;stroke:#FF5C5C;stroke-miterlimit:10;" x1="77.453" y1="0" x2="77.453" y2="500"/>
			<line style="fill:none;stroke:#FF5C5C;stroke-miterlimit:10;" x1="115.797" y1="0" x2="115.797" y2="500"/>
			<line style="fill:none;stroke:#FF5C5C;stroke-miterlimit:10;" x1="154.141" y1="0" x2="154.141" y2="500"/>
			<line style="fill:none;stroke:#FF5C5C;stroke-miterlimit:10;" x1="192.484" y1="0" x2="192.484" y2="500"/>
			<line style="fill:none;stroke:#FF5C5C;stroke-miterlimit:10;" x1="230.828" y1="0" x2="230.828" y2="500"/>
			<line style="fill:none;stroke:#FF5C5C;stroke-miterlimit:10;" x1="269.172" y1="0" x2="269.172" y2="500"/>
			<line style="fill:none;stroke:#FF5C5C;stroke-miterlimit:10;" x1="307.516" y1="0" x2="307.516" y2="500"/>
			<line style="fill:none;stroke:#FF5C5C;stroke-miterlimit:10;" x1="345.859" y1="0" x2="345.859" y2="500"/>
			<line style="fill:none;stroke:#FF5C5C;stroke-miterlimit:10;" x1="384.203" y1="0" x2="384.203" y2="500"/>
			<line style="fill:none;stroke:#FF5C5C;stroke-miterlimit:10;" x1="422.547" y1="0" x2="422.547" y2="500"/>
			<line style="fill:none;stroke:#FF5C5C;stroke-miterlimit:10;" x1="460.89" y1="0" x2="460.89" y2="500"/>
		</g>
		<g style="display:inline;">
			<line style="fill:none;stroke:#FF5C5C;stroke-miterlimit:10;" x1="500" y1="39.11" x2="0" y2="39.11"/>
			<line style="fill:none;stroke:#FF5C5C;stroke-miterlimit:10;" x1="500" y1="77.453" x2="0" y2="77.453"/>
			<line style="fill:none;stroke:#FF5C5C;stroke-miterlimit:10;" x1="500" y1="115.797" x2="0" y2="115.797"/>
			<line style="fill:none;stroke:#FF5C5C;stroke-miterlimit:10;" x1="500" y1="154.141" x2="0" y2="154.141"/>
			<line style="fill:none;stroke:#FF5C5C;stroke-miterlimit:10;" x1="500" y1="192.484" x2="0" y2="192.484"/>
			<line style="fill:none;stroke:#FF5C5C;stroke-miterlimit:10;" x1="500" y1="230.828" x2="0" y2="230.828"/>
			<line style="fill:none;stroke:#FF5C5C;stroke-miterlimit:10;" x1="500" y1="269.172" x2="0" y2="269.172"/>
			<line style="fill:none;stroke:#FF5C5C;stroke-miterlimit:10;" x1="500" y1="307.516" x2="0" y2="307.516"/>
			<line style="fill:none;stroke:#FF5C5C;stroke-miterlimit:10;" x1="500" y1="345.859" x2="0" y2="345.859"/>
			<line style="fill:none;stroke:#FF5C5C;stroke-miterlimit:10;" x1="500" y1="384.203" x2="0" y2="384.203"/>
			<line style="fill:none;stroke:#FF5C5C;stroke-miterlimit:10;" x1="500" y1="422.547" x2="0" y2="422.547"/>
			<line style="fill:none;stroke:#FF5C5C;stroke-miterlimit:10;" x1="500" y1="460.89" x2="0" y2="460.89"/>
		</g>
	</g>
	<g>
		<g>
			<defs>
				<path id="SVGID_1_" d="M334,133.067l12.447-32.668l-34.156-13.013c-17.444-22.412-43.063-38.551-73.307-43.463
					c-63.573-10.326-123.48,32.839-133.806,96.412c-10.326,63.573,32.839,123.48,96.412,133.806
					c63.573,10.326,123.48-32.839,133.806-96.412C337.883,162.414,337.259,147.314,334,133.067z"/>
			</defs>
			<clipPath id="SVGID_00000129196737205802910890000017688502266202416035_">
				<use xlink:href="#SVGID_1_"  style="overflow:visible;"/>
			</clipPath>
			
				<circle style="clip-path:url(#SVGID_00000129196737205802910890000017688502266202416035_);fill:#F5C365;" cx="220.287" cy="159.031" r="116.617"/>
			<g style="clip-path:url(#SVGID_00000129196737205802910890000017688502266202416035_);">
				<g>
					
						<rect x="191.696" y="73.585" transform="matrix(0.9345 0.356 -0.356 0.9345 73.4328 -80.6907)" style="fill:#EDE5DA;" width="128.464" height="171.128"/>
					<g>
						<g>
							
								<path style="fill:none;stroke:#C9A362;stroke-width:1.7107;stroke-linecap:round;stroke-linejoin:round;stroke-miterlimit:10;" d="
								M233.341,84.42c4.921,1.875,4.954,1.79,9.875,3.665c4.923,1.876,4.823,2.138,9.746,4.014c4.922,1.875,5.04,1.565,9.961,3.44
								c4.925,1.876,4.756,2.32,9.681,4.196s5.092,1.439,10.017,3.315"/>
						</g>
						<g>
							
								<path style="fill:none;stroke:#C9A362;stroke-width:1.7107;stroke-linecap:round;stroke-linejoin:round;stroke-miterlimit:10;" d="
								M228.338,97.552c4.82,1.836,4.896,1.636,9.716,3.472c4.82,1.836,4.66,2.256,9.481,4.092c4.82,1.837,4.683,2.196,9.503,4.033
								c4.819,1.836,4.839,1.783,9.658,3.619c4.82,1.836,4.852,1.753,9.672,3.59c4.822,1.837,4.91,1.604,9.732,3.441
								c4.82,1.836,4.891,1.651,9.711,3.487c4.823,1.838,4.646,2.304,9.469,4.142c4.823,1.838,4.921,1.581,9.745,3.418"/>
						</g>
						<g>
							
								<path style="fill:none;stroke:#C9A362;stroke-width:1.7107;stroke-linecap:round;stroke-linejoin:round;stroke-miterlimit:10;" d="
								M223.215,110.997c4.82,1.836,4.78,1.941,9.599,3.777c4.82,1.836,4.766,1.979,9.586,3.815c4.82,1.837,4.941,1.521,9.761,3.357
								c4.819,1.836,4.763,1.981,9.582,3.817c4.82,1.836,4.68,2.204,9.5,4.04c4.822,1.837,4.867,1.717,9.689,3.555
								c4.82,1.836,4.946,1.507,9.766,3.344c4.823,1.838,4.914,1.6,9.737,3.438c4.823,1.838,4.672,2.235,9.495,4.073"/>
						</g>
						<g>
							
								<path style="fill:none;stroke:#C9A362;stroke-width:1.7107;stroke-linecap:round;stroke-linejoin:round;stroke-miterlimit:10;" d="
								M218.103,124.413c4.82,1.836,4.899,1.628,9.719,3.465c4.82,1.836,4.864,1.721,9.684,3.558c4.82,1.837,4.83,1.812,9.65,3.648
								c4.819,1.836,4.651,2.275,9.47,4.111c4.82,1.836,4.838,1.79,9.658,3.627c4.822,1.837,4.807,1.877,9.628,3.714
								c4.82,1.836,4.866,1.716,9.686,3.553c4.823,1.838,4.935,1.545,9.759,3.382s4.604,2.413,9.428,4.25"/>
						</g>
						<g>
							
								<path style="fill:none;stroke:#C9A362;stroke-width:1.7107;stroke-linecap:round;stroke-linejoin:round;stroke-miterlimit:10;" d="
								M213.04,137.702c4.82,1.836,4.876,1.687,9.696,3.524c4.82,1.836,4.856,1.743,9.676,3.579c4.82,1.837,4.809,1.867,9.629,3.704
								c4.819,1.836,4.862,1.721,9.681,3.557c4.82,1.836,4.726,2.082,9.546,3.918c4.822,1.837,4.939,1.528,9.761,3.365
								c4.82,1.836,4.78,1.942,9.6,3.779c4.823,1.838,4.717,2.118,9.54,3.955c4.823,1.838,4.785,1.938,9.609,3.776"/>
						</g>
						<g>
							
								<path style="fill:none;stroke:#C9A362;stroke-width:1.7107;stroke-linecap:round;stroke-linejoin:round;stroke-miterlimit:10;" d="
								M207.929,151.117c4.82,1.836,4.932,1.541,9.752,3.377c4.82,1.836,4.868,1.71,9.689,3.546c4.82,1.837,4.695,2.164,9.516,4.001
								c4.819,1.836,4.821,1.831,9.64,3.666c4.82,1.836,4.765,1.982,9.585,3.818c4.822,1.837,4.751,2.023,9.572,3.86
								c4.82,1.836,4.899,1.63,9.719,3.467c4.823,1.838,4.816,1.857,9.64,3.694c4.823,1.838,4.888,1.668,9.711,3.506"/>
						</g>
						<g>
							
								<path style="fill:none;stroke:#C9A362;stroke-width:1.7107;stroke-linecap:round;stroke-linejoin:round;stroke-miterlimit:10;" d="
								M202.808,164.559c4.82,1.836,4.818,1.842,9.637,3.678c4.82,1.836,4.798,1.895,9.618,3.731
								c4.82,1.837,5.039,1.263,9.859,3.099c4.819,1.836,4.691,2.172,9.509,4.008c4.82,1.836,4.711,2.122,9.531,3.959
								c4.822,1.837,4.98,1.422,9.802,3.259c4.82,1.836,4.756,2.006,9.576,3.842c4.823,1.838,4.97,1.453,9.794,3.29
								c4.823,1.838,4.651,2.29,9.475,4.127"/>
						</g>
						<g>
							
								<path style="fill:none;stroke:#C9A362;stroke-width:1.7107;stroke-linecap:round;stroke-linejoin:round;stroke-miterlimit:10;" d="
								M197.81,177.676c4.82,1.836,4.881,1.675,9.701,3.512c4.82,1.836,4.767,1.977,9.587,3.813c4.82,1.837,4.834,1.801,9.654,3.638
								c4.819,1.836,4.919,1.572,9.738,3.408c4.82,1.836,4.732,2.068,9.552,3.904c4.822,1.837,4.727,2.086,9.548,3.923
								c4.82,1.836,4.881,1.676,9.701,3.513c4.823,1.838,4.856,1.753,9.679,3.591c4.823,1.838,4.943,1.523,9.767,3.361"/>
						</g>
						<g>
							
								<path style="fill:none;stroke:#C9A362;stroke-width:1.7107;stroke-linecap:round;stroke-linejoin:round;stroke-miterlimit:10;" d="
								M192.823,190.766c4.82,1.836,4.698,2.157,9.517,3.993c4.82,1.836,4.971,1.441,9.791,3.278
								c4.82,1.837,4.719,2.102,9.539,3.938c4.819,1.836,4.867,1.711,9.685,3.546c4.82,1.836,4.638,2.314,9.458,4.151
								c4.822,1.837,4.954,1.49,9.775,3.327c4.82,1.836,4.822,1.83,9.643,3.667c4.823,1.838,4.851,1.765,9.675,3.602
								c4.823,1.838,4.869,1.717,9.693,3.555"/>
						</g>
					</g>
				</g>
				<polygon style="fill:#C9A362;" points="207.044,105.465 251.444,262.613 165.473,214.576 				"/>
			</g>
			<g style="clip-path:url(#SVGID_00000129196737205802910890000017688502266202416035_);">
				
					<rect x="76.169" y="130.062" transform="matrix(0.9472 -0.3205 0.3205 0.9472 -67.5462 62.4766)" style="fill:#FFFFFF;" width="159.694" height="212.73"/>
				<g>
					<g>
						
							<path style="fill:none;stroke:#C9A362;stroke-width:2.1266;stroke-linecap:round;stroke-linejoin:round;stroke-miterlimit:10;" d="
							M76.498,184.296c6.202-2.098,6.165-2.205,12.367-4.304c6.204-2.099,6.315-1.769,12.519-3.868
							c6.202-2.098,6.069-2.49,12.271-4.588c6.206-2.1,6.395-1.541,12.601-3.641c6.206-2.1,6.019-2.651,12.225-4.751"/>
					</g>
					<g>
						
							<path style="fill:none;stroke:#C9A362;stroke-width:2.1266;stroke-linecap:round;stroke-linejoin:round;stroke-miterlimit:10;" d="
							M82.097,200.843c6.073-2.055,5.988-2.308,12.061-4.363c6.074-2.055,6.253-1.527,12.327-3.582
							c6.074-2.055,6.228-1.602,12.302-3.657c6.072-2.055,6.05-2.121,12.122-4.176c6.074-2.055,6.038-2.16,12.112-4.215
							c6.076-2.056,5.976-2.349,12.052-4.405c6.074-2.055,5.995-2.289,12.069-4.344c6.078-2.057,6.277-1.469,12.355-3.525
							s5.968-2.38,12.046-4.437"/>
					</g>
					<g>
						
							<path style="fill:none;stroke:#C9A362;stroke-width:2.1266;stroke-linecap:round;stroke-linejoin:round;stroke-miterlimit:10;" d="
							M87.829,217.786c6.073-2.055,6.118-1.923,12.191-3.978c6.074-2.055,6.135-1.876,12.208-3.931
							c6.074-2.055,5.939-2.453,12.013-4.508c6.072-2.055,6.134-1.871,12.206-3.926c6.074-2.055,6.23-1.592,12.304-3.647
							c6.076-2.056,6.025-2.206,12.1-4.262c6.074-2.055,5.933-2.47,12.007-4.525c6.078-2.057,5.977-2.356,12.055-4.413
							c6.078-2.057,6.247-1.556,12.325-3.612"/>
					</g>
					<g>
						
							<path style="fill:none;stroke:#C9A362;stroke-width:2.1266;stroke-linecap:round;stroke-linejoin:round;stroke-miterlimit:10;" d="
							M93.549,234.691c6.073-2.055,5.985-2.317,12.058-4.372c6.074-2.055,6.025-2.2,12.099-4.256
							c6.074-2.055,6.063-2.086,12.137-4.142c6.072-2.055,6.259-1.501,12.331-3.556c6.074-2.055,6.054-2.113,12.128-4.168
							c6.076-2.056,6.093-2.006,12.168-4.062c6.074-2.055,6.023-2.207,12.096-4.262c6.078-2.057,5.953-2.426,12.031-4.483
							c6.078-2.057,6.323-1.332,12.401-3.389"/>
					</g>
					<g>
						
							<path style="fill:none;stroke:#C9A362;stroke-width:2.1266;stroke-linecap:round;stroke-linejoin:round;stroke-miterlimit:10;" d="
							M99.215,251.436c6.073-2.055,6.01-2.243,12.083-4.298c6.074-2.055,6.034-2.173,12.108-4.229
							c6.074-2.055,6.087-2.017,12.161-4.072c6.072-2.055,6.023-2.199,12.095-4.254c6.074-2.055,6.178-1.746,12.252-3.801
							c6.076-2.056,5.944-2.445,12.02-4.501c6.074-2.055,6.119-1.922,12.193-3.977c6.078-2.057,6.197-1.704,12.275-3.76
							s6.121-1.93,12.199-3.986"/>
					</g>
					<g>
						
							<path style="fill:none;stroke:#C9A362;stroke-width:2.1266;stroke-linecap:round;stroke-linejoin:round;stroke-miterlimit:10;" d="
							M104.935,268.341c6.073-2.055,5.947-2.427,12.021-4.482c6.074-2.055,6.02-2.215,12.094-4.27
							c6.074-2.055,6.214-1.642,12.288-3.698c6.072-2.055,6.07-2.061,12.142-4.116c6.074-2.055,6.136-1.872,12.209-3.927
							c6.076-2.056,6.155-1.821,12.231-3.877c6.074-2.055,5.986-2.315,12.06-4.37c6.078-2.057,6.086-2.033,12.164-4.089
							c6.078-2.057,6.006-2.27,12.084-4.327"/>
					</g>
					<g>
						
							<path style="fill:none;stroke:#C9A362;stroke-width:2.1266;stroke-linecap:round;stroke-linejoin:round;stroke-miterlimit:10;" d="
							M110.666,285.278c6.073-2.055,6.076-2.048,12.149-4.103c6.074-2.055,6.099-1.982,12.173-4.037
							c6.074-2.055,5.829-2.778,11.903-4.833c6.072-2.055,6.215-1.631,12.288-3.685c6.074-2.055,6.195-1.695,12.269-3.75
							c6.076-2.056,5.899-2.579,11.974-4.635c6.074-2.055,6.146-1.842,12.22-3.897c6.078-2.057,5.914-2.542,11.992-4.598
							s6.271-1.487,12.349-3.544"/>
					</g>
					<g>
						
							<path style="fill:none;stroke:#C9A362;stroke-width:2.1266;stroke-linecap:round;stroke-linejoin:round;stroke-miterlimit:10;" d="
							M116.259,301.807c6.073-2.055,6.005-2.258,12.078-4.313c6.074-2.055,6.134-1.878,12.208-3.934
							c6.074-2.055,6.059-2.1,12.133-4.155c6.072-2.055,5.96-2.387,12.032-4.441c6.074-2.055,6.172-1.763,12.246-3.818
							c6.076-2.056,6.182-1.742,12.258-3.798c6.074-2.055,6.006-2.257,12.079-4.312c6.078-2.057,6.042-2.163,12.12-4.219
							c6.078-2.057,5.944-2.453,12.022-4.509"/>
					</g>
					<g>
						
							<path style="fill:none;stroke:#C9A362;stroke-width:2.1266;stroke-linecap:round;stroke-linejoin:round;stroke-miterlimit:10;" d="
							M121.84,318.302c6.073-2.055,6.21-1.651,12.283-3.706c6.074-2.055,5.905-2.553,11.979-4.608
							c6.074-2.055,6.187-1.721,12.261-3.776c6.072-2.055,6.019-2.213,12.091-4.267c6.074-2.055,6.277-1.453,12.351-3.508
							c6.076-2.056,5.928-2.493,12.004-4.548c6.074-2.055,6.071-2.063,12.145-4.118c6.078-2.057,6.047-2.149,12.125-4.205
							c6.078-2.057,6.027-2.208,12.105-4.265"/>
					</g>
				</g>
			</g>
			<polygon style="clip-path:url(#SVGID_00000129196737205802910890000017688502266202416035_);fill:#F2EDE6;" points="
				181.671,155.182 195.42,110.806 189.637,112.603 			"/>
			<path style="clip-path:url(#SVGID_00000129196737205802910890000017688502266202416035_);fill:#26314A;" d="M167.395,181.36
				l17.853,2.235c1.318,0.165,2.652,0.168,3.971,0.01l9.274-1.115c3.478-0.418,6.984,0.514,9.795,2.605l10.071,7.49
				c1.853,1.378,4.109,2.104,6.418,2.066l1.389-0.023l-11.229-33.186L167.395,181.36z"/>
			<g style="clip-path:url(#SVGID_00000129196737205802910890000017688502266202416035_);">
				<path style="fill:#78423B;" d="M200.143,159.833c3.492,3.148,7.504,11.16,7.504,11.16l26.725,5.24l18.14-9.581l1.781-21.661
					l-10.819-10.984l-19.913-4.806l-17.373,14.902L200.143,159.833z"/>
				<g>
					<path style="fill:#26314A;" d="M242.495,169.542c-0.118-0.023-0.229-0.083-0.315-0.179c-0.038-0.042-3.863-4.238-9.44-5.196
						c-0.84-0.176-1.545-0.727-1.858-1.522c-2.173-5.525-8.791-7.173-8.857-7.189c-0.308-0.074-0.497-0.383-0.423-0.69
						c0.073-0.308,0.372-0.527,0.69-0.424c0.295,0.07,7.262,1.795,9.657,7.884c0.167,0.424,0.539,0.756,0.986,0.812
						c5.97,1.018,9.933,5.376,10.099,5.561c0.21,0.236,0.191,0.597-0.044,0.808C242.85,169.531,242.667,169.576,242.495,169.542z"/>
				</g>
				<g>
					<path style="fill:#26314A;" d="M227.222,169.832c-0.18-0.035-0.34-0.156-0.417-0.338c-1.394-3.28-4.541-7.691-9.194-10.234
						c-0.692-0.378-1.159-1.04-1.278-1.816c-0.122-0.785,0.126-1.567,0.68-2.146c1.282-1.343,2.707-3.244,4.442-8.025
						c0.241-0.665,0.735-1.182,1.389-1.453c0.659-0.274,1.409-0.256,2.057,0.047c8.635,4.031,19.374,3.204,19.483,3.195
						c0.312-0.028,0.592,0.208,0.618,0.524c0.026,0.315-0.208,0.592-0.524,0.618c-0.452,0.038-11.148,0.864-20.062-3.298
						c-0.359-0.169-0.773-0.177-1.134-0.027c-0.354,0.147-0.621,0.426-0.75,0.785c-1.807,4.98-3.322,6.993-4.691,8.426
						c-0.306,0.32-0.442,0.75-0.376,1.179c0.066,0.421,0.319,0.78,0.696,0.987c6.181,3.378,8.987,9.114,9.7,10.792
						c0.123,0.291-0.012,0.628-0.304,0.751C227.447,169.843,227.331,169.853,227.222,169.832z"/>
				</g>
				<path style="fill:#5F7ABA;" d="M369.691,139.488c0,0-5.466,3.307-11.597-2.274c-6.131-5.581-9.807-8.054-15.07-6.896
					s-8.321,3.356-12.919,3.354c-4.598-0.001-11.312-3.726-17.087-4.421s-8.814-1.947-12.068,6.83
					c-3.254,8.777-6.631,29.353-10.555,39.313s-9,15.752,1.885,19.419s22.313,3.061,27.886,7.22
					c5.573,4.158,5.66,12.803,14.672,14.701c9.462,1.992,12.92-4.473,22.838-0.339s11.945,7.199,11.945,7.199L369.691,139.488z"/>
				<path style="fill:#F0887A;" d="M304.84,140.403c-1.018,20.529-7.708,34.868-10.905,40.633c-0.959,1.729-2.781,2.783-4.758,2.749
					c-5.868-0.101-18.482-0.125-22.595,1.391c-5.428,2.001-13.982,2.075-19.592,0.537c-5.61-1.538-20.99-1.269-23.305-0.628
					c-2.315,0.641-7.252-0.984-11.94-3.874c-3.588-2.211-8.78-4.737-11.852-6.063c-1.264-0.545-1.858-2.029-1.275-3.276
					c3.265-6.989,12.076-7.744,21.049-2.026c8.322-5.594,21.312-2.609,21.312-2.609s8.628-13.854,8.694-18.658
					c0.037-2.663-1.736-5.361-3.323-7.237c-1.278-1.51-3.13-2.396-5.104-2.519c-3.137-0.195-8.657-1.006-14.489-4.048
					c-1.429-0.745-3.189-0.284-4.108,1.04c-2.286,3.294-6.94,8.885-13.183,10.682c0,0-0.533,9.42-4.748,14.724
					c-4.215,5.304-10.586,3.179-11.729,1.751c-1.143-1.428,2.191-5.592,2.191-5.592s-0.095-2.865,1.974-7.276
					c2.069-4.411,0.581-7.987,2.95-11.136s10.783-9.664,13.382-13.424c2.598-3.76,7.959-8.995,12.644-6.927
					c0,0,8.711-6.728,12.358-8.743c4.018-2.22,6.024-2.651,9.312-2.115s13.415,6.122,17.946,6.463
					c4.531,0.341,13.268,6.806,18.053,10.942c4.718,4.078,9.213,5.664,18.116,10.198
					C303.792,136.319,304.944,138.299,304.84,140.403z"/>
				<g>
					<path style="fill:#EDE5DA;" d="M180.219,179.52l-12.824,1.841c-0.605,0.087-0.927-0.691-0.437-1.057l10.382-7.749
						c0.84-0.627,1.754-1.146,2.722-1.546l18.4-7.604l3.176,7.685l-18.4,7.604C182.27,179.093,181.256,179.371,180.219,179.52z"/>
					<path style="fill:#EDE5DA;" d="M265.43,135.731l-81.861,33.829c-0.932,0.385-0.977,2.418-0.1,4.54
						c0.877,2.122,2.344,3.53,3.276,3.145l81.861-33.829L265.43,135.731z"/>
					<path style="fill:#EDE5DA;" d="M280.359,131.313c-0.342-0.827-1.289-1.22-2.115-0.878l-19.765,8.168
						c-0.932,0.385-0.977,2.418-0.1,4.54c0.877,2.122,2.344,3.53,3.276,3.145l19.765-8.168c0.827-0.342,1.22-1.289,0.878-2.115
						L280.359,131.313z"/>
					<path style="fill:#F5C365;" d="M199.206,167.596c-0.877-2.122-0.832-4.155,0.1-4.54l-15.737,6.503
						c-0.932,0.385-0.977,2.418-0.1,4.54c0.877,2.122,2.344,3.53,3.276,3.145l15.737-6.503
						C201.549,171.126,200.083,169.718,199.206,167.596z"/>
					<path style="fill:#F5C365;" d="M266.172,155.463c2.237-1.35,4.435-3.463,5.46-6.348c0.376-1.14,0.539-2.303,0.542-3.448
						c0.005-1.626,1.066-3.064,2.569-3.685l0.656-0.271c0.6-0.248,0.739-1.041,0.246-1.464c-0.808-0.693-1.627-1.873-2.225-3.32
						c-0.598-1.447-0.852-2.861-0.768-3.922c0.051-0.647-0.607-1.111-1.207-0.863l-13.325,5.506
						c-1.161,0.48-1.217,3.011-0.125,5.653c1.092,2.643,2.918,4.396,4.079,3.916l3.515-1.453c0.864-0.357,1.844,0.338,1.713,1.264
						c-0.031,0.22-0.074,0.437-0.129,0.65c-0.474,1.564-1.677,3.001-3.346,4.129c-1.664,1.133-3.687,1.958-5.777,2.611
						c-2.095,0.68-4.301,1.081-6.544,1.476c-4.647,0.76-9.282,1.668-13.845,3.012c-2.279,0.677-4.542,1.457-6.745,2.468
						c-2.189,1.013-4.374,2.262-6.14,4.234c-0.403,0.452-0.388,1.148,0.048,1.578c0.45,0.444,1.175,0.44,1.619-0.01l0.051-0.051
						c1.427-1.445,3.405-2.513,5.472-3.336c2.074-0.832,4.257-1.47,6.469-2.011c4.432-1.074,8.993-1.741,13.563-2.259
						c2.357-0.296,4.764-0.611,7.139-1.252C261.512,157.647,263.904,156.838,266.172,155.463z"/>
				</g>
				<path style="fill:#F0887A;" d="M219.024,169.465c1.525,6.167,3.265,11.824,5.734,15.44c-0.472,0.055-0.842,0.116-1.074,0.18
					c-2.315,0.641-7.252-0.984-11.94-3.874c-3.584-2.209-8.77-4.732-11.843-6.059c-1.268-0.547-1.866-2.038-1.28-3.289
					C201.811,165.049,210.28,164.188,219.024,169.465z M192.987,162.973c1.143,1.428,7.514,3.553,11.729-1.751
					c4.215-5.304,4.748-14.724,4.748-14.724c0.067-0.019,0.13-0.045,0.197-0.065c-4.562-1.032-8.229-4.061-10.318-6.171
					c-1.27,2.831-0.399,6.024-2.191,9.843c-2.069,4.411-1.974,7.276-1.974,7.276S191.844,161.545,192.987,162.973z"/>
				<g>
					<path style="fill:#78423B;" d="M253.495,125.891c-0.07-0.014-0.14-0.041-0.204-0.083c-0.024-0.016-2.482-1.607-5.585-2.32
						c-1.266-0.29-4.386-0.859-7.687-1.462c-5.256-0.958-11.218-2.046-12.813-2.561c-0.301-0.098-0.466-0.42-0.368-0.722
						c0.098-0.301,0.429-0.459,0.721-0.369c1.524,0.494,7.701,1.621,12.666,2.525c3.462,0.631,6.448,1.178,7.738,1.473
						c3.309,0.76,5.849,2.408,5.955,2.478c0.265,0.173,0.339,0.528,0.165,0.792C253.952,125.843,253.717,125.935,253.495,125.891z"
						/>
				</g>
				<g>
					<path style="fill:#78423B;" d="M233.863,115.629c-0.279-0.055-0.481-0.311-0.46-0.602c0.022-0.316,0.296-0.554,0.612-0.531
						c0.787,0.056,19.348,1.389,24.718,3.762c0.29,0.128,0.421,0.467,0.292,0.756c-0.126,0.289-0.464,0.422-0.755,0.293
						c-5.188-2.296-24.144-3.654-24.335-3.667C233.911,115.637,233.886,115.633,233.863,115.629z"/>
				</g>
				<g>
					<path style="fill:#78423B;" d="M240.855,112.183c-0.264-0.052-0.462-0.284-0.462-0.563c0-0.316,0.257-0.573,0.574-0.572
						c0.414,0,10.197,0.019,15.264,0.727c0.324,0.036,0.532,0.334,0.488,0.646c-0.043,0.314-0.333,0.532-0.646,0.488
						c-4.988-0.696-15.006-0.715-15.107-0.716C240.928,112.194,240.891,112.19,240.855,112.183z"/>
				</g>
				<path style="fill:#F2EDE6;" d="M199.901,175.152c1.394,0.602,3.228,1.455,5.144,2.408c-0.346-1.037-0.167-2.792,0.471-4.186
					c0.345-0.755-0.043-1.64-0.838-1.876c-2.282-0.678-5.143-0.863-5.899,0.074c-0.05,0.1-0.111,0.188-0.159,0.291l-0.172,0.531
					C198.219,173.51,198.809,174.681,199.901,175.152z"/>
				<path style="fill:#F2EDE6;" d="M195.178,157.381c0.068,0.516,0.704,1.005,1.284,1.348c0.494,0.292,0.607,0.956,0.23,1.389
					c-0.812,0.934-2.15,2.323-3.282,2.796c-0.54,0.225-1.084-0.342-0.884-0.891C192.918,160.948,193.729,159.117,195.178,157.381z"
					/>
				<g>
					
						<path style="fill:none;stroke:#26314A;stroke-width:1.1459;stroke-linecap:round;stroke-linejoin:round;stroke-miterlimit:10;" d="
						M326.538,136.665c5.129,10.694-0.815,46.031-15.099,57.74"/>
					
						<path style="fill:none;stroke:#26314A;stroke-width:1.1459;stroke-linecap:round;stroke-linejoin:round;stroke-miterlimit:10;" d="
						M310.865,135.34c4.134,0.98,8.268,1.96,12.402,2.94"/>
					
						<path style="fill:none;stroke:#26314A;stroke-width:1.1459;stroke-linecap:round;stroke-linejoin:round;stroke-miterlimit:10;" d="
						M309.571,140.179c4.503,1.839,9.349,2.834,14.213,2.918"/>
					
						<path style="fill:none;stroke:#26314A;stroke-width:1.1459;stroke-linecap:round;stroke-linejoin:round;stroke-miterlimit:10;" d="
						M309.017,146.44c5.001,1.297,10.003,2.594,15.004,3.891"/>
					
						<path style="fill:none;stroke:#26314A;stroke-width:1.1459;stroke-linecap:round;stroke-linejoin:round;stroke-miterlimit:10;" d="
						M307.737,153.778c5.13,1.464,10.281,2.859,15.45,4.182"/>
					
						<path style="fill:none;stroke:#26314A;stroke-width:1.1459;stroke-linecap:round;stroke-linejoin:round;stroke-miterlimit:10;" d="
						M306.341,160.948c4.801,1.782,9.77,3.113,14.82,3.967"/>
					
						<path style="fill:none;stroke:#26314A;stroke-width:1.1459;stroke-linecap:round;stroke-linejoin:round;stroke-miterlimit:10;" d="
						M304.258,168.318c4.579,1.784,9.277,3.265,14.052,4.43"/>
					
						<path style="fill:none;stroke:#26314A;stroke-width:1.1459;stroke-linecap:round;stroke-linejoin:round;stroke-miterlimit:10;" d="
						M302.206,174.495c4.959,0.974,9.879,2.147,14.744,3.517"/>
					
						<path style="fill:none;stroke:#26314A;stroke-width:1.1459;stroke-linecap:round;stroke-linejoin:round;stroke-miterlimit:10;" d="
						M299.126,180.88c0.794,0.223,1.599,0.405,2.404,0.587c3.973,0.898,7.946,1.797,11.919,2.695"/>
					
						<path style="fill:none;stroke:#26314A;stroke-width:1.1459;stroke-linecap:round;stroke-linejoin:round;stroke-miterlimit:10;" d="
						M294.925,186.371c3.975,2.111,8.514,2.847,12.96,3.552"/>
					
						<path style="fill:none;stroke:#26314A;stroke-width:1.1459;stroke-linecap:round;stroke-linejoin:round;stroke-miterlimit:10;" d="
						M292.027,190.326c1.424,1.572,3.362,2.607,5.381,3.26c2.018,0.653,4.132,0.949,6.233,1.243"/>
				</g>
			</g>
			<g style="clip-path:url(#SVGID_00000129196737205802910890000017688502266202416035_);">
				<path style="fill:#97B8AA;" d="M181.671,155.182l-21.191-5.376l-24.71-13.965c-3.098-1.751-4.641-5.359-3.766-8.809
					l9.092-35.842l53.373,13.54L181.671,155.182z"/>
				<g>
					<g>
						<path style="fill:none;stroke:#FFFFFF;stroke-width:1.1459;stroke-miterlimit:10;" d="M147.023,102.346
							c5.897,1.496,5.962,1.238,11.859,2.734c5.897,1.496,5.872,1.592,11.769,3.088"/>
					</g>
					<g>
						<path style="fill:none;stroke:#FFFFFF;stroke-width:1.1459;stroke-miterlimit:10;" d="M145.412,108.695
							c6.151,1.56,6.272,1.082,12.423,2.642c6.155,1.561,6.179,1.466,12.334,3.027c6.155,1.561,6.136,1.635,12.291,3.196"/>
					</g>
					<g>
						<path style="fill:none;stroke:#FFFFFF;stroke-width:1.1459;stroke-miterlimit:10;" d="M143.869,114.78
							c6.151,1.56,6.349,0.779,12.499,2.339c6.155,1.561,6.193,1.412,12.347,2.974c6.155,1.561,6.157,1.554,12.311,3.116"/>
					</g>
					<g>
						<path style="fill:none;stroke:#FFFFFF;stroke-width:1.1459;stroke-miterlimit:10;" d="M142.44,120.411
							c6.151,1.56,6.166,1.498,12.317,3.058c6.155,1.561,5.994,2.194,12.149,3.756c6.155,1.561,6.189,1.428,12.343,2.99"/>
					</g>
					<g>
						<path style="fill:none;stroke:#FFFFFF;stroke-width:1.1459;stroke-miterlimit:10;" d="M140.854,126.664
							c6.151,1.56,6.14,1.601,12.291,3.161c6.155,1.561,6.155,1.559,12.31,3.12s6.079,1.861,12.233,3.423"/>
					</g>
				</g>
				<path style="fill:#26314A;" d="M143.308,129.9c-7.869,6.262-11.734,1.215-11.403-2.27c-0.565,3.262,0.946,6.561,3.865,8.211
					l24.71,13.965c-2.163-1.304-7.178-9.933-9.938-11.852C147.782,136.035,148.084,134.227,143.308,129.9z"/>
			</g>
			<g style="clip-path:url(#SVGID_00000129196737205802910890000017688502266202416035_);">
				<path style="fill:#5F7ABA;" d="M206.325,100.245c-0.175-0.028-0.348-0.066-0.52-0.112c-1.311-0.354-2.405-1.197-3.08-2.374
					c-0.677-1.177-0.854-2.547-0.5-3.858c0.071-0.264,0.163-0.519,0.273-0.764l-2.962,1.702c-0.275,0.157-0.625,0.063-0.782-0.211
					c-0.158-0.275-0.063-0.625,0.211-0.783l17.385-9.989c1.198-0.688,2.597-0.87,3.927-0.508c1.335,0.36,2.448,1.219,3.137,2.417
					c1.421,2.474,0.565,5.643-1.908,7.064l-11.842,6.805C208.64,100.221,207.473,100.432,206.325,100.245z M217.722,85.261
					c-0.58-0.094-1.169,0.013-1.685,0.309l-10.868,6.245c-0.912,0.524-1.565,1.371-1.839,2.386
					c-0.275,1.014-0.137,2.076,0.387,2.987c0.524,0.912,1.372,1.565,2.386,1.839c1.016,0.272,2.076,0.137,2.988-0.387l11.842-6.805
					c0.933-0.536,1.601-1.403,1.882-2.441c0.281-1.039,0.14-2.125-0.396-3.057c-0.537-0.933-1.403-1.601-2.443-1.882
					c-0.444-0.119-0.9-0.163-1.345-0.131c0.802,0.302,1.47,0.869,1.902,1.622c0.494,0.86,0.624,1.86,0.365,2.818
					c-0.259,0.957-0.875,1.756-1.734,2.251l-10.007,5.75c-0.275,0.155-0.626,0.063-0.782-0.211
					c-0.158-0.275-0.063-0.625,0.211-0.783l10.007-5.75c0.594-0.341,1.02-0.894,1.199-1.555c0.179-0.662,0.088-1.354-0.253-1.948
					c-0.342-0.595-0.894-1.021-1.556-1.199C217.898,85.294,217.811,85.275,217.722,85.261z"/>
			</g>
			<g style="clip-path:url(#SVGID_00000129196737205802910890000017688502266202416035_);">
				<path style="fill:#5F7ABA;" d="M213.857,45.039c-0.044-0.171-0.08-0.345-0.107-0.521c-0.205-1.342,0.125-2.684,0.929-3.776
					c0.804-1.095,1.986-1.809,3.328-2.014c0.27-0.041,0.54-0.061,0.809-0.059l-2.753-2.024c-0.254-0.188-0.31-0.546-0.122-0.801
					c0.187-0.256,0.546-0.31,0.801-0.123l16.154,11.878c1.112,0.819,1.843,2.025,2.049,3.388c0.209,1.367-0.127,2.732-0.946,3.845
					c-1.69,2.298-4.935,2.794-7.233,1.104l-11.004-8.09C214.813,47.147,214.149,46.165,213.857,45.039z M232.165,49.423
					c-0.148-0.569-0.483-1.064-0.963-1.417l-10.098-7.425c-0.847-0.623-1.886-0.879-2.925-0.72
					c-1.039,0.158-1.954,0.713-2.577,1.559c-0.623,0.847-0.878,1.886-0.72,2.925c0.161,1.039,0.712,1.955,1.56,2.578l11.004,8.09
					c0.866,0.637,1.929,0.899,2.993,0.737c1.064-0.162,2-0.729,2.638-1.595c0.637-0.867,0.899-1.93,0.737-2.994
					c-0.071-0.455-0.214-0.889-0.423-1.283c0.047,0.856-0.202,1.695-0.717,2.395c-0.587,0.799-1.451,1.322-2.431,1.471
					c-0.98,0.15-1.96-0.092-2.759-0.679l-9.298-6.837c-0.253-0.189-0.31-0.547-0.122-0.801c0.187-0.256,0.546-0.31,0.801-0.123
					l9.298,6.837c0.552,0.406,1.229,0.573,1.907,0.47c0.678-0.103,1.275-0.465,1.681-1.017c0.406-0.553,0.573-1.23,0.47-1.907
					C232.206,49.598,232.188,49.51,232.165,49.423z"/>
			</g>
			<g style="clip-path:url(#SVGID_00000129196737205802910890000017688502266202416035_);">
				<path style="fill:#F2EDE6;" d="M194.14,80.789l-6.274,2.58l3.517,8.555l6.274-2.58c0.967-0.398,1.858-0.959,2.634-1.659
					l8.174-7.372c0.283-0.255,0.09-0.725-0.291-0.707l-10.996,0.51C196.135,80.163,195.107,80.391,194.14,80.789z"/>
				<path style="fill:#5F7ABA;" d="M194.813,88.813c-0.251-0.611,0.065-1.356,0.729-1.95c-0.89,0.045-1.639-0.262-1.89-0.873
					s0.065-1.356,0.729-1.95c-0.89,0.045-1.639-0.262-1.89-0.873c-0.264-0.643,0.096-1.434,0.833-2.042l-88.043,36.201l3.517,8.555
					l88.043-36.201C195.89,89.765,195.077,89.456,194.813,88.813z"/>
				<g>
					
						<line style="fill:none;stroke:#26314A;stroke-width:0.6736;stroke-linecap:round;stroke-linejoin:round;stroke-miterlimit:10;" x1="191.587" y1="85.109" x2="109.351" y2="118.922"/>
					
						<line style="fill:none;stroke:#26314A;stroke-width:0.6736;stroke-linecap:round;stroke-linejoin:round;stroke-miterlimit:10;" x1="192.803" y1="88.068" x2="110.568" y2="121.881"/>
				</g>
				
					<rect x="106.906" y="116.305" transform="matrix(0.9249 -0.3803 0.3803 0.9249 -37.8225 50.4118)" style="fill:#26314A;" width="3.536" height="9.249"/>
				<path style="fill:#F0887A;" d="M101.578,128.848l7.22-2.969l-3.517-8.555l-7.22,2.969c-1.429,0.588-2.111,2.222-1.524,3.651
					l1.39,3.38C98.514,128.754,100.149,129.436,101.578,128.848z"/>
				<path style="fill:#26314A;" d="M208.175,79.605l-4.629,0.215l1.479,3.596l3.441-3.104
					C208.749,80.057,208.556,79.587,208.175,79.605z"/>
			</g>
			<g style="clip-path:url(#SVGID_00000129196737205802910890000017688502266202416035_);">
				<path style="fill:#EDE5DA;" d="M196.808,73.76l-21.093,3.715c-2.239,0.394-4.374-1.101-4.768-3.34l-1.143-6.491
					c-0.394-2.239,1.101-4.374,3.34-4.768l21.093-3.715c2.239-0.394,4.374,1.101,4.768,3.34l1.143,6.491
					C200.543,71.231,199.048,73.366,196.808,73.76z"/>
				<path style="fill:#26314A;" d="M194.237,59.161l-6.209,1.093l2.571,14.599l6.209-1.093c2.239-0.394,3.735-2.529,3.34-4.768
					l-1.143-6.491C198.611,60.262,196.476,58.767,194.237,59.161z"/>
				<path style="fill:#FFFFFF;" d="M198.287,70.199l-21.971,3.87c-1.111,0.196-2.171-0.546-2.366-1.658l-1.299-7.374
					c-0.196-1.111,0.546-2.171,1.658-2.366l21.971-3.87c1.111-0.196,2.171,0.546,2.366,1.658l1.299,7.374
					C200.14,68.944,199.398,70.003,198.287,70.199z"/>
				<path style="fill:#5F7ABA;" d="M196.318,58.795l-8.289,1.46l2.007,11.398l8.251-1.453c1.111-0.196,1.853-1.255,1.658-2.366
					l-1.305-7.412C198.447,59.331,197.408,58.603,196.318,58.795z"/>
			</g>
		</g>
		<path style="fill:#78423B;" d="M267.396,209.666c-6.053,0.865-14.03-2.148-16.776-8.643c-2.854-6.749,0.692-13.494,6.399-14.273
			c5.707-0.778,8.475,3.632,13.231,3.2c4.756-0.432,16.257-11.847,21.273-1.038c8.561,0.259,8.296,7.407,7.091,18.333l-6.659,2.579
			L267.396,209.666z"/>
		<g>
			<path style="fill:#709687;" d="M314.677,453.689l-10.629-88.028h-6.036l10.705,88.655c0.186,1.539-0.73,2.999-2.197,3.502
				l-3.562,1.221h18.675l-3.636-1.246C316.195,457.174,314.905,455.58,314.677,453.689z"/>
			<path style="fill:#709687;" d="M250.858,453.959l22.641-88.297h6.036l-22.755,88.827c-0.357,1.393,0.417,2.826,1.777,3.292
				l3.668,1.257h-18.675l3.826-1.311C249.097,457.137,250.406,455.721,250.858,453.959z"/>
		</g>
		<g>
			
				<rect x="326.263" y="307.204" transform="matrix(0.1725 -0.985 0.985 0.1725 0.0762 619.3253)" style="fill:#709687;" width="84.795" height="4.826"/>
		</g>
		<g>
			<path style="fill:#EDE5DA;" d="M372.365,301.902c-17.355,2.711-34.574,2.906-51.093,0.585
				c-6.137-0.862-10.355-6.614-9.287-12.718l4.069-23.26c1.012-5.787,6.426-9.79,12.239-8.943
				c14.62,2.131,29.797,2.285,45.138,0.463c7.231-0.859,13.216,5.57,11.962,12.743c-1.294,7.4-2.589,14.801-3.884,22.201
				C380.699,297.605,377.011,301.176,372.365,301.902z"/>
			<path style="fill:#709687;" d="M384.41,264.004c-3.443-6.872-13.886-5.854-15.856,1.575c-0.081,0.304-0.149,0.614-0.204,0.929
				l-4.069,23.26c-0.373,2.133-0.1,4.222,0.675,6.074c2.433,5.812,10.487,6.935,14.386,1.985c0.019-0.024,0.038-0.049,0.057-0.073
				c3.001-3.881,3.038-10.084,3.87-14.841c0.974-5.568,3.816-13.432,1.191-18.809C384.444,264.071,384.427,264.037,384.41,264.004z"
				/>
		</g>
		<path style="fill:#709687;" d="M360.282,368.663c-21.441,1.034-42.92,1.034-64.361,0c-5.382-0.259-9.513-4.875-9.175-10.253
			c0.004-0.065,0.008-0.13,0.012-0.195c0.331-5.259,4.82-9.277,10.084-9.023c20.827,1.005,41.691,1.005,62.518,0
			c5.264-0.254,9.753,3.764,10.084,9.024c0.004,0.065,0.008,0.13,0.012,0.195C369.795,363.788,365.664,368.404,360.282,368.663z"/>
		<path style="fill:#26314A;" d="M316.761,440.992H299.87v-31.475h9.794c3.92,0,7.097,3.178,7.097,7.097V440.992z"/>
		<path style="fill:#F0887A;" d="M294.15,307.327l-37.136,0.76c-10.258,0.21-19.551,6.099-24.121,15.285l0,0
			c-4.937,9.924-3.451,21.84,3.772,30.247l54.112,62.985c2.46,2.864,3.673,6.593,3.368,10.356l-1.29,15.899
			c-0.169,2.079-0.974,4.053-2.321,5.645c-2.151,2.543-5.19,6.84-4.882,10.534h13.325c4.863,0,9.318-2.72,11.54-7.046l0.952-1.854
			c0.927-1.804,1.41-3.804,1.41-5.832v-19.891l0.63-4.901c0.469-3.644-1.47-7.173-4.797-8.733l-3.007-1.41
			c-0.958-0.449-1.732-1.216-2.189-2.171l-24.63-51.402l43.279-46.741L294.15,307.327z"/>
		<path style="fill:#26314A;" d="M294.831,432.924c4.274-1.308,12.113-2.577,19.518,2.193v14.802c0,5.037-4.083,9.12-9.12,9.12
			H288.15c-3.206,0-5.179-3.533-3.464-6.242c1.109-1.751,2.565-3.773,4.449-5.934c1.319-1.512,2.076-3.438,2.156-5.443l0.162-4.059
			C291.535,435.319,292.877,433.522,294.831,432.924z"/>
		<path style="fill:#26314A;" d="M289.433,377.813l-11.706,6.944v16.657l9.775,11.378c1.587-4.508,5.68-5.727,9.909-6.187
			c2.697-0.293,4.323-3.119,3.151-5.566L289.433,377.813z"/>
		<path style="fill:#B08F56;" d="M322.163,309.058l-28.013-1.731l-37.136,0.76c-10.258,0.21-19.551,6.099-24.121,15.285v0
			c-4.937,9.924-3.451,21.84,3.772,30.247l28.577,33.263l18.51-20.924l-4.868-10.159L322.163,309.058z"/>
		<g>
			<path style="fill:#709687;" d="M372.126,453.689l-10.629-88.028h-6.036l10.705,88.655c0.186,1.539-0.73,2.999-2.197,3.502
				l-3.562,1.221h18.675l-3.636-1.246C373.644,457.174,372.354,455.58,372.126,453.689z"/>
			<path style="fill:#709687;" d="M308.307,453.959l22.641-88.297h6.036l-22.755,88.827c-0.357,1.393,0.417,2.826,1.777,3.292
				l3.668,1.257H301l3.826-1.311C306.547,457.137,307.855,455.721,308.307,453.959z"/>
		</g>
		<path style="fill:#F0887A;" d="M278.755,285.65l-6.498-0.335c-2.843-0.147-5.547,1.24-7.087,3.635l-4.041,6.284
			c-1.122,1.745,0.131,4.041,2.206,4.041h17.23L278.755,285.65z"/>
		<path style="fill:#26314A;" d="M280.565,299.275l-1.435-10.801l-2.213-2.918c0,0-8.302,5.112-8.728,13.719H280.565z"/>
		<path style="fill:#F0887A;" d="M266.742,389.731l-4.201,43.433c-0.521,5.384-3.672,10.162-8.417,12.76h0l14.898,6.505h6.572
			c3.263,0,5.562-3.205,4.515-6.296l-2.274-6.714l11.541-49.688H266.742z"/>
		<path style="fill:#78423B;" d="M266.742,389.731l-0.666,6.881v0c0,0,10.513,1.283,19.786,8.249l3.514-15.13H266.742z"/>
		<path style="fill:#C9A362;" d="M354.216,313.517c5.875,13.22-0.839,38.61-22.872,38.61s-21.823-2.308-21.823-2.308
			s-0.982,10.282-5.456,17.207c2.308,9.862-1.469,16.577-1.469,16.577s1.469,7.764-2.098,13.01h-37.77l5.457-56.414
			c1.317-13.611,11.655-24.687,25.173-26.754c10.092-1.544,21.93-2.529,32.122-1.151
			C343.837,314.773,354.216,313.517,354.216,313.517z"/>
		
			<path style="fill:none;stroke:#26314A;stroke-width:1.1191;stroke-linecap:round;stroke-linejoin:round;stroke-miterlimit:10;" d="
			M345.929,319.76c0,0-5.059,7.311-14.269,3.892"/>
		
			<path style="fill:none;stroke:#26314A;stroke-width:1.1191;stroke-linecap:round;stroke-linejoin:round;stroke-miterlimit:10;" d="
			M341.47,316.631c0,0-11.331,9.156-21.875,9.841c-10.544,0.685-17.99,1.944-20.483,6.35s1.126,10.544-2.021,18.256
			c2.99,6.925-1.731,14.584-1.731,14.584s1.986,12.695-1.525,15.895c0.581,3.2-1.78,8.178-1.78,8.178"/>
		<path style="fill:#26314A;" d="M320.444,311.824c4.064,1.477,7.93,4.736,15.173,6.1c7.227,1.361,10.957,5.285,16.513,5.717
			c2.242,0.174,4.12-1.757,3.798-3.982c-0.321-2.216-0.893-4.297-1.713-6.141c0,0-10.379,1.256-28.736-1.225
			C323.842,312.071,322.152,311.93,320.444,311.824z"/>
		
			<path style="fill:none;stroke:#26314A;stroke-width:1.1191;stroke-linecap:round;stroke-linejoin:round;stroke-miterlimit:10;" d="
			M264.184,381.556l4.001-41.358c1.317-13.611,11.655-24.687,25.173-26.754c2.46-0.376,5.024-0.719,7.643-1.003"/>
		<path style="fill:#5F7ABA;" d="M296.706,223.445c6.257-0.157,19.477-5.823,31.437,0c11.961,5.823,17.941,16.525,21.088,36.197
			c3.148,19.672,3.777,37.613,8.026,42.492c4.249,4.879,3.521,15.117-1.358,15.431c-4.879,0.315-37.829-8.192-47.744-6.618
			c-5.726,0.909-11.452-1.122-15.268-2.999c-2.198-1.082-2.433-4.116-0.408-5.494h0c1.858-1.265,2.496-3.707,1.494-5.719
			l-16.665-33.472l-18.78,19.992c0,0-0.374,16.216-13.751,16.216c-13.377,0-22.656-10.083-13.473-25.191
			c2.95-16.997,14.53-20.144,14.53-20.144s5.666-11.646,10.702-14.164c3.148-7.239,11.331-15.58,20.931-14.951
			C287.068,225.649,296.706,223.445,296.706,223.445z"/>
		<g>
			<path style="fill:#26314A;" d="M238.912,271.997c0.865-0.255,1.745-0.496,2.638-0.694l1.364-0.176
				c0.456-0.067,0.915-0.114,1.379-0.085l1.392,0.021c0.463,0.039,0.922,0.134,1.385,0.199l0.693,0.113l0.676,0.197
				c0.444,0.153,0.911,0.242,1.335,0.45c1.769,0.662,3.333,1.811,4.62,3.157c1.279,1.368,2.251,2.984,2.79,4.766
				c0.039,0.127-0.034,0.262-0.161,0.301c-0.108,0.033-0.221-0.014-0.276-0.106l-0.013-0.022c-0.896-1.491-2.014-2.856-3.271-4.003
				c-1.257-1.151-2.672-2.116-4.24-2.759c-1.571-0.61-3.232-1.065-4.964-1.145c-0.859-0.12-1.73-0.009-2.608-0.046
				c-0.875,0.046-1.747,0.182-2.643,0.231l-0.026,0.001c-0.113,0.006-0.209-0.08-0.215-0.193
				C238.761,272.108,238.823,272.023,238.912,271.997z"/>
			<path style="fill:#26314A;" d="M261.886,243.283c1.376,0.988,2.698,2.014,3.977,3.114c1.271,1.104,2.519,2.252,3.549,3.644
				c0.116,0.157,0.083,0.379-0.074,0.495c-0.153,0.113-0.367,0.085-0.486-0.062l-0.009-0.011c-1.008-1.254-2.275-2.335-3.562-3.361
				c-1.293-1.022-2.649-1.989-4.02-2.89l-0.009-0.006c-0.258-0.17-0.33-0.517-0.16-0.775c0.17-0.258,0.517-0.33,0.775-0.16
				C261.872,243.273,261.88,243.279,261.886,243.283z"/>
			<path style="fill:#26314A;" d="M258.639,257.257c1.827,0.445,3.554,1.062,5.239,1.84c1.668,0.793,3.278,1.774,4.596,3.114
				c0.115,0.117,0.114,0.306-0.004,0.422c-0.114,0.112-0.295,0.114-0.411,0.007l-0.006-0.005c-1.298-1.199-2.88-2.066-4.523-2.753
				c-1.647-0.67-3.387-1.194-5.109-1.527l-0.021-0.004c-0.304-0.059-0.502-0.352-0.443-0.656c0.059-0.304,0.352-0.502,0.656-0.443
				C258.621,257.253,258.631,257.255,258.639,257.257z"/>
			<path style="fill:#26314A;" d="M288.686,282.77c1.717-1.085,3.526-1.992,5.387-2.793c1.862-0.797,3.772-1.495,5.732-2.04
				c1.956-0.558,3.962-0.954,5.989-1.212c2.025-0.304,4.086-0.299,6.138-0.229c0.402,0.014,0.717,0.351,0.703,0.753
				s-0.351,0.717-0.753,0.703l-0.008,0l-0.041-0.002c-1.96-0.088-3.933-0.135-5.9,0.074c-1.966,0.178-3.929,0.492-5.857,0.967
				c-1.931,0.46-3.851,1.003-5.725,1.688c-1.869,0.69-3.72,1.469-5.494,2.377l-0.007,0.004c-0.082,0.042-0.183,0.009-0.225-0.073
				C288.587,282.91,288.614,282.816,288.686,282.77z"/>
			<path style="fill:#26314A;" d="M307.55,277.219c-0.571-4.165-0.321-8.314,0.268-12.412c0.304-2.047,0.739-4.073,1.288-6.064
				c0.474-2.009,1.315-3.938,1.707-5.883c0.429-1.963,0.525-3.998,0.36-6.007c-0.207-1.975-0.65-4.06-0.601-6.157
				c0.009-2.096,0.39-4.209,1.168-6.185c0.779-1.982,1.908-3.811,3.641-5.244c0.238-0.197,0.59-0.163,0.787,0.074
				c0.197,0.238,0.163,0.59-0.074,0.787l-0.003,0.002l-0.046,0.038c-0.691,0.564-1.339,1.367-1.88,2.162
				c-0.55,0.808-1.015,1.682-1.37,2.6c-0.731,1.831-1.096,3.806-1.19,5.797c-0.123,2.005,0.173,3.973,0.323,6.071
				c0.127,2.071,0.042,4.16-0.311,6.217c-0.385,2.078-1.027,3.993-1.388,5.995c-0.395,1.99-0.743,3.987-0.986,5.996
				c-0.522,4.003-0.745,8.083-0.582,12.075l0.002,0.039c0.013,0.308-0.227,0.569-0.536,0.581
				C307.837,277.713,307.59,277.5,307.55,277.219z"/>
			<path style="fill:#26314A;" d="M313.574,299.371l8.289-0.058c2.649-0.056,5.262-0.976,7.388-2.562
				c2.137-1.575,3.785-3.788,4.735-6.274c0.897-2.515,1.499-5.257,1.918-7.948c0.204-1.356,0.356-2.72,0.434-4.09
				c0.109-1.368,0.008-2.736,0.099-4.155c0.18-2.808,0.822-5.567,1.81-8.184c2.034-5.118,2.032-10.785,1.096-16.157
				c-0.053-0.305,0.151-0.594,0.455-0.648c0.305-0.053,0.594,0.151,0.648,0.455c0.001,0.007,0.003,0.019,0.004,0.026
				c0.724,5.522,0.566,11.334-1.535,16.575c-0.966,2.559-1.664,5.242-1.778,7.971c-0.061,1.347,0.029,2.751-0.022,4.15
				c-0.033,1.397-0.134,2.793-0.303,4.181c-0.358,2.786-0.862,5.502-1.745,8.231c-0.994,2.702-2.795,5.101-5.111,6.821
				c-2.309,1.73-5.163,2.743-8.056,2.81c-2.804,0.048-5.548-0.019-8.325-0.023c-0.309,0-0.559-0.251-0.559-0.56
				C313.016,299.622,313.268,299.373,313.574,299.371z"/>
			<path style="fill:#26314A;" d="M346.253,283.82c-0.399,1.889-1.065,3.663-1.913,5.373c-0.843,1.707-1.892,3.32-3.128,4.783
				c-1.228,1.468-2.625,2.816-4.203,3.926c-1.54,1.172-3.28,2.036-5.043,2.828c-0.431,0.194-0.938,0.001-1.132-0.43
				c-0.194-0.432-0.001-0.938,0.43-1.132c0.011-0.005,0.021-0.009,0.032-0.014l0.056-0.022c1.672-0.663,3.341-1.39,4.831-2.421
				c1.529-0.969,2.903-2.177,4.134-3.515c1.239-1.334,2.316-2.829,3.204-4.433c0.89-1.595,1.625-3.32,2.081-5.069l0.007-0.025
				c0.046-0.177,0.227-0.282,0.403-0.236C346.185,283.477,346.289,283.649,346.253,283.82z"/>
			<path style="fill:#26314A;" d="M280.787,249.45c1.926,1.782,4.037,3.446,6.222,4.956c2.181,1.527,4.457,2.919,6.794,4.196
				c2.324,1.303,4.767,2.381,7.249,3.331c2.468,0.996,5.041,1.692,7.624,2.279l0.025,0.006c0.302,0.069,0.491,0.368,0.422,0.67
				c-0.069,0.302-0.368,0.491-0.67,0.422c-0.009-0.002-0.02-0.005-0.029-0.008c-2.604-0.742-5.203-1.497-7.697-2.534
				c-2.511-0.989-4.94-2.167-7.32-3.429c-2.379-1.265-4.697-2.648-6.922-4.169c-2.225-1.53-4.389-3.115-6.459-4.902
				c-0.234-0.202-0.26-0.555-0.058-0.789c0.202-0.234,0.555-0.26,0.789-0.058c0.004,0.004,0.009,0.007,0.013,0.011L280.787,249.45z"
				/>
		</g>
		<path style="fill:#26314A;" d="M277.311,263.262c-1.731-3.62-7.48-11.803-8.776-11.016s2.481,4.249,2.323,6.925
			c-0.157,2.675,1.166,5.836,3.416,7.324L277.311,263.262z"/>
		<path style="fill:#5F7ABA;" d="M310.989,279.288l-26.393,4.564c-6.656-2.518-14.763,7.082-13.228,15.423h55.673L310.989,279.288z"
			/>
		<path style="fill:#26314A;" d="M260.964,439.205c3.97,1.358,9.328,4.242,11.838,10.229c0.775,1.847,2.648,2.994,4.652,2.994h3.582
			c1.825,0,3.305,1.48,3.305,3.305v0c0,1.825-1.48,3.305-3.305,3.305h-50.703c-2.504,0-3.832-2.952-2.174-4.828
			c3.024-3.422,7.956-7.556,14.621-8.433c1.737-0.229,3.365-0.986,4.754-2.054c1.762-1.355,3.487-2.532,4.922-3.457
			C254.988,438.633,258.114,438.23,260.964,439.205z"/>
		<g>
			<path style="fill:#F2EDE6;" d="M251.427,294.903l0.235,4.577l-1.477-2.082l-1.477-2.082l1.847-0.649
				c0.157,0.168,0.336,0.313,0.526,0.448C251.203,295.049,251.315,294.97,251.427,294.903z"/>
			<path style="fill:#F0887A;" d="M249.211,288.11l-3.492-10.061c0.526,0.157,1.03,0.336,1.488,0.537
				c0.313,2.373,0.783,4.823,2.138,6.234c0.123,0.123,0.302,0.157,0.459,0.101c0.09-0.022,0.157-0.078,0.224-0.157
				c0.123-0.168,0.09-0.414-0.056-0.571c-1.063-1.108-1.522-3.111-1.813-5.148c1.735,0.906,2.966,2.093,3.917,3.324
				c1.522,1.992,3.559,9.714-0.649,12.534c-0.112,0.067-0.224,0.145-0.347,0.213c-0.19-0.134-0.369-0.28-0.526-0.448
				c-1.466-1.511-1.556-4.32-1.332-6.558H249.211z"/>
			<polygon style="fill:#EDE5DA;" points="242.888,269.913 240.202,270.853 239.486,268.794 242.172,267.854 			"/>
			<path style="fill:#F5C365;" d="M242.888,269.924c0.09,0.235,0.325,0.381,0.582,0.347c0.694-0.09,1.276-0.011,1.791,0.269
				c0.974,0.526,1.679,1.723,2.193,3.783c0.213,0.839,0.347,1.903,0.481,3.033c0.067,0.56,0.134,1.13,0.224,1.69
				c0.291,2.037,0.75,4.04,1.813,5.148c0.145,0.157,0.179,0.403,0.056,0.571c-0.067,0.078-0.134,0.134-0.224,0.157
				c-0.157,0.056-0.336,0.022-0.459-0.101c-1.354-1.41-1.824-3.861-2.138-6.234c-0.056-0.38-0.101-0.761-0.145-1.13
				c-0.134-1.097-0.257-2.138-0.459-2.921c-0.548-2.149-1.074-3.458-2.675-3.425c-0.313,0.011-0.515,0.325-0.414,0.604l0.168,0.481
				l-2.697,0.929l-0.783-2.272L242.888,269.924z"/>
			<path style="fill:#EDE5DA;" d="M242.463,277.389l-1.477-4.264l2.697-0.929l2.037,5.853l3.492,10.061h0.011
				c-0.224,2.238-0.134,5.047,1.332,6.558l-1.847,0.649l-2.428-6.972c0.47-0.347,0.806-0.873,0.884-1.511
				c0.112-0.94-0.381-1.858-1.242-2.272l-1.153-0.56L242.463,277.389z"/>
			<path style="fill:#F0887A;" d="M244.779,299.469c-2.518,0-7.185,0.235-7.341-3.592c-2.619-1.679-1.679-4.32-1.578-4.846
				c-2.462-1.735-1.723-5.036-0.783-5.674c-3.357-2.406-1.936-8.393,5.349-8.125c0.716,0.022,1.399,0.078,2.037,0.157l2.305,6.614
				l1.153,0.56c0.862,0.414,1.354,1.332,1.242,2.272c-0.078,0.638-0.414,1.164-0.884,1.511l2.428,6.972l1.477,2.082
				C248.931,299.1,246.648,299.469,244.779,299.469z"/>
			<g>
				
					<path style="fill:none;stroke:#78423B;stroke-width:0.5596;stroke-linecap:round;stroke-linejoin:round;stroke-miterlimit:10;" d="
					M238.096,280.772l7.778,3.789c0.855,0.416,1.351,1.33,1.235,2.273l0,0c-0.18,1.462-1.703,2.35-3.063,1.786l-6.972-2.891"/>
				
					<path style="fill:none;stroke:#78423B;stroke-width:0.5596;stroke-linecap:round;stroke-linejoin:round;stroke-miterlimit:10;" d="
					M251.027,295.12c-2.797-1.924-1.891-7.571-1.458-9.601"/>
				
					<path style="fill:none;stroke:#78423B;stroke-width:0.5596;stroke-linecap:round;stroke-linejoin:round;stroke-miterlimit:10;" d="
					M237.388,291.5l5.963,1.215c1.31,0.267,2.536-0.734,2.536-2.071l0,0c0-0.913-0.586-1.723-1.454-2.008l-1.69-0.555"/>
				
					<path style="fill:none;stroke:#78423B;stroke-width:0.5596;stroke-linecap:round;stroke-linejoin:round;stroke-miterlimit:10;" d="
					M239.434,295.959l4.746-0.316c1.164-0.078,1.924-1.256,1.515-2.348l-0.436-1.163"/>
			</g>
		</g>
		<g>
			<path style="fill:#26314A;" d="M353.162,305.015c-2.353,0.528-4.71,0.867-7.092,1.103c-2.38,0.227-4.774,0.323-7.17,0.266
				c-2.396-0.086-4.79-0.341-7.157-0.804c-2.356-0.522-4.666-1.286-6.849-2.374c-0.277-0.138-0.389-0.474-0.251-0.75
				c0.138-0.277,0.474-0.389,0.75-0.251l0.004,0.002l0.019,0.01c2.062,1.05,4.272,1.808,6.547,2.334
				c2.29,0.47,4.623,0.742,6.97,0.847c2.349,0.077,4.705,0.006,7.052-0.197c2.342-0.21,4.696-0.527,6.979-1.018l0.014-0.003
				c0.231-0.05,0.458,0.097,0.508,0.328C353.536,304.738,353.39,304.964,353.162,305.015z"/>
		</g>
		<path style="fill:#F0887A;" d="M296.279,215.277c0,0,4.025,7.032,5.464,9.317c4.622,7.337-10.826,16.068-16.187,8.016l-3.677-6.63
			L296.279,215.277z"/>
		<path style="fill:#26314A;" d="M292.822,226.731c2.982-2.537,1.379-7.84,1.379-7.84l-9.786,5.206l-2.536,1.885l3.677,6.63
			c0.129,0.193,0.268,0.368,0.408,0.542C288.11,231.956,290.284,228.89,292.822,226.731z"/>
		<g>
			<path style="fill:#26314A;" d="M282.852,232.582c0.28,1.396,0.954,2.697,1.958,3.693c1.002,0.999,2.283,1.693,3.633,2.136
				c2.718,0.875,5.715,0.831,8.452,0.083c2.717-0.792,5.286-2.343,7.085-4.49c0.89-1.079,1.548-2.335,1.842-3.677
				c0.301-1.342,0.227-2.745-0.097-4.095l-0.004-0.016c-0.072-0.301,0.113-0.603,0.414-0.675c0.301-0.072,0.603,0.113,0.675,0.414
				c0,0.002,0.002,0.007,0.002,0.009c0.334,1.499,0.39,3.087,0.021,4.599c-0.36,1.512-1.128,2.9-2.119,4.056
				c-2.012,2.301-4.715,3.85-7.61,4.643c-2.906,0.734-6.012,0.722-8.863-0.25c-1.415-0.492-2.767-1.254-3.825-2.349
				c-1.06-1.09-1.76-2.511-2.027-3.992c-0.023-0.128,0.062-0.251,0.19-0.274C282.706,232.373,282.827,232.456,282.852,232.582z"/>
		</g>
		<path style="fill:#FFFFFF;" d="M410.51,334.654c-9.046,1.241-10.692,3.073-11.71,13.955c-0.038,0.407-0.636,0.407-0.674,0
			c-1.018-10.882-2.665-12.714-11.71-13.955c-0.39-0.053-0.39-0.616,0-0.67c9.046-1.241,10.692-3.073,11.71-13.955
			c0.038-0.407,0.636-0.407,0.674,0c1.018,10.882,2.665,12.714,11.71,13.955C410.9,334.038,410.9,334.6,410.51,334.654z"/>
		<path style="fill:#FFFFFF;" d="M116.818,330.356c-6.926,0.95-8.186,2.353-8.966,10.684c-0.029,0.312-0.487,0.312-0.516,0
			c-0.78-8.332-2.04-9.734-8.966-10.684c-0.298-0.041-0.298-0.472,0-0.513c6.926-0.95,8.186-2.353,8.966-10.684
			c0.029-0.312,0.487-0.312,0.516,0c0.78,8.332,2.04,9.734,8.966,10.684C117.116,329.884,117.116,330.315,116.818,330.356z"/>
		<path style="fill:#FFFFFF;" d="M365.462,140.441c-6.926,0.95-8.186,2.353-8.966,10.684c-0.029,0.312-0.487,0.312-0.516,0
			c-0.78-8.332-2.04-9.734-8.966-10.684c-0.298-0.041-0.298-0.472,0-0.513c6.926-0.95,8.186-2.353,8.966-10.684
			c0.029-0.312,0.487-0.312,0.516,0c0.78,8.332,2.04,9.734,8.966,10.684C365.761,139.969,365.761,140.4,365.462,140.441z"/>
		<g>
			<path style="fill:#EDE5DA;" d="M313.698,458.164l-4.467,0.874h21.718l-4.467-0.874c-2.342-0.458-4.031-2.51-4.031-4.896V304.075
				h-4.721v41.842c0,2.329-1.888,4.217-4.217,4.217h-58.054c-2.329,0-4.217-1.888-4.217-4.217v-41.842h-4.721v149.193
				c0,2.386-1.689,4.438-4.031,4.896l-4.467,0.874h21.718l-4.467-0.874c-2.342-0.458-4.031-2.51-4.031-4.896v-94.511
				c0-2.329,1.888-4.217,4.217-4.217h58.054c2.329,0,4.217,1.888,4.217,4.217v94.511
				C317.729,455.654,316.039,457.706,313.698,458.164z"/>
			<path style="fill:#EDE5DA;" d="M196.505,458.164l-4.467,0.874h21.718l-4.467-0.874c-2.342-0.458-4.031-2.51-4.031-4.896V304.599
				h-4.721v41.317c0,2.329-1.888,4.217-4.217,4.217h-58.054c-2.329,0-4.217-1.888-4.217-4.217v-41.317h-4.721v148.668
				c0,2.386-1.689,4.438-4.031,4.896l-4.467,0.874h21.718l-4.467-0.874c-2.342-0.458-4.031-2.51-4.031-4.896v-94.511
				c0-2.329,1.888-4.217,4.217-4.217h58.054c2.329,0,4.217,1.888,4.217,4.217v94.511
				C200.536,455.654,198.846,457.706,196.505,458.164z"/>
			<g>
				<path style="fill:#709687;" d="M199.32,355.799c0.75,0.761,1.215,1.805,1.215,2.958v67.625l4.721,1.834v-72.418H199.32z"/>
				<path style="fill:#709687;" d="M135.263,355.799h-5.937v42.918l4.721,1.834v-41.794
					C134.047,357.604,134.512,356.56,135.263,355.799z"/>
			</g>
			<rect x="129.326" y="304.599" style="fill:#EDE5DA;" width="117.193" height="80.157"/>
			<g>
				<g>
					<path style="fill:#709687;" d="M138.174,314.191c0-1.345,1.09-2.436,2.436-2.436c0.349,0,0.679,0.076,0.979,0.208
						c-0.467-0.404-1.068-0.657-1.734-0.657c-1.47,0-2.662,1.192-2.662,2.662c0,1.47,1.192,2.662,2.662,2.662
						c0.138,0,0.27-0.02,0.402-0.04C139.08,316.418,138.174,315.415,138.174,314.191z"/>
					<path style="fill:#709687;" d="M150.307,314.191c0-1.345,1.09-2.436,2.436-2.436c0.349,0,0.679,0.076,0.979,0.208
						c-0.467-0.404-1.068-0.657-1.734-0.657c-1.47,0-2.662,1.192-2.662,2.662c0,1.47,1.192,2.662,2.662,2.662
						c0.138,0,0.27-0.02,0.402-0.04C151.213,316.418,150.307,315.415,150.307,314.191z"/>
					<path style="fill:#709687;" d="M162.44,314.191c0-1.345,1.09-2.436,2.436-2.436c0.349,0,0.679,0.076,0.979,0.208
						c-0.467-0.404-1.068-0.657-1.734-0.657c-1.47,0-2.662,1.192-2.662,2.662c0,1.47,1.192,2.662,2.662,2.662
						c0.138,0,0.27-0.02,0.401-0.04C163.346,316.418,162.44,315.415,162.44,314.191z"/>
					<path style="fill:#709687;" d="M174.572,314.191c0-1.345,1.09-2.436,2.436-2.436c0.349,0,0.679,0.076,0.979,0.208
						c-0.467-0.404-1.068-0.657-1.734-0.657c-1.47,0-2.662,1.192-2.662,2.662c0,1.47,1.192,2.662,2.662,2.662
						c0.138,0,0.27-0.02,0.402-0.04C175.479,316.418,174.572,315.415,174.572,314.191z"/>
					<path style="fill:#709687;" d="M186.705,314.191c0-1.345,1.09-2.436,2.436-2.436c0.349,0,0.679,0.076,0.979,0.208
						c-0.467-0.404-1.068-0.657-1.734-0.657c-1.47,0-2.662,1.192-2.662,2.662c0,1.47,1.192,2.662,2.662,2.662
						c0.138,0,0.27-0.02,0.401-0.04C187.612,316.418,186.705,315.415,186.705,314.191z"/>
					<path style="fill:#709687;" d="M198.838,314.191c0-1.345,1.09-2.436,2.436-2.436c0.349,0,0.679,0.076,0.979,0.208
						c-0.467-0.404-1.068-0.657-1.734-0.657c-1.47,0-2.662,1.192-2.662,2.662c0,1.47,1.192,2.662,2.662,2.662
						c0.138,0,0.27-0.02,0.402-0.04C199.745,316.418,198.838,315.415,198.838,314.191z"/>
					<path style="fill:#709687;" d="M210.971,314.191c0-1.345,1.09-2.436,2.436-2.436c0.349,0,0.679,0.076,0.979,0.208
						c-0.467-0.404-1.068-0.657-1.734-0.657c-1.47,0-2.662,1.192-2.662,2.662c0,1.47,1.192,2.662,2.662,2.662
						c0.138,0,0.27-0.02,0.402-0.04C211.878,316.418,210.971,315.415,210.971,314.191z"/>
					<path style="fill:#709687;" d="M223.104,314.191c0-1.345,1.09-2.436,2.436-2.436c0.349,0,0.679,0.076,0.979,0.208
						c-0.467-0.404-1.068-0.657-1.734-0.657c-1.47,0-2.662,1.192-2.662,2.662c0,1.47,1.192,2.662,2.662,2.662
						c0.138,0,0.27-0.02,0.402-0.04C224.011,316.418,223.104,315.415,223.104,314.191z"/>
					<path style="fill:#709687;" d="M235.237,314.191c0-1.345,1.09-2.436,2.436-2.436c0.349,0,0.679,0.076,0.979,0.208
						c-0.467-0.404-1.068-0.657-1.734-0.657c-1.47,0-2.662,1.192-2.662,2.662c0,1.47,1.192,2.662,2.662,2.662
						c0.138,0,0.27-0.02,0.402-0.04C236.144,316.418,235.237,315.415,235.237,314.191z"/>
				</g>
				<g>
					<path style="fill:#709687;" d="M138.174,329.545c0-1.345,1.09-2.436,2.436-2.436c0.349,0,0.679,0.076,0.979,0.208
						c-0.467-0.404-1.068-0.657-1.734-0.657c-1.47,0-2.662,1.192-2.662,2.662s1.192,2.662,2.662,2.662c0.138,0,0.27-0.02,0.402-0.04
						C139.08,331.773,138.174,330.769,138.174,329.545z"/>
					<path style="fill:#709687;" d="M150.307,329.545c0-1.345,1.09-2.436,2.436-2.436c0.349,0,0.679,0.076,0.979,0.208
						c-0.467-0.404-1.068-0.657-1.734-0.657c-1.47,0-2.662,1.192-2.662,2.662s1.192,2.662,2.662,2.662c0.138,0,0.27-0.02,0.402-0.04
						C151.213,331.773,150.307,330.769,150.307,329.545z"/>
					<path style="fill:#709687;" d="M162.44,329.545c0-1.345,1.09-2.436,2.436-2.436c0.349,0,0.679,0.076,0.979,0.208
						c-0.467-0.404-1.068-0.657-1.734-0.657c-1.47,0-2.662,1.192-2.662,2.662s1.192,2.662,2.662,2.662c0.138,0,0.27-0.02,0.401-0.04
						C163.346,331.773,162.44,330.769,162.44,329.545z"/>
					<path style="fill:#709687;" d="M174.572,329.545c0-1.345,1.09-2.436,2.436-2.436c0.349,0,0.679,0.076,0.979,0.208
						c-0.467-0.404-1.068-0.657-1.734-0.657c-1.47,0-2.662,1.192-2.662,2.662s1.192,2.662,2.662,2.662c0.138,0,0.27-0.02,0.402-0.04
						C175.479,331.773,174.572,330.769,174.572,329.545z"/>
					<path style="fill:#709687;" d="M186.705,329.545c0-1.345,1.09-2.436,2.436-2.436c0.349,0,0.679,0.076,0.979,0.208
						c-0.467-0.404-1.068-0.657-1.734-0.657c-1.47,0-2.662,1.192-2.662,2.662s1.192,2.662,2.662,2.662c0.138,0,0.27-0.02,0.401-0.04
						C187.612,331.773,186.705,330.769,186.705,329.545z"/>
					<path style="fill:#709687;" d="M198.838,329.545c0-1.345,1.09-2.436,2.436-2.436c0.349,0,0.679,0.076,0.979,0.208
						c-0.467-0.404-1.068-0.657-1.734-0.657c-1.47,0-2.662,1.192-2.662,2.662s1.192,2.662,2.662,2.662c0.138,0,0.27-0.02,0.402-0.04
						C199.745,331.773,198.838,330.769,198.838,329.545z"/>
					<path style="fill:#709687;" d="M210.971,329.545c0-1.345,1.09-2.436,2.436-2.436c0.349,0,0.679,0.076,0.979,0.208
						c-0.467-0.404-1.068-0.657-1.734-0.657c-1.47,0-2.662,1.192-2.662,2.662s1.192,2.662,2.662,2.662c0.138,0,0.27-0.02,0.402-0.04
						C211.878,331.773,210.971,330.769,210.971,329.545z"/>
					<path style="fill:#709687;" d="M223.104,329.545c0-1.345,1.09-2.436,2.436-2.436c0.349,0,0.679,0.076,0.979,0.208
						c-0.467-0.404-1.068-0.657-1.734-0.657c-1.47,0-2.662,1.192-2.662,2.662s1.192,2.662,2.662,2.662c0.138,0,0.27-0.02,0.402-0.04
						C224.011,331.773,223.104,330.769,223.104,329.545z"/>
					<path style="fill:#709687;" d="M235.237,329.545c0-1.345,1.09-2.436,2.436-2.436c0.349,0,0.679,0.076,0.979,0.208
						c-0.467-0.404-1.068-0.657-1.734-0.657c-1.47,0-2.662,1.192-2.662,2.662s1.192,2.662,2.662,2.662c0.138,0,0.27-0.02,0.402-0.04
						C236.144,331.773,235.237,330.769,235.237,329.545z"/>
				</g>
				<g>
					<path style="fill:#709687;" d="M138.174,344.9c0-1.345,1.09-2.436,2.436-2.436c0.349,0,0.679,0.076,0.979,0.208
						c-0.467-0.404-1.068-0.657-1.734-0.657c-1.47,0-2.662,1.192-2.662,2.662c0,1.47,1.192,2.662,2.662,2.662
						c0.138,0,0.27-0.02,0.402-0.04C139.08,347.127,138.174,346.124,138.174,344.9z"/>
					<path style="fill:#709687;" d="M150.307,344.9c0-1.345,1.09-2.436,2.436-2.436c0.349,0,0.679,0.076,0.979,0.208
						c-0.467-0.404-1.068-0.657-1.734-0.657c-1.47,0-2.662,1.192-2.662,2.662c0,1.47,1.192,2.662,2.662,2.662
						c0.138,0,0.27-0.02,0.402-0.04C151.213,347.127,150.307,346.124,150.307,344.9z"/>
					<path style="fill:#709687;" d="M162.44,344.9c0-1.345,1.09-2.436,2.436-2.436c0.349,0,0.679,0.076,0.979,0.208
						c-0.467-0.404-1.068-0.657-1.734-0.657c-1.47,0-2.662,1.192-2.662,2.662c0,1.47,1.192,2.662,2.662,2.662
						c0.138,0,0.27-0.02,0.401-0.04C163.346,347.127,162.44,346.124,162.44,344.9z"/>
					<path style="fill:#709687;" d="M174.572,344.9c0-1.345,1.09-2.436,2.436-2.436c0.349,0,0.679,0.076,0.979,0.208
						c-0.467-0.404-1.068-0.657-1.734-0.657c-1.47,0-2.662,1.192-2.662,2.662c0,1.47,1.192,2.662,2.662,2.662
						c0.138,0,0.27-0.02,0.402-0.04C175.479,347.127,174.572,346.124,174.572,344.9z"/>
					<path style="fill:#709687;" d="M186.705,344.9c0-1.345,1.09-2.436,2.436-2.436c0.349,0,0.679,0.076,0.979,0.208
						c-0.467-0.404-1.068-0.657-1.734-0.657c-1.47,0-2.662,1.192-2.662,2.662c0,1.47,1.192,2.662,2.662,2.662
						c0.138,0,0.27-0.02,0.401-0.04C187.612,347.127,186.705,346.124,186.705,344.9z"/>
					<path style="fill:#709687;" d="M198.838,344.9c0-1.345,1.09-2.436,2.436-2.436c0.349,0,0.679,0.076,0.979,0.208
						c-0.467-0.404-1.068-0.657-1.734-0.657c-1.47,0-2.662,1.192-2.662,2.662c0,1.47,1.192,2.662,2.662,2.662
						c0.138,0,0.27-0.02,0.402-0.04C199.745,347.127,198.838,346.124,198.838,344.9z"/>
					<path style="fill:#709687;" d="M210.971,344.9c0-1.345,1.09-2.436,2.436-2.436c0.349,0,0.679,0.076,0.979,0.208
						c-0.467-0.404-1.068-0.657-1.734-0.657c-1.47,0-2.662,1.192-2.662,2.662c0,1.47,1.192,2.662,2.662,2.662
						c0.138,0,0.27-0.02,0.402-0.04C211.878,347.127,210.971,346.124,210.971,344.9z"/>
					<path style="fill:#709687;" d="M223.104,344.9c0-1.345,1.09-2.436,2.436-2.436c0.349,0,0.679,0.076,0.979,0.208
						c-0.467-0.404-1.068-0.657-1.734-0.657c-1.47,0-2.662,1.192-2.662,2.662c0,1.47,1.192,2.662,2.662,2.662
						c0.138,0,0.27-0.02,0.402-0.04C224.011,347.127,223.104,346.124,223.104,344.9z"/>
					<path style="fill:#709687;" d="M235.237,344.9c0-1.345,1.09-2.436,2.436-2.436c0.349,0,0.679,0.076,0.979,0.208
						c-0.467-0.404-1.068-0.657-1.734-0.657c-1.47,0-2.662,1.192-2.662,2.662c0,1.47,1.192,2.662,2.662,2.662
						c0.138,0,0.27-0.02,0.402-0.04C236.144,347.127,235.237,346.124,235.237,344.9z"/>
				</g>
				<g>
					<path style="fill:#709687;" d="M138.174,360.254c0-1.345,1.09-2.436,2.436-2.436c0.349,0,0.679,0.076,0.979,0.208
						c-0.467-0.404-1.068-0.657-1.734-0.657c-1.47,0-2.662,1.192-2.662,2.662c0,1.47,1.192,2.662,2.662,2.662
						c0.138,0,0.27-0.02,0.402-0.04C139.08,362.482,138.174,361.478,138.174,360.254z"/>
					<path style="fill:#709687;" d="M150.307,360.254c0-1.345,1.09-2.436,2.436-2.436c0.349,0,0.679,0.076,0.979,0.208
						c-0.467-0.404-1.068-0.657-1.734-0.657c-1.47,0-2.662,1.192-2.662,2.662c0,1.47,1.192,2.662,2.662,2.662
						c0.138,0,0.27-0.02,0.402-0.04C151.213,362.482,150.307,361.478,150.307,360.254z"/>
					<path style="fill:#709687;" d="M162.44,360.254c0-1.345,1.09-2.436,2.436-2.436c0.349,0,0.679,0.076,0.979,0.208
						c-0.467-0.404-1.068-0.657-1.734-0.657c-1.47,0-2.662,1.192-2.662,2.662c0,1.47,1.192,2.662,2.662,2.662
						c0.138,0,0.27-0.02,0.401-0.04C163.346,362.482,162.44,361.478,162.44,360.254z"/>
					<path style="fill:#709687;" d="M174.572,360.254c0-1.345,1.09-2.436,2.436-2.436c0.349,0,0.679,0.076,0.979,0.208
						c-0.467-0.404-1.068-0.657-1.734-0.657c-1.47,0-2.662,1.192-2.662,2.662c0,1.47,1.192,2.662,2.662,2.662
						c0.138,0,0.27-0.02,0.402-0.04C175.479,362.482,174.572,361.478,174.572,360.254z"/>
					<path style="fill:#709687;" d="M186.705,360.254c0-1.345,1.09-2.436,2.436-2.436c0.349,0,0.679,0.076,0.979,0.208
						c-0.467-0.404-1.068-0.657-1.734-0.657c-1.47,0-2.662,1.192-2.662,2.662c0,1.47,1.192,2.662,2.662,2.662
						c0.138,0,0.27-0.02,0.401-0.04C187.612,362.482,186.705,361.478,186.705,360.254z"/>
					<path style="fill:#709687;" d="M198.838,360.254c0-1.345,1.09-2.436,2.436-2.436c0.349,0,0.679,0.076,0.979,0.208
						c-0.467-0.404-1.068-0.657-1.734-0.657c-1.47,0-2.662,1.192-2.662,2.662c0,1.47,1.192,2.662,2.662,2.662
						c0.138,0,0.27-0.02,0.402-0.04C199.745,362.482,198.838,361.478,198.838,360.254z"/>
					<path style="fill:#709687;" d="M210.971,360.254c0-1.345,1.09-2.436,2.436-2.436c0.349,0,0.679,0.076,0.979,0.208
						c-0.467-0.404-1.068-0.657-1.734-0.657c-1.47,0-2.662,1.192-2.662,2.662c0,1.47,1.192,2.662,2.662,2.662
						c0.138,0,0.27-0.02,0.402-0.04C211.878,362.482,210.971,361.478,210.971,360.254z"/>
					<path style="fill:#709687;" d="M223.104,360.254c0-1.345,1.09-2.436,2.436-2.436c0.349,0,0.679,0.076,0.979,0.208
						c-0.467-0.404-1.068-0.657-1.734-0.657c-1.47,0-2.662,1.192-2.662,2.662c0,1.47,1.192,2.662,2.662,2.662
						c0.138,0,0.27-0.02,0.402-0.04C224.011,362.482,223.104,361.478,223.104,360.254z"/>
					<path style="fill:#709687;" d="M235.237,360.254c0-1.345,1.09-2.436,2.436-2.436c0.349,0,0.679,0.076,0.979,0.208
						c-0.467-0.404-1.068-0.657-1.734-0.657c-1.47,0-2.662,1.192-2.662,2.662c0,1.47,1.192,2.662,2.662,2.662
						c0.138,0,0.27-0.02,0.402-0.04C236.144,362.482,235.237,361.478,235.237,360.254z"/>
				</g>
				<g>
					<path style="fill:#709687;" d="M138.174,375.609c0-1.345,1.09-2.436,2.436-2.436c0.349,0,0.679,0.076,0.979,0.208
						c-0.467-0.404-1.068-0.657-1.734-0.657c-1.47,0-2.662,1.192-2.662,2.662s1.192,2.662,2.662,2.662c0.138,0,0.27-0.02,0.402-0.04
						C139.08,377.836,138.174,376.833,138.174,375.609z"/>
					<path style="fill:#709687;" d="M150.307,375.609c0-1.345,1.09-2.436,2.436-2.436c0.349,0,0.679,0.076,0.979,0.208
						c-0.467-0.404-1.068-0.657-1.734-0.657c-1.47,0-2.662,1.192-2.662,2.662s1.192,2.662,2.662,2.662c0.138,0,0.27-0.02,0.402-0.04
						C151.213,377.836,150.307,376.833,150.307,375.609z"/>
					<path style="fill:#709687;" d="M162.44,375.609c0-1.345,1.09-2.436,2.436-2.436c0.349,0,0.679,0.076,0.979,0.208
						c-0.467-0.404-1.068-0.657-1.734-0.657c-1.47,0-2.662,1.192-2.662,2.662s1.192,2.662,2.662,2.662c0.138,0,0.27-0.02,0.401-0.04
						C163.346,377.836,162.44,376.833,162.44,375.609z"/>
					<path style="fill:#709687;" d="M174.572,375.609c0-1.345,1.09-2.436,2.436-2.436c0.349,0,0.679,0.076,0.979,0.208
						c-0.467-0.404-1.068-0.657-1.734-0.657c-1.47,0-2.662,1.192-2.662,2.662s1.192,2.662,2.662,2.662c0.138,0,0.27-0.02,0.402-0.04
						C175.479,377.836,174.572,376.833,174.572,375.609z"/>
					<path style="fill:#709687;" d="M186.705,375.609c0-1.345,1.09-2.436,2.436-2.436c0.349,0,0.679,0.076,0.979,0.208
						c-0.467-0.404-1.068-0.657-1.734-0.657c-1.47,0-2.662,1.192-2.662,2.662s1.192,2.662,2.662,2.662c0.138,0,0.27-0.02,0.401-0.04
						C187.612,377.836,186.705,376.833,186.705,375.609z"/>
					<path style="fill:#709687;" d="M198.838,375.609c0-1.345,1.09-2.436,2.436-2.436c0.349,0,0.679,0.076,0.979,0.208
						c-0.467-0.404-1.068-0.657-1.734-0.657c-1.47,0-2.662,1.192-2.662,2.662s1.192,2.662,2.662,2.662c0.138,0,0.27-0.02,0.402-0.04
						C199.745,377.836,198.838,376.833,198.838,375.609z"/>
					<path style="fill:#709687;" d="M210.971,375.609c0-1.345,1.09-2.436,2.436-2.436c0.349,0,0.679,0.076,0.979,0.208
						c-0.467-0.404-1.068-0.657-1.734-0.657c-1.47,0-2.662,1.192-2.662,2.662s1.192,2.662,2.662,2.662c0.138,0,0.27-0.02,0.402-0.04
						C211.878,377.836,210.971,376.833,210.971,375.609z"/>
					<path style="fill:#709687;" d="M223.104,375.609c0-1.345,1.09-2.436,2.436-2.436c0.349,0,0.679,0.076,0.979,0.208
						c-0.467-0.404-1.068-0.657-1.734-0.657c-1.47,0-2.662,1.192-2.662,2.662s1.192,2.662,2.662,2.662c0.138,0,0.27-0.02,0.402-0.04
						C224.011,377.836,223.104,376.833,223.104,375.609z"/>
					<path style="fill:#709687;" d="M235.237,375.609c0-1.345,1.09-2.436,2.436-2.436c0.349,0,0.679,0.076,0.979,0.208
						c-0.467-0.404-1.068-0.657-1.734-0.657c-1.47,0-2.662,1.192-2.662,2.662s1.192,2.662,2.662,2.662c0.138,0,0.27-0.02,0.402-0.04
						C236.144,377.836,235.237,376.833,235.237,375.609z"/>
				</g>
			</g>
			<rect x="116.159" y="299.143" style="fill:#EDE5DA;" width="219.459" height="5.456"/>
			<rect x="233.352" y="299.143" style="fill:#EDE5DA;" width="102.266" height="5.456"/>
			<polygon style="fill:#26314A;" points="129.326,304.599 246.519,304.599 246.519,318.868 			"/>
		</g>
		<path style="fill:#26314A;" d="M266.076,390.737h32.534C298.611,390.737,282.344,386.225,266.076,390.737z"/>
		
			<line style="fill:none;stroke:#26314A;stroke-width:1.1191;stroke-linecap:round;stroke-linejoin:round;stroke-miterlimit:10;" x1="258.847" y1="324.324" x2="271.75" y2="328.62"/>
		
			<path style="fill:none;stroke:#26314A;stroke-width:1.1191;stroke-linecap:round;stroke-linejoin:round;stroke-miterlimit:10;" d="
			M256.486,331.986c0,0,8.642-2.568,13.685,0"/>
		
			<path style="fill:none;stroke:#26314A;stroke-width:1.1191;stroke-linecap:round;stroke-linejoin:round;stroke-miterlimit:10;" d="
			M306.27,339.642c0,0-3.987-10.492-9.862-11.961"/>
		
			<line style="fill:none;stroke:#26314A;stroke-width:1.1191;stroke-linecap:round;stroke-linejoin:round;stroke-miterlimit:10;" x1="295.358" y1="336.914" x2="302.702" y2="339.642"/>
		
			<line style="fill:none;stroke:#B8E0D0;stroke-width:1.1191;stroke-miterlimit:10;" x1="246.519" y1="304.599" x2="246.519" y2="381.819"/>
		<path style="fill:#F0887A;" d="M266.322,207.686c-0.749,0.097-1.167,0.925-0.805,1.588c0.833,1.521,2.11,4.05,3.199,7.047
			c1.791,4.925,5.373,13.097,13.769,13.209c7.994,0.107,11.827-7.703,12.948-12.702c0.109-0.485,0.12-0.983,0.063-1.476
			l-0.922-7.986c0,0-8.124,1.816-12.185-5.592c-0.47-0.857-1.622-1.005-2.315-0.316c-2.831,2.816-6.404,3.25-8.201,3.27
			c-0.663,0.007-1.276,0.332-1.679,0.859C269.598,206.369,268.425,207.413,266.322,207.686z"/>
		<circle style="fill:#E36F5F;" cx="286.104" cy="217.017" r="2.854"/>
		
			<ellipse transform="matrix(0.9081 -0.4187 0.4187 0.9081 -65.5836 133.9071)" style="fill:#26314A;" cx="272.318" cy="216.387" rx="1.265" ry="1.845"/>
		
			<ellipse transform="matrix(0.9081 -0.4187 0.4187 0.9081 -63.4332 136.9818)" style="fill:#26314A;" cx="280.399" cy="213.025" rx="1.265" ry="1.845"/>
		<path style="fill:#26314A;" d="M292.668,208.589l-0.3-0.872l-7.318,2.516c-0.457,0.157-0.972,0.025-1.275-0.351
			c-0.665-0.826-1.48-1.473-2.378-1.854c-1.27-0.538-2.538-0.506-3.574,0.092c-1.37,0.791-2.012,2.431-1.865,4.226l-1.607,0.964
			c-0.56-0.552-1.189-1.001-1.87-1.29c-1.269-0.539-2.537-0.506-3.573,0.092c-1.035,0.598-1.698,1.68-1.866,3.049
			c-0.162,1.32,0.159,2.757,0.904,4.047c0.745,1.29,1.829,2.286,3.053,2.806c0.6,0.255,1.2,0.381,1.775,0.381
			c0.642,0,1.253-0.158,1.799-0.473c2.092-1.208,2.524-4.392,0.962-7.096c-0.167-0.29-0.357-0.559-0.556-0.817l1.136-0.682
			c0.153,0.635,0.391,1.274,0.746,1.888c1.152,1.996,3.072,3.182,4.84,3.182c0.629,0,1.238-0.15,1.787-0.467
			c1.035-0.598,1.698-1.681,1.865-3.049c0.098-0.798,0.01-1.636-0.238-2.459c-0.186-0.619,0.119-1.277,0.73-1.487L292.668,208.589z
			 M274.112,221.123c-0.779,0.449-1.755,0.463-2.752,0.041c-1.041-0.442-1.97-1.301-2.615-2.418s-0.925-2.351-0.787-3.473
			c0.132-1.074,0.633-1.913,1.411-2.362c0.402-0.232,0.856-0.348,1.339-0.348c0.453,0,0.93,0.103,1.412,0.307
			c1.041,0.442,1.97,1.301,2.615,2.418C276.044,217.551,275.763,220.169,274.112,221.123z M284.438,214.768
			c-0.132,1.074-0.633,1.913-1.411,2.363c-1.654,0.955-4.06-0.113-5.367-2.377c-1.307-2.264-1.027-4.882,0.625-5.836
			c0.402-0.232,0.857-0.348,1.34-0.348c0.453,0,0.93,0.103,1.412,0.307c1.04,0.442,1.969,1.301,2.613,2.418h0.001
			C284.297,212.413,284.576,213.646,284.438,214.768z"/>
		<path style="fill:#78423B;" d="M274.9,208.781c0.062-0.539,0.285-1.075,0.631-1.519c0.356-0.433,0.804-0.791,1.304-1.013
			c0.996-0.458,2.105-0.502,3.088-0.246c0.252,0.066,0.404,0.323,0.338,0.576c-0.057,0.218-0.257,0.361-0.473,0.353l-0.013-0.001
			c-0.864-0.03-1.709,0.073-2.417,0.42c-0.711,0.342-1.235,0.899-1.542,1.645l-0.008,0.019c-0.1,0.241-0.376,0.357-0.617,0.257
			C274.99,209.189,274.877,208.985,274.9,208.781z"/>
		<path style="fill:#78423B;" d="M267.009,211.42c0.507-0.753,1.357-1.239,2.206-1.404c0.856-0.166,1.728-0.118,2.52,0.141
			c0.278,0.091,0.43,0.39,0.339,0.668c-0.082,0.25-0.333,0.398-0.585,0.359l-0.012-0.002c-0.682-0.107-1.368-0.145-2.001,0.016
			c-0.632,0.155-1.194,0.439-1.641,0.882l-0.014,0.013c-0.208,0.206-0.543,0.204-0.749-0.004
			C266.891,211.906,266.871,211.625,267.009,211.42z"/>
		<ellipse style="fill:#FFFFFF;" cx="296.711" cy="210.834" rx="5.794" ry="7.394"/>
		<path style="fill:#FFFFFF;" d="M288.318,186.416c-1.429-0.908-2.979-1.565-4.577-2.021c-3.944-1.125-8.219-0.89-11.944,0.823
			c-2.46,1.132-4.18,2.611-5.397,4.09c1.194,0.466,2.434,0.771,3.851,0.642c0.343-0.031,0.725-0.125,1.133-0.258
			c1.096-0.357,2.408-1.032,3.842-1.792c3.667-1.017,7.842-0.45,11.116,1.63c3.303,2.098,7.256,6.602,7.329,16.144l3.69-0.029
			C297.291,196.905,294.081,190.076,288.318,186.416z"/>
		<path style="fill:#78423B;" d="M276.72,214.944c0.571,0.69,0.945,1.521,1.169,2.365c0.245,0.844,0.335,1.715,0.376,2.58
			c0.016,0.434,0.018,0.868-0.012,1.303c-0.03,0.185,0.134,0.363,0.347,0.369c0.123-0.012,0.14-0.003,0.334-0.154l0.509-0.372
			l1.021-0.74c0.138-0.1,0.33-0.069,0.43,0.069c0.094,0.13,0.071,0.31-0.048,0.413l-0.954,0.825l-0.478,0.411
			c-0.119,0.121-0.484,0.365-0.789,0.351c-0.64,0.056-1.281-0.534-1.234-1.216c0.011-0.404,0.01-0.811-0.014-1.216
			c-0.107-1.621-0.452-3.224-1.165-4.641l-0.005-0.011c-0.077-0.152-0.015-0.338,0.137-0.415
			C276.474,214.799,276.63,214.836,276.72,214.944z"/>
		<path style="fill:#78423B;" d="M280.432,222.068c0.874-0.059,1.765-0.385,2.48-0.888c0.725-0.505,1.236-1.196,1.498-2.053
			l0.005-0.017c0.057-0.188,0.256-0.294,0.444-0.236c0.154,0.047,0.252,0.189,0.252,0.342c-0.002,0.554-0.164,1.119-0.455,1.608
			c-0.303,0.478-0.697,0.899-1.16,1.202c-0.919,0.606-2.019,0.937-3.132,0.746c-0.193-0.033-0.322-0.216-0.289-0.409
			c0.028-0.164,0.165-0.282,0.325-0.293L280.432,222.068z"/>
		<g>
			<path style="fill:#B8E0D0;" d="M296.712,217.133c-0.034,0-0.068-0.003-0.103-0.009c-2.014-0.371-3.443-1.78-4.02-3.968
				c-0.732-2.771,0.037-6.387,1.646-7.737c0.236-0.199,0.59-0.169,0.788,0.069c0.199,0.237,0.168,0.59-0.069,0.788
				c-1.144,0.961-1.955,4.051-1.283,6.595c0.326,1.235,1.136,2.784,3.141,3.153c0.304,0.056,0.505,0.348,0.449,0.651
				C297.212,216.944,296.977,217.133,296.712,217.133z"/>
		</g>
		<g>
			<path style="fill:#26314A;" d="M112.102,228.921c-0.762,1.112-1.096,2.472-1.16,3.816c-0.046,0.969,0.034,1.973-0.316,2.878
				c-0.314,0.812-0.948,1.466-1.286,2.268c-0.438,1.038-0.34,2.222-0.111,3.325c0.22,1.059,0.555,2.094,0.996,3.083
				c0.885-0.744,1.045-2.091,1.901-2.867c0.842-0.764,2.114-0.776,3.142-1.263c1.147-0.543,1.912-1.632,2.717-2.61
				c1.874-2.277,4.569-4.272,7.509-3.98c-0.38-2.162-1.646-4.156-3.444-5.423C119.212,226.149,114.291,225.727,112.102,228.921z"/>
			<path style="fill:#5E9162;" d="M138.358,240.756c-0.829-0.693-1.73-1.329-2.369-2.199c-1.201-1.635-1.289-3.795-1.528-5.807
				c-0.239-2.012-0.821-4.223-2.551-5.288c-1.209-0.744-2.731-0.755-4.137-0.55c-1.406,0.205-2.793,0.602-4.214,0.594
				c-1.555-0.009-3.06-0.503-4.59-0.786c-1.529-0.283-3.206-0.329-4.536,0.474c1.435-0.211,3.066-0.371,4.177,0.558
				c0.689,0.576,1.028,1.471,1.182,2.354c0.506,2.894-0.636,6.113,0.794,8.681c1.496,2.688,5.062,3.348,7.4,5.353
				c2.546,2.183,3.378,5.702,4.07,8.977c0.11,0.521,5.675-0.988,6.188-1.172c1.419-0.508,3.116-1.181,3.833-2.616
				C143.572,246.346,140.479,242.528,138.358,240.756z"/>
			<path style="fill:#26314A;" d="M140.293,242.753c-1.578-1.862-3.831-3.013-6.243-3.38c-6.158-0.937-13.965-1.097-14.208-3.916
				c0.019,1.173,0.174,2.305,0.746,3.332c1.496,2.688,5.062,3.348,7.4,5.353c2.546,2.183,3.378,5.702,4.07,8.977
				c0.11,0.521,5.675-0.988,6.188-1.172c1.419-0.508,3.116-1.181,3.833-2.616C143.189,247.113,141.94,244.696,140.293,242.753z"/>
			<path style="fill:#5E9162;" d="M135.509,255.314c0.551-1.272,1.103-2.548,1.499-3.879c0.896-3.01,1.151-6.558,3.571-8.514
				c1.186-0.959,2.737-1.367,3.902-2.353c1.761-1.49,2.315-3.986,3.69-5.85c1.067-1.447,2.65-2.492,4.383-2.894
				c1.524-0.354,3.136-0.225,4.634-0.68c3.258-0.988,5.141-4.387,7.886-6.429c1.973-1.468,4.518-2.226,6.916-1.745
				s4.565,2.312,5.184,4.718c-0.859-0.639-2.124-0.4-2.961,0.27c-0.836,0.67-1.339,1.673-1.792,2.653
				c-0.95,2.053-1.806,4.164-3.02,6.069c-1.213,1.904-2.833,3.62-4.892,4.492c-2.536,1.074-5.778,0.943-7.5,3.121
				c-1.213,1.535-1.199,3.681-1.511,5.625c-0.244,1.522-0.757,3.064-1.836,4.148c-1.263,1.269-3.083,1.719-4.732,2.387
				c-1.649,0.668-3.356,1.821-3.658,3.6c-0.237,0-0.591-0.105-0.828-0.105l-11.051-0.005
				C133.89,258.329,134.84,256.859,135.509,255.314z"/>
			<path style="fill:#26314A;" d="M153.663,254.063c1.078-1.084,1.592-2.626,1.836-4.148c0.03-0.186,0.055-0.375,0.08-0.564
				c-2.21,0.549-6.081,1.437-9.663,1.889c-2.992,0.378-4.217-1.334-5.177-3.427c-0.599-1.305-2.505-1.164-2.866,0.226
				c-0.294,1.134-0.538,2.299-0.864,3.395c-0.396,1.331-0.948,2.607-1.499,3.879c-0.669,1.546-1.619,3.016-2.117,4.627l11.051,0.005
				c0.237,0,0.591,0.105,0.828,0.105c0.302-1.78,2.009-2.932,3.658-3.6C150.58,255.782,152.4,255.332,153.663,254.063z"/>
			<path style="fill:#26314A;" d="M138.414,258.584h-8.026c0,0-0.774-3.148-1.934-4.197s2.406-8.288,2.406-8.288s3.2-0.105,3.41,0
				c0.21,0.105,2.413,3.357,2.413,3.357S138.991,253.706,138.414,258.584z"/>
			<path style="fill:#626A7A;" d="M145.498,299.135h-13.637c-1.882,0-3.407-1.526-3.407-3.407v-37.151h20.452v37.151
				C148.906,297.609,147.38,299.135,145.498,299.135z"/>
			<path style="fill:#26314A;" d="M141.589,258.576c2.281,0,2.386,11.077,7.317,13.49v-13.49H141.589z"/>
			<path style="fill:#5E9162;" d="M143.943,254.259c1.841-0.828,3.906-1.232,5.904-0.935c1.998,0.297,3.916,1.334,5.087,2.975
				c0.89,1.247,1.32,2.771,2.192,4.031c0.927,1.339,2.318,2.326,3.145,3.728c0.917,1.555,1.037,3.435,1.102,5.237
				c0.047,1.297,0.074,2.613-0.249,3.87c-0.324,1.257-1.046,2.465-2.183,3.099c0.224-1.314-0.739-2.568-1.877-3.268
				c-1.138-0.7-2.467-1.027-3.653-1.643c-3.578-1.858-5.278-5.941-6.705-9.702c-0.408-1.075-0.825-2.166-1.516-3.087
				c-0.691-0.92-1.706-1.663-2.855-1.762c-0.917-0.079-1.665,0.494-2.529,0.462C140.649,255.945,142.515,254.902,143.943,254.259z"
				/>
			<path style="fill:#5E9162;" d="M135.045,248.514c1.651,1.359,1.783,3.789,1.783,5.923c0,1.4,0.028,2.769,0.054,4.139h2.923
				c0.017-2.918-0.438-5.841-1.264-8.644c-0.568-1.927-1.33-3.842-2.632-5.376c-1.302-1.534-3.219-2.648-5.234-2.597
				c-1.482,0.038-2.881,0.687-4.146,1.458c-1.622,0.989-3.16,2.269-3.917,4.006c-0.465,1.069-0.622,2.279-1.282,3.241
				c-0.673,0.979-1.772,1.561-2.813,2.137c-1.845,1.019-3.639,2.128-5.374,3.323c-0.693,0.477-1.382,0.973-1.952,1.591
				c-1.288,1.399-1.868,3.35-1.844,5.248s0.611,3.753,1.415,5.473c0.421,0.901,0.258,1.912-0.147,2.821
				c-0.405,0.909-1.046,1.688-1.632,2.493c-1.882,2.583-3.289,5.719-2.921,8.89c0.367,3.171,2.98,6.212,6.183,6.212
				c-0.042-3.289,0.057-6.95,2.356-9.311c2.046-2.102,5.222-2.523,8.14-2.866c1.044-0.122,2.119-0.26,3.029-0.784
				c1.814-1.046,2.495-3.378,2.348-5.461c-0.147-2.083-0.941-4.061-1.372-6.105c-0.431-2.044-0.446-4.344,0.797-6.026
				c0.856-1.159,2.217-1.892,2.985-3.11c1.031-1.634,0.784-3.768,1.511-5.556c0.347-0.853,1.101-1.701,2.018-1.593
				C134.425,248.083,134.759,248.279,135.045,248.514z"/>
			<g>
				<path style="fill:#26314A;" d="M142.502,252.598c-0.01,0-0.02-0.001-0.03-0.002c-0.154-0.016-0.266-0.154-0.249-0.307
					c0.344-3.297,2.005-6.352,4.444-8.172c0.311-0.233,0.568-0.413,0.79-0.568c1.154-0.808,1.331-0.933,3.623-4.73
					c1.601-2.654,3.919-3.01,6.16-3.356c1.725-0.266,3.354-0.516,4.578-1.807c0.749-0.789,1.503-1.726,2.301-2.716
					c2.324-2.886,4.727-5.869,7.502-5.869c0.155,0,0.28,0.125,0.28,0.28s-0.125,0.28-0.28,0.28c-2.507,0-4.825,2.878-7.066,5.661
					c-0.805,1-1.567,1.945-2.331,2.75c-1.356,1.43-3.157,1.707-4.898,1.975c-2.211,0.341-4.301,0.662-5.767,3.092
					c-2.352,3.898-2.57,4.051-3.781,4.898c-0.218,0.153-0.47,0.33-0.777,0.558c-2.315,1.728-3.893,4.638-4.222,7.782
					C142.764,252.491,142.643,252.598,142.502,252.598z"/>
			</g>
			<path style="fill:#26314A;" d="M128.287,242.519c-0.959,1.156-1.751,2.596-2.32,4.272c-0.16,0.472-0.302,0.952-0.445,1.433
				c-0.394,1.328-0.801,2.702-1.596,3.823c-0.834,1.178-2.084,2.061-3.293,2.914c-1.534,1.083-3.12,2.203-3.909,3.95
				c-0.804,1.781-0.688,3.999,0.357,6.783l0.156,0.41c0.344,0.894,0.699,1.82,0.697,2.755c-0.006,2.275-2.081,4.055-3.822,5.145
				c-0.202,0.127-0.405,0.25-0.609,0.375c-0.863,0.525-1.755,1.068-2.493,1.798c-1.067,1.054-1.601,2.39-1.429,3.576
				c0.02,0.139,0.14,0.239,0.276,0.239c0.014,0,0.027-0.001,0.041-0.003c0.153-0.022,0.258-0.164,0.237-0.317
				c-0.147-1.01,0.327-2.168,1.268-3.097c0.692-0.684,1.556-1.21,2.391-1.718c0.206-0.126,0.412-0.25,0.616-0.378
				c2.667-1.672,4.079-3.615,4.084-5.617c0.003-1.042-0.372-2.015-0.734-2.958l-0.155-0.405c-0.99-2.638-1.111-4.717-0.37-6.356
				c0.727-1.608,2.181-2.636,3.722-3.723c1.247-0.881,2.537-1.791,3.427-3.048c0.848-1.197,1.268-2.616,1.675-3.987
				c0.14-0.474,0.28-0.948,0.438-1.412c0.434-1.279,1.322-3.276,2.892-4.818C129.014,242.246,128.647,242.37,128.287,242.519z"/>
			<path style="fill:#26314A;" d="M158.364,268.966c0.014,0.144,0.136,0.252,0.278,0.252c0.009,0,0.019,0,0.028-0.001
				c0.154-0.015,0.266-0.152,0.251-0.306c-0.103-1.042-0.564-2.025-1.3-2.773c-0.537-0.543-1.191-0.936-1.825-1.314
				c-0.608-0.364-1.183-0.708-1.662-1.175c-0.725-0.707-1.179-1.654-1.617-2.569l-1.681-3.511c-0.32-0.667-0.65-1.356-1.107-1.97
				c-0.793-1.065-1.976-1.804-3.262-2.155c-0.436,0.089-0.868,0.202-1.292,0.341c1.59,0.098,3.155,0.872,4.105,2.149
				c0.425,0.57,0.743,1.234,1.051,1.877l1.681,3.511c0.438,0.915,0.935,1.952,1.731,2.728c0.526,0.513,1.156,0.89,1.766,1.254
				c0.631,0.377,1.227,0.734,1.714,1.227C157.869,267.188,158.275,268.052,158.364,268.966z"/>
			<path style="fill:#26314A;" d="M128.397,236.252c0.076,0,0.153-0.032,0.208-0.093c0.103-0.115,0.093-0.292-0.021-0.395
				c-0.579-0.519-0.957-1.316-1.189-2.51c-0.054-0.274-0.098-0.55-0.143-0.827c-0.116-0.716-0.235-1.457-0.509-2.156
				c-0.479-1.221-1.431-2.212-2.589-2.797c-0.198,0.013-0.395,0.035-0.594,0.034c-0.56-0.003-1.112-0.08-1.663-0.177
				c0.046,0.073,0.113,0.13,0.206,0.136c1.775,0.115,3.469,1.352,4.119,3.008c0.252,0.643,0.362,1.322,0.478,2.04
				c0.045,0.283,0.091,0.566,0.145,0.845c0.162,0.831,0.479,2.026,1.364,2.82C128.264,236.229,128.331,236.252,128.397,236.252z"/>
			
				<line style="fill:none;stroke:#26314A;stroke-width:0.5596;stroke-linecap:round;stroke-linejoin:round;stroke-miterlimit:10;" x1="130.44" y1="261.332" x2="144.486" y2="261.332"/>
			<path style="fill:#26314A;" d="M131.861,299.135h13.637c1.882,0,3.407-1.526,3.407-3.407v-3.897c0-4.78-2.525-9.233-6.684-11.591
				c-6.778-3.843-13.769-10.161-13.769-14.355v29.843C128.453,297.609,129.979,299.135,131.861,299.135z"/>
		</g>
		<g>
			<g>
				<path style="fill:#5F7ABA;" d="M176.381,299.05h-36.173c-2.577,0-4.666-2.089-4.666-4.666v-5.23
					c0-2.577,2.089-4.666,4.666-4.666h36.173V299.05z"/>
				<g>
					<path style="fill:#F5C365;" d="M138.666,294.384v-5.23c0-2.577,2.089-4.666,4.666-4.666h-2.379
						c-1.702,0.872-2.882,2.625-2.882,4.666v5.23c0,2.04,1.18,3.794,2.882,4.666h2.379
						C140.755,299.05,138.666,296.961,138.666,294.384z"/>
					<path style="fill:#F5C365;" d="M140.982,294.384v-5.23c0-2.577,2.089-4.666,4.666-4.666h-2.379
						c-1.702,0.872-2.882,2.625-2.882,4.666v5.23c0,2.04,1.18,3.794,2.882,4.666h2.379
						C143.071,299.05,140.982,296.961,140.982,294.384z"/>
				</g>
				<g>
					<path style="fill:#F5C365;" d="M165.279,294.384v-5.23c0-2.577,2.089-4.666,4.666-4.666h-2.379
						c-1.702,0.872-2.882,2.625-2.882,4.666v5.23c0,2.04,1.18,3.794,2.882,4.666h2.379
						C167.368,299.05,165.279,296.961,165.279,294.384z"/>
					<path style="fill:#F5C365;" d="M167.596,294.384v-5.23c0-2.577,2.089-4.666,4.666-4.666h-2.379
						c-1.702,0.872-2.882,2.625-2.882,4.666v5.23c0,2.04,1.18,3.794,2.882,4.666h2.379
						C169.685,299.05,167.596,296.961,167.596,294.384z"/>
				</g>
				<path style="fill:#26314A;" d="M211.64,299.05h-36.173c-2.577,0-4.666-2.089-4.666-4.666v-5.23c0-2.577,2.089-4.666,4.666-4.666
					h36.173V299.05z"/>
				<path style="fill:#EDE5DA;" d="M211.64,297.669h-35.762c-1.997,0-3.616-1.619-3.616-3.616v-4.567
					c0-1.997,1.619-3.616,3.616-3.616h35.762V297.669z"/>
				<g>
					<rect x="172.261" y="292.396" style="fill:#FFFFFF;" width="38.514" height="0.452"/>
					<path style="fill:#FFFFFF;" d="M210.776,296.26v-0.452h-38.041c0.089,0.159,0.187,0.309,0.298,0.452H210.776z"/>
					<path style="fill:#FFFFFF;" d="M172.266,294.102c0.002,0.154,0.025,0.303,0.046,0.452h38.464v-0.452H172.266z"/>
					<path style="fill:#FFFFFF;" d="M172.312,288.984c-0.021,0.149-0.043,0.297-0.046,0.452h38.509v-0.452H172.312z"/>
					<rect x="172.261" y="290.69" style="fill:#FFFFFF;" width="38.514" height="0.452"/>
					<path style="fill:#FFFFFF;" d="M173.032,287.278c-0.111,0.143-0.209,0.293-0.298,0.452h38.041v-0.452H173.032z"/>
				</g>
			</g>
			<path style="fill:#F0887A;" d="M182.264,300.473c-1.811-0.84-3.142-1.681-4.203-2.521c-0.851,0.84-1.433,1.681-1.534,2.521
				c-3.897-3.83,2.189-7.659-1.708-11.489c1.912,0,3.825,0,5.737,0C184.452,292.814,178.367,296.643,182.264,300.473z"/>
		</g>
		<g>
			<path style="fill:#626A7A;" d="M196.563,411.143c2.326,0.315,4.557,1.132,6.592,2.167c2.04,1.042,3.878,2.324,5.645,3.581
				c3.525,2.515,6.776,5.099,10.446,6.258c1.814,0.576,3.706,0.895,5.547,0.801c1.839-0.094,3.616-0.631,5.15-1.565
				c1.548-0.907,2.86-2.225,3.746-3.783c0.883-1.561,1.284-3.35,1.153-5.093l-0.007-0.087c-0.069-0.915,0.617-1.712,1.532-1.781
				c0.851-0.064,1.603,0.534,1.758,1.353c0.467,2.512,0.007,5.124-1.09,7.363c-1.141,2.225-2.881,4.116-4.98,5.461
				c-2.11,1.331-4.566,2.07-7.008,2.222c-2.448,0.159-4.862-0.239-7.106-1.019c-4.529-1.58-8.105-4.493-11.406-7.095
				c-3.33-2.603-6.662-4.912-10.496-5.77l-0.015-0.003c-0.824-0.184-1.343-1.002-1.159-1.826
				C195.039,411.545,195.786,411.04,196.563,411.143z"/>
			<path style="fill:#26314A;" d="M217.941,427.02c1.354,0.471,2.773,0.78,4.221,0.934c-3.444-1.584-6.154-4.808-9.192-8.094
				c-1.376-0.938-2.751-1.957-4.17-2.97c-1.767-1.257-3.605-2.539-5.645-3.581c-2.035-1.034-4.266-1.851-6.592-2.167
				c-0.777-0.103-1.524,0.402-1.698,1.182c-0.184,0.824,0.334,1.642,1.159,1.826l0.015,0.003c3.834,0.858,7.166,3.167,10.496,5.77
				C209.836,422.526,213.412,425.439,217.941,427.02z"/>
			<path style="fill:#26314A;" d="M198.615,437.533l-6.232,21.19h-5.465c0,0,3.022-8.263,3.452-13.423
				c0.479-5.753-6.424-12.369-6.424-12.369S194.204,431.013,198.615,437.533z"/>
			<polygon style="fill:#26314A;" points="160.486,437.501 163.17,458.723 157.545,458.723 154.605,444.149 			"/>
			<path style="fill:#626A7A;" d="M138.281,384.025c-0.223-0.667,0.409-1.316,1.088-1.137c1.278,0.337,3.288,0.559,5.264-0.487
				c3.26-1.726,7.383-3.643,7.766-5.082c0.215-0.807,0.4-1.825,0.521-2.564c0.09-0.548,0.694-0.836,1.179-0.566
				c0.901,0.503,2.077,1.552,2.135,3.609c0.959,1.918,4.315,1.918,5.465,6.424c1.151,4.506-1.726,7.862-1.342,10.451
				c0.288,1.942,5.268,4.153,9.074,7.281c3.242,2.664,7.25,4.215,11.423,4.65c8.497,0.885,18.378,1.712,22.266,7.437
				c5.273,7.766,6.903,15.149,9.588,18.601s5.657,3.548,6.808,4.986c1.151,1.438,0.671,21.094,0.671,21.094h-4.219
				c0,0,0.671-10.739-2.876-13.615c-3.37-2.733-10.288-2.696-18.042-7.947c-0.936-0.634-2.002-1.034-3.113-1.239
				c-4.777-0.881-17.634-2.968-26.729-1.796c-1.635,0.211-2.868,1.57-2.92,3.218c-0.036,1.147-0.139,2.377-0.398,3.066
				c-0.575,1.534-6.616,11.506-7.671,18.313h-4.794c0,0-0.192-5.369,0.863-9.109c1.055-3.739,2.876-9.109,1.918-12.944
				c-0.959-3.835-6.136-9.205-6.616-16.588c0,0-5.178-9.396-4.698-32.025C140.894,388.058,138.994,386.159,138.281,384.025z"/>
			<circle style="fill:#26314A;" cx="148.684" cy="384.631" r="1.031"/>
			<circle style="fill:#26314A;" cx="154.677" cy="381.083" r="1.031"/>
			<path style="fill:#26314A;" d="M152.946,384.12l0.86-0.582c0.375-0.254,0.9-0.026,0.946,0.424c0.04,0.396,0.022,0.89-0.158,1.42
				c-0.771,0.115-1.297-0.04-1.643-0.249C152.579,384.909,152.587,384.364,152.946,384.12z"/>
			
				<path style="fill:none;stroke:#26314A;stroke-width:0.6818;stroke-linecap:round;stroke-linejoin:round;stroke-miterlimit:10;" d="
				M154.184,388.293c1.348-0.842,0.586-2.356,0.586-2.356c0.765,0.644,1.689,1.04,2.746,0.367"/>
			
				<line style="fill:none;stroke:#26314A;stroke-width:0.6818;stroke-linecap:round;stroke-linejoin:round;stroke-miterlimit:10;" x1="148.085" y1="388.293" x2="144.25" y2="390.2"/>
			
				<line style="fill:none;stroke:#26314A;stroke-width:0.6818;stroke-linecap:round;stroke-linejoin:round;stroke-miterlimit:10;" x1="149.715" y1="389.246" x2="146.167" y2="392.69"/>
			
				<line style="fill:none;stroke:#26314A;stroke-width:0.6818;stroke-linecap:round;stroke-linejoin:round;stroke-miterlimit:10;" x1="151.105" y1="390.2" x2="149.358" y2="394.257"/>
		</g>
		<g>
			<circle style="fill:#FFFFFF;" cx="384.078" cy="197.147" r="37.438"/>
			<g>
				<path style="fill:#F5C365;" d="M398.647,188.42c0-8.593-7.44-15.449-16.229-14.477c-6.476,0.716-11.803,5.834-12.747,12.281
					c-0.611,4.173,0.554,8.064,2.846,11.046c1.717,2.234,2.989,4.777,3.528,7.542l0.689,3.532c0.161,0.827,0.886,1.424,1.729,1.424
					h11.229c0.843,0,1.567-0.597,1.729-1.424l0.689-3.529c0.542-2.779,1.833-5.326,3.552-7.575
					C397.534,194.793,398.647,191.738,398.647,188.42z"/>
				<g>
					<ellipse style="fill:#26314A;" cx="383.934" cy="217.87" rx="4.45" ry="2.572"/>
					<path style="fill:#5F7ABA;" d="M389.041,218.639h-10.214c-0.963,0-1.745-0.781-1.745-1.744v-6.061
						c0-0.589,0.477-1.066,1.066-1.066h11.572c0.589,0,1.066,0.477,1.066,1.066v6.061
						C390.786,217.858,390.005,218.639,389.041,218.639z"/>
				</g>
				
					<path style="fill:none;stroke:#FFFFFF;stroke-width:0.8556;stroke-linecap:round;stroke-linejoin:round;stroke-miterlimit:10;" d="
					M392.542,193.438c-1.735,0-2.573-1.919-2.905-3.808c-0.179-1.016,0.222-2.065,0.789-2.065l0,0c0.567,0,0.967,1.049,0.789,2.065
					c-0.332,1.889-1.17,3.808-2.905,3.808c-1.735,0-2.573-1.919-2.905-3.808c-0.179-1.016,0.222-2.065,0.789-2.065l0,0
					c0.567,0,0.967,1.049,0.789,2.065c-0.332,1.889-1.17,3.808-2.905,3.808s-2.573-1.919-2.905-3.808
					c-0.179-1.016,0.222-2.065,0.789-2.065l0,0c0.567,0,0.967,1.049,0.789,2.065c-0.332,1.889-1.17,3.808-2.905,3.808
					s-2.573-1.919-2.905-3.808c-0.179-1.016,0.222-2.065,0.789-2.065l0,0c0.567,0,0.967,1.049,0.789,2.065
					c-0.332,1.889-1.17,3.808-2.905,3.808"/>
			</g>
			<polygon style="fill:#FFFFFF;" points="360.047,217.133 352.09,240.317 372.679,225.552 			"/>
		</g>
		
			<line style="fill:none;stroke:#709687;stroke-width:1.0237;stroke-miterlimit:10;" x1="77.407" y1="459.038" x2="424.649" y2="459.038"/>
	</g>
</g>
</svg>
