<?xml version="1.0" encoding="utf-8"?>
<!-- Generator: Adobe Illustrator 27.5.0, SVG Export Plug-In . SVG Version: 6.00 Build 0)  -->
<svg version="1.1" xmlns="http://www.w3.org/2000/svg" xmlns:xlink="http://www.w3.org/1999/xlink" x="0px" y="0px"
	 viewBox="0 0 500 500" style="enable-background:new 0 0 500 500;" xml:space="preserve">
<g id="Background_Complete">
	<g>
		<rect y="382.398" style="fill:#EBEBEB;" width="500" height="0.25"/>
		<rect x="52.459" y="391.922" style="fill:#EBEBEB;" width="33.122" height="0.25"/>
		<rect x="153.444" y="389.208" style="fill:#EBEBEB;" width="26.389" height="0.25"/>
		<rect x="89.965" y="397.824" style="fill:#EBEBEB;" width="45.923" height="0.25"/>
		<rect x="428.305" y="399.528" style="fill:#EBEBEB;" width="21.597" height="0.25"/>
		<rect x="391.471" y="399.528" style="fill:#EBEBEB;" width="31.973" height="0.25"/>
		<rect x="277.213" y="395.306" style="fill:#EBEBEB;" width="55.12" height="0.25"/>
		<path style="fill:#EBEBEB;" d="M237.014,337.8H43.915c-3.147,0-5.708-2.561-5.708-5.708V60.66c0-3.147,2.561-5.708,5.708-5.708
			h193.099c3.146,0,5.707,2.561,5.707,5.708v271.432C242.721,335.239,240.16,337.8,237.014,337.8z M43.915,55.203
			c-3.01,0-5.458,2.448-5.458,5.458v271.432c0,3.01,2.448,5.458,5.458,5.458h193.099c3.009,0,5.457-2.448,5.457-5.458V60.66
			c0-3.009-2.448-5.458-5.457-5.458H43.915z"/>
		<path style="fill:#EBEBEB;" d="M453.31,337.8H260.212c-3.147,0-5.707-2.561-5.707-5.708V60.66c0-3.147,2.561-5.708,5.707-5.708
			H453.31c3.148,0,5.708,2.561,5.708,5.708v271.432C459.019,335.239,456.458,337.8,453.31,337.8z M260.212,55.203
			c-3.009,0-5.457,2.448-5.457,5.458v271.432c0,3.01,2.448,5.458,5.457,5.458H453.31c3.01,0,5.458-2.448,5.458-5.458V60.66
			c0-3.009-2.448-5.458-5.458-5.458H260.212z"/>
	</g>
	<g>
		<g>
			
				<rect x="159.359" y="113.394" transform="matrix(-1 -1.224647e-16 1.224647e-16 -1 381.7745 329.2743)" style="fill:#EBEBEB;" width="63.057" height="102.487"/>
			
				<rect x="150.934" y="113.394" transform="matrix(-1 -1.224647e-16 1.224647e-16 -1 370.2049 329.2743)" style="fill:#F5F5F5;" width="68.337" height="102.487"/>
			
				<rect x="139.584" y="136.194" transform="matrix(-1.836970e-16 1 -1 -1.836970e-16 349.7397 -20.4653)" style="fill:#FFFFFF;" width="91.037" height="56.887"/>
			
				<rect x="154.417" y="149.982" transform="matrix(-1.836970e-16 1 -1 -1.836970e-16 349.7396 -20.4653)" style="fill:#F5F5F5;" width="61.371" height="29.31"/>
		</g>
		<g>
			
				<rect x="64.187" y="67.327" transform="matrix(-1 -1.224647e-16 1.224647e-16 -1 191.4303 237.1417)" style="fill:#EBEBEB;" width="63.057" height="102.487"/>
			
				<rect x="55.762" y="67.327" transform="matrix(-1 -1.224647e-16 1.224647e-16 -1 179.8606 237.1417)" style="fill:#F5F5F5;" width="68.337" height="102.487"/>
			
				<rect x="44.412" y="90.128" transform="matrix(-1.836970e-16 1 -1 -1.836970e-16 208.5013 28.6406)" style="fill:#FFFFFF;" width="91.037" height="56.887"/>
			<path style="fill:#F5F5F5;" d="M104.585,134.601V102.54c0-8.094-6.561-14.655-14.655-14.655h0
				c-8.094,0-14.655,6.561-14.655,14.655v32.061c0,8.094,6.561,14.655,14.655,14.655h0
				C98.024,149.256,104.585,142.695,104.585,134.601z"/>
		</g>
		<g>
			<g>
				<g>
					
						<rect x="58.642" y="278.55" transform="matrix(-1 -1.224647e-16 1.224647e-16 -1 142.2864 660.9486)" style="fill:#E6E6E6;" width="25.002" height="103.848"/>
					<polygon style="fill:#F0F0F0;" points="63.391,382.398 58.642,382.398 58.642,369.284 68.37,369.284 					"/>
					
						<rect x="194.268" y="278.55" transform="matrix(-1 -1.224647e-16 1.224647e-16 -1 413.5384 660.9486)" style="fill:#E6E6E6;" width="25.002" height="103.848"/>
					
						<rect x="58.642" y="278.55" transform="matrix(-1 -1.224647e-16 1.224647e-16 -1 257.0547 655.1438)" style="fill:#F0F0F0;" width="139.77" height="98.043"/>
					<polygon style="fill:#F0F0F0;" points="193.664,382.398 198.413,382.398 198.413,369.284 188.685,369.284 					"/>
					<path style="fill:#FDFEFF;" d="M194.447,290.118v34.35H62.608v-34.35H194.447 M194.729,289.836H62.326v34.915h132.403V289.836
						L194.729,289.836z"/>
					<path style="fill:#FDFEFF;" d="M194.447,330.676v34.35H62.608v-34.35H194.447 M194.729,330.394H62.326v34.915h132.403V330.394
						L194.729,330.394z"/>
				</g>
				<path style="fill:#FDFEFF;" d="M119.065,295.145h18.925c2.478,0,4.486-2.008,4.486-4.486v-0.823h-27.897v0.823
					C114.579,293.137,116.587,295.145,119.065,295.145z"/>
				<path style="fill:#FDFEFF;" d="M119.065,335.702h18.925c2.478,0,4.486-2.008,4.486-4.486v-0.823h-27.897v0.823
					C114.579,333.694,116.587,335.702,119.065,335.702z"/>
			</g>
		</g>
		<g>
			<g>
				<polygon style="fill:#E6E6E6;" points="102.183,257.521 98.513,255.811 98.513,198.814 102.183,200.523 				"/>
				<path style="fill:#E6E6E6;" d="M97.272,191.781c4.192,5.545,3.85,12.868,3.85,12.868s-7.139-1.667-11.331-7.212
					c-4.192-5.545-3.85-12.868-3.85-12.868S93.08,186.236,97.272,191.781z"/>
				<path style="fill:#E6E6E6;" d="M97.363,210.118c4.908,7.82,3.612,17.471,3.612,17.471s-9.254-3.029-14.162-10.849
					c-4.908-7.82-3.612-17.471-3.612-17.471S92.455,202.298,97.363,210.118z"/>
				<path style="fill:#E6E6E6;" d="M104.204,202.387c-4.192,5.545-3.85,12.868-3.85,12.868s7.139-1.667,11.331-7.212
					c4.192-5.545,3.85-12.868,3.85-12.868S108.397,196.842,104.204,202.387z"/>
				<path style="fill:#E6E6E6;" d="M104.114,220.724c-4.908,7.82-3.612,17.471-3.612,17.471s9.254-3.029,14.162-10.849
					c4.908-7.82,3.612-17.47,3.612-17.47S109.022,212.904,104.114,220.724z"/>
				<path style="fill:#E6E6E6;" d="M89.031,224.8c9.445,7.417,12.098,19.8,12.098,19.8s-12.66,0.359-22.104-7.058
					c-9.445-7.417-12.098-19.8-12.098-19.8S79.586,217.383,89.031,224.8z"/>
			</g>
			<g>
				<g>
					<path style="fill:#F0F0F0;" d="M98.87,278.55L98.87,278.55c8.901,0,16.257-0.479,16.768-9.366l1.483-11.664H80.618
						l1.483,11.664C82.613,278.072,89.968,278.55,98.87,278.55z"/>
					<polygon style="fill:#F0F0F0;" points="78.254,262.327 119.485,262.327 120.665,247.484 77.073,247.484 					"/>
				</g>
			</g>
		</g>
		<g>
			<polygon style="fill:#FAFAFA;" points="251.097,352.557 251.097,352.557 251.097,352.557 251.097,352.557 251.097,322.716 
				271.01,322.716 271.01,322.716 271.01,322.716 271.01,322.716 271.01,292.874 290.922,292.874 290.922,292.874 290.922,263.033 
				310.834,263.033 310.834,233.191 330.746,233.191 330.746,233.191 330.746,233.191 330.746,233.191 330.746,203.35 
				350.658,203.35 350.658,203.35 350.658,203.35 350.658,203.35 350.658,173.508 370.57,173.508 370.57,173.508 370.571,173.508 
				370.57,173.508 370.57,143.667 390.483,143.667 500,143.667 500,382.398 251.097,382.398 231.185,382.398 231.185,352.557 			"/>
			<polygon style="fill:#E0E0E0;" points="360.615,352.557 360.615,352.557 360.615,352.557 360.615,352.557 360.615,322.716 
				380.527,322.716 380.527,322.716 380.527,322.716 380.527,322.716 380.527,292.874 400.439,292.874 400.439,292.874 
				400.439,263.033 420.351,263.033 420.351,233.191 440.263,233.191 440.263,233.191 440.263,233.191 440.263,233.191 
				440.263,203.35 460.176,203.35 460.176,203.35 460.176,203.35 460.176,203.35 460.176,173.508 480.088,173.508 480.088,173.508 
				480.088,173.508 480.088,173.508 480.088,143.667 500,143.667 500,173.508 500,382.398 360.615,382.398 340.702,382.398 
				340.702,352.557 			"/>
			<g>
				<rect x="230.011" y="352.557" style="fill:#EBEBEB;" width="110.691" height="8.952"/>
				<rect x="249.924" y="322.715" style="fill:#EBEBEB;" width="110.691" height="8.952"/>
				<rect x="269.836" y="292.874" style="fill:#EBEBEB;" width="110.691" height="8.952"/>
				<rect x="289.748" y="263.032" style="fill:#EBEBEB;" width="110.691" height="8.953"/>
				<rect x="309.66" y="233.191" style="fill:#EBEBEB;" width="110.691" height="8.952"/>
				<rect x="329.573" y="203.35" style="fill:#EBEBEB;" width="110.691" height="8.953"/>
				<rect x="349.485" y="173.508" style="fill:#EBEBEB;" width="110.691" height="8.952"/>
				<rect x="369.397" y="143.667" style="fill:#EBEBEB;" width="110.691" height="8.952"/>
			</g>
		</g>
		<g>
			<g>
				<polygon style="fill:#F5F5F5;" points="429.047,155.802 424.839,153.841 424.839,88.473 429.047,90.434 				"/>
				<path style="fill:#F5F5F5;" d="M423.416,80.407c4.808,6.359,4.416,14.758,4.416,14.758s-8.188-1.912-12.995-8.271
					c-4.808-6.359-4.416-14.758-4.416-14.758S418.608,74.048,423.416,80.407z"/>
				<path style="fill:#F5F5F5;" d="M423.52,101.438c5.629,8.969,4.142,20.036,4.142,20.036S417.049,118,411.42,109.032
					s-4.142-20.036-4.142-20.036S417.891,92.469,423.52,101.438z"/>
				<path style="fill:#F5F5F5;" d="M431.366,92.571c-4.808,6.359-4.416,14.758-4.416,14.758s8.188-1.912,12.995-8.271
					c4.808-6.359,4.416-14.758,4.416-14.758S436.174,86.212,431.366,92.571z"/>
				<path style="fill:#F5F5F5;" d="M431.262,113.601c-5.629,8.969-4.142,20.036-4.142,20.036s10.613-3.473,16.242-12.442
					c5.629-8.969,4.142-20.036,4.142-20.036S436.891,104.633,431.262,113.601z"/>
			</g>
			<g>
				<g>
					<path style="fill:#E0E0E0;" d="M427.026,173.508L427.026,173.508c10.209,0,18.645-0.549,19.231-10.741l1.701-13.377h-41.864
						l1.701,13.377C408.381,172.959,416.817,173.508,427.026,173.508z"/>
					<polygon style="fill:#E0E0E0;" points="403.383,154.902 450.668,154.902 452.022,137.88 402.028,137.88 					"/>
				</g>
			</g>
		</g>
	</g>
</g>
<g id="Background_Simple" style="display:none;">
	<g style="display:inline;">
		<path style="fill:#407BFF;" d="M143.322,239.557c39.049,33.865,44.271,116.607,103.182,122.254
			c51.471,4.934,45.866-71.183,99.51-47.339c32.55,14.467,95.506,78.209,97.825,3.131c1.408-45.579-26.368-122.804-59.535-153.903
			c-51.37-48.167-67.229,35.562-114.193,29.442c-21.112-2.751-27.294-20.792-39.408-36.326
			c-17.819-22.849-42.538-50.495-68.118-63.554c-40.706-20.78-95.518,6.352-110.991,49.446
			C24.582,217.934,107.326,208.339,143.322,239.557z"/>
		<path style="opacity:0.9;fill:#FFFFFF;" d="M143.322,239.557c39.049,33.865,44.271,116.607,103.182,122.254
			c51.471,4.934,45.866-71.183,99.51-47.339c32.55,14.467,95.506,78.209,97.825,3.131c1.408-45.579-26.368-122.804-59.535-153.903
			c-51.37-48.167-67.229,35.562-114.193,29.442c-21.112-2.751-27.294-20.792-39.408-36.326
			c-17.819-22.849-42.538-50.495-68.118-63.554c-40.706-20.78-95.518,6.352-110.991,49.446
			C24.582,217.934,107.326,208.339,143.322,239.557z"/>
	</g>
</g>
<g id="Shadow_1_">
	<ellipse id="_x3C_Path_x3E__59_" style="fill:#F5F5F5;" cx="250" cy="416.238" rx="193.889" ry="11.323"/>
</g>
<g id="Character_1">
	<g>
		<g>
			<path style="fill:#FFC3BD;" d="M136.826,140.868c-1.127,5.05-2.468,9.87-4.036,14.719c-0.768,2.42-1.613,4.818-2.483,7.213
				c-0.436,1.199-0.894,2.388-1.369,3.576l-0.727,1.821c-0.399,1.013-0.981,2.206-2.125,3.39c-1.105,1.186-2.938,2.162-4.568,2.348
				c-1.635,0.229-2.966-0.023-4.003-0.33c-2.084-0.652-3.437-1.551-4.701-2.429c-2.446-1.81-4.344-3.716-6.128-5.695
				c-3.548-3.956-6.474-8.099-9.177-12.545c-0.843-1.385-0.403-3.191,0.983-4.033c1.168-0.71,2.635-0.509,3.571,0.402l0.093,0.092
				c1.714,1.667,3.453,3.432,5.243,5.055c1.763,1.66,3.554,3.265,5.354,4.758c1.799,1.47,3.644,2.885,5.361,3.813
				c0.82,0.469,1.673,0.798,1.998,0.802c0.162,0.02,0.096-0.092-0.308-0.063c-0.392,0.01-1.086,0.336-1.339,0.619
				c-0.283,0.28-0.278,0.342-0.26,0.186l0.498-1.706l0.999-3.506c0.669-2.34,1.282-4.702,1.928-7.056l3.714-14.127l0.023-0.087
				c0.828-3.149,4.052-5.032,7.202-4.204C135.644,134.689,137.508,137.792,136.826,140.868z"/>
			<g>
				<path style="fill:#407BFF;" d="M128.077,126.749c-5.597,5.021-6.798,19.422-6.798,19.422l16.765,10.338
					c0,0,1.533-8.039,2.605-17.709C141.817,128.267,134.857,120.666,128.077,126.749z"/>
			</g>
			<path style="fill:#407BFF;" d="M166.202,118.444c-11.535-0.061-23.057,1.256-34.452,5.687c-5.113,1.988-8.13,7.278-7.431,12.72
				c1.382,10.756,5.215,30.873,15.841,58.536c0.002,0.003,40.147-10.987,40.147-10.987
				C179.027,178.162,167.493,148.848,166.202,118.444z"/>
			<path style="fill:#FFC3BD;" d="M102.833,150.251l-2.65-6.35l-7.054,5.349c0,0,1.254,5.334,6.488,4.258L102.833,150.251z"/>
			<path style="fill:#FFC3BD;" d="M94.189,141.353l-2.456,3.245c-0.409,0.54-0.508,1.179-0.254,1.641l1.651,3.011l7.054-5.349
				l-3.479-3.141C96.067,140.186,94.856,140.471,94.189,141.353z"/>
			<path style="opacity:0.2;" d="M161.707,132.957c0.187,2.923,5.128,15.074,9.011,17.294c-0.929-4.081-1.786-8.374-2.506-12.808
				L161.707,132.957z"/>
			<path style="fill:#FFC3BD;" d="M145.529,100.73c0.293,5.74,1.743,16.064,6.576,18.909c-2.285,3.62-5.385,7.9-11.958,9.538
				c-6.572,1.638-6.547-3.107-5.395-5.853c5.856-2.789,4.548-7.312,2.385-11.361L145.529,100.73z"/>
			<path style="opacity:0.2;" d="M142.109,105.313l-4.968,6.645c0.516,0.958,0.977,1.942,1.301,2.925
				c2.293-0.844,4.911-4.114,4.545-6.624C142.804,107.008,142.455,105.841,142.109,105.313z"/>
			<path style="fill:#263238;" d="M130.771,88.598c4.552,1.604,3.693,5.308,1.88,7.03c2.828,1.037,4.823,4.794,4.823,4.794
				l-4.809,3.845c0,0-6.686-0.209-7.859-4.021c-1.173-3.812-7.678-8.298-0.625-12.711C131.235,83.122,130.771,88.598,130.771,88.598
				z"/>
			<path style="fill:#FFC3BD;" d="M144.965,92.05c1.203,7.618,2.296,12.019-0.66,16.687c-4.445,7.022-14.52,5.554-17.984-1.57
				c-3.117-6.413-4.561-17.794,2.161-22.353C135.105,80.322,143.762,84.432,144.965,92.05z"/>
			<path style="fill:#263238;" d="M139.595,86.09c-0.712,2.448-7.726,0.005-12.704,2.462c-2.273,1.122-5.709,5.949-11.953,2.694
				c0,0,4.287-1.755,4.796-5.191c0.599-4.047,1.834-9.168,8.876-7.893c7.042,1.275,8.214-1.733,12.766-0.703
				C147.083,78.75,149.225,89.846,139.595,86.09z"/>
			<path style="fill:#263238;" d="M138.167,85.625c-2.125,4.333,1.083,6.375,3.583,6.333c-1.292,2.721-0.083,6.8-0.083,6.8
				l6.125-0.625c0,0,4.625-4.833,2.792-8.375c-1.833-3.542-0.333-11.3-8.458-9.508S138.167,85.625,138.167,85.625z"/>
			<path style="fill:#263238;" d="M140.081,82.167c4.253-2.179,5.918-5.167,6.113-8.278
				C148.444,77.944,147.274,82.222,140.081,82.167z"/>
			<path style="fill:#FFC3BD;" d="M149.313,98.881c-0.66,1.95-2.034,3.392-3.403,4.091c-2.06,1.051-3.362-0.947-3.017-3.353
				c0.31-2.165,1.755-5.322,3.932-5.359C148.97,94.221,150.067,96.651,149.313,98.881z"/>
			<polygon style="fill:#FFC3BD;" points="133.852,358.231 143.591,356.989 144.503,339.081 133.945,340.121 			"/>
			<path style="fill:#263238;" d="M150.945,265.741c10.762-27.574,20.539-78.926,20.539-78.926l-31.298,8.568
				c0,0-7.694,47.92-8.499,71.611c-0.839,24.633-0.148,77.918-0.148,77.918l14.906-0.008
				C146.445,344.904,153.778,285,150.945,265.741z"/>
			<path style="opacity:0.2;" d="M163.97,211.92c-7.86,8.11-9.07,24.34-7.87,38.73c3.85-12.58,7.36-26.8,10.05-38.62L163.97,211.92z
				"/>
			<polygon style="fill:#407BFF;" points="131.148,346.714 146.795,347.357 147.807,342.309 130.37,341.325 			"/>
			<path style="fill:#263238;" d="M135.241,95.784c0.136,0.612-0.08,1.178-0.482,1.263c-0.402,0.085-0.837-0.342-0.973-0.954
				c-0.136-0.612,0.08-1.178,0.482-1.263C134.67,94.744,135.105,95.172,135.241,95.784z"/>
			<path style="fill:#263238;" d="M127.623,97.233c0.136,0.612-0.08,1.178-0.481,1.263c-0.402,0.085-0.837-0.342-0.973-0.954
				c-0.136-0.612,0.08-1.178,0.481-1.263C127.052,96.194,127.488,96.621,127.623,97.233z"/>
			<path style="fill:#ED847E;" d="M128.911,97.477c0,0-0.614,3.829-1.774,5.859c1.311,0.78,3.056-0.074,3.056-0.074L128.911,97.477z
				"/>
			<path style="fill:#263238;" d="M132.135,105.282c2.4-0.193,3.58-1.789,3.634-1.864c0.059-0.082,0.04-0.197-0.042-0.257
				c-0.083-0.06-0.198-0.042-0.257,0.04c-0.014,0.019-1.392,1.87-4.137,1.723c-0.102-0.005-0.188,0.073-0.192,0.174
				c-0.005,0.102,0.074,0.188,0.176,0.194C131.603,105.308,131.876,105.303,132.135,105.282z"/>
			<path style="fill:#263238;" d="M135.335,92.354c0.058-0.021,0.111-0.056,0.154-0.105c0.132-0.154,0.114-0.386-0.042-0.519
				c-1.556-1.331-3.197-0.881-3.266-0.861c-0.196,0.056-0.307,0.26-0.249,0.455c0.058,0.194,0.262,0.307,0.457,0.252l0,0
				c0.054-0.015,1.337-0.352,2.579,0.71C135.073,92.376,135.214,92.398,135.335,92.354z"/>
			<path style="fill:#263238;" d="M123.335,95.512c0.115-0.033,0.211-0.121,0.248-0.243c0.476-1.548,1.746-1.935,1.8-1.95
				c0.195-0.057,0.307-0.26,0.249-0.454c-0.057-0.194-0.261-0.307-0.456-0.253c-0.07,0.021-1.703,0.498-2.3,2.438
				c-0.06,0.194,0.05,0.4,0.246,0.46C123.193,95.532,123.267,95.531,123.335,95.512z"/>
			<polygon style="fill:#FFC3BD;" points="211.734,329.915 219.225,323.569 210.236,308.054 201.949,314.676 			"/>
			<path style="fill:#263238;" d="M189.032,262.107c-8.829-34.124,5.429-60.543-8.726-77.707l-26.528,7.262
				c0,0,9.782,52.811,18.069,75.233c8.614,23.314,30.102,53.117,30.102,53.117l12.751-7.761
				C214.699,312.252,202.667,283.446,189.032,262.107z"/>
			<path style="fill:#263238;" d="M217.516,322.105c1.098-0.419,2.344-0.021,3.122,0.86l5.804,6.576
				c0.527,0.586,0.391,1.554-0.255,2.021c-3.51,2.537-2.875,1.717-6.309,4.118c-4.015,2.807-4.251,4.211-9.628,6.555
				c-3.185,1.388-4.927-0.257-4.335-1.657c2.746-6.501,3.028-10.092,4.398-11.748c0,0-4.369-1.418-3.784-4.013
				c0.585-2.595,5.34-5.631,7.225-4.595c2.403,1.322,2.194,3.336,2.194,3.336S216.361,322.546,217.516,322.105z"/>
			<path style="fill:#263238;" d="M142.121,354.522c1.174-0.049,2.229,0.724,2.687,1.806l3.418,8.077
				c0.313,0.723-0.122,1.598-0.883,1.836c-4.133,1.292-1.738,0.389-5.757,1.577c-4.699,1.389-11.986,4.93-17.497,6.558
				c-3.332,0.985-4.813-2.052-3.586-2.947c7.79-5.682,10.827-11.68,12.651-12.816c0,0-3.694-2.731-2.315-5.006
				c1.378-2.275,3.475-3.074,4.934-1.493c1.86,2.016,1.022,3.86,1.022,3.86S140.886,354.573,142.121,354.522z"/>
			<polygon style="fill:#407BFF;" points="202.727,322.398 216.135,314.306 214.196,309.537 199.106,318.331 			"/>
			<g>
				<path style="fill:#FFC3BD;" d="M168.756,121.585c2.496,1.701,4.733,3.428,7.038,5.215c2.292,1.77,4.496,3.66,6.694,5.569
					c4.35,3.887,8.572,7.964,12.389,12.777c0.482,0.587,0.951,1.202,1.403,1.855c0.449,0.644,0.932,1.267,1.347,1.929l1.228,1.989
					l1.105,2.001c1.408,2.67,2.618,5.358,3.706,8.071c2.178,5.434,3.876,10.895,5.175,16.588c0.361,1.583-0.63,3.159-2.212,3.52
					c-1.329,0.303-2.653-0.346-3.257-1.499l-0.039-0.076c-2.559-4.886-5.184-9.838-7.905-14.544
					c-1.372-2.351-2.769-4.658-4.23-6.833c-1.483-2.19-2.957-4.083-4.684-5.98c-3.445-3.805-7.513-7.407-11.676-10.879
					c-2.086-1.744-4.228-3.436-6.372-5.133c-2.132-1.678-4.384-3.353-6.478-4.914l-0.075-0.056
					c-2.611-1.947-3.149-5.642-1.202-8.253C162.602,120.394,166.161,119.823,168.756,121.585z"/>
				<g>
					<path style="fill:#407BFF;" d="M166.201,118.445c7.518,0.127,15.689,11.896,15.689,11.896l-7.305,13.555
						c0,0-8.834-2.564-14.647-10.366C153.606,125.033,157.094,118.292,166.201,118.445z"/>
				</g>
				<path style="fill:#FFC3BD;" d="M202.447,176.979l2.092,7.59l8.034-4.96c0,0-2.729-6.642-6.492-5.762L202.447,176.979z"/>
				<path style="fill:#FFC3BD;" d="M211.619,188.661l2.523-2.213c1.004-0.881,1.223-2.36,0.517-3.494l-2.084-3.346l-8.034,4.96
					l3.192,3.797C208.715,189.537,210.469,189.67,211.619,188.661z"/>
			</g>
		</g>
	</g>
</g>
<g id="Character_2">
	<g>
		<g>
			<path style="fill:#407BFF;" d="M372.298,161.667c2.868-8.917,23.695,6.25,25.115,11.917c1.42,5.667-15.927,10-4.628,18.167
				c11.298,8.167-9.925,5.279-5.688,10.806c4.237,5.527,6.404,16.694-14.013,8.944c-20.417-7.75-35.5-16-22.5-20.167
				c13-4.167-8.333-10.969,4.917-16.36C368.75,169.583,352.715,163.5,372.298,161.667z"/>
			<path style="fill:#FF8B7B;" d="M388.369,222.387c1.145,3.928,2.469,8.051,3.867,11.959c0.722,1.956,1.471,3.883,2.278,5.747
				c0.424,0.908,0.838,1.833,1.283,2.694c0.214,0.448,0.439,0.875,0.677,1.276l0.348,0.619l0.087,0.155l0.043,0.078
				c0.009,0.017,0.002,0.006,0.002,0.006c-0.008-0.011-0.01,0.019-0.036-0.017c-0.065-0.061-0.401-0.312-0.836-0.412
				c-0.433-0.103-0.72,0.014-0.688,0.031c0.045,0.074,0.743-0.204,1.38-0.656c1.352-0.915,2.84-2.322,4.232-3.797
				c2.799-2.986,5.544-6.382,8.137-9.742l0.053-0.068c0.84-1.088,2.403-1.29,3.492-0.449c0.924,0.713,1.207,1.95,0.758,2.973
				c-1.845,4.196-3.932,8.145-6.622,11.997c-1.375,1.915-2.814,3.811-4.893,5.635c-1.083,0.888-2.253,1.852-4.332,2.506
				c-1.022,0.308-2.442,0.485-3.933,0.083c-1.501-0.382-2.748-1.327-3.53-2.206c-0.22-0.231-0.366-0.438-0.543-0.664l-0.186-0.255
				l-0.133-0.192l-0.531-0.77c-0.365-0.514-0.698-1.03-1.006-1.546c-0.663-1.031-1.213-2.075-1.784-3.12
				c-1.087-2.089-2.06-4.195-2.938-6.32c-1.753-4.272-3.163-8.49-4.323-13.02c-0.685-2.675,0.929-5.398,3.603-6.083
				c2.618-0.67,5.283,0.861,6.037,3.435L388.369,222.387z"/>
			<path style="fill:#FF8B7B;" d="M411.794,234.884l4.422-2.623l-4.463-6.579c0,0-3.586,3.779-3.614,7.563L411.794,234.884z"/>
			<path style="fill:#FF8B7B;" d="M417.93,224.864l-0.201-0.207c-1.231-1.269-2.997-1.458-4.206-0.451l-1.771,1.476l4.463,6.579
				l1.9-1.789C419.569,229.104,419.481,226.464,417.93,224.864z"/>
			<g>
				<g>
					<path style="fill:#263238;" d="M373.967,216.186c0.118,2.62,1.646,7.749,2.911,11.595c0.924,2.776,1.695,4.874,1.695,4.874
						l1.531-0.453l12.681-3.774c-0.147-6.744-0.798-14.15-7.588-18.349C380.929,207.437,373.76,211.51,373.967,216.186z"/>
				</g>
			</g>
			<path style="opacity:0.3;" d="M376.878,227.781c0.924,2.776,1.695,4.874,1.695,4.874l1.531-0.453
				c0.106-2.642,0.075-6.831-1.103-8.878C377.982,224.547,377.313,226.131,376.878,227.781z"/>
			<polygon style="fill:#FF8B7B;" points="316.874,408.219 324.804,408.979 329.088,390.476 321.157,389.716 			"/>
			<polygon style="fill:#FF8B7B;" points="260.55,386.333 267.159,390.985 279.558,377.017 272.949,372.365 			"/>
			<path style="fill:#263238;" d="M268.41,390.271l-4.888-7.666c-0.178-0.279-0.511-0.378-0.801-0.239l-6.456,3.107
				c-0.67,0.322-0.904,1.254-0.483,1.89c1.749,2.642,2.723,3.827,4.872,7.198c1.323,2.074,3.951,6.861,5.777,9.725
				c1.786,2.801,4.678,1.158,4.167-0.203c-2.291-6.102-2.193-9.604-1.871-12.398C268.787,391.183,268.67,390.68,268.41,390.271z"/>
			<path style="fill:#263238;" d="M325.89,406.577l-9.547,0c-0.347,0-0.654,0.241-0.738,0.581l-1.864,7.554
				c-0.193,0.784,0.404,1.504,1.207,1.511c3.365,0.03,4.96-0.237,9.158-0.237c2.583,0,9.265,0.252,12.832,0.252
				c3.489,0,4.119-3.527,2.667-3.846c-6.513-1.432-10.299-3.408-12.349-5.292C326.887,406.76,326.398,406.577,325.89,406.577z"/>
			<polygon style="opacity:0.2;" points="329.085,390.481 326.692,400.822 318.769,400.018 321.151,389.72 			"/>
			<polygon style="opacity:0.2;" points="272.944,372.368 279.556,377.022 273.161,384.219 266.55,379.565 			"/>
			<g>
				<g>
					<path style="fill:#263238;" d="M334.124,239.757c5.693,2.734,17.79,8.537,29.486,14.156
						c26.165-39.772,23.403-42.461,23.403-42.461s-4.565-3.533-9.383-6.617c-0.727-0.468-1.466-0.926-2.197-1.362
						c-4.188-2.501-8.322-4.296-13.386-6.436c-0.674-0.288-1.351-0.555-2.028-0.822c-5.794-2.231-11.242-3.522-11.242-3.522
						c-1.144,5.853-2.182,10.795-3.186,15.076c-1.303,5.583-2.526,10.027-3.762,13.844
						C339.514,228.711,337.156,233.652,334.124,239.757z"/>
				</g>
			</g>
			<path style="opacity:0.3;" d="M341.828,221.613c3.435-3.843,7.393-13.282,7.095-17.078l-3.333,3.234
				C344.286,213.352,343.063,217.795,341.828,221.613z"/>
			<path style="fill:#FF8B7B;" d="M368.258,188.743c-1.445,3.753-3.519,7.379-6.217,8.293c0,0-3.208,7.88,7.088,16.713
				c10.855-5.558,6.302-10.283,6.302-10.283c-4.286-3.468-2.94-6.736,0.756-11.492l-3.161-3.321
				C372.051,186.523,369.088,186.585,368.258,188.743z"/>
			<path style="opacity:0.2;" d="M373.023,188.65c-0.917-2.01-3.615-2.068-4.609-0.24c0.681,3.398,1.941,6.479,4.549,9.063
				c0.449-1.643,1.613-3.435,3.22-5.503L373.023,188.65z"/>
			<path style="fill:#FF8B7B;" d="M366.005,174.724c-0.357,8.054-0.677,11.452,2.856,16.064c5.314,6.937,15.092,5.811,17.802-1.926
				c2.439-6.964,2.613-18.966-4.734-23.133C374.69,161.622,366.362,166.67,366.005,174.724z"/>
			<path style="fill:#263238;" d="M389.344,176.674c0.016-0.017,0.031-0.035,0.044-0.055c0.115-0.175,0.068-0.415-0.106-0.536
				c-1.739-1.212-3.347-0.558-3.414-0.53c-0.192,0.081-0.279,0.305-0.197,0.502c0.082,0.196,0.304,0.291,0.495,0.211
				c0.06-0.024,1.316-0.515,2.699,0.45C389.019,176.823,389.22,176.801,389.344,176.674z"/>
			<path style="fill:#407BFF;" d="M370.302,167.231c6.208,8.943-2.068,6.025-0.542,10.963c1.042,3.37-6.667,10.483-8.75,4.489
				C358.927,176.689,360.181,165.981,370.302,167.231z"/>
			<path style="fill:#407BFF;" d="M367.78,167.171c1.115,8.385,8.826-0.451,11.408,4.027c2.582,4.478,15.336,1.859,11.644-3.302
				C387.14,162.735,372.601,158.184,367.78,167.171z"/>
			<path style="fill:#FF8B7B;" d="M363.077,181.489c0.227,1.808,1.248,3.357,2.421,4.274c1.764,1.38,3.438-0.003,3.611-2.122
				c0.156-1.908-0.575-4.924-2.664-5.474C364.386,177.625,362.818,179.422,363.077,181.489z"/>
			<path style="fill:#407BFF;" d="M363.61,253.912c0,0-8.298,40.128-14.469,71c-4.906,24.542-19.48,71.366-19.48,71.366
				l-11.711-1.16c0,0,3.717-55.452,14.355-71.623c-0.188-35.955-4.922-71.097,7.661-81.13L363.61,253.912z"/>
			<polygon style="fill:#263238;" points="316.341,391.564 331.672,393.454 330.345,398.626 315.986,397.077 			"/>
			<path style="opacity:0.3;" d="M342.936,273.466l-10.97-10.555c-1.309,12.468-0.428,28.774,0.061,46.073
				C338.81,297.07,343.865,284.11,342.936,273.466z"/>
			<path style="fill:#407BFF;" d="M357.132,250.913c0,0-22.45,39.277-33.969,68.442c-1.413,3.577-3.088,7.045-5.116,10.313
				c-14.041,22.624-40.686,52.097-40.686,52.097l-8.529-7.132c0,0,26.519-49.839,37.127-61.139
				c7.237-34.473,12.777-64.956,28.164-73.736L357.132,250.913z"/>
			<polygon style="fill:#263238;" points="277.058,384.455 265.998,375.888 268.638,370.979 280.777,380.959 			"/>
			<g>
				<path style="fill:#407BFF;" d="M334.463,237.794l-2.521,2.032c-0.196,0.158-0.047,0.485,0.293,0.649l30.924,14.85
					c0.266,0.128,0.545,0.102,0.637-0.06l1.457-2.543c0.101-0.176-0.06-0.443-0.35-0.583l-29.86-14.339
					C334.824,237.695,334.589,237.693,334.463,237.794z"/>
				<path style="opacity:0.2;" d="M334.463,237.794l-2.521,2.032c-0.196,0.158-0.047,0.485,0.293,0.649l30.924,14.85
					c0.266,0.128,0.545,0.102,0.637-0.06l1.457-2.543c0.101-0.176-0.06-0.443-0.35-0.583l-29.86-14.339
					C334.824,237.695,334.589,237.693,334.463,237.794z"/>
			</g>
			<path style="fill:#407BFF;" d="M336.966,243.098l-0.8-0.384c-0.159-0.076-0.243-0.218-0.187-0.314l1.923-3.29
				c0.056-0.096,0.233-0.113,0.392-0.036l0.8,0.384c0.159,0.077,0.243,0.218,0.187,0.314l-1.923,3.29
				C337.302,243.159,337.125,243.175,336.966,243.098z"/>
			<path style="fill:#407BFF;" d="M360.783,254.536l-0.8-0.384c-0.159-0.077-0.243-0.218-0.187-0.314l1.923-3.29
				c0.056-0.096,0.233-0.113,0.392-0.036l0.8,0.384c0.159,0.076,0.243,0.218,0.187,0.314l-1.923,3.29
				C361.118,254.596,360.942,254.612,360.783,254.536z"/>
			<path style="fill:#407BFF;" d="M348.875,248.817l-0.8-0.384c-0.159-0.077-0.244-0.218-0.187-0.314l1.923-3.29
				c0.056-0.096,0.233-0.113,0.392-0.036l0.8,0.384c0.159,0.077,0.243,0.218,0.187,0.314l-1.923,3.29
				C349.21,248.877,349.034,248.894,348.875,248.817z"/>
			<path style="fill:#263238;" d="M377.317,178.482c-0.068,0.651,0.215,1.222,0.633,1.275c0.418,0.054,0.812-0.43,0.88-1.081
				c0.068-0.651-0.215-1.222-0.633-1.276C377.779,177.348,377.385,177.831,377.317,178.482z"/>
			<path style="fill:#263238;" d="M384.539,179.411c-0.068,0.651,0.215,1.222,0.633,1.275c0.418,0.054,0.811-0.43,0.88-1.081
				c0.068-0.651-0.215-1.222-0.633-1.275C385.001,178.276,384.607,178.76,384.539,179.411z"/>
			<path style="fill:#263238;" d="M385.23,178.342l1.582-0.253C386.812,178.088,385.897,179.208,385.23,178.342z"/>
			<path style="fill:#FFFFFF;" d="M377.752,183.548c-0.314,0-0.627-0.038-0.935-0.116c-1.184-0.298-2.153-1.136-2.73-2.36
				c-0.569-1.208-0.686-2.652-0.332-4.064c0.355-1.412,1.142-2.628,2.215-3.423c1.087-0.806,2.337-1.086,3.521-0.788
				c1.183,0.298,2.152,1.136,2.728,2.36c0.569,1.208,0.686,2.652,0.332,4.064l-0.228-0.057l0.228,0.057
				c-0.355,1.412-1.142,2.628-2.215,3.423C379.533,183.24,378.641,183.548,377.752,183.548z M378.559,173.15
				c-0.79,0-1.588,0.277-2.309,0.812c-0.986,0.731-1.711,1.854-2.039,3.161c-0.329,1.307-0.223,2.639,0.301,3.75
				c0.516,1.095,1.375,1.842,2.419,2.105c1.047,0.263,2.156,0.01,3.127-0.71c0.986-0.731,1.711-1.854,2.039-3.161
				c0.329-1.307,0.223-2.639-0.301-3.75c-0.516-1.095-1.375-1.843-2.419-2.105C379.107,173.183,378.833,173.15,378.559,173.15z"/>
			<path style="fill:#FFFFFF;" d="M386.497,184.849c-0.219,0-0.437-0.027-0.65-0.08c-2.008-0.505-3.041-3.301-2.304-6.233
				c0.738-2.932,2.974-4.907,4.977-4.402c2.008,0.505,3.041,3.301,2.304,6.233c-0.354,1.404-1.055,2.635-1.976,3.465
				C388.106,184.5,387.292,184.849,386.497,184.849z M387.87,174.521c-1.605,0-3.266,1.717-3.872,4.128
				c-0.675,2.682,0.206,5.223,1.962,5.664c0.834,0.209,1.748-0.085,2.574-0.831c0.852-0.769,1.504-1.916,1.834-3.231
				c0.675-2.682-0.206-5.223-1.962-5.665C388.229,174.543,388.05,174.521,387.87,174.521z"/>
			<path style="fill:#FFFFFF;" d="M383.726,179.018c-0.071,0-0.142-0.033-0.188-0.095c-0.269-0.358-1.015-0.124-1.021-0.122
				c-0.123,0.04-0.256-0.026-0.296-0.148c-0.041-0.122,0.024-0.255,0.147-0.296c0.044-0.015,1.073-0.35,1.545,0.286
				c0.077,0.104,0.056,0.251-0.048,0.328C383.823,179.003,383.774,179.018,383.726,179.018z"/>
			<path style="fill:#FF5652;" d="M383.046,180.267c0,0,0.79,2.941,1.842,4.446c-0.928,0.693-2.323,0.143-2.323,0.143
				L383.046,180.267z"/>
			<path style="fill:#263238;" d="M379.943,187.146c0.07-0.02,0.125-0.082,0.133-0.161c0.011-0.105-0.064-0.202-0.168-0.215
				c-2.796-0.359-3.904-2.524-3.915-2.546c-0.048-0.095-0.164-0.134-0.254-0.089c-0.093,0.046-0.129,0.161-0.082,0.257
				c0.048,0.097,1.205,2.373,4.211,2.76C379.894,187.155,379.919,187.153,379.943,187.146z"/>
			<path style="fill:#263238;" d="M376.869,175.898c0.061-0.018,0.118-0.052,0.165-0.102c1.152-1.229,2.523-0.97,2.538-0.967
				c0.204,0.042,0.401-0.094,0.438-0.303c0.037-0.209-0.1-0.411-0.305-0.453c-0.073-0.015-1.79-0.341-3.22,1.185
				c-0.142,0.152-0.135,0.396,0.017,0.545C376.602,175.903,376.744,175.934,376.869,175.898z"/>
			<path style="fill:#407BFF;" d="M269.793,394.415c0.04,0.016,0.081,0.03,0.122,0.04c0.348,0.092,0.687-0.008,1.006-0.296
				c0.241-0.217,0.262-0.457,0.237-0.62c-0.157-1.029-2.779-2.224-3.077-2.357c-0.07-0.031-0.149-0.016-0.204,0.037
				c-0.055,0.053-0.073,0.134-0.048,0.207C268.173,392.405,268.876,394.052,269.793,394.415z M268.345,391.733
				c1.035,0.509,2.358,1.326,2.441,1.868c0.01,0.068,0.007,0.16-0.113,0.269c-0.223,0.202-0.441,0.271-0.665,0.212
				C269.481,393.944,268.872,393.076,268.345,391.733z"/>
			<path style="fill:#407BFF;" d="M268.112,391.62c0.899,0.356,2.852,0.547,3.454-0.063c0.124-0.126,0.302-0.403,0.092-0.84
				c-0.134-0.277-0.35-0.46-0.647-0.543c-1.112-0.311-3.028,0.97-3.109,1.024c-0.056,0.038-0.088,0.103-0.085,0.172
				c0.004,0.069,0.042,0.13,0.102,0.162C267.976,391.563,268.041,391.592,268.112,391.62z M270.988,390.573
				c0.151,0.06,0.26,0.164,0.333,0.316c0.107,0.223,0.046,0.327-0.018,0.393c-0.396,0.401-1.965,0.353-2.882,0.045
				c0.66-0.392,1.83-0.964,2.493-0.778C270.939,390.555,270.964,390.564,270.988,390.573z"/>
			<path style="fill:#407BFF;" d="M330.169,408.153c0.738,0,1.422-0.114,1.852-0.446c0.293-0.227,0.448-0.535,0.458-0.917
				c0.008-0.284-0.134-0.439-0.254-0.519c-0.884-0.586-4.092,0.89-4.727,1.192c-0.073,0.035-0.114,0.112-0.103,0.194
				c0.011,0.081,0.073,0.147,0.153,0.165C328.245,407.976,329.249,408.153,330.169,408.153z M331.643,406.506
				c0.164,0,0.293,0.025,0.377,0.081c0.04,0.027,0.081,0.069,0.078,0.181c-0.008,0.269-0.111,0.477-0.316,0.635
				c-0.547,0.424-1.866,0.48-3.584,0.164C329.357,407.056,330.877,406.506,331.643,406.506z"/>
			<path style="fill:#407BFF;" d="M327.589,407.826c0.024,0,0.049-0.005,0.072-0.014c1.065-0.441,3.189-2.183,3.042-3.084
				c-0.032-0.197-0.174-0.445-0.667-0.504c-1.906-0.225-2.61,3.222-2.64,3.368c-0.014,0.069,0.012,0.142,0.068,0.188
				C327.5,407.811,327.545,407.826,327.589,407.826z M329.873,404.596c0.042,0,0.085,0.003,0.129,0.008
				c0.201,0.024,0.31,0.083,0.325,0.176c0.085,0.522-1.378,1.899-2.459,2.502C328.095,406.449,328.73,404.596,329.873,404.596z"/>
			<path style="fill:#263238;" d="M378.009,177.413l1.582-0.253C379.591,177.16,378.675,178.28,378.009,177.413z"/>
			<path style="fill:#FF8B7B;" d="M348.639,206.342c-1.922,1.714-3.832,3.218-5.799,4.768c-1.971,1.52-3.984,2.998-6.076,4.4
				c-2.087,1.413-4.238,2.766-6.537,4.015c-2.327,1.247-4.667,2.438-7.785,3.246l-0.244,0.063c-0.606,0.157-1.232,0.15-1.802,0.016
				c-2.259-0.543-4.087-1.406-5.802-2.32c-1.712-0.915-3.264-1.961-4.762-3.032c-1.486-1.09-2.9-2.23-4.253-3.43
				c-1.345-1.229-2.634-2.428-3.893-3.812c-0.93-1.023-0.855-2.607,0.168-3.537c0.806-0.733,1.959-0.842,2.867-0.355l0.09,0.049
				c1.448,0.779,2.949,1.636,4.442,2.395c1.488,0.783,2.971,1.546,4.455,2.241c1.472,0.712,2.96,1.339,4.394,1.876
				c1.428,0.534,2.859,0.918,4.001,1.06l-2.046,0.079c1.545-0.526,3.513-1.634,5.373-2.787c1.881-1.187,3.768-2.506,5.64-3.871
				c1.866-1.378,3.73-2.795,5.576-4.248c1.847-1.425,3.701-2.962,5.46-4.387l0.056-0.045c2.146-1.738,5.295-1.408,7.033,0.738
				C350.882,201.544,350.613,204.576,348.639,206.342z"/>
			<path style="fill:#FF8B7B;" d="M306.105,208.637l-2.634-6.022l-5.19,4.404c0,0,2.848,4.188,6.061,4.897L306.105,208.637z"/>
			<path style="fill:#FF8B7B;" d="M301.079,198.507l-1.917,1.782c-1.111,1.033-1.622,2.56-1.357,4.053l0.476,2.676l5.19-4.404
				L301.079,198.507z"/>
			<g>
				<g>
					<path style="fill:#263238;" d="M348.775,192.693c-3.959-0.741-12.94,8.126-12.94,8.126l6.504,13.695
						c0,0,11.6-7.018,11.554-12.042C353.853,198.022,353.818,193.636,348.775,192.693z"/>
				</g>
			</g>
		</g>
	</g>
</g>
<g id="Gender_Symbols">
	<g>
		<g>
			<path style="fill:#407BFF;" d="M297.376,188.694c-2.176,0-4.351-0.83-6.011-2.49C280.316,175.155,265.626,169.07,250,169.07
				s-30.316,6.085-41.366,17.134c-3.319,3.32-8.701,3.32-12.02,0c-3.32-3.319-3.32-8.701,0-12.021
				c14.26-14.26,33.22-22.113,53.386-22.113c20.167,0,39.126,7.853,53.387,22.113c3.319,3.319,3.319,8.701,0,12.021
				C301.727,187.863,299.551,188.693,297.376,188.694z"/>
			<path style="opacity:0.4;fill:#FFFFFF;" d="M297.376,188.694c-2.176,0-4.351-0.83-6.011-2.49
				C280.316,175.155,265.626,169.07,250,169.07s-30.316,6.085-41.366,17.134c-3.319,3.32-8.701,3.32-12.02,0
				c-3.32-3.319-3.32-8.701,0-12.021c14.26-14.26,33.22-22.113,53.386-22.113c20.167,0,39.126,7.853,53.387,22.113
				c3.319,3.319,3.319,8.701,0,12.021C301.727,187.863,299.551,188.693,297.376,188.694z"/>
		</g>
		<path style="fill:#407BFF;" d="M303.387,280.956c3.319-3.319,3.319-8.701,0-12.021c-3.32-3.32-8.701-3.32-12.021,0
			C280.316,279.985,265.626,286.07,250,286.07s-30.316-6.085-41.366-17.134c-11.049-11.049-17.134-25.74-17.134-41.366
			c0-15.626,6.085-30.317,17.134-41.366c3.319-3.32,3.32-8.702,0-12.021c-3.319-3.319-8.701-3.319-12.02,0
			c-14.26,14.26-22.114,33.22-22.114,53.387c0,20.167,7.854,39.127,22.114,53.386c12.236,12.236,27.936,19.737,44.886,21.625v29.155
			h-17.167c-4.694,0-8.5,3.806-8.5,8.5c0,4.694,3.806,8.5,8.5,8.5H241.5v17.167c0,4.694,3.806,8.5,8.5,8.5s8.5-3.806,8.5-8.5
			v-17.167h17.167c4.694,0,8.5-3.806,8.5-8.5c0-4.694-3.806-8.5-8.5-8.5H258.5v-29.155
			C275.45,300.694,291.15,293.193,303.387,280.956z"/>
		<g>
			<path style="fill:#407BFF;" d="M360.132,126.64c0.006-0.065,0.005-0.13,0.009-0.196c0.016-0.255,0.022-0.511,0.015-0.767
				c-0.003-0.099-0.008-0.198-0.014-0.297c-0.015-0.238-0.04-0.476-0.075-0.712c-0.012-0.082-0.021-0.164-0.036-0.246
				c-0.112-0.636-0.297-1.259-0.554-1.861c-0.027-0.063-0.058-0.124-0.086-0.186c-0.106-0.232-0.223-0.461-0.351-0.685
				c-0.044-0.078-0.09-0.155-0.136-0.231c-0.129-0.209-0.269-0.413-0.417-0.613c-0.052-0.07-0.1-0.141-0.154-0.209
				c-0.203-0.256-0.417-0.505-0.654-0.742c-0.001-0.001-0.001-0.002-0.002-0.002c-0.001-0.001-0.002-0.002-0.003-0.003
				c-0.236-0.235-0.484-0.45-0.739-0.651c-0.072-0.057-0.147-0.108-0.221-0.163c-0.194-0.144-0.393-0.28-0.596-0.406
				c-0.082-0.05-0.164-0.099-0.247-0.146c-0.216-0.123-0.435-0.235-0.658-0.338c-0.071-0.032-0.14-0.067-0.212-0.098
				c-0.596-0.254-1.214-0.438-1.843-0.549c-0.091-0.016-0.183-0.026-0.274-0.04c-0.226-0.033-0.453-0.057-0.681-0.071
				c-0.106-0.007-0.212-0.013-0.319-0.015c-0.246-0.006-0.492-0.001-0.738,0.014c-0.074,0.004-0.147,0.004-0.221,0.011
				c-0.323,0.028-0.645,0.075-0.964,0.14c-0.015,0.003-0.03,0.003-0.045,0.006l-50.249,10.576
				c-4.594,0.967-7.533,5.475-6.566,10.068c0.966,4.594,5.471,7.534,10.068,6.567l22.27-4.688l-34.074,34.074
				c-0.415,0.415-0.778,0.862-1.089,1.333c-0.156,0.235-0.298,0.477-0.428,0.724c-0.259,0.493-0.467,1.007-0.622,1.533
				c-0.155,0.525-0.259,1.064-0.311,1.605c-0.026,0.271-0.039,0.543-0.039,0.815c0,0.272,0.013,0.544,0.039,0.815
				c0.181,1.896,0.998,3.743,2.451,5.195c22.81,22.81,22.81,59.923,0,82.732c-3.319,3.319-3.319,8.701,0,12.021
				c1.66,1.66,3.835,2.49,6.011,2.49c2.176,0,4.351-0.83,6.011-2.49c27.404-27.404,29.282-70.801,5.663-100.415l28.411-28.411
				l-4.687,22.27c-0.967,4.594,1.973,9.102,6.566,10.069c0.591,0.124,1.18,0.184,1.76,0.184c3.934,0,7.467-2.747,8.309-6.751
				l10.576-50.248c0.003-0.013,0.003-0.026,0.006-0.039C360.056,127.293,360.104,126.967,360.132,126.64z"/>
			<path style="opacity:0.4;fill:#FFFFFF;" d="M360.132,126.64c0.006-0.065,0.005-0.13,0.009-0.196
				c0.016-0.255,0.022-0.511,0.015-0.767c-0.003-0.099-0.008-0.198-0.014-0.297c-0.015-0.238-0.04-0.476-0.075-0.712
				c-0.012-0.082-0.021-0.164-0.036-0.246c-0.112-0.636-0.297-1.259-0.554-1.861c-0.027-0.063-0.058-0.124-0.086-0.186
				c-0.106-0.232-0.223-0.461-0.351-0.685c-0.044-0.078-0.09-0.155-0.136-0.231c-0.129-0.209-0.269-0.413-0.417-0.613
				c-0.052-0.07-0.1-0.141-0.154-0.209c-0.203-0.256-0.417-0.505-0.654-0.742c-0.001-0.001-0.001-0.002-0.002-0.002
				c-0.001-0.001-0.002-0.002-0.003-0.003c-0.236-0.235-0.484-0.45-0.739-0.651c-0.072-0.057-0.147-0.108-0.221-0.163
				c-0.194-0.144-0.393-0.28-0.596-0.406c-0.082-0.05-0.164-0.099-0.247-0.146c-0.216-0.123-0.435-0.235-0.658-0.338
				c-0.071-0.032-0.14-0.067-0.212-0.098c-0.596-0.254-1.214-0.438-1.843-0.549c-0.091-0.016-0.183-0.026-0.274-0.04
				c-0.226-0.033-0.453-0.057-0.681-0.071c-0.106-0.007-0.212-0.013-0.319-0.015c-0.246-0.006-0.492-0.001-0.738,0.014
				c-0.074,0.004-0.147,0.004-0.221,0.011c-0.323,0.028-0.645,0.075-0.964,0.14c-0.015,0.003-0.03,0.003-0.045,0.006l-50.249,10.576
				c-4.594,0.967-7.533,5.475-6.566,10.068c0.966,4.594,5.471,7.534,10.068,6.567l22.27-4.688l-34.074,34.074
				c-0.415,0.415-0.778,0.862-1.089,1.333c-0.156,0.235-0.298,0.477-0.428,0.724c-0.259,0.493-0.467,1.007-0.622,1.533
				c-0.155,0.525-0.259,1.064-0.311,1.605c-0.026,0.271-0.039,0.543-0.039,0.815c0,0.272,0.013,0.544,0.039,0.815
				c0.181,1.896,0.998,3.743,2.451,5.195c22.81,22.81,22.81,59.923,0,82.732c-3.319,3.319-3.319,8.701,0,12.021
				c1.66,1.66,3.835,2.49,6.011,2.49c2.176,0,4.351-0.83,6.011-2.49c27.404-27.404,29.282-70.801,5.663-100.415l28.411-28.411
				l-4.687,22.27c-0.967,4.594,1.973,9.102,6.566,10.069c0.591,0.124,1.18,0.184,1.76,0.184c3.934,0,7.467-2.747,8.309-6.751
				l10.576-50.248c0.003-0.013,0.003-0.026,0.006-0.039C360.056,127.293,360.104,126.967,360.132,126.64z"/>
		</g>
	</g>
</g>
</svg>
