<?xml version="1.0" encoding="utf-8"?>
<!-- Generator: Adobe Illustrator 27.5.0, SVG Export Plug-In . SVG Version: 6.00 Build 0)  -->
<svg version="1.1" xmlns="http://www.w3.org/2000/svg" xmlns:xlink="http://www.w3.org/1999/xlink" x="0px" y="0px"
	 viewBox="0 0 500 500" style="enable-background:new 0 0 500 500;" xml:space="preserve">
<g id="BACKGROUND">
	<rect style="fill:#5983CC;" width="500" height="500"/>
</g>
<g id="OBJECTS">
	<g>
		<defs>
			<rect id="SVGID_1_" width="500" height="500"/>
		</defs>
		<clipPath id="SVGID_00000029032728480159469480000016812107298179124925_">
			<use xlink:href="#SVGID_1_"  style="overflow:visible;"/>
		</clipPath>
		<g style="clip-path:url(#SVGID_00000029032728480159469480000016812107298179124925_);">
			<path style="fill:#2A6966;" d="M357.568,278.816h100.931c0,0,61.45,142.038,70.787,168.674
				c9.337,26.636,17.212,83.448,17.212,83.448h-83.687c0,0-8.121-48.931-15.059-74.596s-31.754-109.335-31.754-109.335
				l-44.437,179.045h-63.562L357.568,278.816z"/>
			<polygon style="fill:#FF8787;" points="349.837,326.563 359.374,346.063 343.999,357.875 331.097,332.938 			"/>
			<polygon style="fill:#FFFFFF;" points="393.077,126.36 403.709,117.648 433.883,117.648 451.015,126.219 456.124,284.593 
				381.499,284.593 			"/>
			<path style="fill:#1A2E5C;" d="M434.633,98.88c0,0,6.959-5.661,12.491-11.661c5.531-6,10.219-11.531,3.75-17.156
				c0,0,3.75-4.125,0.188-10.5s-12.75-11.625-14.625-21.656c-1.875-10.031-6.281-12.281-9.281-11.719s-7.594,4.781-5.063,11.438
				c-1.219-0.844-2.438-10.688-7.875-11.906c-5.437-1.219-12.562,1.031-13.406,9.094c-0.844,8.063,1.818,11.812,1.818,11.812
				s-3.506-1.688-4.631,5.25s11.063,18.281,11.063,18.281l20.531-2.25l3.656,10.969C433.249,78.876,428.237,94.228,434.633,98.88z"
				/>
			<g>
				<path style="fill:#142245;" d="M434.892,41.202c0.967,2.516,2.254,4.925,3.683,7.21c1.456,2.269,3.121,4.413,5.079,6.238
					c0.96,0.893,2.063,1.814,2.986,2.856c0.918,1.057,1.743,2.214,2.352,3.5c0.62,1.279,0.965,2.706,0.984,4.144
					c-0.004,1.431-0.378,2.896-1.235,4.058l-0.422-0.269c1.128-2.376,0.859-5.166-0.241-7.508c-0.55-1.185-1.312-2.273-2.173-3.279
					c-0.884-1.007-1.873-1.844-2.904-2.814c-2.026-1.908-3.659-4.169-5.101-6.51c-1.414-2.367-2.583-4.858-3.483-7.467
					L434.892,41.202z"/>
			</g>
			<g>
				<path style="fill:#142245;" d="M436.12,52.137c0.438,0.771,1.107,1.425,1.8,2.028c0.702,0.6,1.436,1.171,2.189,1.724
					c1.501,1.116,3.08,2.137,4.557,3.364c0.722,0.609,1.494,1.297,1.998,2.205c0.484,0.896,0.77,1.88,0.859,2.869
					c0.156,1.972-0.271,3.989-1.354,5.623l-0.436-0.244c0.711-1.677,1.01-3.513,0.834-5.284c-0.109-0.879-0.326-1.742-0.736-2.505
					c-0.406-0.752-1.057-1.354-1.759-1.959c-1.416-1.18-2.956-2.273-4.439-3.446c-0.748-0.578-1.476-1.195-2.162-1.863
					c-0.682-0.668-1.35-1.385-1.797-2.285L436.12,52.137z"/>
			</g>
			<g>
				<path style="fill:#142245;" d="M437.954,58.737c0.914,0.71,1.917,1.304,2.913,1.94c0.988,0.639,2.025,1.269,2.845,2.233
					c0.401,0.483,0.719,1.083,0.813,1.738c0.086,0.637,0.071,1.216,0.038,1.831c-0.061,1.213-0.458,2.434-1.058,3.462l-0.447-0.224
					c0.505-1.051,0.795-2.137,0.845-3.28c0.028-0.558,0.021-1.163-0.049-1.692c-0.067-0.515-0.307-0.997-0.649-1.423
					c-0.698-0.852-1.693-1.493-2.666-2.136c-0.986-0.633-1.981-1.293-2.9-2.063L437.954,58.737z"/>
			</g>
			<path style="fill:#FFBC8F;" d="M435.457,88.515c0,0,0.182-7.646,1.82-16.566c-4.733-2.731-6.553-7.464-6.553-7.464
				s-8.556,2.549-13.289-3.277c-5.643,1.092-8.738,2.184-8.738,2.184s-1.456,9.83-4.187,19.842
				c-2.73,10.012-3.277,18.386,3.823,20.024l-4.915,15.291c0,0-0.788,16.929,16.535,17.112
				c17.324,0.182,22.057-14.017,22.057-14.017l-11.104-5.461l3.823-17.748l3.095-7.373c0,0,10.783-4.107,7.099-11.468
				C442.896,75.544,435.457,88.515,435.457,88.515z"/>
			<path style="fill:none;stroke:#FF8787;stroke-width:0.5;stroke-miterlimit:10;" d="M444.054,84.243c0,0,0.633-2.672-0.563-3.164
				c-1.195-0.492-3.797,2.461-3.727,3.586c0.07,1.125,1.477,1.266,0.844,2.18c-0.633,0.914-1.617,0.141-2.25,0.914"/>
			<g>
				<polygon style="fill:#BD5858;" points="416.096,74.97 413.616,84.222 412.917,83.143 417.149,84.143 417.099,84.64 
					412.753,84.78 411.606,84.817 412.054,83.701 415.621,74.812 				"/>
			</g>
			<path style="fill:#FFFFFF;" d="M417.358,91.274c0,1.722-0.797,3.117-1.781,3.117c-0.984,0-1.781-1.396-1.781-3.117
				c0-1.722,0.797-3.117,1.781-3.117C416.561,88.157,417.358,89.552,417.358,91.274z"/>
			<path style="fill:#FF8787;" d="M408.333,103.26c5.181,1.678,14.026,2.739,20.509-1.509c1.359-0.891,1.828,1.219-0.328,2.438
				c-2.156,1.219-7.875,1.406-11.531,4.734c-3.656,3.328-11.171,2.181-11.171,2.181L408.333,103.26z"/>
			<line style="fill:none;stroke:#FF8787;stroke-miterlimit:10;" x1="405.812" y1="121.227" x2="417.358" y2="125.235"/>
			<path style="fill:none;stroke:#FF8787;stroke-miterlimit:10;" d="M412.835,95.954c0,0,1.088,1.502,5.07,0"/>
			<g>
				<path style="fill:#1A2E5C;" d="M424.039,77.712c-0.303,1.409-1.082,2.436-1.74,2.295c-0.658-0.142-0.946-1.398-0.642-2.807
					c0.303-1.409,1.082-2.436,1.74-2.294C424.055,75.046,424.342,76.303,424.039,77.712z"/>
				<path style="fill:#1A2E5C;" d="M412.227,74.899c-0.303,1.409-1.082,2.436-1.74,2.295c-0.658-0.142-0.946-1.398-0.643-2.807
					c0.303-1.409,1.082-2.436,1.74-2.295C412.242,72.233,412.53,73.49,412.227,74.899z"/>
			</g>
			<path style="fill:#1A2E5C;" d="M421.905,71.516c0,0,3.938-0.656,6.469,2.25l0.75-1.453c0,0-2.859-2.531-7.219-1.594V71.516z"/>
			<path style="fill:#1A2E5C;" d="M413.608,70.511l0.558-0.914c0,0-3.203-2.691-6.216-1.769l0.162,1.403
				C408.112,69.232,411.733,68.756,413.608,70.511z"/>
			<path style="fill:#1A2E5C;" d="M403.709,117.648c0,0,9.275,9.04,7.877,26.477c-1.399,17.438-5.524,24.188-5.899,36.75
				c-0.375,12.562,3.637,24.187-3.057,36.562c-6.693,12.375-6.881,24.375-7.443,40.875c-0.563,16.5-5.438,30.938-5.438,30.938h-48
				l12.375,39.138l-25.125,8.758c0,0-25.5-36.27-39.375-71.708c-13.875-35.437,15.75-75.477,30-102.895
				S347.918,124.921,403.709,117.648z"/>
			<g>
				<path style="fill:#142245;" d="M331.864,242.468c-2.891-2.197-5.829-4.371-8.83-6.434c-2.998-2.069-6.034-4.09-9.186-5.9
					c-1.575-0.903-3.178-1.768-4.845-2.435c-0.822-0.303-1.722-0.629-2.504-0.537l-0.257,0.075l-0.235,0.161
					c-0.115,0.129-0.229,0.256-0.219,0.429c-0.031,0.34,0.211,0.741,0.472,1.077c1.13,1.36,2.685,2.395,4.204,3.369
					c1.538,0.97,3.139,1.854,4.773,2.647l-0.226,0.446c-1.612-0.884-3.193-1.8-4.747-2.775c-0.776-0.489-1.53-1.012-2.275-1.554
					c-0.74-0.548-1.464-1.128-2.078-1.857c-0.285-0.37-0.61-0.788-0.599-1.38c-0.012-0.3,0.175-0.571,0.363-0.767
					c0.103-0.086,0.215-0.157,0.323-0.234c0.127-0.051,0.26-0.097,0.393-0.14c1.044-0.156,1.938,0.179,2.826,0.45
					c1.754,0.618,3.41,1.428,5.04,2.273c3.251,1.71,6.408,3.576,9.533,5.491c3.115,1.934,6.216,3.873,9.281,5.909L331.864,242.468z"
					/>
			</g>
			<g>
				<polygon style="fill:#142245;" points="331.148,247.875 312.003,247.997 312.058,246.129 331.163,247.375 				"/>
			</g>
			<path style="fill:none;stroke:#A7BEF2;stroke-width:0.5;stroke-miterlimit:10;" d="M400.147,121.227
				c0,0,7.266,6.763,5.666,22.846c-1.601,16.083-4.252,22.092-5.666,33.227c-1.414,11.134,2.474,22.622,0,30.929
				c-2.474,8.307-6.186,12.548-9.19,27.571c-3.005,15.023-0.177,30.222-5.302,47.542"/>
			<path style="fill:#142245;" d="M360.687,192.875c-4.875,9.188-22.781,50.437-22.781,50.437s1.5,6.094-2.063,5.625
				c2.156,6.774-1.594,6.774-1.594,6.774l7.5,33.538h17.913c-7.164-22.341,1.257-74.171,4.025-82.312
				C366.874,197.563,365.562,183.688,360.687,192.875z"/>
			<g>
				<path style="fill:#142245;" d="M362.878,187.396c0.219-2.054,0.321-4.14,0.31-6.213c0.011-2.075-0.078-4.149-0.274-6.211
					c-0.37-4.123-1.113-8.215-2.384-12.141c-1.21-3.943-2.994-7.704-5.287-11.126c-0.547-0.875-1.198-1.676-1.809-2.508
					c-0.674-0.779-1.302-1.604-2.032-2.335c-1.37-1.554-2.962-2.885-4.551-4.223l0.296-0.403c3.452,2.4,6.558,5.375,8.984,8.855
					c1.257,1.709,2.308,3.561,3.236,5.464c0.941,1.899,1.719,3.877,2.367,5.892c1.285,4.037,2.007,8.233,2.286,12.439
					c0.244,4.211,0.117,8.438-0.65,12.594L362.878,187.396z"/>
			</g>
			<path style="fill:#1A2E5C;" d="M433.883,117.648c0,0,10.74,10.935,7.407,31.348c-3.333,20.413-3.598,23.594-1.212,36.054
				c2.386,12.46-10.869,21.739-11.134,37.645c-0.265,15.906,2.916,31.547,0,44.538c-2.916,12.99-5.832,22.017-5.832,22.017h48.294
				c0,0,1.125-5.25,1.406-14.25c0.281-9,3.656-10.452,3.656-19.288c0,0,13.219,31.382,21.094,46.288
				c7.875,14.906,66.094,47.531,66.094,47.531l14.344-37.681l-48.712-48.944c0,0-14.455-76.871-24.131-104.203
				C496.999,135.664,433.883,117.648,433.883,117.648z"/>
			<path style="fill:none;stroke:#A7BEF2;stroke-width:0.5;stroke-miterlimit:10;" d="M442.011,121.646
				c0,0,7.176,8.511,5.044,27.351c-2.326,20.552-3.598,23.594-1.212,36.054c2.386,12.46-10.869,21.739-11.134,37.645
				s2.916,31.547,0,44.538c-0.849,3.781-1.698,7.226-2.475,10.211"/>
			<path style="fill:#142245;" d="M476.468,255.712c1.031-10.524-0.469-13.524,0-20.836c0.469-7.313,5.531-16.875,7.781-23.25
				c2.25-6.375,5.25-24.937,4.5-32.625c5.25,3,7.125,21.937,4.125,32.625s-4.313,27.563-2.063,41.625
				c2.25,14.063,6.412,30.357,2.081,39.366L476.468,255.712z"/>
			<path style="fill:none;stroke:#142245;stroke-width:0.5;stroke-miterlimit:10;" d="M474.499,229.813
				c0,0-19.688,9.188-22.875,7.875s9.938-5.293,9.938-5.293"/>
			<path style="fill:none;stroke:#A7BEF2;stroke-width:4;stroke-miterlimit:10;" d="M451.125,249.758
				c0,0,2.936,11.367,14.749,23.742"/>
			<path style="fill:none;stroke:#A7BEF2;stroke-width:4;stroke-miterlimit:10;" d="M368.044,249.758
				c0,0-2.937,11.367-14.749,23.742"/>
		</g>
		<g style="clip-path:url(#SVGID_00000029032728480159469480000016812107298179124925_);">
			<path style="fill:#2A6966;" d="M155.973,231.005l25.871,280.754l-188.094-5.663c0,0,12.121-117.02,18.734-151.499
				c6.614-34.479,29.348-104.842,29.348-104.842L155.973,231.005z"/>
			<circle style="fill:#1C4543;" cx="116.868" cy="17.529" r="10.652"/>
			<path style="fill:#239471;" d="M103.755,53.587c0,0,5.895-4.242,9.375-17.283c3.844-14.405-4.781-27.249-21.68-27.881
				c-14.696-0.55-23.307,9.479-22.061,19.979C70.636,38.901,94.052,56.072,103.755,53.587z"/>
			<path style="fill:#FFBC8F;" d="M97.099,43.462c0,0-2.063-3.563-1.313-8.25c-4.406-4.219-8.719-6.938-8.813-10.781
				c-12-0.844-16.781-0.094-17.437,3c-0.656,3.094,0,11.437-1.031,16.031c-1.031,4.594-3.281,18.844,2.625,21.469
				c5.906,2.625,8.344,1.219,8.344,1.219l0.844,21.187c0,0,1.313,9.563,11.625,9.281c10.313-0.281,23.062-15.188,23.062-15.188
				l-11.25-27.844c0,0-4.406-1.781-6.188-4.969c4.219,1.313,7.781-10.688,4.969-13.031C99.724,33.244,97.099,43.462,97.099,43.462z"
				/>
			<path style="fill:#FF8787;" d="M79.474,66.15c0,0,9.586-1.828,17.18-11.742c0.914,6.328-7.296,21.45-16.726,23.135L79.474,66.15z
				"/>
			<path style="fill:none;stroke:#BD5858;stroke-width:0.75;stroke-miterlimit:10;" d="M88.098,68.329c0,0-1.5,2.812,2.016,4.43
				l0.563,7.945"/>
			<g>
				<path style="fill:#BD5858;" d="M101.259,38.598c-0.32-0.181-0.659-0.281-0.809-0.159c-0.164,0.11-0.317,0.422-0.384,0.766
					c-0.134,0.694-0.145,1.479-0.03,2.212c0.135,0.725,0.31,1.584,0.326,2.426c-0.012,0.43-0.027,0.877-0.25,1.352
					c-0.1,0.231-0.331,0.473-0.606,0.569c-0.28,0.114-0.541,0.06-0.766,0.006l0.092-0.491c0.369-0.005,0.53-0.105,0.601-0.381
					c0.094-0.268,0.087-0.65,0.049-1.016c-0.051-0.766-0.252-1.477-0.39-2.331c-0.084-0.854-0.109-1.707,0.166-2.569
					c0.147-0.409,0.329-0.915,0.894-1.189c0.289-0.105,0.605-0.079,0.829,0.026c0.243,0.09,0.408,0.244,0.582,0.383L101.259,38.598z
					"/>
			</g>
			<g>
				<path style="fill:#142245;" d="M82.154,37.915c-0.119,1.276-0.78,2.258-1.476,2.193s-1.164-1.152-1.045-2.428
					c0.119-1.276,0.738-1.814,1.434-1.749C81.764,35.995,82.273,36.639,82.154,37.915z"/>
				<path style="fill:#142245;" d="M78.958,36.086c0,0,1.778-0.893,4.061,0.379l-0.151,0.363c0,0-2.697-0.826-3.796-0.151
					L78.958,36.086z"/>
			</g>
			<g>
				<path style="fill:#142245;" d="M72.667,37.029c-0.119,1.276-0.78,2.258-1.476,2.193c-0.696-0.065-1.164-1.152-1.045-2.428
					c0.119-1.276,0.738-1.814,1.434-1.749C72.277,35.11,72.786,35.753,72.667,37.029z"/>
				<path style="fill:#142245;" d="M69.472,35.201c0,0,1.778-0.893,4.061,0.379l-0.151,0.363c0,0-2.697-0.826-3.796-0.151
					L69.472,35.201z"/>
			</g>
			<g>
				<polygon style="fill:#BD5858;" points="74.878,37.858 73.087,46.58 72.668,46.101 77.213,46.072 77.234,46.571 72.702,46.917 
					72.207,46.955 72.282,46.438 73.57,37.629 				"/>
			</g>
			<path style="fill:#2A6966;" d="M75.282,46.402c2.947-0.122,4.03,1.713,4.333,2.627c2.835-0.07,3.573,3.199,3.573,3.938
				c2.391,0.633,1.898,3.832,1.898,3.832s-0.839-1.969-2.916-1.758c-2.077,0.211-3.413-0.316-3.94-1.477
				c-2.531-0.668-4.09-0.553-4.699-1.964c-0.996,0.523-1.664,0.944-2.543,0.558c-0.949,1.477-2.25,1.582-2.25,1.582l-0.949,1.934
				c0,0-0.914-2.707,0.809-3.832c0,0-0.141-3.164,2.566-3.902C72.685,46.509,73.81,46.463,75.282,46.402z"/>
			<path style="fill:none;stroke:#FF8787;stroke-miterlimit:10;" d="M72.349,54.759c0,0,0.938,1.5,3.75,1.313"/>
			<path style="fill:#2A6966;" d="M67.214,60.993c0,0,2.978-3.234,6.588-2.25c3.609,0.984,5.344,2.672,6.047,3.328
				c0.703,0.656,2.813,0.891,3.234,1.969c0.422,1.078,2.672-0.516,3.281,0.328c0,0-0.75,1.781-2.531,2.25
				c-1.781,0.469-1.078,2.625-2.156,3.563s-3.188,1.5-3.469,3.609c-0.281,2.109-4.5,2.813-6.281,0.75
				c-1.781-2.063-4.258-0.375-4.379-3.141c-0.121-2.766-1.762-2.438-1.246-5.25C66.817,63.337,66.204,62.259,67.214,60.993z"/>
			<path style="fill:#1C4543;" d="M77.528,34.896l9.527-0.844c0,0-0.492-0.984-1.582-1.371c-1.09-0.387-9.135,0.738-9.135,0.738
				S76.438,34.44,77.528,34.896z"/>
			<path style="fill:#1C4543;" d="M72.569,33.016c0.412,0.066,0.75,0.364,0.866,0.765l0.283,0.974l-4.441-0.816l-0.181-1.48
				L72.569,33.016z"/>
			<g>
				<path style="fill:#1C4543;" d="M71.165,23.099c0.542-2.014,1.526-3.848,2.765-5.504c1.262-1.63,2.761-3.113,4.521-4.216
					c0.415-0.314,0.898-0.515,1.344-0.777c0.451-0.256,0.908-0.498,1.394-0.676l1.435-0.587l1.491-0.412l0.745-0.204l0.761-0.125
					l1.52-0.24c1.019-0.097,2.044-0.109,3.061-0.146l0.012,0.5c-0.994,0.137-1.993,0.194-2.974,0.359l-1.461,0.299l-0.729,0.149
					l-0.708,0.226l-1.414,0.446l-1.362,0.579c-0.463,0.175-0.894,0.412-1.319,0.662c-0.42,0.256-0.878,0.45-1.266,0.755
					c-1.664,1.053-3.112,2.423-4.352,3.952c-1.246,1.521-2.275,3.263-2.98,5.093L71.165,23.099z"/>
			</g>
			<g>
				<path style="fill:#1C4543;" d="M75.063,22.155c0.297-1.207,0.832-2.305,1.506-3.331c0.664-1.031,1.505-1.952,2.462-2.728
					c0.959-0.771,2.021-1.435,3.179-1.852c0.565-0.245,1.165-0.378,1.751-0.54c0.595-0.128,1.203-0.187,1.801-0.254l0.078,0.494
					c-1.119,0.347-2.228,0.664-3.246,1.187c-1.036,0.477-1.991,1.102-2.872,1.811c-0.89,0.702-1.675,1.534-2.382,2.433
					c-0.7,0.899-1.312,1.899-1.8,2.926L75.063,22.155z"/>
			</g>
			<g>
				<path style="fill:#1C4543;" d="M78.723,21.863c0.278-1.439,1.1-2.712,2.229-3.666c0.566-0.472,1.218-0.855,1.92-1.085
					c0.69-0.266,1.44-0.318,2.152-0.288l0.056,0.497c-0.634,0.241-1.239,0.453-1.793,0.763c-0.558,0.293-1.084,0.634-1.558,1.047
					c-0.97,0.793-1.786,1.81-2.535,2.9L78.723,21.863z"/>
			</g>
			<path style="fill:#A7BEF2;" d="M92.224,92.025c0,0,1.124-5.063,4.499-7.594c3.376-2.531,11.672-1.739,14.626-12.049l7.172,5.161
				c0,0,46.406,15.185,60.75,23.763c14.344,8.578,16.655,27.022,20.25,51.328c3.141,21.234,3.234,54.282,0,72.821
				s-40.643,69.755-40.643,69.755l-31.592-18.967l13.5-31.125l-107.25,16.125l-2.625-72.75l-48.84,78.111l-10.119-69.89
				c0,0,37.959-73.471,49.209-89.971c11.25-16.5,57.14-25.125,57.14-25.125l1.477-6.188c0,0,1.852,7.664,6.586,8.789
				C91.099,85.345,92.294,90.9,92.224,92.025z"/>
			<path style="fill:#2D4F9E;" d="M20.786,164.587c0.563,21.656-12.938,18.844-16.031,37.406
				c-2.331,13.989-1.149,24.62-0.425,29.012l26.581-42.511l-1.969-58.219C28.942,130.275,20.224,142.931,20.786,164.587z"/>
			<path style="fill:none;stroke:#2D4F9E;stroke-width:0.5;stroke-miterlimit:10;" d="M25.005,162.337
				c0,0-16.031-29.25-11.812-32.063c4.219-2.813,8.988,17.939,8.988,17.939"/>
			<g>
				<path style="fill:#2D4F9E;" d="M92.473,92.034c-0.069,5.887,0.01,11.78,0.2,17.662c0.189,5.883,0.517,11.759,1.031,17.607
					l-1.837,0.131c-0.295-5.911-0.399-11.819-0.365-17.722c0.033-5.904,0.178-11.801,0.471-17.696L92.473,92.034z"/>
			</g>
			<path style="fill:#F7E8E8;" d="M98.224,100.134c0,1.476-0.756,2.672-1.688,2.672c-0.932,0-1.688-1.196-1.688-2.672
				c0-1.476,0.756-2.672,1.688-2.672C97.468,97.462,98.224,98.658,98.224,100.134z"/>
			<path style="fill:#F7E8E8;" d="M98.224,115.403c0,1.476-0.756,2.672-1.688,2.672c-0.932,0-1.688-1.196-1.688-2.672
				c0-1.476,0.756-2.672,1.688-2.672C97.468,112.731,98.224,113.927,98.224,115.403z"/>
			<path style="fill:#2D4F9E;" d="M141.536,133.743c0,0,0,11.625,2.625,33c2.625,21.375,8.25,52.125,8.25,52.125l-11.625,26.25
				l-30.842,4.637c0,0,6.842-18.137,15.092-27.512s7.125-24.332,10.125-41.604C138.161,163.368,128.036,140.868,141.536,133.743z"/>
			<g>
				<path style="fill:#2D4F9E;" d="M143.536,129.042c0.143-2.165,0.556-4.275,1.146-6.349c0.592-2.072,1.401-4.086,2.402-6.007
					c0.473-0.977,1.076-1.882,1.641-2.811c0.651-0.869,1.239-1.795,1.984-2.594c1.376-1.704,3.063-3.122,4.792-4.47l0.944,1.366
					c-1.676,1.194-3.336,2.455-4.712,4.014c-0.745,0.727-1.341,1.584-2.005,2.387c-0.579,0.865-1.201,1.707-1.698,2.628
					c-1.049,1.807-1.925,3.727-2.595,5.722c-0.666,1.991-1.168,4.065-1.4,6.142L143.536,129.042z"/>
			</g>
			<g>
				<polygon style="fill:#2D4F9E;" points="139.895,129.056 140.348,118.075 140.848,118.075 141.302,129.056 				"/>
			</g>
			<g>
				<path style="fill:#1A2E5C;" d="M59.114,246.059c-9.174-0.535-17.948-1.208-26.196-1.955l0.036,1.007
					c8.217,0.743,16.953,1.412,26.086,1.945c13.055,0.763,27.632,1.281,43.141,1.281c6.192,0,12.535-0.086,18.983-0.269l8.553-1.286
					C108.71,247.674,85.236,247.583,59.114,246.059z"/>
				<path style="fill:#1A2E5C;" d="M-16.28,263.967c-0.708-0.108-1.404-0.214-2.076-0.318l0.15,1.034
					c0.442,0.068,0.892,0.137,1.349,0.207L-16.28,263.967z"/>
				<path style="fill:#1A2E5C;" d="M-8.896,252.157c-4.246-0.602-8.054-1.178-11.371-1.701l0.15,1.035
					c3.134,0.493,6.696,1.031,10.642,1.593L-8.896,252.157z"/>
				<path style="fill:#1A2E5C;" d="M128.428,273.611c15.863-0.633,32.283-1.899,48.71-4.048c0.232-0.371,0.465-0.743,0.698-1.116
					c-14.545,1.941-30.84,3.42-48.974,4.164L128.428,273.611z"/>
				<path style="fill:#1A2E5C;" d="M134.566,259.459l-0.434,1.001c16.85-0.83,34.244-2.393,51.54-4.989
					c0.22-0.379,0.439-0.758,0.656-1.136C171.178,256.647,153.975,258.478,134.566,259.459z"/>
				<path style="fill:#1A2E5C;" d="M33.421,258.048c4.473,0.402,9.098,0.781,13.857,1.129l4.54-0.683
					c-6.381-0.431-12.539-0.923-18.433-1.453L33.421,258.048z"/>
				<path style="fill:#1A2E5C;" d="M140.299,246.242l-0.441,1.016c17.568-1.035,35.642-2.895,53.506-5.906
					c0.191-0.381,0.379-0.761,0.563-1.136C178.451,242.857,160.626,245.014,140.299,246.242z"/>
				<path style="fill:#1A2E5C;" d="M28.639,192.128c-21.864-2.092-39.687-4.657-50.936-6.469c-0.165,0.316-0.328,0.629-0.488,0.934
					c11.163,1.804,28.956,4.377,50.831,6.483L28.639,192.128z"/>
				<path style="fill:#1A2E5C;" d="M21.052,204.262c-22.317-2.339-39.674-5.051-48.968-6.641l0.151,1.04
					c9.319,1.588,26.372,4.241,48.228,6.544L21.052,204.262z"/>
				<path style="fill:#1A2E5C;" d="M13.505,216.332c-17.309-1.971-31.045-4.076-39.507-5.492l0.15,1.039
					c8.423,1.405,21.877,3.46,38.77,5.393L13.505,216.332z"/>
				<path style="fill:#1A2E5C;" d="M5.998,228.337c-12.615-1.551-22.913-3.109-30.088-4.286l0.15,1.037
					c7.083,1.158,17.111,2.672,29.353,4.184L5.998,228.337z"/>
				<path style="fill:#1A2E5C;" d="M-1.469,240.28c-8.248-1.091-15.246-2.144-20.709-3.023l0.15,1.036
					c5.324,0.854,12.069,1.868,19.977,2.918L-1.469,240.28z"/>
				<path style="fill:#1A2E5C;" d="M59.114,117.114c-15.405-0.899-29.681-2.183-42.231-3.561c-0.185,0.309-0.372,0.623-0.562,0.944
					c12.672,1.398,27.117,2.704,42.72,3.614c13.055,0.762,27.632,1.281,43.141,1.281c27.506,0,57.922-1.635,87.869-6.439
					c-0.172-0.322-0.343-0.644-0.523-0.957C156.608,117.265,113.591,120.293,59.114,117.114z"/>
				<path style="fill:#1A2E5C;" d="M59.114,155.797c-24.442-1.426-46.048-3.822-62.415-6.024c-0.169,0.314-0.337,0.627-0.505,0.941
					c16.431,2.219,38.198,4.642,62.847,6.081c13.055,0.762,27.632,1.281,43.141,1.281c30.296,0,64.121-1.984,96.962-8.001
					c-0.05-0.341-0.1-0.679-0.15-1.017C165.002,155.292,118.973,159.29,59.114,155.797z"/>
				<path style="fill:#1A2E5C;" d="M59.114,142.903c-21.32-1.244-40.479-3.226-55.889-5.173c-0.172,0.314-0.343,0.627-0.515,0.942
					c15.493,1.965,34.813,3.972,56.33,5.228c13.055,0.762,27.632,1.281,43.141,1.281c29.698,0,62.788-1.909,95.019-7.652
					c-0.058-0.34-0.117-0.673-0.176-1.009C163.231,142.549,117.824,146.329,59.114,142.903z"/>
				<path style="fill:#1A2E5C;" d="M59.114,130.008c-18.337-1.07-35.075-2.686-49.206-4.356c-0.175,0.313-0.352,0.628-0.53,0.944
					c14.231,1.689,31.132,3.327,49.661,4.409c13.055,0.762,27.632,1.281,43.141,1.281c28.899,0,61.01-1.805,92.416-7.194
					c-0.088-0.334-0.177-0.667-0.269-0.996C160.828,129.848,116.279,133.345,59.114,130.008z"/>
				<path style="fill:#1A2E5C;" d="M178.313,100.752c-31.295,4.209-70.708,6.297-119.2,3.467
					c-11.789-0.688-22.918-1.602-33.119-2.61c-0.359,0.297-0.703,0.598-1.041,0.901c10.465,1.046,21.923,1.996,34.086,2.706
					c13.055,0.762,27.632,1.281,43.141,1.281c24.346,0,50.972-1.283,77.535-4.908c-0.15-0.093-0.293-0.192-0.445-0.283
					C178.967,101.125,178.645,100.939,178.313,100.752z"/>
				<path style="fill:#1A2E5C;" d="M59.114,91.325c-4.187-0.244-8.291-0.517-12.3-0.813c-0.72,0.274-1.437,0.554-2.153,0.841
					c4.666,0.356,9.465,0.682,14.379,0.969c13.055,0.762,27.632,1.281,43.141,1.281c17.377,0,35.917-0.656,54.766-2.347
					c-0.697-0.272-1.396-0.544-2.099-0.814C127.953,92.776,96.189,93.489,59.114,91.325z"/>
				<path style="fill:#1A2E5C;" d="M59.114,233.165c-9.347-0.546-18.279-1.233-26.663-1.997l0.036,1.007
					c8.353,0.76,17.247,1.444,26.553,1.987c13.055,0.763,27.632,1.281,43.141,1.281c30.274,0,64.072-1.981,96.891-7.988
					c0.1-0.375,0.191-0.743,0.269-1.096C165.317,232.631,119.179,236.669,59.114,233.165z"/>
				<path style="fill:#1A2E5C;" d="M59.114,207.375c-9.696-0.566-18.943-1.285-27.596-2.083l0.036,1.008
					c8.623,0.794,17.832,1.509,27.486,2.073c13.055,0.762,27.633,1.281,43.142,1.281c31.09,0,65.897-2.091,99.543-8.485
					c0.012-0.35,0.025-0.699,0.036-1.051C167.517,206.646,120.613,210.964,59.114,207.375z"/>
				<path style="fill:#1A2E5C;" d="M59.114,220.27c-9.522-0.556-18.61-1.259-27.129-2.04l0.036,1.007
					c8.488,0.777,17.54,1.476,27.019,2.03c13.055,0.762,27.632,1.281,43.141,1.281c30.849,0,65.357-2.06,98.76-8.338
					c0.031-0.352,0.062-0.705,0.092-1.061C166.852,219.601,120.182,223.835,59.114,220.27z"/>
				<path style="fill:#1A2E5C;" d="M59.114,194.481c-9.87-0.576-19.276-1.311-28.063-2.126l0.036,1.007
					c8.757,0.811,18.125,1.542,27.953,2.116c13.055,0.762,27.632,1.281,43.141,1.281c31.145,0,66.02-2.098,99.722-8.518
					c-0.002-0.348-0.004-0.695-0.008-1.042C167.639,193.741,120.692,198.074,59.114,194.481z"/>
				<path style="fill:#1A2E5C;" d="M59.114,168.692c-27.785-1.622-51.906-4.495-68.832-6.914c-0.167,0.314-0.332,0.626-0.498,0.938
					c16.964,2.432,41.251,5.338,69.256,6.973c13.055,0.762,27.632,1.281,43.141,1.281c30.776,0,65.194-2.051,98.523-8.294
					c-0.032-0.344-0.064-0.686-0.097-1.026C166.465,168.056,119.929,172.24,59.114,168.692z"/>
				<path style="fill:#1A2E5C;" d="M59.114,181.586c-31.461-1.836-58.221-5.277-75.16-7.846c-0.165,0.314-0.33,0.626-0.493,0.936
					c16.943,2.577,43.878,6.056,75.579,7.907c13.055,0.762,27.632,1.281,43.141,1.281c31.043,0,65.792-2.085,99.391-8.456
					c-0.016-0.346-0.034-0.69-0.05-1.034C167.298,180.877,120.471,185.168,59.114,181.586z"/>
			</g>
		</g>
		<g style="clip-path:url(#SVGID_00000029032728480159469480000016812107298179124925_);">
			<path style="fill:#F76300;" d="M347.06,440.477c-4.943-13.781-6.665-42.188-10.682-53.719
				c-4.018-11.531-7.174-46.406-11.336-61.031c-4.161-14.625-4.659-26.719-7.567-32.625c-2.908-5.906-3.482-16.229-3.482-16.229
				h-56.822H200.35c0,0-0.574,10.322-3.482,16.229c-2.908,5.906-3.406,18-7.567,32.625c-4.161,14.625-7.318,49.5-11.336,61.031
				c-4.018,11.531-5.74,39.937-10.682,53.719c-4.943,13.781-13.424,71.156-13.424,71.156h68.014
				c5.166-12.375,5.166-28.125,7.748-41.062c2.583-12.938,4.305-22.781,10.044-35.156c5.74-12.375,4.018-35.438,9.183-45
				c5.166-9.562,8.322-25.875,8.322-25.875s3.157,16.313,8.322,25.875c5.166,9.563,3.444,32.625,9.183,45
				c5.74,12.375,7.462,22.219,10.044,35.156c2.583,12.937,2.583,28.687,7.748,41.062h68.014
				C360.484,511.633,352.003,454.259,347.06,440.477z"/>
			<path style="fill:#C24E00;" d="M250.89,306.04c24.856,0.209,54.354,0.265,70.43,3.044c-1.266-6.951-2.146-12.529-3.845-15.982
				c-2.908-5.906-3.482-16.229-3.482-16.229h-56.822H200.35c0,0-0.574,10.322-3.482,16.229c-1.003,2.036-1.717,4.822-2.396,8.18
				C202.558,302.622,224.486,305.818,250.89,306.04z"/>
			<g>
				<path style="fill:#803300;" d="M256.918,364.54c-0.154-3.539-0.223-7.078-0.335-10.617l-0.195-10.617
					c-0.133-7.078-0.108-14.156-0.17-21.234c-0.012-7.078,0.023-14.156,0.139-21.234l0.202-10.617
					c0.119-3.539,0.192-7.078,0.358-10.617h0.507c0.166,3.539,0.239,7.078,0.358,10.617l0.202,10.617
					c0.116,7.078,0.151,14.156,0.139,21.234c-0.062,7.078-0.036,14.156-0.17,21.234l-0.195,10.617
					c-0.112,3.539-0.181,7.078-0.335,10.617H256.918z"/>
			</g>
			<g>
				<path style="fill:#803300;" d="M250.298,279.634c-0.089,8.966-0.345,17.876-0.024,26.716c0.181,4.413,0.5,8.81,1.198,13.084
					c0.361,2.131,0.846,4.233,1.641,6.17c0.801,1.911,2.011,3.693,4.096,4.374l-0.075,0.501c-1.183-0.013-2.413-0.459-3.384-1.219
					c-0.979-0.753-1.779-1.704-2.399-2.726c-1.271-2.04-2.032-4.282-2.616-6.515c-0.563-2.244-0.936-4.511-1.159-6.781
					c-0.26-2.267-0.333-4.539-0.388-6.802c-0.093-4.529,0.139-9.039,0.559-13.522c0.452-4.481,1.061-8.94,2.048-13.342
					L250.298,279.634z"/>
			</g>
			<g>
				<path style="fill:#803300;" d="M304.685,294.319c-0.083,3.877-0.186,7.519,0.079,11.084c0.129,1.777,0.341,3.54,0.815,5.23
					c0.466,1.69,1.14,3.302,1.996,4.815c0.849,1.524,1.995,2.856,3.25,4.093c0.609,0.643,1.333,1.165,2.022,1.734
					c0.753,0.484,1.46,1.049,2.263,1.48c3.139,1.837,6.68,3.131,10.352,4.126l-0.076,0.501c-3.839-0.13-7.729-0.873-11.372-2.492
					c-0.931-0.361-1.791-0.885-2.672-1.37c-0.833-0.567-1.703-1.095-2.472-1.768c-1.593-1.272-2.987-2.83-4.104-4.565
					c-2.272-3.469-3.345-7.596-3.526-11.609c-0.083-4.027,0.793-8.045,2.967-11.427L304.685,294.319z"/>
			</g>
			<g>
				<path style="fill:#803300;" d="M210.056,294.153c1.82,3.484,2.553,7.44,2.448,11.401c-0.148,3.951-1.22,7.98-3.401,11.391
					c-1.078,1.706-2.435,3.235-3.978,4.507c-0.745,0.671-1.594,1.2-2.406,1.769c-0.863,0.486-1.7,1.021-2.613,1.394
					c-1.769,0.867-3.65,1.425-5.527,1.892c-0.943,0.218-1.897,0.373-2.84,0.56c-0.953,0.133-1.913,0.212-2.863,0.318l-0.076-0.501
					c0.92-0.236,1.832-0.489,2.747-0.705c0.898-0.287,1.803-0.54,2.684-0.852c0.865-0.358,1.759-0.633,2.588-1.054l1.262-0.577
					c0.415-0.201,0.809-0.443,1.213-0.661c0.821-0.419,1.551-0.973,2.323-1.456c0.709-0.567,1.455-1.088,2.087-1.733
					c1.305-1.237,2.488-2.599,3.376-4.152c0.897-1.541,1.601-3.194,2.08-4.924c0.486-1.73,0.719-3.528,0.855-5.34
					c0.243-3.632-0.003-7.335-0.44-11.11L210.056,294.153z"/>
			</g>
			<g>
				<path style="fill:#803300;" d="M236.965,349.298c1.947-0.55,3.909-1,5.885-1.405c1.975-0.403,3.956-0.794,5.951-1.09
					c3.99-0.6,8.006-1.054,12.04-1.329c4.034-0.267,8.089-0.311,12.138-0.144c4.034,0.18,8.161,0.333,11.968,2.076l-0.085,0.5
					c-2.082,0.318-4.047,0.121-6.04,0.059c-0.992-0.06-1.976-0.188-2.966-0.265l-2.976-0.176c-3.971-0.169-7.957-0.239-11.942-0.07
					c-3.986,0.119-7.976,0.361-11.952,0.78c-3.978,0.393-7.955,0.903-11.903,1.558L236.965,349.298z"/>
			</g>
			<g>
				<path style="fill:#803300;" d="M278.718,355.806c-4.727-0.988-9.501-1.789-14.282-2.437c-4.779-0.671-9.592-1.098-14.4-1.19
					c-2.406-0.067-4.805,0.061-7.189,0.278c-1.195,0.121-2.389,0.284-3.561,0.483c-0.579,0.107-1.171,0.224-1.684,0.403
					c-0.126,0.044-0.244,0.096-0.326,0.143c-0.04,0.022-0.062,0.047-0.047,0.027c0.022-0.002,0.082-0.207,0.015-0.289
					c-0.08-0.105,0.025,0.014,0.125,0.042c0.107,0.048,0.238,0.091,0.369,0.129c2.237,0.544,4.713,0.592,7.094,0.629
					c2.395-0.014,4.83-0.11,7.128-0.71l0.146,0.486c-2.376,0.708-4.827,0.884-7.262,0.986c-1.22,0.043-2.441,0.03-3.663-0.034
					c-1.226-0.075-2.437-0.154-3.693-0.462c-0.16-0.044-0.319-0.09-0.49-0.163c-0.169-0.096-0.36-0.11-0.6-0.477
					c-0.137-0.217-0.051-0.593,0.072-0.711c0.11-0.138,0.21-0.206,0.298-0.263c0.178-0.109,0.339-0.178,0.497-0.238
					c0.627-0.232,1.227-0.356,1.835-0.482c1.211-0.238,2.418-0.402,3.631-0.534c2.436-0.239,4.88-0.384,7.317-0.332
					c4.879,0.028,9.729,0.54,14.534,1.255c4.803,0.742,9.565,1.705,14.258,2.969L278.718,355.806z"/>
			</g>
			<g>
				<path style="fill:#803300;" d="M272.328,337.598c-4.632,1.742-9.388,2.997-14.165,4.172c-2.388,0.591-4.782,1.153-7.189,1.671
					c-2.4,0.541-4.813,1.035-7.24,1.47l-0.126-0.491c2.338-0.784,4.692-1.508,7.057-2.186c2.359-0.701,4.73-1.358,7.108-1.986
					c4.754-1.263,9.529-2.445,14.429-3.141L272.328,337.598z"/>
			</g>
			<g>
				<path style="fill:#803300;" d="M194.724,326.588c-1.572,7.642-2.924,15.386-3.882,23.127c-0.242,1.936-0.434,3.874-0.603,5.811
					c-0.168,1.97-0.351,3.946-0.573,5.91c-0.439,3.932-0.98,7.848-1.603,11.748c-1.253,7.8-2.812,15.549-4.78,23.207
					c-1.011,3.853-2.096,7.555-2.837,11.391c-0.776,3.823-1.378,7.692-1.929,11.576c-0.553,3.884-1.04,7.788-1.654,11.693
					c-0.298,1.952-0.657,3.904-1.08,5.851c-0.418,1.95-1.038,3.886-1.668,5.739c-2.55,7.44-4.989,14.893-6.984,22.483
					c-2.01,7.581-3.659,15.263-4.747,23.032c-1.082,7.765-1.61,15.624-1.242,23.464l-0.506,0.028
					c-0.483-7.873-0.065-15.782,0.911-23.603c0.981-7.824,2.529-15.57,4.439-23.217c1.893-7.652,4.243-15.193,6.685-22.664
					c0.607-1.878,1.163-3.7,1.544-5.604c0.385-1.901,0.71-3.823,0.978-5.762c0.552-3.873,0.984-7.78,1.483-11.688
					c0.497-3.909,1.048-7.822,1.781-11.718c0.694-3.9,1.766-7.771,2.696-11.536c1.838-7.603,3.275-15.311,4.405-23.055
					c0.562-3.873,1.042-7.757,1.42-11.646c0.192-1.946,0.344-3.888,0.482-5.838c0.144-1.983,0.313-3.961,0.53-5.929
					c0.861-7.882,2.106-15.664,3.591-23.447L194.724,326.588z"/>
			</g>
			<g>
				<path style="fill:#803300;" d="M318.778,326.004c1.495,7.769,2.752,15.547,3.625,23.415c0.22,1.966,0.392,3.94,0.538,5.918
					c0.141,1.952,0.297,3.897,0.492,5.844c0.385,3.893,0.872,7.78,1.44,11.655c1.144,7.749,2.595,15.46,4.447,23.067
					c0.939,3.772,2.013,7.627,2.713,11.522c0.738,3.889,1.295,7.798,1.798,11.705c0.505,3.906,0.944,7.813,1.502,11.688
					c0.271,1.94,0.6,3.863,0.989,5.768c0.385,1.907,0.947,3.738,1.556,5.613c2.454,7.467,4.815,15,6.72,22.647
					c1.923,7.641,3.482,15.382,4.476,23.203c0.989,7.817,1.419,15.723,0.949,23.598l-0.506-0.028
					c0.381-7.839-0.134-15.701-1.204-23.469c-1.075-7.772-2.712-15.46-4.71-23.046c-1.982-7.596-4.411-15.056-6.948-22.501
					c-0.627-1.856-1.241-3.783-1.655-5.729c-0.419-1.943-0.774-3.893-1.069-5.844c-0.607-3.902-1.088-7.807-1.634-11.693
					c-0.544-3.887-1.14-7.759-1.911-11.589c-0.735-3.842-1.818-7.559-2.82-11.405c-1.954-7.654-3.499-15.399-4.738-23.195
					c-0.616-3.898-1.15-7.811-1.582-11.739c-0.219-1.963-0.398-3.935-0.563-5.903c-0.166-1.941-0.356-3.883-0.594-5.822
					c-0.946-7.755-2.286-15.502-3.847-23.158L318.778,326.004z"/>
			</g>
			<rect x="233.362" y="119.853" style="fill:#FFD147;" width="46.091" height="160.968"/>
			<path style="fill:none;stroke:#FFFFFF;stroke-width:3;stroke-miterlimit:10;" d="M223.89,138.978h65.246v10.594l-63.746,1.875
				l2.156,15.656l60.657,3.516l-2.186,13.547h-56.284c0,0-0.158,12.281,0,13.406c0.157,1.125,55.892,6.75,55.892,6.75v14.231
				l-58.078-2.231v18l66.469,2.087l-1.875,13.663l-64.594,4.43l-1.781,15.82h62.438"/>
			<path style="fill:#FF9B82;" d="M244.006,89.384l-1.252,23.531l-8.011,2.625c0,0,3.497,16.875,24.481,16.875
				c20.983,0,21.173-17.719,21.173-17.719l-7.373-1.781l-1.323-22.406L244.006,89.384z"/>
			<path style="fill:#FF6969;" d="M272.531,104.573l-0.831-14.063l-27.694-1.125l-0.421,7.913c3.191,3.638,6.865,5.051,9.368,10.368
				C255.953,114.04,266.516,112.167,272.531,104.573z"/>
			<path style="fill:#610000;" d="M277.89,78.884c0,0,1.5-6.562,5.719-9.656c4.219-3.094,7.875-9.562,3.656-15.187
				c-4.219-5.625-8.542-4.687-12.24-10.875c-3.698-6.188-16.166-11.906-25.916,1.688c-11.437,0-16.781,7.219-15.937,13.547
				c0.844,6.328,3.281,9.516,3.656,11.203s1.5,7.866,1.5,7.866L277.89,78.884z"/>
			<path style="fill:#EB8065;" d="M242.422,77.777c0,0-1.651-5.796-4.366-6.053c-2.715-0.257-3.558,9.648-0.77,11.042
				c2.788,1.394,5.686-0.88,5.686-0.88L242.422,77.777z"/>
			<path style="fill:#EB8065;" d="M273.936,77.777c0,0,1.651-5.796,4.365-6.053c2.715-0.257,3.558,9.648,0.77,11.042
				c-2.788,1.394-5.686-0.88-5.686-0.88L273.936,77.777z"/>
			<path style="fill:#FF9B82;" d="M241.75,68.244c0,0,0,8.578,0,16.453s8.719,19.266,15.609,19.266
				c6.891,0,15.891-8.438,16.734-17.859c0.844-9.422,1.969-10.266-0.984-13.641c-2.953-3.375-4.5-1.969-8.016-8.156
				c-3.516-6.187-11.531-0.141-14.766-5.906C250.328,58.4,246.672,66.415,241.75,68.244z"/>
			<g>
				<path style="fill:#B3614C;" d="M250.596,85.28c0.978,0.805,2.158,1.46,3.376,1.888c1.223,0.433,2.518,0.665,3.807,0.617
					c1.281-0.056,2.575-0.252,3.767-0.77c0.621-0.186,1.168-0.557,1.754-0.829c0.561-0.326,1.089-0.714,1.635-1.066l0.592,0.806
					c-0.586,0.367-1.152,0.766-1.755,1.103c-0.633,0.285-1.221,0.664-1.896,0.858c-1.289,0.531-2.702,0.729-4.089,0.762
					c-1.398,0.016-2.787-0.271-4.079-0.765c-1.299-0.499-2.491-1.191-3.562-2.118L250.596,85.28z"/>
			</g>
			<path style="fill:none;stroke:#B3614C;stroke-miterlimit:10;" d="M263.402,84.257c0,0,1.875,0.974,2.344,2.62"/>
			<path style="fill:#FF6969;" d="M260.101,92.236c0,0.392-1.133,0.71-2.531,0.71c-1.398,0-2.531-0.318-2.531-0.71
				c0-0.392,1.133-0.71,2.531-0.71C258.968,91.526,260.101,91.844,260.101,92.236z"/>
			<g>
				<g>
					<path style="fill:none;stroke:#142245;stroke-width:1.0903;stroke-miterlimit:10;" d="M256.329,74.272
						c0,3.342-2.283,6.051-5.098,6.051s-5.098-2.709-5.098-6.051c0-3.342,2.283-6.051,5.098-6.051S256.329,70.93,256.329,74.272z"/>
					<path style="fill:none;stroke:#142245;stroke-width:1.0903;stroke-miterlimit:10;" d="M270.483,74.272
						c0,3.342-2.283,6.051-5.098,6.051c-2.816,0-5.098-2.709-5.098-6.051c0-3.342,2.283-6.051,5.098-6.051
						C268.2,68.221,270.483,70.93,270.483,74.272z"/>
					<path style="fill:none;stroke:#142245;stroke-width:1.0903;stroke-miterlimit:10;" d="M256.315,73.881c0,0,1.594-1.74,3.971,0"
						/>
				</g>
				
					<line style="fill:none;stroke:#142245;stroke-width:1.0903;stroke-miterlimit:10;" x1="246.292" y1="72.775" x2="239.879" y2="72.775"/>
				
					<line style="fill:none;stroke:#142245;stroke-width:1.0903;stroke-miterlimit:10;" x1="276.478" y1="72.775" x2="270.483" y2="72.775"/>
			</g>
			<g>
				<path style="fill:#9E0000;" d="M251.979,73.743c0,1.286-0.598,2.328-1.335,2.328c-0.737,0-1.335-1.043-1.335-2.328
					c0-1.286,0.598-2.328,1.335-2.328C251.381,71.415,251.979,72.457,251.979,73.743z"/>
				<path style="fill:#9E0000;" d="M248.429,72.287c0,0,1.969-1.969,4.605,0C250.679,72.111,250.164,72.009,248.429,72.287z"/>
			</g>
			<g>
				<ellipse style="fill:#9E0000;" cx="265.088" cy="73.743" rx="1.335" ry="2.329"/>
				<path style="fill:#9E0000;" d="M267.302,72.287c0,0-1.969-1.969-4.605,0C265.052,72.111,265.567,72.009,267.302,72.287z"/>
			</g>
			<path style="fill:none;stroke:#9E0000;stroke-miterlimit:10;" d="M246.859,66.978c0,0,4.219-3.937,8.578,0.375"/>
			<path style="fill:none;stroke:#9E0000;stroke-miterlimit:10;" d="M261.226,66.978c0,0,4.219-3.937,8.578,0.375"/>
			<g>
				<path style="fill:#9E0000;" d="M268.01,42.119c0.907,0.793,1.574,1.838,2.092,2.895c0.519,1.063,0.916,2.151,1.43,3.148
					c0.514,0.995,1.104,1.925,1.871,2.696c0.752,0.792,1.66,1.29,2.71,1.731c2.069,0.872,4.369,1.49,6.425,2.808
					c1.008,0.675,1.927,1.552,2.543,2.634c0.593,1.104,0.781,2.338,0.794,3.523l-0.5,0.019c-0.176-1.112-0.433-2.199-1.036-3.103
					c-0.592-0.901-1.427-1.612-2.372-2.167c-1.885-1.157-4.143-1.688-6.321-2.629c-0.545-0.248-1.09-0.51-1.616-0.844
					c-0.527-0.333-1.025-0.757-1.437-1.194c-0.86-0.881-1.498-1.951-1.974-3.042c-0.968-2.173-1.424-4.448-2.959-6.118
					L268.01,42.119z"/>
			</g>
			<g>
				<path style="fill:#9E0000;" d="M268.574,49.568c0.451,1.975,0.956,4.002,2.174,5.499c0.611,0.736,1.381,1.316,2.257,1.723
					c0.854,0.403,1.876,0.655,2.854,1.044c1.95,0.727,3.885,1.805,5.288,3.486c0.682,0.847,1.188,1.835,1.482,2.874
					c0.272,1.049,0.305,2.125,0.222,3.171l-0.5-0.023c-0.05-1.004-0.158-1.994-0.478-2.919c-0.319-0.921-0.814-1.766-1.459-2.483
					c-1.26-1.483-3.077-2.403-4.929-3.149c-0.923-0.386-1.907-0.633-2.908-1.116c-0.985-0.46-1.874-1.178-2.529-2.058
					c-1.326-1.786-1.7-3.938-1.968-5.962L268.574,49.568z"/>
			</g>
			<g>
				<path style="fill:#9E0000;" d="M240.017,51.56c-0.852,0.796-1.507,1.856-1.961,2.944c-0.453,1.101-0.723,2.278-0.814,3.476
					c-0.163,1.195-0.054,2.413,0.031,3.629l0.253,1.824c0.112,0.607,0.243,1.211,0.34,1.829l-0.478,0.146
					c-0.226-0.591-0.417-1.197-0.628-1.8c-0.151-0.618-0.294-1.242-0.427-1.869c-0.184-1.268-0.296-2.563-0.168-3.862
					c0.148-1.289,0.437-2.588,1.031-3.766c0.6-1.169,1.395-2.247,2.547-2.968L240.017,51.56z"/>
			</g>
			<g>
				<path style="fill:#9E0000;" d="M240.12,56.543c-0.149,0.788-0.234,1.617-0.272,2.432c-0.053,0.818-0.038,1.639,0.011,2.457
					c0.098,1.637,0.426,3.253,0.918,4.824l-0.469,0.174c-0.307-0.789-0.594-1.594-0.77-2.428c-0.205-0.827-0.308-1.675-0.376-2.523
					c-0.074-0.849-0.048-1.703,0.013-2.551c0.079-0.85,0.211-1.684,0.463-2.519L240.12,56.543z"/>
			</g>
			<line style="fill:none;stroke:#EB6F50;stroke-miterlimit:10;" x1="263.402" y1="120.647" x2="273.481" y2="118.728"/>
			<path style="fill:#610000;" d="M245.723,285.255c-0.317,7.426-2.286,13.895-2.286,13.895l-51.795-2.672l3.279-13.781
				L245.723,285.255z"/>
			<path style="fill:#610000;" d="M270.027,285.255c0.317,7.426,2.286,13.895,2.286,13.895l51.795-2.672l-3.279-13.781
				L270.027,285.255z"/>
			<path style="fill:#D12233;" d="M247.984,138.978c0,0,1.818,9.202,0,20.943c-1.818,11.742-2.91,22.664-1.545,34.132
				c1.365,11.468,0.14,29.763-0.613,38.501c-0.753,8.738,2.898,25.667,1.483,37.409c-1.416,11.741-1.586,15.291-1.586,15.291
				s-31.505,0-46.25,0c-14.745,0-5.734-7.1-5.734-15.018s-3.277-6.826-0.819-16.656c2.458-9.83-6.28-13.653-6.007-27.852
				l-19.835-94.907c0,0,33.441-13.858,54.187-15.375C221.265,115.447,244.89,130.259,247.984,138.978z"/>
			<polygon style="fill:#610000;" points="195.062,169.915 227.547,167.103 227.547,170.618 195.062,173.572 			"/>
			<g>
				<path style="fill:#A61B28;" d="M199.659,202.762c-1.411,3.989-3.092,7.855-4.879,11.676c-1.804,3.812-3.747,7.559-5.826,11.231
					l-0.722-0.416c2.115-3.627,4.099-7.331,5.945-11.104c1.828-3.778,3.558-7.62,5.006-11.55L199.659,202.762z"/>
			</g>
			<g>
				<path style="fill:#A61B28;" d="M190.892,227.056c1.083-2.92,2.24-5.808,3.529-8.648c0.632-1.425,1.31-2.831,2.046-4.216
					c0.756-1.382,1.469-2.759,2.587-4.035c0.145-0.159,0.314-0.314,0.518-0.462c0.207-0.131,0.476-0.328,0.927-0.277
					c0.476,0.031,0.771,0.461,0.856,0.742c0.093,0.294,0.097,0.538,0.091,0.768c-0.049,0.902-0.289,1.658-0.531,2.422
					c-0.508,1.509-1.127,2.949-1.803,4.362c-0.685,1.408-1.414,2.789-2.186,4.148c-0.391,0.677-0.8,1.344-1.227,2.002
					c-0.214,0.329-0.433,0.655-0.668,0.976c-0.118,0.16-0.24,0.317-0.375,0.473c-0.068,0.078-0.139,0.156-0.221,0.234
					c-0.044,0.039-0.088,0.079-0.155,0.122c-0.027,0.02-0.089,0.049-0.147,0.065c-0.1,0.026-0.237-0.001-0.33-0.124l0.411-0.288
					c-0.058-0.083-0.151-0.098-0.199-0.083c-0.014-0.003-0.029,0.011-0.018,0l0.066-0.066c0.053-0.061,0.108-0.131,0.162-0.205
					c0.108-0.147,0.21-0.307,0.31-0.468c0.204-0.32,0.397-0.652,0.586-0.987c0.378-0.67,0.733-1.356,1.084-2.043
					c0.71-1.371,1.377-2.765,1.997-4.176c0.62-1.409,1.229-2.828,1.687-4.272c0.222-0.713,0.427-1.465,0.449-2.118
					c0.005-0.158-0.012-0.308-0.04-0.384c-0.036-0.072-0.02-0.02,0.047,0.009c0.065-0.014-0.035,0.006-0.143,0.085
					c-0.107,0.079-0.234,0.183-0.349,0.31c-0.949,1.051-1.721,2.439-2.459,3.77c-0.732,1.353-1.422,2.737-2.109,4.123
					c-1.347,2.785-2.66,5.6-3.927,8.429L190.892,227.056z"/>
			</g>
			<g>
				<path style="fill:#A61B28;" d="M207.094,246.257c-1.323,3.222-3.01,6.25-4.878,9.177c-0.95,1.453-1.942,2.889-3.085,4.22
					c-1.162,1.3-2.406,2.629-4.071,3.425l-0.275-0.42c1.138-1.228,2.084-2.619,3.06-4.003l2.903-4.198
					c1.927-2.822,3.832-5.676,5.909-8.446L207.094,246.257z"/>
			</g>
			<path style="fill:none;stroke:#610000;stroke-width:0.502;stroke-miterlimit:10;" d="M241.922,134.197
				c0,0,4.468,13.5,2.218,26.063s-4.5,18.937-3.375,29.812s3.897,25.781,1.854,35.391c-2.042,9.609-2.27,19.219,0,29.039
				c2.271,9.82-2.154,30.754-2.154,30.754"/>
			<path style="fill:none;stroke:#FFFFFF;stroke-width:0.502;stroke-miterlimit:10;" d="M237.578,131.384c0,0,2.25,5.531,1.5,10.781
				s-3.375,10.5-2.438,15.75s-0.563,11.25-2.344,15.656c-1.781,4.406-0.469,10.594-0.469,10.594"/>
			<g>
				<path style="fill:#9E2E39;" d="M167.078,130.822c-22.125,9.938-44.086,92.25-44.086,92.25s-19.5,17.812-13.781,36
					c4.476,14.234,1.547,31.922,16.594,35.719c11.557,2.916,36-5.906,41.906-14.063c3.194-4.411,6.609-10.266,4.5-16.594
					c3.375-0.563,3.473-5.274,1.406-9.633c0,0,9-21.867,14.344-30.305C193.304,215.759,197.172,152.478,167.078,130.822z"/>
				<g>
					<path style="fill:#610000;" d="M168.459,256.561c-2.509-1.526-5.198-2.901-7.904-4.147c-2.721-1.229-5.494-2.369-8.349-3.245
						c-2.853-0.868-5.76-1.61-8.726-1.945c-2.96-0.319-5.966-0.313-8.897,0.278l-0.118-0.488c2.973-0.731,6.055-0.868,9.1-0.667
						c3.05,0.216,6.046,0.848,8.995,1.613c2.952,0.773,5.82,1.813,8.646,2.95c2.825,1.162,5.576,2.422,8.289,3.92L168.459,256.561z"
						/>
				</g>
				<g>
					<path style="fill:#610000;" d="M163.89,250.702c-0.958-1.863-2.109-3.743-3.308-5.531c-1.214-1.792-2.511-3.533-3.927-5.173
						c-1.427-1.627-2.949-3.175-4.619-4.556c-1.689-1.351-3.515-2.536-5.506-3.416l0.176-0.47c2.111,0.736,4.095,1.806,5.951,3.061
						c1.835,1.285,3.533,2.753,5.139,4.313c1.594,1.572,3.073,3.256,4.473,5.003c1.397,1.763,2.702,3.545,3.921,5.508
						L163.89,250.702z"/>
				</g>
				<g>
					<path style="fill:#610000;" d="M149.113,221.929c1.958,2.897,4.019,5.764,6.18,8.531c1.079,1.387,2.192,2.746,3.357,4.056
						c1.168,1.304,2.368,2.593,3.726,3.681l-0.298,0.404c-1.478-1.024-2.783-2.245-4.06-3.482c-1.273-1.244-2.492-2.537-3.679-3.858
						c-2.379-2.642-4.642-5.363-6.842-8.172L149.113,221.929z"/>
				</g>
				<path style="fill:#FF9B82;" d="M210.693,309.841c0,0-39.764-39.387-48.467-47.551c-10.477-9.828-50.484,8.031-36.609,28.281
					c13.875,20.25,76.043,32.16,76.043,32.16S208.234,319.915,210.693,309.841z"/>
				<path style="fill:#FF6969;" d="M136.305,281.384c-6.804,4.721-8.664,9.03-7.576,12.852c-1.206-1.189-2.253-2.411-3.112-3.665
					c-13.875-20.25,26.133-38.109,36.609-28.281c2.648,2.484,8.23,7.917,14.714,14.272l0,0
					C170.804,281.196,145.492,275.009,136.305,281.384z"/>
			</g>
			<path style="fill:#D12233;" d="M267.766,138.978c0,0-1.818,9.202,0,20.943c1.818,11.742,2.91,22.664,1.545,34.132
				s-0.14,29.763,0.613,38.501c0.753,8.738-2.899,25.667-1.483,37.409c1.416,11.741,1.586,15.291,1.586,15.291s31.505,0,46.25,0
				c14.745,0,5.734-7.1,5.734-15.018s3.277-6.826,0.819-16.656c-2.458-9.83,6.28-13.653,6.007-27.852l19.835-94.907
				c0,0-33.441-13.858-54.187-15.375C294.485,115.447,270.86,130.259,267.766,138.978z"/>
			<polygon style="fill:#610000;" points="320.688,169.915 288.203,167.103 288.203,170.618 320.688,173.572 			"/>
			<g>
				<path style="fill:#A61B28;" d="M316.566,202.6c1.507,3.908,3.294,7.722,5.177,11.469c1.901,3.741,3.937,7.41,6.103,10.997
					l-1.378,0.793c-2.028-3.712-3.919-7.494-5.668-11.339c-1.732-3.853-3.357-7.747-4.708-11.758L316.566,202.6z"/>
			</g>
			<g>
				<path style="fill:#A61B28;" d="M324.392,227.243c-1.181-2.865-2.424-5.712-3.747-8.514c-0.663-1.401-1.349-2.79-2.083-4.15
					c-0.742-1.342-1.501-2.728-2.487-3.83c-0.229-0.249-0.576-0.514-0.704-0.472c-0.107-0.046-0.227,0.271-0.2,0.628
					c0.033,0.707,0.251,1.457,0.482,2.179c0.48,1.453,1.094,2.874,1.743,4.275c0.653,1.4,1.353,2.781,2.094,4.136
					c0.371,0.677,0.753,1.349,1.153,2.005c0.2,0.328,0.405,0.652,0.619,0.963c0.107,0.155,0.216,0.309,0.328,0.448
					c0.056,0.07,0.113,0.135,0.165,0.188c0.025,0.023,0.05,0.046,0.055,0.048c0.009,0.008-0.021-0.017-0.05-0.018
					c-0.046-0.014-0.102-0.012-0.146,0.005c-0.062,0.012-0.136,0.062-0.168,0.119l0.592,0.414c-0.052,0.071-0.145,0.137-0.226,0.162
					c-0.068,0.016-0.15,0.018-0.219,0.003c-0.073-0.02-0.15-0.06-0.179-0.082c-0.076-0.051-0.121-0.096-0.166-0.14
					c-0.084-0.086-0.153-0.168-0.218-0.25c-0.13-0.164-0.245-0.328-0.357-0.493c-0.224-0.33-0.432-0.663-0.635-1
					c-0.405-0.672-0.786-1.353-1.158-2.04c-0.741-1.374-1.438-2.77-2.09-4.188c-0.647-1.421-1.26-2.859-1.746-4.359
					c-0.233-0.755-0.46-1.512-0.498-2.361c-0.004-0.214,0.004-0.437,0.084-0.683c0.075-0.235,0.303-0.555,0.657-0.573
					c0.336-0.042,0.568,0.115,0.752,0.234c0.182,0.133,0.342,0.276,0.48,0.428c1.081,1.226,1.807,2.606,2.56,3.976
					c0.733,1.378,1.415,2.779,2.072,4.189c1.313,2.823,2.54,5.679,3.709,8.563L324.392,227.243z"/>
			</g>
			<g>
				<path style="fill:#A61B28;" d="M309.094,246.011c2.117,2.746,4.054,5.58,6.001,8.384l2.922,4.173
					c0.976,1.383,1.875,2.781,2.948,4.09l-0.275,0.42c-1.73-0.714-3.02-2.037-4.183-3.338c-1.149-1.333-2.115-2.79-3.066-4.245
					c-1.848-2.945-3.503-5.993-4.785-9.239L309.094,246.011z"/>
			</g>
			<path style="fill:none;stroke:#FFFFFF;stroke-width:0.502;stroke-miterlimit:10;" d="M278.172,131.384c0,0-2.25,5.531-1.5,10.781
				s3.375,10.5,2.438,15.75s0.563,11.25,2.344,15.656c1.781,4.406,0.469,10.594,0.469,10.594"/>
			<g>
				<path style="fill:#9E2E39;" d="M348.672,130.822c22.125,9.938,44.086,92.25,44.086,92.25s19.5,17.812,13.781,36
					c-4.476,14.234-1.547,31.922-16.594,35.719c-11.557,2.916-36-5.906-41.906-14.063c-3.194-4.411-6.609-10.266-4.5-16.594
					c-3.375-0.563-3.473-5.274-1.406-9.633c0,0-9-21.867-14.344-30.305C322.445,215.759,318.578,152.478,348.672,130.822z"/>
				<g>
					<path style="fill:#610000;" d="M345.924,254.277c2.786-1.478,5.562-2.688,8.429-3.811c2.863-1.094,5.766-2.09,8.748-2.815
						c2.98-0.718,6.001-1.3,9.07-1.464c3.063-0.149,6.155,0.044,9.115,0.828l-0.118,0.488c-2.944-0.538-5.94-0.489-8.882-0.117
						c-2.947,0.387-5.828,1.179-8.65,2.094c-2.825,0.923-5.564,2.108-8.248,3.379c-2.663,1.285-5.328,2.71-7.764,4.257
						L345.924,254.277z"/>
				</g>
				<g>
					<path style="fill:#610000;" d="M349.528,249.422c1.223-1.964,2.531-3.744,3.931-5.506c1.404-1.746,2.885-3.428,4.482-4.999
						c1.609-1.559,3.309-3.025,5.147-4.308c1.859-1.253,3.845-2.321,5.956-3.054l0.176,0.47c-1.99,0.884-3.814,2.071-5.5,3.424
						c-1.668,1.383-3.187,2.933-4.611,4.562c-1.413,1.642-2.707,3.384-3.917,5.177c-1.196,1.789-2.344,3.671-3.298,5.533
						L349.528,249.422z"/>
				</g>
				<g>
					<path style="fill:#610000;" d="M368.2,223.051c-2.19,2.814-4.444,5.541-6.814,8.189c-1.182,1.324-2.397,2.621-3.665,3.868
						c-1.273,1.241-2.573,2.465-4.048,3.493l-0.298-0.404c1.361-1.083,2.565-2.37,3.737-3.67c1.169-1.307,2.287-2.663,3.37-4.047
						c2.17-2.761,4.24-5.621,6.208-8.514L368.2,223.051z"/>
				</g>
				<path style="fill:#FF9B82;" d="M303.773,310.685c0,0,41.048-40.23,49.75-48.394c10.477-9.828,50.484,8.031,36.609,28.281
					c-13.875,20.25-75.942,32.936-75.942,32.936S306.578,320.735,303.773,310.685z"/>
				<path style="fill:#FF6969;" d="M379.445,281.384c6.804,4.721,8.664,9.03,7.576,12.852c1.206-1.189,2.253-2.411,3.112-3.665
					c13.875-20.25-26.133-38.109-36.609-28.281c-2.648,2.484-8.23,7.917-14.714,14.272l0,0
					C344.945,281.196,370.258,275.009,379.445,281.384z"/>
			</g>
			<g>
				<polygon style="fill:#B3614C;" points="257.542,75.772 256.511,83.302 255.951,82.699 260.096,82.576 260.146,83.154 
					256.04,83.738 255.349,83.837 255.481,83.135 256.887,75.665 				"/>
			</g>
			<path style="fill:#9E2E39;" d="M242.754,112.915c0,0-3.167,2.906,0,7.875c3.167,4.969,7.855,12.094,5.23,18.188
				c-4.406-5.156-6.656-5.625-15.562-6c-7.87-0.331-18.447-4.689-21.385-12.877c-0.717-1.999-0.211-4.246,1.23-5.806
				c5.698-6.166,8.655-3.154,12.374-7.38c4.125-4.688,11.992-10.204,18.887-8.524L242.754,112.915z"/>
			<path style="fill:#9E2E39;" d="M272.996,112.915c0,0,3.167,2.906,0,7.875c-3.167,4.969-7.855,12.094-5.23,18.188
				c4.406-5.156,6.656-5.625,15.562-6c7.87-0.331,18.447-4.689,21.385-12.877c0.717-1.999,0.211-4.246-1.23-5.806
				c-5.698-6.166-8.655-3.154-12.374-7.38c-4.125-4.688-11.992-10.204-18.887-8.524L272.996,112.915z"/>
		</g>
		<g style="clip-path:url(#SVGID_00000029032728480159469480000016812107298179124925_);">
			<polygon style="fill:#A7BEF2;" points="466.879,416.931 468.743,444.881 482.237,508.255 420.862,508.255 422.162,480.866 
				412.466,508.255 348.492,508.255 372.082,418.892 			"/>
			<path style="fill:#5F88E8;" d="M468.257,437.589l-1.378-20.658l-94.796,1.961l-7.802,29.555
				C392.156,456.29,449.317,439.879,468.257,437.589z"/>
			<g>
				<path style="fill:#4D6FBD;" d="M421.902,480.805c0.966-4.887,1.337-9.897,1.659-14.886c0.299-4.996,0.461-10.001,0.54-15.006
					c0.076-5.005,0.069-10.011-0.062-15.01c-0.136-4.996-0.354-9.998-0.869-14.934l1.993-0.194
					c0.402,5.051,0.497,10.079,0.511,15.107c0.009,5.027-0.107,10.049-0.306,15.067c-0.202,5.018-0.487,10.032-0.91,15.037
					c-0.447,5.001-0.938,10.01-2.038,14.942L421.902,480.805z"/>
			</g>
			<g>
				<path style="fill:#4D6FBD;" d="M432.537,420.094c0.124,3.927,0.177,7.855,0.268,11.782l0.152,11.782
					c0.031,1.964,0.047,3.927,0.05,5.891c-0.002,0.494,0.013,0.974-0.002,1.48l-0.081,1.546l-0.251,1.531
					c-0.119,0.503-0.271,0.999-0.408,1.498c-0.638,1.974-1.722,3.778-3.048,5.341c-0.652,0.794-1.396,1.503-2.168,2.174
					c-0.389,0.333-0.793,0.648-1.208,0.951c-0.213,0.145-0.419,0.297-0.639,0.437c-0.206,0.155-0.448,0.282-0.942-0.062
					l-0.251-0.471c-0.065-0.582,0.11-0.714,0.317-0.826c0.196-0.122,0.386-0.261,0.58-0.39c0.38-0.274,0.753-0.559,1.113-0.861
					c0.712-0.611,1.403-1.255,2.003-1.975c1.223-1.417,2.213-3.037,2.799-4.802c0.123-0.447,0.265-0.89,0.377-1.34l0.238-1.373
					l0.084-1.395c0.019-0.475,0.009-0.977,0.015-1.465c0.003-1.964,0.019-3.927,0.05-5.891l0.152-11.782
					c0.091-3.927,0.144-7.855,0.268-11.782H432.537z"/>
			</g>
			<g>
				<path style="fill:#4D6FBD;" d="M384.508,420.032c0.18,4.42-0.084,8.765-0.696,13.1c-0.62,4.322-1.661,8.608-3.341,12.664
					c-1.682,4.036-4.103,7.866-7.484,10.724c-1.696,1.411-3.608,2.55-5.642,3.382c-2.049,0.815-4.215,1.238-6.384,1.485
					l-0.052-0.531c2.118-0.291,4.216-0.751,6.178-1.584c1.949-0.851,3.761-1.988,5.36-3.381c3.185-2.819,5.437-6.56,6.982-10.517
					c1.542-3.976,2.466-8.184,2.976-12.43c0.504-4.238,0.661-8.569,0.392-12.787L384.508,420.032z"/>
			</g>
			<g>
				<path style="fill:#4D6FBD;" d="M459.535,417.215c-0.324,2.954-0.429,6.017-0.362,9.031c0.087,3.021,0.337,6.047,0.933,9.001
					c0.58,2.952,1.504,5.854,3.02,8.432c1.516,2.561,3.824,4.682,6.691,5.627l-0.154,0.51c-3.043-0.847-5.62-3.006-7.331-5.634
					c-1.716-2.642-2.806-5.622-3.54-8.642c-0.751-3.026-1.144-6.118-1.371-9.212c-0.204-3.105-0.24-6.183-0.036-9.334
					L459.535,417.215z"/>
			</g>
			<path style="fill:#239471;" d="M423.661,250.711c0,0,11.845,6.147,19.042,0c7.197-6.148,2.249-8.347,7.647-14.144
				c5.398-5.798,5.248-10.596,1.499-16.743c-3.748-6.147-2.999-6.597-1.949-10.196c1.05-3.598-0.9-8.097-8.846-10.346
				c-7.947-2.249-29.538-22.191-38.534-5.548c-19.492,7.047-19.042,20.242-16.643,25.04c2.399,4.798,6.697,6.347,7.947,13.194
				c1.25,6.847,7.347,15.594,11.695,16.943C409.867,250.261,423.661,250.711,423.661,250.711z"/>
			<g>
				<path style="fill:#1C4543;" d="M393.284,203.194c-0.964,1.416-1.768,2.969-2.447,4.541c-0.654,1.586-1.202,3.221-1.436,4.906
					c-0.232,1.681-0.182,3.387,0.233,5.016l0.385,1.201c0.145,0.395,0.374,0.753,0.557,1.134l0.282,0.57l0.373,0.516l0.751,1.038
					l-0.391,0.362c-1.201-1.311-2.28-2.821-2.774-4.591c-0.491-1.75-0.577-3.597-0.325-5.381c0.284-1.78,0.841-3.495,1.593-5.106
					c0.753-1.614,1.663-3.136,2.778-4.534L393.284,203.194z"/>
			</g>
			<g>
				<path style="fill:#1C4543;" d="M395.6,210.926c-0.615,0.894-1.015,1.993-1.245,3.077c-0.224,1.098-0.273,2.228-0.161,3.347
					c0.097,1.123,0.382,2.225,0.732,3.306c0.174,0.541,0.41,1.063,0.613,1.598l0.735,1.559l-0.461,0.267l-0.892-1.533
					c-0.238-0.543-0.508-1.074-0.719-1.631c-0.406-1.12-0.72-2.285-0.835-3.486c-0.094-1.198-0.049-2.421,0.249-3.596
					c0.297-1.176,0.779-2.292,1.58-3.255L395.6,210.926z"/>
			</g>
			<g>
				<path style="fill:#1C4543;" d="M401.177,215.157c-0.351,0.783-0.636,1.636-0.876,2.479c-0.256,0.845-0.437,1.71-0.603,2.577
					c-0.305,1.741-0.427,3.513-0.419,5.293l-0.532,0.03c-0.075-0.906-0.127-1.818-0.083-2.73c0.011-0.914,0.14-1.821,0.275-2.725
					c0.144-0.904,0.382-1.79,0.654-2.664c0.295-0.871,0.637-1.713,1.122-2.522L401.177,215.157z"/>
			</g>
			<g>
				<path style="fill:#1C4543;" d="M436.906,201.831c1.172,0.375,2.343,0.774,3.477,1.283c1.124,0.517,2.249,1.12,3.147,2.043
					c0.457,0.452,0.812,1.007,1.085,1.6c0.215,0.613,0.378,1.264,0.339,1.912c0.002,0.65-0.137,1.285-0.245,1.875
					c-0.112,0.602-0.216,1.204-0.304,1.806c-0.378,2.4-0.372,4.864,0.561,7.082c0.881,2.226,2.507,4.119,3.601,6.403
					c0.552,1.132,0.928,2.408,0.927,3.72c0.018,1.31-0.418,2.608-0.994,3.713c-0.566,1.129-1.282,2.179-2.049,3.156
					c-0.762,0.982-1.56,1.904-2.147,2.919c-0.575,1.021-0.89,2.132-0.939,3.331c-0.091,1.235-0.185,2.494-0.577,3.726
					c-0.357,1.226-1.149,2.422-2.283,3.09c-1.114,0.692-2.379,0.99-3.615,1.137l-0.071-0.531c1.189-0.179,2.367-0.511,3.329-1.156
					c0.975-0.629,1.603-1.64,1.924-2.761c0.339-1.122,0.416-2.341,0.483-3.552c0.019-1.262,0.371-2.586,1.012-3.704
					c0.645-1.119,1.466-2.065,2.204-3.026c0.747-0.958,1.419-1.952,1.952-3.024c0.554-1.067,0.936-2.163,0.936-3.325
					c0.013-1.151-0.3-2.301-0.81-3.378c-0.999-2.171-2.622-4.102-3.542-6.479c-0.46-1.176-0.734-2.437-0.783-3.698
					c-0.063-1.263,0.074-2.512,0.264-3.737c0.158-1.218,0.536-2.455,0.584-3.596c0.045-0.586-0.101-1.152-0.276-1.697
					c-0.229-0.527-0.527-1.031-0.937-1.457c-0.799-0.869-1.867-1.488-2.952-2.02c-1.096-0.527-2.246-0.953-3.403-1.357
					L436.906,201.831z"/>
			</g>
			<g>
				<path style="fill:#1C4543;" d="M442.197,221.149c0.503,1.069,1.292,2.051,1.924,3.102c0.649,1.047,1.309,2.107,1.765,3.301
					c0.212,0.604,0.414,1.233,0.395,1.958c-0.053,0.769-0.36,1.337-0.646,1.91c-0.614,1.115-1.335,2.111-1.992,3.136
					c-0.661,1.02-1.287,2.054-1.745,3.144c-0.24,0.542-0.413,1.1-0.561,1.662c-0.128,0.588-0.245,1.179-0.339,1.781
					c-0.209,1.198-0.327,2.44-0.741,3.664c-0.21,0.607-0.508,1.211-0.946,1.715c-0.433,0.51-1.003,0.882-1.597,1.134l-0.219-0.488
					c1.058-0.512,1.761-1.452,2.064-2.583c0.312-1.127,0.432-2.345,0.603-3.567c0.081-0.612,0.186-1.228,0.305-1.843
					c0.147-0.628,0.322-1.252,0.584-1.831c0.493-1.175,1.147-2.249,1.819-3.287c0.67-1.039,1.381-2.042,1.96-3.074
					c0.283-0.501,0.56-1.061,0.593-1.525c0.032-0.507-0.113-1.08-0.292-1.633c-0.407-1.106-0.931-2.208-1.514-3.281l-0.863-1.626
					c-0.275-0.553-0.582-1.09-0.745-1.72L442.197,221.149z"/>
			</g>
			<path style="fill:#F7CABC;" d="M398.921,232.943c0,0-1.949-5.773-5.623-5.173c-3.673,0.6,0.075,13.12,3.524,11.695
				c3.449-1.424,3.149-2.474,3.149-2.474l2.699,9.671v24.19l26.889-1.299l-2.199-17.693c0,0,6.797-4.898,7.797-10.995
				c1-6.098,0-10.995,0.7-17.093c0,0-3.898-1.1-5.298-4.798c-1.399-3.699-6.997-6.797-10.596-5.698
				c-3.598,1.1-8.696-1.599-11.395-5.598c0,0,0.1,6.697-3.099,10.496c-3.199,3.799-5.098,11.895-4.498,15.294
				C401.57,236.867,399.524,234.34,398.921,232.943z"/>
			<ellipse style="fill:#F76300;" cx="396.472" cy="238.816" rx="1.399" ry="2.249"/>
			<path style="fill:#F79999;" d="M427.36,251.861c-3.698,2.749-18.018,2.824-23.34-4.448c3.374,7.497,10.76,14.53,24.097,10.539
				L427.36,251.861z"/>
			<g>
				<path style="fill:#F79999;" d="M421.729,227.633c0.031,0.906,0.099,1.824,0.219,2.707c0.062,0.44,0.151,0.878,0.292,1.255
					c0.069,0.191,0.156,0.348,0.236,0.456c0.021,0.03,0.23,0.156,0.423,0.234c0.391,0.18,0.804,0.262,1.33,0.53
					c0.256,0.125,0.603,0.468,0.654,0.858c0.071,0.372-0.043,0.73-0.185,0.985c-0.3,0.521-0.721,0.845-1.162,1.097
					c-0.439,0.255-0.921,0.419-1.416,0.481l-0.141-0.516c0.766-0.363,1.532-0.914,1.856-1.519c0.076-0.147,0.088-0.26,0.075-0.345
					c-0.013-0.079-0.026-0.1-0.167-0.195c-0.291-0.165-0.785-0.304-1.232-0.514c-0.224-0.115-0.442-0.185-0.743-0.492
					c-0.199-0.261-0.315-0.522-0.386-0.771c-0.148-0.5-0.207-0.979-0.245-1.455c-0.076-0.952-0.039-1.885,0.056-2.822
					L421.729,227.633z"/>
			</g>
			<g>
				<path style="fill:#F79999;" d="M392.875,230.178c0.19-0.208,0.467-0.398,0.779-0.413c0.298-0.018,0.583,0.049,0.816,0.16
					c0.475,0.225,0.849,0.547,1.187,0.893c0.336,0.349,0.618,0.74,0.862,1.162c0.232,0.426,0.464,0.885,0.471,1.476
					c0.001,0.293-0.096,0.6-0.206,0.818c-0.108,0.224-0.193,0.387-0.231,0.552c-0.038,0.164-0.044,0.336-0.014,0.525l0.056,0.273
					c0.004,0.041,0.043,0.091,0.082,0.143c0.2,0.215,0.611,0.35,1.011,0.393c0.408,0.053,0.84,0.028,1.266-0.043l0.117,0.522
					c-0.459,0.122-0.938,0.2-1.435,0.184c-0.491-0.032-1.021-0.119-1.489-0.535c-0.109-0.116-0.219-0.248-0.276-0.427
					c-0.047-0.149-0.072-0.253-0.096-0.389c-0.046-0.257-0.049-0.547,0.012-0.825c0.06-0.279,0.187-0.522,0.271-0.708
					c0.087-0.189,0.121-0.328,0.121-0.49c-0.026-0.681-0.548-1.501-1.081-2.123c-0.274-0.319-0.588-0.612-0.925-0.795
					c-0.344-0.201-0.651-0.228-0.9,0.002L392.875,230.178z"/>
			</g>
			<g>
				<path style="fill:#F79999;" d="M415.94,240.83c0.977-0.565,2.003-0.967,3.071-1.281c1.063-0.321,2.169-0.493,3.28-0.578
					c1.112-0.102,2.237-0.014,3.337,0.174c1.104,0.183,2.162,0.578,3.162,1.05l-0.209,0.493c-1.023-0.3-2.033-0.614-3.085-0.718
					c-1.039-0.167-2.097-0.181-3.148-0.124c-2.1,0.118-4.208,0.636-6.15,1.455L415.94,240.83z"/>
			</g>
			<path style="fill:none;stroke:#F79999;stroke-width:1.0662;stroke-miterlimit:10;" d="M421.187,244.301c0,0,1.053-0.525,3.225,0"
				/>
			<path style="fill:#2A6966;" d="M410.017,221.848c1.613-0.218,5.473-0.712,6.56-0.787c1.087-0.075,1.312-1.499-0.75-1.499
				c-2.062,0-4.498,0.862-5.81,1.274C408.705,221.248,409.086,221.974,410.017,221.848z"/>
			<path style="fill:#1C4543;" d="M415.04,224.672c-0.125-0.275-1.106-0.387-2.052-0.196c-0.659,0.133-1.209,0.895-1.209,2.189
				s0.545,2.343,1.218,2.343c0.673,0,1.218-1.049,1.218-2.343c0-0.822-0.177-1.285-0.366-1.541
				C414.524,225.081,415.125,224.859,415.04,224.672z"/>
			<path style="fill:#2A6966;" d="M431.786,222.309c-1.613-0.218-5.473-0.712-6.56-0.787c-1.087-0.075-1.312-1.499,0.75-1.499
				c2.062,0,4.498,0.862,5.81,1.275C433.098,221.71,432.717,222.435,431.786,222.309z"/>
			<path style="fill:#1C4543;" d="M429.416,224.672c-0.125-0.275-1.106-0.387-2.052-0.196c-0.659,0.133-1.209,0.895-1.209,2.189
				s0.545,2.343,1.218,2.343c0.673,0,1.218-1.049,1.218-2.343c0-0.822-0.177-1.285-0.366-1.541
				C428.9,225.081,429.501,224.859,429.416,224.672z"/>
			<path style="fill:#D61BE3;" d="M402.67,263.831c0,4.273,26.604,3.434,26.178,0c0,0,5.159-0.425,5.684,2.899
				c0.525,3.324,0.45,5.648,0.45,5.648s27.464,14.769,43.657,28.763c16.193,13.994,25.589,36.585,29.988,53.178
				c4.398,16.593,18.592,57.176,18.592,57.176l43.982,48.18l-3.799,33.986c0,0-46.181-12.795-66.173-32.387
				c-19.992-19.592-31.587-53.178-31.587-53.178l1.199,15.194c0,0-14.994-1.599-20.991,1c-5.998,2.599-11.395,0.2-17.393-1.599
				c-5.997-1.799-8.396,1.199-18.192,2.199c-9.796,1-12.795-2.199-20.392-1.799c-7.597,0.4-17.015,4.533-27.411,0.735
				c0,0-8.774,25.104-29.966,30.052c-23.456,5.477-43.466-12.01-36.871-38.769c2.872-11.654-1.662-18.656,7.538-30.904
				c5.77-7.683,6.925-16.57,8.942-23.088c3.118-10.077,9.196-12.195,12.795-20.192s8.735-25.001,17.193-35.185
				c19.592-23.59,52.978-34.885,52.978-34.885S398.072,263.906,402.67,263.831z"/>
			<path style="fill:#F01EFF;" d="M384.477,345.878c0,0,1.799,3.754,15.594,0c13.794-3.755,16.793-2.155,24.19-1.156
				c7.397,1,14.194,2.38,20.591-1.209c6.397-3.589,8.197,0.825,15.194,2.017c6.997,1.191,14.818,0.348,14.818,0.348
				s4.934,15.095-2.943,32.859c0,0-7.677,1.771-16.473-0.828c-8.796-2.599-8.397-1.199-13.794,0
				c-5.398,1.199-14.194,0.368-21.991-2.415c-7.797-2.783-12.995-2.615-21.191,0c-8.197,2.615-16.348,2.415-16.348,2.415
				s1.954-11.895-0.445-15.993c2.432-6.109,4.878-7.981,4.878-7.981L384.477,345.878z"/>
			<path style="fill:#B417BF;" d="M393.873,423.09c7.597-0.4,10.596,2.799,20.392,1.799c9.796-1,12.195-3.998,18.192-2.199
				c5.249,1.574,10.038,3.608,15.172,2.35c-10.063-3.298-14.219-13.201-26.967-15.944c-15.793-3.399-24.39-14.794-27.788-30.359
				c-3.399-15.565-11.195-16.822-11.195-16.822c4.798,13.794-9.196,48.38-15.216,61.91
				C376.858,427.623,386.277,423.49,393.873,423.09z"/>
			<path style="fill:#1A2E5C;" d="M368.93,282.501l-6.04,4.528c14.362,13.891,23.489,34.008,25.044,55.192
				c1.028,14.02-1.262,27.378-6.399,38.534c-0.802,2.888-4.78,17.17-5.823,20.055C407.046,369.462,401.176,313.691,368.93,282.501z"
				/>
			<path style="fill:#B417BF;" d="M480.638,352.119c0.6-8.596-6.64-15.02-8.397-22.591c-0.6,6.997,2.999,12.995,3.599,24.39
				c0.6,11.395-5.198,27.789-6.597,36.385c-1.399,8.596,0.588,20.177,0.588,20.177l0,0l-0.188-2.384c0,0,3.59,10.387,10.21,22.976
				c-0.179-5.862,0.135-13.422,2.185-19.777c3.998-12.395,6.797-20.592,2.799-34.786
				C480.838,362.315,480.038,360.716,480.638,352.119z"/>
			<g>
				<path style="fill:#7B1082;" d="M521.832,412.758c-3.035-0.128-6.083,0.006-9.079,0.349c-2.987,0.38-5.969,0.959-8.733,2.12
					c-1.385,0.549-2.756,1.241-3.99,2.026c-0.606,0.392-1.208,0.848-1.559,1.342c-0.182,0.254-0.219,0.461-0.172,0.547
					c0.026,0.112,0.266,0.283,0.558,0.357c0.597,0.158,1.31,0.11,1.879-0.202c0.669-0.338,1.337-0.695,1.99-1.082
					c1.308-0.77,2.584-1.618,3.836-2.484l0.326,0.422c-1.192,0.989-2.431,1.904-3.718,2.77c-0.646,0.428-1.3,0.851-1.992,1.224
					c-0.771,0.439-1.696,0.559-2.583,0.359c-0.431-0.116-0.967-0.305-1.276-0.906c-0.143-0.295-0.155-0.636-0.096-0.916
					c0.07-0.267,0.177-0.507,0.306-0.699c0.52-0.776,1.176-1.262,1.828-1.731c1.336-0.891,2.718-1.591,4.174-2.195
					c2.894-1.239,5.983-1.933,9.082-2.251c3.108-0.261,6.233-0.178,9.293,0.423L521.832,412.758z"/>
			</g>
			<g>
				<path style="fill:#4E2173;" d="M522.59,414.682c-2.873,2.331-5.579,4.747-8.127,7.343c-1.245,1.324-2.489,2.657-3.635,4.084
					c-1.187,1.398-2.26,2.886-3.418,4.357l-0.466-0.258c0.699-1.752,1.563-3.45,2.605-5.034c1.012-1.607,2.213-3.093,3.501-4.491
					c1.275-1.414,2.727-2.664,4.258-3.794c1.558-1.095,3.198-2.083,5.043-2.683L522.59,414.682z"/>
			</g>
			<g>
				<path style="fill:#4E2173;" d="M519.755,409.554c-1.312-0.285-2.618-0.593-3.919-0.921l-3.907-0.964
					c-2.589-0.706-5.194-1.35-7.768-2.113l0.133-0.516c2.624,0.57,5.217,1.258,7.826,1.885l3.889,1.035
					c1.298,0.339,2.591,0.697,3.878,1.079L519.755,409.554z"/>
			</g>
			<g>
				<path style="fill:#7B1082;" d="M475.102,384.685c1.082-2.383,2.328-4.672,3.653-6.921c1.308-2.259,2.776-4.421,4.27-6.565
					c1.514-2.13,3.177-4.156,4.903-6.122c1.774-1.926,3.666-3.751,5.73-5.362l0.349,0.403c-1.82,1.84-3.577,3.72-5.224,5.704
					c-1.655,1.976-3.224,4.022-4.742,6.11c-1.53,2.079-2.948,4.24-4.376,6.396c-1.404,2.17-2.772,4.373-4.088,6.598L475.102,384.685
					z"/>
			</g>
			<g>
				<path style="fill:#7B1082;" d="M480.321,387.365c1.924-1.029,3.818-2.142,5.654-3.322c1.832-1.19,3.583-2.5,5.2-3.938
					c0.783-0.738,1.558-1.509,2.163-2.367c0.292-0.425,0.548-0.9,0.598-1.324c0.014-0.209-0.022-0.357-0.136-0.438
					c-0.112-0.092-0.324-0.141-0.552-0.134c-0.953,0.053-1.929,0.633-2.72,1.297c-0.807,0.68-1.462,1.541-1.953,2.486l-0.479-0.234
					c0.489-1.021,1.158-1.966,2.01-2.734c0.858-0.747,1.862-1.401,3.124-1.504c0.314-0.007,0.68,0.03,1.008,0.278
					c0.346,0.252,0.44,0.716,0.405,1.043c-0.08,0.677-0.389,1.19-0.702,1.672c-0.654,0.949-1.442,1.744-2.247,2.521
					c-1.635,1.525-3.472,2.786-5.334,3.976c-1.874,1.179-3.797,2.261-5.805,3.201L480.321,387.365z"/>
			</g>
			<g>
				<path style="fill:#7B1082;" d="M354.198,378.343c-1.533,0.977-3.102,1.762-4.722,2.484c-1.618,0.712-3.267,1.348-4.952,1.866
					c-1.683,0.52-3.386,0.975-5.114,1.295c-1.722,0.355-3.469,0.555-5.212,0.717c1.734-0.251,3.462-0.538,5.154-0.978
					c1.699-0.405,3.364-0.942,4.999-1.539c1.637-0.595,3.23-1.305,4.782-2.084c1.543-0.781,3.073-1.653,4.448-2.631L354.198,378.343
					z"/>
			</g>
			<g>
				<path style="fill:#7B1082;" d="M346.085,392.245c-2.368-0.778-4.928-1.04-7.386-0.756c-1.233,0.128-2.441,0.428-3.583,0.874
					c-1.161,0.408-2.206,1.067-3.212,1.747l-0.612-0.873c1.12-0.683,2.273-1.326,3.529-1.7c1.237-0.413,2.524-0.662,3.815-0.732
					c1.29-0.084,2.583-0.025,3.851,0.171c1.269,0.201,2.511,0.509,3.712,0.984L346.085,392.245z"/>
			</g>
			<g>
				<polygon style="fill:#7B1082;" points="374.729,349.254 371.087,355.498 370.18,354.938 374.134,348.886 				"/>
			</g>
			<g>
				<polygon style="fill:#7B1082;" points="378.445,351.652 374.641,357.857 374.223,357.623 377.515,351.132 				"/>
			</g>
			<g>
				<polygon style="fill:#7B1082;" points="382.196,353.487 379.118,359.782 378.181,359.272 381.801,353.272 				"/>
			</g>
			<g>
				<path style="fill:#F7CABC;" d="M386.556,348.249c3.919-1.749,5.718-7.264,5.918-8.774c4.598-1.15,6.647-3.648,5.048-5.448
					c1.299-2.499,0.3-3.599-0.9-3.998c0.854-2.149,1.136-3.871-1.963-4.171c1.499-1.999,0.141-3.424-1.886-3.398
					c-1.431,0.018-10.046,1.528-12.45,2.998c-3.542,2.167-5.642,13.195-5.892,18.493c-0.813,1.473-1.474,2.605-1.474,2.605
					l11.17,6.06C384.128,352.615,385.277,351.447,386.556,348.249z"/>
				<g>
					<path style="fill:#F79999;" d="M397.599,334.554c-1.257,0.178-2.546,0.463-3.794,0.812c-1.254,0.346-2.484,0.778-3.678,1.29
						l-0.304-0.66c1.206-0.579,2.451-1.077,3.723-1.488c1.276-0.415,2.554-0.758,3.899-1.009L397.599,334.554z"/>
				</g>
				<g>
					<path style="fill:#F79999;" d="M396.602,330.561c-0.825-0.027-1.724,0.042-2.583,0.169c-0.864,0.138-1.719,0.343-2.552,0.614
						c-0.834,0.266-1.65,0.592-2.428,0.993c-0.395,0.189-0.771,0.412-1.146,0.638c-0.192,0.106-0.37,0.233-0.55,0.357l-0.271,0.186
						c-0.078,0.079-0.221,0.071-0.196,0.284l-0.641-0.852c0.208,0.085,0.249-0.051,0.356-0.102l0.282-0.2
						c0.188-0.134,0.374-0.27,0.574-0.385c0.392-0.244,0.785-0.485,1.198-0.691c0.813-0.435,1.667-0.791,2.54-1.085
						c0.872-0.299,1.767-0.527,2.675-0.688c0.913-0.174,1.808-0.292,2.781-0.303L396.602,330.561z"/>
				</g>
				<g>
					<path style="fill:#F79999;" d="M394.714,326.388c-1.788,0.181-3.609,0.536-5.364,1.022c-1.76,0.49-3.477,1.144-5.064,2.034
						l-0.318-0.529c1.609-0.991,3.352-1.735,5.138-2.311c1.794-0.573,3.608-1.007,5.498-1.276L394.714,326.388z"/>
				</g>
			</g>
			<g>
				<path style="fill:#7B1082;" d="M401.662,273.438c2.114,1.276,4.567,2.255,7,3.049c2.455,0.791,4.981,1.369,7.534,1.806
					c2.56,0.392,5.144,0.668,7.741,0.744c1.297,0.081,2.598,0.017,3.898,0.032c1.299-0.036,2.598-0.126,3.898-0.186l0.049,0.533
					c-1.307,0.099-2.613,0.229-3.923,0.303c-1.312,0.023-2.624,0.126-3.938,0.083c-2.629,0-5.256-0.202-7.871-0.525
					c-2.609-0.367-5.204-0.881-7.747-1.619c-2.548-0.758-5.019-1.637-7.425-2.994L401.662,273.438z"/>
			</g>
			<g>
				<path style="fill:#7B1082;" d="M381.593,361.867l4.152-8.381l0.221,0.764l0,0l-14.717-7.513l1.297-0.344l0,0l-5.631,8.245
					l-0.172,0.252h-0.269h0c-1.92,0.288-3.867,1.231-5.491,2.43c-1.656,1.198-3.101,2.687-4.324,4.345
					c-0.322,0.402-0.601,0.838-0.881,1.272l-0.898,1.327c-0.607,0.93-1.297,1.816-2.046,2.654c-1.501,1.674-3.342,3.107-5.381,4.108
					c-2.053,0.976-4.218,1.524-6.209,2.13c-1.001,0.313-1.908,0.665-2.804,1.137c-0.925,0.494-1.84,0.999-2.724,1.548
					c-1.772,1.09-3.421,2.362-4.817,3.862c-0.698,0.748-1.339,1.549-1.878,2.416c-0.524,0.875-0.965,1.8-1.311,2.769l-0.112,0.315
					h-0.13c-1.267,0.768-2.464,1.647-3.494,2.691c-1.033,1.041-1.885,2.248-2.526,3.568c-1.307,2.649-1.716,5.657-2.349,8.658
					l-1.042-0.225c0.624-2.929,1.034-6.053,2.434-8.901c0.688-1.417,1.613-2.728,2.724-3.846c1.108-1.123,2.381-2.056,3.714-2.863
					l0,0l-0.243,0.315c0.505-2.183,1.619-4.206,3.036-5.931c1.441-1.714,3.164-3.147,4.983-4.383
					c0.909-0.622,1.843-1.201,2.806-1.718c0.991-0.544,2.081-0.983,3.12-1.322c2.093-0.666,4.093-1.212,5.905-2.108
					c1.809-0.881,3.434-2.085,4.812-3.579c0.687-0.746,1.33-1.545,1.906-2.4c0.59-0.811,1.217-1.818,1.93-2.643
					c1.398-1.724,3.037-3.277,4.914-4.504c1.918-1.164,3.986-2.096,6.353-2.186h0.001l-0.441,0.252l4.875-8.714l0,0l0.519-0.793
					l0.778,0.448l14.317,8.248l0,0l0.507,0.308l-0.285,0.456l-4.958,7.931L381.593,361.867z"/>
			</g>
		</g>
		<g style="clip-path:url(#SVGID_00000029032728480159469480000016812107298179124925_);">
			<path style="fill:#B417BF;" d="M111.511,128.307c0,0,11.555-4.505,18.802,4.701c7.247,9.205,2.938,17.431,4.896,28.986
				c1.959,11.555,13.71,52.685,8.813,68.941l-56.798-18.606L111.511,128.307z"/>
			<path style="fill:#F7D2C6;" d="M121.322,213.912c0,0,16.922-0.282,23.219,14.623c7.84,18.558,3.882,112.14,3.882,112.14
				l9.391,53.238l-25.532,3.076c0,0-0.006-31.133-7.144-58.183C118,311.757,121.322,213.912,121.322,213.912z"/>
			<path style="fill:#A7BEF2;" d="M137.56,345.117l2.154,27.42l35.058,140.623h-72.588l-5.95-90.289L71.557,513.16H7.709
				c0,0,3.525-28.203,8.813-38.387c5.288-10.184,1.175-17.235,7.442-28.203c6.267-10.968,0.784-13.906,7.051-24.874
				c6.267-10.968,4.226-6.044,3.183-27.028c-1.044-20.984,17.774-45.83,17.774-45.83L137.56,345.117z"/>
			<path style="fill:#5F88E8;" d="M137.56,345.117l-85.588,3.721c0,0-18.138,23.965-17.797,44.701
				c12.155,5.714,19.858-1.762,36.599-9.398c15.603-7.117,49.943-25.959,67.51-29.806L137.56,345.117z"/>
			<g>
				<path style="fill:#4D6FBD;" d="M95.601,421.598c1.992-5.633,3.386-11.488,4.471-17.365c1.063-5.885,1.833-11.824,2.157-17.788
					c0.333-5.958,0.419-11.933,0.009-17.876c-0.113-2.977-0.475-5.933-0.788-8.89c-0.124-1.482-0.397-2.946-0.622-4.415
					l-0.697-4.401l3.176-0.527l0.545,4.523c0.174,1.508,0.394,3.009,0.465,4.526c0.208,3.027,0.462,6.048,0.464,9.081
					c0.19,6.056-0.125,12.114-0.688,18.128c-0.554,6.019-1.555,11.987-2.849,17.876c-1.317,5.886-2.933,11.703-5.16,17.322
					L95.601,421.598z"/>
			</g>
			<g>
				<path style="fill:#4D6FBD;" d="M108.783,348.703c0.654,4.135,1.253,8.276,1.797,12.428c0.537,4.153,1.032,8.313,1.374,12.501
					c0.163,2.096,0.294,4.195,0.306,6.327c-0.008,2.203-0.485,4.397-1.314,6.428c-0.83,2.035-2.003,3.907-3.376,5.596
					c-1.407,1.683-2.922,3.179-4.767,4.515l-1.234-1.885c3.201-2.206,6.083-5.334,7.704-8.942c0.812-1.81,1.308-3.758,1.385-5.743
					c0.059-2.05,0.002-4.132-0.088-6.209c-0.195-4.159-0.545-8.322-0.938-12.48c-0.399-4.158-0.855-8.315-1.365-12.461
					L108.783,348.703z"/>
			</g>
			<g>
				<path style="fill:#4D6FBD;" d="M126.414,345.77c0.602,2.411,1.345,4.854,2.151,7.244c0.806,2.398,1.719,4.758,2.746,7.066
					c1.018,2.311,2.17,4.568,3.549,6.672c1.377,2.091,2.944,4.116,4.995,5.566l-0.283,0.439c-2.238-1.378-3.986-3.368-5.54-5.427
					c-1.557-2.074-2.88-4.307-4.069-6.597c-1.198-2.288-2.282-4.633-3.258-7.021c-0.98-2.394-1.882-4.789-2.678-7.289
					L126.414,345.77z"/>
			</g>
			<path style="fill:#1A2E5C;" d="M101.68,202.437c0,0,8.754,3.819,17.274,6.463c8.52,2.644,11.604,16.011,14.983,25.265
				c3.378,9.254,13.073,23.502,14.983,30.553c1.91,7.051,4.701,15.57-5.288,40.982c-4.6,11.704-5.876,24.531-5.435,30.113
				c0.441,5.582,6.157,12.442-3.525,12.926c-5.876,0.294-70.801,5.141-79.615,5.729c-8.813,0.587-10.669-14.983-7.878-27.469
				c2.791-12.486,3.765-61.547,3.178-76.089c-0.588-14.542-16.158-19.977-16.158-19.977S60.757,201.85,101.68,202.437z"/>
			<path style="fill:#142245;" d="M127.58,349.209c-30.74-3.644-27.135-54.231-26.939-68.333s-13.416-29.966-13.416-29.966
				l-36.709,9.448c0.064,19.986-0.998,56.171-3.339,66.641c-2.791,12.486-0.935,28.056,7.878,27.469
				C62.433,353.977,109.109,350.502,127.58,349.209L127.58,349.209z"/>
			<path style="fill:#F7D2C6;" d="M114.106,142.653c0,0,9.548,8.96,9.401,16.305c-0.147,7.344-1.322,13.073-2.056,17.921
				c-0.735,4.847-5.729,19.977-16.745,15.57c-2.497,9.107-2.644,11.898-2.644,11.898s11.164,4.26,13.955,12.486
				c2.791,8.226,7.493,31.581-6.071,31.581c-21.005,0-25.51-11.604-28.888-23.943c-3.378-12.339,0.881-37.016,6.169-47.886
				c-5.141-7.491-4.407-21.005,1.763-22.621c6.169-1.616,6.757,7.638,6.757,7.638S94.276,139.568,114.106,142.653z"/>
			
				<line style="fill:none;stroke:#F7B8A3;stroke-width:1.0446;stroke-miterlimit:10;" x1="100.641" y1="221.533" x2="111.119" y2="216.93"/>
			<path style="fill:#F79999;" d="M104.705,192.449c-4.064-1.273-10.919-4.603-13.661-14.199
				c-0.881,8.324,2.393,18.681,11.919,21.092L104.705,192.449z"/>
			<g>
				<path style="fill:#F79999;" d="M115.21,167.179c-0.378,0.932-0.707,1.89-1.007,2.842c-0.142,0.477-0.271,0.961-0.335,1.43
					c-0.028,0.243-0.043,0.44,0.001,0.651c0.039,0.218,0.11,0.44,0.201,0.661c0.175,0.446,0.417,0.881,0.638,1.358
					c0.109,0.241,0.22,0.488,0.285,0.794c0.028,0.155,0.056,0.325,0.01,0.529c0.003,0.08-0.101,0.253-0.181,0.354
					c-0.085,0.067-0.196,0.153-0.28,0.182c-0.354,0.139-0.627,0.128-0.904,0.129c-0.276,0.001-0.538-0.034-0.797-0.076
					c-0.519-0.082-1.018-0.202-1.513-0.369l0.124-0.507c0.49,0.063,0.989,0.128,1.475,0.171c0.463,0.025,1.025,0.076,1.308-0.044
					c0.036-0.012,0.018-0.022,0.04-0.019c-0.029-0.013-0.023,0.068-0.019,0.015c0.017-0.043,0.012-0.132-0.004-0.224
					c-0.033-0.191-0.12-0.415-0.214-0.637c-0.191-0.448-0.43-0.908-0.613-1.411c-0.093-0.25-0.172-0.515-0.215-0.797
					c-0.054-0.289-0.018-0.604,0.03-0.86c0.102-0.53,0.264-1.02,0.437-1.506c0.347-0.968,0.784-1.889,1.236-2.804L115.21,167.179z"
					/>
			</g>
			<path style="fill:#FFF8F2;" d="M105.342,179.069l8.324,2.02c0,0,0.006-2.84-2.497-3.672
				C108.517,176.535,105.978,177.833,105.342,179.069z"/>
			<path style="fill:none;stroke:#F79999;stroke-width:1.0446;stroke-miterlimit:10;" d="M106.762,182.656
				c0,0,0.783,1.224,4.162,1.273"/>
			<path style="fill:#6E4A29;" d="M119.691,169.653c-0.372,0.849-1.058,1.369-1.532,1.161c-0.474-0.208-0.556-1.064-0.184-1.913
				c0.372-0.849,1.058-1.369,1.532-1.161S120.063,168.804,119.691,169.653z"/>
			<path style="fill:#6E4A29;" d="M109.271,166.324c-0.372,0.849-1.058,1.369-1.532,1.161c-0.474-0.208-0.556-1.064-0.184-1.913
				c0.372-0.849,1.058-1.369,1.532-1.161C109.56,164.618,109.643,165.475,109.271,166.324z"/>
			<path style="fill:#8036BD;" d="M102.845,160.378c0,0,6.561-1.126,9.45,0.783C112.197,158.027,104.656,157.587,102.845,160.378z"
				/>
			<path style="fill:#8036BD;" d="M118.048,162.312c0,0,3.086,0.248,4.015,2.228C122.063,162.091,119.394,161.039,118.048,162.312z"
				/>
			<g>
				<path style="fill:none;stroke:#F7F6F5;stroke-width:1.0952;stroke-miterlimit:10;" d="M134.32,270.949l-3.651-26.311
					c-0.222-1.602-1.15-3.021-2.529-3.868l-12.184-7.482"/>
				<polygon style="fill:#5F88E8;" points="143.015,303.993 122.15,303.993 120.366,264.879 144.799,264.879 				"/>
				<polygon style="fill:#4D6FBD;" points="144.883,261.39 120.282,261.39 119.121,265.049 146.044,265.049 				"/>
			</g>
			<path style="fill:#F7D2C6;" d="M34.198,230.934c-11.604,9.107-16.305,49.355-20.418,87.547
				c-4.113,38.191-4.113,67.276,20.418,70.507s79.908-85.197,79.908-85.197s14.934-7.932,17.284-11.359
				c2.35-3.427,3.232-3.623,7.54-3.134c4.309,0.49,5.386,0.588,5.288-0.49s-9.891-3.232-9.891-3.232s2.644-1.469,5.386-1.861
				c2.742-0.392,6.169,0.392,6.659-0.49c0.49-0.881-7.638-3.33-13.318-1.469c7.247-3.721,9.989-2.294,12.633-3.301
				c2.644-1.007-1.861-1.693-5.19-1.595c-3.329,0.098-8.911,1.595-8.911,1.595s1.567-3.358,6.072-5.022
				c4.505-1.665,4.603-2.154,3.819-2.84c-0.783-0.686-9.597,1.763-11.555,4.015c-1.959,2.252-17.137,17.823-17.137,17.823
				l-63.652,33.099c0,0,1.733-35.044,3.134-47.075C57.113,236.81,42.864,231.032,34.198,230.934z"/>
			
				<line style="fill:none;stroke:#F7B8A3;stroke-width:1.0446;stroke-miterlimit:10;" x1="49.132" y1="325.531" x2="31.701" y2="336.842"/>
			<path style="fill:#F79999;" d="M43.097,374.697c0.86,2.334-1.528,5.364-5.334,6.767c-3.806,1.403-7.589,0.647-8.449-1.687
				c-0.86-2.334,1.528-5.364,5.334-6.767C38.453,371.608,42.236,372.363,43.097,374.697z"/>
			<path style="fill:none;stroke:#F7B8A3;stroke-width:1.0446;stroke-miterlimit:10;" d="M110.14,302.029
				c0,0,1.763-2.497,3.966-2.791"/>
			<path style="fill:none;stroke:#142245;stroke-width:1.0446;stroke-miterlimit:10;" d="M131.586,333.611
				c0,0-29.324-3.244-24.531-10.948c1.322-2.125,12.633,4.632,12.633,4.632"/>
			<path style="fill:#D61BE3;" d="M114.106,142.653c0,0-12.975,1.322-14.934,8.569c-1.959,7.247-3.525,16.256-4.896,15.668
				c-1.371-0.588-0.379-9.864-4.113-10.576c-3.734-0.712-7.638,17.039,1.175,15.864c-1.175,6.072-4.309,12.717-7.247,19.39
				c-2.938,6.672,2.546,17.235,7.051,23.698c4.505,6.463,2.938,22.132,0.979,28.79c-1.959,6.659-3.525,18.802,0.392,25.657
				c3.917,6.855-1.959,22.719-1.959,22.719H25.727c0,0,6.855-7.638,7.051-17.039c0.196-9.401-5.288-24.874-0.979-34.275
				c4.309-9.401,17.235-19.585,16.648-33.295c-0.588-13.71-1.567-21.544,6.267-33.099c7.834-11.555,12.339-10.38,13.514-23.503
				c1.175-13.122,8.03-28.595,43.284-22.915L114.106,142.653z"/>
			<path style="fill:none;stroke:#7732B0;stroke-width:1.0446;stroke-miterlimit:10;" d="M65.222,224.863
				c0,0-11.359,15.081-11.164,26.636c0.196,11.555,10.378,28.007,5.581,40.933"/>
			<path style="fill:none;stroke:#7732B0;stroke-width:1.0446;stroke-miterlimit:10;" d="M76.403,228.78
				c0,0-9.401,13.318-9.205,24.776c0.196,11.457,12.926,27.126,9.205,38.877"/>
			<path style="fill:none;stroke:#FFF8F2;stroke-width:1.1103;stroke-miterlimit:10;" d="M88.155,177
				c-1.731,2.998-4.745,4.499-6.732,3.351c-1.987-1.147-2.195-4.508-0.464-7.506c1.731-2.998,4.745-4.499,6.732-3.351
				C89.678,170.641,89.886,174.001,88.155,177z"/>
			<path style="fill:none;stroke:#7732B0;stroke-width:1.0446;stroke-miterlimit:10;" d="M55.693,214.678
				c-2.154,7.834-10.968,18.069-15.668,27.249c-4.701,9.18,4.309,23.477,3.917,33.858c-0.392,10.38-5.279,16.648-5.279,16.648"/>
		</g>
		<g style="clip-path:url(#SVGID_00000029032728480159469480000016812107298179124925_);">
			<path style="fill:#1A2E5C;" d="M178.295,291.892c0,0,0.844-7.125,5.063-13.313c4.219-6.188,13.687-18.563,27.562-17.063
				s25.219,19.125,24.281,29.438L178.295,291.892z"/>
			<path style="fill:#142245;" d="M183.826,289.361v2.44l51.375-0.846c0.237-2.606-0.313-5.68-1.487-8.842
				c-5.771-3.965-12.143-2.338-17.919-1.752c-6.469,0.656-12.187,2.156-19.031,3.415
				C189.92,285.035,183.826,289.361,183.826,289.361z"/>
			<path style="fill:#2D4F9E;" d="M266.607,355.267c0,0,38.156,15.938,52.594,23.625c14.437,7.688,24.75,28.687,24.562,52.312
				c-0.188,23.625-11.625,84.937-12.188,88.687s-6.938,34.875-50.625,24.187H104.326c0,0,7.5-42,9-57.375
				c1.5-15.375-4.688-20.545,0.938-35.92s0.942-18.528,2.25-31.392c0.844-8.297,6-14.26,8.938-27.82
				c6.25-28.852,29.687-27.68,69.343-36.023L266.607,355.267z"/>
			<path style="fill:#A7BEF2;" d="M266.607,355.267l-71.812,0.281c-1.605,0.338-3.174,0.655-4.727,0.964l-0.002,0.003
				c-2.678,9.017-2.117,27.043,24.884,27.452s49.478-12.476,55.396-27.127C268.001,355.85,266.607,355.267,266.607,355.267z"/>
			<path style="fill:#FFBC8F;" d="M185.701,315.799c1.406,5.437,2.812,8.25,4.5,14.437c1.687,6.188,4.687,12.563,12.375,12.281
				l2.344,9.187c0,0-6.563,2.531-10.125,3.844c-3.563,1.313-7.313,26.156,23.062,24c30.375-2.156,43.5-13.875,48.75-24.281
				c0,0-20.719-7.313-25.594-13.594c-4.875-6.281-7.148-20.016-7.148-20.016s0.466-5.817,1.221-10.259
				c0.755-4.442,0.605-11.388,0.605-11.388s-14.834-6.712-29.365-5.774c-14.531,0.938-24.938,6-24.938,6L185.701,315.799z"/>
			<path style="fill:#2D4F9E;" d="M218.607,295.221c0,0-0.633,2.109,1.617,5.484s1.828,4.219,3.516,7.523
				c1.687,3.305,1.406,5.344,2.953,5.273c1.547-0.07,1.406-0.773,1.406-3.023c0-2.25-0.978-4.289,0.003-7.102
				s4.919-4.349,6.184-0.944c1.266,3.405-1.828,11.913-3.023,13.53c-1.195,1.617,2.602,5.695,2.602,5.695s1.444-0.563,1.39-4.008
				c-0.054-3.445-0.546-7.102,0.368-9.914c0.914-2.813,0.891-7.313,0.891-7.313S222.967,293.392,218.607,295.221z"/>
			<path style="fill:none;stroke:#BD5858;stroke-width:0.5;stroke-miterlimit:10;" d="M232.951,306.377
				c0.281-2.109-0.328-4.373-1.828-3.944c-1.5,0.429-2.063,3.147-1.453,5.538c0.609,2.391,1.969,1.922,1.266,3.516
				c-0.703,1.594-1.922,0.984-1.922,2.625"/>
			<path style="fill:#2D4F9E;" d="M182.513,299.205l3.188,16.594c0,0-3.188-1.5-3.656-5.063c-0.469-3.563-3.469-6.75-3.094-10.031
				L182.513,299.205z"/>
			<path style="fill:#142245;" d="M209.011,307.03c0.392,1.664-0.023,3.185-0.928,3.398c-0.905,0.214-1.957-0.962-2.349-2.625
				c-0.392-1.663,0.023-3.185,0.929-3.399C207.566,304.191,208.618,305.367,209.011,307.03z"/>
			<path style="fill:#142245;" d="M192.591,310.903c0.392,1.663-0.023,3.185-0.928,3.398s-1.957-0.962-2.349-2.625
				c-0.392-1.664,0.023-3.185,0.928-3.398C191.147,308.064,192.198,309.24,192.591,310.903z"/>
			<polygon style="fill:#2D4F9E;" points="201.17,301.83 213.826,301.83 213.826,299.721 201.17,300.424 			"/>
			<polygon style="fill:#2D4F9E;" points="184.463,309.353 191.678,304.15 190.952,303.096 183.826,307.502 			"/>
			<path style="fill:#2D4F9E;" d="M201.914,319.639c3.749-1.837,14.741,1.146,15.683,3.737c0,0-2.434,1.256-5.025,0.628
				c-2.591-0.628-3.298,0.98-6.124,0.176c-2.827-0.804-2.787,1.002-4.534,0.845c-1.747-0.157-4.495,3.219-5.987,2.512
				C194.436,326.831,196.987,321.869,201.914,319.639z"/>
			<path style="fill:none;stroke:#FF8787;stroke-miterlimit:10;" d="M201.17,328.619c0,0,1.758,1.407,6.328-0.984"/>
			<path style="fill:#FF8787;" d="M202.576,342.517c6,0.281,13.594-2.719,19.5-9.938c5.906-7.219,6.938-11.906,6.938-11.906
				s2.719,5.063-0.938,10.125c-3.656,5.063-7.739,7.313-10.479,13.125c-2.74,5.813-12.678,7.781-12.678,7.781L202.576,342.517z"/>
			
				<line style="fill:none;stroke:#FF8787;stroke-width:0.5;stroke-miterlimit:10;" x1="207.498" y1="363.142" x2="204.92" y2="351.705"/>
			
				<line style="fill:none;stroke:#BD5858;stroke-width:1.0903;stroke-miterlimit:10;" x1="231.015" y1="364.689" x2="246.451" y2="360.752"/>
			<path style="fill:#244080;" d="M280.388,424.455l-24.937,94.312l-21.375-1.5c0,0-3-9.375,6.188-17.25s3.188-12.937,11.063-24.187
				s9.188-12.75,11.625-21S273.263,428.392,280.388,424.455z"/>
			<g>
				<polygon style="fill:#142245;" points="284.738,416.023 266.943,478.605 266.459,478.478 281.851,415.261 				"/>
			</g>
			<g>
				<path style="fill:#142245;" d="M273.953,411.172c-0.618,2.245-1.025,4.638-1.277,7.002c-0.245,2.375-0.305,4.77-0.166,7.155
					c0.146,2.386,0.573,4.745,1.225,7.041c0.674,2.296,1.733,4.453,3.014,6.477l-0.408,0.289c-1.39-2.015-2.565-4.193-3.349-6.527
					c-0.762-2.332-1.295-4.746-1.54-7.191c-0.238-2.444-0.271-4.906-0.114-7.357c0.169-2.458,0.476-4.873,1.05-7.324
					L273.953,411.172z"/>
			</g>
			<g>
				<polygon style="fill:#142245;" points="210.577,430.433 214.46,379.59 216.203,379.744 211.075,430.477 				"/>
			</g>
			<g>
				
					<rect x="186.79" y="377.392" transform="matrix(0.9788 -0.2046 0.2046 0.9788 -77.8197 49.3476)" style="fill:#142245;" width="25.781" height="47.062"/>
				<path style="fill:none;stroke:#A7BEF2;stroke-miterlimit:10;" d="M190.026,383.587c0.211,1.007-0.435,1.995-1.442,2.205
					c-1.007,0.211-1.995-0.435-2.205-1.443c-0.211-1.007,0.435-1.995,1.443-2.205C188.829,381.934,189.816,382.579,190.026,383.587z
					"/>
			</g>
			<path style="fill:#244080;" d="M156.451,503.017l0.938-93.375c0,0-6.938,21.938-8.625,34.5
				c-1.688,12.563,0.188,25.875-6.375,33.188s-7.313,25.687-7.313,25.687H156.451z"/>
			<g>
				<path style="fill:#142245;" d="M156.312,425.688c-2.083-2.429-3.846-4.966-5.471-7.637c-1.618-2.662-3.024-5.448-4.229-8.313
					c-0.63-1.422-1.125-2.897-1.649-4.358c-0.24-0.738-0.443-1.489-0.665-2.232l-0.326-1.117l-0.256-1.136
					c-0.778-3.008-1.083-6.11-1.295-9.191l0.499-0.029c0.332,3.041,0.751,6.078,1.634,9.006l0.295,1.105l0.364,1.085
					c0.248,0.721,0.475,1.449,0.739,2.163c0.571,1.414,1.111,2.838,1.784,4.207c1.29,2.757,2.772,5.425,4.453,7.959
					c1.67,2.523,3.54,4.981,5.551,7.147L156.312,425.688z"/>
			</g>
			<g>
				<polygon style="fill:#142245;" points="158.889,397.747 157.275,445.833 156.775,445.829 155.888,397.725 				"/>
			</g>
			<g>
				<polygon style="fill:#142245;" points="145.491,419.803 132.925,405.231 133.29,404.89 146.974,418.418 				"/>
			</g>
			<g>
				<g>
					<path style="fill:none;stroke:#A7BEF2;stroke-miterlimit:10;" d="M224.041,395.413c-0.132,1.859-1.171,3.3-2.321,3.219
						c-1.15-0.082-1.974-1.655-1.842-3.515c0.132-1.859,1.171-3.3,2.321-3.218C223.348,391.98,224.173,393.554,224.041,395.413z"/>
				</g>
				<path style="fill:none;stroke:#A7BEF2;stroke-miterlimit:10;" d="M222.648,415.004c-0.132,1.859-1.171,3.3-2.321,3.219
					c-1.15-0.082-1.974-1.655-1.842-3.514c0.132-1.859,1.171-3.3,2.321-3.219C221.955,411.572,222.78,413.145,222.648,415.004z"/>
			</g>
			<path style="fill:#1A2E5C;" d="M179.795,302.392c6.054-1.691,9.281-1.688,14.719-3.281c5.438-1.594,8.25-2.063,12-2.344
				c3.75-0.281,9.656,0.094,12.656,0c3-0.094,7.5,1.219,10.594,1.969c3.094,0.75,6,2.906,6.75,1.688
				c0.75-1.219,2.438-6.656,0.938-8.344c-1.5-1.688-7.031-7.031-15.563-7.781c-8.531-0.75-16.125-0.75-21,0.375
				s-7.687,1.688-11.812,2.156c-4.125,0.469-9.281,2.813-11.531,3.938S176.946,303.188,179.795,302.392z"/>
			<g>
				<polygon style="fill:#BD5858;" points="197.198,309.314 199.346,321.157 198.617,320.79 203.726,318.413 203.957,318.856 
					199.082,321.682 198.454,322.046 198.353,321.315 196.704,309.393 				"/>
			</g>
			<path style="fill:#FFBC8F;" d="M291.964,505.969l-74.763-81.515c0,0-2.038-19.785-3.925-21.611c0,0,0.175,10.361-3.95,10.174
				s-5.625-1.125-8.625-7.125s-1.313-9.75-3.563-10.125s-1.687,11.063,1.125,16.688c-3.75-2.25-3-15-5.437-15.375
				c-2.438-0.375-1.688,13.5,1.875,17.438c-5.063-3.563-4.5-13.313-7.313-13.125c-2.812,0.188,1.5,12.188,4.125,15
				c-4.687-3.375-5.625-9.75-7.125-8.813s7.313,18.188,17.438,24.75l28.125,82.687L291.964,505.969z"/>
		</g>
		<path style="clip-path:url(#SVGID_00000029032728480159469480000016812107298179124925_);fill:#D6E3FF;" d="M314.837,71.412
			c-6.967,1.776-8.407,3.216-10.183,10.183c-1.776-6.967-3.216-8.407-10.183-10.183c6.967-1.776,8.407-3.216,10.183-10.183
			C306.43,68.196,307.87,69.636,314.837,71.412z"/>
		<path style="clip-path:url(#SVGID_00000029032728480159469480000016812107298179124925_);fill:#D6E3FF;" d="M223.485,85.731
			c-5.257,1.34-6.344,2.426-7.684,7.684c-1.34-5.258-2.426-6.344-7.684-7.684c5.257-1.34,6.344-2.426,7.684-7.684
			C217.141,83.305,218.228,84.391,223.485,85.731z"/>
		<path style="clip-path:url(#SVGID_00000029032728480159469480000016812107298179124925_);fill:#D6E3FF;" d="M218.203,59.072
			c-2.763,0.704-3.334,1.275-4.038,4.038c-0.704-2.763-1.275-3.333-4.038-4.038c2.763-0.704,3.333-1.275,4.038-4.038
			C214.869,57.797,215.44,58.368,218.203,59.072z"/>
		<path style="clip-path:url(#SVGID_00000029032728480159469480000016812107298179124925_);fill:#D6E3FF;" d="M300.143,95.561
			c-2.763,0.704-3.333,1.275-4.038,4.038c-0.704-2.763-1.275-3.334-4.038-4.038c2.763-0.704,3.334-1.275,4.038-4.038
			C296.81,94.286,297.38,94.857,300.143,95.561z"/>
	</g>
</g>
</svg>
