<?xml version="1.0" encoding="utf-8"?>
<!-- Generator: Adobe Illustrator 27.5.0, SVG Export Plug-In . SVG Version: 6.00 Build 0)  -->
<svg version="1.1" xmlns="http://www.w3.org/2000/svg" xmlns:xlink="http://www.w3.org/1999/xlink" x="0px" y="0px"
	 viewBox="0 0 500 500" style="enable-background:new 0 0 500 500;" xml:space="preserve">
<g id="Background_complete">
	<g>
		<g>
			<g>
				<g>
					<path style="fill:#F0F0F0;" d="M444.708,349.145H263.962c-3.232,0-5.862-2.63-5.862-5.862V80.009
						c0-3.232,2.63-5.862,5.862-5.862h180.746c3.232,0,5.862,2.629,5.862,5.862v263.273
						C450.57,346.515,447.94,349.145,444.708,349.145z M263.962,74.397c-3.095,0-5.612,2.518-5.612,5.612v263.273
						c0,3.095,2.518,5.612,5.612,5.612h180.746c3.095,0,5.612-2.518,5.612-5.612V80.009c0-3.094-2.518-5.612-5.612-5.612H263.962z"
						/>
				</g>
			</g>
			<g>
				<g>
					<path style="fill:#F0F0F0;" d="M236.28,349.145H55.534c-3.232,0-5.862-2.63-5.862-5.862V80.009
						c0-3.232,2.629-5.862,5.862-5.862H236.28c3.232,0,5.862,2.629,5.862,5.862v263.273
						C242.143,346.515,239.513,349.145,236.28,349.145z M55.534,74.397c-3.094,0-5.612,2.518-5.612,5.612v263.273
						c0,3.095,2.518,5.612,5.612,5.612H236.28c3.095,0,5.612-2.518,5.612-5.612V80.009c0-3.094-2.518-5.612-5.612-5.612H55.534z"/>
				</g>
			</g>
		</g>
		<g>
			<g>
				<rect x="-0.003" y="410.214" style="fill:#E0E0E0;" width="500.003" height="0.25"/>
			</g>
		</g>
	</g>
	<g>
		<path style="fill:#E6E6E6;" d="M476.586,410.214c-14.59-13.142-102.646-89.911-157.782-79.697
			c-54.371,10.073-113.032,68.386-123.987,79.697H476.586z"/>
	</g>
	<path style="fill:#F5F5F5;" d="M327.736,410.214c-14.991-20.081-90.49-126.483-147.625-120.187
		c-47.856,5.273-125.28,99.319-141.895,120.187H327.736z"/>
	<path style="fill:#F0F0F0;" d="M61.306,97.983c0,0,4.983-7.802,16.29-6.188c9.32,1.33,12.129-11.68,21.951-11.731
		c10.214-0.054,7.885,9.087,20.46,10.274c8.857,0.836,15.822-8.649,21.991,7.644H61.306z"/>
	<path style="fill:#F0F0F0;" d="M360.675,121.767c0,0,4.983-7.802,16.29-6.188c9.32,1.33,12.129-11.68,21.951-11.731
		c10.214-0.053,7.885,9.087,20.46,10.274c8.858,0.836,15.822-8.649,21.991,7.645H360.675z"/>
	
		<ellipse transform="matrix(0.2316 -0.9728 0.9728 0.2316 60.8957 290.0448)" style="fill:#F0F0F0;" cx="214.045" cy="106.476" rx="18.393" ry="18.393"/>
	<path style="fill:#F0F0F0;" d="M85.569,241.501c-0.72-2.378-3.383-9.446-10.67-10.951c-6.697-1.383-12.973,3.444-16.833,5.819
		c-3.86,2.376-7.191,1.832-14.021,0.061c-4.608-1.195-9.375,2.723-10.617,5.07H85.569z"/>
	<path style="fill:#E0E0E0;" d="M188.667,169.199c-0.014,0.334-0.464,0.429-0.61,0.127c-0.486-0.997-1.409-2.196-3.048-2.234
		c-1.404-0.033-2.141-0.661-2.527-1.282v11.017c-3.498,2.933-9.62,1.051-7.871-2.274s6.347,0,6.347,0V161.36h1.524
		c0,0,1.512,3.272,4.238,3.53C188.531,165.062,188.735,167.549,188.667,169.199z"/>
	<path style="fill:#E0E0E0;" d="M335.042,129.814L335.042,129.814l-8.839-4.602v2.111h0v9.212c0,0-3.21-2.322-4.432,0
		c-1.221,2.322,3.053,3.635,5.495,1.588v-8.662l0,0l6.711,3.254l0,0v6.312c0,0-3.21-2.322-4.431,0
		c-1.221,2.322,3.053,3.635,5.495,1.588V129.814L335.042,129.814z M333.562,131.21l-5.826-2.769v-1.119l5.826,2.864V131.21z"/>
</g>
<g id="Background_simple" style="display:none;">
	<g style="display:inline;">
		<path style="fill:#407BFF;" d="M376.02,85.136c-25.227-11.854-53-15.94-80.384-12.596c-33.611,4.105-78.576,18.879-84.153,68.056
			c-6.142,54.162-17.751,50.984-94.049,63.828c-76.298,12.844-76.003,147.272,15.568,155.681
			c91.571,8.408,111.455-94.326,218.165-77.376C447.503,298.03,491.662,139.477,376.02,85.136z"/>
		<path style="opacity:0.9;fill:#FFFFFF;" d="M376.02,85.136c-25.227-11.854-53-15.94-80.384-12.596
			c-33.611,4.105-78.576,18.879-84.153,68.056c-6.142,54.162-17.751,50.984-94.049,63.828
			c-76.298,12.844-76.003,147.272,15.568,155.681c91.571,8.408,111.455-94.326,218.165-77.376
			C447.503,298.03,491.662,139.477,376.02,85.136z"/>
	</g>
</g>
<g id="Shadow">
	<g>
		<g>
			<path style="fill:#F5F5F5;" d="M458,442.578c0,3.814-96.04,6.906-214.512,6.906s-214.512-3.092-214.512-6.906
				c0-3.814,96.04-6.906,214.512-6.906S458,438.763,458,442.578z"/>
		</g>
	</g>
</g>
<g id="Sparkles">
	<g>
		<g>
			<path style="fill:#407BFF;" d="M88.423,132.223c-2.726,0.696-3.446,1.695-3.978,5.328c-0.038,0.259-0.41,0.259-0.448,0
				c-0.532-3.633-1.251-4.632-3.978-5.328c-0.351-0.09-0.351-0.594,0-0.683c2.726-0.696,3.446-1.695,3.978-5.328
				c0.038-0.259,0.41-0.259,0.448,0c0.532,3.633,1.251,4.632,3.978,5.328C88.774,131.629,88.774,132.133,88.423,132.223z"/>
		</g>
		<g style="opacity:0.6;">
			<path style="fill:#FFFFFF;" d="M88.423,132.223c-2.726,0.696-3.446,1.695-3.978,5.328c-0.038,0.259-0.41,0.259-0.448,0
				c-0.532-3.633-1.251-4.632-3.978-5.328c-0.351-0.09-0.351-0.594,0-0.683c2.726-0.696,3.446-1.695,3.978-5.328
				c0.038-0.259,0.41-0.259,0.448,0c0.532,3.633,1.251,4.632,3.978,5.328C88.774,131.629,88.774,132.133,88.423,132.223z"/>
		</g>
	</g>
	<g>
		<g>
			<path style="fill:#407BFF;" d="M56.588,157.481c-2.726,0.696-3.446,1.695-3.978,5.328c-0.038,0.259-0.41,0.259-0.447,0
				c-0.532-3.633-1.251-4.632-3.978-5.328c-0.351-0.09-0.351-0.594,0-0.683c2.726-0.696,3.446-1.695,3.978-5.328
				c0.038-0.259,0.41-0.259,0.447,0c0.532,3.633,1.251,4.632,3.978,5.328C56.938,156.887,56.938,157.392,56.588,157.481z"/>
		</g>
		<g style="opacity:0.6;">
			<path style="fill:#FFFFFF;" d="M56.588,157.481c-2.726,0.696-3.446,1.695-3.978,5.328c-0.038,0.259-0.41,0.259-0.447,0
				c-0.532-3.633-1.251-4.632-3.978-5.328c-0.351-0.09-0.351-0.594,0-0.683c2.726-0.696,3.446-1.695,3.978-5.328
				c0.038-0.259,0.41-0.259,0.447,0c0.532,3.633,1.251,4.632,3.978,5.328C56.938,156.887,56.938,157.392,56.588,157.481z"/>
		</g>
	</g>
</g>
<g id="Play_icon">
	<g>
		<g>
			
				<ellipse transform="matrix(0.7071 -0.7071 0.7071 0.7071 1.2834 359.6634)" style="fill:#407BFF;" cx="434.794" cy="178.282" rx="11.321" ry="11.321"/>
			
				<ellipse transform="matrix(0.7071 -0.7071 0.7071 0.7071 1.2834 359.6634)" style="opacity:0.6;fill:#FFFFFF;" cx="434.794" cy="178.282" rx="11.321" ry="11.321"/>
		</g>
		<polygon style="fill:#FFFFFF;" points="432.279,172.449 432.279,184.116 440.348,178.283 		"/>
	</g>
</g>
<g id="Like_icon">
	<g>
		<g>
			<g>
				<g>
					<g>
						<g>
							<path style="fill:#407BFF;" d="M338.115,86.139l-0.013,18.738c0,0.883-0.716,1.599-1.601,1.599l-12.128-0.009l0.002-0.002
								h-2.458l-4.665-0.002c-0.885,0-1.601-0.719-1.599-1.601l0.013-18.738c0-0.883,0.717-1.599,1.599-1.599l19.25,0.013
								C337.399,84.539,338.115,85.256,338.115,86.139z"/>
						</g>
					</g>
				</g>
			</g>
			<g style="opacity:0.6;">
				<g>
					<g>
						<g>
							<path style="fill:#FFFFFF;" d="M338.115,86.139l-0.013,18.738c0,0.883-0.716,1.599-1.601,1.599l-12.128-0.009l0.002-0.002
								h-2.458l-4.665-0.002c-0.885,0-1.601-0.719-1.599-1.601l0.013-18.738c0-0.883,0.717-1.599,1.599-1.599l19.25,0.013
								C337.399,84.539,338.115,85.256,338.115,86.139z"/>
						</g>
					</g>
				</g>
			</g>
		</g>
		<path style="fill:#FFFFFF;" d="M332.27,96.648c-1.923,2.61-5.384,4.774-5.384,4.774s-3.461-2.164-5.384-4.774
			c-1.923-2.603-0.546-5.946,2.015-5.746c2.561,0.2,3.369,2.337,3.369,2.337s0.8-2.137,3.361-2.337
			C332.808,90.702,334.193,94.045,332.27,96.648z"/>
	</g>
</g>
<g id="Share_icon">
	<g>
		<g>
			<g>
				<g>
					<g>
						<path style="fill:#407BFF;" d="M179.742,112.708l-0.014,20.212c0,0.952-0.773,1.725-1.727,1.725l-13.083-0.01l0.002-0.002
							h-2.651l-5.032-0.002c-0.955,0-1.727-0.775-1.725-1.727l0.014-20.212c0-0.952,0.773-1.725,1.725-1.725l20.765,0.014
							C178.969,110.983,179.742,111.756,179.742,112.708z"/>
					</g>
				</g>
			</g>
		</g>
		<g style="opacity:0.6;">
			<g>
				<g>
					<g>
						<path style="fill:#FFFFFF;" d="M179.742,112.708l-0.014,20.212c0,0.952-0.773,1.725-1.727,1.725l-13.083-0.01l0.002-0.002
							h-2.651l-5.032-0.002c-0.955,0-1.727-0.775-1.725-1.727l0.014-20.212c0-0.952,0.773-1.725,1.725-1.725l20.765,0.014
							C178.969,110.983,179.742,111.756,179.742,112.708z"/>
					</g>
				</g>
			</g>
		</g>
		<g>
			<g>
				<path style="fill:#FFFFFF;" d="M171.018,125.84c-0.753,0-1.419,0.362-1.84,0.92l-4.477-2.585c0.109-0.268,0.17-0.56,0.17-0.867
					c0-0.268-0.048-0.525-0.133-0.765l4.906-2.832c0.421,0.458,1.024,0.747,1.696,0.747c1.273,0,2.305-1.032,2.305-2.306
					s-1.032-2.306-2.305-2.306s-2.306,1.032-2.306,2.306c0,0.123,0.012,0.244,0.031,0.362l-5.115,2.953
					c-0.386-0.291-0.865-0.465-1.385-0.465c-1.273,0-2.306,1.032-2.306,2.306s1.032,2.306,2.306,2.306
					c0.478,0,0.923-0.146,1.291-0.395l4.862,2.807c-0.002,0.04-0.006,0.08-0.006,0.121c0,1.273,1.032,2.306,2.305,2.306
					c1.273,0,2.306-1.032,2.306-2.306S172.291,125.84,171.018,125.84z"/>
			</g>
		</g>
	</g>
</g>
<g id="Character_2">
	<g>
		<g>
			<g>
				<path style="fill:#407BFF;" d="M350.684,272.545L260.9,387.622h89.785v55.957H183.128v-52.796l88.521-115.393h-88.521v-55.642
					h167.556V272.545z"/>
			</g>
		</g>
		<g style="opacity:0.3;">
			<g>
				<path style="fill:#263238;" d="M350.684,272.545L260.9,387.622h89.785v55.957H183.128v-52.796l88.521-115.393h-88.521v-55.642
					h167.556V272.545z"/>
			</g>
		</g>
		<g>
			<g>
				<path style="fill:#407BFF;" d="M326.884,272.545L237.1,387.622h89.785v55.957H159.328v-52.796l88.521-115.393h-88.521v-55.642
					h167.556V272.545z"/>
			</g>
		</g>
	</g>
	<g>
		<g>
			<g>
				<g>
					<g>
						<g>
							<polygon style="fill:#B55B52;" points="199.299,198.025 194.497,211.148 186.881,211.764 188.946,195.755 							"/>
						</g>
					</g>
				</g>
			</g>
			<g>
				<g>
					<g>
						<g>
							<path style="fill:#407BFF;" d="M189.444,209.845c0,0-1.338-1.551-2.901-1.021c-1.563,0.531-3.505,3.141-3.505,3.141
								s-8.481,2.775-10.803,2.922c-2.323,0.147-4.292,1.46-4.922,5.982l28.26-0.013c0,0,0.562-10.21,0.64-11.96
								c0.078-1.75-2.572,0.439-2.572,0.439L189.444,209.845z"/>
						</g>
					</g>
				</g>
			</g>
			<g style="opacity:0.7;">
				<g>
					<g>
						<g>
							<path style="fill:#FFFFFF;" d="M189.444,209.845c0,0-1.338-1.551-2.901-1.021c-1.563,0.531-3.505,3.141-3.505,3.141
								s-8.481,2.775-10.803,2.922c-2.323,0.147-4.292,1.46-4.922,5.982l28.26-0.013c0,0,0.562-10.21,0.64-11.96
								c0.078-1.75-2.572,0.439-2.572,0.439L189.444,209.845z"/>
						</g>
					</g>
				</g>
			</g>
			<g>
				<g>
					<g>
						<g>
							<g>
								<path style="fill:#263238;" d="M195.423,219.225c-7.417,0.081-14.835,0.162-22.252,0.243
									c-1.697,0.018-3.394,0.037-5.091,0.056c-0.281,0.003-0.305-0.435-0.024-0.438c7.417-0.081,14.835-0.162,22.253-0.243
									c1.697-0.018,3.394-0.037,5.091-0.055C195.68,218.784,195.704,219.222,195.423,219.225L195.423,219.225z"/>
							</g>
						</g>
					</g>
				</g>
			</g>
			<g>
				<g>
					<g>
						<g>
							<g>
								<path style="fill:#263238;" d="M184.136,213.741c-1.057-1.382-2.739-1.774-4.077-0.731
									c-0.216,0.169-0.455-0.211-0.241-0.378c1.536-1.198,3.486-0.679,4.683,0.887C184.677,213.75,184.31,213.969,184.136,213.741
									L184.136,213.741z"/>
							</g>
						</g>
					</g>
				</g>
			</g>
			<g>
				<g>
					<g>
						<g>
							<g>
								<path style="fill:#263238;" d="M181.74,214.478c-1.057-1.382-2.739-1.774-4.077-0.731c-0.216,0.169-0.455-0.211-0.241-0.378
									c1.536-1.198,3.486-0.678,4.683,0.887C182.282,214.487,181.915,214.706,181.74,214.478L181.74,214.478z"/>
							</g>
						</g>
					</g>
				</g>
			</g>
			<g>
				<g>
					<g>
						<g>
							<g>
								<path style="fill:#263238;" d="M179.266,215.215c-1.057-1.382-2.739-1.774-4.077-0.73c-0.216,0.169-0.455-0.211-0.241-0.378
									c1.536-1.198,3.486-0.679,4.683,0.887C179.807,215.224,179.44,215.443,179.266,215.215L179.266,215.215z"/>
							</g>
						</g>
					</g>
				</g>
			</g>
		</g>
		<g>
			<path style="fill:#263238;" d="M263.304,199.095l-0.69,0.35l-3.052,1.537l-22.055,11.124c-1.153-2.363-2.374-4.804-3.64-7.337
				c-1.741-3.471-3.572-7.111-5.46-10.886c-4.624-9.281-9.575-19.421-14.3-30.296c0.78,9.044-7.009,25.401-15.329,40.956
				l-14.402-0.701c0,0,12.661-75.83,29.731-73.241c13.972,2.114,38.017,46.619,46.291,62.739c0.543,1.051,1.017,1.978,1.413,2.758
				C262.773,198.01,263.304,199.095,263.304,199.095z"/>
		</g>
		<path style="opacity:0.2;" d="M262.863,200.497l-3.301,0.486l-25.695,3.787c-1.741-3.471-3.572-7.111-5.46-10.886
			c9.71-1.775,20.416-1.888,31.991-0.543c0.26,0.034,0.509,0.057,0.769,0.09l0.644,2.668l0.803,3.346L262.863,200.497z"/>
		<g>
			<polygon style="fill:#263238;" points="183.365,199.801 182.676,204.535 199.793,205.491 201.996,200.994 			"/>
		</g>
		<g style="opacity:0.3;">
			<polygon style="fill:#FFFFFF;" points="183.365,199.801 182.676,204.535 199.793,205.491 201.996,200.994 			"/>
		</g>
		<g>
			<g>
				<path style="fill:#B55B52;" d="M232.618,139.589c4.747,3.557,9.758,7.49,14.681,11.037l-3.58,6.365
					c-5.881-2.28-11.564-4.769-17.214-7.743c-1.41-0.738-2.83-1.509-4.24-2.357c-1.421-0.859-2.841-1.74-4.361-2.886
					c-0.771-0.584-1.553-1.2-2.489-2.214c-0.474-0.54-1.013-1.09-1.685-2.423c-0.088-0.187-0.176-0.385-0.253-0.584l-0.11-0.308
					l-0.132-0.408c-0.077-0.275-0.143-0.551-0.198-0.848c-0.055-0.385-0.088-0.771-0.099-1.156c-0.011-0.33,0.033-0.903,0.11-1.355
					c0.044-0.242,0.088-0.474,0.154-0.705c0.077-0.286,0.176-0.562,0.286-0.837c0.408-0.98,0.936-1.674,1.299-2.092
					c0.815-0.903,1.344-1.256,1.806-1.575c0.452-0.308,0.815-0.507,1.145-0.694c0.672-0.352,1.201-0.584,1.707-0.793
					c1.002-0.418,1.872-0.716,2.72-0.991c3.37-1.057,6.454-1.773,9.582-2.456c3.117-0.628,6.201-1.244,9.284-1.729
					c6.178-1.013,12.291-1.817,18.547-2.313l1.586,15.331c-5.947,0.804-12.016,1.476-17.996,2.159
					c-2.985,0.374-5.969,0.683-8.899,1.101c-0.65,0.088-1.289,0.165-1.938,0.253C232.43,139.445,232.518,139.511,232.618,139.589z"
					/>
			</g>
			<g>
				<g>
					<path style="fill:#407BFF;" d="M262.895,117.666l-23.726,4.299l5.321,18.794l16.675-1.045
						C261.164,139.714,267.103,125.385,262.895,117.666z"/>
				</g>
			</g>
			<g style="opacity:0.3;">
				<g>
					<path style="fill:#FFFFFF;" d="M262.895,117.666l-23.726,4.299l5.321,18.794l16.675-1.045
						C261.164,139.714,267.103,125.385,262.895,117.666z"/>
				</g>
			</g>
		</g>
		<g>
			<g>
				<g>
					<path style="fill:#407BFF;" d="M310.476,158.905c-1.29,7.727-3.219,16.105-5.709,24.237
						c-1.615,5.327-3.477,10.565-5.563,15.432c-8.333,19.504-14.603,13.167-14.603,13.167s-21.242-13.436-25.38-17.294
						c-4.262-3.993-13.077-19.021-13.492-21.074c-0.415-2.041-0.965-5.787,4.352-9.701c0.942-0.695,1.851-1.626,2.692-2.714
						c3.32-4.318,5.686-11.305,6.09-17.72c0.168-2.479,0.022-4.879-0.471-7.01c-2.108-8.995-4.576-13.862,1.817-17.429
						c3.073-1.716,9.757-3.017,15.881-3.903c10.105-1.458,20.177,0.695,28.24,6.55c2.781,2.019,5.204,4.352,6.483,6.898
						C313.1,132.919,312.831,144.863,310.476,158.905z"/>
				</g>
			</g>
			<path style="opacity:0.2;fill:#263238;" d="M310.476,158.905c-1.29,7.727-3.219,16.105-5.709,24.237
				c-7.436-2.423-36.776-12.326-51.995-22.184c3.32-4.318,5.686-11.305,6.09-17.72C265.12,146.646,290.164,159.544,310.476,158.905z
				"/>
			<g>
				<path style="fill:#B55B52;" d="M312.517,133.393c1.568,7.472,2.926,14.999,4.166,22.535c1.236,7.526,2.363,15.125,3.49,22.565
					l0.435,2.694c0.063,0.47,0.151,0.806,0.231,1.167c0.08,0.36,0.147,0.71,0.281,1.153c0.447,1.658,0.999,3.436,1.576,5.204
					c1.155,3.546,2.355,7.151,3.615,10.736l4.818,17.974l-6.08,3.412c-3.664-6.794-5.418-10.303-8.774-17.263
					c-1.653-3.49-3.307-6.986-4.864-10.596c-0.781-1.808-1.544-3.625-2.284-5.604c-0.357-0.919-0.773-2.259-1.056-3.198
					c-0.3-1.007-0.556-1.969-0.81-2.908c-2.036-7.534-3.802-14.964-5.479-22.462c-1.66-7.491-3.158-14.999-4.42-22.567
					L312.517,133.393z"/>
			</g>
			<g>
				<path style="fill:#B55B52;" d="M343.475,220.869c1.516-0.479,2.057-1.678,0.153-2.491c-2.622-1.12-5.391-2.614-8.212-3.716
					c-2.821-1.101-8.979,0.749-9.244,0.933l-1.087,5.274H343.475z"/>
			</g>
			<g>
				<path style="fill:#B55B52;" d="M294.72,137.126l4.239,22.293l19.596-5.601c0,0-1.031-20.246-7.743-25.472
					c-6.293-4.899-15.72-2.14-16.307,5.975C294.437,135.259,294.544,136.202,294.72,137.126z"/>
			</g>
			<g>
				<path style="fill:#407BFF;" d="M294.72,137.126l4.239,22.293l19.596-5.601c0,0-1.031-20.246-7.743-25.472
					c-6.293-4.899-15.72-2.14-16.307,5.975C294.437,135.259,294.544,136.202,294.72,137.126z"/>
			</g>
			<g style="opacity:0.3;">
				<path style="fill:#FFFFFF;" d="M294.72,137.126l4.239,22.293l19.596-5.601c0,0-1.031-20.246-7.743-25.472
					c-6.293-4.899-15.72-2.14-16.307,5.975C294.437,135.259,294.544,136.202,294.72,137.126z"/>
			</g>
		</g>
		<g>
			<g>
				<g>
					<g>
						<path style="fill:#263238;" d="M281.201,76.395c-1.476-1.672-6.54-1.917-9.02,1.192c-2.647,3.318-6.048,9.495-8.092,7.797
							c0,0,0.792,3.111,4.319,3.425c0,0-2.159,2.262-4.856,1.353c0,0,1.121,4.29,6.177,5.135
							c4.642,0.776,11.395-12.415,12.469-14.579C282.242,78.309,282.056,78.397,281.201,76.395z"/>
					</g>
					<g>
						<path style="fill:#263238;" d="M284.082,77.042c4.142-0.372,8.315,0.882,11.408,3.662c2.02,1.815,3.568,4.197,2.8,6.974
							c-1.792,6.481-6.41,16.905-6.41,16.905l-19.421-15.59c0,0,0.033-6.331,3.275-9.405
							C277.423,77.987,281.021,77.316,284.082,77.042z"/>
					</g>
					<g>
						<path style="fill:#263238;" d="M280.464,76.609c0,0,6.9-4.708,15.803,2.206c8.903,6.914-0.435,18.908-0.435,18.908
							s-3.008,5.327-0.482,6.702c0,0-1.631,0.602-2.829,0.438c0,0,0.843,1.651,1.969,1.534c0,0-1.577,0.596-4.334-0.707
							C287.4,104.386,280.464,76.609,280.464,76.609z"/>
					</g>
					<g>
						<g>
							<path style="fill:#B55B52;" d="M280.194,110.207l-0.003,0.009c0.009,0.032,0.012,0.052,0.02,0.084l0.456,3.958
								c-0.03,0.79-0.132,1.566-0.301,2.31c-0.14,0.628-0.33,1.231-0.548,1.804c-1.004,1.027-1.779,3.576,1.197,4.02
								c3.755,0.566,11.448-3.928,11.935-5.549c-0.995-5.389-1.581-11.607-0.589-16.474l-4.962,4.018L280.194,110.207z"/>
						</g>
					</g>
					<g style="opacity:0.2;">
						<g>
							<path d="M280.211,110.299l0.456,3.958c2.507-0.733,5.304-2.691,6.229-5.112c0.655-1.75,0.086-3.557-0.629-3.755
								L280.211,110.299z"/>
						</g>
					</g>
					<g>
						<g>
							<path style="fill:#B55B52;" d="M271.851,100.938c0.102,0.861,0.232,1.714,0.382,2.558c1.343,7.454,10.021,9.368,16.236,4.919
								c0.01-0.009,0.01-0.018,0.02-0.018c0.551-0.395,1.085-0.839,1.592-1.339c4.128-4.059,3.764-7.691,4.392-15.726
								c0.628-8.026-7.157-14.225-14.962-11.198C272.309,82.926,270.813,92.326,271.851,100.938z"/>
						</g>
					</g>
					<g>
						<g>
							<path style="fill:#263238;" d="M278.88,103.378c-0.136-0.018-0.216-0.036-0.221-0.037c-0.133-0.032-0.215-0.165-0.185-0.298
								c0.031-0.132,0.163-0.213,0.298-0.185c0.131,0.031,3.326,0.732,4.302-2.87c0.035-0.132,0.175-0.213,0.304-0.175
								c0.133,0.036,0.211,0.172,0.175,0.304C282.607,103.612,279.706,103.488,278.88,103.378z"/>
						</g>
					</g>
					<g>
						<g>
							<path style="fill:#263238;" d="M281.333,95.384c-0.734-0.32-0.922-0.83-0.931-0.857c-0.046-0.129,0.022-0.269,0.151-0.314
								c0.127-0.046,0.267,0.021,0.312,0.148c0.013,0.031,0.232,0.553,1.198,0.73c0.982,0.179,1.586-0.651,1.593-0.659
								c0.078-0.111,0.226-0.139,0.343-0.058c0.11,0.079,0.137,0.233,0.057,0.343c-0.031,0.045-0.795,1.092-2.08,0.857
								C281.724,95.529,281.512,95.462,281.333,95.384z"/>
						</g>
					</g>
					<g>
						<g>
							<path style="fill:#263238;" d="M273.853,95.338c-0.694-0.269-0.901-0.712-0.911-0.735c-0.056-0.125,0-0.27,0.124-0.325
								c0.123-0.055,0.268,0,0.323,0.12c0.013,0.024,0.246,0.47,1.137,0.61c0.888,0.139,1.37-0.544,1.391-0.573
								c0.076-0.111,0.231-0.138,0.341-0.064c0.113,0.076,0.142,0.229,0.066,0.341c-0.028,0.039-0.673,0.971-1.875,0.782
								C274.219,95.458,274.021,95.403,273.853,95.338z"/>
						</g>
					</g>
					<g>
						<path style="fill:#263238;" d="M294.453,92.087c0,0-2.417-0.238-2.82,1.802c-0.403,2.04-0.23,2.342-0.23,2.342l-2.921,0.176
							c0,0,1.941-7.719-0.139-7.924c-2.08-0.205,0.677-3.399-0.489-4.09c-2.751-1.632-10.72-2.88-14.505,1.471
							c0,0,1.512-4.621,5.675-6.618c4.163-1.998,11.861-1.414,14.391,2.782C295.945,86.222,294.453,92.087,294.453,92.087z"/>
					</g>
					<g>
						<g>
							<path style="fill:#B55B52;" d="M297.836,96.752c-0.627,2.079-2.156,3.675-3.742,4.494c-2.386,1.231-4.12-0.771-3.911-3.307
								c0.188-2.282,1.657-5.672,4.269-5.853C297.027,91.908,298.553,94.375,297.836,96.752"/>
						</g>
					</g>
					<path style="fill:#FFFFFF;" d="M293.494,95.519l-1.008,4.398l0.919-0.204l0.749-2.273c0,0,1.668-0.342,1.532-1.124
						C295.55,95.534,293.494,95.519,293.494,95.519z"/>
				</g>
				<g>
					<g>
						<path style="fill:#263238;" d="M272.683,91.97c0.112,0.002,0.221-0.055,0.28-0.159c0.27-0.461,0.608-0.745,1.007-0.845
							c0.656-0.163,1.29,0.214,1.297,0.219c0.146,0.092,0.347,0.048,0.439-0.104c0.093-0.15,0.046-0.347-0.104-0.44
							c-0.034-0.021-0.864-0.525-1.787-0.295c-0.572,0.142-1.045,0.527-1.404,1.143c-0.09,0.152-0.038,0.348,0.115,0.438
							C272.576,91.955,272.63,91.97,272.683,91.97z"/>
					</g>
				</g>
				<g>
					<g>
						<path style="fill:#263238;" d="M284.914,92.277c0.047-0.002,0.094-0.015,0.138-0.04c0.154-0.085,0.211-0.278,0.127-0.432
							c-0.02-0.036-0.49-0.884-1.406-1.141c-0.568-0.16-1.168-0.06-1.786,0.298c-0.154,0.089-0.206,0.284-0.117,0.437
							c0.089,0.153,0.285,0.205,0.437,0.117c0.461-0.266,0.894-0.347,1.288-0.237c0.655,0.181,1.019,0.828,1.023,0.834
							C284.68,92.222,284.796,92.283,284.914,92.277z"/>
					</g>
				</g>
				<g>
					<g>
						<path style="fill:#A02724;" d="M277.76,93.959c0,0-0.508,2.062-2.172,3.416c-1.664,1.354,1.552,2.633,1.552,2.633
							L277.76,93.959z"/>
					</g>
				</g>
			</g>
		</g>
		<g>
			<g>
				<g>
					<g>
						<g>
							<polygon style="fill:#B55B52;" points="227.047,296.502 227.039,309.477 219.987,312.267 219.091,296.306 							"/>
						</g>
					</g>
				</g>
			</g>
			<g>
				<g>
					<g>
						<g>
							<path style="fill:#407BFF;" d="M221.88,309.685c0,0-1.732-1.094-3.072-0.132c-1.34,0.963-2.438,4.026-2.438,4.026
								s-7.304,5.126-9.483,5.943c-2.179,0.817-3.68,2.647-2.966,7.157l27.03-8.246c0,0-2.437-9.931-2.872-11.628
								c-0.435-1.697-2.333,1.169-2.333,1.169L221.88,309.685z"/>
						</g>
					</g>
				</g>
			</g>
			<g style="opacity:0.7;">
				<g>
					<g>
						<g>
							<path style="fill:#FFFFFF;" d="M221.88,309.685c0,0-1.732-1.094-3.072-0.132c-1.34,0.963-2.438,4.026-2.438,4.026
								s-7.304,5.126-9.483,5.943c-2.179,0.817-3.68,2.647-2.966,7.157l27.03-8.246c0,0-2.437-9.931-2.872-11.628
								c-0.435-1.697-2.333,1.169-2.333,1.169L221.88,309.685z"/>
						</g>
					</g>
				</g>
			</g>
			<g>
				<g>
					<g>
						<g>
							<g>
								<path style="fill:#263238;" d="M230.332,316.916c-7.072,2.239-14.144,4.477-21.216,6.716
									c-1.618,0.512-3.236,1.024-4.854,1.536c-0.268,0.085-0.418-0.327-0.15-0.412c7.072-2.238,14.144-4.477,21.216-6.716
									c1.618-0.512,3.236-1.024,4.854-1.536C230.45,316.419,230.6,316.831,230.332,316.916L230.332,316.916z"/>
							</g>
						</g>
					</g>
				</g>
			</g>
			<g>
				<g>
					<g>
						<g>
							<g>
								<path style="fill:#263238;" d="M217.937,314.959c-1.414-1.014-3.137-0.899-4.113,0.489
									c-0.158,0.224-0.497-0.069-0.341-0.291c1.12-1.593,3.137-1.665,4.739-0.516C218.457,314.809,218.17,315.126,217.937,314.959
									L217.937,314.959z"/>
							</g>
						</g>
					</g>
				</g>
			</g>
			<g>
				<g>
					<g>
						<g>
							<g>
								<path style="fill:#263238;" d="M215.86,316.362c-1.414-1.015-3.137-0.899-4.113,0.489c-0.158,0.225-0.497-0.069-0.341-0.291
									c1.12-1.593,3.137-1.665,4.739-0.516C216.38,316.212,216.093,316.529,215.86,316.362L215.86,316.362z"/>
							</g>
						</g>
					</g>
				</g>
			</g>
			<g>
				<g>
					<g>
						<g>
							<g>
								<path style="fill:#263238;" d="M213.707,317.787c-1.414-1.014-3.137-0.899-4.113,0.489
									c-0.158,0.225-0.497-0.069-0.341-0.291c1.12-1.593,3.137-1.665,4.739-0.516C214.228,317.638,213.94,317.954,213.707,317.787
									L213.707,317.787z"/>
							</g>
						</g>
					</g>
				</g>
			</g>
		</g>
		<g>
			<path style="fill:#263238;" d="M288.49,220.125l-45.913,0.744c-5.074,1.646-13.369,80.087-13.369,80.087h-11.085
				c0,0-9.966-72.872-2.272-89.69c3.044-6.654,22.591-14.668,36.921-16.858c21.972-3.357,45.489,0.68,45.532,6.689
				C298.368,210.14,291.976,220.03,288.49,220.125z"/>
		</g>
		<g>
			<polygon style="fill:#263238;" points="216.543,298.233 217.093,301.813 229.942,301.813 230.451,298.169 			"/>
		</g>
		<g style="opacity:0.3;">
			<polygon style="fill:#FFFFFF;" points="216.543,298.233 217.093,301.813 229.942,301.813 230.451,298.169 			"/>
		</g>
		<g>
			<g>
				<g>
					<g>
						<g>
							<g>
								<path style="fill:#B55B52;" d="M248.724,151.81c0,0,1.511,1.245,3.449,3.723c1.334,1.705,2.749,3.155,2.445,4.141
									c-0.305,0.986-3.786-1.772-4.097-2.021C250.21,157.404,248.724,151.81,248.724,151.81z"/>
							</g>
						</g>
					</g>
				</g>
				<g style="opacity:0.2;">
					<g>
						<g>
							<g>
								<path d="M248.724,151.81c0,0,1.511,1.245,3.449,3.723c1.334,1.705,2.749,3.155,2.445,4.141
									c-0.305,0.986-3.786-1.772-4.097-2.021C250.21,157.404,248.724,151.81,248.724,151.81z"/>
							</g>
						</g>
					</g>
				</g>
			</g>
			<path style="fill:#B55B52;" d="M248.981,169.746c-1.265-0.67-2.34-4.579-2.34-4.579s1.336,3.399-0.825,2.657
				c-1.307-0.449-2.084-4.718-2.438-6.502c0-0.013,0-0.013,0-0.013c-0.822-2.441-1.956-5.461-1.956-5.461s4.043-5.871,5.852-5.188
				c1.556,0.582,3.782,3.757,5.325,6.83c0.258,0.433,0.506,0.96,0.74,1.569c0.002,0.004,0.004,0.008,0.006,0.012
				c0.001,0.003,0.001,0.005,0.002,0.008c0.153,0.399,0.302,0.826,0.441,1.308C256.697,170.568,250.246,170.416,248.981,169.746z"/>
		</g>
	</g>
</g>
<g id="Character_3">
	<g>
		<path style="fill:#CE7A63;" d="M444.997,216.82c0,0,0.771-6.884,0-8.413c-0.771-1.529-2.954,5.022-2.954,5.022L444.997,216.82z"/>
		<path style="fill:#263238;" d="M367.625,171.25c0,0-8.5-6.866-0.75-12.371c7.75-5.504,25.706,2.899,31.228,8.322
			c5.522,5.423,0.692,10.162,0.692,10.162L367.625,171.25z"/>
		<g>
			<g>
				<g>
					<g>
						<polygon style="fill:#D5794A;" points="347.261,419.667 346.269,435.531 353.032,436.07 357.575,420.469 						"/>
					</g>
				</g>
			</g>
			<g>
				<g>
					<g>
						<path style="fill:#263238;" d="M351.458,434.49c0,0,1.037-1.281,2.351-0.844c1.315,0.437,3.036,2.59,3.036,2.59
							s7.131,2.287,9.056,2.407c1.926,0.12,3.193,1.356,3.349,4.935H345c0,0,0-8.412,0.822-9.87
							c0.713-1.264,2.145,0.361,2.145,0.361L351.458,434.49z"/>
					</g>
				</g>
			</g>
			<g>
				<g>
					<g>
						<g>
							<path style="fill:#FFFFFF;" d="M368.697,442.471c-1.399-0.016-2.807-0.032-4.206-0.049
								c-6.131-0.065-12.27-0.129-18.401-0.186c-0.235-0.008-0.235-0.364,0-0.364c0.413,0.008,0.833,0.008,1.246,0.008
								c0-0.016,0-0.024,0.008-0.04c0.89-1.949-0.137-3.939-1.893-4.934c-0.202-0.113-0.024-0.429,0.178-0.307
								c1.909,1.076,2.952,3.203,2.079,5.29l2.596,0.024c6.131,0.065,12.262,0.129,18.393,0.194
								C368.932,442.107,368.932,442.471,368.697,442.471z"/>
						</g>
					</g>
				</g>
			</g>
			<g>
				<g>
					<g>
						<g>
							<path style="fill:#FFFFFF;" d="M356.017,437.703c0.812-1.141,2.184-1.465,3.336-0.604c0.186,0.139,0.367-0.174,0.182-0.312
								c-1.322-0.988-2.91-0.559-3.83,0.734C355.571,437.711,355.884,437.891,356.017,437.703L356.017,437.703z"/>
						</g>
					</g>
				</g>
			</g>
			<g>
				<g>
					<g>
						<g>
							<path style="fill:#FFFFFF;" d="M358.029,438.31c0.812-1.141,2.184-1.465,3.336-0.604c0.186,0.139,0.367-0.174,0.182-0.312
								c-1.322-0.988-2.91-0.559-3.83,0.734C357.582,438.318,357.895,438.498,358.029,438.31L358.029,438.31z"/>
						</g>
					</g>
				</g>
			</g>
			<g>
				<g>
					<g>
						<g>
							<path style="fill:#FFFFFF;" d="M360.107,438.918c0.812-1.141,2.184-1.465,3.336-0.604c0.186,0.139,0.367-0.174,0.182-0.312
								c-1.322-0.988-2.91-0.559-3.83,0.734C359.66,438.925,359.973,439.105,360.107,438.918L360.107,438.918z"/>
						</g>
					</g>
				</g>
			</g>
		</g>
		<g>
			<g>
				<g>
					<g>
						<polygon style="fill:#D5794A;" points="399.115,419.5 400.058,435.526 406.887,436.07 409.527,420.311 						"/>
					</g>
				</g>
			</g>
			<g>
				<g>
					<g>
						<path style="fill:#263238;" d="M405.312,434.49c0,0,1.037-1.281,2.351-0.844c1.315,0.437,3.036,2.59,3.036,2.59
							s7.131,2.287,9.056,2.407c1.926,0.12,3.611,1.204,4.333,4.935h-23.35c0,0-0.919-8.425-1.061-9.87
							c-0.142-1.444,2.145,0.361,2.145,0.361L405.312,434.49z"/>
					</g>
				</g>
			</g>
			<g>
				<g>
					<g>
						<g>
							<path style="fill:#FFFFFF;" d="M423.395,442.471c-1.399-0.016-2.807-0.032-4.206-0.049
								c-6.131-0.065-12.27-0.129-18.401-0.186c-0.235-0.008-0.235-0.364,0-0.364c0.412,0.008,0.833,0.008,1.246,0.008
								c0-0.016,0-0.024,0.008-0.04c0.89-1.949-0.138-3.939-1.893-4.934c-0.202-0.113-0.024-0.429,0.178-0.307
								c1.909,1.076,2.952,3.203,2.079,5.29l2.596,0.024c6.131,0.065,12.262,0.129,18.393,0.194
								C423.63,442.107,423.63,442.471,423.395,442.471z"/>
						</g>
					</g>
				</g>
			</g>
			<g>
				<g>
					<g>
						<g>
							<path style="fill:#FFFFFF;" d="M409.872,437.703c0.812-1.141,2.184-1.465,3.336-0.604c0.186,0.139,0.367-0.174,0.182-0.312
								c-1.322-0.988-2.91-0.559-3.83,0.734C409.425,437.711,409.738,437.891,409.872,437.703L409.872,437.703z"/>
						</g>
					</g>
				</g>
			</g>
			<g>
				<g>
					<g>
						<g>
							<path style="fill:#FFFFFF;" d="M411.884,438.31c0.812-1.141,2.184-1.465,3.336-0.604c0.186,0.139,0.367-0.174,0.182-0.312
								c-1.322-0.988-2.91-0.559-3.83,0.734C411.437,438.318,411.75,438.498,411.884,438.31L411.884,438.31z"/>
						</g>
					</g>
				</g>
			</g>
			<g>
				<g>
					<g>
						<g>
							<path style="fill:#FFFFFF;" d="M413.961,438.918c0.812-1.141,2.184-1.465,3.336-0.604c0.186,0.139,0.367-0.174,0.182-0.312
								c-1.322-0.988-2.91-0.559-3.83,0.734C413.514,438.925,413.827,439.105,413.961,438.918L413.961,438.918z"/>
						</g>
					</g>
				</g>
			</g>
		</g>
		<path style="fill:#407BFF;" d="M415.138,248.215c0,0,3.874,57.848,3.612,81.37c-0.273,24.466-8.253,95.659-8.253,95.659h-13.066
			c0,0-2.408-69.943-3.579-93.971c-1.276-26.194-9.102-83.058-9.102-83.058H415.138z"/>
		<path style="opacity:0.3;fill:#FFFFFF;" d="M418.75,329.58c-0.27,24.47-8.25,95.66-8.25,95.66h-13.07c0,0-2.41-69.94-3.58-93.97
			c-0.37-7.77-1.33-18.25-2.49-29.14c-1.02-9.61-2.2-19.54-3.27-28.22c-1.81-14.62-3.34-25.69-3.34-25.69h30.39
			C415.14,248.22,419.01,306.06,418.75,329.58z"/>
		<path style="opacity:0.2;fill:#263238;" d="M391.36,302.13c-1.02-9.61-2.2-19.54-3.27-28.22l1.53-9.16
			C389.62,264.75,394.74,279.05,391.36,302.13z"/>
		<path style="fill:#263238;" d="M396.447,421.292c0.026,1.411,0.129,4.219,0.129,4.219h15.061l0.454-4.219H396.447z"/>
		<path style="fill:#407BFF;" d="M392.73,248.215c0,0-3.966,58.987-8.23,81.07c-4.669,24.183-25.862,95.959-25.862,95.959H344.51
			c0,0,9.074-69.637,11.49-93.58c2.622-25.986,6.817-78.921,6.817-78.921L392.73,248.215z"/>
		<path style="opacity:0.3;fill:#FFFFFF;" d="M392.73,248.215c0,0-3.966,58.987-8.23,81.07
			c-4.669,24.183-25.862,95.959-25.862,95.959H344.51c0,0,9.074-69.637,11.49-93.58c2.622-25.986,6.817-78.921,6.817-78.921
			L392.73,248.215z"/>
		<path style="fill:#263238;" d="M347.937,421.819c0.064,0,0.118-0.046,0.127-0.11c0.102-0.714,10.155-62.942,12.325-84.453
			c2.356-23.345,7.255-75.104,7.304-75.625c0.007-0.072-0.046-0.138-0.119-0.146c-0.069-0.009-0.137,0.043-0.143,0.115
			c-0.049,0.52-4.949,52.279-7.304,75.623c-2.169,21.506-12.223,83.729-12.324,84.443c-0.011,0.072,0.039,0.139,0.112,0.151
			C347.922,421.818,347.929,421.819,347.937,421.819z"/>
		<path style="fill:#263238;" d="M343.879,421.187c-0.137,1.446-0.356,4.323-0.356,4.323h16.544l0.996-4.323H343.879z"/>
		<g>
			<path style="fill:#263238;" d="M443.66,220.26c-0.22,3.87-0.67,7.54-1.34,11.4c-0.36,1.92-0.79,3.86-1.39,5.94
				c-0.31,1.05-0.68,2.11-1.22,3.33c-0.27,0.61-0.59,1.25-1.04,1.99c-0.47,0.73-1.02,1.59-2.23,2.69c-0.65,0.56-1.43,1.19-2.83,1.76
				c-1.33,0.57-3.36,0.9-5.25,0.51c-0.45-0.09-0.91-0.22-1.33-0.37c-0.39-0.14-0.78-0.31-1.14-0.49c-0.38-0.19-0.69-0.39-1.02-0.6
				c-0.31-0.22-0.67-0.5-0.78-0.59l-0.47-0.41l-0.23-0.22l-0.15-0.13l-0.57-0.58c-1.03-1.13-1.62-1.91-2.21-2.68
				c-0.08-0.1-0.15-0.2-0.23-0.3c-1.28-1.7-2.36-3.28-3.44-4.87c-0.2-0.3-0.39-0.6-0.58-0.89c-1.89-2.87-3.63-5.73-5.39-8.58
				c-1.89-3.16-3.72-6.34-5.53-9.52c-1.76-3.2-3.56-6.38-5.23-9.61c-3.41-6.46-6.65-12.94-9.58-19.66l18.08-12.44
				c3.28,6.35,7.79,16.09,10.77,22.62c1.52,3.25,2.93,6.55,4.43,9.8l4.33,9.81c0.87,2,1.76,3.99,2.65,5.95
				c0.83-2.01,1.64-4.05,2.45-6.03L443.66,220.26z"/>
		</g>
		<path style="opacity:0.2;" d="M420.46,241.81c-0.08-0.1-0.15-0.2-0.23-0.3c-1.28-1.7-2.36-3.28-3.44-4.87
			c-0.2-0.3-0.39-0.6-0.58-0.89l-1.99-37.36C414.22,198.39,419.1,228.11,420.46,241.81z"/>
		<g>
			<g>
				<g>
					<g>
						<g>
							<g>
								<path style="fill:#407BFF;" d="M425.729,223.46l-0.076-7.51c-0.013-1.278,1.211-2.925,2.445-3.29l14.921-4.417
									c0.819-0.242,1.387,0.173,1.396,1.022l0.076,7.51c0.013,1.278-1.211,2.924-2.445,3.29l-14.921,4.417
									C426.305,224.724,425.737,224.308,425.729,223.46z"/>
							</g>
						</g>
						<g style="opacity:0.4;">
							<g>
								<path style="fill:#263238;" d="M425.729,223.46l-0.076-7.51c-0.013-1.278,1.211-2.925,2.445-3.29l14.921-4.417
									c0.819-0.242,1.387,0.173,1.396,1.022l0.076,7.51c0.013,1.278-1.211,2.924-2.445,3.29l-14.921,4.417
									C426.305,224.724,425.737,224.308,425.729,223.46z"/>
							</g>
						</g>
						<g>
							<g>
								<path style="fill:#407BFF;" d="M425.736,224.218l-0.076-7.51c-0.013-1.278,1.211-2.924,2.445-3.29l14.921-4.417
									c0.819-0.242,1.387,0.173,1.396,1.022l0.076,7.51c0.013,1.278-1.211,2.924-2.445,3.29l-14.921,4.417
									C426.313,225.482,425.745,225.067,425.736,224.218z"/>
							</g>
						</g>
						<g style="opacity:0.4;">
							<g>
								<path style="fill:#263238;" d="M435.684,218.34c-0.921,0.374-1.674,0.033-1.682-0.763c-0.008-0.795,0.732-1.744,1.653-2.118
									c0.921-0.374,1.674-0.033,1.682,0.763C437.346,217.018,436.605,217.966,435.684,218.34z"/>
							</g>
						</g>
					</g>
					<g>
						<g>
							<path style="fill:#407BFF;" d="M442.202,212.154c-0.465,0.163-0.869-0.046-0.904-0.467c-0.035-0.421,0.314-0.893,0.779-1.056
								c0.465-0.163,0.869,0.046,0.904,0.467C443.015,211.519,442.666,211.992,442.202,212.154z"/>
						</g>
					</g>
					<g style="opacity:0.3;">
						<g>
							<path style="fill:#263238;" d="M442.202,212.154c-0.465,0.163-0.869-0.046-0.904-0.467c-0.035-0.421,0.314-0.893,0.779-1.056
								c0.465-0.163,0.869,0.046,0.904,0.467C443.015,211.519,442.666,211.992,442.202,212.154z"/>
						</g>
					</g>
				</g>
			</g>
		</g>
		<path style="fill:#263238;" d="M415.25,262.62c-17.4,3.95-35.49,3.9-54.15,0.6c-2.25-0.39-3.86-2.48-3.7-4.83
			c0.13-1.87,0.33-4.18,0.57-6.87c0.13-1.52,0.27-3.16,0.42-4.91c0.67-8.06,1.44-18.37,1.67-29.54c0.03-1.99,0.05-4.02,0.05-6.06
			c0-1.04,0-2.1-0.01-3.15c-0.01-1.6-0.04-3.21-0.09-4.82c-0.2-7.53-0.75-15.2-1.8-22.6c-0.7-4.99,2.65-9.62,7.5-10.24
			c2.34-0.31,4.91-0.57,7.45-0.7c6.26-0.31,15.33-0.52,20.84,0c2.57,0.25,4.82,0.64,6.65,1.03c3.43,0.74,7.3,3.52,8.73,6.82
			c7.17,16.62,6.92,54.17,7.5,79.51C416.92,259.06,417.33,262.15,415.25,262.62z"/>
		<path style="opacity:0.2;" d="M369.438,194.035c-2.557,7.522-5.361,14.761-9.347,20.652c0-1.04,0.02-5.776,0.01-6.826
			c-0.01-1.6-0.04-3.21-0.09-4.82L369.438,194.035z"/>
		<g>
			<path style="fill:#263238;" d="M410.77,154.892c-0.419,4.163-3.878,7.224-7.727,6.837c-3.849-0.387-6.63-4.076-6.211-8.239
				c0.419-4.163,3.878-7.224,7.727-6.837C408.408,147.041,411.189,150.729,410.77,154.892z"/>
		</g>
		<g style="opacity:0.2;">
			<path style="fill:#FFFFFF;" d="M410.77,154.892c-0.419,4.163-3.878,7.224-7.727,6.837c-3.849-0.387-6.63-4.076-6.211-8.239
				c0.419-4.163,3.878-7.224,7.727-6.837C408.408,147.041,411.189,150.729,410.77,154.892z"/>
		</g>
		<g>
			<g>
				<g>
					<g>
						<g>
							<path style="fill:#263238;" d="M386.58,137.768c0,0,2.182-6.159,4.033-5.602c1.852,0.557,0.738,2.783,0.738,2.783
								s3.158-4.374,5.079-4.056c1.92,0.318,1.285,2.625,1.285,2.625s4.353-1.909,5.596-0.716c1.243,1.193-0.804,2.545-0.804,2.545
								s5.864-0.932,6.739,0.448c0.875,1.381-2.306,1.972-2.306,1.972s4.931,0.668,4.931,3.22s-2.545,2.159-2.545,2.159
								s3.261,2.857,2.545,4.607c-0.716,1.75-2.863,0.491-2.863,0.491s0.261,3.823-2.057,3.058c-2.318-0.765-3.64-2.744-3.64-2.744
								L386.58,137.768z"/>
						</g>
						<g>
							<path style="fill:#263238;" d="M398.956,136.869c-3.531-1.441-7.527-1.466-10.987,0.138c-2.26,1.047-4.258,2.718-4.333,5.36
								c-0.175,6.164,1.066,16.545,1.066,16.545l21.224-8.436c0,0,1.677-5.558-0.338-9.127
								C404.54,139.491,401.566,137.934,398.956,136.869z"/>
						</g>
						<g>
							<g>
								<path style="fill:#CE7A63;" d="M393.432,166.99l0,0.008c-0.016,0.026-0.024,0.043-0.041,0.068l-1.466,3.347
									c-0.187,0.701-0.306,1.408-0.359,2.106c-0.046,0.589-0.043,1.168-0.006,1.729c0.552,1.668,0.597,3.614-2.132,3.201
									c-3.444-0.515-8.977-6.526-8.968-8.08c2.324-4.456,4.512-9.749,4.954-14.283l3.267,4.859L393.432,166.99z"/>
							</g>
						</g>
						<g style="opacity:0.2;">
							<g>
								<path d="M393.392,167.066l-1.466,3.347c-2.001-1.318-3.925-3.787-4.084-6.16c-0.103-1.71,0.882-3.141,1.563-3.122
									L393.392,167.066z"/>
							</g>
						</g>
						<g>
							<g>
								<path style="fill:#CE7A63;" d="M403.242,161.111c-0.321,0.727-0.665,1.44-1.024,2.139
									c-3.185,6.173-11.308,5.513-15.558-0.061c-0.006-0.011-0.004-0.019-0.012-0.021c-0.376-0.495-0.725-1.027-1.035-1.603
									c-2.525-4.67-1.228-7.756,0.385-14.969c1.611-7.205,10.105-10.542,16.132-5.787
									C407.693,145.198,406.472,153.841,403.242,161.111z"/>
							</g>
						</g>
						<g>
							<g>
								<path style="fill:#263238;" d="M398.273,161.603c0.121,0.018,0.193,0.023,0.198,0.022c0.122,0.006,0.224-0.088,0.231-0.209
									c0.006-0.121-0.087-0.222-0.209-0.231c-0.119-0.006-3.018-0.192-2.967-3.506c0.002-0.121-0.097-0.225-0.216-0.224
									c-0.122-0.002-0.222,0.095-0.224,0.217C395.033,160.887,397.54,161.494,398.273,161.603z"/>
							</g>
						</g>
						<g>
							<path style="fill:#263238;" d="M385.813,147.264c0,0,2.183,0.443,1.987,2.34c-0.196,1.897-0.429,2.115-0.429,2.115
								l2.513,0.941c0,0,0.378-7.289,2.256-6.909c1.879,0.38,0.321-3.162,1.53-3.454c2.852-0.69,10.173,0.362,12.319,5.197
								c0,0-0.081-4.458-3.192-7.33c-3.111-2.872-10.017-4.434-13.364-1.437C386.085,141.721,385.813,147.264,385.813,147.264z"/>
						</g>
						<g>
							<g>
								<path style="fill:#CE7A63;" d="M381.59,150.443c-0.01,1.992,0.9,3.802,2.07,4.947c1.76,1.722,3.819,0.433,4.319-1.845
									c0.449-2.051,0.075-5.418-2.166-6.281C383.604,146.415,381.602,148.166,381.59,150.443"/>
							</g>
						</g>
						<g>
							<g>
								<path style="fill:#263238;" d="M396.286,152.382c-0.167,0.577,0.003,1.132,0.38,1.242c0.377,0.109,0.818-0.27,0.985-0.847
									c0.167-0.576-0.003-1.132-0.38-1.242C396.894,151.426,396.453,151.805,396.286,152.382"/>
							</g>
						</g>
						<g>
							<g>
								<path style="fill:#263238;" d="M402.629,154.134c-0.167,0.577,0.003,1.132,0.38,1.242c0.377,0.109,0.818-0.27,0.985-0.847
									c0.167-0.577-0.003-1.132-0.38-1.242C403.237,153.179,402.796,153.558,402.629,154.134"/>
							</g>
						</g>
					</g>
					<g>
						<g>
							<path style="fill:#263238;" d="M404.928,153.026c-0.098-0.029-0.178-0.108-0.203-0.214c-0.112-0.477-0.333-0.817-0.655-1.012
								c-0.531-0.32-1.189-0.16-1.195-0.157c-0.153,0.041-0.317-0.052-0.357-0.209c-0.041-0.157,0.053-0.317,0.209-0.358
								c0.035-0.01,0.899-0.228,1.646,0.222c0.464,0.279,0.774,0.743,0.923,1.38c0.038,0.158-0.06,0.316-0.218,0.353
								C405.026,153.042,404.975,153.04,404.928,153.026z"/>
						</g>
					</g>
					<g>
						<g>
							<path style="fill:#263238;" d="M395.044,150.379c-0.041-0.012-0.081-0.034-0.115-0.065c-0.119-0.109-0.129-0.293-0.02-0.413
								c0.025-0.028,0.628-0.683,1.499-0.715c0.54-0.02,1.055,0.198,1.528,0.65c0.118,0.112,0.122,0.298,0.01,0.415
								c-0.112,0.118-0.298,0.121-0.414,0.01c-0.354-0.337-0.722-0.502-1.097-0.489c-0.622,0.021-1.087,0.519-1.091,0.524
								C395.265,150.38,395.148,150.409,395.044,150.379z"/>
						</g>
					</g>
					<g>
						<g>
							<path style="fill:#BA4D3C;" d="M399.942,153.402c0,0,0.384,3.047,1.493,5.181c0.121,0.233-2.578,0.288-2.578,0.288
								L399.942,153.402z"/>
						</g>
					</g>
				</g>
			</g>
			<g>
				<g>
					<g>
						<path style="fill:#FFFFFF;" d="M383.534,176.924c0.912,12.469,1.602,24.989,1.611,37.494c0.002,3.165-0.047,6.332-0.234,9.492
							c-0.024,0.402,0.602,0.401,0.626,0c0.737-12.459-0.014-25.058-0.751-37.5c-0.187-3.163-0.395-6.326-0.626-9.486
							C384.131,176.525,383.504,176.522,383.534,176.924L383.534,176.924z"/>
					</g>
				</g>
			</g>
			<g>
				<g>
					<g>
						<path style="fill:#FFFFFF;" d="M394.741,176.979c1.35,12.43,2.48,24.917,2.929,37.414c0.113,3.163,0.176,6.33,0.1,9.494
							c-0.01,0.403,0.616,0.379,0.625-0.022c0.298-12.477-0.895-25.042-2.069-37.45c-0.299-3.155-0.617-6.308-0.96-9.458
							C395.323,176.559,394.697,176.578,394.741,176.979L394.741,176.979z"/>
					</g>
				</g>
			</g>
		</g>
		<g>
			<g>
				<g>
					<path style="fill:#407BFF;" d="M388.832,145.499c0,0,15.769,3.299,18.119,5.804c1.537,1.638-0.073,5.536-1.019,6.936
						c-0.623,0.922-3.99,0.897-4.868-0.699c-0.878-1.596-0.618-1.508-1.487-1.907c-0.869-0.399-1.711,0.666-3.129,0.714
						c-1.417,0.049-4.723-1.066-5.403-2.924c-0.681-1.858-0.058-2.755-1.612-3.176l-2.516-0.605
						c-0.968-0.233-1.553-1.23-1.267-2.184c0.283-0.942,0.791-1.947,1.69-2.173L388.832,145.499z"/>
				</g>
			</g>
		</g>
		<g style="opacity:0.4;">
			<g>
				<path d="M404.837,155.245l-10.506-3.336c-0.611-0.194-0.949-0.846-0.755-1.457l0.029-0.09c0.194-0.611,0.846-0.949,1.457-0.755
					l10.506,3.336c0.611,0.194,0.949,0.846,0.755,1.457l-0.029,0.09C406.1,155.101,405.448,155.439,404.837,155.245z"/>
			</g>
		</g>
		<g>
			<g>
				<path style="fill:#263238;" d="M377.771,147.857c-0.419,4.163,2.362,7.852,6.211,8.239c3.849,0.387,7.309-2.674,7.727-6.837
					c0.419-4.163-2.362-7.852-6.211-8.239C381.649,140.634,378.19,143.695,377.771,147.857z"/>
			</g>
			<g style="opacity:0.2;">
				<path style="fill:#FFFFFF;" d="M377.771,147.857c-0.419,4.163,2.362,7.852,6.211,8.239c3.849,0.387,7.309-2.674,7.727-6.837
					c0.419-4.163-2.362-7.852-6.211-8.239C381.649,140.634,378.19,143.695,377.771,147.857z"/>
			</g>
			<g style="opacity:0.2;">
				<path style="fill:#FFFFFF;" d="M378.386,147.773c-0.282,2.803,1.591,5.287,4.182,5.548c2.592,0.261,4.921-1.801,5.203-4.604
					c0.282-2.803-1.59-5.287-4.182-5.548C380.997,142.909,378.668,144.97,378.386,147.773z"/>
			</g>
			<g>
				<path style="fill:#FFFFFF;" d="M386.615,142.117l-0.706-0.178c0.018-0.072,1.923-7.17,11.747-8.781l0.118,0.719
					C388.417,135.412,386.632,142.05,386.615,142.117z"/>
			</g>
		</g>
		<path style="fill:#CE7A63;" d="M444.778,222.729c-0.322,0.437-0.941,0.54-1.476,0.633c-2.153,0.375-8.589,1.387-9.088,0.176
			c-0.599-1.456,1.927-2.141,1.927-2.141s-3.388-1.086-2.891-4.576c0.47-3.301,8.925-5.049,11.646-4.499
			C445.775,212.498,447.115,219.555,444.778,222.729z"/>
		<path style="fill:#263238;" d="M355.31,230.17c5.39,3.75,12.24,7,18.77,10.03l-2.41,9.1c-4.06-0.51-7.85-1.28-11.76-2.28
			c-3.89-1.01-7.75-2.27-11.71-4.04c-1.97-0.92-3.97-1.97-6.03-3.39c-1.03-0.72-2.09-1.53-3.14-2.58c-1.05-1.03-2.13-2.3-3.09-4.01
			c-0.23-0.44-0.46-0.88-0.67-1.38l-0.15-0.37l-0.08-0.19l-0.09-0.28c-0.12-0.37-0.22-0.75-0.32-1.13
			c-0.29-1.34-0.35-2.49-0.34-3.41c0.03-1.89,0.28-3.25,0.54-4.55c0.53-2.54,1.26-4.63,2-6.65c1.49-4.02,3.16-7.67,4.94-11.23
			c1.77-3.55,3.63-7,5.58-10.37c3.89-6.77,7.94-13.23,12.5-19.64l15.68,10.73c-3.91,6.13-8.01,12.43-11.88,18.64
			c-1.94,3.12-3.85,6.24-5.66,9.35c-1.78,3.11-3.53,6.22-4.93,9.2c-0.7,1.47-1.29,2.94-1.68,4.07c-0.11,0.3-0.19,0.59-0.25,0.79
			c0.2,0.25,0.44,0.52,0.71,0.79C352.75,228.29,353.97,229.26,355.31,230.17z"/>
		<path style="fill:#CE7A63;" d="M371.875,239.25l-2.438,9.851l6.688,2.649c0,0,4.188-6.125,4.375-8.25
			S371.875,239.25,371.875,239.25z"/>
		<g>
			<path style="fill:#263238;" d="M373.333,233.958c0,0,1.083,12.35-3.083,17.217c0,0,22.667,7.3,39.417,0c0,0,2.833-9.633,0-17.217
				C409.667,233.958,392.583,237.375,373.333,233.958z"/>
			<path style="opacity:0.1;fill:#F0F0F0;" d="M373.333,233.958c0,0,1.083,12.35-3.083,17.217c0,0,22.667,7.3,39.417,0
				c0,0,2.833-9.633,0-17.217C409.667,233.958,392.583,237.375,373.333,233.958z"/>
		</g>
	</g>
</g>
<g id="Character_1">
	<g>
		<path style="fill:#263238;" d="M281.256,137.678"/>
	</g>
	<g>
		<g>
			<path style="fill:#263238;" d="M117.425,190.382c-0.916,0.168-1.6,0.281-2.385,0.398l-2.273,0.286
				c-1.514,0.157-3.027,0.286-4.55,0.357c-3.046,0.147-6.118,0.122-9.246-0.125c-1.562-0.122-3.137-0.321-4.73-0.585
				c-1.592-0.26-3.198-0.589-4.821-1.066c-1.623-0.469-3.259-1.027-4.906-1.774c-0.827-0.387-1.644-0.794-2.459-1.291
				c-0.406-0.227-0.811-0.498-1.213-0.773l-0.6-0.411l-0.258-0.186l-0.314-0.24c-0.211-0.166-0.336-0.286-0.504-0.435
				c-1.134-1.084-1.648-1.865-2.186-2.636c-0.511-0.762-0.936-1.477-1.334-2.181c-0.789-1.405-1.444-2.771-2.079-4.128
				c-1.266-2.706-2.364-5.395-3.406-8.095c-2.079-5.401-4.827-13.141-5.222-17.854c0.603-2.104,2.677-1.315,6.143-1.131
				c2.729,4.893,5.466,9.838,8.214,14.657c1.381,2.405,2.781,4.787,4.198,7.056c0.71,1.128,1.445,2.224,2.158,3.213
				c0.354,0.492,0.708,0.957,1.032,1.335c0.3,0.364,0.672,0.696,0.588,0.558c-0.032-0.037-0.029-0.034-0.096-0.096l-0.101-0.084
				c-0.033-0.025-0.092-0.063-0.04-0.036l0.303,0.143c0.198,0.098,0.394,0.199,0.623,0.282c0.423,0.186,0.903,0.342,1.374,0.514
				c0.971,0.321,2.05,0.571,3.17,0.773c2.253,0.389,4.706,0.615,7.223,0.646c2.515,0.068,5.102-0.027,7.699-0.188
				c1.299-0.086,2.603-0.18,3.9-0.311l1.938-0.193l1.811-0.201L117.425,190.382z"/>
			<g>
				<g>
					<g>
						<g>
							<g>
								<path style="fill:#FFC3BD;" d="M72.723,142.313c0.12,2.07-0.37,3.48-0.37,3.48l-1.46,4.45c-0.07,1.79-4.95,1.87-5.78-0.11
									l-1.88-5.29c-1.52-2.22-3.1-5.973-3-8.85c0.057-1.636,0.234-2.932,0.428-3.9c0.247-1.233,1.542-1.929,2.714-1.473
									c1.772,0.689,4.27,1.893,5.858,3.653c-0.02-0.85,0.01-1.56,0.13-1.86c0.43-1.1,1.7,1.2,3.07,3.6
									C73.363,137.633,73.043,140.573,72.723,142.313z"/>
							</g>
						</g>
						<g>
							<g>
								<g>
									<g>
										<path style="fill:#263238;" d="M62.913,146.911l5.265-1.35c0.896-0.23,1.746-1.595,1.699-2.728l-0.573-13.698
											c-0.031-0.752-0.461-1.164-1.056-1.011l-5.265,1.35c-0.896,0.23-1.746,1.595-1.699,2.728l0.573,13.698
											C61.888,146.652,62.318,147.064,62.913,146.911z"/>
									</g>
								</g>
								<g style="opacity:0.3;">
									<g>
										<path style="fill:#FFFFFF;" d="M62.913,146.911l5.265-1.35c0.896-0.23,1.746-1.595,1.699-2.728l-0.573-13.698
											c-0.031-0.752-0.461-1.164-1.056-1.011l-5.265,1.35c-0.896,0.23-1.746,1.595-1.699,2.728l0.573,13.698
											C61.888,146.652,62.318,147.064,62.913,146.911z"/>
									</g>
								</g>
								<g>
									<g>
										<path style="fill:#263238;" d="M63.444,146.775l5.265-1.35c0.896-0.23,1.746-1.595,1.699-2.728l-0.573-13.698
											c-0.031-0.752-0.461-1.164-1.056-1.011l-5.265,1.35c-0.896,0.23-1.746,1.595-1.699,2.728l0.573,13.698
											C62.42,146.516,62.85,146.928,63.444,146.775z"/>
									</g>
								</g>
								<g style="opacity:0.4;">
									<g>
										<path style="fill:#FFFFFF;" d="M63.421,145.714l-0.572-13.691c-0.03-0.715,0.561-1.584,0.92-1.683l5.033-1.291
											l0.572,13.691c0.03,0.715-0.56,1.584-0.92,1.683L63.421,145.714z"/>
									</g>
								</g>
							</g>
						</g>
					</g>
				</g>
			</g>
			<g>
				<g>
					<g>
						<g>
							<g>
								<g>
									<g>
										<g>
											<polygon style="fill:#FFC3BD;" points="132.151,373.449 150.499,382.484 151.03,389.33 128.712,384.464 											"/>
										</g>
									</g>
								</g>
							</g>
							<g>
								<g>
									<g>
										<g>
											<path style="fill:#263238;" d="M149.302,387.003c0,0-1.409,1.206-0.934,2.623c0.475,1.417,2.832,3.184,2.832,3.184
												s2.484,7.688,2.609,9.791c0.125,2.104,1.308,3.891,5.399,4.477l0.085-25.587c0,0-9.242-0.544-10.827-0.62
												c-1.584-0.077,0.388,2.33,0.388,2.33L149.302,387.003z"/>
										</g>
									</g>
								</g>
							</g>
							<g>
								<g>
									<g>
										<g>
											<g>
												<path style="fill:#FFFFFF;" d="M151.973,381.21c1.087,1.876,3.265,2.885,5.403,1.811
													c0.231-0.116,0.431,0.215,0.199,0.332c-2.338,1.175-4.743,0.15-5.945-1.926
													C151.505,381.211,151.848,380.994,151.973,381.21L151.973,381.21z"/>
											</g>
										</g>
									</g>
								</g>
							</g>
							<g>
								<g>
									<g>
										<g>
											<g>
												<path style="fill:#FFFFFF;" d="M157.814,381.622c0.048,6.716,0.096,13.432,0.144,20.148
													c0.011,1.537,0.022,3.073,0.033,4.609c0.002,0.255-0.395,0.275-0.396,0.02c-0.048-6.716-0.096-13.432-0.144-20.148
													c-0.011-1.536-0.022-3.073-0.033-4.609C157.416,381.387,157.813,381.367,157.814,381.622L157.814,381.622z"/>
											</g>
										</g>
									</g>
								</g>
							</g>
							<g>
								<g>
									<g>
										<g>
											<g>
												<path style="fill:#FFFFFF;" d="M152.811,391.823c-1.255,0.952-1.616,2.474-0.675,3.689
													c0.152,0.197-0.192,0.411-0.343,0.217c-1.079-1.394-0.602-3.158,0.819-4.237
													C152.821,391.333,153.018,391.666,152.811,391.823L152.811,391.823z"/>
											</g>
										</g>
									</g>
								</g>
							</g>
							<g>
								<g>
									<g>
										<g>
											<g>
												<path style="fill:#FFFFFF;" d="M153.47,393.994c-1.255,0.953-1.616,2.474-0.675,3.689
													c0.152,0.197-0.193,0.411-0.343,0.217c-1.079-1.395-0.603-3.159,0.819-4.237
													C153.48,393.504,153.677,393.837,153.47,393.994L153.47,393.994z"/>
											</g>
										</g>
									</g>
								</g>
							</g>
							<g>
								<g>
									<g>
										<g>
											<g>
												<path style="fill:#FFFFFF;" d="M154.129,396.237c-1.255,0.953-1.616,2.474-0.675,3.689
													c0.152,0.196-0.193,0.411-0.343,0.217c-1.079-1.395-0.603-3.158,0.819-4.237
													C154.139,395.747,154.336,396.08,154.129,396.237L154.129,396.237z"/>
											</g>
										</g>
									</g>
								</g>
							</g>
						</g>
						<g>
							<g>
								<g>
									<path style="fill:#407BFF;" d="M137.13,389.33c0.11,0.02,0.17,0.04,0.19,0.06c-0.859-0.858-4.917-0.874-6.031-1.319
										c-26.952-10.762-60.478-38.085-63.854-54.756C65.074,321.652,84.35,272.6,94.04,244.69c0.56-1.62,1.09-3.12,1.58-4.49
										c0.58-1.64,1.11-3.09,1.57-4.3l18.09,8.43l1.68,0.78l2.32,1.08c0,0-0.91,3.15-2.39,8.36
										c-6.74,23.78-23.825,75.815-20.704,80.755c1.28,2.03,45.145,41.405,45.145,41.405L137.13,389.33z"/>
								</g>
							</g>
						</g>
						<g>
							<polygon style="fill:#263238;" points="139.16,373.385 132.312,390.165 137.754,391.583 144.281,375.874 							"/>
						</g>
						<g style="opacity:0.2;">
							<path d="M107.926,265.112l-17.692,97.601c-2.211-1.669-6.8-6.191-9.799-9.199c0,0-1.875-1.534-1.708-6.741
								C79.29,329.188,107.926,265.112,107.926,265.112z"/>
						</g>
						<g>
							<g style="opacity:0.2;">
								<path d="M69.826,334.22c2.128,0.908,4.384,1.015,6.585,0.306c0.384-0.123,0.175-0.714-0.21-0.591
									c-2.039,0.656-4.13,0.562-6.099-0.278C69.732,333.5,69.454,334.062,69.826,334.22L69.826,334.22z"/>
							</g>
						</g>
						<polygon style="opacity:0.2;" points="107.132,345.724 109.004,347.442 112.627,378.668 107.926,375.743 						"/>
					</g>
					<g>
						<g>
							<g>
								<g style="opacity:0.2;">
									<path d="M100.504,240.922c-0.935,5.615-4.316,10.634-9.19,13.581c-0.414,0.25-0.036,0.901,0.38,0.649
										c5.028-3.041,8.57-8.231,9.535-14.031C101.308,240.648,100.584,240.444,100.504,240.922L100.504,240.922z"/>
								</g>
							</g>
						</g>
					</g>
					<g>
						<g>
							<g>
								<g>
									<g>
										<g>
											<polygon style="fill:#FFC3BD;" points="112.397,417.178 114.31,434.744 106.928,435.341 101.138,418.066 											"/>
										</g>
									</g>
								</g>
							</g>
							<g>
								<g>
									<g>
										<g>
											<path style="fill:#263238;" d="M108.56,433.607c0,0-1.211-1.405-2.626-0.926c-1.415,0.48-3.175,2.842-3.175,2.842
												s-7.679,2.509-9.783,2.641c-2.103,0.132-3.886,1.321-4.459,5.414h25.587c0,0,0.513-9.244,0.585-10.829
												c0.071-1.585-2.329,0.396-2.329,0.396L108.56,433.607z"/>
										</g>
									</g>
								</g>
							</g>
							<g>
								<g>
									<g>
										<g>
											<g>
												<path style="fill:#FFFFFF;" d="M114.362,436.259c-1.872,1.093-2.874,3.275-1.793,5.409
													c0.117,0.23-0.214,0.432-0.331,0.2c-1.182-2.334-0.165-4.742,1.906-5.951
													C114.36,435.791,114.578,436.133,114.362,436.259L114.362,436.259z"/>
											</g>
										</g>
									</g>
								</g>
							</g>
							<g>
								<g>
									<g>
										<g>
											<g>
												<path style="fill:#FFFFFF;" d="M113.969,442.102c-6.716,0.07-13.432,0.14-20.148,0.211
													c-1.536,0.016-3.073,0.032-4.609,0.048c-0.255,0.003-0.276-0.393-0.021-0.396c6.716-0.07,13.432-0.14,20.148-0.211
													c1.536-0.016,3.073-0.032,4.609-0.048C114.203,441.703,114.224,442.099,113.969,442.102L113.969,442.102z"/>
											</g>
										</g>
									</g>
								</g>
							</g>
							<g>
								<g>
									<g>
										<g>
											<g>
												<path style="fill:#FFFFFF;" d="M103.752,437.132c-0.957-1.252-2.479-1.607-3.691-0.663
													c-0.196,0.153-0.412-0.191-0.218-0.342c1.391-1.084,3.156-0.613,4.24,0.805
													C104.242,437.141,103.91,437.339,103.752,437.132L103.752,437.132z"/>
											</g>
										</g>
									</g>
								</g>
							</g>
							<g>
								<g>
									<g>
										<g>
											<g>
												<path style="fill:#FFFFFF;" d="M101.583,437.798c-0.957-1.252-2.479-1.607-3.691-0.663
													c-0.196,0.153-0.412-0.191-0.218-0.342c1.391-1.084,3.156-0.613,4.24,0.805
													C102.073,437.807,101.741,438.005,101.583,437.798L101.583,437.798z"/>
											</g>
										</g>
									</g>
								</g>
							</g>
							<g>
								<g>
									<g>
										<g>
											<g>
												<path style="fill:#FFFFFF;" d="M99.342,438.465c-0.957-1.252-2.479-1.607-3.691-0.663
													c-0.196,0.153-0.412-0.191-0.218-0.342c1.391-1.084,3.156-0.613,4.24,0.805C99.832,438.473,99.5,438.671,99.342,438.465
													L99.342,438.465z"/>
											</g>
										</g>
									</g>
								</g>
							</g>
						</g>
						<g>
							<g>
								<g>
									<path style="fill:#407BFF;" d="M140.71,259.37c-4.8,28.48-34.432,78.477-34.432,78.477c0,3.34,1.992,14.393,2.502,21.893
										c0.45,6.61,1.04,14.25,1.66,21.87c1.68,20.52,3.57,40.92,3.57,40.92l-13.13,1.02c0,0-9.85-28.44-14.53-53.62h-0.01
										c-1.78-9.57-4.462-23.533-3.932-30.423c1.43-18.39,22.972-65.906,30.902-86.217c1.99-5.1,3.23-8.18,3.23-8.18h2.45
										l20.85-0.04c0.78,1.19,1.26,2.79,1.46,4.72C141.56,252.42,141.33,255.67,140.71,259.37z"/>
								</g>
							</g>
						</g>
						<g>
							<polygon style="fill:#263238;" points="115.717,417.745 97.75,420.124 99.219,425.552 116.096,423.426 							"/>
						</g>
						<g>
							<g style="opacity:0.2;">
								<path d="M84.915,341.847c2.11,0.956,4.349,1.128,6.575,0.474c0.386-0.114,0.222-0.719-0.167-0.604
									c-2.058,0.605-4.134,0.477-6.092-0.41C84.867,341.14,84.548,341.68,84.915,341.847L84.915,341.847z"/>
							</g>
						</g>
						<g style="opacity:0.2;">
							<g>
								<g>
									<g>
										<path d="M128.53,248.584c-2.201,3.675-2.786,8.268-1.409,12.347c1.267,3.754,4.052,6.892,7.607,8.628
											c0.433,0.212,0.815-0.437,0.38-0.649c-3.378-1.65-6.055-4.603-7.261-8.179c-1.315-3.898-0.771-8.253,1.333-11.767
											C129.429,248.548,128.779,248.169,128.53,248.584L128.53,248.584z"/>
									</g>
								</g>
							</g>
						</g>
					</g>
				</g>
			</g>
			<path style="fill:#263238;" d="M157.61,197.64c-11.78,23.02-13.83,43.83-13.2,55.2c-7.19,0.13-15.4-0.71-23.11-2.04
				c-6.02-1.04-11.73-2.37-16.41-3.79c-1.53-0.46-2.95-0.94-4.24-1.41c-4.85-1.78-7.77-3.58-7.37-4.95c4-13.78,6.86-25.1,7.83-32.99
				c-7.68-8.54,1.2-11.87,2.92-20.89c1.31-6.89,8.31-11.44,15.99-10.54c1.27,0.15,2.57,0.32,3.87,0.5c0.88,0.13,1.75,0.26,2.61,0.4
				c5.27,0.85,10.13,2.12,15.62,3.71c1.2,0.35,2.44,0.71,3.72,1.09c1.82,0.53,3.59,1.11,5.25,1.69
				C157.3,185.78,160.34,192.3,157.61,197.64z"/>
			<path style="fill:#FFFFFF;" d="M142.12,180.84c-2.43,1.62-4.74,5.76-6.86,10.93c-3.69,8.99-6.79,21.11-8.88,28.72
				c-2.42,8.8-2.3,23.45-5.08,30.31c-6.02-1.04-11.73-2.37-16.41-3.79c3.92-8.25,6.91-29.95,8.61-43.84
				c0.73-5.97,2.32-11.11,4.03-15.22c2.98-7.15,6.36-11.22,6.36-11.22c0.88,0.13,1.75,0.26,2.61,0.4
				C131.77,177.98,136.63,179.25,142.12,180.84z"/>
			<path style="fill:#FFC3BD;" d="M142.12,180.84c-2.43,1.62-4.74,5.76-6.86,10.93c-3.38,2.76-7.42,4.6-11.75,3.56
				c-4.38-1.05-5.85-4.03-5.98-7.38c2.98-7.15,6.36-11.22,6.36-11.22c0.88,0.13,1.75,0.26,2.61,0.4
				C131.77,177.98,136.63,179.25,142.12,180.84z"/>
			<path style="fill:#263238;" d="M154.889,185.981c3.526,4.048,6.829,8.198,10.074,12.493c1.626,2.148,3.209,4.326,4.783,6.635
				c0.798,1.18,1.567,2.301,2.443,3.854c0.232,0.427,0.48,0.858,0.83,1.674c0.305,0.755,0.531,1.56,0.668,2.38
				c0.268,1.645,0.112,3.192-0.178,4.415c-0.605,2.47-1.56,4.02-2.424,5.415c-0.884,1.385-1.771,2.544-2.652,3.669
				c-1.787,2.211-3.552,4.211-5.337,6.192c-3.176,3.521-6.35,6.958-9.59,10.384c-0.678,0.717-1.775,0.847-2.602,0.308l-2.865-1.864
				c-0.675-0.439-0.912-1.313-0.548-2.031c2.249-4.428,4.622-9.012,7.18-13.123c1.384-2.251,2.811-4.467,4.043-6.599
				c0.619-1.051,1.202-2.093,1.616-3.013c0.426-0.903,0.651-1.76,0.593-1.885c-0.021-0.068-0.102,0.133-0.076,0.475
				c-0.017,0.286,0.274,0.879-0.016,0.415c-0.504-0.702-1.273-1.735-2.028-2.694c-1.548-1.959-3.199-3.964-4.836-5.977
				c-3.292-4.018-6.651-8.082-9.857-12.189L154.889,185.981z"/>
			<path style="fill:#FFC3BD;" d="M147.807,240.463c0,0-3.577,2.689-4.985,5.638c-1.408,2.949-0.36,7.036,0.146,8.512
				c0.506,1.476,1.92,2.236,3.755,2.309c1.835,0.073,2.426-2.459,3.02-4.182c0,0-0.292,2.266,0.362,2.452
				c0.654,0.186,1.888-3.357,2.216-6.166c0.328-2.809,0.944-5.228,0.79-7.079C152.956,240.095,150.096,239.225,147.807,240.463z"/>
			<g>
				<g>
					<g>
						<g>
							<path style="fill:#407BFF;" d="M130.779,174.277l8.1-29.568c0,0-8.84-7.281-16.695,1.015
								c-6.699,7.074-1.945,15.181-6.271,22.825c-1.481,2.617-2.727,3.841-3.552,5.729
								C116.42,176.147,123.133,175.074,130.779,174.277z"/>
						</g>
					</g>
					<g>
						<g>
							<path style="fill:#407BFF;" d="M133.611,175.114c4.306-0.588,9.728,0.702,15.146,1.27c-0.103-0.244-0.735-1.752-0.853-2.017
								c-1.415-3.188,3.721-7.111,2.106-11.437c-1.616-4.327-1.453-3.876-1.085-9.287c0.473-6.949-11.794-13.6-14.046-9.077
								c0,0-2.328,3.595,0.276,10.499c2.605,6.904,2.904,9.131,0.168,11.764C133.328,168.749,133.275,171.837,133.611,175.114z"/>
						</g>
					</g>
					<g>
						<g>
							<g>
								<g>
									<path style="fill:#FFC3BD;" d="M128.318,183.088c-0.161-0.016-0.318-0.038-0.472-0.065
										c-2.519-0.449-3.465-3.462-1.838-5.436c0.667-0.809,0.99-1.813,1.101-2.906c0.117-1.027,0.039-2.141-0.107-3.243
										l1.675-1.136l8.472-4.88c-1.391,4.428-3.092,11.493-0.261,14.879c0,0-2.243,2.083-6.509,2.78
										C129.692,183.143,129.003,183.158,128.318,183.088z"/>
								</g>
							</g>
						</g>
						<g>
							<path style="fill:#FFFFFF;" d="M126.391,189.436c-0.427,0-0.85-0.063-1.266-0.198c-1.046-0.34-1.768-1.008-2.148-1.985
								c-1.387-3.568,2.269-10.1,2.425-10.376c0.068-0.121,0.22-0.162,0.341-0.095c0.12,0.068,0.163,0.221,0.095,0.341
								c-0.037,0.066-3.696,6.601-2.395,9.949c0.328,0.842,0.928,1.395,1.836,1.69c5.138,1.671,11.802-9.271,11.869-9.382
								c0.072-0.119,0.227-0.155,0.343-0.085c0.119,0.071,0.156,0.225,0.085,0.343C137.316,180.069,131.603,189.435,126.391,189.436
								z"/>
						</g>
						<g style="opacity:0.2;">
							<g>
								<g>
									<path d="M127.11,174.681c0.117-1.027,0.039-2.141-0.107-3.243l1.675-1.136l3.867,0.56
										C132.545,170.861,130.103,174.277,127.11,174.681z"/>
								</g>
							</g>
						</g>
						<g>
							<g>
								<g>
									<path style="fill:#FFC3BD;" d="M141.253,158.186c-2.275,7.279-2.926,9.127-7.525,12.013
										c-6.917,4.34-15.342,1.267-15.244-6.536c0.089-7.024,3.794-17.747,11.615-18.929
										C137.805,143.566,143.528,150.907,141.253,158.186"/>
								</g>
							</g>
						</g>
						<g>
							<g>
								<path style="fill:#407BFF;" d="M141.026,148.961c0,0-2.96-3.966-5.512,2.601c-0.801,2.063-9.988-1.309-13.006-2.196
									c-3.018-0.887,3.582-5.712,6.914-6.624C132.753,141.831,140.411,146.766,141.026,148.961z"/>
							</g>
						</g>
						<g>
							<g>
								<g>
									<path style="fill:#FFFFFF;" d="M121.301,162.352c0,0,3.726,0.827,6.261,0.29c0,0-1.758,2.827-4.035,2.549
										C121.25,164.913,121.301,162.352,121.301,162.352z"/>
								</g>
							</g>
						</g>
						<g>
							<g>
								<g>
									<path style="fill:#263238;" d="M128.944,156.818c-0.149,0.602-0.589,1.01-0.982,0.913
										c-0.393-0.097-0.591-0.664-0.442-1.266c0.149-0.602,0.588-1.01,0.982-0.913
										C128.895,155.65,129.093,156.216,128.944,156.818"/>
								</g>
							</g>
						</g>
						<g>
							<g>
								<g>
									<path style="fill:#263238;" d="M122.631,155.422c-0.149,0.602-0.589,1.01-0.982,0.913
										c-0.393-0.097-0.591-0.664-0.442-1.266c0.149-0.602,0.588-1.01,0.982-0.913C122.582,154.254,122.78,154.82,122.631,155.422
										"/>
								</g>
							</g>
						</g>
						<g>
							<g>
								<g>
									<path style="fill:#263238;" d="M122.354,154.233l-1.342-0.774C121.013,153.458,121.474,154.771,122.354,154.233"/>
								</g>
							</g>
						</g>
						<g>
							<g>
								<g>
									<path style="fill:#ED847E;" d="M124.39,156.014c0,0-1.432,1.337-2.9,2.442c-0.477,0.359-0.514,1.069-0.055,1.454
										c0.788,0.66,1.712,1.1,1.712,1.1L124.39,156.014z"/>
								</g>
							</g>
						</g>
						<g>
							<g>
								<g>
									<path style="fill:#263238;" d="M130.987,155.032c-0.094-0.017-0.183-0.072-0.24-0.158
										c-0.894-1.355-2.233-1.364-2.248-1.364c-0.198,0-0.365-0.161-0.366-0.362c-0.001-0.201,0.161-0.364,0.362-0.366
										c0.07,0,1.751,0.009,2.86,1.692c0.11,0.168,0.064,0.393-0.104,0.504C131.17,155.031,131.076,155.048,130.987,155.032"/>
								</g>
							</g>
						</g>
						<g>
							<g>
								<g>
									<path style="fill:#263238;" d="M120.617,152.605c-0.086-0.027-0.163-0.084-0.211-0.17
										c-0.098-0.175-0.035-0.397,0.139-0.496c1.756-0.984,3.254-0.222,3.317-0.189c0.178,0.094,0.247,0.313,0.154,0.492
										c-0.093,0.178-0.313,0.247-0.49,0.154c-0.059-0.03-1.229-0.604-2.625,0.178
										C120.811,152.625,120.708,152.634,120.617,152.605"/>
								</g>
							</g>
						</g>
						<g>
							<g>
								<g>
									<path style="fill:#263238;" d="M128.667,155.629l-1.342-0.775C127.325,154.854,127.787,156.167,128.667,155.629"/>
								</g>
							</g>
						</g>
					</g>
					<g>
						<g>
							<path style="fill:#407BFF;" d="M147.15,153.924c-1.201,3.72-0.896,4.822-0.072,6.454l-7.045,3.281
								c-0.063-0.197-0.547-0.556-1.165-1.076c-0.224-0.179-0.466-0.394-0.717-0.618c-1.488-1.362-3.209-3.46-2.519-6.266
								c0.188-0.789,0.332-1.542,0.43-2.241c0.099-0.717,0.152-1.38,0.179-2.008c0.17-4.473-1.363-6.884-1.363-6.884
								C136.475,141.886,149.4,146.951,147.15,153.924z"/>
						</g>
					</g>
					<g>
						<path style="fill:#FFC3BD;" d="M141.028,162.35l-2.16,0.233c-0.224-0.179-0.466-0.394-0.717-0.618
							c-1.488-1.362-3.209-3.46-2.519-6.266c0.188-0.789,0.332-1.542,0.43-2.241c1.622,0.144,4.311,0.601,6.248,1.945
							C145.268,157.465,141.028,162.35,141.028,162.35z"/>
					</g>
					<g style="opacity:0.2;">
						<path d="M141.028,162.35l-2.16,0.233c-0.224-0.179-0.466-0.394-0.717-0.618c-1.488-1.362-3.209-3.46-2.519-6.266
							c0.188-0.789,0.332-1.542,0.43-2.241c1.622,0.144,4.311,0.601,6.248,1.945C145.268,157.465,141.028,162.35,141.028,162.35z"/>
					</g>
					<g>
						<g>
							<g>
								<path style="fill:#FFC3BD;" d="M142.613,163.953c-1.011,1.251-2.389,1.852-3.556,1.887
									c-1.756,0.052-2.126-1.951-1.212-3.665c0.823-1.542,2.727-3.428,4.285-2.663
									C143.665,160.266,143.769,162.524,142.613,163.953"/>
							</g>
						</g>
					</g>
					<g>
						<g>
							<path style="fill:#FFFFFF;" d="M138.6,166.535c0.484,0.49,1.274,0.494,1.763,0.01c0.49-0.484,0.494-1.274,0.01-1.763
								c-0.484-0.49-1.274-0.494-1.763-0.01C138.12,165.255,138.115,166.045,138.6,166.535z"/>
						</g>
					</g>
					<g>
						<g>
							<g>
								<path style="fill:#263238;" d="M118.159,152.542l6.281,1.443c0,0-1.068,4.103-4.156,3.991
									C117.195,157.864,118.159,152.542,118.159,152.542z"/>
							</g>
						</g>
						<g>
							<g>
								<path style="fill:#263238;" d="M125.698,154.362l6.966,1.153c0,0-0.965,4.148-4.359,4.178
									C124.91,159.723,125.698,154.362,125.698,154.362z"/>
							</g>
						</g>
						<g>
							<g>
								<path style="fill:#263238;" d="M125.839,155.288c-0.746-0.976-2.001-0.71-2.014-0.707l-0.097-0.438
									c0.062-0.014,1.551-0.329,2.468,0.872L125.839,155.288z"/>
							</g>
						</g>
						<g>
							<g>
								<path style="fill:#263238;" d="M140.171,159.664c-0.007-0.018-0.751-1.752-3.082-2.421
									c-2.443-0.701-4.793-1.316-4.816-1.322l0.113-0.433c0.024,0.006,2.378,0.622,4.827,1.324
									c2.549,0.731,3.34,2.602,3.373,2.681L140.171,159.664z"/>
							</g>
						</g>
					</g>
				</g>
			</g>
		</g>
	</g>
</g>
</svg>
