<?xml version="1.0" encoding="utf-8"?>
<!-- Generator: Adobe Illustrator 27.5.0, SVG Export Plug-In . SVG Version: 6.00 Build 0)  -->
<svg version="1.1" xmlns="http://www.w3.org/2000/svg" xmlns:xlink="http://www.w3.org/1999/xlink" x="0px" y="0px"
	 viewBox="0 0 500 500" style="enable-background:new 0 0 500 500;" xml:space="preserve">
<g id="BACKGROUND">
	<g>
		<defs>
			<rect id="SVGID_1_" width="500" height="500"/>
		</defs>
		<clipPath id="SVGID_00000141426119804089738030000005281408575848123028_">
			<use xlink:href="#SVGID_1_"  style="overflow:visible;"/>
		</clipPath>
		<g style="clip-path:url(#SVGID_00000141426119804089738030000005281408575848123028_);">
			<g>
				<path style="fill:#FFFCEB;" d="M293.787,32.989c3.038,6.545,6.679,12.727,10.856,18.607
					c7.28,10.249,16.116,19.492,26.324,26.858c9.791,7.065,20.895,12.396,32.75,14.864c12.214,2.542,24.901,1.83,36.785-1.946
					c11.688-3.713,22.676-9.951,31.997-17.902c8.704-7.426,15.97-16.38,21.981-26.089c6.12-9.884,10.985-20.499,15.15-31.337
					c2.622-6.823,5.087-13.749,7.243-20.762H280.81c1.684,5.852,3.37,11.703,5.24,17.499
					C288.267,19.647,290.747,26.44,293.787,32.989z"/>
				<path style="fill:#FFFCEB;" d="M-1.224,262.734c14.541-3.108,29.422-3.592,43.39,2.187c12.12,5.015,20.662,15.082,28.717,25.027
					c17.381,21.457,36.605,42.737,62.351,54.098c18.69,8.247,39.717,12.17,60.108,10.087c19.714-2.015,39.245-10.785,48.636-29.139
					c6.054-11.833,7.453-25.921,8.559-38.97c1.189-14.038,1.516-28.159,3.511-42.121c3.082-21.574,11.596-46.987,33.422-56.14
					c17.762-7.449,38.275-2.16,55.794,3.342c19.882,6.244,39.09,14.537,60.021,16.608c25.871,2.56,51.562-3.285,74.252-15.823
					c10.295-5.689,19.846-12.538,28.75-20.171v-71.254c-7.182,7.208-14.787,13.982-22.813,20.207
					c-20.383,15.809-44.176,28.416-70.034,31.779c-13.017,1.693-26.294,0.89-38.978-2.518c-11.88-3.192-23.193-8.507-33.951-14.398
					c-22.113-12.109-42.356-27.265-63.916-40.284c-21.41-12.928-44.765-24.071-70.117-25.558
					c-24.653-1.446-48.928,6.169-67.86,22.072c-35.411,29.744-49.818,76.316-77.21,112.351
					c-7.618,10.022-16.435,18.905-27.218,25.513c-10.847,6.647-22.984,10.779-35.385,13.393c-1.693,0.357-3.39,0.687-5.089,0.997
					v19.884C-4.603,263.493-2.918,263.096-1.224,262.734z"/>
				<path style="fill:#FFFCEB;" d="M506.286,420.615V229.614c-8.17,1.018-16.204,2.925-23.857,6.085
					c-16.681,6.889-29.785,19.591-38.898,35.011c-3.873,6.554-7.044,13.296-8.948,20.674c-1.778,6.89-2.835,13.955-3.77,21.002
					c-1.999,15.078-3.235,30.363-7.017,45.138c-3.217,12.568-8.656,25.674-19.842,33.148c-6.858,4.582-15.128,6.283-23.256,6.739
					c-12.03,0.674-23.967-1.561-35.851-3.062c-12.445-1.573-24.63-1.979-36.909,0.972c-10.442,2.509-20.594,6.207-30.179,11.052
					c-7.928,4.007-15.424,8.799-22.412,14.242H506.286z"/>
			</g>
		</g>
	</g>
</g>
<g id="OBJECTS">
	<g>
		<defs>
			<rect id="SVGID_00000068659440975292218040000013433844121828416184_" width="500" height="500"/>
		</defs>
		<clipPath id="SVGID_00000099625235786280713600000015373349060064575165_">
			<use xlink:href="#SVGID_00000068659440975292218040000013433844121828416184_"  style="overflow:visible;"/>
		</clipPath>
		<g style="clip-path:url(#SVGID_00000099625235786280713600000015373349060064575165_);">
			<rect x="-38.051" y="416.269" style="fill:#FFD7C7;" width="576.101" height="92.099"/>
			<g>
				<g>
					<ellipse style="fill:#EDBFAF;" cx="332.167" cy="467.292" rx="114.235" ry="12.328"/>
					<g>
						<g>
							<g>
								<circle style="opacity:0.2;fill:#848383;" cx="334.698" cy="130.076" r="74.633"/>
								<circle style="opacity:0.4;fill:#848383;" cx="334.698" cy="130.076" r="62.252"/>
								
									<ellipse transform="matrix(0.1578 -0.9875 0.9875 0.1578 153.4384 440.0558)" style="opacity:0.6;fill:#848383;" cx="334.698" cy="130.076" rx="48.61" ry="48.61"/>
								
									<ellipse transform="matrix(0.2263 -0.9741 0.9741 0.2263 132.2677 426.6642)" style="opacity:0.8;fill:#848383;" cx="334.698" cy="130.076" rx="36.066" ry="36.066"/>
								<circle style="opacity:0.8;fill:#939393;" cx="334.698" cy="130.076" r="24.092"/>
							</g>
							<g>
								<g>
									<g>
										<path style="fill:#AAAEF7;" d="M248.559,450.039l-2.344,8.142c0,0-22.217,11.259-22.843,13.449
											c-0.626,2.19,45.06,0,45.06,0l5.32-21.591H248.559z"/>
										
											<path style="fill:none;stroke:#585C9E;stroke-width:0.25;stroke-linecap:round;stroke-linejoin:round;stroke-miterlimit:10;" d="
											M225.588,469.661c0,0,41.543-1.065,43.598-1.093"/>
									</g>
									<g>
										<path style="fill:#AAAEF7;" d="M415.031,450.039l2.344,8.142c0,0,22.217,11.259,22.843,13.449c0.626,2.19-45.06,0-45.06,0
											l-5.319-21.591H415.031z"/>
										
											<line style="fill:none;stroke:#585C9E;stroke-width:0.25;stroke-linecap:round;stroke-linejoin:round;stroke-miterlimit:10;" x1="394.538" y1="469.115" x2="438.001" y2="469.661"/>
									</g>
									<polygon style="fill:#9D8FDB;" points="423.272,451.99 365.925,273.169 331.854,273.081 331.854,273.081 331.795,273.081 
										331.736,273.081 331.736,273.081 297.664,273.169 240.317,451.99 285.03,451.99 331.795,291.76 378.56,451.99 									"/>
								</g>
								<g>
									<g>
										<g>
											<g>
												<g>
													<g>
														<g>
															<g>
																<path style="fill:#CCCDFF;" d="M330.482,168.812c-0.714,0-1.342-0.517-1.46-1.243
																	c-0.81-4.975-1.372-10.179,1.349-14.336c0.558-0.854,1.22-1.601,1.86-2.325c0.982-1.11,1.909-2.159,2.243-3.365
																	c0.227-0.818,0.191-1.76,0.153-2.757c-0.025-0.654-0.051-1.329-0.007-2.026c0.12-1.912,0.757-3.758,1.842-5.337
																	c0.463-0.674,1.385-0.844,2.059-0.382c0.674,0.463,0.844,1.385,0.382,2.059c-0.782,1.138-1.241,2.468-1.327,3.846
																	c-0.035,0.547-0.012,1.12,0.011,1.727c0.045,1.179,0.092,2.398-0.257,3.66c-0.517,1.865-1.718,3.223-2.879,4.536
																	c-0.596,0.674-1.16,1.311-1.602,1.985c-2.142,3.271-1.649,7.655-0.904,12.238c0.132,0.807-0.416,1.568-1.223,1.699
																	C330.641,168.805,330.561,168.812,330.482,168.812z"/>
															</g>
														</g>
														<path style="fill:#6566D0;" d="M334.598,143.589c0,0-2.231-4.846-0.839-8.884c1.393-4.038,3.964-3.331,5.404-2.726
															c1.44,0.606,4.569,2.625,3.358,6.158c-1.211,3.533-4.957,5.85-4.957,5.85L334.598,143.589z"/>
													</g>
													<g>
														<path style="opacity:0.8;fill:#FFF4F1;" d="M339.01,128.179c-2.989-1.393-5.431-4.027-6.349-7.194
															c-0.918-3.167-0.202-6.818,2.032-9.243c1.135-1.232,2.592-2.116,4.064-2.914c1.312-0.71,2.72-1.426,3.504-2.695
															c0.705-1.142,0.787-2.596,0.427-3.888c-0.36-1.293-1.123-2.441-2.009-3.449c-1.534-1.747-3.568-3.344-3.889-5.647
															c-0.158-1.128,0.138-2.277,0.598-3.319c1.067-2.417,3.13-4.457,5.679-5.152c-0.981,1.09-1.525,2.615-1.74,4.065
															c-0.087,0.587-0.1,1.206,0.13,1.753c0.408,0.971,1.45,1.479,2.368,1.994c2.66,1.493,4.903,3.722,6.412,6.373
															c1.759,3.09,2.505,6.794,1.824,10.284c-0.681,3.49-2.845,6.715-5.946,8.454c-2.283,1.28-5.195,1.931-6.465,4.22
															C338.664,123.601,338.617,126.183,339.01,128.179z"/>
														<path style="opacity:0.8;fill:#FFF4F1;" d="M338.108,127.285c-2.589-1.207-4.705-3.489-5.5-6.232
															s-0.175-5.906,1.76-8.006c0.983-1.067,2.245-1.833,3.521-2.524c1.136-0.615,2.356-1.235,3.035-2.334
															c0.611-0.989,0.681-2.249,0.37-3.368c-0.311-1.12-0.973-2.114-1.74-2.988c-1.329-1.513-3.091-2.897-3.369-4.892
															c-0.137-0.977,0.119-1.973,0.518-2.875c0.924-2.094,2.711-3.861,4.919-4.463c-0.85,0.944-1.321,2.265-1.507,3.522
															c-0.075,0.508-0.086,1.044,0.113,1.518c0.353,0.841,1.256,1.281,2.052,1.727c2.305,1.293,4.247,3.224,5.555,5.521
															c1.524,2.677,2.17,5.885,1.581,8.908c-0.59,3.023-2.464,5.817-5.151,7.323c-1.978,1.109-4.5,1.672-5.6,3.655
															C337.809,123.32,337.768,125.556,338.108,127.285z"/>
													</g>
												</g>
												<g>
													<g>
														<polygon style="fill:#FF5B52;" points="355.92,184.186 355.92,184.186 346.955,180.551 331.828,180.59 
															331.767,180.59 316.64,180.629 309.204,183.688 309.204,183.688 278.099,196.486 297.664,273.169 297.664,273.169 
															297.664,273.169 332.004,273.081 332.065,273.081 365.925,273.169 385.577,196.211 														"/>
														<g>
															<polygon style="fill:#EFA2A0;" points="294.096,259.184 297.113,271.009 367.94,265.281 370.63,254.744 
																															"/>
															<polygon style="fill:#EFA2A0;" points="374.631,239.078 289.469,241.048 290.92,246.736 372.144,248.817 
																															"/>
															<polygon style="fill:#EFA2A0;" points="378.613,223.483 286.468,229.287 288.104,235.701 376.079,233.408 
																															"/>
															<path style="fill:#EFA2A0;" d="M381.229,213.239l-101.231-9.312l3.043,11.925c15.775,0.793,78.044,3.99,96.263,4.926
																L381.229,213.239z"/>
															<polygon style="fill:#EFA2A0;" points="385.577,196.211 362.271,186.761 286.942,192.848 278.099,196.486 
																279.215,200.86 384.765,199.392 															"/>
														</g>
													</g>
													<polygon style="fill:#CCCDFF;" points="316.64,163.736 316.64,180.628 331.887,210.883 347.135,180.628 
														347.135,163.736 													"/>
												</g>
											</g>
											<g>
												<g>
													<g>
														<g>
															<path style="fill:#6566D0;" d="M405.346,310c0.561-4.668,3.609-8.884,8.296-10.714l0.912-0.356
																c4.62-1.803,9.652-0.729,13.12,2.354"/>
															
																<rect x="405.71" y="311.68" transform="matrix(-0.9315 0.3636 -0.3636 -0.9315 923.4059 451.4923)" style="fill:#807BEF;" width="26.988" height="1.971"/>
															
																<rect x="404.154" y="307.695" transform="matrix(-0.9315 0.3636 -0.3636 -0.9315 918.9512 444.3592)" style="fill:#807BEF;" width="26.988" height="1.971"/>
															<polyline style="fill:#807BEF;" points="432.858,310.753 433.534,312.484 408.467,322.269 407.822,320.617 
																															"/>
															<path style="fill:#CCCDFF;" d="M407.171,318.422l24.491-9.56c0.583-0.228,1.241,0.064,1.47,0.651l0,0
																c0.229,0.587-0.057,1.248-0.64,1.475L408,320.548c-0.583,0.228-1.241-0.064-1.47-0.651l0,0
																C406.301,319.309,406.588,318.649,407.171,318.422z"/>
															<path style="fill:#CCCDFF;" d="M405.624,314.459l24.491-9.56c0.583-0.228,1.241,0.064,1.47,0.651l0,0
																c0.229,0.587-0.057,1.248-0.64,1.475l-24.491,9.56c-0.583,0.228-1.241-0.064-1.47-0.651l0,0
																C404.754,315.347,405.041,314.686,405.624,314.459z"/>
															<path style="fill:#CCCDFF;" d="M404.51,310.327l23.705-9.254c0.564-0.22,1.207,0.077,1.437,0.664l0,0
																c0.229,0.587-0.042,1.242-0.607,1.462l-23.705,9.253c-0.564,0.22-1.207-0.077-1.436-0.664l0,0
																C403.674,311.202,403.946,310.547,404.51,310.327z"/>
														</g>
														<g>
															<path style="fill:#FEB492;" d="M401.583,365.383c7.196,18.435,28.51,27.178,46.735,18.686
																c15.296-7.127,23.249-24.7,18.475-40.885c-3.613-12.251-13.207-20.777-24.442-23.701c0,0,0.002-0.001,0.002-0.001
																s-0.017-0.003-0.02-0.004c-0.374-0.097-0.748-0.195-1.125-0.28c-2.04-0.605-6.248-2.334-7.92-6.618l-24.747,9.66
																c0,0,0.281,1.404-0.109,3.79c-0.415,2.535-1.477,4.918-2.951,7.022C399.088,342.18,397.227,354.225,401.583,365.383z
																"/>
															<path style="fill:#FF9575;" d="M429.337,387.046c-1.54-1.211-3.041-2.469-4.469-3.814
																c-4.732-4.455-8.488-9.79-10.666-15.94c-2.044-5.773-2.931-12.046-1.966-18.126
																c0.843-5.309,3.129-10.426,6.907-14.297c4.015-4.113,9.323-6.435,14.948-7.338c4.814-0.773,9.757-0.327,14.36,1.275
																c4.475,1.558,8.549,4.171,12.024,7.373c2.422,2.232,4.565,4.748,6.439,7.453c-0.042-0.149-0.077-0.299-0.121-0.449
																c-3.613-12.251-13.207-20.777-24.442-23.701c0,0,0.002-0.001,0.002-0.001s-0.017-0.003-0.02-0.004
																c-0.374-0.097-0.748-0.195-1.125-0.28c-2.04-0.605-6.248-2.334-7.92-6.618l-24.747,9.66c0,0,0.281,1.404-0.109,3.79
																c-0.415,2.535-1.477,4.918-2.951,7.022c-6.392,9.127-8.253,21.172-3.897,32.331
																C406.333,377.551,417.234,385.492,429.337,387.046z"/>
															<g>
																<path style="fill:#F67E65;" d="M420.783,348.417c1.846,0.035,3.137-0.523,3.839-1.654
																	c1.848-2.979-1.167-8.86-1.283-9.079l-0.072-0.184c1.372-1.035,2.925-1.941,4.579-2.586
																	c1.654-0.646,3.411-1.032,5.122-1.199l0.059,0.152c0.074,0.271,1.84,6.639,5.218,7.579
																	c1.283,0.356,2.611-0.11,3.945-1.385c1.981-1.894,1.719-3.357,1.149-4.25c-1.332-2.091-5.546-3.092-9.957-2.753
																	l-6.949-17.801c-0.007-0.017-0.023-0.025-0.035-0.037l-0.547,0.214c-0.001,0.017-0.008,0.034-0.001,0.051
																	l6.885,17.633c-1.751,0.187-3.511,0.586-5.117,1.213c-1.604,0.626-3.17,1.525-4.584,2.574l-6.883-17.633
																	c-0.007-0.017-0.023-0.025-0.035-0.037l-0.547,0.214c-0.001,0.017-0.008,0.034-0.001,0.051l6.95,17.801
																	c-3.475,2.737-5.896,6.329-5.46,8.771C417.244,347.112,418.042,348.366,420.783,348.417z M433.622,333.67
																	l-0.004-0.009c4.251-0.285,8.095,0.765,9.193,2.487c0.644,1.011,0.29,2.174-1.054,3.459
																	c-0.562,0.537-1.114,0.912-1.654,1.123c-0.579,0.226-1.143,0.264-1.69,0.112
																	C435.378,339.997,433.649,333.764,433.622,333.67z M417.676,345.96c-0.361-2.011,1.757-5.387,5.077-8.059
																	l0.016,0.041c0.031,0.058,2.982,5.814,1.321,8.49c-0.299,0.482-0.739,0.836-1.318,1.063
																	c-0.54,0.211-1.201,0.31-1.978,0.295C418.935,347.756,417.885,347.14,417.676,345.96z"/>
															</g>
														</g>
													</g>
													<path style="opacity:0.35;fill:#CCCDFF;" d="M390.051,305.977c-2.658,15.184-3.273,30.724-1.822,46.071
														c1.011,10.689,3.083,21.466,8.103,30.957c5.02,9.491,13.312,17.627,23.63,20.595
														c14.993,4.313,31.063-2.892,43.08-12.841c3.173-2.627,6.198-5.472,8.666-8.771c4.117-5.503,6.558-12.112,7.954-18.841
														c3.83-18.466-0.688-39.262-14.408-52.202c-6.893-6.501-15.586-10.699-24.13-14.796
														c-8.141-3.904-16.391-7.845-25.247-9.604"/>
												</g>
												
													<path style="fill:none;stroke:#585C9E;stroke-width:0.75;stroke-linecap:round;stroke-linejoin:round;stroke-miterlimit:10;" d="
													M302.985,184.079c0,0-7.875,55.138,87.066,122.009"/>
											</g>
										</g>
										<g>
											
												<polyline style="fill:none;stroke:#AD3431;stroke-width:0.5;stroke-linecap:round;stroke-linejoin:round;stroke-miterlimit:10;" points="
												314.669,181.44 331.887,214.456 350.01,181.789 											"/>
											
												<polyline style="fill:none;stroke:#AD3431;stroke-width:0.5;stroke-linecap:round;stroke-linejoin:round;stroke-miterlimit:10;" points="
												312.444,182.355 331.838,220.779 352.416,182.765 											"/>
										</g>
									</g>
									<g>
										<g>
											<g>
												<path style="fill:#6566D0;" d="M277.405,274.675c0.127,0.111,0.241,0.209,0.349,0.303
													C277.646,274.885,277.531,274.785,277.405,274.675z"/>
												<path style="fill:#6566D0;" d="M278.456,275.586c0.017,0.014,0.026,0.022,0.04,0.035
													C278.482,275.608,278.473,275.601,278.456,275.586z"/>
												<path style="fill:#6566D0;" d="M277.869,275.078c0.106,0.092,0.203,0.176,0.288,0.249
													C278.071,275.253,277.977,275.172,277.869,275.078z"/>
												<path style="fill:#6566D0;" d="M289.206,263.474c-0.132-0.219-0.265-0.44-0.402-0.664
													C288.941,263.035,289.074,263.255,289.206,263.474z"/>
												<g>
													<path style="fill:#FF5B52;" d="M223.868,204.989c10.531-13.211,75.142-17.063,75.142-17.063l-12.635,39.805
														l-24.587-2.87c0,0,9.707,12.715,19.763,25.306l-14.554,16.291C249.122,249.969,215.646,215.302,223.868,204.989z"/>
												</g>
												<path style="fill:#6566D0;" d="M278.184,275.352c0.078,0.068,0.14,0.121,0.199,0.171
													C278.325,275.473,278.262,275.418,278.184,275.352z"/>
												<path style="fill:#6566D0;" d="M291.974,268.517c0.06,0.127,0.117,0.251,0.172,0.373
													C292.091,268.768,292.034,268.644,291.974,268.517z"/>
												<path style="fill:#6566D0;" d="M291.414,267.383c0.065,0.127,0.123,0.245,0.185,0.368
													C291.537,267.628,291.479,267.51,291.414,267.383z"/>
												<path style="fill:#6566D0;" d="M289.695,264.297c0.114,0.193,0.228,0.387,0.337,0.575
													C289.923,264.685,289.808,264.491,289.695,264.297z"/>
												<path style="fill:#6566D0;" d="M290.607,265.887c0.055,0.099,0.116,0.204,0.17,0.301
													C290.723,266.091,290.662,265.986,290.607,265.887z"/>
												<path style="fill:#6566D0;" d="M292.441,269.573c0.041,0.1,0.085,0.203,0.122,0.298
													C292.526,269.776,292.482,269.673,292.441,269.573z"/>
												<path style="fill:#6566D0;" d="M287.858,261.282c0.152,0.242,0.297,0.477,0.444,0.714
													C288.155,261.759,288.01,261.525,287.858,261.282z"/>
												<path style="fill:#6566D0;" d="M286.335,258.904c0.331,0.509,0.653,1.01,0.967,1.502
													C286.988,259.914,286.666,259.414,286.335,258.904z"/>
												<path style="fill:#6566D0;" d="M272.073,269.947c0.32,0.288,0.63,0.567,0.931,0.836
													C272.703,270.513,272.393,270.235,272.073,269.947z"/>
												<path style="fill:#6566D0;" d="M284.135,255.581c0.255,0.379,0.505,0.753,0.754,1.127
													C284.641,256.335,284.39,255.96,284.135,255.581z"/>
												<path style="fill:#6566D0;" d="M285.257,257.263c0.232,0.35,0.462,0.699,0.688,1.043
													C285.72,257.962,285.49,257.613,285.257,257.263z"/>
												<path style="fill:#6566D0;" d="M276.897,274.232c0.162,0.142,0.315,0.275,0.456,0.398
													C277.212,274.507,277.06,274.375,276.897,274.232z"/>
												<path style="fill:#6566D0;" d="M275.601,273.093c0.203,0.18,0.398,0.351,0.583,0.513
													C275.999,273.444,275.805,273.273,275.601,273.093z"/>
												<path style="fill:#6566D0;" d="M273.059,270.832c0.292,0.262,0.575,0.515,0.848,0.758
													C273.634,271.347,273.351,271.094,273.059,270.832z"/>
												<path style="fill:#6566D0;" d="M276.299,273.707c0.176,0.155,0.344,0.302,0.502,0.44
													C276.642,274.009,276.475,273.863,276.299,273.707z"/>
												<path style="fill:#6566D0;" d="M274.827,272.408c0.234,0.208,0.46,0.407,0.675,0.597
													C275.286,272.815,275.061,272.616,274.827,272.408z"/>
												<path style="fill:#6566D0;" d="M273.982,271.657c0.264,0.235,0.519,0.462,0.763,0.679
													C274.5,272.118,274.246,271.892,273.982,271.657z"/>
											</g>
											<g>
												<path style="fill:#EFA2A0;" d="M276.567,243.884l-17.909,14.639c-2.297-2.251-4.674-4.638-7.063-7.109l20.407-13.348
													C273.445,239.914,274.98,241.871,276.567,243.884z"/>
												<path style="fill:#EFA2A0;" d="M267.405,232.156l-21.795,12.9c-1.809-1.977-3.587-3.979-5.306-5.982l24.355-10.473
													C265.446,229.622,266.37,230.818,267.405,232.156z"/>
												<path style="fill:#EFA2A0;" d="M262.44,225.713c0.114,0.148,0.244,0.318,0.385,0.502l-28.104,6.051
													c-3.745-4.807-6.914-9.466-9.047-13.643L262.44,225.713z"/>
												<path style="fill:#EFA2A0;" d="M264.977,191.658l6.199,34.299l-2.042-0.238l-15.45-32.169
													C257.319,192.858,261.113,192.229,264.977,191.658z"/>
												<path style="fill:#EFA2A0;" d="M282.195,189.487l-3.611,37.334l-3.164-0.369l-3.864-35.707
													C275.116,190.281,278.684,189.863,282.195,189.487z"/>
												<g>
													<path style="fill:#EFA2A0;" d="M299.01,187.926l-12.635,39.805l-3.821-0.446l5.46-38.392
														C291.839,188.522,295.534,188.202,299.01,187.926z"/>
												</g>
												<path style="fill:#EFA2A0;" d="M239.032,197.002l26.613,28.309l-2.579-0.301l-34.563-23.809
													C231.226,199.652,234.824,198.257,239.032,197.002z"/>
											</g>
										</g>
										<g>
											
												<line style="fill:none;stroke:#AD3431;stroke-width:0.5;stroke-linecap:round;stroke-linejoin:round;stroke-miterlimit:10;" x1="282.553" y1="212.353" x2="294.096" y2="259.184"/>
											
												<line style="fill:none;stroke:#AD3431;stroke-width:0.5;stroke-linecap:round;stroke-linejoin:round;stroke-miterlimit:10;" x1="254.922" y1="215.986" x2="281.551" y2="250.167"/>
										</g>
										<path style="fill:#CCCDFF;" d="M280.913,250.881c5.777,8.295,10.887,16.252,11.945,19.837
											c2.668,9.039-6.72,21.96-6.72,21.96c11.415,5.449,10.468,8.961,10.468,8.961s-18.762-6.732-19.863-9.869
											c-1.102-3.137,1.901-16.022,1.901-16.022s-4.566-3.902-11.086-9.916L280.913,250.881z"/>
									</g>
									<g>
										<g>
											
												<line style="fill:none;stroke:#585C9E;stroke-width:0.75;stroke-linecap:round;stroke-linejoin:round;stroke-miterlimit:10;" x1="415.733" y1="286.331" x2="377.753" y2="227.73"/>
											<g>
												<g>
													<g>
														<path style="fill:#6566D0;" d="M386.722,274.675c-0.127,0.111-0.241,0.209-0.349,0.303
															C386.481,274.885,386.596,274.785,386.722,274.675z"/>
														<path style="fill:#6566D0;" d="M385.671,275.586c-0.017,0.014-0.026,0.022-0.04,0.035
															C385.646,275.608,385.654,275.601,385.671,275.586z"/>
														<path style="fill:#6566D0;" d="M386.258,275.078c-0.106,0.092-0.203,0.176-0.288,0.249
															C386.056,275.253,386.151,275.172,386.258,275.078z"/>
														<path style="fill:#6566D0;" d="M374.922,263.474c0.132-0.219,0.265-0.44,0.402-0.664
															C375.187,263.035,375.053,263.255,374.922,263.474z"/>
														<path style="fill:#FF5B52;" d="M440.26,204.989c-10.531-13.211-75.142-17.063-75.142-17.063l12.635,39.805
															l24.587-2.87c0,0-9.707,12.715-19.763,25.306l14.554,16.291C415.006,249.969,448.481,215.302,440.26,204.989z"/>
														<path style="fill:#6566D0;" d="M385.943,275.352c-0.078,0.068-0.14,0.121-0.199,0.171
															C385.802,275.473,385.866,275.418,385.943,275.352z"/>
														<path style="fill:#6566D0;" d="M372.153,268.517c-0.06,0.127-0.117,0.251-0.172,0.373
															C372.036,268.768,372.093,268.644,372.153,268.517z"/>
														<path style="fill:#6566D0;" d="M372.713,267.383c-0.065,0.127-0.123,0.245-0.185,0.368
															C372.59,267.628,372.648,267.51,372.713,267.383z"/>
														<path style="fill:#6566D0;" d="M374.432,264.297c-0.114,0.193-0.228,0.387-0.337,0.575
															C374.204,264.685,374.319,264.491,374.432,264.297z"/>
														<path style="fill:#6566D0;" d="M373.52,265.887c-0.055,0.099-0.116,0.204-0.169,0.301
															C373.404,266.091,373.465,265.986,373.52,265.887z"/>
														<path style="fill:#6566D0;" d="M371.686,269.573c-0.041,0.1-0.085,0.203-0.122,0.298
															C371.601,269.776,371.645,269.673,371.686,269.573z"/>
														<path style="fill:#6566D0;" d="M376.269,261.282c-0.152,0.242-0.297,0.477-0.444,0.714
															C375.973,261.759,376.117,261.525,376.269,261.282z"/>
														<path style="fill:#6566D0;" d="M377.792,258.904c-0.331,0.509-0.653,1.01-0.967,1.502
															C377.139,259.914,377.461,259.414,377.792,258.904z"/>
														<path style="fill:#6566D0;" d="M392.054,269.947c-0.32,0.288-0.63,0.567-0.931,0.836
															C391.424,270.513,391.734,270.235,392.054,269.947z"/>
														<path style="fill:#6566D0;" d="M379.992,255.581c-0.255,0.379-0.506,0.753-0.754,1.127
															C379.486,256.335,379.737,255.96,379.992,255.581z"/>
														<path style="fill:#6566D0;" d="M378.87,257.263c-0.232,0.35-0.462,0.699-0.688,1.043
															C378.407,257.962,378.638,257.613,378.87,257.263z"/>
														<path style="fill:#6566D0;" d="M387.23,274.232c-0.162,0.142-0.315,0.275-0.456,0.398
															C386.916,274.507,387.067,274.375,387.23,274.232z"/>
														<path style="fill:#6566D0;" d="M388.526,273.093c-0.203,0.18-0.398,0.351-0.583,0.513
															C388.128,273.444,388.323,273.273,388.526,273.093z"/>
														<path style="fill:#6566D0;" d="M391.069,270.832c-0.292,0.262-0.575,0.515-0.848,0.758
															C390.494,271.347,390.776,271.094,391.069,270.832z"/>
														<path style="fill:#6566D0;" d="M387.829,273.707c-0.176,0.155-0.344,0.302-0.502,0.44
															C387.485,274.009,387.652,273.863,387.829,273.707z"/>
														<path style="fill:#6566D0;" d="M389.3,272.408c-0.234,0.208-0.46,0.407-0.675,0.597
															C388.841,272.815,389.066,272.616,389.3,272.408z"/>
														<path style="fill:#6566D0;" d="M390.146,271.657c-0.264,0.235-0.519,0.462-0.763,0.679
															C389.627,272.118,389.882,271.892,390.146,271.657z"/>
													</g>
													<g>
														<path style="fill:#EFA2A0;" d="M387.56,243.884l17.909,14.639c2.297-2.251,4.674-4.638,7.063-7.109l-20.407-13.348
															C390.682,239.914,389.148,241.871,387.56,243.884z"/>
														<path style="fill:#EFA2A0;" d="M396.722,232.156l21.795,12.9c1.809-1.977,3.587-3.979,5.306-5.982l-24.355-10.473
															C398.681,229.622,397.758,230.818,396.722,232.156z"/>
														<path style="fill:#EFA2A0;" d="M401.687,225.713c-0.114,0.148-0.244,0.318-0.385,0.502l28.104,6.051
															c3.744-4.807,6.914-9.466,9.047-13.643L401.687,225.713z"/>
														<path style="fill:#EFA2A0;" d="M399.15,191.658l-6.199,34.299l2.042-0.238l15.45-32.169
															C406.808,192.858,403.014,192.229,399.15,191.658z"/>
														<path style="fill:#EFA2A0;" d="M381.933,189.487l3.611,37.334l3.164-0.369l3.863-35.707
															C389.011,190.281,385.443,189.863,381.933,189.487z"/>
														<path style="fill:#EFA2A0;" d="M365.117,187.926l12.635,39.805l3.821-0.446l-5.46-38.392
															C372.288,188.522,368.593,188.202,365.117,187.926z"/>
														<path style="fill:#EFA2A0;" d="M425.095,197.002l-26.613,28.309l2.58-0.301l34.563-23.809
															C432.901,199.652,429.304,198.257,425.095,197.002z"/>
													</g>
												</g>
												<path style="fill:#CCCDFF;" d="M383.214,250.881c-5.777,8.295-10.887,16.252-11.945,19.837
													c-2.668,9.039,6.72,21.96,6.72,21.96c-11.415,5.449-10.468,8.961-10.468,8.961s18.762-6.732,19.863-9.869
													c1.102-3.137-1.901-16.022-1.901-16.022s4.566-3.902,11.086-9.916L383.214,250.881z"/>
											</g>
										</g>
										<g>
											
												<line style="fill:none;stroke:#AD3431;stroke-width:0.5;stroke-linecap:round;stroke-linejoin:round;stroke-miterlimit:10;" x1="380.168" y1="217.395" x2="370.63" y2="253.705"/>
											
												<line style="fill:none;stroke:#AD3431;stroke-width:0.5;stroke-linecap:round;stroke-linejoin:round;stroke-miterlimit:10;" x1="388.526" y1="242.658" x2="411.369" y2="214.456"/>
										</g>
									</g>
								</g>
							</g>
						</g>
						<g>
							
								<line style="fill:none;stroke:#585C9E;stroke-width:0.25;stroke-linecap:round;stroke-linejoin:round;stroke-miterlimit:10;" x1="285.03" y1="366.402" x2="377.504" y2="366.402"/>
							<g>
								<g>
									<polygon style="fill:#ED9E7E;" points="299.637,422.446 333.233,437.824 359.771,422.446 343.693,412.844 299.637,418.978 
																			"/>
									<g>
										<g>
											<g>
												<path style="fill:#FF5B52;" d="M363.233,448.02c0,0,25.591-4.113,26.781-3.771c1.19,0.342,13.119,10.9,10.753,17.27
													c-2.366,6.37-43.245,1.725-43.245,1.725L363.233,448.02z"/>
												<g>
													
														<path style="fill:none;stroke:#585C9E;stroke-width:0.25;stroke-linecap:round;stroke-linejoin:round;stroke-miterlimit:10;" d="
														M371.698,450.364c-0.883,2.984-0.858,6.23,0.071,9.2"/>
													
														<path style="fill:none;stroke:#585C9E;stroke-width:0.25;stroke-linecap:round;stroke-linejoin:round;stroke-miterlimit:10;" d="
														M374.377,449.954c-0.883,2.984-0.858,6.23,0.071,9.2"/>
													
														<path style="fill:none;stroke:#585C9E;stroke-width:0.25;stroke-linecap:round;stroke-linejoin:round;stroke-miterlimit:10;" d="
														M377.056,449.544c-0.883,2.984-0.858,6.23,0.071,9.2"/>
													
														<path style="fill:none;stroke:#585C9E;stroke-width:0.25;stroke-linecap:round;stroke-linejoin:round;stroke-miterlimit:10;" d="
														M379.734,449.134c-0.883,2.984-0.858,6.23,0.071,9.2"/>
												</g>
											</g>
											<path style="fill:#FEB492;" d="M366.404,445.683c0,0-99.902-48.019-105.294-44.952s-12.53,19.766-10.41,25.371
												c2.12,5.606,108.378,40.257,108.378,40.257L366.404,445.683z"/>
										</g>
										<g>
											<g>
												<path style="fill:#FF5B52;" d="M302.035,445.936c0,0-25.591-4.113-26.781-3.771c-1.19,0.342-13.119,10.9-10.753,17.27
													c2.366,6.37,43.245,1.725,43.245,1.725L302.035,445.936z"/>
												<g>
													
														<path style="fill:none;stroke:#585C9E;stroke-width:0.25;stroke-linecap:round;stroke-linejoin:round;stroke-miterlimit:10;" d="
														M280.549,447.524c0.234,2.947,0.459,5.983-0.442,8.799"/>
													
														<path style="fill:none;stroke:#585C9E;stroke-width:0.25;stroke-linecap:round;stroke-linejoin:round;stroke-miterlimit:10;" d="
														M283.898,447.524c0.234,2.947,0.459,5.983-0.442,8.799"/>
													
														<path style="fill:none;stroke:#585C9E;stroke-width:0.25;stroke-linecap:round;stroke-linejoin:round;stroke-miterlimit:10;" d="
														M287.248,447.524c0.234,2.947,0.459,5.983-0.442,8.799"/>
													
														<path style="fill:none;stroke:#585C9E;stroke-width:0.25;stroke-linecap:round;stroke-linejoin:round;stroke-miterlimit:10;" d="
														M290.597,447.524c0.234,2.947,0.459,5.983-0.442,8.799"/>
												</g>
											</g>
											<g>
												<path style="fill:#FFBEA4;" d="M299.637,445.312c0,0,85.235-44.699,94.173-42.219
													c8.938,2.481,15.67,23.732,13.213,27.297c-2.457,3.564-99.687,31.404-99.687,31.404L299.637,445.312z"/>
												<g>
													
														<line style="fill:none;stroke:#BF5B3C;stroke-width:0.25;stroke-linecap:round;stroke-linejoin:round;stroke-miterlimit:10;" x1="302.905" y1="443.61" x2="346.725" y2="421.654"/>
													
														<line style="fill:none;stroke:#BF5B3C;stroke-width:0.25;stroke-linecap:round;stroke-linejoin:round;stroke-miterlimit:10;" x1="311.277" y1="460.448" x2="389.838" y2="436.988"/>
												</g>
											</g>
										</g>
									</g>
								</g>
								<g>
									<g>
										<g>
											<g>
												<polygon style="fill:#6566D0;" points="350.721,333.749 350.721,333.749 343.549,330.841 331.447,330.872 
													331.398,330.872 319.295,330.903 313.346,333.351 313.346,333.351 288.46,343.59 304.114,404.94 304.114,404.94 
													304.114,404.94 331.587,404.87 331.636,404.87 359.109,404.799 374.448,343.37 												"/>
												
													<path style="fill:none;stroke:#D7DAF7;stroke-width:0.25;stroke-linecap:round;stroke-linejoin:round;stroke-miterlimit:10;" d="
													M309.829,334.798c0,0,2.051,18.145,20.503,18.037c18.452-0.108,20.389-19.086,20.389-19.086"/>
											</g>
											<path style="fill:#FFD0BD;" d="M343.693,330.899v-13.511h-24.397v13.515l-5.949,2.448l-1.371,0.564
												c0.541,9.668,8.529,17.348,18.332,17.348c10.138,0,18.357-8.206,18.382-18.338L343.693,330.899z"/>
										</g>
										<g>
											<g>
												<g>
													<polygon style="fill:#807BEF;" points="369.64,421.143 293.143,421.143 285.03,366.402 377.937,366.402 													
														"/>
												</g>
												<g>
													<path style="fill:#7070E0;" d="M337.764,403.008c-0.049-1.001-0.251-2.013-0.751-2.882
														c-0.605-1.052-1.595-1.815-2.417-2.708c-2.774-3.017-3.434-7.948-1.134-11.341c1.029-1.518,2.525-2.644,3.856-3.906
														c1.331-1.262,2.565-2.79,2.8-4.61c0.307-2.377-1.425-4.842-3.764-5.36c-1.571-0.348-3.224,0.108-4.653,0.848
														c-3.212,1.666-5.576,4.781-6.589,8.255c-1.013,3.474-0.727,7.265,0.524,10.66c0.666,1.807,1.613,3.535,2.956,4.917
														c1.185,1.22,2.642,2.137,3.929,3.248s2.448,2.512,2.724,4.19c0.256,1.56-0.269,3.115-0.713,4.589
														c-0.329,1.096-0.896,2.852,0.639,1.419C337.023,408.6,337.883,405.455,337.764,403.008z"/>
													<path style="fill:#7070E0;" d="M339.058,402.485c0.052-0.738,0.081-1.487-0.067-2.212
														c-0.297-1.464-1.27-2.685-1.917-4.032c-1.204-2.508-1.233-5.55-0.076-8.08c1.055-2.306,3.145-4.19,5.632-4.685
														c2.487-0.494,5.293,0.573,6.572,2.762c1.012,1.732,1.001,3.895,0.546,5.849c-0.345,1.483-1.118,3.09-2.587,3.492
														c-0.934,0.255-1.944-0.056-2.761-0.575c-0.624-0.396-1.199-0.963-1.337-1.688c-0.229-1.208,0.809-2.339,0.754-3.568
														c-0.05-1.118-1.165-2.069-2.277-1.943c-1.232,0.14-2.095,1.408-2.173,2.646c-0.077,1.238,0.446,2.429,1.03,3.523
														c0.584,1.094,1.249,2.175,1.495,3.39c0.291,1.435-0.036,2.941-0.647,4.272c-0.445,0.97-1.108,2.374-1.92,3.09
														c-0.536,0.473-0.468,0.365-0.456-0.324C338.881,403.769,339.013,403.119,339.058,402.485z"/>
													<path style="fill:#7070E0;" d="M325.413,397.052c-0.517-0.383-1.007-0.799-1.423-1.3
														c-1.539-1.853-1.78-4.447-1.716-6.855c0.064-2.408,0.357-4.879-0.356-7.18c-0.231-0.747-0.575-1.474-1.114-2.04
														c-0.427-0.448-0.96-0.781-1.505-1.075c-1.558-0.842-3.449-1.413-5.081-0.726c-0.643,0.27-1.197,0.719-1.693,1.21
														c-1.241,1.23-2.196,2.844-2.267,4.59c-0.071,1.746,0.908,3.589,2.552,4.18c0.29,0.104,0.603,0.169,0.906,0.111
														c0.661-0.127,1.064-0.773,1.482-1.301c0.684-0.863,1.948-1.551,2.843-0.91c0.367,0.263,0.575,0.697,0.684,1.134
														c0.466,1.865-0.626,3.777-0.542,5.697c0.082,1.868,1.395,3.621,3.165,4.225c1.225,0.418,2.565,0.313,3.83,0.582
														c0.042,0.009,0.079,0.023,0.119,0.033C325.484,397.428,325.532,397.34,325.413,397.052z"/>
												</g>
												
													<line style="fill:none;stroke:#585C9E;stroke-width:0.5;stroke-linecap:round;stroke-linejoin:round;stroke-miterlimit:10;" x1="285.03" y1="366.402" x2="377.937" y2="366.402"/>
											</g>
											<g>
												<path style="fill:#FFD0BD;" d="M311.276,410.977c0.002-0.212,0-0.339,0-0.339v-9.632c0-1.61-1.305-2.915-2.915-2.915
													c-1.61,0-2.915,1.305-2.915,2.915v8.918c0,0-0.118,0.501-0.504,0.501c-0.386,0-0.517-0.437-0.517-0.437v-8.982
													c0-1.61-1.305-2.915-2.915-2.915s-2.915,1.305-2.915,2.915v8.918c0,0-0.118,0.501-0.504,0.501
													c-0.386,0-0.517-0.437-0.517-0.437v-8.982c0-1.61-1.305-2.915-2.915-2.915c-1.61,0-2.915,1.305-2.915,2.915v9.632
													h-0.157l-6.556-44.237h9.251l-5.82-22.812c0,0-9.689,9.709-10.11,40.053c-0.421,30.344,5.104,43.842,19.223,45.106
													c12.172,1.09,13.54-13.15,13.687-17.1c0.003-0.056,0.017-0.109,0.017-0.166V410.977z"/>
												
													<path style="fill:none;stroke:#585C9E;stroke-width:0.25;stroke-linecap:round;stroke-linejoin:round;stroke-miterlimit:10;" d="
													M278.33,386.199c0,0-2.298,23.169,7.639,36.741c8.52,11.637,24.247,5.687,24.777-6.671"/>
											</g>
											<g>
												<path style="fill:#FFD0BD;" d="M384.617,383.643c-0.421-30.344-10.11-40.053-10.11-40.053l-5.82,22.812h9.251
													l-6.556,44.237h-0.157v-9.632c0-1.61-1.305-2.915-2.915-2.915c-1.61,0-2.915,1.305-2.915,2.915v8.982
													c0,0-0.132,0.437-0.517,0.437c-0.386,0-0.504-0.501-0.504-0.501v-8.918c0-1.61-1.305-2.915-2.915-2.915
													c-1.61,0-2.915,1.305-2.915,2.915v8.982c0,0-0.132,0.437-0.517,0.437c-0.386,0-0.504-0.501-0.504-0.501v-8.918
													c0-1.61-1.305-2.915-2.915-2.915c-1.61,0-2.915,1.305-2.915,2.915v9.632c0,0-0.002,0.127,0,0.339v0.506
													c0,0.057,0.013,0.11,0.017,0.166c0.146,3.95,1.515,18.19,13.687,17.1C379.512,427.484,385.038,413.987,384.617,383.643z
													"/>
												
													<path style="fill:none;stroke:#585C9E;stroke-width:0.25;stroke-linecap:round;stroke-linejoin:round;stroke-miterlimit:10;" d="
													M384.79,386.199c0,0,2.298,23.169-7.639,36.741c-8.52,11.637-24.247,5.687-24.778-6.671"/>
											</g>
										</g>
									</g>
									<g>
										<g>
											<path style="fill:#FEB492;" d="M343.636,318.023c-2.22,4.145-6.593,6.964-11.623,6.964h-0.979
												c-4.959,0-9.257-2.831-11.366-6.964"/>
											<rect x="318.202" y="309.514" style="fill:#807BEF;" width="26.988" height="1.971"/>
											<rect x="318.202" y="313.793" style="fill:#807BEF;" width="26.988" height="1.971"/>
											<polyline style="fill:#807BEF;" points="318.281,307.317 318.281,305.459 345.19,305.459 345.19,307.232 											"/>
											<path style="fill:#CCCDFF;" d="M344.999,309.514h-26.291c-0.626,0-1.133-0.511-1.133-1.141l0,0
												c0-0.63,0.507-1.141,1.133-1.141h26.291c0.626,0,1.133,0.511,1.133,1.141l0,0
												C346.132,309.004,345.625,309.514,344.999,309.514z"/>
											<path style="fill:#CCCDFF;" d="M344.999,313.768h-26.291c-0.626,0-1.133-0.511-1.133-1.141l0,0
												c0-0.63,0.507-1.141,1.133-1.141h26.291c0.626,0,1.133,0.511,1.133,1.141l0,0
												C346.132,313.257,345.625,313.768,344.999,313.768z"/>
											<path style="fill:#CCCDFF;" d="M344.534,318.022h-25.447c-0.606,0-1.097-0.511-1.097-1.141l0,0
												c0-0.63,0.491-1.141,1.097-1.141h25.447c0.605,0,1.096,0.511,1.096,1.141l0,0
												C345.631,317.511,345.14,318.022,344.534,318.022z"/>
										</g>
										<g>
											<path style="fill:#FEB492;" d="M366.944,267.799c0-19.79-16.675-35.685-36.741-34.401
												c-16.84,1.077-30.639,14.555-32.077,31.368c-1.089,12.726,4.748,24.157,14.151,30.967c0,0-0.002,0-0.002,0
												s0.014,0.009,0.017,0.011c0.313,0.227,0.626,0.454,0.946,0.67c1.68,1.305,4.971,4.446,4.971,9.045h26.565
												c0,0,0.249-1.41,1.48-3.491c1.308-2.211,3.165-4.044,5.302-5.469C360.83,290.322,366.944,279.778,366.944,267.799z"/>
											<g>
												<path style="fill:#FFC1A9;" d="M308.523,246.023c-1.285,1.568-2.399,3.355-2.738,5.353
													c-0.34,1.999,0.224,4.24,1.802,5.513c2.256,1.819,5.663,1.1,8.143-0.398c2.481-1.499,4.559-3.668,7.224-4.805
													c4.013-1.712,8.944-0.905,12.555-3.354c1.592-1.08,2.788-2.781,3.104-4.679c0.315-1.898-0.31-3.963-1.735-5.255
													c-1.957-1.772-4.875-1.832-7.514-1.772C321.391,236.809,313.691,239.716,308.523,246.023z"/>
												<path style="fill:#FFC1A9;" d="M340.604,244.594c0.424,1.101,1.381,1.928,2.435,2.457
													c0.568,0.285,1.192,0.5,1.826,0.462c1.227-0.072,2.233-1.093,2.669-2.242c0.436-1.149,0.418-2.412,0.393-3.641
													c-0.005-0.234-0.01-0.473-0.09-0.693c-0.607-1.681-3.489-3.144-5.113-2.378
													C340.779,239.477,339.864,242.675,340.604,244.594z"/>
											</g>
											<path style="fill:#FF9575;" d="M348.967,237.527c0.994,1.688,1.935,3.405,2.776,5.178
												c2.788,5.87,4.347,12.207,4.139,18.727c-0.195,6.121-1.65,12.287-4.76,17.6c-2.716,4.639-6.706,8.575-11.633,10.806
												c-5.236,2.371-11.025,2.605-16.593,1.4c-4.766-1.031-9.208-3.243-12.913-6.409c-3.602-3.079-6.447-6.994-8.52-11.241
												c-1.444-2.96-2.526-6.083-3.288-9.284c-0.015,0.154-0.037,0.307-0.05,0.462c-1.089,12.726,4.748,24.157,14.151,30.967
												c0,0-0.002,0-0.002,0s0.014,0.009,0.017,0.011c0.313,0.227,0.626,0.454,0.946,0.67c1.68,1.305,4.971,4.446,4.971,9.045
												h26.565c0,0,0.249-1.41,1.48-3.491c1.308-2.211,3.165-4.044,5.302-5.469c9.273-6.178,15.387-16.722,15.387-28.7
												C366.944,254.737,359.676,243.376,348.967,237.527z"/>
											<g>
												<path style="fill:#FFFFFF;" d="M341.961,276.623c-1.708-0.704-3.113-0.654-4.178,0.145
													c-2.804,2.103-2.135,8.678-2.107,8.924v0.197c-1.655,0.465-3.431,0.744-5.206,0.744c-1.776,0-3.553-0.279-5.207-0.745
													v-0.163c0.03-0.279,0.7-6.853-2.105-8.957c-1.066-0.798-2.472-0.847-4.179-0.145c-2.534,1.044-2.821,2.502-2.616,3.541
													c0.481,2.432,4.042,4.897,8.274,6.185v19.109c0,0.018,0.012,0.032,0.02,0.047h0.587c0.007-0.015,0.02-0.029,0.02-0.047
													l-0.002-18.929c1.699,0.463,3.484,0.731,5.207,0.731c1.722,0,3.508-0.268,5.206-0.731v18.929
													c0,0.018,0.013,0.032,0.02,0.047h0.587c0.007-0.015,0.02-0.029,0.02-0.047l-0.001-19.109
													c4.233-1.286,7.793-3.752,8.275-6.185C344.784,279.125,344.496,277.667,341.961,276.623z M324.639,285.692v0.01
													c-4.064-1.28-7.263-3.656-7.66-5.66c-0.232-1.176,0.521-2.131,2.24-2.839c0.719-0.296,1.37-0.444,1.949-0.444
													c0.621,0,1.161,0.17,1.615,0.51C325.304,279.159,324.648,285.594,324.639,285.692z M343.963,280.042
													c-0.395,2.005-3.596,4.379-7.66,5.661v-0.044c-0.007-0.065-0.663-6.501,1.857-8.389c0.454-0.34,0.993-0.51,1.614-0.51
													c0.58,0,1.232,0.148,1.95,0.444C343.443,277.91,344.196,278.865,343.963,280.042z"/>
											</g>
											
												<path style="fill:none;stroke:#FFE6DE;stroke-width:0.5;stroke-linecap:round;stroke-linejoin:round;stroke-miterlimit:10;" d="
												M344.775,305.459c0,0,0.249-1.41,1.48-3.491c1.308-2.211,3.165-4.044,5.302-5.469c9.273-6.178,15.387-16.722,15.387-28.7
												c0-19.79-16.675-35.685-36.741-34.401c-16.84,1.077-30.639,14.555-32.077,31.368
												c-1.089,12.726,4.748,24.157,14.151,30.967c0,0-0.002,0-0.002,0s0.014,0.009,0.017,0.011
												c0.313,0.227,0.626,0.454,0.946,0.67c1.68,1.305,4.971,4.446,4.971,9.045"/>
										</g>
									</g>
								</g>
							</g>
						</g>
					</g>
				</g>
				<g>
					<ellipse style="fill:#EDBFAF;" cx="170.984" cy="438.409" rx="45.045" ry="6.897"/>
					<g>
						<g>
							<g>
								
									<ellipse transform="matrix(0.2244 -0.9745 0.9745 0.2244 -80.0326 226.0623)" style="opacity:0.2;fill:#FFF4F1;" cx="102.001" cy="163.309" rx="72.796" ry="72.796"/>
								
									<ellipse transform="matrix(0.2247 -0.9744 0.9744 0.2247 -80.0509 226.0092)" style="opacity:0.4;fill:#FFF4F1;" cx="102.001" cy="163.309" rx="60.72" ry="60.72"/>
								
									<ellipse transform="matrix(0.2375 -0.9714 0.9714 0.2375 -80.8626 223.6011)" style="opacity:0.6;fill:#FFF4F1;" cx="102.001" cy="163.309" rx="47.414" ry="47.414"/>
								
									<ellipse transform="matrix(0.2337 -0.9723 0.9723 0.2337 -80.6246 224.3181)" style="opacity:0.8;fill:#FFF4F1;" cx="102.001" cy="163.309" rx="35.178" ry="35.178"/>
								
									<ellipse transform="matrix(0.2394 -0.9709 0.9709 0.2394 -80.9794 223.2455)" style="fill:#FFFAF9;" cx="102.001" cy="163.309" rx="23.499" ry="23.499"/>
							</g>
							<g>
								<g>
									<path style="fill:#FEAA83;" d="M119.821,131.547c-0.088-0.719,2.765-51.295,2.765-51.295l14.748,1.114l-10.438,51.611
										L119.821,131.547z"/>
									<path style="fill:#FEAA83;" d="M127.387,141.525c-0.627,3.098-3.646,5.102-6.744,4.475
										c-3.098-0.627-5.102-3.646-4.475-6.745c0.627-3.098,3.646-5.102,6.744-4.475
										C126.01,135.407,128.013,138.427,127.387,141.525z"/>
								</g>
								<g>
									<g>
										<path style="fill:#FF8662;" d="M83.638,100.128c-0.246-0.681-8.735-50.621-8.735-50.621l14.625-2.2l1.324,52.64
											L83.638,100.128z"/>
										<path style="fill:#FF8662;" d="M93.237,108.169c0.079,3.16-2.418,5.786-5.578,5.866c-3.16,0.079-5.786-2.418-5.866-5.578
											c-0.079-3.16,2.418-5.786,5.578-5.866C90.531,102.512,93.157,105.009,93.237,108.169z"/>
									</g>
								</g>
								<g>
									<g>
										<path style="fill:#FF8662;" d="M69.983,143.564c-0.47-0.398-27.89-33.633-27.89-33.633l9.854-7.819l23.28,38.262
											L69.983,143.564z"/>
										<path style="fill:#FF8662;" d="M80.469,145.428c1.397,2.297,0.668,5.292-1.628,6.689
											c-2.297,1.397-5.292,0.668-6.689-1.628c-1.397-2.297-0.668-5.292,1.628-6.689
											C76.077,142.402,79.072,143.131,80.469,145.428z"/>
									</g>
								</g>
							</g>
						</g>
						<g>
							<g>
								<g>
									<path style="fill:#6566D0;" d="M182.374,263.198c0,0,41.633,64.231,43.058,76.492c1.426,12.261-5.276,79.068-5.276,79.068
										h-22.37l-1.153-70.514l-36.783-45.052l-14.812,139.951c-4.986,0.633-20.345,0-20.345,0l-9.158-162.92L182.374,263.198z"/>
									<g>
										<g>
											
												<path style="fill:none;stroke:#D7DAF7;stroke-width:0.25;stroke-linecap:round;stroke-linejoin:round;stroke-miterlimit:10;" d="
												M124.218,281.811c0.351,4.149-1.655,8.417-5.072,10.796"/>
											
												<path style="fill:none;stroke:#D7DAF7;stroke-width:0.25;stroke-linecap:round;stroke-linejoin:round;stroke-miterlimit:10;" d="
												M175.034,268.208c0.48,0.65,0.996,1.274,1.543,1.868c0.704,0.765,1.467,1.487,2.357,2.025
												c2.232,1.351,4.986,1.408,7.595,1.426"/>
											<g>
												
													<polyline style="fill:none;stroke:#D7DAF7;stroke-width:0.25;stroke-linecap:round;stroke-linejoin:round;stroke-miterlimit:10;" points="
													157.988,320.786 159.85,303.192 165.369,298.379 154.434,278.182 												"/>
												<g>
													
														<path style="fill:none;stroke:#D7DAF7;stroke-width:0.25;stroke-linecap:round;stroke-linejoin:round;stroke-miterlimit:10;" d="
														M154.33,282.716c0,1.001-0.811,1.812-1.812,1.812c-1.001,0-1.812-0.811-1.812-1.812c0-1.001,0.811-1.812,1.812-1.812
														C153.519,280.904,154.33,281.715,154.33,282.716z"/>
													
														<path style="fill:none;stroke:#D7DAF7;stroke-width:0.25;stroke-linecap:round;stroke-linejoin:round;stroke-miterlimit:10;" d="
														M153.265,282.716c0,0.412-0.334,0.747-0.747,0.747c-0.412,0-0.747-0.334-0.747-0.747c0-0.412,0.334-0.747,0.747-0.747
														C152.931,281.969,153.265,282.303,153.265,282.716z"/>
												</g>
											</g>
										</g>
										<g>
											
												<polyline style="fill:none;stroke:#D7DAF7;stroke-width:0.25;stroke-linecap:round;stroke-linejoin:round;stroke-miterlimit:10;" points="
												161.621,301.647 197.927,347.388 199.195,412.131 											"/>
											
												<line style="fill:none;stroke:#D7DAF7;stroke-width:0.25;stroke-linecap:round;stroke-linejoin:round;stroke-miterlimit:10;" x1="197.687" y1="412.744" x2="220.751" y2="412.658"/>
											
												<line style="fill:none;stroke:#D7DAF7;stroke-width:0.25;stroke-linecap:round;stroke-linejoin:round;stroke-miterlimit:10;" x1="197.717" y1="414.545" x2="220.484" y2="415.423"/>
											
												<line style="fill:none;stroke:#D7DAF7;stroke-width:0.25;stroke-linecap:round;stroke-linejoin:round;stroke-miterlimit:10;" x1="220.296" y1="417.342" x2="197.768" y2="417.686"/>
											
												<line style="fill:none;stroke:#D7DAF7;stroke-width:0.25;stroke-linecap:round;stroke-linejoin:round;stroke-miterlimit:10;" x1="145.476" y1="439.001" x2="124.504" y2="439.788"/>
											
												<line style="fill:none;stroke:#D7DAF7;stroke-width:0.25;stroke-linecap:round;stroke-linejoin:round;stroke-miterlimit:10;" x1="124.601" y1="441.508" x2="145.18" y2="441.801"/>
											
												<line style="fill:none;stroke:#D7DAF7;stroke-width:0.25;stroke-linecap:round;stroke-linejoin:round;stroke-miterlimit:10;" x1="124.396" y1="437.866" x2="145.677" y2="437.107"/>
										</g>
									</g>
								</g>
								<g>
									<path style="fill:#FF5B52;" d="M125.81,443.253h18.078l-0.604,6.622c0,0-19.513,21.917-23.789,17.793
										c-3.419-3.297,6.443-22.363,6.443-22.363L125.81,443.253z"/>
									<g>
										
											<path style="fill:none;stroke:#AD3431;stroke-width:0.25;stroke-linecap:round;stroke-linejoin:round;stroke-miterlimit:10;" d="
											M143.51,447.396c0,0-22.482,24.754-23.96,17.668"/>
										<g>
											
												<path style="fill:none;stroke:#AD3431;stroke-width:0.25;stroke-linecap:round;stroke-linejoin:round;stroke-miterlimit:10;" d="
												M132.449,447.396c0,0-3.194-9.21-6.818-8.209C122.007,440.188,132.449,447.396,132.449,447.396z"/>
											
												<path style="fill:none;stroke:#AD3431;stroke-width:0.25;stroke-linecap:round;stroke-linejoin:round;stroke-miterlimit:10;" d="
												M132.449,447.396c0,0,6.111-6.9,8.151-5.109C142.641,444.078,132.449,447.396,132.449,447.396z"/>
											
												<path style="fill:none;stroke:#AD3431;stroke-width:0.25;stroke-linecap:round;stroke-linejoin:round;stroke-miterlimit:10;" d="
												M137.768,450.617c2.541-1.208,7.33,3.665,1.999,6.25c-5.331,2.585-7.318-9.472-7.318-9.472s-9.05,6.054-12.007,2.263
												c-2.957-3.79,1.208-5.581,2.916-5.373"/>
										</g>
									</g>
								</g>
								<g>
									<path style="fill:#FF5B52;" d="M199.401,418.757c0,0-0.775,13.086-0.775,14.785c0,1.699,38.802,4.47,39.935,3.338
										c1.133-1.133-19.614-15.357-19.614-15.357l-0.079-2.766H199.401z"/>
									<g>
										
											<path style="fill:none;stroke:#AD3431;stroke-width:0.25;stroke-linecap:round;stroke-linejoin:round;stroke-miterlimit:10;" d="
											M198.627,431.512c0,0,18.206,3.222,38.609,3.59"/>
										<g>
											
												<path style="fill:none;stroke:#AD3431;stroke-width:0.25;stroke-linecap:round;stroke-linejoin:round;stroke-miterlimit:10;" d="
												M220.104,424.156c0,0-10.392-9.765-12.542-5.399C206.008,421.913,220.104,424.156,220.104,424.156z"/>
											
												<path style="fill:none;stroke:#AD3431;stroke-width:0.25;stroke-linecap:round;stroke-linejoin:round;stroke-miterlimit:10;" d="
												M220.104,424.156c0,0,0.627-10.146,4.211-9.172C227.898,415.959,220.104,424.156,220.104,424.156z"/>
											
												<path style="fill:none;stroke:#AD3431;stroke-width:0.25;stroke-linecap:round;stroke-linejoin:round;stroke-miterlimit:10;" d="
												M210.294,432.04c6.719,3.808,9.81-7.884,9.81-7.884s2.261,4.039,6.259,2.579"/>
										</g>
									</g>
								</g>
							</g>
							<g>
								<g>
									<g>
										<g>
											<path style="fill:#9D8FDB;" d="M91.906,207.282l-47.321-3.099l11.918-51.596l-17.761-5.693
												c0,0-29.445,56.184-19.517,75.178s66.108,13.914,66.108,13.914L91.906,207.282z"/>
											<path style="fill:#9D93CC;" d="M63.89,205.448c0.313,2.495,0.649,4.987,1.029,7.473
												c1.048,6.868,2.294,13.703,3.456,20.552c0.177,1.042,0.347,2.086,0.519,3.129c9.465,0.014,16.44-0.616,16.44-0.616
												l6.571-28.704L63.89,205.448z"/>
										</g>
										<g>
											<g>
												<path style="fill:#9D8FDB;" d="M38.743,146.894l17.761,5.693l14.507-20.346l-0.008-0.009
													c0.017-0.016,0.036-0.026,0.052-0.042c0.986-0.975,0.995-2.564,0.02-3.55c-0.92-0.93-2.381-0.98-3.371-0.165
													l-0.014-0.016l-0.156,0.153c-0.003,0.003-0.006,0.004-0.009,0.007c-0.003,0.002-0.004,0.005-0.007,0.008l-8.655,8.476
													l6.907-17.788l-0.005-0.003c0.001-0.002,0.002-0.003,0.003-0.005c0.464-0.998,0.03-2.184-0.969-2.647
													c-0.98-0.455-2.136-0.042-2.617,0.917l-0.001,0l-0.006,0.011c-0.007,0.014-0.017,0.026-0.024,0.041
													c-0.004,0.008-0.005,0.017-0.009,0.025l-7.543,15.109l6.309-17.72c0,0,0-0.001,0-0.001
													c0.004-0.01,0.006-0.02,0.01-0.029l0.012-0.033l0,0c0.535-1.237-0.005-2.68-1.234-3.251
													c-1.25-0.58-2.733-0.037-3.314,1.212c-0.019,0.04-0.026,0.083-0.043,0.124l-0.012-0.005l-6.188,17.259l2.452-15.458
													c0.006-0.03,0.018-0.057,0.022-0.087c0.004-0.027,0.001-0.054,0.004-0.081l0.041-0.258l-0.027-0.003
													c0.028-1.292-0.893-2.438-2.205-2.639c-1.382-0.213-2.668,0.703-2.948,2.057l-0.008-0.001l-0.006,0.057
													c-0.005,0.026-0.015,0.048-0.019,0.074c-0.01,0.067-0.005,0.132-0.01,0.199l-2.056,19.046l-0.307-13.911
													c0-0.011,0.003-0.021,0.003-0.032c0-0.017-0.004-0.032-0.005-0.048l0-0.022H45.07c-0.04-0.929-1.097-1.888-2.036-1.887
													c-0.895,0.001-2.272,0.605-2.37,1.473l0,0L38.743,146.894z"/>
											</g>
											
												<path style="fill:none;stroke:#585C9E;stroke-width:0.25;stroke-linecap:round;stroke-linejoin:round;stroke-miterlimit:10;" d="
												M57.188,133.987c-4.773,1.26-9.994,0.734-14.42-1.452"/>
											
												<path style="fill:none;stroke:#585C9E;stroke-width:0.25;stroke-linecap:round;stroke-linejoin:round;stroke-miterlimit:10;" d="
												M57.857,137.306c-5.548,0.791-10.77,3.683-14.385,7.964"/>
										</g>
									</g>
									<g>
										<g>
											<path style="fill:#9D8FDB;" d="M143.437,190.164l31.165-13.258l-30.677-37.515l14.827-11.315
												c0,0,50.363,33.841,49.418,52.264c-0.945,18.423-54.101,38.286-54.101,38.286L143.437,190.164z"/>
											<path style="fill:#9D93CC;" d="M160.651,182.841l-17.214,7.323l10.632,28.461c0,0,14.792-5.529,28.909-13.456
												L160.651,182.841z"/>
										</g>
										<g>
											<g>
												<path style="fill:#9D8FDB;" d="M158.752,128.076l-14.827,11.315l-20.485-14.31l0.004-0.011
													c-0.021-0.009-0.043-0.012-0.063-0.022c-1.255-0.588-1.797-2.082-1.208-3.338c0.555-1.185,1.915-1.72,3.121-1.285
													l0.008-0.019l0.198,0.092c0.004,0.002,0.007,0.002,0.011,0.004c0.003,0.001,0.006,0.004,0.009,0.005l10.994,5.086
													l-12.468-14.446l0.004-0.004c-0.001-0.001-0.003-0.002-0.004-0.004c-0.771-0.785-0.76-2.048,0.026-2.819
													c0.771-0.757,1.998-0.755,2.773-0.013l0.001-0.001l0.009,0.009c0.011,0.011,0.025,0.019,0.036,0.03
													c0.006,0.006,0.01,0.014,0.016,0.021l12.169,11.709l-11.882-14.582c0,0-0.001,0-0.001-0.001
													c-0.007-0.007-0.012-0.016-0.019-0.024l-0.022-0.027l0,0c-0.918-0.986-0.894-2.527,0.074-3.477
													c0.983-0.965,2.563-0.951,3.528,0.032c0.031,0.032,0.053,0.069,0.082,0.102l0.01-0.009l11.613,14.189l-7.489-13.743
													c-0.015-0.026-0.036-0.047-0.05-0.074c-0.013-0.024-0.019-0.05-0.031-0.075l-0.125-0.23l0.025-0.012
													c-0.459-1.208,0.025-2.596,1.193-3.226c1.231-0.663,2.75-0.231,3.467,0.951l0.008-0.004l0.025,0.052
													c0.013,0.022,0.03,0.04,0.043,0.063c0.032,0.06,0.049,0.123,0.076,0.184l8.319,17.256l-4.371-13.21
													c-0.004-0.01-0.01-0.019-0.014-0.029c-0.005-0.016-0.007-0.031-0.012-0.047l-0.007-0.021l0.002-0.001
													c-0.274-0.888,0.401-2.147,1.286-2.46c0.843-0.299,2.343-0.191,2.727,0.594l0,0L158.752,128.076z"/>
											</g>
											
												<path style="fill:none;stroke:#585C9E;stroke-width:0.25;stroke-linecap:round;stroke-linejoin:round;stroke-miterlimit:10;" d="
												M137.049,122.095c4.919-0.412,9.663-2.657,13.1-6.199"/>
											
												<path style="fill:none;stroke:#585C9E;stroke-width:0.25;stroke-linecap:round;stroke-linejoin:round;stroke-miterlimit:10;" d="
												M137.531,125.446c5.492-1.113,11.381-0.139,16.222,2.685"/>
										</g>
									</g>
								</g>
								<g>
									<g>
										<path style="fill:#CCCDFF;" d="M161.145,228.307l-1.655-9.461l7.008-3.024l-8.928-36.697l-31.947,11.559l-21.649,7.357
											l-25.624,6.275l-1.261,33.566l19.796,1.104l3.726,5.295l14.923,35.942c37.623-4.414,66.839-17.025,66.839-17.025
											L161.145,228.307z"/>
										<g>
											
												<polyline style="fill:none;stroke:#585C9E;stroke-width:0.25;stroke-linecap:round;stroke-linejoin:round;stroke-miterlimit:10;" points="
												98.896,199.667 129.427,226.465 129.427,189.308 											"/>
											<g>
												
													<path style="fill:none;stroke:#585C9E;stroke-width:0.25;stroke-linecap:round;stroke-linejoin:round;stroke-miterlimit:10;" d="
													M114.688,278.182c0,0,39.264-4.697,66.343-17.192"/>
												
													<path style="fill:none;stroke:#585C9E;stroke-width:0.25;stroke-linecap:round;stroke-linejoin:round;stroke-miterlimit:10;" d="
													M113.838,276.136c0,0,47.352-7.192,65.691-17.613"/>
											</g>
											<g>
												<g>
													
														<line style="fill:none;stroke:#585C9E;stroke-width:0.25;stroke-linecap:round;stroke-linejoin:round;stroke-miterlimit:10;" x1="80.644" y1="203.754" x2="79.248" y2="238.002"/>
													
														<line style="fill:none;stroke:#585C9E;stroke-width:0.25;stroke-linecap:round;stroke-linejoin:round;stroke-miterlimit:10;" x1="78.35" y1="204.315" x2="77.09" y2="237.882"/>
												</g>
												
													<line style="fill:none;stroke:#585C9E;stroke-width:0.25;stroke-linecap:round;stroke-linejoin:round;stroke-miterlimit:10;" x1="95.412" y1="231.464" x2="109.544" y2="265.794"/>
											</g>
											<g>
												<g>
													
														<line style="fill:none;stroke:#585C9E;stroke-width:0.25;stroke-linecap:round;stroke-linejoin:round;stroke-miterlimit:10;" x1="157.571" y1="179.125" x2="166.498" y2="215.822"/>
													
														<line style="fill:none;stroke:#585C9E;stroke-width:0.25;stroke-linecap:round;stroke-linejoin:round;stroke-miterlimit:10;" x1="164.673" y1="216.61" x2="154.978" y2="180.063"/>
												</g>
												
													<line style="fill:none;stroke:#585C9E;stroke-width:0.25;stroke-linecap:round;stroke-linejoin:round;stroke-miterlimit:10;" x1="158.672" y1="214.508" x2="161.354" y2="230.063"/>
											</g>
										</g>
									</g>
									<g>
										<g>
											<g>
												<path style="fill:#807BEF;" d="M110.65,150.164c-1.965-0.106-3.36,0.439-4.15,1.617
													c-2.079,3.102,0.911,9.478,1.026,9.715l0.069,0.198c-1.5,1.051-3.188,1.957-4.972,2.582
													c-1.785,0.626-3.671,0.971-5.499,1.085l-0.057-0.164c-0.068-0.291-1.711-7.138-5.272-8.265
													c-1.353-0.427-2.784,0.019-4.253,1.327c-2.18,1.943-1.955,3.509-1.383,4.482c1.34,2.276,5.789,3.5,10.499,3.304
													l6.732,19.214c0.007,0.018,0.024,0.028,0.036,0.041l0.591-0.207c0.002-0.018,0.009-0.036,0.003-0.055l-6.671-19.033
													c1.871-0.133,3.761-0.493,5.494-1.1c1.732-0.607,3.433-1.506,4.977-2.569l6.669,19.033
													c0.006,0.019,0.024,0.028,0.036,0.041l0.591-0.207c0.002-0.018,0.01-0.036,0.003-0.054l-6.733-19.214
													c3.803-2.785,6.514-6.518,6.142-9.134C114.369,151.685,113.566,150.32,110.65,150.164z M96.427,165.385l0.004,0.01
													c-4.537,0.144-8.591-1.117-9.696-2.992c-0.648-1.101-0.227-2.326,1.252-3.643c0.618-0.551,1.221-0.929,1.803-1.133
													c0.625-0.219,1.227-0.238,1.803-0.055C94.794,158.582,96.401,165.283,96.427,165.385z M113.866,152.896
													c0.309,2.155-2.073,5.67-5.707,8.391l-0.016-0.044c-0.03-0.063-2.957-6.303-1.089-9.09
													c0.337-0.502,0.818-0.863,1.444-1.082c0.583-0.204,1.29-0.285,2.117-0.24
													C112.593,150.936,113.687,151.631,113.866,152.896z"/>
											</g>
										</g>
										<g>
											<polygon style="fill:#9D8FDB;" points="103.975,198.041 98.896,186.83 121.378,179.125 125.624,190.684 											"/>
											<polygon style="fill:#9D8FDB;" points="100.446,198.904 127.501,222.072 127.947,189.843 											"/>
										</g>
									</g>
								</g>
							</g>
						</g>
					</g>
				</g>
			</g>
		</g>
	</g>
</g>
</svg>
