<?xml version="1.0" encoding="utf-8"?>
<!-- Generator: Adobe Illustrator 27.5.0, SVG Export Plug-In . SVG Version: 6.00 Build 0)  -->
<svg version="1.1" xmlns="http://www.w3.org/2000/svg" xmlns:xlink="http://www.w3.org/1999/xlink" x="0px" y="0px"
	 viewBox="0 0 500 500" style="enable-background:new 0 0 500 500;" xml:space="preserve">
<g id="People">
	<g id="People_00000104665716587267883770000015093704622126817966_" style="opacity:0.6;">
		<circle style="fill:#E6E6E6;" cx="383.918" cy="108.575" r="6.439"/>
		<path style="fill:#F0F0F0;" d="M319.769,83.917c0,3.556-2.883,6.439-6.439,6.439c-3.556,0-6.439-2.883-6.439-6.439
			s2.883-6.439,6.439-6.439C316.887,77.478,319.769,80.361,319.769,83.917z"/>
		<path style="fill:#F0F0F0;" d="M394.582,130.399c0,3.556-2.883,6.439-6.439,6.439c-3.556,0-6.439-2.883-6.439-6.439
			c0-3.556,2.883-6.439,6.439-6.439C391.7,123.961,394.582,126.843,394.582,130.399z"/>
		<path style="fill:#F0F0F0;" d="M374.388,177.648c0,3.556-2.883,6.439-6.439,6.439c-3.556,0-6.439-2.883-6.439-6.439
			c0-3.556,2.883-6.439,6.439-6.439C371.505,171.21,374.388,174.092,374.388,177.648z"/>
		<circle style="fill:#F5F5F5;" cx="405.913" cy="145.472" r="6.439"/>
		<path style="fill:#F0F0F0;" d="M418.79,115.014c0,3.556-2.883,6.439-6.439,6.439c-3.556,0-6.439-2.883-6.439-6.439
			c0-3.556,2.883-6.439,6.439-6.439C415.908,108.575,418.79,111.458,418.79,115.014z"/>
		<path style="fill:#F0F0F0;" d="M330.603,121.453c0,3.556-2.883,6.439-6.439,6.439c-3.556,0-6.439-2.883-6.439-6.439
			s2.883-6.439,6.439-6.439C327.72,115.014,330.603,117.897,330.603,121.453z"/>
		<path style="fill:#E6E6E6;" d="M410.061,174.367c0,3.556-2.883,6.439-6.439,6.439c-3.556,0-6.439-2.883-6.439-6.439
			c0-3.556,2.883-6.439,6.439-6.439C407.179,167.928,410.061,170.811,410.061,174.367z"/>
		<path style="fill:#F0F0F0;" d="M434.833,177.648c0,3.556-2.883,6.439-6.439,6.439c-3.556,0-6.439-2.883-6.439-6.439
			c0-3.556,2.883-6.439,6.439-6.439C431.95,171.21,434.833,174.092,434.833,177.648z"/>
		<path style="fill:#F0F0F0;" d="M388.144,159.371c0,3.556-2.883,6.439-6.439,6.439c-3.556,0-6.439-2.883-6.439-6.439
			c0-3.556,2.883-6.439,6.439-6.439C385.261,152.932,388.144,155.815,388.144,159.371z"/>
		<path style="fill:#F0F0F0;" d="M390.357,203.06c0,3.556-2.883,6.439-6.439,6.439s-6.439-2.883-6.439-6.439
			c0-3.556,2.883-6.439,6.439-6.439S390.357,199.504,390.357,203.06z"/>
		<path style="fill:#F0F0F0;" d="M371.433,142.691c0,3.556-2.883,6.439-6.439,6.439c-3.556,0-6.439-2.883-6.439-6.439
			c0-3.556,2.883-6.439,6.439-6.439C368.55,136.252,371.433,139.135,371.433,142.691z"/>
		<path style="fill:#F5F5F5;" d="M355.807,163.763c0,3.556-2.883,6.439-6.439,6.439c-3.556,0-6.439-2.883-6.439-6.439
			c0-3.556,2.883-6.439,6.439-6.439C352.924,157.324,355.807,160.207,355.807,163.763z"/>
		<path style="fill:#F0F0F0;" d="M328.248,165.399c0,3.556-2.883,6.439-6.439,6.439s-6.439-2.883-6.439-6.439
			c0-3.556,2.883-6.439,6.439-6.439S328.248,161.843,328.248,165.399z"/>
		<path style="fill:#F5F5F5;" d="M356.67,121.453c0,3.556-2.883,6.439-6.439,6.439s-6.439-2.883-6.439-6.439
			s2.883-6.439,6.439-6.439S356.67,117.897,356.67,121.453z"/>
		<path style="fill:#E6E6E6;" d="M342.001,143.99c0,3.556-2.883,6.439-6.439,6.439c-3.556,0-6.439-2.883-6.439-6.439
			s2.883-6.439,6.439-6.439C339.118,137.551,342.001,140.434,342.001,143.99z"/>
		<path style="fill:#E6E6E6;" d="M351.527,185.434c0,3.556-2.883,6.439-6.439,6.439c-3.556,0-6.439-2.883-6.439-6.439
			c0-3.556,2.883-6.439,6.439-6.439C348.645,178.995,351.527,181.878,351.527,185.434z"/>
		<path style="fill:#F0F0F0;" d="M364.994,98.559c0,3.556-2.883,6.439-6.439,6.439s-6.439-2.883-6.439-6.439
			c0-3.556,2.883-6.439,6.439-6.439S364.994,95.003,364.994,98.559z"/>
		<path style="fill:#F0F0F0;" d="M339.397,95.316c0,3.556-2.883,6.439-6.439,6.439c-3.556,0-6.439-2.883-6.439-6.439
			s2.883-6.439,6.439-6.439C336.514,88.878,339.397,91.76,339.397,95.316z"/>
		<path style="fill:#F5F5F5;" d="M434.833,135.516c0,3.556-2.883,6.439-6.439,6.439c-3.556,0-6.439-2.883-6.439-6.439
			c0-3.556,2.883-6.439,6.439-6.439C431.95,129.078,434.833,131.96,434.833,135.516z"/>
		<path style="fill:#F5F5F5;" d="M417.081,204.049c0,3.556-2.883,6.439-6.439,6.439c-3.556,0-6.439-2.883-6.439-6.439
			s2.883-6.439,6.439-6.439C414.199,197.61,417.081,200.492,417.081,204.049z"/>
		<path style="fill:#F0F0F0;" d="M445.471,156.122c0,3.556-2.883,6.439-6.439,6.439c-3.556,0-6.439-2.883-6.439-6.439
			c0-3.556,2.883-6.439,6.439-6.439C442.589,149.683,445.471,152.566,445.471,156.122z"/>
		<circle style="fill:#F0F0F0;" cx="416.5" cy="226.639" r="6.439"/>
		<path style="fill:#F5F5F5;" d="M473.726,202.468c0,3.556-2.883,6.439-6.439,6.439c-3.556,0-6.439-2.883-6.439-6.439
			c0-3.556,2.883-6.439,6.439-6.439C470.843,196.029,473.726,198.912,473.726,202.468z"/>
		<circle style="fill:#F5F5F5;" cx="449.68" cy="232.868" r="6.439"/>
		<path style="fill:#F0F0F0;" d="M447.682,204.108c0,3.556-2.883,6.439-6.439,6.439c-3.556,0-6.439-2.883-6.439-6.439
			c0-3.556,2.883-6.439,6.439-6.439C444.8,197.669,447.682,200.551,447.682,204.108z"/>
		<path style="fill:#F5F5F5;" d="M473.726,153.599c0,3.556-2.883,6.439-6.439,6.439c-3.556,0-6.439-2.883-6.439-6.439
			s2.883-6.439,6.439-6.439C470.843,147.16,473.726,150.043,473.726,153.599z"/>
		<path style="fill:#E6E6E6;" d="M465.935,178.622c0,3.556-2.883,6.439-6.439,6.439c-3.556,0-6.439-2.883-6.439-6.439
			c0-3.556,2.883-6.439,6.439-6.439C463.052,172.184,465.935,175.066,465.935,178.622z"/>
		<path style="fill:#F0F0F0;" d="M456.119,129.287c0,3.556-2.883,6.439-6.439,6.439c-3.556,0-6.439-2.883-6.439-6.439
			c0-3.556,2.883-6.439,6.439-6.439C453.236,122.848,456.119,125.731,456.119,129.287z"/>
		<path style="fill:#E6E6E6;" d="M271.216,107.07c0,3.556-2.883,6.439-6.439,6.439c-3.556,0-6.439-2.883-6.439-6.439
			c0-3.556,2.883-6.439,6.439-6.439C268.333,100.631,271.216,103.514,271.216,107.07z"/>
		<path style="fill:#F0F0F0;" d="M277.655,83.74c0,3.556-2.883,6.439-6.439,6.439c-3.556,0-6.439-2.883-6.439-6.439
			c0-3.556,2.883-6.439,6.439-6.439C274.772,77.301,277.655,80.184,277.655,83.74z"/>
		<path style="fill:#F0F0F0;" d="M276.491,131.237c0,3.556-2.883,6.439-6.439,6.439c-3.556,0-6.439-2.883-6.439-6.439
			c0-3.556,2.883-6.439,6.439-6.439C273.608,124.798,276.491,127.681,276.491,131.237z"/>
		<path style="fill:#F5F5F5;" d="M302.808,118.095c0,3.556-2.883,6.439-6.439,6.439c-3.556,0-6.439-2.883-6.439-6.439
			c0-3.556,2.883-6.439,6.439-6.439C299.925,111.656,302.808,114.539,302.808,118.095z"/>
		<path style="fill:#F0F0F0;" d="M295.807,94.859c0,3.556-2.883,6.439-6.439,6.439c-3.556,0-6.439-2.883-6.439-6.439
			c0-3.556,2.883-6.439,6.439-6.439C292.925,88.42,295.807,91.303,295.807,94.859z"/>
		<path style="fill:#E6E6E6;" d="M290.533,149.919c0,3.556-2.883,6.439-6.439,6.439c-3.556,0-6.439-2.883-6.439-6.439
			c0-3.556,2.883-6.439,6.439-6.439C287.65,143.481,290.533,146.363,290.533,149.919z"/>
		<path style="fill:#F0F0F0;" d="M311.039,142.304c0,3.556-2.883,6.439-6.439,6.439c-3.556,0-6.439-2.883-6.439-6.439
			c0-3.556,2.883-6.439,6.439-6.439C308.156,135.865,311.039,138.748,311.039,142.304z"/>
		<path style="fill:#E6E6E6;" d="M97.348,118.096c0.264,3.546,3.354,6.207,6.9,5.942c3.546-0.265,6.207-3.354,5.942-6.9
			c-0.264-3.546-3.354-6.206-6.9-5.942C99.743,111.46,97.083,114.55,97.348,118.096z"/>
		<path style="fill:#F0F0F0;" d="M165.009,87.039c0.264,3.546,3.354,6.207,6.9,5.942c3.546-0.265,6.206-3.354,5.942-6.9
			c-0.264-3.546-3.354-6.207-6.9-5.942C167.405,80.404,164.745,83.493,165.009,87.039z"/>
		<path style="fill:#F0F0F0;" d="M89.488,142.076c0.264,3.546,3.353,6.207,6.9,5.942c3.546-0.264,6.207-3.354,5.942-6.9
			c-0.265-3.546-3.354-6.207-6.9-5.942C91.884,135.441,89.224,138.53,89.488,142.076z"/>
		<path style="fill:#F0F0F0;" d="M120.668,182.991c0.264,3.546,3.353,6.207,6.9,5.942c3.546-0.265,6.207-3.354,5.942-6.9
			c-0.264-3.546-3.354-6.206-6.9-5.942C123.064,176.356,120.404,179.445,120.668,182.991z"/>
		<path style="fill:#F5F5F5;" d="M73.437,159.817c0.265,3.546,3.354,6.206,6.9,5.942c3.546-0.264,6.206-3.353,5.942-6.9
			c-0.264-3.546-3.354-6.207-6.9-5.942C75.833,153.181,73.173,156.27,73.437,159.817z"/>
		<path style="fill:#F5F5F5;" d="M67.406,218.453c0.264,3.546,3.354,6.207,6.9,5.942c3.546-0.264,6.206-3.354,5.942-6.9
			c-0.265-3.546-3.354-6.207-6.9-5.942C69.802,211.818,67.141,214.907,67.406,218.453z"/>
		<path style="fill:#F0F0F0;" d="M68.575,125.414c0.264,3.546,3.353,6.207,6.9,5.942c3.546-0.264,6.207-3.354,5.942-6.9
			c-0.264-3.546-3.354-6.207-6.9-5.942C70.971,118.779,68.311,121.868,68.575,125.414z"/>
		<path style="fill:#F0F0F0;" d="M156.997,125.277c0.264,3.546,3.354,6.207,6.9,5.942c3.546-0.264,6.207-3.354,5.942-6.9
			c-0.264-3.546-3.354-6.207-6.9-5.942C159.393,118.642,156.733,121.731,156.997,125.277z"/>
		<path style="fill:#E6E6E6;" d="M87.689,187.457c0.264,3.546,3.354,6.207,6.9,5.942c3.546-0.264,6.207-3.354,5.942-6.9
			c-0.265-3.546-3.354-6.207-6.9-5.942C90.085,180.822,87.425,183.911,87.689,187.457z"/>
		<path style="fill:#F0F0F0;" d="M66.422,189.43c0.264,3.546,3.354,6.207,6.9,5.942c3.546-0.264,6.207-3.354,5.942-6.9
			c-0.264-3.546-3.354-6.207-6.9-5.942C68.818,182.795,66.158,185.884,66.422,189.43z"/>
		<path style="fill:#F0F0F0;" d="M102.436,167.368c0.264,3.546,3.354,6.207,6.9,5.942c3.546-0.264,6.207-3.354,5.942-6.9
			c-0.265-3.546-3.354-6.207-6.9-5.942C104.832,160.733,102.171,163.822,102.436,167.368z"/>
		<path style="fill:#F0F0F0;" d="M117.274,148.798c0.264,3.546,3.353,6.207,6.9,5.942c3.546-0.264,6.207-3.354,5.942-6.9
			c-0.264-3.546-3.354-6.207-6.9-5.942C119.67,142.163,117.009,145.252,117.274,148.798z"/>
		<path style="fill:#F5F5F5;" d="M135.009,168.279c0.264,3.546,3.354,6.207,6.9,5.942c3.546-0.264,6.207-3.354,5.942-6.9
			c-0.264-3.546-3.354-6.207-6.9-5.942C137.405,161.643,134.745,164.732,135.009,168.279z"/>
		<path style="fill:#F0F0F0;" d="M171.449,152.39c0.265,3.546,3.354,6.207,6.9,5.942c3.546-0.264,6.207-3.354,5.942-6.9
			c-0.264-3.546-3.353-6.207-6.9-5.942C173.844,145.755,171.184,148.844,171.449,152.39z"/>
		<path style="fill:#F5F5F5;" d="M131.002,127.215c0.265,3.546,3.354,6.207,6.9,5.942c3.546-0.264,6.207-3.354,5.942-6.9
			c-0.264-3.546-3.354-6.207-6.9-5.942C133.398,120.58,130.738,123.669,131.002,127.215z"/>
		<path style="fill:#E6E6E6;" d="M147.307,148.599c0.264,3.546,3.354,6.207,6.9,5.942c3.546-0.264,6.207-3.354,5.942-6.9
			c-0.264-3.546-3.354-6.207-6.9-5.942C149.703,141.963,147.042,145.053,147.307,148.599z"/>
		<path style="fill:#E6E6E6;" d="M45.513,243.843c0.265,3.546,3.354,6.207,6.9,5.942c3.546-0.264,6.207-3.354,5.942-6.9
			c-0.264-3.546-3.354-6.207-6.9-5.942C47.909,237.207,45.248,240.297,45.513,243.843z"/>
		<path style="fill:#F0F0F0;" d="M120.998,105.004c0.265,3.546,3.354,6.207,6.9,5.942c3.546-0.265,6.207-3.354,5.942-6.9
			c-0.264-3.546-3.354-6.207-6.9-5.942C123.395,98.368,120.734,101.457,120.998,105.004z"/>
		<path style="fill:#F0F0F0;" d="M146.284,99.867c0.264,3.546,3.354,6.207,6.9,5.942c3.546-0.264,6.207-3.354,5.942-6.9
			c-0.264-3.546-3.354-6.207-6.9-5.942C148.68,93.231,146.019,96.321,146.284,99.867z"/>
		<path style="fill:#F5F5F5;" d="M55.667,150.398c0.264,3.546,3.354,6.207,6.9,5.942c3.546-0.264,6.207-3.354,5.942-6.9
			c-0.264-3.546-3.354-6.207-6.9-5.942C58.063,143.763,55.402,146.852,55.667,150.398z"/>
		<path style="fill:#F5F5F5;" d="M95.927,211.15c0.264,3.546,3.354,6.207,6.9,5.942c3.546-0.265,6.207-3.354,5.942-6.9
			c-0.264-3.546-3.353-6.207-6.9-5.942C98.323,204.515,95.663,207.604,95.927,211.15z"/>
		<path style="fill:#F0F0F0;" d="M51.952,173.808c0.264,3.546,3.354,6.207,6.9,5.942c3.546-0.264,6.207-3.354,5.942-6.9
			c-0.264-3.546-3.354-6.207-6.9-5.942C54.348,167.172,51.688,170.262,51.952,173.808z"/>
		<path style="fill:#F5F5F5;" d="M26.734,224.016c0.264,3.546,3.354,6.207,6.9,5.942c3.546-0.264,6.207-3.354,5.942-6.9
			c-0.264-3.546-3.354-6.207-6.9-5.942C29.13,217.381,26.47,220.47,26.734,224.016z"/>
		<path style="fill:#F0F0F0;" d="M45.513,210.967c0.264,3.546,3.354,6.207,6.9,5.942c3.546-0.264,6.207-3.354,5.942-6.9
			c-0.264-3.546-3.354-6.207-6.9-5.942C47.909,204.331,45.248,207.42,45.513,210.967z"/>
		<path style="fill:#F5F5F5;" d="M32.73,160.553c0.264,3.546,3.354,6.207,6.9,5.942c3.546-0.264,6.207-3.354,5.942-6.9
			c-0.264-3.546-3.354-6.207-6.9-5.942C35.126,153.917,32.466,157.006,32.73,160.553z"/>
		<path style="fill:#E6E6E6;" d="M26.291,192.352c0.265,3.546,3.354,6.207,6.9,5.942c3.546-0.264,6.207-3.353,5.942-6.9
			c-0.264-3.546-3.354-6.207-6.9-5.942C28.687,185.716,26.027,188.805,26.291,192.352z"/>
		<path style="fill:#F0F0F0;" d="M39.169,138.331c0.264,3.546,3.354,6.207,6.9,5.942c3.546-0.264,6.207-3.354,5.942-6.9
			c-0.264-3.546-3.354-6.207-6.9-5.942C41.565,131.696,38.905,134.785,39.169,138.331z"/>
		<path style="fill:#F0F0F0;" d="M204.365,122.759c0.265,3.546,3.354,6.207,6.9,5.942c3.546-0.265,6.207-3.354,5.942-6.9
			c-0.264-3.546-3.354-6.207-6.9-5.942C206.761,116.124,204.1,119.213,204.365,122.759z"/>
		<path style="fill:#F5F5F5;" d="M183.198,126.987c0.265,3.546,3.354,6.207,6.9,5.942c3.546-0.265,6.207-3.354,5.942-6.9
			c-0.264-3.546-3.354-6.207-6.9-5.942C185.594,120.352,182.934,123.441,183.198,126.987z"/>
		<path style="fill:#F0F0F0;" d="M185.392,100.613c0.264,3.546,3.354,6.207,6.9,5.942c3.546-0.264,6.207-3.354,5.942-6.9
			c-0.264-3.546-3.354-6.207-6.9-5.942C187.788,93.978,185.127,97.067,185.392,100.613z"/>
		<path style="fill:#F0F0F0;" d="M186.222,168.723c0.264,3.546,3.354,6.207,6.9,5.942c3.546-0.265,6.207-3.354,5.942-6.9
			c-0.265-3.546-3.354-6.207-6.9-5.942C188.618,162.088,185.957,165.177,186.222,168.723z"/>
		<path style="fill:#F0F0F0;" d="M133.528,203.06c0,3.556-2.883,6.439-6.439,6.439c-3.556,0-6.439-2.883-6.439-6.439
			c0-3.556,2.883-6.439,6.439-6.439C130.645,196.621,133.528,199.504,133.528,203.06z"/>
		<path style="fill:#F0F0F0;" d="M234.767,136.838c0,3.556-2.883,6.439-6.439,6.439c-3.556,0-6.439-2.883-6.439-6.439
			c0-3.556,2.883-6.439,6.439-6.439C231.884,130.399,234.767,133.282,234.767,136.838z"/>
		<path style="fill:#F5F5F5;" d="M169.549,180.221c0,3.556-2.883,6.439-6.439,6.439c-3.556,0-6.439-2.883-6.439-6.439
			c0-3.556,2.883-6.439,6.439-6.439C166.667,173.782,169.549,176.664,169.549,180.221z"/>
		<path style="fill:#F0F0F0;" d="M219.462,153.599c0,3.556-2.883,6.439-6.439,6.439c-3.556,0-6.439-2.883-6.439-6.439
			s2.883-6.439,6.439-6.439C216.579,147.16,219.462,150.043,219.462,153.599z"/>
		<path style="fill:#F5F5F5;" d="M240.218,105.918c0,3.556-2.883,6.439-6.439,6.439c-3.556,0-6.439-2.883-6.439-6.439
			s2.883-6.439,6.439-6.439C237.335,99.479,240.218,102.362,240.218,105.918z"/>
		<path style="fill:#F0F0F0;" d="M246.657,87.817c0,3.556-2.883,6.439-6.439,6.439c-3.556,0-6.439-2.883-6.439-6.439
			c0-3.556,2.883-6.439,6.439-6.439C243.774,81.378,246.657,84.261,246.657,87.817z"/>
		<path style="fill:#F0F0F0;" d="M223.663,88.204c0,3.556-2.883,6.439-6.439,6.439c-3.556,0-6.439-2.883-6.439-6.439
			c0-3.556,2.883-6.439,6.439-6.439C220.781,81.765,223.663,84.648,223.663,88.204z"/>
	</g>
</g>
<g id="Ring">
	<g id="Ring_00000004505135884237849950000013900393209885278639_">
		<path id="Floor_00000013183338182970652450000007541100669894260412_" style="fill:#F5F5F5;" d="M78.756,242.139
			c-94.573,54.602-94.57,143.129,0.005,197.731c94.575,54.602,247.91,54.602,342.483,0c94.573-54.602,94.57-143.129-0.005-197.731
			C326.664,187.538,173.329,187.538,78.756,242.139z"/>
		<g id="Ring_00000022520567619820468920000010818731677136529071_">
			<g>
				<path style="fill:#E0E0E0;" d="M254.122,129.29c0-0.609-0.402-1.218-1.208-1.683c-1.61-0.929-4.22-0.929-5.83,0
					c-0.805,0.465-1.208,1.074-1.208,1.683c0,0.37,0,124.937,0,125.307c0,0.609,0.403,1.218,1.208,1.683c1.61,0.93,4.22,0.93,5.83,0
					c0.805-0.465,1.207-1.074,1.207-1.683C254.122,254.227,254.122,129.66,254.122,129.29z"/>
				<path style="fill:#F0F0F0;" d="M247.085,127.607c-0.805,0.465-1.207,1.074-1.207,1.683c0,0.609,0.403,1.218,1.208,1.683
					c1.61,0.929,4.22,0.929,5.83,0c0.805-0.465,1.207-1.074,1.207-1.683s-0.402-1.218-1.208-1.683
					C251.305,126.678,248.695,126.678,247.085,127.607z"/>
			</g>
			<g>
				<path style="fill:#F0F0F0;" d="M245.876,222.201v4.65L31.401,350.852c-0.313,0.181-0.666,0.272-1.009,0.272
					c-0.696,0-1.372-0.363-1.745-1.009c-0.555-0.968-0.222-2.199,0.736-2.754L245.876,222.201z"/>
			</g>
			<g>
				<path style="fill:#E0E0E0;" d="M245.876,189.4v4.65L31.401,318.051c-0.313,0.182-0.666,0.272-1.009,0.272
					c-0.696,0-1.372-0.363-1.745-1.009c-0.555-0.968-0.222-2.199,0.736-2.754L245.876,189.4z"/>
			</g>
			<g>
				<path style="fill:#F5F5F5;" d="M245.876,156.6v4.65L31.401,285.25c-0.313,0.182-0.666,0.272-1.009,0.272
					c-0.696,0-1.372-0.363-1.745-1.009c-0.555-0.968-0.222-2.199,0.736-2.754L245.876,156.6z"/>
			</g>
			<g>
				<path style="fill:#E0E0E0;" d="M34.518,256.073c0-0.609-0.402-1.218-1.208-1.683c-1.61-0.929-4.22-0.929-5.83,0
					c-0.805,0.465-1.208,1.074-1.208,1.683c0,0.37,0,124.937,0,125.307c0,0.609,0.403,1.218,1.208,1.683
					c1.61,0.929,4.22,0.929,5.83,0c0.805-0.465,1.207-1.074,1.207-1.683C34.518,381.01,34.518,256.443,34.518,256.073z"/>
				<path style="fill:#F0F0F0;" d="M27.48,254.39c-0.805,0.465-1.207,1.074-1.207,1.683c0,0.609,0.403,1.218,1.208,1.683
					c1.61,0.93,4.22,0.93,5.83,0c0.805-0.465,1.207-1.074,1.207-1.683c0-0.609-0.403-1.218-1.208-1.683
					C31.7,253.46,29.09,253.46,27.48,254.39z"/>
			</g>
			<g>
				<path style="fill:#F0F0F0;" d="M471.345,350.116c-0.373,0.646-1.049,1.009-1.745,1.009c-0.343,0-0.686-0.091-1.009-0.272
					L254.127,226.851v-4.65l216.482,125.161C471.578,347.917,471.91,349.147,471.345,350.116z"/>
			</g>
			<g>
				<path style="fill:#E0E0E0;" d="M471.345,317.315c-0.373,0.645-1.049,1.009-1.745,1.009c-0.343,0-0.686-0.091-1.009-0.272
					L254.127,194.05v-4.65l216.482,125.161C471.578,315.116,471.91,316.347,471.345,317.315z"/>
			</g>
			<g>
				<path style="fill:#F5F5F5;" d="M471.345,284.514c-0.373,0.645-1.049,1.009-1.745,1.009c-0.343,0-0.686-0.091-1.009-0.272
					L254.127,161.249v-4.65l216.482,125.161C471.578,282.315,471.91,283.546,471.345,284.514z"/>
			</g>
			<g>
				<path style="fill:#E0E0E0;" d="M465.481,256.073c0-0.609,0.402-1.218,1.207-1.683c1.61-0.929,4.22-0.929,5.83,0
					c0.805,0.465,1.207,1.074,1.207,1.683c0,0.37,0,124.937,0,125.307c0,0.609-0.403,1.218-1.207,1.683
					c-1.61,0.929-4.22,0.929-5.83,0c-0.805-0.465-1.207-1.074-1.207-1.683C465.481,381.01,465.481,256.443,465.481,256.073z"/>
				<path style="fill:#F0F0F0;" d="M472.518,254.39c0.805,0.465,1.207,1.074,1.207,1.683c0,0.609-0.403,1.218-1.208,1.683
					c-1.61,0.93-4.22,0.93-5.83,0c-0.805-0.465-1.207-1.074-1.207-1.683c0-0.609,0.402-1.218,1.207-1.683
					C468.298,253.46,470.909,253.46,472.518,254.39z"/>
			</g>
		</g>
	</g>
</g>
<g id="Shadows">
	<path id="Shadow_00000150822611724031118770000010100843258718571426_" style="fill:#E6E6E6;" d="M103.215,374.694
		c-4.664,6.547-7.708,14.278-8.214,22.318c-0.568,9.01,4.037,17.041,12.506,20.512c9.198,3.771,21.081,1.587,29.328-3.659
		c6.398-4.07,11.215-10.924,18.027-14.213c7.008-3.384,15.338-4.763,23.067-4.475c7.933,0.296,15.606,2.012,23.598,2.105
		c10.627,0.124,27.982-0.53,28.028-15.082c0.009-2.79-1.063-5.497-2.567-7.847c-3.34-5.221-8.68-8.814-14.095-11.828
		c-9.607-5.347-19.628-9.077-30.448-11.095c-13.312-2.483-27.096-2.503-40.377,0.191c-12.529,2.541-24.758,7.919-33.839,17.111
		C106.408,370.576,104.726,372.573,103.215,374.694z"/>
	<path id="Shadow_00000114766839663000446870000007159427325893347490_" style="fill:#E6E6E6;" d="M397.384,374.694
		c4.664,6.547,7.708,14.278,8.214,22.318c0.567,9.01-4.037,17.041-12.506,20.512c-9.198,3.771-21.081,1.587-29.328-3.659
		c-6.398-4.07-11.215-10.924-18.027-14.213c-7.008-3.384-15.338-4.763-23.067-4.475c-7.933,0.296-15.606,2.012-23.598,2.105
		c-10.627,0.124-27.982-0.53-28.028-15.082c-0.009-2.79,1.063-5.497,2.567-7.847c3.34-5.221,8.68-8.814,14.095-11.828
		c9.607-5.347,19.628-9.077,30.448-11.095c13.312-2.483,27.096-2.503,40.378,0.191c12.529,2.541,24.758,7.919,33.839,17.111
		C394.191,370.576,395.873,372.573,397.384,374.694z"/>
</g>
<g id="Character_2">
	<g id="Character_19_">
		<g id="Cape">
			<path style="fill:#37474F;" d="M177.2,122.724l-60.393,5.222c0,0-29.665,61.561-45.769,130.225
				c-13.43,57.26-19.64,95.151-19.64,95.151s23.373,17.171,43.141,7.618c19.769-9.553,28.297-17.649,49.563-16.028
				c15.062,1.149,31.403,13.218,44.855,11.599c13.452-1.619,26.736-17.995,55.022-8.996
				C236.47,291.682,211.856,172.59,177.2,122.724z"/>
			<path style="opacity:0.2;" d="M169.798,123.364l-52.991,4.582c0,0-13.684,28.402-27.509,68.135
				c4.689,3.662,9.193,7.561,13.471,11.695c1.389,1.342,2.801,2.783,3.382,4.624c1.318,4.183-2.078,8.433-2.04,12.818
				c0.039,4.487,3.568,8.082,5.294,12.223c1.383,3.318,1.594,6.99,1.746,10.581c1.531,36.453-1.37,73.088-8.599,108.85
				c14.505-7.64,23.397-13.344,41.55-11.96c0.757,0.058,1.517,0.15,2.28,0.259c-0.17-27.368,2.818-54.756,8.925-81.434
				c3.528,9.078,7.12,18.617,5.954,28.287c-0.705,5.845-3.13,11.405-3.557,17.277c-0.804,11.059,5.489,21.327,7.322,32.263
				c0.527,3.146,0.653,6.352,0.43,9.534c8.236,3.211,16.285,6.282,23.502,5.413c0.705-0.085,1.409-0.218,2.115-0.378
				c0.069-26.66,0.452-53.329,2.79-79.878c0.835-9.49,1.921-18.995,1.567-28.515c-0.403-10.824-2.659-21.481-4.172-32.207
				c-2.208-15.66-2.833-31.542-1.863-47.327c0.617-10.031,1.731-20.703-2.676-29.66c-0.298-0.562-0.598-1.109-0.897-1.662
				C182.224,130.758,176.339,126.517,169.798,123.364z"/>
		</g>
		<g id="Bottom_4_">
			<g>
				<path style="fill:#BA68C8;" d="M215.744,374.764c-3.372-2.446-6.723-4.878-10.037-7.402c-3.088-2.351-6.086-4.845-8.707-7.717
					c-2.303-2.522-2.863-5.334-3.227-8.799c-0.278-2.644,0.18-6.796,0.498-9.434c1.404-11.643,6.946-39.94,7.49-51.71
					c0.67-14.503-0.147-19.64-1.118-36.3c-1.101-18.904-2.714-27.896-4.415-37.434c-0.627-3.513-2.809-10.638-3.86-14.434
					c-15.117,17.301-52.222,7.065-66.097-1.826l34.108,51.83l9.745,38.164c0,0-3.317,10.134-2.497,19.589
					c0.736,8.461,3.731,22.431,5.736,33.182c1.196,6.416-1.276,11.644-2.217,14.613c-1.012,3.195-0.323,7.015,2.189,9.339
					c2.671,2.472,6.579,3.974,9.757,5.699c1.137,0.617,2.28,1.238,3.305,2.026c4.624,3.552,8.017,8.4,14.191,9.305
					c2.285,0.335,4.609,0.182,6.913,0.029c2.526-0.168,5.135-0.358,7.382-1.525C217.819,380.433,218.499,376.762,215.744,374.764z"
					/>
				<path style="fill:#37474F;" d="M201.051,297.318c0.324-2.652,0.56-5.026,0.673-6.996c-2.6-5.058-7.141-13.236-7.141-13.236
					s-7.236,13.552-8.747,16.608c-0.13,0.265-0.264,0.544-0.249,0.839c0.014,0.274,0.155,0.523,0.292,0.76
					c2.827,4.896,5.653,9.792,8.48,14.688C196.589,305.759,198.82,301.538,201.051,297.318z"/>
				<g>
					<path style="fill:#37474F;" d="M169.707,365.378c-0.236,2.425-0.036,3.524,2.661,5.322c2.698,1.798,5.895,2.897,8.593,3.397
						s6.095,3.397,7.494,5.495c1.399,2.098,6.694,6.894,13.788,7.494c7.094,0.599,12.09-1.599,14.088-2.798
						c1.998-1.199,2.064-2.667,2.286-4.568L169.707,365.378z"/>
					<g>
						<path style="fill:#FAFAFA;" d="M204.779,384.424c-6.903,0-11.402-3.264-13.469-5.209c-0.448-0.422-0.913-0.892-1.401-1.388
							c-2.144-2.174-4.813-4.879-8.587-5.959c-5.399-1.546-9.344-3.906-11.127-6.654c-0.072-0.904-0.245-4.316,0.818-8.202
							c0.197-0.72,0.432-1.454,0.673-2.209c0.956-2.985,2.038-6.37,1.341-10.56c-0.616-3.707-1.514-7.149-2.306-10.186
							c-0.301-1.156-0.583-2.238-0.821-3.228c-0.121-0.504-0.242-0.971-0.354-1.403c-0.606-2.34-0.797-3.278,0.067-3.844l0.387,2.07
							l0.1,0.106c0.181,0.193,4.528,4.724,13.885,4.724c0.525,0,1.065-0.014,1.621-0.045c10.266-0.562,10.982-2.913,11.021-3.379
							l0.345-2.096c0.8,0.38,0.93,1.036,0.313,3.877c-0.223,1.025-0.544,2.304-0.902,3.727c-0.773,3.075-1.735,6.902-2.224,10.275
							c-0.611,4.217-0.715,8.786,2.636,13.614c2.488,3.585,7.76,6.858,12.857,10.023c1.169,0.726,2.33,1.447,3.447,2.164
							c5.754,3.699,5.57,5.038,5.022,9.011c-0.006,0.057-0.42,2.818-9.235,4.397C207.499,384.298,206.117,384.424,204.779,384.424z"
							/>
						<path style="fill:#E0E0E0;" d="M169.735,328.098l0.001,0.001c0.187,0.199,4.678,4.883,14.251,4.883
							c0.541,0,1.095-0.015,1.647-0.046c9.117-0.5,11.066-2.424,11.423-3.51c-0.063,0.363-0.15,0.793-0.261,1.307
							c-0.22,1.013-0.534,2.263-0.898,3.71c-0.776,3.086-1.741,6.927-2.234,10.326c-0.626,4.319-0.729,9,2.72,13.97
							c2.548,3.671,7.865,6.972,13.006,10.164c1.166,0.724,2.325,1.443,3.439,2.159c5.486,3.526,5.326,4.684,4.796,8.522
							l-0.02-0.025l0.008,0.081c-0.101,0.303-1.105,2.536-8.816,3.918c-1.359,0.243-2.711,0.367-4.019,0.367
							c-6.732,0-11.114-3.179-13.127-5.073c-0.439-0.414-0.901-0.882-1.39-1.377c-2.185-2.215-4.904-4.971-8.804-6.088
							c-5.214-1.492-9.026-3.738-10.775-6.34c-0.073-1.042-0.186-4.258,0.812-7.903c0.194-0.707,0.424-1.427,0.668-2.19
							c0.972-3.039,2.074-6.485,1.358-10.794c-0.619-3.727-1.52-7.179-2.314-10.225c-0.301-1.155-0.583-2.234-0.82-3.223
							c-0.122-0.507-0.243-0.977-0.356-1.412C169.911,328.835,169.812,328.438,169.735,328.098 M169.986,324.848
							c-2.272,0.851-1.421,2.553-0.57,6.098c0.851,3.545,2.269,8.261,3.119,13.379c0.851,5.117-1.03,8.998-2.004,12.556
							c-0.974,3.558-0.966,6.939-0.824,8.499c2.171,3.461,6.985,5.684,11.477,6.97c4.492,1.286,7.373,4.963,9.784,7.231
							c2.035,1.915,6.696,5.345,13.813,5.345c1.315,0,2.713-0.117,4.195-0.382c9.5-1.702,9.642-4.821,9.642-4.821
							c0.567-4.112,0.709-5.672-5.246-9.5c-5.955-3.828-13.173-7.743-16.164-12.052c-2.991-4.31-3.261-8.364-2.552-13.257
							s2.41-10.706,3.119-13.967c0.709-3.261,0.586-4.086-1.196-4.666l-0.449,2.736c0,0-0.199,2.355-10.549,2.922
							c-0.546,0.03-1.077,0.044-1.592,0.044c-9.249,0-13.52-4.566-13.52-4.566L169.986,324.848L169.986,324.848z"/>
					</g>
					<g>
						<path style="fill:#E0E0E0;" d="M196.242,338.266c-1.173-0.202-2.37-0.276-3.547-0.473c-1.088-0.182-2.169-0.408-3.237-0.683
							c-1.057-0.272-2.098-0.594-3.133-0.94c-0.754-0.252-1.506-0.504-2.253-0.778c-0.525-0.193-1.103-0.429-1.666-0.403
							c-0.183,0.008-0.228,0.263-0.176,0.397c0.374,0.972,2.131,1.438,3.02,1.792c1.142,0.454,2.33,0.808,3.516,1.126
							c2.402,0.645,4.987,1.24,7.484,1.255C197.149,339.564,197.037,338.402,196.242,338.266z"/>
						<path style="fill:#E0E0E0;" d="M194.785,344.284c-1.052-0.202-2.124-0.276-3.178-0.473c-0.975-0.182-1.944-0.408-2.901-0.683
							c-0.948-0.272-1.88-0.594-2.807-0.94c-0.676-0.252-1.35-0.504-2.019-0.778c-0.47-0.193-0.989-0.429-1.493-0.403
							c-0.164,0.009-0.204,0.263-0.158,0.397c0.335,0.972,1.91,1.438,2.706,1.791c1.023,0.454,2.088,0.808,3.151,1.126
							c2.153,0.645,4.469,1.24,6.707,1.255C195.598,345.582,195.497,344.42,194.785,344.284z"/>
						<path style="fill:#E0E0E0;" d="M194.236,349.746c-0.977-0.202-1.973-0.276-2.952-0.473c-0.906-0.182-1.805-0.408-2.695-0.683
							c-0.88-0.272-1.746-0.594-2.608-0.94c-0.628-0.252-1.254-0.504-1.875-0.778c-0.437-0.192-0.919-0.429-1.387-0.403
							c-0.152,0.009-0.189,0.263-0.146,0.397c0.311,0.972,1.774,1.438,2.514,1.792c0.951,0.454,1.94,0.808,2.927,1.126
							c2,0.645,4.151,1.24,6.23,1.255C194.991,351.044,194.898,349.883,194.236,349.746z"/>
						<path style="fill:#E0E0E0;" d="M197.391,333.008c-0.629,0.299-1.065,0.891-1.575,1.358c-0.585,0.536-1.219,1.039-1.848,1.522
							c-1.104,0.847-2.284,1.6-3.526,2.229c-1.202,0.609-2.475,1.095-3.767,1.476c-0.699,0.206-1.409,0.357-2.119,0.521
							c-0.782,0.181-1.721,0.331-2.269,0.95c-0.101,0.115-0.11,0.309-0.069,0.446c0.038,0.133,0.315,0.314,0.321,0.384
							c0.025,0.297,2.718-0.401,3.069-0.475c0.72-0.153,1.433-0.324,2.137-0.538c1.477-0.449,2.897-1.076,4.251-1.815
							c1.241-0.678,2.419-1.473,3.509-2.375c0.559-0.462,1.064-0.967,1.568-1.488c0.406-0.419,1.149-0.991,1.135-1.613
							C198.2,333.253,197.738,332.843,197.391,333.008z"/>
						<path style="fill:#E0E0E0;" d="M196.065,338.554c-0.559,0.299-0.947,0.891-1.4,1.358c-0.52,0.536-1.084,1.039-1.643,1.522
							c-0.982,0.847-2.03,1.6-3.134,2.229c-1.069,0.609-2.2,1.095-3.349,1.476c-0.622,0.206-1.253,0.357-1.884,0.521
							c-0.695,0.181-1.53,0.331-2.017,0.95c-0.09,0.115-0.097,0.309-0.062,0.446c0.034,0.133,0.28,0.314,0.286,0.384
							c0.023,0.297,2.416-0.401,2.729-0.475c0.64-0.153,1.274-0.324,1.9-0.538c1.313-0.449,2.576-1.076,3.779-1.815
							c1.103-0.678,2.15-1.473,3.119-2.375c0.497-0.462,0.946-0.967,1.394-1.488c0.361-0.419,1.022-0.991,1.009-1.613
							C196.784,338.799,196.373,338.389,196.065,338.554z"/>
						<path style="fill:#E0E0E0;" d="M194.706,344.361c-0.503,0.299-0.852,0.891-1.26,1.358c-0.468,0.536-0.975,1.039-1.478,1.522
							c-0.883,0.847-1.826,1.6-2.819,2.23c-0.961,0.609-1.979,1.095-3.012,1.476c-0.559,0.206-1.127,0.357-1.694,0.521
							c-0.625,0.181-1.376,0.331-1.814,0.95c-0.081,0.115-0.088,0.309-0.055,0.446c0.031,0.133,0.252,0.314,0.257,0.384
							c0.02,0.297,2.173-0.401,2.454-0.475c0.575-0.153,1.146-0.324,1.708-0.538c1.181-0.449,2.316-1.076,3.399-1.815
							c0.992-0.678,1.934-1.473,2.806-2.375c0.447-0.462,0.851-0.967,1.254-1.488c0.324-0.419,0.919-0.991,0.907-1.613
							C195.353,344.606,194.983,344.196,194.706,344.361z"/>
					</g>
				</g>
				<path style="opacity:0.2;" d="M160.379,251.539l3.624-11.234c0,0,9.573-3.641,18.389-13.665
					c-2.864,12.37-16.093,17.378-16.093,17.378l-1.321,12.747l5.145,32.937L160.379,251.539z"/>
				<path style="fill:#BA68C8;" d="M130.167,390.145c-0.073-7.769-0.297-15.482,0.47-23.208c0.423-4.259,1.257-8.432,2.372-12.561
					c3.792-14.041,15.12-44.864,17.547-55.086c0,0,10.692-30.722,13.446-58.985c-3.277-19.625-14.916-27.116-36.168-42.714
					c-3.724,7.461-10.526,14.748-10.869,46.311c-0.401,16.452,2.074,30.01,2.893,47.046c0.479,9.972-6.309,15.966-6.091,32.34
					c0.132,9.859,0.218,14.222-0.151,26.957c-0.186,3.01-1.257,5.526-2.072,8.34c-0.897,3.099-0.874,6.352-1.078,9.544
					c-0.201,3.149-1.008,6.418-2.043,9.399c-0.892,2.568-2.073,5.124-2.062,7.843c0.007,1.89,0.597,3.729,1.284,5.49
					c1.477,3.787,3.46,7.422,6.225,10.403c1.212,1.307,2.595,2.498,4.228,3.215c1.633,0.717,3.546,0.919,5.204,0.263
					c1.931-0.764,3.261-2.552,4.243-4.381c1.664-3.102,2.657-6.478,2.625-9.986C130.169,390.299,130.168,390.222,130.167,390.145z"
					/>
				<path style="fill:#37474F;" d="M124.586,295.782c-0.265,0.318-0.539,0.657-0.602,1.065c-0.048,0.313,0.035,0.63,0.117,0.935
					c1.701,6.341,3.401,12.681,5.101,19.022c4.649-4.311,9.298-9.817,13.947-14.128c0.387-0.359,0.795-0.753,0.905-1.27
					c0.096-0.451-0.053-0.914-0.201-1.35c-1.18-3.495-5.538-15.224-6.983-19.054C132.361,285.196,128.568,291.004,124.586,295.782z"
					/>
				<g>
					<path style="fill:#37474F;" d="M108.278,373.378c-1.266,4.524-3.926,13.85-3.837,17.935c0.089,4.085,1.865,8.97,6.305,13.144
						c4.44,4.174,8.97,5.772,12.788,5.062c3.819-0.71,7.724-5.237,7.807-16.691L108.278,373.378z"/>
					<g>
						<path style="fill:#FAFAFA;" d="M122.335,406.521c-0.178,0-0.357-0.008-0.538-0.023c-9.41-0.813-16.639-11.632-15.957-19.918
							c0.339-4.122,1.15-6.85,1.933-9.488c0.825-2.778,1.604-5.401,1.869-9.452c0.284-4.352,0.889-6.395,1.475-8.371
							c0.473-1.597,0.962-3.247,1.254-6.042c0.808-7.729,0.636-15.595,0.407-19.025c-0.162-2.421,0.131-3.36,0.579-3.724l0.02,2.395
							l0.091,0.129c0.146,0.205,3.664,5.023,12.727,6.421c1.729,0.267,3.343,0.402,4.796,0.402c5.538,0,7.659-1.939,8.039-3.085
							l0.44-1.327c0.102,0.489,0.082,1.638-0.836,4.221c-3.301,9.294-7.155,20.579-7.653,25.394
							c-0.254,2.457-0.161,6.61-0.053,11.419c0.113,5.001,0.24,10.669-0.021,15.408
							C130.407,400.901,127.123,406.521,122.335,406.521z"/>
						<path style="fill:#E0E0E0;" d="M113.242,333.527c0.846,1.039,4.636,5.118,12.876,6.389c1.755,0.271,3.394,0.408,4.872,0.408
							c3.913,0,6.328-0.953,7.572-2.077c-0.107,0.362-0.239,0.766-0.399,1.219c-3.311,9.319-7.176,20.64-7.679,25.509
							c-0.257,2.489-0.164,6.656-0.055,11.483c0.112,4.992,0.239,10.649-0.021,15.368c-0.482,8.755-3.575,14.194-8.072,14.194
							c-0.164,0-0.329-0.007-0.495-0.022c-9.143-0.79-16.165-11.316-15.502-19.379c0.335-4.07,1.138-6.773,1.914-9.387
							c0.797-2.682,1.62-5.455,1.888-9.563c0.28-4.296,0.878-6.312,1.455-8.262c0.479-1.618,0.976-3.291,1.272-6.131
							c0.811-7.764,0.638-15.665,0.409-19.11C113.26,333.94,113.249,333.726,113.242,333.527 M113.851,329.77
							c-1.511,0.17-1.744,1.901-1.573,4.466c0.253,3.792,0.369,11.524-0.405,18.939c-0.645,6.171-2.212,6.485-2.731,14.432
							c-0.518,7.947-3.11,10.538-3.801,18.932c-0.691,8.394,6.559,19.605,16.412,20.457c0.195,0.017,0.389,0.025,0.581,0.025
							c4.765,0,8.521-5.185,9.07-15.139c0.508-9.225-0.446-21.793,0.073-26.803c0.518-5.01,4.791-17.294,7.627-25.277
							c1.789-5.035,0.419-5.256,0.165-5.256c-0.025,0-0.039,0.002-0.039,0.002s-0.298,0.894-0.676,2.035
							c-0.302,0.91-2.24,2.742-7.564,2.742c-1.347,0-2.911-0.117-4.719-0.396c-8.958-1.382-12.396-6.216-12.396-6.216
							S113.865,331.325,113.851,329.77L113.851,329.77z"/>
					</g>
					<g>
						<path style="fill:#E0E0E0;" d="M132.341,347.7c-2.717-0.476-5.442-1.484-7.842-2.837c-1.165-0.656-2.271-1.407-3.309-2.25
							c-0.488-0.396-0.974-0.794-1.44-1.216c-0.542-0.491-1.038-1.052-1.667-1.432c-0.243-0.146-0.73-0.079-0.622,0.314
							c0.197,0.719,0.786,1.25,1.298,1.767c0.515,0.521,1.05,1.021,1.621,1.479c1.138,0.914,2.355,1.735,3.632,2.443
							c1.248,0.692,2.556,1.274,3.9,1.751c1.368,0.485,2.877,0.983,4.338,1.032C132.89,348.774,132.931,347.804,132.341,347.7z"/>
						<path style="fill:#E0E0E0;" d="M132.902,342.608c-2.634,1.325-5.344,2.216-8.266,2.635c-1.368,0.196-2.746,0.316-4.124,0.421
							c-0.676,0.052-1.353,0.099-2.029,0.149c-0.785,0.057-1.635,0.01-2.365,0.321c-0.446,0.19-0.203,0.756,0.12,0.923
							c0.649,0.335,1.448,0.128,2.153,0.075c0.82-0.061,1.639-0.121,2.459-0.185c1.51-0.12,3.019-0.263,4.515-0.501
							c2.798-0.445,5.899-1.189,8.009-3.189C133.628,343.016,133.211,342.453,132.902,342.608z"/>
						<path style="fill:#E0E0E0;" d="M131.208,354.223c-2.717-0.476-5.442-1.484-7.842-2.837c-1.165-0.656-2.271-1.407-3.309-2.25
							c-0.488-0.396-0.974-0.794-1.44-1.216c-0.542-0.491-1.037-1.052-1.667-1.432c-0.243-0.146-0.73-0.079-0.622,0.314
							c0.197,0.719,0.786,1.25,1.298,1.767c0.515,0.521,1.05,1.021,1.621,1.479c1.138,0.914,2.355,1.735,3.632,2.443
							c1.248,0.692,2.556,1.274,3.9,1.75c1.368,0.485,2.877,0.983,4.338,1.032C131.757,355.297,131.798,354.327,131.208,354.223z"/>
						<path style="fill:#E0E0E0;" d="M130.076,359.888c-2.717-0.476-5.442-1.484-7.842-2.837c-1.165-0.656-2.271-1.407-3.309-2.25
							c-0.488-0.396-0.974-0.794-1.44-1.216c-0.542-0.491-1.038-1.052-1.668-1.432c-0.243-0.146-0.73-0.079-0.622,0.314
							c0.197,0.719,0.786,1.25,1.298,1.767c0.515,0.521,1.05,1.021,1.621,1.479c1.138,0.914,2.355,1.735,3.632,2.443
							c1.248,0.692,2.556,1.274,3.9,1.751c1.368,0.485,2.877,0.983,4.338,1.032C130.625,360.961,130.666,359.991,130.076,359.888z"
							/>
						<path style="fill:#E0E0E0;" d="M132.207,348.134c-2.634,1.325-5.344,2.216-8.266,2.634c-1.368,0.196-2.746,0.316-4.123,0.421
							c-0.676,0.052-1.353,0.099-2.029,0.149c-0.786,0.057-1.635,0.01-2.365,0.321c-0.446,0.19-0.203,0.756,0.12,0.923
							c0.649,0.335,1.448,0.128,2.153,0.075c0.82-0.061,1.639-0.121,2.459-0.186c1.51-0.12,3.019-0.263,4.515-0.501
							c2.798-0.445,5.899-1.189,8.009-3.189C132.932,348.542,132.516,347.978,132.207,348.134z"/>
						<path style="fill:#E0E0E0;" d="M130.9,354.575c-2.634,1.325-5.344,2.216-8.266,2.634c-1.368,0.196-2.746,0.316-4.124,0.421
							c-0.676,0.052-1.353,0.099-2.029,0.149c-0.785,0.057-1.635,0.01-2.365,0.321c-0.446,0.19-0.203,0.756,0.12,0.923
							c0.649,0.335,1.448,0.128,2.153,0.075c0.82-0.061,1.639-0.121,2.459-0.185c1.51-0.12,3.019-0.263,4.515-0.501
							c2.798-0.445,5.899-1.189,8.009-3.189C131.625,354.983,131.208,354.42,130.9,354.575z"/>
					</g>
				</g>
			</g>
			<path style="fill:#455A64;" d="M164.003,240.305c9.617,0.435,14.19-4.865,19.229-12.792c5.039-7.926,12.994-11.545,12.994-11.545
				s-1.012-8.969-3.9-16.115c-9.17,12.153-48.501,14.142-63.938-5.097c-3.027,5.704-6.909,12.66-8.282,20.209
				C133.351,213.334,157.733,225.762,164.003,240.305z"/>
			<path style="fill:#37474F;" d="M163.414,239.056c-2.199-9.401-9.827-16.588-17.761-22.133c-2.573-1.799-5.318-3.598-6.851-6.338
				c-1.278-2.285-1.566-4.968-2.135-7.524c-0.1-0.447-0.219-0.896-0.35-1.344c-3.021-1.914-5.725-4.214-7.929-6.961
				c-3.027,5.704-6.909,12.66-8.282,20.209C132.97,213.381,156.335,225.059,163.414,239.056z"/>
		</g>
		<g id="Top">
			<g id="Arm_00000174585704118866703640000014800345563532991398_">
				<path style="fill:#F28F8F;" d="M165.544,129.841c5.256-4.96,12.429-9.888,24.741-7.292c7.646-6.041,15.511-8.493,27.634-7.712
					c2.495,0.161,11.062-2.411,12.8-1.252c1.32,0.88,1.846,2.064,2.782,4.434l-2.182,14.456c-8.051,3.31-7.876,6.752-25.635,11.247
					c-9.559,2.42-11.049,9.258-10.874,15.905C179.519,151.582,165.544,129.841,165.544,129.841z"/>
				<path style="fill:#B16668;" d="M189.935,135.051l-8.518,14.268c4.093,4.045,8.68,7.827,13.393,10.307
					c-0.114-4.329,0.495-8.732,3.563-11.949C196.313,142.87,192.892,137.012,189.935,135.051z"/>
				<path style="fill:#F28F8F;" d="M241.626,124.64c1.241-3.646-0.639-7.114-2.214-10.614c-2.37-5.269-5.025-9.249-7.515-13.135
					c-5.199-8.111-6.955-10.632-9.152-14.995c-2.84-5.64-2.716-9.444-6.044-13.057c-3.342-3.627-16.767-4.594-18.642,1.76
					c-1.078,3.653,5.034,4.463,5.592,7.037c0,0-4.013,4.273-0.587,4.999c2.708,0.574,4.878,1.794,7.996,9.378
					c2.56,6.229,1.707,12.49,4.267,20.248c1.408,4.268,8.355,19.899,8.355,19.899C232.374,131.351,239.734,130.199,241.626,124.64z"
					/>
				<path style="fill:#B16668;" d="M203.335,84.727c0.484,1.083,2.3,1.162,3.3,1.086c0.871-0.067,1.731-0.255,2.604-0.283
					c1.792-0.057,3.597,0.598,4.937,1.79c-0.14-0.717-0.446-1.4-0.878-1.988c-0.226-0.308-0.493-0.557-0.761-0.825
					c-0.1-0.1-0.448-0.304-0.481-0.419c-0.021-0.073,0.022-0.146,0.063-0.21c0.199-0.307,0.392-0.623,0.513-0.969
					c0.563-1.607-0.523-3.378-0.21-5.052c0.142-0.761,0.563-1.436,0.975-2.09c-0.776,0.154-1.517,0.486-2.147,0.965
					c-0.116,0.088-0.373,0.484-0.373,0.633c-0.388,0.553-0.78,1.113-1.023,1.743c-0.119,0.308-0.203,0.634-0.386,0.908
					c-0.205,0.307-0.518,0.524-0.835,0.713c-0.77,0.459-1.641,0.828-2.524,1c-0.598,0.116-1.434-0.093-1.981,0.099
					C203.111,82.185,202.886,83.721,203.335,84.727z"/>
				<path style="fill:#B16668;" d="M228.549,118.515c0,0-4.945-5.897-14.387-6.661c0.169,0.88,0.45,1.96,0.684,2.829
					C218.777,115.072,224.87,115.957,228.549,118.515z"/>
				<path style="fill:#455A64;" d="M235.593,106.764c-1.236-2.071-2.486-3.984-3.697-5.874c-3.97-6.194-5.931-9.128-7.615-12.112
					c-1.617,4.412-7.901,7.779-13.578,6.39c-0.001,0-0.002,0-0.003,0c0.119,0.278,0.237,0.549,0.36,0.846
					c2.191,5.33,1.888,10.687,3.357,16.982C220.433,114.472,231.516,114.463,235.593,106.764z"/>
				<g id="Dumbbell_1_">
					<path style="fill:#F28F8F;" d="M211.855,79.225c0.008-0.195,0.025-0.391,0.057-0.585c0.143-0.882,0.772-2.058,1.768-2.184
						c0.607-0.076,1.401,0.169,2.018,0.243c0,0,1.61-3.067,1.61-3.068c0.088-0.17-0.829-1.403-0.951-1.59
						c-0.376-0.575-0.784-1.138-1.271-1.626c-0.443-0.445-0.927-0.783-1.49-1.057c-0.709-0.345-1.224-0.236-2.001-0.135
						c-0.727,0.094-0.992-0.45-1.459-0.886c-0.564-0.526-1.426-0.6-2.183-0.448c-0.757,0.152-1.461,0.495-2.203,0.706
						c-0.043,0.012-0.089,0.024-0.133,0.015c-0.07-0.015-0.118-0.078-0.163-0.133c-0.932-1.148-2.954-0.779-3.947,0.069
						c-0.188,0.161-0.373,0.35-0.616,0.396c-0.308,0.058-0.601-0.129-0.901-0.217c-0.984-0.287-1.931,0.499-2.644,1.236
						c-0.948,0.98-1.873,1.986-2.701,3.069c-0.314,0.411-0.62,0.843-0.768,1.339c-0.181,0.606-0.111,1.261,0.052,1.872
						c0.324,1.213,0.998,2.298,1.483,3.456c0.304,0.725,0.535,1.483,0.911,2.173c0.376,0.69,0.923,1.326,1.658,1.606
						c0.734,0.28,1.671,0.117,2.128-0.522c0.497,0.733,1.212,1.398,2.092,1.5c0.91,0.105,1.866-0.72,1.571-1.704
						c0.21,0.7,0.759,1.29,1.443,1.549c0.684,0.259,1.486,0.181,2.107-0.205c0.427-0.265,0.788-0.765,0.639-1.245
						c0.447,0.716,1.252,1.225,2.096,1.218c0.844-0.006,1.681-0.582,1.898-1.398c0.079-0.297,0.079-0.608,0.064-0.915
						C211.976,80.912,211.822,80.064,211.855,79.225z"/>
					<path style="fill:#B16668;" d="M209.651,70.928c0.024-0.076-0.024-0.239-0.12-0.142c-0.841,0.854-1.384,2.024-2.008,3.049
						c-0.594,0.977-1.085,1.977-1.249,3.118c-0.169,1.176,0.034,2.364,0.384,3.488c0.195,0.628,0.448,1.215,0.741,1.803
						c0.216,0.434,0.38,0.976,0.771,1.29c0.057,0.046,0.104-0.07,0.102-0.109c-0.015-0.491-0.261-0.91-0.422-1.367
						c-0.176-0.501-0.353-1.006-0.511-1.513c-0.363-1.162-0.565-2.408-0.322-3.615C207.457,74.754,209.003,73.012,209.651,70.928z
						 M203.881,72.942c0.389-0.736,0.921-1.504,0.869-2.371c-0.004-0.071-0.076-0.26-0.176-0.157c-0.352,0.362-0.5,0.904-0.723,1.35
						c-0.221,0.441-0.475,0.857-0.734,1.276c-0.521,0.844-0.981,1.731-1.143,2.721c-0.175,1.071,0.064,2.157,0.35,3.187
						c0.34,1.226,0.698,2.605,1.4,3.675c0.148,0.225,0.329,0.011,0.297-0.185c-0.173-1.066-0.704-2.099-0.998-3.142
						c-0.346-1.23-0.686-2.497-0.322-3.763C202.96,74.632,203.445,73.77,203.881,72.942z M199.396,79.436
						c-0.417-0.87-0.756-1.779-1.025-2.706c-0.309-1.066-0.029-1.901,0.492-2.835c0.467-0.836,1.003-1.634,1.406-2.504
						c0.083-0.179-0.122-0.595-0.322-0.373c-0.671,0.741-1.191,1.635-1.688,2.499c-0.537,0.936-0.838,1.865-0.59,2.941
						c0.23,1.002,0.633,1.975,1.065,2.905c0.482,1.035,1.037,2.05,1.794,2.909c0.215,0.244,0.29-0.221,0.215-0.365
						C200.309,81.073,199.803,80.284,199.396,79.436z"/>
					<path style="fill:#B16668;" d="M204.954,83.257c-0.202,0.46-0.253,0.978,0.007,1.392c-1.056-0.872-2.289-1.497-3.562-1.988
						c-0.656-0.253-1.326-0.471-1.999-0.675c-0.549-0.166-1.241-0.509-1.806-0.533c0.082-0.456,0.404-0.878,0.697-1.227
						c0.475-0.567,1.026-1.065,1.575-1.56c0.773-0.698,1.525-1.432,2.334-2.087c0.43-0.348,0.862-0.698,1.342-0.975
						c1.305-0.753,2.611-0.162,3.321,1.124c0.569,1.031,0.574,2.216,0.239,3.323c-0.158,0.522-0.35,1-0.701,1.414
						c-0.372,0.439-0.808,0.828-1.154,1.289C205.134,82.908,205.033,83.078,204.954,83.257z"/>
					<path style="fill:#F28F8F;" d="M210.098,93.809c-0.979-2.024-5.653-4.088-8.381-5.07c-2.783-1.002-4.349-2.652-4.87-4.163
						c-0.674-1.955,0.738-3.451,2.042-4.655c1.538-1.42,3.104-2.822,4.834-4.007c0.21-0.144,0.433-0.289,0.686-0.32
						c0.714-0.089,1.71,0.758,1.986,1.371c0.331,0.735,0.374,1.653,0.177,2.429c-0.257,1.016-0.917,1.872-1.524,2.726
						c-0.488,0.687-1.182,1.607-1.221,2.487c-0.036,0.822,1.067,1.279,1.71,1.463c1.18,0.339,2.499,0.593,3.616,0.649
						C210.735,86.799,209.411,92.388,210.098,93.809z"/>
				</g>
			</g>
			<g id="Chest">
				<g>
					<path style="fill:#F28F8F;" d="M193.144,166.802c4.104-3.526,6.602-11.29,2.093-22.01
						c-6.433-15.294-12.943-17.668-25.558-19.565l-15.809-2.381c0,0-7.969-0.961-12.924,0.571c-4.89,1.512-10.22,2.43-10.22,2.43
						s-16.301,16.713-10.602,31.321c5.047,12.935,5.57,15.154,9.119,24.987c2.269,6.287-2.645,8.607-0.856,12.602
						c16.566,24.22,57.42,17.692,63.938,5.097c1.768-5.097-0.211-7.496-1.321-15.214
						C193.575,179.436,194.394,170.767,193.144,166.802z"/>
					<path style="fill:#B16668;" d="M120.196,157.35c4.977,12.765,5.516,15.02,9.048,24.805c1.174,3.253,0.425,5.442-0.323,7.352
						l0,0c2.475-5.485,2.748-8.825,0.78-13.368c-1.969-4.543-3.43-9.262-3.43-11.695c5.34-5.206,8.055-14.028,7.996-20.199
						L120.196,157.35z"/>
					<path style="opacity:0.5;fill:#B16668;" d="M151.014,176.04c-1.599-0.122-3.184-0.418-4.719-0.893
						c-0.133,0.722,0.702,1.214,1.402,1.432c6.998,2.183,14.751,0.355,21.131-3.256c1.086-0.615,2.154-1.291,3.32-1.747
						c1.235-0.483,2.066-0.366,3.335-0.242c2.785,0.271,6.318,0.771,9.007-0.062c1.292-0.4,2.578-0.669,3.803-1.275
						c0.622-0.308,1.22-0.671,1.761-1.108c0.13-0.105,1.382-1.389,1.344-1.407c-0.254-0.12-0.548,0.018-0.796,0.15
						c-2.532,1.345-5.321,2.288-8.186,2.392c-2.815,0.102-7.888-0.703-8.736-3.928c-0.227-0.863-0.439-1.995-0.574-2.895
						c-0.378-2.516-1.476-6.277-2.384-5.047c-0.099,0.137-0.107,0.304-0.109,0.456c-0.022,2.173,1.03,6.043,0.309,8.661
						c-0.559,2.031-2.113,3.326-3.807,4.411c-2.281,1.463-4.27,2.18-6.466,2.997C157.588,175.82,154.272,176.29,151.014,176.04z"/>
					<g>
						<path style="opacity:0.5;fill:#B16668;" d="M160.521,138.889c-2.512-1.822-10.359-2.741-13.409-3.23
							c-2.982-0.479-3.137,0.654,1.891,1.793c4.593,1.041,8.924,1.389,11.284,3.167c2.115,1.593,2.907,2.815,3.212,2.06
							C163.805,141.924,162.008,139.968,160.521,138.889z"/>
						<path style="opacity:0.5;fill:#B16668;" d="M172.275,136.417c-0.648,0.801-1.954,3.835-1.295,4.061
							c0.659,0.226,1.201-2.04,3.031-3.829c1.801-1.76,4.804-3.912,5.671-4.701c0.867-0.789,1.621-2.459-1.387-0.245
							C175.517,133.746,173.036,135.476,172.275,136.417z"/>
						<path style="fill:#B16668;" d="M173.984,198.305c-0.139-0.143-0.3-0.253-0.447-0.385c-0.178-0.16-0.226-0.453-0.163-0.677
							c0.057-0.205,0.258-0.567,0.533-0.48c-0.097-0.031,0.114,0.015,0.135,0.022c0.046,0.016,0.09,0.041,0.134,0.063
							c0.117,0.058,0.231,0.121,0.344,0.188c0.187,0.111,0.376,0.236,0.537,0.382c0.321,0.292,0.587,0.676,0.796,1.053
							c0.524,0.94,0.932,2.471,0.075,3.333c-0.055,0.056-0.169,0.14-0.258,0.11c-0.459-0.154-0.482-0.664-0.492-1.06
							c-0.001-0.019-0.001-0.037-0.001-0.056c-0.003-0.041-0.006-0.082-0.009-0.123c-0.011-0.112-0.027-0.223-0.047-0.333
							c-0.02-0.11-0.046-0.22-0.076-0.328c-0.002-0.009-0.019-0.061-0.026-0.088c-0.011-0.032-0.033-0.092-0.037-0.103
							c-0.044-0.117-0.104-0.227-0.158-0.34c-0.007,0.008-0.014,0.016-0.02,0.024c-0.102,0.133-0.191,0.277-0.271,0.425
							c-0.223,0.413-0.325,0.872-0.508,1.303c-0.089,0.209-0.292,0.029-0.323-0.111c-0.099-0.458,0.009-0.908,0.177-1.336
							c0.138-0.353,0.321-0.678,0.536-0.987c0,0,0,0,0,0C174.276,198.633,174.136,198.461,173.984,198.305z"/>
					</g>
				</g>
			</g>
			<g id="Arm_00000063603382471833128700000012466312870360908963_">
				<g id="Arm_00000040545008541303035580000001324181400721832613_">
					<g>
						<path style="fill:#B16668;" d="M116.566,227.395c-0.403-0.342-0.846-0.633-1.194-1.031c-0.406-0.464-0.792-0.946-1.161-1.439
							c-0.282-0.378-0.559-0.774-0.683-1.229c-0.107-0.394-0.094-0.81-0.071-1.217c0.073-1.283,0.17-2.63,0.448-3.882
							c0.009-0.041,0.019-0.084,0.046-0.116c0.043-0.052,0.116-0.066,0.183-0.074c0.369-0.045,0.753-0.036,1.103,0.091
							c0.329,0.119,0.663,0.364,0.79,0.7c0.097-1.142,0.195-2.283,0.293-3.425c0.023-0.27,0.062-0.571,0.274-0.74
							c0.088-0.07,0.196-0.108,0.305-0.134c0.69-0.161,1.468,0.212,1.775,0.851c-0.065-0.136,0.151-0.665,0.192-0.815
							c0.085-0.304,0.186-0.606,0.329-0.889c0.318-0.629,0.664-0.946,1.398-0.834c1.389,0.213,2.604,1.158,3.323,2.366
							c0.719,1.207,0.976,2.649,0.921,4.053c-0.054,1.404-0.405,2.78-0.831,4.118c-0.2,0.628-0.425,1.265-0.834,1.782
							c-0.328,0.414-0.761,0.734-1.219,0.997c-0.887,0.51-1.886,0.818-2.904,0.917c-0.465,0.045-0.91-0.018-1.367-0.014
							C117.359,227.434,116.851,227.637,116.566,227.395z"/>
						<path style="fill:#F28F8F;" d="M130.726,125.847c-3.52,0.918-10.789-0.689-18.44,4.438c-6.107,4.092-6.543,6.485-9.97,15.749
							c-1.642,4.44-5.896,8.641-9.18,14.185c-4.342,7.331-4.759,10.772-6.311,13.845c-3.34,6.612-1.626,8.428,4.803,14.198
							c4.22,3.787,6.288,6.107,13.002,12.398c4.517,4.232,10.143,7.212,14.767,11.317c0.228,0.202,0.455,0.414,0.599,0.682
							c0.228,0.423,0.221,0.935,0.129,1.406c-0.27,1.384-1.2,2.569-1.478,3.951c-0.465,2.311,0.96,4.591,1.005,6.948
							c0.031,1.655-1.813,2.017-3.085,2.431c1.821,1.679,4.429,2.934,6.902,2.051c1.835-0.655,3.21-2.254,5.039-2.924
							c1.013-0.371,2.156-0.455,3.034-1.083c1.192-0.853,1.582-2.486,2.693-3.443c0.587-0.505,1.364-0.812,1.792-1.458
							c0.519-0.783,0.369-1.815,0.199-2.74c-1.147-6.232-1.406-10.731-5.056-15.877c-2.558-3.607-6.533-9.69-9.038-13.353
							c-4.965-7.259-7.837-10.776-7.837-10.776c3-3.588,6.797-8.026,10.486-14.856C124.778,162.936,142.151,145.76,130.726,125.847z
							"/>
						<path style="fill:#455A64;" d="M130.113,200.411L130.113,200.411c-2.505-3.628-5.8-8.652-7.983-11.843
							c-1.835-2.683-3.382-4.852-4.606-6.524c-0.044,3.239-7.44,12.213-19.066,12.712c1.616,1.576,3.533,3.431,6.173,5.904
							c3.746,3.51,8.248,6.166,12.315,9.309l0.019,0.002c0,0,4.491,0.517,9.307-2.982
							C131.087,203.491,130.113,200.411,130.113,200.411z"/>
						<path style="fill:#B16668;" d="M114.293,177.792c-2.406,2.82-7.219,4.223-10.695,4.023c6.818,3.142,12.081-2.245,12.081-2.245
							L114.293,177.792z"/>
					</g>
				</g>
			</g>
			<g id="Head_00000039103218275405187630000008948061254186410379_">
				<g>
					<g id="XMLID_00000137843150017317380000000001175385678674100380_">
						<g id="XMLID_00000067933888563169516130000010025093533019302057_">
							<path style="fill:#F28F8F;" d="M143.602,107.502c0.319,1.177,0.941,2.579,1.08,3.791c0.129,1.121,0.121,4.099,0.121,5.231
								c0,4.212-1.671,5.734-3.857,6.892c0.024,3.418,13.116,14.338,27.897,12.546c7.229-0.876,2.685-10.446,2.685-10.446
								c-1.849-0.29-1.622-2.019-1.257-5.87c0,0,2.38-0.379,4.675-1.145c3.298-1.099,5.627-3.299,7.129-7.518
								c0.44-1.236,0.755-3.19,0.841-4.545c0,0-0.122-6.596-0.417-8.592c-0.563-3.807-0.823-8.104-2.245-11.687
								c-1.882-4.742-3.716-7.655-7.698-10.844c-6.515-5.218-20.213-4.448-26.65-0.09c-1.29,0.873-4.307,3.647-5.68,6.476
								c-1.695,3.493-2.121,7.259-2.14,11.142c-0.013,2.749,0.548,5.284,1.801,8.057C140.93,103.21,142.941,105.061,143.602,107.502
								z"/>
						</g>
						<g>
							<path style="fill:#B16668;" d="M174.454,118.503c5.484-1.023,8.376-6.852,8.498-12.03c0.11-2.029-0.242-4.341-0.552-6.495
								c-0.107-0.713-0.207-1.431-0.393-2.13c0.019,1.44,0.046,1.744,0.173,3.259c0,0,0.374,1.866,0.103,6.129
								C182.01,111.499,179.234,116.557,174.454,118.503L174.454,118.503z"/>
						</g>
						<path style="fill:#B16668;" d="M175.949,100.401l-4.496,1.704l-5.274-0.658c0,0,2.126-1.466,4.884-1.65
							C173.822,99.612,175.949,100.401,175.949,100.401z"/>
						<path id="XMLID_00000073682177731167663460000010642577097871331210_" style="fill:#263238;" d="M163.729,90.097l-3.934,1.573
							c-0.48-1.078,0.014-2.305,1.1-2.739C161.981,88.496,163.25,89.019,163.729,90.097z"/>
						<path style="fill:#263238;" d="M161.67,93.811c0.001,0.99,0.804,1.793,1.794,1.792c0.99-0.001,1.793-0.804,1.792-1.795
							c-0.001-0.99-0.804-1.793-1.794-1.792C162.471,92.017,161.669,92.82,161.67,93.811z"/>
						<path id="XMLID_00000047782988787334071570000005229192996855095219_" style="fill:#263238;" d="M174.454,88.67l3.944,1.548
							c0.473-1.082-0.028-2.305-1.118-2.732C176.191,87.058,174.926,87.589,174.454,88.67z"/>
						<path style="fill:#263238;" d="M178.296,92.572c0.114,0.984-0.591,1.874-1.575,1.988c-0.984,0.114-1.874-0.591-1.988-1.575
							c-0.114-0.984,0.591-1.874,1.575-1.988C177.292,90.884,178.182,91.589,178.296,92.572z"/>
						<path style="fill:#BA68C8;" d="M140.379,103.263c2.831,4.342,3.561,5.311,4.259,7.739c1.485,3.1,9.881,8.591,18.855,8.892
							c8.962,0.302,12.24-0.672,15.351-3.604c-4.936,1.303-13.459,2.759-18.627,0.129c-4.916-2.494-3.201-12.791,0.332-14.584
							c3.522-1.781,14.878-3.215,18.003-2.43c3.091,0.785,4.398,4.228,4.4,7.056c0.041-6.351,1.389-29.364-14.636-34.541
							c-12.226-3.937-23.227,0.062-28.09,7.979C136.421,86.094,135.653,95.992,140.379,103.263z M173.643,90.788
							c0.41-1.106,1.105-2.088,1.891-2.989c0.82-0.936,3.099-2.99,4.4-1.714c0.377,0.365,0.548,0.878,0.674,1.379
							c0.457,1.893,0.95,4.834-0.326,6.5c-1.094,1.438-3.214,1.713-4.982,1.269c-0.867-0.216-1.688-0.672-1.894-1.595
							C173.199,92.692,173.324,91.7,173.643,90.788z M157.802,87.652c2.656-0.549,5.553,0.087,7.732,1.728
							c0.958,0.718,1.803,1.652,2.225,2.781c0.445,1.174,0.378,2.657-0.397,3.661c-0.136,0.183-0.308,0.354-0.501,0.502
							c-1.242,0.947-2.918,1.222-4.446,1.212c-2.805-0.044-4.904-1.81-6.092-4.237C155.33,91.268,155.02,88.236,157.802,87.652z"/>
						<path style="opacity:0.2;" d="M168.316,71.92c-12.226-3.937-23.227,0.062-28.09,7.979c-3.804,6.194-4.573,16.092,0.153,23.364
							c2.831,4.342,3.561,5.311,4.259,7.739c0.736,1.538,3.176,3.663,6.54,5.451c-0.53-0.573-1.032-1.171-1.464-1.821
							c-2.27-3.413-2.898-7.869-1.66-11.776c1.053-0.046,2.148-0.179,3.031-0.754c1.595-1.038,1.618-3.523,0.673-5.023
							c-1.168-1.854-2.502-3.604-3.201-5.749c-0.798-2.452-0.484-5.243,0.841-7.456c1.507-2.517,4.256-4.164,7.161-4.436
							c4.374-0.41,10.484,0.677,13.79,3.824c1.43-2.473,3.635-4.475,6.205-5.717C174.513,75.054,171.834,73.057,168.316,71.92z"/>
					</g>
				</g>
				<path style="fill:#455A64;" d="M155.967,84.838c-0.457,0.188-0.873,0.446-1.227,0.787c-1.271,1.225-1.609,2.492-1.587,4.221
					c0.022,1.766,0.447,3.527,1.242,5.105c0.489,0.97,2.286,3.837,5.408,4.042c-1.69,0.721-2.915,2.296-3.538,4.024
					c-0.661,1.832-0.958,4.37-0.668,6.29c0.153,1.012,0.478,4.229,3.285,6.057c-3.182-3.547-0.37-10.932,2.787-12.534
					c3.522-1.781,13.918-2.723,17.042-1.939c3.091,0.785,4.237,2.755,4.239,5.583c0.01-1.613,0.1-4.316-0.022-7.511
					c-0.062-0.073-0.152-0.169-0.219-0.242c-0.552-0.594-2.07-1.751-2.872-1.866c1.127-0.812,2.011-1.913,2.643-3.151
					c-0.431-3.588-1.249-7.391-2.756-10.849c-0.289-0.663-4.81,2.084-5.21,2.41c-1.386,1.129-2.538,3.075-4.603,2.751
					c-0.535-0.084-1.031-0.322-1.516-0.563c-2.174-1.079-4.398-2.14-6.776-2.684C159.949,84.385,157.676,84.133,155.967,84.838z
					 M173.643,90.788c0.41-1.106,1.105-2.088,1.891-2.989c0.82-0.936,3.099-2.99,4.4-1.714c0.377,0.365,0.548,0.878,0.674,1.379
					c0.457,1.893,0.95,4.834-0.326,6.5c-1.094,1.438-3.214,1.713-4.982,1.269c-0.867-0.216-1.688-0.672-1.894-1.595
					C173.199,92.692,173.324,91.7,173.643,90.788z M167.363,95.821c-0.136,0.183-0.308,0.354-0.501,0.502
					c-1.242,0.947-2.918,1.222-4.446,1.212c-2.805-0.044-4.904-1.81-6.092-4.237c-0.994-2.029-1.304-5.062,1.478-5.645
					c2.656-0.549,5.553,0.087,7.732,1.728c0.958,0.718,1.803,1.652,2.225,2.781C168.205,93.335,168.138,94.817,167.363,95.821z"/>
				<path style="fill:#37474F;" d="M168.577,101.111l4.727-0.445l-4.326-11.588C169.443,93.829,169.096,98.094,168.577,101.111z"/>
				<path style="fill:#B16668;" d="M171.118,106.776c-0.148-0.259-0.996-0.136-1.262-0.144c-0.368-0.012-0.735-0.034-1.101-0.077
					c-0.545-0.064-1.091-0.132-1.624-0.283c-0.488-0.139-0.97-0.333-1.43-0.564c-0.549-0.277-1.056-0.679-1.637-0.86
					c-0.188-0.058-0.38,0.091-0.326,0.326c0.169,0.734,0.888,1.173,1.453,1.503c0.584,0.341,1.2,0.564,1.839,0.733
					c0.677,0.179,1.356,0.258,2.051,0.265c0.374,0.003,0.746-0.025,1.119-0.06c0.329-0.031,0.735-0.036,1.017-0.251
					C171.481,107.163,171.217,106.949,171.118,106.776z"/>
			</g>
			<g id="Cape_00000042700864022235269430000009358974231724026510_">
				<g>
					<path style="fill:#37474F;" d="M127.231,126.216c6.128,0.224,25.942,7.018,39.257,14.715c0,0,10.712-8.673,10.712-18.206
						c0,0-0.74-1.868-2.747-1.361c-1.23-2.025-4.284-0.634-4.284-0.634l-0.136,1.82c0,0-0.65,10.171-3.911,15.653
						c-8.453-9.373-21.471-19.687-21.471-19.687c0.108-0.652,0.155-1.316,0.152-1.99c0,0-5.513-0.704-6.401,1.522
						c0,0-6.796-0.647-8.689,3.465c-5.223-1.396-13.897,0.689-12.905,6.434C121.401,126.194,127.231,126.216,127.231,126.216z"/>
					<path style="opacity:0.2;" d="M150.965,127.991c-2.002-1.173-4.109-2.157-6.096-3.355c-1.05-0.633-2.072-1.33-2.975-2.163
						c-0.88-0.813-1.488-1.756-2.157-2.738c-0.116-0.171-0.225,0.098-0.183,0.208c0.734,1.953,2.613,3.485,4.298,4.603
						c1.962,1.303,4.111,2.289,6.159,3.443c4.817,2.712,9.167,6.107,13.167,9.911c0.034,0.033,0.073-0.06,0.047-0.089
						C159.685,133.932,155.495,130.646,150.965,127.991z M153.479,131.956c-2.173-1.218-4.413-2.313-6.688-3.325
						c-4.747-2.111-9.606-4.037-14.482-5.827c-0.12-0.044-0.175,0.207-0.075,0.251c4.795,2.112,9.706,3.953,14.485,6.102
						c2.268,1.02,4.51,2.097,6.682,3.31c2.187,1.221,4.196,2.709,6.352,3.974c0.075,0.044,0.113-0.113,0.067-0.158
						C157.981,134.518,155.691,133.196,153.479,131.956z M174.309,123.357c-1.263,5.161-2.73,10.351-6.209,14.498
						c-0.031,0.037-0.016,0.158,0.045,0.102c4.024-3.68,5.444-9.294,6.413-14.456C174.589,123.338,174.366,123.124,174.309,123.357z
						"/>
				</g>
				<g>
					<path style="fill:#FFFFFF;" d="M172.575,139.227c0,3.217-2.608,5.825-5.825,5.825c-3.217,0-5.825-2.608-5.825-5.825
						c0-3.217,2.608-5.825,5.825-5.825C169.967,133.402,172.575,136.01,172.575,139.227z"/>
					<path style="fill:#455A64;" d="M169.794,139.941c0.58-0.639,0.785-1.545,0.591-2.361c-0.284-1.195-1.353-2.147-2.505-2.395
						c-1.145-0.247-2.408-0.007-3.47,0.568c-0.896,0.486-1.7,1.42-1.766,2.482c-0.035,0.55,0.116,1.097,0.406,1.542
						c0.144,0.221,0.323,0.418,0.531,0.576c0.198,0.151,0.477,0.255,0.432,0.569c-0.021,0.144-0.094,0.275-0.146,0.411
						c-0.215,0.551-0.063,1.227,0.387,1.562c0.449,0.335,1.165,0.263,1.55-0.187c0.28,0.35,0.699,0.562,1.161,0.518
						c0.538-0.05,0.961-0.447,1.197-0.931c0.536,0.335,1.187,0.486,1.753,0.023c0.348-0.285,0.445-0.75,0.375-1.168
						C170.216,140.702,169.965,140.344,169.794,139.941z M168.914,139.836c0.08,0.261,0.203,0.497,0.329,0.734
						c0.128,0.241,0.302,0.521,0.213,0.815c-0.077,0.255-0.351,0.384-0.593,0.376c-0.294-0.01-0.499-0.207-0.684-0.413
						c-0.204-0.227-0.6-0.241-0.692,0.113c-0.079,0.304-0.245,0.607-0.517,0.775c-0.275,0.17-0.64,0.159-0.729-0.187
						c-0.074-0.287-0.524-0.579-0.738-0.239c-0.117,0.185-0.266,0.386-0.453,0.504c-0.205,0.13-0.464,0.034-0.58-0.165
						c-0.083-0.143-0.096-0.322-0.069-0.49c0.027-0.169,0.091-0.33,0.154-0.49c0.05-0.127,0.1-0.253,0.15-0.38
						c0.191-0.481,0.121-0.716-0.332-0.872c-0.385-0.133-0.639-0.625-0.764-1.005c-0.14-0.424-0.143-0.909,0.035-1.335
						c0.271-0.65,0.89-1.033,1.512-1.249c1.091-0.379,2.068-0.479,3.142-0.077c0.673,0.252,1.143,0.652,1.293,1.393
						c0.128,0.638-0.111,1.35-0.61,1.79C168.866,139.534,168.876,139.71,168.914,139.836z M164.843,138.438
						c-0.084,0.284-0.051,0.597,0.195,0.827c0.143,0.133,0.348,0.201,0.543,0.159c0.605-0.133,0.7-0.965,0.468-1.398
						C165.703,137.379,165.018,137.847,164.843,138.438z M167.235,137.759c-0.232,0.457-0.137,1.279,0.468,1.351
						c0.195,0.023,0.4-0.066,0.543-0.214c0.246-0.255,0.28-0.571,0.196-0.847C168.266,137.476,167.582,137.077,167.235,137.759z
						 M166.986,139.613c-0.181-0.104-0.319-0.027-0.455,0.135c-0.052,0.062-0.1,0.132-0.136,0.205
						c-0.047,0.096-0.073,0.199-0.061,0.302c0.002,0.016,0.005,0.033,0.014,0.046c0.015,0.021,0.042,0.027,0.067,0.033
						c0.047,0.01,0.094,0.02,0.143,0.013c0.125-0.017,0.163-0.176,0.271-0.192c0.087-0.013,0.16,0.076,0.234,0.103
						c0.067,0.024,0.147,0.009,0.204-0.038C167.522,140.01,167.153,139.708,166.986,139.613z"/>
				</g>
			</g>
		</g>
	</g>
</g>
<g id="Character_1">
	<g id="Character_00000066515000676556241830000007631158114380488118_">
		<g id="Cape_00000026886158285409237530000014056161533322374577_">
			<path style="fill:#BA68C8;" d="M323.399,122.724l60.393,5.222c0,0,29.665,61.561,45.769,130.225
				c13.43,57.26,19.64,95.151,19.64,95.151s-23.373,17.171-43.141,7.618c-19.769-9.553-28.297-17.649-49.563-16.028
				c-15.062,1.149-31.403,13.218-44.855,11.599c-13.452-1.619-26.736-17.995-55.022-8.996
				C264.129,291.682,288.743,172.59,323.399,122.724z"/>
			<path style="opacity:0.2;" d="M323.399,122.724l60.393,5.222c0,0,29.665,61.561,45.769,130.225
				c13.43,57.26,19.64,95.151,19.64,95.151s-23.373,17.171-43.141,7.618c-19.769-9.553-28.297-17.649-49.563-16.028
				c-15.062,1.149-31.403,13.218-44.855,11.599c-13.452-1.619-26.736-17.995-55.022-8.996
				C264.129,291.682,288.743,172.59,323.399,122.724z"/>
			<path style="opacity:0.2;" d="M395.149,153.732c-6.663-16.045-11.357-25.787-11.357-25.787l-60.393-5.222
				c-5.122,7.37-10.023,16.262-14.684,26.23c0.286,0.383,0.551,0.785,0.73,1.236c0.739,1.86,1.062,3.895,1.283,5.873
				c0.449,4.028,0.229,8.101,0.477,12.142c0.971,15.785,0.346,31.667-1.863,47.327c-1.513,10.726-3.769,21.383-4.172,32.207
				c-0.354,9.52,0.731,19.026,1.567,28.515c0,14.37,1.964,28.928,2.342,43.333c0.318,12.108,0.941,24.385,0.208,36.494
				c0.786,0.187,1.571,0.336,2.355,0.43c7.174,0.863,15.17-2.166,23.354-5.356c-0.089-3.194,0.04-6.387,0.577-9.591
				c1.833-10.936,8.126-21.204,7.322-32.263c-0.427-5.872-2.853-11.432-3.558-17.277c-1.166-9.669,2.426-19.209,5.954-28.286
				c3.596,15.71,6.399,31.894,7.649,47.946c0.865,11.109,1.065,22.294,1.436,33.466c0.709-0.099,1.416-0.183,2.12-0.237
				c17.983-1.371,26.859,4.207,41.125,11.738c-0.388-1.322-0.754-2.655-1.036-4.026c-0.744-3.608-0.736-7.325-1.341-10.95
				c-0.883-5.293-1.672-10.601-2.367-15.922c-1.39-10.642-2.403-21.333-3.036-32.046c-1.221-20.663-0.788-41.208,0.702-61.826
				c0.776-10.826-1.273-22.406-5.186-32.54c-1.082-2.801-2.338-5.572-2.822-8.536c-1.643-10.055,4.188-19.379,8.602-27.872
				C392.681,159.962,394.018,156.884,395.149,153.732z"/>
		</g>
		<g id="Bottom_00000098181329939894336780000014500629175540877241_">
			<g>
				<path style="fill:#37474F;" d="M284.855,374.764c3.372-2.446,6.723-4.878,10.037-7.402c3.088-2.351,6.086-4.845,8.707-7.717
					c2.303-2.522,2.863-5.334,3.227-8.799c0.278-2.644-0.18-6.796-0.498-9.434c-1.404-11.643-6.945-39.94-7.49-51.71
					c-0.67-14.503,0.147-19.64,1.118-36.3c1.101-18.904,2.714-27.896,4.415-37.434c0.627-3.513,2.809-10.638,3.86-14.434
					c15.117,17.301,52.222,7.065,66.097-1.826l-34.108,51.83l-9.745,38.164c0,0,3.318,10.134,2.497,19.589
					c-0.736,8.461-3.731,22.431-5.736,33.182c-1.196,6.416,1.276,11.644,2.216,14.613c1.013,3.195,0.323,7.015-2.189,9.339
					c-2.671,2.472-6.579,3.974-9.757,5.699c-1.137,0.617-2.28,1.238-3.305,2.026c-4.624,3.552-8.017,8.4-14.191,9.305
					c-2.285,0.335-4.609,0.182-6.913,0.029c-2.526-0.168-5.135-0.358-7.382-1.525C282.78,380.433,282.1,376.762,284.855,374.764z"/>
				<path style="fill:#455A64;" d="M311.061,277.265c-2.8-2.474-6.831-2.202-9.467,0.387c-1.544,1.517-2.476,3.571-2.968,5.679
					c0.036,1.939,0.105,4.032,0.213,6.371c0.133,2.876,0.566,6.742,1.162,11.108c0.606,0.916,1.37,1.73,2.255,2.364
					c0.044,0.032,0.089,0.063,0.133,0.094c1.9,1.305,4.361,1.809,6.589,1.22c3.665-0.968,5.513-4.663,6.2-8.115
					c0.773-3.887,0.241-7.953-0.634-11.776C313.948,281.996,313.122,279.087,311.061,277.265z"/>
				<g>
					<path style="fill:#37474F;" d="M330.892,365.378c0.236,2.425,0.036,3.524-2.661,5.322c-2.698,1.798-5.895,2.897-8.593,3.397
						s-6.095,3.397-7.494,5.495s-6.694,6.894-13.788,7.494s-12.09-1.599-14.088-2.798c-1.998-1.199-2.064-2.667-2.286-4.568
						L330.892,365.378z"/>
					<g>
						<path style="fill:#FAFAFA;" d="M295.817,384.424c-1.336,0-2.718-0.126-4.105-0.374c-8.814-1.579-9.228-4.34-9.231-4.368
							c-0.551-4.003-0.735-5.341,5.018-9.04c1.116-0.718,2.277-1.439,3.447-2.164c5.098-3.165,10.369-6.438,12.857-10.023
							c3.351-4.829,3.247-9.397,2.637-13.614c-0.489-3.373-1.451-7.2-2.225-10.274c-0.357-1.423-0.679-2.702-0.902-3.728
							c-0.617-2.84-0.486-3.497,0.314-3.876l0.35,2.135c0.034,0.427,0.751,2.778,11.016,3.34c0.556,0.031,1.096,0.045,1.62,0.045
							c9.357,0,13.705-4.531,13.886-4.724l0.1-0.106l0.387-2.07c0.864,0.565,0.673,1.503,0.067,3.842
							c-0.112,0.433-0.233,0.9-0.354,1.405c-0.237,0.992-0.521,2.075-0.822,3.233c-0.791,3.036-1.689,6.476-2.304,10.18
							c-0.696,4.19,0.386,7.573,1.341,10.558c0.241,0.756,0.477,1.49,0.674,2.211c1.063,3.884,0.891,7.297,0.819,8.202
							c-1.784,2.749-5.729,5.109-11.128,6.654c-3.774,1.08-6.442,3.786-8.587,5.959c-0.488,0.495-0.953,0.966-1.401,1.388
							c-2.067,1.945-6.566,5.208-13.47,5.209C295.818,384.424,295.818,384.424,295.817,384.424z"/>
						<path style="fill:#E0E0E0;" d="M330.864,328.098c-0.077,0.34-0.176,0.737-0.297,1.202c-0.113,0.435-0.234,0.905-0.356,1.412
							c-0.237,0.988-0.519,2.068-0.82,3.222c-0.794,3.046-1.694,6.499-2.314,10.225c-0.716,4.309,0.386,7.755,1.358,10.794
							c0.244,0.763,0.474,1.483,0.668,2.19c0.813,2.97,0.947,6.05,0.812,7.902c-1.749,2.603-5.562,4.849-10.776,6.341
							c-3.9,1.116-6.619,3.873-8.804,6.088c-0.489,0.495-0.95,0.963-1.389,1.377c-2.013,1.895-6.396,5.073-13.128,5.073
							c-1.308,0-2.66-0.123-4.018-0.367c-7.973-1.428-8.775-3.768-8.823-3.942l-0.004-0.032c-0.529-3.838-0.689-4.996,4.796-8.522
							c1.114-0.716,2.272-1.435,3.438-2.159c5.142-3.193,10.459-6.494,13.007-10.164c3.45-4.971,3.346-9.652,2.72-13.97
							c-0.493-3.399-1.458-7.24-2.234-10.326c-0.364-1.447-0.678-2.696-0.898-3.71c-0.112-0.514-0.199-0.945-0.261-1.307
							c0.357,1.086,2.303,3.011,11.424,3.511c0.552,0.03,1.106,0.046,1.647,0.046c9.573,0,14.064-4.683,14.251-4.883
							L330.864,328.098 M330.613,324.848l-0.481,2.568c0,0-4.272,4.566-13.52,4.566c-0.515,0-1.046-0.014-1.592-0.044
							c-10.351-0.567-10.549-2.922-10.549-2.922l-0.449-2.736c-1.782,0.58-1.905,1.405-1.196,4.666
							c0.709,3.261,2.41,9.075,3.119,13.967c0.709,4.892,0.439,8.947-2.552,13.257c-2.991,4.31-10.209,8.224-16.164,12.052
							c-5.955,3.828-5.813,5.388-5.246,9.5c0,0,0.142,3.119,9.642,4.821c1.481,0.265,2.88,0.382,4.195,0.382
							c7.117,0,11.778-3.43,13.813-5.345c2.41-2.269,5.292-5.946,9.784-7.231c4.492-1.286,9.306-3.509,11.477-6.97
							c0.142-1.56,0.15-4.941-0.824-8.499c-0.974-3.558-2.855-7.439-2.004-12.556c0.851-5.117,2.269-9.834,3.119-13.379
							C332.034,327.4,332.885,325.699,330.613,324.848L330.613,324.848z"/>
					</g>
					<g>
						<path style="fill:#E0E0E0;" d="M304.357,338.266c1.173-0.202,2.37-0.276,3.547-0.473c1.088-0.182,2.169-0.408,3.237-0.683
							c1.057-0.272,2.098-0.594,3.133-0.94c0.754-0.252,1.506-0.504,2.253-0.778c0.525-0.193,1.104-0.429,1.666-0.403
							c0.183,0.008,0.228,0.263,0.176,0.397c-0.374,0.972-2.131,1.438-3.02,1.792c-1.142,0.454-2.33,0.808-3.516,1.126
							c-2.402,0.645-4.987,1.24-7.484,1.255C303.45,339.564,303.562,338.402,304.357,338.266z"/>
						<path style="fill:#E0E0E0;" d="M305.814,344.284c1.052-0.202,2.124-0.276,3.178-0.473c0.975-0.182,1.943-0.408,2.901-0.683
							c0.948-0.272,1.88-0.594,2.807-0.94c0.676-0.252,1.349-0.504,2.019-0.778c0.47-0.193,0.989-0.429,1.493-0.403
							c0.164,0.009,0.204,0.263,0.158,0.397c-0.335,0.972-1.91,1.438-2.706,1.791c-1.023,0.454-2.088,0.808-3.151,1.126
							c-2.153,0.645-4.469,1.24-6.707,1.255C305.001,345.582,305.101,344.42,305.814,344.284z"/>
						<path style="fill:#E0E0E0;" d="M306.363,349.746c0.977-0.202,1.973-0.276,2.952-0.473c0.906-0.182,1.805-0.408,2.695-0.683
							c0.88-0.272,1.746-0.594,2.608-0.94c0.628-0.252,1.254-0.504,1.875-0.778c0.437-0.192,0.919-0.429,1.387-0.403
							c0.152,0.009,0.189,0.263,0.146,0.397c-0.311,0.972-1.774,1.438-2.514,1.792c-0.951,0.454-1.94,0.808-2.927,1.126
							c-2,0.645-4.151,1.24-6.23,1.255C305.608,351.044,305.701,349.883,306.363,349.746z"/>
						<path style="fill:#E0E0E0;" d="M303.208,333.008c0.629,0.299,1.065,0.891,1.575,1.358c0.585,0.536,1.219,1.039,1.849,1.522
							c1.104,0.847,2.284,1.6,3.526,2.229c1.202,0.609,2.475,1.095,3.767,1.476c0.699,0.206,1.409,0.357,2.119,0.521
							c0.782,0.181,1.721,0.331,2.269,0.95c0.101,0.115,0.11,0.309,0.069,0.446c-0.038,0.133-0.315,0.314-0.321,0.384
							c-0.025,0.297-2.718-0.401-3.069-0.475c-0.72-0.153-1.433-0.324-2.137-0.538c-1.477-0.449-2.897-1.076-4.251-1.815
							c-1.241-0.678-2.419-1.473-3.509-2.375c-0.559-0.462-1.064-0.967-1.568-1.488c-0.406-0.419-1.149-0.991-1.135-1.613
							C302.399,333.253,302.861,332.843,303.208,333.008z"/>
						<path style="fill:#E0E0E0;" d="M304.534,338.554c0.559,0.299,0.947,0.891,1.4,1.358c0.52,0.536,1.084,1.039,1.643,1.522
							c0.982,0.847,2.03,1.6,3.134,2.229c1.069,0.609,2.2,1.095,3.349,1.476c0.622,0.206,1.253,0.357,1.884,0.521
							c0.695,0.181,1.53,0.331,2.017,0.95c0.09,0.115,0.097,0.309,0.062,0.446c-0.034,0.133-0.28,0.314-0.286,0.384
							c-0.022,0.297-2.416-0.401-2.728-0.475c-0.64-0.153-1.274-0.324-1.9-0.538c-1.313-0.449-2.576-1.076-3.779-1.815
							c-1.103-0.678-2.151-1.473-3.12-2.375c-0.497-0.462-0.946-0.967-1.394-1.488c-0.361-0.419-1.022-0.991-1.009-1.613
							C303.815,338.799,304.226,338.389,304.534,338.554z"/>
						<path style="fill:#E0E0E0;" d="M305.893,344.361c0.503,0.299,0.852,0.891,1.259,1.358c0.468,0.536,0.975,1.039,1.478,1.522
							c0.883,0.847,1.826,1.6,2.819,2.23c0.961,0.609,1.979,1.095,3.012,1.476c0.559,0.206,1.127,0.357,1.694,0.521
							c0.625,0.181,1.376,0.331,1.814,0.95c0.081,0.115,0.088,0.309,0.055,0.446c-0.031,0.133-0.252,0.314-0.257,0.384
							c-0.02,0.297-2.173-0.401-2.454-0.475c-0.575-0.153-1.146-0.324-1.708-0.538c-1.181-0.449-2.316-1.076-3.399-1.815
							c-0.992-0.678-1.934-1.473-2.806-2.375c-0.447-0.462-0.851-0.967-1.254-1.488c-0.324-0.419-0.919-0.991-0.907-1.613
							C305.246,344.606,305.616,344.196,305.893,344.361z"/>
					</g>
				</g>
				<path style="fill:#263238;" d="M340.22,251.539l-3.625-11.234c0,0-9.573-3.641-18.389-13.665
					c2.864,12.37,16.093,17.378,16.093,17.378l1.321,12.747l-5.145,32.937L340.22,251.539z"/>
				<path style="fill:#37474F;" d="M370.431,390.145c0.073-7.769,0.297-15.482-0.47-23.208c-0.423-4.259-1.257-8.432-2.372-12.561
					c-3.793-14.041-15.12-44.864-17.547-55.086c0,0-10.692-30.722-13.446-58.985c3.277-19.625,14.916-27.116,36.168-42.714
					c3.724,7.461,10.526,14.748,10.869,46.311c0.401,16.452-2.074,30.01-2.892,47.046c-0.479,9.972,6.309,15.966,6.091,32.34
					c-0.132,9.859-0.218,14.222,0.152,26.957c0.186,3.01,1.257,5.526,2.072,8.34c0.897,3.099,0.874,6.352,1.078,9.544
					c0.201,3.149,1.008,6.418,2.043,9.399c0.891,2.568,2.072,5.124,2.062,7.843c-0.008,1.89-0.597,3.729-1.284,5.49
					c-1.477,3.787-3.46,7.422-6.224,10.403c-1.212,1.307-2.595,2.498-4.228,3.215c-1.633,0.717-3.546,0.919-5.204,0.263
					c-1.931-0.764-3.261-2.552-4.243-4.381c-1.664-3.102-2.657-6.478-2.625-9.986C370.43,390.299,370.431,390.222,370.431,390.145z"
					/>
				<path style="fill:#455A64;" d="M357.604,308.259c2.762,3.231,7.135,5.63,11.21,4.42c3.127-0.929,5.382-3.836,6.258-6.979
					c0.876-3.142,0.563-6.496-0.075-9.695c-1.156-5.801-3.62-12.061-9.4-14.626c-10.398-4.613-13.665,10.28-12.351,17.52
					C353.867,302.323,355.336,305.606,357.604,308.259z"/>
				<g>
					<path style="fill:#37474F;" d="M392.321,373.378c1.266,4.524,3.926,13.85,3.837,17.935s-1.865,8.97-6.305,13.144
						c-4.44,4.174-8.97,5.772-12.788,5.062c-3.819-0.71-7.724-5.237-7.807-16.691L392.321,373.378z"/>
					<g>
						<path style="fill:#FAFAFA;" d="M378.265,406.521c-4.789,0-8.073-5.62-8.571-14.667c-0.262-4.74-0.134-10.411-0.021-15.413
							c0.108-4.806,0.201-8.957-0.053-11.414c-0.498-4.814-4.352-16.1-7.653-25.394c-0.918-2.585-0.938-3.732-0.836-4.221
							l0.44,1.328c0.38,1.146,2.5,3.085,8.039,3.085c1.452,0,3.066-0.135,4.796-0.402c9.063-1.398,12.581-6.216,12.727-6.421
							l0.092-0.129l0.019-2.394c0.448,0.363,0.741,1.303,0.58,3.723c-0.228,3.429-0.4,11.295,0.407,19.025
							c0.292,2.794,0.781,4.445,1.254,6.042c0.585,1.976,1.19,4.019,1.475,8.371c0.265,4.051,1.044,6.675,1.868,9.453
							c0.784,2.638,1.594,5.366,1.934,9.488c0.683,8.286-6.547,19.105-15.957,19.918
							C378.622,406.513,378.442,406.521,378.265,406.521z"/>
						<path style="fill:#E0E0E0;" d="M387.357,333.527c-0.007,0.199-0.018,0.412-0.034,0.641c-0.23,3.445-0.402,11.347,0.409,19.11
							c0.297,2.84,0.793,4.513,1.272,6.131c0.578,1.95,1.175,3.965,1.455,8.262c0.268,4.107,1.092,6.881,1.888,9.562
							c0.776,2.614,1.579,5.316,1.914,9.387c0.664,8.063-6.359,18.588-15.502,19.379c-0.166,0.014-0.331,0.022-0.495,0.022
							c-4.496,0-7.589-5.439-8.072-14.194c-0.26-4.719-0.133-10.377-0.021-15.369c0.108-4.826,0.202-8.993-0.056-11.481
							c-0.504-4.869-4.368-16.19-7.679-25.509c-0.161-0.452-0.292-0.857-0.399-1.218c1.244,1.123,3.659,2.077,7.572,2.077
							c1.478,0,3.117-0.137,4.872-0.408C382.72,338.646,386.51,334.567,387.357,333.527 M386.748,329.77
							c-0.015,1.555-0.024,2.942-0.024,2.942s-3.437,4.834-12.395,6.216c-1.809,0.279-3.372,0.396-4.719,0.396
							c-5.325,0-7.263-1.832-7.565-2.742c-0.378-1.141-0.676-2.035-0.676-2.035s-0.014-0.002-0.039-0.002
							c-0.255,0-1.624,0.221,0.165,5.256c2.836,7.983,7.108,20.267,7.627,25.277c0.518,5.01-0.436,17.578,0.073,26.803
							c0.549,9.954,4.305,15.139,9.07,15.139c0.192,0,0.386-0.008,0.581-0.025c9.853-0.852,17.103-12.063,16.412-20.457
							c-0.691-8.394-3.282-10.985-3.801-18.932c-0.518-7.947-2.086-8.261-2.731-14.432c-0.774-7.415-0.658-15.147-0.405-18.939
							C388.492,331.671,388.259,329.94,386.748,329.77L386.748,329.77z"/>
					</g>
					<g>
						<path style="fill:#E0E0E0;" d="M368.258,347.7c2.717-0.476,5.442-1.484,7.842-2.837c1.164-0.656,2.271-1.407,3.309-2.25
							c0.488-0.396,0.974-0.794,1.44-1.216c0.542-0.491,1.038-1.052,1.668-1.432c0.243-0.146,0.73-0.079,0.622,0.314
							c-0.197,0.719-0.786,1.25-1.298,1.767c-0.515,0.521-1.05,1.021-1.621,1.479c-1.138,0.914-2.355,1.735-3.632,2.443
							c-1.248,0.692-2.556,1.274-3.9,1.751c-1.368,0.485-2.877,0.983-4.338,1.032C367.709,348.774,367.668,347.804,368.258,347.7z"
							/>
						<path style="fill:#E0E0E0;" d="M367.696,342.608c2.634,1.325,5.344,2.216,8.266,2.635c1.368,0.196,2.746,0.316,4.124,0.421
							c0.676,0.052,1.353,0.099,2.029,0.149c0.785,0.057,1.635,0.01,2.365,0.321c0.446,0.19,0.203,0.756-0.12,0.923
							c-0.649,0.335-1.448,0.128-2.153,0.075c-0.82-0.061-1.639-0.121-2.458-0.185c-1.51-0.12-3.019-0.263-4.515-0.501
							c-2.798-0.445-5.899-1.189-8.009-3.189C366.971,343.016,367.388,342.453,367.696,342.608z"/>
						<path style="fill:#E0E0E0;" d="M369.391,354.223c2.717-0.476,5.442-1.484,7.842-2.837c1.164-0.656,2.271-1.407,3.309-2.25
							c0.488-0.396,0.974-0.794,1.44-1.216c0.542-0.491,1.038-1.052,1.668-1.432c0.243-0.146,0.73-0.079,0.622,0.314
							c-0.197,0.719-0.786,1.25-1.298,1.767c-0.515,0.521-1.05,1.021-1.621,1.479c-1.138,0.914-2.355,1.735-3.632,2.443
							c-1.248,0.692-2.556,1.274-3.901,1.75c-1.368,0.485-2.877,0.983-4.338,1.032C368.841,355.297,368.801,354.327,369.391,354.223
							z"/>
						<path style="fill:#E0E0E0;" d="M370.523,359.888c2.717-0.476,5.442-1.484,7.842-2.837c1.164-0.656,2.271-1.407,3.309-2.25
							c0.488-0.396,0.974-0.794,1.44-1.216c0.542-0.491,1.038-1.052,1.668-1.432c0.243-0.146,0.73-0.079,0.622,0.314
							c-0.197,0.719-0.786,1.25-1.298,1.767c-0.515,0.521-1.05,1.021-1.621,1.479c-1.138,0.914-2.355,1.735-3.632,2.443
							c-1.248,0.692-2.556,1.274-3.9,1.751c-1.368,0.485-2.877,0.983-4.338,1.032C369.974,360.961,369.933,359.991,370.523,359.888z
							"/>
						<path style="fill:#E0E0E0;" d="M368.392,348.134c2.634,1.325,5.344,2.216,8.266,2.634c1.368,0.196,2.746,0.316,4.124,0.421
							c0.676,0.052,1.353,0.099,2.029,0.149c0.786,0.057,1.635,0.01,2.365,0.321c0.446,0.19,0.204,0.756-0.12,0.923
							c-0.649,0.335-1.448,0.128-2.153,0.075c-0.82-0.061-1.639-0.121-2.459-0.186c-1.51-0.12-3.019-0.263-4.515-0.501
							c-2.798-0.445-5.899-1.189-8.009-3.189C367.666,348.542,368.083,347.978,368.392,348.134z"/>
						<path style="fill:#E0E0E0;" d="M369.699,354.575c2.634,1.325,5.344,2.216,8.266,2.634c1.368,0.196,2.746,0.316,4.124,0.421
							c0.676,0.052,1.353,0.099,2.029,0.149c0.786,0.057,1.635,0.01,2.365,0.321c0.446,0.19,0.204,0.756-0.12,0.923
							c-0.649,0.335-1.448,0.128-2.153,0.075c-0.82-0.061-1.639-0.121-2.458-0.185c-1.51-0.12-3.019-0.263-4.515-0.501
							c-2.798-0.445-5.899-1.189-8.009-3.189C368.974,354.983,369.391,354.42,369.699,354.575z"/>
					</g>
				</g>
			</g>
			<path style="fill:#BA68C8;" d="M336.596,240.305c-9.617,0.435-14.19-4.865-19.229-12.792
				c-5.039-7.926-12.994-11.545-12.994-11.545s-0.24-9.486,2.649-16.633c9.17,12.153,49.753,14.659,65.189-4.579
				c3.027,5.704,6.909,12.66,8.282,20.209C367.248,213.334,342.866,225.762,336.596,240.305z"/>
			<path style="opacity:0.2;" d="M337.185,239.056c2.199-9.401,9.827-16.588,17.761-22.133c2.574-1.799,5.318-3.598,6.851-6.338
				c1.278-2.285,1.566-4.968,2.135-7.524c0.1-0.447,0.219-0.896,0.35-1.344c3.021-1.914,5.725-4.214,7.929-6.961
				c3.027,5.704,6.909,12.66,8.282,20.209C367.629,213.381,344.263,225.059,337.185,239.056z"/>
		</g>
		<g id="Top_00000038383559095094455840000007205260271176154298_">
			<g id="Chest_00000178197875541798801820000017647674220896635035_">
				<g>
					<path style="fill:#FFA8A7;" d="M307.555,165.527c-2.762-6.57-3.519-10.686,0.99-21.405
						c6.433-15.294,12.943-17.668,25.558-19.564l15.809-2.381c0,0,7.969-0.961,12.924,0.571c4.89,1.512,10.22,2.429,10.22,2.429
						s15.954,16.602,11.96,31.764c-2.661,10.105-7.417,14.954-11.652,25.042c-2.587,6.163-1.763,8.061-1.153,12.773
						c-16.565,24.22-58.671,17.174-65.189,4.579c-0.688-5.725-0.689-10.511,0.384-20.625
						C306.333,174.618,306.305,169.492,307.555,165.527z"/>
					<path style="fill:#F28F8F;" d="M379.904,169.24c-1.781-0.954-3.752-1.522-5.745-1.87c-6.868-1.199-13.923-0.031-20.711,1.557
						c-6.789,1.588-13.526,3.604-20.479,4.125c-8.097,0.608-16.397-0.818-24.271,1.167c-0.656,0.165-1.316,0.369-1.954,0.619
						c0.128,1.343,0.342,2.655,0.661,3.873c-0.192,1.812-0.348,3.447-0.474,4.952c9.137,1.715,15.704,0.909,24.275-2.44
						c0.717-0.28,2.967-0.927,3.736-0.879c0.791,0.049,3.022,2.066,3.57,2.639c2.705,2.826,5.92,4.345,9.16,6.173
						c2.835,1.599,5.772,2.643,8.698,3.929c3.474,1.527,6.053,0.491,8.989-1.64c2.304-1.672,4.554-3.438,6.617-5.393
						c0.275-1.151,0.714-2.464,1.387-4.069C375.524,176.837,377.819,173.053,379.904,169.24z"/>
					<path style="opacity:0.5;fill:#F28F8F;" d="M352.768,175.37c1.599-0.122,3.184-0.418,4.719-0.893
						c0.133,0.722-0.702,1.214-1.402,1.432c-6.998,2.183-14.751,0.355-21.131-3.256c-1.086-0.615-2.154-1.291-3.32-1.747
						c-1.235-0.483-2.066-0.366-3.335-0.242c-2.785,0.271-6.318,0.771-9.007-0.062c-1.292-0.4-2.578-0.669-3.803-1.275
						c-0.622-0.308-1.22-0.671-1.761-1.108c-0.13-0.105-1.382-1.389-1.344-1.407c0.254-0.12,0.548,0.018,0.796,0.15
						c2.532,1.345,5.321,2.288,8.186,2.392c2.815,0.102,7.888-0.703,8.736-3.928c0.227-0.863,0.439-1.995,0.574-2.895
						c0.378-2.516,1.476-6.277,2.384-5.047c0.099,0.137,0.107,0.304,0.109,0.456c0.022,2.173-1.03,6.043-0.309,8.661
						c0.559,2.031,2.113,3.326,3.806,4.411c2.281,1.463,4.27,2.18,6.466,2.997C346.194,175.15,349.51,175.62,352.768,175.37z"/>
					<g>
						<path style="opacity:0.5;fill:#F28F8F;" d="M343.261,138.219c2.512-1.822,10.359-2.741,13.409-3.23
							c2.982-0.479,3.137,0.654-1.891,1.793c-4.593,1.041-8.924,1.389-11.284,3.167c-2.115,1.593-2.907,2.815-3.212,2.06
							C339.977,141.254,341.773,139.298,343.261,138.219z"/>
						<path style="opacity:0.5;fill:#F28F8F;" d="M331.507,135.747c0.648,0.801,1.953,3.835,1.295,4.061
							c-0.659,0.226-1.201-2.04-3.031-3.829c-1.801-1.76-4.804-3.912-5.671-4.701c-0.867-0.789-1.621-2.459,1.388-0.245
							C328.264,133.076,330.746,134.806,331.507,135.747z"/>
					</g>
				</g>
				<g id="Belt_00000035495859401366178210000009901308571890398850_">
					<g>
						<path style="fill:#37474F;" d="M305.755,203.324c5.921,8.403,40.977,25.043,68.574-4.564c0,0-3.263-5.752-1.576-15.229
							c-22.957,18.212-50.079,17.86-65.984,2.25C305.911,191.092,305.503,197.007,305.755,203.324z"/>
						<path style="fill:#455A64;" d="M372.872,194.524c-6.068,6.178-13.365,11.016-21.596,13.938c-2.62,0.93-5.345,1.757-8.106,2.13
							c-2.963,0.4-6.006,0.257-8.961-0.144c-5.82-0.789-11.425-2.719-16.713-5.238c-2.81-1.338-5.659-2.773-8.065-4.772
							c-1.305-1.084-2.412-2.491-3.702-3.623c-0.014,0.447-0.024,0.897-0.031,1.349c0.866,0.989,1.72,1.984,2.71,2.853
							c2.115,1.857,4.626,3.204,7.13,4.456c5.298,2.65,10.931,4.756,16.784,5.764c2.987,0.514,6.06,0.777,9.09,0.592
							c2.938-0.18,5.809-0.905,8.603-1.8c5.027-1.61,9.833-3.921,14.234-6.835c3.2-2.118,6.24-4.559,8.977-7.287
							C373.104,195.488,372.985,195.03,372.872,194.524z"/>
						<path style="fill:#455A64;" d="M372.331,187.025c-5.791,5.027-12.51,8.996-19.965,11.525c-2.742,0.93-5.592,1.757-8.482,2.13
							c-3.101,0.4-6.284,0.257-9.377-0.144c-6.09-0.789-11.956-2.719-17.489-5.238c-2.94-1.338-5.921-2.773-8.439-4.772
							c-0.774-0.614-1.482-1.331-2.195-2.043c-0.059,0.464-0.12,0.927-0.172,1.4c0.416,0.422,0.839,0.838,1.298,1.223
							c2.214,1.857,4.84,3.204,7.46,4.457c5.544,2.65,11.438,4.756,17.563,5.764c3.125,0.514,6.342,0.777,9.512,0.592
							c3.074-0.18,6.078-0.905,9.002-1.8c5.261-1.61,10.289-3.921,14.895-6.835c2.201-1.393,4.318-2.937,6.332-4.598
							C372.278,188.149,372.295,187.598,372.331,187.025z"/>
					</g>
					<g>
						<path style="fill:#BA68C8;" d="M349.783,205.163c0-2.379-1.727-4.591-3.858-4.94c-0.024-0.004-0.046,0-0.071-0.004
							c-2.279-7.136-7.714-13.044-14.31-15.166c-0.447-1.899-1.928-3.491-3.706-3.783c-1.955-0.321-3.554,1.047-3.806,3.112
							c-5.708,0.893-10.252,5.038-12.117,10.994c-1.907-0.052-3.39,1.499-3.39,3.699c0,1.867,1.069,3.616,2.557,4.458
							c0.806,9.514,7.383,18.077,15.719,20.584c0.626,1.537,1.932,2.747,3.457,2.997c1.729,0.284,3.175-0.758,3.665-2.427
							c7.186-1.093,12.542-7.337,13.054-15.86C348.593,208.579,349.783,207.132,349.783,205.163z"/>
						<path style="opacity:0.2;" d="M349.783,205.163c0-2.379-1.727-4.591-3.858-4.94c-0.024-0.004-0.046,0-0.071-0.004
							c-2.279-7.136-7.714-13.044-14.31-15.166c-0.447-1.899-1.928-3.491-3.706-3.783c-1.955-0.321-3.554,1.047-3.806,3.112
							c-5.708,0.893-10.252,5.038-12.117,10.994c-1.907-0.052-3.39,1.499-3.39,3.699c0,1.867,1.069,3.616,2.557,4.458
							c0.806,9.514,7.383,18.077,15.719,20.584c0.626,1.537,1.932,2.747,3.457,2.997c1.729,0.284,3.175-0.758,3.665-2.427
							c7.186-1.093,12.542-7.337,13.054-15.86C348.593,208.579,349.783,207.132,349.783,205.163z"/>
						
							<ellipse transform="matrix(0.9058 -0.4238 0.4238 0.9058 -55.672 158.701)" style="fill:#BA68C8;" cx="329.008" cy="204.531" rx="15.627" ry="18.901"/>
						
							<ellipse transform="matrix(0.9058 -0.4238 0.4238 0.9058 -55.672 158.701)" style="opacity:0.5;fill:#FFFFFF;" cx="329.008" cy="204.531" rx="15.627" ry="18.901"/>
						<polygon style="opacity:0.35;fill:#FFFFFF;" points="329.2,198.374 333.743,194.009 332.678,201.525 339.288,202.198 
							334.499,206.051 340.573,211.291 334.003,210.2 337.297,217.873 331.421,212.432 330.779,219.654 327.727,211.942 
							323.368,216.04 324.286,208.905 317.737,208.248 322.394,204.425 316.071,199.055 322.807,200.19 319.198,192.014 
							325.411,197.859 326.006,190.05 						"/>
					</g>
				</g>
			</g>
			<g id="Arm_00000129891269142799475650000012001962724415258271_">
				<path style="fill:#FFA8A7;" d="M338.872,174.528c-6.058,3.196-14.746,5.622-21.589,5.817c-9.914,0.283-16.614-2.139-25.89-5.13
					c-1.178-0.38-2.543-0.65-3.394-1.601c-0.768-0.86-1.169-2.016-1.38-3.132c-0.514-2.719,0.636-5.49,1.462-8.04
					c1.704-5.263,2.551-9.572,4.569-14.722c1.109-2.831,3.589-7.434,4.769-8.953c3.36-4.326,6.31-5.277,9.383-9.812
					c2.732-4.031,5.061-6.204,9.356-8.215c6.207-2.906,16.07-0.516,17.945,3.819c-10.755,1.888-20.08,5.319-25.553,19.568
					c-2.538,6.606-3.226,9.899-2.216,15.192c4.953-0.088,10.611,2.276,13.477,3.684c6.185,3.037,22.682,9.417,21.328,10.241
					C340.396,173.694,339.64,174.123,338.872,174.528z"/>
				<path style="fill:#F28F8F;" d="M306.333,159.318L306.333,159.318c-1.01-5.293-0.321-8.586,2.216-15.192
					c1.728-4.5,3.842-7.918,6.262-10.553l0.001-0.002c-6.843,6.193-10.672,14.054-10.69,23.609c-3.302,0.424-7.483,1.67-8.895,5.246
					C296.985,160.736,300.364,158.414,306.333,159.318z"/>
				<path style="fill:#37474F;" d="M319.81,163.001c-0.958-0.47-2.232-1.047-3.684-1.604c5.142,6.442,3.371,13.484,1.157,18.948
					c6.843-0.195,15.531-2.621,21.589-5.817c0.768-0.405,1.524-0.834,2.266-1.286C342.492,172.418,325.995,166.038,319.81,163.001z"
					/>
			</g>
			<g id="Arm_00000065773270531456207390000008315252259536625083_">
				<g id="Arm_00000096024267106565745130000001409370241679724450_">
					<g>
						<g>
							<path style="fill:#FFA8A7;" d="M309.259,159.517c-1.446-0.143-1.651-0.142-2.926-0.199c0-0.905,0.125-1.61,0.169-1.818
								c0.182-0.862,0.67-1.755,1.033-2.554c0.745-1.644,1.611-3.231,2.527-4.785c0.28-0.474,0.572-0.954,0.991-1.31
								c0.817-0.694,1.987-0.808,3.05-0.667c0.524,0.069,1.053,0.193,1.576,0.113c0.613-0.094,1.146-0.455,1.673-0.782
								c0.988-0.614,2.154-1.155,3.28-0.864c0.518,0.134,1.003,0.441,1.538,0.432c0.353-0.006,0.687-0.149,1.023-0.257
								c1.17-0.377,1.89-0.735,3.03-0.274c1.291,0.521,2.065,2.08,2.94,3.163c1.288,1.596,2.113,2.642,3.359,4.003
								c1.173,1.282,2.232,2.116,3.765,2.992c1.486,0.849,6.123,2.405,10.005,3.82c2.076,0.757,5.008,1.944,7.406,3.117
								c1.439-5.781,2.489-9.313,6.684-15.247c0,0,1.619-20.962,14.315-24.739c11.811,1.43,16.019,9.179,16.258,15.771
								c0.33,9.098-2.848,11.248-5.035,17.812c-1.496,4.492-3.846,9.11-7.325,14.534c-4.439,6.922-8.459,11.502-10.558,14.232
								c-1.947,2.532-4.766,5.063-8.157,4.81c-4.692-0.35-7.419-3.379-12.105-5.682c-7.578-3.725-9.822-6.4-12.833-9.187
								c-8.361-7.738-8.813-9.912-14.077-11.341C314.426,163.594,312.131,160.65,309.259,159.517z"/>
						</g>
						<g>
							<g>
								<path style="fill:#F28F8F;" d="M390.003,139.465c0.218,6.018-1.152,8.862-2.737,12.155c-0.761,1.579-1.5,3.228-2.25,5.322
									c-2.762,7.718-6.68,15.235-6.68,15.235c0.087-0.134,0.173-0.263,0.26-0.399c3.479-5.424,5.829-10.043,7.325-14.534
									c2.187-6.564,5.365-8.715,5.035-17.812c-0.239-6.592-4.447-14.34-16.258-15.771c-0.049,0.015-0.094,0.035-0.142,0.05v1.005
									c0.077-0.026,0.149-0.059,0.227-0.083C388.465,126.383,389.892,136.419,390.003,139.465z"/>
								<path style="fill:#F28F8F;" d="M311.671,149.577c0.479-0.408,1.165-0.493,1.655-0.493c0.209,0,0.428,0.015,0.651,0.045
									c0.103,0.014,0.205,0.029,0.308,0.045c0.311,0.048,0.664,0.102,1.032,0.102c0.177,0,0.343-0.012,0.505-0.037
									c0.756-0.115,1.363-0.496,1.9-0.832l0.134-0.083c0.553-0.344,1.377-0.801,2.127-0.801c0.145,0,0.28,0.016,0.412,0.051
									c0.132,0.034,0.282,0.092,0.441,0.154c0.357,0.138,0.799,0.309,1.35,0.309h0.001c0.434-0.007,0.812-0.137,1.116-0.241
									l0.183-0.062c0.146-0.047,0.285-0.093,0.418-0.138c0.532-0.179,0.916-0.308,1.279-0.308c0.217,0,0.435,0.047,0.684,0.148
									c0.697,0.281,1.282,1.114,1.848,1.919c0.226,0.322,0.46,0.655,0.706,0.96l0.395,0.49c1.085,1.346,1.869,2.319,3.004,3.559
									c1.234,1.347,2.354,2.238,3.995,3.176c1.209,0.691,4.187,1.753,7.34,2.878c0.945,0.337,1.899,0.678,2.811,1.01
									c1.94,0.707,4.879,1.887,7.314,3.077l1.059,0.518l0.285-1.144c1.394-5.599,2.385-9.053,6.537-14.927l0.152-0.215
									l0.021-0.262c0.01-0.131-0.371-8.49,3.292-15.393c-3.396,4.825-4.286,10.72-4.243,15.32
									c-4.195,5.934-5.245,9.466-6.684,15.247c-2.399-1.173-5.331-2.36-7.406-3.117c-3.882-1.415-8.52-2.971-10.005-3.82
									c-1.534-0.876-2.592-1.71-3.765-2.992c-1.247-1.361-2.072-2.408-3.359-4.003c-0.874-1.084-1.648-2.642-2.939-3.163
									c-0.384-0.155-0.72-0.217-1.041-0.217c-0.634,0-1.212,0.242-1.989,0.492c-0.336,0.108-0.669,0.252-1.022,0.257
									c-0.007,0-0.014,0-0.022,0c-0.526,0-1.005-0.3-1.516-0.433c-0.216-0.056-0.433-0.081-0.65-0.081
									c-0.916,0-1.831,0.449-2.63,0.945c-0.527,0.327-1.06,0.688-1.674,0.782c-0.12,0.018-0.241,0.026-0.361,0.026
									c-0.405,0-0.811-0.085-1.215-0.139c-0.255-0.034-0.516-0.053-0.777-0.053c-0.827,0-1.652,0.192-2.273,0.72
									c-0.419,0.356-0.711,0.836-0.991,1.31c-0.917,1.554-1.782,3.141-2.527,4.785c-0.363,0.799-0.851,1.692-1.033,2.554
									c-0.044,0.208-0.169,0.913-0.169,1.818c0.04-0.403,0.431-2.669,3.435-7.715
									C310.037,151.151,311.379,149.825,311.671,149.577z"/>
								<path style="fill:#F28F8F;" d="M332.21,172.176h0.159c-0.974-0.958-1.806-1.803-2.544-2.552
									c-3.296-3.346-4.8-4.874-8.711-5.935l-0.05-0.014l-0.051-0.008c-4.166-0.657-6.475-2.101-8.485-3.418
									c-3.661-2.4-5.612-0.903-6.197-0.932c1.276,0.057,1.48,0.056,2.927,0.199c2.872,1.134,5.167,4.077,11.606,5.092
									c4.62,1.254,5.537,3.084,11.345,8.745V172.176z"/>
							</g>
						</g>
						<path style="fill:#F28F8F;" d="M352.997,163.791c-0.266,1.753-3.492,6.844,1.755,11.519c-2.159-2.731-1.34-6.7-0.413-10.289
							C354.339,165.021,354.004,164.208,352.997,163.791z"/>
					</g>
				</g>
				<path style="fill:#455A64;" d="M346.293,160.529c-3.882-1.415-8.519-2.971-10.005-3.82c-0.491-0.281-0.923-0.562-1.336-0.85
					l-0.009,0.002c-2.287-1.307-10.31,2.872-10.013,10.56c0,0.001,0.001,0.002,0.002,0.003c2.339,1.636,4.215,4.412,9.84,9.618
					c1.848,1.71,3.583,3.287,6.264,5.182c-0.171-1.745-0.216-6.287,2.908-11.709c3.988-6.922,7.264-7,7.296-7
					C349.485,161.749,347.694,161.04,346.293,160.529z"/>
			</g>
			<g id="Head_00000087398625190859903960000012776267460649532327_">
				<g>
					<g id="XMLID_00000054976186771580413600000015632514580751175071_">
						<g id="XMLID_00000087382457871679589240000014966841870351442313_">
							<path style="fill:#FFA8A7;" d="M360.18,106.832c-0.319,1.177-0.941,2.579-1.08,3.791c-0.129,1.121-0.121,4.099-0.121,5.231
								c0,4.212,1.671,5.734,3.857,6.893c-0.024,3.418-13.116,14.338-27.897,12.546c-7.229-0.876-2.685-10.446-2.685-10.446
								c1.849-0.29,1.622-2.019,1.257-5.87c0,0-2.38-0.379-4.675-1.145c-3.298-1.099-5.627-3.3-7.129-7.518
								c-0.44-1.236-0.755-3.19-0.841-4.545c0,0,0.122-6.596,0.417-8.591c0.563-3.807,0.823-8.104,2.245-11.687
								c1.882-4.742,3.716-7.655,7.698-10.844c6.515-5.218,20.213-4.448,26.65-0.09c1.29,0.873,4.307,3.647,5.68,6.476
								c1.695,3.493,2.121,7.259,2.14,11.142c0.013,2.749-0.548,5.284-1.801,8.057C362.852,102.54,360.841,104.391,360.18,106.832z"
								/>
						</g>
						<g>
							<path style="fill:#F28F8F;" d="M329.328,117.833c-5.484-1.023-8.376-6.852-8.498-12.03c-0.11-2.029,0.241-4.341,0.552-6.495
								c0.107-0.713,0.207-1.431,0.393-2.13c-0.019,1.44-0.046,1.744-0.173,3.259c0,0-0.374,1.866-0.102,6.129
								C321.771,110.829,324.548,115.886,329.328,117.833L329.328,117.833z"/>
						</g>
						<path style="fill:#F28F8F;" d="M327.832,99.731l4.496,1.704l5.274-0.658c0,0-2.126-1.466-4.884-1.651
							C329.96,98.942,327.832,99.731,327.832,99.731z"/>
						<path id="XMLID_00000035507653695320013610000003920423604480021940_" style="fill:#263238;" d="M340.053,89.427L343.987,91
							c0.479-1.078-0.014-2.305-1.1-2.739C341.801,87.826,340.531,88.349,340.053,89.427z"/>
						<path style="fill:#263238;" d="M342.112,93.141c-0.001,0.99-0.804,1.793-1.794,1.792c-0.99-0.001-1.793-0.804-1.792-1.795
							c0.001-0.99,0.804-1.793,1.794-1.792S342.113,92.15,342.112,93.141z"/>
						<path id="XMLID_00000163036295499603683670000015879128284484167853_" style="fill:#263238;" d="M329.328,88l-3.944,1.548
							c-0.473-1.081,0.028-2.305,1.118-2.732C327.591,86.388,328.856,86.919,329.328,88z"/>
						<path style="fill:#263238;" d="M325.486,91.902c-0.114,0.984,0.591,1.874,1.575,1.988c0.984,0.114,1.874-0.591,1.988-1.575
							c0.114-0.984-0.591-1.874-1.575-1.988C326.49,90.214,325.6,90.919,325.486,91.902z"/>
						<path style="fill:#455A64;" d="M363.556,79.229c-4.863-7.917-15.864-11.916-28.09-7.979
							c-16.024,5.177-14.677,28.19-14.636,34.541c0.002-2.828,1.309-6.272,4.399-7.056c3.125-0.785,14.481,0.649,18.003,2.43
							c3.533,1.793,5.248,12.09,0.332,14.584c-5.167,2.63-13.69,1.174-18.627-0.129c3.111,2.933,6.389,3.906,15.351,3.604
							c8.974-0.301,17.37-5.792,18.855-8.892c0.697-2.428,1.428-3.397,4.259-7.739C368.129,95.322,367.361,85.424,363.556,79.229z
							 M330.376,92.969c-0.206,0.923-1.027,1.379-1.894,1.595c-1.767,0.444-3.888,0.168-4.982-1.269
							c-1.276-1.666-0.783-4.607-0.326-6.5c0.126-0.502,0.297-1.015,0.674-1.379c1.301-1.276,3.58,0.778,4.4,1.713
							c0.786,0.901,1.481,1.882,1.891,2.989C330.458,91.03,330.582,92.023,330.376,92.969z M347.458,92.627
							c-1.188,2.428-3.287,4.194-6.092,4.237c-1.528,0.01-3.204-0.264-4.446-1.212c-0.194-0.148-0.365-0.32-0.501-0.502
							c-0.775-1.004-0.842-2.486-0.397-3.661c0.423-1.129,1.267-2.063,2.226-2.781c2.179-1.641,5.076-2.277,7.732-1.728
							C348.762,87.566,348.452,90.598,347.458,92.627z"/>
						<path style="opacity:0.2;" d="M335.466,71.25c12.226-3.937,23.227,0.062,28.09,7.979c3.804,6.194,4.573,16.092-0.153,23.364
							c-2.831,4.342-3.561,5.311-4.259,7.739c-0.736,1.538-3.176,3.663-6.54,5.451c0.53-0.573,1.032-1.171,1.464-1.821
							c2.27-3.413,2.898-7.869,1.659-11.776c-1.053-0.046-2.148-0.179-3.031-0.754c-1.595-1.038-1.618-3.523-0.673-5.023
							c1.168-1.854,2.502-3.604,3.201-5.749c0.798-2.452,0.484-5.243-0.841-7.456c-1.507-2.517-4.256-4.164-7.161-4.436
							c-4.374-0.41-10.484,0.677-13.79,3.824c-1.43-2.473-3.635-4.475-6.205-5.717C329.268,74.384,331.948,72.387,335.466,71.25z"/>
					</g>
				</g>
				<path style="fill:#BA68C8;" d="M349.386,94.28c0.795-1.577,1.219-3.339,1.242-5.105c0.022-1.728-0.316-2.995-1.587-4.221
					c-0.354-0.341-0.77-0.598-1.227-0.786c-1.708-0.705-3.981-0.453-5.654-0.071c-1.783,0.408-3.479,1.106-5.132,1.885
					c0.426-8.678,7.519-16.034,13.578-15.624c-3.325-0.76-7.012-0.86-10.894-0.164c-6.453,3.37-9.008,10.462-9.223,15.556
					c-0.407-0.405-0.805-0.818-1.223-1.158c-0.4-0.326-4.921-3.073-5.21-2.41c-1.507,3.458-2.324,7.262-2.756,10.849
					c0.633,1.238,1.516,2.34,2.643,3.152c-0.802,0.115-2.32,1.272-2.872,1.866c-0.067,0.073-0.157,0.169-0.219,0.242
					c-0.122,3.195-0.032,5.898-0.022,7.511c0.002-2.828,1.148-4.798,4.238-5.583c3.125-0.785,13.52,0.157,17.043,1.939
					c3.158,1.602,5.969,8.988,2.787,12.534c2.808-1.829,3.132-5.046,3.285-6.057c0.29-1.92-0.007-4.457-0.668-6.29
					c-0.623-1.729-1.848-3.303-3.538-4.024C347.101,98.117,348.898,95.25,349.386,94.28z M330.376,92.969
					c-0.206,0.924-1.027,1.379-1.894,1.595c-1.767,0.444-3.888,0.168-4.982-1.269c-1.276-1.666-0.783-4.607-0.326-6.5
					c0.126-0.502,0.297-1.015,0.674-1.379c1.301-1.276,3.58,0.778,4.4,1.713c0.786,0.901,1.481,1.882,1.891,2.989
					C330.458,91.031,330.582,92.022,330.376,92.969z M341.366,96.865c-1.528,0.01-3.204-0.264-4.446-1.212
					c-0.194-0.148-0.364-0.319-0.501-0.502c-0.774-1.004-0.842-2.486-0.397-3.661c0.423-1.129,1.267-2.063,2.226-2.781
					c2.179-1.64,5.076-2.277,7.732-1.728c2.782,0.583,2.472,3.616,1.478,5.645C346.27,95.055,344.171,96.821,341.366,96.865z"/>
				<path style="fill:#BA68C8;" d="M335.205,100.441l-4.727-0.445l4.326-11.588C334.339,93.159,334.686,97.424,335.205,100.441z"/>
				<path style="opacity:0.2;" d="M335.205,100.441l-4.727-0.445l4.326-11.588C334.339,93.159,334.686,97.424,335.205,100.441z"/>
				<path style="fill:#B16668;" d="M332.664,106.106c0.148-0.259,0.996-0.136,1.262-0.144c0.368-0.012,0.735-0.034,1.101-0.077
					c0.545-0.064,1.091-0.132,1.624-0.283c0.488-0.139,0.97-0.333,1.43-0.564c0.549-0.277,1.056-0.68,1.637-0.86
					c0.188-0.058,0.38,0.091,0.326,0.326c-0.169,0.734-0.888,1.173-1.453,1.503c-0.584,0.341-1.2,0.564-1.839,0.733
					c-0.677,0.179-1.356,0.258-2.051,0.265c-0.374,0.004-0.746-0.025-1.119-0.06c-0.329-0.031-0.735-0.036-1.017-0.251
					C332.301,106.493,332.565,106.279,332.664,106.106z"/>
			</g>
			<g id="Cape_00000015330902834000233470000011988330038153825693_">
				<g>
					<path style="fill:#BA68C8;" d="M376.551,125.546c-6.128,0.224-25.942,7.018-39.257,14.715c0,0-13.555-11.265-13.555-20.797
						c0,0,2.632-1.41,5.589,1.23c1.23-2.025,4.26-1.57,4.26-1.57l0.161,2.756c0,0,0.65,10.171,3.911,15.653
						c8.453-9.373,21.471-19.687,21.471-19.687c-0.108-0.652-0.155-1.316-0.152-1.991c0,0,5.513-0.704,6.401,1.522
						c0,0,6.796-0.647,8.689,3.465c5.223-1.396,15.299,4.617,14.306,10.362C384.372,125.335,376.551,125.546,376.551,125.546z"/>
					<path style="opacity:0.2;" d="M376.551,125.546c-6.128,0.224-25.942,7.018-39.257,14.715c0,0-13.555-11.265-13.555-20.797
						c0,0,2.632-1.41,5.589,1.23c1.23-2.025,4.26-1.57,4.26-1.57l0.161,2.756c0,0,0.65,10.171,3.911,15.653
						c8.453-9.373,21.471-19.687,21.471-19.687c-0.108-0.652-0.155-1.316-0.152-1.991c0,0,5.513-0.704,6.401,1.522
						c0,0,6.796-0.647,8.689,3.465c5.223-1.396,15.299,4.617,14.306,10.362C384.372,125.335,376.551,125.546,376.551,125.546z"/>
					<path style="opacity:0.2;" d="M340.557,137.142c-0.026,0.029,0.012,0.122,0.047,0.089c4-3.804,8.35-7.199,13.167-9.911
						c2.048-1.154,4.197-2.14,6.159-3.443c1.685-1.118,3.564-2.65,4.298-4.603c0.042-0.111-0.067-0.379-0.183-0.208
						c-0.668,0.982-1.276,1.925-2.157,2.738c-0.903,0.833-1.925,1.53-2.975,2.163c-1.987,1.198-4.095,2.181-6.096,3.355
						C348.287,129.976,344.097,133.262,340.557,137.142z M343.964,135.613c-0.047,0.045-0.009,0.202,0.066,0.158
						c2.156-1.265,4.165-2.752,6.352-3.974c2.172-1.213,4.414-2.29,6.682-3.31c4.779-2.149,9.69-3.99,14.485-6.102
						c0.1-0.044,0.045-0.295-0.075-0.251c-4.877,1.79-9.736,3.716-14.482,5.827c-2.275,1.012-4.516,2.107-6.689,3.325
						C348.091,132.526,345.801,133.848,343.964,135.613z M329.224,122.831c0.969,5.162,2.389,10.776,6.413,14.456
						c0.061,0.056,0.076-0.066,0.045-0.103c-3.479-4.146-4.946-9.336-6.209-14.498C329.416,122.454,329.193,122.668,329.224,122.831
						z"/>
				</g>
				<g>
					<path style="fill:#FFFFFF;" d="M331.207,138.557c0,3.217,2.608,5.825,5.825,5.825c3.217,0,5.825-2.608,5.825-5.825
						c0-3.217-2.608-5.825-5.825-5.825C333.815,132.732,331.207,135.34,331.207,138.557z"/>
				</g>
				<polygon style="opacity:0.35;fill:#BA68C8;" points="337.581,136.38 339.514,134.804 338.744,137.201 341.25,137.1 
					339.219,138.547 341.323,139.951 338.824,139.895 339.724,142.237 337.718,140.727 337.1,143.095 336.33,140.732 
					334.455,142.236 335.185,139.916 332.766,139.998 334.711,138.588 332.655,137.208 335.089,137.247 334.183,134.903 
					336.183,136.401 336.802,133.97 				"/>
			</g>
		</g>
	</g>
</g>
</svg>
