<?xml version="1.0" encoding="utf-8"?>
<!-- Generator: Adobe Illustrator 27.5.0, SVG Export Plug-In . SVG Version: 6.00 Build 0)  -->
<svg version="1.1" xmlns="http://www.w3.org/2000/svg" xmlns:xlink="http://www.w3.org/1999/xlink" x="0px" y="0px"
	 viewBox="0 0 500 500" style="enable-background:new 0 0 500 500;" xml:space="preserve">
<g id="Floor">
	<path id="Floor_3_" style="fill:#F5F5F5;" d="M81.136,443.919c-93.815-56.618-93.816-148.413-0.002-205.03
		c93.814-56.617,245.917-56.617,339.732,0c93.814,56.617,93.815,148.412,0.002,205.03
		C327.054,500.537,174.951,500.537,81.136,443.919z"/>
</g>
<g id="Shadow">
	<path id="Shadow_35_" style="fill:#E0E0E0;" d="M257.831,382.836c3.07-0.783,6.115-1.85,9.283-1.932
		c6.468-0.168,12.787,4.295,14.792,10.447c1.003,3.076,1.02,6.464,2.453,9.365c2.548,5.156,8.634,7.25,13.347,10.547
		c3.652,2.555,6.599,5.978,9.962,8.904c5.037,4.382,11.21,7.698,17.854,8.346c6.645,0.648,12.556,0.421,18.504-2.611
		c3.135-1.598,5.308-4.559,5.931-6.054c2.305-5.532-3.881-8.886,2.305-6.994c7.507,2.297,22.405-0.078,25.029-6.144
		c3.236-7.481-0.029-11.442-5.927-14.997c-7.203-4.341-17.331-8.779-22.756-13.023c-4.448-3.479-13.382-11.999-17.7-15.638
		c-14.482-12.205-21.997-13.616-37.173-20.806c-12.598-5.969-28.705-7.093-42.562-7.703c-15.448-0.68-31.179,1.017-45.522,7.072
		c-4.206,1.776-8.428,4.051-11.027,7.805c-2.443,3.529-3.163,8.195-1.898,12.296c2.162,7.01,10.833,11.821,17.053,14.753
		C224.415,383.37,241.927,386.894,257.831,382.836z"/>
</g>
<g id="Pictures">
	<g id="Pictures_2_">
		<g id="Picture_17_">
			<g id="Frame_18_">
				<polygon id="XMLID_3577_" style="fill:#FAFAFA;" points="30.637,142.165 32.601,143.335 72.886,120.076 70.923,118.905 				"/>
				<g id="XMLID_3572_">
					<g id="XMLID_3573_">
						<g id="XMLID_3574_">
							<polygon id="XMLID_3575_" style="fill:#FFFFFF;" points="70.923,118.905 32.601,141.026 32.602,100.895 70.924,78.788 
															"/>
						</g>
					</g>
				</g>
				<path id="XMLID_3559_" style="fill:#F0F0F0;" d="M76.592,71.22L28.896,98.757l0,50.994l47.695-27.537L76.592,71.22z
					 M72.886,120.076l-40.285,23.259l0.001-42.44l40.285-23.259L72.886,120.076z"/>
				<polygon id="XMLID_3558_" style="fill:#E0E0E0;" points="72.886,120.076 70.923,118.905 70.924,78.788 72.886,77.636 				"/>
				<polygon id="XMLID_3556_" style="fill:#FAFAFA;" points="76.592,71.22 74.598,70.079 26.903,97.616 28.896,98.757 				"/>
				<polygon id="XMLID_3555_" style="fill:#E0E0E0;" points="26.903,97.616 28.896,98.757 28.896,149.751 26.903,148.61 				"/>
			</g>
			<g id="Land_17_">
				<polygon style="fill:#F0F0F0;" points="69.427,117.705 34.098,138.104 34.098,127.904 42.931,107.507 48.433,112.606 
					46.454,121.155 58.653,95.066 69.427,107.507 				"/>
				<path style="fill:#F0F0F0;" d="M48.101,97.658c-1.443,0.833-2.613,2.859-2.613,4.526c0,1.666,1.17,2.342,2.613,1.509
					c1.443-0.833,2.613-2.859,2.613-4.526C50.714,97.5,49.544,96.825,48.101,97.658z"/>
			</g>
		</g>
		<g id="Picture_16_">
			<g id="Frame_17_">
				<polygon id="XMLID_3552_" style="fill:#FAFAFA;" points="98.999,90.358 100.962,91.529 141.247,68.27 139.285,67.099 				"/>
				<g id="XMLID_3523_">
					<g id="XMLID_3542_">
						<g id="XMLID_3548_">
							<polygon id="XMLID_3551_" style="fill:#FFFFFF;" points="139.285,67.099 100.963,89.219 100.963,49.089 139.285,26.982 
															"/>
						</g>
					</g>
				</g>
				<path id="XMLID_3497_" style="fill:#F0F0F0;" d="M144.953,19.414L97.258,46.95l0,50.994l47.695-27.537L144.953,19.414z
					 M141.247,68.27l-40.285,23.259l0.001-42.44l40.285-23.259L141.247,68.27z"/>
				<polygon id="XMLID_3493_" style="fill:#E0E0E0;" points="141.247,68.27 139.285,67.099 139.285,26.982 141.248,25.83 				"/>
				<polygon id="XMLID_3489_" style="fill:#FAFAFA;" points="144.953,19.414 142.96,18.272 95.264,45.809 97.258,46.95 				"/>
				<polygon id="XMLID_3488_" style="fill:#E0E0E0;" points="95.264,45.809 97.258,46.95 97.258,97.945 95.264,96.803 				"/>
			</g>
			<g id="Land_16_">
				<polygon style="fill:#F0F0F0;" points="137.789,65.899 102.459,86.297 102.459,76.098 111.293,55.701 116.795,60.8 
					114.815,69.349 127.015,43.26 137.789,55.701 				"/>
				<path style="fill:#F0F0F0;" d="M116.462,45.851c-1.443,0.833-2.613,2.86-2.613,4.526c0,1.666,1.17,2.342,2.613,1.509
					c1.443-0.833,2.613-2.86,2.613-4.526C119.075,45.694,117.905,45.018,116.462,45.851z"/>
			</g>
		</g>
	</g>
</g>
<g id="Window">
	<g id="Window_2_">
		<polygon id="XMLID_3458_" style="fill:#FAFAFA;" points="465.686,214.377 462.541,216.251 344.967,148.054 348.11,146.178 		"/>
		<g id="XMLID_1311_">
			<g id="XMLID_3234_">
				<g id="XMLID_3235_">
					<polygon id="XMLID_3236_" style="fill:#FFFFFF;" points="348.11,146.178 462.54,212.553 462.54,98.573 348.11,32.222 					"/>
				</g>
			</g>
		</g>
		<polygon id="XMLID_1310_" style="fill:#F0F0F0;" points="405.239,62.027 405.239,179.702 399.304,176.278 399.304,58.601 		"/>
		<polygon id="XMLID_1309_" style="fill:#E0E0E0;" points="408.204,60.306 405.239,62.027 405.239,179.702 408.204,177.981 		"/>
		<path id="XMLID_1178_" style="fill:#F0F0F0;" d="M339.032,151.478l129.442,75.049l0.001-131.378L339.033,20.1L339.032,151.478z
			 M344.967,30.377L462.54,98.573l0.001,117.678l-117.574-68.197V30.377z"/>
		<polygon id="XMLID_1177_" style="fill:#E0E0E0;" points="344.967,148.054 348.11,146.178 348.11,32.222 344.967,30.377 		"/>
		<polygon id="XMLID_1162_" style="fill:#FAFAFA;" points="339.033,20.1 342.225,18.272 471.668,93.321 468.475,95.149 		"/>
		<polygon id="XMLID_803_" style="fill:#E0E0E0;" points="471.668,93.321 468.475,95.149 468.474,226.527 471.667,224.699 		"/>
		<polygon id="XMLID_796_" style="fill:#E0E0E0;" points="405.238,65.444 399.32,62.027 399.32,65.452 405.239,68.869 		"/>
		<polygon id="XMLID_411_" style="opacity:0.15;" points="405.239,68.869 408.204,67.156 405.238,65.444 		"/>
	</g>
</g>
<g id="Character">
	<g id="Character_5_">
		<g id="Top">
			<g id="Arm_12_">
				<path style="fill:#37474F;" d="M250.434,239.875c8.916,0.791,11.309,0.971,17.496,2.857c17.002,5.182,33.107,9.598,33.107,9.598
					s17.387,15.481,12.418,17.846c-2.221,1.057-12.752,2.44-30.253,1.682c-18.082-0.783-27.433-1.234-27.433-1.234L250.434,239.875z
					"/>
				<g>
					<path style="fill:#FFBDA7;" d="M256.172,197.076c-0.136-2.435-0.294-4.869-0.434-7.306c-0.059-1.023-0.117-2.056,0.046-3.067
						c0.163-1.012,0.567-2.015,1.309-2.721c0.529-0.504,1.471-0.795,1.936-0.231c0.139,0.168,0.205,0.383,0.268,0.591
						c1.17,3.876,2.341,7.753,3.511,11.629c0.38,1.259,0.762,2.522,1.31,3.718c0.533,1.163,1.248,2.297,1.474,3.575
						c0.235,1.333,0.432,2.189,0.911,3.987c0.331,1.242,0.619,2.45,0.987,3.681c0.789,2.644,1.63,4.745,4.597,9.095
						c4.665,6.839,24.194,15.181,36.064,25.717c4.526,4.018,6.976,7.617,8.354,13.467c1.815,7.706-1.387,11.79-5.983,11.296
						c-5.537-0.595-15.142-3.847-21.849-11.004c-11.089-11.831-20.726-24.097-26.615-29.657c-1.429-1.538-4.221-2.801-5.094-3.882
						c-1.713-2.121-2.286-4.15-2.279-6.874c0.007-2.732,0.691-5.403,1.076-8.093c0.315-2.197,0.763-4.235,0.717-6.47
						C256.427,202.041,256.311,199.559,256.172,197.076z"/>
					<path style="fill:#F0997A;" d="M263.124,197.002L263.124,197.002c-0.107-0.344-0.212-0.688-0.315-1.031
						c-1.17-3.877-2.341-7.753-3.511-11.629c-0.063-0.209-0.129-0.423-0.268-0.591c-0.466-0.564-1.407-0.273-1.936,0.231
						c-0.742,0.707-1.146,1.71-1.309,2.721c-0.163,1.012-0.105,2.044-0.046,3.067c0.14,2.437,0.298,4.871,0.434,7.306
						c0.139,2.483,0.255,4.966,0.306,7.451c0.045,2.235-0.402,4.273-0.718,6.47c-0.386,2.69-1.069,5.361-1.077,8.093
						c-0.007,2.724,0.566,4.753,2.279,6.874c0.446,0.553,1.394,1.153,2.404,1.813C264.865,220.521,264.408,202.033,263.124,197.002z
						"/>
				</g>
			</g>
			<g id="Chest_2_">
				<path id="Hair_1_" style="fill:#263238;" d="M226.298,167.244c-2.504-5.054-15.298-5.783-21.717,1.844
					c-6.419,7.627-1.689,7.996-11.346,15.535c-4.841,3.779-8.145,11.214-4.73,19.093c3.415,7.879-1.71,10.813-2.855,16.53
					c-1.145,5.717-0.104,9.021,4.221,15.325c4.326,6.303-2.459,12.692,1.389,22.304c3.847,9.612,24.907,13.824,35.949,5.742
					c11.042-8.082,11.275-17.22,8.228-25.726c-3.048-8.507,1.652-12.82,3.042-22.653c1.39-9.832-1.058-17.189-5.139-24.816
					C229.257,182.794,226.298,167.244,226.298,167.244z"/>
				<g>
					<path style="fill:#455A64;" d="M192.113,304.274c1.407,23.41,3.254,40.525,16.672,54.764l58.375-40.996l-0.707-28.545
						L192.113,304.274z"/>
					<g>
						<path style="fill:#BA68C8;" d="M208.03,239.955c0,0,11.214-0.853,17.732-1.102c5.431-0.208,14.44-0.132,24.672,1.022
							c0,0,8.494,7.317,16.398,19.916c6.433,10.254,7.086,17.246,5.729,22.773c-2.847,11.593-7.717,13.321-7.717,13.321
							c0.306,7.747,0.161,13.543-0.031,17.57c-6.048,4.985-19.572,6.547-34.848,8.162c-12.427,1.314-27.092,9.82-32.134,19.833
							c-4.503-10.688-6.73-36.649-6.562-45.3c0.273-14.073,0.977-18.471,3.347-29.299
							C199.594,244.101,202.458,241.82,208.03,239.955z"/>
					</g>
					<path style="fill:#37474F;" d="M270.252,266.048c-0.446-0.61-2.207-8.174-5.15-11.79
						c-9.451-11.613-14.668-14.382-14.668-14.382c-10.231-1.154-19.241-1.23-24.671-1.022c-6.519,0.249-17.732,1.102-17.732,1.102
						c-0.719,0.24-1.418,0.505-2.103,0.83c-0.902,5.881-13.465,42.591-6.695,39.893c9.759-3.889,20.827-30.025,20.827-30.025
						s6.291,7.492,18.273,6.366c9.744-0.916,12.423-7.023,10.362-9.711C248.694,247.308,263.771,254.763,270.252,266.048z"/>
				</g>
				<g>
					<path style="fill:#BA68C8;" d="M212.876,180.443c-4.508-4.154,4.831-12.558,11.402-13.152s5.928,4.64,5.928,4.64
						L212.876,180.443z"/>
					<path style="fill:#263238;" d="M264.052,179.626c-3.059-4.514-8.55-6.115-11.66-4.675c-2.772-3.823-8.43-6.042-13.107-6.375
						c-17.865-1.273-23.724,7.479-24.732,10.747c-8.475,1.106-18.08,15.03-9.722,31.165c3.646,7.038,11.629,15.437,12.275,19.488
						l10.157-1.324c0,0,0.775-11.833,13.107-16.53c12.332-4.697,19.314-7.635,21.205-10.106
						C269.229,194.473,267.11,184.139,264.052,179.626z"/>
					<g>
						<g id="XMLID_790_">
							<g id="XMLID_1271_">
								<path id="XMLID_1276_" style="fill:#FFBDA7;" d="M261.587,193.375c0.402,1.894,0.628,3.956,0.783,5.89
									c0.307,3.843,0.415,8.024,0.22,11.87c-0.716,14.085-5.087,18.447-8.862,20.177c-2.355,1.079-6.583,2.085-11.174,1.093
									l-0.417,8.369c0,0,10.212,9.73-1.292,12.919c-4.385,1.215-11.781,0.633-16.804-3.402c-5.102-4.099-6.88-8.612-6.88-8.612
									l-0.095-19.929c0,0-5.75,2.902-9.831-1.657c-3.761-4.202-4.375-9.477-1.186-12.948c3.189-3.472,9.209-2.91,12.108,1.882
									c2.065,3.414,2.49,0.668,3.781-3.144c1.34-3.954,3.109-5.237,4.454-7.289c4.564-6.96,1.977-8.095,6.948-12.805
									c2.108-1.997,7.655-3.072,11.422,0.444c0.587,0.548,1.338,1.296,1.982,1.795
									C250.836,181.853,259.48,183.452,261.587,193.375z"/>
							</g>
							<path style="fill:#263238;" d="M249.117,185.593c-2.438,1.778-1.013,6.879-2.365,10.834c-0.908,2.658-2.838,5.503-6.09,5.503
								c3.049-2.461,4.061-5.332,4.061-8.671c0-3.372-0.85-6.882,0.747-8.913C247.068,182.314,249.117,185.593,249.117,185.593z"/>
							<path style="fill:#F0997A;" d="M233.753,205.636c-0.33,1.869,0.917,3.652,2.786,3.983c1.869,0.331,3.652-0.917,3.983-2.786
								c0.33-1.869-0.917-3.652-2.786-3.983C235.867,202.52,234.084,203.767,233.753,205.636z"/>
							<path style="fill:#F0997A;" d="M252.739,206.083c0.448,1.79,2.263,2.877,4.052,2.429c1.79-0.448,2.877-2.263,2.429-4.052
								c-0.448-1.79-2.263-2.877-4.052-2.429C253.378,202.479,252.291,204.293,252.739,206.083z"/>
							<path style="fill:#263238;" d="M235.669,205.285c0.566,1.179,1.981,1.677,3.16,1.111c1.179-0.566,1.677-1.981,1.111-3.16
								c-0.566-1.179-1.404-0.787-2.584-0.221C236.177,203.58,235.103,204.105,235.669,205.285z"/>
							<path style="fill:#263238;" d="M252.732,203.057c-0.364,1.257,0.361,2.57,1.617,2.934c1.257,0.364,2.57-0.361,2.934-1.617
								c0.363-1.257-0.68-1.724-1.867-2.274C253.836,201.366,253.096,201.8,252.732,203.057z"/>
							<g id="XMLID_779_">
								<path id="XMLID_787_" style="fill:#263238;" d="M233.339,199.339l4.77-3.278c0.886,1.376,0.536,3.225-0.781,4.13
									C236.01,201.097,234.225,200.715,233.339,199.339z"/>
								<path id="XMLID_784_" style="fill:#263238;" d="M253.338,195.524l4.851,3.239c-0.851,1.384-2.627,1.78-3.966,0.886
									C252.883,198.754,252.487,196.908,253.338,195.524z"/>
								<polygon id="XMLID_783_" style="fill:#F0997A;" points="244.818,200.185 246.432,213.736 253.836,210.945 								"/>
							</g>
							<path style="fill:#B16668;" d="M246.753,222.157c-1.375,0.911-2.216-0.467-4.622-1.467c-2.406-1-4.677,0.188-4.356-1.811
								c0.339-2.112,4.056-3.333,6.462-2.333C246.642,217.546,248.316,221.121,246.753,222.157z"/>
							<path style="fill:#F28F8F;" d="M242.317,220.492c0.235,0.098,0.443,0.218,0.65,0.339c0.156-1.586-0.952-3.032-2.546-3.263
								c-0.842-0.122-1.443,0.005-2.065,0.49c-0.126,0.177-0.257,0.449-0.309,0.65C237.541,220.669,239.911,219.492,242.317,220.492
								z"/>
							<g id="XMLID_791_">
								<path id="XMLID_793_" style="fill:#F0997A;" d="M242.552,232.406c-10.752-2.358-20.575-6.822-23.001-12.735
									c0.203,0.589,0.501,5.53,5.129,8.54c6.304,4.101,17.714,7.359,17.714,7.359L242.552,232.406z"/>
							</g>
						</g>
					</g>
				</g>
			</g>
			<g id="Arm_11_">
				<path style="fill:#37474F;" d="M209.092,239.875c-12.23,0.241-15.028,2.658-24.573,7.931
					c-4.523,2.499-22.657,11.56-22.657,11.56l-9.679,17.895l3.39,4.895c7.235,1.721,15.986-2.457,30.076-4.256
					c5.619-0.718,6.719,0.635,7.852,2.315c1.582,2.348,6.952,1.361,10.49-3.692C210.224,267.623,214.118,249.188,209.092,239.875z"
					/>
				<g>
					<path style="fill:#F0997A;" d="M200.925,219.725c0.18-2.919-0.716-6.898-0.688-9.695c0.028-2.797,1.063-7.228,0.933-10.725
						c-0.13-3.492,0.3-3.892,1.655-3.759c1.111,0.109,2.808,2.286,2.718,6.022C205.476,204.344,204.758,217.36,200.925,219.725z"/>
					<path style="fill:#FFBDA7;" d="M206.234,197.429c-0.691,2.013-2.09,4.046-2.682,6.094c-0.619,2.14-0.424,3.107-0.696,7.186
						c-0.211,3.175,0.13,5.968-3.103,10.122c-5.788,7.436-28.19,19.491-40.96,32.601c-4.87,5-7.386,9.343-8.481,16.187
						c-1.443,9.015,2.581,13.444,7.826,12.491c6.318-1.148,17.093-5.691,24.209-14.483c11.764-14.535,22.847-28.876,29.156-35.763
						c1.515-1.889,3.593-4.147,4.508-5.463c1.711-2.464,2.117-5.857,2.064-8.853c-0.087-4.963,1.447-8.935,1.018-11.145
						c0.117-2.143,0.949-5.557,1.677-9.029c0.417-1.986,0.915-3.721-0.01-4.597c-0.231-0.219-0.699-0.41-0.699-0.41
						s0.038-0.259,0.047-0.368c0.056-0.728,0.145-1.461,0.053-2.185c-0.092-0.724-0.242-1.412-0.793-1.89
						c-0.306-0.265-0.652-0.35-0.652-0.35s0.044-0.201,0.095-0.468c0.139-0.722,0.152-1.478-0.029-2.191
						c-0.181-0.713-0.611-1.388-1.26-1.733c-0.649-0.346-1.525-0.296-2.05,0.219c-0.198,0.194-0.337,0.439-0.473,0.68
						c-0.341,0.603-0.682,1.205-1.023,1.808c-0.932-0.556-1.438-0.063-2.122,0.682c-0.834,0.908-1.509,1.951-2.257,2.93
						c-0.344,0.451-0.69,0.906-0.952,1.409c-0.232,0.445-0.396,0.921-0.559,1.395C207.493,194.024,206.82,195.721,206.234,197.429z"
						/>
					<path style="fill:#B16668;" d="M216.01,226.401c0.881-1.467,1.355-3.115,1.6-4.78c0.256-1.678,0.243-3.347,0.219-5.073
						c0.062-1.721,0.282-3.429,0.604-5.106c0.161-0.839,0.335-1.673,0.476-2.51c0.151-0.835,0.267-1.678,0.183-2.529
						c0.339,1.7-0.079,3.427-0.279,5.102c-0.243,1.684-0.462,3.366-0.484,5.055c-0.018,1.679,0.003,3.437-0.341,5.125
						C217.661,223.371,217.066,225.046,216.01,226.401z"/>
					<g>
						<path style="fill:#F0997A;" d="M213.975,185.89c-0.643,1.385-1.367,2.73-2.113,4.061l-1.125,1.984
							c-0.175,0.329-0.373,0.667-0.476,0.989c-0.114,0.348-0.207,0.719-0.302,1.084c-0.404,1.462-0.744,2.948-1.131,4.422
							l-0.585,2.21c-0.118,0.356-0.165,0.754-0.402,1.092c-0.232,0.339-0.599,0.494-0.885,0.743
							c0.253-0.287,0.599-0.492,0.775-0.813c0.182-0.311,0.194-0.704,0.276-1.077l0.447-2.242c0.307-1.494,0.653-2.977,1.021-4.463
							c0.105-0.37,0.204-0.737,0.334-1.111c0.143-0.401,0.344-0.719,0.532-1.058c0.389-0.663,0.778-1.316,1.192-1.956
							L213.975,185.89z"/>
						<path style="fill:#F0997A;" d="M218.714,187.574c-0.373-0.034-0.771-0.042-1.079,0.142c-0.321,0.189-0.436,0.521-0.583,0.887
							c-0.322,0.693-0.675,1.36-1.012,2.037c-0.665,1.367-1.449,2.635-1.73,4.122l-1.254,4.354c-0.207,0.725-0.405,1.453-0.58,2.186
							c-0.168,0.73-0.39,1.467-0.344,2.221c-0.159-0.753,0.017-1.521,0.105-2.269c0.128-0.749,0.285-1.491,0.448-2.232
							c0.334-1.479,0.75-2.936,1.144-4.396c0.114-0.372,0.196-0.704,0.324-1.1c0.136-0.374,0.301-0.718,0.467-1.063
							c0.343-0.682,0.695-1.354,1.081-2.006c0.379-0.655,0.771-1.304,1.13-1.962c0.161-0.308,0.359-0.732,0.741-0.896
							C217.947,187.423,218.352,187.49,218.714,187.574z"/>
						<path style="fill:#F0997A;" d="M220.06,192.366c-0.277-0.004-0.56,0.04-0.734,0.242c-0.174,0.189-0.323,0.435-0.431,0.67
							c-0.224,0.487-0.392,1.016-0.56,1.538c-0.165,0.529-0.331,1.046-0.53,1.583c-0.176,0.475-0.297,1.034-0.429,1.562
							c-0.27,1.069-0.525,2.143-0.818,3.21c-0.261,1.082-0.735,2.101-0.548,3.217c-0.169-0.53-0.218-1.102-0.135-1.672l0.309-1.631
							c0.205-1.087,0.448-2.166,0.708-3.244c0.147-0.54,0.256-1.067,0.479-1.624l0.605-1.532c0.215-0.513,0.421-1.029,0.706-1.523
							c0.159-0.248,0.331-0.462,0.558-0.653C219.471,192.302,219.798,192.308,220.06,192.366z"/>
					</g>
				</g>
			</g>
		</g>
		<g id="Bottom_1_">
			<g>
				<g id="XMLID_667_">
					<path id="XMLID_778_" style="fill:#FFBDA7;" d="M367.749,397.178c-0.168,1.295-0.976,2.435-1.964,3.289
						c-2.337,2.02-5.572,2.608-8.652,2.822c-2.929,0.204-5.901,0.137-8.759-0.537c-2.858-0.674-5.607-1.983-7.713-4.031
						c-1.671-1.624-2.883-3.649-4.211-5.563c-1.028-1.481-2.159-2.934-3.596-4.043c-0.653-0.504-1.36-0.751-2.048-1.168
						c-0.804-0.487-1.577-1.023-2.389-1.499c-2.039-1.194-4.269-2.225-5.749-4.067c-2.586-3.217-2.043-7.481-2.072-11.316
						c-0.007-0.937,0-1.874,0.012-2.81l-0.245-1.471c-1.062-7.251-7.792-30.571-9.15-35.037l26.12-3.009
						c0.212,8.737,1.035,26.935,1.849,33.033c0.325,2.438,0.737,4.955,1.682,7.241c1.612,3.901,4.478,7.511,7.292,10.621
						c1.925,2.127,4.044,4.069,6.227,5.927c1.036,0.882,2.219,1.491,3.399,2.162c2.281,1.27,4.923,2.37,7.021,3.891
						C366.535,392.872,368.04,394.932,367.749,397.178z"/>
					<g>
						<path style="fill:#263238;" d="M319.739,384.315c0,0,0.005,1.746,0.435,2.629c0.67,1.377,6.125,4.117,8.197,5.068
							c2.072,0.951,4.342,2.322,6.393,6.421c2.192,4.38,6.36,7.459,11.077,9.465c4.717,2.006,11.653,3.224,19.92,1.497
							c8.267-1.727,8.804-6.644,8.804-6.644s0.308-4.62-1.78-5.29C370.696,396.79,319.739,384.315,319.739,384.315z"/>
						<path id="XMLID_777_" style="fill:#37474F;" d="M320.263,366.269c-0.924,0.082-1.186,0.594-1.028,1.541
							c0.062,0.37,0.451,4.394,0.302,6.654c-0.159,2.418-0.935,6.944,0.201,9.852c4.529,4.335,11.456,5.267,14.925,9.806
							c3.469,4.539,6.722,10.234,17.666,12.09c10.944,1.856,19.104-1.834,21.028-4.987c1.924-3.153,0.005-6.021-7.074-9.59
							c-7.515-3.789-17.592-15.424-17.597-15.429c-1.394-1.61-2.658-3.424-3.829-5.201c-1.139-1.727-1.678-3.945-2.539-5.838
							c-0.408-0.895-0.884-1.837-1.742-2.317c-0.859-0.48-1.91-0.393-2.889-0.291c-1.565,0.162-3.145,0.328-4.635,0.833
							c-1.49,0.505-2.903,1.387-3.755,2.709c-0.617,0.956-0.919,2.102-1.628,2.991c-0.951,1.191-2.62,1.759-4.101,1.394
							c-2.182-0.538-3.036-2.603-3.036-2.603L320.263,366.269z"/>
						<path style="fill:#FAFAFA;" d="M345.208,403.812c0,0-0.362-7.615,7.726-12.04c8.088-4.426,13.149-1.861,15.71-0.124
							c3.05,2.069,7.452,6.441,4.947,9.776c-2.706,3.603-7.148,5.404-15.517,5.737C349.705,407.495,345.208,403.812,345.208,403.812
							z"/>
						<g>
							<path style="fill:#FAFAFA;" d="M333.254,378.689c0.289-0.017,0.566-0.16,0.735-0.41c0.896-1.324,6.73-6.346,12.541-4.902
								c0.277-0.674-0.227-1.348-1.432-2.024c-6.073-0.373-11.614,4.35-12.694,5.948c-0.284,0.419-0.157,0.977,0.279,1.246
								C332.861,378.655,333.059,378.7,333.254,378.689z"/>
							<path style="fill:#FAFAFA;" d="M349.957,377.621c-0.118-0.867-1.074-1.779-1.69-1.96c-5.763,0.042-10.9,4.448-11.938,5.98
								c-0.283,0.419-0.157,0.975,0.279,1.246c0.177,0.109,0.376,0.154,0.571,0.143c0.289-0.017,0.566-0.16,0.735-0.41
								C338.784,381.333,344.322,376.576,349.957,377.621z"/>
							<path style="fill:#FAFAFA;" d="M359.27,386.709c-0.511-1.006-1.404-1.79-2.645-2.351c-5.971-0.227-11.381,4.388-12.448,5.965
								c-0.284,0.419-0.157,0.977,0.279,1.246c0.177,0.109,0.376,0.154,0.571,0.143c0.289-0.017,0.566-0.161,0.735-0.41
								C346.708,389.903,353.155,384.392,359.27,386.709z"/>
							<path style="fill:#FAFAFA;" d="M341.103,387.37c0.289-0.017,0.566-0.161,0.734-0.41c0.886-1.309,6.604-6.222,12.347-4.941
								c-0.238-0.845-0.893-1.533-1.993-2.018c-5.766,0.042-10.902,4.448-11.938,5.981c-0.284,0.419-0.157,0.977,0.279,1.245
								C340.709,387.337,340.908,387.382,341.103,387.37z"/>
						</g>
					</g>
				</g>
				<g>
					<path style="fill:#37474F;" d="M240.942,344.927c10.691,17.127,33.391,17.969,46.9,10.515
						c23.94-13.211,41.599-71.015,38.96-84.961c-2.669-14.104-18.013-21.697-41.138,0.676c-12.41,12.007-19.086,24.274-27.95,40.409
						c-4.074,1.839-17.79,10.963-21.016,20.999C237.418,336.829,238.492,340.494,240.942,344.927z"/>
					<path style="fill:#263238;" d="M304.596,275.116c-4.341,5.078-15.264,29.654-16.553,44.714
						c-0.363,4.237-6.604,19.922-12.421,26.424c-10.248,11.453-25.417,8.284-30.849,3.623c11.401,12.401,31.098,12.171,43.069,5.565
						c15.5-8.553,28.51-37.204,35.046-60.132L304.596,275.116z"/>
					<path style="fill:#37474F;" d="M317,257.874c7.61,2.063,15.129,11.073,17.782,38.462c2.41,24.879,3.374,38.921,3.374,38.921
						s-10.508,7.433-24.597,5.352c0,0-3.204-9.122-7.026-22.478c-3.821-13.356-6.772-26.987-3.03-39.865
						C307.246,265.388,317,257.874,317,257.874z"/>
				</g>
			</g>
			<g>
				<g id="XMLID_410_">
					<path id="XMLID_666_" style="fill:#FFBDA7;" d="M340.15,411.263c-0.168,1.295-0.976,2.435-1.964,3.289
						c-2.336,2.02-5.572,2.608-8.652,2.822c-2.929,0.204-5.901,0.137-8.759-0.537c-2.858-0.674-5.607-1.983-7.713-4.03
						c-1.67-1.624-2.883-3.649-4.211-5.563c-1.028-1.481-2.159-2.934-3.596-4.043c-0.653-0.504-1.36-0.751-2.048-1.168
						c-0.804-0.487-1.577-1.023-2.389-1.499c-2.039-1.194-4.269-2.225-5.75-4.067c-2.586-3.217-2.043-7.48-2.072-11.315
						c-0.007-0.937,0-1.874,0.012-2.81l-0.245-1.471c-1.062-7.251-7.792-30.571-9.15-35.037l26.12-3.009
						c0.212,8.737,1.035,26.935,1.848,33.033c0.325,2.438,0.737,4.955,1.682,7.241c1.612,3.9,4.478,7.511,7.292,10.621
						c1.925,2.127,4.044,4.069,6.227,5.927c1.036,0.882,2.219,1.491,3.399,2.162c2.281,1.27,4.923,2.37,7.021,3.891
						C338.937,406.957,340.441,409.017,340.15,411.263z"/>
					<g>
						<path style="fill:#263238;" d="M292.14,398.4c0,0,0.005,1.746,0.435,2.629c0.67,1.377,6.126,4.117,8.197,5.067
							c2.072,0.951,4.342,2.322,6.393,6.421c2.192,4.38,6.36,7.459,11.077,9.465c4.717,2.005,11.653,3.224,19.92,1.497
							c8.267-1.727,8.804-6.644,8.804-6.644s0.308-4.62-1.78-5.29C343.097,410.875,292.14,398.4,292.14,398.4z"/>
						<path id="XMLID_665_" style="fill:#37474F;" d="M292.665,380.354c-0.924,0.082-1.186,0.594-1.028,1.541
							c0.062,0.37,0.451,4.394,0.303,6.654c-0.159,2.418-0.935,6.944,0.201,9.852c4.529,4.336,11.456,5.267,14.925,9.806
							c3.469,4.539,6.722,10.234,17.666,12.09c10.944,1.856,19.104-1.834,21.028-4.987c1.924-3.153,0.005-6.021-7.074-9.59
							c-7.515-3.789-17.592-15.424-17.597-15.429c-1.394-1.61-2.658-3.424-3.829-5.201c-1.139-1.727-1.678-3.945-2.539-5.838
							c-0.408-0.895-0.884-1.837-1.742-2.317c-0.859-0.48-1.91-0.393-2.889-0.291c-1.565,0.162-3.145,0.328-4.635,0.833
							c-1.49,0.505-2.903,1.387-3.755,2.709c-0.617,0.956-0.919,2.102-1.628,2.991c-0.951,1.191-2.62,1.759-4.101,1.394
							c-2.182-0.538-3.036-2.603-3.036-2.603L292.665,380.354z"/>
						<path style="fill:#FAFAFA;" d="M317.609,417.897c0,0-0.362-7.614,7.726-12.04c8.088-4.426,13.149-1.861,15.71-0.124
							c3.05,2.069,7.452,6.441,4.947,9.776c-2.706,3.603-7.148,5.404-15.517,5.738C322.107,421.58,317.609,417.897,317.609,417.897z
							"/>
						<g>
							<path style="fill:#FAFAFA;" d="M305.655,392.773c0.289-0.017,0.566-0.16,0.735-0.41c0.896-1.324,6.73-6.346,12.541-4.902
								c0.277-0.674-0.227-1.348-1.432-2.024c-6.073-0.373-11.614,4.35-12.694,5.948c-0.283,0.419-0.157,0.977,0.279,1.246
								C305.262,392.74,305.46,392.785,305.655,392.773z"/>
							<path style="fill:#FAFAFA;" d="M322.358,391.706c-0.117-0.867-1.074-1.779-1.69-1.96c-5.763,0.042-10.9,4.448-11.938,5.98
								c-0.283,0.419-0.157,0.975,0.279,1.246c0.177,0.109,0.376,0.154,0.57,0.143c0.289-0.017,0.566-0.16,0.735-0.41
								C311.185,395.418,316.723,390.661,322.358,391.706z"/>
							<path style="fill:#FAFAFA;" d="M331.671,400.794c-0.511-1.006-1.404-1.79-2.645-2.351
								c-5.971-0.227-11.381,4.388-12.448,5.965c-0.284,0.419-0.157,0.977,0.279,1.246c0.177,0.109,0.376,0.154,0.571,0.143
								c0.289-0.017,0.566-0.161,0.735-0.41C319.109,403.988,325.556,398.477,331.671,400.794z"/>
							<path style="fill:#FAFAFA;" d="M313.504,401.455c0.289-0.017,0.566-0.161,0.734-0.41c0.886-1.309,6.604-6.222,12.347-4.941
								c-0.238-0.845-0.893-1.533-1.993-2.018c-5.766,0.042-10.902,4.448-11.938,5.981c-0.284,0.419-0.157,0.977,0.279,1.245
								C313.11,401.422,313.309,401.467,313.504,401.455z"/>
						</g>
					</g>
				</g>
				<g>
					<path style="fill:#455A64;" d="M210.523,360.821c18.248,15.07,36.211,16.16,49.72,8.705
						c23.94-13.211,41.96-74.382,39.321-88.327c-2.669-14.104-17.416-16.975-40.54,5.399c-12.41,12.007-21.938,24.047-32.983,40.892
						c-4.074,1.839-21.768,10.95-24.993,20.986C203.55,353.099,205.773,356.365,210.523,360.821z"/>
					<path style="fill:#37474F;" d="M276.997,289.201c-4.341,5.078-7.758,32.962-7.445,48.074
						c0.264,12.801-4.807,24.059-20.149,29.358c-14.527,5.017-28.006,1.082-33.154-1.526c15.074,10.994,32.023,11.026,43.994,4.42
						c15.5-8.554,28.51-37.204,35.046-60.132L276.997,289.201z"/>
					<path style="fill:#455A64;" d="M290.952,270.625c7.61,2.063,15.577,11.148,16.99,35.73c1.434,24.954,2.616,42.987,2.616,42.987
						s-10.508,7.433-24.597,5.352c0,0-3.204-9.122-7.026-22.478c-3.821-13.356-6.772-26.987-3.03-39.865
						C279.647,279.473,290.952,270.625,290.952,270.625z"/>
				</g>
			</g>
		</g>
	</g>
</g>
<g id="Ghosts_1_">
	<g id="Monsters_2_">
		<path style="fill:#263238;" d="M216.943,125.976c-0.654,2.45-1.912,4.771-6.264,5.129c0.552-4.986-1.433-8.133-1.433-8.133
			l-3.493,3.778l-2.671-6.84c0,0-5.894,3.207-9.37,6.884l-2.612-7.219l-6.605,5.115c0,0-1.868-8.152-6.304-14.318
			c0,0-1.589,4.642-5.092,7.592c-0.894-2.312-2.051-4.193-3.558-5.507c0,0-10.293,3.813-11.085,10.238
			c2.63-2.533,5.598-4.47,9.369-4.995l2.586,8.803c0,0,5.319-1.601,7.702-5.095c1.378,3.368,0.69,7.866-0.466,12.62l4.744-2.485
			l0.633,5.268c0,0,4.565-1.337,7.876-3.944c0,0,1.718,4.964,1.351,7.326l8.797-3.196c0,0-1.604,7.04-5.5,8.074
			c-3.896,1.033-8.315,0.928-26.408-0.101c-9.991-0.568-18.825,1.763-28.625,8.568c-8.077,5.609-13.593,13.003-18.636,28.13
			c-1.71,5.128-3.051,17.568,1.07,26.611c7.794,17.103,17.927,24.439,21.243,40.945c0.749,3.727-0.37,9.339-2.447,12.626
			c-1.017,1.609-3.431,4.475-4.419,6.102c-1.914,3.152-1.49,5.827-1.163,9.356c0.223,2.402,0.44,4.869-0.213,7.191
			c-1.252,4.457-5.523,7.752-6.143,12.34c-0.355,2.631,0.624,5.364,2.409,7.329c1.785,1.966,4.315,3.184,6.94,3.586
			c1.842,0.282,3.775,0.172,5.489-0.558c2.487-1.06,4.292-3.304,6.704-4.523c2.391-1.208,5.319-1.298,7.778-0.237
			c2.24,0.966,4.242,2.855,6.679,2.754c2.471-0.103,4.496-2.269,6.967-2.369c3.393-0.137,7.036,4.191,7.601,7.269
			c0.368,2.003,0.048,4.079-0.553,6.025c-0.244,0.792-0.539,1.613-0.398,2.429c0.237,1.37,1.59,2.252,2.172,3.514
			c0.34,0.739,0.399,1.573,0.651,2.347c0.458,1.407,3.274,3.947,4.925,3.161c-1.179,0.561-2.919,0.891-4.108,0.223
			c-1.137-0.639-2.543-1.199-3.109-2.477c-0.305-0.689-0.312-1.486-0.643-2.164c-0.414-0.85-1.266-1.383-2.067-1.885
			c-0.438-0.274-0.884-0.563-1.179-0.988c-0.953-1.372-0.397-3.478-0.856-5.03c-0.919-3.115-4.947-4.738-7.898-3.383
			c-1.613,0.741-2.899,2.176-4.627,2.582c-2.495,0.587-5.053-1.155-7.584-0.754c-2.303,0.366-3.925,2.358-5.704,3.866
			c-3.604,3.057-8.618,4.195-13.234,3.386c-4.501-0.789-9.51-3.414-12.64-6.701c-2.98-3.13-4.946-7.371-8.831-9.556
			c-1.514-0.851-3.245-1.323-4.623-2.379c-4.436-3.398-2.508-8.949,0.408-12.44c2.141-2.563,5.14-5.608,5.085-9.181
			c-0.052-3.376-2.164-6.48-2.13-9.857c0.038-3.876,2.061-7.24,1.64-11.222c-0.381-3.595-2.299-6.948-4.782-9.513
			c-3.39-3.502-7.781-5.823-12.005-8.255c-0.86-0.495-1.717-0.998-2.569-1.507c-8.371-4.999-16.402-10.02-22.967-17.287
			c-5.661-6.266-11.346-13.648-13.956-21.794c-10.084-31.464,11.758-69.114,28.497-93.193c8.392-12.071,22.163-29.113,32.705-39.446
			c11.569-11.34,57.878-32.716,61.607-33.847s18.902-0.347,23.051,0.43c8.337,4.791,11.284,7.027,12.305,8.146
			c1.021,1.118,1.444,11.862,1.227,11.211c-0.217-0.651-3.527-9.447-3.527-9.447l-13.142-5.477c0,0,6.64,6.689,7.939,8.641
			s3.139,12.015,3.139,12.015l-4.434-9.76l-10.815-5.483l5.379,6.547l0.992,6.312l-4.313,8.43l1.174-9.35l-8.275-9.56l-10.203-3.382
			L139.613,73.61c-1.831,3.856-3.663,7.712-5.495,11.568c-2.115,4.454-4.231,8.908-6.346,13.361
			c18.934-11.241,42.471-11.167,49.551-9.921c22.504,3.962,29.471,8.543,36.248,19.826
			C217.475,114.947,217.597,123.526,216.943,125.976z"/>
		<path style="fill:#263238;" d="M193.746,97.909c0,0,38.635-14.707,44.892-16.735c8.772-0.395,19.465,5.289,21.525,5.935
			c2.06,0.646,7.179,10.273,7.659,11.362c0.48,1.089-0.539,9.594-0.539,9.594l-1.52-8.996l-8.747-9.307l4.237,10.329
			c0,0-3.444,11.722-3.987,12.091c-0.542,0.369-5.791,2.206-5.791,2.206l3.657-4.864l1.424-9.64l-8.162-9.121l3.503,11.635
			l-2.558,5.039l-10.511,2.762l7.997-5.252l0.242-5.012l-7.766-10.151l-30.895,19.158"/>
		<path style="fill:#BA68C8;" d="M193.746,110.486c-3.586-1.968-8.187-8.854-8.564-10.001c-0.378-1.147-3.515,4.008-1.031,6.627
			C186.635,109.732,193.746,110.486,193.746,110.486z"/>
		<path style="fill:#BA68C8;" d="M199.898,112.255c4.231,0.755,10.466-2.557,10.724-1.592c0.294,1.101,0.187,3.511-2.383,4.169
			C205.668,115.49,201.032,113.274,199.898,112.255z"/>
		<path style="fill:#263238;" d="M84.381,238.857c1.856,2.121,4.142,3.864,6.678,5.093c2.582,1.251,5.396,1.964,7.993,3.184
			c2.597,1.219,5.078,3.098,6.067,5.792c0.507,1.38,0.593,2.896,1.184,4.241c0.872,1.986,2.779,3.46,3.301,5.565
			c0.763,3.08-1.716,6.104-1.595,9.275c0.076,2.001,1.174,3.799,1.804,5.701c0.63,1.901,0.639,4.332-0.961,5.537
			c1.093-0.981,0.927-2.789,0.203-4.067c-0.724-1.278-1.874-2.264-2.664-3.502c-1-1.567-1.375-3.522-1.025-5.348
			c0.398-2.078,1.66-4.318,0.584-6.141c-0.922-1.562-3.137-1.904-4.193-3.379c-1.505-2.103,0.123-5.1-0.566-7.592
			c-0.569-2.056-2.575-3.337-4.479-4.299c-2.253-1.138-4.597-2.115-6.712-3.492c-2.115-1.378-4.025-3.223-4.936-5.577
			c1.072,0.889,2.143,1.778,3.215,2.667"/>
		<path style="fill:#263238;" d="M145.916,301.453c0.756-0.839,1.345-1.818,2.097-2.669c0.298-0.337,0.632-0.679,1.069-0.786
			c0.719-0.176,1.402,0.335,2.093,0.603c0.701,0.272,1.495,0.294,2.21,0.062c0.527-0.171,1.001-0.471,1.504-0.704
			c0.724-0.335,1.622-0.516,2.286-0.073c0.223,0.149,0.401,0.357,0.618,0.515c1.043,0.759,2.467,0.18,3.558,0.782
			c0.521,0.287,0.92,0.867,1.422,1.224c0.585,0.415,1.234,0.744,1.948,0.859c0.917,0.149,2.005-0.171,2.376-1.022
			c-0.112,0.256-0.951,0.363-1.188,0.384c-0.472,0.043-0.963-0.027-1.399-0.214c-0.863-0.37-1.349-1.891-1.796-2.687
			c-0.283-0.504-0.57-1.013-0.968-1.431c-0.399-0.418-0.927-0.741-1.504-0.775c-0.344-0.02-0.688,0.063-1.032,0.046
			c-1.133-0.053-1.934-1.108-2.964-1.581c-0.57-0.262-1.207-0.34-1.833-0.37c-0.44-0.021-0.9-0.015-1.296,0.178
			c-0.505,0.246-0.821,0.751-1.212,1.154c-0.518,0.533-1.201,0.905-1.931,1.049c-0.778,0.154-1.595,0.056-2.364,0.252
			c-2.398,0.611-2.252,3.012-3.105,4.863c-0.714,1.55-2.081,2.372-3.63,2.899C142.036,304.998,145.187,302.263,145.916,301.453z"/>
	</g>
	<g id="Monsters_1_">
		<path style="fill:#263238;" d="M425.603,326.568c-2.156-2.688-4.809-4.925-7.344-7.26c-3.081-2.837-6.005-5.838-8.928-8.838
			c-3.218-3.302-6.239-7.188-7.199-11.799c-1.007-4.837,0.583-11.452,3.277-15.35c8.319-12.035,17.261-20.861,22.536-29.473
			c7.893-12.889,9.201-24.248,8.956-35.239c-0.482-21.657-14.116-41.46-44.499-65.793c-11.475-9.19-24.264-49.496-27.611-54.02
			c-9.637-13.021-51.139-39.258-54.796-40.607s-18.848-1.462-23.036-0.931c-8.605,4.29-11.679,6.349-12.764,7.405
			c-1.085,1.056-2.142,11.756-1.887,11.119c0.255-0.637,4.079-9.222,4.079-9.222l13.442-4.692c0,0-7.023,6.285-8.435,8.158
			c-1.411,1.872-3.842,11.809-3.842,11.809l5.003-9.481l11.12-4.836l-5.756,6.218l-1.363,6.242l3.808,8.67l-0.62-9.403l8.825-9.055
			l10.385-2.773l41.018,40.148l4.666,37.535c-13.325-6.516-31.428-8.01-38.569-7.184c-22.699,2.627-30.089,6.052-38.506,16.784
			c-3.676,4.686-6.613,11.535-5.84,17.186c0.344,2.513,2.113,5.619,6.437,6.232c-0.257-5.01,1.924-8.766,1.924-8.766l3.263,3.978
			l3.07-6.67c0,0,5.694,3.549,8.948,7.425l3.034-7.052l6.292,5.495c0,0,1.142-6.915,5.934-12.809c0,0,3.53,5.613,5.553,9.54
			l4.862-10.464c0,0,2.304,2.28,2.644,4.406c3.559-4.909,3.471-8.739,3.985-10.946c0.439,0.857,2.615,11.61-1.914,19.163
			l-3.494-3.365l-2.394,12.229c0,0-3.917-2.023-8.306-4.846l-0.584,6.818l-4.589-2.761l-0.943,5.221c0,0-4.479-1.604-7.629-4.402
			c0,0-2.008,4.853-1.781,7.233l-8.593-3.709c0,0,1.661,6.608,5.489,7.87c3.828,1.262,8.481,2.614,26.181,1.363
			c9.982-0.705,21.809,3.566,29.376,8.749c10.707,7.333,18.435,20.693,21.188,32.359c2.143,9.083,1.584,18.135-2.456,26.607
			c-4.212,8.833-11.076,15.74-13.493,25.505c-1.774,7.169-1.334,15.034,2.115,21.564c3.671,6.951,10.348,11.824,17.295,15.502
			c6.947,3.678,14.385,6.42,21.1,10.506c3.806,2.315,9.124,5.743,10.268,10.375c0.808,3.272-1.523,7.61-5.109,7.963
			c-2.347,0.231-4.878-1.135-6.878-2.243c-2.155-1.194-4.044-2.798-6.077-4.178c-2.716-1.845-6.012-3.34-9.207-2.583
			c-2.054,0.486-3.672,2.009-5.72,2.339c-2.324,0.374-4.687,0.13-7.027,0.234c-0.747,0.033-1.516,0.108-2.177,0.459
			c-0.602,0.319-1.076,0.854-1.376,1.465c-0.172,0.35-0.29,0.727-0.501,1.055c-0.588,0.916-1.767,1.279-2.461,2.117
			c-0.946,1.142-0.931,2.934-0.876,4.335c0.068,1.731,0.309,3.48,0.029,5.205c-0.324,2.003-1.341,3.819-1.94,5.757
			c-0.598,1.938-0.701,4.249,0.609,5.798c0.558,0.66,1.316,1.112,2.033,1.596c2.172,1.467,4.077,3.329,5.592,5.468
			c1.112,1.57,2.06,3.334,3.635,4.439c2.996,2.103,7.08,1.132,10.588,0.09c3.509-1.042,7.607-1.987,10.578,0.15
			c0.191,0.138,0.383,0.297,0.47,0.516c0.21,0.528-0.259,1.064-0.379,1.62c-0.277,1.274,1.252,2.183,1.671,3.417
			c0.443,1.308-0.517,2.757-1.766,3.347c-1.249,0.589-2.692,0.539-4.072,0.478c1.749,0.332,3.595,0.657,5.275,0.068
			c1.68-0.589,3.053-2.448,2.458-4.125c-0.242-0.68-0.76-1.228-1.051-1.889c-0.459-1.04-0.311-2.233-0.415-3.366
			c-0.323-3.536-3.385-6.539-6.891-7.099c-1.593-0.254-3.786-0.635-5.362-0.369c-1.842,0.311-3.51,1.837-5.471,1.213
			c-1.668-0.531-2.448-2.48-2.536-4.229c-0.088-1.749,0.288-3.525-0.056-5.242c-0.373-1.861-1.549-3.445-2.701-4.954
			c-0.361-0.473-0.743-1.014-0.669-1.605c0.085-0.678,0.727-1.125,1.309-1.484c1.748-1.076,3.496-2.152,5.244-3.229
			c1.002-0.617,2.027-1.243,3.175-1.502c2.8-0.63,5.574,1.039,7.815,2.833c2.24,1.793,4.5,3.875,7.342,4.274
			c2.042,0.287,4.111-0.351,6.169-0.226c3.561,0.216,6.591,2.646,10.043,3.55c1.392,0.365,2.908,0.467,4.243-0.07
			c1.998-0.804,3.175-2.82,4.658-4.381c1.064-1.121,2.338-2.042,3.736-2.702c1.257-0.593,2.618-0.98,3.789-1.729
			c2.523-1.612,3.751-4.591,4.832-7.383C432.297,341.109,431.267,333.632,425.603,326.568z"/>
		<path style="fill:#263238;" d="M423.38,319.1c1.411,1.234,3.172,1.837,5.073,2.555c1.278,0.482,2.583,1.256,3.05,2.54
			c0.379,1.043,0.125,2.201,0.244,3.304c0.222,2.061,1.715,3.509,2.783,5.161c1.128,1.744,2.332,3.122,2.528,5.298
			c0.06,0.665,0.027,1.362-0.276,1.956c-0.305,0.598-0.85,1.03-1.306,1.522c-0.982,1.059-1.572,2.509-1.766,3.928
			c-0.233,1.699,0.36,3.418-0.071,5.11c-0.383,1.503-1.624,2.755-3.123,3.152c1.74-0.141,3.745-0.438,4.646-1.933
			c0.868-1.439,0.357-3.508,1.493-4.746c0.934-1.019,2.604-1.022,3.604-1.976c1.797-1.714,1.231-3.898,0.924-5.999
			c-0.435-2.973,1.374-6.222-0.017-8.884c-0.912-1.747-3.024-2.752-3.566-4.647c-0.246-0.862-0.121-1.78-0.145-2.676
			c-0.06-2.288-1.159-4.529-2.931-5.977c-1.616-1.32-3.582-1.596-5.601-1.673c-0.926-0.035-1.934-0.214-2.848-0.175
			c-1.185,0.05-2.035,0.078-3.097-0.602c-0.962-0.617-1.737-1.48-2.611-2.217c-0.874-0.737-1.919-1.372-3.062-1.383
			c-0.508-0.005-1.011,0.115-1.518,0.105c-1.323-0.025-2.773-0.604-3.485-1.731c0.362,0.821,0.571,1.262,1.482,1.848
			c0.794,0.511,1.843,0.833,2.738,1.051c1.158,0.283,2.231,0.902,3.056,1.762c0.998,1.04,1.606,2.383,2.359,3.612
			C422.361,318.074,422.845,318.632,423.38,319.1z"/>
		<path style="fill:#263238;" d="M368.298,340.829c-0.414,0.414-0.795,0.874-1.295,1.176c-1.057,0.639-2.399,0.449-3.612,0.216
			c-0.611-0.117-1.228-0.241-1.85-0.221c-1.654,0.052-3.146,1.129-4.082,2.493c-0.444,0.646-0.787,1.361-1.279,1.971
			c-0.368,0.457-0.844,0.867-1.409,1.054c-0.534,0.177-0.998,0.336-1.398,0.773c-0.82,0.896-0.267,2.016-0.023,3.053
			c0.247,1.051,0.253,2.338-0.598,3.002c0.402-0.894,0.075-1.95-0.415-2.798c-0.491-0.848-1.145-1.615-1.461-2.543
			c-0.584-1.715,0.249-3.795,1.855-4.633c0.46-0.24,0.98-0.394,1.349-0.758c0.66-0.651,0.609-1.702,0.743-2.619
			c0.338-2.312,2.701-4.4,4.93-3.699c0.57,0.179,0.989,0.639,1.549,0.769c0.713,0.165,1.407,0.255,2.051,0.635
			c0.544,0.321,1.079,0.817,1.704,0.725c0.47-0.069,0.818-0.453,1.15-0.792c0.655-0.67,1.528-1.286,2.451-1.127
			c0.444,0.076,0.867,0.33,1.314,0.273c0.398-0.051,0.717-0.337,1.045-0.568c1.035-0.731,2.38-0.992,3.621-0.739
			c1.241,0.253,2.366,1.009,3.102,2.04c-0.146-0.204-0.789-0.323-1.023-0.384c-0.387-0.102-0.823-0.195-1.225-0.177
			c-0.778,0.034-1.613,0.108-2.368,0.332c-1.754,0.52-3.475,1.208-4.795,2.518C368.318,340.81,368.308,340.82,368.298,340.829z"/>
		<path style="fill:#263238;" d="M297.035,145.248c0,0-37.699-16.962-43.827-19.355c-8.733-0.912-19.744,4.131-21.838,4.654
			c-2.094,0.523-7.773,9.831-8.316,10.89c-0.543,1.059-0.028,9.609-0.028,9.609l2.048-8.89l9.281-8.775l-4.839,10.061
			c0,0,2.747,11.904,3.266,12.305c0.52,0.401,5.651,2.544,5.651,2.544l-3.364-5.071l-0.852-9.707l8.687-8.623l-4.184,11.408
			l2.257,5.182l10.33,3.378l-7.673-5.714l0.054-5.018l8.351-9.675l29.711,20.948"/>
		<path style="fill:#BA68C8;" d="M298.618,158.379c3.602-1.632,8.494-7.735,8.932-8.77c0.438-1.035,3.16,3.858,0.587,6.143
			C305.564,158.038,298.618,158.379,298.618,158.379z"/>
		<path style="fill:#BA68C8;" d="M290.81,159.546c-4.023,0.475-9.705-2.988-10.001-2.094c-0.338,1.02-0.371,3.293,2.011,4.055
			C285.202,162.269,289.687,160.442,290.81,159.546z"/>
	</g>
	<g id="Monsters">
		<path style="fill:#263238;" d="M96.131,327.447c2.873,5.346,3.972,11.717,9.452,17.198c9.811,9.811,25.664,5.115,41.596,3.851
			c8.656-0.687,17.429,0.142,25.803,2.438c7.319,2.006,13.341,6.765,18.231,12.554c6.385,7.558,8.244,17.564,13.345,25.934
			c3.236,5.31,8.564,10.008,14.783,9.972c3.857-0.022,7.323-1.858,11.053-2.548c3.06-0.566,7.328-1.022,10.413-0.781
			c2.186,0.171,4.411,1.094,5.675,2.885c1.004,1.422,1.31,3.229,2.211,4.719c1.932,3.192,6.763,4.139,9.758,1.913
			c1.002-0.745,1.811-1.777,2.954-2.278c0.644-0.283,1.355-0.377,2.021-0.604c1.686-0.576,3.03-2.061,3.434-3.796
			c0.316-1.358,0.049-2.832-0.684-4.014c-0.204-0.329-0.444-0.635-0.718-0.91c-0.982-0.984-2.336-1.568-3.198-2.659
			c-1.458-1.845-1.059-4.58,0.016-6.672c1.06-2.063,2.738-3.848,4.851-4.804c2.113-0.956,4.667-1.015,6.719,0.066
			c0.907,0.478,1.695,1.156,2.599,1.638c0.904,0.482,2.009,0.754,2.951,0.35c0.942-0.405,1.513-1.69,0.909-2.517
			c0.867,1.068,0.568,2.791-0.452,3.714c-1.021,0.922-2.559,1.109-3.884,0.741c-1.797-0.499-3.31-1.897-5.167-2.065
			c-1.83-0.166-3.692,1.075-4.243,2.828c-0.551,1.753,0.266,3.837,1.862,4.748c1.064,0.607,2.483,0.808,3.084,1.875
			c0.369,0.655,0.308,1.453,0.38,2.202c0.199,2.085,1.463,3.886,2.515,5.697c1.051,1.811,1.944,3.952,1.327,5.953
			c-0.966,3.129-4.864,4.101-7.246,6.348c-2.163,2.04-3.048,5.159-5.2,7.211c-2.762,2.633-7.253,2.925-10.68,1.247
			c-2.756-1.349-4.864-3.715-7.616-5.064c-1.224-0.6-2.503-0.928-3.713-1.536c-1.643-0.826-3.421-1.531-5.297-1.405
			c-2.272,0.152-4.261,1.494-6.2,2.689c-2.81,1.731-5.759,3.238-8.809,4.5c-5.079,2.103-17.055,6.493-21.385,1.146
			c-0.998-1.232-1.471-2.818-2.431-4.08c-2.234-2.939-6.433-3.438-9.462-5.548c-4.946-3.445-5.919-10.426-9.946-14.91
			c-4.474-4.982-12.053-6.022-18.605-4.637c-6.551,1.385-12.47,4.772-18.589,7.493c-12.642,5.621-26.667,8.478-40.427,7.037
			c-19.199-2.012-39.688-11.784-48.203-29.969c-5.883-12.563-4.732-28.459-0.405-39.996c1.23-3.279,4.51-8.021,6.854-10.623
			c6.771-7.518,15.723-9.536,23.558-8.186C88.646,317.945,93.409,322.383,96.131,327.447z"/>
		<path style="fill:#263238;" d="M54.011,361.73c-13.125-21.79-31.253-49.657-29.877-52.036
			c7.008-12.114,20.894-31.748,23.579-34.573c2.685-2.824,16.266-9.634,20.258-11.006c9.615,0.05,13.282,0.54,14.722,1.009
			c1.44,0.469,7.112,9.602,6.602,9.143c-0.51-0.459-7.731-6.474-7.731-6.474l-14.133,1.725c0,0,9.077,2.539,11.17,3.595
			s8.661,8.899,8.661,8.899l-8.675-6.298l-12.113,0.571l7.91,3.038l3.979,4.999l0.411,9.46l-3.595-8.711l-11.916-4.228
			l-10.542,2.097l-13.486,27.185l22.15,25.512"/>
		<path style="fill:#263238;" d="M177.216,401.556c0.553,1.549,0.761,3.209,1.092,4.826c0.62,3.031,1.471,7.184,5.072,7.889
			c1.85,0.362,4.057-0.403,5.476,0.838c1.839,1.608,0.491,4.948,2,6.868c1.47,1.871,4.506,1.165,6.618,2.261
			c0.788,0.409,1.419,1.059,2.137,1.581c2.811,2.044,6.699,1.93,10.004,0.855c2.384-0.776,4.869-2.014,7.274-1.305
			c-3.691,1.249-7.186,3.076-10.318,5.393c-1.369,1.013-2.782,2.165-4.479,2.302c-2.496,0.201-4.564-1.825-6.934-2.632
			c-2.289-0.779-4.77,0.071-7.172-0.135c-1.861-0.159-3.923-0.725-4.832-2.357c-1.078-1.936-0.029-4.396-0.546-6.551
			c-0.462-1.927-2.091-3.324-3.676-4.514c-1.248-0.936-2.618-1.966-2.963-3.487c-0.264-1.166,0.303-2.108,0.296-3.202
			c-0.005-0.967-0.871-1.671-0.946-2.646c-0.085-1.116,0.773-2.077,1.007-3.172c0.121-0.565,0.071-1.153-0.024-1.723
			c-0.357-2.137-1.449-4.251-3.316-5.35c1.841,0.348,3.242,1.92,3.985,3.64C177.061,401.14,177.141,401.347,177.216,401.556z"/>
	</g>
	<g id="Ghosts">
		<path style="fill:#E0E0E0;" d="M69.937,236.21c0.299,0.09,0.596,0.188,0.891,0.296c4.188,1.535,7.601,5.047,9.016,9.276
			c0.409,1.222,0.66,2.499,1.161,3.686c0.742,1.76,2.035,3.283,3.652,4.302c1.505,0.948,3.263,1.46,4.701,2.507
			c3.203,2.331,4.012,7.354,1.703,10.573c0.937-2.691,0.028-5.921-2.175-7.728c-2.854-2.341-7.141-2.162-10.088-4.385
			c-3.409-2.571-4.111-7.629-7.445-10.298c-2.393-1.915-5.723-2.222-8.755-1.783c-3.033,0.439-5.933,1.532-8.939,2.126
			c-6.561,1.298-14.008-0.123-18.5-5.078c-3.967-4.377-5.01-10.639-5.263-16.541c-0.257-5.993-2.92-9.677-6.841-13.815
			c-4.086-4.313-6.581-10.052-7.203-15.941c-0.702-6.648,0.918-13.46,4.192-19.289c1.664-2.963,3.815-5.752,6.721-7.514
			c2.906-1.762,6.664-2.357,9.747-0.928c2.685,1.245,4.558,3.874,5.396,6.711c0.838,2.838,0.743,5.875,0.3,8.8
			c-0.375,2.476-0.993,4.93-1.038,7.434c-0.088,4.954,2.882,9.281,5.087,13.518c0.873,1.678,1.751,3.366,2.331,5.166
			c1.246,3.863,0.544,7.471,0.074,11.358c-0.453,3.738-1.459,7.562,0.708,11.012c2.06,3.28,6.152,4.647,9.994,5.137
			C62.897,235.264,66.546,235.19,69.937,236.21z"/>
		<path style="fill:#E0E0E0;" d="M57.602,249.02c0.72-0.267,1.512-0.339,2.248-0.13c-1.038-0.406-2.217-0.327-3.279,0.014
			c-1.061,0.34-2.025,0.926-2.962,1.531c-0.934,0.603-1.897,1.248-3.001,1.382c-1.139,0.139-2.269-0.288-3.302-0.787
			c-1.033-0.499-2.048-1.086-3.174-1.303c-1.468-0.283-2.952,0.076-4.426,0.083c-1.419,0.007-2.614-0.315-3.729-1.209
			c-1.039-0.833-1.193-2.006-2.011-3.009c-0.81-0.993-2.068-1.518-2.953-2.445c-0.897-0.94-1.352-2.286-1.209-3.578
			c-0.034,0.304-0.424,0.754-0.527,1.076c-0.135,0.42-0.202,0.862-0.208,1.303c-0.012,0.881,0.226,1.775,0.706,2.516
			c1.039,1.609,3.012,2.407,3.066,4.58c0.022,0.894-0.281,1.824,0.034,2.661c0.359,0.956,1.432,1.469,2.449,1.56
			c1.017,0.092,2.033-0.14,3.053-0.196c1.02-0.056,2.131,0.101,2.86,0.817c0.529,0.519,0.661,1.039,1.422,1.335
			c0.622,0.242,1.315,0.285,1.975,0.242c1.097-0.072,2.198-0.342,3.282-0.162c0.664,0.111,1.297,0.388,1.968,0.437
			c1.46,0.107,2.798-0.894,3.635-2.096c0.491-0.706,0.86-1.491,1.328-2.213c0.545-0.842,1.238-1.607,2.108-2.105
			C57.16,249.205,57.378,249.103,57.602,249.02z"/>
		<path style="fill:#E0E0E0;" d="M380.634,416.714c0.155-0.813,0.693-1.528,0.764-2.352c0.086-0.997-0.519-1.903-1.031-2.763
			c-0.512-0.86-0.963-1.912-0.566-2.831c0.175-0.405,0.497-0.728,0.842-1.004c0.754-0.604,1.65-1.03,2.595-1.233
			c0.798-0.171,1.629-0.186,2.406-0.434c0.777-0.248,1.531-0.811,1.68-1.613c0.248-1.339-0.553-2.753-0.293-4.159
			c0.308-1.664,2.138-2.878,3.791-2.515c1.653,0.362,2.806,2.231,2.39,3.871c0.053-1.036-0.237-2.144-1.014-2.831
			c-0.777-0.687-2.099-0.786-2.814-0.035c-0.992,1.041-0.317,2.734,0.347,4.009c0.493,0.946,0.996,2.26,0.541,3.314
			c-0.422,0.978-1.744,1.684-2.681,2.124c-1.213,0.57-2.724,1.043-3.115,2.325c-0.098,0.323-0.109,0.664-0.119,1.002
			c-0.018,0.618-0.036,1.237-0.054,1.855c-0.01,0.325-0.018,0.656,0.073,0.967c0.153,0.524,0.568,0.928,0.998,1.264
			c1.289,1.007,3.064,1.632,4.569,0.99c2.306-0.983,2.886-4.359,5.24-5.219c0.471-0.172,0.977-0.224,1.461-0.358
			c2.556-0.709,3.353-3.081,3.226-5.458c-0.159-2.98-0.819-5.91-0.923-8.895c-0.129-3.666,0.817-7.72,3.81-9.84
			c2.827-2.003,6.62-1.732,10.061-1.333c2.4,0.278,5.03,0.527,7.046-0.804c1.689-1.115,2.553-3.09,3.381-4.936
			c1.786-3.985,4.062-8.133,8.002-10.018c2.47-1.182,5.295-1.316,7.945-2.005c13.383-3.48,14.634-18.217,11.89-29.537
			c-1.067-4.401-2.41-8.797-2.472-13.325c-0.062-4.528,1.378-9.34,4.929-12.151c3.575-2.83,8.178-2.915,12.403-1.821
			c4.73,1.225,8.715,6.974,10.792,11.064c2.527,4.976,3.814,10.548,4.311,16.082c0.043,0.482,0.081,0.965,0.114,1.448
			c0.658,9.703-0.827,19.737-5.798,28.071c-5.219,8.75-14.704,15.297-24.892,15.31c-5.454,0.007-11.459-1.655-16.002,1.362
			c-3.927,2.608-5.528,8.09-9.868,9.928c-3.962,1.678-9.122-0.232-12.475,2.465c-1.313,1.057-1.784,2.712-2.043,4.325
			c-0.5,3.108-0.426,6.307-1.187,9.362c-0.762,3.055-2.605,6.103-5.58,7.134c-2.188,0.759-4.436,0.097-6.444,1.361
			c-1.658,1.044-2.976,2.596-4.799,3.382c-1.791,0.772-3.945,0.641-5.628-0.344c-0.636-0.372-1.21-0.859-1.894-1.135
			c-0.638-0.258-1.338-0.318-1.999-0.51C381.076,419.844,380.351,418.199,380.634,416.714z"/>
		<path style="fill:#E0E0E0;" d="M274.062,436.901c0.693-0.856,1.3-1.791,1.838-2.748c1.286-2.288,2.24-4.75,3.49-7.058
			c0.793-1.464,1.767-2.924,3.232-3.716c7.091-3.837,8.986,12.51,15.911,7.261c1.759-1.333,1.961-1.558,4.229-0.865
			c0.777,0.237,1.56,0.782,1.675,1.587c0.039,0.27-0.002,0.547,0.034,0.817c0.125,0.946,1.086,1.505,1.902,2.002
			c0.815,0.497,1.681,1.311,1.455,2.238c-0.119,0.487-0.516,0.847-0.805,1.257c-0.871,1.242-0.658,3.097,0.416,4.168
			c1.074,1.071,2.864,1.297,4.213,0.602c-0.946,0.014-1.893-0.312-2.63-0.906c-2.383-1.921,1.542-3.609,1.832-5.564
			c0.253-1.703-1.546-3.022-1.9-4.707c-0.193-0.918,0.057-1.904-0.241-2.794c-0.205-0.611-0.651-1.113-1.143-1.528
			c-1.029-0.866-1.871-0.92-3.01-1.203c-1.103-0.274-1.68-1.129-2.745-1.514c-1.705-0.616-3.381,1.761-5.121,1.253
			c-0.437-0.128-0.8-0.426-1.149-0.718c-0.857-0.716-1.72-1.451-2.347-2.376c-0.788-1.163-1.155-2.555-1.79-3.808
			c-2.283-4.506-6.913-5.957-11.59-4.491c-2.26,0.708-4.275,1.951-6.091,3.45c-2.415,1.994-3.128,4.823-5.064,7.256
			c-1.481,1.862-3.513,3.394-5.859,3.792c-3.995,0.678-7.69-1.941-11.361-3.654c-3.02-1.409-6.334-2.257-9.666-2.191
			c-6.741,0.133-12.927,3.967-17.688,8.741c-4.754,4.766-10.448,9.626-16.899,11.945c-9.183,3.301-19.704,0.61-27.774-4.876
			c-5.293-3.598-10.078-8.468-16.346-9.764c-3.602-0.745-7.383-0.201-10.851,1.027c-1.94,0.687-3.842,1.61-5.306,3.056
			c-1.981,1.957-2.993,4.724-3.342,7.487c-0.688,5.461,1.047,11.057,4.112,15.63c10.351,15.445,32.851,20.182,50.155,18.296
			c3.318-0.362,6.615-0.931,9.85-1.756c10.728-2.735,20.945-8.508,27.505-17.426c1.903-2.587,3.476-5.398,5.205-8.104
			c1.319-2.065,2.753-4.094,4.621-5.68c7.851-6.665,17.16,3.188,25.609-1.452C271.969,439.131,273.098,438.092,274.062,436.901z"/>
		<path style="fill:#E0E0E0;" d="M90.178,418.527c2.601,1.879,4.528,5.05,7.643,6.09c2.945,0.983,6.691-0.232,8.889-2.269
			c0.927-0.859,1.758-1.946,2.98-2.27c0.647-0.172,1.331-0.104,1.997-0.035c2.93,0.304,7.739,1.507,10.072-1.034
			c1.209-1.317,1.767-3.141,2.403-4.771c1.019-2.61,2.571-4.504,5.377-5.237c0.274-0.072,0.551-0.129,0.828-0.186
			c-3.118-0.967-7.335,1.885-9.227,4.152c-0.64,0.768-1.186,1.636-1.984,2.237c-1.95,1.47-4.71,0.919-7.031,0.16
			c-2.321-0.759-4.873-1.657-7.121-0.703c-1.101,0.467-1.995,1.341-3.104,1.79c-2.73,1.107-4.145-0.07-6.337-1.632
			c-1.569-1.118-3.221-2.297-5.168-2.573c-1.317-0.187-2.688-0.207-3.904-0.747c-0.671-0.298-1.266-0.744-1.928-1.061
			c-0.826-0.396-1.75-0.586-2.666-0.546c-1.149,0.05-2.56,0.351-3.241-0.577c-0.237-0.323-0.316-0.732-0.463-1.105
			c-0.475-1.208-2.023-2.294-3.019-3.086c-1.777-1.413-3.937-2.451-6.207-2.496c-1.58-0.032-3.322,0.375-4.629-0.512
			c0.872,0.592,1.102,1.111,2.178,1.429c1.33,0.393,2.714,0.658,4.062,0.984c0.784,0.19,1.591,0.39,2.243,0.865
			c0.741,0.54,1.207,1.385,1.486,2.258c0.331,1.033,0.43,2.14,0.287,3.216c-0.123,0.932-0.378,2.023,0.275,2.698
			c0.864,0.894,2.362,0.177,3.594,0.336c1.758,0.227,2.745,2.212,4.386,2.882c1.145,0.467,2.439,0.232,3.672,0.321
			C87.939,417.208,89.115,417.76,90.178,418.527z"/>
		<path style="fill:#E0E0E0;" d="M443.514,234.969c-0.015,0.02-0.031,0.04-0.047,0.06c-1.339,1.723-1.863,4.004-1.612,6.152
			c0.244,2.09,1.506,3.856,1.448,5.984c-0.022,0.783-0.201,1.603-0.733,2.178c-0.34,0.367-0.801,0.609-1.122,0.993
			c-0.857,1.026-0.41,2.559,0.025,3.822c0.435,1.264,0.728,2.884-0.289,3.75c-2.248,1.915-6.592,0.958-7.224,4.687
			c-0.221,1.302-0.332,2.753-1.209,3.675c-1.621,1.706-4.712,0.457-6.279,2.222c-0.894,1.007-0.82,2.306-1.058,3.574
			c-0.214,1.136-1.268,2.015-2.329,1.942c1.048,0.393,2.291,0.111,3.115-0.709c0.651-0.648,1.02-1.556,1.528-2.341
			c1.18-1.82,2.297-0.929,3.951-0.763c1.533,0.154,3.16-0.461,4.172-1.629c1.137-1.313,1.588-3.246,3.073-4.146
			c1.454-0.88,3.301-0.422,5.001-0.432c1.665-0.01,3.409-0.569,4.463-1.859c0.872-1.068,1.173-2.522,1.048-3.895
			c-0.126-1.373-0.641-2.682-1.254-3.917c-0.391-0.788-0.835-1.593-0.857-2.473c-0.038-1.489,1.128-2.768,1.277-4.25
			c0.169-1.674-0.963-3.164-1.965-4.516c-1.001-1.353-1.974-3.026-1.457-4.627c0.667-2.064,2.227-3.188,2.224-5.582
			c-0.002-1.863-1.18-3.46-1.372-5.283c-0.059-0.555-0.034-1.116-0.042-1.674c-0.024-1.62-0.328-3.233-0.892-4.728
			c0.098,1.708,0.19,3.467-0.311,5.094c-0.152,0.495-0.359,0.974-0.447,1.487c-0.232,1.361,0.145,2.637,0.28,3.975
			C444.788,233.414,444.406,233.824,443.514,234.969z"/>
	</g>
</g>
</svg>
