<?xml version="1.0" encoding="utf-8"?>
<!-- Generator: Adobe Illustrator 27.5.0, SVG Export Plug-In . SVG Version: 6.00 Build 0)  -->
<svg version="1.1" xmlns="http://www.w3.org/2000/svg" xmlns:xlink="http://www.w3.org/1999/xlink" x="0px" y="0px"
	 viewBox="0 0 500 500" style="enable-background:new 0 0 500 500;" xml:space="preserve">
<g id="BACKGROUND">
	<rect style="fill:#FFFFFF;" width="500" height="500"/>
</g>
<g id="OBJECTS">
	<g>
		<defs>
			<path id="SVGID_1_" d="M236.622,143.187c0,53.389-43.28,96.669-96.669,96.669s-96.669-43.28-96.669-96.669
				c0-53.389-12.713-132.669,95.669-132.669S236.622,89.798,236.622,143.187z"/>
		</defs>
		<clipPath id="SVGID_00000128449653085081978580000006449103812273464488_">
			<use xlink:href="#SVGID_1_"  style="overflow:visible;"/>
		</clipPath>
		
			<circle style="clip-path:url(#SVGID_00000128449653085081978580000006449103812273464488_);fill:#E5EBFA;" cx="139.953" cy="143.187" r="96.669"/>
		<g style="clip-path:url(#SVGID_00000128449653085081978580000006449103812273464488_);">
			<g>
				<g>
					<path style="fill:#8674FC;" d="M199.491,99.708c0,0-16.957-9.438-41.857-16.229c-24.9-6.791-49.793-9.119-49.793-9.119
						s26.539,19.82,44.442,23.524C170.187,101.589,199.491,99.708,199.491,99.708z"/>
					<g>
						<path style="fill:none;stroke:#5700DD;stroke-width:0.5266;stroke-miterlimit:10;" d="M186.969,96.927
							c-0.761-8.716,1.39-17.661,6.03-25.078c1.782-2.847,4.101-5.604,7.293-6.649c0.941-0.308,2.273-0.268,2.574,0.675
							c0.085,0.266,0.061,0.553,0.013,0.828c-0.413,2.373-2.42,4.078-4.155,5.75c-7.225,6.963-11.536,16.861-11.714,26.894"/>
						<path style="fill:#2C2D40;" d="M213.303,69.403c2.405-0.894,5.132-1.539,7.487-0.521c0.468,0.202,0.927,0.483,1.196,0.917
							c0.3,0.484,0.322,1.093,0.226,1.653c-0.36,2.105-2.164,3.641-3.972,4.777c-4.425,2.78-9.527,4.297-14.09,6.843
							c-3.793,2.117-7.176,4.958-9.947,8.3c-1.39,1.676-2.599,3.476-3.678,5.366c-1.189,2.083-2.152,1.911-1.489-0.545
							c2.085-7.73,6.635-14.746,12.71-19.942C205.166,73.326,209.081,70.972,213.303,69.403z"/>
						<path style="fill:none;stroke:#5700DD;stroke-width:0.5266;stroke-miterlimit:10;" d="M207.452,83.979
							c3.871-2.182,8.521-3.913,12.681-2.352c0.663,0.249,1.378,0.688,1.457,1.391c0.044,0.389-0.124,0.77-0.32,1.108
							c-1.219,2.106-3.549,3.286-5.81,4.185c-4.578,1.82-9.401,2.964-13.995,4.743c-3.474,1.346-12.171,7.902-12.171,7.902
							s7.329-9.009,8.661-10.193C200.869,88.174,204.057,85.893,207.452,83.979z"/>
						<path style="fill:#2C2D40;" d="M207.55,94.697c2.306-0.221,4.73-0.186,6.809,0.837c0.828,0.408,1.649,1.076,1.747,1.994
							c0.044,0.412-0.068,0.829-0.247,1.204c-0.708,1.478-2.403,2.269-4.038,2.39c-1.634,0.121-3.253-0.304-4.854-0.653
							c-2.508-0.546-5.071-0.904-7.642-0.916c-2.661-0.012-5.079,0.752-7.629,1.074c1.148-1.93,5.283-3.234,7.354-3.993
							C201.786,95.632,204.649,94.976,207.55,94.697z"/>
					</g>
					<g>
						<path style="fill:#EEB422;" d="M181.658,98.37c-4.573-5.964-5.955-14.238-3.568-21.365c2.339-6.982,7.802-12.369,12.261-18.23
							c3.808-5.006,6.963-10.507,9.36-16.322c4,8.189,3.244,18.671-0.849,26.814c-2.634,5.24-6.738,9.563-10.325,14.203
							C184.95,88.11,181.956,92.513,181.658,98.37z"/>
						<g>
							<path style="fill:#5700DD;" d="M199.711,42.454c0.731,2.503,0.457,5.205-0.208,7.714c-0.707,2.518-1.838,4.891-3.12,7.155
								c-2.557,4.566-6.127,8.41-9.088,12.577c-3.073,4.09-5.283,8.775-6.458,13.753c-0.601,2.479-0.931,5.033-0.835,7.586
								c0.059,2.551,0.603,5.106,1.721,7.44c-1.336-2.225-2.006-4.816-2.243-7.41c-0.202-2.607,0.04-5.236,0.558-7.794
								c1.043-5.121,3.323-9.985,6.406-14.189c3.097-4.189,6.589-7.989,9.259-12.368c1.344-2.177,2.521-4.467,3.32-6.896
								C199.83,47.609,200.212,45.003,199.711,42.454z"/>
						</g>
					</g>
					<g>
						<path style="fill:#E47573;" d="M129.88,88.031c4.573-5.964,5.955-14.238,3.568-21.365c-2.339-6.983-7.802-12.369-12.261-18.23
							c-3.808-5.006-6.963-10.507-9.36-16.322c-4,8.189-3.244,18.671,0.849,26.814c2.634,5.24,6.738,9.563,10.325,14.203
							C126.587,77.771,129.581,82.174,129.88,88.031z"/>
						<g>
							<path style="fill:#5700DD;" d="M111.826,32.114c-0.502,2.549-0.12,5.155,0.686,7.57c0.799,2.428,1.976,4.719,3.32,6.896
								c2.67,4.378,6.162,8.178,9.259,12.368c3.083,4.203,5.363,9.068,6.406,14.189c0.518,2.558,0.76,5.187,0.558,7.794
								c-0.236,2.594-0.907,5.185-2.242,7.41c1.118-2.334,1.662-4.889,1.721-7.44c0.097-2.553-0.233-5.107-0.834-7.586
								c-1.175-4.977-3.385-9.663-6.458-13.753c-2.961-4.167-6.531-8.011-9.088-12.577c-1.282-2.264-2.413-4.637-3.12-7.155
								C111.37,37.319,111.096,34.617,111.826,32.114z"/>
						</g>
					</g>
					<g>
						<path style="fill:#EEB422;" d="M121.466,86.835c1.922-5.593,0.885-12.111-2.676-16.832c-3.49-4.625-8.912-7.279-13.703-10.538
							c-4.092-2.783-7.821-6.1-11.063-9.839c-0.938,7.109,2.245,14.742,7.334,19.794c3.274,3.252,7.417,5.451,11.253,8.017
							C116.445,80.003,119.779,82.539,121.466,86.835z"/>
						<g>
							<path style="fill:#5700DD;" d="M94.024,49.626c0.263,2.027,1.199,3.876,2.404,5.476c1.203,1.612,2.654,3.027,4.2,4.315
								c3.086,2.6,6.641,4.562,9.999,6.914c3.351,2.366,6.268,5.425,8.325,8.986c1.026,1.779,1.863,3.68,2.364,5.676
								c0.472,1.995,0.619,4.095,0.178,6.089c0.251-2.021,0.019-4.063-0.575-5.982c-0.566-1.929-1.45-3.752-2.518-5.452
								c-2.12-3.42-4.94-6.364-8.255-8.647c-3.251-2.369-6.874-4.345-9.924-7.113c-1.522-1.369-2.959-2.857-4.116-4.559
								C94.983,53.624,94.104,51.676,94.024,49.626z"/>
						</g>
					</g>
					<g>
						<path style="fill:#E47573;" d="M184.741,43.532c-0.002-0.875-0.018-1.79-0.434-2.559c-0.134-0.249-0.356-0.5-0.638-0.487
							c-0.376,0.018-0.556,0.464-0.627,0.834c-0.761,3.96,0.324,9.217,1.555,13.008C184.878,50.762,184.752,47.109,184.741,43.532z"
							/>
						<path style="fill:#E47573;" d="M189.346,40.713c0.179-0.856,0.353-1.755,0.106-2.593c-0.08-0.271-0.245-0.563-0.524-0.609
							c-0.372-0.061-0.64,0.339-0.786,0.686c-1.565,3.716-1.592,9.084-1.174,13.048C187.982,47.815,188.615,44.214,189.346,40.713z"
							/>
						<path style="fill:#E47573;" d="M197.357,47.587c0.824-0.294,1.682-0.613,2.269-1.261c0.19-0.21,0.353-0.502,0.247-0.764
							c-0.142-0.349-0.623-0.37-0.995-0.314c-3.988,0.601-8.583,3.375-11.748,5.798C190.585,50.123,193.988,48.788,197.357,47.587z"
							/>
						<path style="fill:#E47573;" d="M195.333,52.815c0.863-0.139,1.765-0.298,2.46-0.829c0.225-0.172,0.438-0.43,0.381-0.707
							c-0.076-0.369-0.545-0.477-0.922-0.489c-4.03-0.133-9.053,1.761-12.605,3.569C188.213,54.08,191.802,53.384,195.333,52.815z"
							/>
						<path style="fill:#E47573;" d="M193.948,56.235c0.871-0.078,1.781-0.172,2.512-0.652c0.236-0.155,0.468-0.398,0.43-0.678
							c-0.05-0.373-0.51-0.514-0.884-0.553c-4.011-0.418-9.155,1.116-12.826,2.668C186.756,56.993,190.385,56.553,193.948,56.235z"
							/>
						<path style="fill:#E47573;" d="M191.379,60.179c0.871-0.078,1.782-0.172,2.512-0.652c0.236-0.155,0.468-0.398,0.43-0.678
							c-0.05-0.373-0.51-0.514-0.885-0.553c-4.011-0.418-9.155,1.116-12.826,2.668C184.188,60.937,187.817,60.497,191.379,60.179z"
							/>
						<path style="fill:#E47573;" d="M189.187,64.256c0.871-0.078,1.781-0.172,2.512-0.652c0.236-0.155,0.468-0.398,0.43-0.678
							c-0.05-0.373-0.51-0.514-0.885-0.553c-4.011-0.418-9.155,1.116-12.826,2.668C181.996,65.014,185.625,64.574,189.187,64.256z"
							/>
						<path style="fill:#E47573;" d="M187.077,68.476c0.871-0.078,1.781-0.172,2.512-0.652c0.236-0.155,0.468-0.398,0.43-0.678
							c-0.05-0.373-0.51-0.514-0.884-0.553c-4.011-0.418-9.155,1.116-12.826,2.668C179.886,69.233,183.515,68.793,187.077,68.476z"
							/>
						<path style="fill:#E47573;" d="M185.335,73.062c0.871-0.078,1.782-0.172,2.512-0.652c0.236-0.155,0.468-0.398,0.43-0.678
							c-0.05-0.373-0.51-0.514-0.885-0.553c-4.011-0.418-9.155,1.116-12.826,2.668C178.143,73.82,181.772,73.38,185.335,73.062z"/>
						<path style="fill:#E47573;" d="M183.684,77.923c0.871-0.078,1.781-0.172,2.512-0.652c0.236-0.155,0.468-0.398,0.43-0.678
							c-0.05-0.373-0.51-0.514-0.885-0.553c-4.011-0.418-9.155,1.116-12.826,2.668C176.492,78.681,180.121,78.241,183.684,77.923z"
							/>
						<path style="fill:#E47573;" d="M182.308,82.234c0.871-0.078,1.781-0.172,2.512-0.652c0.236-0.155,0.468-0.398,0.43-0.678
							c-0.05-0.373-0.51-0.514-0.884-0.553c-4.011-0.418-9.155,1.116-12.826,2.668C175.117,82.992,178.746,82.552,182.308,82.234z"
							/>
						<path style="fill:#E47573;" d="M181.024,87.645c0.871-0.078,1.782-0.172,2.512-0.652c0.236-0.155,0.468-0.398,0.43-0.678
							c-0.05-0.373-0.51-0.514-0.885-0.553c-4.011-0.418-9.155,1.116-12.826,2.668C173.832,88.403,177.461,87.963,181.024,87.645z"
							/>
						<path style="fill:#E47573;" d="M180.107,93.974c0.871-0.078,1.781-0.172,2.512-0.652c0.236-0.155,0.468-0.398,0.43-0.678
							c-0.05-0.373-0.51-0.514-0.885-0.553c-4.011-0.418-9.155,1.116-12.826,2.668C172.915,94.732,176.544,94.292,180.107,93.974z"
							/>
						<path style="fill:#E47573;" d="M180.238,46.86c-0.26-0.835-0.544-1.705-1.168-2.318c-0.202-0.198-0.488-0.373-0.754-0.277
							c-0.354,0.127-0.395,0.607-0.354,0.981c0.438,4.009,3.023,8.713,5.316,11.974C182.497,53.73,181.301,50.275,180.238,46.86z"/>
						<path style="fill:#E47573;" d="M177.63,50.536c-0.26-0.835-0.544-1.705-1.168-2.318c-0.202-0.198-0.488-0.373-0.754-0.278
							c-0.354,0.128-0.395,0.607-0.354,0.981c0.438,4.009,3.023,8.713,5.316,11.974C179.889,57.405,178.692,53.951,177.63,50.536z"
							/>
						<path style="fill:#E47573;" d="M174.6,55.02c-0.324-0.812-0.675-1.658-1.345-2.22c-0.217-0.182-0.515-0.334-0.773-0.218
							c-0.343,0.155-0.346,0.636-0.277,1.006c0.749,3.962,3.692,8.451,6.232,11.524C177.386,61.693,175.925,58.342,174.6,55.02z"/>
						<path style="fill:#E47573;" d="M171.777,59.46c-0.379-0.788-0.788-1.607-1.495-2.122c-0.229-0.167-0.537-0.298-0.786-0.164
							c-0.332,0.178-0.302,0.659-0.206,1.023c1.021,3.901,4.268,8.176,7.013,11.066C175.018,65.924,173.329,62.682,171.777,59.46z"
							/>
						<path style="fill:#E47573;" d="M169.999,64.084c-0.38-0.788-0.788-1.607-1.495-2.122c-0.229-0.167-0.537-0.298-0.786-0.164
							c-0.332,0.178-0.302,0.659-0.206,1.023c1.021,3.901,4.267,8.176,7.013,11.066C173.24,70.548,171.55,67.307,169.999,64.084z"/>
						<path style="fill:#E47573;" d="M168.22,68.709c-0.379-0.788-0.788-1.607-1.495-2.122c-0.229-0.167-0.537-0.298-0.786-0.164
							c-0.332,0.178-0.302,0.658-0.206,1.023c1.021,3.901,4.267,8.176,7.013,11.066C171.461,75.173,169.772,71.931,168.22,68.709z"
							/>
						<path style="fill:#E47573;" d="M166.441,73.333c-0.38-0.788-0.788-1.607-1.495-2.122c-0.229-0.166-0.537-0.298-0.786-0.164
							c-0.332,0.178-0.302,0.659-0.206,1.023c1.021,3.901,4.267,8.176,7.013,11.066C169.683,79.797,167.993,76.555,166.441,73.333z"
							/>
						<path style="fill:#E47573;" d="M164.544,85.309c-0.379-0.788-0.788-1.607-1.495-2.122c-0.229-0.166-0.537-0.298-0.786-0.164
							c-0.332,0.178-0.302,0.658-0.206,1.023c1.021,3.901,4.268,8.176,7.013,11.066C167.785,91.773,166.096,88.531,164.544,85.309z"
							/>
						<path style="fill:#E47573;" d="M165.493,79.261c-0.38-0.788-0.788-1.607-1.495-2.122c-0.229-0.166-0.537-0.298-0.786-0.164
							c-0.332,0.178-0.302,0.658-0.206,1.023c1.021,3.901,4.267,8.176,7.013,11.066C168.734,85.726,167.044,82.484,165.493,79.261z"
							/>
						<g>
							<path style="fill:#5700DD;" d="M191.197,45.493c-0.705,1.012-1.416,2.018-2.136,3.015l-2.064,3.06l-2.006,3.093l-1.911,3.149
								c-2.487,4.231-4.785,8.575-6.689,13.091c-1.982,4.482-3.574,9.13-4.808,13.873l-0.851,3.578l-0.678,3.618l-0.539,3.647
								l-0.369,3.675c0.02-1.231,0.048-2.465,0.091-3.7l0.306-3.694l0.536-3.671l0.717-3.643c1.084-4.835,2.703-9.539,4.63-14.1
								c2.005-4.528,4.313-8.923,6.967-13.095l2.045-3.092l2.14-3.024l2.262-2.931C189.616,47.385,190.403,46.436,191.197,45.493z"
								/>
						</g>
					</g>
					<g>
						<path style="fill:#EEB422;" d="M142.171,40.192c0.159-0.86,0.338-1.757,0.885-2.44c0.177-0.221,0.44-0.428,0.715-0.365
							c0.367,0.085,0.464,0.556,0.468,0.932c0.04,4.032-1.969,9.01-3.859,12.52C140.742,47.28,141.52,43.709,142.171,40.192z"/>
						<path style="fill:#EEB422;" d="M138.145,36.594c-0.023-0.874-0.033-1.789,0.36-2.57c0.127-0.252,0.342-0.51,0.624-0.505
							c0.376,0.007,0.569,0.448,0.651,0.815c0.874,3.937-0.06,9.222-1.182,13.047C138.216,43.825,138.238,40.169,138.145,36.594z"/>
						<path style="fill:#EEB422;" d="M129.033,41.922c-0.758-0.436-1.545-0.904-2.006-1.647c-0.149-0.24-0.257-0.557-0.106-0.796
							c0.202-0.318,0.679-0.252,1.035-0.131c3.815,1.305,7.84,4.857,10.52,7.808C135.241,45.63,132.132,43.707,129.033,41.922z"/>
						<path style="fill:#EEB422;" d="M130.089,47.428c-0.825-0.292-1.683-0.609-2.272-1.256c-0.19-0.209-0.354-0.501-0.249-0.764
							c0.141-0.349,0.622-0.372,0.994-0.316c3.989,0.591,8.591,3.354,11.762,5.769C136.867,49.947,133.461,48.62,130.089,47.428z"/>
						<path style="fill:#EEB422;" d="M130.839,51.04c-0.843-0.233-1.722-0.488-2.355-1.092c-0.205-0.195-0.389-0.475-0.302-0.744
							c0.116-0.358,0.594-0.415,0.969-0.386c4.021,0.307,8.807,2.737,12.141,4.922C137.779,53.074,134.287,51.991,130.839,51.04z"/>
						<path style="fill:#EEB422;" d="M132.659,55.381c-0.843-0.232-1.722-0.488-2.355-1.092c-0.205-0.195-0.389-0.475-0.302-0.744
							c0.116-0.358,0.594-0.415,0.969-0.386c4.021,0.307,8.807,2.737,12.141,4.922C139.599,57.414,136.107,56.331,132.659,55.381z"
							/>
						<path style="fill:#EEB422;" d="M134.086,59.785c-0.843-0.233-1.722-0.488-2.355-1.092c-0.205-0.195-0.389-0.475-0.302-0.744
							c0.116-0.358,0.594-0.415,0.969-0.386c4.021,0.307,8.807,2.737,12.141,4.922C141.025,61.818,137.534,60.736,134.086,59.785z"
							/>
						<path style="fill:#EEB422;" d="M135.406,64.314c-0.843-0.232-1.722-0.488-2.355-1.092c-0.205-0.195-0.389-0.475-0.302-0.744
							c0.116-0.358,0.594-0.415,0.969-0.386c4.021,0.307,8.807,2.737,12.141,4.922C142.346,66.347,138.854,65.264,135.406,64.314z"
							/>
						<path style="fill:#EEB422;" d="M136.299,69.138c-0.843-0.233-1.722-0.488-2.355-1.092c-0.205-0.195-0.389-0.475-0.302-0.744
							c0.116-0.358,0.594-0.415,0.969-0.386c4.021,0.307,8.807,2.737,12.141,4.922C143.239,71.171,139.747,70.088,136.299,69.138z"
							/>
						<path style="fill:#EEB422;" d="M137.053,74.216c-0.843-0.233-1.722-0.488-2.355-1.092c-0.205-0.195-0.389-0.475-0.302-0.744
							c0.116-0.358,0.594-0.415,0.969-0.386c4.021,0.307,8.807,2.737,12.141,4.922C143.993,76.249,140.501,75.167,137.053,74.216z"
							/>
						<path style="fill:#EEB422;" d="M137.635,78.704c-0.843-0.232-1.722-0.488-2.355-1.092c-0.205-0.195-0.389-0.475-0.302-0.744
							c0.116-0.358,0.594-0.414,0.969-0.386c4.021,0.307,8.807,2.737,12.141,4.922C144.574,80.737,141.083,79.654,137.635,78.704z"
							/>
						<path style="fill:#EEB422;" d="M137.929,84.258c-0.843-0.232-1.722-0.488-2.355-1.092c-0.205-0.195-0.389-0.475-0.302-0.744
							c0.116-0.358,0.594-0.415,0.969-0.386c4.021,0.307,8.807,2.737,12.141,4.922C144.868,86.291,141.377,85.208,137.929,84.258z"
							/>
						<path style="fill:#EEB422;" d="M137.698,90.648c-0.843-0.232-1.722-0.488-2.355-1.092c-0.205-0.195-0.389-0.475-0.302-0.744
							c0.116-0.358,0.594-0.415,0.969-0.386c4.021,0.307,8.807,2.737,12.141,4.922C144.637,92.682,141.146,91.599,137.698,90.648z"
							/>
						<path style="fill:#EEB422;" d="M146.005,44.273c0.405-0.775,0.841-1.58,1.564-2.071c0.234-0.159,0.546-0.28,0.791-0.138
							c0.326,0.189,0.28,0.668,0.173,1.029c-1.149,3.865-4.535,8.031-7.374,10.828C142.553,50.626,144.348,47.442,146.005,44.273z"
							/>
						<path style="fill:#EEB422;" d="M147.914,48.356c0.405-0.775,0.841-1.58,1.564-2.071c0.234-0.159,0.546-0.28,0.791-0.138
							c0.326,0.189,0.28,0.668,0.173,1.029c-1.149,3.865-4.535,8.031-7.374,10.828C144.461,54.71,146.257,51.526,147.914,48.356z"/>
						<path style="fill:#EEB422;" d="M150.091,53.311c0.464-0.741,0.961-1.51,1.721-1.943c0.245-0.14,0.567-0.237,0.799-0.076
							c0.31,0.214,0.227,0.688,0.092,1.039c-1.446,3.764-5.146,7.653-8.194,10.222C146.155,59.376,148.193,56.341,150.091,53.311z"
							/>
						<path style="fill:#EEB422;" d="M152.074,58.184c0.514-0.707,1.063-1.44,1.851-1.82c0.255-0.123,0.582-0.197,0.803-0.021
							c0.295,0.235,0.179,0.702,0.02,1.043c-1.703,3.655-5.663,7.28-8.881,9.631C147.727,63.963,149.97,61.076,152.074,58.184z"/>
						<path style="fill:#EEB422;" d="M152.995,63.052c0.514-0.707,1.063-1.44,1.851-1.82c0.255-0.123,0.582-0.197,0.803-0.021
							c0.294,0.235,0.179,0.702,0.02,1.043c-1.703,3.655-5.663,7.28-8.881,9.631C148.649,68.831,150.891,65.944,152.995,63.052z"/>
						<path style="fill:#EEB422;" d="M153.917,67.92c0.514-0.707,1.063-1.44,1.851-1.82c0.255-0.123,0.582-0.197,0.803-0.021
							c0.294,0.235,0.179,0.702,0.02,1.043c-1.703,3.655-5.663,7.28-8.881,9.631C149.571,73.699,151.813,70.812,153.917,67.92z"/>
						<path style="fill:#EEB422;" d="M154.839,72.788c0.514-0.707,1.063-1.44,1.851-1.82c0.255-0.123,0.582-0.197,0.803-0.021
							c0.295,0.235,0.179,0.702,0.02,1.043c-1.703,3.655-5.663,7.279-8.881,9.631C150.492,78.567,152.735,75.68,154.839,72.788z"/>
						<path style="fill:#EEB422;" d="M154.561,84.91c0.514-0.707,1.063-1.44,1.851-1.82c0.255-0.123,0.582-0.197,0.803-0.021
							c0.294,0.235,0.179,0.702,0.02,1.043c-1.703,3.655-5.663,7.28-8.881,9.631C150.214,90.689,152.457,87.802,154.561,84.91z"/>
						<path style="fill:#EEB422;" d="M154.71,78.79c0.514-0.707,1.063-1.44,1.851-1.82c0.255-0.123,0.581-0.197,0.803-0.021
							c0.294,0.235,0.179,0.702,0.02,1.043c-1.703,3.655-5.663,7.279-8.881,9.631C150.364,84.57,152.607,81.683,154.71,78.79z"/>
						<g>
							<path style="fill:#5700DD;" d="M135.469,40.965c0.612,1.069,1.217,2.144,1.811,3.226l1.7,3.289l1.564,3.358l1.458,3.408
								c1.864,4.58,3.347,9.317,4.509,14.131c1.079,4.832,1.83,9.75,2.03,14.701l0.053,3.712l-0.13,3.708l-0.361,3.689
								c-0.179,1.222-0.372,2.441-0.573,3.656l0.295-3.682l0.123-3.684l-0.02-3.68l-0.197-3.672
								c-0.365-4.888-1.099-9.745-2.246-14.51c-1.065-4.784-2.548-9.469-4.237-14.077l-1.316-3.441l-1.42-3.402l-1.483-3.38
								C136.5,43.204,135.981,42.088,135.469,40.965z"/>
						</g>
					</g>
					<g>
						<path style="fill:#2C2D40;" d="M161.309,98.21c0.967-4.64-0.396-9.467-2.39-13.767c-1.994-4.3-4.621-8.295-6.414-12.683
							c-4.193-10.259-3.491-22.02-0.1-32.571c-1.002,11.344,0.507,23.283,4.073,34.099c1.409,4.272,3.161,8.434,4.331,12.777
							C161.978,90.41,162.311,93.825,161.309,98.21z"/>
						<path style="fill:#2C2D40;" d="M164.199,101.697c2.19-8.308-1.618-16.843-3.497-25.226
							c-3.215-14.34-0.554-29.908,7.243-42.365c0.11,4.748-1.725,9.672-2.702,14.32c-2.418,11.506-2.913,23.414-1.46,35.081
							C164.503,89.278,165.407,96.009,164.199,101.697z"/>
						<path style="fill:#2C2D40;" d="M166.442,98.871c2.498-10.47-0.691-21.52,0.763-32.185c1.654-12.136,9.21-23.023,9.922-35.251
							c1.79,8.249-0.523,16.845-3.163,24.863c-2.64,8.018-5.821,16.033-6.157,24.467C167.545,87.355,169.025,92.802,166.442,98.871z
							"/>
					</g>
					<path style="fill:none;stroke:#5700DD;stroke-width:0.5266;stroke-miterlimit:10;" d="M224.812,57.264
						c0,1.798-1.458,3.256-3.256,3.256s-3.256-1.458-3.256-3.256c0-1.798,1.458-3.256,3.256-3.256S224.812,55.466,224.812,57.264z"
						/>
					<path style="fill:none;stroke:#EEB422;stroke-width:0.5266;stroke-miterlimit:10;" d="M161.556,41.808
						c0,1.798-1.458,3.256-3.256,3.256c-1.798,0-3.256-1.458-3.256-3.256c0-1.798,1.458-3.256,3.256-3.256
						C160.098,38.552,161.556,40.01,161.556,41.808z"/>
					<circle style="fill:none;stroke:#BFCDF2;stroke-width:0.5266;stroke-miterlimit:10;" cx="89.828" cy="67.805" r="3.256"/>
					<path style="fill:#2C2D40;" d="M209.86,65.7c0,0.899-0.729,1.628-1.628,1.628c-0.899,0-1.628-0.729-1.628-1.628
						c0-0.899,0.729-1.628,1.628-1.628C209.131,64.072,209.86,64.801,209.86,65.7z"/>
					<path style="fill:#8674FC;" d="M150.419,28.048c0,0.899-0.729,1.628-1.628,1.628c-0.899,0-1.628-0.729-1.628-1.628
						c0-0.899,0.729-1.628,1.628-1.628C149.69,26.42,150.419,27.149,150.419,28.048z"/>
					<path style="fill:#EEB422;" d="M99.715,74.155c0,0.899-0.729,1.628-1.628,1.628s-1.628-0.729-1.628-1.628
						c0-0.899,0.729-1.628,1.628-1.628S99.715,73.256,99.715,74.155z"/>
				</g>
				<g>
					<path style="fill:#E47573;" d="M170.716,159.783l-41.258-67.466l-26.468-8.563c0,0-7.006,13.234-9.341,20.759
						c-2.335,7.525-1.816,14.272-3.633,16.088c-1.816,1.816-16.867,14.791-16.867,14.791c2.939,5.748,7.664,9.977,13.986,11.287
						c0.449,4.039,0.504,8.145,0.579,12.249c1.758,0.738,5.61,2.485,5.61,3.62c0,1.099-3.653,0.966-5.499,0.828
						c0.133,3.809,0.41,7.596,1.169,11.301c0.879,4.29,2.692,8.885,6.635,10.789c1.88,0.908,4.022,1.081,6.108,1.152
						c7.071,0.241,14.174-0.522,21.032-2.261l22.439,39.938l44.71-31.039L170.716,159.783z"/>
					<path style="fill:#2C2D40;" d="M199.491,99.708c3.593,6.474,5.092,14.089,4.22,21.441c-0.069,0.584-0.281,1.304-0.863,1.388
						c-0.3,0.044-0.59-0.112-0.841-0.282c-1.393-0.945-2.328-2.535-2.479-4.211c1.077,6.635-0.175,13.493-2.625,19.753
						c-2.45,6.26-6.06,11.994-9.837,17.555c-1.728,2.544-3.512,5.093-4.614,7.964c-1.102,2.871-1.465,6.154-0.307,9.003
						c-1.478,0.103-2.986-0.623-3.827-1.842c1.027,1.35,1.975,3.486,0.62,4.507c-0.895,0.675-2.165,0.268-3.199-0.164
						c-2.763-1.151-5.567-2.326-7.905-4.196c-3.065-2.452-5.12-5.931-6.883-9.437c-4.047-8.045-6.924-16.678-8.513-25.542
						c-3.975-0.474-8.413-0.776-12.388-1.25c0.06-5.157,0.128-10.46,0.718-15.583c-2.907-0.127-5.85-2.498-7.135-5.108
						c-1.285-2.611-1.594-5.578-1.87-8.475c-3.146,0.055-6.669-0.795-8.846-3.066c-2.178-2.271-3.354-5.47-3.168-8.61
						c-2.9,1.696-6.547,1.669-9.669,0.426c-3.121-1.243-5.609-3.98-6.549-7.206c-2.068,1.925-4.098,4.323-5.629,6.696
						c-0.099,0.153-0.054,0.05-0.147,0.207c-2.291-3.47-1.823-8.273,0.381-11.798c2.204-3.526,5.864-5.92,9.703-7.517
						c0,0,15.239,11.292,45.003,18.106S199.491,99.708,199.491,99.708z"/>
					<g>
						<path style="fill:#E47573;" d="M172.339,129.766c-0.355,5.948-3.373,11.686-8.072,15.349
							c-1.471,1.146-3.144,2.113-4.987,2.399c-4.156,0.645-8.217-2.468-9.82-6.355c-1.604-3.889-1.225-8.312-0.286-12.411
							c1.212-5.299,3.909-10.979,9.083-12.648C166.599,113.409,172.779,122.399,172.339,129.766z"/>
						<path style="fill:#E47573;" d="M153.944,142.818c1.782-0.706,3.359-1.921,4.495-3.465c0.228-0.31,0.446-0.652,0.477-1.035
							c0.06-0.734-0.556-1.328-1.119-1.802c-1.138-0.96-2.276-1.92-3.415-2.88c-0.227-0.192-0.463-0.396-0.568-0.674
							c-0.114-0.307-0.048-0.647,0.02-0.967c0.864-4.077,1.92-8.48,5.155-11.108c0.873-0.709,1.909-1.266,3.028-1.38
							c1.662-0.169,3.301,0.67,4.473,1.86c1.173,1.19,1.952,2.703,2.683,4.204c0,0,1.583,8.445-3.908,14.061
							C159.774,145.248,153.944,142.818,153.944,142.818z"/>
						<g>
							<path style="fill:#2C2D40;" d="M169.173,125.571c-0.932-1.454-1.851-2.941-3.111-3.989c-1.22-1.048-2.835-1.649-4.234-1.321
								c-1.405,0.341-2.689,1.42-3.634,2.674c-0.966,1.254-1.667,2.737-2.179,4.31c-0.553,1.561-0.928,3.213-1.313,4.881
								c-0.052,0.21-0.086,0.371-0.09,0.459c0.003,0.102-0.015,0.056,0.013,0.117c0.053,0.114,0.482,0.465,0.782,0.738
								c0.648,0.568,1.285,1.148,1.917,1.733l0.955,0.877c0.331,0.311,0.694,0.654,0.957,1.157c0.286,0.478,0.334,1.247,0.056,1.748
								c-0.257,0.505-0.563,0.809-0.865,1.146c-1.242,1.304-2.806,2.27-4.485,2.717c1.521-0.828,2.831-1.947,3.784-3.298
								c0.234-0.333,0.494-0.695,0.586-0.981c0.089-0.288,0.039-0.472-0.129-0.726c-0.34-0.487-1.127-0.996-1.792-1.534
								c-0.684-0.525-1.363-1.055-2.032-1.597c-0.337-0.302-0.643-0.432-1.116-1.006c-0.23-0.287-0.367-0.769-0.355-1.098
								c-0.002-0.344,0.058-0.606,0.095-0.817c0.337-1.697,0.709-3.416,1.276-5.115c0.588-1.683,1.376-3.367,2.567-4.807
								c0.594-0.721,1.29-1.35,2.062-1.897c0.778-0.54,1.688-0.961,2.686-1.099c1.001-0.144,2.018,0.039,2.881,0.44
								c0.867,0.401,1.616,0.975,2.235,1.651C167.914,122.307,168.604,123.943,169.173,125.571z"/>
						</g>
					</g>
					<g>
						<g>
							<path style="fill:#BFCDF2;" d="M175.055,106.429c0.571,1.897,1.217,3.763,2.041,5.55c0.795,1.782,1.696,3.578,2.784,5.142
								c0.563,0.735,1.239,1.458,2.012,1.641c0.389,0.088,0.698,0.018,0.873-0.216c0.191-0.235,0.263-0.676,0.302-1.157
								c0.194-1.934,0.141-3.883-0.076-5.809l-0.001-0.008c-0.032-0.285,0.173-0.541,0.457-0.573
								c0.258-0.029,0.492,0.136,0.558,0.379c0.615,2.248,1.937,4.311,3.734,5.817c0.234,0.185,0.452,0.38,0.664,0.492
								c0.216,0.124,0.46,0.194,0.602,0.182c0.128-0.02,0.199-0.052,0.261-0.259c0.053-0.202,0.064-0.537,0.081-0.823
								c0.048-1.179-0.082-2.371-0.388-3.521l-0.003-0.013c-0.042-0.158,0.052-0.32,0.21-0.362c0.124-0.033,0.251,0.019,0.32,0.119
								c0.665,0.974,1.326,1.948,2.152,2.774c0.818,0.819,1.838,1.491,3.026,1.663c-1.205-0.022-2.344-0.632-3.255-1.413
								c-0.926-0.784-1.699-1.723-2.408-2.681l0.527-0.256c0.383,1.19,0.586,2.441,0.598,3.7c-0.007,0.323,0.016,0.603-0.055,0.998
								c-0.042,0.394-0.458,0.899-0.953,0.937c-0.92,0.074-1.484-0.479-1.96-0.833c-1.969-1.596-3.438-3.796-4.152-6.243
								l1.015-0.202c0.255,2.002,0.23,4.034,0.01,6.035c-0.064,0.488-0.099,1.089-0.531,1.648c-0.215,0.272-0.542,0.471-0.878,0.544
								c-0.337,0.078-0.659,0.043-0.951-0.027c-1.18-0.332-1.898-1.221-2.474-2.057c-1.085-1.745-1.869-3.553-2.594-5.419
								C175.935,110.302,175.386,108.384,175.055,106.429z"/>
						</g>
						<g>
							<path style="fill:#BFCDF2;" d="M183.014,130.439c-0.427,1.28-0.803,2.564-1.124,3.856c-0.318,1.287-0.587,2.605-0.776,3.888
								c-0.085,0.617-0.043,1.234,0.194,1.627c0.128,0.199,0.253,0.269,0.369,0.261c0.133,0.004,0.373-0.115,0.609-0.295
								c1.024-0.727,1.85-1.723,2.433-2.84l0.013-0.025c0.122-0.233,0.409-0.323,0.642-0.202c0.227,0.119,0.318,0.396,0.21,0.626
								c-0.281,0.591-0.505,1.197-0.619,1.811c-0.112,0.615-0.077,1.24,0.132,1.822c0.215,0.571,0.612,1.09,1.191,1.343
								c0.573,0.25,1.302,0.256,1.873-0.137c-0.471,0.522-1.285,0.669-1.99,0.479c-0.732-0.177-1.333-0.756-1.659-1.428
								c-0.346-0.67-0.442-1.454-0.368-2.188c0.065-0.74,0.298-1.437,0.569-2.09l0.864,0.399c-0.578,1.303-1.525,2.432-2.674,3.28
								c-0.302,0.204-0.665,0.462-1.215,0.479c-0.575,0.017-1.048-0.395-1.251-0.767c-0.447-0.788-0.368-1.604-0.256-2.295
								c0.259-1.363,0.639-2.656,1.108-3.935C181.761,132.837,182.337,131.606,183.014,130.439z"/>
						</g>
						<g>
							<path style="fill:#BFCDF2;" d="M165.924,150.889c0.15,1.23,0.427,2.42,0.818,3.561c0.396,1.123,0.914,2.256,1.544,3.195
								c0.326,0.45,0.717,0.779,1.153,0.879c0.467,0.094,0.837-0.012,1.049-0.377c0.239-0.385,0.425-1.014,0.544-1.555
								c0.115-0.564,0.187-1.139,0.183-1.719l0.938-0.003c-0.064,1.162-0.119,2.322,0.575,3.131c0.337,0.39,0.818,0.674,1.353,0.624
								c0.538-0.049,1.046-0.405,1.477-0.81c-0.319,0.498-0.766,0.973-1.412,1.154c-0.652,0.191-1.384-0.075-1.863-0.533
								c-0.506-0.448-0.803-1.105-0.929-1.733c-0.138-0.635-0.142-1.264-0.14-1.859c0.001-0.259,0.212-0.468,0.471-0.467
								c0.249,0.001,0.452,0.196,0.466,0.441l0.001,0.022c0.036,0.651,0.007,1.31-0.123,1.952c-0.146,0.655-0.27,1.24-0.656,1.919
								c-0.198,0.333-0.572,0.655-0.982,0.777c-0.408,0.131-0.821,0.119-1.197,0.025c-0.78-0.189-1.341-0.777-1.694-1.336
								c-0.689-1.141-1.092-2.321-1.372-3.56C165.865,153.387,165.796,152.12,165.924,150.889z"/>
						</g>
						<g>
							<path style="fill:#BFCDF2;" d="M136.485,96.277c0.791,1.857,1.778,3.613,3.017,5.176c1.205,1.582,2.633,2.989,4.224,4.157
								c0.799,0.578,1.613,1.137,2.482,1.599c0.786,0.474,1.828,0.737,2.224,0.306c0.212-0.188,0.307-0.594,0.338-1.065
								c0.035-0.478,0.041-0.959,0.009-1.438c-0.062-0.957-0.247-1.907-0.556-2.814l0.994-0.286
								c0.262,1.154,0.794,2.242,1.512,3.197c0.722,0.951,1.637,1.761,2.68,2.354c1.029,0.573,2.23,1.043,3.37,1.012
								c0.281-0.015,0.555-0.067,0.795-0.179c0.118-0.05,0.243-0.13,0.327-0.2c0.07-0.049,0.11-0.14,0.148-0.245
								c0.113-0.473-0.075-1.118-0.279-1.658l-0.01-0.026c-0.046-0.122,0.015-0.258,0.137-0.305c0.071-0.027,0.148-0.017,0.208,0.02
								c0.712,0.443,1.456,0.86,2.219,1.224c0.766,0.354,1.547,0.704,2.393,0.833c-0.858-0.026-1.695-0.292-2.494-0.593
								c-0.805-0.304-1.585-0.656-2.357-1.049l0.336-0.31c0.282,0.604,0.539,1.217,0.426,2.002c-0.05,0.194-0.133,0.408-0.31,0.566
								c-0.151,0.139-0.293,0.234-0.459,0.32c-0.325,0.172-0.68,0.256-1.025,0.293c-1.397,0.098-2.662-0.348-3.852-0.924
								c-1.17-0.623-2.204-1.49-3.036-2.527c-0.827-1.043-1.425-2.268-1.738-3.574c-0.067-0.278,0.105-0.558,0.383-0.624
								c0.26-0.062,0.521,0.083,0.608,0.329l0.003,0.008c0.35,0.996,0.568,2.04,0.62,3.095c0.03,0.527,0.019,1.056-0.024,1.582
								c-0.049,0.512-0.122,1.189-0.659,1.714c-0.536,0.522-1.316,0.559-1.865,0.43c-0.573-0.123-1.084-0.366-1.532-0.639
								c-0.894-0.515-1.743-1.103-2.54-1.753c-1.593-1.301-2.988-2.83-4.139-4.515C137.929,100.073,137.04,98.218,136.485,96.277z"
								/>
						</g>
						<g>
							<path style="fill:#BFCDF2;" d="M112.883,81.591c-0.231,1-0.266,2.031,0.01,2.969c0.248,0.938,0.797,1.758,1.538,2.313
								c0.737,0.558,1.649,0.833,2.513,0.678c0.872-0.129,1.672-0.665,2.074-1.393l0.006-0.01c0.139-0.251,0.454-0.342,0.705-0.203
								c0.134,0.074,0.223,0.2,0.255,0.338c0.358,1.558,1.604,2.857,3.074,3.674c0.749,0.407,1.562,0.721,2.407,0.966
								c0.842,0.264,1.719,0.425,2.595,0.622c-0.898,0.023-1.794-0.037-2.697-0.149c-0.897-0.13-1.8-0.35-2.653-0.732
								c-0.86-0.376-1.656-0.917-2.319-1.612c-0.67-0.687-1.18-1.563-1.419-2.528l0.965,0.125c-0.568,1.095-1.701,1.745-2.845,1.907
								c-1.175,0.168-2.369-0.278-3.201-1.022c-0.85-0.74-1.39-1.793-1.527-2.866C112.239,83.593,112.417,82.512,112.883,81.591z"/>
						</g>
					</g>
					<g>
						<path style="fill:#2C2D40;" d="M110.29,123.127c-1.072,0.906-2.273,1.66-3.526,2.342c-1.263,0.661-2.603,1.194-3.992,1.59
							c-1.378,0.396-2.805,0.912-4.276,0.759c-1.455-0.134-2.913-0.505-4.181-1.431l0.039-0.26c1.459-0.517,2.764-0.727,4.066-0.941
							c1.286-0.232,2.607-0.036,3.931-0.191c1.313-0.156,2.628-0.405,3.932-0.751c1.314-0.325,2.592-0.802,3.869-1.34
							L110.29,123.127z"/>
					</g>
					<g>
						<polygon style="fill:#2C2D40;" points="96.805,126.006 99.57,115.509 97.836,126.225 						"/>
					</g>
					<path style="fill:#2C2D40;" d="M95.241,100.135c0,0-0.994,2.255-1.827,5.146c5.135-0.803,10.042,0.017,14.583,2.544
						c4.541,2.527,8.801,6.698,10.825,11.485c0,0-2.565-11.045-10.254-15.747C99.872,98.246,95.241,100.135,95.241,100.135z"/>
					<path style="fill:#2C2D40;" d="M122.521,184.497c8.52-4.427,16.049-10.748,21.886-18.372
						c-4.03,9.569-10.164,18.454-17.673,25.626"/>
					<path style="fill:#8674FC;" d="M233.157,245.209c0,0-34.702-53.529-46.269-57.626c-11.567-4.097-35.425,13.977-51.089,26.75
						c-15.664,12.772-33.979,34.491-33.979,34.491L233.157,245.209z"/>
					<path style="opacity:0.32;fill:#FF7673;" d="M120.531,140.824c-0.36,3.76-5.458,6.347-11.386,5.78
						c-5.929-0.567-10.443-4.075-10.083-7.835c0.36-3.76,5.457-6.347,11.386-5.78C116.377,133.557,120.891,137.065,120.531,140.824z
						"/>
					<g>
						<path style="fill:#2C2D40;" d="M86.028,143.682c2.148,0.08,4.24,0.733,6.163,1.683l-0.738,0.315
							c0.597-1.996,0.614-4.123,0.16-6.305c1.261,1.87,1.525,4.396,0.843,6.61l-0.185,0.602l-0.553-0.286
							C89.881,145.349,87.984,144.555,86.028,143.682z"/>
					</g>
				</g>
			</g>
		</g>
	</g>
	<g>
		<defs>
			<path id="SVGID_00000042013185126551207090000014300144100890039702_" d="M449.772,143.187c0,53.389-43.28,96.669-96.669,96.669
				c-53.389,0-96.669-43.28-96.669-96.669c0-53.389,43.28-132.92,96.669-132.92C406.492,10.267,449.772,89.798,449.772,143.187z"/>
		</defs>
		<clipPath id="SVGID_00000036216052719151553070000013529291660611450258_">
			<use xlink:href="#SVGID_00000042013185126551207090000014300144100890039702_"  style="overflow:visible;"/>
		</clipPath>
		
			<circle style="clip-path:url(#SVGID_00000036216052719151553070000013529291660611450258_);fill:#8674FC;" cx="353.103" cy="143.187" r="96.669"/>
		<g style="clip-path:url(#SVGID_00000036216052719151553070000013529291660611450258_);">
			<g>
				<g>
					<path style="fill:#BFCDF2;" d="M306.719,99.708c0,0,16.957-9.438,41.857-16.229c24.9-6.791,49.793-9.119,49.793-9.119
						s-26.539,19.82-44.442,23.524C336.023,101.589,306.719,99.708,306.719,99.708z"/>
				</g>
				<g>
					<path style="fill:#E47573;" d="M335.494,159.783l41.258-67.466l26.468-8.563c0,0,7.006,13.234,9.341,20.759
						c2.335,7.525,4.048,19.193,4.048,19.193l7.814,7.414c3.259,4.166,2.346,10.216-1.999,13.233l-3.35,2.326
						c0,0,0.664,44.745-35.634,37.679l-22.439,39.938l-44.71-31.039L335.494,159.783z"/>
					<path style="fill:#2C2D40;" d="M306.719,99.708c-3.593,6.474-5.092,14.089-4.22,21.441c0.069,0.584,0.281,1.304,0.863,1.388
						c0.3,0.044,0.59-0.112,0.841-0.282c1.393-0.945,2.328-2.535,2.479-4.211c-1.077,6.635,0.175,13.493,2.625,19.753
						s6.06,11.994,9.837,17.555c1.728,2.544,3.512,5.093,4.614,7.964c1.102,2.871,1.465,6.154,0.307,9.003
						c1.478,0.103,2.986-0.623,3.827-1.842c-1.026,1.35-1.975,3.486-0.62,4.507c0.895,0.675,2.165,0.268,3.199-0.164
						c2.763-1.151,5.567-2.326,7.905-4.196c3.065-2.452,5.12-5.931,6.883-9.437c4.047-8.045,6.924-16.678,8.513-25.542
						c3.975-0.474,8.413-0.776,12.388-1.25c-0.06-5.157-0.128-10.46-0.718-15.583c39.263-6.595,36.297-28.814,37.237-32.04
						c2.068,1.925,4.098,4.323,5.629,6.696c0.099,0.153,0.054,0.05,0.147,0.207c2.291-3.47,1.823-8.273-0.381-11.798
						c-2.204-3.526-5.864-5.92-9.703-7.517c0,0-15.239,11.292-45.003,18.106S306.719,99.708,306.719,99.708z"/>
					<path style="fill:#2C2D40;" d="M354.991,133.455c-4.763,32.536-21.55,63.174-46.409,84.698
						c-5.926,5.131-12.275,9.749-18.614,14.359c-6.035,4.389-12.071,8.779-18.106,13.168c-8.884-7.547-13.513-18.461-14.116-30.102
						c-0.603-11.641,3.299-23.347,10.22-32.727c-3.536,3.767-7.683,8.75-10.383,13.155c-3.037-11.536,1.989-23.742,8.973-33.412
						c6.984-9.671,16.009-17.741,22.867-27.502c6.898-9.818,11.417-21.071,15.876-32.211c6.558,1.441,13.117,2.883,19.675,4.324
						c7.247,1.593,14.675,3.26,20.876,7.335S356.065,126.114,354.991,133.455z"/>
					<g>
						<path style="fill:#E47573;" d="M333.871,129.766c0.355,5.948,3.373,11.686,8.072,15.349c1.471,1.146,3.144,2.113,4.987,2.399
							c4.156,0.645,8.217-2.468,9.82-6.355c1.604-3.889,1.225-8.312,0.286-12.411c-1.212-5.299-3.909-10.979-9.083-12.648
							C339.611,113.409,333.431,122.399,333.871,129.766z"/>
						<path style="fill:#E47573;" d="M352.266,142.818c-1.782-0.706-3.359-1.921-4.495-3.465c-0.228-0.31-0.446-0.652-0.477-1.035
							c-0.06-0.734,0.556-1.328,1.119-1.802c1.138-0.96,2.276-1.92,3.415-2.88c0.227-0.192,0.463-0.396,0.568-0.674
							c0.114-0.307,0.048-0.647-0.02-0.967c-0.864-4.077-1.92-8.48-5.155-11.108c-0.873-0.709-1.909-1.266-3.028-1.38
							c-1.662-0.169-3.301,0.67-4.473,1.86c-1.173,1.19-1.952,2.703-2.683,4.204c0,0-1.583,8.445,3.908,14.061
							C346.436,145.248,352.266,142.818,352.266,142.818z"/>
						<g>
							<path style="fill:#2C2D40;" d="M337.036,125.571c0.57-1.627,1.26-3.264,2.48-4.638c0.618-0.675,1.367-1.25,2.235-1.651
								c0.862-0.401,1.879-0.584,2.881-0.44c0.997,0.138,1.908,0.559,2.686,1.099c0.772,0.547,1.469,1.176,2.063,1.897
								c1.192,1.44,1.979,3.124,2.567,4.807c0.567,1.699,0.939,3.418,1.276,5.115c0.037,0.21,0.097,0.473,0.095,0.817
								c0.012,0.328-0.125,0.811-0.355,1.098c-0.473,0.574-0.779,0.703-1.116,1.006c-0.669,0.542-1.348,1.072-2.032,1.597
								c-0.664,0.538-1.452,1.047-1.792,1.534c-0.168,0.255-0.218,0.439-0.128,0.726c0.092,0.286,0.353,0.648,0.586,0.981
								c0.953,1.351,2.264,2.47,3.784,3.298c-1.679-0.447-3.243-1.413-4.485-2.717c-0.302-0.337-0.608-0.641-0.865-1.146
								c-0.278-0.501-0.23-1.27,0.056-1.748c0.263-0.502,0.626-0.846,0.957-1.157l0.955-0.877c0.633-0.585,1.27-1.165,1.917-1.733
								c0.3-0.273,0.73-0.624,0.782-0.738c0.028-0.061,0.01-0.015,0.013-0.117c-0.004-0.088-0.038-0.249-0.09-0.459
								c-0.385-1.668-0.76-3.321-1.312-4.881c-0.512-1.573-1.213-3.056-2.179-4.31c-0.945-1.253-2.229-2.332-3.634-2.674
								c-1.399-0.328-3.013,0.273-4.234,1.321C338.887,122.63,337.969,124.117,337.036,125.571z"/>
						</g>
					</g>
					<path style="fill:#2C2D40;" d="M383.69,184.497c-8.52-4.427-16.049-10.748-21.886-18.372
						c4.03,9.569,10.164,18.454,17.673,25.626"/>
					<path style="fill:#BFCDF2;" d="M273.053,245.209c0,0,34.702-53.529,46.269-57.626c11.567-4.097,35.425,13.977,51.089,26.75
						c15.664,12.772,33.979,34.491,33.979,34.491L273.053,245.209z"/>
					<path style="opacity:0.32;fill:#FF7673;" d="M385.679,140.824c0.36,3.76,5.457,6.347,11.386,5.78
						c5.929-0.567,10.443-4.075,10.083-7.835c-0.36-3.76-5.458-6.347-11.386-5.78C389.833,133.557,385.319,137.065,385.679,140.824z
						"/>
					<path style="fill:#2C2D40;" d="M411.204,122.363c0,2.361-1.222,4.275-2.729,4.275c-1.507,0-2.729-1.914-2.729-4.275
						c0-2.361,1.222-4.275,2.729-4.275C409.982,118.088,411.204,120.002,411.204,122.363z"/>
					<path style="fill:#2C2D40;" d="M388.557,117.547c8.97-1.738,24.633-10.832,24.633-10.832s-1.169-4.132-1.935-5.84
						C404.93,107.777,397.077,113.665,388.557,117.547z"/>
					<path style="fill:#C33C4C;" d="M417.801,159.136c-4.797,2.092-10.201,2.769-15.366,1.923
						c6.065-1.927,11.251-4.814,16.348-8.624C420.261,154.472,420.108,158.13,417.801,159.136z"/>
					<path style="fill:#C33C4C;" d="M402.957,160.614c4.01,1.614,8.032,3.232,12.201,4.374c0.542,0.148,1.132,0.286,1.651,0.072
						c0.692-0.285,1.008-1.088,1.129-1.826c0.311-1.902-0.214-3.927-1.412-5.437"/>
					<g>
						<g>
							<path style="fill:#BFCDF2;" d="M396.786,79.793c-0.325,2.629-1.149,5.193-2.276,7.606c-1.156,2.404-2.647,4.643-4.347,6.701
								c-3.422,4.115-7.703,7.437-12.284,10.15c-4.628,2.635-9.561,4.744-14.689,6.158c-2.565,0.7-5.168,1.25-7.793,1.636
								c-2.63,0.351-5.275,0.579-7.921,0.577c2.634-0.237,5.253-0.566,7.836-1.087c2.587-0.485,5.144-1.118,7.651-1.904
								c5.015-1.556,9.872-3.626,14.389-6.291c4.546-2.592,8.725-5.854,12.2-9.765C393.014,89.676,395.692,84.983,396.786,79.793z"
								/>
						</g>
						<g>
							<path style="fill:#BFCDF2;" d="M363.335,96.044c-0.87,0.554-1.746,1.101-2.629,1.637l-2.713,1.505l-2.797,1.348l-2.856,1.226
								c-3.849,1.545-7.861,2.673-11.925,3.509c-4.081,0.753-8.223,1.208-12.371,1.223l-3.107-0.065l-3.099-0.2l-3.079-0.378
								c-1.021-0.166-2.038-0.345-3.052-0.532c1.031,0.075,2.057,0.158,3.081,0.255l3.082,0.14l3.079,0.05l3.075-0.08
								c4.095-0.181,8.178-0.623,12.189-1.446c4.028-0.739,7.977-1.865,11.842-3.231l2.881-1.08l2.836-1.202l2.804-1.287
								C361.488,96.963,362.408,96.5,363.335,96.044z"/>
						</g>
						<g>
							<path style="fill:#BFCDF2;" d="M335.127,149.971c-0.696,1.42-1.465,2.798-2.219,4.188c-0.788,1.369-1.597,2.726-2.417,4.077
								c-1.647,2.699-3.431,5.312-5.277,7.878c-1.867,2.552-3.799,5.057-5.854,7.459c-1.031,1.198-2.071,2.388-3.128,3.561
								c-1.089,1.147-2.161,2.305-3.296,3.406l2.902-3.74c0.974-1.238,1.941-2.481,2.891-3.736c1.897-2.511,3.796-5.018,5.633-7.57
								c1.858-2.537,3.653-5.119,5.454-7.701c0.899-1.292,1.78-2.597,2.656-3.906L335.127,149.971z"/>
						</g>
						<g>
							<path style="fill:#BFCDF2;" d="M323.295,123.578c-0.785,4.425-2.148,8.741-3.838,12.913
								c-1.721,4.163-3.805,8.17-6.085,12.053c-4.577,7.766-10.009,14.96-15.303,22.2c-5.359,7.187-10.548,14.514-14.828,22.374
								c-4.271,7.834-7.543,16.325-8.604,25.265c0.305-4.484,1.26-8.917,2.614-13.212c1.386-4.289,3.203-8.432,5.275-12.433
								c4.167-8.004,9.398-15.373,14.697-22.618c5.37-7.194,10.764-14.366,15.458-21.99
								C317.365,140.52,321.282,132.348,323.295,123.578z"/>
						</g>
						<g>
							<path style="fill:#BFCDF2;" d="M313.679,114.595c-1.607,2.73-3.298,5.408-4.986,8.09c-1.726,2.657-3.485,5.292-5.267,7.913
								c-3.582,5.229-7.363,10.32-11.218,15.351c-3.923,4.979-7.927,9.897-12.108,14.66c-2.101,2.373-4.221,4.727-6.37,7.055
								c-2.183,2.297-4.361,4.596-6.611,6.827l3.127-3.575l3.1-3.596c2.067-2.395,4.116-4.805,6.138-7.237
								c4.046-4.862,8.045-9.761,11.894-14.779c3.916-4.965,7.674-10.052,11.39-15.171c1.858-2.56,3.687-5.14,5.499-7.734
								l2.72-3.891L313.679,114.595z"/>
						</g>
					</g>
				</g>
			</g>
			<g>
				<path style="fill:#2C2D40;" d="M366.717,39.321c0.751,3.549,0.088,7.397-1.989,11.542l-4.207,8.449
					c-0.607,1.24-0.863,2.426-0.768,3.557c0,0.002,0,0.005,0.001,0.007c0.077,0.809-0.438,1.556-1.233,1.724l-10.237,2.166
					c-1.056,0.223-2.094-0.452-2.317-1.508l0,0c-0.739-3.493-0.254-6.81,1.457-9.952l4.378-8.051c1.121-2.09,1.541-3.802,1.26-5.132
					c-0.715-3.381-2.737-4.721-6.063-4.017c-2.772,0.587-4.133,2.141-4.082,4.664c0.019,0.952-0.595,1.798-1.527,1.995l-9.906,2.096
					c-1.132,0.239-2.222-0.553-2.353-1.703c-0.517-4.553,0.535-8.589,3.157-12.108c2.804-3.721,6.838-6.139,12.106-7.253
					c5.21-1.102,9.846-0.548,13.906,1.663C362.75,29.88,365.556,33.833,366.717,39.321z M363.642,76.116
					c0.457,2.162,0.074,4.185-1.15,6.064c-1.224,1.882-2.917,3.05-5.079,3.508c-2.162,0.457-4.184,0.075-6.064-1.15
					c-1.881-1.223-3.05-2.916-3.508-5.079c-0.457-2.162-0.074-4.183,1.15-6.065c1.223-1.879,2.917-3.05,5.079-3.507
					c2.162-0.458,4.184-0.073,6.065,1.149C362.015,72.262,363.184,73.954,363.642,76.116z"/>
			</g>
			<g>
				<path style="fill:#EEB422;" d="M393.332,53.185c-0.79,1.987-2.371,3.659-4.744,5.016l-4.823,2.774
					c-0.703,0.411-1.215,0.909-1.538,1.495c-0.001,0.001-0.001,0.002-0.002,0.004c-0.226,0.422-0.723,0.621-1.168,0.444
					l-5.732-2.279c-0.591-0.235-0.88-0.905-0.645-1.496l0,0c0.777-1.956,2.098-3.426,3.964-4.409l4.777-2.522
					c1.233-0.66,1.998-1.363,2.294-2.108c0.753-1.893,0.198-3.21-1.664-3.951c-1.552-0.617-2.728-0.298-3.526,0.957
					c-0.301,0.474-0.879,0.688-1.401,0.481l-5.547-2.205c-0.634-0.252-0.91-0.997-0.599-1.604c1.233-2.403,3.066-4.041,5.502-4.912
					c2.591-0.911,5.36-0.781,8.31,0.392c2.917,1.16,5.011,2.945,6.282,5.355C394.466,47.256,394.553,50.112,393.332,53.185z
					 M379.811,70.24c-0.481,1.211-1.33,2.078-2.544,2.601c-1.215,0.524-2.427,0.545-3.638,0.064s-2.078-1.329-2.601-2.544
					c-0.524-1.214-0.545-2.427-0.064-3.638c0.481-1.211,1.329-2.077,2.544-2.601c1.214-0.523,2.427-0.545,3.638-0.063
					s2.077,1.33,2.602,2.544C380.271,67.817,380.292,69.03,379.811,70.24z"/>
			</g>
			<g>
				<path style="fill:#EEB422;" d="M323.326,55.611c1.537,1.486,2.483,3.584,2.835,6.295l0.732,5.516
					c0.112,0.806,0.378,1.47,0.798,1.991c0.001,0.001,0.002,0.002,0.003,0.003c0.304,0.37,0.299,0.905-0.033,1.249l-4.287,4.435
					c-0.442,0.458-1.172,0.47-1.629,0.028l0,0c-1.513-1.463-2.371-3.243-2.571-5.342l-0.516-5.377
					c-0.142-1.391-0.501-2.366-1.077-2.923c-1.465-1.416-2.894-1.403-4.287,0.038c-1.161,1.201-1.313,2.409-0.456,3.625
					c0.323,0.459,0.302,1.075-0.088,1.479l-4.148,4.292c-0.474,0.49-1.268,0.463-1.711-0.056c-1.754-2.054-2.572-4.373-2.452-6.957
					c0.142-2.743,1.316-5.254,3.522-7.537c2.182-2.257,4.629-3.515,7.342-3.774C318.273,52.308,320.948,53.313,323.326,55.611z
					 M333.96,74.601c0.937,0.905,1.416,2.02,1.439,3.342c0.023,1.323-0.419,2.452-1.324,3.389c-0.905,0.937-2.02,1.417-3.342,1.438
					c-1.322,0.023-2.452-0.419-3.389-1.324c-0.937-0.905-1.416-2.019-1.439-3.342c-0.022-1.322,0.419-2.452,1.324-3.389
					c0.905-0.937,2.02-1.416,3.342-1.439C331.894,73.255,333.023,73.696,333.96,74.601z"/>
			</g>
			<g>
				<circle style="fill:none;stroke:#BFCDF2;stroke-width:0.5266;stroke-miterlimit:10;" cx="314.777" cy="81.789" r="3.256"/>
				<path style="fill:#BFCDF2;" d="M303.081,90.224c0,0.899-0.729,1.628-1.628,1.628c-0.899,0-1.628-0.729-1.628-1.628
					s0.729-1.628,1.628-1.628C302.352,88.596,303.081,89.325,303.081,90.224z"/>
			</g>
			<g>
				<circle style="fill:none;stroke:#BFCDF2;stroke-width:0.5266;stroke-miterlimit:10;" cx="410.127" cy="58.017" r="3.256"/>
				<path style="fill:#BFCDF2;" d="M398.431,66.452c0,0.899-0.729,1.628-1.628,1.628c-0.899,0-1.628-0.729-1.628-1.628
					c0-0.899,0.729-1.628,1.628-1.628C397.702,64.824,398.431,65.553,398.431,66.452z"/>
			</g>
			<g>
				<circle style="fill:none;stroke:#BFCDF2;stroke-width:0.5266;stroke-miterlimit:10;" cx="317.128" cy="30.326" r="3.256"/>
				<path style="fill:#BFCDF2;" d="M319.277,42.941c0,0.899-0.729,1.628-1.628,1.628c-0.899,0-1.628-0.729-1.628-1.628
					c0-0.899,0.729-1.628,1.628-1.628C318.548,41.313,319.277,42.042,319.277,42.941z"/>
			</g>
			<g>
				<g>
					<path style="fill:#5700DD;" d="M397.677,50.985c0.821-1.051,1.741-1.969,2.697-2.842c0.949-0.881,1.957-1.683,2.976-2.47
						c1.038-0.762,2.089-1.507,3.198-2.175c1.103-0.676,2.242-1.304,3.48-1.799c-0.82,1.052-1.74,1.972-2.695,2.843
						c-0.949,0.88-1.957,1.682-2.978,2.468c-1.039,0.761-2.09,1.506-3.2,2.173C400.052,49.86,398.914,50.488,397.677,50.985z"/>
				</g>
				<g>
					<path style="fill:#5700DD;" d="M394.547,42.425c0.26-0.767,0.64-1.419,1.061-2.03c0.413-0.619,0.887-1.179,1.395-1.707
						c0.51-0.525,1.056-1.016,1.66-1.45c0.597-0.441,1.238-0.84,1.998-1.123c-0.259,0.768-0.638,1.421-1.059,2.032
						c-0.414,0.618-0.888,1.179-1.397,1.706c-0.512,0.524-1.057,1.015-1.662,1.448C395.945,41.741,395.306,42.14,394.547,42.425z"/>
				</g>
				<g>
					<path style="fill:#5700DD;" d="M372.439,37.182c0.227-1.273,0.602-2.473,1.03-3.649c0.419-1.18,0.913-2.324,1.449-3.448
						c0.54-1.122,1.124-2.223,1.782-3.288c0.65-1.069,1.353-2.113,2.206-3.085c-0.225,1.273-0.6,2.475-1.028,3.65
						c-0.419,1.18-0.913,2.324-1.451,3.447c-0.542,1.121-1.126,2.222-1.785,3.287C373.993,35.165,373.29,36.209,372.439,37.182z"/>
				</g>
				<g>
					<path style="fill:#5700DD;" d="M369.706,30.573c-0.17-0.63-0.182-1.212-0.139-1.777c0.034-0.568,0.148-1.111,0.306-1.642
						c0.162-0.529,0.371-1.043,0.659-1.534c0.279-0.493,0.614-0.969,1.109-1.397c0.172,0.631,0.185,1.213,0.141,1.778
						c-0.034,0.568-0.148,1.111-0.308,1.641c-0.164,0.528-0.373,1.043-0.662,1.533C370.534,29.669,370.199,30.145,369.706,30.573z"
						/>
				</g>
				<g>
					<path style="fill:#5700DD;" d="M299.311,41.1c1.017,0.232,1.945,0.637,2.827,1.115c0.888,0.47,1.716,1.035,2.497,1.659
						c0.778,0.626,1.508,1.314,2.159,2.08c0.657,0.758,1.252,1.578,1.695,2.522c-0.939-0.454-1.767-0.992-2.57-1.552
						c-0.81-0.552-1.578-1.14-2.332-1.745c-0.752-0.609-1.492-1.232-2.205-1.904C300.662,42.61,299.957,41.918,299.311,41.1z"/>
				</g>
				<g>
					<path style="fill:#5700DD;" d="M297.146,48.747c0.79-0.011,1.51,0.127,2.205,0.317c0.699,0.182,1.363,0.439,2.008,0.738
						c0.642,0.303,1.264,0.65,1.85,1.072c0.591,0.413,1.156,0.88,1.65,1.498c-0.791,0.013-1.511-0.124-2.206-0.315
						c-0.699-0.182-1.363-0.439-2.006-0.74c-0.641-0.305-1.263-0.652-1.849-1.075C298.207,49.829,297.642,49.362,297.146,48.747z"/>
				</g>
				<g>
					<path style="fill:#5700DD;" d="M284.974,79.214c1.5-0.323,2.999-0.482,4.496-0.582c1.497-0.11,2.993-0.123,4.489-0.117
						c1.495,0.038,2.99,0.096,4.483,0.253c1.493,0.146,2.986,0.351,4.476,0.722c-1.501,0.325-2.999,0.484-4.496,0.584
						c-1.497,0.11-2.993,0.123-4.489,0.114c-1.495-0.04-2.99-0.099-4.483-0.255C287.956,79.788,286.464,79.584,284.974,79.214z"/>
				</g>
				<g>
					<path style="fill:#5700DD;" d="M295.19,73.361c0.849-0.262,1.69-0.345,2.524-0.355c0.836-0.02,1.662,0.058,2.478,0.195
						c0.815,0.142,1.62,0.346,2.4,0.645c0.782,0.289,1.547,0.65,2.258,1.184c-0.877,0.143-1.707,0.141-2.525,0.095
						c-0.82-0.036-1.622-0.138-2.418-0.275c-0.796-0.141-1.585-0.313-2.37-0.555C296.751,74.064,295.968,73.788,295.19,73.361z"/>
				</g>
			</g>
		</g>
	</g>
	<g>
		<defs>
			<path id="SVGID_00000069372888246942055250000016467658082424839862_" d="M236.622,377.574c0,53.389-43.28,96.669-96.669,96.669
				s-96.669-43.28-96.669-96.669c0-53.389,43.28-126.669,96.669-126.669S236.622,324.186,236.622,377.574z"/>
		</defs>
		<clipPath id="SVGID_00000001631662985778268640000004729619425448125585_">
			<use xlink:href="#SVGID_00000069372888246942055250000016467658082424839862_"  style="overflow:visible;"/>
		</clipPath>
		
			<circle style="clip-path:url(#SVGID_00000001631662985778268640000004729619425448125585_);fill:#8674FC;" cx="139.953" cy="377.574" r="96.669"/>
		<g style="clip-path:url(#SVGID_00000001631662985778268640000004729619425448125585_);">
			<g>
				<g>
					<path style="fill:#BFCDF2;" d="M188.272,341.245c0,0-16.957-9.438-41.857-16.229c-24.9-6.791-49.793-9.119-49.793-9.119
						s26.539,19.82,44.442,23.524S188.272,341.245,188.272,341.245z"/>
				</g>
				<g>
					<path style="fill:#E47573;" d="M159.498,401.32l-41.258-67.466l-26.468-8.563c0,0-7.006,13.234-9.341,20.759
						c-2.335,7.525-4.048,19.193-4.048,19.193s-3.982,1.848-7.814,7.414c-3.832,5.566-4.499,12.566-4.499,12.566l9.847,2.994
						c0,0-0.664,44.745,35.634,37.679l22.439,39.938l44.71-31.039L159.498,401.32z"/>
					<path style="fill:#2C2D40;" d="M188.272,341.245c3.593,6.474,5.092,14.088,4.22,21.441c-0.069,0.584-0.281,1.304-0.863,1.388
						c-0.3,0.043-0.59-0.112-0.841-0.282c-1.393-0.945-2.328-2.534-2.479-4.211c1.077,6.635-0.175,13.493-2.625,19.753
						c-2.451,6.26-6.06,11.994-9.837,17.555c-1.728,2.544-3.512,5.093-4.614,7.964c-1.102,2.871-1.465,6.154-0.307,9.003
						c-1.477,0.102-2.985-0.624-3.827-1.842c1.026,1.35,1.975,3.486,0.62,4.507c-0.895,0.675-2.165,0.267-3.199-0.164
						c-2.763-1.151-5.567-2.326-7.905-4.196c-3.065-2.452-5.12-5.931-6.883-9.437c-4.047-8.045-6.924-16.678-8.513-25.542
						c-3.975-0.474-8.413-0.776-12.388-1.25c0.06-5.157,0.128-10.46,0.718-15.583c-39.262-6.595-36.297-28.814-37.237-32.04
						c-2.068,1.925-4.098,4.323-5.629,6.697c-0.099,0.153-0.054,0.051-0.147,0.207c-2.29-3.47-1.823-8.273,0.381-11.798
						s5.864-5.92,9.703-7.517c0,0,15.239,11.292,45.003,18.106C171.39,340.817,188.272,341.245,188.272,341.245z"/>
					<path style="fill:#2C2D40;" d="M111.302,426.034c8.52-4.427,16.049-10.748,21.885-18.372
						c-4.03,9.569-10.164,18.454-17.672,25.626"/>
					<path style="fill:#BFCDF2;" d="M221.939,486.746c0,0-34.702-53.529-46.269-57.625c-11.567-4.097-35.425,13.977-51.089,26.749
						c-15.664,12.772-33.979,34.491-33.979,34.491L221.939,486.746z"/>
					
						<ellipse transform="matrix(0.0953 -0.9955 0.9955 0.0953 -290.4123 443.1367)" style="opacity:0.32;fill:#FF7673;" cx="98.578" cy="381.334" rx="6.838" ry="10.784"/>
					<path style="fill:#2C2D40;" d="M83.788,363.9c0,2.361,1.222,4.275,2.729,4.275c1.507,0,2.729-1.914,2.729-4.275
						c0-2.361-1.222-4.275-2.729-4.275C85.009,359.625,83.788,361.539,83.788,363.9z"/>
					<path style="fill:#2C2D40;" d="M106.434,359.084c-8.97-1.738-24.633-10.832-24.633-10.832s1.169-4.131,1.935-5.84
						C90.061,349.314,97.915,355.202,106.434,359.084z"/>
					<path style="fill:#2C2D40;" d="M188.951,341.883c1.413,4.839,3.045,10.008,7.038,13.085c2.493,1.922,5.62,2.783,8.446,4.169
						c4.684,2.297,8.65,6.218,10.533,11.083c1.884,4.865,1.52,10.656-1.375,14.996c4.597-1.601,9.871,1.722,11.621,6.265
						c1.749,4.543,0.636,9.753-1.591,14.081c5.003-1.665,10.825,1.469,13.006,6.27c2.181,4.801,1.097,10.667-1.898,15.007
						c-2.996,4.339-7.657,7.299-12.572,9.21c1.518,0.578,2.322,2.348,2.235,3.97c-0.087,1.622-0.882,3.117-1.755,4.487
						c-4.809,7.548-12.645,13.107-21.358,15.151c-2.376,0.557-5.632,0.374-6.302-1.972c0.849,1.146,0.484,2.854-0.449,3.932
						c-0.933,1.078-2.294,1.672-3.613,2.213c-4.219,1.731-8.577,3.299-13.123,3.666c-4.546,0.367-9.35-0.582-12.905-3.438
						c-3.556-2.856-5.562-7.833-4.163-12.174c-4.689,2.698-10.826,2.668-15.488-0.077c-4.662-2.745-7.666-8.097-7.581-13.506
						c0.054-3.467,1.915-7.413,5.347-7.91c-4.305-0.372-7.301-4.758-7.878-9.041c-0.942-6.993,3.369-14.355,9.929-16.956
						c-3.486-2.071-4.958-6.954-3.197-10.607c0.595-1.234,1.487-2.296,2.377-3.336c13.91-16.258,26.65-36.738,44.039-49.204"/>
					<g>
						<path style="fill:#E47573;" d="M161.121,371.303c-0.355,5.948-3.373,11.686-8.072,15.349
							c-1.471,1.146-3.144,2.113-4.987,2.399c-4.155,0.645-8.217-2.468-9.82-6.355c-1.604-3.889-1.224-8.312-0.287-12.411
							c1.212-5.299,3.909-10.979,9.083-12.648C155.38,354.946,161.56,363.936,161.121,371.303z"/>
						<path style="fill:#E47573;" d="M142.725,384.355c1.782-0.706,3.358-1.922,4.495-3.466c0.228-0.31,0.446-0.651,0.477-1.035
							c0.06-0.734-0.556-1.328-1.119-1.802c-1.138-0.96-2.276-1.92-3.415-2.88c-0.227-0.191-0.463-0.396-0.567-0.674
							c-0.114-0.307-0.048-0.647,0.02-0.967c0.864-4.077,1.92-8.48,5.155-11.108c0.873-0.709,1.909-1.266,3.028-1.38
							c1.662-0.169,3.301,0.67,4.473,1.86c1.173,1.19,1.952,2.703,2.683,4.204c0,0,1.583,8.445-3.908,14.061
							C148.555,386.784,142.725,384.355,142.725,384.355z"/>
						<g>
							<path style="fill:#2C2D40;" d="M157.955,367.108c-0.932-1.454-1.85-2.941-3.111-3.989c-1.221-1.048-2.835-1.649-4.234-1.321
								c-1.405,0.341-2.689,1.42-3.634,2.674c-0.966,1.254-1.667,2.737-2.179,4.31c-0.552,1.56-0.927,3.213-1.312,4.882
								c-0.052,0.21-0.086,0.371-0.09,0.459c0.004,0.102-0.015,0.056,0.013,0.117c0.053,0.114,0.482,0.465,0.782,0.738
								c0.647,0.568,1.284,1.148,1.917,1.733l0.955,0.877c0.331,0.311,0.694,0.655,0.957,1.157c0.286,0.478,0.334,1.247,0.056,1.748
								c-0.257,0.505-0.563,0.809-0.865,1.146c-1.242,1.304-2.806,2.27-4.485,2.717c1.521-0.828,2.831-1.947,3.784-3.298
								c0.233-0.333,0.494-0.695,0.586-0.981c0.09-0.288,0.04-0.472-0.128-0.726c-0.34-0.487-1.128-0.996-1.792-1.534
								c-0.684-0.525-1.363-1.055-2.032-1.598c-0.337-0.302-0.643-0.432-1.116-1.006c-0.229-0.287-0.367-0.769-0.355-1.098
								c-0.002-0.344,0.058-0.606,0.095-0.817c0.337-1.697,0.709-3.416,1.276-5.115c0.588-1.683,1.375-3.367,2.567-4.807
								c0.594-0.721,1.29-1.35,2.063-1.897c0.778-0.54,1.688-0.961,2.686-1.1c1.001-0.144,2.018,0.039,2.881,0.44
								c0.868,0.401,1.617,0.975,2.235,1.651C156.695,363.844,157.385,365.48,157.955,367.108z"/>
						</g>
					</g>
					<g>
						<path style="fill:#2C2D40;" d="M77.459,397.342c4.929,1.466,9.572,3.628,13.758,6.361c-4.646-1.845-9.493-2.987-14.329-3.416
							L77.459,397.342z"/>
					</g>
					<path style="fill:#FFFFFF;" d="M86.233,371.576c0,0-5.338,9.65-0.411,9.65C90.75,381.226,86.233,371.576,86.233,371.576z"/>
				</g>
			</g>
			<g>
				<circle style="fill:none;stroke:#BFCDF2;stroke-width:0.5266;stroke-miterlimit:10;" cx="193.174" cy="334.794" r="3.256"/>
				<path style="fill:#BFCDF2;" d="M204.87,343.229c0,0.899,0.729,1.628,1.628,1.628c0.899,0,1.628-0.729,1.628-1.628
					s-0.729-1.628-1.628-1.628C205.599,341.601,204.87,342.33,204.87,343.229z"/>
			</g>
			<g>
				<circle style="fill:none;stroke:#BFCDF2;stroke-width:0.5266;stroke-miterlimit:10;" cx="117.455" cy="266.703" r="3.256"/>
				<path style="fill:#BFCDF2;" d="M104.564,282.198c0,0.899,0.729,1.628,1.628,1.628c0.899,0,1.628-0.729,1.628-1.628
					c0-0.899-0.729-1.628-1.628-1.628C105.293,280.57,104.564,281.299,104.564,282.198z"/>
			</g>
			<g>
				<path style="fill:none;stroke:#BFCDF2;stroke-width:0.5266;stroke-miterlimit:10;" d="M174.607,271.863
					c0,1.798,1.458,3.256,3.256,3.256s3.256-1.458,3.256-3.256c0-1.798-1.458-3.256-3.256-3.256S174.607,270.065,174.607,271.863z"
					/>
				<path style="fill:#BFCDF2;" d="M175.714,284.478c0,0.899,0.729,1.628,1.628,1.628c0.899,0,1.628-0.729,1.628-1.628
					c0-0.899-0.729-1.628-1.628-1.628C176.443,282.85,175.714,283.579,175.714,284.478z"/>
			</g>
			<g>
				<g>
					<path style="fill:#BFCDF2;" d="M103.794,330.744c2.078,3.347,4.59,6.392,7.487,9.001c2.896,2.604,6.137,4.83,9.673,6.446
						c3.501,1.688,7.282,2.767,11.136,3.332c1.927,0.29,3.881,0.427,5.837,0.418c1.958,0.024,3.917-0.139,5.871-0.397
						c-1.913,0.481-3.88,0.745-5.856,0.887c-1.979,0.109-3.969,0.057-5.947-0.145c-3.957-0.418-7.839-1.53-11.465-3.191
						c-3.591-1.733-6.927-4.009-9.772-6.791C107.912,337.527,105.513,334.296,103.794,330.744z"/>
				</g>
				<g>
					<path style="fill:#BFCDF2;" d="M121.815,334.763c4.588,2.594,9.343,4.864,14.25,6.725c4.906,1.859,9.94,3.378,15.079,4.416
						c5.122,1.116,10.342,1.755,15.581,2.026l3.935,0.127l3.939-0.042l3.941-0.174l3.937-0.329l-3.912,0.593l-3.941,0.4l-3.96,0.184
						l-3.967,0.01c-5.292-0.113-10.568-0.766-15.758-1.817c-5.173-1.13-10.267-2.653-15.156-4.682
						C130.895,340.174,126.189,337.71,121.815,334.763z"/>
				</g>
				<g>
					<path style="fill:#BFCDF2;" d="M178.615,357.878c2.482,0.003,4.968,0.378,7.368,1.064c2.396,0.68,4.743,1.719,6.709,3.34
						c0.982,0.804,1.844,1.777,2.502,2.885c0.663,1.111,1.059,2.397,1.134,3.696c0.08,1.298-0.143,2.625-0.69,3.827
						c-0.539,1.206-1.475,2.261-2.67,2.899l-0.159-0.857c2.11,0.229,4.176,0.897,6.008,1.994c1.829,1.089,3.427,2.656,4.397,4.597
						c0.982,1.95,1.237,4.207,0.815,6.321c-0.414,2.106-1.583,4.141-3.433,5.351l-0.212-0.787c2.124,0.127,4.104,1.149,5.574,2.605
						c1.473,1.458,2.482,3.415,2.65,5.492c0.18,2.079-0.526,4.147-1.728,5.778c-1.2,1.636-2.954,2.885-4.919,3.315
						c3.87-1.132,6.522-5.182,6.094-9.04c-0.21-1.922-1.199-3.714-2.6-5.024c-1.398-1.318-3.238-2.158-5.123-2.268l-1.281-0.074
						l1.069-0.713c1.615-1.077,2.65-2.895,3.009-4.812c0.367-1.921,0.109-3.976-0.783-5.701c-0.904-1.739-2.345-3.178-4.032-4.213
						c-1.692-1.035-3.628-1.684-5.607-1.916l-1.505-0.177l1.346-0.681c2.063-1.043,3.065-3.549,2.939-5.873
						c-0.034-2.382-1.393-4.565-3.208-6.142c-1.827-1.599-4.087-2.666-6.41-3.46C183.535,358.516,181.089,358.05,178.615,357.878z"
						/>
				</g>
				<g>
					<path style="fill:#BFCDF2;" d="M174.503,388.293c2.432,0.402,4.849,0.996,7.145,1.96c2.29,0.952,4.451,2.372,6.058,4.337
						c1.617,1.985,2.423,4.566,2.342,7.128c-0.056,1.281-0.348,2.57-0.942,3.736c-0.587,1.165-1.503,2.192-2.643,2.866l-0.074-0.822
						c3.168,1.163,5.688,3.908,6.552,7.188c0.835,3.286-0.018,6.908-2.217,9.467l-0.234-0.732c4.793,1.217,8.469,5.633,8.85,10.493
						c0.39,4.862-2.599,9.69-6.958,11.531c4.236-2.113,6.813-6.915,6.339-11.474c-0.503-4.559-4.069-8.585-8.45-9.674l-0.705-0.175
						l0.471-0.557c1.98-2.339,2.728-5.684,1.942-8.63c-0.761-2.951-3.037-5.506-5.907-6.581l-0.915-0.343l0.841-0.48
						c2.022-1.153,3.105-3.513,3.206-5.855c0.138-2.354-0.541-4.801-1.997-6.689c-1.471-1.913-3.52-3.329-5.716-4.385
						C179.281,389.547,176.901,388.862,174.503,388.293z"/>
				</g>
				<g>
					<path style="fill:#BFCDF2;" d="M161.684,401.61c4.122,1.239,7.267,5.352,7.354,9.807c0.056,2.222-0.671,4.436-1.947,6.25
						c-1.264,1.82-3.071,3.292-5.188,4.056l-0.208-0.934c0.779-0.088,1.588,0.113,2.246,0.51c0.666,0.393,1.189,0.964,1.578,1.595
						c0.768,1.261,1.075,2.819,0.679,4.281c-0.384,1.418-1.257,2.636-2.284,3.594c-1.035,0.963-2.215,1.726-3.452,2.337
						l-0.066-0.733c1.403,0.486,2.186,1.898,2.209,3.242c0.016,1.364-0.616,2.608-1.46,3.565c-1.719,1.916-4.423,2.848-6.872,2.354
						c2.473,0.259,4.999-0.793,6.484-2.681c0.753-0.918,1.259-2.075,1.196-3.215c-0.052-1.111-0.784-2.219-1.794-2.505l-0.915-0.259
						l0.849-0.474c1.159-0.646,2.279-1.366,3.215-2.269c0.934-0.895,1.678-1.982,1.99-3.197c0.307-1.17,0.038-2.487-0.614-3.519
						c-0.646-1.029-1.731-1.793-2.894-1.668l-4.219,0.453l4.01-1.386c1.918-0.663,3.599-1.988,4.788-3.655
						c1.182-1.67,1.914-3.683,1.955-5.74C168.378,407.295,165.664,403.196,161.684,401.61z"/>
				</g>
			</g>
			<g>
				<polygon style="fill:#1B283E;" points="154.125,300.166 146.492,314.879 143.04,309.883 153.518,311.116 157.523,311.587 
					155.767,314.566 145.088,332.686 151.27,312.582 153.518,316.031 143.04,317.264 138.2,317.834 139.587,312.268 
					143.596,296.186 				"/>
			</g>
			<g>
				<polygon style="fill:#1B283E;" points="204.135,313.527 200.337,320.849 198.619,318.363 203.833,318.976 205.826,319.211 
					204.952,320.693 199.638,329.711 202.714,319.706 203.833,321.423 198.619,322.036 196.21,322.32 196.9,319.55 198.895,311.546 
									"/>
			</g>
			<polygon style="fill:#1B283E;" points="103.014,294.522 98.741,302.459 97.023,299.973 102.237,300.586 104.23,300.821 
				103.357,302.303 98.042,311.321 101.118,301.316 102.237,303.033 97.023,303.646 94.614,303.93 95.305,301.16 97.045,294.15 			
				"/>
			<g>
				<polygon style="fill:#1B283E;" points="185.811,313.527 182.013,320.849 180.295,318.363 185.51,318.976 187.503,319.211 
					186.629,320.693 181.314,329.711 184.391,319.706 185.51,321.423 180.295,322.036 177.887,322.32 178.577,319.55 
					180.572,311.546 				"/>
			</g>
			<path style="fill:#BFCDF2;" d="M185.324,301.749h-77.608c-0.58-3.192-0.088-6.087,2.09-8.492c2.178-2.404,5.503-3.72,8.736-3.457
				c-0.833-4.813,0.773-9.426,4.057-13.043c3.284-3.616,8.962-4.129,13.833-3.762c1.858-3.881,6.748-6.883,11.038-7.214
				c3.565-0.275,7.132,1.319,9.657,3.851c2.525,2.532,2.711,4.164,3.465,7.66c2.465-0.413,4.68-0.412,7.022,0.461
				c1.2,0.447,2.26,1.209,3.212,2.065c2.723,2.45,4.677,5.812,5.166,9.441c2.763,0.516,5.215,1.514,6.874,3.783
				C184.525,295.312,185.671,298.96,185.324,301.749z"/>
			<path style="fill:#2C2D40;" d="M217.368,314.539h-54.12c-0.405-2.226-0.061-4.245,1.458-5.922
				c1.519-1.677,3.838-2.594,6.092-2.411c-0.581-3.357,0.539-6.574,2.829-9.095c2.29-2.522,6.25-2.879,9.647-2.624
				c1.296-2.706,4.706-4.8,7.697-5.031c2.486-0.192,4.973,0.92,6.734,2.686c1.761,1.766,1.891,2.904,2.416,5.341
				c1.719-0.288,3.264-0.287,4.897,0.321c0.837,0.312,1.576,0.843,2.24,1.44c1.899,1.708,3.261,4.053,3.602,6.584
				c1.927,0.36,3.637,1.056,4.793,2.638C216.811,310.05,217.611,312.594,217.368,314.539z"/>
			<path style="fill:none;stroke:#2C2D40;stroke-miterlimit:10;" d="M130.92,294.247H87.193c-0.327-1.798-0.049-3.43,1.178-4.784
				c1.227-1.355,3.1-2.096,4.922-1.948c-0.469-2.712,0.436-5.311,2.286-7.349c1.85-2.038,5.05-2.326,7.794-2.12
				c1.047-2.187,3.802-3.878,6.219-4.065c2.009-0.155,4.018,0.743,5.441,2.17c1.423,1.427,1.528,2.346,1.952,4.316
				c1.389-0.233,2.637-0.232,3.956,0.26c0.676,0.252,1.273,0.681,1.81,1.164c1.534,1.38,2.635,3.274,2.911,5.319
				c1.557,0.29,2.938,0.853,3.873,2.132C130.47,290.62,131.115,292.675,130.92,294.247z"/>
		</g>
	</g>
	<g>
		<defs>
			<path id="SVGID_00000029043780899077894540000009728566951747242634_" d="M449.772,377.574c0,53.389-43.28,96.669-96.669,96.669
				c-53.389,0-96.669-43.28-96.669-96.669c0-53.389,43.28-126.669,96.669-126.669C406.492,250.906,449.772,324.186,449.772,377.574z
				"/>
		</defs>
		<clipPath id="SVGID_00000067941660726983187950000002435289865123413168_">
			<use xlink:href="#SVGID_00000029043780899077894540000009728566951747242634_"  style="overflow:visible;"/>
		</clipPath>
		
			<circle style="clip-path:url(#SVGID_00000067941660726983187950000002435289865123413168_);fill:#E5EBFA;" cx="353.103" cy="377.574" r="96.669"/>
		<path style="clip-path:url(#SVGID_00000067941660726983187950000002435289865123413168_);fill:#8674FC;" d="M301.68,335.549
			c0,0,16.957-9.438,41.857-16.229c24.9-6.791,49.793-9.119,49.793-9.119s-26.539,19.82-44.442,23.524
			C330.984,337.429,301.68,335.549,301.68,335.549z"/>
		<g style="clip-path:url(#SVGID_00000067941660726983187950000002435289865123413168_);">
			<circle style="fill:none;stroke:#2C2D40;stroke-width:0.5266;stroke-miterlimit:10;" cx="286.97" cy="317.634" r="3.256"/>
			<path style="fill:none;stroke:#2C2D40;stroke-width:0.5266;stroke-miterlimit:10;" d="M388.959,286.628
				c0,1.798,1.458,3.256,3.256,3.256c1.798,0,3.256-1.458,3.256-3.256s-1.458-3.256-3.256-3.256
				C390.416,283.372,388.959,284.83,388.959,286.628z"/>
			<circle style="fill:none;stroke:#2C2D40;stroke-width:0.5266;stroke-miterlimit:10;" cx="288.717" cy="299.292" r="3.256"/>
			<path style="fill:#2C2D40;" d="M298.666,326.069c0,0.899,0.729,1.628,1.628,1.628c0.899,0,1.628-0.729,1.628-1.628
				c0-0.899-0.729-1.628-1.628-1.628C299.395,324.441,298.666,325.17,298.666,326.069z"/>
			<path style="fill:#2C2D40;" d="M382.289,274.281c0,0.899,0.729,1.628,1.628,1.628c0.899,0,1.628-0.729,1.628-1.628
				c0-0.899-0.729-1.628-1.628-1.628C383.018,272.654,382.289,273.382,382.289,274.281z"/>
			<path style="fill:#2C2D40;" d="M389.277,302.786c0,0.899,0.729,1.628,1.628,1.628c0.899,0,1.628-0.729,1.628-1.628
				c0-0.899-0.729-1.628-1.628-1.628C390.005,301.158,389.277,301.887,389.277,302.786z"/>
		</g>
		<path style="clip-path:url(#SVGID_00000067941660726983187950000002435289865123413168_);fill:#2C2D40;" d="M393.33,310.201
			c0,0,7.089,2.206,13.26,1.949c6.171-0.257,14.161-4.629,14.161-4.629s-2.207,13.909-6.96,18.26
			c5.243-0.716,10.338-3.379,12.814-8.056c0.805,2.926,1.617,5.91,1.487,8.943c-0.209,4.889-2.939,9.471-6.753,12.536
			c-3.814,3.066-8.619,4.718-13.469,5.362"/>
		<path style="clip-path:url(#SVGID_00000067941660726983187950000002435289865123413168_);fill:#E47573;" d="M330.455,395.624
			l41.258-67.466l26.468-8.563c0,0,7.006,13.234,9.341,20.759c2.335,7.525,3.633,16.088,3.633,16.088l9.782,17.572
			c1.398,2.512,0.264,5.682-2.411,6.736l-4.49,1.77c0,0-1.099,24.293-1.858,27.999c-0.879,4.29-2.692,8.885-6.636,10.789
			c-1.88,0.908-4.022,1.081-6.108,1.152c-7.071,0.241-14.174-0.522-21.032-2.261l-22.439,39.938l-44.71-31.039L330.455,395.624z"/>
		<path style="clip-path:url(#SVGID_00000067941660726983187950000002435289865123413168_);fill:#2C2D40;" d="M301.68,335.549
			c-8.484,15.428,0.137,31.829,2.587,38.089c2.451,6.26,6.06,11.994,9.837,17.555c1.728,2.544,3.512,5.093,4.613,7.964
			c1.102,2.871,1.465,6.154,0.307,9.003c1.478,0.102,2.986-0.624,3.827-1.842c-1.026,1.35-1.975,3.486-0.62,4.507
			c0.895,0.675,2.165,0.267,3.199-0.164c2.763-1.151,5.567-2.326,7.905-4.196c3.065-2.452,5.12-5.931,6.883-9.437
			c4.047-8.045,6.924-16.678,8.513-25.542c3.975-0.474-11.806,13.3,7.891,3.247c19.697-10.053,16.287-22.304,15.697-27.428
			c2.907-0.127,29.416-20.369,30.948-17.995c0.099,0.153,0.054,0.051,0.147,0.207c2.29-3.47,1.823-8.273-0.381-11.798
			c-2.204-3.526-5.864-5.92-9.703-7.517c0,0-15.239,11.292-45.003,18.106C318.563,335.12,301.68,335.549,301.68,335.549z"/>
		<g style="clip-path:url(#SVGID_00000067941660726983187950000002435289865123413168_);">
			<path style="fill:#E47573;" d="M337.879,364.976c0.355,5.948,3.373,11.686,8.072,15.349c1.471,1.146,3.144,2.113,4.987,2.399
				c4.155,0.645,8.217-2.468,9.82-6.355c1.604-3.889,1.224-8.312,0.287-12.411c-1.212-5.299-3.909-10.979-9.083-12.648
				C343.62,348.618,337.44,357.609,337.879,364.976z"/>
			<path style="fill:#E47573;" d="M356.275,378.027c-1.782-0.706-3.358-1.921-4.495-3.465c-0.228-0.31-0.446-0.651-0.477-1.035
				c-0.06-0.734,0.556-1.328,1.119-1.802c1.138-0.96,2.276-1.92,3.415-2.88c0.227-0.191,0.463-0.396,0.568-0.674
				c0.114-0.307,0.047-0.647-0.02-0.967c-0.864-4.076-1.92-8.48-5.155-11.108c-0.873-0.709-1.909-1.266-3.028-1.38
				c-1.662-0.169-3.301,0.67-4.473,1.86c-1.173,1.19-1.952,2.703-2.683,4.204c0,0-1.583,8.445,3.908,14.061
				C350.445,380.457,356.275,378.027,356.275,378.027z"/>
			<g>
				<path style="fill:#2C2D40;" d="M341.045,360.78c0.57-1.627,1.26-3.264,2.48-4.637c0.618-0.675,1.367-1.25,2.235-1.651
					c0.862-0.401,1.879-0.584,2.881-0.44c0.997,0.138,1.908,0.559,2.686,1.1c0.772,0.547,1.469,1.176,2.063,1.897
					c1.192,1.44,1.979,3.124,2.567,4.807c0.567,1.699,0.939,3.418,1.276,5.115c0.037,0.21,0.097,0.473,0.095,0.817
					c0.013,0.328-0.125,0.811-0.355,1.098c-0.473,0.574-0.779,0.703-1.116,1.006c-0.669,0.542-1.348,1.073-2.032,1.598
					c-0.664,0.538-1.452,1.046-1.792,1.534c-0.168,0.255-0.218,0.439-0.128,0.726c0.092,0.286,0.353,0.648,0.586,0.981
					c0.953,1.351,2.264,2.47,3.784,3.298c-1.679-0.447-3.243-1.413-4.485-2.717c-0.302-0.337-0.608-0.641-0.865-1.146
					c-0.278-0.501-0.23-1.27,0.056-1.748c0.263-0.502,0.626-0.846,0.957-1.157l0.955-0.877c0.633-0.585,1.27-1.165,1.918-1.733
					c0.3-0.273,0.729-0.624,0.782-0.738c0.028-0.061,0.01-0.015,0.013-0.117c-0.004-0.088-0.038-0.249-0.09-0.459
					c-0.385-1.668-0.76-3.321-1.312-4.882c-0.513-1.573-1.213-3.056-2.179-4.31c-0.945-1.253-2.229-2.332-3.634-2.674
					c-1.399-0.328-3.013,0.273-4.234,1.321C342.896,357.839,341.978,359.326,341.045,360.78z"/>
			</g>
		</g>
		<g style="clip-path:url(#SVGID_00000067941660726983187950000002435289865123413168_);">
			<g>
				<path style="fill:#BFCDF2;" d="M326.116,342.269c-0.331,1.955-0.88,3.873-1.549,5.75c-0.726,1.865-1.51,3.674-2.595,5.419
					c-0.576,0.836-1.294,1.726-2.474,2.057c-0.291,0.07-0.614,0.105-0.951,0.027c-0.336-0.073-0.663-0.272-0.878-0.544
					c-0.432-0.559-0.467-1.16-0.531-1.647c-0.221-2.001-0.245-4.033,0.009-6.035l1.015,0.203c-0.715,2.446-2.183,4.647-4.152,6.242
					c-0.476,0.354-1.04,0.908-1.96,0.833c-0.495-0.038-0.911-0.544-0.953-0.937c-0.071-0.396-0.049-0.676-0.055-0.999
					c0.013-1.259,0.216-2.51,0.598-3.7l0.527,0.256c-0.708,0.958-1.482,1.897-2.407,2.681c-0.911,0.781-2.05,1.391-3.255,1.413
					c1.189-0.172,2.207-0.844,3.026-1.663c0.826-0.827,1.487-1.801,2.152-2.774c0.092-0.135,0.276-0.17,0.411-0.077
					c0.107,0.073,0.15,0.202,0.119,0.32l-0.004,0.013c-0.306,1.15-0.436,2.341-0.387,3.521c0.016,0.285,0.027,0.62,0.081,0.822
					c0.062,0.207,0.133,0.24,0.261,0.259c0.142,0.013,0.386-0.058,0.602-0.182c0.212-0.112,0.43-0.307,0.665-0.492
					c1.797-1.506,3.119-3.569,3.734-5.817c0.075-0.276,0.361-0.439,0.637-0.363c0.25,0.068,0.407,0.308,0.379,0.558l-0.001,0.008
					c-0.216,1.926-0.27,3.876-0.076,5.81c0.04,0.481,0.112,0.922,0.303,1.157c0.175,0.235,0.485,0.304,0.874,0.216
					c0.773-0.183,1.45-0.907,2.012-1.641c1.088-1.564,1.989-3.36,2.784-5.142C324.899,346.032,325.545,344.166,326.116,342.269z"/>
			</g>
			<g>
				<path style="fill:#BFCDF2;" d="M318.157,366.28c0.677,1.167,1.253,2.398,1.724,3.671c0.47,1.279,0.85,2.572,1.108,3.935
					c0.113,0.691,0.192,1.507-0.256,2.295c-0.204,0.372-0.677,0.783-1.251,0.767c-0.55-0.017-0.913-0.274-1.215-0.479
					c-1.15-0.848-2.097-1.977-2.675-3.28l0.864-0.399c0.271,0.653,0.503,1.35,0.569,2.09c0.073,0.733-0.023,1.518-0.369,2.188
					c-0.325,0.671-0.927,1.25-1.659,1.427c-0.705,0.191-1.519,0.044-1.99-0.479c0.571,0.392,1.3,0.387,1.873,0.137
					c0.579-0.252,0.977-0.772,1.192-1.342c0.21-0.582,0.245-1.207,0.132-1.822c-0.114-0.615-0.337-1.22-0.619-1.811
					c-0.113-0.237-0.012-0.521,0.225-0.634c0.231-0.11,0.507-0.017,0.625,0.209l0.013,0.026c0.583,1.118,1.409,2.113,2.433,2.84
					c0.236,0.18,0.477,0.299,0.609,0.295c0.116,0.009,0.241-0.062,0.369-0.261c0.237-0.394,0.279-1.01,0.194-1.627
					c-0.188-1.284-0.457-2.602-0.776-3.888C318.96,368.844,318.584,367.56,318.157,366.28z"/>
			</g>
			<g>
				<path style="fill:#BFCDF2;" d="M335.247,386.729c0.128,1.231,0.059,2.499-0.205,3.73c-0.281,1.238-0.683,2.419-1.372,3.56
					c-0.353,0.559-0.913,1.147-1.694,1.336c-0.376,0.093-0.789,0.105-1.197-0.026c-0.41-0.122-0.783-0.445-0.982-0.777
					c-0.386-0.679-0.51-1.264-0.656-1.919c-0.13-0.642-0.159-1.301-0.123-1.952l0.001-0.021c0.014-0.259,0.236-0.456,0.494-0.442
					c0.249,0.014,0.441,0.22,0.443,0.466c0.002,0.595-0.002,1.223-0.14,1.858c-0.126,0.628-0.424,1.286-0.929,1.733
					c-0.479,0.457-1.211,0.724-1.863,0.533c-0.645-0.181-1.093-0.656-1.411-1.154c0.431,0.404,0.938,0.76,1.477,0.81
					c0.535,0.05,1.015-0.234,1.353-0.624c0.694-0.808,0.639-1.968,0.575-3.131l0.938,0.003c-0.004,0.579,0.068,1.155,0.183,1.719
					c0.12,0.54,0.306,1.17,0.544,1.555c0.212,0.364,0.581,0.471,1.049,0.376c0.436-0.1,0.826-0.429,1.153-0.879
					c0.63-0.938,1.148-2.071,1.544-3.195C334.819,389.149,335.097,387.96,335.247,386.729z"/>
			</g>
			<g>
				<path style="fill:#BFCDF2;" d="M364.686,332.117c-0.555,1.942-1.445,3.796-2.575,5.494c-1.151,1.685-2.546,3.214-4.139,4.515
					c-0.797,0.649-1.647,1.238-2.54,1.753c-0.448,0.272-0.96,0.516-1.532,0.639c-0.548,0.129-1.329,0.092-1.865-0.43
					c-0.538-0.525-0.61-1.202-0.659-1.714c-0.043-0.526-0.055-1.055-0.024-1.582c0.051-1.055,0.27-2.099,0.62-3.095l0.002-0.006
					c0.095-0.27,0.39-0.412,0.66-0.317c0.252,0.089,0.392,0.355,0.332,0.609c-0.313,1.306-0.912,2.532-1.738,3.574
					c-0.832,1.037-1.867,1.903-3.037,2.527c-1.19,0.576-2.455,1.022-3.852,0.924c-0.346-0.037-0.701-0.121-1.025-0.293
					c-0.166-0.086-0.309-0.181-0.459-0.32c-0.176-0.157-0.26-0.372-0.31-0.566c-0.113-0.785,0.144-1.398,0.426-2.002l0.336,0.31
					c-0.772,0.393-1.552,0.746-2.357,1.049c-0.8,0.301-1.637,0.567-2.495,0.593c0.845-0.128,1.627-0.478,2.393-0.833
					c0.762-0.364,1.507-0.781,2.219-1.224c0.111-0.069,0.257-0.035,0.325,0.076c0.04,0.065,0.045,0.141,0.021,0.207l-0.01,0.027
					c-0.204,0.54-0.392,1.185-0.279,1.658c0.037,0.105,0.078,0.196,0.148,0.245c0.084,0.07,0.209,0.15,0.327,0.2
					c0.24,0.112,0.514,0.164,0.795,0.179c1.14,0.03,2.341-0.439,3.37-1.012c1.043-0.592,1.958-1.402,2.68-2.354
					c0.717-0.954,1.249-2.043,1.512-3.197l0.994,0.286c-0.31,0.908-0.494,1.857-0.556,2.814c-0.032,0.479-0.025,0.959,0.009,1.438
					c0.031,0.471,0.126,0.877,0.338,1.065c0.396,0.431,1.437,0.168,2.224-0.306c0.869-0.463,1.684-1.021,2.483-1.599
					c1.592-1.168,3.019-2.574,4.224-4.157C362.909,335.731,363.896,333.974,364.686,332.117z"/>
			</g>
			<g>
				<path style="fill:#BFCDF2;" d="M388.288,317.431c0.466,0.921,0.644,2.003,0.52,3.075c-0.137,1.073-0.677,2.127-1.527,2.866
					c-0.831,0.745-2.026,1.19-3.201,1.022c-1.144-0.162-2.278-0.812-2.845-1.907l0.965-0.124c-0.238,0.966-0.749,1.842-1.418,2.528
					c-0.664,0.695-1.459,1.237-2.319,1.612c-0.853,0.382-1.755,0.602-2.653,0.732c-0.902,0.112-1.798,0.172-2.697,0.149
					c0.876-0.197,1.753-0.359,2.595-0.622c0.845-0.245,1.658-0.559,2.406-0.966c1.47-0.817,2.715-2.116,3.074-3.674
					c0.064-0.279,0.343-0.454,0.622-0.389c0.149,0.034,0.268,0.129,0.337,0.253l0.006,0.012c0.402,0.729,1.202,1.264,2.074,1.393
					c0.864,0.155,1.777-0.12,2.513-0.678c0.741-0.555,1.289-1.375,1.538-2.314C388.554,319.462,388.518,318.431,388.288,317.431z"/>
			</g>
		</g>
		<path style="clip-path:url(#SVGID_00000067941660726983187950000002435289865123413168_);fill:#2C2D40;" d="M378.651,420.338
			c-8.52-4.427-16.049-10.748-21.885-18.372c4.03,9.569,10.164,18.454,17.673,25.626"/>
		<path style="clip-path:url(#SVGID_00000067941660726983187950000002435289865123413168_);fill:#8674FC;" d="M268.014,481.049
			c0,0,34.702-53.529,46.269-57.625c11.567-4.097,35.425,13.977,51.089,26.749c15.664,12.772,33.979,34.491,33.979,34.491
			L268.014,481.049z"/>
		<path style="opacity:0.32;clip-path:url(#SVGID_00000067941660726983187950000002435289865123413168_);fill:#FF7673;" d="
			M380.64,376.665c0.36,3.76,5.457,6.347,11.386,5.78c5.928-0.567,10.443-4.075,10.083-7.835c-0.36-3.76-5.458-6.347-11.386-5.78
			C384.794,369.397,380.28,372.905,380.64,376.665z"/>
		<g style="clip-path:url(#SVGID_00000067941660726983187950000002435289865123413168_);">
			<path style="fill:#2C2D40;" d="M415.143,379.522c-1.956,0.873-3.853,1.667-5.69,2.618l-0.553,0.286l-0.185-0.602
				c-0.682-2.214-0.419-4.74,0.843-6.61c-0.454,2.182-0.436,4.309,0.16,6.305l-0.738-0.315
				C410.902,380.255,412.995,379.602,415.143,379.522z"/>
		</g>
		<path style="clip-path:url(#SVGID_00000067941660726983187950000002435289865123413168_);fill:#2C2D40;" d="M406.845,358.344
			c0,2.163-1.268,3.917-2.833,3.917c-1.565,0-2.833-1.754-2.833-3.917c0-2.163,1.269-3.917,2.833-3.917
			C405.577,354.427,406.845,356.181,406.845,358.344z"/>
		<g style="clip-path:url(#SVGID_00000067941660726983187950000002435289865123413168_);">
			<path style="fill:#2C2D40;" d="M413.24,397.941c-2.173,0.271-4.405,0.711-6.603,1.164c-2.202,0.472-4.406,0.958-6.567,1.617
				c2.044-0.971,4.166-1.781,6.289-2.578c2.137-0.78,4.257-1.54,6.504-2.167L413.24,397.941z"/>
		</g>
		<path style="clip-path:url(#SVGID_00000067941660726983187950000002435289865123413168_);fill:#2C2D40;" d="M409.439,347.349
			c-2.621,2.668-6.241,4.192-9.925,4.835c-3.685,0.643-7.461,0.466-11.187,0.136c7.663-0.818,14.86-5.501,19.378-11.744
			C408.543,342.856,409.088,344.946,409.439,347.349z"/>
		
			<path style="clip-path:url(#SVGID_00000067941660726983187950000002435289865123413168_);fill:none;stroke:#2C2D40;stroke-miterlimit:10;" d="
			M346.767,270.263c-9.909,0.004-19.784,3.436-27.559,9.579c-2.129,1.682-4.128,3.59-5.528,5.914
			c-3.932,6.53-2.122,15.637,3.408,20.883c5.529,5.247,14.036,6.719,21.358,4.599c7.322-2.121,13.444-7.474,17.495-13.93
			c2.026-3.228,3.616-6.889,3.542-10.699c-0.147-7.551-7.381-13.823-14.926-14.152s-14.729,4.399-18.702,10.822
			c-1.909,3.087-3.203,6.656-3.054,10.282c0.149,3.626,1.904,7.288,4.998,9.184c3.334,2.043,7.599,1.785,11.379,0.783
			c6.885-1.824,13.142-5.937,17.547-11.534c2.782-3.535,4.888-8.184,3.516-12.468c-1.669-5.213-8.143-7.716-13.466-6.439
			c-5.323,1.277-9.52,5.397-12.651,9.887c-3.299,4.73-5.797,10.489-4.744,16.159c1.35,7.263,8.578,12.513,15.948,13.019
			c7.37,0.506,14.578-3.005,20-8.022c2.517-2.329,4.769-5.061,5.924-8.29c1.155-3.23,1.083-7.022-0.784-9.899
			c-1.588-2.447-4.288-3.995-7.091-4.803c-8.074-2.328-17.499,1.472-21.699,8.75c-4.2,7.278-2.775,17.34,3.281,23.166
			c6.056,5.826,16.165,6.86,23.275,2.381c3.754-2.365,6.61-6.045,8.233-10.174c2.277-5.793,1.969-12.897-2.016-17.68
			c-3.772-4.529-10.234-6.227-16.05-5.275c-5.816,0.952-11.033,4.218-15.405,8.171c-7.135,6.452-12.591,15.564-12.045,25.168
			c0.181,3.18,1.304,6.691,4.16,8.101c2.087,1.03,4.625,0.66,6.754-0.28c6.695-2.959,10.074-11.412,8.04-18.444
			c-2.034-7.032-8.745-12.208-15.985-13.289c-7.127-1.064-14.854,1.741-19.169,7.513c-4.315,5.772-4.695,14.369-0.432,20.179
			c4.264,5.81,13.05,7.947,19.248,4.271c1.999-1.185,3.669-2.862,5.097-4.695c4.779-6.131,6.709-15.435,1.898-21.542
			c-1.944-2.468-4.735-4.116-7.561-5.488c-4.763-2.311-10.683-3.924-15.137-1.061c-4.851,3.118-5.465,10.388-2.805,15.505
			c1.455,2.798,3.854,5.271,6.913,6.04c2.976,0.748,6.2-0.233,8.67-2.053c2.47-1.821,4.278-4.401,5.764-7.086
			c5.064-9.151,6.847-19.884,12.288-28.816c0.984-1.615,2.125-3.202,3.727-4.206c3.792-2.377,8.776-0.793,12.736,1.291
			c6.47,3.405,12.679,8.604,14.245,15.746c1.088,4.962-0.279,10.254-2.977,14.558c-2.698,4.304-6.632,7.711-10.859,10.529
			c-6.271,4.18-13.584,7.251-21.116,6.992c-7.533-0.259-15.217-4.402-18.166-11.338c-1.557-3.664-1.718-7.788-1.244-11.74
			c1.081-9.006,12.602-24.29,12.43-22.92c-0.171,1.371-14.693,8.17-20.297,13.826c-4.221,4.261-8.597,9.694-7.405,15.572
			c0.715,3.528,3.347,6.352,6.165,8.592c11.198,8.903,27.267,11.228,40.529,5.863c5.401-2.185,10.495-5.739,13.194-10.902
			c3.224-6.167,2.492-13.983-1.092-19.948c-3.584-5.965-9.721-10.141-16.366-12.207c-6.645-2.067-13.777-2.16-20.675-1.243
			c6.028-1.772,12.123-3.557,18.398-3.891c6.275-0.334,12.84,0.913,17.861,4.692c6.348,4.778,9.399,13.206,8.626,21.113
			c-0.773,7.907-5.021,15.219-10.784,20.688c-2.759,2.617-5.912,4.885-9.477,6.211c-4.006,1.49-8.397,1.737-12.643,1.242
			c-15.022-1.749-28.643-13.9-30.71-28.882c-0.605-4.384-0.253-8.982,1.612-12.996c3.777-8.129,13.141-12.44,22.093-12.893
			c4.721-0.239,9.568,0.434,13.782,2.577c4.214,2.143,7.736,5.865,9.039,10.409c1.365,4.76,0.226,9.906-1.706,14.465
			c-4.5,10.615-13.427,19.272-24.176,23.444c-5.388,2.091-11.291,3.088-17,2.18c-5.708-0.908-11.195-3.839-14.604-8.507
			c-3.949-5.408-4.738-12.962-1.992-19.069c2.538-5.642,7.787-9.792,13.615-11.869c5.828-2.078,12.195-2.245,18.331-1.456"/>
	</g>
</g>
</svg>
