<?xml version="1.0" encoding="utf-8"?>
<!-- Generator: Adobe Illustrator 27.5.0, SVG Export Plug-In . SVG Version: 6.00 Build 0)  -->
<svg version="1.1" xmlns="http://www.w3.org/2000/svg" xmlns:xlink="http://www.w3.org/1999/xlink" x="0px" y="0px"
	 viewBox="0 0 500 500" style="enable-background:new 0 0 500 500;" xml:space="preserve">
<g id="Background_Complete">
	<g>
		<rect x="416.779" y="398.494" style="fill:#EBEBEB;" width="33.122" height="0.25"/>
		<rect x="322.527" y="401.208" style="fill:#EBEBEB;" width="8.693" height="0.25"/>
		<rect x="396.586" y="389.208" style="fill:#EBEBEB;" width="19.192" height="0.25"/>
		<rect x="52.459" y="390.888" style="fill:#EBEBEB;" width="43.193" height="0.25"/>
		<rect x="104.556" y="390.888" style="fill:#EBEBEB;" width="6.333" height="0.25"/>
		<rect x="131.471" y="395.111" style="fill:#EBEBEB;" width="93.676" height="0.25"/>
		<g>
			<path style="fill:#EBEBEB;" d="M238.401,337.8H45.302c-3.147,0-5.708-2.561-5.708-5.708V60.66c0-3.147,2.561-5.708,5.708-5.708
				h193.099c3.146,0,5.707,2.561,5.707,5.708v271.432C244.108,335.239,241.547,337.8,238.401,337.8z M45.302,55.203
				c-3.01,0-5.458,2.448-5.458,5.458v271.432c0,3.01,2.448,5.458,5.458,5.458h193.099c3.009,0,5.457-2.448,5.457-5.458V60.66
				c0-3.009-2.448-5.458-5.457-5.458H45.302z"/>
			<path style="fill:#EBEBEB;" d="M454.698,337.8H261.599c-3.146,0-5.707-2.561-5.707-5.708V60.66c0-3.147,2.561-5.708,5.707-5.708
				h193.099c3.148,0,5.708,2.561,5.708,5.708v271.432C460.406,335.239,457.845,337.8,454.698,337.8z M261.599,55.203
				c-3.009,0-5.457,2.448-5.457,5.458v271.432c0,3.01,2.448,5.458,5.457,5.458h193.099c3.01,0,5.458-2.448,5.458-5.458V60.66
				c0-3.009-2.448-5.458-5.458-5.458H261.599z"/>
		</g>
		<rect y="382.398" style="fill:#EBEBEB;" width="500" height="0.25"/>
	</g>
	<g>
		<g>
			<g>
				<g>
					<path style="fill:#E0E0E0;" d="M437.021,278.476c-10.762-7.551-21.523,10.378-32.285,2.827c0-6.992,0-13.983,0-20.975
						c10.762,7.551,21.523-10.378,32.285-2.827C437.021,264.493,437.021,271.484,437.021,278.476z"/>
					<g>
						<polygon style="fill:#FAFAFA;" points="423.506,276.145 419.069,278.134 418.25,262.943 422.688,260.954 						"/>
						<polygon style="fill:#FAFAFA;" points="428.189,265.355 428.434,269.889 413.567,274.104 413.323,269.57 						"/>
					</g>
				</g>
				<path style="fill:#F0F0F0;" d="M437.243,257.216l-1.022,125.534h2.875l-1.022-125.534
					C438.073,257.216,437.657,256.955,437.243,257.216z"/>
			</g>
			<path style="fill:#F0F0F0;" d="M95.264,382.744c0,0,57.197-52.8,62.711-85.697H353.43c0,0,37.115,81.104,51.306,85.506
				L95.264,382.744z"/>
			<g>
				<polygon style="fill:#E0E0E0;" points="303.371,345.674 262.425,345.674 248.032,319.035 288.978,319.035 				"/>
				<path style="fill:#FAFAFA;" d="M289.294,313.013c1.604,0.963,2.801,2.582,3.251,4.398s0.282,4.116-0.687,5.716
					c0,0-11.981-3.544-17.697-3.426c-15.327,0.316-19.674,3.173-26.13,3.003c-1.478-3.045-3.261-7.771-1.274-10.511
					c6.626-1.029,17.371-0.772,26.469-0.419C276.579,311.903,289.189,312.87,289.294,313.013z"/>
			</g>
			<path style="fill:#E6E6E6;" d="M224.984,382.66l-62.1,0.04l-17.96,0.02l-49.66,0.03c0,0,57.2-52.81,62.71-85.71h0.49
				c0.09,0.16,0.18,0.32,0.27,0.49c0.01,0.01,0.02,0.03,0.03,0.04v0.01C169.324,316.66,198.744,366.63,224.984,382.66z"/>
			<path style="fill:#E0E0E0;" d="M159.764,370.1c0.78,7.39,2.01,10.93,3.12,12.6l-17.96,0.02c0.64-0.53,2.641-3.098,3.428-4.73
				c3.654-7.577,9.862-73.73,10.382-80.46c0.03-0.32,0.04-0.49,0.04-0.49s0,0.18-0.01,0.53v0.01
				C158.704,303.41,158.174,354.99,159.764,370.1z"/>
		</g>
		<g>
			<path style="fill:#EBEBEB;" d="M77.047,355.8c0,0,28.054-3.264,30.943-10.944c2.342-6.226-11.426-16.749-13.019-23.207
				c-1.232-4.994,2.095-15.655,0.566-20.566c-1.354-4.351-9.727-10.277-10.755-14.717c-0.486-2.1,2.029-6.398,1.509-8.491
				c-1.183-4.762-7.231-16.248-12.076-15.472c-7.641,1.224-10.901,21.134-11.172,28.868c-0.102,2.911,3.728,8.234,3.436,11.132
				c-0.522,5.188-10.182,13.091-10,18.302c0.076,2.184,4.653,5.174,4.717,7.358c0.115,3.948-8.76,9.96-7.736,13.774
				C55.238,348.456,77.047,355.8,77.047,355.8z"/>
			<path style="fill:#E0E0E0;" d="M75.928,313.191l0.8-31.417l1.134,0.064l1.322,51.194c0,0,9.525,2.913,12.807,3.333
				c1.731,0.222,6.981,0,6.981,0v0.629c0,0-5.523,0.396-7.358,0.252c-0.91-0.071-3.585-0.692-3.585-0.692l3.459,3.334l-0.393,0.44
				l-4.481-4.009l-7.392-1.827l1.225,47.444h-6.273l1.73-67.85L75.928,313.191z"/>
		</g>
		<g>
			<path style="fill:#F5F5F5;" d="M397.713,364.164c0,0-19.076-2.219-21.041-7.441c-1.593-4.234,7.769-11.389,8.852-15.78
				c0.838-3.396-1.424-10.645-0.385-13.984c0.921-2.958,6.614-6.988,7.313-10.007c0.331-1.428-1.38-4.351-1.026-5.773
				c0.804-3.238,4.917-11.048,8.211-10.52c5.196,0.832,7.413,14.37,7.596,19.629c0.069,1.979-2.535,5.599-2.336,7.57
				c0.355,3.527,6.924,8.901,6.8,12.445c-0.052,1.485-3.164,3.518-3.207,5.004c-0.078,2.684,5.956,6.772,5.26,9.365
				C412.542,359.17,397.713,364.164,397.713,364.164z"/>
			<path style="fill:#E0E0E0;" d="M398.474,335.192l-0.544-21.362l-0.771,0.044l-0.899,34.81c0,0-6.477,1.981-8.708,2.267
				c-1.177,0.151-4.747,0-4.747,0v0.427c0,0,3.756,0.269,5.004,0.171c0.619-0.048,2.438-0.47,2.438-0.47l-2.352,2.267l0.267,0.299
				l3.047-2.726l5.026-1.242l-0.833,32.26h4.265l-1.176-46.136L398.474,335.192z"/>
		</g>
	</g>
</g>
<g id="Background_Simple" style="display:none;">
	<g style="display:inline;">
		<path style="fill:#407BFF;" d="M295.808,74.22c43.568,8.306,121.716,32.187,138.339,92.087
			c19.091,68.791-67.807,96.756-127.119,98.73c-30.066,1.001-46.271,16.802-65.068,37.826
			c-23.157,25.901-50.146,37.558-85.567,34.77c-45.493-3.581-72.977-32.653-84.024-74.279
			c-13.546-51.046,1.967-109.707,44.02-141.452C166.664,83.95,236.232,62.862,295.808,74.22z"/>
		<path style="opacity:0.9;fill:#FFFFFF;" d="M295.808,74.22c43.568,8.306,121.716,32.187,138.339,92.087
			c19.091,68.791-67.807,96.756-127.119,98.73c-30.066,1.001-46.271,16.802-65.068,37.826
			c-23.157,25.901-50.146,37.558-85.567,34.77c-45.493-3.581-72.977-32.653-84.024-74.279
			c-13.546-51.046,1.967-109.707,44.02-141.452C166.664,83.95,236.232,62.862,295.808,74.22z"/>
	</g>
</g>
<g id="Shadow">
	<ellipse id="_x3C_Path_x3E__1_" style="fill:#F5F5F5;" cx="250" cy="412.391" rx="193.889" ry="11.323"/>
</g>
<g id="Potatoes">
	<g>
		<g>
			<path style="fill:#263238;" d="M164.265,403.646c-1.963,0.338-3.26,2.504-3.058,4.485s1.603,3.684,3.295,4.735
				c1.692,1.051,3.66,1.551,5.6,2.005c2.328,0.545,4.957,0.999,6.963-0.302c3.593-2.329,4.771-9.501,1.199-12.337
				c-1.621-1.287-4.216-1.402-6.14-0.853c-1.279,0.365-2.146,1.526-3.318,1.894C167.215,403.773,165.879,403.368,164.265,403.646z"
				/>
			<path style="opacity:0.1;fill:#FFFFFF;" d="M164.265,403.646c-1.963,0.338-3.26,2.504-3.058,4.485s1.603,3.684,3.295,4.735
				c1.692,1.051,3.66,1.551,5.6,2.005c2.328,0.545,4.957,0.999,6.963-0.302c3.593-2.329,4.771-9.501,1.199-12.337
				c-1.621-1.287-4.216-1.402-6.14-0.853c-1.279,0.365-2.146,1.526-3.318,1.894C167.215,403.773,165.879,403.368,164.265,403.646z"
				/>
			<path style="opacity:0.2;fill:#FFFFFF;" d="M177.062,414.57c-2,1.3-4.63,0.85-6.96,0.3c-1.94-0.45-3.91-0.95-5.6-2
				c-1.69-1.06-3.09-2.76-3.3-4.74c-0.2-1.98,1.1-4.15,3.06-4.48c1.61-0.28,2.93,0.11,4.5-0.37c0.01,0,0.03-0.01,0.04-0.01
				c1.18-0.37,2.04-1.53,3.32-1.89c0.15-0.04,0.3-0.08,0.46-0.11c1.87-0.42,4.19-0.23,5.68,0.96
				C181.832,405.07,180.662,412.24,177.062,414.57z"/>
			<path style="opacity:0.2;" d="M168.252,409.594c0,0.164-0.465,0.297-1.04,0.297c-0.574,0-1.04-0.133-1.04-0.297
				c0-0.164,0.465-0.297,1.04-0.297C167.787,409.297,168.252,409.43,168.252,409.594z"/>
			<path style="opacity:0.2;" d="M174.26,413.003c0,0.082-0.088,0.149-0.197,0.149c-0.109,0-0.197-0.066-0.197-0.149
				c0-0.082,0.088-0.148,0.197-0.148C174.171,412.854,174.26,412.921,174.26,413.003z"/>
			<path style="opacity:0.2;" d="M178.366,408.473c0,0.164-0.176,0.297-0.393,0.297c-0.217,0-0.394-0.133-0.394-0.297
				c0-0.164,0.176-0.297,0.394-0.297C178.19,408.176,178.366,408.309,178.366,408.473z"/>
			<path style="opacity:0.2;" d="M168.646,406.416c0,0.164-0.176,0.297-0.394,0.297c-0.217,0-0.394-0.133-0.394-0.297
				c0-0.164,0.176-0.297,0.394-0.297C168.469,406.119,168.646,406.252,168.646,406.416z"/>
			<path style="opacity:0.2;" d="M174.26,404.289c0,0.24-0.088,0.434-0.197,0.434c-0.109,0-0.197-0.194-0.197-0.434
				c0-0.24,0.088-0.434,0.197-0.434C174.171,403.854,174.26,404.049,174.26,404.289z"/>
			<path style="opacity:0.2;" d="M172.542,402.04c-0.13,0.19-0.33,0.33-0.52,0.45c-0.55,0.34-1.15,0.58-1.78,0.71
				c-0.27,0.05-1.11,0.25-1.48,0.08c0.01,0,0.03-0.01,0.04-0.01c1.18-0.37,2.04-1.53,3.32-1.89c0.15-0.04,0.3-0.08,0.46-0.11
				c0.04,0.04,0.06,0.08,0.08,0.12C172.742,401.61,172.672,401.85,172.542,402.04z"/>
		</g>
		<g>
			<path style="fill:#263238;" d="M186.412,407.01c-0.647,1.065-0.994,2.539-0.187,3.488c0.345,0.406,0.845,0.642,1.329,0.865
				c0.833,0.385,1.665,0.77,2.498,1.154c1.815,0.839,3.66,1.687,5.638,1.98c0.997,0.148,2.012,0.152,3.017,0.079
				c1.491-0.108,3.038-0.415,4.206-1.348c2.089-1.669,2.171-5.274,0.16-7.036c-1.415-1.24-3.439-1.494-5.318-1.42
				c-0.821,0.032-1.67,0.112-2.439-0.178c-1.99-0.75-2.512-1.702-4.723-0.932C188.874,404.259,187.359,405.452,186.412,407.01z"/>
			<g>
				<path style="opacity:0.1;fill:#FFFFFF;" d="M186.412,407.01c-0.647,1.065-0.994,2.539-0.187,3.488
					c0.345,0.406,0.845,0.642,1.329,0.865c0.833,0.385,1.665,0.77,2.498,1.154c1.815,0.839,3.66,1.687,5.638,1.98
					c0.997,0.148,2.012,0.152,3.017,0.079c1.491-0.108,3.038-0.415,4.206-1.348c2.089-1.669,2.171-5.274,0.16-7.036
					c-1.415-1.24-3.439-1.494-5.318-1.42c-0.821,0.032-1.67,0.112-2.439-0.178c-1.99-0.75-2.512-1.702-4.723-0.932
					C188.874,404.259,187.359,405.452,186.412,407.01z"/>
				<g>
					<path style="opacity:0.2;fill:#FFFFFF;" d="M186.412,407.01c-0.647,1.065-0.994,2.539-0.187,3.488
						c0.345,0.406,0.845,0.642,1.329,0.865c0.833,0.385,1.665,0.77,2.498,1.154c1.815,0.839,3.66,1.687,5.638,1.98
						c0.997,0.148,2.012,0.152,3.017,0.079c1.491-0.108,3.038-0.415,4.206-1.348c2.089-1.669,2.171-5.274,0.16-7.036
						c-1.415-1.24-3.439-1.494-5.318-1.42c-0.821,0.032-1.67,0.112-2.439-0.178c-1.99-0.75-2.512-1.702-4.723-0.932
						C188.874,404.259,187.359,405.452,186.412,407.01z"/>
					<path style="opacity:0.2;" d="M201.298,405.987c0,0.164-0.465,0.297-1.04,0.297c-0.574,0-1.04-0.133-1.04-0.297
						c0-0.164,0.465-0.297,1.04-0.297C200.833,405.69,201.298,405.823,201.298,405.987z"/>
					<ellipse style="opacity:0.2;" cx="196.357" cy="409.908" rx="0.197" ry="0.148"/>
					<ellipse style="opacity:0.2;" cx="190.947" cy="405.211" rx="0.197" ry="0.148"/>
					<path style="opacity:0.2;" d="M189.12,410.057c0,0.082-0.088,0.149-0.197,0.149s-0.197-0.067-0.197-0.149
						c0-0.082,0.088-0.148,0.197-0.148S189.12,409.975,189.12,410.057z"/>
					<path style="opacity:0.2;" d="M198.335,413.763c0,0.164-0.176,0.297-0.394,0.297c-0.217,0-0.393-0.133-0.393-0.297
						c0-0.164,0.176-0.297,0.393-0.297C198.159,413.466,198.335,413.599,198.335,413.763z"/>
					<path style="opacity:0.2;" d="M193.558,404.779c-0.238-0.004-0.487-0.011-0.694-0.128c-0.207-0.118-0.348-0.386-0.244-0.6
						c1.198,0.189,2.355,0.566,3.541,0.776C195.296,404.78,194.424,404.793,193.558,404.779z"/>
				</g>
			</g>
		</g>
		<g>
			<path style="fill:#263238;" d="M211.969,410.52c-0.082,0.597-0.16,1.222,0.046,1.788c0.478,1.313,2.145,1.652,3.537,1.769
				c1.556,0.131,3.135,0.237,4.668-0.064c1.532-0.301,3.034-1.057,3.923-2.34c0.481-0.694,0.767-1.572,0.561-2.39
				c-0.116-0.46-0.376-0.868-0.634-1.266c-0.984-1.522-1.98-3.036-2.99-4.541c-0.372-0.555-0.784-1.139-1.407-1.379
				c-0.636-0.244-1.348-0.073-2.003,0.113c-1.79,0.51-3.199,0.763-4.136,2.452C212.542,406.45,212.242,408.522,211.969,410.52z"/>
			<g>
				<path style="opacity:0.3;fill:#FFFFFF;" d="M211.969,410.52c-0.082,0.597-0.16,1.222,0.046,1.788
					c0.478,1.313,2.145,1.652,3.537,1.769c1.556,0.131,3.135,0.237,4.668-0.064c1.532-0.301,3.034-1.057,3.923-2.34
					c0.481-0.694,0.767-1.572,0.561-2.39c-0.116-0.46-0.376-0.868-0.634-1.266c-0.984-1.522-1.98-3.036-2.99-4.541
					c-0.372-0.555-0.784-1.139-1.407-1.379c-0.636-0.244-1.348-0.073-2.003,0.113c-1.79,0.51-3.199,0.763-4.136,2.452
					C212.542,406.45,212.242,408.522,211.969,410.52z"/>
				<path style="opacity:0.2;" d="M218.13,412.391c0,0.082-0.088,0.148-0.197,0.148c-0.109,0-0.197-0.066-0.197-0.148
					s0.088-0.148,0.197-0.148C218.042,412.242,218.13,412.309,218.13,412.391z"/>
				<path style="opacity:0.2;" d="M215.172,405.228c0,0.082-0.088,0.148-0.197,0.148c-0.109,0-0.197-0.066-0.197-0.148
					s0.088-0.148,0.197-0.148C215.084,405.079,215.172,405.146,215.172,405.228z"/>
				<path style="opacity:0.2;" d="M216.605,406.229c0,0.143-0.154,0.259-0.343,0.259c-0.19,0-0.344-0.116-0.344-0.259
					c0-0.143,0.154-0.259,0.344-0.259C216.451,405.97,216.605,406.086,216.605,406.229z"/>
				<path style="opacity:0.2;" d="M223.021,410.455c0,0.082-0.088,0.149-0.197,0.149s-0.197-0.066-0.197-0.149
					c0-0.082,0.088-0.149,0.197-0.149S223.021,410.373,223.021,410.455z"/>
				<path style="opacity:0.2;" d="M218.721,402.914c0,0.164-0.176,0.297-0.394,0.297c-0.217,0-0.394-0.133-0.394-0.297
					c0-0.164,0.176-0.297,0.394-0.297C218.545,402.617,218.721,402.75,218.721,402.914z"/>
				<path style="opacity:0.2;" d="M213.542,411.866c0,0.164-0.176,0.297-0.394,0.297c-0.217,0-0.394-0.133-0.394-0.297
					c0-0.164,0.176-0.297,0.394-0.297C213.366,411.569,213.542,411.702,213.542,411.866z"/>
				<path style="opacity:0.2;" d="M221.824,413.331c-0.219,0.098-0.432,0.096-0.477-0.003c-0.044-0.099,0.097-0.259,0.316-0.357
					c0.219-0.098,0.432-0.096,0.477,0.003C222.184,413.074,222.043,413.234,221.824,413.331z"/>
			</g>
		</g>
	</g>
</g>
<g id="Character">
	<g>
		<g>
			<path style="fill:#407BFF;" d="M312.988,362.257l0.9,3.552c0,0,17.548-7.014,23.341,7.198
				c5.793,14.213-13.18,49.403-58.393,39.154c0,0-8.441,0.512-18.861-2.044c-15.447-3.788-55.691-22.929-49.81-36.168
				c4.126-9.288,17.764-12.411,50.847-4.574c3.29,0.779,5.689-2.044,5.689-2.044l-0.368-2.362L312.988,362.257z"/>
			<path style="opacity:0.1;enable-background:new    ;" d="M312.988,362.257l0.9,3.552c0,0,17.548-7.014,23.341,7.198
				c5.793,14.213-13.18,49.403-58.393,39.154c0,0-8.441,0.512-18.861-2.044c-15.447-3.788-55.691-22.929-49.81-36.168
				c4.126-9.288,17.764-12.411,50.847-4.574c3.29,0.779,5.689-2.044,5.689-2.044l-0.368-2.362L312.988,362.257z"/>
			<polygon style="fill:#CE7A63;" points="276.748,396.991 305.439,403.351 303.395,411.841 274.228,407.458 			"/>
			<path style="fill:#263238;" d="M303.513,413.246l-4.588-10.31c-0.173-0.389-0.054-0.845,0.288-1.099l7.558-5.596
				c0.667-0.501,1.614-0.367,2.115,0.3c0.064,0.086,0.12,0.178,0.164,0.275c1.589,3.745,2.856,7.141,4.922,11.765
				c2.432,5.46,2.468,3.784,5.416,10.163c1.772,3.845-2.309,6.51-3.255,4.966c-4.285-7.086-6.898-6.857-10.874-8.557
				C304.463,414.752,303.842,414.073,303.513,413.246z"/>
			<g>
				<path style="fill:#407BFF;" d="M250.62,380.595c0,0-26.319-26.352-39.224-8.758c-12.361,16.851,36.198,32.496,51.122,35.603
					c11.427,2.379,25.624,5.712,25.624,5.712l4.31-14.234L250.62,380.595z"/>
				<g>
					<polygon style="fill:#407BFF;" points="289.349,414.878 295.492,397.991 288.574,393.827 281.383,413.556 					"/>
					<polygon style="opacity:0.5;fill:#FFFFFF;" points="289.349,414.878 295.492,397.991 288.574,393.827 281.383,413.556 					"/>
				</g>
				<path style="opacity:0.1;enable-background:new    ;" d="M229.741,370.952c-3.874,1.717,20.88,9.643,20.88,9.643
					s-4.455-4.456-10.594-8.48C236.212,370.635,232.336,369.801,229.741,370.952z"/>
			</g>
			<polygon style="fill:#CE7A63;" points="273.862,406.962 245.845,415.536 243.078,407.253 270.451,396.751 			"/>
			<path style="fill:#263238;" d="M245.234,405.702l3.997,10.079c0.132,0.404-0.033,0.846-0.398,1.064l-8.091,4.794
				c-0.715,0.43-1.643,0.2-2.073-0.514c-0.055-0.092-0.101-0.189-0.135-0.29c-1.198-3.888-2.598-6.749-4.18-11.56
				c-1.861-5.68-2.068-4.016-4.349-10.663c-1.37-4.006,2.963-6.24,3.746-4.607c3.538,7.487,6.161,7.526,9.942,9.624
				C244.443,404.107,244.992,404.845,245.234,405.702z"/>
			<g>
				<path style="fill:#407BFF;" d="M296.833,380.146c0,0,25.937-26.728,39.094-9.322c12.602,16.671-35.727,33.013-50.605,36.334
					c-11.392,2.543-25.539,6.08-25.539,6.08l-4.514-14.171L296.833,380.146z"/>
				<path style="opacity:0.1;fill:#FFFFFF;" d="M296.833,380.146c0,0,25.937-26.728,39.094-9.322
					c12.602,16.671-35.727,33.013-50.605,36.334c-11.392,2.543-25.539,6.08-25.539,6.08l-4.514-14.171L296.833,380.146z"/>
				<g>
					<polygon style="fill:#407BFF;" points="258.602,414.982 252.216,398.185 259.073,393.922 266.547,413.546 					"/>
					<polygon style="opacity:0.5;fill:#FFFFFF;" points="258.602,414.982 252.216,398.185 259.073,393.922 266.547,413.546 					"/>
				</g>
				<path style="opacity:0.1;enable-background:new    ;" d="M317.572,370.203c3.898,1.662-20.739,9.943-20.739,9.943
					s4.391-4.519,10.471-8.631C311.096,369.98,314.96,369.09,317.572,370.203z"/>
			</g>
		</g>
		<g>
			<path style="fill:#CE7A63;" d="M241.563,322.383l-5.457-8.687l-0.502-8.26l-7.606-1.801c-2.404-0.569-4.787,1.016-5.192,3.452
				l-0.367,2.207c-0.281,1.694,0.48,3.391,1.932,4.307l6.48,4.088l4.199,8.17L241.563,322.383z"/>
			<path style="fill:#263238;" d="M260.866,300.794L250.679,333.2l-10.507-15.271l-8.266,4.087c0,0,12.635,31.947,22.092,26.667
				c9.457-5.28,10.671-16.721,10.451-23.042c-0.218-6.247-3.134-24.808-3.134-24.808
				C261.283,300.589,260.94,300.558,260.866,300.794z"/>
			<path style="opacity:0.1;" d="M264.448,325.642c0.163,4.685-0.47,12.178-4.655,17.894c-2.681-18.254,0.384-35.346,1.716-41.439
				C262.166,306.379,264.264,320.379,264.448,325.642z"/>
			<g>
				<path style="fill:#263238;" d="M238.86,306.836c-0.265,0.072-0.554,0.054-0.808-0.051c-0.092-0.038-0.186-0.088-0.285-0.075
					c-0.096,0.012-0.174,0.082-0.243,0.151c-0.163,0.164-0.311,0.346-0.503,0.474c-0.193,0.128-0.447,0.193-0.656,0.096
					c-0.104-0.048-0.191-0.133-0.301-0.163c-0.11-0.03-0.326,0.11-0.318,0.224c-0.222-0.324-0.321-0.716-0.386-1.104
					c-0.072-0.429-0.032-0.887-0.03-1.322c0.148-0.032,0.296-0.064,0.444-0.095c0.04-0.009,0.085-0.017,0.121,0.002
					c0.043,0.023,0.061,0.076,0.096,0.11c0.066,0.063,0.172,0.045,0.258,0.018c0.172-0.053,0.338-0.124,0.494-0.213
					c0.233-0.132,0.469-0.309,0.736-0.285c0.335,0.029,0.626,0.373,0.949,0.28c0.31,0.543,0.608,1.385,0.41,1.978
					C238.839,306.814,238.859,306.881,238.86,306.836z"/>
				<path style="opacity:0.2;" d="M238.86,306.836c-0.265,0.072-0.554,0.054-0.808-0.051c-0.092-0.038-0.186-0.088-0.285-0.075
					c-0.096,0.012-0.174,0.082-0.243,0.151c-0.163,0.164-0.311,0.346-0.503,0.474c-0.193,0.128-0.447,0.193-0.656,0.096
					c-0.104-0.048-0.191-0.133-0.301-0.163c-0.11-0.03-0.326,0.11-0.318,0.224c-0.222-0.324-0.321-0.716-0.386-1.104
					c-0.072-0.429-0.032-0.887-0.03-1.322c0.148-0.032,0.296-0.064,0.444-0.095c0.04-0.009,0.085-0.017,0.121,0.002
					c0.043,0.023,0.061,0.076,0.096,0.11c0.066,0.063,0.172,0.045,0.258,0.018c0.172-0.053,0.338-0.124,0.494-0.213
					c0.233-0.132,0.469-0.309,0.736-0.285c0.335,0.029,0.626,0.373,0.949,0.28c0.31,0.543,0.608,1.385,0.41,1.978
					C238.839,306.814,238.859,306.881,238.86,306.836z"/>
				<g>
					<path style="fill:#263238;" d="M238.943,308.464c-0.024,0.035-0.024,0.086-0.008,0.114c0.027,0.035,0.171,0.037,0.153,0
						c0.151,0.245,0.202,0.551,0.155,0.826c-0.025,0.127-0.07,0.259-0.129,0.373c-0.127,0.229-0.54,0.22-0.658,0.448
						c-0.173,0.361-0.135,0.802,0.074,1.137c0.061,0.1,0.13,0.188,0.161,0.294c0.088,0.237-0.018,0.473-0.147,0.692
						c-0.537,0.22-1.414,0.222-1.808-0.016c-0.014-0.018-0.025-0.026-0.029-0.045c-0.049-0.092-0.09-0.196-0.08-0.3
						c0.033-0.292,0.414-0.43,0.49-0.71c0.006-0.021,0.01-0.053,0.016-0.074c0.006-0.174-0.08-0.351-0.104-0.52
						c-0.063-0.365,0.141-0.722,0.308-1.061c0.157-0.337,0.47-0.573,0.236-0.873c-0.135-0.167-0.43-0.312-0.338-0.514
						c0.204-0.51,0.523-0.951,0.761-1.447c0.229-0.484,0.38-1.055,0.206-1.571c-0.031-0.106,0.127-0.382,0.235-0.353
						c0.104,0.469,0.61,0.755,0.82,1.192c0.07,0.149,0.094,0.318,0.128,0.484c0.059,0.345,0.1,0.704-0.008,1.031
						C239.276,307.887,239.055,308.156,238.943,308.464z"/>
					<path style="opacity:0.3;fill:#FFFFFF;" d="M238.943,308.464c-0.024,0.035-0.024,0.086-0.008,0.114
						c0.027,0.035,0.171,0.037,0.153,0c0.151,0.245,0.202,0.551,0.155,0.826c-0.025,0.127-0.07,0.259-0.129,0.373
						c-0.127,0.229-0.54,0.22-0.658,0.448c-0.173,0.361-0.135,0.802,0.074,1.137c0.061,0.1,0.13,0.188,0.161,0.294
						c0.088,0.237-0.018,0.473-0.147,0.692c-0.537,0.22-1.414,0.222-1.808-0.016c-0.014-0.018-0.025-0.026-0.029-0.045
						c-0.049-0.092-0.09-0.196-0.08-0.3c0.033-0.292,0.414-0.43,0.49-0.71c0.006-0.021,0.01-0.053,0.016-0.074
						c0.006-0.174-0.08-0.351-0.104-0.52c-0.063-0.365,0.141-0.722,0.308-1.061c0.157-0.337,0.47-0.573,0.236-0.873
						c-0.135-0.167-0.43-0.312-0.338-0.514c0.204-0.51,0.523-0.951,0.761-1.447c0.229-0.484,0.38-1.055,0.206-1.571
						c-0.031-0.106,0.127-0.382,0.235-0.353c0.104,0.469,0.61,0.755,0.82,1.192c0.07,0.149,0.094,0.318,0.128,0.484
						c0.059,0.345,0.1,0.704-0.008,1.031C239.276,307.887,239.055,308.156,238.943,308.464z"/>
				</g>
				<path style="fill:#263238;" d="M241.995,312.028c-0.004-0.12-0.1-0.205-0.208-0.26c-0.344,0.064-0.652,0.229-0.894,0.478
					c-0.147,0.143-0.276,0.327-0.432,0.46c-0.166,0.132-0.381,0.222-0.588,0.162c-0.197-0.069-0.21-0.706-0.072-0.87
					c-0.28-0.003-0.827,0.553-1.064,0.702c-0.103,0.065-0.627,0.177-0.788,0.2c-0.575,0.083-0.851-0.204-1.176-0.53
					c-0.086-0.094-0.141-0.187-0.136-0.297c0.004-0.09,0.347-0.664,0.545-0.525c0.146,0.102,0.616-0.255,0.699-0.311
					c0.509-0.376,0.577-0.619,1.085-0.995c0.228-0.159,0.516-0.326,0.787-0.343c0.131-0.024,0.27,0.003,0.387,0.078
					c-0.124,0.084-0.004,0.29,0.136,0.307c0.15,0.007,0.275-0.097,0.389-0.172c0.455-0.299,1.048-0.351,1.549-0.157
					C242.474,310.599,242.489,311.551,241.995,312.028z"/>
				<g>
					<path style="fill:#263238;" d="M241.833,311.228c-0.507,0.403-0.697,0.52-0.516,0.928c0.044,0.099,0.227,0.253,0.292,0.34
						c0.056,0.076,0.175,0.26,0.239,0.33c0.17,0.183,0.331,0.408,0.153,0.584c-0.322,0.32-0.629,0.675-0.664,0.759
						c-0.675,1.608-1.076,2.567-0.981,2.957c0.135,0.07,0.268,0.238,0.305,0.385c0.036,0.147,0.039,0.558,0.189,0.531
						c0.884-0.225,1.368-1.664,1.49-2.032c0.117-0.356,1.022-1.742,0.834-2.501c-0.064-0.259-0.599-0.633-0.574-1.041
						c0.031-0.5,0.332-0.379,0.427-0.871c0.156-0.805-0.604-1.471-0.862-1.665c-0.127-0.095,0.032,0.22-0.023,0.577
						C242.084,310.879,241.833,311.228,241.833,311.228z"/>
					<path style="opacity:0.3;fill:#FFFFFF;" d="M241.833,311.228c-0.507,0.403-0.697,0.52-0.516,0.928
						c0.044,0.099,0.227,0.253,0.292,0.34c0.056,0.076,0.175,0.26,0.239,0.33c0.17,0.183,0.331,0.408,0.153,0.584
						c-0.322,0.32-0.629,0.675-0.664,0.759c-0.675,1.608-1.076,2.567-0.981,2.957c0.135,0.07,0.268,0.238,0.305,0.385
						c0.036,0.147,0.039,0.558,0.189,0.531c0.884-0.225,1.368-1.664,1.49-2.032c0.117-0.356,1.022-1.742,0.834-2.501
						c-0.064-0.259-0.599-0.633-0.574-1.041c0.031-0.5,0.332-0.379,0.427-0.871c0.156-0.805-0.604-1.471-0.862-1.665
						c-0.127-0.095,0.032,0.22-0.023,0.577C242.084,310.879,241.833,311.228,241.833,311.228z"/>
				</g>
			</g>
			<g>
				<path style="fill:#407BFF;" d="M235.896,304.991c-0.579-2.94-3.167-4.977-6.06-4.932c-0.361-0.008-0.739,0.035-1.115,0.108
					c-3.307,0.652-3.922,3.554-3.269,6.871c0.652,3.306,2.314,5.77,5.62,5.118c2.931-0.569,4.969-3.147,4.933-6.03
					C236.013,305.755,235.97,305.377,235.896,304.991z"/>
			</g>
			<g style="opacity:0.4;">
				<path style="fill:#FFFFFF;" d="M235.896,304.991c-0.579-2.94-3.167-4.977-6.06-4.932c-0.361-0.008-0.739,0.035-1.115,0.108
					c-3.307,0.652-3.922,3.554-3.269,6.871c0.652,3.306,2.314,5.77,5.62,5.118c2.931-0.569,4.969-3.147,4.933-6.03
					C236.013,305.755,235.97,305.377,235.896,304.991z"/>
			</g>
			<path style="opacity:0.2;fill:#FFFFFF;" d="M229.708,299.983c0.03,1.21-0.602,2.14-0.722,3.34c-0.02,0.15-0.04,0.29-0.1,0.42
				c-0.07,0.15-0.2,0.27-0.32,0.38c-1.2,1.05-1.828,2.35-3.068,3.34c-0.05-0.25-0.09-0.5-0.13-0.76c-0.45-3.35,0.34-6.21,3.68-6.66
				C229.279,300.013,229.488,299.993,229.708,299.983z"/>
			<path style="opacity:0.2;fill:#FFFFFF;" d="M235.958,306.433c-0.04,0.08-0.12,0.11-0.24,0.07c-1.41-0.73-2.72-2.15-4.1-2.95
				c-0.14-0.09-0.29-0.18-0.38-0.32c-0.09-0.11-0.13-0.25-0.18-0.39c-0.35-1.14-0.69-1.68-0.89-2.84c2.89,0.13,5.35,2.32,5.75,5.29
				C235.969,305.683,235.988,306.063,235.958,306.433z"/>
			<path style="fill:#263238;" d="M230.38,308.422c-2.064,1.107-2.099,0.048-2.352,0.232c-0.21,0.153-0.85,0.559-1.074,0.69
				c-0.224,0.131-0.873-0.487-1.003-0.486c-0.125,0.001,0.214,0.88,0.98,1.836c0.437,0.546,1.751,2.293,4.837,1.474
				c4.177-1.109,4.354-3.39,4.321-4.906c0,0-1.017,0.328-1.903,0.615C231.647,308.702,231.486,307.829,230.38,308.422z"/>
			<path style="opacity:0.3;fill:#FFFFFF;" d="M230.38,308.422c-2.064,1.107-2.099,0.048-2.352,0.232
				c-0.21,0.153-0.85,0.559-1.074,0.69c-0.224,0.131-0.873-0.487-1.003-0.486c-0.125,0.001,0.214,0.88,0.98,1.836
				c0.437,0.546,1.751,2.293,4.837,1.474c4.177-1.109,4.354-3.39,4.321-4.906c0,0-1.017,0.328-1.903,0.615
				C231.647,308.702,231.486,307.829,230.38,308.422z"/>
			<g>
				<path style="opacity:0.2;" d="M231.906,310.245c0,0.062-0.106,0.111-0.238,0.111s-0.238-0.05-0.238-0.111
					c0-0.061,0.106-0.111,0.238-0.111S231.906,310.184,231.906,310.245z"/>
				<path style="opacity:0.2;" d="M228.802,310.189c0,0.031-0.053,0.056-0.119,0.056c-0.066,0-0.119-0.025-0.119-0.056
					c0-0.031,0.053-0.056,0.119-0.056C228.748,310.134,228.802,310.159,228.802,310.189z"/>
				<path style="opacity:0.2;" d="M230.287,311.727c0,0.031-0.053,0.056-0.119,0.056c-0.066,0-0.119-0.025-0.119-0.056
					c0-0.031,0.053-0.056,0.119-0.056C230.234,311.671,230.287,311.696,230.287,311.727z"/>
				<ellipse style="opacity:0.2;" cx="234.668" cy="308.797" rx="0.238" ry="0.111"/>
			</g>
		</g>
		<g>
			<path style="fill:#263238;" d="M266.333,364.97c0,0-6.697-40.88-5.492-63.889c0.068-1.306,0.902-2.438,2.141-2.855
				c5.701-1.916,23.433-6.583,51.505-2.333c1.757,0.266,2.963,1.906,2.668,3.658c-1.273,7.574-4.133,28.906-3.386,64.329
				C313.77,363.88,282.395,371.164,266.333,364.97z"/>
			<path style="opacity:0.1;" d="M315.476,312.407c-0.667,6.546-1.302,15.118-1.619,25.723c-5.327-5.429-1.348-28.959-1.348-28.959
				L315.476,312.407L315.476,312.407z"/>
			<path style="opacity:0.1;" d="M300.677,337.787l10.409,3.513c0,0,1.109,0.721,2.649,1.799c-0.051,2.705-0.081,5.527-0.086,8.469
				c-21.109-5.782-16.756-11.535-16.756-11.535L300.677,337.787z"/>
		</g>
		<g>
			<path style="fill:#CE7A63;" d="M296.86,297.685c-2.155,1.835-7.932,6.56-10.424,6.684c-2.396,0.119-3.951-4.127-4.533-6.054
				c4.108-1.98,4.655-6.343,4.007-10.31l12.339-8.877C296.85,284.065,295.166,292.471,296.86,297.685z"/>
			<path style="opacity:0.2;enable-background:new    ;" d="M293.223,282.772l-7.315,5.214c0.163,1.117,0.232,2.246,0.205,3.374
				c2.604-0.158,6.095-2.049,7.341-4.786C294.249,284.904,293.868,283.029,293.223,282.772z"/>
			<path style="fill:#263238;" d="M274.262,260.82c-0.104,1.468,0.499,2.878,1.124,4.211c0.879,1.876-2.694,4.982-1.794,6.849
				c0.236,0.49,0.629,0.883,0.962,1.314c0.937,1.215,2.552,4.418,2.418,5.946c-0.288,3.294-1.608,7.409-2.461,10.603
				c-0.003,0.012-0.006,0.023-0.009,0.035c-0.544,2.157,2.061,3.751,3.84,2.418c0.406-0.304,0.797-0.63,1.179-0.954
				c1.222-1.039,2.817-1.973,4.354-1.512c0.417,0.125,0.842,0.352,1.263,0.241c0.466-0.123,0.726-0.606,0.932-1.041l1.31-2.772
				c1.927-4.078,0.438-10.28-1.062-14.534c-1.459-4.139,10.681-17.964,9.915-18.701C295.065,251.799,274.729,254.226,274.262,260.82
				z"/>
			<path style="fill:#CE7A63;" d="M301.413,269.638c-0.946,6.359-1.334,10.691-3.621,14.106c-0.633,0.96-1.421,1.85-2.402,2.681
				c-6.753,5.77-16.523,1.114-17.749-7.197c-0.069-0.477-0.13-0.984-0.171-1.502c-0.638-7.535,1.769-18.201,9.529-20.586
				c5.909-1.852,12.2,1.443,14.051,7.341C301.572,266.152,301.689,267.919,301.413,269.638z"/>
			<path style="opacity:0.1;enable-background:new    ;" d="M298.056,281.334c0.07,0.817-0.031,1.625-0.264,2.411
				c-0.633,0.96-1.421,1.85-2.402,2.681c-6.753,5.77-16.523,1.114-17.749-7.197c-0.069-0.477-0.13-0.984-0.171-1.502
				c0.061-0.144,0.133-0.279,0.258-0.376c0.191-0.152,0.45-0.178,0.69-0.182c3.565-0.187,7.121-0.372,10.676-0.559
				C292.578,276.427,297.675,276.879,298.056,281.334z"/>
			<path style="fill:#CE7A63;" d="M304.738,277.617c-1.254,1.641-3.104,2.722-5.149,3.008c-2.721,0.342-3.69-2.175-2.605-4.538
				c0.971-2.118,3.563-4.863,6.131-4.13C305.683,272.691,306.257,275.574,304.738,277.617z"/>
			<path style="fill:#263238;" d="M288.411,270.88c-0.06,0.67-0.456,1.18-0.893,1.139c-0.437-0.041-0.739-0.608-0.679-1.277
				c0.06-0.67,0.457-1.171,0.894-1.13C288.17,269.654,288.472,270.22,288.411,270.88z"/>
			<path style="fill:#263238;" d="M280.891,270.224c-0.061,0.66-0.457,1.171-0.894,1.13c-0.437-0.041-0.739-0.608-0.678-1.268
				c0.061-0.66,0.456-1.18,0.893-1.139C280.649,268.987,280.95,269.554,280.891,270.224z"/>
			<path style="fill:#BA4D3C;" d="M283.659,270.72c-0.974,1.963-2.215,3.782-3.687,5.406c1.111,1.204,3.134,0.882,3.134,0.882
				L283.659,270.72z"/>
			<path style="fill:#263238;" d="M291.272,267.987c0.067,0.005,0.135-0.003,0.198-0.025c0.177-0.121,0.231-0.358,0.124-0.543
				c-0.652-1.081-1.782-1.785-3.04-1.892c-0.218-0.004-0.398,0.169-0.402,0.386c-0.004,0.218,0.169,0.398,0.387,0.402l0,0
				c0.995,0.095,1.883,0.661,2.389,1.523C291.009,267.944,291.139,268,291.272,267.987z"/>
			<path style="fill:#263238;" d="M278.231,266.931c0.134-0.004,0.255-0.077,0.321-0.194c0.485-0.865,1.352-1.447,2.336-1.57
				c0.216-0.009,0.385-0.191,0.376-0.407c-0.009-0.216-0.191-0.385-0.407-0.376c-1.261,0.129-2.381,0.859-3.007,1.962
				c-0.111,0.179-0.055,0.414,0.124,0.524c0.003,0.002,0.007,0.004,0.01,0.006C278.057,266.922,278.145,266.942,278.231,266.931z"/>
			<g>
				<path style="fill:#263238;" d="M304.278,294.882c0,0-2.2-6.981-7.367-3.809c-5.167,3.172-6.969,12.523-10.667,12.524
					c-3.697,0,1.912-12.786-2.713-12.388c-4.625,0.398-5.336,3.706-5.336,3.706s3.251,10.877,7.606,10.613
					C291.048,305.21,304.278,294.882,304.278,294.882z"/>
				<path style="opacity:0.2;fill:#FFFFFF;" d="M304.278,294.882c0,0-2.2-6.981-7.367-3.809
					c-5.167,3.172-6.969,12.523-10.667,12.524c-3.697,0,1.912-12.786-2.713-12.388c-4.625,0.398-5.336,3.706-5.336,3.706
					s3.251,10.877,7.606,10.613C291.048,305.21,304.278,294.882,304.278,294.882z"/>
			</g>
			<g>
				<path style="fill:#263238;" d="M280.695,280.134c0,0,2.114-0.809,8.225-1.66c-0.452,1.939-1.58,3.608-4.715,4.046
					c-1.544,0.368-3.093-0.585-3.462-2.129C280.724,280.307,280.707,280.221,280.695,280.134z"/>
				<path style="fill:#BA4D3C;" d="M284.206,282.52c1.515-0.211,2.559-0.712,3.286-1.391c-0.586-0.211-1.216-0.274-1.833-0.162
					c-1.226,0.103-2.384,0.579-3.344,1.342C282.885,282.581,283.543,282.678,284.206,282.52z"/>
				<path style="fill:#FFFFFF;" d="M287.307,279.627c0.571-0.137,1.036-0.549,1.242-1.099c-1.691,0.242-3.068,0.478-4.162,0.693
					c-1.181,0.246-2.354,0.529-3.514,0.859c0.189,0.441,0.608,0.74,1.086,0.776C283.773,280.593,285.561,280.182,287.307,279.627z"
					/>
			</g>
		</g>
		<path style="fill:#263238;" d="M282.318,256.505c0.664,0.355,0.549,1.31,0.651,2.056c0.2,1.458,1.515,2.479,2.777,3.235
			c1.263,0.757,7.446,1.626,8.071,2.959c0.879,1.876-0.834,4.025,0.066,5.891c0.236,0.49,0.629,0.883,0.962,1.314
			c0.937,1.215,1.398,2.788,1.264,4.316c-0.288,3.294-1.608,7.409-2.461,10.603c-0.312,1.167-0.334,4.697,0.481,5.588
			c1.574-0.311,2.893-1.361,4.116-2.401c1.222-1.039,2.817-1.973,4.354-1.512c0.417,0.125,0.842,0.352,1.263,0.241
			c0.466-0.123,0.726-0.606,0.932-1.041c0.311-0.657,0.621-1.315,0.932-1.972c2.003-4.237,0.297-8.172,0.535-12.853
			c0.651-12.793-1.695-14.375-4.195-16.244c0.088-1.018-0.622-1.534-1.359-2.243c-1.167-1.122-2.858-1.585-4.476-1.521
			C294.614,252.986,284.516,254.095,282.318,256.505z"/>
		<g>
			<path style="fill:#263238;" d="M270.663,321.611l5.294,4.991l1.33,1.159l-1.666,1.882l-0.989-0.875l0.09-0.77l-0.742-0.072
				l-4.634-3.841c-0.676-0.576-1.3-1.235-1.857-1.963c-0.308-0.404-0.573-0.839-0.797-1.293l-0.792-1.606l1.272,0.389
				C268.476,320.009,269.679,320.705,270.663,321.611z"/>
			<path style="opacity:0.6;fill:#FFFFFF;" d="M270.663,321.611l5.294,4.991l1.33,1.159l-1.666,1.882l-0.989-0.875l0.09-0.77
				l-0.742-0.072l-4.634-3.841c-0.676-0.576-1.3-1.235-1.857-1.963c-0.308-0.404-0.573-0.839-0.797-1.293l-0.792-1.606l1.272,0.389
				C268.476,320.009,269.679,320.705,270.663,321.611z"/>
			<path style="opacity:0.2;" d="M270.494,321.802l5.323,4.958l1.328,1.161l-1.346,1.521l-0.989-0.875l0.009-0.679l-0.686-0.134
				l-4.609-3.869c-0.673-0.578-1.308-1.226-1.887-1.929c-0.321-0.39-0.605-0.803-0.853-1.23l-0.878-1.509l1.202,0.468
				C268.338,320.164,269.506,320.9,270.494,321.802z"/>
		</g>
		<g>
			<path style="fill:#407BFF;" d="M275.682,328.208L275.682,328.208c-0.75,0.847-0.672,2.142,0.176,2.893l10.391,9.201
				c0.847,0.75,2.142,0.672,2.893-0.176l0,0c0.75-0.847,0.672-2.142-0.176-2.893l-10.391-9.201
				C277.727,327.282,276.432,327.36,275.682,328.208z"/>
			<path style="opacity:0.3;fill:#FFFFFF;" d="M289.295,339.929c-0.047,0.068-0.098,0.133-0.154,0.196
				c-0.75,0.848-2.045,0.926-2.893,0.176l-10.391-9.2c-0.847-0.75-0.926-2.045-0.176-2.893c0.056-0.063,0.115-0.122,0.176-0.176
				c-0.581,0.841-0.454,2.002,0.33,2.696l10.391,9.2C287.363,340.622,288.53,340.607,289.295,339.929z"/>
			<path style="opacity:0.2;" d="M278.575,328.032l10.391,9.2c0.848,0.751,0.926,2.045,0.176,2.893
				c-0.056,0.063-0.115,0.122-0.177,0.177c0.58-0.841,0.455-2.002-0.33-2.696l-10.391-9.2c-0.424-0.375-0.959-0.543-1.483-0.512
				c-0.445,0.027-0.883,0.199-1.234,0.511c0.047-0.068,0.098-0.134,0.154-0.197c0.375-0.424,0.886-0.655,1.41-0.686
				C277.616,327.489,278.151,327.657,278.575,328.032z"/>
		</g>
		<path style="fill:#CE7A63;" d="M299.675,333.761l-7.966-1.611l-4.98-2.611c-1.202-0.63-2.609-0.744-3.896-0.315l-2.561,0.852
			c-2.772,0.923-4.045,4.121-2.664,6.696l0.103,0.193c0.992,1.85,3.089,2.82,5.141,2.379l3.263-0.701l4.642-0.253l7.764,2.43
			L299.675,333.761z"/>
		<path style="fill:#263238;" d="M315.506,298.307c0.372-0.813,1.488-0.906,1.961-0.148c3.6,5.777,14.919,25.534,12.388,41.888
			c-2.695,17.417-35.765,0.492-35.765,0.492l2.642-9.067l20.758,3.276l-3.437-8.233
			C314.054,326.516,309.094,312.333,315.506,298.307z"/>
	</g>
</g>
<g id="Swiss_Knife">
	<g>
		<g>
			<g>
				<path style="fill:#263238;" d="M148.98,158.05l-6.639-4.742c-1.142-0.816-2.639-0.937-3.898-0.317l0,0
					c-1.023,0.505-1.767,1.441-2.025,2.553l-0.004,0.015c-0.349,1.501,0.241,3.066,1.496,3.962l1.282,0.915
					c0,0,1.264,2.304,0.245,2.977c-1.02,0.673-6.383,0.183-8.33-2.824c-1.947-3.008-0.775-6.158-0.775-6.158l-2.11-1.723
					c0,0,0.133-1.846,2.09-2.926c1.958-1.081,9.497-4.454,14.922-1.198c0,0,2.977,2.12,5.056,3.606
					c1.262,0.902,2.701,1.522,4.223,1.821l65.157,12.82l-15.875,2.646l-53.88-10.921L148.98,158.05z"/>
			</g>
			<g style="opacity:0.4;">
				<path style="fill:#FFFFFF;" d="M148.98,158.05l-6.639-4.742c-1.142-0.816-2.639-0.937-3.898-0.317l0,0
					c-1.023,0.505-1.767,1.441-2.025,2.553l-0.004,0.015c-0.349,1.501,0.241,3.066,1.496,3.962l1.282,0.915
					c0,0,1.264,2.304,0.245,2.977c-1.02,0.673-6.383,0.183-8.33-2.824c-1.947-3.008-0.775-6.158-0.775-6.158l-2.11-1.723
					c0,0,0.133-1.846,2.09-2.926c1.958-1.081,9.497-4.454,14.922-1.198c0,0,2.977,2.12,5.056,3.606
					c1.262,0.902,2.701,1.522,4.223,1.821l65.157,12.82l-15.875,2.646l-53.88-10.921L148.98,158.05z"/>
			</g>
		</g>
		<g>
			<path style="fill:#263238;" d="M137.175,191.674l-7.891,3.836c-0.957,0.465-1.667,1.238-2.068,2.141
				c-0.762,1.718,0.234,3.717,2.02,4.305l7.276,2.397l7.341,1.059L137.175,191.674z M128.818,197.49
				c0.83-0.404,1.824-0.055,2.228,0.775c0.401,0.825,0.061,1.822-0.77,2.225c-0.825,0.401-1.824,0.055-2.225-0.769
				C127.648,198.89,127.993,197.891,128.818,197.49z"/>
			<g>
				<path style="fill:#263238;" d="M156.067,210.971l-17.605,8.558l11.041,32.453c2.228,5.893,5.865,13.763,9.325,19.024
					l3.673,5.593l9.74-4.735l-1.292-5.036c-1.159-4.509-3.275-8.702-6.185-12.295c-2.232-2.747-4.189-5.705-5.737-8.889
					c-4.109-8.453,2.808-12.354,6.073-13.669c0.934-0.376,1.568-0.542,1.568-0.542l1.67,3.436c0.998-0.485,1.485-1.462,1.709-2.11
					c0.127-0.367,0.166-0.62,0.166-0.62l-2.85-5.863c0,0-0.107-0.221-0.809,0.393c-0.496,0.423-1.415,0.35-1.931,0.263
					c-0.232-0.036-0.45-0.138-0.632-0.284l-0.16-0.13c-0.161-0.13-0.287-0.296-0.374-0.474c-0.156-0.321-0.191-0.7-0.064-1.053
					c0.116-0.349,0.373-0.636,0.704-0.797l1.697-0.825l-1.364-2.805l-2.995,1.456L156.067,210.971z"/>
				<path style="opacity:0.4;fill:#FFFFFF;" d="M156.067,210.971l-17.605,8.558l11.041,32.453
					c2.228,5.893,5.865,13.763,9.325,19.024l3.673,5.593l9.74-4.735l-1.292-5.036c-1.159-4.509-3.275-8.702-6.185-12.295
					c-2.232-2.747-4.189-5.705-5.737-8.889c-4.109-8.453,2.808-12.354,6.073-13.669c0.934-0.376,1.568-0.542,1.568-0.542l1.67,3.436
					c0.998-0.485,1.485-1.462,1.709-2.11c0.127-0.367,0.166-0.62,0.166-0.62l-2.85-5.863c0,0-0.107-0.221-0.809,0.393
					c-0.496,0.423-1.415,0.35-1.931,0.263c-0.232-0.036-0.45-0.138-0.632-0.284l-0.16-0.13c-0.161-0.13-0.287-0.296-0.374-0.474
					c-0.156-0.321-0.191-0.7-0.064-1.053c0.116-0.349,0.373-0.636,0.704-0.797l1.697-0.825l-1.364-2.805l-2.995,1.456
					L156.067,210.971z"/>
				<path style="opacity:0.3;fill:#FFFFFF;" d="M156.694,246.778c1.548,3.183,3.505,6.142,5.737,8.889
					c2.909,3.593,5.026,7.786,6.185,12.295l1.292,5.036l2.212-1.075l-1.292-5.036c-1.154-4.512-3.27-8.705-6.185-12.296
					c-2.232-2.747-4.184-5.708-5.732-8.892c-3.307-6.803,0.527-10.661,3.856-12.591
					C159.502,234.423,152.585,238.325,156.694,246.778z"/>
			</g>
			<g>
				<g>
					<path style="fill:#263238;" d="M139.503,200.739l-46.184,22.45c-7.045,3.424-13.335,8.229-18.485,14.136l-4.512,5.174
						l-1.36,1.558l8.919-0.465c7.826-0.401,15.492-2.374,22.537-5.799l31.705-15.412l1.216-2.416
						c1.679,0.113,5.362,3.414,5.362,3.414l8.277-7.264L139.503,200.739z"/>
				</g>
				<g style="opacity:0.7;">
					<path style="fill:#FFFFFF;" d="M139.503,200.739l-46.184,22.45c-7.045,3.424-13.335,8.229-18.485,14.136l-4.512,5.174
						l-1.36,1.558l8.919-0.465c7.826-0.401,15.492-2.374,22.537-5.799l31.705-15.412l1.216-2.416
						c1.679,0.113,5.362,3.414,5.362,3.414l8.277-7.264L139.503,200.739z"/>
				</g>
				<g style="opacity:0.2;">
					<path d="M139.503,200.739l-46.184,22.45c-7.045,3.424-13.335,8.229-18.485,14.136l-4.512,5.174l6.854-0.357
						c7.826-0.401,15.492-2.374,22.537-5.798l31.705-15.412l1.216-2.416c1.678,0.113,5.362,3.414,5.362,3.414l8.277-7.264
						L139.503,200.739z"/>
				</g>
			</g>
			<g>
				<g>
					<path style="fill:#263238;" d="M196.592,137.368c-1.14,0.554-3.81,2.664-0.47,9.536l6.006,12.356l8.243-4.007l-6.007-12.356
						l-2.375,1.154l-2.702-2.031c-1.505-1.132-2.347-2.945-2.248-4.824C197.041,137.196,196.86,137.238,196.592,137.368z"/>
				</g>
				<path style="opacity:0.5;fill:#FFFFFF;" d="M196.59,137.368c-0.263,0.128-0.607,0.341-0.94,0.671
					c-1.11,1.111-2.099,3.579,0.47,8.864l6.007,12.356l8.243-4.007l-6.006-12.356l-2.375,1.154l-2.702-2.031
					c-0.627-0.475-1.14-1.063-1.514-1.725c-0.53-0.931-0.793-2.005-0.733-3.099C197.039,137.195,196.858,137.238,196.59,137.368z"/>
			</g>
			<g>
				<path style="fill:#263238;" d="M207.513,160.233l-38.649-26.47c-6.463-4.427-11.239-6-18.917-7.555l-8.756-1.768l3.157,2.172
					l58.56,40.308l0.014,0.01L207.513,160.233z M172.862,140.392c0.349,0.245,0.563,0.602,0.626,0.989
					c0.068,0.391-0.014,0.803-0.256,1.148c-0.486,0.693-1.442,0.865-2.135,0.379l-1.932-1.355c-0.693-0.486-0.862-1.446-0.375-2.14
					c0.486-0.693,1.447-0.862,2.14-0.376L172.862,140.392z"/>
				<path style="opacity:0.6;fill:#FFFFFF;" d="M207.513,160.233l-38.649-26.47c-6.463-4.427-11.239-6-18.917-7.555l-8.756-1.768
					l3.157,2.172l58.56,40.308l0.014,0.01L207.513,160.233z M172.862,140.392c0.349,0.245,0.563,0.602,0.626,0.989
					c0.068,0.391-0.014,0.803-0.256,1.148c-0.486,0.693-1.442,0.865-2.135,0.379l-1.932-1.355c-0.693-0.486-0.862-1.446-0.375-2.14
					c0.486-0.693,1.447-0.862,2.14-0.376L172.862,140.392z"/>
				<g style="opacity:0.2;">
					<path style="opacity:0.5;" d="M206.552,161.593l-38.649-26.47c-6.466-4.422-11.242-5.995-18.92-7.55l-4.656-0.94l58.56,40.309
						L206.552,161.593z M172.84,140.413c0.349,0.245,0.563,0.602,0.626,0.989c0.069,0.391-0.014,0.804-0.256,1.148
						c-0.486,0.693-1.442,0.865-2.135,0.379l-1.932-1.355c-0.693-0.486-0.862-1.447-0.375-2.14c0.486-0.693,1.447-0.862,2.14-0.375
						L172.84,140.413z"/>
				</g>
			</g>
			<g>
				<path style="fill:#263238;" d="M336.699,98.192l-57.588,30.254l-14.238,6.785l9.824,20.21l10.617-5.161l1.08-6.851l6.563,1.168
					l49.135-21.937c7.201-3.331,14.16-7.507,20.71-12.444c3.625-2.737,6.952-5.847,9.97-9.218l10.68-11.927l-11.887,0.29
					C359.387,89.657,347.353,92.759,336.699,98.192z"/>
				<path style="opacity:0.6;fill:#FFFFFF;" d="M336.699,98.192l-57.588,30.254l-14.238,6.785l9.824,20.21l10.617-5.161l1.08-6.851
					l6.563,1.168l49.135-21.937c7.201-3.331,14.16-7.507,20.71-12.444c3.625-2.737,6.952-5.847,9.97-9.218l10.68-11.927
					l-11.887,0.29C359.387,89.657,347.353,92.759,336.699,98.192z"/>
				<path style="opacity:0.2;" d="M337.698,100.248l-57.759,29.904l-14.228,6.806l7.94,16.333l10.617-5.161l1.557-5.869l6.234,0.492
					l48.988-22.239c7.188-3.358,14.207-7.41,20.889-12.075c3.699-2.585,7.138-5.464,10.3-8.539l11.188-10.882l-11.474,1.142
					C360.198,91.326,348.372,94.855,337.698,100.248z"/>
			</g>
			<g>
				<g>
					<path style="fill:#263238;" d="M256.238,156.578l28.823,25.893l5.994,3.334c0.904,0.503,1.968,0.633,2.966,0.363l4.172-1.129
						l0.837-2.722l-4.555-0.899c-1.536-0.303-2.833-1.323-3.49-2.743l0,0c-1.119-2.418-0.096-5.286,2.3-6.451l0,0
						c1.677-0.815,3.646-0.758,5.272,0.154l9.168,5.138c3.037,1.702,4.21,5.483,2.67,8.605l-1.12,2.269
						c-0.616,1.248,0.299,2.707,1.69,2.696l13.731-0.101l6.167-1.918l2.641-5.562l-60.712-36.432L256.238,156.578z"/>
				</g>
				<g style="opacity:0.6;">
					<path style="fill:#FFFFFF;" d="M256.238,156.578l28.823,25.893l5.994,3.334c0.904,0.503,1.968,0.633,2.966,0.363l4.172-1.129
						l0.837-2.722l-4.555-0.899c-1.536-0.303-2.833-1.323-3.49-2.743l0,0c-1.119-2.418-0.096-5.286,2.3-6.451l0,0
						c1.677-0.815,3.646-0.758,5.272,0.154l9.168,5.138c3.037,1.702,4.21,5.483,2.67,8.605l-1.12,2.269
						c-0.616,1.248,0.299,2.707,1.69,2.696l13.731-0.101l6.167-1.918l2.641-5.562l-60.712-36.432L256.238,156.578z"/>
				</g>
			</g>
			<g>
				<path style="fill:#407BFF;" d="M277.621,142.936L277.621,142.936c4.424,9.101,0.633,20.065-8.468,24.488L157.55,221.675
					c-9.101,4.424-20.065,0.633-24.489-8.468l0,0c-4.424-9.101-0.632-20.065,8.468-24.488l111.603-54.251
					C262.233,130.044,273.197,133.835,277.621,142.936z"/>
				<path style="opacity:0.2;" d="M132.208,211.144c0.24,0.695,0.523,1.383,0.852,2.06c4.426,9.104,15.387,12.895,24.491,8.469
					l111.6-54.249c9.099-4.423,12.895-15.387,8.469-24.491c-0.329-0.678-0.696-1.325-1.094-1.943
					c2.978,8.639-0.903,18.332-9.324,22.426l-111.6,54.249C147.176,221.761,137.162,218.823,132.208,211.144z"/>
				<path style="opacity:0.3;fill:#FFFFFF;" d="M253.131,134.468l-111.6,54.25c-9.104,4.426-12.895,15.387-8.472,24.486
					c0.329,0.678,0.698,1.33,1.096,1.948c-2.976-8.633,0.897-18.33,9.324-22.426l111.6-54.249c4.55-2.212,9.565-2.37,13.997-0.841
					c3.771,1.304,7.123,3.831,9.398,7.363c-0.241-0.695-0.525-1.388-0.855-2.066c-2.211-4.549-6.058-7.772-10.49-9.3
					C262.695,132.098,257.68,132.256,253.131,134.468z"/>
			</g>
			<g>
				<path style="fill:none;stroke:#263238;stroke-width:1.1683;stroke-miterlimit:10;" d="M127.303,200.864
					c-1.667,1.768-4.353,2.329-6.649,1.201c-2.821-1.386-3.985-4.796-2.599-7.617c1.386-2.821,4.796-3.985,7.617-2.599
					c2.821,1.386,3.985,4.796,2.599,7.617"/>
				<g style="opacity:0.6;">
					<path style="fill:#FFFFFF;" d="M117.531,194.191c-1.525,3.105-0.24,6.873,2.866,8.399c2.486,1.221,5.433,0.689,7.332-1.325
						l-0.85-0.801c-1.545,1.639-3.943,2.072-5.967,1.077c-2.528-1.242-3.574-4.308-2.332-6.835c1.241-2.527,4.308-3.574,6.835-2.332
						c2.527,1.241,3.573,4.308,2.332,6.835l1.048,0.515c1.526-3.106,0.24-6.873-2.865-8.399
						C122.824,189.8,119.056,191.085,117.531,194.191z"/>
				</g>
			</g>
			<g>
				<g>
					<path style="fill:#263238;" d="M176.808,92.57l0.161,3.124l5.003-0.263c0.183-0.011,0.314,0.004,0.405,0.018
						c-0.043,0.086-0.112,0.197-0.233,0.334l-6.047,6.934c-1.061,1.211-1.351,2.632-0.784,3.798
						c0.567,1.166,1.863,1.816,3.471,1.729l9.188-0.472c0.178-0.008,0.313,0.004,0.405,0.018c-0.043,0.086-0.117,0.2-0.234,0.334
						l-6.05,6.929c-1.056,1.208-1.351,2.631-0.785,3.798c0.567,1.166,1.869,1.813,3.471,1.729l9.188-0.472
						c0.178-0.008,0.313,0.004,0.399,0.02c-0.038,0.083-0.115,0.192-0.228,0.332l-6.05,6.929c-1.056,1.208-1.351,2.631-0.784,3.798
						c0.567,1.166,1.868,1.813,3.471,1.729l9.188-0.472c0.178-0.008,0.314,0.003,0.399,0.02c-0.04,0.078-0.114,0.192-0.231,0.327
						l-3.295,3.777l-1.187,1.473c0.333-0.331,0.678-0.544,0.94-0.671c0.268-0.13,0.449-0.173,0.449-0.173
						c-0.059,1.094,0.203,2.168,0.733,3.099l1.435-1.685l3.281-3.764c1.061-1.211,1.351-2.632,0.785-3.798s-1.863-1.816-3.471-1.729
						l-9.188,0.472c-0.178,0.008-0.313-0.004-0.399-0.02c0.04-0.078,0.115-0.192,0.231-0.327l6.047-6.934
						c1.056-1.208,1.351-2.631,0.784-3.798c-0.567-1.166-1.861-1.81-3.471-1.729l-9.186,0.477c-0.18,0.003-0.313-0.003-0.402-0.025
						c0.04-0.078,0.115-0.192,0.231-0.327l6.049-6.929c1.059-1.216,1.349-2.637,0.782-3.803c-0.567-1.166-1.861-1.81-3.471-1.729
						l-9.188,0.472c-0.183,0.011-0.313-0.003-0.405-0.018c0.045-0.08,0.115-0.192,0.236-0.329l6.047-6.934
						c1.059-1.216,1.349-2.637,0.782-3.803c-0.284-0.583-0.749-1.033-1.341-1.329c-0.6-0.299-1.325-0.441-2.13-0.4L176.808,92.57z"
						/>
				</g>
			</g>
			<path style="opacity:0.6;fill:#FFFFFF;" d="M176.808,92.57l0.161,3.124l5.003-0.263c0.183-0.011,0.314,0.004,0.405,0.018
				c-0.043,0.086-0.112,0.197-0.233,0.334l-6.047,6.934c-1.061,1.211-1.351,2.632-0.784,3.798c0.567,1.166,1.863,1.816,3.471,1.729
				l9.188-0.472c0.178-0.008,0.313,0.004,0.405,0.018c-0.043,0.086-0.117,0.2-0.234,0.334l-6.05,6.929
				c-1.056,1.208-1.351,2.631-0.785,3.798c0.567,1.166,1.869,1.813,3.471,1.729l9.188-0.472c0.178-0.008,0.313,0.004,0.399,0.02
				c-0.038,0.083-0.115,0.192-0.228,0.332l-6.05,6.929c-1.056,1.208-1.351,2.631-0.784,3.798c0.567,1.166,1.868,1.813,3.471,1.729
				l9.188-0.472c0.178-0.008,0.314,0.003,0.399,0.02c-0.04,0.078-0.114,0.192-0.231,0.327l-3.295,3.777l-1.187,1.473
				c0.333-0.331,0.678-0.544,0.94-0.671c0.268-0.13,0.449-0.173,0.449-0.173c-0.059,1.094,0.203,2.168,0.733,3.099l1.435-1.685
				l3.281-3.764c1.061-1.211,1.351-2.632,0.785-3.798s-1.863-1.816-3.471-1.729l-9.188,0.472c-0.178,0.008-0.313-0.004-0.399-0.02
				c0.04-0.078,0.115-0.192,0.231-0.327l6.047-6.934c1.056-1.208,1.351-2.631,0.784-3.798c-0.567-1.166-1.861-1.81-3.471-1.729
				l-9.186,0.477c-0.18,0.003-0.313-0.003-0.402-0.025c0.04-0.078,0.115-0.192,0.231-0.327l6.049-6.929
				c1.059-1.216,1.349-2.637,0.782-3.803c-0.567-1.166-1.861-1.81-3.471-1.729l-9.188,0.472c-0.183,0.011-0.313-0.003-0.405-0.018
				c0.045-0.08,0.115-0.192,0.236-0.329l6.047-6.934c1.059-1.216,1.349-2.637,0.782-3.803c-0.284-0.583-0.749-1.033-1.341-1.329
				c-0.6-0.299-1.325-0.441-2.13-0.4L176.808,92.57z"/>
		</g>
	</g>
</g>
<g id="Glow">
	<g>
		<g>
			<g>
				<path style="fill:#407BFF;" d="M360.626,153.598c-0.116-0.098,0.412-2.769,1.097-5.988c1.427-6.701-0.665-12.991-5.129-15.633
					c-3.222-1.907-3.222-1.907-3.222-1.907s5.442,1.882,8.26,1.078c5.974-1.703,10.517-11.265,10.517-11.265
					s-2.091,10.409,1.555,15.439c1.72,2.373,7.162,4.255,7.162,4.255s0,0-3.712-0.491c-5.143-0.68-10.674,2.974-13.691,9.125
					C362.013,151.166,360.777,153.593,360.626,153.598z"/>
			</g>
			<g style="opacity:0.7;">
				<path style="fill:#FFFFFF;" d="M360.626,153.598c-0.116-0.098,0.412-2.769,1.097-5.988c1.427-6.701-0.665-12.991-5.129-15.633
					c-3.222-1.907-3.222-1.907-3.222-1.907s5.442,1.882,8.26,1.078c5.974-1.703,10.517-11.265,10.517-11.265
					s-2.091,10.409,1.555,15.439c1.72,2.373,7.162,4.255,7.162,4.255s0,0-3.712-0.491c-5.143-0.68-10.674,2.974-13.691,9.125
					C362.013,151.166,360.777,153.593,360.626,153.598z"/>
			</g>
		</g>
		<g>
			<g>
				<path style="fill:#407BFF;" d="M188.207,251.47c-0.116-0.098,0.412-2.769,1.098-5.988c1.427-6.701-0.665-12.991-5.13-15.633
					c-3.222-1.907-3.222-1.907-3.222-1.907s5.442,1.882,8.26,1.078c5.974-1.703,10.517-11.265,10.517-11.265
					s-2.091,10.409,1.555,15.439c1.72,2.373,7.162,4.255,7.162,4.255s0,0-3.712-0.491c-5.143-0.68-10.674,2.974-13.691,9.125
					C189.594,249.038,188.358,251.464,188.207,251.47z"/>
			</g>
			<g style="opacity:0.7;">
				<path style="fill:#FFFFFF;" d="M188.207,251.47c-0.116-0.098,0.412-2.769,1.098-5.988c1.427-6.701-0.665-12.991-5.13-15.633
					c-3.222-1.907-3.222-1.907-3.222-1.907s5.442,1.882,8.26,1.078c5.974-1.703,10.517-11.265,10.517-11.265
					s-2.091,10.409,1.555,15.439c1.72,2.373,7.162,4.255,7.162,4.255s0,0-3.712-0.491c-5.143-0.68-10.674,2.974-13.691,9.125
					C189.594,249.038,188.358,251.464,188.207,251.47z"/>
			</g>
		</g>
		<g>
			<g>
				<path style="fill:#407BFF;" d="M103.022,190.94c-0.116-0.097,0.412-2.769,1.097-5.988c1.427-6.701-0.665-12.991-5.13-15.633
					c-3.222-1.907-3.222-1.907-3.222-1.907s5.442,1.882,8.26,1.078c5.974-1.703,10.517-11.265,10.517-11.265
					s-2.091,10.409,1.555,15.439c1.72,2.373,7.162,4.255,7.162,4.255s0,0-3.712-0.491c-5.143-0.68-10.674,2.974-13.691,9.125
					C104.409,188.508,103.173,190.935,103.022,190.94z"/>
			</g>
			<g style="opacity:0.7;">
				<path style="fill:#FFFFFF;" d="M103.022,190.94c-0.116-0.097,0.412-2.769,1.097-5.988c1.427-6.701-0.665-12.991-5.13-15.633
					c-3.222-1.907-3.222-1.907-3.222-1.907s5.442,1.882,8.26,1.078c5.974-1.703,10.517-11.265,10.517-11.265
					s-2.091,10.409,1.555,15.439c1.72,2.373,7.162,4.255,7.162,4.255s0,0-3.712-0.491c-5.143-0.68-10.674,2.974-13.691,9.125
					C104.409,188.508,103.173,190.935,103.022,190.94z"/>
			</g>
		</g>
		<g>
			<g>
				<path style="fill:#407BFF;" d="M260.629,209.237c-0.058-0.049,0.206-1.384,0.549-2.994c0.714-3.351-0.333-6.496-2.565-7.817
					c-1.611-0.953-1.611-0.953-1.611-0.953s2.721,0.941,4.13,0.539c2.987-0.852,5.258-5.632,5.258-5.632s-1.046,5.205,0.777,7.719
					c0.86,1.187,3.581,2.127,3.581,2.127s0,0-1.856-0.245c-2.572-0.34-5.337,1.487-6.845,4.563
					C261.322,208.021,260.704,209.234,260.629,209.237z"/>
			</g>
			<g style="opacity:0.7;">
				<path style="fill:#FFFFFF;" d="M260.629,209.237c-0.058-0.049,0.206-1.384,0.549-2.994c0.714-3.351-0.333-6.496-2.565-7.817
					c-1.611-0.953-1.611-0.953-1.611-0.953s2.721,0.941,4.13,0.539c2.987-0.852,5.258-5.632,5.258-5.632s-1.046,5.205,0.777,7.719
					c0.86,1.187,3.581,2.127,3.581,2.127s0,0-1.856-0.245c-2.572-0.34-5.337,1.487-6.845,4.563
					C261.322,208.021,260.704,209.234,260.629,209.237z"/>
			</g>
		</g>
		<g>
			<g>
				<path style="fill:#407BFF;" d="M267.092,115.4c-0.058-0.049,0.206-1.384,0.549-2.994c0.714-3.351-0.333-6.496-2.565-7.817
					c-1.611-0.953-1.611-0.953-1.611-0.953s2.721,0.941,4.13,0.539c2.987-0.852,5.258-5.632,5.258-5.632s-1.046,5.204,0.777,7.719
					c0.86,1.187,3.581,2.127,3.581,2.127s0,0-1.856-0.245c-2.572-0.34-5.337,1.487-6.845,4.563
					C267.786,114.184,267.168,115.397,267.092,115.4z"/>
			</g>
			<g style="opacity:0.7;">
				<path style="fill:#FFFFFF;" d="M267.092,115.4c-0.058-0.049,0.206-1.384,0.549-2.994c0.714-3.351-0.333-6.496-2.565-7.817
					c-1.611-0.953-1.611-0.953-1.611-0.953s2.721,0.941,4.13,0.539c2.987-0.852,5.258-5.632,5.258-5.632s-1.046,5.204,0.777,7.719
					c0.86,1.187,3.581,2.127,3.581,2.127s0,0-1.856-0.245c-2.572-0.34-5.337,1.487-6.845,4.563
					C267.786,114.184,267.168,115.397,267.092,115.4z"/>
			</g>
		</g>
		<g>
			<g>
				<path style="fill:#407BFF;" d="M319.142,222.475c-0.058-0.049,0.206-1.384,0.549-2.994c0.714-3.35-0.332-6.496-2.565-7.817
					c-1.611-0.953-1.611-0.953-1.611-0.953s2.721,0.941,4.13,0.539c2.987-0.852,5.258-5.632,5.258-5.632s-1.045,5.205,0.777,7.719
					c0.86,1.186,3.581,2.127,3.581,2.127s0,0-1.856-0.245c-2.572-0.34-5.337,1.487-6.846,4.563
					C319.836,221.259,319.218,222.472,319.142,222.475z"/>
			</g>
			<g style="opacity:0.7;">
				<path style="fill:#FFFFFF;" d="M319.142,222.475c-0.058-0.049,0.206-1.384,0.549-2.994c0.714-3.35-0.332-6.496-2.565-7.817
					c-1.611-0.953-1.611-0.953-1.611-0.953s2.721,0.941,4.13,0.539c2.987-0.852,5.258-5.632,5.258-5.632s-1.045,5.205,0.777,7.719
					c0.86,1.186,3.581,2.127,3.581,2.127s0,0-1.856-0.245c-2.572-0.34-5.337,1.487-6.846,4.563
					C319.836,221.259,319.218,222.472,319.142,222.475z"/>
			</g>
		</g>
		<g>
			<g>
				<path style="fill:#407BFF;" d="M153.856,117.784c-0.058-0.049,0.206-1.384,0.549-2.994c0.714-3.351-0.332-6.496-2.565-7.817
					c-1.611-0.953-1.611-0.953-1.611-0.953s2.721,0.941,4.13,0.539c2.987-0.852,5.258-5.632,5.258-5.632s-1.045,5.205,0.777,7.719
					c0.86,1.186,3.581,2.127,3.581,2.127s0,0-1.856-0.245c-2.572-0.34-5.337,1.487-6.846,4.563
					C154.549,116.568,153.931,117.781,153.856,117.784z"/>
			</g>
			<g style="opacity:0.7;">
				<path style="fill:#FFFFFF;" d="M153.856,117.784c-0.058-0.049,0.206-1.384,0.549-2.994c0.714-3.351-0.332-6.496-2.565-7.817
					c-1.611-0.953-1.611-0.953-1.611-0.953s2.721,0.941,4.13,0.539c2.987-0.852,5.258-5.632,5.258-5.632s-1.045,5.205,0.777,7.719
					c0.86,1.186,3.581,2.127,3.581,2.127s0,0-1.856-0.245c-2.572-0.34-5.337,1.487-6.846,4.563
					C154.549,116.568,153.931,117.781,153.856,117.784z"/>
			</g>
		</g>
		<g>
			<g>
				<path style="fill:#407BFF;" d="M112.169,258.311c-0.058-0.049,0.206-1.385,0.549-2.994c0.714-3.35-0.332-6.496-2.565-7.816
					c-1.611-0.954-1.611-0.954-1.611-0.954s2.721,0.941,4.13,0.539c2.987-0.852,5.258-5.632,5.258-5.632s-1.045,5.205,0.777,7.719
					c0.86,1.186,3.581,2.127,3.581,2.127s0,0-1.856-0.245c-2.571-0.34-5.337,1.487-6.845,4.563
					C112.863,257.095,112.245,258.309,112.169,258.311z"/>
			</g>
			<g style="opacity:0.7;">
				<path style="fill:#FFFFFF;" d="M112.169,258.311c-0.058-0.049,0.206-1.385,0.549-2.994c0.714-3.35-0.332-6.496-2.565-7.816
					c-1.611-0.954-1.611-0.954-1.611-0.954s2.721,0.941,4.13,0.539c2.987-0.852,5.258-5.632,5.258-5.632s-1.045,5.205,0.777,7.719
					c0.86,1.186,3.581,2.127,3.581,2.127s0,0-1.856-0.245c-2.571-0.34-5.337,1.487-6.845,4.563
					C112.863,257.095,112.245,258.309,112.169,258.311z"/>
			</g>
		</g>
	</g>
</g>
</svg>
