<?xml version="1.0" encoding="utf-8"?>
<!-- Generator: Adobe Illustrator 27.5.0, SVG Export Plug-In . SVG Version: 6.00 Build 0)  -->
<svg version="1.1" xmlns="http://www.w3.org/2000/svg" xmlns:xlink="http://www.w3.org/1999/xlink" x="0px" y="0px"
	 viewBox="0 0 500 500" style="enable-background:new 0 0 500 500;" xml:space="preserve">
<g id="Background_Complete">
	<g>
		<rect y="382.398" style="fill:#EBEBEB;" width="500" height="0.25"/>
		<rect x="52.459" y="391.922" style="fill:#EBEBEB;" width="33.122" height="0.25"/>
		<rect x="136.333" y="389.208" style="fill:#EBEBEB;" width="43.5" height="0.25"/>
		<rect x="81.582" y="397.083" style="fill:#EBEBEB;" width="38.751" height="0.25"/>
		<rect x="406.708" y="399.528" style="fill:#EBEBEB;" width="43.193" height="0.25"/>
		<rect x="379" y="399.528" style="fill:#EBEBEB;" width="18.805" height="0.25"/>
		<rect x="238.444" y="395.306" style="fill:#EBEBEB;" width="36.556" height="0.25"/>
		<path style="fill:#EBEBEB;" d="M237.014,337.8H43.915c-3.147,0-5.708-2.561-5.708-5.708V60.66c0-3.147,2.561-5.708,5.708-5.708
			h193.099c3.146,0,5.707,2.561,5.707,5.708v271.432C242.721,335.239,240.16,337.8,237.014,337.8z M43.915,55.203
			c-3.01,0-5.458,2.448-5.458,5.458v271.432c0,3.01,2.448,5.458,5.458,5.458h193.099c3.009,0,5.457-2.448,5.457-5.458V60.66
			c0-3.009-2.448-5.458-5.457-5.458H43.915z"/>
		<path style="fill:#EBEBEB;" d="M453.31,337.8H260.212c-3.147,0-5.707-2.561-5.707-5.708V60.66c0-3.147,2.561-5.708,5.707-5.708
			H453.31c3.148,0,5.708,2.561,5.708,5.708v271.432C459.019,335.239,456.458,337.8,453.31,337.8z M260.212,55.203
			c-3.009,0-5.457,2.448-5.457,5.458v271.432c0,3.01,2.448,5.458,5.457,5.458H453.31c3.01,0,5.458-2.448,5.458-5.458V60.66
			c0-3.009-2.448-5.458-5.458-5.458H260.212z"/>
	</g>
	<g>
		<g>
			
				<rect x="78.455" y="82.987" transform="matrix(-1 -1.224647e-16 1.224647e-16 -1 372.7245 293.7103)" style="fill:#E6E6E6;" width="215.814" height="127.736"/>
			
				<rect x="73.557" y="82.987" transform="matrix(-1 -1.224647e-16 1.224647e-16 -1 365.5377 293.7103)" style="fill:#F0F0F0;" width="218.423" height="127.736"/>
			
				<rect x="78.455" y="210.723" transform="matrix(-1 -1.224647e-16 1.224647e-16 -1 372.7245 430.5479)" style="fill:#E6E6E6;" width="215.814" height="9.102"/>
			
				<rect x="65.397" y="210.723" transform="matrix(-1 -1.224647e-16 1.224647e-16 -1 349.2179 430.5479)" style="fill:#F0F0F0;" width="218.423" height="9.102"/>
			
				<rect x="125.758" y="44.501" transform="matrix(-1.836970e-16 1 -1 -1.836970e-16 329.6241 -35.9137)" style="fill:#FAFAFA;" width="114.021" height="204.709"/>
			<polygon style="fill:#FFFFFF;" points="149.302,203.866 138.32,89.844 119.322,89.844 130.303,203.866 			"/>
			<polygon style="fill:#FFFFFF;" points="249.81,203.866 238.829,89.844 219.829,89.844 230.811,203.866 			"/>
			<path style="fill:#F0F0F0;" d="M281.948,165.216c0.29,0,0.525-0.235,0.525-0.525V94.306c0-0.29-0.234-0.524-0.525-0.524
				s-0.524,0.235-0.524,0.524v70.385C281.424,164.981,281.658,165.216,281.948,165.216z"/>
			<polygon style="fill:#FFFFFF;" points="126.221,203.866 115.24,89.844 107.833,89.844 118.814,203.866 			"/>
			
				<rect x="23.839" y="146.42" transform="matrix(-1.836970e-16 1 -1 -1.836970e-16 227.7052 66.0052)" style="fill:#E6E6E6;" width="114.021" height="0.871"/>
			<polygon style="opacity:0.5;fill:#E0E0E0;" points="71.936,102.277 287.749,102.277 288.38,92.51 72.567,92.51 			"/>
			<polygon style="opacity:0.5;fill:#E0E0E0;" points="71.936,118.333 287.749,118.333 288.38,108.566 72.567,108.566 			"/>
			<polygon style="opacity:0.5;fill:#E0E0E0;" points="71.936,134.389 287.749,134.389 288.38,124.622 72.567,124.622 			"/>
			<polygon style="opacity:0.5;fill:#E0E0E0;" points="71.936,150.445 287.749,150.445 288.38,140.678 72.567,140.678 			"/>
			<polygon style="opacity:0.5;fill:#E0E0E0;" points="71.936,166.501 287.749,166.501 288.38,156.734 72.567,156.734 			"/>
			<polygon style="opacity:0.5;fill:#E0E0E0;" points="71.936,182.557 287.749,182.557 288.38,172.79 72.567,172.79 			"/>
		</g>
		<g>
			<g>
				
					<rect x="251.065" y="273.741" transform="matrix(-1.836970e-16 1 -1 -1.836970e-16 633.4634 -42.4235)" style="fill:#F0F0F0;" width="173.757" height="43.558"/>
				
					<rect x="318.782" y="213.488" transform="matrix(-1.836970e-16 1 -1 -1.836970e-16 570.8196 -105.0672)" style="fill:#F5F5F5;" width="38.323" height="38.777"/>
				<path style="fill:#E6E6E6;" d="M346.526,213.208L346.526,213.208h-17.165l0,0c0,2.195,1.779,3.974,3.974,3.974h9.218
					C344.747,217.181,346.526,215.402,346.526,213.208z"/>
				
					<rect x="318.782" y="255.25" transform="matrix(-1.836970e-16 1 -1 -1.836970e-16 612.5821 -63.3048)" style="fill:#F5F5F5;" width="38.323" height="38.777"/>
				
					<rect x="318.782" y="297.013" transform="matrix(-1.836970e-16 1 -1 -1.836970e-16 654.3446 -21.5423)" style="fill:#F5F5F5;" width="38.323" height="38.777"/>
				
					<rect x="318.782" y="338.775" transform="matrix(-1.836970e-16 1 -1 -1.836970e-16 696.107 20.2201)" style="fill:#F5F5F5;" width="38.323" height="38.777"/>
				<path style="fill:#E6E6E6;" d="M346.526,254.97L346.526,254.97h-17.165l0,0c0,2.195,1.779,3.974,3.974,3.974h9.218
					C344.747,258.944,346.526,257.165,346.526,254.97z"/>
				<path style="fill:#E6E6E6;" d="M346.526,296.732L346.526,296.732h-17.165l0,0c0,2.195,1.779,3.974,3.974,3.974h9.218
					C344.747,300.706,346.526,298.927,346.526,296.732z"/>
				<path style="fill:#E6E6E6;" d="M346.526,338.495L346.526,338.495h-17.165l0,0c0,2.194,1.779,3.973,3.974,3.973h9.218
					C344.747,342.468,346.526,340.689,346.526,338.495z"/>
				
					<rect x="283.722" y="284.642" transform="matrix(-1.836970e-16 1 -1 -1.836970e-16 666.1206 -75.0808)" style="fill:#F5F5F5;" width="173.757" height="21.756"/>
			</g>
			<g>
				
					<rect x="298.556" y="273.741" transform="matrix(-1.836970e-16 1 -1 -1.836970e-16 680.9544 -89.9146)" style="fill:#F0F0F0;" width="173.757" height="43.558"/>
				
					<rect x="366.273" y="213.488" transform="matrix(-1.836970e-16 1 -1 -1.836970e-16 618.3107 -152.5583)" style="fill:#F5F5F5;" width="38.323" height="38.777"/>
				<path style="fill:#E6E6E6;" d="M394.017,213.208L394.017,213.208h-17.165l0,0c0,2.195,1.779,3.974,3.974,3.974h9.218
					C392.238,217.181,394.017,215.402,394.017,213.208z"/>
				
					<rect x="366.273" y="255.25" transform="matrix(-1.836970e-16 1 -1 -1.836970e-16 660.0732 -110.7958)" style="fill:#F5F5F5;" width="38.323" height="38.777"/>
				
					<rect x="366.273" y="297.013" transform="matrix(-1.836970e-16 1 -1 -1.836970e-16 701.8357 -69.0333)" style="fill:#F5F5F5;" width="38.323" height="38.777"/>
				
					<rect x="366.273" y="338.775" transform="matrix(-1.836970e-16 1 -1 -1.836970e-16 743.5981 -27.2709)" style="fill:#F5F5F5;" width="38.323" height="38.777"/>
				<path style="fill:#E6E6E6;" d="M394.017,254.97L394.017,254.97h-17.165l0,0c0,2.195,1.779,3.974,3.974,3.974h9.218
					C392.238,258.944,394.017,257.165,394.017,254.97z"/>
				<path style="fill:#E6E6E6;" d="M394.017,296.732L394.017,296.732h-17.165l0,0c0,2.195,1.779,3.974,3.974,3.974h9.218
					C392.238,300.706,394.017,298.927,394.017,296.732z"/>
				<path style="fill:#E6E6E6;" d="M394.017,338.495L394.017,338.495h-17.165l0,0c0,2.194,1.779,3.973,3.974,3.973h9.218
					C392.238,342.468,394.017,340.689,394.017,338.495z"/>
				
					<rect x="331.213" y="284.642" transform="matrix(-1.836970e-16 1 -1 -1.836970e-16 713.6116 -122.5718)" style="fill:#F5F5F5;" width="173.757" height="21.756"/>
			</g>
		</g>
		<g>
			<g>
				<rect x="388.233" y="164.462" style="fill:#E0E0E0;" width="16.199" height="44.18"/>
				<polygon style="fill:#E6E6E6;" points="337.368,208.641 399.15,208.641 408.349,137.139 346.567,137.139 				"/>
				<polygon style="fill:#F0F0F0;" points="330.315,208.641 397.576,208.641 406.775,137.139 339.514,137.139 				"/>
				<polygon style="fill:#FFFFFF;" points="392.666,203.007 400.415,142.774 344.424,142.774 336.675,203.007 				"/>
				<polygon style="fill:#F5F5F5;" points="376.955,203.005 367.32,142.773 360.135,142.773 369.77,203.005 				"/>
				<polygon style="fill:#F5F5F5;" points="366.955,203.005 357.32,142.773 350.135,142.773 359.77,203.005 				"/>
			</g>
		</g>
		<g>
			
				<rect x="251.825" y="251.999" transform="matrix(-1 -1.224647e-16 1.224647e-16 -1 522.5625 626.6273)" style="fill:#F0F0F0;" width="18.913" height="122.629"/>
			
				<rect x="68.736" y="374.628" transform="matrix(-1 -1.224647e-16 1.224647e-16 -1 335.8427 757.0266)" style="fill:#F0F0F0;" width="198.37" height="7.77"/>
			<rect x="65.105" y="251.999" style="fill:#F5F5F5;" width="186.72" height="122.629"/>
			<path style="fill:#EBEBEB;" d="M240.82,307.311H76.11c-1.971,0-3.569-1.598-3.569-3.569v-33.079c0-1.971,1.598-3.569,3.569-3.569
				h164.71c1.971,0,3.569,1.598,3.569,3.569v33.079C244.389,305.713,242.791,307.311,240.82,307.311z"/>
			<path style="fill:#EBEBEB;" d="M240.82,359.534H76.11c-1.971,0-3.569-1.598-3.569-3.569v-33.079c0-1.971,1.598-3.569,3.569-3.569
				h164.71c1.971,0,3.569,1.598,3.569,3.569v33.079C244.389,357.936,242.791,359.534,240.82,359.534z"/>
			<path style="fill:#F5F5F5;" d="M92.229,294.285v-14.165c0-1.24-1.015-2.255-2.255-2.255h-1.005c-1.24,0-2.255,1.015-2.255,2.255
				v14.165c0,1.24,1.015,2.255,2.255,2.255h1.005C91.214,296.54,92.229,295.525,92.229,294.285z"/>
			<path style="fill:#F5F5F5;" d="M92.229,346.507v-14.165c0-1.24-1.015-2.255-2.255-2.255h-1.005c-1.24,0-2.255,1.015-2.255,2.255
				v14.165c0,1.24,1.015,2.255,2.255,2.255h1.005C91.214,348.763,92.229,347.748,92.229,346.507z"/>
			<path style="fill:#F5F5F5;" d="M230.216,294.285v-14.165c0-1.24-1.015-2.255-2.255-2.255h-1.005c-1.24,0-2.255,1.015-2.255,2.255
				v14.165c0,1.24,1.015,2.255,2.255,2.255h1.005C229.201,296.54,230.216,295.525,230.216,294.285z"/>
			<path style="fill:#F5F5F5;" d="M230.216,346.507v-14.165c0-1.24-1.015-2.255-2.255-2.255h-1.005c-1.24,0-2.255,1.015-2.255,2.255
				v14.165c0,1.24,1.015,2.255,2.255,2.255h1.005C229.201,348.763,230.216,347.748,230.216,346.507z"/>
		</g>
	</g>
</g>
<g id="Background_Simple" style="display:none;">
	<g style="display:inline;">
		<path style="fill:#407BFF;" d="M219.469,131.88c-83.872-29.886-189.625,2.102-148.428,98.044
			c16.472,38.36,58.118,57.78,103.692,57.632c42.75-0.139,65.49-27.312,104.049-36.231c40.358-9.335,81.904,17.69,118.584-0.85
			c35.103-17.743,40.021-66.132,33.493-97.843c-8.188-39.77-39.767-71.496-86.741-51.563
			C298.553,120.405,278.889,153.053,219.469,131.88z"/>
		<path style="opacity:0.9;fill:#FFFFFF;" d="M219.469,131.88c-83.872-29.886-189.625,2.102-148.428,98.044
			c16.472,38.36,58.118,57.78,103.692,57.632c42.75-0.139,65.49-27.312,104.049-36.231c40.358-9.335,81.904,17.69,118.584-0.85
			c35.103-17.743,40.021-66.132,33.493-97.843c-8.188-39.77-39.767-71.496-86.741-51.563
			C298.553,120.405,278.889,153.053,219.469,131.88z"/>
	</g>
</g>
<g id="Shadow_1_">
	<ellipse id="_x3C_Path_x3E__187_" style="fill:#F5F5F5;" cx="250" cy="416.238" rx="193.889" ry="11.323"/>
</g>
<g id="People">
	<g>
		<g>
			<path style="fill:#407BFF;" d="M437.807,247.751l-5.896,1.893c-1.768-0.722-3.545-1.479-5.262-2.31
				c-2.357-1.098-4.66-2.289-6.853-3.6c-2.189-1.313-4.297-2.704-6.174-4.26c-0.933-0.776-1.814-1.582-2.607-2.423
				c-0.779-0.847-1.453-1.733-2.018-2.614l-0.392-0.666l-0.32-0.67c-0.223-0.498-0.456-1.134-0.685-1.693
				c-0.241-0.57-0.446-1.161-0.643-1.756c-0.195-0.597-0.422-1.175-0.592-1.784c-0.756-2.397-1.309-4.879-1.857-7.363
				c-0.389-1.827-0.684-3.681-0.946-5.541l2.604-0.89c-0.325-6.475-1.145-14.719-8.322-17.581c-0.325-0.13-0.66-0.221-1-0.293
				c-1.792-0.515-5.745-1.61-9.753-2.436c-0.819-0.171-1.646-0.329-2.458-0.469c-0.001,0-0.001,0-0.002-0.001l-0.001-0.003
				c-3.79-1.237-4.639-3.472-4.045-6.87c0.001-0.004,0.001-0.008,0.002-0.012c0-0.001,0-0.002,0.001-0.003
				c3.618,1.223,9.407,0.742,14.382-0.877c-2.182-1.025-4.268-6.041-3.148-15.507c1.209-10.217-4.289-15.563-11.138-14.9
				c-0.19-0.041-0.383-0.082-0.59-0.12c-12.441-2.3-18.938,3.749-17.383,15.514c1.249,9.45-0.768,14.494-2.936,15.549
				c4.39,1.362,9.397,1.838,12.991,1.071c-0.447,2.118-1.22,3.946-2.504,4.987c-0.711-0.026-1.418-0.033-2.125-0.039
				c-4.508-0.004-8.667,0.399-10.488,0.604c-0.236,0.015-0.482,0.048-0.731,0.086c-0.155,0.019-0.239,0.03-0.239,0.03c0,0,0,0,0,0
				c0,0-0.001,0-0.001,0c-3.874,0.706-9.248,11.858-9.248,11.858l2.141,1.915c-0.257,0.374-0.528,0.74-0.78,1.117
				c-1.523,2.331-2.948,4.727-4.255,7.203c-1.317,2.471-2.486,5.032-3.495,7.681c-0.269,0.652-0.48,1.338-0.721,2.005
				c-0.24,0.668-0.469,1.341-0.661,2.035c-0.202,0.704-0.407,1.333-0.603,2.099l-0.275,1.233l-0.173,1.22
				c-0.35,3.247,0.093,6.264,0.745,9.102c0.709,2.827,1.649,5.507,2.787,8.065c1.133,2.559,2.409,5.015,3.775,7.404
				c1.166,1.942,2.348,3.825,3.668,5.678c0.665,2.685,2.77,5.005,2.77,5.005l1.042,0.98c0.195,12.771,0.243,30.465-6.288,56.86
				c-3.423,13.836-16.629,42.291-20.586,50.668l-1.357-0.672l-1.558,5.193l2.513,1.153l-1.258,2.184l0.005,0.002l-2.668,4.636
				l-0.47-0.218c-0.29-0.134-0.619-0.042-0.791,0.222l-3.831,5.883c-0.397,0.61-0.122,1.49,0.552,1.789
				c2.8,1.24,4.215,1.698,7.719,3.323c2.156,0.999,6.777,3.527,9.754,4.908c2.912,1.35,4.501-1.49,3.384-2.331
				c-4.17-3.144-6.036-5.68-7.204-7.851c0.571,0.297,1.163,0.495,1.638,0.405c0.042-0.008,0.083-0.018,0.123-0.031
				c0.338-0.106,0.571-0.363,0.692-0.764c0.091-0.302-0.012-0.508-0.115-0.627c-0.353-0.408-1.331-0.481-2.206-0.455
				c0.733-0.365,1.426-0.877,1.546-1.371c0.04-0.167,0.049-0.484-0.348-0.731c-0.252-0.156-0.525-0.192-0.815-0.105
				c-0.679,0.203-1.306,1.072-1.691,1.718c-0.135-0.113-0.279-0.214-0.438-0.287l-0.445-0.206l3.939-6.846l2.701,1.24l2.871-4.1
				l-1.574-0.779c5.591-7.153,26.725-35.159,31.715-55.967c2.656-11.074,5.312-25.209,7.602-38.595
				c2.395,13.316,4.411,27.375,4.838,38.703c0.582,15.43-2.639,52.341-3.817,65.136l-0.729-0.037l-0.964,5.121l4.231,0.115
				l-0.652,2.297h0.003l-1.808,6.371h-0.686c-0.338,0-0.642,0.234-0.733,0.564l-2.017,7.338c-0.209,0.761,0.351,1.461,1.132,1.468
				c3.268,0.03,4.817,0.015,8.896,0.015c2.509,0,9.001,0,12.465,0c3.389,0,4.098-3.426,2.695-3.737
				c-5.32-1.177-8.728-2.732-10.828-4.292c0.554,0.096,1.179,0.175,1.776,0.175c0.717,0,1.385-0.111,1.811-0.433
				c0.291-0.22,0.449-0.52,0.47-0.891c0.016-0.276-0.118-0.426-0.233-0.504c-0.478-0.323-1.703,0-2.786,0.393
				c0.765-0.642,1.418-1.396,1.351-1.891c-0.026-0.192-0.157-0.432-0.634-0.489c-1.546-0.183-2.341,2.131-2.577,2.973
				c-0.067-0.06-0.138-0.12-0.201-0.18c-0.35-0.33-0.819-0.508-1.313-0.508h-0.715l2.4-8.455l3.562,0.097l2.265-4.684l-2.322-0.118
				c2.201-11.546,8.408-44.701,10.701-63.225c2.665-21.54-9.446-73.362-11.644-82.499c0.141-0.046,0.248-0.128,0.268-0.238
				l0.515-2.81c0.036-0.195-0.198-0.381-0.51-0.406l-0.107-0.009c2.398-9.807,4.078-17.451,5.245-23.416l0.026-0.009
				c0.279,1.545,0.588,3.086,0.953,4.62c0.637,2.727,1.442,5.424,2.428,8.082c0.227,0.668,0.52,1.323,0.778,1.984
				c0.26,0.661,0.531,1.318,0.843,1.966c0.312,0.663,0.572,1.271,0.929,1.977l0.605,1.109l0.673,1.032
				c1.875,2.674,4.195,4.652,6.554,6.359c2.396,1.66,4.868,3.058,7.409,4.234c2.538,1.18,5.116,2.188,7.717,3.086
				c2.156,0.693,4.286,1.332,6.5,1.857c2.269,1.583,5.38,1.942,5.38,1.942l5.239-1.154l1.982-5.843L437.807,247.751z
				 M333.367,392.382c0.043,0.05,0.087,0.127,0.041,0.278c-0.085,0.28-0.232,0.449-0.449,0.518
				c-0.414,0.132-1.124-0.115-1.972-0.644c-0.074-0.148-0.145-0.294-0.214-0.439C331.832,392.008,333.062,392.029,333.367,392.382z
				 M331.929,389.833c0.025-0.008,0.05-0.014,0.075-0.018c0.156-0.03,0.3-0.002,0.439,0.084c0.203,0.125,0.204,0.242,0.183,0.329
				c-0.115,0.475-1.192,1.143-2.08,1.441c-0.044-0.07-0.093-0.136-0.145-0.199C330.78,390.822,331.369,390,331.929,389.833z
				 M391.783,403.292c0.159,0,0.284,0.024,0.364,0.079c0.038,0.026,0.077,0.067,0.07,0.176c-0.015,0.261-0.121,0.463-0.324,0.617
				c-0.543,0.411-1.825,0.466-3.486,0.159C389.548,403.827,391.039,403.292,391.783,403.292z M390.116,401.437
				c0.041,0,0.083,0.002,0.125,0.007c0.194,0.023,0.299,0.081,0.311,0.171c0.069,0.507-1.39,1.844-2.457,2.43
				C388.339,403.237,389.006,401.437,390.116,401.437z M345.801,238.952c-0.191-1.198-0.323-2.385-0.366-3.54
				c-0.029-1.15,0.048-2.261,0.203-3.296l0.143-0.76l0.201-0.715c0.16-0.521,0.404-1.154,0.599-1.724
				c0.195-0.588,0.429-1.168,0.673-1.745c0.246-0.577,0.456-1.162,0.73-1.732c1.01-2.302,2.228-4.534,3.451-6.764
				c1.241-2.224,2.619-4.387,4.058-6.506c0.04-0.06,0.084-0.118,0.124-0.178l2.175,1.947c0,0,0.539-0.679,1.302-1.748
				c0.311,3.463,0.491,6.485,0.562,9.219c0.154,6.45-0.281,11.364-0.951,17.02l-0.04-0.003c-0.236-0.019-0.452,0.06-0.535,0.196
				l-1.657,2.717c-0.128,0.211,0.114,0.456,0.479,0.486l0.458,0.037c-3.29,4.616-4.012,9.904-4.092,16.985l-0.472-0.204
				c-0.85-1.7-1.678-3.447-2.419-5.195c-1.051-2.378-2-4.791-2.787-7.222C346.859,243.794,346.189,241.36,345.801,238.952z"/>
			<path style="opacity:0.7;fill:#FFFFFF;" d="M437.807,247.751l-5.896,1.893c-1.768-0.722-3.545-1.479-5.262-2.31
				c-2.357-1.098-4.66-2.289-6.853-3.6c-2.189-1.313-4.297-2.704-6.174-4.26c-0.933-0.776-1.814-1.582-2.607-2.423
				c-0.779-0.847-1.453-1.733-2.018-2.614l-0.392-0.666l-0.32-0.67c-0.223-0.498-0.456-1.134-0.685-1.693
				c-0.241-0.57-0.446-1.161-0.643-1.756c-0.195-0.597-0.422-1.175-0.592-1.784c-0.756-2.397-1.309-4.879-1.857-7.363
				c-0.389-1.827-0.684-3.681-0.946-5.541l2.604-0.89c-0.325-6.475-1.145-14.719-8.322-17.581c-0.325-0.13-0.66-0.221-1-0.293
				c-1.792-0.515-5.745-1.61-9.753-2.436c-0.819-0.171-1.646-0.329-2.458-0.469c-0.001,0-0.001,0-0.002-0.001l-0.001-0.003
				c-3.79-1.237-4.639-3.472-4.045-6.87c0.001-0.004,0.001-0.008,0.002-0.012c0-0.001,0-0.002,0.001-0.003
				c3.618,1.223,9.407,0.742,14.382-0.877c-2.182-1.025-4.268-6.041-3.148-15.507c1.209-10.217-4.289-15.563-11.138-14.9
				c-0.19-0.041-0.383-0.082-0.59-0.12c-12.441-2.3-18.938,3.749-17.383,15.514c1.249,9.45-0.768,14.494-2.936,15.549
				c4.39,1.362,9.397,1.838,12.991,1.071c-0.447,2.118-1.22,3.946-2.504,4.987c-0.711-0.026-1.418-0.033-2.125-0.039
				c-4.508-0.004-8.667,0.399-10.488,0.604c-0.236,0.015-0.482,0.048-0.731,0.086c-0.155,0.019-0.239,0.03-0.239,0.03c0,0,0,0,0,0
				c0,0-0.001,0-0.001,0c-3.874,0.706-9.248,11.858-9.248,11.858l2.141,1.915c-0.257,0.374-0.528,0.74-0.78,1.117
				c-1.523,2.331-2.948,4.727-4.255,7.203c-1.317,2.471-2.486,5.032-3.495,7.681c-0.269,0.652-0.48,1.338-0.721,2.005
				c-0.24,0.668-0.469,1.341-0.661,2.035c-0.202,0.704-0.407,1.333-0.603,2.099l-0.275,1.233l-0.173,1.22
				c-0.35,3.247,0.093,6.264,0.745,9.102c0.709,2.827,1.649,5.507,2.787,8.065c1.133,2.559,2.409,5.015,3.775,7.404
				c1.166,1.942,2.348,3.825,3.668,5.678c0.665,2.685,2.77,5.005,2.77,5.005l1.042,0.98c0.195,12.771,0.243,30.465-6.288,56.86
				c-3.423,13.836-16.629,42.291-20.586,50.668l-1.357-0.672l-1.558,5.193l2.513,1.153l-1.258,2.184l0.005,0.002l-2.668,4.636
				l-0.47-0.218c-0.29-0.134-0.619-0.042-0.791,0.222l-3.831,5.883c-0.397,0.61-0.122,1.49,0.552,1.789
				c2.8,1.24,4.215,1.698,7.719,3.323c2.156,0.999,6.777,3.527,9.754,4.908c2.912,1.35,4.501-1.49,3.384-2.331
				c-4.17-3.144-6.036-5.68-7.204-7.851c0.571,0.297,1.163,0.495,1.638,0.405c0.042-0.008,0.083-0.018,0.123-0.031
				c0.338-0.106,0.571-0.363,0.692-0.764c0.091-0.302-0.012-0.508-0.115-0.627c-0.353-0.408-1.331-0.481-2.206-0.455
				c0.733-0.365,1.426-0.877,1.546-1.371c0.04-0.167,0.049-0.484-0.348-0.731c-0.252-0.156-0.525-0.192-0.815-0.105
				c-0.679,0.203-1.306,1.072-1.691,1.718c-0.135-0.113-0.279-0.214-0.438-0.287l-0.445-0.206l3.939-6.846l2.701,1.24l2.871-4.1
				l-1.574-0.779c5.591-7.153,26.725-35.159,31.715-55.967c2.656-11.074,5.312-25.209,7.602-38.595
				c2.395,13.316,4.411,27.375,4.838,38.703c0.582,15.43-2.639,52.341-3.817,65.136l-0.729-0.037l-0.964,5.121l4.231,0.115
				l-0.652,2.297h0.003l-1.808,6.371h-0.686c-0.338,0-0.642,0.234-0.733,0.564l-2.017,7.338c-0.209,0.761,0.351,1.461,1.132,1.468
				c3.268,0.03,4.817,0.015,8.896,0.015c2.509,0,9.001,0,12.465,0c3.389,0,4.098-3.426,2.695-3.737
				c-5.32-1.177-8.728-2.732-10.828-4.292c0.554,0.096,1.179,0.175,1.776,0.175c0.717,0,1.385-0.111,1.811-0.433
				c0.291-0.22,0.449-0.52,0.47-0.891c0.016-0.276-0.118-0.426-0.233-0.504c-0.478-0.323-1.703,0-2.786,0.393
				c0.765-0.642,1.418-1.396,1.351-1.891c-0.026-0.192-0.157-0.432-0.634-0.489c-1.546-0.183-2.341,2.131-2.577,2.973
				c-0.067-0.06-0.138-0.12-0.201-0.18c-0.35-0.33-0.819-0.508-1.313-0.508h-0.715l2.4-8.455l3.562,0.097l2.265-4.684l-2.322-0.118
				c2.201-11.546,8.408-44.701,10.701-63.225c2.665-21.54-9.446-73.362-11.644-82.499c0.141-0.046,0.248-0.128,0.268-0.238
				l0.515-2.81c0.036-0.195-0.198-0.381-0.51-0.406l-0.107-0.009c2.398-9.807,4.078-17.451,5.245-23.416l0.026-0.009
				c0.279,1.545,0.588,3.086,0.953,4.62c0.637,2.727,1.442,5.424,2.428,8.082c0.227,0.668,0.52,1.323,0.778,1.984
				c0.26,0.661,0.531,1.318,0.843,1.966c0.312,0.663,0.572,1.271,0.929,1.977l0.605,1.109l0.673,1.032
				c1.875,2.674,4.195,4.652,6.554,6.359c2.396,1.66,4.868,3.058,7.409,4.234c2.538,1.18,5.116,2.188,7.717,3.086
				c2.156,0.693,4.286,1.332,6.5,1.857c2.269,1.583,5.38,1.942,5.38,1.942l5.239-1.154l1.982-5.843L437.807,247.751z
				 M333.367,392.382c0.043,0.05,0.087,0.127,0.041,0.278c-0.085,0.28-0.232,0.449-0.449,0.518
				c-0.414,0.132-1.124-0.115-1.972-0.644c-0.074-0.148-0.145-0.294-0.214-0.439C331.832,392.008,333.062,392.029,333.367,392.382z
				 M331.929,389.833c0.025-0.008,0.05-0.014,0.075-0.018c0.156-0.03,0.3-0.002,0.439,0.084c0.203,0.125,0.204,0.242,0.183,0.329
				c-0.115,0.475-1.192,1.143-2.08,1.441c-0.044-0.07-0.093-0.136-0.145-0.199C330.78,390.822,331.369,390,331.929,389.833z
				 M391.783,403.292c0.159,0,0.284,0.024,0.364,0.079c0.038,0.026,0.077,0.067,0.07,0.176c-0.015,0.261-0.121,0.463-0.324,0.617
				c-0.543,0.411-1.825,0.466-3.486,0.159C389.548,403.827,391.039,403.292,391.783,403.292z M390.116,401.437
				c0.041,0,0.083,0.002,0.125,0.007c0.194,0.023,0.299,0.081,0.311,0.171c0.069,0.507-1.39,1.844-2.457,2.43
				C388.339,403.237,389.006,401.437,390.116,401.437z M345.801,238.952c-0.191-1.198-0.323-2.385-0.366-3.54
				c-0.029-1.15,0.048-2.261,0.203-3.296l0.143-0.76l0.201-0.715c0.16-0.521,0.404-1.154,0.599-1.724
				c0.195-0.588,0.429-1.168,0.673-1.745c0.246-0.577,0.456-1.162,0.73-1.732c1.01-2.302,2.228-4.534,3.451-6.764
				c1.241-2.224,2.619-4.387,4.058-6.506c0.04-0.06,0.084-0.118,0.124-0.178l2.175,1.947c0,0,0.539-0.679,1.302-1.748
				c0.311,3.463,0.491,6.485,0.562,9.219c0.154,6.45-0.281,11.364-0.951,17.02l-0.04-0.003c-0.236-0.019-0.452,0.06-0.535,0.196
				l-1.657,2.717c-0.128,0.211,0.114,0.456,0.479,0.486l0.458,0.037c-3.29,4.616-4.012,9.904-4.092,16.985l-0.472-0.204
				c-0.85-1.7-1.678-3.447-2.419-5.195c-1.051-2.378-2-4.791-2.787-7.222C346.859,243.794,346.189,241.36,345.801,238.952z"/>
		</g>
		<g>
			<path style="fill:#407BFF;" d="M189.265,218.594c-0.056-0.431-0.153-0.909-0.243-1.364l-0.21-0.765l-0.113-0.381l-0.088-0.259
				c-1.465-4.413-3.408-8.434-5.585-12.247l1.352-1.215c-0.017-0.167-5.653-15.213-12.88-16.834
				c-0.014-0.003-0.029-0.005-0.043-0.008c-0.018-0.005-0.033-0.014-0.05-0.018c-1.745-0.43-4.563-1.074-7.602-1.568
				c-0.733-0.118-1.485-0.217-2.233-0.316c-0.255-0.034-0.507-0.079-0.761-0.109c-0.002,0-0.004,0-0.006-0.001
				c-2.841-3.117-2.065-10.309-0.933-15.493c0.12-0.023,0.242-0.053,0.368-0.093c1.468-0.468,3-1.606,3.833-3.286
				c0.77-1.551,0.287-3.343-1.089-4.099c0.542-1.396,1.578-3.235,4.282-5.659c2.732-2.448-0.338-7.399-3.754-7.35
				c0,0,0.891-2.624-2.971-6.337c-3.862-3.713-7.773,2.921-9.001,1.386c-1.228-1.535-3.822-6.288-8.179-3.763
				c-4.357,2.525,1.535,6.585,0.228,7.872c-1.307,1.287-5.823-1.683-6.813,2.872c-0.72,3.314,2.803,3.326,5.211,2.518
				c-0.897,1.627-1.275,3.558-0.019,5.098c-0.707,3.152-0.752,6.49-0.31,9.146c0.761,4.573,4.554,7.746,8.662,8.047
				c0.016,0.128,0.032,0.256,0.045,0.384c0.039,0.398,0.066,0.794,0.069,1.183c0.049,3.04-1.061,5.726-5.524,6.468
				c-0.001,0.001-0.001,0.001-0.001,0.002c-0.051,0.001-0.1,0.005-0.151,0.006c-0.599,0.011-1.199,0.033-1.782,0.066
				c-0.071,0-0.151,0.009-0.223,0.018c0,0,0,0.001,0,0.001c-4.714,0.293-8.726,1.092-8.726,1.092s-0.001,0.002-0.001,0.002
				c-4,0.613-8.123,3.999-9.119,7.474c-2.388,8.332-3.774,13.578-3.774,13.578l2.186,0.814c-0.011,0.048-0.02,0.096-0.031,0.144
				c-0.53,2.404-1.14,4.765-1.791,7.035c-0.661,2.225-1.457,4.477-2.269,6.02c-0.199,0.382-0.386,0.667-0.516,0.874
				c-0.151,0.208-0.442,0.542-0.819,0.904c-0.74,0.717-1.634,1.521-2.559,2.289c-1.869,1.541-3.843,3.11-5.848,4.648
				c-4.004,3.092-8.099,6.219-12.112,9.412l0.06,0.103l-3.127,1.89l-2.809,4.313l3.609,5.883l2.857-2.936
				c0,0,1.498-1.946,2.849-4.36c4.679-2.006,9.204-4.215,13.672-6.674c2.299-1.283,4.59-2.598,6.87-4.101
				c1.145-0.758,2.298-1.519,3.498-2.492c0.596-0.479,1.241-1.033,1.95-1.781c0.443-0.494,0.817-0.976,1.163-1.45
				c0.125,5.702,0.555,11.965,1.43,18.814l-0.005,0c0,0-13.301,58.012-14.712,79.354c-1.184,17.875-4.158,50.179-5.27,62.071
				l-1.307-0.322l0.089,4.972l3.123,0.765l-1.062,8.392c-0.184-0.034-0.37-0.047-0.556-0.042c0.021-0.651-0.036-1.604-0.47-2.183
				c-0.211-0.281-0.489-0.449-0.827-0.496c-0.451-0.064-0.637,0.13-0.711,0.303c-0.18,0.424,0.166,1.22,0.628,1.93
				c-0.817-0.586-1.809-1.181-2.337-1.041c-0.181,0.05-0.31,0.176-0.371,0.364c-0.103,0.315-0.066,0.604,0.11,0.858
				c0.281,0.406,0.896,0.662,1.584,0.828c-4.721,1.179-8.828,0.386-13.964,0.258c-1.232-0.031-1.149,2.984,1.646,3.669
				c4.621,1.132,8.077,1.751,12.018,2.716c3.37,0.826,7.206,1.932,9.876,2.634c0.64,0.168,1.262-0.31,1.276-0.971l0.138-6.38
				c0.006-0.286-0.188-0.539-0.466-0.607l-0.765-0.187l0.89-7.038l0.003,0.001l0.17-1.341l3.077,0.754l1.733-4.502l-1.449-0.357
				c2.496-11.317,9.101-41.968,11.928-61.88c0.933-6.577,3.953-15.675,6.152-25.532c1.462-6.543,3.121-13.362,4.78-19.892
				c0.92,16.74,2.153,34.989,3.536,44.489c2.64,18.134,8.574,53.11,10.681,65.435l-2.931,0.199l2.184,4.64l4.612-0.394l1.613,8.283
				l-0.487,0.042c-0.156,0.013-0.301,0.067-0.446,0.121c-0.177-0.66-0.514-1.598-1.063-1.974c-0.226-0.155-0.471-0.205-0.723-0.153
				c-0.391,0.082-0.475,0.335-0.49,0.479c-0.046,0.449,0.43,1.095,0.986,1.633c-0.759-0.286-1.621-0.516-2.018-0.267
				c-0.115,0.072-0.25,0.215-0.244,0.492c0.009,0.372,0.149,0.656,0.417,0.845c0.339,0.239,0.844,0.287,1.375,0.241
				c0.078-0.007,0.156-0.021,0.234-0.031c-1.789,1.637-4.847,3.675-9.912,4.441c-1.219,0.184-1.522,3.139,1.355,3.139
				c5.442,0,10.342-1.176,12.464-1.357c3.45-0.294,5.462-0.305,8.205-0.491c0.66-0.045,1.115-0.697,0.916-1.329l-1.909-6.089
				c-0.086-0.273-0.35-0.451-0.635-0.426l-1.043,0.089l-1.354-6.958l0.005,0l-0.259-1.325l3.461-0.296l-0.384-4.499l-0.624,0.042
				c-0.685-11.583-2.719-44.055-4.984-61.666c-3.186-24.77-0.101-81.846-0.101-81.846l0.005-0.004
				c0.327-2.845,0.085-11.244,0.668-22.259c0.197-3.755,0.499-7.827,0.947-12.078c0,0,0.001,0.001,0.001,0.002
				c0.077-0.781,0.171-1.575,0.264-2.367c1.513,2.583,2.562,4.29,2.562,4.29l2.958-2.658c0.441,0.717,0.883,1.434,1.307,2.154
				c1.097,1.968,2.154,3.937,3.017,5.909l0.077,0.169l0.023,0.057c0.017,0.038,0.038,0.074,0.062,0.111
				c0.036,0.143,0.088,0.26,0.13,0.432c0.083,0.348,0.154,0.767,0.218,1.227c0.123,0.922,0.173,1.984,0.173,3.074
				c-0.006,2.186-0.115,4.514-0.327,6.851c-0.4,4.638-0.98,9.436-1.576,14.148l-3.499,4.341l-0.122,5.853l7.257,1.482l1.542-5.135
				c0,0,1.845-3.732,0.981-6.064c1.721-4.289,3.157-8.607,4.28-13.144c0.588-2.489,1.142-5.016,1.444-7.714
				c0.157-1.35,0.268-2.739,0.257-4.26C189.426,220.253,189.375,219.454,189.265,218.594z M108.625,399.371
				c-0.2,0.065-0.397,0.118-0.595,0.176c-1.049-0.165-1.781-0.451-2.037-0.82c-0.115-0.167-0.137-0.352-0.067-0.566
				c0.027-0.083,0.07-0.127,0.144-0.147c0.015-0.004,0.03-0.007,0.046-0.009c0.479-0.066,1.594,0.655,2.511,1.366
				C108.626,399.371,108.625,399.371,108.625,399.371z M109.36,399.206c-0.086,0.012-0.173,0.023-0.259,0.04
				c-0.643-0.754-1.271-1.919-1.104-2.312c0.011-0.026,0.039-0.092,0.167-0.109c0.048-0.007,0.111-0.006,0.192,0.005
				c0.25,0.035,0.448,0.154,0.606,0.366C109.348,397.71,109.384,398.601,109.36,399.206z M162.021,404.754
				c-0.856,0.179-1.526,0.167-1.857-0.066c-0.179-0.127-0.27-0.317-0.276-0.581c-0.003-0.129,0.045-0.176,0.088-0.203
				c0.053-0.033,0.125-0.053,0.211-0.06c0.467-0.04,1.358,0.273,2.129,0.611C162.223,404.552,162.125,404.651,162.021,404.754z
				 M162.65,404.168c-0.722-0.53-1.531-1.454-1.487-1.878c0.004-0.043,0.015-0.143,0.227-0.188c0.025-0.006,0.05-0.009,0.075-0.011
				c0.136-0.012,0.265,0.025,0.392,0.113c0.481,0.329,0.787,1.237,0.947,1.852C162.749,404.09,162.699,404.129,162.65,404.168z"/>
			<path style="opacity:0.7;fill:#FFFFFF;" d="M189.265,218.594c-0.056-0.431-0.153-0.909-0.243-1.364l-0.21-0.765l-0.113-0.381
				l-0.088-0.259c-1.465-4.413-3.408-8.434-5.585-12.247l1.352-1.215c-0.017-0.167-5.653-15.213-12.88-16.834
				c-0.014-0.003-0.029-0.005-0.043-0.008c-0.018-0.005-0.033-0.014-0.05-0.018c-1.745-0.43-4.563-1.074-7.602-1.568
				c-0.733-0.118-1.485-0.217-2.233-0.316c-0.255-0.034-0.507-0.079-0.761-0.109c-0.002,0-0.004,0-0.006-0.001
				c-2.841-3.117-2.065-10.309-0.933-15.493c0.12-0.023,0.242-0.053,0.368-0.093c1.468-0.468,3-1.606,3.833-3.286
				c0.77-1.551,0.287-3.343-1.089-4.099c0.542-1.396,1.578-3.235,4.282-5.659c2.732-2.448-0.338-7.399-3.754-7.35
				c0,0,0.891-2.624-2.971-6.337c-3.862-3.713-7.773,2.921-9.001,1.386c-1.228-1.535-3.822-6.288-8.179-3.763
				c-4.357,2.525,1.535,6.585,0.228,7.872c-1.307,1.287-5.823-1.683-6.813,2.872c-0.72,3.314,2.803,3.326,5.211,2.518
				c-0.897,1.627-1.275,3.558-0.019,5.098c-0.707,3.152-0.752,6.49-0.31,9.146c0.761,4.573,4.554,7.746,8.662,8.047
				c0.016,0.128,0.032,0.256,0.045,0.384c0.039,0.398,0.066,0.794,0.069,1.183c0.049,3.04-1.061,5.726-5.524,6.468
				c-0.001,0.001-0.001,0.001-0.001,0.002c-0.051,0.001-0.1,0.005-0.151,0.006c-0.599,0.011-1.199,0.033-1.782,0.066
				c-0.071,0-0.151,0.009-0.223,0.018c0,0,0,0.001,0,0.001c-4.714,0.293-8.726,1.092-8.726,1.092s-0.001,0.002-0.001,0.002
				c-4,0.613-8.123,3.999-9.119,7.474c-2.388,8.332-3.774,13.578-3.774,13.578l2.186,0.814c-0.011,0.048-0.02,0.096-0.031,0.144
				c-0.53,2.404-1.14,4.765-1.791,7.035c-0.661,2.225-1.457,4.477-2.269,6.02c-0.199,0.382-0.386,0.667-0.516,0.874
				c-0.151,0.208-0.442,0.542-0.819,0.904c-0.74,0.717-1.634,1.521-2.559,2.289c-1.869,1.541-3.843,3.11-5.848,4.648
				c-4.004,3.092-8.099,6.219-12.112,9.412l0.06,0.103l-3.127,1.89l-2.809,4.313l3.609,5.883l2.857-2.936
				c0,0,1.498-1.946,2.849-4.36c4.679-2.006,9.204-4.215,13.672-6.674c2.299-1.283,4.59-2.598,6.87-4.101
				c1.145-0.758,2.298-1.519,3.498-2.492c0.596-0.479,1.241-1.033,1.95-1.781c0.443-0.494,0.817-0.976,1.163-1.45
				c0.125,5.702,0.555,11.965,1.43,18.814l-0.005,0c0,0-13.301,58.012-14.712,79.354c-1.184,17.875-4.158,50.179-5.27,62.071
				l-1.307-0.322l0.089,4.972l3.123,0.765l-1.062,8.392c-0.184-0.034-0.37-0.047-0.556-0.042c0.021-0.651-0.036-1.604-0.47-2.183
				c-0.211-0.281-0.489-0.449-0.827-0.496c-0.451-0.064-0.637,0.13-0.711,0.303c-0.18,0.424,0.166,1.22,0.628,1.93
				c-0.817-0.586-1.809-1.181-2.337-1.041c-0.181,0.05-0.31,0.176-0.371,0.364c-0.103,0.315-0.066,0.604,0.11,0.858
				c0.281,0.406,0.896,0.662,1.584,0.828c-4.721,1.179-8.828,0.386-13.964,0.258c-1.232-0.031-1.149,2.984,1.646,3.669
				c4.621,1.132,8.077,1.751,12.018,2.716c3.37,0.826,7.206,1.932,9.876,2.634c0.64,0.168,1.262-0.31,1.276-0.971l0.138-6.38
				c0.006-0.286-0.188-0.539-0.466-0.607l-0.765-0.187l0.89-7.038l0.003,0.001l0.17-1.341l3.077,0.754l1.733-4.502l-1.449-0.357
				c2.496-11.317,9.101-41.968,11.928-61.88c0.933-6.577,3.953-15.675,6.152-25.532c1.462-6.543,3.121-13.362,4.78-19.892
				c0.92,16.74,2.153,34.989,3.536,44.489c2.64,18.134,8.574,53.11,10.681,65.435l-2.931,0.199l2.184,4.64l4.612-0.394l1.613,8.283
				l-0.487,0.042c-0.156,0.013-0.301,0.067-0.446,0.121c-0.177-0.66-0.514-1.598-1.063-1.974c-0.226-0.155-0.471-0.205-0.723-0.153
				c-0.391,0.082-0.475,0.335-0.49,0.479c-0.046,0.449,0.43,1.095,0.986,1.633c-0.759-0.286-1.621-0.516-2.018-0.267
				c-0.115,0.072-0.25,0.215-0.244,0.492c0.009,0.372,0.149,0.656,0.417,0.845c0.339,0.239,0.844,0.287,1.375,0.241
				c0.078-0.007,0.156-0.021,0.234-0.031c-1.789,1.637-4.847,3.675-9.912,4.441c-1.219,0.184-1.522,3.139,1.355,3.139
				c5.442,0,10.342-1.176,12.464-1.357c3.45-0.294,5.462-0.305,8.205-0.491c0.66-0.045,1.115-0.697,0.916-1.329l-1.909-6.089
				c-0.086-0.273-0.35-0.451-0.635-0.426l-1.043,0.089l-1.354-6.958l0.005,0l-0.259-1.325l3.461-0.296l-0.384-4.499l-0.624,0.042
				c-0.685-11.583-2.719-44.055-4.984-61.666c-3.186-24.77-0.101-81.846-0.101-81.846l0.005-0.004
				c0.327-2.845,0.085-11.244,0.668-22.259c0.197-3.755,0.499-7.827,0.947-12.078c0,0,0.001,0.001,0.001,0.002
				c0.077-0.781,0.171-1.575,0.264-2.367c1.513,2.583,2.562,4.29,2.562,4.29l2.958-2.658c0.441,0.717,0.883,1.434,1.307,2.154
				c1.097,1.968,2.154,3.937,3.017,5.909l0.077,0.169l0.023,0.057c0.017,0.038,0.038,0.074,0.062,0.111
				c0.036,0.143,0.088,0.26,0.13,0.432c0.083,0.348,0.154,0.767,0.218,1.227c0.123,0.922,0.173,1.984,0.173,3.074
				c-0.006,2.186-0.115,4.514-0.327,6.851c-0.4,4.638-0.98,9.436-1.576,14.148l-3.499,4.341l-0.122,5.853l7.257,1.482l1.542-5.135
				c0,0,1.845-3.732,0.981-6.064c1.721-4.289,3.157-8.607,4.28-13.144c0.588-2.489,1.142-5.016,1.444-7.714
				c0.157-1.35,0.268-2.739,0.257-4.26C189.426,220.253,189.375,219.454,189.265,218.594z M108.625,399.371
				c-0.2,0.065-0.397,0.118-0.595,0.176c-1.049-0.165-1.781-0.451-2.037-0.82c-0.115-0.167-0.137-0.352-0.067-0.566
				c0.027-0.083,0.07-0.127,0.144-0.147c0.015-0.004,0.03-0.007,0.046-0.009c0.479-0.066,1.594,0.655,2.511,1.366
				C108.626,399.371,108.625,399.371,108.625,399.371z M109.36,399.206c-0.086,0.012-0.173,0.023-0.259,0.04
				c-0.643-0.754-1.271-1.919-1.104-2.312c0.011-0.026,0.039-0.092,0.167-0.109c0.048-0.007,0.111-0.006,0.192,0.005
				c0.25,0.035,0.448,0.154,0.606,0.366C109.348,397.71,109.384,398.601,109.36,399.206z M162.021,404.754
				c-0.856,0.179-1.526,0.167-1.857-0.066c-0.179-0.127-0.27-0.317-0.276-0.581c-0.003-0.129,0.045-0.176,0.088-0.203
				c0.053-0.033,0.125-0.053,0.211-0.06c0.467-0.04,1.358,0.273,2.129,0.611C162.223,404.552,162.125,404.651,162.021,404.754z
				 M162.65,404.168c-0.722-0.53-1.531-1.454-1.487-1.878c0.004-0.043,0.015-0.143,0.227-0.188c0.025-0.006,0.05-0.009,0.075-0.011
				c0.136-0.012,0.265,0.025,0.392,0.113c0.481,0.329,0.787,1.237,0.947,1.852C162.749,404.09,162.699,404.129,162.65,404.168z"/>
		</g>
		<g>
			<path style="fill:#407BFF;" d="M241.036,412.911l-2.191-7.561c-0.098-0.34-0.419-0.565-0.772-0.543l-1.203,0.213
				c-0.54-2.257-1.296-5.1-1.855-7.155l1.005-0.139c-5.798-24.912-15.248-65.302-17.853-86.42
				c-2.644-21.429-4.086-69.574-4.307-77.395c0.963-0.309,1.785-0.674,2.377-1.09c0.931-0.654,1.118-2.633,0.944-4.967
				c0.546-0.072,1.096-0.157,1.654-0.268c7.034-1.403,12.215-5.233,10.426-15.559c0.278-0.465,0.551-0.943,0.811-1.455
				c0.745-1.471,1.389-3.234,1.645-5.328c0.159-1.516,0.257-3.049,0.178-4.552c-0.093-3.027-0.739-5.922-1.596-8.648
				c-0.881-2.719-2.07-5.249-3.404-7.616c-1.364-2.355-2.867-4.569-4.544-6.62c-0.832-1.031-1.696-2.03-2.613-2.992
				c-0.456-0.482-0.92-0.964-1.41-1.431l-0.751-0.707l-0.501-0.448c-0.049-0.049-0.106-0.095-0.159-0.143l-0.225-0.201l-0.013,0.014
				c-1.799-1.337-5.526-1.804-8.652-1.971c0.253-1.024,0.176-2.603-0.298-3.799c-0.594-1.498-2.765-1.294-4.704-0.641
				c-0.276,0.093-0.524,0.182-0.76,0.269c0.091-0.818-0.096-1.846-0.965-3.501c-0.077-0.147-0.134-0.293-0.2-0.44
				c0.019-2.406,0.291-4.852,0.625-6.909c0.235-0.049,0.482-0.14,0.743-0.286c1.267-0.71,2.52-2.077,3.091-3.842
				c0.363-1.122,0.173-2.245-0.4-3.003c1.799-1.497,5.234-4.914,2.324-7.19c0.536-0.651,0.909-1.658,0.248-3.263
				c0,0.538-0.691,1.191-1.114,1.422c-0.423-1.652-2.574-4.496-8.607-5.84c-7.418-1.654-9.946,1.306-12.12,0.192
				c-2.174-1.114,1.13-2.421,1.13-2.421s-3.747-0.865-4.957,1.96c-0.834,1.947-0.605,4.836,1.677,6.401
				c-0.548,1.238-0.915,2.959-0.822,3.73c0.053,0.44,0.296,0.795,0.585,1.124c-0.255,0.228-0.504,0.516-0.717,0.892
				c-0.09,0.158-0.034,0.358,0.123,0.447c0.045,0.026,0.093,0.04,0.141,0.043c0.121,0.008,0.242-0.053,0.306-0.166
				c0.018-0.032,0.039-0.054,0.057-0.084c-0.745,3.473-0.612,7.256,0.065,10.177c-0.285,1.951-0.131,4.977,2.096,7.38
				c1.643,1.773,1.826,2.734,1.748,3.706c-0.5-0.249-1.067-0.438-1.984-0.58c-1.267-0.196-2.375,1.571-2.352,3.164
				c0.009,0.621,0.104,1.101,0.234,1.499c-0.516,0.115-1.033,0.241-1.538,0.373c-0.375-0.141-1.362,0.242-1.746,0.367
				c-0.019,0.006-0.047,0.061-0.079,0.158c-0.75,0.237-1.402,0.471-1.87,0.678c-1.502,0.663-2.632,2.136-3.438,3.875l-0.236,0.22
				l-0.711,0.696c-0.462,0.458-0.876,0.93-1.293,1.401c-0.827,0.942-1.583,1.925-2.296,2.938c-1.436,2.018-2.64,4.205-3.654,6.499
				c-1.992,4.595-3.046,9.756-2.803,14.839c0.103,2.481,0.556,5.177,1.277,7.42c0.347,1.137,0.731,2.22,1.135,3.278
				c0.435,1.04,0.872,2.068,1.344,3.059c0.945,1.987,1.971,3.889,3.099,5.719c0.918,1.498,1.87,2.922,2.939,4.344
				c0.018,3.193,0.988,7.218,2.602,7.892c0.143,0.06,0.286,0.109,0.428,0.161c-2.206,8.871-13.744,55.698-16.297,74.637
				c-2.94,21.806-8.746,84.345-8.746,84.345l0.591,0.151c-0.094,0.804-0.185,1.666-0.268,2.549c-0.56-0.254-1.22-0.501-2.01-0.737
				c-2.289-0.686-3.01,0.951-3.17,2.724c-0.189-0.859-0.602-1.711-1.494-1.814c-0.481-0.055-0.666,0.151-0.737,0.334
				c-0.179,0.461,0.248,1.321,0.806,2.095c-0.927-0.617-2.031-1.221-2.575-1.033c-0.188,0.065-0.313,0.209-0.361,0.418
				c-0.081,0.352-0.014,0.669,0.2,0.943c0.325,0.416,0.96,0.677,1.671,0.841c0.466,0.107,0.961,0.169,1.427,0.207
				c-2.577,0.254-5.928,0.136-10.154-0.578c-1.499-0.253-2.326,3.282,0.967,4.607c3.366,1.355,10.008,3.017,12.509,3.823
				c4.065,1.31,5.733,1.999,8.985,2.962c0.783,0.232,1.602-0.25,1.684-1.063l0.79-7.832c0.035-0.352-0.178-0.681-0.513-0.792
				l-1.181-0.248c0.426-1.773,0.872-3.76,1.232-5.405l1.178,0.302c0,0,15.584-60.375,19.745-81.572
				c1.215-6.186,3.245-14.891,5.569-24.32c0,0.002,0,0.004,0,0.005c1.261-5.124,2.609-10.461,3.96-15.725
				c0.018-0.072,0.037-0.143,0.055-0.215c0.415-1.617,0.83-3.225,1.242-4.818c0.055-0.213,0.111-0.427,0.166-0.64
				c0.175-0.674,0.349-1.345,0.523-2.013c0.017-0.066,0.034-0.13,0.051-0.196c1.31,16.002,3.094,33.693,5.143,43.105
				c4.73,21.735,28.271,89.827,28.271,89.827l1.195-0.165c0.309,0.841,0.664,1.782,1.056,2.776c-0.409,0.063-0.852,0.149-1.33,0.259
				c-2.161,0.497-2.154,2.065-1.553,3.582c-0.428-0.454-0.887-0.805-1.341-0.885c-0.342-0.061-0.653,0.029-0.926,0.266
				c-0.161,0.14-0.231,0.318-0.2,0.514c0.09,0.569,1.141,1.26,2.121,1.789c-0.945-0.129-1.906-0.103-2.229,0.272
				c-0.128,0.149-0.223,0.409,0.051,0.808c0.719,1.045,2.311,0.546,3.265,0.114c-1.907,1.405-4.555,2.766-9.427,3.832
				c-1.485,0.325-0.932,3.913,2.617,3.913c3.629,0,8.87-0.92,11.491-1.106c4.26-0.303,6.065-0.286,9.441-0.607
				C240.683,414.448,241.263,413.695,241.036,412.911z M144.592,396.61c0.014-0.035,0.055-0.14,0.358-0.105
				c0.039,0.004,0.077,0.011,0.114,0.019c1.069,0.245,1.205,2.111,1.213,2.917C145.421,398.659,144.403,397.094,144.592,396.61z
				 M142.609,398.679c-0.145-0.186-0.189-0.395-0.132-0.638c0.025-0.108,0.077-0.14,0.125-0.157c0.525-0.181,2.15,0.862,3.301,1.737
				C144.224,399.535,143.01,399.192,142.609,398.679z M201.767,165.956c-0.122,0.049-0.246,0.099-0.358,0.147
				c-0.173-1.006-0.268-2.077-0.298-3.177C201.803,164.363,201.908,165.239,201.767,165.956z M185.917,162.27
				c-1.764-1.904-2.119-4.136-2.064-5.828c1.411,3.821,5.034,6.221,8.758,6.234c0.024,0.125,0.049,0.25,0.071,0.376
				c0.066,0.391,0.12,0.78,0.149,1.164c0.194,2.257-0.275,4.36-2.38,5.704c-0.103-1.288-0.64-2.106-2.029-2.984
				c-0.235-0.149-0.446-0.284-0.653-0.407C187.894,165.41,187.806,164.309,185.917,162.27z M222.898,405.453
				c-0.008-0.05-0.005-0.111,0.079-0.184c0.188-0.164,0.393-0.224,0.626-0.183c0.641,0.113,1.513,1.024,2.378,2.467
				C224.669,406.947,222.985,406.002,222.898,405.453z M222.853,408.264c-0.025-0.028-0.048-0.059-0.07-0.091
				c-0.173-0.252-0.1-0.337-0.075-0.365c0.339-0.393,2.198-0.229,3.291,0.159C225.282,408.338,223.571,409.093,222.853,408.264z"/>
			<path style="opacity:0.65;fill:#FFFFFF;" d="M241.036,412.911l-2.191-7.561c-0.098-0.34-0.419-0.565-0.772-0.543l-1.203,0.213
				c-0.54-2.257-1.296-5.1-1.855-7.155l1.005-0.139c-5.798-24.912-15.248-65.302-17.853-86.42
				c-2.644-21.429-4.086-69.574-4.307-77.395c0.963-0.309,1.785-0.674,2.377-1.09c0.931-0.654,1.118-2.633,0.944-4.967
				c0.546-0.072,1.096-0.157,1.654-0.268c7.034-1.403,12.215-5.233,10.426-15.559c0.278-0.465,0.551-0.943,0.811-1.455
				c0.745-1.471,1.389-3.234,1.645-5.328c0.159-1.516,0.257-3.049,0.178-4.552c-0.093-3.027-0.739-5.922-1.596-8.648
				c-0.881-2.719-2.07-5.249-3.404-7.616c-1.364-2.355-2.867-4.569-4.544-6.62c-0.832-1.031-1.696-2.03-2.613-2.992
				c-0.456-0.482-0.92-0.964-1.41-1.431l-0.751-0.707l-0.501-0.448c-0.049-0.049-0.106-0.095-0.159-0.143l-0.225-0.201l-0.013,0.014
				c-1.799-1.337-5.526-1.804-8.652-1.971c0.253-1.024,0.176-2.603-0.298-3.799c-0.594-1.498-2.765-1.294-4.704-0.641
				c-0.276,0.093-0.524,0.182-0.76,0.269c0.091-0.818-0.096-1.846-0.965-3.501c-0.077-0.147-0.134-0.293-0.2-0.44
				c0.019-2.406,0.291-4.852,0.625-6.909c0.235-0.049,0.482-0.14,0.743-0.286c1.267-0.71,2.52-2.077,3.091-3.842
				c0.363-1.122,0.173-2.245-0.4-3.003c1.799-1.497,5.234-4.914,2.324-7.19c0.536-0.651,0.909-1.658,0.248-3.263
				c0,0.538-0.691,1.191-1.114,1.422c-0.423-1.652-2.574-4.496-8.607-5.84c-7.418-1.654-9.946,1.306-12.12,0.192
				c-2.174-1.114,1.13-2.421,1.13-2.421s-3.747-0.865-4.957,1.96c-0.834,1.947-0.605,4.836,1.677,6.401
				c-0.548,1.238-0.915,2.959-0.822,3.73c0.053,0.44,0.296,0.795,0.585,1.124c-0.255,0.228-0.504,0.516-0.717,0.892
				c-0.09,0.158-0.034,0.358,0.123,0.447c0.045,0.026,0.093,0.04,0.141,0.043c0.121,0.008,0.242-0.053,0.306-0.166
				c0.018-0.032,0.039-0.054,0.057-0.084c-0.745,3.473-0.612,7.256,0.065,10.177c-0.285,1.951-0.131,4.977,2.096,7.38
				c1.643,1.773,1.826,2.734,1.748,3.706c-0.5-0.249-1.067-0.438-1.984-0.58c-1.267-0.196-2.375,1.571-2.352,3.164
				c0.009,0.621,0.104,1.101,0.234,1.499c-0.516,0.115-1.033,0.241-1.538,0.373c-0.375-0.141-1.362,0.242-1.746,0.367
				c-0.019,0.006-0.047,0.061-0.079,0.158c-0.75,0.237-1.402,0.471-1.87,0.678c-1.502,0.663-2.632,2.136-3.438,3.875l-0.236,0.22
				l-0.711,0.696c-0.462,0.458-0.876,0.93-1.293,1.401c-0.827,0.942-1.583,1.925-2.296,2.938c-1.436,2.018-2.64,4.205-3.654,6.499
				c-1.992,4.595-3.046,9.756-2.803,14.839c0.103,2.481,0.556,5.177,1.277,7.42c0.347,1.137,0.731,2.22,1.135,3.278
				c0.435,1.04,0.872,2.068,1.344,3.059c0.945,1.987,1.971,3.889,3.099,5.719c0.918,1.498,1.87,2.922,2.939,4.344
				c0.018,3.193,0.988,7.218,2.602,7.892c0.143,0.06,0.286,0.109,0.428,0.161c-2.206,8.871-13.744,55.698-16.297,74.637
				c-2.94,21.806-8.746,84.345-8.746,84.345l0.591,0.151c-0.094,0.804-0.185,1.666-0.268,2.549c-0.56-0.254-1.22-0.501-2.01-0.737
				c-2.289-0.686-3.01,0.951-3.17,2.724c-0.189-0.859-0.602-1.711-1.494-1.814c-0.481-0.055-0.666,0.151-0.737,0.334
				c-0.179,0.461,0.248,1.321,0.806,2.095c-0.927-0.617-2.031-1.221-2.575-1.033c-0.188,0.065-0.313,0.209-0.361,0.418
				c-0.081,0.352-0.014,0.669,0.2,0.943c0.325,0.416,0.96,0.677,1.671,0.841c0.466,0.107,0.961,0.169,1.427,0.207
				c-2.577,0.254-5.928,0.136-10.154-0.578c-1.499-0.253-2.326,3.282,0.967,4.607c3.366,1.355,10.008,3.017,12.509,3.823
				c4.065,1.31,5.733,1.999,8.985,2.962c0.783,0.232,1.602-0.25,1.684-1.063l0.79-7.832c0.035-0.352-0.178-0.681-0.513-0.792
				l-1.181-0.248c0.426-1.773,0.872-3.76,1.232-5.405l1.178,0.302c0,0,15.584-60.375,19.745-81.572
				c1.215-6.186,3.245-14.891,5.569-24.32c0,0.002,0,0.004,0,0.005c1.261-5.124,2.609-10.461,3.96-15.725
				c0.018-0.072,0.037-0.143,0.055-0.215c0.415-1.617,0.83-3.225,1.242-4.818c0.055-0.213,0.111-0.427,0.166-0.64
				c0.175-0.674,0.349-1.345,0.523-2.013c0.017-0.066,0.034-0.13,0.051-0.196c1.31,16.002,3.094,33.693,5.143,43.105
				c4.73,21.735,28.271,89.827,28.271,89.827l1.195-0.165c0.309,0.841,0.664,1.782,1.056,2.776c-0.409,0.063-0.852,0.149-1.33,0.259
				c-2.161,0.497-2.154,2.065-1.553,3.582c-0.428-0.454-0.887-0.805-1.341-0.885c-0.342-0.061-0.653,0.029-0.926,0.266
				c-0.161,0.14-0.231,0.318-0.2,0.514c0.09,0.569,1.141,1.26,2.121,1.789c-0.945-0.129-1.906-0.103-2.229,0.272
				c-0.128,0.149-0.223,0.409,0.051,0.808c0.719,1.045,2.311,0.546,3.265,0.114c-1.907,1.405-4.555,2.766-9.427,3.832
				c-1.485,0.325-0.932,3.913,2.617,3.913c3.629,0,8.87-0.92,11.491-1.106c4.26-0.303,6.065-0.286,9.441-0.607
				C240.683,414.448,241.263,413.695,241.036,412.911z M144.592,396.61c0.014-0.035,0.055-0.14,0.358-0.105
				c0.039,0.004,0.077,0.011,0.114,0.019c1.069,0.245,1.205,2.111,1.213,2.917C145.421,398.659,144.403,397.094,144.592,396.61z
				 M142.609,398.679c-0.145-0.186-0.189-0.395-0.132-0.638c0.025-0.108,0.077-0.14,0.125-0.157c0.525-0.181,2.15,0.862,3.301,1.737
				C144.224,399.535,143.01,399.192,142.609,398.679z M201.767,165.956c-0.122,0.049-0.246,0.099-0.358,0.147
				c-0.173-1.006-0.268-2.077-0.298-3.177C201.803,164.363,201.908,165.239,201.767,165.956z M185.917,162.27
				c-1.764-1.904-2.119-4.136-2.064-5.828c1.411,3.821,5.034,6.221,8.758,6.234c0.024,0.125,0.049,0.25,0.071,0.376
				c0.066,0.391,0.12,0.78,0.149,1.164c0.194,2.257-0.275,4.36-2.38,5.704c-0.103-1.288-0.64-2.106-2.029-2.984
				c-0.235-0.149-0.446-0.284-0.653-0.407C187.894,165.41,187.806,164.309,185.917,162.27z M222.898,405.453
				c-0.008-0.05-0.005-0.111,0.079-0.184c0.188-0.164,0.393-0.224,0.626-0.183c0.641,0.113,1.513,1.024,2.378,2.467
				C224.669,406.947,222.985,406.002,222.898,405.453z M222.853,408.264c-0.025-0.028-0.048-0.059-0.07-0.091
				c-0.173-0.252-0.1-0.337-0.075-0.365c0.339-0.393,2.198-0.229,3.291,0.159C225.282,408.338,223.571,409.093,222.853,408.264z"/>
		</g>
		<g>
			<path style="fill:#407BFF;" d="M396.36,401.714c-6.756-0.283-12.534-1.279-18.826-3.703l-3.046-19.551
				c-0.069-0.446-0.406-0.792-0.818-0.897c-2.816-20.053-7.56-53.301-10.07-67.93c-3.574-20.826-19.334-75.604-19.334-75.604
				c0.545-3.353,0.969-6.561,1.302-9.643c0.152,0.145,0.406,0.08,0.433-0.138l0.284-2.299c0.016-0.124,0.005-0.244-0.035-0.365
				c-0.062-0.187-0.173-0.542-0.308-1.02c0.284-3.329,0.454-6.487,0.529-9.469c0.013,0.053,0.022,0.106,0.035,0.16
				c0.468,1.893,0.962,3.716,1.718,5.745c0.217,0.533,0.4,1.016,0.85,1.804c0.13,0.212,0.258,0.434,0.577,0.825
				c0.175,0.199,0.346,0.426,0.879,0.846c0.129,0.1,0.342,0.245,0.52,0.349c0.119,0.07,0.276,0.153,0.418,0.219
				c0.151,0.069,0.266,0.122,0.519,0.208c0.223,0.075,0.453,0.134,0.682,0.177c0.291,0.054,0.631,0.083,0.945,0.077
				c0.63,0.004,1.489-0.202,2.05-0.512c0.67-0.358,1.015-0.685,1.369-1.081c0.144-0.17,0.233-0.291,0.34-0.449
				c0.1-0.147,0.202-0.327,0.245-0.411c0.245-0.475,0.333-0.781,0.406-1.036c0.13-0.505,0.144-0.716,0.176-0.971
				c0.041-0.426,0.041-0.682,0.043-0.917c-0.001-0.872-0.055-1.392-0.11-1.96c-0.052-0.553-0.116-1.057-0.204-1.55
				c-0.317-2.013-0.699-3.897-1.122-5.792c-0.692-3.088-1.479-6.114-2.308-9.122l2.995-1.659c0,0-3.544-9.05-8.552-16.122
				c-2.152-3.039-4.773-4.824-7.266-5.398c-0.002-0.004-0.008-0.019-0.008-0.019s-0.021-0.006-0.035-0.009
				c-0.049-0.102-0.088-0.177-0.112-0.219c-0.019-0.035-0.039-0.056-0.073-0.076c-0.849-0.494-3.993-1.215-5.787-1.287
				c-0.148-0.006-0.236,0.135-0.196,0.27c-1.392-0.235-2.913-0.449-4.461-0.59c-4.362-1.033-5.367-3.741-5.22-6.718
				c0.016-0.382,0.055-0.769,0.106-1.158c0.017-0.124,0.037-0.247,0.056-0.371c4.047-0.014,7.878-2.865,8.774-7.296
				c0.406-2.005,0.531-4.439,0.29-6.9c0.556-1.628,0.492-3.702,0.001-5.612c0.016,0.003,0.037,0.007,0.052,0.01
				c0.387,0.077,0.7-0.28,0.592-0.668l-0.683-2.465c-0.05-0.182-0.188-0.315-0.361-0.376c-0.019-1.703-0.542-4.627-5.609-7.238
				c-6.749-3.478-18.47-2.206-20.097,3.805c-0.658,2.432,0.448,4.617,1.119,6.163c-0.103,0.036-0.199,0.064-0.303,0.101
				c-0.26,0.092-0.405,0.378-0.329,0.654l0.714,2.579c0.086,0.312,0.417,0.486,0.71,0.382c0.21-0.074,0.409-0.134,0.616-0.206
				c0.329,0.671,0.705,1.329,1.107,1.955c-1.055,0.803-1.369,2.362-0.686,3.759c0.82,1.68,2.326,2.852,3.77,3.365
				c0.348,0.124,0.668,0.173,0.961,0.17c1.046,5.199,1.835,13.024-1.24,16.063c-0.477,0.023-0.955,0.054-1.432,0.088
				c-0.131-0.187-0.32-0.317-0.547-0.31c-1.31,0.039-5.054,0.231-6.95,0.674c-0.286,0.067-0.46,0.319-0.451,0.591
				c-1.758,0.285-2.894,0.514-2.894,0.514c-6.481,0.948-13.113,23.526-13.113,23.526l1.547,0.856
				c-0.402,1.55-0.787,3.112-1.134,4.701c-0.56,2.511-1.042,5.032-1.308,7.894c-0.043,0.304-0.056,0.836-0.074,1.26
				c-0.028,0.456,0.006,0.871,0.021,1.301c0.011,0.435,0.062,0.837,0.11,1.245c0.04,0.413,0.109,0.808,0.187,1.192
				c0.296,1.554,0.718,2.997,1.219,4.352c0.988,2.72,2.284,5.15,3.646,7.473c2.39,3.956,5.09,7.499,8.111,10.868
				c0.525,2.464,2.74,4.363,2.74,4.363l2.332,5.47l0.154-0.05c0.034,17.895-0.14,47.789-1.524,63.398
				c-1.301,14.674-8.265,50.613-12.505,71.711l-0.228-0.02c-0.52-0.045-0.978,0.305-1.065,0.814l-3.997,23.643l-1.211,4.787
				c-0.197,0.779,0.407,1.527,1.217,1.604c3.366,0.319,5.158,0.302,9.401,0.603c2.61,0.185,7.85,1.099,11.455,1.099
				c3.525,0,3.944-3.564,2.457-3.887c-5.749-1.248-8.448-2.903-10.485-4.556l6.707-21.571c0.168-0.538-0.142-1.1-0.649-1.293
				c6.074-21.359,16.742-59.69,19.491-74.892c1.691-9.35,2.817-26.924,3.534-42.821c0.017,0.059,0.035,0.117,0.052,0.175
				c0.203,0.684,0.407,1.371,0.611,2.062c0.059,0.201,0.119,0.402,0.179,0.604c0.467,1.579,0.936,3.172,1.406,4.773
				c0.022,0.075,0.044,0.15,0.066,0.225c1.533,5.227,3.067,10.526,4.506,15.613c0-0.002,0-0.003,0-0.005
				c2.652,9.367,4.988,18.014,6.42,24.159c3.272,14.037,11.83,45.445,17.174,64.83c-0.348,0.228-0.532,0.661-0.424,1.103
				l5.24,21.411l0.304,7.356c-0.007,0.81,0.738,1.445,1.528,1.291c3.299-0.641,8.042-1.68,12.203-2.414
				c4.866-0.858,9.125-1.333,14.831-2.339C397.659,405.457,397.872,401.777,396.36,401.714z M299.245,218.025
				c-0.264-1.029-0.428-2.025-0.498-2.934c-0.023-0.231-0.034-0.453-0.033-0.66c-0.005-0.212-0.019-0.428,0.003-0.613
				c0.016-0.189,0.006-0.396,0.044-0.555c0.036-0.191,0.026-0.281,0.093-0.584c0.363-2.033,0.982-4.314,1.623-6.564
				c0.219-0.746,0.448-1.498,0.675-2.248l2.779,1.537c0,0,1.31-2.498,2.965-5.977c0.654,8.583,0.701,16.395,0.629,22.508
				c-0.113,0.066-0.22,0.123-0.315,0.161c-0.283,0.114-0.457,0.391-0.445,0.7l0.063,1.721c0.014,0.383,0.303,0.681,0.647,0.744
				c-0.077,4.187-0.166,7.261-0.043,8.768c0,0,0.009,0.799,0.021,2.234c-0.996-1.753-2.007-3.556-2.916-5.359
				c-1.116-2.158-2.164-4.326-3.076-6.492C300.531,222.259,299.772,220.082,299.245,218.025z"/>
			<path style="opacity:0.65;fill:#FFFFFF;" d="M396.36,401.714c-6.756-0.283-12.534-1.279-18.826-3.703l-3.046-19.551
				c-0.069-0.446-0.406-0.792-0.818-0.897c-2.816-20.053-7.56-53.301-10.07-67.93c-3.574-20.826-19.334-75.604-19.334-75.604
				c0.545-3.353,0.969-6.561,1.302-9.643c0.152,0.145,0.406,0.08,0.433-0.138l0.284-2.299c0.016-0.124,0.005-0.244-0.035-0.365
				c-0.062-0.187-0.173-0.542-0.308-1.02c0.284-3.329,0.454-6.487,0.529-9.469c0.013,0.053,0.022,0.106,0.035,0.16
				c0.468,1.893,0.962,3.716,1.718,5.745c0.217,0.533,0.4,1.016,0.85,1.804c0.13,0.212,0.258,0.434,0.577,0.825
				c0.175,0.199,0.346,0.426,0.879,0.846c0.129,0.1,0.342,0.245,0.52,0.349c0.119,0.07,0.276,0.153,0.418,0.219
				c0.151,0.069,0.266,0.122,0.519,0.208c0.223,0.075,0.453,0.134,0.682,0.177c0.291,0.054,0.631,0.083,0.945,0.077
				c0.63,0.004,1.489-0.202,2.05-0.512c0.67-0.358,1.015-0.685,1.369-1.081c0.144-0.17,0.233-0.291,0.34-0.449
				c0.1-0.147,0.202-0.327,0.245-0.411c0.245-0.475,0.333-0.781,0.406-1.036c0.13-0.505,0.144-0.716,0.176-0.971
				c0.041-0.426,0.041-0.682,0.043-0.917c-0.001-0.872-0.055-1.392-0.11-1.96c-0.052-0.553-0.116-1.057-0.204-1.55
				c-0.317-2.013-0.699-3.897-1.122-5.792c-0.692-3.088-1.479-6.114-2.308-9.122l2.995-1.659c0,0-3.544-9.05-8.552-16.122
				c-2.152-3.039-4.773-4.824-7.266-5.398c-0.002-0.004-0.008-0.019-0.008-0.019s-0.021-0.006-0.035-0.009
				c-0.049-0.102-0.088-0.177-0.112-0.219c-0.019-0.035-0.039-0.056-0.073-0.076c-0.849-0.494-3.993-1.215-5.787-1.287
				c-0.148-0.006-0.236,0.135-0.196,0.27c-1.392-0.235-2.913-0.449-4.461-0.59c-4.362-1.033-5.367-3.741-5.22-6.718
				c0.016-0.382,0.055-0.769,0.106-1.158c0.017-0.124,0.037-0.247,0.056-0.371c4.047-0.014,7.878-2.865,8.774-7.296
				c0.406-2.005,0.531-4.439,0.29-6.9c0.556-1.628,0.492-3.702,0.001-5.612c0.016,0.003,0.037,0.007,0.052,0.01
				c0.387,0.077,0.7-0.28,0.592-0.668l-0.683-2.465c-0.05-0.182-0.188-0.315-0.361-0.376c-0.019-1.703-0.542-4.627-5.609-7.238
				c-6.749-3.478-18.47-2.206-20.097,3.805c-0.658,2.432,0.448,4.617,1.119,6.163c-0.103,0.036-0.199,0.064-0.303,0.101
				c-0.26,0.092-0.405,0.378-0.329,0.654l0.714,2.579c0.086,0.312,0.417,0.486,0.71,0.382c0.21-0.074,0.409-0.134,0.616-0.206
				c0.329,0.671,0.705,1.329,1.107,1.955c-1.055,0.803-1.369,2.362-0.686,3.759c0.82,1.68,2.326,2.852,3.77,3.365
				c0.348,0.124,0.668,0.173,0.961,0.17c1.046,5.199,1.835,13.024-1.24,16.063c-0.477,0.023-0.955,0.054-1.432,0.088
				c-0.131-0.187-0.32-0.317-0.547-0.31c-1.31,0.039-5.054,0.231-6.95,0.674c-0.286,0.067-0.46,0.319-0.451,0.591
				c-1.758,0.285-2.894,0.514-2.894,0.514c-6.481,0.948-13.113,23.526-13.113,23.526l1.547,0.856
				c-0.402,1.55-0.787,3.112-1.134,4.701c-0.56,2.511-1.042,5.032-1.308,7.894c-0.043,0.304-0.056,0.836-0.074,1.26
				c-0.028,0.456,0.006,0.871,0.021,1.301c0.011,0.435,0.062,0.837,0.11,1.245c0.04,0.413,0.109,0.808,0.187,1.192
				c0.296,1.554,0.718,2.997,1.219,4.352c0.988,2.72,2.284,5.15,3.646,7.473c2.39,3.956,5.09,7.499,8.111,10.868
				c0.525,2.464,2.74,4.363,2.74,4.363l2.332,5.47l0.154-0.05c0.034,17.895-0.14,47.789-1.524,63.398
				c-1.301,14.674-8.265,50.613-12.505,71.711l-0.228-0.02c-0.52-0.045-0.978,0.305-1.065,0.814l-3.997,23.643l-1.211,4.787
				c-0.197,0.779,0.407,1.527,1.217,1.604c3.366,0.319,5.158,0.302,9.401,0.603c2.61,0.185,7.85,1.099,11.455,1.099
				c3.525,0,3.944-3.564,2.457-3.887c-5.749-1.248-8.448-2.903-10.485-4.556l6.707-21.571c0.168-0.538-0.142-1.1-0.649-1.293
				c6.074-21.359,16.742-59.69,19.491-74.892c1.691-9.35,2.817-26.924,3.534-42.821c0.017,0.059,0.035,0.117,0.052,0.175
				c0.203,0.684,0.407,1.371,0.611,2.062c0.059,0.201,0.119,0.402,0.179,0.604c0.467,1.579,0.936,3.172,1.406,4.773
				c0.022,0.075,0.044,0.15,0.066,0.225c1.533,5.227,3.067,10.526,4.506,15.613c0-0.002,0-0.003,0-0.005
				c2.652,9.367,4.988,18.014,6.42,24.159c3.272,14.037,11.83,45.445,17.174,64.83c-0.348,0.228-0.532,0.661-0.424,1.103
				l5.24,21.411l0.304,7.356c-0.007,0.81,0.738,1.445,1.528,1.291c3.299-0.641,8.042-1.68,12.203-2.414
				c4.866-0.858,9.125-1.333,14.831-2.339C397.659,405.457,397.872,401.777,396.36,401.714z M299.245,218.025
				c-0.264-1.029-0.428-2.025-0.498-2.934c-0.023-0.231-0.034-0.453-0.033-0.66c-0.005-0.212-0.019-0.428,0.003-0.613
				c0.016-0.189,0.006-0.396,0.044-0.555c0.036-0.191,0.026-0.281,0.093-0.584c0.363-2.033,0.982-4.314,1.623-6.564
				c0.219-0.746,0.448-1.498,0.675-2.248l2.779,1.537c0,0,1.31-2.498,2.965-5.977c0.654,8.583,0.701,16.395,0.629,22.508
				c-0.113,0.066-0.22,0.123-0.315,0.161c-0.283,0.114-0.457,0.391-0.445,0.7l0.063,1.721c0.014,0.383,0.303,0.681,0.647,0.744
				c-0.077,4.187-0.166,7.261-0.043,8.768c0,0,0.009,0.799,0.021,2.234c-0.996-1.753-2.007-3.556-2.916-5.359
				c-1.116-2.158-2.164-4.326-3.076-6.492C300.531,222.259,299.772,220.082,299.245,218.025z"/>
		</g>
	</g>
</g>
<g id="Character_1_">
	<g>
		<polygon style="fill:#FFB573;" points="247.176,409.281 239.644,409.281 239.726,391.839 247.258,391.839 		"/>
		<polygon style="fill:#FFB573;" points="292.4,409.281 284.868,409.281 281.914,391.839 289.446,391.839 		"/>
		<path style="fill:#263238;" d="M284.374,408.409h8.462c0.308,0,0.564,0.214,0.617,0.514l1.168,6.695
			c0.121,0.694-0.456,1.352-1.167,1.339c-2.952-0.051-4.379-0.224-8.1-0.224c-2.289,0-8.464,0.238-11.626,0.238
			c-3.092,0-3.425-3.126-2.117-3.409c5.864-1.27,9.58-3.02,11.518-4.69C283.479,408.571,283.923,408.409,284.374,408.409z"/>
		<path style="fill:#263238;" d="M239.735,408.409h8.225c0.308,0,0.564,0.214,0.617,0.514l1.168,6.695
			c0.121,0.694-0.437,1.352-1.148,1.34c-2.965-0.05-7.244-0.224-10.974-0.224c-4.361,0-6.755,0.238-11.869,0.238
			c-3.092,0-3.801-3.126-2.493-3.409c5.954-1.289,9.389-1.427,14.631-4.567C238.462,408.655,239.085,408.409,239.735,408.409z"/>
		<path style="fill:#FFB573;" d="M246.449,174.71l-10.292-3.006c0,0-10.488,24.908-14.036,26.536
			c-4.828,2.215-14.136,3.738-20.394,4.632c-0.812,0.991-2.098,4.11-1.924,5.241c8.538,2.742,26.635,1.147,30.16-2.233
			C238.001,198.174,246.449,174.71,246.449,174.71z"/>
		<path style="fill:#407BFF;" d="M249.565,170.012c2.925,6.514-5.745,20.35-5.745,20.35l-15.398-6.682c0,0,2.862-10.308,7.52-18.613
			C240.723,156.539,246.355,162.863,249.565,170.012z"/>
		<path style="opacity:0.2;" d="M249.565,170.012c2.925,6.514-5.745,20.35-5.745,20.35l-15.398-6.682c0,0,2.862-10.308,7.52-18.613
			C240.723,156.539,246.355,162.863,249.565,170.012z"/>
		<path style="fill:#FFB573;" d="M202.997,202.793l-5.586-3.515l-3.091,9.179c0,0,1.978,0.926,7.423,0.025L202.997,202.793z"/>
		<polygon style="fill:#FFB573;" points="188.619,198.638 188.619,204.731 194.319,208.457 197.411,199.277 		"/>
		<g>
			<polygon style="opacity:0.2;" points="239.727,391.843 239.684,400.834 247.219,400.834 247.263,391.843 			"/>
			<polygon style="opacity:0.2;" points="289.449,391.843 281.914,391.843 283.44,400.834 290.975,400.834 			"/>
		</g>
		<path style="fill:#407BFF;" d="M239.992,161.116c0,0-10.048,25.883-3.625,68.241c12.139,0,34.38,0,40.287,0
			c0.573-6.184-1.801-39.49,5.554-68.629c0,0-6.839-1.386-13.405-1.703c-5.136-0.248-12.581-0.412-17.126,0.001
			C245.685,159.57,239.992,161.116,239.992,161.116z"/>
		<path style="opacity:0.2;" d="M239.992,161.116c0,0-10.048,25.883-3.625,68.241c12.139,0,34.38,0,40.287,0
			c0.573-6.184-1.801-39.49,5.554-68.629c0,0-6.839-1.386-13.405-1.703c-5.136-0.248-12.581-0.412-17.126,0.001
			C245.685,159.57,239.992,161.116,239.992,161.116z"/>
		<path style="fill:#FFFFFF;" d="M256.09,176.374h-3.101c-0.067,0-0.132-0.027-0.179-0.076c-0.048-0.048-0.073-0.114-0.071-0.181
			c0.168-6.123,1.264-10.818,1.274-10.865c0.032-0.133,0.167-0.218,0.301-0.186c0.134,0.032,0.218,0.166,0.186,0.301
			c-0.011,0.045-1.064,4.565-1.253,10.507h2.61c0.102-1.351,0.616-7.961,1.155-10.159c0.033-0.134,0.171-0.215,0.303-0.183
			c0.134,0.033,0.216,0.168,0.184,0.302c-0.579,2.36-1.154,10.229-1.16,10.308C256.33,176.273,256.221,176.374,256.09,176.374z"/>
		<path style="opacity:0.2;" d="M273.113,167.922c-0.9,4.795,0.066,16.269,4,29.527c0.501-10.204,1.679-22.035,4.397-33.823
			l0.003-0.057C278.871,163.298,273.97,163.427,273.113,167.922z"/>
		<path style="fill:#FFB573;" d="M267.329,143.008c-1.343,5.51-2.206,12.34,1.474,16.017c0,0-2.481,5.59-12.72,5.59
			c-9.356,0-4.406-5.589-4.406-5.589c6.215-1.467,6.257-9.066,5.391-13.348L267.329,143.008z"/>
		<path style="fill:#FFFFFF;" d="M256.09,164.614c0.955,3.821,7.233,3.821,7.233,3.821s7.511-3.053,7.228-9.68
			c0,0-1.768-1.081-2.883-1.959C267.669,156.796,267.011,161.96,256.09,164.614z"/>
		<path style="fill:#FFFFFF;" d="M256.09,164.614c-2.009,2.748-5.951,2.554-5.951,2.554s-2.428-1.591-0.372-8.143
			c0,0,1.673-0.687,3.333-1.044C253.1,157.982,252.113,163.196,256.09,164.614z"/>
		<path style="opacity:0.2;" d="M257.063,145.682c0.518,2.508,0.714,6.158-0.473,9.046c0.911-0.134,1.85-0.411,2.785-0.843
			c3.543-1.634,5.372-4.204,7.332-8.018c0.18-0.977,0.39-1.933,0.619-2.858L257.063,145.682z"/>
		<g>
			<path style="fill:#FFB573;" d="M248.491,139.655c0.583,1.906,2.001,3.322,3.47,4.012c2.211,1.038,3.814-0.903,3.617-3.252
				c-0.178-2.114-1.542-5.202-3.961-5.252C249.233,135.113,247.824,137.476,248.491,139.655z"/>
			<path style="opacity:0.2;" d="M248.491,139.655c0.583,1.906,2.001,3.322,3.47,4.012c2.211,1.038,3.814-0.903,3.617-3.252
				c-0.178-2.114-1.542-5.202-3.961-5.252C249.233,135.113,247.824,137.476,248.491,139.655z"/>
		</g>
		<path style="fill:#263238;" d="M255.783,124.653c-1.169,0.202-5.435,4.654-3.18,9.646
			C254.859,139.291,260.907,123.767,255.783,124.653z"/>
		<path style="fill:#FFB573;" d="M272.12,136.292c-2.345,7.223-3.358,11.554-7.97,14.516c-6.937,4.457-14.948-0.837-14.765-8.519
			c0.165-6.915,3.973-17.566,11.774-18.939C268.845,121.997,274.465,129.069,272.12,136.292z"/>
		<path style="fill:#263238;" d="M255.594,126.345c4.879,3.62,9.418,3.086,12.088,3.28c1.541,0.112,2.691,0.58,1.12,2.481
			c-1.571,1.901-0.895,5.705-0.895,5.705l-3.38,3.42l3.38,3.084l4.985-3.211c0,0,1.249-3.858,4.274-5.942
			c4.074-2.807,2.675-6.495-1.208-7.12c-6.002-4.698-11.25-12.583-17.978-10.215C254.328,119.113,252.844,124.304,255.594,126.345z"
			/>
		<path style="fill:#263238;" d="M256.02,143.936c2.377,0.188,3.857-1.191,3.924-1.256c0.072-0.068,0.076-0.181,0.009-0.251
			c-0.067-0.071-0.179-0.072-0.251-0.004c-0.017,0.016-1.701,1.588-4.302,1.064c-0.097-0.02-0.191,0.043-0.212,0.14
			c-0.022,0.096,0.039,0.19,0.135,0.209C255.563,143.886,255.796,143.918,256.02,143.936z"/>
		<path style="fill:#FFB573;" d="M273.272,145.071c-1.459,1.46-3.42,2.137-5.071,2.145c-2.484,0.012-2.959-2.383-1.627-4.398
			c1.199-1.813,3.936-4.005,6.12-3.049C274.844,140.71,274.939,143.402,273.272,145.071z"/>
		<path style="fill:#263238;" d="M262.845,229.356c0,0-1.022,9.468-2.337,22.309c-1.499,14.547-3.366,33.431-4.554,47.824
			c-0.002,0.072-0.013,0.134-0.015,0.196c-0.228,2.734-0.432,5.294-0.599,7.638c-1.686,23.47-5.625,91.772-5.625,91.772h-12.758
			c0,0-4.808-69.7-4.521-93.592c0.276-22.966,3.926-76.146,3.926-76.146H262.845z"/>
		<path style="fill:#407BFF;" d="M250.773,394.1c0.059,0-0.224,5.254-0.224,5.254h-14.707l-0.37-5.768L250.773,394.1z"/>
		<path style="opacity:0.2;" d="M260.508,251.665c-1.499,14.547-3.366,33.431-4.554,47.824c-0.002,0.072-0.013,0.134-0.015,0.196
			c-2.809-13.642-3.679-30.615-2.589-58.557L260.508,251.665z"/>
		<path style="fill:#263238;" d="M250.658,229.356c0,0,5.874,54.424,9.538,75.989c4.012,23.615,19.816,93.748,19.816,93.748h13.796
			c0,0-9.301-68.226-11.118-91.607c-1.972-25.376-6.036-78.13-6.036-78.13H250.658z"/>
		<path style="fill:#407BFF;" d="M294.004,394.414c0.059,0,0.478,4.94,0.478,4.94h-15.163l-1.106-5.511L294.004,394.414z"/>
		<path style="fill:#263238;" d="M260.672,135.952c-0.155,0.596-0.591,1.011-0.974,0.928c-0.383-0.084-0.568-0.635-0.413-1.231
			c0.155-0.596,0.591-1.011,0.974-0.928C260.642,134.805,260.827,135.356,260.672,135.952z"/>
		<path style="fill:#263238;" d="M254.049,134.505c-0.155,0.596-0.591,1.011-0.974,0.928c-0.383-0.084-0.568-0.635-0.413-1.231
			c0.155-0.596,0.591-1.011,0.974-0.928C254.019,133.358,254.204,133.909,254.049,134.505z"/>
		<path style="fill:#ED893E;" d="M256.077,135.262c0,0-2.227,3.147-4.125,4.486c0.781,1.211,2.66,1.146,2.66,1.146L256.077,135.262z
			"/>
		<path style="fill:#263238;" d="M263.233,134.216c-0.104-0.023-0.195-0.093-0.238-0.199c-0.603-1.448-1.887-1.649-1.901-1.65
			c-0.183-0.019-0.32-0.209-0.283-0.405c0.037-0.196,0.223-0.332,0.417-0.304c0.069,0.009,1.678,0.26,2.426,2.057
			c0.075,0.18-0.013,0.392-0.194,0.476C263.384,134.224,263.305,134.232,263.233,134.216z"/>
		<path style="fill:#263238;" d="M251.695,131.467c-0.049-0.014-0.097-0.04-0.136-0.078c-0.141-0.131-0.143-0.357-0.005-0.505
			c1.377-1.479,2.991-1.251,3.059-1.241c0.189,0.021,0.318,0.211,0.28,0.407c-0.038,0.195-0.225,0.329-0.417,0.301l0,0
			c-0.054-0.008-1.315-0.171-2.414,1.009C251.964,131.466,251.82,131.503,251.695,131.467z"/>
		<path style="fill:#FFB573;" d="M286.675,171.014l-9.517,5.752c0,0,11.878,23.259,10.563,26.897
			c-1.789,4.95-4.511,15.814-7.683,21.273c0.303,1.204,2.05,3.99,3.082,4.493c7.564-5.204,15.9-21.944,15.891-26.676
			C298.994,191.964,286.675,171.014,286.675,171.014z"/>
		<path style="fill:#407BFF;" d="M282.208,160.728c7.077,1.036,14.06,25.73,14.06,25.73l-15.37,8.454c0,0-6.031-11.745-8.866-20.466
			C269.061,165.308,274.617,159.616,282.208,160.728z"/>
		<path style="opacity:0.2;" d="M282.208,160.728c7.077,1.036,14.06,25.73,14.06,25.73l-15.37,8.454c0,0-6.031-11.745-8.866-20.466
			C269.061,165.308,274.617,159.616,282.208,160.728z"/>
		<path style="fill:#407BFF;" d="M281.82,409.724c-0.574,0-1.105-0.098-1.432-0.383c-0.259-0.227-0.368-0.545-0.324-0.944
			c0.032-0.297,0.197-0.438,0.329-0.505c0.845-0.426,3.211,1.065,3.478,1.236c0.059,0.039,0.087,0.11,0.073,0.181
			c-0.015,0.07-0.071,0.127-0.141,0.143C283.275,409.581,282.517,409.724,281.82,409.724z M280.776,408.166
			c-0.093,0-0.172,0.014-0.233,0.045c-0.049,0.025-0.107,0.071-0.122,0.209c-0.032,0.284,0.037,0.496,0.211,0.648
			c0.395,0.347,1.376,0.393,2.667,0.135C282.471,408.711,281.353,408.166,280.776,408.166z"/>
		<path style="fill:#407BFF;" d="M283.762,409.46c-0.029,0-0.058-0.007-0.084-0.021c-0.759-0.424-2.187-2.074-1.988-2.914
			c0.036-0.152,0.161-0.415,0.59-0.467c0.281-0.035,0.53,0.043,0.749,0.229c0.841,0.715,0.917,2.889,0.92,2.981
			c0.003,0.066-0.032,0.128-0.089,0.163C283.83,409.45,283.796,409.46,283.762,409.46z M282.388,406.406
			c-0.026,0-0.053,0.003-0.081,0.006c-0.233,0.028-0.259,0.135-0.269,0.18c-0.118,0.496,0.782,1.743,1.529,2.332
			c-0.057-0.636-0.237-1.902-0.777-2.361C282.667,406.458,282.535,406.406,282.388,406.406z"/>
		<path style="fill:#407BFF;" d="M236.54,409.726c-0.748,0-1.434-0.116-1.808-0.463c-0.238-0.22-0.337-0.513-0.292-0.868
			c0.026-0.212,0.136-0.376,0.317-0.474c0.938-0.514,3.893,1.024,4.228,1.201c0.065,0.035,0.1,0.109,0.085,0.184
			c-0.014,0.075-0.073,0.135-0.149,0.151C238.276,409.584,237.369,409.726,236.54,409.726z M235.251,408.166
			c-0.139,0-0.253,0.021-0.336,0.065c-0.073,0.04-0.11,0.098-0.121,0.191c-0.03,0.241,0.032,0.429,0.188,0.574
			c0.444,0.411,1.68,0.481,3.356,0.205C237.319,408.706,235.964,408.166,235.251,408.166z"/>
		<path style="fill:#407BFF;" d="M238.885,409.46c-0.025,0-0.049-0.006-0.072-0.015c-0.889-0.408-2.613-2.036-2.434-2.889
			c0.042-0.199,0.196-0.449,0.688-0.498c0.36-0.045,0.694,0.065,0.975,0.305c0.921,0.787,1.027,2.815,1.031,2.902
			c0.003,0.063-0.028,0.124-0.082,0.162C238.959,409.448,238.922,409.46,238.885,409.46z M237.193,406.406
			c-0.035,0-0.071,0.003-0.108,0.006c-0.323,0.033-0.349,0.159-0.358,0.201c-0.107,0.512,1.056,1.791,1.957,2.348
			c-0.068-0.592-0.279-1.806-0.883-2.322C237.62,406.483,237.42,406.406,237.193,406.406z"/>
		<path style="fill:#FFB573;" d="M281.31,224.598l-7.144-0.551l3.399,7.921c0,0,6.271,0.274,7.548-4.523L281.31,224.598z"/>
		<polygon style="fill:#FFB573;" points="268.168,227.659 271.606,234.665 277.565,231.968 274.166,224.048 		"/>
	</g>
</g>
<g id="Dartboard">
	<g>
		<g>
			<g>
				<g>
					<path style="fill:#407BFF;" d="M282.58,93.5c0.051-0.295,0.094-0.593,0.134-0.892c0.01-0.073,0.024-0.145,0.033-0.218
						c0.002-0.016,0.003-0.031,0.005-0.047c0.043-0.36,0.08-0.723,0.107-1.088c0.034-0.457,0.05-0.908,0.057-1.357
						c0.001-0.056,0.007-0.113,0.007-0.169c0-0.059-0.004-0.117-0.004-0.176c0.001-0.449-0.007-0.896-0.033-1.336
						c-0.001-0.009,0-0.019-0.001-0.028c-0.026-0.449-0.071-0.891-0.123-1.33c-0.006-0.054-0.008-0.109-0.015-0.163
						c-0.009-0.068-0.022-0.135-0.031-0.203c-0.032-0.234-0.069-0.466-0.108-0.697c-0.022-0.127-0.042-0.254-0.066-0.381
						c-0.05-0.263-0.106-0.522-0.165-0.78c-0.02-0.088-0.037-0.176-0.058-0.263c-0.083-0.342-0.174-0.681-0.273-1.015
						c-0.023-0.078-0.05-0.153-0.074-0.23c-0.079-0.255-0.162-0.509-0.25-0.759c-0.013-0.036-0.023-0.074-0.036-0.111
						c-0.018-0.05-0.041-0.096-0.059-0.145c-0.148-0.4-0.306-0.794-0.477-1.178c-0.015-0.034-0.028-0.069-0.044-0.102
						c-0.182-0.402-0.38-0.791-0.586-1.174c-0.043-0.081-0.087-0.161-0.131-0.241c-0.209-0.373-0.427-0.738-0.659-1.091
						c-0.037-0.056-0.076-0.11-0.113-0.166c-0.221-0.33-0.452-0.65-0.693-0.961c-0.025-0.033-0.047-0.068-0.073-0.101
						c-0.013-0.016-0.027-0.031-0.04-0.048c-0.204-0.258-0.415-0.511-0.632-0.755c-0.039-0.044-0.081-0.085-0.12-0.129
						c-0.181-0.199-0.365-0.394-0.555-0.583c-0.078-0.077-0.157-0.152-0.236-0.228c-0.158-0.152-0.319-0.301-0.483-0.446
						c-0.087-0.077-0.175-0.154-0.264-0.229c-0.17-0.144-0.342-0.282-0.517-0.418c-0.058-0.045-0.113-0.094-0.172-0.139
						c-0.02-0.015-0.042-0.028-0.062-0.043c-0.31-0.232-0.628-0.451-0.954-0.658c-0.07-0.045-0.141-0.087-0.212-0.13
						c-0.301-0.185-0.607-0.36-0.92-0.523c-0.034-0.018-0.066-0.04-0.101-0.057c-0.013-0.007-0.028-0.012-0.041-0.019
						c-0.3-0.153-0.606-0.294-0.917-0.426c-0.078-0.033-0.157-0.062-0.235-0.094c-0.24-0.097-0.482-0.189-0.727-0.273
						c-0.052-0.018-0.102-0.041-0.154-0.058c-0.054-0.018-0.111-0.031-0.166-0.049c-0.212-0.068-0.426-0.13-0.642-0.189
						c-0.103-0.028-0.204-0.057-0.308-0.083c-0.286-0.071-0.574-0.134-0.866-0.188c-0.029-0.005-0.058-0.014-0.087-0.019
						c-0.004-0.001-0.008-0.001-0.012-0.002c-0.324-0.058-0.653-0.103-0.984-0.14c-0.1-0.011-0.202-0.017-0.303-0.027
						c-0.235-0.021-0.472-0.039-0.711-0.05c-0.054-0.002-0.106-0.009-0.16-0.011c-0.174-0.006-0.348-0.009-0.524-0.009l-3.082-0.001
						c0.23,0,0.457,0.01,0.684,0.02c0.239,0.011,0.475,0.028,0.711,0.05c0.101,0.009,0.203,0.016,0.303,0.027
						c0.332,0.037,0.66,0.082,0.984,0.14c0.033,0.006,0.066,0.014,0.099,0.021c0.292,0.054,0.581,0.117,0.866,0.188
						c0.103,0.026,0.205,0.055,0.308,0.083c0.216,0.059,0.43,0.121,0.642,0.189c0.107,0.034,0.214,0.07,0.32,0.107
						c0.245,0.085,0.487,0.176,0.727,0.273c0.078,0.032,0.158,0.061,0.235,0.094c0.311,0.132,0.616,0.274,0.916,0.426
						c0.048,0.024,0.094,0.052,0.142,0.077c0.313,0.163,0.62,0.339,0.92,0.523c0.071,0.043,0.142,0.086,0.212,0.13
						c0.326,0.207,0.644,0.426,0.954,0.658c0.079,0.059,0.156,0.121,0.234,0.182c0.175,0.136,0.348,0.275,0.517,0.418
						c0.089,0.075,0.177,0.152,0.264,0.229c0.164,0.145,0.324,0.294,0.483,0.446c0.079,0.076,0.159,0.15,0.236,0.228
						c0.189,0.189,0.374,0.384,0.555,0.583c0.04,0.044,0.081,0.085,0.12,0.129c0.217,0.244,0.428,0.497,0.632,0.755
						c0.038,0.049,0.075,0.099,0.113,0.148c0.24,0.311,0.471,0.632,0.692,0.961c0.038,0.056,0.076,0.11,0.113,0.166
						c0.232,0.353,0.45,0.718,0.659,1.092c0.044,0.08,0.088,0.16,0.131,0.241c0.207,0.383,0.404,0.773,0.587,1.174
						c0.015,0.034,0.029,0.068,0.044,0.102c0.171,0.384,0.329,0.778,0.477,1.178c0.032,0.085,0.065,0.17,0.095,0.256
						c0.089,0.25,0.171,0.503,0.25,0.759c0.024,0.077,0.051,0.152,0.074,0.23c0.099,0.334,0.19,0.672,0.273,1.015
						c0.021,0.087,0.038,0.176,0.058,0.263c0.059,0.258,0.115,0.517,0.165,0.78c0.024,0.126,0.044,0.254,0.066,0.381
						c0.039,0.231,0.076,0.463,0.108,0.697c0.017,0.121,0.032,0.243,0.046,0.366c0.053,0.439,0.097,0.881,0.123,1.33
						c0.001,0.009,0.001,0.019,0.001,0.028c0.025,0.44,0.033,0.887,0.033,1.336c0,0.115-0.001,0.23-0.003,0.345
						c-0.007,0.449-0.023,0.9-0.057,1.357c-0.027,0.365-0.064,0.728-0.107,1.088c-0.011,0.089-0.026,0.176-0.037,0.265
						c-0.04,0.299-0.083,0.597-0.134,0.892c-0.023,0.132-0.048,0.262-0.073,0.394c-0.047,0.252-0.098,0.504-0.154,0.753
						c-0.03,0.135-0.061,0.27-0.093,0.404c-0.063,0.263-0.132,0.524-0.204,0.783c-0.031,0.113-0.061,0.228-0.094,0.34
						c-0.107,0.366-0.221,0.73-0.345,1.088c-0.006,0.018-0.013,0.035-0.02,0.053c-0.128,0.368-0.267,0.729-0.412,1.087
						c-0.044,0.11-0.091,0.219-0.137,0.328c-0.119,0.282-0.244,0.561-0.373,0.836c-0.044,0.093-0.086,0.187-0.131,0.28
						c-0.206,0.424-0.425,0.84-0.655,1.248c-0.047,0.083-0.095,0.165-0.143,0.248c-0.24,0.414-0.488,0.821-0.751,1.216
						c-0.028,0.043-0.059,0.083-0.087,0.125c-0.177,0.261-0.358,0.519-0.544,0.771c-0.072,0.097-0.145,0.191-0.218,0.287
						c-0.151,0.198-0.305,0.394-0.462,0.585c-0.081,0.099-0.163,0.198-0.245,0.295c-0.165,0.195-0.334,0.386-0.506,0.574
						c-0.073,0.08-0.144,0.161-0.218,0.24c-0.245,0.261-0.494,0.517-0.75,0.764c-0.029,0.028-0.06,0.054-0.089,0.082
						c-0.229,0.218-0.461,0.43-0.698,0.636c-0.087,0.076-0.176,0.149-0.264,0.223c-0.186,0.156-0.374,0.309-0.564,0.458
						c-0.098,0.076-0.195,0.152-0.294,0.226c-0.198,0.149-0.399,0.293-0.602,0.433c-0.087,0.06-0.173,0.122-0.26,0.181
						c-0.289,0.194-0.582,0.381-0.88,0.558c-0.026,0.015-0.052,0.029-0.078,0.044c-0.273,0.16-0.55,0.313-0.83,0.458
						c-0.099,0.051-0.198,0.099-0.298,0.148c-0.213,0.106-0.428,0.208-0.645,0.305c-0.11,0.049-0.22,0.097-0.331,0.144
						c-0.222,0.094-0.447,0.183-0.672,0.268c-0.098,0.037-0.196,0.076-0.295,0.111c-0.322,0.114-0.647,0.221-0.975,0.316
						c-0.015,0.004-0.03,0.007-0.044,0.011c-0.313,0.089-0.63,0.168-0.948,0.238c-0.106,0.023-0.213,0.043-0.32,0.064
						c-0.233,0.047-0.466,0.089-0.701,0.126c-0.119,0.018-0.238,0.035-0.357,0.051c-0.238,0.031-0.476,0.056-0.716,0.077
						c-0.108,0.009-0.215,0.021-0.323,0.028c-0.344,0.023-0.689,0.037-1.036,0.037l3.082,0.001c0.347,0,0.692-0.014,1.036-0.037
						c0.108-0.007,0.215-0.019,0.323-0.028c0.239-0.021,0.478-0.046,0.715-0.077c0.119-0.016,0.238-0.033,0.357-0.051
						c0.235-0.036,0.469-0.079,0.701-0.126c0.106-0.021,0.214-0.041,0.32-0.064c0.318-0.071,0.635-0.149,0.948-0.238
						c0.015-0.004,0.03-0.007,0.044-0.011c0.328-0.094,0.653-0.201,0.976-0.316c0.099-0.035,0.197-0.074,0.295-0.111
						c0.226-0.085,0.45-0.173,0.672-0.268c0.111-0.047,0.221-0.095,0.331-0.144c0.217-0.097,0.431-0.2,0.645-0.306
						c0.099-0.049,0.199-0.097,0.297-0.148c0.28-0.146,0.557-0.298,0.83-0.458c0.026-0.015,0.052-0.029,0.078-0.044
						c0.298-0.177,0.59-0.364,0.88-0.558c0.088-0.059,0.173-0.121,0.26-0.181c0.203-0.141,0.404-0.285,0.602-0.433
						c0.099-0.074,0.197-0.15,0.294-0.226c0.191-0.149,0.378-0.302,0.564-0.458c0.088-0.074,0.177-0.147,0.264-0.223
						c0.237-0.206,0.47-0.418,0.698-0.636c0.029-0.028,0.06-0.054,0.089-0.083c0.256-0.247,0.505-0.502,0.75-0.764
						c0.074-0.078,0.145-0.16,0.217-0.24c0.172-0.189,0.341-0.38,0.507-0.575c0.082-0.097,0.163-0.195,0.244-0.294
						c0.158-0.193,0.312-0.389,0.464-0.588c0.072-0.095,0.145-0.188,0.216-0.284c0.188-0.254,0.37-0.513,0.548-0.776
						c0.024-0.036,0.051-0.07,0.075-0.106c0.003-0.005,0.006-0.01,0.009-0.015c0.263-0.395,0.511-0.802,0.751-1.216
						c0.048-0.082,0.096-0.165,0.143-0.248c0.23-0.408,0.449-0.824,0.655-1.248c0.013-0.027,0.029-0.053,0.042-0.081
						c0.031-0.065,0.058-0.133,0.089-0.199c0.129-0.275,0.254-0.554,0.373-0.836c0.046-0.109,0.093-0.218,0.137-0.328
						c0.145-0.358,0.284-0.72,0.412-1.087c0.005-0.015,0.012-0.03,0.017-0.045c0.001-0.003,0.002-0.005,0.003-0.008
						c0.124-0.358,0.238-0.722,0.345-1.088c0.033-0.113,0.063-0.227,0.094-0.34c0.072-0.259,0.14-0.52,0.204-0.783
						c0.015-0.063,0.034-0.125,0.049-0.188c0.017-0.071,0.028-0.145,0.044-0.216c0.056-0.249,0.106-0.5,0.154-0.753
						C282.532,93.763,282.557,93.632,282.58,93.5z"/>
				</g>
				<g style="opacity:0.3;">
					<path d="M282.58,93.5c0.051-0.295,0.094-0.593,0.134-0.892c0.01-0.073,0.024-0.145,0.033-0.218
						c0.002-0.016,0.003-0.031,0.005-0.047c0.043-0.36,0.08-0.723,0.107-1.088c0.034-0.457,0.05-0.908,0.057-1.357
						c0.001-0.056,0.007-0.113,0.007-0.169c0-0.059-0.004-0.117-0.004-0.176c0.001-0.449-0.007-0.896-0.033-1.336
						c-0.001-0.009,0-0.019-0.001-0.028c-0.026-0.449-0.071-0.891-0.123-1.33c-0.006-0.054-0.008-0.109-0.015-0.163
						c-0.009-0.068-0.022-0.135-0.031-0.203c-0.032-0.234-0.069-0.466-0.108-0.697c-0.022-0.127-0.042-0.254-0.066-0.381
						c-0.05-0.263-0.106-0.522-0.165-0.78c-0.02-0.088-0.037-0.176-0.058-0.263c-0.083-0.342-0.174-0.681-0.273-1.015
						c-0.023-0.078-0.05-0.153-0.074-0.23c-0.079-0.255-0.162-0.509-0.25-0.759c-0.013-0.036-0.023-0.074-0.036-0.111
						c-0.018-0.05-0.041-0.096-0.059-0.145c-0.148-0.4-0.306-0.794-0.477-1.178c-0.015-0.034-0.028-0.069-0.044-0.102
						c-0.182-0.402-0.38-0.791-0.586-1.174c-0.043-0.081-0.087-0.161-0.131-0.241c-0.209-0.373-0.427-0.738-0.659-1.091
						c-0.037-0.056-0.076-0.11-0.113-0.166c-0.221-0.33-0.452-0.65-0.693-0.961c-0.025-0.033-0.047-0.068-0.073-0.101
						c-0.013-0.016-0.027-0.031-0.04-0.048c-0.204-0.258-0.415-0.511-0.632-0.755c-0.039-0.044-0.081-0.085-0.12-0.129
						c-0.181-0.199-0.365-0.394-0.555-0.583c-0.078-0.077-0.157-0.152-0.236-0.228c-0.158-0.152-0.319-0.301-0.483-0.446
						c-0.087-0.077-0.175-0.154-0.264-0.229c-0.17-0.144-0.342-0.282-0.517-0.418c-0.058-0.045-0.113-0.094-0.172-0.139
						c-0.02-0.015-0.042-0.028-0.062-0.043c-0.31-0.232-0.628-0.451-0.954-0.658c-0.07-0.045-0.141-0.087-0.212-0.13
						c-0.301-0.185-0.607-0.36-0.92-0.523c-0.034-0.018-0.066-0.04-0.101-0.057c-0.013-0.007-0.028-0.012-0.041-0.019
						c-0.3-0.153-0.606-0.294-0.917-0.426c-0.078-0.033-0.157-0.062-0.235-0.094c-0.24-0.097-0.482-0.189-0.727-0.273
						c-0.052-0.018-0.102-0.041-0.154-0.058c-0.054-0.018-0.111-0.031-0.166-0.049c-0.212-0.068-0.426-0.13-0.642-0.189
						c-0.103-0.028-0.204-0.057-0.308-0.083c-0.286-0.071-0.574-0.134-0.866-0.188c-0.029-0.005-0.058-0.014-0.087-0.019
						c-0.004-0.001-0.008-0.001-0.012-0.002c-0.324-0.058-0.653-0.103-0.984-0.14c-0.1-0.011-0.202-0.017-0.303-0.027
						c-0.235-0.021-0.472-0.039-0.711-0.05c-0.054-0.002-0.106-0.009-0.16-0.011c-0.174-0.006-0.348-0.009-0.524-0.009l-3.082-0.001
						c0.23,0,0.457,0.01,0.684,0.02c0.239,0.011,0.475,0.028,0.711,0.05c0.101,0.009,0.203,0.016,0.303,0.027
						c0.332,0.037,0.66,0.082,0.984,0.14c0.033,0.006,0.066,0.014,0.099,0.021c0.292,0.054,0.581,0.117,0.866,0.188
						c0.103,0.026,0.205,0.055,0.308,0.083c0.216,0.059,0.43,0.121,0.642,0.189c0.107,0.034,0.214,0.07,0.32,0.107
						c0.245,0.085,0.487,0.176,0.727,0.273c0.078,0.032,0.158,0.061,0.235,0.094c0.311,0.132,0.616,0.274,0.916,0.426
						c0.048,0.024,0.094,0.052,0.142,0.077c0.313,0.163,0.62,0.339,0.92,0.523c0.071,0.043,0.142,0.086,0.212,0.13
						c0.326,0.207,0.644,0.426,0.954,0.658c0.079,0.059,0.156,0.121,0.234,0.182c0.175,0.136,0.348,0.275,0.517,0.418
						c0.089,0.075,0.177,0.152,0.264,0.229c0.164,0.145,0.324,0.294,0.483,0.446c0.079,0.076,0.159,0.15,0.236,0.228
						c0.189,0.189,0.374,0.384,0.555,0.583c0.04,0.044,0.081,0.085,0.12,0.129c0.217,0.244,0.428,0.497,0.632,0.755
						c0.038,0.049,0.075,0.099,0.113,0.148c0.24,0.311,0.471,0.632,0.692,0.961c0.038,0.056,0.076,0.11,0.113,0.166
						c0.232,0.353,0.45,0.718,0.659,1.092c0.044,0.08,0.088,0.16,0.131,0.241c0.207,0.383,0.404,0.773,0.587,1.174
						c0.015,0.034,0.029,0.068,0.044,0.102c0.171,0.384,0.329,0.778,0.477,1.178c0.032,0.085,0.065,0.17,0.095,0.256
						c0.089,0.25,0.171,0.503,0.25,0.759c0.024,0.077,0.051,0.152,0.074,0.23c0.099,0.334,0.19,0.672,0.273,1.015
						c0.021,0.087,0.038,0.176,0.058,0.263c0.059,0.258,0.115,0.517,0.165,0.78c0.024,0.126,0.044,0.254,0.066,0.381
						c0.039,0.231,0.076,0.463,0.108,0.697c0.017,0.121,0.032,0.243,0.046,0.366c0.053,0.439,0.097,0.881,0.123,1.33
						c0.001,0.009,0.001,0.019,0.001,0.028c0.025,0.44,0.033,0.887,0.033,1.336c0,0.115-0.001,0.23-0.003,0.345
						c-0.007,0.449-0.023,0.9-0.057,1.357c-0.027,0.365-0.064,0.728-0.107,1.088c-0.011,0.089-0.026,0.176-0.037,0.265
						c-0.04,0.299-0.083,0.597-0.134,0.892c-0.023,0.132-0.048,0.262-0.073,0.394c-0.047,0.252-0.098,0.504-0.154,0.753
						c-0.03,0.135-0.061,0.27-0.093,0.404c-0.063,0.263-0.132,0.524-0.204,0.783c-0.031,0.113-0.061,0.228-0.094,0.34
						c-0.107,0.366-0.221,0.73-0.345,1.088c-0.006,0.018-0.013,0.035-0.02,0.053c-0.128,0.368-0.267,0.729-0.412,1.087
						c-0.044,0.11-0.091,0.219-0.137,0.328c-0.119,0.282-0.244,0.561-0.373,0.836c-0.044,0.093-0.086,0.187-0.131,0.28
						c-0.206,0.424-0.425,0.84-0.655,1.248c-0.047,0.083-0.095,0.165-0.143,0.248c-0.24,0.414-0.488,0.821-0.751,1.216
						c-0.028,0.043-0.059,0.083-0.087,0.125c-0.177,0.261-0.358,0.519-0.544,0.771c-0.072,0.097-0.145,0.191-0.218,0.287
						c-0.151,0.198-0.305,0.394-0.462,0.585c-0.081,0.099-0.163,0.198-0.245,0.295c-0.165,0.195-0.334,0.386-0.506,0.574
						c-0.073,0.08-0.144,0.161-0.218,0.24c-0.245,0.261-0.494,0.517-0.75,0.764c-0.029,0.028-0.06,0.054-0.089,0.082
						c-0.229,0.218-0.461,0.43-0.698,0.636c-0.087,0.076-0.176,0.149-0.264,0.223c-0.186,0.156-0.374,0.309-0.564,0.458
						c-0.098,0.076-0.195,0.152-0.294,0.226c-0.198,0.149-0.399,0.293-0.602,0.433c-0.087,0.06-0.173,0.122-0.26,0.181
						c-0.289,0.194-0.582,0.381-0.88,0.558c-0.026,0.015-0.052,0.029-0.078,0.044c-0.273,0.16-0.55,0.313-0.83,0.458
						c-0.099,0.051-0.198,0.099-0.298,0.148c-0.213,0.106-0.428,0.208-0.645,0.305c-0.11,0.049-0.22,0.097-0.331,0.144
						c-0.222,0.094-0.447,0.183-0.672,0.268c-0.098,0.037-0.196,0.076-0.295,0.111c-0.322,0.114-0.647,0.221-0.975,0.316
						c-0.015,0.004-0.03,0.007-0.044,0.011c-0.313,0.089-0.63,0.168-0.948,0.238c-0.106,0.023-0.213,0.043-0.32,0.064
						c-0.233,0.047-0.466,0.089-0.701,0.126c-0.119,0.018-0.238,0.035-0.357,0.051c-0.238,0.031-0.476,0.056-0.716,0.077
						c-0.108,0.009-0.215,0.021-0.323,0.028c-0.344,0.023-0.689,0.037-1.036,0.037l3.082,0.001c0.347,0,0.692-0.014,1.036-0.037
						c0.108-0.007,0.215-0.019,0.323-0.028c0.239-0.021,0.478-0.046,0.715-0.077c0.119-0.016,0.238-0.033,0.357-0.051
						c0.235-0.036,0.469-0.079,0.701-0.126c0.106-0.021,0.214-0.041,0.32-0.064c0.318-0.071,0.635-0.149,0.948-0.238
						c0.015-0.004,0.03-0.007,0.044-0.011c0.328-0.094,0.653-0.201,0.976-0.316c0.099-0.035,0.197-0.074,0.295-0.111
						c0.226-0.085,0.45-0.173,0.672-0.268c0.111-0.047,0.221-0.095,0.331-0.144c0.217-0.097,0.431-0.2,0.645-0.306
						c0.099-0.049,0.199-0.097,0.297-0.148c0.28-0.146,0.557-0.298,0.83-0.458c0.026-0.015,0.052-0.029,0.078-0.044
						c0.298-0.177,0.59-0.364,0.88-0.558c0.088-0.059,0.173-0.121,0.26-0.181c0.203-0.141,0.404-0.285,0.602-0.433
						c0.099-0.074,0.197-0.15,0.294-0.226c0.191-0.149,0.378-0.302,0.564-0.458c0.088-0.074,0.177-0.147,0.264-0.223
						c0.237-0.206,0.47-0.418,0.698-0.636c0.029-0.028,0.06-0.054,0.089-0.083c0.256-0.247,0.505-0.502,0.75-0.764
						c0.074-0.078,0.145-0.16,0.217-0.24c0.172-0.189,0.341-0.38,0.507-0.575c0.082-0.097,0.163-0.195,0.244-0.294
						c0.158-0.193,0.312-0.389,0.464-0.588c0.072-0.095,0.145-0.188,0.216-0.284c0.188-0.254,0.37-0.513,0.548-0.776
						c0.024-0.036,0.051-0.07,0.075-0.106c0.003-0.005,0.006-0.01,0.009-0.015c0.263-0.395,0.511-0.802,0.751-1.216
						c0.048-0.082,0.096-0.165,0.143-0.248c0.23-0.408,0.449-0.824,0.655-1.248c0.013-0.027,0.029-0.053,0.042-0.081
						c0.031-0.065,0.058-0.133,0.089-0.199c0.129-0.275,0.254-0.554,0.373-0.836c0.046-0.109,0.093-0.218,0.137-0.328
						c0.145-0.358,0.284-0.72,0.412-1.087c0.005-0.015,0.012-0.03,0.017-0.045c0.001-0.003,0.002-0.005,0.003-0.008
						c0.124-0.358,0.238-0.722,0.345-1.088c0.033-0.113,0.063-0.227,0.094-0.34c0.072-0.259,0.14-0.52,0.204-0.783
						c0.015-0.063,0.034-0.125,0.049-0.188c0.017-0.071,0.028-0.145,0.044-0.216c0.056-0.249,0.106-0.5,0.154-0.753
						C282.532,93.763,282.557,93.632,282.58,93.5z"/>
				</g>
			</g>
			<g>
				<g style="enable-background:new    ;">
					<g>
						<path style="fill:#FFFFFF;" d="M263.364,75.108c7.786,0.003,13.556,7.233,12.893,16.145
							c-0.664,8.919-7.51,16.144-15.295,16.14c-7.779-0.003-13.55-7.233-12.886-16.152
							C248.739,82.329,255.585,75.104,263.364,75.108z M261.263,103.355c5.839,0.002,10.972-5.414,11.47-12.104
							c0.497-6.682-3.83-12.103-9.669-12.105c-5.833-0.002-10.965,5.414-11.463,12.096
							C251.104,97.932,255.43,103.352,261.263,103.355"/>
					</g>
					<g>
						<path style="fill:#407BFF;" d="M246.579,78.246l-0.822-0.569c0.73-1.057,1.542-2.062,2.41-2.987l0.728,0.685
							C248.061,76.264,247.282,77.23,246.579,78.246z M251.337,73.113l-0.625-0.78c3.882-3.112,8.358-4.756,12.946-4.756v1
							C259.301,68.577,255.04,70.146,251.337,73.113z"/>
						<path style="fill:#407BFF;" d="M263.664,71.077c9.732,0.004,16.941,9.035,16.112,20.177
							c-0.829,11.142-9.382,20.174-19.114,20.17c-9.726-0.004-16.934-9.043-16.105-20.185
							C245.386,80.098,253.939,71.073,263.664,71.077z M260.963,107.393c7.786,0.003,14.632-7.221,15.295-16.14
							c0.663-8.912-5.108-16.142-12.893-16.145c-7.779-0.003-14.625,7.221-15.288,16.133
							C247.413,100.16,253.184,107.39,260.963,107.393"/>
					</g>
					<g>
						<path style="fill:#FFFFFF;" d="M262.764,83.177c3.893,0.002,6.775,3.62,6.444,8.072c-0.332,4.46-3.751,8.068-7.644,8.067
							c-3.886-0.002-6.775-3.613-6.443-8.073C255.451,86.791,258.878,83.176,262.764,83.177z M261.863,95.285
							c1.947,0.001,3.66-1.807,3.826-4.037c0.166-2.23-1.279-4.032-3.225-4.033c-1.94-0.001-3.653,1.8-3.819,4.03
							C258.479,93.475,259.923,95.284,261.863,95.285"/>
					</g>
					<g>
						<path style="fill:#407BFF;" d="M262.464,87.216c1.946,0.001,3.391,1.803,3.225,4.033c-0.166,2.23-1.879,4.038-3.826,4.037
							c-1.94-0.001-3.384-1.81-3.218-4.04C258.811,89.016,260.524,87.215,262.464,87.216z"/>
					</g>
					<g>
						<path style="fill:#407BFF;" d="M263.064,79.146c5.839,0.002,10.166,5.423,9.669,12.105c-0.498,6.689-5.63,12.106-11.47,12.104
							c-5.833-0.002-10.159-5.423-9.662-12.112C252.098,84.56,257.231,79.144,263.064,79.146z M261.564,99.316
							c3.893,0.002,7.312-3.607,7.644-8.067c0.331-4.452-2.551-8.071-6.444-8.072c-3.886-0.002-7.313,3.614-7.644,8.067
							C254.788,95.704,257.677,99.315,261.564,99.316"/>
					</g>
				</g>
			</g>
		</g>
		<g>
			<path style="fill:#263238;" d="M262.091,91.751c-0.05,0-0.1-0.007-0.15-0.023l-30.13-9.47c-0.263-0.083-0.409-0.364-0.326-0.627
				c0.082-0.263,0.36-0.409,0.627-0.327l30.13,9.47c0.263,0.083,0.409,0.364,0.326,0.627
				C262.501,91.614,262.304,91.751,262.091,91.751z"/>
			<path style="fill:#263238;" d="M234.511,83.082c-0.15,0-0.3-0.068-0.397-0.197l-3.094-4.066c-0.168-0.22-0.125-0.533,0.095-0.701
				c0.22-0.167,0.534-0.125,0.7,0.095l3.094,4.066c0.168,0.22,0.125,0.533-0.095,0.701
				C234.723,83.049,234.616,83.082,234.511,83.082z"/>
			<path style="fill:#263238;" d="M237.609,84.057c-0.15,0-0.3-0.068-0.398-0.197l-3.094-4.066c-0.168-0.22-0.125-0.533,0.095-0.701
				c0.22-0.167,0.534-0.125,0.7,0.095l3.094,4.066c0.168,0.22,0.125,0.533-0.095,0.701
				C237.821,84.023,237.715,84.057,237.609,84.057z"/>
			<path style="fill:#263238;" d="M240.708,85.03c-0.15,0-0.3-0.068-0.397-0.197l-3.094-4.066c-0.168-0.22-0.125-0.533,0.095-0.701
				c0.22-0.167,0.534-0.125,0.7,0.095l3.094,4.066c0.168,0.22,0.125,0.533-0.095,0.701C240.92,84.997,240.814,85.03,240.708,85.03z"
				/>
			<path style="fill:#263238;" d="M231.417,85.204c-0.159,0-0.315-0.076-0.412-0.217c-0.156-0.228-0.099-0.539,0.129-0.695
				l3.094-2.122c0.23-0.155,0.54-0.099,0.695,0.13c0.156,0.228,0.099,0.539-0.129,0.695l-3.094,2.121
				C231.613,85.176,231.515,85.204,231.417,85.204z"/>
			<path style="fill:#263238;" d="M234.516,86.178c-0.159,0-0.315-0.076-0.412-0.217c-0.156-0.228-0.099-0.539,0.129-0.695
				l3.094-2.121c0.23-0.155,0.54-0.098,0.695,0.13c0.156,0.228,0.099,0.539-0.129,0.695l-3.094,2.121
				C234.712,86.149,234.613,86.178,234.516,86.178z"/>
			<path style="fill:#263238;" d="M237.614,87.152c-0.159,0-0.316-0.076-0.412-0.217c-0.156-0.228-0.099-0.539,0.129-0.695
				l3.094-2.121c0.229-0.156,0.54-0.099,0.695,0.129c0.156,0.228,0.099,0.539-0.129,0.695l-3.094,2.122
				C237.811,87.123,237.712,87.152,237.614,87.152z"/>
		</g>
	</g>
</g>
</svg>
