<?xml version="1.0" encoding="utf-8"?>
<!-- Generator: Adobe Illustrator 27.5.0, SVG Export Plug-In . SVG Version: 6.00 Build 0)  -->
<svg version="1.1" xmlns="http://www.w3.org/2000/svg" xmlns:xlink="http://www.w3.org/1999/xlink" x="0px" y="0px"
	 viewBox="0 0 500 500" style="enable-background:new 0 0 500 500;" xml:space="preserve">
<g id="BACKGROUND">
	<rect style="fill:#FFFFFF;" width="500" height="500"/>
</g>
<g id="OBJECTS">
	<g>
		<defs>
			<rect id="SVGID_1_" width="500" height="500"/>
		</defs>
		<clipPath id="SVGID_00000163767136181666252880000003356619325919583113_">
			<use xlink:href="#SVGID_1_"  style="overflow:visible;"/>
		</clipPath>
		<g style="clip-path:url(#SVGID_00000163767136181666252880000003356619325919583113_);">
			<g>
				<g>
					<path style="fill:#F3BB9F;" d="M214.669,241.863c4.405,3.515,8.456,9.526,4.43,14.827
						c-11.082,17.673-24.344,34.271-41.414,46.508c-3.507,2.423-7.68,6.143-12.244,4.82c-7.469-5.302-9.218-19.879-11.562-28.392
						c-1.371-8.007-4.495-16.872-2.535-24.852c2.469-2.039,5.301-3.62,7.819-5.565c-1.362-3.451-3.044-6.779-4.208-10.304
						c-28.999,18.202-29.885,3.577-41.348-20.781c-3.035,0.098-12.273,1.465-12.53-2.684c2.389-5.189,4.629-10.496,6.58-15.885
						c1.036-3.08,2.155-6.339,1.767-9.627c-3.54-13.887-6.399-29.986,1.39-42.898c-0.346-0.816,0.997-1.833,1.438-2.464
						c27.179-19.366,54.179,14.846,63.229,38.37c13.266-20.031,23.582,5.625,14.673,18.053c1.914,1.009,3.778,2.121,5.693,3.132
						c0.628-0.88,1.498-0.031,1.641,0.831c0.471,0.2,0.558,0.664,0.397,1.023c4.3,11.019,8.147,22.231,13.087,32.983
						C212.136,240.009,213.427,240.904,214.669,241.863z"/>
					<path style="fill:#472B51;" d="M119.42,229.571c-0.847-1.894,5.538-3.809,7.021-4.084c1.816-0.217,9.369-0.566,9.559,1.551
						c-0.134,0.505-0.669,0.661-1.127,0.513c-5.138-1.179-9.746-1.094-14.173,2.016C120.34,229.904,119.755,230.003,119.42,229.571z
						"/>
					<path style="fill:#472B51;" d="M119.63,201.392c-1.326-1.091,2.356-3.414,2.549-4.827c-0.456-0.837-3.829-11.168-0.598-9.06
						c0.62,2.51,1.152,5.086,2.046,7.51c5.249-0.739,10.011-3.113,14.513-5.798c0.608-0.484,1.68-0.332,1.6,0.606
						c-0.247,0.887-1.205,1.392-1.821,2.026c-3.932,3.555-8.81,5.579-13.804,7.186C123.136,199.927,121.205,201.899,119.63,201.392z
						"/>
					<path style="fill:#472B51;" d="M117.41,179.773c-0.832-0.145-1.666-0.348-2.5-0.615c-3.287-1.054-2.961-4.896,0.898-4.39
						c7.452,0.211,14.778-1.148,22.104-2.284c6.882-0.542-2.104,4.229-3.955,4.846C128.559,179.128,123.014,180.75,117.41,179.773z"
						/>
					<path style="fill:#472B51;" d="M178.118,192.082c0.168-3.857,3.42-9.108,7.767-8.729c0.423,0.032,0.721,0.476,0.669,0.875
						c-0.059,0.45-0.472,0.711-0.899,0.666C179.551,184.739,180.217,195.284,178.118,192.082z"/>
					<path style="fill:#472B51;" d="M157.737,245.754c-1.467-1.108-2.162-2.988-3.136-4.507c-0.427-0.926-1.886-2.415-0.286-2.893
						c5.567-3.863,11.423-7.392,16.932-11.28c4.853-0.684-8.246,12.826-9.069,14.337
						C160.837,242.455,159.551,246.268,157.737,245.754z"/>
					<path style="fill:#472B51;" d="M201.35,150.731c0.028,0.004,0.059,0.006,0.087,0.008
						C201.407,150.737,201.379,150.735,201.35,150.731z"/>
					<g>
						<path style="fill:#FF8043;" d="M220.753,150.253c0.397,3.523-2.295,3.285-4.049,1.372c0.727,3.304,3.211,17.817-3.575,12.101
							c0.101,15.855-2.206,31.533-7.14,46.534c-0.614,1.294-1.809,5.791-3.586,5.663c-5.095-2.145-8.926-6.394-13.415-9.593
							c-2.127-1.282-3.603-2.4-1.185-4.425c4.381-4.864,6.932-12.166,4.027-18.379c-1.861-4.128-6.438-9.437-10.878-6.03
							c-3.099,2.246-6.063,4.734-6.885,8.488c-1.151,1.001-9.061,5.657-11.287,4.977c-1.202-4.959-2.495-16.78-2.495-16.78
							s-7.47-3.064-10.833-4.757c-2.296-0.837-3.341-11.499-6.37-12.187c-11.218-2.55-15.368-2.148-24.922-6.985
							c8.318,17.128-22.524-1.26-20.611-7.846c5.723-13.748,35.041-24.314,48.579-27.41c15.551-3.121,38.856-6.433,52.969,0.027
							C210.488,122.413,220.262,136.687,220.753,150.253z"/>
						<path style="fill:#472B51;" d="M206.229,208.48c-1.533-0.247,2.169-9.821,2.089-11.904c-0.008,0.032-0.014,0.067-0.022,0.101
							c1.929-9.514,3.89-19.112,3.815-28.861c4.372-5.04-1.426,25.541-1.955,27.515c0.002-0.01,0.006-0.022,0.008-0.032
							C209.379,197.481,208.266,208.477,206.229,208.48z"/>
						<path style="fill:#472B51;" d="M160.605,174.781c1.393-1.292-9.775-5.94-10.927-5.72c-1.011-0.134-1.212,1.388-0.213,1.542
							c3.262,0.835,6.569,2.053,9.338,4.033c0.011,0.049,0.025,0.099,0.046,0.151c2.02,4.487,2.767,9.406,3.189,14.303
							C165.527,192.722,161.985,178.068,160.605,174.781z"/>
						<path style="fill:#472B51;" d="M101.791,136.141c25.256-21.605,64.093-29.905,96.648-22.407
							c0.406,0.091,0.667,0.521,0.577,0.933c-0.713,1.435-3.874-0.363-5.239-0.278C161.171,107.209,128.695,119.376,101.791,136.141
							z"/>
						<path style="fill:#472B51;" d="M208.107,149.303c-2.756,0.64-12.026-1.684-12.951,0.615c0.349,2.194,2.858,3.647,3.239,5.928
							c-3.779,0.293-7.596-0.757-11.101-2.075c-1.903-0.715-3.759-1.552-5.577-2.463c-1.353-0.678-2.871-2.296-4.43-2.423
							c-1.737-0.142-1.399,0.987-0.457,1.899c1.001,0.968,2.09,1.902,2.786,3.124c-0.004,2.993-21.565-0.175-24.431-0.786
							c-1.884-0.162-9.669-2.137-10.52-0.514c-0.598,1.24,1.029,2.54,0.768,3.877c-10.591-0.912-22.443-4.559-31.251-10.563
							c-0.553-0.571-1.531,0.028-1.295,0.781c7.468,6.318,22.104,10.266,31.827,11.364c2.836,0.391,2.573-2.641,1.515-4.542
							c4.013-0.332,40.412,8.214,34.194-1.116c4.535,2.364,9.434,4.187,14.451,4.926c6.132,0.968,6.338-1.633,2.156-6.843
							C198.318,150.191,212.122,152.283,208.107,149.303z"/>
						<path style="fill:#472B51;" d="M219.233,148.131c-1.955-12.279-6.485-17.925-14.682-26.701
							c-0.608-0.802,0.602-1.75,1.236-0.946c8.083,8.598,12.891,14.72,14.856,26.723
							C221.263,148.398,219.786,149.638,219.233,148.131z"/>
					</g>
					<path style="fill:#472B51;" d="M211.43,240.054c-0.334-1.67-13.664-27.943-8.43-23.66c2.488,6.388,5.302,12.66,8.021,18.954
						c0.246,1.423,2.75,4.046,1.429,5.117C212.066,240.633,211.611,240.444,211.43,240.054z"/>
					<path style="fill:#472B51;" d="M108.87,218.518c-1.366-0.214-9.543-0.089-7.237-2.595c3.399,0.794,7.207,1.367,10.764,0.91
						c0.731-0.14,1.497-0.28,1.692,0.559C113.722,219.164,110.291,218.302,108.87,218.518z"/>
					<path style="fill:#472B51;" d="M180.157,204.903c-1.357-0.17-3.15-0.395-3.9-1.671c-0.215-0.778,0.804-1.321,1.331-0.723
						c1.517,1.041,3.667,1.001,5.413,0.784c9.334-2.271,10.972-15.309,6.838-22.643c-2.889-4.271-7.417-4.85-10.691-0.622
						c-0.456,0.482-0.782,1.475-1.613,1.031c-1.143-0.869,0.616-2.135,1.177-2.844C195.288,164.894,200.491,206.512,180.157,204.903
						z"/>
				</g>
				<g>
					<path style="fill:#ABDBF5;" d="M281.813,289.534c6.763,42.007-3.216,98.611-4.066,140.168
						c-0.794,38.825-3.724,61.053-7.431,96.176c-0.024,5.434-20.622,2.163-24.808,3.413c-39.755,7.323-89.648-3.355-129.606-4.723
						c-4.443-0.145-8.883,0.007-13.324-0.157c-3.207-0.111-4.722,0.344-4.87-3.821c0.556-16.069,1.978-32.184,4.086-48.126
						c1.874-12.357,5.255-24.495,5.237-37.083c0.093-11.772,0.302-12.667-4.556-21.597c-6.531-12.004-30.284-0.964-29.758,14.339
						c-0.109,2.356,5.553,14.37,0.98,14.076c-11.034-0.711-18.459-21.983-15.537-32.665c1.091-6.813,5.236-9.528,5.399-16.451
						c0.413-3.099,1.949-5.946,3.752-8.408c1.527-10.677,2.342-21.444,4.12-32.082c3.442-20.622,9.512-47.907,21.107-65.767
						c16.017-19.614,35.134-22.419,58.705-37.433c1.505-0.958,4.998-2.753,6.001-1.274c3.171,4.401,3.063,10.415,4.431,15.54
						c2.171,10.318,5.032,20.47,8.196,30.524c0.395-0.046,2.554-3.055,2.451-2.544c13.182-17.829,39.309-52.922,40.781-53.581
						c2.762-2.685,13.335,9.618,15.909,11.395c19.055,9.897,41.795,17.316,51.763,38.064
						C281.679,287.659,281.44,288.89,281.813,289.534z"/>
					<path style="fill:#F3BB9F;" d="M217.135,378.229c0.013,0.02,0.024,0.04,0.034,0.061
						C217.157,378.27,217.147,378.25,217.135,378.229z"/>
					<g>
						<path style="fill:#ABDBF5;" d="M224.495,246.723c-4.247,13.332-9.695,26.327-12.536,40.098
							c-0.418,1.546-6.578,24.262-8.288,18.761c-8.881-5.224-19.542-11.9-27.999-17.612c-2.659-0.454,2.902-4.637,3.425-5.735
							c5.578-6.336,11.268-12.852,16.154-19.73c6.598-8.198,10.593-17.855,17.579-26.082
							C215.004,233.87,225.275,244.276,224.495,246.723z"/>
						<path style="fill:#472B51;" d="M164.52,301.925c-1.344-1.107,2.509-4.58,3.053-5.895c8.88-12.372,19.326-23.521,28.462-35.692
							c5.04-6.635,9.353-13.774,14.092-20.615c0.933-0.843,1.852-3.401,3.304-2.612c0.596,0.665-0.099,1.2-0.549,1.678
							c-3.063,3.616-5.379,7.79-8.041,11.697c-11.488,17.848-26.782,32.814-38.721,50.331
							C165.714,301.412,165.31,302.367,164.52,301.925z"/>
						<path style="fill:#472B51;" d="M201.418,305.905c-6.949-4.664-13.803-10.008-20.757-14.339
							c0.349-4.233,20.5,13.425,23.81,14.416c6.725-18.124,10.661-37.436,16.907-55.822c0.276-0.947,1.753-0.602,1.498,0.413
							c-4.884,16.069-9.813,32.13-14.128,48.366C207.407,302.648,206.63,310.873,201.418,305.905z"/>
					</g>
					<g>
						<path style="fill:#ABDBF5;" d="M164.201,274.125c0.602,2.362,2.056,5.928-0.733,7.4c-7.883,3.906-15.398,8.488-22.963,12.952
							c-4.179,2.499-4.428,0.837-3.898-3.232c1.192-11.925,1.938-23.989,4.545-35.718c1.042-4.69,12.29-12.495,16.486-7.709
							C160.472,256.395,161.459,265.502,164.201,274.125z"/>
						<path style="fill:#472B51;" d="M135.871,296.662c-1.388-0.667-0.61-2.938-0.707-4.19c0.563-12.309,2.281-24.65,5.492-36.553
							c0.245-0.906,1.643-0.654,1.524,0.306c-3.404,12.682-5.174,25.868-5.555,38.984c8.744-3.463,16.778-8.866,24.929-13.548
							c4.762,0.275-6.476,5.358-7.354,6.136C148.193,290.631,142.501,295.858,135.871,296.662z"/>
						<path style="fill:#472B51;" d="M166.291,285.195c-3.031-12.198-5.58-24.521-8.541-36.729c0.014,0.035,0.021,0.077,0.045,0.107
							c1.322-5.03,3.343,7.801,3.667,8.847c1.404,6.724,2.919,13.423,4.621,20.081C166.2,278.688,169.523,288.037,166.291,285.195z"
							/>
					</g>
					<path style="fill:#472B51;" d="M155.841,378.105c0.018-20.255,1.935-40.497,5.693-60.399c0.176-0.96,1.679-0.733,1.534,0.251
						c-3.736,19.811-5.66,39.988-5.67,60.148C157.38,379.092,155.859,379.148,155.841,378.105z"/>
					<path style="fill:#472B51;" d="M110.024,343.204c-0.429-0.059-0.709-0.456-0.667-0.877c1.231-9.043,2.237-18.172,4.311-27.07
						c0.652-3.897,3.056-2.865,2.059-1.25c-2.509,8.034-2.982,16.538-4.368,24.809C110.839,340.101,111.684,342.895,110.024,343.204
						z"/>
					<path style="fill:#472B51;" d="M64.574,400.258c-0.662-0.723,0.265-1.398,0.837-1.781c10.022-6.727,22.911-8.682,34.729-7.004
						c0.987,0.152,0.808,1.672-0.213,1.542C87.528,390.706,74.9,394.647,64.574,400.258z"/>
					<path style="fill:#472B51;" d="M63.338,424.77c-0.407-0.057-0.739-0.46-0.664-0.877c1.956-10.057,7.409-19.994,16.47-25.238
						c0.877-0.49,1.663,0.822,0.786,1.343c-8.479,4.895-13.556,14.096-15.589,23.445C64.271,424.043,64.078,424.888,63.338,424.77z"
						/>
					<path style="fill:#472B51;" d="M69.105,385.583c0.098-2.121,8.736-1.954,10.716-2.345c1.471,0.253,5.03-1.168,5.564,0.519
						c0,0.436-0.355,0.762-0.778,0.778c-4.991,0.198-9.852,0.522-14.712,1.6C69.548,386.136,69.255,386.008,69.105,385.583z"/>
					<path style="fill:#472B51;" d="M251.362,408.18c-6.396-5.194-14.062-9.01-22.318-9.913c-1.01,0.151-1.274-1.369-0.247-1.537
						c4.834,0.32,9.585,1.997,13.969,4.01C243.853,401.134,256.439,408.396,251.362,408.18z"/>
					<path style="fill:#472B51;" d="M262.553,392.677c-6.864-2.411-14.264-3.853-21.503-2.727c-0.835-0.255-0.695-1.394,0.136-1.556
						c4.021-0.681,8.182-0.405,12.196,0.219C254.518,388.861,267.076,391.215,262.553,392.677z"/>
					<path style="fill:#472B51;" d="M157.664,504.484c-0.863-19.563-4.23-41.698-0.616-60.227c0.887,0.132,0.64,1.151,0.584,1.722
						c-0.885,18.411-0.18,36.882,1.335,55.235c-0.173,1.193,0.971,3.365-0.425,3.935
						C158.137,505.208,157.693,504.907,157.664,504.484z"/>
					<path style="fill:#472B51;" d="M86.299,300.913c2.425-16.303,19.703-27.643,33.602-35.206c0.868-0.486,1.674,0.819,0.785,1.343
						c-10.667,5.788-21.491,12.616-28.332,22.884C90.538,291.696,87.885,301.458,86.299,300.913z"/>
					<path style="fill:#472B51;" d="M174.892,316.136c-4.332-2.065-0.398-8.379,3.371-5.435
						C181.208,312.942,178.194,317.738,174.892,316.136z"/>
					<path style="fill:#472B51;" d="M169.125,358.939c-4.332-2.065-0.398-8.379,3.371-5.435
						C175.441,355.745,172.427,360.541,169.125,358.939z"/>
					<path style="fill:#472B51;" d="M169.125,464.077c-4.332-2.065-0.398-8.379,3.371-5.435
						C175.441,460.883,172.427,465.678,169.125,464.077z"/>
					<path style="fill:#472B51;" d="M98.105,516.357c1.469-21.561,2.964-43.175,5.763-64.591c0.161-0.658,0.451-1.72,1.34-1.379
						c-1.357,17.357-3.533,36.182-4.803,54.07C99.912,505.75,100.465,520.884,98.105,516.357z"/>
					<g>
						<path style="fill:#F3BB9F;" d="M226.767,455.616c-16.251,0.343-29.104-2.418-44.221-8.234
							c-10.221-3.145-23.529-8.88-34.443-9.573c-1.4-0.089-3.916,1.464-5.253,1.953c-2.039,0.745-4.083,1.475-6.136,2.179
							c-4.515,1.55-9.07,2.987-13.68,4.225c-9.255,2.486-18.967,4.404-28.595,3.838c-11.811-0.695-18.849-5.551-24.206-14.182
							c-2.709-4.365-2.321-13.666,0.549-17.837c10.61-15.42,29.138-19.841,46.491-23.006
							c32.968-6.014,101.453-18.718,102.211-18.209c0.217,6.713-3.527,20.751-4.911,26.446c0.322-1.327,22.533,11.191,24.377,12.816
							c10.315,9.093,8.427,15.176,2.723,25.15C237.842,447.878,234.691,455.448,226.767,455.616z"/>
						<path style="fill:#472B51;" d="M147.399,437.81c10.383-6.447,24.872-10.896,36.17-17.139h-0.002
							c11.079-5.658,22.25-11.019,32.959-17.343c0.855-0.496,1.671,0.804,0.786,1.345c-21.608,12.385-44.189,22.973-67.01,32.908
							C149.422,437.808,147.91,439.31,147.399,437.81z"/>
						<g>
							<path style="fill:#F3BB9F;" d="M140.249,392.498c0.982-0.644-6.366,0.352-8.291,0.755
								c-7.592,1.589-12.882,4.207-21.415,2.814c-6.177-2.408-10.403-6.806-13.484-11.598l-0.099,0.055
								c-9.789-17.741-10.485-14.063-28.041-19.808c-0.784-0.436-2.378-0.792-2.198-1.913c-0.81-3.067,5.64-3.215,7.706-3.251
								c-7.315-1.334-17.073-6.612-3.134-7.854c-13.941-1.028-8.214-5.656,1.501-6.706c-20.773-5.066,26.185-11.442,34.189-1.912
								v0.002h0.002v0.002h0.002c0.378,0.297,0.758,0.588,1.12,0.902c0.237,0.199,0.472,0.405,0.725,0.583l0.002-0.002
								c0.038,0.024,0.079,0.044,0.122,0.059c0.18,0.257,0.288,0.529,0.233,0.778C119.525,359.789,127.254,380.072,140.249,392.498z
								"/>
							<path style="fill:#472B51;" d="M96.021,346.881c-7.585-1.173-15.287-1.076-22.931-1.538
								c-0.588,0.043-0.906-0.371-0.922-0.784c-0.014-0.395,0.249-0.792,0.823-0.784C74.668,344.244,101.768,343.873,96.021,346.881
								z"/>
							<path style="fill:#472B51;" d="M95.841,354.895c-2.437-0.253-4.864-0.695-7.222-0.974c0.007,0.003,0.025,0.004,0.032,0.006
								c-5.911-0.796-11.872-1.195-17.803-1.738c-0.989-0.205-0.711-1.712,0.294-1.527
								C72.712,351.102,101.669,352.323,95.841,354.895z"/>
							<path style="fill:#472B51;" d="M91.662,362.952c-5.843-0.906-11.868-1.807-17.712-2.374c-0.855,0.195-1.72-0.734-0.912-1.414
								c6.223-0.094,12.622,1.499,18.857,2.249C92.921,361.584,92.626,363.109,91.662,362.952z"/>
							<path style="fill:#472B51;" d="M109.594,396.16c-20.378-9.053-9.47-23.427-35.084-28.603c-0.9-0.536-2.784-0.269-2.816-1.556
								c0.061-0.403,0.47-0.738,0.885-0.653c9.864,2.832,19.191,4.78,23.333,15.381c2.735,5.181,4.429,8.062,9.49,11.292
								c1.527,1.029,3.079,2.054,4.807,2.709C111.167,395.152,110.462,396.575,109.594,396.16z"/>
						</g>
						<path style="fill:#472B51;" d="M210.791,408.207c-0.702,0.328-1.416,0.634-2.126,0.948c3.398,0.902,6.611,2.46,9.674,4.218
							C221.979,413.057,216.24,410.038,210.791,408.207z"/>
						<path style="fill:#472B51;" d="M219.483,404.923c0.142-0.97,1.251-0.677,1.909-0.476
							c11.546,3.521,21.202,12.279,27.366,22.501c0.505,0.861-0.785,1.683-1.33,0.809
							C241.387,416.686,230.356,409.385,219.483,404.923z"/>
						<path style="fill:#472B51;" d="M76.47,412.881c-2.366-1.523,8.306-7.646,9.641-8.266
							c21.494-11.067,46.163-12.957,69.645-16.995c0.977-0.147,1.225,1.405,0.213,1.542c-25.216,4.463-52.445,5.979-74.564,20.086
							c0.006-0.004,0.012-0.008,0.018-0.012C79.828,409.826,77.752,413.232,76.47,412.881z"/>
					</g>
					<path style="fill:#472B51;" d="M214.572,398.992c4.604-21.115,9.241-42.279,15.139-63.056c0.255-0.628,0.697-1.636,1.527-1.169
						c-3.879,16.973-8.782,35.277-12.652,52.788C217.91,388.762,216.245,403.815,214.572,398.992z"/>
				</g>
			</g>
			<g>
				<g>
					<path style="fill:#D75B5B;" d="M403.686,521.708c3.679,4.819-40.624,4.891-44.551,5.033
						c-35.496-1.238-104.567-2.802-105.271-2.898c-1.493-0.53-1.007-5.493-1.242-7.154c2.807-25.508,8.63-52.907,20.851-75.649
						c6.245-12.391,20.955-11.641,32.665-15.086c19.461-3.29,51.501-10.435,67.761,2.805c2.496,2.081,10.384,8.479,8.384,11.818
						c5.15,11.463,8.727,23.516,11.793,35.675C397.967,489.693,403.213,520.376,403.686,521.708z"/>
					<path style="fill:#472B51;" d="M252.814,517.728c-1.55-0.782-0.067-4.293-0.263-5.844c1.882-19.707,6.26-39.358,14.14-57.56
						c0.591-0.936,1.89-0.046,1.251,0.899c-8.139,19.046-12.546,39.603-14.179,60.209
						C253.602,516.242,253.998,517.743,252.814,517.728z"/>
					<path style="fill:#472B51;" d="M400.64,512.601c-0.605-4.357-1.275-8.722-2.079-13.038c0.001,0.02,0.007,0.042,0.009,0.062
						c-3.312-16.943-7.701-33.792-14.154-49.768c0.143-0.877,1.491-0.82,1.516,0.092c6.699,15.545,10.553,32.128,13.984,48.655
						C399.926,499.981,404.051,516.699,400.64,512.601z"/>
				</g>
				<g>
					<g>
						<path style="fill:#72300E;" d="M391.652,198.6c0.155,22.279-2.51,45.781-8.453,66.849c-2.765,1.228-9.4-3.651-12.645-4.401
							c-7.474-3.228-15.175-5.944-22.739-8.77c-0.993-1.248,0.707-3.027,0.994-4.364c2.164-5.089,3.761-10.354,5.531-15.577
							c6.837-16.975,11.421-35.095,20.773-50.934c2.603-4.635,10.532-12.804,14.366-5.119c0.898,0.095,0.67,1.216,0.864,1.871
							C391.573,184.899,391.642,191.764,391.652,198.6z"/>
						<path style="fill:#472B51;" d="M383.515,264.7c-1.281-0.709,0.14-2.717,0.102-3.844c1.288-6.256,2.069-12.6,2.962-18.919
							c1.207-12.566,4.052-25.227,3.589-37.846c-0.064-0.603-0.226-1.487,0.585-1.612c2.717,1.603-0.052,16.586-0.272,20.184
							c-1.681,12.847-2.865,25.777-5.381,38.499C384.613,262.228,385.068,264.73,383.515,264.7z"/>
					</g>
					<path style="fill:#CF9364;" d="M319.817,419.973c-14.281-0.221-32.343-2.194-38.878-16.892
						c-9.069,2.086-28.678,18.215-35.473,7.843c-9.649-22.116-16.166-45.955-18.637-69.992
						c-1.618-23.117,5.113-49.662,29.416-57.802c41.376-20.8,41.83-18.633,41.752-66.09c-14.777-3.529-15.298-37.558,2.005-26.787
						c4.464-13.64,15.336-26.835,30.091-29.282c21.92-4.074,44.733,8.201,50.439,30.359c2.662,7.05,0.134,15.663-2.353,21.935
						c-6.482,19.913-14.185,42.717-36.41,49.02c0.312,0.328-1.344,6.567-0.854,7.838c0.868,1.291,6.393,3.466,7.579,3.839
						c7.306,3.99,15.78,4.186,23.319,7.419c8.994,4.648,13.852,10.887,19.846,18.848c8.493,10.66,13.496,26.112,13.967,39.509
						c0.732,14.198,0.834,28.452,0.181,42.656c-1.037,10.164-20.436,12.393-28.377,15.611
						C375.663,415.556,334.052,420.094,319.817,419.973z"/>
					<path style="fill:#472B51;" d="M300.434,203.058c-0.067-3.06-3.366-9.297-6.322-4.917c-0.166,0.401-0.603,0.646-1.024,0.466
						c-1.645-0.923,1.661-3.595,2.806-3.474C300.958,194.039,303.711,206.641,300.434,203.058z"/>
					<path style="fill:#472B51;" d="M339.897,266.869c-14.407-2.902-29.634-12.662-34.121-27.207c0.04-0.72,1.185-1.068,1.657,0.015
						c6.072,10.935,18.353,17.921,30.102,21.144c1.093,0.688,4.23,1.031,4.23,1.031S341.938,267.062,339.897,266.869z"/>
					<g>
						<path style="fill:#472B51;" d="M341.083,234.328c-1.008-0.297-0.589-1.827,0.427-1.554c2.62,0.821,5.924,0.991,8.249-0.518
							c-0.022,0.028-0.045,0.051-0.069,0.079c0.642-0.929-0.406-2.151-0.605-3.124c-2.032-6.604-0.689-15.093,4.286-20.066
							c0.848-0.504,1.695,0.71,0.908,1.327c-5.061,5.732-5.568,13.821-2.822,20.728
							C352.341,235.515,343.781,235.433,341.083,234.328z"/>
						<path style="fill:#472B51;" d="M346.281,243.786c-5.182-4.202-12.318-2.52-18.286-3.205
							c-2.192-2.68,11.818-1.265,13.078-0.839c1.26,0.255,7.476,2.142,6.337,3.898C347.149,243.98,346.614,244.067,346.281,243.786z
							"/>
						<path style="fill:#472B51;" d="M330.453,216.302c-9.569-1.697-10.026-13.51-5.548-8.639c2.936,3.958,8.01,5.34,12.694,4.334
							C343.045,212.303,333.91,217.607,330.453,216.302z"/>
						<path style="fill:#472B51;" d="M336.097,197.83c-2.352-0.122-13.309-2.135-13.43-4.566c-0.233-0.573,0.37-1.246,0.973-1.052
							c6.406,1.783,13.113,1.677,19.688,1.548c1.276,0.034,2.825-0.225,3.779,0.761C348.982,197.914,339.218,198.198,336.097,197.83
							z"/>
						<path style="fill:#472B51;" d="M376.167,211.386c-2.648-1.066-13.349-5.786-12.564-9.084c0.645-1.689,2.758-0.86,3.777,0.014
							c3.096,2.666,6.018,5.677,9.602,7.674C377.924,210.561,377.005,211.9,376.167,211.386z"/>
						<path style="fill:#472B51;" d="M365.456,225.646c-2.339-0.172-4.672-1.165-6.278-2.899c-0.836-0.852-3.81-4.198-1.408-4.658
							c1.789-1.113,5.239,3.875,8.615,3.592C373.854,220.356,370.21,225.758,365.456,225.646z"/>
					</g>
					<g>
						<path style="fill:#72300E;" d="M391.438,188.998c-1.052,4.587-5.845,17.523-10.638,19.295
							c-5.398-3.64-10.428-8.253-15.176-12.793c6.812,12.586-12.677-2.928-13.511-6.13c-8.384-2.556-15.565-8.241-20.273-15.603
							c-4.894,8.756-15.97,18.741-25.827,20.952c-1.854-0.777-3.054-2.786-4.95-3.621c-16.683-7.34-14.924,17.016-5.325,23.261
							c1.119,1.222,3.806,3.264,3.806,3.264s1.844,19.207,3.877,28.618c0.249,0.559-0.146,1.291-0.802,1.188
							c-2.432-1.333-5.186-1.958-7.81-2.841c-7.464-2.523-14.732-5.606-21.879-8.91c-3.724,0.145-2.281-8.512-2.68-11.051
							c-2.35-41.849,8.797-97.625,60.478-95.721C364.522,123.291,390.902,159.381,391.438,188.998z"/>
						<path style="fill:#472B51;" d="M353.481,191.951c-1.913-2.277-9.816-12.65-8.26-15.004c0.841-0.303,1.053,0.546,1.298,1.147
							c1.303,2.928,2.833,5.699,4.635,8.342c1.068,1.528,2.159,3.049,3.401,4.441C355.258,191.622,354.127,192.637,353.481,191.951z
							"/>
						<path style="fill:#472B51;" d="M373.665,203.005c-2.375-0.106-22.167-25.639-15.417-22.481
							c3.956,8.076,9.389,15.569,16.344,21.279C375.39,202.452,374.385,203.607,373.665,203.005z"/>
						<path style="fill:#472B51;" d="M384.164,207.793c-1.539-0.422,0.545-7.671,0.065-9.56c-0.003-7.407-1.459-14.725-3.968-21.654
							c-0.245-0.951,1.196-1.368,1.463-0.403c3.474,9.515,4.89,19.828,3.433,29.887C385.07,206.741,385.1,207.898,384.164,207.793z"
							/>
						<path style="fill:#472B51;" d="M308.649,193.742c-0.75-1.379,8.133-5.41,9.51-7.103c5.343-3.828,9.383-8.868,12.827-14.379
							c6.351-2.753-10.588,16.004-12.428,15.972C316.783,189.16,309.972,195.061,308.649,193.742z"/>
						<path style="fill:#472B51;" d="M300.883,186.141c-0.825-1.602,5.674-6.577,6.865-8.267c0.961-0.588,9.753-10.869,8.533-6.153
							c-4.878,4.635-9.705,9.327-14.225,14.314C301.787,186.418,301.213,186.476,300.883,186.141z"/>
						<path style="fill:#472B51;" d="M270.737,233.85c-2.972-23.057-0.393-47.35,7.609-69.173c0.521-0.886,1.849-0.122,1.298,0.808
							c-7.438,20.11-9.616,42.11-8.072,63.423c-0.227,1.496,1.507,4.842,0.041,5.564C271.211,234.538,270.81,234.264,270.737,233.85
							z"/>
					</g>
				</g>
				<path style="fill:#CF9364;" d="M412.748,365.514c2.487,13.69,0.167,60.354-7.008,71.626
					c-13.624,8.574-56.761-6.007-72.563-10.509c-7.69,6.183-16.021,11.588-24.453,16.683c-11.533,7.229-22.905,11.864-37.069,8.326
					c-0.595,1.318-1.997-0.313-2.697-0.783c-0.735-0.366-1.483-0.552-1.354-1.23c-8.767-11.161-27.406-35.406-26.234-49.509
					c1.641-2.605,4.533-4.157,7.043-5.824c9.236-5.7,18.66-11.83,29.207-14.652c11.776-4.213,23.545,0.699,34.836,4.019
					c8.715,1.962,17.399,3.775,26.136,5.473c3.334,0.96,7.891,0.35,10.668,2.09c10.685,2.467,21.996,2.574,32.303,6.59
					c0.406-8.007-0.339-16.202,1.829-23.999c1.625-7.336,12.289-7.472,18.286-8.75C404.384,364.589,410.897,363.011,412.748,365.514
					z"/>
				<g>
					<path style="fill:#CF9364;" d="M257.989,422.95c0.338,6.274-2.628,12.584-4.102,18.679c-0.748,2.26-3.085,10.593-6.442,8.415
						c-3.683-4.429-0.536-12.984-0.067-18.344c-2.155,4.66-4.194,9.669-8.08,13.181c-4.564,2.664-4.166-4.32-3.481-7
						c-3.552,4.423-6.486,1.994-5.928-2.974c1.174-7.402,4.633-14.237,8.34-20.654c-2.581,2.825-18.938,13.335-17.534,3.954
						c1.855-5.433,16.66-15.218,22.377-15.887c2.782-0.415,3.909,0.418,5.171,2.825C251.67,410.959,255.183,416.831,257.989,422.95z
						"/>
					<path style="fill:#472B51;" d="M235.328,439.023c-2.646-0.296,10.951-29.35,10.611-21.452
						c-4.345,6.092-7.007,13.22-9.38,20.265C236.419,438.494,236.085,439.298,235.328,439.023z"/>
					<path style="fill:#472B51;" d="M240.831,443.076c-0.373-0.19-0.559-0.69-0.346-1.066c2.849-4.98,5.966-9.969,7.927-15.359
						c0.069-0.448,0.504-0.769,0.955-0.673c1.734,0.966-1.095,4.338-1.424,5.797C246.685,433.694,242.677,443.382,240.831,443.076z"
						/>
					<path style="fill:#472B51;" d="M251.974,446.868c-0.526-0.261-0.489-0.89-0.232-1.327c1.351-3.664,2.497-7.502,2.735-11.409
						c0.031-0.43,0.417-0.765,0.847-0.734c1.309,0.156,0.481,2.305,0.504,3.19C255.408,438.226,253.969,447.604,251.974,446.868z"/>
					<path style="fill:#472B51;" d="M228.223,419.94c-0.745-1.296,5.405-3.834,6.476-4.948c1.434-0.533,4.767-4.317,5.954-2.916
						c0.363,1.551-3.788,2.933-4.845,4.082C234.313,416.758,229.229,421.412,228.223,419.94z"/>
				</g>
				<path style="fill:#472B51;" d="M399.966,318.529c-6.466-14.333-13.371-26.199-26.826-35.018
					c-0.625-0.591-2.31-0.866-1.811-1.991c11.471,3.89,20.249,17.227,25.983,28.037
					C397.672,310.669,403.946,321.116,399.966,318.529z"/>
				<g>
					<path style="fill:#D75B5B;" d="M382.058,348.901c0.186,0.348,0.057,0.787-0.273,1.012
						c-7.049,6.393-10.013,15.932-12.754,24.722c-2.009,6.804,0.214,5.481-6.456,9.129c-1.5,0.665-18.01,10.078-16.617,6.217
						c-21.754-0.039-41.904-11.496-63.638-11.417c-0.997-0.163-4.143,1.683-4.249,1.325c-2.07-8.739-4.942-19.576-6.527-28.412
						c-1.659-0.151-1.083-2.914-1.027-3.872c1.993-14.926,2.504-29.466,0.493-44.463c0.303-4.74-5.208-26.799-2.05-27.459
						c0.787-1.396,7.069-4.443,6.879-1.857c0.48-0.244,1.07,0.16,1.072,0.69c0.629,2.319,1.724,4.457,2.6,6.683
						c6.508,15.414,14.991,30.775,27.696,41.902c15.722,14.163,42.035,7.958,43.11-14.984c0.484-10.692-0.482-21.41-1.4-32.035
						c-0.242-1.291-0.242-3.104,1.423-2.847c6.083,0.937,7.62,10.361,10.302,16.137c2.418,8.692,8.267,17.105,9.633,25.689
						C375.782,325.705,380.171,337.022,382.058,348.901z"/>
					<path style="fill:#472B51;" d="M379.763,342.599c-2.248-11.33-7.495-21.589-12.762-31.706c-0.128-0.936,1.26-1.197,1.488-0.295
						c2.276,4.848,5.226,9.375,7.225,14.363C376.261,326.297,384.105,346.238,379.763,342.599z"/>
					<path style="fill:#472B51;" d="M272.176,333.773c-0.799-14.931-1.521-29.856-3.545-44.666c-0.06-0.409,0.243-0.801,0.65-0.856
						c0.413-0.055,0.795,0.241,0.854,0.651c2.022,14.87,2.765,29.897,3.559,44.871C273.678,334.758,272.204,334.775,272.176,333.773
						z"/>
					<path style="fill:#472B51;" d="M347.913,319.441c-1.664-0.364,1.254-8.546,0.966-10.521
						c0.744-10.493,0.279-21.025-0.298-31.518c2.856-5.083,1.836,18.427,2.151,19.88
						C350.789,301.274,350.677,317.488,347.913,319.441z"/>
					<path style="fill:#472B51;" d="M334.84,339.898c-9.102-0.468-18.468-2.554-26.041-7.832c-0.771-0.599,0.121-1.795,0.927-1.202
						c10.618,7.273,25.691,8.989,38.045,6.149c0.88-0.006,2.608-0.988,2.883,0.273C350.192,339.243,337.215,339.99,334.84,339.898z"
						/>
					<path style="fill:#472B51;" d="M325.934,331.286c-0.953-0.216-2.861,0.446-3.081-0.856c0-0.413,0.344-0.759,0.759-0.759
						c5.711,0.52,11.434-0.723,16.461-3.407c0.821-0.247,2.064-1.659,2.758-0.652c0.655,1.127-1.91,1.778-2.622,2.278
						C335.811,330.132,330.884,331.393,325.934,331.286z"/>
				</g>
				<g>
					<path style="fill:#472B51;" d="M321.243,281.453c-2.912-0.168-5.821-0.606-8.629-1.287c-0.002-0.002-0.004-0.002-0.006-0.002
						c-9.415-2.477-21.568-7.627-23.057-18.466h0.002c-0.004-0.035-0.006-0.07-0.006-0.105c0.003-0.941,1.489-0.96,1.515-0.024
						c1.515,10.021,12.874,14.633,21.537,17.034h-0.002c9.929,2.102,23.874,3.146,30.459-6.129c0.465-0.624,0.445-2.064,1.52-1.808
						c1.669,1.385-1.819,4.79-2.969,5.843C335.938,281.016,328.246,281.78,321.243,281.453z"/>
					<path style="fill:#472B51;" d="M328.201,286.44c-1.103,7.135-10.411,2.494-8.677-2.308
						C321.792,278.643,328.787,282.977,328.201,286.44z"/>
				</g>
				<g>
					<path style="fill:#472B51;" d="M268.409,412.242c-1.643-3.249,18.886-9.645,21.851-9.983c0.585,0.408,1.196,0.783,1.809,1.149
						c-7.822,1.625-15.619,4.166-22.35,8.51C269.581,412.487,268.8,412.655,268.409,412.242z"/>
					<path style="fill:#472B51;" d="M270.899,452.221c-0.894-0.405-2.252-0.516-2.729-1.457c-0.204-0.72,0.721-1.275,1.254-0.753
						c4.859,2.226,10.335,2.595,15.518,1.441c15.239-3.145,28.268-12.364,41.091-20.71c0.556-0.354,1.247-1.052,1.817-0.37
						c0.241,0.313,0.206,0.833-0.136,1.066C311.008,441.679,291.68,457.847,270.899,452.221z"/>
					<path style="fill:#472B51;" d="M349.76,431.153c-23.781-6.061-44.74-18.911-66.006-30.617
						c-1.267-0.178-1.066-2.132,0.247-1.569l0.002,0.004c3.519,1.448,6.605,3.87,10.023,5.386
						c17.041,10.234,34.965,19.354,54.16,24.756c0.801,0.394,2.752,0.293,2.511,1.517
						C350.586,431.03,350.147,431.264,349.76,431.153z"/>
					<path style="fill:#472B51;" d="M261.757,443.236c-5.096-7.439-9.963-15.025-13.888-23.168
						c-1.147-1.987-14.449-29.818-9.09-27.093c4.266,16.39,12.47,31.805,21.865,45.811c0.506,1.329,3.303,3.489,2.154,4.721
						C262.44,443.72,261.986,443.587,261.757,443.236z"/>
					<g>
						<path style="fill:#CF9364;" d="M416.936,356.5c15.789-2.444-31.915,38.762-34.35,41.373c-1.863,3.002-5.768-0.857-8.156-1.484
							c-4.091-1.618-8.374-2.703-12.722-3.314c-2.665-0.67-17.919-1.207-12.06-3.274c6.745-2.381,11.466-4.706,17.345-8.708
							c3.314-8.004,7.339-21.342,12.701-28.236c0.463-4.89,40.853-24.259,32.365-10.608c7.397-1.675,9.87,0.586,4.287,6.632
							C425.122,346.641,419.967,353.229,416.936,356.5z"/>
						<path style="fill:#472B51;" d="M387.693,355.007c-1.964-1.387,7.361-4.735,8.475-5.778c5.082-2.714,10.393-4.949,15.763-7.019
							c0.91-0.366,1.509,1.003,0.589,1.4C403.847,346.347,395.83,351.892,387.693,355.007z"/>
						<path style="fill:#472B51;" d="M390.75,363.043c-0.051-0.382,0.184-0.702,0.528-0.821c-0.053,0.011-0.099,0.036-0.146,0.057
							c8.074-4.642,16.066-9.418,24.272-13.831c4.845,0.18-6.946,5.295-7.755,6.015C405.269,355.111,390.963,365.684,390.75,363.043
							z"/>
						<path style="fill:#472B51;" d="M397.185,373.012c-2.73-0.808,10.184-8.854,11.249-10.433c2.009-1.068,8.043-8.358,9.551-7.194
							c0.582,1.501-3.263,3.29-4.11,4.509C408.462,364.264,403.08,369.696,397.185,373.012z"/>
						<path style="fill:#472B51;" d="M386.66,393.24c-0.253-0.328-0.188-0.811,0.138-1.064c3.939-3.029,7.547-6.497,11.401-9.596
							c6.516-6.173,12.819-12.872,18.468-19.702C422.514,362.358,388.13,395.406,386.66,393.24z"/>
						<path style="fill:#472B51;" d="M366.229,383.128c-1.058-0.564,0.063-1.738,0.227-2.533c2.457-6.946,4.706-13.91,8.036-20.493
							c-0.006,0.01-0.008,0.014-0.012,0.022c2.992-6.157,6.361-11.403,12.993-14.005c0.785,0.006,1.034,1.046,0.36,1.44
							c-5.964,2.671-8.728,6.737-11.575,12.402c0.004-0.008,0.008-0.014,0.012-0.02c-0.154,0.305-0.314,0.627-0.471,0.933
							c0.016-0.028,0.03-0.057,0.046-0.087c-2.648,5.293-4.724,11.022-6.648,16.564C368.32,378.795,368.094,383.178,366.229,383.128
							z"/>
					</g>
					<path style="fill:#472B51;" d="M285.127,403.88c-2.495-12.284-6.377-24.221-9.506-36.346
						c-3.129-12.127-6.035-24.259-9.678-36.253c-0.237-0.971-1.693-0.621-1.481,0.335c3.636,12.028,6.199,24.344,9.619,36.431
						c3.403,12.024,6.775,23.979,9.562,36.167C283.864,405.171,285.325,404.854,285.127,403.88z"/>
					<path style="fill:#472B51;" d="M391.438,405.045c-18.263-13.457-42.527-11.398-63.594-17.324
						c-15.215-2.902-30.634-10.997-46.321-7.903c-1.129,0.217-3.144,1.747-3.452,0.072c0.008-0.419,0.36-0.747,0.773-0.747
						c16.964-6.171,47.664,9.118,67.478,10.686c15.758,3.016,32.986,3.64,46.065,14.031
						C393.15,404.525,392.183,405.65,391.438,405.045z"/>
				</g>
			</g>
			<g>
				<path style="fill:#D75B5B;" d="M261.877,113.957c-2.361,7.562-5.049,15.045-7.633,22.524
					c-0.649,3.541-13.171-10.349-14.945-11.577c-8.287-8.331-16.494-17.085-22.633-27.151
					c-13.731-25.795,14.95-47.141,36.128-27.605c1.161-0.43-2.666,13.758-4.439,19.754c-0.164,0.541,8.52,14.795,13.178,21.016
					C262.442,110.169,262.565,114.509,261.877,113.957z"/>
				<path style="fill:#D75B5B;" d="M297.842,67.769c11.871,25.863-13.147,52.681-32.761,66.907
					c-0.904,0.888-3.007,0.701-2.554-0.892c1.986-8.693,5.676-17.407,8.233-26.099c-4.519-5.914-9.046-11.829-13.565-17.743
					c-1.393-1.026,0.788-4.051,0.915-5.559c1.771-5.521,5.478-17.046,5.742-17.025C272.417,59.108,290.82,56.325,297.842,67.769z"/>
				<path style="fill:#472B51;" d="M271.594,321.487c0.361-0.643,0.146-1.487-0.525-1.828c-0.087-0.045-0.177-0.076-0.27-0.099
					c-8.351-15.825-16.694-31.655-25.042-47.482c-1.202-1.43-4.888-10.57-7.396-13.716c2.747-3.228,7.922-17.689,9.376-19.785
					c4.454-9.804,8.924-19.599,13.377-29.403c0.228-0.504,0.042-1.092-0.353-1.448c-0.028-0.064-0.055-0.128-0.095-0.193
					c-3.563-5.256-7.131-10.509-10.694-15.764c-1.54-1.509-6.098-10.239-8.879-12.779c0.89-1.362,0.996-3.94,1.743-5.164
					c3.446-10.275,6.899-20.548,10.346-30.824c3.422-10.194,6.841-20.387,10.263-30.581c0.21-0.626-0.198-1.308-0.784-1.543
					c-1.76-2.602-3.527-5.2-5.291-7.8c-1.41-1.348-5.619-9.383-8.334-12.063c2.659-9.31,5.318-18.617,7.981-27.924
					c2.91-10.233,5.871-20.455,8.772-30.692c0.15-0.525-0.121-1.072-0.555-1.365c-6.876-11.855-13.337-23.948-19.37-36.254
					c-0.85-1.733-3.438-0.215-2.59,1.514c6.035,12.31,12.498,24.406,19.376,36.266c0.057,0.098,0.12,0.183,0.187,0.259
					c-0.492,1.554-0.616,3.626-1.2,4.677c-2.19,7.662-4.381,15.32-6.567,22.981c-2.899,10.149-5.806,20.303-8.706,30.453
					c-0.158,0.555,5.077,7.381,5.679,8.919c2.85,4.2,5.707,8.394,8.549,12.599c-0.708,1.649-0.964,4.115-1.645,5.235
					c-3.389,10.108-6.788,20.216-10.178,30.323c-3.392,10.092-6.771,20.187-10.162,30.278c-0.133,0.398-0.015,0.818,0.237,1.134
					c-0.078,1.143,1.479,2.426,1.953,3.443c5.886,8.669,11.765,17.341,17.649,26.01c0.018,0.029,0.04,0.05,0.058,0.077
					c-2.981,4.681-7.926,18.153-9.31,20.163c-4.265,9.355-8.51,18.718-12.771,28.072c-0.074,0.163-0.105,0.334-0.1,0.504
					c-1.447,1.721,3.651,7.971,4.238,10.099c7.827,14.846,15.662,29.691,23.488,44.537c1.579,2.998,3.161,5.994,4.742,8.991
					c-4.021,8.274-8.038,16.548-12.059,24.824c-4.484,9.234-14.706,28.763-14.394,29.463c1.624,4.98,3.251,9.961,4.876,14.941
					c4.971,15.217,9.922,30.438,14.898,45.653c-0.155,0.469-3.366,12.141-4.861,17.516c-4.671,16.799-23.309,83.792-27.954,100.489
					c-0.133,2.375-5.692,15.691-3.171,15.95c1.612,0.459,1.814-1.414,2.129-2.544c1.467-5.265,2.932-10.533,4.396-15.8
					c4.656-16.739,23.309-83.783,27.976-100.564c0.111-1.8,4.272-14.809,4.129-15.299c-1.647-5.033-3.285-10.069-4.929-15.103
					c-4.27-13.079-8.537-26.159-12.805-39.239c-0.654-1.075-1.036-3.902-1.796-5.833c4.235-8.719,8.465-17.434,12.702-26.152
					C262.482,340.239,267.042,330.867,271.594,321.487z"/>
			</g>
			<g>
				<path style="fill:#A6A6A6;" d="M413.833,81.992c-0.956-1.344-3.113-2.306-4.757-1.858c0.255-1.492-0.105-3.317-1.025-4.407
					c2.022-0.87,3.228-4.824,2.143-6.459c2.447-0.809,2.714-4.983,0.657-6.302c2.244-1.624,0.955-6.942-2.254-6.055
					c0.413-1.065,0.092-2.648-0.679-3.678c-1.466-2.125-3.484-1.984-4.612-0.929c-0.177-0.541-0.496-1.062-0.949-1.461
					c-1.221-1.46-3.731-1.457-4.879-0.071c-0.419-0.473-1.069-0.845-1.997-1.02c-3.749-0.41-6.176,4.964-1.643,5.815
					c1.75,0.277,3.129-0.567,3.795-1.698c0.98,0.802,2.61,1.291,3.551,1.31c0.574,0.052,1.026-0.047,1.377-0.241
					c0.316,1.082,1.37,2.205,3.563,3.002c0.089,0.021,0.166,0.026,0.249,0.04c-0.726,1.267,0.186,4.084,1.498,5.056
					c-1.374,1.071-1.692,3.743-0.68,5.264c-1.613,1.126-3.173,5.128-1.899,6.632c-1.735,1.16-2.259,6.081,0.02,7.22
					c0.676,0.341,1.257,0.45,1.75,0.395c0.283,1.478,2.895,2.944,4.208,3.079C413.676,86.194,415.58,84.078,413.833,81.992z
					 M394.364,53.983c-0.842,0.016-1.534-0.399-1.3-1.304c0.285-1.105,2.672-1.932,3.3-0.7
					C396.987,53.202,395.278,53.966,394.364,53.983z M401.598,53.584c-1.134,0.039-2.375-0.376-3.14-1.273
					C399.145,49.922,402.9,52.546,401.598,53.584z M409.303,67.796c-1.718-0.074-1.336-3.681,0.24-3.63
					C411.108,64.525,411.055,67.679,409.303,67.796z M404.003,54.278c0.997-2.952,4.034,0.706,2.934,2.158
					C405.676,56.343,404.623,55.32,404.003,54.278z M409.304,61.85c-1.187-0.147-1.467-1.676-1.511-2.684
					C410.464,56.737,411.344,61.57,409.304,61.85z M408.428,69.486c0.937,1.37,0.586,4.195-1.183,4.752
					C405.222,73.752,407.242,70.099,408.428,69.486z M406.664,80.945c-1.91-0.526-1.569-3.549-0.357-4.691
					C407.286,76.874,408.461,80.843,406.664,80.945z M412.213,84.099c-1.377-0.025-2.871-0.72-3.562-1.946
					C409.947,80.452,414.57,83.566,412.213,84.099z"/>
				<path style="fill:#A6A6A6;" d="M393.369,54.004c-7.161-12.111-24.522,0.359-15.318,11.017
					c-3.871,6.233-7.725,12.474-11.599,18.705c-1.569,1.212,1.812,2.559,2.601,2.95c1.681,0.834,3.317,1.756,4.921,2.73
					c0.587,0.357,4.681,3.351,4.197,0.549c-0.118-0.68-1.242-1.308-1.735-1.678c-1.086-0.814-2.231-1.578-3.434-2.209
					c0.324-0.526,0.647-1.051,0.971-1.576c0.893,0.752,2.63,1.26,3.33,1.663c1.298,0.749,2.83-1.347,1.427-2.255
					c-0.983-0.636-2.377-1.114-3.224-1.892c0.332-0.531,0.657-1.066,0.984-1.6c1.381,1.114,3.622,1.972,4.947,2.608
					c1.394,0.67,2.139-1.225,1.205-2.171c-0.7-0.709-2.003-1.199-2.853-1.723c-1.272-0.783-2.544-1.567-3.816-2.35
					c1.857-3.126,3.742-6.233,5.598-9.36c0.466,0.185,0.938,0.322,1.431,0.431l-0.046-0.012
					C390.595,69.82,397.398,60.817,393.369,54.004z M392.135,59.139c-0.247,3.831-3.9,6.93-7.723,6.523c0,0.002,0,0.002,0.002,0.002
					c-5.685-0.306-8.641-7.74-4.706-11.866C383.973,48.71,392.889,52.543,392.135,59.139z"/>
				<path style="fill:#A6A6A6;" d="M439.24,91.985c-2.189-3.275-4.376-6.55-6.566-9.825c5.374-3.02,4.756-3.27-0.871-4.533
					c-0.443-1.22-1.218-2.217-1.887-3.31c-0.698-1.14-1.255-2.363-2.025-3.46c-0.796-1.134-2-1.298-3.037-0.321
					c-0.954,0.899-3.517,1.533-2.036,3.198c0.148,0.668,0.651,1.243,0.963,1.852c-1.671,0.047-7.981-3.305-7.855-0.617
					c-1.84,6.351-3.691,12.7-5.533,19.053c0.084,2.961,3.098-0.089,4.353-0.668c2.035,3.33,4.086,6.645,6.112,9.977
					c0.174,0.335,0.564,0.524,0.923,0.431c3.1-0.779,5.877-3.618,8.839-5.114C432.157,97.174,440.179,93.926,439.24,91.985z
					 M429.352,92.831l-3.536,2.179c-0.242,0.149-0.558,0.074-0.707-0.168l-1.967-3.192c-0.149-0.241-0.074-0.558,0.168-0.707
					l3.536-2.179c0.242-0.149,0.558-0.074,0.707,0.168l1.967,3.192C429.669,92.365,429.593,92.682,429.352,92.831z"/>
			</g>
			<g>
				<path style="fill:#A6A6A6;" d="M94.266,79.805c1.281,0.319,4.235-0.172,5.004-1.466c0.446,0.22,1.029,0.314,1.78,0.223
					c2.531-0.297,3.71-5.103,2.473-6.784c1.71-0.982,1.602-5.275,0.468-6.883c1.468-1.087,2.077-3.707,1.149-5.181
					c1.564-0.468,3.379-2.808,3.127-4.246c0.083,0.015,0.158,0.036,0.248,0.047c2.334-0.005,3.707-0.702,4.372-1.613
					c0.264,0.302,0.655,0.549,1.213,0.694c0.892,0.302,2.591,0.396,3.785-0.025c0.242,1.29,1.253,2.553,2.993,2.887
					c4.553,0.74,4.096-5.139,0.431-6.027c-0.932-0.151-1.67-0.022-2.225,0.281c-0.609-1.694-2.968-2.55-4.613-1.591
					c-0.562,0.221-1.039,0.603-1.389,1.052c-0.703-1.376-2.553-2.194-4.654-0.694c-1.074,0.707-1.915,2.087-1.888,3.229
					c-2.716-1.925-5.735,2.639-4.177,4.928c-2.383,0.542-3.551,4.558-1.524,6.15c-1.575,1.169-1.785,5.297-0.179,6.803
					c-1.236,0.713-2.194,2.306-2.462,3.796c-1.394-0.98-3.75-0.808-5.105,0.131C90.74,76.882,91.813,79.519,94.266,79.805z
					 M119.721,53.223c1.009-0.945,2.973,0.644,2.866,1.78c-0.088,0.93-0.879,1.086-1.666,0.785
					C120.067,55.461,118.719,54.161,119.721,53.223z M117.639,52.823c-1.024,0.584-2.332,0.553-3.386,0.131
					C113.381,51.535,117.804,50.343,117.639,52.823z M103.185,60.207c1.499,0.487,0.633,4.009-1.008,3.495
					C100.568,62.996,101.591,60.013,103.185,60.207z M108.262,53.822c-0.541-1.74,3.558-4.147,3.493-1.033
					C110.818,53.559,109.48,54.163,108.262,53.822z M106.53,56.099c-0.384,0.933-1.167,2.275-2.333,2.01
					C102.372,57.152,104.843,52.906,106.53,56.099z M101.923,70.459c-1.475-1.124-0.845-3.901,0.502-4.871
					C103.332,66.568,103.991,70.69,101.923,70.459z M102.12,72.675c0.752,1.486,0.045,4.445-1.93,4.29
					C98.536,76.259,100.989,72.925,102.12,72.675z M97.911,77.426c-1.066,0.919-2.707,1.064-4.011,0.62
					C91.864,76.744,97.27,75.386,97.911,77.426z"/>
				<path style="fill:#A6A6A6;" d="M129.838,47.718c-13.578,3.688-6.165,23.737,6.554,17.693c4.981,5.387,9.975,10.76,14.954,16.15
					c0.752,1.835,2.948-1.068,3.535-1.725c1.25-1.4,2.573-2.732,3.939-4.019c0.5-0.471,4.473-3.624,1.644-3.9
					c-0.687-0.067-1.591,0.85-2.078,1.228c-1.073,0.831-2.114,1.732-3.041,2.724c-0.421-0.451-0.841-0.903-1.262-1.355
					c0.962-0.661,1.913-2.201,2.488-2.769c1.067-1.053-0.547-3.086-1.795-1.975c-0.874,0.779-1.705,1.996-2.68,2.606
					c-0.424-0.461-0.853-0.916-1.282-1.373c1.441-1.036,2.863-2.969,3.828-4.077c1.016-1.166-0.612-2.388-1.773-1.738
					c-0.869,0.487-1.688,1.613-2.418,2.293c-1.093,1.018-2.186,2.036-3.279,3.055c-2.52-2.621-5.016-5.263-7.538-7.882
					c0.302-0.4,0.56-0.819,0.796-1.265l-0.024,0.041C144.349,54.592,137.475,45.642,129.838,47.718z M134.461,50.271
					c3.627,1.256,5.645,5.6,4.239,9.178c0.002,0,0.002,0,0.002-0.001c-1.804,5.4-9.757,6.275-12.689,1.386
					C122.239,55.371,128.302,47.793,134.461,50.271z"/>
				<g>
					<path style="fill:#A6A6A6;" d="M76.817,82.631c1.441,3.254-2.841,6.391-5.512,4.056c-3.631-2.923,1.12-8.49,4.587-5.383
						c0.028,0.021,0.048,0.049,0.075,0.074c0,0,0.001-0.002,0.003-0.002C76.332,81.733,76.658,82.152,76.817,82.631z"/>
					<path style="fill:#A6A6A6;" d="M85.185,98.196c-3.631-2.925,1.12-8.489,4.587-5.383c0.028,0.021,0.048,0.049,0.075,0.074
						c0,0,0.001-0.002,0.003-0.002C93.124,95.866,88.556,101.061,85.185,98.196z"/>
					<path style="fill:#A6A6A6;" d="M100.647,88.739c0.127-0.593,1.061-3.338,0.585-3.818c-5.167-5.151-9.773-8.253-15.452-13.049
						c-3.633-0.045-6.835,1.619-10.507,2.223c-1.203-0.362-2.935-2.673-4.097-1.869c-1.101,0.803-2.259,2.685-3.174,3.717
						c-0.515,0.776-0.055,1.826,1.103,2.746c5.81,4.966,23.375,18.904,24.74,20.051c0.86,0.722,3.289-2.181,3.712-2.753
						c0.945-1.279,1.74-2.596,2.322-4.083C100.267,90.912,100.425,89.775,100.647,88.739z M83.416,80.022
						c-0.836,0.349-4.429-3.388-4.429-3.388s4.834-2.592,6.108-2.045c1.274,0.547,2.332,1.693,2.332,1.693
						S84.252,79.673,83.416,80.022z M91.015,86.4c-0.367,0-4.749-3.681-5.061-4.089c-0.312-0.407,3.515-4.281,3.515-4.281
						s5.056,3.632,5.042,4.047C94.498,82.493,91.383,86.4,91.015,86.4z M96.684,91.12c-0.368,0.001-3.318-2.5-3.632-2.907
						c-0.313-0.407,3.678-4.39,3.678-4.39s2.065,1.558,2.052,1.973C98.769,86.211,97.051,91.119,96.684,91.12z"/>
				</g>
			</g>
		</g>
	</g>
</g>
</svg>
