<?xml version="1.0" encoding="utf-8"?>
<!-- Generator: Adobe Illustrator 27.5.0, SVG Export Plug-In . SVG Version: 6.00 Build 0)  -->
<svg version="1.1" xmlns="http://www.w3.org/2000/svg" xmlns:xlink="http://www.w3.org/1999/xlink" x="0px" y="0px"
	 viewBox="0 0 500 500" style="enable-background:new 0 0 500 500;" xml:space="preserve">
<g id="Background_Complete">
	<g>
		<rect y="382.398" style="fill:#EBEBEB;" width="500" height="0.25"/>
		<rect x="363" y="398.494" style="fill:#EBEBEB;" width="86.901" height="0.25"/>
		<rect x="357.665" y="389.208" style="fill:#EBEBEB;" width="8.693" height="0.25"/>
		<rect x="280.124" y="397.5" style="fill:#EBEBEB;" width="19.192" height="0.25"/>
		<rect x="52.459" y="390.888" style="fill:#EBEBEB;" width="21.597" height="0.25"/>
		<rect x="82.959" y="390.888" style="fill:#EBEBEB;" width="27.93" height="0.25"/>
		<rect x="207.667" y="394.986" style="fill:#EBEBEB;" width="46.838" height="0.25"/>
		<path style="fill:#EBEBEB;" d="M237.014,337.8H43.915c-3.147,0-5.708-2.561-5.708-5.708V60.66c0-3.147,2.561-5.708,5.708-5.708
			h193.099c3.146,0,5.707,2.561,5.707,5.708v271.432C242.721,335.239,240.16,337.8,237.014,337.8z M43.915,55.203
			c-3.01,0-5.458,2.448-5.458,5.458v271.432c0,3.01,2.448,5.458,5.458,5.458h193.099c3.009,0,5.457-2.448,5.457-5.458V60.66
			c0-3.009-2.448-5.458-5.457-5.458H43.915z"/>
		<path style="fill:#EBEBEB;" d="M453.31,337.8H260.212c-3.147,0-5.707-2.561-5.707-5.708V60.66c0-3.147,2.561-5.708,5.707-5.708
			H453.31c3.148,0,5.708,2.561,5.708,5.708v271.432C459.019,335.239,456.458,337.8,453.31,337.8z M260.212,55.203
			c-3.009,0-5.457,2.448-5.457,5.458v271.432c0,3.01,2.448,5.458,5.457,5.458H453.31c3.01,0,5.458-2.448,5.458-5.458V60.66
			c0-3.009-2.448-5.458-5.458-5.458H260.212z"/>
	</g>
	<g>
		<g>
			<g>
				<g>
					
						<rect x="153.607" y="81.162" transform="matrix(-1 -1.224647e-16 1.224647e-16 -1 578.5359 317.7656)" style="fill:#E6E6E6;" width="271.322" height="155.441"/>
					
						<rect x="149.572" y="81.162" transform="matrix(-1 -1.224647e-16 1.224647e-16 -1 572.6151 317.7656)" style="fill:#F0F0F0;" width="273.472" height="155.441"/>
					
						<rect x="214.933" y="27.796" transform="matrix(-1.836970e-16 1 -1 -1.836970e-16 445.1905 -127.4248)" style="fill:#FAFAFA;" width="142.749" height="262.173"/>
					<polygon style="fill:#FFFFFF;" points="385.216,230.257 352.059,87.508 308.594,87.508 341.751,230.257 					"/>
					<polygon style="fill:#FFFFFF;" points="334.717,230.257 301.56,87.508 281.93,87.508 315.087,230.257 					"/>
					<polygon style="fill:#FFFFFF;" points="256.827,230.257 223.67,87.508 190.145,87.508 223.302,230.257 					"/>
					
						<rect x="84.205" y="158.524" transform="matrix(-1.836970e-16 1 -1 -1.836970e-16 314.4625 3.3033)" style="fill:#E6E6E6;" width="142.749" height="0.717"/>
					
						<rect x="278.158" y="81.162" transform="matrix(-1 -1.224647e-16 1.224647e-16 -1 572.6152 317.7656)" style="fill:#F0F0F0;" width="16.299" height="155.441"/>
					
						<rect x="223.441" y="158.524" transform="matrix(-1.836970e-16 1 -1 -1.836970e-16 453.6984 -135.9327)" style="fill:#E6E6E6;" width="142.749" height="0.717"/>
					
						<rect x="286.024" y="81.162" transform="matrix(-1 -1.224647e-16 1.224647e-16 -1 572.6152 317.7656)" style="fill:#E6E6E6;" width="0.567" height="155.441"/>
				</g>
			</g>
			<g style="opacity:0.7;">
				<rect x="144.073" y="72.927" style="fill:#EBEBEB;" width="26.084" height="125.161"/>
				
					<rect x="170.157" y="72.927" transform="matrix(-1 -1.224647e-16 1.224647e-16 -1 357.1996 256.4001)" style="fill:#E0E0E0;" width="16.886" height="110.547"/>
				<rect x="187.043" y="72.927" style="fill:#EBEBEB;" width="26.084" height="125.161"/>
				
					<rect x="213.126" y="72.927" transform="matrix(-1 -1.224647e-16 1.224647e-16 -1 443.1388 256.4001)" style="fill:#E0E0E0;" width="16.886" height="110.547"/>
				<rect x="230.012" y="72.927" style="fill:#EBEBEB;" width="26.084" height="125.161"/>
				
					<rect x="256.096" y="72.927" transform="matrix(-1 -1.224647e-16 1.224647e-16 -1 529.0781 256.4001)" style="fill:#E0E0E0;" width="16.886" height="110.547"/>
				<rect x="272.982" y="72.927" style="fill:#EBEBEB;" width="26.084" height="125.161"/>
				
					<rect x="299.066" y="72.927" transform="matrix(-1 -1.224647e-16 1.224647e-16 -1 615.0174 256.4001)" style="fill:#E0E0E0;" width="16.886" height="110.547"/>
				<rect x="315.952" y="72.927" style="fill:#EBEBEB;" width="26.084" height="125.161"/>
				
					<rect x="342.035" y="72.927" transform="matrix(-1 -1.224647e-16 1.224647e-16 -1 700.9566 256.4001)" style="fill:#E0E0E0;" width="16.886" height="110.547"/>
				<rect x="358.921" y="72.927" style="fill:#EBEBEB;" width="26.084" height="125.161"/>
				<rect x="401.891" y="72.927" style="fill:#EBEBEB;" width="26.084" height="125.161"/>
				
					<rect x="385.005" y="72.927" transform="matrix(-1 -1.224647e-16 1.224647e-16 -1 786.8958 256.4001)" style="fill:#E0E0E0;" width="16.886" height="110.547"/>
			</g>
		</g>
		<g>
			<g>
				<g>
					<g>
						<g>
							<rect x="64.523" y="141.565" style="fill:#F0F0F0;" width="43.877" height="7.037"/>
							
								<rect x="108.399" y="141.565" transform="matrix(-1 -1.224647e-16 1.224647e-16 -1 237.7243 290.1677)" style="fill:#E6E6E6;" width="20.926" height="7.037"/>
						</g>
					</g>
					<g>
						<g>
							<polygon style="fill:#EBEBEB;" points="107.591,148.6 86.461,148.6 101.867,158.658 107.591,158.658 							"/>
						</g>
					</g>
					<g>
						<g>
							<polygon style="fill:#E0E0E0;" points="109.795,148.6 88.665,148.6 104.071,158.658 109.795,158.658 							"/>
						</g>
					</g>
				</g>
				<g>
					<rect x="78.176" y="111.437" style="fill:#E6E6E6;" width="13.734" height="30.128"/>
					
						<rect x="74.206" y="111.437" transform="matrix(-1 -1.224647e-16 1.224647e-16 -1 152.3818 253.0017)" style="fill:#F0F0F0;" width="3.97" height="30.128"/>
					<polygon style="fill:#E6E6E6;" points="109.614,114.093 91.91,114.093 87.643,141.565 105.348,141.565 					"/>
					<polygon style="fill:#F0F0F0;" points="86.792,114.093 91.91,114.093 87.643,141.565 82.525,141.565 					"/>
					<rect x="97.711" y="110.43" style="fill:#EBEBEB;" width="20.065" height="31.135"/>
					
						<rect x="91.91" y="110.43" transform="matrix(-1 -1.224647e-16 1.224647e-16 -1 189.6208 251.9948)" style="fill:#F5F5F5;" width="5.801" height="31.135"/>
					<path style="fill:#E0E0E0;" d="M115.874,141.565h-0.855v-18.74c0-3.251-2.646-5.896-5.896-5.896
						c-3.251,0-5.896,2.645-5.896,5.896v18.74h-0.855v-18.74c0-3.723,3.028-6.752,6.751-6.752c3.724,0,6.752,3.029,6.752,6.752
						V141.565z"/>
				</g>
			</g>
			<g>
				<g>
					<g>
						<g>
							<rect x="64.523" y="202.592" style="fill:#F0F0F0;" width="43.877" height="7.037"/>
							
								<rect x="108.399" y="202.592" transform="matrix(-1 -1.224647e-16 1.224647e-16 -1 237.7243 412.2218)" style="fill:#E6E6E6;" width="20.926" height="7.037"/>
						</g>
					</g>
					<g>
						<g>
							<polygon style="fill:#EBEBEB;" points="107.591,209.627 86.461,209.627 101.867,219.685 107.591,219.685 							"/>
						</g>
					</g>
					<g>
						<g>
							<polygon style="fill:#E0E0E0;" points="109.795,209.627 88.665,209.627 104.071,219.685 109.795,219.685 							"/>
						</g>
					</g>
				</g>
				<g>
					<rect x="76.529" y="180.311" style="fill:#E0E0E0;" width="20.065" height="22.281"/>
					
						<rect x="71.388" y="180.311" transform="matrix(-1 -1.224647e-16 1.224647e-16 -1 147.917 382.9033)" style="fill:#F0F0F0;" width="5.14" height="22.281"/>
					<rect x="85.603" y="174.012" style="fill:#E0E0E0;" width="17.196" height="28.58"/>
					
						<rect x="82.102" y="174.012" transform="matrix(-1 -1.224647e-16 1.224647e-16 -1 167.7046 376.6045)" style="fill:#EBEBEB;" width="3.5" height="28.58"/>
					<rect x="93.272" y="176.876" style="fill:#E6E6E6;" width="15.07" height="25.716"/>
					
						<rect x="88.915" y="176.876" transform="matrix(-1 -1.224647e-16 1.224647e-16 -1 182.1872 379.4681)" style="fill:#F0F0F0;" width="4.357" height="25.716"/>
					<rect x="97.711" y="180.311" style="fill:#F0F0F0;" width="20.065" height="22.281"/>
					
						<rect x="94.81" y="180.311" transform="matrix(-1 -1.224647e-16 1.224647e-16 -1 192.5212 382.9033)" style="fill:#FAFAFA;" width="2.9" height="22.281"/>
					<path style="fill:#E0E0E0;" d="M115.874,202.592h-0.855v-18.741c0-3.251-2.646-5.896-5.896-5.896
						c-3.251,0-5.896,2.645-5.896,5.896v18.741h-0.855v-18.741c0-3.723,3.028-6.751,6.751-6.751c3.724,0,6.752,3.029,6.752,6.751
						V202.592z"/>
				</g>
			</g>
		</g>
		<g>
			<g>
				
					<rect x="199.509" y="262.063" transform="matrix(-1 -1.224647e-16 1.224647e-16 -1 407.6788 644.4604)" style="fill:#E6E6E6;" width="8.661" height="120.334"/>
				
					<rect x="197.191" y="262.063" transform="matrix(-1 -1.224647e-16 1.224647e-16 -1 399.4832 644.4604)" style="fill:#F0F0F0;" width="5.101" height="120.334"/>
				<rect x="195.611" y="262.063" style="fill:#F0F0F0;" width="123.002" height="9.026"/>
				
					<rect x="435.112" y="262.063" transform="matrix(-1 -1.224647e-16 1.224647e-16 -1 878.8842 644.4604)" style="fill:#E6E6E6;" width="8.661" height="120.334"/>
				
					<rect x="433.488" y="262.063" transform="matrix(-1 -1.224647e-16 1.224647e-16 -1 872.0771 644.4604)" style="fill:#F0F0F0;" width="5.102" height="120.334"/>
				<rect x="322.319" y="262.063" style="fill:#E6E6E6;" width="123.002" height="9.026"/>
				
					<rect x="319.35" y="262.063" transform="matrix(-1 -1.224647e-16 1.224647e-16 -1 647.3618 644.4604)" style="fill:#E6E6E6;" width="8.661" height="120.334"/>
				
					<rect x="317.032" y="262.063" transform="matrix(-1 -1.224647e-16 1.224647e-16 -1 639.1663 644.4604)" style="fill:#F0F0F0;" width="5.102" height="120.334"/>
			</g>
			<g>
				<polygon style="fill:#E6E6E6;" points="341.39,222.039 277.164,222.039 272.121,259.965 336.346,259.965 				"/>
				<polygon style="fill:#E6E6E6;" points="336.346,259.965 336.086,262.061 271.858,262.061 272.117,259.965 				"/>
				<polygon style="fill:#F0F0F0;" points="339.413,222.039 275.187,222.039 270.144,259.965 334.369,259.965 				"/>
				<polygon style="fill:#FFFFFF;" points="332.816,258.232 337.399,223.772 276.741,223.772 272.158,258.232 				"/>
				<polygon style="fill:#F0F0F0;" points="317.634,259.965 317.375,262.061 246.649,262.061 246.909,259.965 				"/>
			</g>
		</g>
		<g>
			<g>
				<g>
					
						<rect x="155.477" y="262.155" transform="matrix(-1 -1.224647e-16 1.224647e-16 -1 334.4298 641.9645)" style="fill:#F0F0F0;" width="23.475" height="117.655"/>
					
						<rect x="58.676" y="379.81" transform="matrix(-1 -1.224647e-16 1.224647e-16 -1 233.1212 762.208)" style="fill:#F0F0F0;" width="115.769" height="2.589"/>
					<rect x="54.169" y="262.155" style="fill:#F5F5F5;" width="101.309" height="117.655"/>
					<path style="fill:#EBEBEB;" d="M143.83,328.446H65.818c-1.543,0-2.799-1.256-2.799-2.799v-18.198c0-1.544,1.256-2.8,2.799-2.8
						h12.875c1.045,0,2.016,0.588,2.473,1.498c0.139,0.278,0.323,0.531,0.548,0.752c0.554,0.554,1.28,0.858,2.048,0.858h42.118
						c1.071,0,2.053-0.588,2.564-1.536c0.529-0.985,1.463-1.573,2.497-1.573h12.89c1.544,0,2.8,1.256,2.8,2.8v18.198
						C146.63,327.19,145.374,328.446,143.83,328.446z M65.818,305.41c-1.123,0-2.037,0.914-2.037,2.038v18.198
						c0,1.123,0.914,2.038,2.037,2.038h78.012c1.124,0,2.038-0.914,2.038-2.038v-18.198c0-1.124-0.914-2.038-2.038-2.038h-12.89
						c-0.749,0-1.432,0.438-1.827,1.172c-0.643,1.194-1.882,1.936-3.233,1.936H83.762c-0.972,0-1.89-0.383-2.585-1.08
						c-0.282-0.278-0.516-0.599-0.692-0.951c-0.328-0.654-1.031-1.078-1.791-1.078H65.818z"/>
					<path style="fill:#EBEBEB;" d="M143.83,360.234H65.818c-1.543,0-2.799-1.256-2.799-2.799v-18.199
						c0-1.543,1.256-2.799,2.799-2.799h12.875c1.045,0,2.016,0.588,2.473,1.498c0.139,0.278,0.322,0.531,0.548,0.752
						c0.547,0.555,1.273,0.858,2.048,0.858h42.118c1.071,0,2.053-0.588,2.564-1.535c0.529-0.985,1.463-1.573,2.497-1.573h12.89
						c1.544,0,2.8,1.256,2.8,2.799v18.199C146.63,358.978,145.374,360.234,143.83,360.234z M65.818,337.199
						c-1.123,0-2.037,0.914-2.037,2.038v18.199c0,1.124,0.914,2.038,2.037,2.038h78.012c1.124,0,2.038-0.914,2.038-2.038v-18.199
						c0-1.124-0.914-2.038-2.038-2.038h-12.89c-0.749,0-1.432,0.438-1.826,1.172c-0.644,1.194-1.883,1.936-3.234,1.936H83.762
						c-0.981,0-1.898-0.384-2.587-1.081c-0.28-0.276-0.515-0.598-0.69-0.951c-0.328-0.654-1.031-1.077-1.791-1.077H65.818z"/>
					<path style="fill:#EBEBEB;" d="M146.629,374.384H63.018v-6.742h83.611V374.384z M63.779,373.623h82.088v-5.218H63.779V373.623z
						"/>
					<path style="fill:#EBEBEB;" d="M143.83,296.665H65.818c-1.543,0-2.799-1.256-2.799-2.799v-18.199
						c0-1.544,1.256-2.799,2.799-2.799h12.875c1.046,0,2.016,0.588,2.473,1.497c0.139,0.278,0.323,0.531,0.548,0.752
						c0.554,0.554,1.28,0.858,2.048,0.858h42.118c1.069,0,2.052-0.59,2.564-1.539c0.528-0.982,1.46-1.569,2.492-1.569h12.895
						c1.544,0,2.8,1.256,2.8,2.799v18.199C146.63,295.41,145.374,296.665,143.83,296.665z M65.818,273.63
						c-1.123,0-2.037,0.914-2.037,2.038v18.199c0,1.123,0.914,2.038,2.037,2.038h78.012c1.124,0,2.038-0.914,2.038-2.038v-18.199
						c0-1.124-0.914-2.038-2.038-2.038h-12.895c-0.747,0-1.428,0.436-1.822,1.168c-0.644,1.196-1.883,1.939-3.233,1.939H83.762
						c-0.972,0-1.89-0.383-2.585-1.08c-0.282-0.278-0.516-0.599-0.692-0.951c-0.328-0.654-1.031-1.077-1.791-1.077H65.818z"/>
				</g>
				
					<rect x="51.041" y="260.259" transform="matrix(-1 -1.224647e-16 1.224647e-16 -1 206.5182 522.4144)" style="fill:#F0F0F0;" width="104.437" height="1.895"/>
				<rect x="155.477" y="260.259" style="fill:#E6E6E6;" width="26.756" height="1.895"/>
			</g>
		</g>
	</g>
</g>
<g id="Background_Simple" style="display:none;">
	<g style="display:inline;">
		<path style="fill:#407BFF;" d="M158.746,201.167c27.788-12.627,49.741-35.982,65.456-61.893
			c65.037-128.046,263.774-68.487,188.936,88.047c-35.43,79.886-106.073,69.289-172.808,94.438
			c-132.609,56.39-168.003-36.243-160.654-68.852C87.601,220.698,132.253,213.971,158.746,201.167z"/>
		<path style="opacity:0.9;fill:#FFFFFF;" d="M158.746,201.167c27.788-12.627,49.741-35.982,65.456-61.893
			c65.037-128.046,263.774-68.487,188.936,88.047c-35.43,79.886-106.073,69.289-172.808,94.438
			c-132.609,56.39-168.003-36.243-160.654-68.852C87.601,220.698,132.253,213.971,158.746,201.167z"/>
	</g>
</g>
<g id="Shadow_1_">
	<ellipse id="_x3C_Path_x3E__13_" style="fill:#F5F5F5;" cx="250" cy="416.238" rx="193.889" ry="11.323"/>
</g>
<g id="Warstwa_7">
	<g>
		<path style="fill:#263238;" d="M352.973,259.001c-25.783-11.428-42.834,23.832-22.6,43.786
			C339.117,284.522,377.433,264.318,352.973,259.001z"/>
		<path style="fill:#407BFF;" d="M367.772,376.723c0.848-5.325,0.849-10.736,0.228-15.985c-0.616-5.258-1.825-10.359-3.282-15.313
			c-2.956-9.903-6.786-19.302-9.752-28.926c-2.997-9.595-5.113-19.471-5.292-29.512c-0.091-5.009,0.224-10.044,1.084-15.004
			c0.838-4.963,2.12-9.855,3.722-14.652l-0.892-0.328c-1.82,4.768-3.33,9.669-4.397,14.686c-1.088,5.014-1.631,10.149-1.754,15.293
			c-0.255,10.31,1.501,20.593,4.142,30.488c2.608,9.918,6.053,19.531,8.499,29.223c2.442,9.658,3.633,19.556,1.696,28.944
			L367.772,376.723z"/>
		<path style="fill:#407BFF;" d="M362.328,394.498c1.341-5.223,1.848-10.61,1.718-15.895c-0.123-5.292-0.85-10.484-1.839-15.553
			c-2.019-10.135-4.955-19.852-7.01-29.71c-2.089-9.833-3.274-19.864-2.514-29.878c0.377-4.995,1.161-9.979,2.48-14.837
			c1.298-4.863,3.03-9.614,5.073-14.24l-0.857-0.41c-2.258,4.578-4.218,9.316-5.748,14.212c-1.551,4.89-2.571,9.953-3.174,15.063
			c-1.216,10.241-0.427,20.643,1.279,30.741c1.671,10.118,4.203,20.011,5.734,29.888c1.53,9.844,1.792,19.81-1.013,28.976
			L362.328,394.498z"/>
		<g>
			<path style="fill:#FFFFFF;" d="M336.299,356.485H386.5c2.172,0,3.845,1.917,3.552,4.069l-7.172,52.538
				c-0.242,1.776-1.759,3.1-3.552,3.1h-35.856c-1.792,0-3.309-1.324-3.552-3.1l-7.172-52.538
				C332.454,358.402,334.127,356.485,336.299,356.485z"/>
			<path style="fill:#407BFF;" d="M343.472,416.667h35.856c2.02,0,3.749-1.509,4.023-3.51l7.172-52.538
				c0.159-1.162-0.193-2.335-0.963-3.219c-0.771-0.883-1.887-1.39-3.059-1.39H336.3c-1.173,0-2.288,0.506-3.059,1.389
				c-0.771,0.883-1.123,2.057-0.964,3.219l7.173,52.538C339.722,415.158,341.452,416.667,343.472,416.667z M386.501,356.96
				c0.898,0,1.752,0.388,2.343,1.065c0.591,0.677,0.859,1.575,0.738,2.465l-7.172,52.538c-0.21,1.533-1.535,2.689-3.082,2.689
				h-35.856c-1.548,0-2.873-1.156-3.082-2.689l-7.173-52.538c-0.121-0.89,0.148-1.789,0.739-2.466
				c0.591-0.676,1.445-1.064,2.343-1.064H386.501z"/>
		</g>
		<path style="fill:#407BFF;" d="M350.927,257.905c17.168-19.015,36.049,18.158,35.445,40.983
			C380.464,286.149,290.841,283.844,350.927,257.905z"/>
		<path style="fill:#407BFF;" d="M353.065,316.664c-1.088-5.138-8.261-0.489-10.502,3.621
			C344.92,318.634,361.052,327.446,353.065,316.664z"/>
		<path style="opacity:0.2;" d="M382.866,291.717c0.306,0,0.552-0.277,0.552-0.583c0-0.182-5.613-20.669-30.355-31.765
			c-0.283-0.126-0.607-0.001-0.732,0.279c-0.125,0.279-0.001,0.607,0.278,0.732c23.684,10.621,29.674,30.626,29.706,30.815
			C382.315,291.5,382.56,291.717,382.866,291.717z"/>
		<path style="opacity:0.2;" d="M341.974,274.888c0.208,0,0.406-0.117,0.501-0.317c2.352-4.976,8.962-8.729,15.375-8.729
			c0.306,0,0.554-0.248,0.554-0.554c0-0.306-0.248-0.554-0.554-0.554c-6.925,0-13.813,3.938-16.377,9.363
			c-0.131,0.277-0.012,0.607,0.264,0.738C341.814,274.871,341.894,274.888,341.974,274.888z"/>
		<path style="opacity:0.2;" d="M357.388,282.211c0.306,0,0.554-0.248,0.554-0.554c0-2.492,5.056-7.938,8.861-7.938
			c0.306,0,0.554-0.248,0.554-0.554c0-0.306-0.248-0.554-0.554-0.554c-4.206,0-9.969,5.77-9.969,9.046
			C356.834,281.964,357.082,282.211,357.388,282.211z"/>
		<path style="opacity:0.2;" d="M369.919,287.545c0.213,0,0.416-0.124,0.507-0.333c0.816-1.869,1.879-3.904,4.184-4.398
			c0.3-0.064,0.49-0.359,0.426-0.658c-0.066-0.299-0.365-0.489-0.658-0.425c-3.055,0.654-4.299,3.506-4.967,5.038
			c-0.122,0.28,0.005,0.606,0.285,0.729C369.77,287.53,369.845,287.545,369.919,287.545z"/>
		<path style="opacity:0.2;" d="M365.719,264.988c0.236,0,0.454-0.151,0.529-0.388c0.347-1.108,2.561-3.19,5.018-3.114
			c0.303,0.003,0.56-0.233,0.569-0.539c0.009-0.306-0.233-0.56-0.539-0.569c-2.926-0.044-5.605,2.288-6.106,3.89
			c-0.091,0.292,0.071,0.603,0.363,0.694C365.609,264.98,365.664,264.988,365.719,264.988z"/>
		<path style="opacity:0.2;" d="M379.648,274.333c0.204,0,0.401-0.113,0.498-0.31c0.134-0.275,0.021-0.607-0.254-0.741
			c-1.017-0.499-2.802-0.628-3.67-0.053c-0.255,0.168-0.326,0.512-0.157,0.767c0.169,0.256,0.513,0.325,0.767,0.157
			c0.422-0.278,1.771-0.269,2.573,0.123C379.483,274.315,379.566,274.333,379.648,274.333z"/>
	</g>
</g>
<g id="Character_1">
	<g>
		<path style="fill:#263238;" d="M272.28,139.925l-1.101-3.546c-0.502-1.616-2.234-2.504-3.839-1.968l-5.206,1.738l-4.733,4.429
			c-0.473,0.443-0.8,0.998-0.973,1.597c-1.078,0.178-2.174,0.36-3.238,0.51c-1.787,0.261-3.554,0.493-5.294,0.658
			c-1.733,0.176-3.438,0.241-5.071,0.276c-0.953-0.003-1.873-0.051-2.754-0.13c-1.528-1.131-3.052-2.509-4.535-4.032
			c-1.748-1.819-3.436-3.827-5.063-5.922c-0.465-0.606-0.917-1.233-1.375-1.852c0.47-1.41,0.728-2.822,0.71-4.161
			c0,0-4.296-7.014-8.256-12.779c-1.085-3.567-3.535-6.711-8.622-8.369c-2.389-0.779-5.341-1.445-8.615-1.995
			c-0.903-1.538-1.022-3.11-0.826-4.586c0.001,0,0.002,0.001,0.004,0.001c0.066-0.51,0.175-1.004,0.296-1.487
			c4.398,0.289,7.649-3.175,9.682-8.321c1.815-4.593,2.741-11.278,1.267-16.731c3.082,1.099,5.807,1.209,6.587-0.277
			c0.982-1.871-5.476-3.724-5.476-3.724s3.465,0.239,5.883-2.259c2.419-2.498-5.533-3.019-8.134-1.81
			c3.364-3.457,4.025-5.964-1.63-5.111c-2.12,0.319-5.219,1.805-5.219,1.805s-12.16-7.954-13.994-0.922
			c-0.81-1.776-0.884-3.934-2.548-4.181c-2.037-0.302-1.083,4.079,1.735,5.732c-4.802,2.125-4.91,4.912-3.876,7.379
			c-2.179,0.527-1.951,4.351-0.22,7.842c-0.77,0.853-1.151,2.093-0.94,3.384c0.37,2.264,1.759,4.141,3.318,5.211
			c0.438,0.301,0.868,0.479,1.279,0.555c0.113,0.656,0.267,1.283,0.457,1.888c0.147,4.848,0.36,10.477-2.046,14.051
			c-2.555-0.15-5.119-0.243-7.62-0.269c-0.067-0.001-0.131,0.008-0.198,0.008c-0.186-0.001-0.37-0.009-0.559,0.001
			c-0.154,0.008-0.307,0.028-0.46,0.04c-2.976,0.158-5.77,0.993-8.225,2.372c-9.319,4.511-16.443,13.717-16.443,13.717
			c0.159,1.226,0.481,2.414,0.912,3.559c-1.347,1.198-2.673,2.427-3.958,3.712c-2.103,2.053-4.052,4.32-5.936,6.645l-0.289,0.354
			c-0.485,0.604-0.844,1.327-1.023,2.135c-0.694,3.12-0.913,6.184-0.895,9.151c0.017,2.969,0.342,5.854,0.797,8.666
			c0.489,2.81,1.135,5.551,1.951,8.227c0.434,1.406,0.892,2.771,1.404,4.132c-1.222,2.737-0.715,6.785-0.715,6.785l-0.184,4.358
			c-0.062,1.477,0.954,2.782,2.401,3.083l3.635,0.756c1.657,0.344,3.273-0.74,3.583-2.403l1.004-5.396l-1.578-6.287
			c-0.044-0.174-0.102-0.343-0.17-0.505c-0.246-2.029-0.481-4.161-0.629-6.217c-0.192-2.512-0.304-5.008-0.291-7.461
			c-0.011-2.45,0.146-4.859,0.412-7.17c0.202-1.68,0.514-3.3,0.914-4.828c1.496-1.483,3.029-2.94,4.659-4.34
			c0.403-0.342,0.818-0.676,1.226-1.016c0.392,11.997,0.732,27.783-0.986,48.701c0.283,0.163,0.617,0.328,0.98,0.494
			c-6.249,20.855,1.103,41.073,5.942,85.446c-1.611,35.634,17.875,97.62,17.875,97.62l31.556-98.285
			c-7.312-17.004-6.916-70.781-6.789-77.857c0.207-0.08,0.394-0.166,0.535-0.264c-0.71-9.136,3.451-32.158,5.465-47.135
			c0.026-0.126,0.059-0.267,0.086-0.395c0.529-0.197,1.043-0.428,1.546-0.678c1.991,2.353,4.134,4.628,6.533,6.77
			c2.403,2.174,5.091,4.204,8.248,5.913l0.479,0.26c0.646,0.347,1.382,0.55,2.166,0.566c2.409,0.051,4.661-0.217,6.811-0.6
			c2.133-0.406,4.166-1.001,6.133-1.65c1.953-0.694,3.843-1.47,5.671-2.354c1.843-0.904,3.558-1.828,5.353-3.02
			c0.072-0.048,0.135-0.104,0.203-0.157c2.719-0.573,5.402-2.531,5.402-2.531l3.9-1.952
			C272.07,142.858,272.718,141.337,272.28,139.925z"/>
		<path style="fill:#FFFFFF;" d="M204.308,78.71c-0.317,0.755-0.175,1.535,0.318,1.742c0.493,0.208,1.15-0.236,1.468-0.991
			c0.318-0.755,0.175-1.535-0.318-1.742C205.283,77.512,204.625,77.956,204.308,78.71z"/>
		<path style="fill:#FFFFFF;" d="M211.999,81.374c-0.317,0.755-0.175,1.535,0.318,1.742c0.493,0.208,1.15-0.236,1.468-0.991
			s0.175-1.535-0.318-1.742C212.974,80.176,212.316,80.619,211.999,81.374z"/>
		<g>
			<path style="fill:#FFFFFF;" d="M207.828,87.616c-0.771-0.674-2.271-1.879-4.902-3.637c-0.667-0.446-1.526,0.164-1.338,0.944
				c0.293,1.216,1.476,2.317,3.358,3.508c1.217,0.77,2.06,0.819,2.619,0.637C208.182,88.868,208.316,88.042,207.828,87.616z"/>
		</g>
		<path style="fill:#FFFFFF;" d="M207.529,78.5c0.017,0.066,0.017,0.136-0.002,0.206c-0.059,0.216-0.284,0.343-0.502,0.282
			c-2.183-0.606-2.783-2.39-2.808-2.466c-0.07-0.215,0.049-0.443,0.263-0.51c0.214-0.067,0.444,0.051,0.514,0.264l0,0
			c0.02,0.059,0.503,1.445,2.245,1.929C207.387,78.246,207.493,78.362,207.529,78.5z"/>
		<path style="fill:#FFFFFF;" d="M212.76,76.747c0.104-0.081,0.245-0.109,0.379-0.064c1.695,0.581,2.867-0.304,2.917-0.342
			c0.177-0.137,0.432-0.105,0.569,0.073c0.137,0.178,0.105,0.433-0.071,0.573c-0.065,0.049-1.554,1.2-3.678,0.472
			c-0.212-0.073-0.325-0.305-0.252-0.519C212.65,76.861,212.698,76.795,212.76,76.747z"/>
	</g>
</g>
<g id="Character_2">
	<g>
		<path style="fill:#263238;" d="M368.588,133.47l-2.624-2.627c-1.045-1.046-2.693-1.181-3.894-0.32l-3.545,2.541
			c0,0-3.728,1.821-5.327,4.376c-0.555,0.886-0.647,1.945-0.339,2.896l0.002,0.021c0.084,1.111,0.176,2.438,0.223,3.661
			c0.062,1.245,0.076,2.491,0.07,3.724c-0.025,2.464-0.153,4.893-0.496,7.205c-0.303,2.315-0.853,4.509-1.572,6.453
			c-0.089,0.237-0.193,0.455-0.289,0.682c-0.593-0.309-1.182-0.628-1.764-0.972c-2.003-1.159-3.97-2.424-5.871-3.816
			c-0.371-0.273-0.734-0.561-1.102-0.839c-0.063-0.419-0.143-0.829-0.25-1.225c0,0-10.712-10.432-16.138-14.468
			c-0.4-0.298-0.794-0.517-1.184-0.695c-2.494-2.252-5.609-3.885-9.159-4.551c-2.459-0.462-4.992-0.871-7.526-1.222
			c-1.586-3.79-0.471-8.95,0.582-13.52c0.109-0.16,0.221-0.317,0.326-0.484c0.408,0.087,0.874,0.085,1.393-0.026
			c1.849-0.396,3.848-1.603,5.053-3.555c0.687-1.114,0.806-2.406,0.419-3.487c2.93-2.569,4.598-6.018,2.784-7.335
			c1.896-1.887,2.857-4.506-0.773-8.299c3.235-0.455,5.786-4.143,3.787-4.64c-1.632-0.405-2.523,1.562-3.948,2.896
			c0.982-7.201-13.29-4.477-13.29-4.477s-2.299-2.553-4.138-3.656c-4.905-2.942-5.247-0.372-3.454,4.105
			c-1.945-2.109-9.495-4.656-8.21-1.425c1.285,3.231,4.579,4.33,4.579,4.33s-6.677-0.746-6.482,1.357
			c0.155,1.672,2.717,2.607,5.984,2.765c-3.439,4.481-5.128,11.015-5.199,15.953c-0.092,6.361,2.15,11.28,7.83,11.802
			c0.001,0.019,0.003,0.038,0.004,0.057c0.048,0.653,0.072,1.336,0.025,2.024c0.001,0,0.003,0,0.004,0
			c-0.096,1.486-0.52,3.004-1.705,4.337c-3.318-0.098-6.343-0.021-8.838,0.277c-9.196,1.098-11.536,8.089-12.326,14.331
			c-0.835,6.605-0.114,14.97-0.07,20.903c-0.945,15.082-1.354,38.473-3.833,47.296c0.119,0.124,0.285,0.244,0.473,0.363
			c-1.255,6.964-10.843,60.137-15.273,83.905l16.719,82.789c0,0,19.694-46.1,25.064-81.364c13.4-42.578,24.553-60.973,22.492-82.646
			c0.389-0.092,0.748-0.189,1.057-0.293c2.258-19.658,5.42-34.487,8.057-45.915c3.506,0.928,6.377,1.113,6.377,1.113
			c1.694-0.958,3.176-2.229,4.42-3.689c0.46,0.274,0.92,0.548,1.382,0.82c1.285,0.678,2.543,1.386,3.88,1.986
			c2.604,1.3,5.414,2.265,8.23,3.145l0.421,0.133c2.36,0.734,5.022-0.087,6.527-2.212c1.043-1.474,1.923-3.013,2.599-4.592
			c0.672-1.578,1.157-3.169,1.536-4.743c0.735-3.151,0.909-6.24,0.835-9.211c-0.099-2.979-0.492-5.855-1.088-8.653
			c-0.283-1.331-0.631-2.639-1.011-3.935l3.575-1.24l3.965-3.796C369.762,136.613,369.784,134.667,368.588,133.47z"/>
		<path style="fill:#FFFFFF;" d="M300.725,108.165c0.006,0.819-0.423,1.486-0.958,1.49c-0.535,0.004-0.974-0.656-0.98-1.475
			c-0.006-0.819,0.423-1.486,0.958-1.49C300.28,106.686,300.719,107.347,300.725,108.165z"/>
		<path style="fill:#FFFFFF;" d="M292.507,106.474c0.006,0.819-0.423,1.486-0.958,1.49c-0.535,0.004-0.974-0.656-0.98-1.475
			c-0.006-0.819,0.423-1.486,0.958-1.49C292.062,104.995,292.501,105.656,292.507,106.474z"/>
		<g>
			<path style="fill:#FFFFFF;" d="M290.957,115.952c0,0,2.559-0.565,10.142-0.552c-0.37,2.089-2.614,2.69-6.506,2.65
				C290.701,118.01,290.957,115.952,290.957,115.952z"/>
		</g>
		<path style="fill:#FFFFFF;" d="M298.726,104.761c-0.046,0.05-0.08,0.112-0.097,0.182c-0.051,0.218,0.086,0.437,0.307,0.487
			c2.208,0.507,3.586-0.775,3.644-0.83c0.163-0.155,0.168-0.412,0.011-0.574c-0.156-0.161-0.414-0.167-0.578-0.013l0,0
			c-0.045,0.042-1.131,1.031-2.892,0.626C298.972,104.605,298.823,104.657,298.726,104.761z"/>
		<path style="fill:#FFFFFF;" d="M293.632,103.706c-0.066-0.115-0.185-0.195-0.326-0.203c-1.789-0.108-2.536-1.373-2.567-1.427
			c-0.112-0.195-0.359-0.262-0.553-0.149c-0.194,0.112-0.263,0.36-0.153,0.556c0.041,0.07,0.98,1.701,3.221,1.837
			c0.224,0.013,0.417-0.159,0.431-0.384C293.69,103.852,293.67,103.773,293.632,103.706z"/>
	</g>
</g>
<g id="Character_3">
	<g>
		<g>
			<path style="fill:#FF8B7B;" d="M226.543,154.096l-1.027-0.381l-0.898-0.357c-0.588-0.241-1.157-0.502-1.726-0.762
				c-1.137-0.52-2.236-1.103-3.33-1.705c-2.174-1.227-4.298-2.602-6.319-4.213c-1.011-0.808-2.003-1.66-2.967-2.576
				c-0.951-0.936-1.874-1.926-2.753-2.99c-0.868-1.079-1.711-2.214-2.448-3.456c-0.733-1.251-1.388-2.58-1.932-3.983l-0.175-0.452
				c-1.061-2.734,0.037-5.774,2.461-7.243c3.048-1.851,6.084-2.966,9.053-3.824c2.972-0.87,5.918-1.394,8.833-1.808
				c2.921-0.386,5.818-0.61,8.707-0.697c2.908-0.072,5.723-0.048,8.703,0.21c1.908,0.165,3.321,1.846,3.155,3.754
				c-0.134,1.554-1.274,2.78-2.724,3.092l-0.143,0.03c-2.553,0.547-5.255,1.119-7.842,1.754c-2.604,0.635-5.179,1.305-7.675,2.08
				c-2.501,0.744-4.929,1.616-7.189,2.573c-2.262,0.949-4.332,2.095-5.927,3.276l2.286-7.694c0.683,1.235,1.645,2.439,2.799,3.622
				c1.18,1.165,2.552,2.285,4.049,3.338c1.513,1.034,3.119,2.036,4.811,2.938c0.839,0.462,1.705,0.885,2.562,1.311l1.288,0.605
				l1.139,0.514l0.493,0.222c3.492,1.574,5.046,5.681,3.473,9.173C233.774,153.785,229.929,155.344,226.543,154.096z"/>
			<g>
				<path style="fill:#407BFF;" d="M243.738,140.145c-5.253-1.219-20.187-4.646-20.187-4.646
					c-5.865,1.853-8.041,12.795-7.119,19.714c0,0,5.865,7.811,15.003,5.661C241.742,158.449,253.555,142.422,243.738,140.145z"/>
			</g>
			<path style="fill:#FF8B7B;" d="M247.216,111.087l-3.208-1.869c-1.462-0.852-3.338-0.335-4.159,1.144l-1.935,3.49
				c-0.479,0.863-0.766,1.82-0.841,2.804l-0.38,4.969c-0.104,1.357,0.584,2.652,1.766,3.327l1.346,0.768
				c1.407,0.803,3.196,0.558,4.3-0.627c2.051-2.202,2.858-6.248,2.858-6.248l1.555-4.075
				C249.045,113.391,248.494,111.831,247.216,111.087z"/>
			<path style="opacity:0.2;" d="M247.221,111.085l-3.215-1.865c-0.067-0.037-0.133-0.074-0.199-0.1
				c-2.326,3.02-3.912,6.922-4.73,10.623c-0.358,1.576-0.58,3.12-0.655,4.535c-0.014,0.213-0.018,0.425-0.021,0.637
				c-0.028,0.818-0.016,1.612,0.046,2.369c0.864-0.188,1.718-0.364,2.561-0.55l0.146-0.033c0.521-0.106,0.989-0.336,1.398-0.655
				c0.579-0.164,1.114-0.494,1.553-0.954c2.055-2.203,2.856-6.242,2.856-6.242l1.561-4.08
				C249.043,113.394,248.49,111.829,247.221,111.085z"/>
		</g>
		<polygon style="fill:#FF8B7B;" points="187.024,402.071 178.934,399.159 184.957,380.114 193.047,383.026 		"/>
		<path style="fill:#263238;" d="M180.337,395.802l8.89,3.036c0.333,0.114,0.53,0.44,0.476,0.784l-1.221,7.675
			c-0.127,0.796-0.974,1.301-1.737,1.026c-3.186-1.149-7.746-2.916-11.776-4.293c-4.713-1.609-4.305-1.263-9.832-3.15
			c-3.342-1.141-2.948-4.785-1.43-4.609c6.913,0.803,7.593,0.948,14.422-0.515C178.87,395.598,179.635,395.562,180.337,395.802z"/>
		<polygon style="opacity:0.2;" points="184.957,380.12 181.851,389.936 189.944,392.849 193.05,383.033 		"/>
		<g>
			<path style="fill:#407BFF;" d="M178.654,396.063c0.074-0.001,0.142-0.044,0.173-0.114c0.035-0.078,0.017-0.173-0.045-0.237
				c-0.314-0.321-3.108-3.127-4.259-2.905c-0.222,0.043-0.384,0.186-0.469,0.413c0,0,0,0,0,0c-0.141,0.381-0.112,0.743,0.088,1.077
				c0.663,1.109,3.094,1.581,4.483,1.764C178.636,396.062,178.645,396.063,178.654,396.063z M174.693,393.206
				c0.677-0.006,2.256,1.289,3.37,2.356c-1.887-0.311-3.206-0.848-3.579-1.471c-0.131-0.219-0.148-0.451-0.052-0.71
				c0.037-0.1,0.092-0.15,0.182-0.168C174.638,393.209,174.665,393.206,174.693,393.206z"/>
			<path style="fill:#407BFF;" d="M178.654,396.063c0.019,0,0.038-0.003,0.057-0.009c0.068-0.022,0.117-0.079,0.131-0.151
				c0.018-0.098,0.438-2.402-0.351-3.621c-0.241-0.372-0.568-0.608-0.974-0.702l0,0c-0.547-0.127-0.778,0.094-0.877,0.302
				c-0.418,0.885,1.018,3.341,1.873,4.125C178.553,396.044,178.604,396.063,178.654,396.063z M177.235,391.956
				c0.055,0,0.124,0.007,0.209,0.027c0,0,0,0,0,0c0.301,0.07,0.535,0.239,0.715,0.518c0.518,0.801,0.426,2.233,0.344,2.92
				c-0.829-0.956-1.75-2.815-1.499-3.346C177.019,392.042,177.059,391.958,177.235,391.956z M177.223,393.285l-0.005,0
				L177.223,393.285z"/>
		</g>
		<g>
			<path style="fill:#407BFF;" d="M222.807,306.972c15.303-42.506,27.309-60.351,25.795-82.451l-30.198-3.003
				c0,0-13.065,58.727-18.841,83.973c-6.009,26.25-18.479,78.129-18.479,78.129l13.372,3.629
				C194.456,387.249,216.008,341.988,222.807,306.972z"/>
			<path style="opacity:0.6;fill:#FFFFFF;" d="M222.807,306.972c15.303-42.506,27.309-60.351,25.795-82.451l-30.198-3.003
				c0,0-13.065,58.727-18.841,83.973c-6.009,26.25-18.479,78.129-18.479,78.129l13.372,3.629
				C194.456,387.249,216.008,341.988,222.807,306.972z"/>
		</g>
		<path style="opacity:0.2;fill:#407BFF;" d="M247.178,241.58c-2.513,11.272-7.903,23.428-14.786,40.44
			C232.267,262.743,236.604,239.931,247.178,241.58z"/>
		<polygon style="fill:#407BFF;" points="180.186,379.554 179.395,385.552 193.765,390.646 196.126,385.518 		"/>
		<polygon style="fill:#FF8B7B;" points="272.847,389.072 273.527,409.041 263.975,408.906 263.296,388.937 		"/>
		<path style="fill:#263238;" d="M264.2,406.301l9.385,0.147c0.351,0.006,0.627,0.255,0.664,0.599l0.818,7.678
			c0.085,0.796-0.603,1.538-1.412,1.512c-3.379-0.111-4.442-0.386-8.697-0.453c-4.975-0.078-2.679,0.126-8.514,0.035
			c-3.528-0.055-4.093-3.627-2.583-3.944c4.781-1.001,6.036-2.904,8.192-4.936C262.617,406.408,263.458,406.29,264.2,406.301z"/>
		<polygon style="opacity:0.2;" points="272.853,389.077 273.202,399.371 263.647,399.236 263.298,388.942 		"/>
		<g>
			<path style="fill:#407BFF;" d="M265.901,406.953c0.076,0.003,0.148-0.037,0.185-0.105c0.042-0.076,0.032-0.17-0.026-0.234
				c-0.292-0.329-2.894-3.205-4.08-3.036c-0.229,0.033-0.405,0.166-0.509,0.386h0c-0.174,0.368-0.174,0.726,0.001,1.063
				c0.581,1.118,3.007,1.685,4.401,1.924C265.882,406.952,265.891,406.953,265.901,406.953z M262.119,403.977
				c0.687,0.023,2.182,1.362,3.223,2.459c-1.888-0.386-3.181-0.97-3.508-1.598c-0.115-0.221-0.113-0.45,0.006-0.7
				c0.046-0.097,0.105-0.143,0.198-0.157C262.063,403.978,262.09,403.977,262.119,403.977z"/>
			<path style="fill:#407BFF;" d="M265.901,406.953c0.019,0.001,0.039-0.001,0.058-0.007c0.07-0.018,0.125-0.073,0.145-0.143
				c0.027-0.095,0.642-2.342-0.058-3.574c-0.213-0.376-0.526-0.622-0.93-0.731l0,0c-0.544-0.148-0.797,0.06-0.914,0.26
				c-0.496,0.852,0.758,3.327,1.561,4.134C265.8,406.93,265.849,406.951,265.901,406.953z M264.799,402.857
				c0.056,0.002,0.125,0.012,0.21,0.035h0c0.299,0.081,0.523,0.258,0.683,0.539c0.46,0.809,0.249,2.213,0.109,2.884
				c-0.762-0.974-1.543-2.841-1.245-3.352C264.573,402.932,264.62,402.851,264.799,402.857z M265.062,402.696l-0.005,0
				L265.062,402.696z"/>
		</g>
		<g>
			<path style="fill:#407BFF;" d="M265.912,307.366c-1.304-30.879,6.012-58.805,1.646-81.223l-31.538-2.661
				c0,0,0.735,63.784,6.304,89.64c5.788,26.884,18.673,79.916,18.673,79.916l13.88,0.197
				C274.878,393.235,273.464,336.768,265.912,307.366z"/>
			<path style="opacity:0.6;fill:#FFFFFF;" d="M265.912,307.366c-1.304-30.879,6.012-58.805,1.646-81.223l-31.538-2.661
				c0,0,0.735,63.784,6.304,89.64c5.788,26.884,18.673,79.916,18.673,79.916l13.88,0.197
				C274.878,393.235,273.464,336.768,265.912,307.366z"/>
		</g>
		<polygon style="fill:#407BFF;" points="258.973,389.96 259.881,395.898 275.443,396.171 276.322,390.559 		"/>
		<path style="fill:#407BFF;" d="M237.348,140.094c7.579-0.594,19.874,0.988,30.678,3.475c10.256,2.36,16.625,12.632,14.059,22.838
			c-3.131,12.454-9.332,30.872-13.93,60.294c-4.576,1.343-17.94,0.931-28.544-0.084c-1.152-0.11-3.918-2.887-3.918-2.887
			s-2.595,2.151-4.061,1.94c-7.018-1.012-12.596-2.36-13.855-3.776c2.836-8.714,4.195-32.07,5.753-47.1
			c0.197-5.93-0.184-14.318,0.92-20.883C225.492,147.707,228.115,140.817,237.348,140.094z"/>
		<path style="fill:#FF8B7B;" d="M262.357,126.076c-1.52,5.849-4.254,13.501-0.65,18.049c-2.633,3.939-8.771,7.038-14.877,8.587
			c-3.906-4.645-3.425-9.069-1.676-11.641c3.564-2.537,3.008-6.392,2.868-9.074L262.357,126.076z"/>
		<path style="fill:#263238;" d="M246.829,152.712c0,0-1.325-1.704-1.497-3.63s-3.537-0.644-3.537-0.644
			S243.485,151.114,246.829,152.712z"/>
		<path style="fill:#263238;" d="M246.829,152.712c0,0,0.44-2.181,3.092-2.582s5.011,0.467,5.011,0.467
			S250.158,152.797,246.829,152.712z"/>
		<path style="opacity:0.2;" d="M248.02,131.996c0.063,1.15,0.197,2.526,0.047,3.916c4.907-0.107,9.755-2.858,10.425-8.242
			L248.02,131.996z"/>
		<path style="fill:#FF8B7B;" d="M266.935,117.13c-2.934,8.013-5.002,13.63-10.796,15.579c-11.796,3.967-15.844-2.237-15.361-10.988
			c0.435-7.877,5.16-19.658,14.111-20.452C263.709,100.487,269.869,109.117,266.935,117.13z"/>
		<path style="fill:#263238;" d="M262.193,124.083c-1.036-4.367,0.787-6.813,1.974-7.175c-1.969-0.633-4.756-7.388-2.878-9.657
			c-3.356,0.105-6.409-1.057-6.617-1.966c-6.001,1.641-13.764,0.667-13.917-2.298c-0.109-2.11,6.531-1.093,6.531-1.093
			s-3.247-1.231-4.399-4.512c-1.152-3.281,6.288-0.429,8.146,1.758c-1.61-4.547-1.163-7.101,3.618-3.961
			c1.792,1.177,3.986,3.821,3.986,3.821s16.011-2.391,12.751,6.276c4.011,4.217,2.924,6.928,0.872,8.811
			C275.186,116.398,268.268,124.239,262.193,124.083z"/>
		<path style="fill:#263238;" d="M268.908,105.046c3.488,0.306,4.447-4.478,6.888-3.766
			C278.357,102.029,273.079,107.841,268.908,105.046z"/>
		<g>
			<path style="fill:#263238;" d="M254.032,127.356c0,0-2.617-0.128-9.93-2.135c0.906-1.918,2.545-3.237,6.289-2.174
				C254.136,124.109,254.032,127.356,254.032,127.356z"/>
			<path style="fill:#FFFFFF;" d="M248.616,124.263c1.807,0.513,3.122,0.468,4.104,0.079c-0.524-0.525-1.279-0.994-2.325-1.29
				c-1.807-0.513-3.114-0.475-4.095-0.077C246.824,123.499,247.57,123.966,248.616,124.263z"/>
			<path style="fill:#FFFFFF;" d="M253.699,127.326c-0.197-0.516-0.392-1.033-1.121-1.383c-1.521-0.52-5.431-1.166-6.483-1.239
				c-0.673-0.077-1.251-0.009-1.676,0.603C250.05,126.84,252.809,127.231,253.699,127.326z"/>
		</g>
		<path style="opacity:0.2;" d="M255.777,128.306c0,0-1.227,1.571-2.133,0.222C254.295,128.835,255.777,128.306,255.777,128.306z"/>
		<path style="opacity:0.2;" d="M256.384,116.255c0,0,2.078-0.537,3.516,0.528C257.935,116.878,256.384,116.255,256.384,116.255z"/>
		<path style="opacity:0.2;" d="M256.315,117.101c0,0,1.956-0.085,2.967,1.259C257.53,118.037,256.315,117.101,256.315,117.101z"/>
		<path style="fill:#FF8B7B;" d="M268.618,124.769c-1.283,1.902-3.329,3.026-5.193,3.346c-2.803,0.482-3.94-2.098-2.939-4.594
			c0.901-2.247,3.444-5.205,6.151-4.552C269.304,119.613,270.085,122.595,268.618,124.769z"/>
		<path style="fill:#FF5652;" d="M249.55,114.722c0,0-2.78,3.268-5.044,4.521c0.791,1.491,2.932,1.686,2.932,1.686L249.55,114.722z"
			/>
		<path style="fill:#263238;" d="M256.471,109.811c-0.057-0.036-0.125-0.058-0.197-0.062c-0.224-0.01-0.413,0.165-0.423,0.39
			c-0.095,2.263,1.418,3.384,1.482,3.431c0.183,0.132,0.436,0.09,0.566-0.094c0.13-0.183,0.088-0.438-0.093-0.57l0,0
			c-0.05-0.037-1.22-0.923-1.144-2.729C256.669,110.024,256.591,109.886,256.471,109.811z"/>
		<path style="fill:#263238;" d="M254.967,115.928c0.039-0.029,0.071-0.069,0.092-0.117c0.064-0.148-0.005-0.321-0.155-0.385
			c-1.503-0.644-2.647,0.089-2.695,0.121c-0.136,0.089-0.173,0.271-0.082,0.406c0.09,0.134,0.273,0.172,0.409,0.083l0,0
			c0.038-0.024,0.936-0.587,2.135-0.073C254.773,116.007,254.885,115.99,254.967,115.928z"/>
		<path style="fill:#263238;" d="M246.379,114.31c0.049,0.001,0.099-0.01,0.145-0.035c0.143-0.076,0.196-0.255,0.118-0.398
			c-0.777-1.439-2.129-1.575-2.186-1.58c-0.162-0.015-0.304,0.105-0.317,0.267c-0.013,0.162,0.107,0.304,0.268,0.319l0,0
			c0.044,0.005,1.098,0.122,1.717,1.27C246.178,114.251,246.277,114.307,246.379,114.31z"/>
		<path style="fill:#263238;" d="M248.244,107.858c-0.119-0.058-0.263-0.057-0.384,0.016c-1.54,0.917-2.869,0.292-2.925,0.265
			c-0.202-0.098-0.445-0.014-0.542,0.188c-0.097,0.202-0.014,0.446,0.187,0.546c0.074,0.035,1.767,0.855,3.697-0.294
			c0.193-0.115,0.255-0.365,0.14-0.56C248.375,107.947,248.314,107.893,248.244,107.858z"/>
		<g>
			<path style="fill:#FF8B7B;" d="M273.802,144.945l0.598,0.115l0.766,0.132c0.524,0.083,1.055,0.17,1.591,0.236
				c1.072,0.131,2.15,0.248,3.217,0.295c2.133,0.116,4.215,0.025,6.139-0.255c1.919-0.303,3.657-0.827,5.138-1.579
				c1.47-0.774,2.706-1.759,3.772-3.072l1.013,8.154c-1.778-1.736-4.116-3.491-6.609-5.091c-2.506-1.601-5.163-3.154-7.904-4.604
				c-2.732-1.476-5.544-2.878-8.383-4.255c-2.826-1.377-5.75-2.722-8.567-4.032l-0.082-0.038c-1.734-0.806-2.487-2.865-1.681-4.6
				c0.678-1.459,2.246-2.222,3.759-1.948c3.335,0.605,6.496,1.39,9.705,2.272c3.192,0.889,6.357,1.905,9.51,3.055
				c3.14,1.18,6.284,2.453,9.384,4.03c3.103,1.582,6.21,3.345,9.259,5.888c2.353,1.961,2.824,5.342,1.207,7.853l-0.194,0.301
				c-0.944,1.469-2.011,2.897-3.273,4.162c-1.255,1.262-2.659,2.387-4.145,3.32c-1.486,0.929-3.038,1.705-4.611,2.324
				c-1.578,0.591-3.168,1.042-4.749,1.38c-3.162,0.67-6.277,0.834-9.307,0.732c-1.516-0.067-3.015-0.188-4.503-0.411
				c-0.745-0.108-1.489-0.23-2.237-0.378l-1.135-0.248l-0.587-0.141l-0.704-0.184c-3.705-0.971-5.921-4.762-4.95-8.467
				c0.93-3.549,4.448-5.732,8-5.055L273.802,144.945z"/>
			<g>
				<path style="fill:#407BFF;" d="M263.719,142.641c6.763-0.006,21.585,1.958,21.585,1.958c4.829,3.809,7.365,12.878,4.233,19.97
					c0,0-12.853,8.356-20.638,3.11C260.118,161.764,253.641,142.65,263.719,142.641z"/>
			</g>
			<path style="fill:#FF8B7B;" d="M270.354,128.388l1.916-6.192l-10.446-0.168c0,0-0.74,4.082,0.371,6.884
				c0.594,1.498,2.165,2.369,3.76,2.141l1.533-0.22C268.836,130.64,269.952,129.688,270.354,128.388z"/>
			<path style="fill:#FF8B7B;" d="M268.111,114.16l-3.671,0.559c-1.461,0.222-2.547,1.47-2.564,2.948l-0.052,4.361l10.446,0.168
				l-0.711-5.443C271.34,115.075,269.784,113.905,268.111,114.16z"/>
		</g>
		<path style="fill:#FFFFFF;" d="M260.754,139.128c-0.238,1.963-2.154,9.929-10.832,11.003c5.011,0.467,8.034,6.086,8.034,6.086
			s5.938-6.572,6.235-13.7C262.49,140.82,260.754,139.128,260.754,139.128z"/>
		<path style="fill:#FFFFFF;" d="M247.385,138.468c-0.231,1.918-2.93,5-2.053,10.615c-3.1-0.678-8.209,3.278-8.209,3.278
			s2.022-10.714,6.191-13.012C244.942,138.416,247.385,138.468,247.385,138.468z"/>
	</g>
</g>
<g id="Bubble_Speech_1">
	<g>
		<path style="fill:#407BFF;" d="M64.314,92.349c-0.376-7.428,1.801-13.683,6.47-18.593l0.725,0.689
			c-4.473,4.704-6.557,10.71-6.196,17.853L64.314,92.349z"/>
		<path style="fill:#407BFF;" d="M69.918,106.513c-1.849-2.347-3.263-4.83-4.204-7.381l0.938-0.347
			c0.905,2.453,2.269,4.845,4.052,7.108L69.918,106.513z"/>
		<path style="fill:#407BFF;" d="M67.81,92.172c1.161,22.938,43.516,36.929,68.796,26.879c14.424-5.734,25.999-22.521,17.144-34.674
			c7.593-2.151,14.994-1.458,17.749-0.866c-10.976-7.138-20.978-8.118-28.691-7.025c-2.951-1.262-12.194-5.028-21.256-7.251
			C95.419,62.823,66.608,68.427,67.81,92.172z"/>
		<path style="fill:#FFFFFF;" d="M126.334,108.706c-0.013,0-0.025,0-0.037,0c-0.591-0.005-1.097-0.308-1.321-0.788
			c-0.195-0.419-0.132-0.888,0.17-1.255c0.442-0.54,0.898-1.077,1.369-1.614c-2.349,1.432-4.749,2.502-7.158,3.187
			c-0.695,0.199-1.416-0.055-1.756-0.614c-0.286-0.469-0.22-1.02,0.172-1.436l2.223-2.361c-0.114,0.067-0.229,0.133-0.345,0.199
			c-4.139,2.371-7.735,3.075-10.685,2.088c-0.409-0.137-0.722-0.426-0.858-0.795c-0.123-0.332-0.088-0.7,0.097-1.008
			c0.188-0.316,0.38-0.629,0.575-0.941c-1.836,0.844-3.873,1.493-5.979,1.543c-0.586,0.01-1.114-0.255-1.377-0.702
			c-0.218-0.371-0.217-0.798,0.004-1.173c0.892-1.517,1.863-2.986,2.904-4.401c-1.423,0.764-2.848,1.494-4.257,2.205
			c-2.687,1.356-5.525,2.484-8.107,1.558c-0.65-0.233-1.021-0.86-0.861-1.458c0.366-1.376,1.061-2.615,1.882-3.768
			c-1.875,1.016-3.969,1.788-6.097,1.316c-0.123-0.028-0.397-0.089-0.66-0.25c-2.037,0.75-4.021,1.095-5.983,1.022
			c-0.284-0.01-0.951-0.034-1.348-0.53c-0.35-0.439-0.325-1.005-0.256-1.502c0.515-3.65,2.088-6.864,4.21-9.747
			c0.572-4.278,2.707-8.238,5.92-10.86c0.195-0.16,0.483-0.131,0.643,0.065c0.159,0.195,0.131,0.483-0.064,0.642
			c-2.563,2.092-4.437,5.202-5.266,8.584c2.493-2.985,5.516-5.605,8.423-7.992c1.237-1.015,2.71-2.092,4.249-2.388
			c0.623-0.121,1.258,0.124,1.577,0.608c0.271,0.409,0.268,0.896-0.008,1.305c-2.656,3.941-5.777,7.512-9.275,10.611
			c-1.283,1.137-2.833,2.342-4.599,2.66c-0.472,0.087-0.968-0.041-1.315-0.338c-0.288-0.247-0.443-0.577-0.436-0.929
			c0.001-0.051,0.002-0.101,0.003-0.151c-1.59,2.438-2.741,5.105-3.157,8.056c-0.04,0.286-0.069,0.636,0.065,0.805
			c0.118,0.148,0.403,0.178,0.667,0.188c1.752,0.063,3.542-0.23,5.379-0.874c-0.114-0.481,0.069-0.97,0.165-1.227
			c2.325-6.22,6.197-11.644,11.198-15.685c2.19-1.77,4.133-2.69,5.938-2.813c0.554-0.032,1.065,0.193,1.354,0.601
			c0.242,0.343,0.287,0.756,0.124,1.135c-2.654,6.153-6.808,11.443-12.01,15.3c-1.63,1.209-3.245,2.174-4.839,2.896
			c2.11,0.246,4.239-0.84,6.081-1.958c0.302-0.183,0.602-0.369,0.899-0.557c0.045-0.054,0.091-0.108,0.137-0.161
			c3.46-4.075,7.152-8.023,10.973-11.734c0.717-0.695,1.723-0.549,2.262-0.035c0.488,0.466,0.513,1.125,0.06,1.639
			c-3.785,4.291-8.095,7.982-12.823,10.987c-1.347,1.6-2.662,3.329-3.189,5.312c-0.036,0.136,0.087,0.293,0.287,0.364
			c2.258,0.809,4.884-0.25,7.387-1.514c2.006-1.012,4.044-2.063,6.061-3.196c2.767-3.432,5.955-6.487,9.433-9.021
			c0.255-0.186,0.525-0.371,0.805-0.54c0.776-0.467,1.665-0.19,2.077,0.345c0.384,0.498,0.326,1.135-0.141,1.587
			c-3.492,3.38-7.49,6.033-11.573,8.338c-1.506,1.882-2.883,3.877-4.109,5.961c-0.051,0.087-0.052,0.165-0.004,0.247
			c0.077,0.131,0.281,0.273,0.568,0.252c2.484-0.06,4.902-1.029,6.979-2.137c3.271-4.854,7.346-9.173,11.904-12.599
			c0.904-0.679,2.11-1.518,3.422-1.972c0.693-0.242,1.438-0.018,1.811,0.543c0.308,0.461,0.261,1.035-0.12,1.461
			c-4.273,4.788-9.161,8.887-14.526,12.184c-0.578,0.355-1.2,0.723-1.857,1.08c-0.486,0.728-0.954,1.468-1.402,2.218
			c-0.043,0.074-0.052,0.148-0.024,0.223c0.04,0.108,0.146,0.198,0.292,0.246c2.691,0.898,6.037,0.221,9.942-2.014
			c1.175-0.673,2.314-1.404,3.417-2.189l11.225-11.922c0.161-0.17,0.425-0.192,0.611-0.048c0.186,0.144,0.232,0.405,0.107,0.604
			c-2.962,4.725-6.836,8.834-11.34,12.057l-4.781,5.078c-0.107,0.115-0.126,0.221-0.057,0.335c0.108,0.177,0.392,0.306,0.727,0.21
			c2.912-0.829,5.816-2.24,8.631-4.196c0.644-0.447,1.262-0.916,1.859-1.4c2.053-2.059,4.372-4.155,7.049-6.379
			c0.19-0.16,0.477-0.136,0.64,0.055c0.162,0.191,0.141,0.476-0.048,0.641c-1.009,0.877-1.987,1.8-2.935,2.693
			c-1.303,1.229-2.638,2.488-4.095,3.67c-1.602,1.609-3.04,3.194-4.357,4.8c-0.077,0.095-0.094,0.192-0.048,0.29
			c0.056,0.119,0.221,0.259,0.502,0.262c0.231,0.004,0.474-0.021,0.709-0.07c0.737-0.151,1.42-0.511,2.056-0.866
			c2.34-1.307,4.653-2.895,7.072-4.853c0.683-0.553,1.575-0.405,2.068,0.016c0.458,0.39,0.563,0.974,0.267,1.488
			c-0.379,0.659-0.743,1.324-1.086,2c-0.05,0.098-0.043,0.189,0.02,0.279c0.088,0.122,0.297,0.253,0.604,0.212
			c1.653-0.21,3.289-0.603,4.862-1.168c0.237-0.085,0.498,0.039,0.584,0.275c0.085,0.237-0.038,0.498-0.275,0.584
			c-1.636,0.588-3.337,0.996-5.056,1.215c-0.6,0.073-1.155-0.152-1.465-0.593c-0.257-0.365-0.29-0.82-0.088-1.218
			c0.351-0.69,0.723-1.369,1.109-2.041c0.034-0.061,0.107-0.188-0.068-0.338c-0.183-0.155-0.581-0.26-0.902-0.001
			c-2.459,1.991-4.814,3.607-7.201,4.939c-0.698,0.391-1.452,0.786-2.317,0.964C126.911,108.676,126.62,108.706,126.334,108.706z
			 M125.644,88.108c-0.083,0-0.171,0.014-0.262,0.045c-1.191,0.413-2.321,1.2-3.172,1.84c-3.977,2.988-7.578,6.668-10.586,10.796
			c0.049-0.03,0.097-0.059,0.145-0.089c5.29-3.25,10.109-7.292,14.323-12.014c0.106-0.12,0.12-0.23,0.042-0.347
			C126.047,88.208,125.865,88.108,125.644,88.108z M103.077,78.658c-0.018,0-0.036,0-0.055,0.002
			c-1.611,0.109-3.387,0.963-5.426,2.611c-4.874,3.939-8.649,9.228-10.917,15.295c-0.073,0.196-0.142,0.406-0.145,0.574
			c1.753-0.716,3.539-1.747,5.35-3.089c5.072-3.761,9.123-8.923,11.715-14.928c0.013-0.031,0.054-0.125-0.032-0.246
			C103.495,78.773,103.324,78.658,103.077,78.658z M116.811,87.939c-0.119,0-0.249,0.032-0.378,0.11
			c-0.258,0.155-0.505,0.325-0.74,0.497c-2.737,1.995-5.294,4.32-7.6,6.901c3.245-1.966,6.377-4.202,9.169-6.903
			c0.137-0.132,0.152-0.244,0.053-0.374C117.222,88.049,117.033,87.939,116.811,87.939z M106.813,83.707
			c-0.16,0-0.326,0.053-0.465,0.188c-3.074,2.986-6.045,6.104-8.877,9.312c3.574-2.575,6.873-5.568,9.844-8.936
			c0.106-0.121,0.146-0.23-0.004-0.374C107.198,83.789,107.011,83.707,106.813,83.707z M83.732,87.833
			c-0.067,0.543-0.106,1.089-0.118,1.636c-0.002,0.095,0.063,0.17,0.117,0.216c0.109,0.093,0.314,0.178,0.56,0.134
			c1.544-0.278,2.967-1.392,4.155-2.445c3.44-3.048,6.51-6.56,9.123-10.438c0.043-0.063,0.09-0.162,0.004-0.291
			c-0.095-0.144-0.335-0.272-0.643-0.215c-1.339,0.258-2.693,1.255-3.841,2.197C89.792,81.332,86.346,84.341,83.732,87.833z"/>
	</g>
</g>
<g id="Bubble_Speech_2">
	<g>
		<path style="fill:#407BFF;" d="M424.707,76.497c-7.411-21.738-51.979-23.568-73.531-6.966c-12.296,9.472-18.82,28.792-6.97,38.048
			c-6.711,4.152-14.019,5.518-16.829,5.704c12.514,3.852,22.4,2.049,29.517-1.119c3.184,0.404,13.106,1.488,22.43,1.139
			C406.213,112.296,432.38,99,424.707,76.497z"/>
		<g>
			<path style="fill:#FFFFFF;" d="M367.325,106.309c-0.521,0-1.053-0.049-1.589-0.159c-3.407-0.699-6.223-3.675-8.369-8.847
				c-0.445-1.073-0.827-2.1-1.147-3.089c-2.977-1.191-5.594-3.427-6.095-6.587c-0.166-1.045-0.096-2.157,0.207-3.303
				c1.422-5.385,6.998-8.278,11.759-9.195c0.45-0.209,0.916-0.396,1.395-0.556c2.829-0.95,6.077-1.033,9.389-0.243
				c0.424,0.102,0.845,0.216,1.263,0.343c0.052-0.017,0.103-0.033,0.154-0.049c0.73-0.813,1.568-1.544,2.534-2.143
				c1.601-0.993,3.397-1.528,4.944-1.921c6.019-1.526,12.21-1.82,17.91-0.847c0.955,0.163,2.012,0.275,3.13,0.393
				c4.743,0.503,10.646,1.129,12.278,6.504c0.479,1.573,0.379,3.399-0.303,5.581c-1.144,3.66-3.42,6.98-6.409,9.349
				c-0.191,0.151-0.468,0.121-0.621-0.072c-0.151-0.191-0.119-0.469,0.072-0.621c2.852-2.26,5.023-5.428,6.114-8.92
				c0.627-2.007,0.726-3.662,0.301-5.06c-1.462-4.815-6.809-5.382-11.526-5.882c-1.132-0.12-2.202-0.233-3.185-0.401
				c-3.572-0.609-7.346-0.71-11.148-0.311c1.006,0.229,1.992,0.616,2.912,1.145c1.538-0.027,3.09,0.04,4.631,0.228
				c1.746-0.111,3.544,0.173,5.233,1.031c0.188,0.095,0.375,0.201,0.559,0.316c0.195,0.069,0.389,0.141,0.582,0.216
				c1.269,0.49,2.286,1.038,3.084,1.669c2.395,0.265,4.161,1.436,5.043,3.371c1.327,2.914,0.375,7.164-2.265,10.104
				c-0.053,0.059-0.106,0.117-0.161,0.175c-0.398,0.869-0.861,1.69-1.3,2.419c-1.301,2.16-2.899,4.498-5.426,4.902
				c-0.925,0.148-1.845-0.004-2.615-0.205c-1.321,0.86-2.748,1.569-4.251,2.097c-4.524,1.588-9.657,1.532-14.4-0.02
				c-1.853,2.602-3.979,4.952-6.699,6.655C371.815,105.312,369.672,106.309,367.325,106.309z M357.277,94.59
				c0.265,0.766,0.566,1.556,0.906,2.374c2.027,4.884,4.628,7.683,7.73,8.319c2.668,0.546,5.237-0.6,6.927-1.656
				c2.385-1.493,4.312-3.53,6.002-5.808c-0.077,0.015-0.154,0.028-0.232,0.041c-3.507,0.955-7.066,1.002-10.303,0.103
				c-1.987-0.551-3.455-1.372-4.485-2.509c-0.042-0.046-0.084-0.094-0.124-0.141c-1.59,0.07-3.125-0.029-4.626-0.289
				C358.478,94.921,357.875,94.776,357.277,94.59z M381.182,97.158c4.304,1.218,8.875,1.174,12.935-0.249
				c1.196-0.42,2.341-0.96,3.42-1.603c-0.702-0.238-1.389-0.521-2.056-0.844c-2,0.419-4.139,0.656-6.369,0.564
				c-0.063,0.025-0.126,0.05-0.189,0.074c-0.18,0.081-0.361,0.158-0.545,0.233c-1.055,0.428-2.114,0.736-3.159,0.922
				c-1.094,0.263-2.201,0.464-3.315,0.601C381.666,96.963,381.426,97.063,381.182,97.158z M364.851,95.235
				c0.892,0.82,2.106,1.436,3.694,1.877c1.549,0.429,3.19,0.637,4.839,0.61c-1.34-0.297-2.635-0.797-3.829-1.495
				c-0.561-0.328-1.113-0.721-1.634-1.169c-0.125-0.072-0.245-0.146-0.357-0.222C366.642,95.021,365.737,95.153,364.851,95.235z
				 M371.984,96.396c1.877,0.685,3.91,0.916,5.892,0.679C375.898,97.047,373.924,96.821,371.984,96.396z M373.266,93.14
				c0.366,0.302,0.733,0.567,1.068,0.799c1.296,0.896,2.676,1.648,4.106,2.255c0.528-0.003,1.056-0.02,1.583-0.052
				c0.002-0.003,0.005-0.007,0.007-0.01c-0.455-0.114-0.898-0.257-1.328-0.43c-1.642-0.657-3.04-1.776-4.031-3.134
				C374.197,92.77,373.729,92.96,373.266,93.14z M368.862,94.547c0.311,0.141,0.662,0.271,1.053,0.391
				c2.06,0.634,4.18,1.028,6.313,1.182c-0.823-0.436-1.624-0.92-2.396-1.454c-0.47-0.324-0.998-0.711-1.511-1.173
				C371.138,93.919,369.985,94.27,368.862,94.547z M381.494,95.505c0.237,0.029,0.478,0.05,0.721,0.064
				c0.689-0.332,1.371-0.701,2.043-1.105c0.061-0.043,0.121-0.087,0.182-0.131c-0.663-0.182-1.271-0.397-1.825-0.646
				C382.248,94.297,381.876,94.904,381.494,95.505z M384.76,95.193c-0.145,0.103-0.29,0.204-0.438,0.303
				c0.236-0.029,0.474-0.064,0.713-0.106c0.658-0.159,1.312-0.342,1.959-0.548c-0.44-0.06-0.884-0.133-1.327-0.222
				C385.366,94.819,385.065,95.01,384.76,95.193z M375.498,92.205c0.887,1.154,2.108,2.105,3.532,2.676
				c0.487,0.195,0.994,0.349,1.517,0.463c0.435-0.677,0.859-1.364,1.275-2.056c-0.479-0.27-0.913-0.571-1.304-0.906
				c-0.048-0.04-0.094-0.081-0.14-0.123c-0.754-0.422-1.453-0.892-2.092-1.402C377.338,91.348,376.408,91.796,375.498,92.205z
				 M399.657,94.954c0.48,0.076,0.985,0.102,1.479,0.023c2.15-0.344,3.609-2.495,4.807-4.485c0.078-0.129,0.156-0.261,0.235-0.396
				c-1.086,0.77-2.229,1.356-3.222,1.823C401.975,93.041,400.867,94.062,399.657,94.954z M396.903,94.127
				c0.497,0.201,1.003,0.379,1.518,0.533c0.028,0.009,0.059,0.017,0.088,0.026c0.823-0.559,1.602-1.178,2.328-1.85
				C399.635,93.312,398.314,93.761,396.903,94.127z M356.935,93.544c0.754,0.273,1.528,0.478,2.289,0.609
				c0.12,0.021,0.239,0.041,0.36,0.059c-1.042-0.304-2.003-0.758-2.854-1.355C356.795,93.085,356.863,93.313,356.935,93.544z
				 M393.114,93.087c-0.502,0.292-1.014,0.569-1.532,0.832c0.834-0.027,1.667-0.099,2.494-0.215
				C393.749,93.508,393.429,93.303,393.114,93.087z M387.091,93.62c0.765,0.128,1.536,0.216,2.31,0.265
				c0.424-0.223,0.833-0.463,1.227-0.72c-0.261,0.105-0.527,0.177-0.798,0.215c-0.725,0.103-1.39-0.031-2.039-0.299
				C387.558,93.265,387.325,93.445,387.091,93.62z M367.878,93.813c0.015,0.015,0.029,0.03,0.045,0.045
				c1.198-0.263,2.431-0.615,3.702-1.057c-0.112-0.124-0.222-0.253-0.327-0.386C370.226,92.931,369.079,93.422,367.878,93.813z
				 M356.361,91.41c0.244,0.236,0.507,0.456,0.786,0.659c1.514,1.095,3.44,1.681,5.563,1.714c-1.64-3.489-0.15-7.868,0.67-9.785
				c0.596-1.395,1.216-2.556,1.898-3.541c-1.385-0.342-2.827-0.515-4.283-0.371c-1.399,0.137-2.957,0.673-4.23,1.606
				c-0.529,1.284-0.837,2.743-0.915,4.349C355.767,87.741,355.932,89.506,356.361,91.41z M366.185,80.707
				c-0.719,0.987-1.368,2.176-1.993,3.639c-0.622,1.457-2.318,6.076-0.496,9.414c0.385-0.024,0.775-0.066,1.169-0.126
				c0.478-0.072,0.952-0.169,1.419-0.283c-0.013-0.033-0.025-0.065-0.038-0.099c-1.171-1.604-1.866-3.556-1.556-5.624
				c0.33-2.199,1.762-4.217,4.184-5.928C368.018,81.335,367.117,80.988,366.185,80.707z M393.95,92.582
				c0.49,0.32,0.996,0.615,1.516,0.884c2.644-0.535,5.197-1.525,7.51-2.947c0.115-0.146,0.228-0.295,0.339-0.444
				c-1.019-0.979-1.802-2.164-2.511-3.385C398.826,88.989,396.512,90.979,393.95,92.582z M383.255,92.611
				c0.501,0.185,1.018,0.353,1.554,0.502c0.296,0.083,0.594,0.159,0.892,0.229c0.329-0.275,0.652-0.56,0.972-0.851
				c-0.365-0.229-0.727-0.485-1.09-0.75c-0.417-0.304-0.842-0.612-1.275-0.922c-0.121,0.206-0.241,0.412-0.362,0.618
				C383.716,91.828,383.486,92.219,383.255,92.611z M359.448,76.761c-3.67,1.3-7.213,3.819-8.261,7.789
				c-0.272,1.027-0.336,2.016-0.19,2.939c0.409,2.584,2.448,4.487,4.886,5.621c-0.121-0.425-0.23-0.843-0.327-1.256
				c-1.832-1.894-2.668-4.586-2.061-6.954c0.374-1.46,1.288-2.765,2.542-3.759c0.074-0.17,0.152-0.337,0.234-0.501
				C357.01,79.156,358.103,77.835,359.448,76.761z M367.044,92.851c0.061,0.081,0.123,0.161,0.187,0.239
				c1.246-0.379,2.438-0.878,3.555-1.41c-0.929-1.535-1.275-3.457-1.047-5.83c-0.934,1.462-1.733,3.05-2.381,4.743
				c-0.25,0.653-0.505,1.406-0.357,2.092C367.013,92.742,367.027,92.796,367.044,92.851z M388.594,92.421
				c0.367,0.101,0.738,0.136,1.111,0.084c0.552-0.079,1.087-0.35,1.615-0.823c-0.259-0.231-0.513-0.47-0.759-0.716
				c-0.059-0.059-0.118-0.119-0.178-0.18C389.797,91.362,389.199,91.907,388.594,92.421z M372.11,92.013
				c0.136,0.16,0.276,0.313,0.422,0.46c0.542-0.203,1.09-0.422,1.646-0.657c-0.134-0.229-0.256-0.461-0.367-0.699
				c-0.265,0.145-0.53,0.287-0.796,0.427C372.721,91.7,372.419,91.857,372.11,92.013z M380.901,91.54
				c0.483,0.267,0.992,0.514,1.522,0.741c0.254-0.431,0.507-0.861,0.759-1.291c0.134-0.229,0.268-0.457,0.402-0.686
				c-0.617-0.438-1.249-0.879-1.895-1.322c-0.309,0.179-0.617,0.356-0.926,0.532c-0.336,0.191-0.669,0.376-0.999,0.558
				C380.049,90.602,380.432,91.102,380.901,91.54z M384.758,90.055c0.457,0.328,0.905,0.652,1.346,0.973
				c0.415,0.303,0.828,0.594,1.241,0.837c0.705-0.67,1.392-1.365,2.071-2.057c-1.184-0.335-2.386-0.839-3.601-1.509
				C385.457,88.881,385.105,89.468,384.758,90.055z M395.065,90.079c-0.358,0.527-0.763,1.033-1.208,1.515
				c0.923-0.598,1.812-1.248,2.662-1.946C396.052,89.826,395.565,89.972,395.065,90.079z M393.549,90.287
				c-0.108,0.174-0.221,0.346-0.336,0.517c-0.189,0.279-0.38,0.535-0.572,0.769c0.434-0.414,0.832-0.85,1.192-1.306
				C393.739,90.274,393.644,90.282,393.549,90.287z M374.584,90.692c0.12,0.263,0.256,0.521,0.407,0.771
				c0.84-0.374,1.697-0.783,2.572-1.228c-0.278-0.256-0.542-0.521-0.791-0.795C376.049,89.863,375.318,90.283,374.584,90.692z
				 M369.828,82.121c-2.006,1.318-3.895,3.182-4.263,5.639c-0.194,1.291,0.063,2.538,0.603,3.664
				c0.089-0.403,0.227-0.788,0.363-1.146c0.901-2.353,2.086-4.513,3.514-6.424c0.041-0.197,0.084-0.396,0.131-0.598
				c0.066-0.285,0.139-0.576,0.218-0.875C370.205,82.294,370.018,82.207,369.828,82.121z M370.872,84.225
				c-0.593,3.03-0.358,5.348,0.711,7.064c0.348-0.175,0.688-0.352,1.018-0.526c0.293-0.155,0.585-0.312,0.877-0.471
				c-0.258-0.757-0.398-1.544-0.402-2.333c-0.006-1.306,0.327-2.549,0.688-3.699c0.016-0.05,0.032-0.101,0.048-0.151
				c-0.657-0.356-1.324-0.705-1.999-1.042C371.487,83.441,371.175,83.827,370.872,84.225z M391.009,90.161
				c0.059,0.061,0.118,0.121,0.178,0.181c0.241,0.241,0.49,0.475,0.745,0.701c0.184-0.22,0.366-0.464,0.549-0.735
				c0.002-0.002,0.004-0.004,0.005-0.007c-0.487-0.017-0.98-0.064-1.476-0.142C391.009,90.16,391.009,90.16,391.009,90.161z
				 M404.492,89.937c0.041,0.039,0.073,0.085,0.097,0.135c0.933-0.552,1.871-1.221,2.671-2.047c0.887-1.976,1.39-4.163,0.351-5.904
				C407.193,84.906,406.099,87.579,404.492,89.937z M355.404,82.999c-0.478,0.612-0.847,1.319-1.053,2.121
				c-0.404,1.579-0.069,3.328,0.83,4.813c-0.208-1.362-0.277-2.664-0.215-3.934C355.019,84.939,355.165,83.937,355.404,82.999z
				 M374.397,85.224c-0.248,0.877-0.441,1.797-0.437,2.731c0.003,0.642,0.108,1.283,0.303,1.904
				c0.647-0.362,1.292-0.731,1.932-1.104c-0.335-0.429-0.636-0.876-0.9-1.339C374.914,86.749,374.61,86.007,374.397,85.224z
				 M377.553,88.982c0.266,0.283,0.549,0.556,0.849,0.819c0.075-0.04,0.15-0.08,0.226-0.12c-0.138-0.384-0.233-0.776-0.281-1.168
				C378.082,88.669,377.817,88.826,377.553,88.982z M382.535,88.49c0.51,0.351,1.009,0.702,1.5,1.049
				c0.333-0.563,0.671-1.125,1.014-1.684c-0.136-0.083-0.272-0.168-0.41-0.255c-0.089-0.057-0.179-0.114-0.268-0.172
				c-0.587,0.335-1.17,0.674-1.749,1.012C382.593,88.456,382.565,88.473,382.535,88.49z M391.76,89.365
				c0.43,0.045,0.857,0.063,1.28,0.057c0.604-1.029,1.091-2.118,1.455-3.255c-0.099,0.081-0.196,0.164-0.293,0.247
				c-0.396,0.551-0.807,1.063-1.199,1.533C392.594,88.436,392.18,88.909,391.76,89.365z M395.671,85.25
				c-0.349,1.436-0.877,2.809-1.575,4.099c0.146-0.019,0.292-0.04,0.436-0.066c0.456-0.717,0.82-1.471,1.081-2.248
				c0.225-0.671,0.366-1.36,0.429-2.05C395.917,85.072,395.793,85.16,395.671,85.25z M401.407,85.966
				c0.711,1.251,1.453,2.419,2.423,3.378c1.555-2.314,2.595-4.939,2.949-7.668c0.022-0.166,0.04-0.33,0.055-0.49
				c-0.532-0.475-1.179-0.811-1.865-1.046c-0.212,0.7-0.554,1.344-0.898,1.941C403.283,83.449,402.392,84.748,401.407,85.966z
				 M379.191,88.008c0.012,0.415,0.088,0.835,0.223,1.247c0.302-0.166,0.606-0.336,0.912-0.51c0.185-0.104,0.368-0.21,0.552-0.315
				c-0.373-0.251-0.751-0.502-1.132-0.752c-0.095,0.056-0.189,0.112-0.282,0.169C379.373,87.9,379.282,87.954,379.191,88.008z
				 M390.009,89.052c0.04,0.01,0.08,0.02,0.12,0.029c1.101-1.121,2.224-2.245,3.418-3.271c0.422-0.595,0.824-1.234,1.163-1.912
				c-0.428-0.395-1.417-0.212-1.634-0.166c-1.918,0.406-3.754,1.131-5.536,2.001C388.319,86.859,389.123,87.997,390.009,89.052z
				 M396.957,84.388c-0.022,0.982-0.185,1.973-0.506,2.928c-0.191,0.572-0.435,1.131-0.726,1.674c1.915-0.61,3.525-1.83,4.445-3.425
				c-0.053-0.096-0.105-0.192-0.158-0.288c-0.349-0.634-0.701-1.276-1.08-1.899c-0.077,0.029-0.15,0.059-0.215,0.088
				C398.109,83.733,397.524,84.043,396.957,84.388z M386.283,87.547c0.744,0.408,1.481,0.75,2.21,1.025
				c-0.527-0.689-1.027-1.396-1.517-2.1C386.742,86.827,386.511,87.186,386.283,87.547z M375.219,84.894
				c0.197,0.745,0.483,1.452,0.843,2.083c0.263,0.46,0.565,0.903,0.902,1.326c0.456-0.268,0.909-0.538,1.359-0.806
				c0.005-0.06,0.011-0.119,0.019-0.178c0.021-0.166,0.05-0.329,0.086-0.49C377.387,86.17,376.317,85.521,375.219,84.894z
				 M380.59,87.175c0.384,0.253,0.764,0.508,1.138,0.762c0.15-0.087,0.3-0.174,0.449-0.262c0.458-0.267,0.918-0.534,1.381-0.8
				c-0.36-0.255-0.722-0.523-1.086-0.808C381.84,86.435,381.213,86.805,380.59,87.175z M385.244,86.937
				c0.091,0.057,0.182,0.113,0.272,0.168c0.103-0.163,0.205-0.325,0.309-0.486C385.631,86.724,385.438,86.83,385.244,86.937z
				 M379.464,86.441c0.102,0.065,0.203,0.13,0.303,0.195c0.65-0.387,1.307-0.776,1.968-1.162c-0.387-0.32-0.778-0.66-1.178-1.02
				C380.139,85.059,379.725,85.729,379.464,86.441z M383.3,85.59c0.372,0.282,0.74,0.548,1.109,0.8
				c0.602-0.339,1.211-0.672,1.826-0.991c-0.238-0.345-0.48-0.691-0.725-1.036C384.769,84.761,384.032,85.172,383.3,85.59z
				 M374.99,83.748c1.274,0.712,2.513,1.453,3.712,2.208c0.309-0.773,0.757-1.477,1.197-2.106c-0.573-0.539-1.165-1.121-1.785-1.755
				l-0.686-0.708c-0.381-0.394-0.765-0.791-1.155-1.183c-0.491,1.066-0.932,2.156-1.317,3.264
				C374.966,83.562,374.978,83.656,374.99,83.748z M407.748,80.843c0.191,0.204,0.366,0.427,0.525,0.67
				c0.835,1.288,0.944,2.748,0.669,4.204c1.281-2.376,1.591-5.101,0.681-7.1c-0.601-1.318-1.663-2.206-3.123-2.627
				c0.203,0.261,0.381,0.534,0.533,0.821C407.611,77.891,407.848,79.217,407.748,80.843z M381.073,83.729
				c0.504,0.458,0.995,0.879,1.478,1.272c0.806-0.463,1.618-0.92,2.438-1.36c-0.538-0.73-1.099-1.444-1.696-2.112
				c-0.107-0.119-0.214-0.236-0.323-0.352C382.337,81.996,381.711,82.849,381.073,83.729z M386.299,83.947
				c0.228,0.32,0.45,0.641,0.672,0.961c0.491-0.703,1.003-1.389,1.539-2.051c-0.536,0.249-1.078,0.512-1.626,0.79
				C386.689,83.746,386.493,83.846,386.299,83.947z M399.846,83.18c0.266,0.449,0.52,0.905,0.77,1.359
				c0.11-0.441,0.104-0.895-0.169-1.154C400.289,83.236,400.075,83.181,399.846,83.18z M399.843,82.295
				c0.579,0,0.964,0.214,1.211,0.449c0.402,0.381,0.57,0.937,0.502,1.582c0.63-0.859,1.214-1.756,1.749-2.685
				c0.314-0.544,0.625-1.128,0.814-1.739c-0.758-0.171-1.527-0.244-2.216-0.264c-1.46-0.044-2.953,0.063-4.501,0.323
				c0.748,0.708,1.37,1.524,1.928,2.385C399.516,82.311,399.686,82.295,399.843,82.295z M390.391,82.033
				c-0.669,0.723-1.298,1.488-1.897,2.284c1.418-0.619,2.879-1.128,4.399-1.45c0.908-0.191,1.671-0.112,2.188,0.21
				c0.239-0.598,0.42-1.22,0.518-1.864c-0.094-0.276-0.201-0.545-0.321-0.807C393.704,80.797,392.079,81.339,390.391,82.033z
				 M395.707,83.862c0.026,0.079,0.046,0.159,0.06,0.239c0.103-0.069,0.206-0.137,0.31-0.204c-0.008-0.269-0.026-0.536-0.057-0.801
				C395.925,83.356,395.82,83.611,395.707,83.862z M396.499,81.147c0.226,0.716,0.371,1.467,0.43,2.231
				c0.464-0.264,0.941-0.505,1.434-0.722c0.029-0.013,0.06-0.025,0.088-0.038c-0.496-0.744-1.045-1.441-1.683-2.041
				c-0.068-0.064-0.138-0.128-0.209-0.19c-0.005,0.163-0.015,0.326-0.029,0.487C396.521,80.966,396.511,81.057,396.499,81.147z
				 M372.425,82.385c0.55,0.277,1.094,0.561,1.631,0.851c-0.063-0.847-0.021-1.706,0.137-2.541
				C373.576,81.223,372.986,81.787,372.425,82.385z M383.52,80.473c0.146,0.153,0.29,0.309,0.431,0.466
				c0.65,0.726,1.253,1.497,1.827,2.283c0.235-0.123,0.471-0.244,0.706-0.363c1.157-0.586,2.286-1.109,3.39-1.568
				c0.795-0.846,1.647-1.636,2.569-2.352c0.225-0.174,0.453-0.344,0.685-0.508c-1.661-0.587-3.626-0.903-5.881-0.944
				c-0.363-0.006-0.727-0.007-1.092-0.001C385.236,78.402,384.37,79.404,383.52,80.473z M376.676,79.358
				c0.473,0.466,0.934,0.943,1.389,1.415l0.683,0.703c0.579,0.593,1.135,1.141,1.672,1.648c0.646-0.891,1.282-1.755,1.925-2.585
				c-0.861-0.84-1.797-1.604-2.791-2.284c-0.901,0.198-1.795,0.434-2.678,0.705C376.808,79.093,376.741,79.226,376.676,79.358z
				 M371.446,81.903c0.051,0.024,0.102,0.049,0.152,0.074c0.548-0.598,1.123-1.164,1.724-1.696c-0.522,0.229-1.04,0.472-1.551,0.728
				c-0.017,0.008-0.032,0.017-0.049,0.024C371.624,81.325,371.531,81.616,371.446,81.903z M366.768,79.969
				c1.067,0.339,2.073,0.747,2.986,1.15c0.396-0.244,0.813-0.481,1.25-0.711c0.387-1.086,0.873-2.197,1.483-3.26
				c-0.073-0.041-0.146-0.081-0.22-0.121c-0.271-0.145-0.546-0.277-0.823-0.396c-1.545,0.695-2.984,1.577-4.176,2.791
				C367.098,79.596,366.931,79.778,366.768,79.969z M375.338,79.781c-0.104,0.301-0.188,0.609-0.254,0.922
				c0.158-0.368,0.322-0.734,0.493-1.097c-0.053,0.038-0.104,0.075-0.156,0.113C375.394,79.739,375.365,79.76,375.338,79.781z
				 M394.113,78.828c-0.386,0.255-0.763,0.525-1.13,0.81c-0.349,0.271-0.689,0.554-1.019,0.847c0.981-0.347,1.943-0.642,2.887-0.884
				c-0.13-0.215-0.269-0.422-0.418-0.621C394.328,78.928,394.222,78.877,394.113,78.828z M362.364,75.978
				c-2.022,0.962-3.71,2.43-4.822,4.204c1.018-0.516,2.162-0.857,3.367-0.975c1.685-0.163,3.362,0.072,4.934,0.491
				c0.255-0.318,0.52-0.616,0.794-0.896c1.07-1.091,2.314-1.925,3.643-2.598C367.486,75.348,364.543,75.571,362.364,75.978z
				 M405.154,79.271c0.61,0.2,1.201,0.472,1.731,0.835c-0.004-1.146-0.214-2.097-0.633-2.881c-0.293-0.548-0.696-1.042-1.225-1.495
				c-0.219-0.017-0.444-0.025-0.677-0.026C404.975,76.781,405.31,78.011,405.154,79.271z M380.741,78.017
				c0.756,0.561,1.476,1.17,2.151,1.824c0.647-0.809,1.305-1.582,1.987-2.311C383.492,77.605,382.109,77.769,380.741,78.017z
				 M373.238,77.612c-0.414,0.724-0.768,1.473-1.07,2.221c0.839-0.394,1.693-0.752,2.56-1.076
				C374.251,78.346,373.756,77.96,373.238,77.612z M396.512,79.213c0.004,0.003,0.008,0.006,0.012,0.009
				c1.866-0.366,3.651-0.521,5.406-0.468c0.732,0.022,1.549,0.1,2.361,0.282c0.109-1.176-0.286-2.322-0.954-3.298
				c-2.474,0.149-4.911,0.802-7.14,1.896C396.349,78.159,396.454,78.688,396.512,79.213z M395.005,78.277
				c0.174,0.09,0.344,0.183,0.511,0.279c-0.035-0.168-0.074-0.337-0.12-0.505c-0.132,0.073-0.263,0.147-0.393,0.224
				C395.003,78.276,395.004,78.277,395.005,78.277z M376.619,77.549c-0.17,0.193-0.326,0.395-0.47,0.604
				c0.072-0.046,0.145-0.09,0.218-0.135C376.45,77.862,376.534,77.705,376.619,77.549z M373.699,76.856
				c0.524,0.349,1.023,0.734,1.503,1.141c0.33-0.548,0.734-1.058,1.219-1.512c-0.623-0.285-1.259-0.539-1.905-0.759
				C374.223,76.09,373.951,76.468,373.699,76.856z M388.9,75.151c1.751,0.228,3.186,0.724,4.369,1.511
				c0.41,0.273,0.789,0.588,1.137,0.938c0.235-0.14,0.474-0.275,0.714-0.405c-0.224-0.594-0.512-1.179-0.862-1.744
				c-0.509-0.818-1.135-1.543-1.841-2.158c-1.103,0.404-2.126,0.932-3.007,1.511C389.237,74.916,389.067,75.033,388.9,75.151z
				 M387.089,76.601c0.058,0.001,0.115,0.002,0.173,0.003c2.057,0.037,3.89,0.297,5.49,0.777c-1.2-0.791-2.706-1.256-4.603-1.421
				c-0.095-0.008-0.189-0.016-0.284-0.022C387.602,76.151,387.343,76.373,387.089,76.601z M379.726,77.307
				c0.003,0.002,0.006,0.004,0.009,0.006c1.991-0.414,4.018-0.651,6.05-0.704c0.25-0.243,0.504-0.48,0.764-0.711
				C384.262,75.921,381.932,76.408,379.726,77.307z M377.832,77.196c-0.001,0.002-0.002,0.004-0.003,0.006
				c0.002-0.001,0.005-0.003,0.008-0.004C377.835,77.198,377.834,77.197,377.832,77.196z M393.38,72.98
				c0.616,0.591,1.167,1.262,1.628,2.004c0.363,0.584,0.665,1.189,0.904,1.805c2.117-1.025,4.412-1.669,6.751-1.887
				c-0.403-0.428-0.856-0.803-1.331-1.108c-1.781-0.628-3.605-1.033-5.445-1.262C395.033,72.592,394.19,72.749,393.38,72.98z
				 M378.286,76.438c0.176,0.097,0.351,0.197,0.523,0.299c2.81-1.246,5.847-1.851,8.768-1.702c0.434-0.34,0.881-0.664,1.346-0.97
				c0.799-0.524,1.706-1.009,2.686-1.405c-0.175-0.123-0.353-0.24-0.534-0.351c-3.764,0.091-7.485,0.752-10.92,1.594
				C379.408,74.73,378.79,75.624,378.286,76.438z M372.541,76.172c0.049,0.025,0.097,0.05,0.145,0.076
				c0.088,0.047,0.175,0.095,0.262,0.145c0.108-0.167,0.22-0.332,0.335-0.496C373.034,75.984,372.787,76.077,372.541,76.172z
				 M375.552,75.162c0.663,0.255,1.314,0.542,1.95,0.862c0.345-0.559,0.741-1.156,1.196-1.75c-0.912,0.241-1.801,0.492-2.66,0.744
				C375.876,75.065,375.714,75.113,375.552,75.162z M366.905,74.752c1.639,0.077,3.158,0.384,4.524,0.918
				c0.401-0.172,0.808-0.332,1.218-0.484C370.677,74.718,368.733,74.575,366.905,74.752z M381.463,71.554
				c-1.352,0.363-2.847,0.856-4.171,1.678c-0.41,0.254-0.797,0.535-1.159,0.838c1.139-0.33,2.327-0.657,3.552-0.961
				C380.215,72.544,380.806,72.012,381.463,71.554z M386.282,70.91c-1.048,0-2.078,0.203-3.025,0.632
				c-0.673,0.304-1.287,0.703-1.846,1.159c2.564-0.573,5.264-1.023,8.008-1.203C388.398,71.113,387.331,70.91,386.282,70.91z"/>
		</g>
	</g>
</g>
</svg>
