<?xml version="1.0" encoding="utf-8"?>
<!-- Generator: Adobe Illustrator 27.5.0, SVG Export Plug-In . SVG Version: 6.00 Build 0)  -->
<svg version="1.1" xmlns="http://www.w3.org/2000/svg" xmlns:xlink="http://www.w3.org/1999/xlink" x="0px" y="0px"
	 viewBox="0 0 3710 3710" style="enable-background:new 0 0 3710 3710;" xml:space="preserve">
<g id="Background">
	<g>
		<g>
			<rect style="fill:#FFFFFF;" width="3710" height="3710"/>
		</g>
	</g>
</g>
<g id="Illustration">
	<g>
		<linearGradient id="SVGID_1_" gradientUnits="userSpaceOnUse" x1="3506.5793" y1="3676.7141" x2="1537.4556" y2="1580.5507">
			<stop  offset="0" style="stop-color:#DAE3FE"/>
			<stop  offset="1" style="stop-color:#E9EFFD"/>
		</linearGradient>
		<path style="fill:url(#SVGID_1_);" d="M2915.352,2835.742c-72.692,74.928-137.734,118.974-187.533,152.225
			c-485.676,324.29-1040.857,230.822-1212.505,198.875c-276.933-51.543-510.703-87.905-711.553-269.365
			c-456.392-412.332-434.194-1272.488-85.455-1805.317c41.35-63.178,389.561-579.335,945.944-652.066
			c13.608-1.779,23.762-2.792,32.655-3.733c86.071-9.113,619.437-57.21,1054.343,307.155
			c62.255,52.157,162.441,146.235,255.345,289.719C3346.295,1577.877,3347.372,2390.433,2915.352,2835.742z"/>
		<g>
			<path style="fill:#91B3FA;" d="M519.169,1714.927c32.58,205.884,259.615,1392.464,1150.938,1281.326
				c0,0,4.597-837.364-1133.273-1302.572C526.879,1689.611,517.042,1701.477,519.169,1714.927z"/>
			<path style="fill:#FFFFFF;" d="M645.832,1848.13c0,0,10.087,20.918,28.935,57.071c9.443,18.055,21.036,39.916,34.686,64.802
				c13.625,24.899,29.262,52.848,46.752,83.088c17.435,30.272,36.807,62.784,57.691,96.926
				c21.046,34.042,43.424,69.83,67.531,106.221c23.851,36.559,49.471,73.682,75.903,111.102
				c13.293,18.655,26.984,37.247,40.659,55.954c14.082,18.403,27.841,37.171,42.283,55.401
				c14.487,18.191,28.624,36.668,43.565,54.366c7.379,8.922,14.742,17.829,22.083,26.707c7.387,8.84,15.04,17.405,22.502,26.074
				c7.53,8.608,14.908,17.293,22.468,25.734c7.656,8.353,15.275,16.664,22.846,24.927c14.94,16.716,30.57,32.386,45.712,48.016
				c30.469,31.081,61.162,59.842,91.045,86.179c7.308,6.779,14.946,12.948,22.398,19.111c7.449,6.164,14.785,12.234,21.999,18.201
				c7.114,6.099,14.479,11.607,21.703,17.02c7.203,5.438,14.271,10.774,21.193,16.004c3.461,2.613,6.886,5.201,10.273,7.76
				c3.43,2.497,6.955,4.773,10.367,7.128c6.856,4.664,13.554,9.219,20.084,13.659c6.564,4.383,12.813,8.892,19.148,12.85
				c6.399,3.849,12.616,7.59,18.638,11.215c6.021,3.625,11.849,7.132,17.475,10.519c2.811,1.696,5.572,3.359,8.282,4.99
				c2.8,1.462,5.545,2.897,8.236,4.303c10.771,5.607,20.662,10.759,29.598,15.412c8.822,4.896,17.137,8.297,24.296,11.417
				c7.158,3.121,13.247,5.775,18.183,7.929c9.87,4.307,15.134,6.605,15.134,6.605l0.731,0.32c5.46,2.383,7.955,8.742,5.572,14.2
				c-2.384,5.461-8.741,7.955-14.202,5.572l-0.074-0.034c0,0-5.404-2.408-15.538-6.921c-5.064-2.261-11.31-5.046-18.655-8.321
				c-7.342-3.277-15.871-6.866-24.875-11.949c-9.123-4.847-19.224-10.214-30.221-16.055c-2.745-1.466-5.545-2.963-8.403-4.486
				c-2.757-1.69-5.566-3.413-8.426-5.166c-5.721-3.509-11.648-7.143-17.77-10.898c-6.121-3.754-12.437-7.633-18.941-11.623
				c-6.432-4.092-12.758-8.729-19.409-13.255c-6.614-4.578-13.398-9.274-20.343-14.083c-3.453-2.429-7.025-4.78-10.49-7.351
				c-3.422-2.627-6.882-5.285-10.377-7.968c-6.99-5.373-14.125-10.854-21.397-16.44c-7.291-5.563-14.724-11.222-21.885-17.458
				c-7.263-6.113-14.649-12.329-22.149-18.64c-7.499-6.311-15.189-12.632-22.525-19.549c-30.032-26.912-60.809-56.244-91.296-87.863
				c-15.148-15.901-30.785-31.844-45.698-48.815c-7.561-8.387-15.168-16.828-22.814-25.31c-7.546-8.566-14.901-17.373-22.411-26.104
				c-7.442-8.788-15.074-17.479-22.434-26.437c-7.311-8.996-14.646-18.018-21.995-27.058
				c-14.883-17.933-28.942-36.623-43.353-55.037c-14.365-18.449-28.034-37.419-42.027-56.028
				c-13.582-18.908-27.178-37.695-40.369-56.538c-26.228-37.794-51.629-75.27-75.254-112.151
				c-23.883-36.714-46.03-72.798-66.853-107.109c-20.656-34.416-39.808-67.176-57.034-97.673
				c-69.102-121.897-108.995-206.513-108.995-206.513c-1.086-2.281-0.118-5.009,2.161-6.095
				C642.014,1844.908,644.734,1845.878,645.832,1848.13z"/>
		</g>
		<g>
			<path style="fill:#BDD0FB;" d="M1032.631,461.755c5.758-20.326,24.598-13.831,39.4,1.24
				c810.435,825.132,996.079,2205.548,714.857,2559.766C1786.889,3022.761,405.368,2676.346,1032.631,461.755z"/>
			<path style="fill:#FFFFFF;" d="M1059.623,744.507c0,0,0.141,2.107,0.416,6.187c0.441,4.03,0.936,9.838,1.892,17.758
				c1.702,15.737,4.756,38.785,8.629,68.109c4.037,29.307,9.042,64.882,15.479,105.587c6.219,40.737,14.17,86.548,22.713,136.534
				c8.934,49.922,18.743,103.98,30.303,160.924c11.218,57.012,24.384,116.857,38.113,178.724
				c14.158,61.772,29.101,125.538,45.866,189.926c4.167,16.104,8.352,32.271,12.549,48.483c4.42,16.156,8.853,32.357,13.294,48.592
				c8.663,32.529,18.349,64.903,27.699,97.372c9.312,32.484,19.765,64.618,29.389,96.866c10.189,32.069,20.466,63.978,30.841,95.571
				c10.927,31.403,21.224,62.755,32.382,93.375c5.601,15.303,11.168,30.512,16.695,45.614c2.764,7.55,5.518,15.073,8.26,22.57
				c2.891,7.438,5.77,14.846,8.637,22.224c5.764,14.745,11.48,29.367,17.142,43.852c2.845,7.238,5.676,14.439,8.493,21.606
				c2.971,7.102,5.927,14.167,8.868,21.194c11.986,28.013,22.644,55.891,34.791,82.25c5.889,13.261,11.698,26.342,17.419,39.229
				c2.861,6.443,5.701,12.837,8.518,19.18c2.978,6.268,5.934,12.483,8.864,18.649c11.883,24.579,22.9,48.569,34.317,71.173
				c11.608,22.512,22.735,44.083,33.315,64.601c10.862,20.366,21.697,39.396,31.595,57.442c5.002,8.994,9.844,17.7,14.518,26.104
				c4.959,8.237,9.74,16.175,14.333,23.803c9.189,15.261,17.63,29.279,25.254,41.941c7.588,12.687,15.241,23.448,21.386,33.146
				c6.28,9.615,11.621,17.792,15.951,24.423c8.664,13.266,13.285,20.34,13.285,20.34l0.061,0.091
				c0.779,1.193,0.443,2.792-0.75,3.572c-1.172,0.765-2.74,0.45-3.533-0.694c0,0-4.813-6.97-13.837-20.036
				c-8.899-13.15-22.564-32.051-38.782-56.879c-7.891-12.555-16.629-26.453-26.142-41.585c-4.758-7.569-9.71-15.446-14.845-23.619
				c-4.852-8.339-9.878-16.979-15.07-25.909c-10.254-17.928-21.587-36.786-32.765-57.085c-10.865-20.473-22.287-42-34.207-64.46
				c-11.728-22.56-23.067-46.501-35.287-71.044c-3.015-6.155-6.056-12.362-9.121-18.621c-2.902-6.334-5.827-12.717-8.776-19.149
				c-5.895-12.869-11.88-25.933-17.947-39.177c-24.095-53.054-47.661-109.827-70.706-169.057c-2.906-7.395-5.824-14.82-8.755-22.273
				c-2.782-7.51-5.574-15.048-8.376-22.614c-5.605-15.131-11.251-30.372-16.931-45.706c-11.316-30.682-21.768-62.091-32.853-93.56
				c-10.531-31.653-20.965-63.622-31.311-95.753c-4.929-16.142-9.869-32.313-14.812-48.504
				c-4.921-16.195-9.923-32.384-14.477-48.703c-9.269-32.591-18.871-65.09-27.448-97.734c-4.398-16.291-8.789-32.548-13.165-48.759
				c-4.153-16.271-8.295-32.49-12.419-48.647c-16.59-64.602-31.353-128.561-45.335-190.511
				c-13.424-62.076-25.799-122.211-36.526-179.427c-11.004-57.162-20.284-111.41-28.727-161.498
				c-16.389-100.269-27.457-184.219-34.495-243.058c-3.426-29.438-5.829-52.596-7.232-68.43c-0.775-7.848-1.177-14.172-1.519-18.298
				c-0.185-4.1-0.281-6.217-0.281-6.217c-0.063-1.421,1.036-2.624,2.457-2.689c1.401-0.063,2.59,1.005,2.685,2.395L1059.623,744.507
				z"/>
		</g>
		<g>
			<path style="fill:#91B3FA;" d="M3181.739,1793.289c-33.292,196.571-262.717,1329.075-1114.034,1213.552
				c0,0,4.274-800.909,1097.36-1234.056C3174.628,1768.997,3183.913,1780.448,3181.739,1793.289z"/>
			<path style="fill:#FFFFFF;" d="M3059.219,1919.374c0,0-9.864,19.902-28.265,54.284c-9.218,17.17-20.532,37.958-33.845,61.619
				c-13.289,23.673-28.533,50.242-45.574,78.982c-16.988,28.772-35.853,59.666-56.18,92.104
				c-20.481,32.34-42.254,66.336-65.687,100.891c-23.19,34.718-48.077,69.958-73.745,105.473
				c-12.907,17.704-26.194,35.343-39.466,53.094c-13.659,17.455-27.012,35.262-41.014,52.548
				c-14.044,17.248-27.756,34.773-42.229,51.545c-7.149,8.457-14.284,16.899-21.397,25.314c-7.157,8.378-14.564,16.49-21.792,24.704
				c-7.291,8.155-14.437,16.385-21.755,24.38c-7.409,7.909-14.781,15.779-22.108,23.604c-14.462,15.833-29.572,30.658-44.217,45.45
				c-29.463,29.411-59.115,56.6-87.969,81.479c-7.06,6.407-14.429,12.229-21.619,18.045c-7.188,5.818-14.267,11.547-21.229,17.18
				c-6.867,5.76-13.968,10.952-20.933,16.053c-6.945,5.126-13.76,10.156-20.434,15.087c-3.338,2.463-6.639,4.903-9.905,7.315
				c-3.306,2.352-6.701,4.493-9.989,6.71c-6.606,4.389-13.059,8.677-19.35,12.856c-6.323,4.124-12.346,8.372-18.446,12.092
				c-6.16,3.615-12.145,7.128-17.942,10.533c-5.796,3.404-11.406,6.699-16.822,9.879c-2.706,1.593-5.364,3.155-7.973,4.687
				c-2.693,1.369-5.334,2.713-7.922,4.03c-10.359,5.251-19.873,10.076-28.467,14.433c-8.488,4.592-16.476,7.758-23.355,10.668
				c-6.878,2.91-12.729,5.386-17.472,7.395c-9.484,4.017-14.542,6.16-14.542,6.16l-0.703,0.299
				c-5.247,2.222-7.699,8.278-5.477,13.523c2.223,5.248,8.278,7.698,13.526,5.476l0.071-0.031c0,0,5.194-2.247,14.932-6.458
				c4.866-2.11,10.869-4.709,17.928-7.765c7.056-3.058,15.25-6.402,23.915-11.17c8.775-4.542,18.491-9.57,29.07-15.042
				c2.64-1.374,5.334-2.776,8.083-4.204c2.654-1.588,5.358-3.207,8.113-4.854c5.508-3.296,11.214-6.711,17.108-10.239
				c5.893-3.527,11.974-7.171,18.236-10.92c6.194-3.846,12.292-8.217,18.7-12.476c6.373-4.31,12.91-8.732,19.602-13.258
				c3.327-2.288,6.768-4.499,10.109-6.922c3.301-2.477,6.636-4.983,10.008-7.513c6.741-5.066,13.622-10.234,20.635-15.502
				c7.031-5.245,14.198-10.58,21.112-16.47c7.01-5.772,14.138-11.64,21.377-17.598c7.238-5.958,14.658-11.924,21.746-18.463
				c29.001-25.428,58.74-53.163,88.225-83.087c14.653-15.051,29.773-30.137,44.212-46.214c7.318-7.943,14.681-15.937,22.081-23.971
				c7.305-8.115,14.431-16.461,21.704-24.734c7.208-8.328,14.598-16.561,21.73-25.052c7.086-8.528,14.195-17.081,21.316-25.651
				c14.42-16.998,28.06-34.727,42.033-52.189c13.93-17.496,27.199-35.498,40.775-53.15c13.185-17.943,26.384-35.77,39.195-53.656
				c25.476-35.875,50.158-71.454,73.135-106.483c23.222-34.867,44.778-69.148,65.048-101.747
				c20.113-32.702,38.768-63.835,55.56-92.824c67.352-115.868,106.382-196.382,106.382-196.382c1.062-2.17,0.165-4.79-2.003-5.852
				C3062.904,1916.332,3060.293,1917.232,3059.219,1919.374z"/>
		</g>
		<g>
			<path style="fill:#BDD0FB;" d="M2655.394,515.855c-5.192-20.478-24.205-14.508-39.419,0.147
				c-833.009,802.336-1056.869,2177.072-785.58,2538.954C1830.395,3054.956,3220.993,2746.992,2655.394,515.855z"/>
			<path style="fill:#FFFFFF;" d="M2620.571,797.75c0,0-0.199,2.102-0.587,6.173c-0.553,4.016-1.208,9.808-2.384,17.698
				c-2.138,15.683-5.83,38.638-10.514,67.844c-4.848,29.184-10.838,64.606-18.402,105.117
				c-7.347,40.548-16.565,86.122-26.491,135.852c-10.315,49.655-21.62,103.42-34.755,160.022
				c-12.795,56.679-27.615,116.136-43.055,177.599c-15.866,61.355-32.572,124.682-51.116,188.581
				c-4.612,15.982-9.244,32.026-13.889,48.117c-4.866,16.027-9.747,32.099-14.636,48.204c-9.562,32.276-20.142,64.369-30.389,96.566
				c-10.209,32.213-21.55,64.045-32.064,96.013c-11.075,31.774-22.233,63.385-33.48,94.679
				c-11.793,31.088-22.957,62.142-34.959,92.44c-6.023,15.142-12.01,30.191-17.954,45.134c-2.972,7.471-5.934,14.915-8.883,22.332
				c-3.096,7.355-6.179,14.68-9.25,21.976c-6.171,14.579-12.29,29.037-18.352,43.359c-3.044,7.156-6.075,14.276-9.089,21.362
				c-3.167,7.016-6.318,13.997-9.452,20.939c-12.759,27.67-24.186,55.241-37.059,81.254c-6.255,13.093-12.425,26.007-18.501,38.731
				c-3.039,6.361-6.055,12.674-9.047,18.936c-3.151,6.183-6.278,12.314-9.378,18.396c-12.56,24.24-24.239,47.915-36.278,70.193
				c-12.228,22.181-23.948,43.435-35.094,63.652c-11.422,20.057-22.781,38.779-33.177,56.543
				c-5.25,8.852-10.332,17.421-15.236,25.692c-5.186,8.096-10.185,15.899-14.987,23.396c-9.609,15-18.435,28.779-26.407,41.224
				c-7.937,12.472-15.886,23.016-22.297,32.54c-6.544,9.436-12.11,17.462-16.622,23.971c-9.029,13.021-13.844,19.964-13.844,19.964
				l-0.063,0.09c-0.812,1.171-0.521,2.778,0.65,3.591c1.151,0.797,2.727,0.526,3.551-0.595c0,0,5.004-6.834,14.388-19.645
				c9.26-12.898,23.445-31.413,40.344-55.782c8.237-12.331,17.356-25.982,27.286-40.844c4.966-7.434,10.134-15.17,15.495-23.198
				c5.082-8.201,10.345-16.699,15.783-25.481c10.747-17.637,22.599-36.173,34.336-56.155c11.428-20.163,23.444-41.365,35.982-63.486
				c12.349-22.226,24.348-45.843,37.244-70.038c3.185-6.069,6.396-12.189,9.634-18.36c3.077-6.251,6.178-12.551,9.303-18.898
				c6.249-12.7,12.594-25.593,19.027-38.664c25.557-52.365,50.688-108.463,75.367-167.031c3.11-7.312,6.233-14.653,9.37-22.021
				c2.989-7.43,5.989-14.887,9-22.373c6.022-14.97,12.089-30.048,18.192-45.219c12.162-30.357,23.482-61.464,35.435-92.612
				c11.405-31.349,22.722-63.016,33.955-94.848c5.375-15.999,10.761-32.027,16.152-48.074c5.368-16.052,10.818-32.097,15.822-48.283
				c10.169-32.322,20.669-64.542,30.149-96.935c4.848-16.162,9.688-32.291,14.513-48.375c4.602-16.149,9.192-32.248,13.764-48.284
				c18.375-64.116,34.906-127.642,50.602-189.181c15.14-61.68,29.179-121.449,41.488-178.345
				c12.585-56.835,23.366-110.805,33.195-160.639c19.164-99.776,32.556-183.387,41.224-242.008
				c4.241-29.332,7.285-52.414,9.127-68.203c0.992-7.823,1.57-14.134,2.025-18.249c0.298-4.093,0.453-6.206,0.453-6.206
				c0.103-1.419-0.963-2.651-2.382-2.756c-1.399-0.102-2.617,0.932-2.75,2.32L2620.571,797.75z"/>
		</g>
		<g>
			
				<linearGradient id="SVGID_00000116225947557898327680000004919165135536025748_" gradientUnits="userSpaceOnUse" x1="-3269.6311" y1="937.9011" x2="-3130.0989" y2="1287.9142" gradientTransform="matrix(-1 0 0 1 -2140.7312 0)">
				<stop  offset="0" style="stop-color:#09005D"/>
				<stop  offset="1" style="stop-color:#1A0F91"/>
			</linearGradient>
			<path style="fill:url(#SVGID_00000116225947557898327680000004919165135536025748_);" d="M1046.166,1126.18
				c0,0-47.04,22.881-55.689,49.164c-6.94,21.09-58.953,23.808-64.091,65.285c-2.653,21.416-18.499,38.566-39.829,41.834
				c-53.123,8.143-134.991,35.729-148.09,127.962c-9.998,70.4,25.891,97.095,63.555,106.336
				c27.664,6.786,46.048,33.693,40.453,61.622c-5.367,26.789,2.637,57.756,49.046,82.244
				c103.998,54.876,207.856-130.006,207.856-130.006l21.285-322.816L1046.166,1126.18z"/>
			
				<linearGradient id="SVGID_00000036932607548408064890000008517808930527273613_" gradientUnits="userSpaceOnUse" x1="500.5134" y1="3178.7207" x2="618.8311" y2="3178.7207">
				<stop  offset="0" style="stop-color:#4F52FF"/>
				<stop  offset="1" style="stop-color:#4042E2"/>
			</linearGradient>
			<path style="fill:url(#SVGID_00000036932607548408064890000008517808930527273613_);" d="M618.69,3150.345l-6.731,55.324
				c-1.277,10.495-9.54,18.795-20.044,19.994c-17.736,2.026-46.196,4.103-74.044,1.159c-12.223-1.292-20.157-13.669-16.434-25.382
				c6.787-21.357,19.207-53.418,37.112-72.285h61.372C611.269,3129.155,620.06,3139.081,618.69,3150.345z"/>
			
				<linearGradient id="SVGID_00000160906862601054701830000006881659037348748438_" gradientUnits="userSpaceOnUse" x1="-3259.5154" y1="3645.301" x2="-3089.2476" y2="1655.2944" gradientTransform="matrix(-1 0 0 1 -2140.7312 0)">
				<stop  offset="0" style="stop-color:#FF928E"/>
				<stop  offset="1" style="stop-color:#FEB3B1"/>
			</linearGradient>
			<path style="fill:url(#SVGID_00000160906862601054701830000006881659037348748438_);" d="M1099.377,2502.253l10.359,60.934
				c0,0-34.689,351.372-40.859,491.92c-0.968,22.036,4.733,43.812,16.298,62.592l60.319,97.952l-153.299-90.46l-3.051-18.708
				l25.095-34.503l-32.87-393.624c-1.932-23.123,2.84-46.313,13.743-66.797l31.708-59.568L1099.377,2502.253z"/>
			
				<linearGradient id="SVGID_00000155838897402660098600000000756132250464163775_" gradientUnits="userSpaceOnUse" x1="977.0772" y1="3157.1191" x2="1168.5251" y2="3157.1191">
				<stop  offset="0" style="stop-color:#4F52FF"/>
				<stop  offset="1" style="stop-color:#4042E2"/>
			</linearGradient>
			<path style="fill:url(#SVGID_00000155838897402660098600000000756132250464163775_);" d="M1155.589,3229.841h-48.921
				c-9.157,0-17.793-4.204-23.377-11.461c-15.251-19.816-46.849-58.479-61.957-59.488c-20.34-1.359-17.737,70.949-17.737,70.949
				h-11.401l-14.441-89.851c-3.633-22.606,7.61-45.002,27.91-55.594l0,0c0,0,4.65,34.383,29.859,49.592
				c25.21,15.209,102.59,69.676,102.59,69.676s9.477-1.351,19.883,0.53C1173.431,3206.984,1171.274,3229.841,1155.589,3229.841z"/>
			
				<linearGradient id="SVGID_00000124850890370271703980000006303742143052006040_" gradientUnits="userSpaceOnUse" x1="-2917.011" y1="3674.9111" x2="-2746.6985" y2="1684.382" gradientTransform="matrix(-1 0 0 1 -2140.7312 0)">
				<stop  offset="0" style="stop-color:#FF928E"/>
				<stop  offset="1" style="stop-color:#FEB3B1"/>
			</linearGradient>
			<path style="fill:url(#SVGID_00000124850890370271703980000006303742143052006040_);" d="M889.408,2531.195
				c0,0-203.219,385.486-235.523,473.499c-32.304,88.013-43.621,161.435-44.054,168.388c-0.676,10.865-14.189,21.285-51.438,21.285
				c-19.223,0-28.637-7.707-33.247-15.165c-3.933-6.362-4.136-14.325-0.822-21.031c11.755-23.79,49.06-99.818,62.877-134.3
				c16.495-41.17,51.978-227.748,71.438-292.62c19.46-64.87,41.457-135.239,126.2-200.057
				C784.84,2531.195,843.014,2474.217,889.408,2531.195z"/>
			
				<linearGradient id="SVGID_00000165210662073166054720000018305199696741049487_" gradientUnits="userSpaceOnUse" x1="-3255.3096" y1="1638.5028" x2="-3170.1719" y2="2428.3967" gradientTransform="matrix(-1 0 0 1 -2140.7312 0)">
				<stop  offset="0" style="stop-color:#4F52FF"/>
				<stop  offset="1" style="stop-color:#4042E2"/>
			</linearGradient>
			<path style="fill:url(#SVGID_00000165210662073166054720000018305199696741049487_);" d="M1017.786,1899.555
				c52.421-222.13-80.378-347.764-80.378-347.764c83.794-80.432,236.465-117.032,236.465-117.032s145.681,106.506,128.399,189.871
				c-10.13,48.86-102.4,292.663-102.4,292.663S1114.55,1957.672,1017.786,1899.555z"/>
			
				<linearGradient id="SVGID_00000167355511506650966270000006019874543239428741_" gradientUnits="userSpaceOnUse" x1="-2786.3289" y1="1677.2809" x2="-3212.0217" y2="2358.3889" gradientTransform="matrix(-1 0 0 1 -2140.7312 0)">
				<stop  offset="0" style="stop-color:#09005D"/>
				<stop  offset="1" style="stop-color:#1A0F91"/>
			</linearGradient>
			<path style="fill:url(#SVGID_00000167355511506650966270000006019874543239428741_);" d="M901.56,2009.525
				c21.334-64.269,116.226-109.97,116.226-109.97c96.764,58.117,182.086,17.738,182.086,17.738s19.135,73.138,5.928,141.107
				c-13.207,67.97-96.064,504.789-96.064,504.789c-130.556,26.453-331.348-26.615-331.348-26.615
				C861.547,2388.931,880.227,2073.794,901.56,2009.525z"/>
			
				<linearGradient id="SVGID_00000181793165596148922440000012409820390555284912_" gradientUnits="userSpaceOnUse" x1="1141.6721" y1="1258.7776" x2="1024.9363" y2="1665.1078">
				<stop  offset="0" style="stop-color:#FF928E"/>
				<stop  offset="1" style="stop-color:#FEB3B1"/>
			</linearGradient>
			<path style="fill:url(#SVGID_00000181793165596148922440000012409820390555284912_);" d="M1078.634,1287.968l-42.62,191.439
				c-4.08,16.862,11.292,14.103,28.34,10.889c27.919-5.264,63.903-16.104,75.932-37.828c1.225-2.212,1.835-4.711,2.181-7.215
				l18.31-132.747c1.453-10.532-4.24-20.754-13.96-25.063l-35.333-15.668C1097.88,1265.741,1082.134,1273.503,1078.634,1287.968z"/>
			
				<linearGradient id="SVGID_00000036939457063977892660000013383026653287528088_" gradientUnits="userSpaceOnUse" x1="-3146.3655" y1="1797.7755" x2="-2933.897" y2="1797.7755" gradientTransform="matrix(-1 0 0 1 -2140.7312 0)">
				<stop  offset="0" style="stop-color:#FF928E"/>
				<stop  offset="1" style="stop-color:#FEB3B1"/>
			</linearGradient>
			<path style="fill:url(#SVGID_00000036939457063977892660000013383026653287528088_);" d="M937.408,1551.791
				c0,0-297.464,212.82-38.044,436.449c0,0,9.892,11.192,29.351,17.008c9.825,2.936,38.887,24.924,53.621,36.389
				c4.737,3.685,11.581,2.431,14.766-2.656l0,0c2.495-3.987,2.787-8.969,0.777-13.22l-36.826-77.872
				c-10.226-9.544-25.879-10.222-36.893-1.597l0,0c-7.025,5.502-17.317,3.198-21.25-4.812
				c-20.054-40.845-57.921-160.971,97.068-296.71c5.826-5.103,7.301-13.543,3.724-20.413
				C992.813,1603.438,967.91,1561.897,937.408,1551.791z"/>
			<g>
				
					<linearGradient id="SVGID_00000008829952103895963650000004651562331507470781_" gradientUnits="userSpaceOnUse" x1="2336.6697" y1="15189.8311" x2="2222.1794" y2="14893.5029" gradientTransform="matrix(-0.9809 -0.1943 -0.1943 0.9809 -1911.6412 -99.2406)">
					<stop  offset="0" style="stop-color:#FF928E"/>
					<stop  offset="1" style="stop-color:#FEB3B1"/>
				</linearGradient>
				<path style="fill:url(#SVGID_00000008829952103895963650000004651562331507470781_);" d="M1160.267,1113.451
					c0,0,45.373,30.714,64.87,108.931c19.497,78.218-12.187,106.275-44.666,104.555c-32.478-1.72-79.57-11.763-120.371-67.877
					C1019.298,1202.947,1100.809,1075.921,1160.267,1113.451z"/>
				
					<linearGradient id="SVGID_00000072257668922189442510000006044041202161559714_" gradientUnits="userSpaceOnUse" x1="-3278.6653" y1="436.5818" x2="-3139.1277" y2="786.6086" gradientTransform="matrix(-0.9809 -0.1943 -0.1943 0.9809 -1911.6412 -99.2406)">
					<stop  offset="0" style="stop-color:#09005D"/>
					<stop  offset="1" style="stop-color:#1A0F91"/>
				</linearGradient>
				<path style="fill:url(#SVGID_00000072257668922189442510000006044041202161559714_);" d="M1101.246,1227.513
					c0,0-16.625-112.078,76.43-94.935l18.815,19.588c0,0,45.547-51.293-4.857-90.067c-50.404-38.774-120.351-28.845-159.048,41.744
					c-38.698,70.589-52.742,120.19-20.306,164.053c32.435,43.863,56.833,6.244,56.833,6.244s-14.875-37.964-2.533-54.255
					c12.343-16.291,28.268,9.473,28.268,9.473L1101.246,1227.513z"/>
				
					<linearGradient id="SVGID_00000028312294310700393210000009824572455613805955_" gradientUnits="userSpaceOnUse" x1="2390.2856" y1="15169.1084" x2="2275.7952" y2="14872.7793" gradientTransform="matrix(-0.9809 -0.1943 -0.1943 0.9809 -1911.6412 -99.2406)">
					<stop  offset="0" style="stop-color:#FF928E"/>
					<stop  offset="1" style="stop-color:#FEB3B1"/>
				</linearGradient>
				<path style="fill:url(#SVGID_00000028312294310700393210000009824572455613805955_);" d="M1101.505,1242.066
					c0,0-8.209-57.664-37.658-41.18c-29.451,16.484,10.614,53.866,26.677,66.585L1101.505,1242.066z"/>
			</g>
		</g>
		<g>
			
				<linearGradient id="SVGID_00000060708920525010831100000000849351426482783402_" gradientUnits="userSpaceOnUse" x1="2636.8374" y1="1745.6355" x2="2376.2537" y2="1745.6355">
				<stop  offset="0" style="stop-color:#FF928E"/>
				<stop  offset="1" style="stop-color:#FEB3B1"/>
			</linearGradient>
			<path style="fill:url(#SVGID_00000060708920525010831100000000849351426482783402_);" d="M2376.254,1692.254
				c0,0,96.789,223.357,156.35,193.576c59.562-29.781,104.233-275.474,104.233-275.474S2450.706,1565.685,2376.254,1692.254z"/>
			
				<linearGradient id="SVGID_00000153693620775512174370000013629062056684106133_" gradientUnits="userSpaceOnUse" x1="-213.9332" y1="2679.925" x2="-208.3615" y2="3292.7629" gradientTransform="matrix(-1 0 0 1 2378.2981 0)">
				<stop  offset="0" style="stop-color:#4F52FF"/>
				<stop  offset="1" style="stop-color:#4042E2"/>
			</linearGradient>
			<path style="fill:url(#SVGID_00000153693620775512174370000013629062056684106133_);" d="M2713.246,3078.308
				c0,0,8.092,45.807,12.058,91.151c1.551,17.721-12.112,33.107-29.885,33.848c-60.384,2.515-189.548,7.406-235.897,5.337
				c-6.967-0.311-11.523-7.445-8.944-13.924l0,0c2.161-5.43,6.329-9.821,11.638-12.261l213.357-98.057L2713.246,3078.308z"/>
			
				<linearGradient id="SVGID_00000016757405983359408260000000222225895976377778_" gradientUnits="userSpaceOnUse" x1="-341.5766" y1="3078.1194" x2="-272.177" y2="3078.1194" gradientTransform="matrix(-1 0 0 1 2378.2981 0)">
				<stop  offset="0" style="stop-color:#FF928E"/>
				<stop  offset="1" style="stop-color:#FEB3B1"/>
			</linearGradient>
			<path style="fill:url(#SVGID_00000016757405983359408260000000222225895976377778_);" d="M2719.875,3051.395l-6.502,54.79
				c0,0-37.374,17.397-62.898-2.192l15.478-61.06L2719.875,3051.395z"/>
			
				<linearGradient id="SVGID_00000024680935497592744770000008681692383690278579_" gradientUnits="userSpaceOnUse" x1="-419.9901" y1="3342.1824" x2="-372.6245" y2="2071.2288" gradientTransform="matrix(-1 0 0 1 2378.2981 0)">
				<stop  offset="0" style="stop-color:#09005D"/>
				<stop  offset="1" style="stop-color:#1A0F91"/>
			</linearGradient>
			<path style="fill:url(#SVGID_00000024680935497592744770000008681692383690278579_);" d="M2714.989,2021.313
				c2.808,14.308,15.072,714.016-59.722,1027.579c-1.219,5.116,1.373,10.39,6.244,12.38c11.471,4.686,33.959,11.474,60.912,12.379
				c8.347,0.281,15.83-5.144,18.184-13.157c21.38-72.75,123.826-437.255,137.191-785.456c14.934-389.08,0-13.247,0-13.247
				l-8.758-240.506L2714.989,2021.313z"/>
			
				<linearGradient id="SVGID_00000070078014841432747330000014546767118463743623_" gradientUnits="userSpaceOnUse" x1="-555.0831" y1="2683.0271" x2="-549.5114" y2="3295.8652" gradientTransform="matrix(-1 0 0 1 2378.2981 0)">
				<stop  offset="0" style="stop-color:#4F52FF"/>
				<stop  offset="1" style="stop-color:#4042E2"/>
			</linearGradient>
			<path style="fill:url(#SVGID_00000070078014841432747330000014546767118463743623_);" d="M2958.676,3102.205
				c0,0,12.88,23.126,25.35,84.573c2.251,11.097-5.502,21.719-16.771,22.825c-19.939,1.961-50.635,4.483-75.222,4.313
				c-11.334-0.077-20.18-9.947-18.815-21.199c2.724-22.429,11.208-59.228,37.419-87.91L2958.676,3102.205z"/>
			
				<linearGradient id="SVGID_00000101782095692945229160000009389517822554710420_" gradientUnits="userSpaceOnUse" x1="-591.6901" y1="3074.561" x2="-531.7702" y2="3074.561" gradientTransform="matrix(-1 0 0 1 2378.2981 0)">
				<stop  offset="0" style="stop-color:#FF928E"/>
				<stop  offset="1" style="stop-color:#FEB3B1"/>
			</linearGradient>
			<path style="fill:url(#SVGID_00000101782095692945229160000009389517822554710420_);" d="M2969.988,3031.732l-15.189,82.858
				c0,0-15.02,11.171-44.731,3.072l7.25-89.149L2969.988,3031.732z"/>
			
				<linearGradient id="SVGID_00000116198360730367971490000014966951313360059026_" gradientUnits="userSpaceOnUse" x1="-537.1326" y1="3337.8169" x2="-489.767" y2="2066.8667" gradientTransform="matrix(-1 0 0 1 2378.2981 0)">
				<stop  offset="0" style="stop-color:#09005D"/>
				<stop  offset="1" style="stop-color:#1A0F91"/>
			</linearGradient>
			<path style="fill:url(#SVGID_00000116198360730367971490000014966951313360059026_);" d="M3011.023,2042.784
				c61.172,369.171-13.269,912.439-38.375,1018.769c-1.537,6.51-6.791,11.498-13.389,12.591
				c-11.206,1.858-29.656,3.374-47.846-1.909c-6.266-1.82-10.67-7.472-10.925-13.994c-3.368-85.965,2.695-613.706-54.303-822.272
				c-2.889-10.57-9.344-19.788-18.274-26.137l-110.629-78.646l-8.481-127.126L3011.023,2042.784z"/>
			<g>
				
					<linearGradient id="SVGID_00000058575227203328657740000007152233836998350012_" gradientUnits="userSpaceOnUse" x1="2707.5664" y1="1368.4576" x2="3098.1804" y2="2274.2781">
					<stop  offset="0" style="stop-color:#4F52FF"/>
					<stop  offset="1" style="stop-color:#4042E2"/>
				</linearGradient>
				<path style="fill:url(#SVGID_00000058575227203328657740000007152233836998350012_);" d="M2614.502,1357.218
					c223.357-22.336,392.325,34.191,392.325,34.191c54.645,318.842,9.557,686.603,9.557,686.603
					c-141.92,37.218-302.014-22.755-302.014-22.755c-23.588-133.268-133.644-508.329-133.644-508.329
					C2491.157,1535.812,2558.233,1362.845,2614.502,1357.218z"/>
			</g>
			
				<linearGradient id="SVGID_00000005254297663311413380000000295537710144252075_" gradientUnits="userSpaceOnUse" x1="2928.4771" y1="1273.1945" x2="3319.0925" y2="2179.0183">
				<stop  offset="0" style="stop-color:#4F52FF"/>
				<stop  offset="1" style="stop-color:#4042E2"/>
			</linearGradient>
			<path style="fill:url(#SVGID_00000005254297663311413380000000295537710144252075_);" d="M2936.515,1568.914l70.313-177.505
				c0,0,171.23,116.342,199.39,263.852c-32.354,2.383-91.227,10.799-148.853,39.896
				C3044.701,1625.505,2936.515,1568.914,2936.515,1568.914z"/>
			
				<linearGradient id="SVGID_00000080193984372919748670000018233728409283355315_" gradientUnits="userSpaceOnUse" x1="-816.932" y1="1769.7915" x2="-368.2496" y2="1769.7915" gradientTransform="matrix(-1 0 0 1 2378.2981 0)">
				<stop  offset="0" style="stop-color:#FF928E"/>
				<stop  offset="1" style="stop-color:#FEB3B1"/>
			</linearGradient>
			<path style="fill:url(#SVGID_00000080193984372919748670000018233728409283355315_);" d="M2771.989,1735.942
				c0,0,192.248,108.65,257.114,15.876c13.468-19.265,16.688-38.41,13.37-56.661c57.627-29.097,116.499-37.512,148.854-39.896
				c8.49,44.471,4.001,91.766-22.13,139.568c-113.625,207.853-422.649-11.487-422.649-11.487L2771.989,1735.942z"/>
			<g>
				
					<linearGradient id="SVGID_00000001638854226726054350000001887555529609630373_" gradientUnits="userSpaceOnUse" x1="2507.6604" y1="1756.3813" x2="2763.5796" y2="1359.0332">
					<stop  offset="0" style="stop-color:#09005D"/>
					<stop  offset="1" style="stop-color:#1A0F91"/>
				</linearGradient>
				<path style="fill:url(#SVGID_00000001638854226726054350000001887555529609630373_);" d="M2795.089,1873.394l-104.922-366.409
					c-1.191-4.159-4.738-7.194-9.037-7.694c-19.01-2.218-74.093-8.445-137.692-13.823c-76.609-6.481-165.572-11.731-218.734-7.265
					c-7.558,0.635-12.125,8.629-8.764,15.428c30.231,61.162,154.584,309.952,216.855,391.452c2.064,2.701,5.254,4.279,8.65,4.247
					l243.436-2.265C2791.965,1887,2797.039,1880.204,2795.089,1873.394z"/>
				<path style="fill:#7D97F4;" d="M2532.554,1453.7l-76.071-12.674c-4.051-0.675-7.369,3.195-6.082,7.095l7.531,22.82
					c0.656,1.985,2.387,3.423,4.461,3.699l73.201,9.779c3.787,0.505,6.91-2.935,6.039-6.656l-4.661-19.922
					C2536.471,1455.696,2534.729,1454.063,2532.554,1453.7z"/>
				<path style="fill:#7D97F4;" d="M2589.513,1518.1l-6.266-32.641c-0.628-3.275-3.331-5.748-6.648-6.086l-153.643-15.591
					c-5.172-0.524-9.313,4.214-8.1,9.269l9.77,40.676c0.781,3.254,3.614,5.604,6.958,5.772l150.141,7.559
					C2586.61,1527.305,2590.436,1522.905,2589.513,1518.1z"/>
				
					<linearGradient id="SVGID_00000181806591617239149770000002137842297261610650_" gradientUnits="userSpaceOnUse" x1="-401.5623" y1="1722.7473" x2="-261.7782" y2="1722.7473" gradientTransform="matrix(-1 0 0 1 2378.2981 0)">
					<stop  offset="0" style="stop-color:#FF928E"/>
					<stop  offset="1" style="stop-color:#FEB3B1"/>
				</linearGradient>
				<path style="fill:url(#SVGID_00000181806591617239149770000002137842297261610650_);" d="M2769.739,1784.869
					c0,0,14.615-60.099,8.72-81.421c-5.896-21.322-17.319-48.736-55.394-42.644c-38.074,6.092-82.99,22.132-82.99,22.132
					s2.27,27.773,31.207,18.812l-17.944,13.885c0,0,2.566,22.238,27.009,10.357l-16.69,18.413c0,0,10.497,18.265,28.479,6.55
					C2710.119,1739.239,2718.741,1792.107,2769.739,1784.869z"/>
				
					<linearGradient id="SVGID_00000159438228242854159230000008847069433803255717_" gradientUnits="userSpaceOnUse" x1="2116.4834" y1="2271.4443" x2="2256.2727" y2="2271.4443" gradientTransform="matrix(0.8472 -0.5312 0.5312 0.8472 -661.622 848.1048)">
					<stop  offset="0" style="stop-color:#FF928E"/>
					<stop  offset="1" style="stop-color:#FEB3B1"/>
				</linearGradient>
				<path style="fill:url(#SVGID_00000159438228242854159230000008847069433803255717_);" d="M2379.63,1695.452
					c0,0-44.307-43.154-50.641-64.35c-6.332-21.197-11.216-50.491,24.278-65.557c35.494-15.064,82.068-25.334,82.068-25.334
					s12.831,24.736-16.446,32.516l22.579,2.231c0,0,9.639,20.204-17.38,23.122l23.922,6.735c0,0,0.809,21.051-20.65,20.678
					C2405.902,1625.121,2426.681,1674.493,2379.63,1695.452z"/>
			</g>
			
				<linearGradient id="SVGID_00000152257462511600374780000006415387446643334068_" gradientUnits="userSpaceOnUse" x1="2732.2859" y1="1197.324" x2="2792.8992" y2="1520.5922">
				<stop  offset="0" style="stop-color:#FF928E"/>
				<stop  offset="1" style="stop-color:#FEB3B1"/>
			</linearGradient>
			<path style="fill:url(#SVGID_00000152257462511600374780000006415387446643334068_);" d="M2784.59,1208.314l58.329,168.684
				c0.967,2.793-0.182,5.888-2.769,7.319c-15.901,8.79-73.185,34.201-142.217-9.567c-7.192-4.559-12.086-11.996-13.179-20.44
				l-18.889-145.996H2784.59z"/>
			<g>
				
					<linearGradient id="SVGID_00000183248383749620528590000014517702889687708095_" gradientUnits="userSpaceOnUse" x1="2778.6929" y1="966.0927" x2="2650.7324" y2="1273.6459">
					<stop  offset="0" style="stop-color:#FF928E"/>
					<stop  offset="1" style="stop-color:#FEB3B1"/>
				</linearGradient>
				<path style="fill:url(#SVGID_00000183248383749620528590000014517702889687708095_);" d="M2657.674,1052.107
					c0,0-64.051,120.57-55.841,169.274c8.21,48.704,87.594,45.208,156.911,5.651l48.439-130.187L2657.674,1052.107z"/>
				
					<linearGradient id="SVGID_00000090262573371977723520000000722482820191300265_" gradientUnits="userSpaceOnUse" x1="-5395.4365" y1="-2470.3496" x2="-5339.9849" y2="-2154.071" gradientTransform="matrix(-0.746 -0.6659 -0.6659 0.746 -2748.0371 -803.1727)">
					<stop  offset="0" style="stop-color:#09005D"/>
					<stop  offset="1" style="stop-color:#1A0F91"/>
				</linearGradient>
				<path style="fill:url(#SVGID_00000090262573371977723520000000722482820191300265_);" d="M2755.679,1163.098
					c-2.816-1.248-3.855-4.695-2.168-7.273c5.132-7.839,14.751-23.833,17.82-37.835c0,0,11.515-7.375-29.306-17.145
					c-40.821-9.77-101.696-24.937-114.492-59.682c-12.476-33.878,20.302-119.073,72.597-51.19c1.989,2.583,5.887,2.64,7.873,0.054
					c8.573-11.157,31.111-34.316,62.402-20.276c29.283,13.14,32.581,34.596,32.179,45.412c-0.118,3.181,2.726,5.654,5.854,5.058
					c14.805-2.823,50.332-5.25,66.915,31.197c13.659,30.02,4.781,47.014-3.303,55.324c-2.62,2.693-1.473,7.126,2.119,8.226
					c9.731,2.978,22.295,11.229,21.037,34.025c-1.738,31.514-36.973,28.738-47.005,27.301c-1.645-0.235-3.3,0.328-4.414,1.56
					c-8.601,9.519-47.357,49.938-89.302,54.81c-3.631,0.421-6.446-3.166-5.256-6.622l18.153-52.767
					c0.842-2.451-0.33-5.139-2.7-6.189L2755.679,1163.098z"/>
				
					<linearGradient id="SVGID_00000110471837661278352250000008357277118660606129_" gradientUnits="userSpaceOnUse" x1="2844.7878" y1="993.592" x2="2716.8276" y2="1301.145">
					<stop  offset="0" style="stop-color:#FF928E"/>
					<stop  offset="1" style="stop-color:#FEB3B1"/>
				</linearGradient>
				<path style="fill:url(#SVGID_00000110471837661278352250000008357277118660606129_);" d="M2748.383,1170.587
					c0,0,45.605-31.29,48.937-4.939c3.333,26.349-41.067,38.166-63.058,28.343L2748.383,1170.587z"/>
			</g>
		</g>
		<g>
			<path style="fill:#7D97F4;" d="M1193.449,832.979c0,0,97.297,364.802,354.61,277.626
				c257.314-87.176,140.716-387.639,100.997-462.176c0,0-66.66-232.203-303.437-155.201
				C1172.623,549.487,1151.987,677.155,1193.449,832.979z"/>
			<path style="opacity:0.3;fill:#FFFFFF;" d="M1373.44,607.644c-25.506-37.618-52.59-68.712-80.639-91.443
				c-125.441,63.547-137.786,180.017-100.85,318.831c0,0,97.297,364.802,354.61,277.626c29.139-9.872,33.235-7.797,53.437-22.5
				C1513.98,945.469,1465.153,742.906,1373.44,607.644z"/>
			
				<linearGradient id="SVGID_00000086676424867258337030000011269594132736101033_" gradientUnits="userSpaceOnUse" x1="2032.775" y1="-1973.8745" x2="2118.082" y2="-2351.0208" gradientTransform="matrix(0.9522 -0.3055 0.3055 0.9522 -95.2857 513.3796)">
				<stop  offset="0" style="stop-color:#4F52FF"/>
				<stop  offset="1" style="stop-color:#4042E2"/>
			</linearGradient>
			<path style="fill:url(#SVGID_00000086676424867258337030000011269594132736101033_);" d="M1618.422,904.309
				c10.227,31.873-24.041,113.806-91.771,135.54c-67.73,21.734-143.274-24.962-153.502-56.834
				c-10.228-31.873,56.965-11.203,124.695-32.937C1565.575,928.343,1608.194,872.435,1618.422,904.309z"/>
			
				<linearGradient id="SVGID_00000000913020850961013590000017385389184137294495_" gradientUnits="userSpaceOnUse" x1="-490.0632" y1="11019.5723" x2="-404.7563" y2="10642.4268" gradientTransform="matrix(-0.9797 0.2003 -0.2003 -0.9797 3306.1604 872.2452)">
				<stop  offset="0" style="stop-color:#4F52FF"/>
				<stop  offset="1" style="stop-color:#4042E2"/>
			</linearGradient>
			<path style="fill:url(#SVGID_00000000913020850961013590000017385389184137294495_);" d="M1306.638,842.773
				c-2.493-12.192,13.479-41.086,39.386-46.383c25.907-5.297,51.939,15.009,54.432,27.201c2.493,12.191-21.503,1.84-47.41,7.138
				C1327.138,836.025,1309.131,854.965,1306.638,842.773z"/>
			
				<linearGradient id="SVGID_00000060727436824528552250000017055826017735402667_" gradientUnits="userSpaceOnUse" x1="-1242.3845" y1="13800.2363" x2="-1157.0775" y2="13423.0908" gradientTransform="matrix(-0.792 0.6105 -0.6105 -0.792 3249.5811 95.3409)">
				<stop  offset="0" style="stop-color:#4F52FF"/>
				<stop  offset="1" style="stop-color:#4042E2"/>
			</linearGradient>
			<path style="fill:url(#SVGID_00000060727436824528552250000017055826017735402667_);" d="M1501.563,793.288
				c-7.597-9.855-5.95-42.829,14.992-58.974c20.943-16.144,53.25-9.346,60.847,0.51c7.597,9.855-18.507,11.104-39.449,27.248
				C1517.011,778.217,1509.16,803.143,1501.563,793.288z"/>
		</g>
		<g>
			<path style="fill:#7D97F4;" d="M1995.002,727.177c0,0-79.876,369.008,188.868,408.844
				c268.744,39.836,302.088-280.728,300.754-365.177c0,0,46.634-237.038-199.192-276.557
				C2105.822,465.414,2029.207,569.602,1995.002,727.177z"/>
			<g style="opacity:0.3;">
				<path style="fill:#FFFFFF;" d="M2255.926,847.639c34.214-102.691,48.724-182.415,42.466-282.206
					c-2.17-34.619-11.64-70.086-12.961-70.298c-179.608-28.874-256.224,75.314-290.429,232.889c0,0-79.876,369.008,188.869,408.844
					C2199.701,1139.214,2234.363,912.355,2255.926,847.639z"/>
			</g>
			
				<linearGradient id="SVGID_00000053538495638145168440000010075096730248814007_" gradientUnits="userSpaceOnUse" x1="2296.896" y1="806.8861" x2="2207.6604" y2="1015.6635">
				<stop  offset="0" style="stop-color:#4F52FF"/>
				<stop  offset="1" style="stop-color:#4042E2"/>
			</linearGradient>
			<path style="fill:url(#SVGID_00000053538495638145168440000010075096730248814007_);" d="M2330.218,1047.631
				c5.442-33.029-40.473-109.049-110.658-120.614c-70.185-11.565-138.063,45.706-143.506,78.734
				c-5.442,33.029,57.992,2.727,128.177,14.292C2274.417,1031.608,2324.775,1080.659,2330.218,1047.631z"/>
			
				<linearGradient id="SVGID_00000129178633465575236460000017296750484015391883_" gradientUnits="userSpaceOnUse" x1="2599.5535" y1="-260.6813" x2="2436.2361" y2="-109.1497" gradientTransform="matrix(0.9322 0.3619 -0.3619 0.9322 1014.6915 -394.4437)">
				<stop  offset="0" style="stop-color:#4F52FF"/>
				<stop  offset="1" style="stop-color:#4042E2"/>
			</linearGradient>
			<path style="fill:url(#SVGID_00000129178633465575236460000017296750484015391883_);" d="M2395.618,786.228
				c-4.504,11.6-33.575,27.248-58.225,17.677c-24.65-9.571-35.544-40.737-31.041-52.337c4.504-11.6,19.076,10.094,43.727,19.665
				C2374.729,780.804,2400.122,774.628,2395.618,786.228z"/>
			
				<linearGradient id="SVGID_00000015333020870235731110000000383327399556840084_" gradientUnits="userSpaceOnUse" x1="2563.95" y1="-443.9392" x2="2400.6321" y2="-292.4074" gradientTransform="matrix(0.9964 -0.0846 0.0846 0.9964 641.3395 289.1356)">
				<stop  offset="0" style="stop-color:#4F52FF"/>
				<stop  offset="1" style="stop-color:#4042E2"/>
			</linearGradient>
			<path style="fill:url(#SVGID_00000015333020870235731110000000383327399556840084_);" d="M2204.937,722.311
				c1.053,12.399-18.183,39.232-44.531,41.468c-26.348,2.237-49.832-20.97-50.884-33.369c-1.053-12.399,21.571,0.683,47.919-1.554
				C2183.79,726.62,2203.885,709.912,2204.937,722.311z"/>
		</g>
		<g>
			
				<linearGradient id="SVGID_00000032635204558618694470000011954106264807013040_" gradientUnits="userSpaceOnUse" x1="1137.946" y1="3695.75" x2="1147.4337" y2="3411.1267" gradientTransform="matrix(-1 0 0 1 2861.6616 0)">
				<stop  offset="0" style="stop-color:#7C27DD"/>
				<stop  offset="1" style="stop-color:#2B41D9"/>
			</linearGradient>
			<path style="fill:url(#SVGID_00000032635204558618694470000011954106264807013040_);" d="M1627.893,3214.875
				c-0.018-1.199,0.062-2.416,0.37-3.641c18.155-71.977,92.388-108.869,92.388-108.869l35.706,2.798
				c20.53,63.439,33.767,94.41,30.47,111.739c-0.091,0.486-0.239,0.948-0.368,1.418
				C1757.006,3220.952,1696.38,3222.67,1627.893,3214.875z"/>
			<path style="fill:#7D97F4;" d="M1786.46,3218.32c-1.59,5.787-5.862,10.292-11.33,11.443c-41.9,8.812-108.494,1.72-136.455-1.936
				c-6.168-0.806-10.678-6.511-10.781-12.952C1696.38,3222.67,1757.006,3220.952,1786.46,3218.32z"/>
			
				<linearGradient id="SVGID_00000091004402724057721040000011743114951077509050_" gradientUnits="userSpaceOnUse" x1="3546.8477" y1="2974.3613" x2="3515.0173" y2="3252.1555" gradientTransform="matrix(1 0 0 1 -1811.8352 0)">
				<stop  offset="0" style="stop-color:#FF928E"/>
				<stop  offset="1" style="stop-color:#FEB3B1"/>
			</linearGradient>
			<path style="fill:url(#SVGID_00000091004402724057721040000011743114951077509050_);" d="M1691.249,3046.799l15.633,75.26
				c1.146,5.514,5.383,9.644,10.516,10.126c6.282,0.589,15.226,0.936,24.22-0.386c8.066-1.185,13.682-9.38,12.253-18.177
				l-10.867-66.824H1691.249z"/>
			<path style="fill:#7D97F4;" d="M2089.851,3217.696c-38.135-1.067-57.859-5.559-68.057-9.727
				c-0.023,3.792-0.002,7.651,0.121,11.649c0.132,4.27,3.295,7.681,7.186,7.656l209.385-1.352c6.683-0.043,10.588-7.792,7.691-13.92
				C2218.723,3214.271,2148.801,3219.345,2089.851,3217.696z"/>
			
				<linearGradient id="SVGID_00000077303604808856014790000002028527705331076796_" gradientUnits="userSpaceOnUse" x1="3923.7024" y1="3871.7551" x2="3933.1902" y2="3587.1313" gradientTransform="matrix(1 0 0 1 -1811.8352 0)">
				<stop  offset="0" style="stop-color:#7C27DD"/>
				<stop  offset="1" style="stop-color:#2B41D9"/>
			</linearGradient>
			<path style="fill:url(#SVGID_00000077303604808856014790000002028527705331076796_);" d="M2246.177,3212.002
				c-0.253-0.533-0.469-1.077-0.828-1.579c-18.491-25.838-65.589-77.288-158.654-99.603l-44.646-1.409
				c0,0-19.879,34.553-20.255,98.558c10.198,4.168,29.922,8.659,68.057,9.727
				C2148.801,3219.345,2218.723,3214.271,2246.177,3212.002z"/>
			
				<linearGradient id="SVGID_00000162347447134769209530000004817464900957974927_" gradientUnits="userSpaceOnUse" x1="3882.1582" y1="3009.9006" x2="3852.3828" y2="3269.761" gradientTransform="matrix(1 0 0 1 -1811.8352 0)">
				<stop  offset="0" style="stop-color:#FF928E"/>
				<stop  offset="1" style="stop-color:#FEB3B1"/>
			</linearGradient>
			<path style="fill:url(#SVGID_00000162347447134769209530000004817464900957974927_);" d="M2033.769,3041.751
				c0.496,3.327,6.616,53.906,8.985,73.517c0.563,4.659,3.938,8.266,8.194,8.774c7.602,0.908,19.904,1.733,30.667-0.472
				c5.806-1.19,10.009-6.767,10.009-13.253v-79.395L2033.769,3041.751z"/>
			
				<linearGradient id="SVGID_00000166650077544491694970000013434763593017582987_" gradientUnits="userSpaceOnUse" x1="2188.5337" y1="1975.4714" x2="1737.3065" y2="2938.5374">
				<stop  offset="0" style="stop-color:#09005D"/>
				<stop  offset="1" style="stop-color:#1A0F91"/>
			</linearGradient>
			<path style="fill:url(#SVGID_00000166650077544491694970000013434763593017582987_);" d="M1721.083,2058.525
				c0,0-71.442,635.035-31.752,1031.932c0,0,47.627,0,71.441-7.939c0,0,74.238-620.9,98.256-798.574
				c0.904-6.698,10.466-7.001,11.78-0.372c29.631,149.477,146.016,735.652,159.854,791.009c0,0,39.69,15.876,71.441,0
				c0,0-63.502-849.359-111.13-1000.181L1721.083,2058.525z"/>
			
				<linearGradient id="SVGID_00000000926567708209632540000009568052599715569565_" gradientUnits="userSpaceOnUse" x1="2385.5718" y1="780.8472" x2="2116.1819" y2="1191.6663">
				<stop  offset="0" style="stop-color:#FF928E"/>
				<stop  offset="1" style="stop-color:#FE7062"/>
			</linearGradient>
			<path style="fill:url(#SVGID_00000000926567708209632540000009568052599715569565_);" d="M1578.199,1320.297
				c0,0,301.642-47.628,539.781,15.876l-15.877,246.076c0,0-63.502,341.331-111.13,492.152c0,0-182.574,31.752-269.891-15.876
				c0,0-71.442-428.649-111.131-492.153C1609.952,1566.372,1570.261,1399.676,1578.199,1320.297z"/>
			
				<linearGradient id="SVGID_00000043421799697399969150000016181028367803534998_" gradientUnits="userSpaceOnUse" x1="1851.6644" y1="1120.1548" x2="1820.2356" y2="1378.3195">
				<stop  offset="0" style="stop-color:#FF928E"/>
				<stop  offset="1" style="stop-color:#FEB3B1"/>
			</linearGradient>
			<path style="fill:url(#SVGID_00000043421799697399969150000016181028367803534998_);" d="M1787.747,1103.394l-30.049,203.211
				c0,0,83.952,38.566,142.738-1.655l-12.657-143.414L1787.747,1103.394z"/>
			<g>
				
					<linearGradient id="SVGID_00000119104891632676123880000003751820484101459363_" gradientUnits="userSpaceOnUse" x1="1343.3411" y1="-891.0276" x2="1383.7494" y2="-520.6158" gradientTransform="matrix(0.8757 -0.4828 0.4828 0.8757 133.6748 1095.1436)">
					<stop  offset="0" style="stop-color:#FF928E"/>
					<stop  offset="1" style="stop-color:#FEB3B1"/>
				</linearGradient>
				<path style="fill:url(#SVGID_00000119104891632676123880000003751820484101459363_);" d="M1917.126,971.07
					c0.947,1.717,19.059,104.189,30.207,167.618c4.607,26.209-14.657,50.553-41.222,52.126l-24.324,1.44
					c-44.693,2.646-84.051-29.174-90.825-73.43l-17.588-114.901C1773.375,1003.924,1894.151,929.395,1917.126,971.07z"/>
				
					<linearGradient id="SVGID_00000094589208185258508740000014745174004166133173_" gradientUnits="userSpaceOnUse" x1="1414.7783" y1="733.0428" x2="1672.3323" y2="733.0428" gradientTransform="matrix(0.8757 -0.4828 0.4828 0.8757 133.6748 1095.1436)">
					<stop  offset="0" style="stop-color:#09005D"/>
					<stop  offset="1" style="stop-color:#1A0F91"/>
				</linearGradient>
				<path style="fill:url(#SVGID_00000094589208185258508740000014745174004166133173_);" d="M1747.15,1004.207
					c-9.326-11.598-17.458-30.349,2.402-50.068c20.106-19.965,42.917-14.988,57.386-8.293c6.403,2.964,14.296,1.651,18.855-3.737
					c2.026-2.393,5.033-4.023,9.494-3.522c8.411,0.944,15.92-4.611,16.919-13.015c1.712-14.409,9.388-31.376,34.866-36.299
					c46.73-9.032,70.041,37.733,69.208,70.604c-0.833,32.868-52.054,39.781-81.114,34.325c-21.346-4.008-39.803,14.75-48.097,24.99
					c-3.011,3.716-4.135,8.587-3.051,13.245l7.387,31.753c-5.117,9.871-10.139,19.952-17.326,28.375
					c-5.176,6.066-10.85,9.412-16.866,10.829c-8.713-16.217-33.081-18.967-44.405-19.331c-4.332-0.138-8.379-2.048-11.227-5.316
					c-8.543-9.799-21.916-31.659,3.681-53.126C1751.628,1020.285,1752.354,1010.681,1747.15,1004.207z"/>
				
					<linearGradient id="SVGID_00000026136887026412507500000005170395953737861017_" gradientUnits="userSpaceOnUse" x1="1249.1228" y1="-880.7484" x2="1289.5311" y2="-510.3376" gradientTransform="matrix(0.8757 -0.4828 0.4828 0.8757 133.6748 1095.1436)">
					<stop  offset="0" style="stop-color:#FF928E"/>
					<stop  offset="1" style="stop-color:#FEB3B1"/>
				</linearGradient>
				<path style="fill:url(#SVGID_00000026136887026412507500000005170395953737861017_);" d="M1805.641,1137.39
					c0,0-1.007-57.337-24.213-62.722c-23.205-5.386-48.243,11.392-28.395,45.72
					C1777.722,1163.088,1805.641,1137.39,1805.641,1137.39z"/>
			</g>
			
				<linearGradient id="SVGID_00000072988672017564275180000017269399023405945472_" gradientUnits="userSpaceOnUse" x1="2254.7224" y1="695.0477" x2="1985.3325" y2="1105.8668">
				<stop  offset="0" style="stop-color:#FF928E"/>
				<stop  offset="1" style="stop-color:#FE7062"/>
			</linearGradient>
			<path style="fill:url(#SVGID_00000072988672017564275180000017269399023405945472_);" d="M1578.199,1320.297
				c0,0-468.338,508.028,83.349,702.507v-39.689c0,0-206.387-174.636-47.628-412.773
				C1613.921,1570.342,1594.075,1344.11,1578.199,1320.297z"/>
			
				<linearGradient id="SVGID_00000085938721387285159820000018067436368724482704_" gradientUnits="userSpaceOnUse" x1="1792.4365" y1="1941.7086" x2="1538.422" y2="2158.679">
				<stop  offset="0" style="stop-color:#FF928E"/>
				<stop  offset="1" style="stop-color:#FEB3B1"/>
			</linearGradient>
			<path style="fill:url(#SVGID_00000085938721387285159820000018067436368724482704_);" d="M1665.517,1987.084
				c0,0,71.441-47.628,103.193-31.752c31.753,15.875,31.753,39.689,31.753,39.689s-15.877,31.753-39.69,23.814
				c-23.814-7.937-79.379,7.939-103.193,0C1657.579,2018.835,1649.641,1987.084,1665.517,1987.084z"/>
			
				<linearGradient id="SVGID_00000059274520183261975290000013315359119607611776_" gradientUnits="userSpaceOnUse" x1="2631.1938" y1="941.9133" x2="2361.804" y2="1352.7323">
				<stop  offset="0" style="stop-color:#FF928E"/>
				<stop  offset="1" style="stop-color:#FE7062"/>
			</linearGradient>
			<path style="fill:url(#SVGID_00000059274520183261975290000013315359119607611776_);" d="M2117.98,1336.172
				c0,0,488.183,492.152-63.504,686.631v-39.689c0,0,206.386-174.636,47.627-412.773
				C2102.103,1570.342,2086.228,1375.862,2117.98,1336.172z"/>
			
				<linearGradient id="SVGID_00000169525848637002432310000000271004096546054074_" gradientUnits="userSpaceOnUse" x1="1945.2743" y1="1953.4025" x2="2088.1567" y2="2096.2849">
				<stop  offset="0" style="stop-color:#FF928E"/>
				<stop  offset="1" style="stop-color:#FEB3B1"/>
			</linearGradient>
			<path style="fill:url(#SVGID_00000169525848637002432310000000271004096546054074_);" d="M2050.507,1987.084
				c0,0-71.441-47.628-103.193-31.752c-31.752,15.875-31.752,39.689-31.752,39.689s15.876,31.753,39.69,23.814
				c23.814-7.937,79.379,7.939,103.193,0C2058.445,2018.835,2066.384,1987.084,2050.507,1987.084z"/>
		</g>
	</g>
</g>
</svg>
