<?xml version="1.0" encoding="utf-8"?>
<!-- Generator: Adobe Illustrator 27.5.0, SVG Export Plug-In . SVG Version: 6.00 Build 0)  -->
<svg version="1.1" xmlns="http://www.w3.org/2000/svg" xmlns:xlink="http://www.w3.org/1999/xlink" x="0px" y="0px"
	 viewBox="0 0 500 500" style="enable-background:new 0 0 500 500;" xml:space="preserve">
<g id="Background_Complete">
	<g>
		<rect y="382.398" style="fill:#EBEBEB;" width="500" height="0.25"/>
		<rect x="416.779" y="398.494" style="fill:#EBEBEB;" width="33.122" height="0.25"/>
		<rect x="322.527" y="401.208" style="fill:#EBEBEB;" width="8.693" height="0.25"/>
		<rect x="396.586" y="389.208" style="fill:#EBEBEB;" width="19.192" height="0.25"/>
		<rect x="52.459" y="390.888" style="fill:#EBEBEB;" width="43.193" height="0.25"/>
		<rect x="104.556" y="390.888" style="fill:#EBEBEB;" width="6.333" height="0.25"/>
		<rect x="131.471" y="395.111" style="fill:#EBEBEB;" width="93.676" height="0.25"/>
		<path style="fill:#EBEBEB;" d="M237.014,337.8H43.915c-3.147,0-5.708-2.561-5.708-5.708V60.66c0-3.147,2.561-5.708,5.708-5.708
			h193.099c3.146,0,5.707,2.561,5.707,5.708v271.432C242.721,335.239,240.16,337.8,237.014,337.8z M43.915,55.203
			c-3.01,0-5.458,2.448-5.458,5.458v271.432c0,3.01,2.448,5.458,5.458,5.458h193.099c3.009,0,5.457-2.448,5.457-5.458V60.66
			c0-3.009-2.448-5.458-5.457-5.458H43.915z"/>
		<path style="fill:#EBEBEB;" d="M453.31,337.8H260.212c-3.147,0-5.707-2.561-5.707-5.708V60.66c0-3.147,2.561-5.708,5.707-5.708
			H453.31c3.148,0,5.708,2.561,5.708,5.708v271.432C459.019,335.239,456.458,337.8,453.31,337.8z M260.212,55.203
			c-3.009,0-5.457,2.448-5.457,5.458v271.432c0,3.01,2.448,5.458,5.457,5.458H453.31c3.01,0,5.458-2.448,5.458-5.458V60.66
			c0-3.009-2.448-5.458-5.458-5.458H260.212z"/>
	</g>
	<g>
		<g>
			<circle style="fill:#E0E0E0;" cx="362.853" cy="113.179" r="13.777"/>
			<circle style="fill:#F0F0F0;" cx="362.853" cy="113.179" r="11.714"/>
			
				<polyline style="fill:#F0F0F0;stroke:#E0E0E0;stroke-width:1.6496;stroke-linecap:round;stroke-linejoin:round;stroke-miterlimit:10;" points="
				362.3,121.215 362.3,113.026 356.874,116.096 			"/>
		</g>
		<g>
			<rect x="118.393" y="151.568" style="fill:#E0E0E0;" width="90.398" height="4.645"/>
			<rect x="122.554" y="134.448" style="fill:#EBEBEB;" width="3.982" height="17.121"/>
			<rect x="141.811" y="134.448" style="fill:#EBEBEB;" width="3.983" height="17.121"/>
			
				<rect x="165.155" y="134.234" transform="matrix(0.9855 -0.1698 0.1698 0.9855 -21.8238 30.4628)" style="fill:#EBEBEB;" width="3.983" height="17.121"/>
			<rect x="127.489" y="136.704" style="fill:#EBEBEB;" width="3.983" height="14.864"/>
			<rect x="136.643" y="136.704" style="fill:#EBEBEB;" width="3.983" height="14.864"/>
			<rect x="159.748" y="136.704" style="fill:#EBEBEB;" width="3.983" height="14.864"/>
			
				<rect x="148.701" y="136.449" transform="matrix(0.9762 -0.2169 0.2169 0.9762 -27.617 36.1049)" style="fill:#EBEBEB;" width="3.983" height="14.864"/>
			<rect x="132.924" y="133.598" style="fill:#EBEBEB;" width="1.991" height="17.971"/>
			<rect x="156.612" y="133.598" style="fill:#EBEBEB;" width="1.991" height="17.971"/>
			<rect x="180.712" y="138.018" style="fill:#EBEBEB;" width="19.405" height="13.397"/>
		</g>
		<g>
			
				<rect x="118.393" y="186.242" transform="matrix(-1 -1.224647e-16 1.224647e-16 -1 327.1841 377.1278)" style="fill:#E0E0E0;" width="90.398" height="4.645"/>
			
				<rect x="200.648" y="169.121" transform="matrix(-1 -1.224647e-16 1.224647e-16 -1 405.2778 355.3626)" style="fill:#EBEBEB;" width="3.983" height="17.121"/>
			
				<rect x="181.391" y="169.121" transform="matrix(-1 -1.224647e-16 1.224647e-16 -1 366.7637 355.3626)" style="fill:#EBEBEB;" width="3.983" height="17.121"/>
			
				<rect x="158.046" y="168.907" transform="matrix(-0.9855 -0.1698 0.1698 -0.9855 287.6082 379.5381)" style="fill:#EBEBEB;" width="3.982" height="17.121"/>
			
				<rect x="195.713" y="171.377" transform="matrix(-1 -1.224647e-16 1.224647e-16 -1 395.4084 357.6188)" style="fill:#EBEBEB;" width="3.982" height="14.864"/>
			
				<rect x="186.559" y="171.377" transform="matrix(-1 -1.224647e-16 1.224647e-16 -1 377.1007 357.6188)" style="fill:#EBEBEB;" width="3.983" height="14.864"/>
			
				<rect x="163.454" y="171.377" transform="matrix(-1 -1.224647e-16 1.224647e-16 -1 330.8901 357.6188)" style="fill:#EBEBEB;" width="3.983" height="14.864"/>
			
				<rect x="174.5" y="171.122" transform="matrix(-0.9762 -0.2169 0.2169 -0.9762 310.0531 391.1389)" style="fill:#EBEBEB;" width="3.983" height="14.864"/>
			
				<rect x="192.269" y="168.271" transform="matrix(-1 -1.224647e-16 1.224647e-16 -1 386.5296 354.5126)" style="fill:#EBEBEB;" width="1.991" height="17.971"/>
			
				<rect x="168.581" y="168.271" transform="matrix(-1 -1.224647e-16 1.224647e-16 -1 339.1535 354.5126)" style="fill:#EBEBEB;" width="1.991" height="17.971"/>
			
				<rect x="127.067" y="172.691" transform="matrix(-1 -1.224647e-16 1.224647e-16 -1 273.5393 358.7791)" style="fill:#EBEBEB;" width="19.405" height="13.397"/>
		</g>
	</g>
</g>
<g id="Background_Simple" style="display:none;">
	<g style="display:inline;">
		<path style="fill:#407BFF;" d="M224.747,109.957c73.158,13.261,26.53,80.866,71.663,100.166
			c45.133,19.3,140.185-39.584,119.341,44.823c-24.484,99.148-230.076,137.294-300.46,40.626S151.589,96.696,224.747,109.957z"/>
		<path style="opacity:0.9;fill:#FFFFFF;" d="M224.747,109.957c73.158,13.261,26.53,80.866,71.663,100.166
			c45.133,19.3,140.185-39.584,119.341,44.823c-24.484,99.148-230.076,137.294-300.46,40.626S151.589,96.696,224.747,109.957z"/>
	</g>
</g>
<g id="Shadow_1_">
	<ellipse id="_x3C_Path_x3E__359_" style="fill:#F5F5F5;" cx="250" cy="416.238" rx="193.889" ry="11.323"/>
</g>
<g id="Puzzle">
	<g>
		<path style="fill:#407BFF;" d="M322.889,367.372c-4.68-16.69,9.98-45.28,9.98-45.28s26.52,9.87,37.46,5.49
			c4.99-1.99,7.26-19.51,8.33-23.73c0.55-2.15,6.55-5.48,7.32-7.23c1.3-2.97-3-7.49-3-7.49s5.91-3.91,6.66-5.49
			c1.71-3.6-2.66-3-0.83-14.15c0,0,13.98-3.33,13.98-8.99c0,0-17.73-14.5-15.31-28.97c0.49-2.98,1.02-6.39,1.42-10.1h-7.3l0.69-0.82
			c0.51-0.61,0.79-1.37,0.79-2.15c0-1.84-1.5-3.34-3.34-3.34c-1.84,0-3.34,1.5-3.34,3.34c0,0.77,0.28,1.54,0.79,2.15l0.68,0.82
			h-11.51v10.25c0.7-0.56,1.56-0.87,2.44-0.87c2.14,0,3.87,1.74,3.87,3.87c0,2.14-1.73,3.87-3.87,3.87c-0.89,0-1.75-0.31-2.44-0.86
			v22.17l-0.82-0.68c-0.6-0.5-1.36-0.78-2.15-0.78c-1.84,0-3.34,1.49-3.34,3.33s1.5,3.34,3.34,3.34c0.79,0,1.55-0.28,2.15-0.78
			l0.82-0.68v11.79h-10.66c0.56,0.69,0.86,1.55,0.86,2.44c0,2.13-1.73,3.87-3.85,3.87c-2.14,0-3.88-1.74-3.88-3.87
			c0-0.89,0.31-1.75,0.86-2.44h-22.16l0.68-0.82c0.51-0.61,0.78-1.35,0.78-2.15c0-1.84-1.5-3.33-3.34-3.33
			c-1.84,0-3.34,1.49-3.34,3.33c0,0.8,0.27,1.54,0.78,2.15l0.68,0.82h-11.38v10.36c0.69-0.54,1.55-0.85,2.44-0.85
			c2.13,0,3.86,1.73,3.86,3.86c0,2.14-1.73,3.87-3.86,3.87c-0.89,0-1.75-0.31-2.44-0.86v10.61h-11.9l0.67-0.82
			c0.5-0.6,0.77-1.37,0.77-2.15c0-1.84-1.49-3.34-3.32-3.34c-1.85,0-3.34,1.5-3.34,3.34c0,0.78,0.27,1.54,0.78,2.15l0.68,0.82
			h-22.17c0.56,0.69,0.87,1.55,0.87,2.44c0,2.13-1.73,3.87-3.87,3.87c-2.13,0-3.87-1.74-3.87-3.87c0-0.89,0.31-1.75,0.87-2.44
			h-10.84c0.02,18.76-3.26,42-15.79,62.45c-20.03,11.75-28.1,36.45-29.03,52.99h158.52c-0.61-2.87-5.57-18.95-41.37-38.62
			C326.489,374.792,323.798,370.642,322.889,367.372z"/>
		<path style="fill:#407BFF;" d="M332.784,106.335c1.116,1.8,3.488,2.356,5.287,1.241c0.771-0.478,1.342-1.207,1.62-2.051
			l5.474,8.83l-9.203,5.705c-0.082,0.051-0.125,0.148-0.107,0.243c0.018,0.095,0.093,0.17,0.189,0.187
			c0.952,0.169,1.789,0.735,2.296,1.553c0.98,1.58,0.491,3.663-1.09,4.642c-1.58,0.98-3.662,0.491-4.642-1.089
			c-0.507-0.818-0.642-1.819-0.37-2.747c0.027-0.093-0.005-0.194-0.083-0.252c-0.077-0.059-0.183-0.064-0.265-0.013l-9.258,5.739
			l-5.477-8.834c0.889,0.124,1.801-0.064,2.571-0.541c1.794-1.112,2.345-3.48,1.229-5.28c-1.116-1.8-3.482-2.359-5.276-1.247
			c-0.77,0.477-1.344,1.21-1.628,2.062l-5.388-8.692l9.258-5.739c0.083-0.051,0.125-0.148,0.107-0.243
			c-0.018-0.095-0.093-0.17-0.189-0.187c-0.952-0.169-1.789-0.736-2.296-1.554c-0.979-1.58-0.491-3.662,1.089-4.642
			c1.58-0.98,3.663-0.491,4.642,1.089c0.507,0.818,0.642,1.819,0.37,2.747c-0.027,0.093,0.006,0.193,0.083,0.252
			c0.077,0.059,0.183,0.064,0.265,0.013l9.203-5.705l5.385,8.687c-0.879-0.126-1.786,0.061-2.557,0.539
			C332.224,102.164,331.668,104.535,332.784,106.335z"/>
		<path style="fill:#407BFF;" d="M365.863,193.937h-10.229c0.583-0.699,0.898-1.558,0.898-2.47c0-2.11-1.717-3.827-3.828-3.827
			c-2.117,0-3.839,1.717-3.839,3.827c0,0.92,0.313,1.779,0.892,2.47H339.34v-10.944c0-0.098-0.06-0.185-0.152-0.219
			c-0.092-0.033-0.194-0.009-0.258,0.064c-0.632,0.719-1.549,1.131-2.515,1.131c-1.859,0-3.372-1.513-3.372-3.371
			c0-1.859,1.513-3.372,3.372-3.372c0.967,0,1.883,0.412,2.515,1.131c0.065,0.073,0.167,0.099,0.258,0.064
			c0.092-0.034,0.152-0.122,0.152-0.219v-10.776h10.417c-0.579,0.691-0.892,1.55-0.892,2.47c0,2.11,1.722,3.827,3.839,3.827
			c2.111,0,3.828-1.717,3.828-3.827c0-0.912-0.315-1.771-0.897-2.47h10.229v10.776c0,0.097,0.06,0.184,0.15,0.219
			c0.091,0.034,0.193,0.01,0.258-0.062c0.645-0.72,1.567-1.133,2.53-1.133c1.859,0,3.371,1.513,3.371,3.372
			c0,1.859-1.512,3.371-3.371,3.371c-0.963,0-1.885-0.413-2.53-1.133c-0.065-0.072-0.167-0.097-0.258-0.062
			c-0.09,0.035-0.15,0.122-0.15,0.219V193.937z"/>
		<path style="fill:#407BFF;" d="M241.507,179.414c-0.072-0.065-0.177-0.079-0.264-0.034c-0.862,0.444-1.872,0.497-2.772,0.146
			c-1.732-0.676-2.59-2.636-1.914-4.368c0.676-1.731,2.635-2.59,4.367-1.913c0.889,0.347,1.597,1.072,1.94,1.988
			c0.034,0.091,0.121,0.151,0.218,0.152c0.097,0,0.184-0.059,0.22-0.149l3.986-10.206l9.644,3.767
			c-0.794,0.436-1.415,1.132-1.743,1.971c-0.77,1.972,0.207,4.204,2.18,4.974c1.972,0.77,4.204-0.207,4.974-2.18
			c0.33-0.846,0.347-1.778,0.059-2.629l9.592,3.747l-3.986,10.206c-0.035,0.09-0.011,0.194,0.061,0.259
			c0.073,0.066,0.178,0.079,0.265,0.034c0.86-0.445,1.865-0.499,2.759-0.15c1.732,0.676,2.59,2.635,1.914,4.367
			c-0.676,1.732-2.636,2.591-4.367,1.914c-0.904-0.353-1.606-1.074-1.926-1.979c-0.032-0.092-0.119-0.155-0.217-0.156
			c-0.098-0.002-0.186,0.058-0.222,0.149l-3.93,10.062l-9.593-3.747c0.789-0.43,1.408-1.127,1.739-1.973
			c0.77-1.972-0.208-4.203-2.18-4.973c-1.972-0.77-4.203,0.207-4.974,2.179c-0.328,0.839-0.343,1.772-0.055,2.631l-9.644-3.767
			l3.93-10.062C241.604,179.583,241.579,179.48,241.507,179.414z"/>
		<path style="fill:#407BFF;" d="M312.044,236.848c-0.091,0.034-0.152,0.122-0.152,0.219v10.854h-10.348
			c0.569-0.694,0.888-1.568,0.888-2.47c0-2.117-1.717-3.84-3.827-3.84c-2.118,0-3.84,1.723-3.84,3.84c0,0.898,0.323,1.772,0.9,2.47
			h-10.295v-10.854c0-0.098-0.06-0.185-0.151-0.219c-0.092-0.034-0.195-0.008-0.258,0.064c-0.641,0.727-1.563,1.144-2.529,1.144
			c-1.859,0-3.372-1.512-3.372-3.371c0-1.859,1.513-3.372,3.372-3.372c0.955,0,1.877,0.418,2.53,1.146
			c0.064,0.072,0.168,0.097,0.258,0.062c0.091-0.035,0.151-0.122,0.151-0.219v-10.905h10.295c-0.576,0.698-0.899,1.572-0.899,2.47
			c0,2.117,1.723,3.84,3.84,3.84c2.11,0,3.827-1.723,3.827-3.84c0-0.902-0.318-1.777-0.888-2.47h10.348v10.905
			c0,0.097,0.06,0.184,0.151,0.219c0.091,0.035,0.193,0.01,0.258-0.062c0.653-0.728,1.575-1.146,2.53-1.146
			c1.852,0,3.358,1.513,3.358,3.372c0,1.859-1.506,3.371-3.358,3.371c-0.966,0-1.888-0.417-2.529-1.144
			C312.237,236.84,312.134,236.814,312.044,236.848z"/>
		<path style="fill:#407BFF;" d="M264.765,129.6c-0.097,0.002-0.184,0.063-0.217,0.155l-3.662,10.217l-9.741-3.491
			c0.77-0.461,1.365-1.176,1.669-2.026c0.714-1.993-0.321-4.194-2.307-4.906c-1.993-0.714-4.196,0.326-4.911,2.319
			c-0.303,0.845-0.294,1.777,0.014,2.629l-9.692-3.473l3.662-10.217c0.033-0.092,0.006-0.194-0.069-0.257
			c-0.075-0.063-0.18-0.073-0.265-0.027c-0.849,0.468-1.857,0.549-2.766,0.224c-1.75-0.627-2.664-2.561-2.036-4.311
			c0.627-1.75,2.561-2.664,4.311-2.036c0.899,0.322,1.626,1.026,1.995,1.932c0.036,0.09,0.125,0.148,0.222,0.146
			c0.097-0.002,0.183-0.064,0.216-0.155l3.679-10.266l9.691,3.473c-0.778,0.462-1.377,1.177-1.68,2.022
			c-0.714,1.993,0.326,4.196,2.32,4.911c1.987,0.712,4.184-0.331,4.898-2.324c0.304-0.849,0.3-1.78-0.002-2.624l9.741,3.491
			l-3.679,10.265c-0.033,0.091-0.005,0.193,0.068,0.257c0.074,0.063,0.178,0.075,0.264,0.029c0.86-0.465,1.869-0.547,2.768-0.225
			c1.743,0.625,2.651,2.557,2.024,4.307c-0.627,1.75-2.556,2.666-4.299,2.041c-0.91-0.326-1.636-1.029-1.995-1.93
			C264.951,129.658,264.862,129.599,264.765,129.6z"/>
		<path style="fill:#407BFF;" d="M194.124,100.108c-0.024,0.094,0.013,0.194,0.093,0.25l8.896,6.218l-5.929,8.481
			c-0.242-0.864-0.776-1.626-1.516-2.143c-1.735-1.213-4.131-0.793-5.34,0.937c-1.213,1.736-0.788,4.134,0.947,5.348
			c0.736,0.514,1.637,0.751,2.54,0.678l-5.899,8.438l-8.896-6.219c-0.08-0.056-0.186-0.056-0.266-0.001
			c-0.08,0.056-0.118,0.155-0.096,0.249c0.229,0.942,0.042,1.936-0.511,2.728c-1.065,1.523-3.171,1.897-4.695,0.832
			c-1.524-1.065-1.897-3.172-0.832-4.695c0.547-0.783,1.418-1.299,2.389-1.417c0.096-0.011,0.176-0.082,0.199-0.176
			c0.023-0.094-0.014-0.193-0.093-0.249l-8.938-6.248l5.898-8.438c0.242,0.872,0.773,1.638,1.509,2.152
			c1.736,1.213,4.134,0.788,5.348-0.947c1.209-1.73,0.781-4.124-0.955-5.337c-0.739-0.517-1.638-0.757-2.533-0.688l5.929-8.481
			l8.938,6.248c0.079,0.056,0.185,0.056,0.266,0.002c0.08-0.054,0.119-0.152,0.097-0.247c-0.222-0.952-0.037-1.947,0.511-2.73
			c1.061-1.518,3.164-1.886,4.688-0.821c1.523,1.065,1.9,3.166,0.839,4.684c-0.554,0.792-1.423,1.308-2.386,1.417
			C194.228,99.945,194.148,100.015,194.124,100.108z"/>
		<path style="fill:#407BFF;" d="M279.058,288.772c0-1.852,1.513-3.359,3.372-3.359c0.958,0,1.881,0.409,2.531,1.121
			c0.065,0.072,0.168,0.098,0.258,0.06c0.09-0.035,0.15-0.122,0.15-0.218v-11.008h10.295c-0.576,0.698-0.899,1.572-0.899,2.47
			c0,2.117,1.723,3.84,3.84,3.84c2.11,0,3.827-1.723,3.827-3.84c0-0.902-0.318-1.776-0.888-2.47h10.348v11.008
			c0,0.096,0.06,0.183,0.15,0.218c0.09,0.037,0.192,0.012,0.258-0.06c0.65-0.712,1.572-1.121,2.531-1.121
			c1.852,0,3.358,1.507,3.358,3.359c0,1.859-1.506,3.372-3.358,3.372c-0.962,0-1.884-0.413-2.53-1.133
			c-0.065-0.072-0.167-0.096-0.258-0.062c-0.091,0.035-0.151,0.122-0.151,0.219v10.725h-10.348c0.569-0.694,0.888-1.568,0.888-2.47
			c0-2.117-1.717-3.84-3.827-3.84c-2.118,0-3.84,1.723-3.84,3.84c0,0.898,0.323,1.772,0.9,2.47h-10.295v-10.725
			c0-0.097-0.06-0.184-0.151-0.219c-0.09-0.034-0.193-0.01-0.258,0.062c-0.646,0.72-1.568,1.133-2.53,1.133
			C280.571,292.144,279.058,290.631,279.058,288.772z"/>
		<path style="fill:#407BFF;" d="M312.361,264.124c0-0.097-0.06-0.184-0.15-0.219c-0.09-0.035-0.193-0.011-0.258,0.062
			c-0.646,0.72-1.567,1.133-2.53,1.133c-1.86,0-3.371-1.513-3.371-3.372c0-1.852,1.512-3.359,3.371-3.359
			c0.963,0,1.884,0.413,2.53,1.133c0.065,0.072,0.168,0.098,0.258,0.062c0.091-0.035,0.15-0.122,0.15-0.219V248.39h10.337
			c-0.571,0.681-0.889,1.55-0.889,2.457c0,2.117,1.722,3.84,3.84,3.84c2.117,0,3.841-1.723,3.841-3.84
			c0-0.907-0.319-1.776-0.89-2.457h10.273v10.956c0,0.097,0.059,0.184,0.15,0.219c0.091,0.036,0.194,0.01,0.258-0.062
			c0.646-0.72,1.568-1.133,2.53-1.133c1.859,0,3.372,1.507,3.372,3.359c0,1.859-1.513,3.372-3.372,3.372
			c-0.962,0-1.884-0.413-2.53-1.133c-0.065-0.073-0.168-0.097-0.258-0.062c-0.091,0.035-0.15,0.122-0.15,0.219V274.9h-10.276
			c0.579-0.691,0.893-1.55,0.893-2.47c0-2.111-1.723-3.827-3.841-3.827c-2.117,0-3.84,1.717-3.84,3.827
			c0,0.92,0.313,1.779,0.893,2.47h-10.34V264.124z"/>
		<path style="fill:#407BFF;" d="M308.708,181.469l10.829,1.17l-1.106,10.239c-0.621-0.649-1.456-1.065-2.359-1.162
			c-2.105-0.227-4.003,1.3-4.23,3.405c-0.227,2.105,1.3,4.003,3.405,4.23c0.895,0.097,1.8-0.133,2.553-0.636l-1.112,10.294
			l-10.829-1.17c-0.096-0.01-0.189,0.04-0.233,0.125c-0.045,0.086-0.031,0.19,0.033,0.263c0.638,0.723,0.945,1.684,0.843,2.637
			c-0.2,1.848-1.86,3.19-3.701,2.991c-1.848-0.2-3.19-1.866-2.99-3.714c0.102-0.946,0.613-1.818,1.4-2.394
			c0.078-0.057,0.113-0.156,0.088-0.25c-0.025-0.093-0.105-0.162-0.201-0.172l-10.778-1.164l1.112-10.294
			c0.629,0.652,1.463,1.07,2.358,1.167c2.105,0.227,4.003-1.3,4.231-3.405c0.228-2.105-1.301-4.003-3.406-4.23
			c-0.903-0.098-1.806,0.13-2.552,0.632l1.106-10.239l10.778,1.164c0.097,0.01,0.189-0.04,0.234-0.125
			c0.044-0.086,0.031-0.19-0.033-0.263c-0.656-0.742-0.959-1.679-0.856-2.639c0.199-1.841,1.865-3.177,3.713-2.977
			c1.841,0.199,3.177,1.859,2.979,3.7c-0.105,0.967-0.597,1.818-1.386,2.396c-0.078,0.057-0.114,0.156-0.088,0.249
			C308.533,181.39,308.612,181.458,308.708,181.469z"/>
		<path style="fill:#407BFF;" d="M296.209,274.9h-10.841v-10.227c0.69,0.574,1.564,0.895,2.47,0.895c2.117,0,3.841-1.723,3.841-3.84
			c0-2.11-1.723-3.827-3.841-3.827c-0.905,0-1.779,0.321-2.47,0.895V248.39h10.841c0.097,0,0.184-0.06,0.219-0.15
			c0.035-0.09,0.011-0.193-0.061-0.258c-0.72-0.658-1.134-1.58-1.134-2.532c0-1.859,1.513-3.371,3.372-3.371
			c1.852,0,3.359,1.512,3.359,3.371c0,0.958-0.409,1.881-1.121,2.532c-0.072,0.065-0.096,0.167-0.061,0.258
			c0.035,0.09,0.122,0.15,0.218,0.15h10.892v10.407c-0.69-0.574-1.564-0.895-2.47-0.895c-2.118,0-3.84,1.717-3.84,3.827
			c0,2.118,1.722,3.84,3.84,3.84c0.906,0,1.78-0.321,2.47-0.895V274.9H301c-0.097,0-0.183,0.06-0.218,0.15
			c-0.035,0.09-0.01,0.193,0.061,0.258c0.712,0.65,1.121,1.573,1.121,2.531c0,1.859-1.507,3.372-3.359,3.372
			c-1.859,0-3.372-1.513-3.372-3.372c0-0.951,0.414-1.874,1.134-2.531c0.072-0.065,0.096-0.167,0.061-0.258
			C296.393,274.96,296.306,274.9,296.209,274.9z"/>
		<path style="fill:#407BFF;" d="M357.302,151.191c-0.096-0.008-0.188,0.043-0.231,0.13c-0.042,0.087-0.027,0.191,0.038,0.262
			c0.672,0.728,0.996,1.658,0.913,2.62c-0.16,1.845-1.791,3.216-3.636,3.057c-1.852-0.16-3.229-1.792-3.069-3.637
			c0.084-0.973,0.562-1.833,1.346-2.423c0.077-0.058,0.111-0.158,0.085-0.252c-0.026-0.093-0.108-0.16-0.205-0.169l-10.928-0.945
			l0.902-10.425c0.642,0.626,1.485,1.019,2.384,1.097c2.109,0.182,3.974-1.379,4.156-3.482c0.182-2.11-1.386-3.974-3.495-4.157
			c-0.902-0.078-1.801,0.166-2.538,0.678l0.224-2.585c7.854,2.421,14.421,5.438,19.891,8.9c0.498,1.351,1.734,2.372,3.266,2.505
			c0.134,0.012,0.268,0.002,0.402-0.001c0.667,0.492,1.319,0.989,1.948,1.494l-0.714,8.26L357.302,151.191z"/>
		<path style="fill:#407BFF;" d="M264.686,288.772c0-2.11-1.722-3.827-3.839-3.827c-0.903,0-1.777,0.318-2.471,0.887v-10.463h10.802
			c0.098,0,0.185-0.06,0.219-0.151c0.034-0.091,0.009-0.194-0.064-0.259c-0.738-0.65-1.144-1.548-1.144-2.529
			c0-1.852,1.513-3.359,3.372-3.359c1.859,0,3.371,1.507,3.371,3.359c0,0.969-0.406,1.868-1.146,2.53
			c-0.072,0.065-0.097,0.168-0.062,0.258c0.035,0.091,0.122,0.151,0.219,0.151H284.9v10.463c-0.694-0.569-1.568-0.887-2.47-0.887
			c-2.117,0-3.84,1.717-3.84,3.827c0,2.118,1.723,3.84,3.84,3.84c0.905,0,1.779-0.321,2.47-0.895v10.175h-10.957
			c-0.097,0-0.184,0.06-0.219,0.15c-0.035,0.091-0.009,0.194,0.063,0.258c0.728,0.652,1.145,1.574,1.145,2.53
			c0,1.859-1.512,3.372-3.371,3.372c-1.859,0-3.372-1.513-3.372-3.372c0-0.966,0.417-1.888,1.144-2.528
			c0.073-0.065,0.098-0.167,0.064-0.258c-0.035-0.091-0.122-0.151-0.219-0.151h-10.802v-10.175c0.691,0.574,1.565,0.895,2.471,0.895
			C262.964,292.612,264.686,290.89,264.686,288.772z"/>
		<path style="fill:#407BFF;" d="M257.907,286.377c0,0.096,0.06,0.183,0.15,0.218c0.089,0.037,0.192,0.012,0.257-0.06
			c0.651-0.712,1.573-1.121,2.532-1.121c1.859,0,3.371,1.507,3.371,3.359c0,1.859-1.512,3.372-3.371,3.372
			c-0.963,0-1.885-0.413-2.53-1.133c-0.065-0.072-0.167-0.096-0.258-0.062c-0.091,0.035-0.151,0.122-0.151,0.219v10.725h-0.192
			c-0.044-10.841-1.177-20.156-2.235-26.524h2.427V286.377z"/>
		<path style="fill:#407BFF;" d="M331.594,144.091c0.091,0.035,0.194,0.01,0.258-0.062c0.646-0.72,1.568-1.132,2.53-1.132
			c1.859,0,3.372,1.513,3.372,3.372c0,1.851-1.513,3.358-3.372,3.358c-0.958,0-1.881-0.409-2.531-1.121
			c-0.065-0.072-0.168-0.097-0.258-0.061c-0.09,0.035-0.149,0.122-0.149,0.218v11.008h-10.278c0.574-0.69,0.895-1.565,0.895-2.47
			c0-2.117-1.723-3.84-3.841-3.84c-2.117,0-3.84,1.723-3.84,3.84c0,0.905,0.321,1.779,0.895,2.47h-10.342v-11.008
			c0-0.096-0.059-0.183-0.149-0.218c-0.091-0.035-0.193-0.011-0.258,0.061c-0.65,0.712-1.573,1.121-2.531,1.121
			c-1.86,0-3.371-1.507-3.371-3.358c0-1.859,1.512-3.372,3.371-3.372c0.963,0,1.884,0.413,2.53,1.132
			c0.065,0.072,0.168,0.097,0.258,0.062c0.091-0.035,0.15-0.122,0.15-0.219v-6.055c3.704,0.073,7.232,0.256,10.6,0.535
			c0.693,0.681,1.641,1.105,2.688,1.105c0.772,0,1.488-0.234,2.091-0.627c3.949,0.459,7.655,1.063,11.133,1.798v3.243
			C331.444,143.969,331.504,144.056,331.594,144.091z"/>
		<path style="fill:#407BFF;" d="M366.332,158.986c3.553,2.435,6.591,5.114,9.189,7.972h-9.189V158.986z"/>
		<path style="fill:#407BFF;" d="M323.794,145.715c1.056,0.093,2.096,0.196,3.12,0.309c-0.392,0.16-0.818,0.251-1.266,0.251
			C324.963,146.275,324.326,146.067,323.794,145.715z"/>
		<path style="fill:#407BFF;" d="M154.15,223.319c0.589,2.034,2.724,3.209,4.757,2.62c2.034-0.589,3.208-2.723,2.619-4.757
			c-0.252-0.87-0.803-1.62-1.546-2.123l10.044-2.911l3.035,10.474c0.027,0.093,0.109,0.16,0.206,0.168
			c0.097,0.008,0.188-0.044,0.231-0.132c0.424-0.881,1.194-1.539,2.111-1.805c1.785-0.517,3.659,0.515,4.176,2.3
			c0.517,1.786-0.514,3.659-2.3,4.176c-0.928,0.269-1.929,0.125-2.748-0.395c-0.082-0.052-0.188-0.048-0.266,0.01
			c-0.078,0.058-0.112,0.159-0.085,0.253l3.021,10.425l-10.044,2.911c0.359-0.823,0.423-1.752,0.171-2.622
			c-0.589-2.034-2.723-3.209-4.757-2.62c-1.589,0.461-2.641,1.867-2.749,3.429c-0.826-1.124-1.605-2.273-2.31-3.441
			c-3.394-5.63-6.23-11.362-8.473-17.112l5.088-1.475C153.968,221.524,153.899,222.454,154.15,223.319z"/>
		<path style="fill:#407BFF;" d="M169.571,156.744c0.049-0.084,0.042-0.189-0.019-0.265c-0.62-0.775-0.874-1.728-0.715-2.684
			c0.304-1.827,2.044-3.065,3.878-2.76c1.834,0.305,3.078,2.04,2.774,3.867c-0.16,0.963-0.704,1.784-1.532,2.31
			c-0.082,0.052-0.123,0.149-0.104,0.244c0.019,0.095,0.095,0.169,0.191,0.184l10.858,1.807l-1.69,10.153
			c-0.574-0.679-1.378-1.138-2.276-1.288c-2.089-0.348-4.071,1.069-4.418,3.158c-0.348,2.089,1.069,4.071,3.158,4.418
			c0.89,0.148,1.8-0.028,2.571-0.486l-1.699,10.208l-10.858-1.807c-0.096-0.016-0.192,0.029-0.24,0.113
			c-0.049,0.084-0.041,0.189,0.02,0.265c0.604,0.754,0.859,1.732,0.701,2.681c-0.305,1.834-2.045,3.078-3.879,2.772
			c-1.834-0.305-3.078-2.046-2.773-3.879c0.157-0.942,0.72-1.783,1.545-2.307c0.082-0.052,0.123-0.149,0.104-0.244
			c-0.019-0.095-0.095-0.168-0.191-0.184l-5.807-0.966c0.272-3.4,0.708-6.726,1.315-9.961c1.18-0.493,2.094-1.553,2.319-2.905
			c0.199-1.196-0.193-2.346-0.946-3.185c0.899-3.407,2.001-6.694,3.304-9.84l4.17,0.694
			C169.426,156.873,169.522,156.828,169.571,156.744z"/>
		<path style="fill:#407BFF;" d="M381.899,194.088c-0.034,0.091-0.009,0.194,0.064,0.259c0.728,0.64,1.144,1.562,1.144,2.528
			c0,1.859-1.512,3.371-3.371,3.371c-1.86,0-3.372-1.513-3.372-3.371c0-0.955,0.418-1.877,1.145-2.53
			c0.072-0.065,0.097-0.167,0.063-0.258c-0.034-0.091-0.122-0.15-0.219-0.15h-11.021v-10.394c0.69,0.574,1.564,0.895,2.47,0.895
			c2.117,0,3.84-1.723,3.84-3.84c0-2.118-1.722-3.84-3.84-3.84c-0.906,0-1.78,0.321-2.47,0.895v-10.226h9.617
			c7.028,7.935,10.701,17.212,12.412,26.511h-6.244C382.02,193.937,381.933,193.997,381.899,194.088z"/>
		<path style="fill:#407BFF;" d="M365.863,247.921h-10.231c0.577-0.698,0.9-1.573,0.9-2.47c0-2.117-1.717-3.84-3.828-3.84
			c-2.117,0-3.839,1.723-3.839,3.84c0,0.905,0.321,1.78,0.895,2.47H339.34v-10.854c0-0.098-0.061-0.185-0.153-0.219
			c-0.092-0.034-0.195-0.008-0.259,0.066c-0.627,0.726-1.544,1.142-2.514,1.142c-1.859,0-3.372-1.512-3.372-3.371
			c0-1.859,1.513-3.372,3.372-3.372c0.96,0,1.876,0.417,2.515,1.144c0.065,0.073,0.167,0.099,0.258,0.065
			c0.092-0.034,0.152-0.122,0.152-0.219v-10.905h10.419c-0.574,0.69-0.894,1.564-0.894,2.47c0,2.117,1.722,3.84,3.839,3.84
			c2.111,0,3.828-1.723,3.828-3.84c0-0.898-0.323-1.772-0.9-2.47h10.231v10.905c0,0.097,0.06,0.184,0.15,0.219
			c0.091,0.035,0.193,0.01,0.258-0.062c0.653-0.728,1.575-1.146,2.53-1.146c1.859,0,3.371,1.513,3.371,3.372
			c0,1.859-1.512,3.371-3.371,3.371c-0.966,0-1.888-0.417-2.529-1.144c-0.065-0.073-0.168-0.098-0.259-0.064
			c-0.091,0.034-0.151,0.122-0.151,0.219V247.921z"/>
		<path style="fill:#407BFF;" d="M198.091,259.076c1.665-0.826,3.692-0.142,4.518,1.523c0.428,0.862,0.467,1.872,0.109,2.77
			c-0.036,0.09-0.012,0.193,0.059,0.259c0.071,0.066,0.176,0.081,0.263,0.038l9.862-4.89l4.62,9.319
			c-0.863-0.209-1.783-0.109-2.596,0.294c-1.897,0.941-2.678,3.244-1.74,5.135c0.941,1.897,3.249,2.675,5.146,1.735
			c0.813-0.403,1.45-1.075,1.806-1.888l4.54,9.158l-2.245,1.113c-3.203-4.411-5.35-6.867-5.35-6.867s-11.837-5.536-20.714-13.708
			C195.903,261.52,196.597,259.816,198.091,259.076z"/>
		<path style="fill:#407BFF;" d="M345.65,261.728c0-2.11-1.723-3.827-3.84-3.827c-0.905,0-1.779,0.321-2.47,0.895V248.39h10.969
			c0.097,0,0.184-0.06,0.219-0.151c0.035-0.091,0.01-0.194-0.062-0.258c-0.72-0.646-1.132-1.567-1.132-2.53
			c0-1.859,1.512-3.371,3.371-3.371c1.852,0,3.359,1.512,3.359,3.371c0,0.951-0.414,1.874-1.135,2.532
			c-0.071,0.065-0.095,0.167-0.06,0.258c0.035,0.09,0.122,0.15,0.219,0.15h10.776v10.407c-0.69-0.574-1.564-0.895-2.47-0.895
			c-2.117,0-3.84,1.717-3.84,3.827c0,2.118,1.723,3.84,3.84,3.84c0.906,0,1.78-0.321,2.47-0.895V274.9h-10.776
			c-0.097,0-0.184,0.06-0.219,0.15c-0.035,0.09-0.011,0.193,0.06,0.258c0.721,0.658,1.135,1.58,1.135,2.531
			c0,1.859-1.507,3.372-3.359,3.372c-1.859,0-3.371-1.513-3.371-3.372c0-0.963,0.413-1.885,1.132-2.53
			c0.072-0.065,0.097-0.167,0.063-0.258c-0.034-0.091-0.122-0.151-0.219-0.151H339.34v-10.227c0.69,0.574,1.564,0.895,2.47,0.895
			C343.927,265.569,345.65,263.846,345.65,261.728z"/>
		<path style="fill:#407BFF;" d="M383.575,218.459c0-2.117-1.723-3.84-3.84-3.84c-2.118,0-3.84,1.723-3.84,3.84
			c0,0.901,0.325,1.775,0.906,2.47h-10.47v-10.905c0-0.097-0.06-0.184-0.151-0.219c-0.09-0.036-0.193-0.01-0.258,0.062
			c-0.653,0.728-1.575,1.146-2.53,1.146c-1.859,0-3.371-1.513-3.371-3.372s1.512-3.372,3.371-3.372c0.966,0,1.888,0.417,2.529,1.144
			c0.065,0.073,0.168,0.097,0.259,0.064c0.091-0.034,0.151-0.122,0.151-0.219v-10.854h10.47c-0.581,0.695-0.906,1.569-0.906,2.47
			c0,2.117,1.723,3.84,3.84,3.84c2.117,0,3.84-1.723,3.84-3.84c0-0.909-0.324-1.782-0.902-2.47h5.776
			c1.643,9.283,1.35,18.562,0.502,26.523h-6.278C383.252,220.241,383.575,219.367,383.575,218.459z"/>
		<path style="opacity:0.7;fill:#FFFFFF;enable-background:new    ;" d="M322.889,367.372c-4.68-16.69,9.98-45.28,9.98-45.28
			s26.52,9.87,37.46,5.49c4.99-1.99,7.26-19.51,8.33-23.73c0.55-2.15,6.55-5.48,7.32-7.23c1.3-2.97-3-7.49-3-7.49
			s5.91-3.91,6.66-5.49c1.71-3.6-2.66-3-0.83-14.15c0,0,13.98-3.33,13.98-8.99c0,0-17.73-14.5-15.31-28.97
			c0.49-2.98,1.02-6.39,1.42-10.1h-7.3l0.69-0.82c0.51-0.61,0.79-1.37,0.79-2.15c0-1.84-1.5-3.34-3.34-3.34
			c-1.84,0-3.34,1.5-3.34,3.34c0,0.77,0.28,1.54,0.79,2.15l0.68,0.82h-11.51v10.25c0.7-0.56,1.56-0.87,2.44-0.87
			c2.14,0,3.87,1.74,3.87,3.87c0,2.14-1.73,3.87-3.87,3.87c-0.89,0-1.75-0.31-2.44-0.86v22.17l-0.82-0.68
			c-0.6-0.5-1.36-0.78-2.15-0.78c-1.84,0-3.34,1.49-3.34,3.33s1.5,3.34,3.34,3.34c0.79,0,1.55-0.28,2.15-0.78l0.82-0.68v11.79
			h-10.66c0.56,0.69,0.86,1.55,0.86,2.44c0,2.13-1.73,3.87-3.85,3.87c-2.14,0-3.88-1.74-3.88-3.87c0-0.89,0.31-1.75,0.86-2.44
			h-22.16l0.68-0.82c0.51-0.61,0.78-1.35,0.78-2.15c0-1.84-1.5-3.33-3.34-3.33c-1.84,0-3.34,1.49-3.34,3.33
			c0,0.8,0.27,1.54,0.78,2.15l0.68,0.82h-11.38v10.36c0.69-0.54,1.55-0.85,2.44-0.85c2.13,0,3.86,1.73,3.86,3.86
			c0,2.14-1.73,3.87-3.86,3.87c-0.89,0-1.75-0.31-2.44-0.86v10.61h-11.9l0.67-0.82c0.5-0.6,0.77-1.37,0.77-2.15
			c0-1.84-1.49-3.34-3.32-3.34c-1.85,0-3.34,1.5-3.34,3.34c0,0.78,0.27,1.54,0.78,2.15l0.68,0.82h-22.17
			c0.56,0.69,0.87,1.55,0.87,2.44c0,2.13-1.73,3.87-3.87,3.87c-2.13,0-3.87-1.74-3.87-3.87c0-0.89,0.31-1.75,0.87-2.44h-10.84
			c0.02,18.76-3.26,42-15.79,62.45c-20.03,11.75-28.1,36.45-29.03,52.99h158.52c-0.61-2.87-5.57-18.95-41.37-38.62
			C326.489,374.792,323.798,370.642,322.889,367.372z"/>
		<path style="opacity:0.7;fill:#FFFFFF;enable-background:new    ;" d="M332.784,106.335c1.116,1.8,3.488,2.356,5.287,1.241
			c0.771-0.478,1.342-1.207,1.62-2.051l5.474,8.83l-9.203,5.705c-0.082,0.051-0.125,0.148-0.107,0.243
			c0.018,0.095,0.093,0.17,0.189,0.187c0.952,0.169,1.789,0.735,2.296,1.553c0.98,1.58,0.491,3.663-1.09,4.642
			c-1.58,0.98-3.662,0.491-4.642-1.089c-0.507-0.818-0.642-1.819-0.37-2.747c0.027-0.093-0.005-0.194-0.083-0.252
			c-0.077-0.059-0.183-0.064-0.265-0.013l-9.258,5.739l-5.477-8.834c0.889,0.124,1.801-0.064,2.571-0.541
			c1.794-1.112,2.345-3.48,1.229-5.28c-1.116-1.8-3.482-2.359-5.276-1.247c-0.77,0.477-1.344,1.21-1.628,2.062l-5.388-8.692
			l9.258-5.739c0.083-0.051,0.125-0.148,0.107-0.243c-0.018-0.095-0.093-0.17-0.189-0.187c-0.952-0.169-1.789-0.736-2.296-1.554
			c-0.979-1.58-0.491-3.662,1.089-4.642c1.58-0.98,3.663-0.491,4.642,1.089c0.507,0.818,0.642,1.819,0.37,2.747
			c-0.027,0.093,0.006,0.193,0.083,0.252c0.077,0.059,0.183,0.064,0.265,0.013l9.203-5.705l5.385,8.687
			c-0.879-0.126-1.786,0.061-2.557,0.539C332.224,102.164,331.668,104.535,332.784,106.335z"/>
		<path style="opacity:0.7;fill:#FFFFFF;enable-background:new    ;" d="M365.863,193.937h-10.229
			c0.583-0.699,0.898-1.558,0.898-2.47c0-2.11-1.717-3.827-3.828-3.827c-2.117,0-3.839,1.717-3.839,3.827
			c0,0.92,0.313,1.779,0.892,2.47H339.34v-10.944c0-0.098-0.06-0.185-0.152-0.219c-0.092-0.033-0.194-0.009-0.258,0.064
			c-0.632,0.719-1.549,1.131-2.515,1.131c-1.859,0-3.372-1.513-3.372-3.371c0-1.859,1.513-3.372,3.372-3.372
			c0.967,0,1.883,0.412,2.515,1.131c0.065,0.073,0.167,0.099,0.258,0.064c0.092-0.034,0.152-0.122,0.152-0.219v-10.776h10.417
			c-0.579,0.691-0.892,1.55-0.892,2.47c0,2.11,1.722,3.827,3.839,3.827c2.111,0,3.828-1.717,3.828-3.827
			c0-0.912-0.315-1.771-0.897-2.47h10.229v10.776c0,0.097,0.06,0.184,0.15,0.219c0.091,0.034,0.193,0.01,0.258-0.062
			c0.645-0.72,1.567-1.133,2.53-1.133c1.859,0,3.371,1.513,3.371,3.372c0,1.859-1.512,3.371-3.371,3.371
			c-0.963,0-1.885-0.413-2.53-1.133c-0.065-0.072-0.167-0.097-0.258-0.062c-0.09,0.035-0.15,0.122-0.15,0.219V193.937z"/>
		<path style="opacity:0.7;fill:#FFFFFF;enable-background:new    ;" d="M241.507,179.414c-0.072-0.065-0.177-0.079-0.264-0.034
			c-0.862,0.444-1.872,0.497-2.772,0.146c-1.732-0.676-2.59-2.636-1.914-4.368c0.676-1.731,2.635-2.59,4.367-1.913
			c0.889,0.347,1.597,1.072,1.94,1.988c0.034,0.091,0.121,0.151,0.218,0.152c0.097,0,0.184-0.059,0.22-0.149l3.986-10.206
			l9.644,3.767c-0.794,0.436-1.415,1.132-1.743,1.971c-0.77,1.972,0.207,4.204,2.18,4.974c1.972,0.77,4.204-0.207,4.974-2.18
			c0.33-0.846,0.347-1.778,0.059-2.629l9.592,3.747l-3.986,10.206c-0.035,0.09-0.011,0.194,0.061,0.259
			c0.073,0.066,0.178,0.079,0.265,0.034c0.86-0.445,1.865-0.499,2.759-0.15c1.732,0.676,2.59,2.635,1.914,4.367
			c-0.676,1.732-2.636,2.591-4.367,1.914c-0.904-0.353-1.606-1.074-1.926-1.979c-0.032-0.092-0.119-0.155-0.217-0.156
			c-0.098-0.002-0.186,0.058-0.222,0.149l-3.93,10.062l-9.593-3.747c0.789-0.43,1.408-1.127,1.739-1.973
			c0.77-1.972-0.208-4.203-2.18-4.973c-1.972-0.77-4.203,0.207-4.974,2.179c-0.328,0.839-0.343,1.772-0.055,2.631l-9.644-3.767
			l3.93-10.062C241.604,179.583,241.579,179.48,241.507,179.414z"/>
		<path style="opacity:0.8;fill:#FFFFFF;enable-background:new    ;" d="M312.044,236.848c-0.091,0.034-0.152,0.122-0.152,0.219
			v10.854h-10.348c0.569-0.694,0.888-1.568,0.888-2.47c0-2.117-1.717-3.84-3.827-3.84c-2.118,0-3.84,1.723-3.84,3.84
			c0,0.898,0.323,1.772,0.9,2.47h-10.295v-10.854c0-0.098-0.06-0.185-0.151-0.219c-0.092-0.034-0.195-0.008-0.258,0.064
			c-0.641,0.727-1.563,1.144-2.529,1.144c-1.859,0-3.372-1.512-3.372-3.371c0-1.859,1.513-3.372,3.372-3.372
			c0.955,0,1.877,0.418,2.53,1.146c0.064,0.072,0.168,0.097,0.258,0.062c0.091-0.035,0.151-0.122,0.151-0.219v-10.905h10.295
			c-0.576,0.698-0.899,1.572-0.899,2.47c0,2.117,1.723,3.84,3.84,3.84c2.11,0,3.827-1.723,3.827-3.84
			c0-0.902-0.318-1.777-0.888-2.47h10.348v10.905c0,0.097,0.06,0.184,0.151,0.219c0.091,0.035,0.193,0.01,0.258-0.062
			c0.653-0.728,1.575-1.146,2.53-1.146c1.852,0,3.358,1.513,3.358,3.372c0,1.859-1.506,3.371-3.358,3.371
			c-0.966,0-1.888-0.417-2.529-1.144C312.237,236.84,312.134,236.814,312.044,236.848z"/>
		<path style="opacity:0.8;fill:#FFFFFF;enable-background:new    ;" d="M264.765,129.6c-0.097,0.002-0.184,0.063-0.217,0.155
			l-3.662,10.217l-9.741-3.491c0.77-0.461,1.365-1.176,1.669-2.026c0.714-1.993-0.321-4.194-2.307-4.906
			c-1.993-0.714-4.196,0.326-4.911,2.319c-0.303,0.845-0.294,1.777,0.014,2.629l-9.692-3.473l3.662-10.217
			c0.033-0.092,0.006-0.194-0.069-0.257c-0.075-0.063-0.18-0.073-0.265-0.027c-0.849,0.468-1.857,0.549-2.766,0.224
			c-1.75-0.627-2.664-2.561-2.036-4.311c0.627-1.75,2.561-2.664,4.311-2.036c0.899,0.322,1.626,1.026,1.995,1.932
			c0.036,0.09,0.125,0.148,0.222,0.146c0.097-0.002,0.183-0.064,0.216-0.155l3.679-10.266l9.691,3.473
			c-0.778,0.462-1.377,1.177-1.68,2.022c-0.714,1.993,0.326,4.196,2.32,4.911c1.987,0.712,4.184-0.331,4.898-2.324
			c0.304-0.849,0.3-1.78-0.002-2.624l9.741,3.491l-3.679,10.265c-0.033,0.091-0.005,0.193,0.068,0.257
			c0.074,0.063,0.178,0.075,0.264,0.029c0.86-0.465,1.869-0.547,2.768-0.225c1.743,0.625,2.651,2.557,2.024,4.307
			c-0.627,1.75-2.556,2.666-4.299,2.041c-0.91-0.326-1.636-1.029-1.995-1.93C264.951,129.658,264.862,129.599,264.765,129.6z"/>
		<path style="opacity:0.8;fill:#FFFFFF;enable-background:new    ;" d="M279.058,288.772c0-1.852,1.513-3.359,3.372-3.359
			c0.958,0,1.881,0.409,2.531,1.121c0.065,0.072,0.168,0.098,0.258,0.06c0.09-0.035,0.15-0.122,0.15-0.218v-11.008h10.295
			c-0.576,0.698-0.899,1.572-0.899,2.47c0,2.117,1.723,3.84,3.84,3.84c2.11,0,3.827-1.723,3.827-3.84
			c0-0.902-0.318-1.776-0.888-2.47h10.348v11.008c0,0.096,0.06,0.183,0.15,0.218c0.09,0.037,0.192,0.012,0.258-0.06
			c0.65-0.712,1.572-1.121,2.531-1.121c1.852,0,3.358,1.507,3.358,3.359c0,1.859-1.506,3.372-3.358,3.372
			c-0.962,0-1.884-0.413-2.53-1.133c-0.065-0.072-0.167-0.096-0.258-0.062c-0.091,0.035-0.151,0.122-0.151,0.219v10.725h-10.348
			c0.569-0.694,0.888-1.568,0.888-2.47c0-2.117-1.717-3.84-3.827-3.84c-2.118,0-3.84,1.723-3.84,3.84c0,0.898,0.323,1.772,0.9,2.47
			h-10.295v-10.725c0-0.097-0.06-0.184-0.151-0.219c-0.09-0.034-0.193-0.01-0.258,0.062c-0.646,0.72-1.568,1.133-2.53,1.133
			C280.571,292.144,279.058,290.631,279.058,288.772z"/>
		<path style="opacity:0.8;fill:#FFFFFF;enable-background:new    ;" d="M312.361,264.124c0-0.097-0.06-0.184-0.15-0.219
			c-0.09-0.035-0.193-0.011-0.258,0.062c-0.646,0.72-1.567,1.133-2.53,1.133c-1.86,0-3.371-1.513-3.371-3.372
			c0-1.852,1.512-3.359,3.371-3.359c0.963,0,1.884,0.413,2.53,1.133c0.065,0.072,0.168,0.098,0.258,0.062
			c0.091-0.035,0.15-0.122,0.15-0.219V248.39h10.337c-0.571,0.681-0.889,1.55-0.889,2.457c0,2.117,1.722,3.84,3.84,3.84
			c2.117,0,3.841-1.723,3.841-3.84c0-0.907-0.319-1.776-0.89-2.457h10.273v10.956c0,0.097,0.059,0.184,0.15,0.219
			c0.091,0.036,0.194,0.01,0.258-0.062c0.646-0.72,1.568-1.133,2.53-1.133c1.859,0,3.372,1.507,3.372,3.359
			c0,1.859-1.513,3.372-3.372,3.372c-0.962,0-1.884-0.413-2.53-1.133c-0.065-0.073-0.168-0.097-0.258-0.062
			c-0.091,0.035-0.15,0.122-0.15,0.219V274.9h-10.276c0.579-0.691,0.893-1.55,0.893-2.47c0-2.111-1.723-3.827-3.841-3.827
			c-2.117,0-3.84,1.717-3.84,3.827c0,0.92,0.313,1.779,0.893,2.47h-10.34V264.124z"/>
		<path style="opacity:0.8;fill:#FFFFFF;enable-background:new    ;" d="M308.708,181.469l10.829,1.17l-1.106,10.239
			c-0.621-0.649-1.456-1.065-2.359-1.162c-2.105-0.227-4.003,1.3-4.23,3.405c-0.227,2.105,1.3,4.003,3.405,4.23
			c0.895,0.097,1.8-0.133,2.553-0.636l-1.112,10.294l-10.829-1.17c-0.096-0.01-0.189,0.04-0.233,0.125
			c-0.045,0.086-0.031,0.19,0.033,0.263c0.638,0.723,0.945,1.684,0.843,2.637c-0.2,1.848-1.86,3.19-3.701,2.991
			c-1.848-0.2-3.19-1.866-2.99-3.714c0.102-0.946,0.613-1.818,1.4-2.394c0.078-0.057,0.113-0.156,0.088-0.25
			c-0.025-0.093-0.105-0.162-0.201-0.172l-10.778-1.164l1.112-10.294c0.629,0.652,1.463,1.07,2.358,1.167
			c2.105,0.227,4.003-1.3,4.231-3.405c0.228-2.105-1.301-4.003-3.406-4.23c-0.903-0.098-1.806,0.13-2.552,0.632l1.106-10.239
			l10.778,1.164c0.097,0.01,0.189-0.04,0.234-0.125c0.044-0.086,0.031-0.19-0.033-0.263c-0.656-0.742-0.959-1.679-0.856-2.639
			c0.199-1.841,1.865-3.177,3.713-2.977c1.841,0.199,3.177,1.859,2.979,3.7c-0.105,0.967-0.597,1.818-1.386,2.396
			c-0.078,0.057-0.114,0.156-0.088,0.249C308.533,181.39,308.612,181.458,308.708,181.469z"/>
		<path style="fill:#407BFF;" d="M225.753,205.137l10.829,1.17l-1.106,10.238c-0.621-0.649-1.456-1.065-2.359-1.162
			c-2.105-0.228-4.003,1.3-4.23,3.405c-0.227,2.105,1.3,4.003,3.405,4.23c0.895,0.097,1.8-0.133,2.553-0.636l-1.112,10.294
			l-10.829-1.17c-0.096-0.01-0.189,0.04-0.233,0.125c-0.045,0.086-0.031,0.19,0.033,0.263c0.638,0.723,0.945,1.684,0.842,2.637
			c-0.2,1.848-1.86,3.19-3.701,2.991c-1.848-0.2-3.19-1.866-2.99-3.714c0.102-0.946,0.613-1.818,1.399-2.395
			c0.078-0.057,0.113-0.156,0.088-0.249c-0.025-0.093-0.105-0.162-0.201-0.172l-10.778-1.164l1.112-10.294
			c0.629,0.652,1.463,1.07,2.358,1.167c2.105,0.227,4.003-1.3,4.231-3.406c0.227-2.105-1.301-4.003-3.406-4.23
			c-0.903-0.098-1.806,0.13-2.552,0.632l1.106-10.238l10.778,1.164c0.097,0.01,0.189-0.039,0.234-0.125
			c0.044-0.086,0.031-0.19-0.033-0.263c-0.656-0.742-0.96-1.679-0.856-2.639c0.199-1.841,1.865-3.177,3.713-2.977
			c1.841,0.199,3.177,1.859,2.979,3.7c-0.104,0.967-0.597,1.818-1.386,2.397c-0.078,0.057-0.114,0.156-0.088,0.249
			C225.577,205.058,225.657,205.127,225.753,205.137z"/>
		<path style="opacity:0.8;fill:#FFFFFF;enable-background:new    ;" d="M225.753,205.137l10.829,1.17l-1.106,10.238
			c-0.621-0.649-1.456-1.065-2.359-1.162c-2.105-0.228-4.003,1.3-4.23,3.405c-0.227,2.105,1.3,4.003,3.405,4.23
			c0.895,0.097,1.8-0.133,2.553-0.636l-1.112,10.294l-10.829-1.17c-0.096-0.01-0.189,0.04-0.233,0.125
			c-0.045,0.086-0.031,0.19,0.033,0.263c0.638,0.723,0.945,1.684,0.842,2.637c-0.2,1.848-1.86,3.19-3.701,2.991
			c-1.848-0.2-3.19-1.866-2.99-3.714c0.102-0.946,0.613-1.818,1.399-2.395c0.078-0.057,0.113-0.156,0.088-0.249
			c-0.025-0.093-0.105-0.162-0.201-0.172l-10.778-1.164l1.112-10.294c0.629,0.652,1.463,1.07,2.358,1.167
			c2.105,0.227,4.003-1.3,4.231-3.406c0.227-2.105-1.301-4.003-3.406-4.23c-0.903-0.098-1.806,0.13-2.552,0.632l1.106-10.238
			l10.778,1.164c0.097,0.01,0.189-0.039,0.234-0.125c0.044-0.086,0.031-0.19-0.033-0.263c-0.656-0.742-0.96-1.679-0.856-2.639
			c0.199-1.841,1.865-3.177,3.713-2.977c1.841,0.199,3.177,1.859,2.979,3.7c-0.104,0.967-0.597,1.818-1.386,2.397
			c-0.078,0.057-0.114,0.156-0.088,0.249C225.577,205.058,225.657,205.127,225.753,205.137z"/>
		<path style="opacity:0.7;fill:#FFFFFF;enable-background:new    ;" d="M296.209,274.9h-10.841v-10.227
			c0.69,0.574,1.564,0.895,2.47,0.895c2.117,0,3.841-1.723,3.841-3.84c0-2.11-1.723-3.827-3.841-3.827
			c-0.905,0-1.779,0.321-2.47,0.895V248.39h10.841c0.097,0,0.184-0.06,0.219-0.15c0.035-0.09,0.011-0.193-0.061-0.258
			c-0.72-0.658-1.134-1.58-1.134-2.532c0-1.859,1.513-3.371,3.372-3.371c1.852,0,3.359,1.512,3.359,3.371
			c0,0.958-0.409,1.881-1.121,2.532c-0.072,0.065-0.096,0.167-0.061,0.258c0.035,0.09,0.122,0.15,0.218,0.15h10.892v10.407
			c-0.69-0.574-1.564-0.895-2.47-0.895c-2.118,0-3.84,1.717-3.84,3.827c0,2.118,1.722,3.84,3.84,3.84c0.906,0,1.78-0.321,2.47-0.895
			V274.9H301c-0.097,0-0.183,0.06-0.218,0.15c-0.035,0.09-0.01,0.193,0.061,0.258c0.712,0.65,1.121,1.573,1.121,2.531
			c0,1.859-1.507,3.372-3.359,3.372c-1.859,0-3.372-1.513-3.372-3.372c0-0.951,0.414-1.874,1.134-2.531
			c0.072-0.065,0.096-0.167,0.061-0.258C296.393,274.96,296.306,274.9,296.209,274.9z"/>
		<path style="opacity:0.8;fill:#FFFFFF;enable-background:new    ;" d="M357.302,151.191c-0.096-0.008-0.188,0.043-0.231,0.13
			c-0.042,0.087-0.027,0.191,0.038,0.262c0.672,0.728,0.996,1.658,0.913,2.62c-0.16,1.845-1.791,3.216-3.636,3.057
			c-1.852-0.16-3.229-1.792-3.069-3.637c0.084-0.973,0.562-1.833,1.346-2.423c0.077-0.058,0.111-0.158,0.085-0.252
			c-0.026-0.093-0.108-0.16-0.205-0.169l-10.928-0.945l0.902-10.425c0.642,0.626,1.485,1.019,2.384,1.097
			c2.109,0.182,3.974-1.379,4.156-3.482c0.182-2.11-1.386-3.974-3.495-4.157c-0.902-0.078-1.801,0.166-2.538,0.678l0.224-2.585
			c7.854,2.421,14.421,5.438,19.891,8.9c0.498,1.351,1.734,2.372,3.266,2.505c0.134,0.012,0.268,0.002,0.402-0.001
			c0.667,0.492,1.319,0.989,1.948,1.494l-0.714,8.26L357.302,151.191z"/>
		<path style="opacity:0.7;fill:#FFFFFF;enable-background:new    ;" d="M264.686,288.772c0-2.11-1.722-3.827-3.839-3.827
			c-0.903,0-1.777,0.318-2.471,0.887v-10.463h10.802c0.098,0,0.185-0.06,0.219-0.151c0.034-0.091,0.009-0.194-0.064-0.259
			c-0.738-0.65-1.144-1.548-1.144-2.529c0-1.852,1.513-3.359,3.372-3.359c1.859,0,3.371,1.507,3.371,3.359
			c0,0.969-0.406,1.868-1.146,2.53c-0.072,0.065-0.097,0.168-0.062,0.258c0.035,0.091,0.122,0.151,0.219,0.151H284.9v10.463
			c-0.694-0.569-1.568-0.887-2.47-0.887c-2.117,0-3.84,1.717-3.84,3.827c0,2.118,1.723,3.84,3.84,3.84
			c0.905,0,1.779-0.321,2.47-0.895v10.175h-10.957c-0.097,0-0.184,0.06-0.219,0.15c-0.035,0.091-0.009,0.194,0.063,0.258
			c0.728,0.652,1.145,1.574,1.145,2.53c0,1.859-1.512,3.372-3.371,3.372c-1.859,0-3.372-1.513-3.372-3.372
			c0-0.966,0.417-1.888,1.144-2.528c0.073-0.065,0.098-0.167,0.064-0.258c-0.035-0.091-0.122-0.151-0.219-0.151h-10.802v-10.175
			c0.691,0.574,1.565,0.895,2.471,0.895C262.964,292.612,264.686,290.89,264.686,288.772z"/>
		<path style="opacity:0.7;fill:#FFFFFF;enable-background:new    ;" d="M257.907,286.377c0,0.096,0.06,0.183,0.15,0.218
			c0.089,0.037,0.192,0.012,0.257-0.06c0.651-0.712,1.573-1.121,2.532-1.121c1.859,0,3.371,1.507,3.371,3.359
			c0,1.859-1.512,3.372-3.371,3.372c-0.963,0-1.885-0.413-2.53-1.133c-0.065-0.072-0.167-0.096-0.258-0.062
			c-0.091,0.035-0.151,0.122-0.151,0.219v10.725h-0.192c-0.044-10.841-1.177-20.156-2.235-26.524h2.427V286.377z"/>
		<path style="opacity:0.7;fill:#FFFFFF;enable-background:new    ;" d="M331.594,144.091c0.091,0.035,0.194,0.01,0.258-0.062
			c0.646-0.72,1.568-1.132,2.53-1.132c1.859,0,3.372,1.513,3.372,3.372c0,1.851-1.513,3.358-3.372,3.358
			c-0.958,0-1.881-0.409-2.531-1.121c-0.065-0.072-0.168-0.097-0.258-0.061c-0.09,0.035-0.149,0.122-0.149,0.218v11.008h-10.278
			c0.574-0.69,0.895-1.565,0.895-2.47c0-2.117-1.723-3.84-3.841-3.84c-2.117,0-3.84,1.723-3.84,3.84c0,0.905,0.321,1.779,0.895,2.47
			h-10.342v-11.008c0-0.096-0.059-0.183-0.149-0.218c-0.091-0.035-0.193-0.011-0.258,0.061c-0.65,0.712-1.573,1.121-2.531,1.121
			c-1.86,0-3.371-1.507-3.371-3.358c0-1.859,1.512-3.372,3.371-3.372c0.963,0,1.884,0.413,2.53,1.132
			c0.065,0.072,0.168,0.097,0.258,0.062c0.091-0.035,0.15-0.122,0.15-0.219v-6.055c3.704,0.073,7.232,0.256,10.6,0.535
			c0.693,0.681,1.641,1.105,2.688,1.105c0.772,0,1.488-0.234,2.091-0.627c3.949,0.459,7.655,1.063,11.133,1.798v3.243
			C331.444,143.969,331.504,144.056,331.594,144.091z"/>
		<path style="opacity:0.8;fill:#FFFFFF;enable-background:new    ;" d="M366.332,158.986c3.553,2.435,6.591,5.114,9.189,7.972
			h-9.189V158.986z"/>
		<path style="opacity:0.7;fill:#FFFFFF;enable-background:new    ;" d="M154.15,223.319c0.589,2.034,2.724,3.209,4.757,2.62
			c2.034-0.589,3.208-2.723,2.619-4.757c-0.252-0.87-0.803-1.62-1.546-2.123l10.044-2.911l3.035,10.474
			c0.027,0.093,0.109,0.16,0.206,0.168c0.097,0.008,0.188-0.044,0.231-0.132c0.424-0.881,1.194-1.539,2.111-1.805
			c1.785-0.517,3.659,0.515,4.176,2.3c0.517,1.786-0.514,3.659-2.3,4.176c-0.928,0.269-1.929,0.125-2.748-0.395
			c-0.082-0.052-0.188-0.048-0.266,0.01c-0.078,0.058-0.112,0.159-0.085,0.253l3.021,10.425l-10.044,2.911
			c0.359-0.823,0.423-1.752,0.171-2.622c-0.589-2.034-2.723-3.209-4.757-2.62c-1.589,0.461-2.641,1.867-2.749,3.429
			c-0.826-1.124-1.605-2.273-2.31-3.441c-3.394-5.63-6.23-11.362-8.473-17.112l5.088-1.475
			C153.968,221.524,153.899,222.454,154.15,223.319z"/>
		<path style="opacity:0.8;fill:#FFFFFF;enable-background:new    ;" d="M169.571,156.744c0.049-0.084,0.042-0.189-0.019-0.265
			c-0.62-0.775-0.874-1.728-0.715-2.684c0.304-1.827,2.044-3.065,3.878-2.76c1.834,0.305,3.078,2.04,2.774,3.867
			c-0.16,0.963-0.704,1.784-1.532,2.31c-0.082,0.052-0.123,0.149-0.104,0.244c0.019,0.095,0.095,0.169,0.191,0.184l10.858,1.807
			l-1.69,10.153c-0.574-0.679-1.378-1.138-2.276-1.288c-2.089-0.348-4.071,1.069-4.418,3.158c-0.348,2.089,1.069,4.071,3.158,4.418
			c0.89,0.148,1.8-0.028,2.571-0.486l-1.699,10.208l-10.858-1.807c-0.096-0.016-0.192,0.029-0.24,0.113
			c-0.049,0.084-0.041,0.189,0.02,0.265c0.604,0.754,0.859,1.732,0.701,2.681c-0.305,1.834-2.045,3.078-3.879,2.772
			c-1.834-0.305-3.078-2.046-2.773-3.879c0.157-0.942,0.72-1.783,1.545-2.307c0.082-0.052,0.123-0.149,0.104-0.244
			c-0.019-0.095-0.095-0.168-0.191-0.184l-5.807-0.966c0.272-3.4,0.708-6.726,1.315-9.961c1.18-0.493,2.094-1.553,2.319-2.905
			c0.199-1.196-0.193-2.346-0.946-3.185c0.899-3.407,2.001-6.694,3.304-9.84l4.17,0.694
			C169.426,156.873,169.522,156.828,169.571,156.744z"/>
		<path style="opacity:0.7;fill:#FFFFFF;enable-background:new    ;" d="M381.899,194.088c-0.034,0.091-0.009,0.194,0.064,0.259
			c0.728,0.64,1.144,1.562,1.144,2.528c0,1.859-1.512,3.371-3.371,3.371c-1.86,0-3.372-1.513-3.372-3.371
			c0-0.955,0.418-1.877,1.145-2.53c0.072-0.065,0.097-0.167,0.063-0.258c-0.034-0.091-0.122-0.15-0.219-0.15h-11.021v-10.394
			c0.69,0.574,1.564,0.895,2.47,0.895c2.117,0,3.84-1.723,3.84-3.84c0-2.118-1.722-3.84-3.84-3.84c-0.906,0-1.78,0.321-2.47,0.895
			v-10.226h9.617c7.028,7.935,10.701,17.212,12.412,26.511h-6.244C382.02,193.937,381.933,193.997,381.899,194.088z"/>
		<path style="opacity:0.7;fill:#FFFFFF;enable-background:new    ;" d="M365.863,247.921h-10.231c0.577-0.698,0.9-1.573,0.9-2.47
			c0-2.117-1.717-3.84-3.828-3.84c-2.117,0-3.839,1.723-3.839,3.84c0,0.905,0.321,1.78,0.895,2.47H339.34v-10.854
			c0-0.098-0.061-0.185-0.153-0.219c-0.092-0.034-0.195-0.008-0.259,0.066c-0.627,0.726-1.544,1.142-2.514,1.142
			c-1.859,0-3.372-1.512-3.372-3.371c0-1.859,1.513-3.372,3.372-3.372c0.96,0,1.876,0.417,2.515,1.144
			c0.065,0.073,0.167,0.099,0.258,0.065c0.092-0.034,0.152-0.122,0.152-0.219v-10.905h10.419c-0.574,0.69-0.894,1.564-0.894,2.47
			c0,2.117,1.722,3.84,3.839,3.84c2.111,0,3.828-1.723,3.828-3.84c0-0.898-0.323-1.772-0.9-2.47h10.231v10.905
			c0,0.097,0.06,0.184,0.15,0.219c0.091,0.035,0.193,0.01,0.258-0.062c0.653-0.728,1.575-1.146,2.53-1.146
			c1.859,0,3.371,1.513,3.371,3.372c0,1.859-1.512,3.371-3.371,3.371c-0.966,0-1.888-0.417-2.529-1.144
			c-0.065-0.073-0.168-0.098-0.259-0.064c-0.091,0.034-0.151,0.122-0.151,0.219V247.921z"/>
		<path style="opacity:0.7;fill:#FFFFFF;enable-background:new    ;" d="M198.091,259.076c1.665-0.826,3.692-0.142,4.518,1.523
			c0.428,0.862,0.467,1.872,0.109,2.77c-0.036,0.09-0.012,0.193,0.059,0.259c0.071,0.066,0.176,0.081,0.263,0.038l9.862-4.89
			l4.62,9.319c-0.863-0.209-1.783-0.109-2.596,0.294c-1.897,0.941-2.678,3.244-1.74,5.135c0.941,1.897,3.249,2.675,5.146,1.735
			c0.813-0.403,1.45-1.075,1.806-1.888l4.54,9.158l-2.245,1.113c-3.203-4.411-5.35-6.867-5.35-6.867s-11.837-5.536-20.714-13.708
			C195.903,261.52,196.597,259.816,198.091,259.076z"/>
		<path style="opacity:0.7;fill:#FFFFFF;enable-background:new    ;" d="M345.65,261.728c0-2.11-1.723-3.827-3.84-3.827
			c-0.905,0-1.779,0.321-2.47,0.895V248.39h10.969c0.097,0,0.184-0.06,0.219-0.151c0.035-0.091,0.01-0.194-0.062-0.258
			c-0.72-0.646-1.132-1.567-1.132-2.53c0-1.859,1.512-3.371,3.371-3.371c1.852,0,3.359,1.512,3.359,3.371
			c0,0.951-0.414,1.874-1.135,2.532c-0.071,0.065-0.095,0.167-0.06,0.258c0.035,0.09,0.122,0.15,0.219,0.15h10.776v10.407
			c-0.69-0.574-1.564-0.895-2.47-0.895c-2.117,0-3.84,1.717-3.84,3.827c0,2.118,1.723,3.84,3.84,3.84c0.906,0,1.78-0.321,2.47-0.895
			V274.9h-10.776c-0.097,0-0.184,0.06-0.219,0.15c-0.035,0.09-0.011,0.193,0.06,0.258c0.721,0.658,1.135,1.58,1.135,2.531
			c0,1.859-1.507,3.372-3.359,3.372c-1.859,0-3.371-1.513-3.371-3.372c0-0.963,0.413-1.885,1.132-2.53
			c0.072-0.065,0.097-0.167,0.063-0.258c-0.034-0.091-0.122-0.151-0.219-0.151H339.34v-10.227c0.69,0.574,1.564,0.895,2.47,0.895
			C343.927,265.569,345.65,263.846,345.65,261.728z"/>
		<path style="opacity:0.8;fill:#FFFFFF;enable-background:new    ;" d="M383.575,218.459c0-2.117-1.723-3.84-3.84-3.84
			c-2.118,0-3.84,1.723-3.84,3.84c0,0.901,0.325,1.775,0.906,2.47h-10.47v-10.905c0-0.097-0.06-0.184-0.151-0.219
			c-0.09-0.036-0.193-0.01-0.258,0.062c-0.653,0.728-1.575,1.146-2.53,1.146c-1.859,0-3.371-1.513-3.371-3.372
			s1.512-3.372,3.371-3.372c0.966,0,1.888,0.417,2.529,1.144c0.065,0.073,0.168,0.097,0.259,0.064
			c0.091-0.034,0.151-0.122,0.151-0.219v-10.854h10.47c-0.581,0.695-0.906,1.569-0.906,2.47c0,2.117,1.723,3.84,3.84,3.84
			c2.117,0,3.84-1.723,3.84-3.84c0-0.909-0.324-1.782-0.902-2.47h5.776c1.643,9.283,1.35,18.562,0.502,26.523h-6.278
			C383.252,220.241,383.575,219.367,383.575,218.459z"/>
		<path style="opacity:0.7;fill:#FFFFFF;enable-background:new    ;" d="M194.124,100.108c-0.024,0.094,0.013,0.194,0.093,0.25
			l8.896,6.218l-5.929,8.481c-0.242-0.864-0.776-1.626-1.516-2.143c-1.735-1.213-4.131-0.793-5.34,0.937
			c-1.213,1.736-0.788,4.134,0.947,5.348c0.736,0.514,1.637,0.751,2.54,0.678l-5.899,8.438l-8.896-6.219
			c-0.08-0.056-0.186-0.056-0.266-0.001c-0.08,0.056-0.118,0.155-0.096,0.249c0.229,0.942,0.042,1.936-0.511,2.728
			c-1.065,1.523-3.171,1.897-4.695,0.832c-1.524-1.065-1.897-3.172-0.832-4.695c0.547-0.783,1.418-1.299,2.389-1.417
			c0.096-0.011,0.176-0.082,0.199-0.176c0.023-0.094-0.014-0.193-0.093-0.249l-8.938-6.248l5.898-8.438
			c0.242,0.872,0.773,1.638,1.509,2.152c1.736,1.213,4.134,0.788,5.348-0.947c1.209-1.73,0.781-4.124-0.955-5.337
			c-0.739-0.517-1.638-0.757-2.533-0.688l5.929-8.481l8.938,6.248c0.079,0.056,0.185,0.056,0.266,0.002
			c0.08-0.054,0.119-0.152,0.097-0.247c-0.222-0.952-0.037-1.947,0.511-2.73c1.061-1.518,3.164-1.886,4.688-0.821
			c1.523,1.065,1.9,3.166,0.839,4.684c-0.554,0.792-1.423,1.308-2.386,1.417C194.228,99.945,194.148,100.015,194.124,100.108z"/>
	</g>
</g>
<g id="Plant">
	<g>
		<g>
			<path style="fill:#407BFF;" d="M386.457,343.544c0.21,1.47-3.776,2.438-7.028,2.98c0.265,2.669,2.041,5.367,4.494,7.886
				c3.086-1.738,7.49-4.036,8.302-3.475c0.886,0.613-3.624,3.529-6.445,5.244c1.984,1.761,4.218,3.402,6.389,4.84
				c1.383-1.292,3.002-2.426,3.967-1.813c1.001,0.637,0.73,2.636,0.236,4.42c3.357,1.957,5.87,3.147,5.87,3.147
				s1.409-4.271,2.242-9.53c-0.169-0.334-0.338-0.672-0.492-1.029c-0.541-1.251-0.014-1.783,0.879-1.959
				c0.231-2.302,0.297-4.669,0.055-6.866c-3.799-0.797-8.418-2.272-6.688-4.55c1.043-1.374,2.954-1.53,4.942-1.185
				c-0.278-0.458-0.585-0.89-0.938-1.278c-6.914-7.618-11.737,0-11.737,0c-4.018-3.349-9.662-2.442-10.882,2.79
				C381.879,342.588,386.197,341.728,386.457,343.544z"/>
			<path style="opacity:0.3;enable-background:new    ;" d="M386.457,343.544c0.21,1.47-3.776,2.438-7.028,2.98
				c0.265,2.669,2.041,5.367,4.494,7.886c3.086-1.738,7.49-4.036,8.302-3.475c0.886,0.613-3.624,3.529-6.445,5.244
				c1.984,1.761,4.218,3.402,6.389,4.84c1.383-1.292,3.002-2.426,3.967-1.813c1.001,0.637,0.73,2.636,0.236,4.42
				c3.357,1.957,5.87,3.147,5.87,3.147s1.409-4.271,2.242-9.53c-0.169-0.334-0.338-0.672-0.492-1.029
				c-0.541-1.251-0.014-1.783,0.879-1.959c0.231-2.302,0.297-4.669,0.055-6.866c-3.799-0.797-8.418-2.272-6.688-4.55
				c1.043-1.374,2.954-1.53,4.942-1.185c-0.278-0.458-0.585-0.89-0.938-1.278c-6.914-7.618-11.737,0-11.737,0
				c-4.018-3.349-9.662-2.442-10.882,2.79C381.879,342.588,386.197,341.728,386.457,343.544z"/>
		</g>
		<g>
			<g>
				<path style="fill:#407BFF;" d="M395.083,399.53l-0.997-0.082c0.043-0.515,4.094-51.525-7.354-56.334
					c-1.229-0.517-2.365-0.488-3.47,0.087c-4.136,2.151-6.119,11.082-6.138,11.173l-0.977-0.213
					c0.084-0.386,2.102-9.479,6.653-11.847c1.367-0.711,2.82-0.752,4.32-0.122C399.23,347.279,395.258,397.399,395.083,399.53z"/>
			</g>
			<g>
				<path style="fill:#407BFF;" d="M396.526,398.425c-0.203-2.295-4.875-56.267,3.862-61.997c2.095-1.373,3.962-1.667,5.549-0.863
					c4.129,2.082,4.671,10.91,4.692,11.284l-0.998,0.057c-0.005-0.086-0.529-8.626-4.145-10.449
					c-1.244-0.625-2.775-0.357-4.55,0.807c-8.242,5.405-3.463,60.517-3.414,61.073L396.526,398.425z"/>
			</g>
			<g>
				<path style="fill:#407BFF;" d="M397.84,402.788c-0.065-1.757-1.504-43.071,6.452-46.688c1.573-0.715,3.165-0.728,4.732-0.038
					c5.46,2.402,8.832,12.577,8.973,13.009l-0.951,0.311c-0.033-0.102-3.374-10.183-8.425-12.404
					c-1.313-0.576-2.595-0.567-3.915,0.033c-6.101,2.773-6.304,33.958-5.867,45.74L397.84,402.788z"/>
			</g>
			<g>
				<path style="fill:#407BFF;" d="M395.815,400.898l-0.993-0.113c1.402-12.296,4.082-45.062-0.297-48.97
					c-0.653-0.584-1.238-0.764-1.792-0.554c-2.935,1.126-4.722,11.783-5.163,15.795l-0.994-0.109
					c0.169-1.538,1.769-15.073,5.798-16.619c0.922-0.354,1.869-0.106,2.816,0.741C400.851,356.12,396.023,399.072,395.815,400.898z"
					/>
			</g>
		</g>
		<g>
			<polygon style="fill:#263238;" points="379.128,377.588 415.055,377.588 412.055,417.832 382.128,417.832 			"/>
			<polygon style="opacity:0.2;fill:#FFFFFF;enable-background:new    ;" points="390.04,377.588 391.04,417.832 412.055,417.832 
				415.055,377.588 			"/>
		</g>
		<g>
			<path style="fill:#407BFF;" d="M384.022,362.82c-0.375,0.979-3.165,0.209-5.356-0.572c-0.751,1.737-0.581,4.01,0.068,6.404
				c2.499-0.014,6.003,0.079,6.311,0.703c0.336,0.682-3.445,0.934-5.772,1.025c0.62,1.766,1.435,3.544,2.281,5.175
				c1.296-0.323,2.684-0.467,3.068,0.242c0.399,0.736-0.453,1.876-1.37,2.807c1.399,2.357,2.541,3.953,2.541,3.953
				s2.333-2.151,4.65-5.109c0.01-0.264,0.022-0.53,0.049-0.803c0.095-0.957,0.603-1.105,1.214-0.907
				c0.932-1.341,1.784-2.777,2.388-4.215c-2.07-1.794-4.413-4.287-2.565-5.099c1.115-0.49,2.346,0.069,3.454,0.963
				c-0.014-0.378-0.056-0.749-0.14-1.11c-1.652-7.069-7.239-4.024-7.239-4.024c-1.33-3.443-5.121-4.819-7.668-2.01
				C381.526,360.661,384.484,361.611,384.022,362.82z"/>
			<path style="opacity:0.3;enable-background:new    ;" d="M384.022,362.82c-0.375,0.979-3.165,0.209-5.356-0.572
				c-0.751,1.737-0.581,4.01,0.068,6.404c2.499-0.014,6.003,0.079,6.311,0.703c0.336,0.682-3.445,0.934-5.772,1.025
				c0.62,1.766,1.435,3.544,2.281,5.175c1.296-0.323,2.684-0.467,3.068,0.242c0.399,0.736-0.453,1.876-1.37,2.807
				c1.399,2.357,2.541,3.953,2.541,3.953s2.333-2.151,4.65-5.109c0.01-0.264,0.022-0.53,0.049-0.803
				c0.095-0.957,0.603-1.105,1.214-0.907c0.932-1.341,1.784-2.777,2.388-4.215c-2.07-1.794-4.413-4.287-2.565-5.099
				c1.115-0.49,2.346,0.069,3.454,0.963c-0.014-0.378-0.056-0.749-0.14-1.11c-1.652-7.069-7.239-4.024-7.239-4.024
				c-1.33-3.443-5.121-4.819-7.668-2.01C381.526,360.661,384.484,361.611,384.022,362.82z"/>
		</g>
		<g>
			<path style="fill:#407BFF;" d="M410.697,367.598c-1.133,0.084-2.221,0.344-3.283,0.691c-0.277-0.759-0.458-1.55-0.484-2.377
				c-0.228-7.246,4.959-4.191,7.7-6.32c1.367-1.062,3.041-1.744,4.585-1.438c-0.232,0.4-0.443,0.812-0.62,1.241
				c-0.287,0.694,0.165,1.417,0.877,1.55c0.669,0.125,1.42,0.067,2.035-0.241c0.192-0.096,0.353-0.236,0.523-0.362
				c0.383,0.647,0.722,1.439,0.995,2.423c0.279,1.007,0.423,2.051,0.469,3.099c-0.408,0.091-0.813,0.2-1.212,0.342
				c-0.623,0.221-0.956,1.217-0.454,1.722c0.441,0.443,0.946,0.795,1.495,1.049c-0.179,1.194-0.512,2.325-0.912,3.396
				c-0.123,0.019-0.247,0.033-0.369,0.057c-0.264,0.052-0.524,0.12-0.782,0.193c-0.148,0.042-0.295,0.092-0.434,0.159
				c-0.359,0.17-0.621,0.477-0.677,0.878c-0.056,0.395,0.109,0.804,0.427,1.046c0.169,0.129,0.355,0.23,0.539,0.332
				c-0.826,1.307-1.803,2.343-2.87,2.896c0,0-1.322-0.577-3.052-1.613c0.216-0.29,0.433-0.58,0.634-0.88
				c0.238-0.353,0.343-0.716,0.307-1.138c-0.034-0.409-0.282-0.766-0.587-1.022c-0.294-0.248-0.764-0.356-1.138-0.308
				c-0.366,0.047-0.811,0.272-1.022,0.587c-0.24,0.357-0.505,0.697-0.767,1.038c-1.324-0.998-2.641-2.203-3.68-3.573
				c0.04-0.012,0.083-0.024,0.11-0.032c0.669-0.175,1.353-0.288,2.042-0.339c0.861-0.064,1.397-0.93,1.33-1.725
				C412.35,368.067,411.5,367.538,410.697,367.598z"/>
		</g>
		<g>
			<path style="fill:#407BFF;" d="M412.771,342.616c0.632-0.453,1.317-0.794,2.028-1.078c-0.188-0.52-0.44-1.015-0.789-1.461
				c-3.06-3.906-4.444-0.025-6.819,0.059c-1.184,0.042-2.363,0.418-3.04,1.257c0.297,0.108,0.589,0.232,0.87,0.379
				c0.455,0.239,0.535,0.817,0.219,1.199c-0.296,0.359-0.716,0.659-1.175,0.766c-0.143,0.034-0.289,0.031-0.434,0.039
				c0.083,0.508,0.252,1.073,0.541,1.71c0.295,0.651,0.678,1.263,1.114,1.833c0.254-0.131,0.515-0.251,0.787-0.352
				c0.425-0.157,1.037,0.22,0.994,0.706c-0.037,0.426-0.148,0.833-0.325,1.208c0.618,0.548,1.289,0.997,1.97,1.384
				c0.073-0.044,0.144-0.091,0.219-0.132c0.161-0.089,0.328-0.167,0.496-0.242c0.096-0.043,0.195-0.081,0.298-0.107
				c0.263-0.068,0.535-0.022,0.741,0.164c0.203,0.183,0.296,0.47,0.235,0.737c-0.032,0.142-0.085,0.277-0.138,0.411
				c1.008,0.324,1.975,0.44,2.779,0.262c0,0,0.441-0.883,0.896-2.187c-0.241-0.057-0.482-0.115-0.719-0.184
				c-0.28-0.081-0.494-0.225-0.661-0.463c-0.162-0.23-0.188-0.526-0.14-0.795c0.046-0.259,0.245-0.522,0.463-0.661
				c0.213-0.136,0.545-0.213,0.795-0.14c0.283,0.082,0.571,0.144,0.858,0.208c0.257-1.105,0.421-2.316,0.365-3.492
				c-0.026,0.012-0.054,0.024-0.072,0.031c-0.428,0.202-0.837,0.442-1.222,0.718c-0.48,0.344-1.142,0.124-1.456-0.323
				C412.108,343.588,412.323,342.937,412.771,342.616z"/>
			<path style="opacity:0.3;enable-background:new    ;" d="M412.771,342.616c0.632-0.453,1.317-0.794,2.028-1.078
				c-0.188-0.52-0.44-1.015-0.789-1.461c-3.06-3.906-4.444-0.025-6.819,0.059c-1.184,0.042-2.363,0.418-3.04,1.257
				c0.297,0.108,0.589,0.232,0.87,0.379c0.455,0.239,0.535,0.817,0.219,1.199c-0.296,0.359-0.716,0.659-1.175,0.766
				c-0.143,0.034-0.289,0.031-0.434,0.039c0.083,0.508,0.252,1.073,0.541,1.71c0.295,0.651,0.678,1.263,1.114,1.833
				c0.254-0.131,0.515-0.251,0.787-0.352c0.425-0.157,1.037,0.22,0.994,0.706c-0.037,0.426-0.148,0.833-0.325,1.208
				c0.618,0.548,1.289,0.997,1.97,1.384c0.073-0.044,0.144-0.091,0.219-0.132c0.161-0.089,0.328-0.167,0.496-0.242
				c0.096-0.043,0.195-0.081,0.298-0.107c0.263-0.068,0.535-0.022,0.741,0.164c0.203,0.183,0.296,0.47,0.235,0.737
				c-0.032,0.142-0.085,0.277-0.138,0.411c1.008,0.324,1.975,0.44,2.779,0.262c0,0,0.441-0.883,0.896-2.187
				c-0.241-0.057-0.482-0.115-0.719-0.184c-0.28-0.081-0.494-0.225-0.661-0.463c-0.162-0.23-0.188-0.526-0.14-0.795
				c0.046-0.259,0.245-0.522,0.463-0.661c0.213-0.136,0.545-0.213,0.795-0.14c0.283,0.082,0.571,0.144,0.858,0.208
				c0.257-1.105,0.421-2.316,0.365-3.492c-0.026,0.012-0.054,0.024-0.072,0.031c-0.428,0.202-0.837,0.442-1.222,0.718
				c-0.48,0.344-1.142,0.124-1.456-0.323C412.108,343.588,412.323,342.937,412.771,342.616z"/>
		</g>
		<g>
			<path style="fill:#407BFF;" d="M383.498,349.868c-0.21,1.47,3.777,2.438,7.028,2.98c-0.265,2.669-2.041,5.367-4.494,7.886
				c-3.085-1.738-7.49-4.036-8.302-3.475c-0.886,0.613,3.624,3.529,6.444,5.244c-1.984,1.761-4.218,3.402-6.389,4.84
				c-1.383-1.292-3.002-2.426-3.967-1.813c-1.001,0.637-0.73,2.636-0.236,4.42c-3.357,1.957-5.87,3.147-5.87,3.147
				s-1.409-4.271-2.242-9.53c0.169-0.334,0.337-0.672,0.492-1.029c0.541-1.251,0.014-1.783-0.879-1.959
				c-0.231-2.302-0.298-4.669-0.055-6.866c3.799-0.797,8.418-2.271,6.688-4.55c-1.044-1.374-2.954-1.53-4.942-1.185
				c0.278-0.458,0.586-0.89,0.938-1.278c6.914-7.618,11.737,0,11.737,0c4.018-3.348,9.662-2.442,10.882,2.79
				C388.076,348.913,383.758,348.052,383.498,349.868z"/>
		</g>
	</g>
</g>
<g id="Character">
	<g>
		<g>
			<g>
				<path style="fill:#263238;" d="M299.923,412.199h-41.359c-3.886,0-7.037-3.151-7.037-7.037v-68.633
					c0-3.886,3.151-7.037,7.037-7.037h41.359c3.886,0,7.037,3.151,7.037,7.037v68.633
					C306.96,409.049,303.81,412.199,299.923,412.199z"/>
				<path style="opacity:0.5;fill:#FFFFFF;enable-background:new    ;" d="M299.923,412.199h-41.359
					c-3.886,0-7.037-3.151-7.037-7.037v-68.633c0-3.886,3.151-7.037,7.037-7.037h41.359c3.886,0,7.037,3.151,7.037,7.037v68.633
					C306.96,409.049,303.81,412.199,299.923,412.199z"/>
				<path style="opacity:0.1;enable-background:new    ;" d="M295.585,412.2h-37.02c-3.89,0-7.04-3.15-7.04-7.04v-68.63
					c0-3.89,3.15-7.04,7.04-7.04h37.02c-3.88,0-7.03,3.15-7.03,7.04v68.63C288.555,409.05,291.705,412.2,295.585,412.2z"/>
			</g>
			
				<rect x="180.004" y="410.053" transform="matrix(-1 -1.224647e-16 1.224647e-16 -1 478.4481 827.8847)" style="fill:#263238;" width="118.44" height="7.779"/>
			
				<rect x="180.004" y="410.053" transform="matrix(-1 -1.224647e-16 1.224647e-16 -1 478.4481 827.8847)" style="opacity:0.2;fill:#FFFFFF;enable-background:new    ;" width="118.44" height="7.779"/>
			
				<rect x="231.293" y="410.053" transform="matrix(-1 -1.224647e-16 1.224647e-16 -1 529.7369 827.8847)" style="opacity:0.2;fill:#FFFFFF;enable-background:new    ;" width="67.151" height="7.779"/>
			<g>
				<path style="fill:#263238;" d="M262.423,365.789h-87.406l-13.32-68.786c-1.456-7.52,4.304-14.503,11.964-14.503h62.581
					c5.837,0,10.854,4.139,11.964,9.869L262.423,365.789z"/>
				<path style="opacity:0.6;fill:#FFFFFF;enable-background:new    ;" d="M262.423,365.789h-87.406l-13.32-68.786
					c-1.456-7.52,4.304-14.503,11.964-14.503h62.581c5.837,0,10.854,4.139,11.964,9.869L262.423,365.789z"/>
				<path style="opacity:0.1;enable-background:new    ;" d="M199.841,365.789h-24.824l-13.32-68.786
					c-1.456-7.52,4.304-14.503,11.964-14.503l0,0c5.837,0,10.854,4.139,11.964,9.869L199.841,365.789z"/>
			</g>
			<g>
				<path style="fill:#263238;" d="M307.806,406.059c0,3.391-2.749,6.141-6.14,6.141H177.845c-3.391,0-6.14-2.749-6.14-6.141
					v-34.972c0-3.391,2.749-6.141,6.14-6.141h123.821c3.391,0,6.14,2.749,6.14,6.141V406.059z"/>
				<path style="opacity:0.6;fill:#FFFFFF;enable-background:new    ;" d="M307.806,406.059c0,3.391-2.749,6.141-6.14,6.141H177.845
					c-3.391,0-6.14-2.749-6.14-6.141v-34.972c0-3.391,2.749-6.141,6.14-6.141h123.821c3.391,0,6.14,2.749,6.14,6.141V406.059z"/>
				<path style="opacity:0.1;enable-background:new    ;" d="M236.976,406.059c0,3.391-2.749,6.141-6.141,6.141h-52.991
					c-3.391,0-6.14-2.749-6.14-6.141v-34.972c0-3.391,2.749-6.141,6.14-6.141h52.991c3.391,0,6.141,2.749,6.141,6.141V406.059z"/>
			</g>
		</g>
		<g>
			<path style="fill:#407BFF;" d="M275.198,282.74c-0.07,1.66-0.38,3.99-2.13,6.41c-0.83,1.17-1.98,2.2-3.12,2.88
				c-1.17,0.72-2.23,1.09-3.25,1.38c-0.41,0.11-0.81,0.18-1.22,0.2l-0.73,0.03c-1.77,0.08-3.32,0.02-4.75-0.13
				c-1.16-0.1-2.25-0.26-3.33-0.44c-1.19-0.2-2.34-0.43-3.48-0.68c-1.12-0.26-2.22-0.55-3.31-0.84c-2.18-0.58-4.28-1.29-6.36-2.03
				c-0.06-0.02-0.12-0.04-0.18-0.07c-0.97-0.35-1.94-0.72-2.9-1.12c-1.04-0.42-1.98-0.84-3.1-1.37c-4.64-2.18-6.63-7.71-4.45-12.35
				c2.07-4.41,7.17-6.42,11.66-4.74l0.21,0.09l2.62,0.99l2.7,1.04c1.79,0.71,3.59,1.37,5.35,2.04c0.56,0.2,1.1,0.39,1.66,0.59
				c-0.08-0.2-0.16-0.38-0.23-0.58c-0.96-2.35-2.07-4.76-3.21-7.18l-3.47-7.29l-0.06-0.12c-1.11-2.33-0.12-5.11,2.21-6.22
				c1.76-0.84,3.8-0.47,5.16,0.77c2.21,2.03,4.15,4.09,6.09,6.28c1.91,2.2,3.74,4.49,5.48,6.97c0.86,1.25,1.68,2.55,2.49,3.93
				c0.81,1.39,1.59,2.87,2.26,4.61c0.34,0.87,0.66,1.81,0.93,2.91C274.998,279.81,275.228,281.07,275.198,282.74z"/>
			<path style="opacity:0.2;" d="M259.998,293.51c-1.16-0.1-2.25-0.26-3.33-0.44c-1.19-0.2-2.34-0.43-3.48-0.68
				c-1.12-0.26-2.22-0.55-3.31-0.84c-2.18-0.58-4.28-1.29-6.36-2.03c-0.06-0.02-0.12-0.04-0.18-0.07c1.34-2.38,3.05-4.26,4.86-5.08
				C248.198,284.37,254.558,286.3,259.998,293.51z"/>
			<g>
				<polygon style="fill:#E4897B;" points="300.041,397.414 312.729,398.34 312.336,413.347 301.734,412.59 				"/>
				<polygon style="opacity:0.2;" points="300.044,397.419 312.736,398.345 312.514,406.749 300.99,405.918 				"/>
			</g>
			<path style="fill:#263238;" d="M300.227,417.83l2.765-0.005l0.747-1.123l1.453,1.13l16.688-0.032
				c0.324-1.659-0.719-3.821-0.719-3.821s-4.991-0.444-6.915-2.928c-0.148-0.191-0.38-0.295-0.617-0.245
				c-1.661,0.351-8.26,1.612-11.896,0.311c-0.394-0.141-0.809,0.127-0.815,0.546C300.879,414.536,300.227,417.83,300.227,417.83z"/>
			<path style="fill:#263238;" d="M230.506,332.538c0,0-18.893,35.226,3.517,35.226c28.201,0,55.048-7.099,55.048-7.099
				s-1.534,15.035,9.363,43.564l15.231-0.125c0,0,5.934-61.281-5.432-71.566c-9.151-8.281-41.639-5.625-41.639-5.625
				L230.506,332.538z"/>
			<path style="opacity:0.2;" d="M292.42,381.036c-0.19,0.74-0.38,1.47-0.58,2.18c-3.55-14.85-2.77-22.55-2.77-22.55
				s-26.85,7.1-55.05,7.1c-13.63,0-11.98-13.03-8.59-23.24c9.61-6.1,19.75-11.63,26.98-15.4l14.18-2.21c0,0,5.84-0.48,13.27-0.4
				C290.85,331.426,301.41,344.946,292.42,381.036z"/>
			<path style="fill:#407BFF;" d="M265.75,327.406c-16.39,9.06-58.09,2.49-65.55,1.22c-0.93-12.34-2.18-28.02-6.11-42.6
				c-1.78-6.61,2.25-13.43,8.95-14.84c10.74-2.25,24.7-3.32,35.23-2.94c4.14,0.15,8.59,2.16,9.92,6.09
				C254.29,292.436,263.97,307.146,265.75,327.406z"/>
			<g>
				<path style="fill:#E4897B;" d="M228.018,277.7c-6.88,0.35-12.85-5.51-16.07-7.54c3.48-2.43,5.14-6.79,5.83-9.21
					c0.3-1.07,0.42-1.76,0.42-1.76l11.68,5.2c-0.69,1.8-0.77,3.32-0.35,4.68c1.5,0.54,2.83,2.22,3.23,3.32
					c0.01,0.03,0.02,0.07,0.04,0.1C233.658,274.86,234.798,277.35,228.018,277.7z"/>
				<path style="opacity:0.2;" d="M232.798,272.49c-6.961,2.875-13.773-5.529-15.02-11.54c0.3-1.07,0.42-1.76,0.42-1.76l11.68,5.2
					c-0.69,1.8-0.77,3.32-0.35,4.68c1.5,0.54,2.83,2.22,3.23,3.32C232.768,272.42,232.778,272.46,232.798,272.49z"/>
				<g>
					<path style="fill:#407BFF;" d="M228.43,277.672l-2.593-2.307l-4.003,2.004C221.833,277.369,224.033,279.605,228.43,277.672z"/>
					<path style="opacity:0.5;fill:#FFFFFF;" d="M228.43,277.672l-2.593-2.307l-4.003,2.004
						C221.833,277.369,224.033,279.605,228.43,277.672z"/>
				</g>
				<path style="fill:#407BFF;" d="M213.609,268.441c0,0,4.929,6.735,12.228,6.925c-4.475,2.127-5.682,6.956-5.682,6.956
					s-8.864-2.598-9.602-12.338C211.802,268.389,213.609,268.441,213.609,268.441z"/>
				<g>
					<path style="fill:#407BFF;" d="M228.43,277.672l3.504-2.96l3.966,1.128C235.9,275.84,232.454,279.418,228.43,277.672z"/>
					<path style="opacity:0.5;fill:#FFFFFF;" d="M228.43,277.672l3.504-2.96l3.966,1.128
						C235.9,275.84,232.454,279.418,228.43,277.672z"/>
				</g>
				<path style="fill:#407BFF;" d="M229.524,269.066c0,0,2.518,3.255,2.41,5.646c3.332,0.899,4.471,5.911,4.471,5.911
					s1.357-7.235-3.63-11.008C231.556,268.779,229.524,269.066,229.524,269.066z"/>
				<path style="opacity:0.8;fill:#FFFFFF;" d="M213.609,268.441c0,0,4.929,6.735,12.228,6.925
					c-4.475,2.127-5.682,6.956-5.682,6.956s-8.864-2.598-9.602-12.338C211.802,268.389,213.609,268.441,213.609,268.441z"/>
				<path style="opacity:0.8;fill:#FFFFFF;" d="M229.524,269.066c0,0,2.518,3.255,2.41,5.646c3.332,0.899,4.471,5.911,4.471,5.911
					s1.357-7.235-3.63-11.008C231.556,268.779,229.524,269.066,229.524,269.066z"/>
			</g>
			<g>
				<g>
					<path style="fill:#263238;" d="M216.904,242.925c7.709-7.513,20.096-2.43,23.514,1.6c3.418,4.031,1.232,12.343-3.308,15.611
						S216.904,242.925,216.904,242.925z"/>
					<path style="opacity:0.4;fill:#FFFFFF;" d="M216.904,242.925c7.709-7.513,20.096-2.43,23.514,1.6
						c3.418,4.031,1.232,12.343-3.308,15.611S216.904,242.925,216.904,242.925z"/>
				</g>
				<path style="fill:#E4897B;" d="M217.761,249.405c-0.282,7.772-0.295,13.064,4.137,16.995c8.806,7.809,14.92,4.419,17.67-3.009
					c2.475-6.685,2.52-18.272-5.226-22.415C226.711,236.894,218.042,241.634,217.761,249.405z"/>
				<path style="fill:#263238;" d="M225.836,244.115c1.543,2.807-1.737,15.735-5.026,14.526c-3.289-1.208-6.499-3.019-6.499-3.019
					s-1.954-6.812,2.389-12.447C221.043,237.541,225.836,244.115,225.836,244.115z"/>
				<path style="fill:#263238;" d="M231.989,252.869c-0.083,0.674,0.208,1.261,0.65,1.311c0.441,0.05,0.867-0.455,0.949-1.129
					c0.083-0.674-0.208-1.261-0.65-1.311C232.497,251.69,232.071,252.195,231.989,252.869z"/>
				<path style="fill:#263238;" d="M238.934,253.901c-0.083,0.674,0.208,1.261,0.65,1.311c0.441,0.05,0.867-0.455,0.949-1.129
					c0.083-0.674-0.208-1.261-0.65-1.311C239.441,252.721,239.016,253.227,238.934,253.901z"/>
				<path style="fill:#DE5753;" d="M236.551,254.151l-0.741,5.66c0,0,0.938,0.344,1.977,0.333c0.598-0.007,0.928-0.719,0.564-1.193
					C237.077,257.295,236.551,254.151,236.551,254.151z"/>
				<path style="fill:#263238;" d="M229.787,249.911c-0.063-0.022-0.12-0.06-0.167-0.114c-0.144-0.166-0.125-0.417,0.043-0.562
					c1.679-1.448,3.457-0.967,3.532-0.946c0.212,0.06,0.334,0.28,0.272,0.491c-0.062,0.211-0.283,0.334-0.494,0.275l0,0
					c-0.059-0.016-1.449-0.376-2.789,0.779C230.071,249.934,229.918,249.958,229.787,249.911z"/>
				<path style="fill:#263238;" d="M238.461,249.509c0.129,0.012,0.249,0.086,0.313,0.208c0.822,1.55,2.25,1.702,2.311,1.708
					c0.219,0.021,0.379,0.214,0.357,0.432c-0.022,0.219-0.215,0.38-0.434,0.362c-0.079-0.008-1.912-0.183-2.941-2.125
					c-0.103-0.194-0.028-0.436,0.168-0.54C238.307,249.516,238.386,249.501,238.461,249.509z"/>
				
					<path style="fill:none;stroke:#263238;stroke-width:0.75;stroke-linecap:round;stroke-linejoin:round;stroke-miterlimit:10;" d="
					M229.917,260.599c0,0,5.031-0.677,5.893,3.099"/>
				<path style="opacity:0.4;fill:#FFFFFF;" d="M225.836,244.115c1.543,2.807-1.737,15.735-5.026,14.526
					c-3.289-1.208-6.499-3.019-6.499-3.019s-1.954-6.812,2.389-12.447C221.043,237.541,225.836,244.115,225.836,244.115z"/>
				<path style="fill:#E4897B;" d="M213.641,257.309c0.939,2.038,2.739,3.447,4.488,4.049c2.631,0.907,4.135-1.406,3.562-3.974
					c-0.516-2.312-2.507-5.569-5.223-5.364C213.791,252.222,212.568,254.978,213.641,257.309z"/>
				<g>
					<g>
						<path style="fill:#263238;" d="M224.068,244.811c-0.087,0-0.171-0.046-0.217-0.126c-0.064-0.112-0.032-0.255,0.074-0.329
							c0.056-0.039,4.439-3.032,9.492-2.735c-2.548-0.512-6.221-0.487-10.604,1.729c-0.108,0.055-0.238,0.025-0.311-0.07
							c-0.073-0.095-0.068-0.23,0.012-0.318c0.035-0.04,2.987-3.274,8.045-3.274c0.003,0,0.007,0,0.01,0
							c-2.216-0.355-5.305-0.283-8.271,1.716c-0.114,0.077-0.27,0.047-0.347-0.067c-0.077-0.114-0.047-0.27,0.068-0.347
							c5.711-3.847,11.847-0.864,11.908-0.834c0.115,0.058,0.168,0.192,0.122,0.313c-0.045,0.119-0.176,0.186-0.298,0.152
							c-4.47-1.192-7.753,0.332-9.481,1.521c7.917-3.18,13.239,0.506,13.295,0.545c0.105,0.076,0.136,0.22,0.07,0.331
							c-0.066,0.113-0.207,0.155-0.323,0.099c-3.746-1.794-7.664-0.875-10.229,0.168c6.099-1.378,12.132,0.769,12.203,0.794
							c0.13,0.048,0.197,0.191,0.15,0.32c-0.046,0.13-0.189,0.195-0.32,0.15c-0.081-0.031-8.167-2.901-14.941,0.239
							C224.14,244.803,224.104,244.811,224.068,244.811z"/>
					</g>
					<g style="opacity:0.4;">
						<path style="fill:#FFFFFF;" d="M224.068,244.811c-0.087,0-0.171-0.046-0.217-0.126c-0.064-0.112-0.032-0.255,0.074-0.329
							c0.056-0.039,4.439-3.032,9.492-2.735c-2.548-0.512-6.221-0.487-10.604,1.729c-0.108,0.055-0.238,0.025-0.311-0.07
							c-0.073-0.095-0.068-0.23,0.012-0.318c0.035-0.04,2.987-3.274,8.045-3.274c0.003,0,0.007,0,0.01,0
							c-2.216-0.355-5.305-0.283-8.271,1.716c-0.114,0.077-0.27,0.047-0.347-0.067c-0.077-0.114-0.047-0.27,0.068-0.347
							c5.711-3.847,11.847-0.864,11.908-0.834c0.115,0.058,0.168,0.192,0.122,0.313c-0.045,0.119-0.176,0.186-0.298,0.152
							c-4.47-1.192-7.753,0.332-9.481,1.521c7.917-3.18,13.239,0.506,13.295,0.545c0.105,0.076,0.136,0.22,0.07,0.331
							c-0.066,0.113-0.207,0.155-0.323,0.099c-3.746-1.794-7.664-0.875-10.229,0.168c6.099-1.378,12.132,0.769,12.203,0.794
							c0.13,0.048,0.197,0.191,0.15,0.32c-0.046,0.13-0.189,0.195-0.32,0.15c-0.081-0.031-8.167-2.901-14.941,0.239
							C224.14,244.803,224.104,244.811,224.068,244.811z"/>
					</g>
				</g>
				<g>
					<path style="fill:#263238;" d="M239.989,262.125c0,0-2.337-1.875-5.632-2.784l-0.251,0.611
						c0.182,0.065,0.353,0.117,0.545,0.193c2.353,0.929,3.371,3.526,2.176,4.79c-0.904,0.956-3.778-0.148-3.374-2.027l-1.479-0.567
						c-0.471,1.556-2.622,1.556-3.545,0.567c-1.361-1.459-0.372-4.872,5.127-3.149l0.155-0.573
						c-1.922-0.435-4.115-0.514-6.347,0.293c0,0-3.363-0.264-4.154-3.626l-1.466,1.838c0,0-1.467,6.443,0.955,10.479
						C225.123,272.203,240.547,274.821,239.989,262.125z"/>
					<path style="opacity:0.4;fill:#FFFFFF;" d="M239.989,262.125c0,0-2.337-1.875-5.632-2.784l-0.251,0.611
						c0.182,0.065,0.353,0.117,0.545,0.193c2.353,0.929,3.371,3.526,2.176,4.79c-0.904,0.956-3.778-0.148-3.374-2.027l-1.479-0.567
						c-0.471,1.556-2.622,1.556-3.545,0.567c-1.361-1.459-0.372-4.872,5.127-3.149l0.155-0.573
						c-1.922-0.435-4.115-0.514-6.347,0.293c0,0-3.363-0.264-4.154-3.626l-1.466,1.838c0,0-1.467,6.443,0.955,10.479
						C225.123,272.203,240.547,274.821,239.989,262.125z"/>
				</g>
			</g>
			<g>
				<polygon style="fill:#E4897B;" points="275.726,398.614 288.38,397.303 290.622,412.147 280.052,413.259 				"/>
				<polygon style="opacity:0.2;" points="275.73,398.619 288.388,397.307 289.641,405.62 278.15,406.82 				"/>
			</g>
			<path style="fill:#263238;" d="M278.214,417.83l2.765-0.005l0.747-1.123l1.454,1.13l16.688-0.032
				c0.324-1.659-0.719-3.821-0.719-3.821s-4.991-0.444-6.915-2.928c-0.148-0.191-0.38-0.295-0.617-0.245
				c-1.661,0.351-8.26,1.612-11.896,0.311c-0.394-0.141-0.809,0.127-0.815,0.546C278.865,414.536,278.214,417.83,278.214,417.83z"/>
			<path style="fill:#263238;" d="M200.487,332.538c0,0-7.893,26.042,13.338,33.217c21.23,7.174,42.208-5.485,42.208-5.485
				s0,5.485,18.91,45.782l15.679-2.954c0,0-5.53-60.313-12.408-70.56c-6.879-10.246-41.639-5.625-41.639-5.625L200.487,332.538z"/>
			<path style="fill:#E4897B;" d="M256.638,254.477l-3.486,4.067c-4.939,2.698-7.31-4.252-7.31-4.252l-3.675-4.114
				c-0.844-0.977-0.758-2.529,0.204-3.669l2.415-2.862c1.101-1.305,2.939-1.599,4.076-0.653l3.74,3.358
				c0.743,0.619,1.322,1.411,1.684,2.308L256.638,254.477z"/>
			<path style="opacity:0.2;" d="M222.708,331.44c-10.54-0.86-19.44-2.29-22.51-2.81c-0.8-10.68-1.85-23.86-4.67-36.67
				c3.99-2.4,7.14-4.01,7.14-4.01s5.84,14.12-2.43,22.56c0,0,5.11,8.39,19.21,16C222.038,327.91,222.968,329.62,222.708,331.44z"/>
			<g>
				<g>
					<path style="fill:#407BFF;" d="M209.566,287.755l-1.116,1.735l-1.182,1.882c-0.772,1.273-1.559,2.542-2.293,3.834
						c-1.501,2.566-2.855,5.177-4.09,7.75c-1.194,2.58-2.229,5.156-2.931,7.571c-0.685,2.41-1.002,4.653-0.902,6.18l-1.411-3.321
						c-0.329-0.276-0.143,0.087,0.226,0.478c0.373,0.41,0.966,0.897,1.633,1.371c1.342,0.95,2.958,1.972,4.663,2.906
						c1.699,0.972,3.495,1.908,5.316,2.861c1.804,0.955,3.726,1.9,5.491,2.884l0.242,0.135c2.272,1.267,3.087,4.136,1.82,6.409
						c-0.859,1.54-2.462,2.41-4.108,2.417c-2.385,0.003-4.579-0.175-6.861-0.439c-2.262-0.275-4.519-0.671-6.813-1.198
						c-2.283-0.571-4.608-1.203-7.035-2.249c-1.217-0.521-2.467-1.117-3.822-1.957c-1.352-0.858-2.807-1.9-4.399-3.902
						c-0.652-0.82-1.076-1.748-1.283-2.707l-0.128-0.615c-1.035-4.912-0.645-9.282,0.111-13.203c0.389-1.962,0.87-3.848,1.424-5.661
						c0.578-1.803,1.215-3.551,1.897-5.254c1.365-3.399,2.964-6.605,4.685-9.699c0.875-1.541,1.76-3.067,2.72-4.552
						c0.476-0.744,0.959-1.488,1.464-2.224l0.776-1.106l0.865-1.192c3.007-4.145,8.805-5.066,12.949-2.059
						c3.997,2.9,4.997,8.395,2.366,12.5L209.566,287.755z"/>
				</g>
			</g>
			<path style="fill:#E4897B;" d="M214.557,324.977l-4.395,3.061c-3.179,4.645,3.499,7.699,3.499,7.699l2.618,2.766
				c0.888,0.938,2.441,1.007,3.671,0.164l3.089-2.117c1.408-0.965,1.885-2.765,1.058-3.99l-1.859-2.754
				c-0.541-0.801-1.272-1.456-2.128-1.907L214.557,324.977z"/>
			<g>
				<path style="fill:#407BFF;" d="M213.783,324.144l2.571,1.729c-3.56,3.207-6.231,8.143-6.231,8.143h-3.857
					C206.266,334.016,207.749,326.239,213.783,324.144z"/>
				<path style="opacity:0.5;fill:#FFFFFF;" d="M213.783,324.144l2.571,1.729c-3.56,3.207-6.231,8.143-6.231,8.143h-3.857
					C206.266,334.016,207.749,326.239,213.783,324.144z"/>
			</g>
			<g>
				<path style="fill:#407BFF;" d="M250.767,261.104l-2.055-2.32c4.252-2.21,8.076-6.317,8.076-6.317l3.734,0.968
					C260.522,253.436,257.133,260.591,250.767,261.104z"/>
				<path style="opacity:0.5;fill:#FFFFFF;" d="M250.767,261.104l-2.055-2.32c4.252-2.21,8.076-6.317,8.076-6.317l3.734,0.968
					C260.522,253.436,257.133,260.591,250.767,261.104z"/>
			</g>
			<path style="opacity:0.2;" d="M257.088,274.62c0,0,1.653,5.297,2.91,6.484C261.255,282.291,253.02,280.796,257.088,274.62z"/>
		</g>
		<g>
			<path style="fill:#263238;" d="M209.867,412.199h-41.359c-3.886,0-7.037-3.151-7.037-7.037v-68.633
				c0-3.886,3.15-7.037,7.037-7.037h41.359c3.886,0,7.037,3.151,7.037,7.037v68.633
				C216.904,409.049,213.753,412.199,209.867,412.199z"/>
			<path style="opacity:0.6;fill:#FFFFFF;enable-background:new    ;" d="M209.867,412.199h-41.359
				c-3.886,0-7.037-3.151-7.037-7.037v-68.633c0-3.886,3.15-7.037,7.037-7.037h41.359c3.886,0,7.037,3.151,7.037,7.037v68.633
				C216.904,409.049,213.753,412.199,209.867,412.199z"/>
			<path style="opacity:0.2;enable-background:new    ;" d="M205.528,412.2h-37.02c-3.89,0-7.04-3.15-7.04-7.04v-68.63
				c0-3.89,3.15-7.04,7.04-7.04h37.02c-3.88,0-7.03,3.15-7.03,7.04v68.63C198.498,409.05,201.648,412.2,205.528,412.2z"/>
		</g>
	</g>
</g>
<g id="Speech_bubble">
	<g>
		<g>
			<g>
				<path style="fill:#407BFF;" d="M261.374,185.567h-25.726c-4.885,0-8.846,3.96-8.846,8.846v25.002
					c0,4.885,3.961,8.846,8.846,8.846h6.386l-3.029,6.894l6.977-6.894h15.392c4.885,0,8.846-3.96,8.846-8.846v-25.002
					C270.22,189.527,266.26,185.567,261.374,185.567z"/>
			</g>
			<g style="opacity:0.3;">
				<path style="fill:#FFFFFF;" d="M261.374,185.567h-25.726c-4.885,0-8.846,3.96-8.846,8.846v25.002
					c0,4.885,3.961,8.846,8.846,8.846h6.386l-3.029,6.894l6.977-6.894h15.392c4.885,0,8.846-3.96,8.846-8.846v-25.002
					C270.22,189.527,266.26,185.567,261.374,185.567z"/>
			</g>
		</g>
		<g>
			<path style="fill:#FFFFFF;" d="M251.548,201.455c0-1.932-1.479-3.243-3.853-3.243c-2.281,0-3.945,0.966-5.024,2.656l-2.99-2.173
				c1.727-2.622,4.501-4.209,8.353-4.209c4.531,0,7.552,2.312,7.552,6.279c0,5.623-5.271,6.141-5.271,10.212H246.4
				C246.4,205.871,251.548,204.904,251.548,201.455z M245.907,216.531c0-1.483,1.017-2.656,2.466-2.656
				c1.418,0,2.435,1.173,2.435,2.656c0,1.484-1.017,2.691-2.435,2.691C246.924,219.222,245.907,218.015,245.907,216.531z"/>
		</g>
	</g>
</g>
<g id="Table">
	<g>
		<rect x="104.556" y="408.407" style="fill:#263238;" width="73.754" height="9.425"/>
		<rect x="132.894" y="408.407" style="opacity:0.2;fill:#FFFFFF;enable-background:new    ;" width="45.416" height="9.425"/>
		<g>
			<polygon style="fill:#263238;" points="133.581,341.75 122.24,341.75 120.751,325.873 135.07,325.873 			"/>
			<polygon style="opacity:0.7;fill:#FFFFFF;enable-background:new    ;" points="133.581,341.75 122.24,341.75 120.751,325.873 
				135.07,325.873 			"/>
			<polygon style="opacity:0.5;fill:#FFFFFF;enable-background:new    ;" points="133.21,341.274 122.611,341.274 121.824,332.227 
				133.997,332.227 			"/>
		</g>
		<g>
			<rect x="163.056" y="327.517" style="fill:#263238;" width="6.557" height="14.187"/>
			<rect x="167.166" y="330.891" style="opacity:0.5;fill:#FFFFFF;enable-background:new    ;" width="2.447" height="7.871"/>
			
				<rect x="162.564" y="325.964" transform="matrix(-1 -1.224647e-16 1.224647e-16 -1 332.6779 653.4785)" style="fill:#407BFF;" width="7.55" height="1.55"/>
		</g>
		<g>
			<g>
				<path style="fill:#407BFF;" d="M150.316,341.95l-1.772-0.061c-0.264-0.009-0.47-0.229-0.461-0.494
					c0.009-0.264,0.229-0.474,0.494-0.464l1.772,0.061c0.264,0.009,0.473,0.233,0.464,0.497
					C150.804,341.754,150.581,341.959,150.316,341.95z"/>
				<path style="opacity:0.7;fill:#FFFFFF;enable-background:new    ;" d="M149.523,341.923l-0.979-0.034
					c-0.264-0.009-0.47-0.229-0.461-0.494c0.009-0.264,0.229-0.474,0.494-0.464l0.979,0.034L149.523,341.923z"/>
			</g>
			<g>
				<path style="fill:#407BFF;" d="M149.57,340.959l-1.572,0.821c-0.235,0.122-0.522,0.032-0.645-0.202
					c-0.122-0.234-0.034-0.525,0.201-0.648l1.572-0.821c0.235-0.122,0.527-0.031,0.649,0.204
					C149.898,340.547,149.805,340.836,149.57,340.959z"/>
				<path style="opacity:0.7;fill:#FFFFFF;enable-background:new    ;" d="M148.866,341.326l-0.868,0.453
					c-0.235,0.122-0.522,0.032-0.645-0.202c-0.122-0.234-0.034-0.525,0.201-0.648l0.868-0.453L148.866,341.326z"/>
			</g>
			<g>
				<rect x="149.046" y="336.216" style="fill:#263238;" width="14.623" height="5.487"/>
				<rect x="149.046" y="336.216" style="opacity:0.5;fill:#FFFFFF;enable-background:new    ;" width="14.623" height="5.487"/>
				<rect x="153.099" y="336.216" style="opacity:0.5;fill:#FFFFFF;enable-background:new    ;" width="6.994" height="3.735"/>
			</g>
			<rect x="129.993" y="340.269" style="fill:#407BFF;" width="5.801" height="1.434"/>
			<g>
				<path style="fill:#407BFF;" d="M146.933,341.978l-1.772-0.061c-0.265-0.009-0.47-0.229-0.461-0.494
					c0.009-0.264,0.229-0.474,0.494-0.464l1.772,0.061c0.264,0.009,0.473,0.233,0.464,0.497
					C147.421,341.781,147.198,341.987,146.933,341.978z"/>
				<path style="opacity:0.7;fill:#FFFFFF;enable-background:new    ;" d="M146.14,341.95l-0.979-0.034
					c-0.265-0.009-0.47-0.229-0.461-0.494c0.009-0.264,0.229-0.474,0.494-0.464l0.979,0.034L146.14,341.95z"/>
			</g>
			<g>
				<path style="fill:#407BFF;" d="M152.545,341.978l-1.772-0.061c-0.264-0.009-0.47-0.229-0.461-0.494
					c0.009-0.264,0.229-0.474,0.494-0.464l1.772,0.061c0.264,0.009,0.473,0.233,0.464,0.497
					C153.033,341.781,152.809,341.987,152.545,341.978z"/>
				<path style="opacity:0.7;fill:#FFFFFF;enable-background:new    ;" d="M151.751,341.95l-0.979-0.034
					c-0.264-0.009-0.47-0.229-0.461-0.494c0.009-0.264,0.229-0.474,0.494-0.464l0.979,0.034L151.751,341.95z"/>
			</g>
			<g>
				<path style="fill:#407BFF;" d="M140.762,341.964l-1.772-0.061c-0.265-0.009-0.47-0.229-0.461-0.494
					c0.009-0.264,0.229-0.474,0.494-0.464l1.772,0.061c0.264,0.009,0.473,0.233,0.464,0.497
					C141.25,341.767,141.026,341.973,140.762,341.964z"/>
				<path style="opacity:0.7;fill:#FFFFFF;enable-background:new    ;" d="M139.968,341.936l-0.979-0.034
					c-0.265-0.009-0.47-0.229-0.461-0.494c0.009-0.264,0.229-0.474,0.494-0.464l0.979,0.034L139.968,341.936z"/>
			</g>
			<g>
				<path style="fill:#407BFF;" d="M145.124,341.265l-1.659,0.626c-0.248,0.093-0.522-0.031-0.616-0.278
					c-0.093-0.248,0.029-0.525,0.277-0.619l1.659-0.626c0.248-0.093,0.527,0.033,0.62,0.28
					C145.499,340.896,145.372,341.172,145.124,341.265z"/>
				<path style="opacity:0.7;fill:#FFFFFF;enable-background:new    ;" d="M144.381,341.545l-0.916,0.346
					c-0.248,0.093-0.522-0.031-0.616-0.278c-0.093-0.248,0.029-0.525,0.277-0.619l0.916-0.346L144.381,341.545z"/>
			</g>
		</g>
		<rect x="102.913" y="344.282" style="fill:#407BFF;" width="76.591" height="69.547"/>
		<rect x="102.913" y="344.282" style="opacity:0.4;fill:#FFFFFF;enable-background:new    ;" width="76.591" height="69.547"/>
		<rect x="102.913" y="344.282" style="opacity:0.2;enable-background:new    ;" width="28.181" height="69.547"/>
		<path style="fill:#407BFF;" d="M181.774,344.28c0,0.7-0.28,1.34-0.74,1.8c-0.46,0.46-1.09,0.74-1.79,0.74h-76.066
			c-1.4,0-2.53-1.14-2.53-2.54c0-0.7,0.28-1.33,0.74-1.79c0.46-0.46,1.09-0.74,1.79-0.74h76.066
			C180.644,341.75,181.774,342.88,181.774,344.28z"/>
		<path style="opacity:0.2;fill:#FFFFFF;enable-background:new    ;" d="M181.774,344.28c0,0.7-0.28,1.34-0.74,1.8
			c-0.46,0.46-1.09,0.74-1.79,0.74h-48.05c-1.4,0-2.53-1.14-2.53-2.54c0-0.7,0.28-1.33,0.74-1.79c0.46-0.46,1.09-0.74,1.79-0.74
			h48.05C180.644,341.75,181.774,342.88,181.774,344.28z"/>
		<rect x="135.112" y="350.439" style="opacity:0.3;fill:#FFFFFF;enable-background:new    ;" width="40.879" height="13.929"/>
		<rect x="135.112" y="367.128" style="opacity:0.3;fill:#FFFFFF;enable-background:new    ;" width="40.879" height="42.385"/>
		<circle style="opacity:0.2;enable-background:new    ;" cx="155.552" cy="353.546" r="1.315"/>
		<circle style="opacity:0.2;enable-background:new    ;" cx="155.552" cy="371.539" r="1.315"/>
	</g>
</g>
<g id="Lamp">
	<g>
		<rect x="87.27" y="227.351" style="fill:#263238;" width="4.747" height="187.665"/>
		<rect x="87.27" y="227.351" style="opacity:0.2;fill:#FFFFFF;enable-background:new    ;" width="4.747" height="187.665"/>
		<path style="fill:#263238;" d="M96.368,416.238h-13.45v-8.663c0-2.644,2.143-4.787,4.787-4.787h3.875
			c2.644,0,4.787,2.143,4.787,4.787V416.238z"/>
		<path style="fill:#407BFF;" d="M107.573,208.834h-5.003H76.716h-5.003c-0.791,30.232-12.008,46.332-12.008,46.332h17.011h25.854
			h17.011C119.581,255.166,108.365,239.067,107.573,208.834z"/>
		<path style="opacity:0.3;fill:#FFFFFF;enable-background:new    ;" d="M96.368,416.238h-13.45v-8.663
			c0-2.644,2.143-4.787,4.787-4.787h3.875c2.644,0,4.787,2.143,4.787,4.787V416.238z"/>
		<path style="fill:#263238;" d="M103.527,412.199H75.759c-3.11,0-5.632,2.522-5.632,5.632v0h39.033v0
			C109.16,414.721,106.638,412.199,103.527,412.199z"/>
		<path style="opacity:0.4;fill:#FFFFFF;enable-background:new    ;" d="M103.527,412.199H75.759c-3.11,0-5.632,2.522-5.632,5.632v0
			h39.033v0C109.16,414.721,106.638,412.199,103.527,412.199z"/>
		<path style="opacity:0.5;fill:#FFFFFF;enable-background:new    ;" d="M119.578,255.17h-59.87c0,0,3.63-5.21,6.91-15.28
			c2.48-7.62,4.76-18.03,5.1-31.06h35.86c0.34,13.03,2.62,23.43,5.09,31.05C115.948,249.95,119.578,255.17,119.578,255.17z"/>
		<path style="opacity:0.2;fill:#FFFFFF;enable-background:new    ;" d="M112.668,239.88c-5.19,7.08-13.57,11.67-23.02,11.67
			c-9.45,0-17.83-4.59-23.03-11.66c2.48-7.62,4.76-18.03,5.1-31.06h35.86C107.918,221.86,110.198,232.26,112.668,239.88z"/>
	</g>
</g>
</svg>
