<?xml version="1.0" encoding="utf-8"?>
<!-- Generator: Adobe Illustrator 27.5.0, SVG Export Plug-In . SVG Version: 6.00 Build 0)  -->
<svg version="1.1" xmlns="http://www.w3.org/2000/svg" xmlns:xlink="http://www.w3.org/1999/xlink" x="0px" y="0px"
	 viewBox="0 0 500 500" style="enable-background:new 0 0 500 500;" xml:space="preserve">
<g id="BACKGROUND">
	<rect style="fill:#FFFFFF;" width="500" height="500"/>
</g>
<g id="OBJECTS">
	<g>
		<g>
			<path style="fill:#CF6730;" d="M242.283,430.092c0.673,2.115-2.357,5.314-4.03,6.644c-4.842,3.853-11.878,4.384-16.683,8.051
				c5.344,2.935,14.277,3.105,20.149,2.452c1.911-0.213,11.961-1.453,12.952-4.051c1.135-2.979-3.496-9.911-4.701-12.091
				C247.619,426.843,247.494,428.071,242.283,430.092z"/>
			<path style="fill:#CF6730;" d="M292.93,430.092c-0.673,2.115,2.357,5.314,4.03,6.644c4.842,3.853,11.878,4.384,16.683,8.051
				c-5.345,2.935-14.277,3.105-20.149,2.452c-1.911-0.213-11.961-1.453-12.952-4.051c-1.135-2.979,3.496-9.911,4.701-12.091
				C287.594,426.843,287.719,428.071,292.93,430.092z"/>
			<g>
				<path style="fill:#ECC482;" d="M308.851,238.307c-5.857-4.935-75.414-4.935-81.271,0c-9.721,31.321-3.801,77.545-0.291,105.381
					c2.244,17.796,8.273,35.775,11.773,91.527c0,0,15.42,5.184,16.118,1.753c14.16-69.579,6.585-97.194,6.585-97.194
					c2.486-13.246,1.529-56.681,6.45-56.681c4.921,0,3.965,43.435,6.45,56.681c0,0-7.574,27.615,6.585,97.194
					c0.698,3.432,16.118-1.753,16.118-1.753c3.5-55.753,9.529-73.731,11.773-91.527
					C312.652,315.852,318.572,269.628,308.851,238.307z"/>
				<g>
					<g>
						<path d="M263.123,249.722c0.291,5.479-0.067,10.906,1.088,16.307c0.051,0.241,0.281,0.36,0.503,0.383
							c2.325,0.242,4.659,0.45,6.998,0.487c0.302,0.005,0.533-0.253,0.544-0.544c0.249-6.695,0.274-13.4,0.5-20.088
							c0.016-0.47-0.714-0.469-0.73,0c-0.184,5.441-0.578,10.881-0.744,16.33c-0.024,0.775,0.265,2.423-0.096,3.137
							c-0.576,1.139,0.699-0.271-0.318,0.069c-0.787,0.263-2.225-0.107-3.018-0.165c-0.583-0.042-1.972,0.107-2.517-0.209
							c-1.01-0.586-0.816-3.803-0.982-5.319c-0.379-3.461-0.589-6.935-1.046-10.387C263.29,249.609,263.116,249.601,263.123,249.722
							L263.123,249.722z"/>
					</g>
					<g>
						<path d="M295.338,247.138c2.431,6.891,6.98,14.549,13.581,18.181c0.443,0.244,0.94-0.35,0.553-0.717
							c-5.697-5.393-10.678-10.109-13.694-17.585C295.671,246.751,295.238,246.857,295.338,247.138L295.338,247.138z"/>
					</g>
					<g>
						<path d="M241.457,247.017c-3.015,7.471-7.999,12.193-13.694,17.585c-0.383,0.363,0.105,0.963,0.553,0.717
							c6.602-3.632,11.15-11.289,13.581-18.181C241.997,246.857,241.565,246.751,241.457,247.017L241.457,247.017z"/>
					</g>
					<g>
						<path d="M265.509,266.394c-0.072,5.415,0.209,11.607,2.223,16.699c0.152,0.384,0.681,0.238,0.616-0.17
							c-0.886-5.574-2.122-10.827-2.109-16.53C266.24,265.924,265.516,265.924,265.509,266.394L265.509,266.394z"/>
					</g>
				</g>
			</g>
		</g>
		<g>
			<g>
				<path style="fill:#FFC3AB;" d="M169.379,69.604c-1.886-0.395-1.502,6.495-3.571,5.318c-0.936-1.404-3.915-14.389-6.214-13.342
					c-1.467,0.668,1.779,8.903,1.436,11.179c-3.199-3.62-6.912-10.516-8.054-9.809c-1.859,1.151,5.178,11.207,4.19,11.755
					c-1.466,0.812-7.13-8.234-8.432-7.479c-1.343,0.779,4.927,7.675,5.777,11.061c-1.267,0.619-7.474-5.613-8.731-4.434
					c-0.439,0.412,11.785,11.67,14.547,14.899c0,0,8.355,12.731,9.098,13.317c2.334,1.839,7.048-3.482,8.676-5.575
					c0.88-1.132-9.285-9.34-8.102-16.747C170.407,77.184,170.923,69.927,169.379,69.604z"/>
				<g>
					<path style="fill:#312A3C;" d="M234.066,162.328c-3.545-3.59-33.561-5.401-48.214-24.459
						c-14.176-18.44-25.207-45.835-22.526-47.229c8.716-4.533,5.105-9.472,9.761-3.842c0,0,9.143,14.598,21.423,31.571
						c7.07,9.772,44.939,12.942,43.105,18.528C237.616,136.897,238.873,167.196,234.066,162.328z"/>
				</g>
			</g>
			<g>
				<path style="fill:#FFC3AB;" d="M373.436,69.604c1.886-0.395,1.502,6.495,3.571,5.318c0.936-1.404,3.915-14.389,6.214-13.342
					c1.467,0.668-1.779,8.903-1.436,11.179c3.199-3.62,6.912-10.516,8.054-9.809c1.859,1.151-5.178,11.207-4.19,11.755
					c1.466,0.812,7.13-8.234,8.433-7.479c1.343,0.779-4.927,7.675-5.777,11.061c1.267,0.619,7.474-5.613,8.731-4.434
					c0.44,0.412-11.784,11.67-14.547,14.899c0,0-8.355,12.731-9.098,13.317c-2.334,1.839-7.048-3.482-8.676-5.575
					c-0.88-1.132,9.285-9.34,8.102-16.747C372.408,77.184,371.892,69.927,373.436,69.604z"/>
				<g>
					<path style="fill:#312A3C;" d="M308.749,162.328c3.545-3.59,33.562-5.401,48.214-24.459
						c14.176-18.44,25.208-45.835,22.526-47.229c-8.716-4.533-5.104-9.472-9.761-3.842c0,0-9.143,14.598-21.423,31.571
						c-7.07,9.772-44.939,12.942-43.105,18.528C305.199,136.897,303.942,167.196,308.749,162.328z"/>
				</g>
			</g>
			<path style="fill:#FFC3AB;" d="M282.908,128.527c-3.743-4.491-3.858-15.403-3.982-23.372c-4.558,0.029-16.864,0.029-21.421,0
				c-0.124,7.969-0.239,18.881-3.982,23.372c-3.993,4.791-25.377,10.148-24.664,10.822c10.539,9.706,68.173,9.706,78.712,0
				C308.285,138.675,286.901,133.317,282.908,128.527z"/>
			<path style="fill:#312A3C;" d="M308.669,138.022c0.474-4.48-19.193-10.784-24.495-10.506c0,0,0.801-11.784-1.985-11.206
				c-5.354,1.111-22.591,1.005-27.945,0c-2.797-0.525-1.989,11.206-1.989,11.206c-5.301-0.277-24.969,6.026-24.495,10.506
				c1.849,17.643-4.191,89.024-3.587,101.75c0,13.969,88.082,13.969,88.082,0C312.861,227.046,306.82,155.665,308.669,138.022z"/>
		</g>
		<g>
			<g>
				<path style="fill:#FFC3AB;" d="M246.597,88.478c0,13.43,3.453,21.308,21.572,21.308c18.118,0,21.571-7.878,21.571-21.308
					C289.74,60.663,246.597,57.088,246.597,88.478z"/>
				<g>
					<path style="fill:#312A3C;" d="M257.305,108.513c6.431,3.031,13.918,2.854,20.636,0.886c0.504-0.147,0.287-0.942-0.217-0.788
						c-6.969,2.142-13.423,1.57-20.387-0.174C257.293,108.427,257.261,108.493,257.305,108.513L257.305,108.513z"/>
				</g>
			</g>
			<g>
				<path style="fill:#312A3C;" d="M262.331,88.449c0,1.166-0.567,2.112-1.267,2.112c-0.7,0-1.267-0.945-1.267-2.112
					c0-1.166,0.567-2.112,1.267-2.112C261.764,86.337,262.331,87.283,262.331,88.449z"/>
				<path style="fill:#312A3C;" d="M276.046,88.449c0,1.166-0.567,2.112-1.267,2.112c-0.7,0-1.267-0.945-1.267-2.112
					c0-1.166,0.567-2.112,1.267-2.112C275.479,86.337,276.046,87.283,276.046,88.449z"/>
				<g>
					<path style="fill:#312A3C;" d="M273.247,83.155c0.724-0.286,1.481-0.39,2.251-0.24c0.673,0.131,1.171,0.548,1.8,0.748
						c0.228,0.072,0.466-0.214,0.323-0.42c-0.935-1.343-3.287-1.184-4.594-0.61C272.734,82.761,272.945,83.274,273.247,83.155
						L273.247,83.155z"/>
				</g>
				<g>
					<path style="fill:#312A3C;" d="M263.309,82.632c-1.306-0.574-3.658-0.732-4.594,0.61c-0.143,0.205,0.094,0.493,0.323,0.42
						c0.629-0.2,1.127-0.617,1.8-0.748c0.77-0.15,1.527-0.046,2.251,0.24C263.388,83.272,263.606,82.762,263.309,82.632
						L263.309,82.632z"/>
				</g>
				<g>
					<path style="fill:#312A3C;" d="M265.048,97.979c1.307,1.574,4.635,1.948,5.467-0.368c0.103-0.288-0.281-0.452-0.478-0.278
						c-0.671,0.595-1.092,1.223-2.03,1.417c-1.045,0.216-2.056-0.202-2.786-0.945C265.109,97.691,264.949,97.86,265.048,97.979
						L265.048,97.979z"/>
				</g>
				<g>
					<path style="fill:#312A3C;" d="M268.158,84.467c-0.032,1.567-0.235,3.166-0.634,4.686c-0.225,0.859-0.532,1.712-0.915,2.512
						c-0.166,0.347-0.763,1.107-0.803,1.518c-0.11,1.139,1.311,1.471,2.216,1.806c0.108,0.04,0.182-0.135,0.079-0.187
						c-0.373-0.185-0.9-0.369-1.198-0.669c-0.913-0.918-0.46-1.149-0.061-1.937c0.369-0.729,0.682-1.487,0.926-2.267
						c0.569-1.818,0.661-3.574,0.431-5.463C268.196,84.442,268.158,84.44,268.158,84.467L268.158,84.467z"/>
				</g>
			</g>
			<path style="fill:#312A3C;" d="M258.812,74.635c3.634,2.636,8.132,3.753,12.546,4.572c4.414,0.819,8.93,1.415,13.047,3.204
				c0.366,0.159,0.745,0.331,1.145,0.321c0.364-0.009,0.707-0.17,1.021-0.354c2.053-1.203,3.301-3.524,3.564-5.888
				c0.263-2.365-0.366-4.76-1.394-6.906c-2.107-4.396-5.953-7.929-10.512-9.657c-2.845-1.078-5.916-1.466-8.959-1.469
				c-5.004-0.005-10.999,1.167-14.808,4.703C250.907,66.463,255.956,72.564,258.812,74.635z"/>
			<path style="fill:#312A3C;" d="M281.774,72.725c0.758-0.937,5.627-3.165,6.743-2.165c3.309,2.963,2.84,12.454,2.459,14.626
				c-0.382,2.172-2.205,4.221-4.41,4.176c-0.157-0.003-0.325-0.021-0.449-0.117c-0.146-0.114-0.197-0.308-0.239-0.488
				c-1.066-4.589-1.806-9.323-3.881-13.552L281.774,72.725z"/>
			<path style="fill:#312A3C;" d="M260.455,70.581c-1.567,4.655-5.733,8.021-7.583,12.571c-0.622,1.529-0.968,3.169-1.016,4.818
				c-1.411-0.071-2.805-0.443-4.064-1.083c-0.713-0.363-1.41-0.839-1.79-1.543c-0.322-0.595-0.385-1.292-0.423-1.967
				c-0.09-1.61-0.069-3.226,0.064-4.833c0.132-1.59,0.381-3.201,1.084-4.633c0.627-1.276,1.588-2.358,2.612-3.345
				c1.3-1.253,2.77-2.407,4.504-2.907c1.734-0.5,3.782-0.23,5.048,1.057"/>
			<g>
				<g>
					<path style="fill:#FFC3AB;" d="M289.185,82.442c2.131-0.686,4.094,0.711,4.61,2.706c1.284,4.967-3.425,8.611-6.793,11.295
						C286.446,94.37,285.917,83.494,289.185,82.442z"/>
					<g>
						<g>
							<path style="fill:#312A3C;" d="M288.307,90.408c0.25-1.209,0.549-2.462,1.272-3.488c0.761-1.079,1.758-1.366,2.934-1.789
								c0.22-0.079,0.245-0.403,0-0.473c-1.171-0.333-2.317,0.495-3.032,1.377c-0.982,1.213-1.285,2.779-1.49,4.286
								C287.965,90.523,288.264,90.619,288.307,90.408L288.307,90.408z"/>
						</g>
						<g>
							<path style="fill:#312A3C;" d="M289.991,86.627c0.481,0.245,0.861,0.639,1.055,1.148c0.08,0.208,0.127,0.429,0.136,0.652
								c0.01,0.242-0.04,0.384,0.086,0.599c0.076,0.13,0.278,0.168,0.385,0.05c0.374-0.416,0.058-1.199-0.19-1.624
								c-0.307-0.527-0.778-0.911-1.347-1.124C289.944,86.264,289.827,86.544,289.991,86.627L289.991,86.627z"/>
						</g>
					</g>
				</g>
				<g>
					<path style="fill:#FFC3AB;" d="M247.151,82.442c-2.131-0.686-4.094,0.711-4.61,2.706c-1.284,4.967,3.424,8.611,6.793,11.295
						C249.89,94.37,250.419,83.494,247.151,82.442z"/>
					<g>
						<g>
							<path style="fill:#312A3C;" d="M248.344,90.321c-0.204-1.504-0.506-3.076-1.49-4.286c-0.717-0.881-1.859-1.71-3.031-1.377
								c-0.244,0.07-0.221,0.393,0,0.473c1.185,0.427,2.165,0.699,2.934,1.789c0.723,1.025,1.022,2.278,1.272,3.488
								C248.072,90.619,248.371,90.523,248.344,90.321L248.344,90.321z"/>
						</g>
						<g>
							<path style="fill:#312A3C;" d="M246.219,86.329c-0.57,0.214-1.039,0.596-1.347,1.124c-0.249,0.428-0.565,1.207-0.19,1.624
								c0.107,0.118,0.308,0.081,0.385-0.05c0.113-0.192,0.083-0.312,0.084-0.532c0.002-0.245,0.051-0.49,0.138-0.72
								c0.195-0.51,0.574-0.903,1.055-1.148C246.507,86.545,246.394,86.263,246.219,86.329L246.219,86.329z"/>
						</g>
					</g>
				</g>
			</g>
			<g>
				<path style="fill:#CF6730;" d="M245.721,79.703c2.059-0.981,3.87-2.416,5.775-3.678c7.754-5.134,17.317-7.384,26.493-6.234
					c3.806,0.477,7.525,1.513,11.325,2.037c0.343,0.047,0.714,0.085,1.015-0.089c0.386-0.224,0.521-0.715,0.591-1.159
					c0.633-4.033-1.932-5.817-4.969-8.49c-7.137-6.279-19.948-10.257-27.748-5.094C244.044,66.368,241.076,77.631,245.721,79.703z"
					/>
				<path style="fill:#CF6730;" d="M264.302,55.858c-0.197-1.482-0.572-2.94-1.113-4.333c-0.091-0.235-0.22-0.498-0.465-0.558
					c-0.166-0.04-0.338,0.028-0.495,0.094c-0.746,0.315-1.492,0.631-2.238,0.946c-0.114,0.048-0.239,0.107-0.288,0.221
					c-0.061,0.143,0.023,0.303,0.105,0.436c0.577,0.935,2.302,3.662,2.88,4.596C262.686,57.261,263.228,56.042,264.302,55.858z"/>
			</g>
		</g>
	</g>
	<g>
		<g>
			<path style="fill:#312A3C;" d="M238.896,431.86c-0.602,1.893,2.11,4.756,3.607,5.947c4.334,3.449,10.632,3.924,14.932,7.207
				c-4.784,2.627-12.779,2.779-18.035,2.194c-1.71-0.19-10.706-1.3-11.593-3.626c-1.016-2.666,3.129-8.871,4.207-10.822
				C234.119,428.952,234.231,430.051,238.896,431.86z"/>
			<path style="fill:#312A3C;" d="M195.019,431.923c0.602,1.894-2.11,4.756-3.607,5.947c-4.334,3.449-10.632,3.924-14.932,7.207
				c4.784,2.627,12.779,2.779,18.035,2.194c1.71-0.19,10.706-1.3,11.593-3.626c1.016-2.666-3.129-8.871-4.207-10.822
				C199.795,429.015,199.683,430.115,195.019,431.923z"/>
			<g>
				<path style="fill:#A85858;" d="M217.141,300.347c-4.405,0-8.649,39.814-10.874,51.669c0,0,1.763,20.042-3.764,81.841
					c-0.279,3.122-8.345,1.074-8.345,1.074s-11.642-64.418-13.65-80.348c-3.141-24.915-8.441-66.29,0.26-94.324
					c2.621-2.208,19.497-3.313,36.372-3.313"/>
				<path style="fill:#A85858;" d="M218.294,298.192c4.405,0,7.088,41.969,9.313,53.825c0,0-1.763,20.042,3.764,81.841
					c0.279,3.122,8.345,1.074,8.345,1.074s11.642-64.418,13.65-80.348c3.141-24.915,8.441-66.29-0.261-94.324
					c-2.621-2.208-19.497-3.313-36.372-3.313"/>
				<g>
					<path style="fill:#CF6730;" d="M180.768,260.26c5.243-4.417,67.502-4.417,72.745,0c8.701,28.035,3.402,69.41,0.261,94.324
						c-2.008,15.929-30.859-3.503-30.859-3.503c-2.225-11.856-1.369-50.734-5.774-50.734c-4.405,0-3.549,38.878-5.774,50.734
						c0,0-28.851,19.433-30.859,3.503C177.366,329.67,172.067,288.295,180.768,260.26z"/>
					<path style="fill:#DDD3C1;" d="M211.525,350.154c0.245-0.803,3.028,11.242,2.09,13.029c-1.798,3.425-31.243,5.421-31.606,5.106
						c-0.692-0.601-2.989-12.811-1.645-11.799C181.761,357.541,211.075,351.631,211.525,350.154z"/>
					<path style="fill:#DDD3C1;" d="M222.651,350.154c-0.245-0.803-3.029,11.242-2.09,13.029c1.798,3.425,31.243,5.421,31.606,5.106
						c0.692-0.601,2.989-12.811,1.645-11.799C252.415,357.541,223.101,351.631,222.651,350.154z"/>
				</g>
				<g>
					<g>
						<path d="M221.699,270.477c-0.261,4.904,0.06,9.762-0.974,14.596c-0.046,0.215-0.252,0.322-0.45,0.342
							c-2.081,0.216-4.17,0.402-6.264,0.436c-0.27,0.004-0.477-0.227-0.487-0.487c-0.223-5.993-0.245-11.994-0.448-17.981
							c-0.014-0.421,0.639-0.42,0.653,0c0.165,4.87,0.517,9.74,0.666,14.617c0.021,0.694-0.237,2.169,0.086,2.808
							c0.515,1.02-0.626-0.242,0.285,0.061c0.704,0.235,1.992-0.096,2.701-0.147c0.522-0.038,1.765,0.096,2.253-0.188
							c0.904-0.524,0.73-3.404,0.879-4.761c0.339-3.097,0.527-6.208,0.936-9.298C221.549,270.377,221.705,270.37,221.699,270.477
							L221.699,270.477z"/>
					</g>
					<g>
						<path d="M192.864,268.165c-2.176,6.168-6.247,13.023-12.156,16.273c-0.397,0.218-0.841-0.314-0.495-0.641
							c5.099-4.827,9.557-9.048,12.258-15.74C192.566,267.819,192.953,267.913,192.864,268.165L192.864,268.165z"/>
					</g>
					<g>
						<path d="M241.091,268.056c2.698,6.687,7.159,10.914,12.258,15.74c0.343,0.325-0.094,0.862-0.495,0.641
							c-5.909-3.251-9.98-10.105-12.157-16.273C240.609,267.913,240.995,267.818,241.091,268.056L241.091,268.056z"/>
					</g>
					<g>
						<path d="M219.563,285.401c0.065,4.847-0.187,10.39-1.99,14.947c-0.136,0.344-0.609,0.213-0.551-0.152
							c0.793-4.989,1.899-9.691,1.888-14.795C218.908,284.98,219.557,284.98,219.563,285.401L219.563,285.401z"/>
					</g>
				</g>
			</g>
		</g>
		<g>
			<path style="fill:#A85858;" d="M177.682,251.04c-8.123-6.915-13.318-25.331-12.896-26.476
				c2.171-5.894,15.998-25.506,20.194-41.46c1.906-7.246,0.992-10.997,0.479-12.56c0,0-8.171,1.391-12.952,6.232
				c-3.373,3.416-14.511,30.531-20.51,43.044c-5.496,11.465,18.322,35.184,18.322,35.184
				C173.501,257.786,180.785,253.682,177.682,251.04z"/>
			<g>
				<g>
					<path style="fill:#A85858;" d="M235.559,178.486c4.921,0.98,25.418,25.319,41.93,25.319c23.132,0,48.066,2.675,49.224-0.099
						c1.964-4.706,3.846-8.069-3.377-8.857c0,0-15.899-0.958-36.714-1.87c-11.985-0.525-38.765-28.114-42.401-23.535
						C244.221,169.443,228.886,177.157,235.559,178.486z"/>
				</g>
				<path style="fill:#A85858;" d="M340.872,187.169c1.359,1.35-4.573,4.801-2.463,5.875c1.678,0.009,14.092-4.622,14.48-2.139
					c0.247,1.584-8.367,3.394-10.07,4.924c4.757,0.676,12.516-0.014,12.553,1.322c0.062,2.174-12.141,1.831-12.055,2.952
					c0.128,1.662,10.74,1.416,10.825,2.911c0.088,1.542-9.07,0.107-12.347,1.254c0.179,1.391,8.751,3.136,8.46,4.825
					c-0.102,0.591-16.139-3.402-20.333-3.929c0,0-15.144,0.027-16.037-0.27c-2.804-0.932-0.965-7.759-0.117-10.255
					c0.458-1.35,12.837,2.601,18.341-2.434C334.013,190.463,339.759,186.064,340.872,187.169z"/>
			</g>
			<g>
				<path style="fill:#A85858;" d="M193.483,190.477c-1.359,1.35,4.573,4.801,2.463,5.875c-1.678,0.009-14.092-4.622-14.48-2.139
					c-0.247,1.584,8.367,3.394,10.07,4.924c-4.757,0.676-12.515-0.014-12.553,1.322c-0.062,2.174,12.141,1.831,12.055,2.952
					c-0.128,1.662-10.74,1.416-10.825,2.911c-0.088,1.542,9.07,0.107,12.347,1.254c-0.179,1.391-8.751,3.136-8.46,4.825
					c0.102,0.591,16.139-3.402,20.333-3.929c0,0,15.144,0.027,16.037-0.27c2.804-0.932,0.965-7.759,0.117-10.255
					c-0.459-1.35-12.838,2.601-18.342-2.434C200.342,193.771,194.596,189.372,193.483,190.477z"/>
				<g>
					<path style="fill:#DDD3C1;" d="M305.884,187.488c-4.921,0.98-22.848,24.918-46.693,26.659
						c-23.071,1.684-51.858-4.143-51.549-7.133c1.004-9.719-5.074-9.422,2.15-10.209c0,0,17.127,0.394,37.942-0.518
						c11.985-0.525,28.367-23.125,38.005-29.449C285.738,166.838,312.558,186.159,305.884,187.488z"/>
				</g>
			</g>
			<path style="fill:#A85858;" d="M203.99,161.998c3.35-4.02,3.453-13.787,3.564-20.92c4.08,0.026,15.094,0.026,19.174,0
				c0.111,7.133,0.214,16.9,3.564,20.92c3.574,4.288,22.715,9.084,22.076,9.687c-4.674,4.305-20.11,26.085-35.227,26.123
				c-15.392,0.039-30.468-21.74-35.227-26.123C181.275,171.081,200.416,166.286,203.99,161.998z"/>
			<path style="fill:#ECC482;" d="M180.931,171.685c-0.207-1.802,8.64-3.798,8.64-3.798s10.85,6.893,13.285,7.011l14.697,19.646
				l13.872-19.646c2.652-0.128,14.612-7.512,14.612-7.512s7.5,2.666,7.313,4.299c-0.683,6.016,0.89,17.022-1.28,32.119
				c-1.358,9.45-6.217,19.449-5.833,28.456c0.488,11.461,10.502,23.046,10.324,26.502c0,11.538-78.84,11.538-78.84,0
				c-0.178-3.449,9.834-15.003,10.32-26.431c0.384-9.028-4.477-19.058-5.839-28.536
				C180.033,188.703,181.614,177.699,180.931,171.685z"/>
			<path style="fill:#A85858;" d="M194.137,252.443c0.749,0.053,1.504,0.111,2.224,0.323c0.784,0.231,1.503,0.638,2.207,1.052
				c1.542,0.908,3.115,1.934,3.987,3.497c-1.2,0.457-2.558,0.34-3.775-0.066c-1.218-0.407-2.324-1.084-3.418-1.757
				c2.692,1.606,5.122,3.648,7.169,6.022c-0.847,0.509-1.92,0.519-2.872,0.252c-0.951-0.268-1.81-0.786-2.656-1.295
				c-2.648-1.593-5.441-3.2-8.525-3.401c3.496,2.811,6.849,5.8,10.042,8.951c-1.373,0.708-3.083,0.346-4.421-0.427
				c-1.338-0.773-2.422-1.908-3.633-2.867c-1.241-0.984-2.624-1.788-4.093-2.38c1.003,3.351,5.053,4.959,6.365,8.202
				c-2.127,0.317-4.227-0.821-5.791-2.296c-1.564-1.476-2.761-3.299-4.27-4.83c-0.13-0.132-0.268-0.265-0.44-0.332
				c-0.234-0.091-0.496-0.048-0.744-0.012c-1.993,0.29-4.061,0.055-5.939-0.675c-0.935-0.364-1.855-0.875-2.44-1.69
				c-0.476-0.662-0.698-1.478-1.155-2.154c-0.424-0.626-1.03-1.103-1.637-1.555c-1.162-0.865,4.227-6.184,4.418-6.079
				c1.296,0.718,2.34,1.786,3.574,2.535c1.195,0.725,3.213,0.369,4.577,0.411C186.641,251.986,190.391,252.177,194.137,252.443z"/>
		</g>
		<g>
			<path style="fill:#FF948C;" d="M203.05,94.008c-3.191,1.115-5.133,4.96-4.137,8.191c-2.61-1.693-6.274-1.387-8.74,0.51
				c-2.466,1.896-3.701,5.175-3.384,8.27c0.09,0.874,0.309,1.77,0.871,2.446s1.536,1.066,2.35,0.737
				c-3.15,1.047-5.015,4.462-5.29,7.77c-0.239,2.866,0.559,5.901,2.558,7.969c1.999,2.068,5.284,2.956,7.9,1.759
				c-1.484,1.679-1.892,4.232-1.004,6.29c0.887,2.058,3.024,3.514,5.263,3.587c1.342,0.044,2.658-0.367,3.898-0.881
				c2.959-1.227,5.658-3.078,7.869-5.396c1.198,2.768,3.942,4.805,6.938,5.151c2.996,0.346,6.132-1.011,7.93-3.433
				c1.959,2.352,4.917,3.842,7.973,4.018c0.506,0.029,1.026,0.022,1.502-0.154c1.553-0.573,1.949-2.548,2.107-4.196
				c1.166,2.452,5.003,2.671,6.91,0.739s1.98-5.157,0.785-7.594c2.563-1.768,4.488-4.745,4.23-7.848
				c-0.258-3.103-3.232-5.951-6.297-5.401c1.669-2.369,2.475-5.332,2.237-8.221c-0.1-1.209-0.397-2.446-1.151-3.396
				c-1.016-1.28-2.728-1.845-4.362-1.853c-1.634-0.007-3.226,0.471-4.79,0.945c1.048-2.876-0.388-6.429-3.138-7.771
				c-2.751-1.342-6.434-0.285-8.056,2.311c0.587-2.462-0.551-5.238-2.696-6.58c-3.647-2.281-6.974-0.062-9.048,2.958
				c-1.344,1.957-1.49,1.098-3.34-0.058C207.184,93.781,205.051,93.309,203.05,94.008z"/>
			<g>
				<path style="fill:#A85858;" d="M238.712,125.828c0,13.43-3.453,21.308-21.572,21.308c-18.118,0-21.571-7.878-21.571-21.308
					C195.569,98.013,238.712,94.438,238.712,125.828z"/>
				<g>
					<path style="fill:#312A3C;" d="M228.004,145.863c-6.431,3.031-13.918,2.854-20.636,0.887c-0.504-0.148-0.287-0.943,0.217-0.788
						c6.969,2.142,13.423,1.57,20.387-0.174C228.016,145.778,228.047,145.843,228.004,145.863L228.004,145.863z"/>
				</g>
			</g>
			<g>
				<path style="fill:#312A3C;" d="M222.978,125.799c0,1.166,0.567,2.112,1.267,2.112c0.7,0,1.267-0.945,1.267-2.112
					c0-1.166-0.567-2.112-1.267-2.112C223.545,123.687,222.978,124.633,222.978,125.799z"/>
				<path style="fill:#312A3C;" d="M209.262,125.799c0,1.166,0.567,2.112,1.267,2.112c0.7,0,1.267-0.945,1.267-2.112
					c0-1.166-0.567-2.112-1.267-2.112C209.829,123.687,209.262,124.633,209.262,125.799z"/>
				<g>
					<path style="fill:#312A3C;" d="M212.062,120.505c-0.724-0.286-1.481-0.39-2.251-0.24c-0.673,0.131-1.171,0.548-1.8,0.748
						c-0.228,0.072-0.466-0.214-0.323-0.42c0.935-1.343,3.287-1.184,4.594-0.61C212.575,120.111,212.364,120.624,212.062,120.505
						L212.062,120.505z"/>
				</g>
				<g>
					<path style="fill:#312A3C;" d="M221.999,119.982c1.306-0.574,3.658-0.732,4.594,0.61c0.143,0.205-0.094,0.493-0.323,0.42
						c-0.629-0.2-1.127-0.617-1.8-0.748c-0.77-0.15-1.527-0.046-2.251,0.24C221.921,120.623,221.703,120.112,221.999,119.982
						L221.999,119.982z"/>
				</g>
				<g>
					<path style="fill:#312A3C;" d="M220.26,135.329c-1.307,1.574-4.635,1.948-5.466-0.368c-0.104-0.288,0.281-0.452,0.478-0.278
						c0.671,0.595,1.092,1.223,2.03,1.417c1.045,0.217,2.056-0.202,2.786-0.945C220.199,135.042,220.359,135.21,220.26,135.329
						L220.26,135.329z"/>
				</g>
				<g>
					<path style="fill:#312A3C;" d="M217.151,121.817c0.032,1.567,0.235,3.166,0.634,4.686c0.225,0.859,0.532,1.712,0.915,2.512
						c0.166,0.347,0.763,1.107,0.803,1.518c0.11,1.14-1.311,1.471-2.216,1.806c-0.108,0.04-0.182-0.135-0.079-0.187
						c0.373-0.185,0.9-0.369,1.198-0.669c0.913-0.918,0.46-1.149,0.061-1.937c-0.369-0.729-0.682-1.487-0.926-2.267
						c-0.569-1.818-0.661-3.574-0.431-5.463C217.113,121.792,217.15,121.79,217.151,121.817L217.151,121.817z"/>
				</g>
			</g>
			<g>
				<g>
					<path style="fill:#A85858;" d="M196.124,119.792c-2.131-0.686-4.094,0.711-4.61,2.706c-1.284,4.967,3.425,8.611,6.793,11.295
						C198.863,131.72,199.391,120.844,196.124,119.792z"/>
					<g>
						<g>
							<path style="fill:#312A3C;" d="M197.001,127.758c-0.25-1.209-0.549-2.462-1.272-3.488c-0.761-1.079-1.757-1.366-2.934-1.789
								c-0.22-0.079-0.245-0.403,0-0.473c1.171-0.333,2.317,0.495,3.032,1.377c0.982,1.213,1.285,2.779,1.49,4.286
								C197.344,127.873,197.045,127.969,197.001,127.758L197.001,127.758z"/>
						</g>
						<g>
							<path style="fill:#312A3C;" d="M195.317,123.978c-0.481,0.245-0.861,0.639-1.055,1.148c-0.08,0.208-0.127,0.429-0.136,0.652
								c-0.01,0.242,0.04,0.385-0.086,0.6c-0.076,0.13-0.278,0.168-0.385,0.05c-0.374-0.416-0.058-1.199,0.19-1.624
								c0.307-0.528,0.778-0.911,1.347-1.124C195.364,123.614,195.481,123.894,195.317,123.978L195.317,123.978z"/>
						</g>
					</g>
				</g>
				<g>
					<path style="fill:#A85858;" d="M238.158,119.792c2.131-0.686,4.094,0.711,4.61,2.706c1.284,4.967-3.424,8.611-6.793,11.295
						C235.419,131.72,234.89,120.844,238.158,119.792z"/>
					<g>
						<g>
							<path style="fill:#312A3C;" d="M236.965,127.671c0.204-1.504,0.506-3.076,1.49-4.286c0.717-0.881,1.859-1.71,3.031-1.377
								c0.244,0.07,0.221,0.393,0,0.473c-1.185,0.427-2.165,0.699-2.934,1.789c-0.723,1.025-1.022,2.279-1.272,3.488
								C237.236,127.969,236.937,127.873,236.965,127.671L236.965,127.671z"/>
						</g>
						<g>
							<path style="fill:#312A3C;" d="M239.09,123.679c0.57,0.213,1.039,0.596,1.347,1.124c0.249,0.428,0.565,1.207,0.19,1.624
								c-0.107,0.118-0.308,0.081-0.385-0.05c-0.113-0.192-0.083-0.312-0.084-0.532c-0.002-0.246-0.051-0.49-0.138-0.72
								c-0.195-0.51-0.574-0.903-1.055-1.148C238.802,123.895,238.915,123.613,239.09,123.679L239.09,123.679z"/>
						</g>
					</g>
				</g>
			</g>
			<path style="fill:#FF948C;" d="M199.183,116.583c1.292,0.906,3.081,1.049,4.501,0.359c1.42-0.69,2.413-2.183,2.5-3.759
				c2.641,1.79,6.831,0.328,7.786-2.716c2.599,2.154,6.707,2.214,9.368,0.137c0.136,2.94,3.479,5.255,6.279,4.349
				c-0.401,0.857-0.242,1.946,0.388,2.652c0.63,0.706,1.694,0.988,2.591,0.687c-0.284,1.538,0.095,3.24,1.194,4.353
				c1.099,1.113,2.953,1.492,4.302,0.7c0.74-0.435,1.271-1.157,1.667-1.919c1.831-3.521,1.011-7.994-1.238-11.264
				c-2.249-3.27-5.71-5.509-9.283-7.236c-3.488-1.686-7.226-2.98-11.094-3.21c-3.544-0.21-7.092,0.48-10.474,1.559
				c-4.103,1.31-8.094,3.249-11.152,6.283c-2.823,2.8-3.676,11.022-3.143,10.812c0.563,1.599,1.131,4.903,3.669,4.423
				C198.571,122.506,200.679,117.632,199.183,116.583z"/>
		</g>
	</g>
	<g>
		<path style="fill:#CF6730;" d="M355.21,151.249c-1.763-5.584-5.424-10.614-8.578-15.771c-2.185-3.572-3.63-7.225-5.211-10.984
			c-0.979-2.329-2.171-5.078-4.74-6.566c-5.271-3.051-14.064,0.382-18.475,4.452c-4.411-4.069-13.204-7.503-18.475-4.452
			c-2.569,1.487-3.76,4.237-4.74,6.566c-1.581,3.759-3.026,7.412-5.211,10.984c-3.154,5.157-6.815,10.187-8.578,15.771
			c-1.763,5.584-1.33,12,3.111,16.477c1.638,1.651,3.739,2.961,5.964,4.059c8.403,4.149,47.455,4.149,55.859,0
			c2.225-1.099,4.326-2.408,5.964-4.059C356.54,163.25,356.973,156.833,355.21,151.249z"/>
		<g>
			<path style="fill:#FF948C;" d="M444.576,189.739c1.359,1.35-4.573,4.802-2.463,5.875c1.678,0.009,14.092-4.622,14.48-2.139
				c0.247,1.584-8.368,3.394-10.07,4.924c4.757,0.676,12.516-0.014,12.553,1.322c0.061,2.174-12.141,1.831-12.055,2.952
				c0.128,1.662,10.74,1.416,10.825,2.911c0.088,1.542-9.07,0.107-12.347,1.254c0.179,1.391,8.751,3.136,8.46,4.825
				c-0.102,0.591-16.14-3.402-20.334-3.929c0,0-15.144,0.027-16.037-0.27c-2.804-0.932-0.965-7.759-0.117-10.255
				c0.458-1.35,12.837,2.601,18.341-2.434C437.717,193.033,443.463,188.634,444.576,189.739z"/>
			<g>
				<path style="fill:#DDD3C1;" d="M332.174,186.749c4.921,0.98,22.848,24.918,46.693,26.659
					c23.071,1.684,51.858-4.143,51.549-7.133c-1.004-9.719,5.073-9.422-2.15-10.209c0,0-17.126,0.394-37.942-0.518
					c-11.985-0.525-32.249-25.656-38.829-28.71C351.497,166.838,325.501,185.421,332.174,186.749z"/>
			</g>
		</g>
		<g>
			<path style="fill:#DDD3C1;" d="M295.406,431.923c0.602,1.894-2.11,4.756-3.607,5.947c-4.334,3.449-10.632,3.924-14.932,7.207
				c4.784,2.627,12.779,2.779,18.035,2.194c1.71-0.19,10.706-1.3,11.593-3.626c1.016-2.666-3.129-8.871-4.207-10.822
				C300.183,429.015,300.071,430.115,295.406,431.923z"/>
			<path style="fill:#DDD3C1;" d="M340.74,431.923c-0.602,1.894,2.11,4.756,3.607,5.947c4.334,3.449,10.632,3.924,14.932,7.207
				c-4.784,2.627-12.779,2.779-18.035,2.194c-1.71-0.19-10.706-1.3-11.593-3.626c-1.016-2.666,3.129-8.871,4.207-10.822
				C335.963,429.015,336.075,430.115,340.74,431.923z"/>
			<g>
				<path style="fill:#312A3C;" d="M354.99,260.26c-5.243-4.417-67.502-4.417-72.745,0c-8.701,28.035-3.402,69.41-0.261,94.324
					c2.008,15.929,7.405,32.021,10.538,81.925c0,0,13.802,4.641,14.427,1.569c12.674-62.279,5.894-86.997,5.894-86.997
					c2.225-11.856,1.369-50.734,5.774-50.734c4.405,0,3.549,38.878,5.774,50.734c0,0-6.78,24.717,5.894,86.997
					c0.625,3.072,14.427-1.569,14.427-1.569c3.133-49.904,8.53-65.995,10.538-81.925C358.392,329.67,363.691,288.295,354.99,260.26z
					"/>
				<g>
					<g>
						<path d="M314.059,270.477c0.261,4.904-0.06,9.762,0.974,14.596c0.046,0.215,0.252,0.322,0.45,0.342
							c2.081,0.216,4.171,0.402,6.264,0.436c0.27,0.004,0.477-0.227,0.487-0.487c0.223-5.993,0.245-11.994,0.448-17.981
							c0.014-0.421-0.639-0.42-0.653,0c-0.165,4.87-0.517,9.74-0.666,14.617c-0.021,0.694,0.237,2.169-0.086,2.808
							c-0.515,1.02,0.626-0.242-0.285,0.061c-0.704,0.235-1.992-0.096-2.701-0.147c-0.522-0.038-1.765,0.096-2.253-0.188
							c-0.904-0.524-0.73-3.404-0.879-4.761c-0.339-3.097-0.527-6.208-0.936-9.298C314.21,270.377,314.054,270.37,314.059,270.477
							L314.059,270.477z"/>
					</g>
					<g>
						<path d="M342.895,268.165c2.176,6.168,6.247,13.023,12.156,16.273c0.397,0.218,0.841-0.314,0.495-0.641
							c-5.099-4.827-9.557-9.048-12.258-15.74C343.193,267.819,342.806,267.913,342.895,268.165L342.895,268.165z"/>
					</g>
					<g>
						<path d="M294.667,268.056c-2.698,6.687-7.16,10.914-12.258,15.74c-0.343,0.325,0.094,0.862,0.495,0.641
							c5.909-3.251,9.98-10.105,12.157-16.273C295.15,267.913,294.763,267.818,294.667,268.056L294.667,268.056z"/>
					</g>
					<g>
						<path d="M316.196,285.401c-0.065,4.847,0.187,10.39,1.99,14.947c0.136,0.344,0.609,0.213,0.551-0.152
							c-0.793-4.989-1.899-9.691-1.888-14.795C316.85,284.98,316.201,284.98,316.196,285.401L316.196,285.401z"/>
					</g>
				</g>
			</g>
		</g>
		<g>
			<path style="fill:#FF948C;" d="M331.769,161.998c-3.35-4.02-3.453-13.787-3.564-20.92c-4.08,0.026-15.095,0.026-19.174,0
				c-0.111,7.133-0.214,16.9-3.564,20.92c-3.574,4.288-22.715,9.084-22.076,9.687c9.434,8.688,61.02,8.688,70.454,0
				C354.483,171.081,335.343,166.286,331.769,161.998z"/>
			<g>
				<path style="fill:#DDD3C1;" d="M354.827,170.497c0.425-4.01-17.18-9.652-21.925-9.404c0,10.451-28.569,10.451-28.569,0
					c-4.745-0.248-22.349,5.394-21.925,9.404c1.655,15.792-3.752,79.684-3.211,91.075c0,12.503,78.84,12.503,78.84,0
					C358.579,250.18,353.172,186.289,354.827,170.497z"/>
				<g>
					<g>
						<path style="fill:#312A3C;" d="M281.711,188.67c-0.005,7.92-1.371,16.122-0.833,23.985c0.024,0.352,0.553,0.466,0.645,0.087
							c1.823-7.574,1.072-16.341,0.845-24.072C282.354,188.249,281.711,188.246,281.711,188.67L281.711,188.67z"/>
					</g>
				</g>
				<g>
					<g>
						<path style="fill:#312A3C;" d="M353.998,187.631c0.405,6.759-0.056,13.861,1.028,20.536c0.064,0.392,0.612,0.252,0.645-0.087
							c0.648-6.665-0.651-13.814-1.391-20.449C354.259,187.455,353.987,187.447,353.998,187.631L353.998,187.631z"/>
					</g>
				</g>
				<g>
					<g>
						<path style="fill:#312A3C;" d="M301.914,161.097c-0.272,8.82,9.751,11.424,16.885,11.208
							c5.212-0.158,19.069-3.314,17.227-11.297c-0.06-0.259-0.482-0.338-0.6-0.078c-1.439,3.161-2.105,5.433-5.329,7.375
							c-3.219,1.939-7.134,2.79-10.849,2.984c-6.783,0.354-16.806-1.745-16.96-10.191
							C302.285,160.855,301.922,160.856,301.914,161.097L301.914,161.097z"/>
					</g>
				</g>
			</g>
		</g>
		<g>
			<g>
				<path style="fill:#FF948C;" d="M297.046,125.828c0,13.43,3.453,21.308,21.572,21.308c18.118,0,21.571-7.878,21.571-21.308
					C340.189,98.013,297.046,94.438,297.046,125.828z"/>
				<g>
					<path style="fill:#312A3C;" d="M307.755,145.863c6.431,3.031,13.917,2.854,20.636,0.887c0.504-0.148,0.287-0.943-0.217-0.788
						c-6.969,2.142-13.423,1.57-20.387-0.174C307.743,145.778,307.711,145.843,307.755,145.863L307.755,145.863z"/>
				</g>
			</g>
			<g>
				<ellipse style="fill:#312A3C;" cx="311.514" cy="125.799" rx="1.267" ry="2.112"/>
				<ellipse style="fill:#312A3C;" cx="325.229" cy="125.799" rx="1.267" ry="2.112"/>
				<g>
					<path style="fill:#312A3C;" d="M323.697,120.505c0.724-0.286,1.481-0.39,2.251-0.24c0.673,0.131,1.171,0.548,1.8,0.748
						c0.228,0.072,0.466-0.214,0.323-0.42c-0.935-1.343-3.287-1.184-4.594-0.61C323.184,120.111,323.395,120.624,323.697,120.505
						L323.697,120.505z"/>
				</g>
				<g>
					<path style="fill:#312A3C;" d="M313.759,119.982c-1.306-0.574-3.658-0.732-4.594,0.61c-0.143,0.205,0.094,0.493,0.323,0.42
						c0.629-0.2,1.126-0.617,1.8-0.748c0.77-0.15,1.527-0.046,2.251,0.24C313.837,120.623,314.056,120.112,313.759,119.982
						L313.759,119.982z"/>
				</g>
				<g>
					<path style="fill:#312A3C;" d="M315.498,135.329c1.307,1.574,4.635,1.948,5.466-0.368c0.103-0.288-0.281-0.452-0.478-0.278
						c-0.671,0.595-1.092,1.223-2.03,1.417c-1.045,0.217-2.056-0.202-2.786-0.945C315.559,135.042,315.399,135.21,315.498,135.329
						L315.498,135.329z"/>
				</g>
				<g>
					<path style="fill:#312A3C;" d="M318.608,121.817c-0.031,1.567-0.235,3.166-0.634,4.686c-0.225,0.859-0.532,1.712-0.915,2.512
						c-0.166,0.347-0.763,1.107-0.803,1.518c-0.11,1.14,1.311,1.471,2.216,1.806c0.108,0.04,0.182-0.135,0.079-0.187
						c-0.373-0.185-0.9-0.369-1.198-0.669c-0.913-0.918-0.46-1.149-0.061-1.937c0.37-0.729,0.682-1.487,0.926-2.267
						c0.569-1.818,0.661-3.574,0.431-5.463C318.645,121.792,318.608,121.79,318.608,121.817L318.608,121.817z"/>
				</g>
			</g>
			<path style="fill:#CF6730;" d="M297.67,107.079c-2.844,4.65-3.442,10.553-1.831,15.76c0.278,0.9,0.622,1.787,1.133,2.579
				c0.169,0.263,0.385,0.533,0.692,0.593c0.272,0.053,0.544-0.075,0.788-0.208c2.969-1.63,4.97-4.575,6.576-7.558
				c1.606-2.982,2.958-6.148,5.135-8.743c0.949-1.13,2.046-2.141,2.875-3.362c2.714-3.994-0.282-8.015-4.717-6.91
				C303.931,100.324,300.027,103.225,297.67,107.079z"/>
			<path style="fill:#CF6730;" d="M305.347,103.057c-0.491,2.735,0.46,5.687,2.455,7.621c3.549,3.441,9.123,3.167,14.057,3.471
				c3.535,0.218,7.097,0.866,10.267,2.446c3.17,1.58,5.932,4.169,7.217,7.469c4.033-7.711,2.129-18.06-4.383-23.831
				C328.017,94.082,307.707,89.912,305.347,103.057z"/>
			<g>
				<path style="fill:none;stroke:#312A3C;stroke-width:0.5;stroke-miterlimit:10;" d="M316.631,125.371
					c0,3.526-2.858,6.384-6.384,6.384c-3.526,0-6.384-2.858-6.384-6.384c0-3.526,2.858-6.384,6.384-6.384
					C313.773,118.987,316.631,121.845,316.631,125.371z"/>
				<path style="fill:none;stroke:#312A3C;stroke-width:0.5;stroke-miterlimit:10;" d="M332.88,125.371
					c0,3.526-2.858,6.384-6.384,6.384c-3.526,0-6.384-2.858-6.384-6.384c0-3.526,2.858-6.384,6.384-6.384
					C330.022,118.987,332.88,121.845,332.88,125.371z"/>
				<path style="fill:none;stroke:#312A3C;stroke-width:0.5;stroke-miterlimit:10;" d="M316.399,123.687c0,0,2.138-1.709,3.847,0"/>
				<path style="fill:none;stroke:#312A3C;stroke-width:0.5;stroke-miterlimit:10;" d="M332.88,124.502c0,0,4.249-3.14,6.394-1.574"
					/>
				<path style="fill:none;stroke:#312A3C;stroke-width:0.5;stroke-miterlimit:10;" d="M303.862,124.502c0,0-4.249-3.14-6.394-1.574
					"/>
			</g>
			<g>
				<g>
					<path style="fill:#FF948C;" d="M339.635,119.792c2.131-0.686,4.094,0.711,4.61,2.706c1.284,4.967-3.424,8.611-6.793,11.295
						C336.896,131.72,336.367,120.844,339.635,119.792z"/>
					<g>
						<g>
							<path style="fill:#312A3C;" d="M338.757,127.758c0.25-1.209,0.549-2.462,1.272-3.488c0.761-1.079,1.758-1.366,2.934-1.789
								c0.22-0.079,0.245-0.403,0-0.473c-1.171-0.333-2.317,0.495-3.032,1.377c-0.982,1.213-1.285,2.779-1.49,4.286
								C338.415,127.873,338.713,127.969,338.757,127.758L338.757,127.758z"/>
						</g>
						<g>
							<path style="fill:#312A3C;" d="M340.441,123.978c0.481,0.245,0.861,0.639,1.055,1.148c0.079,0.208,0.127,0.429,0.136,0.652
								c0.01,0.242-0.04,0.385,0.086,0.6c0.076,0.13,0.278,0.168,0.385,0.05c0.374-0.416,0.058-1.199-0.19-1.624
								c-0.307-0.528-0.778-0.911-1.347-1.124C340.394,123.614,340.277,123.894,340.441,123.978L340.441,123.978z"/>
						</g>
					</g>
				</g>
				<g>
					<path style="fill:#FF948C;" d="M297.601,119.792c-2.131-0.686-4.094,0.711-4.61,2.706c-1.284,4.967,3.425,8.611,6.793,11.295
						C300.34,131.72,300.869,120.844,297.601,119.792z"/>
					<g>
						<g>
							<path style="fill:#312A3C;" d="M298.794,127.671c-0.204-1.504-0.505-3.076-1.49-4.286c-0.716-0.881-1.859-1.71-3.031-1.377
								c-0.244,0.07-0.22,0.393,0,0.473c1.186,0.427,2.165,0.699,2.934,1.789c0.723,1.025,1.022,2.279,1.272,3.488
								C298.522,127.969,298.821,127.873,298.794,127.671L298.794,127.671z"/>
						</g>
						<g>
							<path style="fill:#312A3C;" d="M296.669,123.679c-0.569,0.213-1.039,0.596-1.347,1.124c-0.249,0.428-0.565,1.207-0.19,1.624
								c0.107,0.118,0.309,0.081,0.385-0.05c0.113-0.192,0.082-0.312,0.084-0.532c0.002-0.246,0.051-0.49,0.138-0.72
								c0.195-0.51,0.574-0.903,1.055-1.148C296.957,123.895,296.843,123.613,296.669,123.679L296.669,123.679z"/>
						</g>
					</g>
				</g>
			</g>
		</g>
	</g>
	<g>
		<g>
			<path style="fill:#312A3C;" d="M380.716,432.71c0.572,1.798-2.004,4.517-3.425,5.648c-4.116,3.276-10.097,3.726-14.181,6.844
				c4.543,2.495,12.136,2.64,17.128,2.084c1.624-0.181,10.168-1.235,11.01-3.444c0.965-2.532-2.971-8.425-3.996-10.278
				C385.252,429.948,385.146,430.992,380.716,432.71z"/>
			<path style="fill:#312A3C;" d="M423.768,432.71c-0.572,1.798,2.004,4.517,3.425,5.648c4.116,3.276,10.097,3.726,14.181,6.844
				c-4.543,2.495-12.136,2.64-17.128,2.084c-1.624-0.181-10.168-1.235-11.01-3.444c-0.965-2.532,2.971-8.425,3.996-10.278
				C419.232,429.948,419.338,430.992,423.768,432.71z"/>
			<g>
				<path style="fill:#DDD3C1;" d="M437.302,269.683c-4.979-4.195-64.106-4.195-69.085,0c-8.263,26.624-3.231,65.918-0.248,89.579
					c1.907,15.128,7.033,30.41,10.008,77.803c0,0,13.107,4.407,13.701,1.49c12.036-59.146,5.598-82.62,5.598-82.62
					c2.113-11.259,1.3-48.182,5.483-48.182c4.183,0,3.37,36.922,5.483,48.182c0,0-6.439,23.474,5.598,82.62
					c0.594,2.917,13.701-1.49,13.701-1.49c2.975-47.393,8.1-62.675,10.008-77.803C440.533,335.601,445.565,296.307,437.302,269.683z
					"/>
				<g>
					<g>
						<path d="M398.43,279.386c0.247,4.658-0.057,9.271,0.925,13.862c0.044,0.204,0.239,0.306,0.427,0.325
							c1.977,0.205,3.961,0.382,5.948,0.414c0.257,0.004,0.453-0.215,0.463-0.462c0.211-5.691,0.233-11.391,0.425-17.076
							c0.014-0.399-0.607-0.399-0.62,0c-0.156,4.625-0.491,9.25-0.633,13.881c-0.02,0.659,0.225,2.06-0.081,2.667
							c-0.489,0.968,0.594-0.23-0.271,0.059c-0.669,0.223-1.891-0.091-2.565-0.14c-0.496-0.036-1.676,0.091-2.14-0.178
							c-0.858-0.498-0.694-3.232-0.835-4.521c-0.322-2.942-0.5-5.895-0.889-8.83C398.573,279.291,398.425,279.284,398.43,279.386
							L398.43,279.386z"/>
					</g>
					<g>
						<path d="M425.815,277.19c2.067,5.858,5.933,12.367,11.545,15.454c0.377,0.207,0.799-0.298,0.47-0.609
							c-4.842-4.584-9.077-8.593-11.641-14.948C426.098,276.861,425.73,276.951,425.815,277.19L425.815,277.19z"/>
					</g>
					<g>
						<path d="M400.459,293.559c-0.061,4.603,0.178,9.867,1.89,14.195c0.129,0.326,0.579,0.203,0.524-0.144
							c-0.753-4.738-1.804-9.204-1.793-14.051C401.081,293.159,400.464,293.159,400.459,293.559L400.459,293.559z"/>
					</g>
				</g>
			</g>
		</g>
		<g>
			<g>
				<path style="fill:#FFC3AB;" d="M432.963,205.226c1.233,10.08,11.416,42.719,20.532,39.531c8.2-2.868,12.951-29.161,15.129-37.49
					c0,0-4.262-3.552-7.285-2.818c-2.263,5.822-5.816,12.55-8.845,22.435c0,0-7.773-28.836-13.158-29.365
					C435.404,197.133,432.229,199.221,432.963,205.226z"/>
				<path style="fill:#FFC3AB;" d="M468.871,182.193c1.99,0.293-1.276,10.489,1.431,10.831c0.975,0.123,6.548-9.203,7.938-7.966
					c0.724,0.645-3.659,7.599-4.572,9.16c-0.183,0.312-0.342,0.652-0.353,1.013c-0.015,0.478,0.229,0.92,0.402,1.366
					c0.655,1.683,0.333,3.621-0.455,5.245c-0.789,1.625-3.438,4.075-4.638,5.425c-0.323,0.363-6.65-0.659-7.844-1.422
					c0,0-1.502-4.984,0.162-8.129c1.003-1.896,2.938-3.866,4.482-6.299C467.613,187.967,467.785,182.034,468.871,182.193z"/>
				<g>
					<g>
						<path style="fill:#FFC3AB;" d="M466.886,197.372c0.28,1.488,4.832,0.76,7.093,0.493c0.617-0.073,0.485-2.157-0.359-2.36
							C472.315,195.192,466.51,195.375,466.886,197.372z"/>
						<path style="fill:#FFC3AB;" d="M468.156,199.659c0.325,1.477,5.083,1.49,6.207,0.068c0.508-0.642,0.191-1.904-0.543-2.086
							C472.683,197.36,467.719,197.677,468.156,199.659z"/>
						<path style="fill:#FFC3AB;" d="M468.495,196.655c0.176,0.59-0.581,1.527-1.161,1.733s-1.216,0.245-1.77,0.512
							c-0.889,0.428-1.405,1.351-1.964,2.163c-0.559,0.813-2.293,5.763-2.684,4.858c-0.971-2.249-0.994-5.718-0.758-7.005
							C460.656,196.2,468.155,195.517,468.495,196.655z"/>
					</g>
					<g>
						<g>
							<path style="fill:#312A3C;" d="M461.486,197.674c1.683-0.951,3.896-1.846,5.874-1.442c0.379,0.077,1.011,0.259,1.06,0.73
								c0.057,0.546-0.666,0.981-1.055,1.206c-1.269,0.735-2.822,1.031-4.247,1.288c-0.351,0.063-0.206,0.632,0.15,0.542
								c1.423-0.359,2.857-0.798,4.135-1.535c0.491-0.283,1.202-0.739,1.255-1.374c0.041-0.487-0.385-0.792-0.795-0.942
								c-0.752-0.275-1.622-0.218-2.397-0.094c-1.429,0.228-2.788,0.807-4.028,1.54
								C461.387,197.624,461.434,197.704,461.486,197.674L461.486,197.674z"/>
						</g>
						<g>
							<path style="fill:#312A3C;" d="M467.653,196.154c2.091-0.219,4.269-0.52,6.369-0.353c0.156,0.012,0.195-0.255,0.037-0.276
								c-2.196-0.299-4.279,0.019-6.431,0.445C467.526,195.99,467.547,196.165,467.653,196.154L467.653,196.154z"/>
						</g>
						<g>
							<path style="fill:#312A3C;" d="M468.066,198.184c1.778,0.712,3.496,0.369,5.271-0.173c0.173-0.053,0.101-0.318-0.075-0.271
								c-1.698,0.454-3.346,0.754-5.016,0.016C467.938,197.619,467.75,198.057,468.066,198.184L468.066,198.184z"/>
						</g>
						<g>
							<path style="fill:#312A3C;" d="M468.563,198.099c-0.902,0.996-1.04,2.13,0.428,2.56c1.288,0.377,3.128,0.282,4.299-0.417
								c0.104-0.062,0.011-0.221-0.095-0.162c-0.946,0.532-2.233,0.583-3.288,0.461c-0.485-0.056-1.151-0.155-1.516-0.518
								c-0.552-0.548,0.026-1.228,0.437-1.659C468.995,198.189,468.725,197.92,468.563,198.099L468.563,198.099z"/>
						</g>
						<g>
							<path style="fill:#312A3C;" d="M471.08,200.639c-0.242,0.538-0.277,1.112-0.082,1.671c0.059,0.17,0.331,0.097,0.271-0.075
								c-0.169-0.484-0.158-0.984,0.053-1.455C471.396,200.618,471.154,200.475,471.08,200.639L471.08,200.639z"/>
						</g>
					</g>
				</g>
			</g>
			<path style="fill:#FFC3AB;" d="M415.249,176.365c-3.182-3.817-3.28-13.093-3.385-19.867c-3.874,0.025-14.335,0.025-18.209,0
				c-0.105,6.774-0.203,16.05-3.385,19.867c-3.394,4.072-21.572,8.627-20.965,9.2c8.959,8.251,57.95,8.251,66.909,0
				C436.821,184.991,418.643,180.437,415.249,176.365z"/>
			<path style="fill:#CF6730;" d="M439.339,277.661c-1.03-19.229-4.679-58.733-3.586-71.068c0.549-6.198,0.565-21.031,0.565-21.031
				s-14.481-7.954-15.316-6.167c-4.168,8.923-32.848,8.923-37.016,0c-0.835-1.787-15.316,6.167-15.316,6.167
				s0.016,14.833,0.565,21.031c1.093,12.334-2.556,51.839-3.586,71.068C378.817,280.237,426.171,280.237,439.339,277.661z"/>
			<g>
				<path style="fill:#FFC3AB;" d="M372.168,273.523c-1.126-2.542-12.016-27.099-11.402-28.766
					c2.062-5.597,12.057-26.511,16.041-41.662c0.805-3.062-2.268-18.873-4.975-17.95c-3.424,1.167-18.896,37.825-23.791,51.953
					c-3.953,11.409,15.089,39.386,17.3,42.737c2.944,4.461,9.979,16.057,10.373,15.646c1.126-1.175-6.712-3.77-6.114-4.96
					c3.19,0.837,8.212,4.727,8.961,3.467c0.727-1.222-6.333-4.562-5.551-5.938c0.527-0.928,7.286,4.069,8.392,2.326
					c0.68-1.072-3.128-2.896-6.515-5.955c2.153-0.301,8.422,2.81,9.068,1.432C384.479,284.736,378.166,287.063,372.168,273.523z"/>
				<path style="fill:#DDD3C1;" d="M366.595,292.778c-0.298,0.203-0.607,0.41-0.802,0.712c-0.216,0.333-0.27,0.744-0.285,1.14
					c-0.078,1.969,0.815,4.082,2.58,4.958c1.409,0.7,3.095,0.514,4.615,0.108c7.312-1.949,12.945-9.007,13.222-16.569
					c0.075-2.05-6.343-4.5-6.343-4.5c-2.24,3.787-3.856,6.163-7.035,9.276C370.712,289.699,368.719,291.335,366.595,292.778z"/>
				<g>
					<path d="M378.508,279.293c-3.116,6.098-7.692,9.721-12.922,13.856c-0.352,0.278,0.017,0.823,0.414,0.648
						c5.864-2.577,10.292-8.718,12.871-14.369C378.976,279.198,378.619,279.075,378.508,279.293L378.508,279.293z"/>
				</g>
			</g>
			<g>
				<path style="fill:#CF6730;" d="M363.862,189.268c-5.786,9.532-12.518,29.854-12.367,30.278
					c0.19,0.531,20.299,6.423,20.734,6.279c0.767-0.253,7.306-17.284,7.662-21.375c0.627-7.204-4.865-20.028-6.281-21.378
					C373.611,183.072,365.44,186.668,363.862,189.268z"/>
				<g>
					<g>
						<path style="fill:#312A3C;" d="M375.895,204.628c-0.551,3.067-1.925,21.097-6.473,20.572c-0.775-0.089-0.777,1.138,0,1.219
							c3.088,0.319,4.039-2.101,4.564-4.74c1.105-5.56,1.877-11.21,2.813-16.802C376.897,204.289,376.002,204.032,375.895,204.628
							L375.895,204.628z"/>
					</g>
				</g>
			</g>
			<g>
				<path style="fill:#CF6730;" d="M441.126,189.268c5.786,9.532,12.518,29.854,12.367,30.278
					c-0.19,0.531-20.299,6.423-20.734,6.279c-0.767-0.253-3.085-9.916-3.441-14.007c-0.627-7.204,0.644-27.395,2.06-28.746
					C431.377,183.072,439.548,186.668,441.126,189.268z"/>
				<g>
					<g>
						<path style="fill:#312A3C;" d="M429.238,205.418c0.49,2.898,1.013,5.789,1.597,8.67c0.535,2.639,0.807,6.02,1.93,8.463
							c0.958,2.085,3.159,3.583,5.285,2.085c0.347-0.245,0.267-0.906-0.237-0.874c-4.555,0.291-5.037-6.21-5.732-9.258
							c-0.706-3.1-1.344-6.213-1.939-9.336C430.028,204.573,429.139,204.83,429.238,205.418L429.238,205.418z"/>
					</g>
				</g>
			</g>
		</g>
		<g>
			<g>
				<path style="fill:#FFC3AB;" d="M382.273,142.014c0,12.754,3.28,20.236,20.486,20.236c17.206,0,20.486-7.482,20.486-20.236
					C423.245,115.599,382.273,112.204,382.273,142.014z"/>
				<g>
					<path style="fill:#312A3C;" d="M392.443,161.042c6.107,2.879,13.217,2.711,19.598,0.842c0.478-0.14,0.272-0.895-0.206-0.748
						c-6.618,2.035-12.747,1.491-19.362-0.165C392.432,160.96,392.401,161.022,392.443,161.042L392.443,161.042z"/>
				</g>
			</g>
			<g>
				<path style="fill:#312A3C;" d="M397.216,141.987c0,1.108-0.539,2.005-1.203,2.005c-0.665,0-1.203-0.898-1.203-2.005
					c0-1.108,0.539-2.005,1.203-2.005C396.677,139.982,397.216,140.879,397.216,141.987z"/>
				<path style="fill:#312A3C;" d="M410.241,141.987c0,1.108-0.539,2.005-1.203,2.005c-0.664,0-1.203-0.898-1.203-2.005
					c0-1.108,0.539-2.005,1.203-2.005C409.703,139.982,410.241,140.879,410.241,141.987z"/>
				<g>
					<path style="fill:#312A3C;" d="M407.583,136.959c0.688-0.272,1.406-0.37,2.137-0.228c0.639,0.124,1.112,0.52,1.709,0.71
						c0.216,0.069,0.443-0.204,0.307-0.399c-0.888-1.275-3.122-1.125-4.362-0.58C407.095,136.585,407.296,137.072,407.583,136.959
						L407.583,136.959z"/>
				</g>
				<g>
					<path style="fill:#312A3C;" d="M398.145,136.463c-1.241-0.545-3.474-0.695-4.363,0.58c-0.136,0.194,0.089,0.468,0.307,0.399
						c0.597-0.19,1.07-0.586,1.709-0.71c0.731-0.142,1.45-0.043,2.138,0.228C398.219,137.071,398.427,136.586,398.145,136.463
						L398.145,136.463z"/>
				</g>
				<g>
					<path style="fill:#312A3C;" d="M399.797,151.038c1.241,1.495,4.401,1.85,5.191-0.349c0.098-0.274-0.267-0.43-0.454-0.264
						c-0.637,0.565-1.037,1.162-1.927,1.346c-0.992,0.206-1.953-0.192-2.646-0.897C399.854,150.765,399.703,150.925,399.797,151.038
						L399.797,151.038z"/>
				</g>
				<g>
					<path style="fill:#312A3C;" d="M402.75,138.206c-0.03,1.488-0.223,3.007-0.602,4.45c-0.214,0.816-0.505,1.626-0.869,2.386
						c-0.158,0.33-0.725,1.051-0.763,1.442c-0.104,1.082,1.245,1.397,2.104,1.715c0.103,0.038,0.173-0.128,0.075-0.177
						c-0.354-0.176-0.855-0.351-1.137-0.635c-0.867-0.872-0.437-1.091-0.058-1.84c0.351-0.692,0.647-1.412,0.879-2.153
						c0.54-1.726,0.628-3.394,0.409-5.188C402.786,138.182,402.75,138.18,402.75,138.206L402.75,138.206z"/>
				</g>
			</g>
			<path style="fill:#312A3C;" d="M421.421,145.814c0.354-0.127-2.225-18.214,3.555-16.624c2.623,0.721,2.756,7.467,2.331,9.438
				C426.631,141.762,424.503,144.704,421.421,145.814z"/>
			<path style="fill:#312A3C;" d="M384.098,145.814c-0.354-0.127,2.225-18.214-3.555-16.624c-2.623,0.721-2.756,7.467-2.331,9.438
				C378.887,141.762,381.015,144.704,384.098,145.814z"/>
			<g>
				<g>
					<path style="fill:#FFC3AB;" d="M422.719,136.282c2.024-0.651,3.888,0.676,4.378,2.57c1.219,4.717-3.252,8.178-6.451,10.727
						C420.118,147.61,419.616,137.281,422.719,136.282z"/>
					<g>
						<g>
							<path style="fill:#312A3C;" d="M421.885,143.848c0.237-1.148,0.521-2.338,1.208-3.312c0.723-1.025,1.669-1.297,2.786-1.699
								c0.209-0.075,0.232-0.383,0-0.449c-1.112-0.316-2.201,0.47-2.879,1.308c-0.933,1.152-1.221,2.639-1.415,4.07
								C421.56,143.957,421.844,144.048,421.885,143.848L421.885,143.848z"/>
						</g>
						<g>
							<path style="fill:#312A3C;" d="M423.485,140.257c0.457,0.233,0.818,0.607,1.002,1.091c0.076,0.198,0.121,0.408,0.129,0.619
								c0.009,0.23-0.038,0.365,0.082,0.569c0.073,0.124,0.264,0.16,0.365,0.047c0.355-0.395,0.055-1.139-0.18-1.542
								c-0.292-0.501-0.739-0.865-1.279-1.068C423.44,139.912,423.329,140.178,423.485,140.257L423.485,140.257z"/>
						</g>
					</g>
				</g>
				<g>
					<path style="fill:#FFC3AB;" d="M382.8,136.282c-2.024-0.651-3.888,0.676-4.378,2.57c-1.219,4.717,3.252,8.178,6.451,10.727
						C385.401,147.61,385.903,137.281,382.8,136.282z"/>
					<g>
						<g>
							<path style="fill:#312A3C;" d="M383.933,143.765c-0.194-1.428-0.48-2.921-1.415-4.07c-0.68-0.836-1.766-1.624-2.879-1.308
								c-0.232,0.066-0.21,0.373,0,0.449c1.126,0.405,2.056,0.664,2.786,1.699c0.687,0.974,0.971,2.164,1.208,3.312
								C383.675,144.048,383.959,143.957,383.933,143.765L383.933,143.765z"/>
						</g>
						<g>
							<path style="fill:#312A3C;" d="M381.914,139.974c-0.541,0.203-0.987,0.566-1.279,1.068c-0.236,0.406-0.536,1.146-0.18,1.542
								c0.101,0.113,0.293,0.077,0.365-0.047c0.107-0.182,0.078-0.296,0.08-0.505c0.002-0.233,0.048-0.466,0.131-0.684
								c0.185-0.484,0.545-0.857,1.002-1.091C382.188,140.179,382.08,139.911,381.914,139.974L381.914,139.974z"/>
						</g>
					</g>
				</g>
			</g>
			<path style="fill:#312A3C;" d="M384.805,140.164c4.802-0.749,7.4-7.642,10.635-11.156c-0.703,1.684,0.696,3.726,2.398,4.157
				c1.702,0.432,3.467-0.312,4.948-1.28c1.48-0.967,2.837-2.181,4.462-2.846c-1.542,0.765-1.407,3.422-0.032,4.508
				c1.375,1.086,3.335,0.872,4.877,0.107c1.542-0.765,2.828-1.995,4.284-2.928c-0.567,1.663,0.427,3.653,1.962,4.379
				c1.535,0.726,3.404,0.315,4.734-0.751c3.039-2.436,3.647-9.452,1.474-12.804c-2.173-3.352-8.936-8.189-12.602-9.391
				c-8.532-2.796-20.527-1.312-26.679,4.13C372.168,127.877,382.425,140.536,384.805,140.164z"/>
		</g>
	</g>
	<g>
		<g>
			<g>
				<g>
					<path style="fill:#DDD3C1;" d="M44.041,396.268c-1.944,0.413-3.09,4.186-3.385,6.076c-0.854,5.473,1.848,11.181,1.121,16.543
						c-4.649-2.858-8.736-9.733-10.826-14.59c-0.68-1.581-4.165-9.949-2.582-11.869c1.815-2.202,9.258-1.668,11.487-1.695
						C44.206,390.679,43.306,391.32,44.041,396.268z"/>
					<path style="fill:#FF948C;" d="M126.148,253.86c13.797,9.717,40.568,12.448,41.44,15.763
						c-9.029,27.931-30.138,71.213-47.052,89.774c-10.815,11.867-35.484,21.018-79.174,40.257c0,0-3.802-6.787-1.506-8.922
						c41.043-38.176,60.578-48.125,60.578-48.125C105.442,331.634,126.148,253.86,126.148,253.86z"/>
				</g>
				<g>
					<path style="fill:#DDD3C1;" d="M142.495,428.818c-1.195,1.587,0.417,5.186,1.435,6.806c2.948,4.689,8.734,7.222,11.706,11.743
						c-5.384,0.896-12.979-1.607-17.745-3.899c-1.551-0.746-9.673-4.771-9.739-7.259c-0.077-2.852,5.889-7.336,7.552-8.82
						C138.951,424.492,138.692,425.567,142.495,428.818z"/>
					<path style="fill:#FF948C;" d="M110.944,267.491c16.787-1.727,38.774-17.242,41.608-15.314
						c11.525,26.997,24.016,73.504,23.442,98.609c-0.367,16.051-12.969,39.149-33.296,82.344c0,0-7.323-2.624-6.993-5.741
						c5.898-55.742,14.104-76.071,14.104-76.071C146.381,339.752,110.944,267.491,110.944,267.491z"/>
				</g>
			</g>
			<path style="fill:#312A3C;" d="M67.326,368.219c24.972,23.84,62.967,37.848,97.082,28.909
				c28.257-7.405,16.054-101.595,7.432-123.179c-12.337-30.886-68.735-49.617-77.98,7.06
				C87.245,321.553,54.395,355.875,67.326,368.219z"/>
		</g>
		<path style="fill:#312A3C;" d="M156.327,135.747c0.312,4.289,2.472,8.237,5.047,11.682c2.575,3.445,5.606,6.538,8.064,10.067
			c1.514,2.175,2.819,4.548,3.383,7.137s0.327,5.428-1.065,7.683c-1.463,2.37-4.017,3.858-6.622,4.845
			c-5.147,1.951-10.755,2.292-16.26,2.306c-0.878,0.002-1.782-0.008-2.59-0.35c-1.531-0.646-2.347-2.288-3.035-3.801
			c-1.417-3.117-2.867-6.425-2.499-9.828c0.201-1.855,0.935-3.606,1.66-5.325c3.247-7.695,6.494-15.389,9.741-23.083"/>
		<g>
			<g>
				<g>
					<path style="fill:#FF948C;" d="M116.374,208.149c-3.097-3.982-35.364-7.455-47.67-28.107
						c-11.906-19.981-21.134-43.629-18.307-44.698c9.189-3.475,6.184-8.805,10.146-2.666c0,0,9.511,18.209,19.706,36.51
						c5.87,10.537,40.951,15.51,38.473,20.841C118.722,190.029,120.574,213.549,116.374,208.149z"/>
				</g>
				<path style="fill:#FF948C;" d="M58.886,115.168c-1.826-0.614-2.257,6.273-4.172,4.86c-0.764-1.505-2.193-14.75-4.599-13.981
					c-1.535,0.491,0.718,9.051,0.109,11.271c-2.75-3.972-5.625-11.257-6.843-10.689c-1.982,0.924,3.822,11.739,2.777,12.167
					c-1.552,0.634-6.111-9.017-7.493-8.42c-1.426,0.616,3.989,8.201,4.434,11.664c-1.331,0.466-6.761-6.455-8.148-5.432
					c-0.485,0.358,10.328,12.976,12.691,16.509c0,0,6.797,13.626,7.466,14.296c2.101,2.101,7.409-2.627,9.272-4.514
					c1.007-1.02-8.121-10.369-6.073-17.585C59.014,122.817,60.381,115.671,58.886,115.168z"/>
				<path style="fill:#FF948C;" d="M90.773,198.114c0,0,4.791,4.233,7.736,10.84c2.945,6.607,2.255,15.505,6.979,18.441
					c9.447,5.872,16.337-29.532,16.337-29.532L90.773,198.114z"/>
			</g>
			<g>
				<path style="fill:#FF948C;" d="M182.488,169.698c1.504-1.024,3.653,5.129,5.035,3.355c0.31-1.563-1.77-13.973,0.615-13.887
					c1.521,0.055,1.657,8.414,2.777,10.277c1.487-4.314,2.242-11.672,3.495-11.467c2.038,0.334-0.48,11.651,0.58,11.772
					c1.573,0.181,3.256-9.759,4.665-9.569c1.453,0.196-1.535,8.476-1.055,11.739c1.329,0.084,4.524-7.653,6.023-7.019
					c1.579,0.668-6.081,14.436-7.328,18.252c0,0-2.704,14.126-3.142,14.905c-1.375,2.447-7.408-0.499-9.583-1.739
					c-1.176-0.671,4.739-11.501,1.036-17.541C184.323,176.687,181.257,170.537,182.488,169.698z"/>
				<path style="fill:#FF948C;" d="M156.838,190.024c2.471,10.563,15.402,48.589,24.715,44.152
					c8.377-3.99,13.986-39.848,15.339-48.944c0,0-6.933-2.176-10.058-1.048c-3.384,12.38-6.334,19.47-8.411,30.318
					c0,0-5.358-33.408-15.704-33.397C158.497,181.11,155.366,183.732,156.838,190.024z"/>
			</g>
			<path style="fill:#FF948C;" d="M121.667,177.138c3.182-3.817,3.28-13.093,3.385-19.867c3.874,0.025,14.335,0.025,18.209,0
				c0.105,6.774,0.203,16.05,3.385,19.867c3.394,4.072,21.572,8.627,20.965,9.2c-4.184,3.853-15.568,17.208-29.059,17.462
				c-15.397,0.29-33.075-13.065-37.85-17.462C100.095,185.764,118.273,181.21,121.667,177.138z"/>
			<path style="fill:#CF6730;" d="M100.687,218.544c-0.878,1.147,4.605,15.57,1.482,27.369c-3.88,14.658-6.341,23.171-6.223,23.501
				c0.292,0.813,1.127,1.288,1.928,1.613c4.479,1.816,9.529,1.081,14.316,0.411c18.44-2.577,37.078-3.739,55.696-3.473
				c-1.344-8.686-3.733-17.209-7.099-25.328c-0.817-1.97-1.703-3.963-1.867-6.09c-0.183-2.38,0.553-4.722,1.188-7.023
				c2.367-8.576,4.978-19.251,4.678-28.143c-0.059-1.746-1.086-8.114-6.063-19.182c-0.415-0.922-2.201-1.846-4.98-1.826
				c-1.574,0.011,1.163,18.139-12.128,18.625c-17.091,0.625-26.53-16.37-26.991-17.811c0,0-4.435-0.043-6.971,1.482
				C107.654,182.671,108.447,208.411,100.687,218.544z"/>
		</g>
		<g>
			<g>
				<path style="fill:#FF948C;" d="M158.222,149.5c-2.339,12.538-6.935,19.291-23.85,16.135
					c-16.915-3.156-18.767-11.112-16.427-23.65C122.789,116.018,163.689,120.195,158.222,149.5z"/>
				<g>
					<path style="fill:#312A3C;" d="M144.735,166.339c-6.532,1.71-13.49,0.241-19.42-2.766c-0.445-0.226-0.104-0.93,0.34-0.698
						c6.133,3.214,12.258,3.803,19.063,3.389C144.761,166.262,144.779,166.328,144.735,166.339L144.735,166.339z"/>
				</g>
			</g>
			<g>
				<path style="fill:#312A3C;" d="M144.479,146.438c-0.203,1.089,0.162,2.07,0.815,2.192c0.653,0.122,1.348-0.662,1.551-1.751
					c0.203-1.089-0.162-2.07-0.815-2.192C145.377,144.565,144.682,145.349,144.479,146.438z"/>
				<path style="fill:#312A3C;" d="M131.675,144.049c-0.203,1.089,0.162,2.07,0.815,2.192c0.653,0.122,1.348-0.662,1.551-1.751
					c0.203-1.089-0.162-2.07-0.815-2.192C132.572,142.176,131.878,142.96,131.675,144.049z"/>
				<g>
					<path style="fill:#312A3C;" d="M135.21,139.594c-0.626-0.393-1.315-0.622-2.059-0.616c-0.651,0.005-1.189,0.308-1.81,0.385
						c-0.225,0.028-0.398-0.281-0.228-0.448c1.107-1.09,3.275-0.533,4.395,0.23C135.758,139.316,135.471,139.758,135.21,139.594
						L135.21,139.594z"/>
				</g>
				<g>
					<path style="fill:#312A3C;" d="M144.579,140.837c1.32-0.308,3.543-0.046,4.182,1.37c0.098,0.216-0.174,0.444-0.375,0.336
						c-0.552-0.296-0.944-0.772-1.55-1.012c-0.693-0.274-1.418-0.309-2.143-0.168C144.394,141.421,144.279,140.907,144.579,140.837
						L144.579,140.837z"/>
				</g>
				<g>
					<path style="fill:#312A3C;" d="M140.283,154.862c-1.494,1.242-4.666,1.011-5.039-1.295c-0.046-0.287,0.342-0.373,0.495-0.177
						c0.522,0.672,0.807,1.332,1.648,1.677c0.938,0.384,1.955,0.17,2.765-0.397C140.276,154.583,140.396,154.768,140.283,154.862
						L140.283,154.862z"/>
				</g>
				<g>
					<path style="fill:#312A3C;" d="M139.733,141.706c-0.243,1.469-0.332,2.997-0.224,4.485c0.061,0.841,0.198,1.691,0.417,2.505
						c0.095,0.353,0.52,1.166,0.485,1.557c-0.096,1.083-1.48,1.145-2.383,1.3c-0.108,0.019-0.146-0.158-0.041-0.188
						c0.38-0.108,0.904-0.188,1.234-0.416c1.012-0.698,0.63-0.992,0.394-1.798c-0.218-0.745-0.377-1.507-0.469-2.278
						c-0.215-1.796,0.006-3.451,0.549-5.175C139.702,141.675,139.737,141.68,139.733,141.706L139.733,141.706z"/>
				</g>
			</g>
			<g>
				<path style="fill:#312A3C;" d="M150.669,143.041c6.029,2.462,5.668,17.978,9.232,14.931c2.867-2.451,6.317-21.681,4.262-26.498
					c-5.291-12.402-38.01-28.101-35.446-6.355C129.867,134.875,140.692,138.967,150.669,143.041z"/>
				<path style="fill:#312A3C;" d="M117.183,147.762c-10.103-14.084-6.332-25.723,5.852-28.95
					c5.535-1.466,11.899-1.475,9.045,12.257C130.386,139.221,117.183,147.762,117.183,147.762z"/>
				<path style="fill:#312A3C;" d="M103.979,147.5c-3.876,5.512-7.611,11.488-8.255,18.195c-0.103,1.077-0.124,2.175,0.125,3.227
					c0.444,1.878,1.712,3.464,3.159,4.742c4.143,3.659,9.728,5.149,15.136,6.288c3.934,0.829,7.962,1.537,11.959,1.104
					c2.92-0.316,6.076-1.501,7.323-4.159c0.618-1.318,0.678-2.827,0.608-4.281c-0.215-4.409-1.549-8.759-3.845-12.529
					c-3.031-4.977-5.852-6.533-10.134-10.485c-1.619-1.494-5.977-11.743-6.442-13.907c-0.597-2.775-1.509-0.898-2.299,0.604
					C109.233,140.258,106.544,143.853,103.979,147.5z"/>
			</g>
			<g>
				<path style="fill:#FF948C;" d="M120.455,136.152c-1.87-1.011-3.946-0.049-4.775,1.723c-2.064,4.413,1.697,8.635,4.375,11.728
					C120.935,147.766,123.323,137.704,120.455,136.152z"/>
				<g>
					<g>
						<path style="fill:#312A3C;" d="M119.887,143.743c-0.023-1.172-0.084-2.394-0.58-3.478c-0.522-1.14-1.403-1.581-2.427-2.181
							c-0.192-0.112-0.158-0.419,0.082-0.441c1.151-0.107,2.077,0.866,2.59,1.813c0.706,1.304,0.716,2.818,0.644,4.261
							C120.187,143.91,119.891,143.947,119.887,143.743L119.887,143.743z"/>
					</g>
					<g>
						<path style="fill:#312A3C;" d="M118.973,139.92c-0.492,0.145-0.915,0.447-1.185,0.888c-0.11,0.181-0.193,0.379-0.24,0.585
							c-0.051,0.224-0.03,0.366-0.185,0.545c-0.094,0.108-0.289,0.108-0.368-0.021c-0.277-0.453,0.155-1.13,0.46-1.483
							c0.379-0.439,0.885-0.715,1.453-0.815C119.08,139.589,119.141,139.87,118.973,139.92L118.973,139.92z"/>
					</g>
				</g>
			</g>
		</g>
	</g>
</g>
</svg>
