<?xml version="1.0" encoding="utf-8"?>
<!-- Generator: Adobe Illustrator 27.5.0, SVG Export Plug-In . SVG Version: 6.00 Build 0)  -->
<svg version="1.1" xmlns="http://www.w3.org/2000/svg" xmlns:xlink="http://www.w3.org/1999/xlink" x="0px" y="0px"
	 viewBox="0 0 500 500" style="enable-background:new 0 0 500 500;" xml:space="preserve">
<g id="BACKGROUND">
	<rect style="fill:#D9F0FF;" width="500" height="500"/>
</g>
<g id="OBJECTS">
	<g>
		<path style="fill:#74C3A4;" d="M141.342,305.515l2.77-39.916c-20.729-15.882-46.65-25.327-74.782-25.327
			c-5.085,0-10.097,0.315-15.02,0.914l2.028,27.931l-25.154-22.81C19.997,249.952,9.523,255.169,0,261.674V500h144.895
			c28.69-41.659,47.515-98.104,47.515-136.648c0-30.511-11.107-58.425-29.492-79.93L141.342,305.515z"/>
		<path style="fill:#50A785;" d="M454.291,500c-9.346-19.903-25.207-36.14-44.847-45.944l-26.862,16.142l5.594-23.817
			c-7.149-1.667-14.598-2.552-22.254-2.552c-14.65,0-28.543,3.234-41.013,9.019l-9.332,26.746l-8.031-16.385
			c-12.789,9.562-23.149,22.19-30.003,36.791H454.291z"/>
		<g>
			<circle style="fill:#A9D4E4;" cx="455.258" cy="418.289" r="17.921"/>
			<path style="fill:none;stroke:#000200;stroke-linecap:round;stroke-linejoin:round;stroke-miterlimit:10;" d="M460.896,414.844
				c-7.204,8.312-17.052,14.297-27.748,16.862"/>
		</g>
		<g>
			
				<ellipse transform="matrix(0.7071 -0.7071 0.7071 0.7071 -101.8587 417.6476)" style="fill:#74C3A4;" cx="453.216" cy="331.778" rx="15.882" ry="15.882"/>
			<path style="fill:none;stroke:#000200;stroke-linecap:round;stroke-linejoin:round;stroke-miterlimit:10;" d="M438.283,351.693
				c7.821-6.983,14.281-15.484,18.914-24.89"/>
		</g>
	</g>
	<g>
		<circle style="fill:#FFADB5;" cx="307.317" cy="48.373" r="1.5"/>
		<circle style="fill:#FFFFFF;" cx="69.033" cy="18.042" r="1.5"/>
		<circle style="fill:#FB7D4D;" cx="96.176" cy="37.204" r="1.5"/>
		<circle style="fill:#A9D4E4;" cx="207.254" cy="276.386" r="1.5"/>
		<circle style="fill:#A9D4E4;" cx="64.401" cy="219.335" r="1.5"/>
		<circle style="fill:#FFFFFF;" cx="218.045" cy="302.127" r="1.5"/>
		<circle style="fill:#FB7D4D;" cx="478.757" cy="290.064" r="1.5"/>
		<circle style="fill:#FB7D4D;" cx="431.168" cy="383.7" r="1.5"/>
		<circle style="fill:#FFFFFF;" cx="474.485" cy="373.897" r="1.5"/>
		<circle style="fill:#FFADB5;" cx="423.658" cy="167.88" r="1.5"/>
		<circle style="fill:#A9D4E4;" cx="275.741" cy="443.83" r="1.5"/>
		<polygon style="fill:#A9D4E4;" points="312.828,83.31 307.953,91.754 317.703,91.754 		"/>
		<polygon style="fill:#FFFFFF;" points="28.156,195.754 23.281,204.198 33.031,204.198 		"/>
		<polygon style="fill:#FFADB5;" points="255.588,461.724 250.713,470.168 260.463,470.168 		"/>
		<polygon style="fill:#A9D4E4;" points="40.527,42.999 45.402,34.556 35.652,34.556 		"/>
		<polygon style="fill:#FB7D4D;" points="255.588,287.593 260.463,279.15 250.713,279.15 		"/>
		<polygon style="fill:#A9D4E4;" points="472.985,470.168 477.86,461.724 468.11,461.724 		"/>
	</g>
	<g>
		<g>
			<path style="fill:#FB7D4D;" d="M419.606,320.133c-2.244-0.722-4.896,0.077-6.366,1.919c-1.471,1.842-1.327,4.501-0.126,6.53
				c-1.03,0.547-1.678,2.058-1.724,3.223c-4.334,4.02-9.029,7.764-13.363,11.785c-0.076-15.588-0.142-31.255-0.218-46.842
				c-2.341-1.307-5.63-0.499-7.099,1.743c-1.469,2.243-0.68,5.497,1.454,7.121c-8.705,13.804-24.189,23.096-40.465,24.283
				c-4.752,26.494-9.618,52.72-14.371,79.214c19.866,1.556,39.332,2.508,59.198,4.064l27.132-87.765
				C423.538,323.051,421.85,320.855,419.606,320.133z"/>
			<path style="fill:none;stroke:#000200;stroke-linecap:round;stroke-linejoin:round;stroke-miterlimit:10;" d="M357.872,355.136
				c14.2,1.917,29.135-2.464,40.049-11.747"/>
			<path style="fill:none;stroke:#000200;stroke-linecap:round;stroke-linejoin:round;stroke-miterlimit:10;" d="M412.76,353.134
				c-1.468-0.394-2.495-2.006-2.231-3.503c0.264-1.497,1.781-2.661,3.296-2.528c-1.427-1.058-2.037-3.254-1.022-4.712
				c1.015-1.458,3.24-1.892,4.729-0.922"/>
			<path style="fill:none;stroke:#000200;stroke-linecap:round;stroke-linejoin:round;stroke-miterlimit:10;" d="M413.659,340.908
				c-1.38-0.487-2.36-1.931-2.303-3.394c0.057-1.462,1.146-2.826,2.559-3.204c1.414-0.379,3.038,0.258,3.819,1.496"/>
			<path style="fill:none;stroke:#000200;stroke-linecap:round;stroke-linejoin:round;stroke-miterlimit:10;" d="M412.594,334.583
				c-1.472-1.773-1.133-4.753,0.7-6.15c1.833-1.397,4.796-0.934,6.115,0.956"/>
		</g>
		<g>
			<path style="fill:#FFFFFF;" d="M48.727,354.723c-4.559,1.877-8.294,5.667-10.105,10.253c-1.811,4.586-0.808,10.634,1.366,15.059
				c13.456,27.388,26.912,54.776,40.368,82.164l73.861-12.551c9.121-24.403,18.722-49.095,27.843-73.499
				C138.261,365.534,90.397,337.563,48.727,354.723z"/>
			<path style="fill:none;stroke:#000200;stroke-linecap:round;stroke-linejoin:round;stroke-miterlimit:10;" d="M76.272,451.18
				c21.174-6.48,42.347-12.96,63.521-19.44"/>
			<path style="fill:none;stroke:#A9D4E4;stroke-linecap:round;stroke-linejoin:round;stroke-miterlimit:10;" d="M78.687,441.253
				c1.357,0.337,2.714,0.675,4.07,1.012"/>
			<path style="fill:none;stroke:#A9D4E4;stroke-linecap:round;stroke-linejoin:round;stroke-miterlimit:10;" d="M85.284,428.122
				c-0.106,1.119-0.213,2.237-0.319,3.356"/>
			<path style="fill:none;stroke:#A9D4E4;stroke-linecap:round;stroke-linejoin:round;stroke-miterlimit:10;" d="M67.941,425.472
				c1.295,0.1,2.591,0.201,3.886,0.302"/>
			<path style="fill:none;stroke:#A9D4E4;stroke-linecap:round;stroke-linejoin:round;stroke-miterlimit:10;" d="M64.059,401.647
				c-0.529,1-1.059,2-1.588,3"/>
			<path style="fill:none;stroke:#A9D4E4;stroke-linecap:round;stroke-linejoin:round;stroke-miterlimit:10;" d="M50.093,396.19
				c0.577,1.039,1.153,2.078,1.73,3.117"/>
			<path style="fill:none;stroke:#A9D4E4;stroke-linecap:round;stroke-linejoin:round;stroke-miterlimit:10;" d="M78.529,401.471
				c0.353,1.176,0.706,2.353,1.059,3.529"/>
			<path style="fill:none;stroke:#A9D4E4;stroke-linecap:round;stroke-linejoin:round;stroke-miterlimit:10;" d="M73.884,412.952
				c0.224,1.237,0.449,2.474,0.673,3.712"/>
			<path style="fill:none;stroke:#A9D4E4;stroke-linecap:round;stroke-linejoin:round;stroke-miterlimit:10;" d="M88.591,414.542
				c1.471-0.353,2.941-0.705,4.412-1.058"/>
			<path style="fill:none;stroke:#A9D4E4;stroke-linecap:round;stroke-linejoin:round;stroke-miterlimit:10;" d="M95.14,396.869
				c0.69,1.186,1.381,2.371,2.071,3.557"/>
			<path style="fill:none;stroke:#A9D4E4;stroke-linecap:round;stroke-linejoin:round;stroke-miterlimit:10;" d="M110.634,406.76
				c-0.412,1.235-0.824,2.47-1.236,3.706"/>
			<path style="fill:none;stroke:#A9D4E4;stroke-linecap:round;stroke-linejoin:round;stroke-miterlimit:10;" d="M102.358,423.507
				c1.295,0.29,2.59,0.58,3.885,0.87"/>
			<path style="fill:none;stroke:#A9D4E4;stroke-linecap:round;stroke-linejoin:round;stroke-miterlimit:10;" d="M132.352,407.655
				c1.412,0.236,2.823,0.472,4.235,0.707"/>
			<path style="fill:none;stroke:#A9D4E4;stroke-linecap:round;stroke-linejoin:round;stroke-miterlimit:10;" d="M143.824,414.882
				c1.412-0.294,2.824-0.588,4.235-0.882"/>
			<path style="fill:none;stroke:#A9D4E4;stroke-linecap:round;stroke-linejoin:round;stroke-miterlimit:10;" d="M150.38,395.12
				c-0.177,1.823-0.354,3.647-0.532,5.47"/>
			<path style="fill:none;stroke:#A9D4E4;stroke-linecap:round;stroke-linejoin:round;stroke-miterlimit:10;" d="M123.154,401.629
				c-0.999,1.236-1.999,2.472-2.998,3.707"/>
			<path style="fill:none;stroke:#A9D4E4;stroke-linecap:round;stroke-linejoin:round;stroke-miterlimit:10;" d="M122.928,418.779
				c0.254,1.29,0.507,2.581,0.761,3.871"/>
			<path style="fill:none;stroke:#A9D4E4;stroke-linecap:round;stroke-linejoin:round;stroke-miterlimit:10;" d="M98.824,436.765
				c1.118,0.294,2.235,0.588,3.353,0.882"/>
			<path style="fill:none;stroke:#A9D4E4;stroke-linecap:round;stroke-linejoin:round;stroke-miterlimit:10;" d="M117.176,434.823
				c0.353-1,0.706-2,1.059-3"/>
			<path style="fill:none;stroke:#A9D4E4;stroke-linecap:round;stroke-linejoin:round;stroke-miterlimit:10;" d="M136.359,424.326
				c1.003,0.582,2.007,1.165,3.01,1.747"/>
			<path style="fill:none;stroke:#A9D4E4;stroke-linecap:round;stroke-linejoin:round;stroke-miterlimit:10;" d="M58.658,394.606
				c0.349-1.354,0.698-2.708,1.047-4.062"/>
		</g>
		<g>
			<g>
				<path style="fill:none;stroke:#000200;stroke-linecap:round;stroke-linejoin:round;stroke-miterlimit:10;" d="M45.934,298.299
					c0.41,0.629,0.819,1.258,1.229,1.887c1.993-1.425,4.69-1.839,7.098-2.29c6.947-1.3,13.893-2.599,20.84-3.899"/>
				<path style="fill:#000200;" d="M83.198,299.887c-1.17-3.27-4.757-4.767-8.201-4.324c-8.062,1.036-15.741,2.316-23.815,3.248
					c-3.189,0.368-6.2,2.083-8.144,4.637c-1.944,2.554-2.534,6.225-2.481,9.435c0.055,3.294,0.111,6.588,0.166,9.883l34.291-6.934
					c1.824,0.492,3.923-0.342,4.912-1.951c0.989-1.609,0.832-3.86-0.432-5.264C82.659,307.185,84.368,303.157,83.198,299.887z"/>
			</g>
			<g>
				<path style="fill:#FB7D4D;" d="M78.243,320.447c-1.301-3.607-2.84-7.089-4.14-10.695c-6.824,0.761-13.491,1.474-20.315,2.236
					c-0.885,2.352-1.52,4.6-2.404,6.952c-2.735-1.72-6.49-1.646-9.156,0.181c-2.665,1.827-4.088,5.303-3.47,8.475
					c0.619,3.172,3.243,5.858,6.4,6.549c-0.659,9.466-1.406,18.676-2.065,28.141l27.316-13.402c-0.175-2.941-0.55-5.775-0.726-8.716
					c3.848-1.266,7.084-4.275,8.628-8.02C79.854,328.401,79.617,324.257,78.243,320.447z"/>
				<circle style="fill:#000200;" cx="61.943" cy="323.167" r="1"/>
				<circle style="fill:#000200;" cx="73.882" cy="321.591" r="1"/>
				<path style="fill:none;stroke:#000200;stroke-linecap:round;stroke-linejoin:round;stroke-miterlimit:10;" d="M70.83,321.877
					c0.767,1.368,1.534,2.736,2.301,4.104c-0.652,0.128-1.303,0.256-1.955,0.385"/>
				<path style="fill:none;stroke:#000200;stroke-linecap:round;stroke-linejoin:round;stroke-miterlimit:10;" d="M59.275,319.815
					c0.594-1.264,1.846-2.196,3.227-2.403c1.381-0.207,2.851,0.317,3.79,1.352"/>
				<path style="fill:none;stroke:#000200;stroke-linecap:round;stroke-linejoin:round;stroke-miterlimit:10;" d="M71.683,317.16
					c0.723-0.954,2.041-1.412,3.2-1.112"/>
				<path style="fill:none;stroke:#000200;stroke-linecap:round;stroke-linejoin:round;stroke-miterlimit:10;" d="M66.279,328.345
					c0.094,0.633,0.63,1.176,1.262,1.277c0.632,0.102,1.311-0.245,1.599-0.817"/>
				<path style="fill:none;stroke:#000200;stroke-linecap:round;stroke-linejoin:round;stroke-miterlimit:10;" d="M43.862,322.567
					c1.517,0.809,3.035,1.618,4.552,2.428"/>
				<path style="fill:none;stroke:#000200;stroke-linecap:round;stroke-linejoin:round;stroke-miterlimit:10;" d="M44.723,334.231
					c1.809,0.5,3.8,0.306,5.478-0.534"/>
				<path style="fill:none;stroke:#000200;stroke-linecap:round;stroke-linejoin:round;stroke-miterlimit:10;" d="M57.982,338.562
					c4.189,2.287,9.378,2.659,13.85,0.992"/>
			</g>
		</g>
		<g>
			<g>
				<path style="fill:#FFD990;" d="M356.32,351.35l-177.41,4.77c2.73-7.49,7.49-14.13,13.5-19.36c7.97-6.94,18.14-11.38,28.7-11.97
					c2.67-0.15,5.35-0.3,8.02-0.44c12.32-0.66,24.64-1.23,36.97-1.68c19.85-0.73,39.72-1.15,59.59-1.15c8.66,0,17.34,0.08,26,0.25
					C353.12,331.55,354.89,341.57,356.32,351.35z"/>
				<path style="fill:#EF9F4A;" d="M325.69,321.52c-0.06,1.4-0.38,2.78-0.96,4.07c-1.99,4.4-6.95,7.25-11.75,6.77
					c-3.91-0.4-7.6-2.77-11.5-2.22c-6.16,0.87-9.17,8.29-14.85,10.84c-5.6,2.52-12.49-0.59-16.06-5.6
					c-2.64-3.7-3.85-8.16-4.47-12.71C285.95,321.94,305.82,321.52,325.69,321.52z"/>
				<path style="fill:#EF9F4A;" d="M342.653,335.483c-2.588-3.905-7.885-5.772-12.349-4.353c-4.464,1.419-7.711,6.002-7.569,10.684
					l19.115,6.738C344.896,344.993,345.24,339.387,342.653,335.483z"/>
				<path style="fill:#EF9F4A;" d="M229.13,324.35c0.15,4.21-0.96,8.47-3.29,11.98c-4,6.03-11.43,9.61-18.65,8.97
					c-5.85-0.51-11.36-3.78-14.78-8.54c7.97-6.94,18.14-11.38,28.7-11.97C223.78,324.64,226.46,324.49,229.13,324.35z"/>
				<path style="fill:none;stroke:#000200;stroke-linecap:round;stroke-linejoin:round;stroke-miterlimit:10;" d="M338.558,322.021
					c0.997,6.95,1.994,13.9,2.991,20.85"/>
			</g>
			<g>
				<path style="fill:#FFD990;" d="M307.6,339.37c-15.25-1.91-31.36-3.88-50.14-5.97c-4.43-0.49-8.92-0.88-13.38-0.94
					c-7.77-0.13-15.46,0.73-22.65,3.7c-11.32,4.68-19.41,13.38-26.9,23.08c-12.15,15.73-23.78,31.17-35.51,46.66
					c-7.94,10.5-15.94,21.03-24.18,31.69c-5.85,1.84-11.67,3.75-17.47,5.68c-13.99,4.65-27.88,9.46-41.99,13.9
					c2.83,5.33,5.66,10.65,8.5,15.98c6.248,11.741,16.807,20.934,29.037,26.85h64.574c9.282-4.479,17.659-10.824,24.299-18.71
					c11.71-13.9,21.64-29.59,31.51-45.18c2.99-4.72,5.96-9.42,8.98-14.06c2.09-3.21,4.19-6.38,6.33-9.51
					c4.79,0.27,9.58,0.54,14.37,0.82c1.84,0.11,3.68,0.22,5.52,0.33c23.97,1.41,47.95,2.93,71.92,4.27l5.42-19.21l4.86-17.22v-0.01
					l2.97-10.53l7.04-24.96C342.24,343.8,325.51,341.62,307.6,339.37z"/>
				<path style="fill:#EF9F4A;" d="M307.6,339.37c-0.39,1.19-0.94,2.32-1.64,3.37c-2.49,3.74-6.78,6.21-11.26,6.48
					c-3.7,0.23-7.57-0.93-11.04,0.38c-4.05,1.51-6.22,5.85-9.55,8.62c-6.89,5.76-18.2,3.43-24.08-3.36
					c-5.2-6.01-6.75-14.41-5.95-22.4c4.46,0.06,8.95,0.45,13.38,0.94C276.24,335.49,292.35,337.46,307.6,339.37z"/>
				<path style="fill:#EF9F4A;" d="M345.84,398.75l-5.42,19.21c-23.97-1.34-47.95-2.86-71.92-4.27
					c2.73-10.12,9.75-19.15,19.23-23.69c13.69-6.56,31.97-2.57,42.38,8.49c2.1-3.18,6.27-4.82,9.98-3.94
					C342.46,395.11,344.54,396.69,345.84,398.75z"/>
				<path style="fill:#EF9F4A;" d="M116.176,481.727c0-3.98-3.227-7.207-7.207-7.207c-3.981,0-7.207,3.227-7.207,7.207
					c0,3.981,3.227,7.207,7.207,7.207C112.95,488.934,116.176,485.707,116.176,481.727z"/>
				<circle style="fill:#EF9F4A;" cx="192.046" cy="417.048" r="7.207"/>
				<path style="fill:#EF9F4A;" d="M353.67,370.99l-2.97,10.53v0.01c-0.92,0.43-1.95,0.67-3.03,0.67c-3.98,0-7.21-3.23-7.21-7.21
					c0-3.98,3.23-7.21,7.21-7.21C350.17,367.78,352.37,369.05,353.67,370.99z"/>
				<path style="fill:#EF9F4A;" d="M176.49,424.52c-0.05,4.39-3.24,8.87-7.61,9.28c-2.06,0.2-4.09-0.49-6.06-1.13
					c-1.97-0.64-4.04-1.25-6.08-0.91c-2.04,0.33-4.03,1.92-4.12,3.99c-0.08,1.67,1.07,3.17,2.4,4.19c1.32,1.03,2.87,1.75,4.13,2.86
					c4.03,3.53,3.93,10.33,0.69,14.6c-3.25,4.27-8.81,6.24-14.17,6.46c-6.96,0.28-14-2.14-19.32-6.63
					c-4.3-3.62-7.44-8.56-8.98-13.96c5.8-1.93,11.62-3.84,17.47-5.68c8.24-10.66,16.24-21.19,24.18-31.69
					c4.5,1.33,8.67,3.73,11.99,7.05C174.1,416.06,176.54,420.14,176.49,424.52z"/>
				<path style="fill:#EF9F4A;" d="M262.98,413.36c-4.79-0.28-9.58-0.55-14.37-0.82c-2.14,3.13-4.24,6.3-6.33,9.51
					c-1.65-1.92-2.7-4.36-2.54-6.86c0.21-3.27,2.87-6.41,6.14-6.51c0.86-0.03,1.72,0.14,2.56,0.01c0.85-0.13,1.72-0.68,1.84-1.53
					c0.16-1.14-1.14-2-2.29-2.01c-1.15-0.02-2.25,0.47-3.4,0.56c-2.74,0.2-5.28-2.18-5.66-4.9c-0.38-2.72,1.13-5.5,3.4-7.04
					c2.28-1.55,5.18-1.97,7.9-1.64c5.12,0.64,9.82,3.96,12.13,8.57C264.31,404.59,264.5,409.3,262.98,413.36z"/>
				<path style="fill:none;stroke:#000200;stroke-linecap:round;stroke-linejoin:round;stroke-miterlimit:10;" d="M199.327,353.189
					c11.834-15.294,32.31-23.393,51.404-20.333c34.713,5.563,69.985,7.668,104.903,11.752"/>
				<path style="fill:none;stroke:#000200;stroke-linecap:round;stroke-linejoin:round;stroke-miterlimit:10;" d="M345.665,344.012
					c-5.478,24.103-10.955,48.205-16.433,72.308"/>
				<path style="fill:none;stroke:#000200;stroke-linecap:round;stroke-linejoin:round;stroke-miterlimit:10;" d="M236.068,407.751
					c4.242,1.271,8.484,2.542,12.727,3.813c-3.059,0.94-6.257,1.701-9.316,2.641"/>
				<path style="fill:#EF9F4A;" d="M213.28,429.16c-7.63-0.14-15.44,2.82-20.46,8.57c-5.03,5.76-6.87,14.35-3.9,21.39
					c1.01,2.4,2.54,4.61,3.11,7.16c0.57,2.55-0.19,5.7-2.59,6.73c-1.81,0.78-3.88,0.12-5.82-0.28c-7.31-1.5-15.34,1.21-20.23,6.85
					c-4.769,5.479-6.372,13.522-4.132,20.42h18.233c9.282-4.479,17.659-10.824,24.299-18.71c11.71-13.9,21.64-29.59,31.51-45.18
					C227.42,431.99,220.45,429.29,213.28,429.16z"/>
			</g>
		</g>
		<g>
			<path style="fill:#FB7D4D;" d="M329.953,367.849c-2.578-0.544-5.263-1.159-7.841-1.703l-13.392-10.187
				c-18.981-4.138-38.184-3.623-57.611-3.467c-61.81,0.498-124.575,1.423-185.753-7.409c-10.842-1.565-22.248,6.015-25.003,16.618
				c-2.755,10.602,3.516,22.777,13.749,26.689c22.572,8.629,46.854,10.376,71.009,9.675c45.956-1.334,90.034-5.542,135.931-8.221
				c10.749-0.627,19.586-7.864,27.35-15.324c7.524,0.217,14.955,0.225,22.48,0.442c1.1,0.032,2.23,0.059,3.269-0.306
				c1.039-0.366,1.981-1.217,2.125-2.308c-1.903-0.646-3.682-1.45-5.584-2.096c4.663,0.224,9.099,0.554,13.762,0.778
				c1.219,0.059,2.485,0.11,3.613-0.358C329.184,370.202,330.129,369.057,329.953,367.849z"/>
			<path style="fill:none;stroke:#000200;stroke-linecap:round;stroke-linejoin:round;stroke-miterlimit:10;" d="M43.713,354.622
				c5.927-7.931,16.953-11.641,26.468-8.905"/>
			<path style="fill:none;stroke:#000200;stroke-linecap:round;stroke-linejoin:round;stroke-miterlimit:10;" d="M291.06,364.208
				c7.145,2.106,14.291,4.211,21.436,6.317"/>
			<path style="fill:none;stroke:#000200;stroke-linecap:round;stroke-linejoin:round;stroke-miterlimit:10;" d="M291.862,359.026
				c10.353,2.413,20.705,4.826,31.058,7.239"/>
			<path style="fill:none;stroke:#000200;stroke-linecap:round;stroke-linejoin:round;stroke-miterlimit:10;" d="M291.713,354.58
				c4.177,0.226,8.354,0.453,12.531,0.679"/>
		</g>
	</g>
	<g>
		<g>
			<path style="fill:none;stroke:#000200;stroke-linecap:round;stroke-linejoin:round;stroke-miterlimit:10;" d="M393.657,134.529
				c26.671,7.847,56.435,4.553,80.745-8.936"/>
			<g>
				<polygon style="fill:#50A785;" points="388.948,138.495 406.939,146.997 401.101,135.876 412.335,129.645 390.24,126.699 				
					"/>
				<path style="fill:#FE5615;" d="M337.751,133.755l18.874-5.978l-15.78-16.795l22.707,0.163l-8.235-15.148l33.123,20.732
					c14.29,8.945,4.893,31-11.457,26.89L337.751,133.755z"/>
			</g>
		</g>
		<path style="fill:#FFFFFF;" d="M368.647,45.355L349.814,55.68c13.672,22.108,35.238,38.815,60.768,46.185l27.173-19.807
			l-2.727,23.837c1.662,0.077,3.333,0.121,5.014,0.121c22.255,0,42.904-6.863,59.958-18.58V0H334.024
			c0,13.528,2.538,26.461,7.157,38.356L368.647,45.355z"/>
		<g>
			
				<ellipse transform="matrix(0.7071 -0.7071 0.7071 0.7071 18.3117 376.1318)" style="fill:#50A785;" cx="463.187" cy="165.962" rx="15.882" ry="15.882"/>
			<path style="fill:none;stroke:#000200;stroke-linecap:round;stroke-linejoin:round;stroke-miterlimit:10;" d="M460.318,169.936
				c7.933-6.037,14.61-13.716,19.487-22.41"/>
		</g>
		<g>
			<circle style="fill:#A9D4E4;" cx="245.205" cy="35.963" r="17.921"/>
			<path style="fill:none;stroke:#000200;stroke-linecap:round;stroke-linejoin:round;stroke-miterlimit:10;" d="M243.137,35.654
				c9.343,4.466,19.631,6.943,29.984,7.219"/>
		</g>
		<g>
			
				<ellipse transform="matrix(0.7071 -0.7071 0.7071 0.7071 12.1697 136.3664)" style="fill:#74C3A4;" cx="170.694" cy="53.493" rx="15.882" ry="15.882"/>
			<path style="fill:none;stroke:#000200;stroke-linecap:round;stroke-linejoin:round;stroke-miterlimit:10;" d="M167.312,53.493
				c9.824,2.291,20.258,1.905,29.886-1.105"/>
		</g>
	</g>
</g>
</svg>
