<?xml version="1.0" encoding="utf-8"?>
<!-- Generator: Adobe Illustrator 27.5.0, SVG Export Plug-In . SVG Version: 6.00 Build 0)  -->
<svg version="1.1" xmlns="http://www.w3.org/2000/svg" xmlns:xlink="http://www.w3.org/1999/xlink" x="0px" y="0px"
	 viewBox="0 0 500 500" style="enable-background:new 0 0 500 500;" xml:space="preserve">
<g id="Background_complete">
	<g>
		<g>
			<g>
				<g>
					<path style="fill:#F0F0F0;" d="M444.708,349.145H263.962c-3.232,0-5.862-2.63-5.862-5.862V80.009
						c0-3.232,2.63-5.862,5.862-5.862h180.746c3.232,0,5.862,2.629,5.862,5.862v263.273
						C450.57,346.515,447.94,349.145,444.708,349.145z M263.962,74.397c-3.095,0-5.612,2.518-5.612,5.612v263.273
						c0,3.095,2.518,5.612,5.612,5.612h180.746c3.095,0,5.612-2.518,5.612-5.612V80.009c0-3.094-2.518-5.612-5.612-5.612H263.962z"
						/>
				</g>
			</g>
			<g>
				<g>
					<path style="fill:#F0F0F0;" d="M236.28,349.145H55.534c-3.232,0-5.862-2.63-5.862-5.862V80.009
						c0-3.232,2.629-5.862,5.862-5.862H236.28c3.232,0,5.862,2.629,5.862,5.862v263.273
						C242.143,346.515,239.513,349.145,236.28,349.145z M55.534,74.397c-3.094,0-5.612,2.518-5.612,5.612v263.273
						c0,3.095,2.518,5.612,5.612,5.612H236.28c3.095,0,5.612-2.518,6.345-6.168V79.454c-0.732-2.539-3.25-5.056-6.345-5.056H55.534z
						"/>
				</g>
			</g>
		</g>
		<g>
			<g>
				<rect x="0" y="410.214" style="fill:#F0F0F0;" width="500" height="0.25"/>
			</g>
		</g>
	</g>
	<path style="fill:#F5F5F5;" d="M178.21,95.535h-5.272v4.605c-1.594,0.3-3.078,0.915-4.379,1.785l-3.493-3.493l-3.728,3.728l3.6,3.6
		c-0.543,0.914-0.964,1.904-1.246,2.954h-4.812v5.272h4.605c0.3,1.594,0.915,3.078,1.785,4.38l-3.054,3.054l3.728,3.728l3.161-3.161
		c1.166,0.692,2.455,1.193,3.833,1.453v4.606h5.272v-4.812c1.468-0.395,2.822-1.063,4.007-1.95l3.514,3.514l3.728-3.728l-3.81-3.81
		c0.53-1.015,0.916-2.113,1.134-3.272h4.605v-5.272h-4.812c-0.283-1.05-0.704-2.041-1.246-2.954l3.6-3.6l-3.727-3.728l-3.493,3.493
		c-1.058-0.708-2.24-1.239-3.501-1.579V95.535z M179.968,111.789c0,2.665-2.168,4.833-4.833,4.833c-2.665,0-4.832-2.168-4.832-4.833
		c0-2.664,2.168-4.832,4.832-4.832C177.799,106.957,179.968,109.125,179.968,111.789z"/>
	<path style="fill:#F5F5F5;" d="M81.34,151.007h-5.272v4.605c-1.594,0.3-3.078,0.915-4.379,1.785l-3.493-3.493l-3.728,3.728l3.6,3.6
		c-0.543,0.914-0.964,1.905-1.246,2.954H62.01v5.272h4.605c0.3,1.594,0.915,3.078,1.785,4.379l-3.054,3.054l3.728,3.728l3.161-3.161
		c1.166,0.692,2.455,1.194,3.833,1.453v4.605h5.272v-4.812c1.468-0.395,2.822-1.063,4.007-1.951l3.514,3.514l3.728-3.728l-3.81-3.81
		c0.53-1.014,0.916-2.113,1.134-3.273h4.605v-5.272h-4.812c-0.283-1.05-0.704-2.041-1.246-2.954l3.6-3.6l-3.727-3.728l-3.493,3.493
		c-1.058-0.708-2.24-1.239-3.501-1.578V151.007z M83.097,167.261c0,2.665-2.169,4.833-4.833,4.833c-2.664,0-4.832-2.168-4.832-4.833
		c0-2.664,2.168-4.832,4.832-4.832C80.928,162.429,83.097,164.597,83.097,167.261z"/>
	<path style="fill:#F5F5F5;" d="M95.71,270.221H84.079v10.16c-3.517,0.662-6.79,2.018-9.661,3.938l-7.707-7.707l-8.224,8.224
		l7.943,7.943c-1.197,2.016-2.126,4.202-2.75,6.518H53.065v11.63h10.16c0.662,3.517,2.018,6.79,3.938,9.662l-6.738,6.738
		l8.224,8.224l6.974-6.974c2.572,1.527,5.417,2.633,8.456,3.205v10.16H95.71v-10.616c3.239-0.872,6.225-2.346,8.841-4.303
		l7.753,7.753l8.224-8.224l-8.405-8.405c1.169-2.238,2.022-4.662,2.503-7.22h10.16v-11.63H114.17
		c-0.623-2.316-1.552-4.502-2.75-6.518l7.943-7.943l-8.223-8.224l-7.707,7.707c-2.335-1.562-4.942-2.734-7.723-3.482V270.221z
		 M99.587,306.082c0,5.879-4.784,10.661-10.662,10.661c-5.878,0-10.661-4.783-10.661-10.661c0-5.878,4.783-10.661,10.661-10.661
		C94.803,295.421,99.587,300.203,99.587,306.082z"/>
</g>
<g id="Background_simple" style="display:none;">
	<g style="display:inline;">
		<path style="fill:#407BFF;" d="M169.246,336.761c-38.884-11.198-92.847-59.061-96.028-100.689
			c-2.178-28.5,4.08-49.87,28.94-69.185c63.789-49.559,128.216,41.699,198.617-22.56c81.669-74.544,163.996-21.16,140.232,65.182
			C416.804,297.446,302.794,375.222,169.246,336.761z"/>
		<path style="opacity:0.9;fill:#FFFFFF;" d="M169.246,336.761c-38.884-11.198-92.847-59.061-96.028-100.689
			c-2.178-28.5,4.08-49.87,28.94-69.185c63.789-49.559,128.216,41.699,198.617-22.56c81.669-74.544,163.996-21.16,140.232,65.182
			C416.804,297.446,302.794,375.222,169.246,336.761z"/>
	</g>
</g>
<g id="Shadow">
	<path style="fill:#F5F5F5;" d="M456,440.816c0,3.521-89.514,6.375-199.935,6.375c-110.421,0-199.935-2.854-199.935-6.375
		c0-3.521,89.514-6.375,199.935-6.375C366.486,434.441,456,437.295,456,440.816z"/>
</g>
<g id="Plant">
	<g>
		<g>
			<path style="fill:#263238;" d="M367.372,436.806l6.468-35.034h-43.989l6.468,35.034c0.41,2.218,2.344,3.828,4.6,3.828h21.852
				C365.028,440.634,366.962,439.024,367.372,436.806z"/>
			<rect x="327.143" y="400.122" style="fill:#263238;" width="49.405" height="4.81"/>
			<rect x="327.143" y="400.122" style="opacity:0.2;fill:#FFFFFF;" width="49.405" height="4.81"/>
			<g>
				<g>
					<path style="fill:#407BFF;" d="M352.612,397.509c0,0,0.201-16.628-24.424-18.306
						C328.188,379.203,331.125,398.08,352.612,397.509z"/>
				</g>
				<g>
					<path style="fill:#407BFF;" d="M352.433,387.544c0,0-3.902-16.165,19.729-23.29
						C372.162,364.254,373.507,383.312,352.433,387.544z"/>
				</g>
				<g>
					<path style="fill:#407BFF;" d="M350.841,375.635c0,0-0.334-16.626-25-17.512C325.841,358.123,329.383,376.897,350.841,375.635z
						"/>
				</g>
				<g>
					<path style="fill:#407BFF;" d="M348.063,363.875c0,0,16.447,2.453,21.449-21.717
						C369.512,342.159,350.41,342.509,348.063,363.875z"/>
				</g>
				<g>
					<path style="fill:#407BFF;" d="M353.093,400.122c-0.204-41.741-14.241-58.127-14.384-58.289
						c-0.182-0.205-0.493-0.222-0.693-0.043c-0.203,0.18-0.222,0.49-0.043,0.693c0.141,0.159,13.937,16.267,14.139,57.639H353.093z"
						/>
				</g>
			</g>
		</g>
	</g>
</g>
<g id="Sudoku">
	<g>
		<rect x="209.41" y="99.966" style="fill:#FFFFFF;" width="218.579" height="218.579"/>
		<g>
			<rect x="233.367" y="124.103" style="fill:#407BFF;" width="24.465" height="23.876"/>
			<rect x="233.367" y="124.103" style="opacity:0.6;fill:#FFFFFF;" width="24.465" height="23.876"/>
		</g>
		<g>
			<rect x="306.466" y="172.951" style="fill:#407BFF;" width="24.465" height="23.876"/>
			<rect x="306.466" y="172.951" style="opacity:0.6;fill:#FFFFFF;" width="24.465" height="23.876"/>
		</g>
		<g>
			<rect x="403.933" y="124.103" style="fill:#407BFF;" width="24.465" height="23.876"/>
			<rect x="403.933" y="124.103" style="opacity:0.6;fill:#FFFFFF;" width="24.465" height="23.876"/>
		</g>
		<g>
			<rect x="379.566" y="196.82" style="fill:#407BFF;" width="24.465" height="23.876"/>
			<rect x="379.566" y="196.82" style="opacity:0.6;fill:#FFFFFF;" width="24.465" height="23.876"/>
		</g>
		<g>
			<rect x="379.566" y="294.783" style="fill:#407BFF;" width="24.465" height="23.876"/>
			<rect x="379.566" y="294.783" style="opacity:0.6;fill:#FFFFFF;" width="24.465" height="23.876"/>
		</g>
		<g>
			<rect x="233.367" y="246.05" style="fill:#407BFF;" width="24.465" height="23.876"/>
			<rect x="233.367" y="246.05" style="opacity:0.6;fill:#FFFFFF;" width="24.465" height="23.876"/>
		</g>
		<g>
			<rect x="355.2" y="99.851" style="fill:#407BFF;" width="24.465" height="23.876"/>
			<rect x="355.2" y="99.851" style="opacity:0.6;fill:#FFFFFF;" width="24.465" height="23.876"/>
		</g>
		<g>
			<rect x="257.734" y="196.82" style="fill:#407BFF;" width="24.465" height="23.876"/>
			<rect x="257.734" y="196.82" style="opacity:0.6;fill:#FFFFFF;" width="24.465" height="23.876"/>
		</g>
		<g>
			<rect x="282.1" y="270.416" style="fill:#407BFF;" width="24.465" height="23.876"/>
			<rect x="282.1" y="270.416" style="opacity:0.6;fill:#FFFFFF;" width="24.465" height="23.876"/>
		</g>
		<g>
			<g>
				<path style="fill:#263238;" d="M258.142,148.699h-25.086v-25.086h25.086V148.699z M233.776,147.979h23.647v-23.647h-23.647
					V147.979z"/>
			</g>
			<g>
				<path style="fill:#263238;" d="M233.776,124.332H208.69V99.246h25.086V124.332z M209.41,123.613h23.647V99.966H209.41V123.613z"
					/>
			</g>
			<g>
				<path style="fill:#263238;" d="M258.142,124.332h-25.086V99.246h25.086V124.332z M233.776,123.613h23.647V99.966h-23.647
					V123.613z"/>
			</g>
			<g>
				<path style="fill:#263238;" d="M282.509,124.332h-25.086V99.246h25.086V124.332z M258.142,123.613h23.647V99.966h-23.647
					V123.613z"/>
			</g>
			<g>
				<path style="fill:#263238;" d="M233.776,148.699H208.69v-25.086h25.086V148.699z M209.41,147.979h23.647v-23.647H209.41V147.979
					z"/>
			</g>
			<g>
				<path style="fill:#263238;" d="M282.509,148.699h-25.086v-25.086h25.086V148.699z M258.142,147.979h23.647v-23.647h-23.647
					V147.979z"/>
			</g>
			<g>
				<path style="fill:#263238;" d="M233.776,173.065H208.69v-25.086h25.086V173.065z M209.41,172.346h23.647v-23.647H209.41V172.346
					z"/>
			</g>
			<g>
				<path style="fill:#263238;" d="M258.142,173.065h-25.086v-25.086h25.086V173.065z M233.776,172.346h23.647v-23.647h-23.647
					V172.346z"/>
			</g>
			<g>
				<path style="fill:#263238;" d="M282.509,173.065h-25.086v-25.086h25.086V173.065z M258.142,172.346h23.647v-23.647h-23.647
					V172.346z"/>
			</g>
		</g>
		<g>
			<g>
				<path style="fill:#263238;" d="M355.609,173.065h-73.819V99.246h73.819V173.065z M282.509,172.346h72.38v-72.38h-72.38V172.346z
					"/>
			</g>
			<g>
				<path style="fill:#263238;" d="M306.875,124.332h-25.086V99.246h25.086V124.332z M282.509,123.613h23.647V99.966h-23.647
					V123.613z"/>
			</g>
			<g>
				<path style="fill:#263238;" d="M331.242,124.332h-25.086V99.246h25.086V124.332z M306.875,123.613h23.647V99.966h-23.647
					V123.613z"/>
			</g>
			<g>
				<path style="fill:#263238;" d="M355.609,124.332h-25.086V99.246h25.086V124.332z M331.242,123.613h23.647V99.966h-23.647
					V123.613z"/>
			</g>
			<g>
				<path style="fill:#263238;" d="M306.875,148.699h-25.086v-25.086h25.086V148.699z M282.509,147.979h23.647v-23.647h-23.647
					V147.979z"/>
			</g>
			<g>
				<path style="fill:#263238;" d="M355.609,148.699h-25.086v-25.086h25.086V148.699z M331.242,147.979h23.647v-23.647h-23.647
					V147.979z"/>
			</g>
			<g>
				<path style="fill:#263238;" d="M306.875,173.065h-25.086v-25.086h25.086V173.065z M282.509,172.346h23.647v-23.647h-23.647
					V172.346z"/>
			</g>
			<g>
				<path style="fill:#263238;" d="M331.242,173.065h-25.086v-25.086h25.086V173.065z M306.875,172.346h23.647v-23.647h-23.647
					V172.346z"/>
			</g>
			<g>
				<path style="fill:#263238;" d="M355.609,173.065h-25.086v-25.086h25.086V173.065z M331.242,172.346h23.647v-23.647h-23.647
					V172.346z"/>
			</g>
		</g>
		<g>
			<g>
				<path style="fill:#263238;" d="M428.708,173.065h-73.819V99.246h73.819V173.065z M355.609,172.346h72.38v-72.38h-72.38V172.346z
					"/>
			</g>
			<g>
				<path style="fill:#263238;" d="M379.975,124.332h-25.086V99.246h25.086V124.332z M355.609,123.613h23.647V99.966h-23.647
					V123.613z"/>
			</g>
			<g>
				<path style="fill:#263238;" d="M404.342,124.332h-25.086V99.246h25.086V124.332z M379.975,123.613h23.647V99.966h-23.647
					V123.613z"/>
			</g>
			<g>
				<path style="fill:#263238;" d="M428.708,124.332h-25.086V99.246h25.086V124.332z M404.342,123.613h23.647V99.966h-23.647
					V123.613z"/>
			</g>
			<g>
				<path style="fill:#263238;" d="M379.975,148.699h-25.086v-25.086h25.086V148.699z M355.609,147.979h23.647v-23.647h-23.647
					V147.979z"/>
			</g>
			<g>
				<path style="fill:#263238;" d="M428.708,148.699h-25.086v-25.086h25.086V148.699z M404.342,147.979h23.647v-23.647h-23.647
					V147.979z"/>
			</g>
			<g>
				<path style="fill:#263238;" d="M379.975,173.065h-25.086v-25.086h25.086V173.065z M355.609,172.346h23.647v-23.647h-23.647
					V172.346z"/>
			</g>
			<g>
				<path style="fill:#263238;" d="M404.342,173.065h-25.086v-25.086h25.086V173.065z M379.975,172.346h23.647v-23.647h-23.647
					V172.346z"/>
			</g>
			<g>
				<path style="fill:#263238;" d="M428.708,173.065h-25.086v-25.086h25.086V173.065z M404.342,172.346h23.647v-23.647h-23.647
					V172.346z"/>
			</g>
		</g>
		<g>
			<g>
				<path style="fill:#263238;" d="M282.509,246.165H208.69v-73.819h73.819V246.165z M209.41,245.445h72.38v-72.38h-72.38V245.445z"
					/>
			</g>
			<g>
				<path style="fill:#263238;" d="M233.776,197.432H208.69v-25.086h25.086V197.432z M209.41,196.712h23.647v-23.647H209.41V196.712
					z"/>
			</g>
			<g>
				<path style="fill:#263238;" d="M258.142,197.432h-25.086v-25.086h25.086V197.432z M233.776,196.712h23.647v-23.647h-23.647
					V196.712z"/>
			</g>
			<g>
				<path style="fill:#263238;" d="M282.509,197.432h-25.086v-25.086h25.086V197.432z M258.142,196.712h23.647v-23.647h-23.647
					V196.712z"/>
			</g>
			<g>
				<path style="fill:#263238;" d="M233.776,221.798H208.69v-25.086h25.086V221.798z M209.41,221.079h23.647v-23.647H209.41V221.079
					z"/>
			</g>
			<g>
				<path style="fill:#263238;" d="M282.509,221.798h-25.086v-25.086h25.086V221.798z M258.142,221.079h23.647v-23.647h-23.647
					V221.079z"/>
			</g>
			<g>
				<path style="fill:#263238;" d="M233.776,246.165H208.69v-25.086h25.086V246.165z M209.41,245.445h23.647v-23.647H209.41V245.445
					z"/>
			</g>
			<g>
				<path style="fill:#263238;" d="M258.142,246.165h-25.086v-25.086h25.086V246.165z M233.776,245.445h23.647v-23.647h-23.647
					V245.445z"/>
			</g>
			<g>
				<path style="fill:#263238;" d="M282.509,246.165h-25.086v-25.086h25.086V246.165z M258.142,245.445h23.647v-23.647h-23.647
					V245.445z"/>
			</g>
		</g>
		<g>
			<g>
				<path style="fill:#263238;" d="M355.609,246.165h-73.819v-73.819h73.819V246.165z M282.509,245.445h72.38v-72.38h-72.38V245.445
					z"/>
			</g>
			<g>
				<path style="fill:#263238;" d="M306.875,197.432h-25.086v-25.086h25.086V197.432z M282.509,196.712h23.647v-23.647h-23.647
					V196.712z"/>
			</g>
			<g>
				<path style="fill:#263238;" d="M331.242,197.432h-25.086v-25.086h25.086V197.432z M306.875,196.712h23.647v-23.647h-23.647
					V196.712z"/>
			</g>
			<g>
				<path style="fill:#263238;" d="M355.609,197.432h-25.086v-25.086h25.086V197.432z M331.242,196.712h23.647v-23.647h-23.647
					V196.712z"/>
			</g>
			<g>
				<path style="fill:#263238;" d="M306.875,221.798h-25.086v-25.086h25.086V221.798z M282.509,221.079h23.647v-23.647h-23.647
					V221.079z"/>
			</g>
			<g>
				<path style="fill:#263238;" d="M355.609,221.798h-25.086v-25.086h25.086V221.798z M331.242,221.079h23.647v-23.647h-23.647
					V221.079z"/>
			</g>
			<g>
				<path style="fill:#263238;" d="M306.875,246.165h-25.086v-25.086h25.086V246.165z M282.509,245.445h23.647v-23.647h-23.647
					V245.445z"/>
			</g>
			<g>
				<path style="fill:#263238;" d="M331.242,246.165h-25.086v-25.086h25.086V246.165z M306.875,245.445h23.647v-23.647h-23.647
					V245.445z"/>
			</g>
			<g>
				<path style="fill:#263238;" d="M355.609,246.165h-25.086v-25.086h25.086V246.165z M331.242,245.445h23.647v-23.647h-23.647
					V245.445z"/>
			</g>
		</g>
		<g>
			<g>
				<path style="fill:#263238;" d="M428.708,246.165h-73.819v-73.819h73.819V246.165z M355.609,245.445h72.38v-72.38h-72.38V245.445
					z"/>
			</g>
			<g>
				<path style="fill:#263238;" d="M379.975,197.432h-25.086v-25.086h25.086V197.432z M355.609,196.712h23.647v-23.647h-23.647
					V196.712z"/>
			</g>
			<g>
				<path style="fill:#263238;" d="M404.342,197.432h-25.086v-25.086h25.086V197.432z M379.975,196.712h23.647v-23.647h-23.647
					V196.712z"/>
			</g>
			<g>
				<path style="fill:#263238;" d="M428.708,197.432h-25.086v-25.086h25.086V197.432z M404.342,196.712h23.647v-23.647h-23.647
					V196.712z"/>
			</g>
			<g>
				<path style="fill:#263238;" d="M379.975,221.798h-25.086v-25.086h25.086V221.798z M355.609,221.079h23.647v-23.647h-23.647
					V221.079z"/>
			</g>
			<g>
				<path style="fill:#263238;" d="M428.708,221.798h-25.086v-25.086h25.086V221.798z M404.342,221.079h23.647v-23.647h-23.647
					V221.079z"/>
			</g>
			<g>
				<path style="fill:#263238;" d="M379.975,246.165h-25.086v-25.086h25.086V246.165z M355.609,245.445h23.647v-23.647h-23.647
					V245.445z"/>
			</g>
			<g>
				<path style="fill:#263238;" d="M404.342,246.165h-25.086v-25.086h25.086V246.165z M379.975,245.445h23.647v-23.647h-23.647
					V245.445z"/>
			</g>
			<g>
				<path style="fill:#263238;" d="M428.708,246.165h-25.086v-25.086h25.086V246.165z M404.342,245.445h23.647v-23.647h-23.647
					V245.445z"/>
			</g>
		</g>
		<g>
			<g>
				<path style="fill:#263238;" d="M282.509,319.264H208.69v-73.819h73.819V319.264z M209.41,318.544h72.38v-72.38h-72.38V318.544z"
					/>
			</g>
			<g>
				<path style="fill:#263238;" d="M233.776,270.532H208.69v-25.086h25.086V270.532z M209.41,269.812h23.647v-23.648H209.41V269.812
					z"/>
			</g>
			<g>
				<path style="fill:#263238;" d="M258.142,270.532h-25.086v-25.086h25.086V270.532z M233.776,269.812h23.647v-23.648h-23.647
					V269.812z"/>
			</g>
			<g>
				<path style="fill:#263238;" d="M282.509,270.532h-25.086v-25.086h25.086V270.532z M258.142,269.812h23.647v-23.648h-23.647
					V269.812z"/>
			</g>
			<g>
				<path style="fill:#263238;" d="M233.776,294.897H208.69v-25.085h25.086V294.897z M209.41,294.178h23.647v-23.646H209.41V294.178
					z"/>
			</g>
			<g>
				<path style="fill:#263238;" d="M282.509,294.897h-25.086v-25.085h25.086V294.897z M258.142,294.178h23.647v-23.646h-23.647
					V294.178z"/>
			</g>
			<g>
				<path style="fill:#263238;" d="M233.776,319.264H208.69v-25.086h25.086V319.264z M209.41,318.544h23.647v-23.647H209.41V318.544
					z"/>
			</g>
			<g>
				<path style="fill:#263238;" d="M258.142,319.264h-25.086v-25.086h25.086V319.264z M233.776,318.544h23.647v-23.647h-23.647
					V318.544z"/>
			</g>
			<g>
				<path style="fill:#263238;" d="M282.509,319.264h-25.086v-25.086h25.086V319.264z M258.142,318.544h23.647v-23.647h-23.647
					V318.544z"/>
			</g>
		</g>
		<g>
			<g>
				<path style="fill:#263238;" d="M355.609,319.264h-73.819v-73.819h73.819V319.264z M282.509,318.544h72.38v-72.38h-72.38V318.544
					z"/>
			</g>
			<g>
				<path style="fill:#263238;" d="M306.875,270.532h-25.086v-25.086h25.086V270.532z M282.509,269.812h23.647v-23.648h-23.647
					V269.812z"/>
			</g>
			<g>
				<path style="fill:#263238;" d="M331.242,270.532h-25.086v-25.086h25.086V270.532z M306.875,269.812h23.647v-23.648h-23.647
					V269.812z"/>
			</g>
			<g>
				<path style="fill:#263238;" d="M355.609,270.532h-25.086v-25.086h25.086V270.532z M331.242,269.812h23.647v-23.648h-23.647
					V269.812z"/>
			</g>
			<g>
				<path style="fill:#263238;" d="M306.875,294.897h-25.086v-25.085h25.086V294.897z M282.509,294.178h23.647v-23.646h-23.647
					V294.178z"/>
			</g>
			<g>
				<path style="fill:#263238;" d="M355.609,294.897h-25.086v-25.085h25.086V294.897z M331.242,294.178h23.647v-23.646h-23.647
					V294.178z"/>
			</g>
			<g>
				<path style="fill:#263238;" d="M306.875,319.264h-25.086v-25.086h25.086V319.264z M282.509,318.544h23.647v-23.647h-23.647
					V318.544z"/>
			</g>
			<g>
				<path style="fill:#263238;" d="M331.242,319.264h-25.086v-25.086h25.086V319.264z M306.875,318.544h23.647v-23.647h-23.647
					V318.544z"/>
			</g>
			<g>
				<path style="fill:#263238;" d="M355.609,319.264h-25.086v-25.086h25.086V319.264z M331.242,318.544h23.647v-23.647h-23.647
					V318.544z"/>
			</g>
		</g>
		<g>
			<g>
				<path style="fill:#263238;" d="M428.708,319.264h-73.819v-73.819h73.819V319.264z M355.609,318.544h72.38v-72.38h-72.38V318.544
					z"/>
			</g>
			<g>
				<path style="fill:#263238;" d="M379.975,270.532h-25.086v-25.086h25.086V270.532z M355.609,269.812h23.647v-23.648h-23.647
					V269.812z"/>
			</g>
			<g>
				<path style="fill:#263238;" d="M404.342,270.532h-25.086v-25.086h25.086V270.532z M379.975,269.812h23.647v-23.648h-23.647
					V269.812z"/>
			</g>
			<g>
				<path style="fill:#263238;" d="M428.708,270.532h-25.086v-25.086h25.086V270.532z M404.342,269.812h23.647v-23.648h-23.647
					V269.812z"/>
			</g>
			<g>
				<path style="fill:#263238;" d="M379.975,294.897h-25.086v-25.085h25.086V294.897z M355.609,294.178h23.647v-23.646h-23.647
					V294.178z"/>
			</g>
			<g>
				<path style="fill:#263238;" d="M428.708,294.897h-25.086v-25.085h25.086V294.897z M404.342,294.178h23.647v-23.646h-23.647
					V294.178z"/>
			</g>
			<g>
				<path style="fill:#263238;" d="M379.975,319.264h-25.086v-25.086h25.086V319.264z M355.609,318.544h23.647v-23.647h-23.647
					V318.544z"/>
			</g>
			<g>
				<path style="fill:#263238;" d="M404.342,319.264h-25.086v-25.086h25.086V319.264z M379.975,318.544h23.647v-23.647h-23.647
					V318.544z"/>
			</g>
			<g>
				<path style="fill:#263238;" d="M428.708,319.264h-25.086v-25.086h25.086V319.264z M404.342,318.544h23.647v-23.647h-23.647
					V318.544z"/>
			</g>
		</g>
		<g>
			<path style="fill:#407BFF;" d="M356.688,174.144H280.71V98.167h75.978V174.144z M283.588,171.267h70.222v-70.222h-70.222V171.267
				z"/>
		</g>
		<g>
			<path style="fill:#407BFF;" d="M283.588,247.244h-75.977v-75.977h75.977V247.244z M210.489,244.366h70.222v-70.222h-70.222
				V244.366z"/>
		</g>
		<g>
			<path style="fill:#407BFF;" d="M356.688,247.244H280.71v-75.977h75.978V247.244z M283.588,244.366h70.222v-70.222h-70.222
				V244.366z"/>
		</g>
		<g>
			<path style="fill:#407BFF;" d="M429.788,247.244H353.81v-75.977h75.978V247.244z M356.688,244.366h70.222v-70.222h-70.222
				V244.366z"/>
		</g>
		<g>
			<path style="fill:#407BFF;" d="M283.588,320.343h-75.977v-75.977h75.977V320.343z M210.489,317.465h70.222v-70.222h-70.222
				V317.465z"/>
		</g>
		<g>
			<path style="fill:#407BFF;" d="M356.688,320.343H280.71v-75.977h75.978V320.343z M283.588,317.465h70.222v-70.222h-70.222
				V317.465z"/>
		</g>
		<g>
			<path style="fill:#407BFF;" d="M429.788,320.343H353.81v-75.977h75.978V320.343z M356.688,317.465h70.222v-70.222h-70.222
				V317.465z"/>
		</g>
		<g>
			<path style="fill:#407BFF;" d="M283.588,174.144h-75.977V98.167h75.977V174.144z M210.489,171.267h70.222v-70.222h-70.222
				V171.267z"/>
		</g>
		<g>
			<path style="fill:#407BFF;" d="M429.788,174.144H353.81V98.167h75.978V174.144z M356.688,171.267h70.222v-70.222h-70.222V171.267
				z"/>
		</g>
		<text transform="matrix(1 0 0 1 217.0132 117.7759)" style="fill:#263238; font-family:'Poppins-Bold'; font-size:14.8001px;">3</text>
		<text transform="matrix(1 0 0 1 290.5146 166.6816)" style="fill:#263238; font-family:'Poppins-Bold'; font-size:14.8001px;">3</text>
		<text transform="matrix(1 0 0 1 242.2344 142.0796)" style="fill:#263238; font-family:'Poppins-Bold'; font-size:14.8001px;">1</text>
		<text transform="matrix(1 0 0 1 364.668 239.0469)" style="fill:#263238; font-family:'Poppins-Bold'; font-size:14.8001px;">1</text>
		<text transform="matrix(1 0 0 1 243.9478 312.4404)" style="fill:#263238; font-family:'Poppins-Bold'; font-size:14.8001px;">1</text>
		<text transform="matrix(1 0 0 1 387.6855 166.3638)" style="fill:#263238; font-family:'Poppins-Bold'; font-size:14.8001px;">2</text>
		<text transform="matrix(1 0 0 1 240.7656 264.3105)" style="fill:#263238; font-family:'Poppins-Bold'; font-size:14.8001px;">2</text>
		<text transform="matrix(1 0 0 1 313.4102 117.7759)" style="fill:#263238; font-family:'Poppins-Bold'; font-size:14.8001px;">5</text>
		<text transform="matrix(1 0 0 1 387.1143 312.4404)" style="fill:#263238; font-family:'Poppins-Bold'; font-size:14.8001px;">5</text>
		<text transform="matrix(1 0 0 1 263.7832 215.3965)" style="fill:#263238; font-family:'Poppins-Bold'; font-size:14.8001px;">5</text>
		<text transform="matrix(1 0 0 1 217.0132 215.3965)" style="fill:#263238; font-family:'Poppins-Bold'; font-size:14.8001px;">4</text>
		<text transform="matrix(1 0 0 1 410.5195 117.7764)" style="fill:#263238; font-family:'Poppins-Bold'; font-size:14.8001px;">4</text>
		<text transform="matrix(1 0 0 1 241.0713 191.0732)" style="fill:#263238; font-family:'Poppins-Bold'; font-size:14.8001px;">7</text>
		<text transform="matrix(1 0 0 1 316.1641 239.0469)" style="fill:#263238; font-family:'Poppins-Bold'; font-size:14.8001px;">7</text>
		<text transform="matrix(1 0 0 1 314.8584 191.0728)" style="fill:#263238; font-family:'Poppins-Bold'; font-size:14.8001px;">6</text>
		<text transform="matrix(1 0 0 1 410.5195 287.3877)" style="fill:#263238; font-family:'Poppins-Bold'; font-size:14.8001px;">6</text>
		<text transform="matrix(1 0 0 1 338.5088 313.0938)" style="fill:#263238; font-family:'Poppins-Bold'; font-size:14.8001px;">7</text>
		<text transform="matrix(1 0 0 1 217.8696 288.1221)" style="fill:#263238; font-family:'Poppins-Bold'; font-size:14.8001px;">7</text>
		<text transform="matrix(1 0 0 1 290.5146 264.3105)" style="fill:#263238; font-family:'Poppins-Bold'; font-size:14.8001px;">9</text>
		<text transform="matrix(1 0 0 1 313.4092 289.2871)" style="fill:#263238; font-family:'Poppins-Bold'; font-size:14.8001px;">3</text>
		<text transform="matrix(1 0 0 1 363.3623 117.7764)" style="fill:#263238; font-family:'Poppins-Bold'; font-size:14.8001px;">3</text>
	</g>
</g>
<g id="Speech_bubble">
	<g>
		<g>
			<g>
				
					<ellipse transform="matrix(0.7071 -0.7071 0.7071 0.7071 -40.9593 122.5935)" style="fill:#407BFF;" cx="127.504" cy="110.739" rx="16.018" ry="16.018"/>
			</g>
		</g>
		<path style="fill:#FFFFFF;" d="M129.233,102.107h-2.965v2.59c-0.897,0.169-1.731,0.514-2.463,1.004l-1.965-1.965l-2.097,2.097
			l2.025,2.025c-0.305,0.514-0.542,1.071-0.701,1.662h-2.706v2.965h2.59c0.169,0.897,0.514,1.731,1.004,2.463l-1.718,1.718
			l2.097,2.097l1.778-1.778c0.656,0.389,1.381,0.671,2.156,0.817v2.59h2.965v-2.706c0.826-0.222,1.587-0.598,2.254-1.097
			l1.977,1.977l2.097-2.097l-2.143-2.143c0.298-0.571,0.515-1.188,0.638-1.841h2.59v-2.965h-2.706
			c-0.159-0.59-0.396-1.148-0.701-1.662l2.025-2.025l-2.097-2.097l-1.965,1.965c-0.595-0.398-1.26-0.697-1.969-0.888V102.107z
			 M130.222,111.249c0,1.499-1.22,2.718-2.718,2.718c-1.499,0-2.718-1.219-2.718-2.718c0-1.499,1.219-2.718,2.718-2.718
			C129.002,108.531,130.222,109.75,130.222,111.249z"/>
		<g>
			<g>
				<path style="fill:#407BFF;" d="M127.504,130.821c-0.264,0-0.478-0.214-0.478-0.478v-0.956c0-0.264,0.214-0.478,0.478-0.478
					c0.264,0,0.478,0.214,0.478,0.478v0.956C127.982,130.607,127.768,130.821,127.504,130.821z"/>
			</g>
			<g>
				<path style="fill:#407BFF;" d="M127.504,153.743c-0.264,0-0.478-0.214-0.478-0.478v-1.91c0-0.264,0.214-0.478,0.478-0.478
					c0.264,0,0.478,0.214,0.478,0.478v1.91C127.982,153.529,127.768,153.743,127.504,153.743z M127.504,148.013
					c-0.264,0-0.478-0.214-0.478-0.478v-1.91c0-0.264,0.214-0.478,0.478-0.478c0.264,0,0.478,0.214,0.478,0.478v1.91
					C127.982,147.799,127.768,148.013,127.504,148.013z M127.504,142.282c-0.264,0-0.478-0.214-0.478-0.478v-1.91
					c0-0.264,0.214-0.478,0.478-0.478c0.264,0,0.478,0.214,0.478,0.478v1.91C127.982,142.068,127.768,142.282,127.504,142.282z
					 M127.504,136.552c-0.264,0-0.478-0.214-0.478-0.478v-1.91c0-0.264,0.214-0.478,0.478-0.478c0.264,0,0.478,0.214,0.478,0.478
					v1.91C127.982,136.338,127.768,136.552,127.504,136.552z"/>
			</g>
			<g>
				<path style="fill:#407BFF;" d="M128.46,158.52h-0.956c-0.264,0-0.478-0.214-0.478-0.478v-0.956c0-0.264,0.214-0.478,0.478-0.478
					c0.264,0,0.478,0.214,0.478,0.478v0.478h0.478c0.264,0,0.478,0.214,0.478,0.478S128.724,158.52,128.46,158.52z"/>
			</g>
			<g>
				<path style="fill:#407BFF;" d="M150.182,158.52h-1.81c-0.264,0-0.478-0.214-0.478-0.478s0.214-0.478,0.478-0.478h1.81
					c0.264,0,0.478,0.214,0.478,0.478S150.446,158.52,150.182,158.52z M144.751,158.52h-1.81c-0.264,0-0.478-0.214-0.478-0.478
					s0.214-0.478,0.478-0.478h1.81c0.264,0,0.478,0.214,0.478,0.478S145.015,158.52,144.751,158.52z M139.321,158.52h-1.81
					c-0.264,0-0.478-0.214-0.478-0.478s0.214-0.478,0.478-0.478h1.81c0.264,0,0.478,0.214,0.478,0.478
					S139.585,158.52,139.321,158.52z M133.891,158.52h-1.81c-0.264,0-0.478-0.214-0.478-0.478s0.214-0.478,0.478-0.478h1.81
					c0.264,0,0.478,0.214,0.478,0.478S134.155,158.52,133.891,158.52z"/>
			</g>
			<g>
				<path style="fill:#407BFF;" d="M154.758,158.52h-0.956c-0.264,0-0.478-0.214-0.478-0.478s0.214-0.478,0.478-0.478h0.956
					c0.264,0,0.478,0.214,0.478,0.478S155.022,158.52,154.758,158.52z"/>
			</g>
		</g>
	</g>
</g>
<g id="Character_1">
	<g>
		<g>
			<g>
				<path style="fill:#407BFF;" d="M157.868,189.802c-2.57,7.316-5.425,14.424-8.505,21.524c-1.524,3.55-3.146,7.071-4.81,10.601
					c-1.698,3.514-3.44,7.029-5.468,10.601c-0.512,0.893-1.014,1.78-1.637,2.736l-0.892,1.402l-1.001,1.41
					c-1.348,1.818-2.75,3.427-4.197,4.933c-2.884,3.009-5.856,5.705-8.928,8.223c-6.132,5.062-12.475,9.495-19.206,13.615
					l-4.719-6.363c2.681-2.548,5.47-5.142,8.1-7.8c2.669-2.63,5.272-5.305,7.78-8.001c2.491-2.709,4.895-5.45,6.996-8.224
					c1.041-1.389,2.014-2.776,2.816-4.113l0.563-0.988l0.535-1.08c0.358-0.682,0.718-1.499,1.078-2.303
					c1.433-3.232,2.874-6.662,4.212-10.152c1.391-3.466,2.721-6.987,4.079-10.506c2.693-7.036,5.398-14.15,8.217-21.12
					L157.868,189.802z"/>
				<path style="opacity:0.3;fill:#FFFFFF;" d="M157.868,189.802c-2.57,7.316-5.425,14.424-8.505,21.524
					c-1.524,3.55-3.146,7.071-4.81,10.601c-1.698,3.514-3.44,7.029-5.468,10.601c-0.512,0.893-1.014,1.78-1.637,2.736l-0.892,1.402
					l-1.001,1.41c-1.348,1.818-2.75,3.427-4.197,4.933c-2.884,3.009-5.856,5.705-8.928,8.223
					c-6.132,5.062-12.475,9.495-19.206,13.615l-4.719-6.363c2.681-2.548,5.47-5.142,8.1-7.8c2.669-2.63,5.272-5.305,7.78-8.001
					c2.491-2.709,4.895-5.45,6.996-8.224c1.041-1.389,2.014-2.776,2.816-4.113l0.563-0.988l0.535-1.08
					c0.358-0.682,0.718-1.499,1.078-2.303c1.433-3.232,2.874-6.662,4.212-10.152c1.391-3.466,2.721-6.987,4.079-10.506
					c2.693-7.036,5.398-14.15,8.217-21.12L157.868,189.802z"/>
				<g>
					<g>
						<g>
							<polygon style="fill:#FF8B7B;" points="193.282,424.087 195.169,433.635 200.216,433.635 200.889,424.087 							"/>
							<g>
								<g>
									<path style="fill:#407BFF;" d="M199.551,432.424c0,0,0.957-1.183,2.171-0.779c1.214,0.404,2.803,2.392,2.803,2.392
										s6.584,2.112,8.362,2.223c1.778,0.111,3.334,1.111,4.001,4.556h-21.56c0,0-0.848-7.779-0.98-9.113
										c-0.131-1.334,1.98,0.333,1.98,0.333L199.551,432.424z"/>
								</g>
							</g>
							<g>
								<g>
									<g>
										<path d="M216.248,439.789c-1.297-0.013-2.587-0.026-3.883-0.038c-5.663-0.057-11.326-0.121-16.989-0.178
											c-0.216,0-0.216-0.337,0-0.33c0.381,0.006,0.769,0.006,1.15,0.013c0-0.013,0.006-0.032,0.013-0.044
											c0.814-1.799-0.127-3.636-1.754-4.557c-0.191-0.102-0.019-0.394,0.165-0.286c1.761,0.998,2.727,2.962,1.92,4.888
											c0.801,0.013,1.595,0.019,2.396,0.025c5.657,0.057,11.32,0.121,16.983,0.178
											C216.464,439.458,216.464,439.795,216.248,439.789z"/>
									</g>
								</g>
							</g>
							<g>
								<g>
									<g>
										<path style="fill:#FFFFFF;" d="M203.761,435.391c0.75-1.054,2.017-1.353,3.08-0.558c0.172,0.129,0.338-0.161,0.168-0.288
											c-1.221-0.912-2.687-0.516-3.537,0.678C203.349,435.397,203.638,435.564,203.761,435.391L203.761,435.391z"/>
									</g>
								</g>
							</g>
							<g>
								<g>
									<g>
										<path style="fill:#FFFFFF;" d="M205.619,435.951c0.75-1.054,2.017-1.353,3.08-0.558c0.172,0.129,0.339-0.161,0.168-0.288
											c-1.221-0.912-2.687-0.516-3.536,0.678C205.206,435.958,205.495,436.125,205.619,435.951L205.619,435.951z"/>
									</g>
								</g>
							</g>
							<g>
								<g>
									<g>
										<path style="fill:#FFFFFF;" d="M207.537,436.512c0.75-1.054,2.017-1.353,3.08-0.558c0.172,0.129,0.338-0.161,0.168-0.288
											c-1.221-0.912-2.687-0.516-3.537,0.678C207.125,436.519,207.414,436.685,207.537,436.512L207.537,436.512z"/>
									</g>
								</g>
							</g>
						</g>
					</g>
					<g>
						<g>
							<polygon style="fill:#FF8B7B;" points="148.121,424.155 149.168,433.635 154.216,433.635 155.728,424.155 							"/>
							<g>
								<g>
									<path style="fill:#407BFF;" d="M153.551,432.424c0,0,0.957-1.183,2.171-0.779c1.214,0.404,2.803,2.392,2.803,2.392
										s6.584,2.112,8.362,2.223c1.778,0.111,3.334,1.111,4.001,4.556h-21.56c0,0-0.848-7.779-0.98-9.113
										c-0.131-1.334,1.98,0.333,1.98,0.333L153.551,432.424z"/>
								</g>
							</g>
							<g>
								<g>
									<g>
										<path d="M170.247,439.789c-1.297-0.013-2.587-0.026-3.883-0.038c-5.663-0.057-11.326-0.121-16.989-0.178
											c-0.216,0-0.216-0.337,0-0.33c0.381,0.006,0.769,0.006,1.15,0.013c0-0.013,0.006-0.032,0.012-0.044
											c0.814-1.799-0.127-3.636-1.754-4.557c-0.191-0.102-0.019-0.394,0.165-0.286c1.761,0.998,2.727,2.962,1.92,4.888
											c0.801,0.013,1.595,0.019,2.396,0.025c5.657,0.057,11.32,0.121,16.983,0.178
											C170.463,439.458,170.463,439.795,170.247,439.789z"/>
									</g>
								</g>
							</g>
							<g>
								<g>
									<g>
										<path style="fill:#FFFFFF;" d="M157.761,435.391c0.75-1.054,2.017-1.353,3.08-0.558c0.172,0.129,0.338-0.161,0.168-0.288
											c-1.221-0.912-2.687-0.516-3.537,0.678C157.348,435.397,157.638,435.564,157.761,435.391L157.761,435.391z"/>
									</g>
								</g>
							</g>
							<g>
								<g>
									<g>
										<path style="fill:#FFFFFF;" d="M159.619,435.951c0.75-1.054,2.017-1.353,3.08-0.558c0.172,0.129,0.338-0.161,0.168-0.288
											c-1.221-0.912-2.687-0.516-3.536,0.678C159.206,435.958,159.495,436.125,159.619,435.951L159.619,435.951z"/>
									</g>
								</g>
							</g>
							<g>
								<g>
									<g>
										<path style="fill:#FFFFFF;" d="M161.537,436.512c0.75-1.054,2.017-1.353,3.08-0.558c0.172,0.129,0.338-0.161,0.168-0.288
											c-1.221-0.912-2.687-0.516-3.537,0.678C161.124,436.519,161.413,436.685,161.537,436.512L161.537,436.512z"/>
									</g>
								</g>
							</g>
						</g>
					</g>
					<path style="fill:#263238;" d="M191.602,424.423h11.138c0.964-14.344,3.691-61.873,1.536-85.393
						c1.55-32.634-3.437-75.953-3.437-75.953h-35.286c0,0,2.586,28.988,14.192,75.483
						C179.665,375.397,188.656,412.222,191.602,424.423z"/>
					<path style="opacity:0.2;" d="M177.843,330.746c6.379-26.055,0.777-59.841,0.777-59.841l-5.504,38.592L177.843,330.746z"/>
					<polygon style="fill:#263238;" points="190.274,424.143 191.092,428.377 203.865,428.322 203.872,424.087 					"/>
					<path style="fill:#263238;" d="M146.533,424.835h11.138c3.969-14.756,11.941-62.199,13.217-85.719
						c6.31-32.634,9.328-76.039,9.328-76.039H143.84c0,0-1.688,29.258,1.442,75.846
						C144.345,379.459,146.279,412.222,146.533,424.835z"/>
					<polygon style="fill:#263238;" points="145.559,424.132 145.536,428.329 158.41,428.332 159.085,424.135 					"/>
				</g>
				<path style="fill:#407BFF;" d="M205.085,269.194c-24.474,9.406-63.978,1.796-63.978,1.796
					c0.475-11.968,0.887-35.671,0.726-55.37c-0.009-0.457-0.009-0.914-0.018-1.371c-0.027-2.795-0.072-5.5-0.125-8.062
					c-0.009-0.314-0.009-0.627-0.018-0.932c-0.116-5.035-0.296-9.487-0.528-13.052c-0.448-6.71,3.198-12.953,9.836-14.073
					c2.016-0.34,4.192-0.636,6.459-0.878c0.538-0.063,1.084-0.116,1.639-0.17c6.289-0.618,13.186-0.887,19.484-0.708
					c0.314,0,0.627,0.009,0.941,0.018c0.161,0.009,0.34,0.009,0.502,0.018c0.269,0.009,0.546,0.018,0.815,0.036
					c2.804,0.116,5.464,0.322,7.847,0.636c5.411,0.699,10.221,4.972,10.311,10.436c0.081,5.008,0.573,15.578,1.281,27.501
					c0.269,4.515,0.573,9.236,0.905,13.912C202.443,247.34,205.085,264.485,205.085,269.194z"/>
				<path style="opacity:0.3;fill:#FFFFFF;" d="M205.08,269.19c-24.47,9.41-63.97,1.8-63.97,1.8c0.3-7.53,0.57-19.71,0.69-32.61
					c0.04-3.63,0.06-7.33,0.06-10.99c0.01-4,0-7.96-0.03-11.77c-0.01-0.46-0.01-0.91-0.02-1.37c-0.02-2.8-0.07-5.5-0.12-8.06
					c-0.01-0.32-0.01-0.63-0.02-0.93c-0.11-5.04-0.29-9.49-0.53-13.06c-0.44-6.71,3.2-12.95,9.84-14.07
					c2.01-0.34,4.19-0.64,6.46-0.88c0.54-0.06,1.08-0.11,1.64-0.17c6.29-0.62,13.18-0.88,19.48-0.71c0.31,0,0.63,0.01,0.94,0.02
					c0.16,0.01,0.34,0.01,0.5,0.02c0.27,0.01,0.55,0.02,0.82,0.04c2.8,0.11,5.46,0.32,7.85,0.63c5.41,0.7,10.22,4.97,10.31,10.44
					c0.08,5.01,0.57,15.58,1.28,27.5c0.27,4.51,0.57,9.24,0.9,13.91C202.44,247.34,205.08,264.48,205.08,269.19z"/>
				<path style="opacity:0.2;" d="M150.26,208.84c-0.16,0.83-4.04,20.64-8.46,29.54c0.04-3.63,0.06-7.33,0.06-10.99l0.01-0.03
					C141.87,227.36,145.9,220.39,150.26,208.84z"/>
				<path style="opacity:0.2;" d="M201.162,228.932c-9.047-13.193-15.866-27.847-20.22-44.119l19.316,30.207
					C200.526,219.535,200.831,224.255,201.162,228.932z"/>
				<g>
					<g>
						<g>
							<g>
								<g>
									<g>
										<path style="fill:#263238;" d="M168.872,163.145c0,0-10.673-17.604,3.6-21.289c0.095-2.007,8.374-5.518,17.212-1.503
											c8.76,3.98,1.989,15.088,1.989,15.088L168.872,163.145z"/>
										<g>
											<path style="fill:#FF8B7B;" d="M178.985,173.948l0.001,0.009c-0.016,0.029-0.024,0.047-0.04,0.076l-1.422,3.705
												c-0.167,0.77-0.261,1.544-0.283,2.303c-0.021,0.641,0.012,1.269,0.081,1.877c0.714,1.24,0.829,3.891-2.152,3.581
												c-3.763-0.386-10.144-6.29-10.212-7.976c2.298-4.952,4.482-11.145,4.733-16.087l3.789,5.108L178.985,173.948z"/>
										</g>
										<g style="opacity:0.2;">
											<path d="M178.945,174.033l-1.422,3.705c-2.237-1.329-3.191-3.81-3.483-6.377c-0.198-1.85-0.458-3.555,0.281-3.568
												L178.945,174.033z"/>
										</g>
										<g>
											<path style="fill:#FF8B7B;" d="M189.334,167.077c-0.312,0.806-0.65,1.596-1.004,2.373
												c-3.145,6.858-11.993,6.55-16.884,0.715c-0.007-0.011-0.005-0.02-0.014-0.023c-0.433-0.518-0.838-1.078-1.204-1.687
												c-2.974-4.941-1.722-8.354-0.334-16.262c1.387-7.899,10.436-11.946,17.214-7.089
												C193.364,149.587,192.474,159.026,189.334,167.077z"/>
										</g>
										<path style="fill:#263238;" d="M174.229,143.833c0,0,8.736,7.129,17.201,5.417c0,0-0.618-4.917-6.201-6.25
											C179.645,141.667,174.229,143.833,174.229,143.833z"/>
										<path style="fill:#263238;" d="M180.942,146.697c0,0,0.329,5.865-6.109,4.678s-3.75-5.625-3.75-5.625
											S175.738,140.395,180.942,146.697z"/>
										<path style="fill:#263238;" d="M176.77,149.563c0,0-2.281,7.096-6.031,6.798c-3.75-0.298,0.281-9.048,0.281-9.048
											L176.77,149.563z"/>
										<g>
											<path style="fill:#263238;" d="M183.901,166.142c-0.009,0.002-0.018,0.004-0.026,0.005
												c-1.171,0.147-2.141-0.086-2.885-0.692c-1.236-1.008-1.38-2.673-1.385-2.743c-0.012-0.145,0.101-0.273,0.241-0.283
												c0.145-0.012,0.272,0.096,0.284,0.241c0.001,0.015,0.134,1.516,1.196,2.378c0.628,0.51,1.463,0.703,2.483,0.576
												c0.145-0.018,0.276,0.084,0.294,0.228C184.12,165.988,184.031,166.112,183.901,166.142z"/>
										</g>
										<g>
											<path style="fill:#FF8B7B;" d="M165.305,156.589c0.089,2.162,1.167,4.081,2.494,5.264
												c1.996,1.78,4.166,0.278,4.594-2.219c0.385-2.248-0.19-5.883-2.666-6.706
												C167.288,152.116,165.204,154.117,165.305,156.589"/>
										</g>
										<g>
											<path style="fill:#263238;" d="M181.837,157.226c-0.148,0.614,0.059,1.189,0.46,1.286
												c0.401,0.096,0.846-0.323,0.993-0.937c0.147-0.614-0.058-1.189-0.46-1.286
												C182.429,156.192,181.984,156.612,181.837,157.226"/>
										</g>
										<g>
											<path style="fill:#263238;" d="M188.585,158.758c-0.147,0.614,0.059,1.19,0.46,1.286
												c0.401,0.096,0.846-0.323,0.993-0.937c0.147-0.614-0.059-1.19-0.46-1.286
												C189.177,157.725,188.733,158.145,188.585,158.758"/>
										</g>
									</g>
									<g>
										<path style="fill:#263238;" d="M190.872,156.726c-0.108-0.026-0.199-0.108-0.231-0.223
											c-0.146-0.512-0.402-0.87-0.762-1.065c-0.592-0.32-1.298-0.114-1.305-0.111c-0.164,0.052-0.346-0.04-0.398-0.209
											c-0.052-0.168,0.041-0.347,0.209-0.399c0.038-0.012,0.964-0.292,1.797,0.159c0.517,0.279,0.877,0.768,1.071,1.451
											c0.049,0.169-0.05,0.346-0.219,0.394C190.979,156.738,190.923,156.739,190.872,156.726z"/>
									</g>
									<g>
										<path style="fill:#263238;" d="M180.24,154.233c-0.049-0.012-0.097-0.035-0.139-0.07
											c-0.146-0.121-0.167-0.338-0.046-0.484c0.028-0.034,0.701-0.837,1.725-0.923c0.635-0.053,1.251,0.176,1.833,0.681
											c0.145,0.125,0.16,0.343,0.035,0.487c-0.126,0.144-0.344,0.159-0.487,0.034c-0.434-0.377-0.877-0.551-1.318-0.515
											c-0.731,0.058-1.25,0.669-1.255,0.675C180.5,154.223,180.364,154.263,180.24,154.233z"/>
									</g>
									<g>
										<path style="fill:#FF5652;" d="M185.672,157.493c0,0,0.318,2.814,1.174,4.764c0.859,1.957-2.514,1.225-2.514,1.225
											L185.672,157.493z"/>
									</g>
								</g>
							</g>
						</g>
					</g>
				</g>
			</g>
			<g>
				<path style="fill:#407BFF;" d="M209.786,225.786c-3.682,1.675-8.008,0.242-10.042-3.153c-0.134-0.224-0.26-0.439-0.394-0.663
					c-0.26-0.439-0.52-0.887-0.779-1.335c-0.134-0.215-0.26-0.439-0.385-0.663c-0.421-0.717-0.833-1.442-1.254-2.168
					c-0.457-0.806-0.923-1.612-1.388-2.427c-0.457-0.806-0.914-1.613-1.38-2.428c-0.466-0.806-0.923-1.622-1.371-2.428
					c-0.457-0.815-0.914-1.63-1.362-2.445c-0.054-0.098-0.108-0.197-0.161-0.296c-0.851-1.532-1.702-3.073-2.544-4.604
					c-1.783-3.279-3.547-6.566-5.267-9.881c-1.72-3.324-2.809-6.707-4.412-10.102l6.437-4.553c2.464,2.831,4.828,5.733,7.175,8.645
					c0.26,0.323,0.52,0.645,0.779,0.976l3.91-5.904c1.344,2.365,4.09,7.857,5.344,10.276c1.245,2.41,2.481,4.837,3.682,7.274
					c1.2,2.437,2.401,4.882,3.556,7.346c1.174,2.454,2.32,4.927,3.449,7.399l0.314,0.699
					C215.493,219.31,213.746,223.986,209.786,225.786z"/>
				<path style="opacity:0.3;fill:#FFFFFF;" d="M209.786,225.786c-3.682,1.675-8.008,0.242-10.042-3.153
					c-0.134-0.224-0.26-0.439-0.394-0.663c-0.26-0.439-0.52-0.887-0.779-1.335c-0.134-0.215-0.26-0.439-0.385-0.663
					c-0.421-0.717-0.833-1.442-1.254-2.168c-0.457-0.806-0.923-1.612-1.388-2.427c-0.457-0.806-0.914-1.613-1.38-2.428
					c-0.466-0.806-0.923-1.622-1.371-2.428c-0.457-0.815-0.914-1.63-1.362-2.445c-0.054-0.098-0.108-0.197-0.161-0.296
					c-0.851-1.532-1.702-3.073-2.544-4.604c-1.783-3.279-3.547-6.566-5.267-9.881c-1.72-3.324-2.809-6.707-4.412-10.102l6.437-4.553
					c2.464,2.831,4.828,5.733,7.175,8.645c0.26,0.323,0.52,0.645,0.779,0.976l3.91-5.904c1.344,2.365,4.09,7.857,5.344,10.276
					c1.245,2.41,2.481,4.837,3.682,7.274c1.2,2.437,2.401,4.882,3.556,7.346c1.174,2.454,2.32,4.927,3.449,7.399l0.314,0.699
					C215.493,219.31,213.746,223.986,209.786,225.786z"/>
				<g>
					<path style="fill:#FF8B7B;" d="M185.492,180.458c-0.171,1.358-1.156,3.476-3.135,3.404c-1.854-0.072-3.404-0.699-3.592-0.779
						c-0.009-0.009-0.018-0.009-0.018-0.009c-1.514-0.385-4.354-1.344-5.33-3.216c-1.371-2.616,0.77-6.719,0.77-6.719
						c-2.222-2.105-4.85-5.726-3.014-4.902c1.828,0.824,9.042,5.862,11.624,5.291c2.401-0.531,3.242-2.615,4.134-2.193
						c1.027,0.485-0.88,2.349-1.838,4.284C185.092,175.62,185.753,178.39,185.492,180.458z"/>
					<g style="opacity:0.2;">
						<path d="M187.288,171.267c-0.045,0.117-0.179,0.17-0.296,0.125c-1.057-0.421-1.666,0.305-2.311,1.236l-0.17,0.251
							c-0.699,1.03-1.711,1.899-5.644,0.179c-2.222-0.976-3.861-2.177-5.169-3.144c-1.182-0.869-2.123-1.559-2.876-1.577
							c0.018,0.009-0.009,0.018-0.027,0.063c-0.027,0.054-0.099,0.305,0.233,0.985c0.6,1.254,3.279,3.565,3.305,3.583
							c0.081,0.072,0.099,0.197,0.045,0.287c-0.018,0.036-1.998,3.296-1.272,5.339c0.394,1.111,1.881,2.231,3.153,3.019
							l-0.134,0.475c-1.335-0.815-2.983-2.051-3.44-3.341c-0.708-1.989,0.806-4.846,1.209-5.563
							c-0.573-0.502-2.705-2.428-3.27-3.601c-0.313-0.645-0.385-1.111-0.215-1.415c0.134-0.242,0.367-0.269,0.394-0.269
							c0.923,0.009,1.863,0.699,3.162,1.657c1.29,0.95,2.902,2.141,5.079,3.091c3.924,1.72,4.622,0.672,5.088-0.018l0.179-0.26
							c0.511-0.744,1.38-1.989,2.849-1.389C187.279,171.025,187.333,171.159,187.288,171.267z"/>
					</g>
				</g>
			</g>
			<path style="opacity:0.2;" d="M187.755,180.184l19.185,29.189C206.94,209.373,204.701,199.594,187.755,180.184z"/>
			<g>
				<path style="fill:#FFFFFF;" d="M181.765,161.458c-1.815,0-3.291-1.477-3.291-3.291c0-1.815,1.476-3.292,3.291-3.292
					c1.815,0,3.292,1.477,3.292,3.292C185.057,159.981,183.58,161.458,181.765,161.458z M181.765,155.125
					c-1.677,0-3.041,1.364-3.041,3.042c0,1.677,1.364,3.041,3.041,3.041c1.677,0,3.042-1.364,3.042-3.041
					C184.807,156.489,183.442,155.125,181.765,155.125z"/>
			</g>
			<g>
				<path style="fill:#FFFFFF;" d="M189.713,163.163c-1.815,0-3.292-1.477-3.292-3.292c0-1.815,1.477-3.292,3.292-3.292
					c1.815,0,3.291,1.477,3.291,3.292C193.005,161.686,191.528,163.163,189.713,163.163z M189.713,156.829
					c-1.677,0-3.042,1.364-3.042,3.042c0,1.677,1.364,3.042,3.042,3.042c1.677,0,3.041-1.365,3.041-3.042
					C192.755,158.193,191.391,156.829,189.713,156.829z"/>
			</g>
			<g>
				<path style="fill:#FFFFFF;" d="M178.812,157.153c-0.042,0-0.083-0.021-0.106-0.059c-2.384-3.886-7.171-2.857-7.221-2.846
					c-0.071,0.014-0.134-0.028-0.149-0.095c-0.015-0.067,0.027-0.134,0.095-0.149c0.048-0.012,5.011-1.077,7.488,2.96
					c0.036,0.059,0.018,0.136-0.041,0.172C178.857,157.147,178.835,157.153,178.812,157.153z"/>
			</g>
			<g>
				<path style="fill:#FFFFFF;" d="M186.944,158.463c-0.035,0-0.071-0.015-0.095-0.044c-0.756-0.891-1.852-0.374-1.863-0.37
					c-0.061,0.031-0.136,0.005-0.167-0.058c-0.03-0.062-0.004-0.137,0.058-0.167c0.014-0.006,1.284-0.604,2.162,0.432
					c0.045,0.053,0.038,0.132-0.014,0.176C187.001,158.454,186.973,158.463,186.944,158.463z"/>
			</g>
		</g>
		<g>
			<g>
				<g>
					<g>
						<g>
							
								<rect x="103.706" y="211.829" transform="matrix(0.9963 -0.0863 0.0863 0.9963 -27.0796 11.2892)" style="fill:#407BFF;" width="26.694" height="214.146"/>
						</g>
					</g>
				</g>
				<g style="opacity:0.2;">
					<g>
						<g>
							
								<rect x="103.706" y="211.829" transform="matrix(0.9963 -0.0863 0.0863 0.9963 -27.0796 11.2892)" style="fill:#407BFF;" width="26.694" height="214.146"/>
						</g>
					</g>
				</g>
				<g>
					<g>
						<g>
							<g>
								
									<rect x="123.996" y="211.15" transform="matrix(0.9963 -0.0863 0.0863 0.9963 -26.9927 11.9628)" style="opacity:0.2;" width="1.78" height="214.147"/>
							</g>
						</g>
					</g>
					<g>
						<g>
							<g>
								
									<rect x="116.164" y="211.829" transform="matrix(0.9963 -0.0863 0.0863 0.9963 -27.0799 11.2893)" style="opacity:0.2;" width="1.78" height="214.146"/>
							</g>
						</g>
					</g>
					<g>
						<g>
							<g>
								
									<rect x="108.334" y="212.507" transform="matrix(0.9963 -0.0863 0.0863 0.9963 -27.1681 10.6164)" style="opacity:0.2;" width="1.78" height="214.146"/>
							</g>
						</g>
					</g>
				</g>
			</g>
			<g>
				<g>
					<g>
						<g>
							<g>
								
									<rect x="112.462" y="414.398" transform="matrix(0.9963 -0.0863 0.0863 0.9963 -35.7727 12.4228)" style="fill:#263238;" width="26.694" height="11.198"/>
							</g>
						</g>
					</g>
				</g>
			</g>
			<g>
				<g>
					<g>
						<path style="fill:#407BFF;" d="M139.59,424.424l0.275,3.175c0.636,7.345-4.802,13.813-12.146,14.449l0,0
							c-7.344,0.636-13.813-4.801-14.449-12.146l-0.275-3.175L139.59,424.424z"/>
					</g>
				</g>
			</g>
			<g style="opacity:0.6;">
				<g>
					<g>
						<path style="fill:#FFFFFF;" d="M139.59,424.424l0.275,3.175c0.636,7.345-4.802,13.813-12.146,14.449l0,0
							c-7.344,0.636-13.813-4.801-14.449-12.146l-0.275-3.175L139.59,424.424z"/>
					</g>
				</g>
			</g>
			<g>
				<g>
					<g>
						<g>
							<polygon style="fill:#407BFF;" points="94.517,213.38 121.112,211.077 111.667,193.905 109.703,190.332 104.151,180.24 
								100.865,191.544 99.585,195.947 							"/>
						</g>
					</g>
				</g>
				<g style="opacity:0.5;">
					<g>
						<g>
							<polygon style="fill:#FFFFFF;" points="94.517,213.38 121.112,211.077 111.667,193.905 109.703,190.332 104.151,180.24 
								100.865,191.544 99.585,195.947 							"/>
						</g>
					</g>
				</g>
				<g>
					<g>
						<g>
							<path style="fill:#263238;" d="M100.865,191.544c1.189,0.27,2.611,0.395,4.287,0.249c1.999-0.173,3.472-0.749,4.551-1.461
								l-5.552-10.092L100.865,191.544z"/>
						</g>
					</g>
				</g>
			</g>
		</g>
		<g>
			<path style="fill:#FF8B7B;" d="M95.982,253.647c0,0-0.555-0.438-0.077-2.355c0.478-1.917,1.089-2.997,1.588-3.662l0.543,5.504
				c0,0,3.871,1.419,4.497,4.204c1.262,5.619-2.248,7.653-3.38,8.139c-1.132,0.486-3.58-2.548-4.138-5.958
				C94.457,256.11,95.982,253.647,95.982,253.647z"/>
		</g>
	</g>
</g>
</svg>
