<?xml version="1.0" encoding="UTF-8"?>
<svg version="1.1" xmlns="http://www.w3.org/2000/svg" width="1200" height="1200">
<path d="M0 0 C396 0 792 0 1200 0 C1200 396 1200 792 1200 1200 C804 1200 408 1200 0 1200 C0 804 0 408 0 0 Z " fill="#FFDE59" transform="translate(0,0)"/>
<path d="M0 0 C396 0 792 0 1200 0 C1200 396 1200 792 1200 1200 C804 1200 408 1200 0 1200 C0 804 0 408 0 0 Z M584.82275391 98.08789062 C571.8435324 98.35180779 558.99210474 98.74838885 546.14306641 100.6953125 C543.59308516 101.05785255 541.03884267 101.35867413 538.48046875 101.65625 C448.23772057 112.19982464 360.51638333 148.515607 276.44775391 216.0546875 C274.270393 217.92066008 272.08121126 219.77030241 269.8762207 221.60351562 C261.06995287 228.96943319 252.85723693 236.83234256 244.76635742 244.97290039 C242.67914808 247.07089508 240.5813641 249.15789115 238.48242188 251.24414062 C231.1903319 258.52901865 224.37958928 265.89652224 218 274 C216.53495559 275.72581211 215.04634448 277.42793013 213.55322266 279.12939453 C206.57643517 287.08896867 200.20390975 295.4295126 194 304 C193.45085937 304.75522949 192.90171875 305.51045898 192.3359375 306.28857422 C177.91133382 326.21708632 165.43728815 347.23416047 154 369 C153.54028809 369.86882812 153.08057617 370.73765625 152.60693359 371.6328125 C137.0624645 401.18880907 124.96426549 432.8479929 116 465 C115.77328613 465.81194824 115.54657227 466.62389648 115.31298828 467.46044922 C112.73519993 476.7798625 110.44677728 486.09858822 108.67578125 495.60546875 C108.20549683 497.96776449 107.6547256 500.31486128 107.04296875 502.64453125 C105.62940773 508.19300769 104.84601986 513.84249862 104 519.5 C103.82484863 520.66055908 103.64969727 521.82111816 103.46923828 523.0168457 C99.85729758 547.16433554 97.64915804 571.05193957 97.73925781 595.48803711 C97.7499818 598.93165727 97.73928307 602.37475478 97.7265625 605.81835938 C97.71342336 625.61886933 99.11107686 645.19769683 101.8125 664.8125 C102.07015137 666.69412842 102.07015137 666.69412842 102.33300781 668.61376953 C112.75005406 742.69778986 139.23388867 815.15851771 181.17871094 877.29980469 C182.92692652 879.89166318 184.65636898 882.49517008 186.3828125 885.1015625 C192.94681506 894.93677674 199.96844057 904.22158281 207.56445312 913.28076172 C209.57178472 915.68478027 211.53307556 918.12538012 213.5 920.5625 C223.48548598 932.69789027 233.89970335 944.22889053 245.04833984 955.30908203 C247.13747476 957.38741023 249.21558124 959.47634282 251.29296875 961.56640625 C258.55944052 968.84014805 265.90248344 975.65259743 274 982 C275.15996887 982.97035564 276.31456895 983.94720792 277.4609375 984.93359375 C284.77804959 991.22081741 292.26455636 997.23365375 300 1003 C300.97549805 1003.73041504 300.97549805 1003.73041504 301.97070312 1004.47558594 C349.53933824 1039.93950252 404.08801207 1066.36867874 461 1083 C461.99136963 1083.29688721 462.98273926 1083.59377441 464.00415039 1083.8996582 C472.94709683 1086.52993657 481.94557135 1088.65375799 491.0625 1090.5625 C491.78133362 1090.71440796 492.50016724 1090.86631592 493.24078369 1091.02282715 C504.13459377 1093.31756224 515.02032683 1095.22235045 526.07055664 1096.58862305 C528.43986692 1096.92134142 530.78879836 1097.29750489 533.14624023 1097.70239258 C544.54266491 1099.64231321 555.76700572 1100.70526467 567.3125 1101.1875 C568.18219421 1101.22669556 569.05188843 1101.26589111 569.94793701 1101.30627441 C596.59097578 1102.49775985 623.48276742 1103.31127981 650 1100 C651.0734668 1099.87109375 652.14693359 1099.7421875 653.25292969 1099.609375 C685.15566405 1095.71725943 717.48577883 1090.28582552 748 1080 C749.05251953 1079.64776367 750.10503906 1079.29552734 751.18945312 1078.93261719 C775.09713474 1070.90411474 798.19873295 1061.80814136 821 1051 C821.86625 1050.59023926 822.7325 1050.18047852 823.625 1049.75830078 C851.06071596 1036.67810885 876.82069992 1020.38192404 901 1002 C902.06081787 1001.1961084 902.06081787 1001.1961084 903.14306641 1000.37597656 C913.77209176 992.29413685 924.03289961 983.88374798 934 975 C934.70890381 974.37867188 935.41780762 973.75734375 936.14819336 973.1171875 C943.2373405 966.84352871 949.9592183 960.22694323 956.65014648 953.53515625 C958.5575894 951.62990496 960.47291467 949.73282387 962.38867188 947.8359375 C969.39658628 940.85979653 975.86394874 933.76217338 982 926 C983.46531372 924.27443666 984.95366463 922.57205949 986.44677734 920.87060547 C993.42286019 912.91183523 999.80343631 904.5749089 1006 896 C1006.56509277 895.21818359 1007.13018555 894.43636719 1007.71240234 893.63085938 C1016.02733306 882.06665306 1023.78801827 870.28048821 1031 858 C1031.47115234 857.20577637 1031.94230469 856.41155273 1032.42773438 855.59326172 C1068.35234368 794.8835498 1091.28847624 726.69106123 1099.4375 656.625 C1099.58912598 655.32199951 1099.74075195 654.01899902 1099.89697266 652.67651367 C1103.85342232 615.91156893 1103.9648642 577.63925872 1099 541 C1098.8911145 540.19183838 1098.782229 539.38367676 1098.67004395 538.55102539 C1097.81639017 532.25780351 1096.92183135 525.9710809 1096 519.6875 C1095.87461853 518.83002167 1095.74923706 517.97254333 1095.62005615 517.08908081 C1094.37771387 508.69268972 1093.07863052 500.45358874 1090.66992188 492.29760742 C1089.8562837 489.50710129 1089.25688497 486.70000307 1088.67089844 483.85473633 C1080.39282921 443.68881458 1064.30241241 405.51619329 1046 369 C1045.54238281 368.0821875 1045.08476563 367.164375 1044.61328125 366.21875 C1026.32591836 329.75656185 1001.86019566 296.56011607 975 266 C974.0726001 264.93906128 974.0726001 264.93906128 973.12646484 263.85668945 C966.98098409 256.91876885 960.51412965 250.32795312 953.96240234 243.77709961 C952.12957731 241.94208278 950.3049299 240.0991875 948.48046875 238.25585938 C942.36454819 232.11137905 936.20770942 226.27616678 929.38574219 220.91210938 C926.8654592 218.8921691 924.4945812 216.75636912 922.125 214.5625 C916.364557 209.3282077 910.22786199 204.65348077 904 200 C903.42121094 199.56429687 902.84242188 199.12859375 902.24609375 198.6796875 C845.83744049 156.28021626 779.97392089 125.23071973 711 110 C709.68632647 109.70360208 708.37268801 109.40704872 707.05908203 109.11035156 C668.95019814 100.58416754 630.13917556 96.82585702 591.11712646 97.94213867 C589.01910015 97.99947799 586.92113533 98.0456873 584.82275391 98.08789062 Z " fill="#FFFEFE" transform="translate(0,0)"/>
<path d="M0 0 C0.73550079 -0.00006042 1.47100159 -0.00012085 2.22879028 -0.00018311 C17.61280248 0.0176227 32.85579716 0.89835484 48.1875 2.1875 C49.10547363 2.25694824 50.02344727 2.32639648 50.96923828 2.39794922 C64.02604623 3.38645346 76.49620548 6.01197609 89.1875 9.1875 C90.24453125 9.4453125 91.3015625 9.703125 92.390625 9.96875 C95.01392027 10.64469111 97.59758712 11.39282659 100.1875 12.1875 C100.81479004 12.37892578 101.44208008 12.57035156 102.08837891 12.76757812 C156.77843973 29.65734109 203.30315701 66.94896092 230.42626953 117.49609375 C238.86525969 133.75048649 245.05891676 151.12245484 248.1875 169.1875 C248.35451416 170.03666992 248.52152832 170.88583984 248.69360352 171.76074219 C250.16234458 179.64893405 250.53675779 187.29823557 250.5 195.3125 C250.49508545 196.58641602 250.4901709 197.86033203 250.48510742 199.17285156 C250.36214919 209.11796533 249.54822052 218.52852833 247.1875 228.1875 C247.02121094 228.88697754 246.85492187 229.58645508 246.68359375 230.30712891 C238.64191501 263.09186176 217.12869607 290.35680326 188.40380859 307.89648438 C165.36032553 321.31947826 135.85502662 332.20232815 109 333.4375 C101.96419664 333.99796229 95.70831254 336.81694245 89.22070312 339.39550781 C82.31213024 342.08659937 75.26558041 344.64801503 67.97265625 346.03515625 C58.82983042 347.7711805 58.82983042 347.7711805 51.625 353.4375 C39.86444226 371.13014523 35.75561463 392.6352808 32.1875 413.1875 C32.991875 413.331875 33.79625 413.47625 34.625 413.625 C37.1875 414.1875 37.1875 414.1875 38.1875 415.1875 C38.8125 417.875 38.8125 417.875 38.1875 421.1875 C33.1271177 426.79375445 25.04713226 428.81689105 18.13256836 431.21923828 C10.14065901 434.0546046 2.60036364 437.6755847 -4.98291016 441.45581055 C-9.8871139 443.88123576 -14.46717734 445.90462256 -19.8125 447.1875 C-20.80572266 447.43588623 -21.79894531 447.68427246 -22.82226562 447.94018555 C-79.57053559 462.02823665 -79.57053559 462.02823665 -101.3125 453.875 C-109.09337763 448.6229076 -110.66942074 439.81818171 -112.37744141 431.1328125 C-117.75096542 394.75447711 -106.10580782 354.76939078 -84.703125 325.28125 C-82.49940727 322.48236763 -80.20614662 319.82578032 -77.8125 317.1875 C-77.35423828 316.68009277 -76.89597656 316.17268555 -76.42382812 315.64990234 C-62.04074132 299.93451766 -44.51483393 289.97836025 -25.8125 280.1875 C14.51584692 259.68550318 14.51584692 259.68550318 50.1875 232.1875 C51.23164062 231.25550781 51.23164062 231.25550781 52.296875 230.3046875 C60.77174485 222.45393597 66.61340861 212.12209643 70.1875 201.1875 C70.54199219 200.15882813 70.89648438 199.13015625 71.26171875 198.0703125 C76.43781371 176.36128976 69.88401384 154.00450839 58.53515625 135.4921875 C51.61417209 125.10256892 41.74379863 111.44175444 28.875 108.75 C26.9844264 108.51532629 25.08732838 108.32889453 23.1875 108.1875 C21.71216797 108.06568359 21.71216797 108.06568359 20.20703125 107.94140625 C2.94700026 107.20456146 -12.15842924 117.91455026 -24.484375 129.03125 C-29.59077422 133.78935147 -34.23240996 138.92447919 -38.8125 144.1875 C-39.51503906 144.98800781 -40.21757813 145.78851563 -40.94140625 146.61328125 C-42.09124842 147.9263578 -43.23678841 149.24323528 -44.375 150.56640625 C-45.79800816 152.1711573 -47.28034521 153.6872651 -48.8125 155.1875 C-48.503125 155.744375 -48.19375 156.30125 -47.875 156.875 C-46.69545483 159.44224537 -45.95420764 161.3533472 -45.8125 164.1875 C-48.31266762 167.55311026 -50.88449704 168.91376638 -54.8125 170.1875 C-58.06210327 170.44819641 -58.06210327 170.44819641 -61.78662109 170.4621582 C-62.46861069 170.46726913 -63.15060028 170.47238007 -63.85325623 170.47764587 C-66.09757374 170.49149394 -68.34158245 170.49058858 -70.5859375 170.48828125 C-72.15386061 170.49217119 -73.72178266 170.49650647 -75.28970337 170.50126648 C-78.57305316 170.50871867 -81.85629541 170.50844497 -85.13964844 170.50317383 C-89.33490065 170.49738447 -93.52971061 170.51430186 -97.72488976 170.5375185 C-100.96266224 170.55229433 -104.2003292 170.55312226 -107.43812943 170.55000877 C-108.98419698 170.55052018 -110.53027072 170.55572394 -112.07630539 170.56582069 C-114.24435384 170.5782413 -116.41155365 170.57136054 -118.57958984 170.55981445 C-120.42561295 170.56075859 -120.42561295 170.56075859 -122.30892944 170.5617218 C-128.50061963 169.90037778 -133.39777196 166.89349949 -138.8125 163.9375 C-145.13717079 160.65058641 -151.69053775 158.44505896 -158.5 156.375 C-159.44939453 156.0852832 -160.39878906 155.79556641 -161.37695312 155.49707031 C-166.17375764 154.08790525 -170.81813138 153.00812409 -175.76953125 152.30078125 C-179.35898395 151.67774403 -180.60504312 151.36027934 -183.4765625 148.96875 C-188.25554211 139.0195293 -184.2817133 123.52018607 -181.1875 113.375 C-174.61704481 94.97287642 -163.96334113 78.52635556 -150.8125 64.1875 C-150.32297852 63.6527002 -149.83345703 63.11790039 -149.32910156 62.56689453 C-136.96452786 49.24596707 -122.35853705 38.517689 -106.8125 29.1875 C-106.20116211 28.8167334 -105.58982422 28.4459668 -104.95996094 28.06396484 C-83.07866778 14.90266422 -58.79793222 6.02027781 -33.453125 2.6953125 C-29.87171338 2.30842523 -29.87171338 2.30842523 -26.8125 1.1875 C-17.93824409 -0.09526919 -8.94612881 -0.01134384 0 0 Z M-34.8125 19.1875 C-35.67488281 19.35910645 -36.53726563 19.53071289 -37.42578125 19.70751953 C-80.93798055 28.61860134 -126.41367378 53.84905461 -151.8125 91.1875 C-160.82136712 105.2784739 -168.00749079 120.22330163 -167.8125 137.1875 C-167.04172119 137.43395264 -166.27094238 137.68040527 -165.47680664 137.93432617 C-161.93964625 139.07145066 -158.40737461 140.22309903 -154.875 141.375 C-153.05645508 141.95604492 -153.05645508 141.95604492 -151.20117188 142.54882812 C-144.90813108 144.61239977 -139.13773145 146.79114098 -133.48217773 150.26293945 C-131.83898411 151.34897534 -131.83898411 151.34897534 -129.8125 151.1875 C-129.50699219 150.46046875 -129.20148438 149.7334375 -128.88671875 148.984375 C-124.84206698 140.0975345 -119.5801208 134.02193793 -112.8125 127.1875 C-111.76642578 126.05054688 -111.76642578 126.05054688 -110.69921875 124.890625 C-89.16737789 101.97907395 -55.93612569 81.28409241 -23.9206543 80.07861328 C-20.61310366 80.01735766 -17.30809735 80.00189793 -14 80 C-12.88818359 79.98775391 -11.77636719 79.97550781 -10.63085938 79.96289062 C-3.4650204 79.95031162 3.19326664 80.64914798 10.1875 82.1875 C11.49509277 82.45904907 11.49509277 82.45904907 12.82910156 82.73608398 C35.43117851 87.66127777 56.94737088 103.26979662 69.54296875 122.515625 C70.08566406 123.39734375 70.62835937 124.2790625 71.1875 125.1875 C71.84363281 126.23421875 72.49976563 127.2809375 73.17578125 128.359375 C86.51918184 150.28067598 92.4614116 177.0126234 87 202.4375 C76.65852356 238.82596618 47.06434319 259.45350941 15.75 277 C9.37343899 280.53810523 2.90686728 283.88865237 -3.58227539 287.21484375 C-30.12620734 300.51528148 -30.12620734 300.51528148 -53.8125 318.1875 C-54.71742188 318.95191406 -55.62234375 319.71632813 -56.5546875 320.50390625 C-78.63814064 339.55929587 -91.84007426 368.69653833 -94.65576172 397.59985352 C-95.00426465 403.35340888 -94.95474248 409.11313777 -94.9375 414.875 C-94.94136719 416.14794922 -94.94523437 417.42089844 -94.94921875 418.73242188 C-94.94053994 427.26803378 -94.53462719 435.68399994 -93.8125 444.1875 C-80.35071382 444.8302378 -67.96100449 442.98477118 -54.8125 440.1875 C-53.32073242 439.87474121 -53.32073242 439.87474121 -51.79882812 439.55566406 C-48.82104899 438.92578612 -45.84732655 438.28009747 -42.875 437.625 C-41.96983643 437.42753174 -41.06467285 437.23006348 -40.13208008 437.02661133 C-37.67462829 436.46544273 -35.24364656 435.85290476 -32.8125 435.1875 C-31.75071533 434.90350342 -31.75071533 434.90350342 -30.66748047 434.61376953 C-28.49156576 433.96699102 -28.49156576 433.96699102 -25.8125 432.1875 C-24.71586579 429.03716238 -24.71586579 429.03716238 -24.8125 425.1875 C-24.75397893 423.58984109 -24.6953799 421.99218503 -24.63671875 420.39453125 C-24.61601318 419.52715332 -24.59530762 418.65977539 -24.57397461 417.76611328 C-24.02554286 397.25874802 -21.25036146 376.82925741 -6.75 361.25 C8.68436197 347.08770083 29.22972526 339.69704769 48.98876953 333.86083984 C51.23968646 333.1715184 53.45893503 332.41403092 55.68359375 331.64453125 C58.65242933 330.63916533 61.5763633 329.84207484 64.64453125 329.203125 C69.53604664 328.17243934 74.17176008 326.61650608 78.875 324.9375 C79.75075684 324.62522461 80.62651367 324.31294922 81.52880859 323.99121094 C84.08648247 323.06907875 86.63829385 322.13276367 89.1875 321.1875 C89.84476074 320.94515625 90.50202148 320.7028125 91.17919922 320.453125 C105.71349566 314.98438234 119.54284437 306.44540154 131.1875 296.1875 C132.46173828 295.07568359 132.46173828 295.07568359 133.76171875 293.94140625 C149.49804608 279.99276334 167.39012021 261.1617165 171.45703125 239.71484375 C172.27684495 236.87837604 173.65209949 234.61013575 175.15112305 232.08276367 C187.87462137 208.81479725 186.83306918 178.86625543 186.1875 153.1875 C184.2075 152.5275 182.2275 151.8675 180.1875 151.1875 C180.00755462 145.87911121 180.34431404 141.48316974 181.5625 136.3125 C184.42514595 118.76856979 171.10534816 95.98624527 161.1875 82.1875 C141.97005105 56.12280025 119.13916098 42.48496428 89.1875 31.1875 C87.84849921 30.66654312 86.50987597 30.14461318 85.171875 29.62109375 C48.27107069 15.6739888 3.81471958 11.36899683 -34.8125 19.1875 Z " fill="#FFFEFC" transform="translate(562.8125,258.8125)"/>
<path d="M0 0 C0.83136475 -0.01369629 1.66272949 -0.02739258 2.51928711 -0.04150391 C5.82205342 -0.01596261 8.37211871 0.15548687 11.3515625 1.640625 C13.15688359 3.78384041 13.21880687 4.74201569 13 7.5 C12.938125 8.77875 12.87625 10.0575 12.8125 11.375 C13.1425 11.705 13.4725 12.035 13.8125 12.375 C13.33224469 18.7383829 13.33224469 18.7383829 11.28889465 21.24121094 C9.35514567 24.03600055 9.43812454 25.82320106 9.44018555 29.203125 C9.43395676 30.37955566 9.42772797 31.55598633 9.42131042 32.76806641 C9.43052017 34.04085449 9.43972992 35.31364258 9.44921875 36.625 C9.44973856 37.96142578 9.44921619 39.29785232 9.44770813 40.63427734 C9.4477979 43.4454278 9.45821604 46.25629189 9.47631836 49.06738281 C9.49865911 52.6084426 9.49944415 56.14907533 9.49304008 59.69018555 C9.4724055 75.01145887 9.81606917 90.16235706 11.8125 105.375 C13.08996094 105.35179687 14.36742187 105.32859375 15.68359375 105.3046875 C19.5546875 105.234375 19.5546875 105.234375 21.875 106.5 C23.32287088 109.39574175 22.62446113 111.29869655 21.8125 114.375 C19.9140625 116.61328125 19.9140625 116.61328125 17.4375 118.6875 C16.53 119.45835937 15.6225 120.22921875 14.6875 121.0234375 C13.73875 121.79945313 12.79 122.57546875 11.8125 123.375 C10.925625 124.10976563 10.03875 124.84453125 9.125 125.6015625 C7.31253677 127.09262964 5.49334362 128.57554881 3.66796875 130.05078125 C0.66279409 132.49685365 -2.29233328 134.99677631 -5.25 137.5 C-8.95006499 140.56741139 -12.65746054 143.61227337 -16.5 146.5 C-17.23863281 147.05945313 -17.97726562 147.61890625 -18.73828125 148.1953125 C-22.00690184 149.76967202 -24.56966081 149.43853643 -28.1875 149.375 C-31.28051064 149.83693154 -34.32064962 150.51984956 -37.375 151.1875 C-51.89024504 154.18049962 -65.94431913 156.6278989 -80.8125 156.6875 C-81.79573242 156.69297852 -82.77896484 156.69845703 -83.79199219 156.70410156 C-99.97391181 156.54453826 -99.97391181 156.54453826 -105.75 151.875 C-108.1875 149.375 -108.1875 149.375 -109.1875 147.375 C-109.084375 146.22 -108.98125 145.065 -108.875 143.875 C-108.80571996 139.99531758 -109.82289457 138.04949856 -112 134.875 C-120.44493399 121.74824029 -118.66387745 103.59242741 -118.75 88.625 C-118.66657997 70.38064052 -118.66657997 70.38064052 -121.1875 52.375 C-122.16999414 47.13087375 -122.33944742 43.37081894 -120.1875 38.375 C-117.97265625 35.91796875 -117.97265625 35.91796875 -115.25 33.5625 C-114.25871094 32.69882812 -113.26742188 31.83515625 -112.24609375 30.9453125 C-108.55556609 27.84394954 -104.84784394 24.76934018 -101.08984375 21.75 C-98.9626233 20.00928663 -96.88166767 18.24878295 -94.81640625 16.4375 C-94.24390137 15.93919678 -93.67139648 15.44089355 -93.08154297 14.92749023 C-91.97386492 13.96037162 -90.87221684 12.98628632 -89.77783203 12.00415039 C-82.72144359 5.87517936 -75.93038242 6.06194946 -67 5.875 C-54.07217806 5.48593719 -41.40725826 4.42388943 -28.609375 2.578125 C-19.06235955 1.21609266 -9.65553472 0.07993728 0 0 Z " fill="#FFFEFC" transform="translate(569.1875,783.625)"/>
<path d="M0 0 C0.70253906 -0.00239685 1.40507812 -0.0047937 2.12890625 -0.00726318 C15.8806251 -0.00765315 28.79272804 2.04164266 42.125 5.4375 C43.68747191 5.82563392 45.24996907 6.21366625 46.8125 6.6015625 C47.905625 6.87742187 48.99875 7.15328125 50.125 7.4375 C49.49342105 12.99539474 49.49342105 12.99539474 47.5625 15.3125 C45.32902365 18.6141607 45.92868065 21.51111307 46.125 25.4375 C48.105 26.0975 50.085 26.7575 52.125 27.4375 C52.55594686 34.67808847 52.98274829 41.91891296 53.40673828 49.15991211 C53.5513027 51.62057969 53.69679814 54.08119277 53.84326172 56.54174805 C54.05423873 60.08888882 54.26181034 63.63621542 54.46875 67.18359375 C54.53437134 68.2745787 54.59999268 69.36556366 54.66760254 70.48960876 C55.01371024 76.48489172 55.19096158 82.43224759 55.125 88.4375 C37.09722776 92.06886108 19.07574297 95.66577961 0.625 95.75 C-0.24125 95.75547852 -1.1075 95.76095703 -2 95.76660156 C-6.67537887 95.71296786 -10.48148772 95.22771361 -14.875 93.4375 C-14.82279297 92.21740234 -14.82279297 92.21740234 -14.76953125 90.97265625 C-14.6115017 84.28273844 -14.95846767 78.37568691 -16.3203125 71.8125 C-18.31478629 61.39039746 -18.59876236 50.9571639 -18.9375 40.375 C-19.36902682 27.61724105 -20.00132993 15.07600961 -21.875 2.4375 C-14.56287361 0.11450352 -7.64585492 0.00155802 0 0 Z " fill="#FFDE59" transform="translate(483.875,827.5625)"/>
<path d="M0 0 C6.63854371 9.95781557 9.52398388 22.4293862 12 34 C12.226875 34.98484375 12.45375 35.9696875 12.6875 36.984375 C15.01634312 48.95204101 16.48503116 65.26213693 13 77 C11.845 76.855625 10.69 76.71125 9.5 76.5625 C3.59282744 76.63441341 0.99717119 80.00920388 -3 84 C-4.75958391 85.65738719 -6.53170128 87.30077197 -8.30419922 88.94433594 C-10.25676188 90.75627489 -12.2013268 92.57647032 -14.14453125 94.3984375 C-19.39050659 99.30838578 -24.69236613 104.15690765 -30 109 C-31 107 -31 107 -30.57421875 105.22265625 C-28.08842454 99.16695493 -24.55121631 95.14287449 -20.06640625 90.4375 C-16.08812068 86.11646572 -12.63128695 81.39248842 -9.125 76.6875 C-8.48264404 75.82729248 -7.84028809 74.96708496 -7.1784668 74.08081055 C-5.43680738 71.73136669 -3.71331941 69.3701627 -2 67 C-1.56300781 66.40509766 -1.12601563 65.81019531 -0.67578125 65.19726562 C2.06450633 61.32890913 2.37875296 58.73441205 2 54 C0.02 53.67 -1.96 53.34 -4 53 C-2.87985733 49.95368607 -1.55932929 47.10812269 -0.01953125 44.2578125 C0.33947266 43.58363281 0.69847656 42.90945313 1.06835938 42.21484375 C1.81384288 40.82275414 2.57169601 39.43721763 3.34179688 38.05859375 C5.89929721 33.18495428 6.32400464 30.36607171 5 25 C2.69 24.67 0.38 24.34 -2 24 C-5.61725335 29.69991437 -9.02638642 35.48780043 -12.3515625 41.36328125 C-13.75412131 43.60671062 -15.03605015 45.25625059 -17 47 C-17.3870961 42.63355598 -16.44097765 40.73795231 -13.875 37.25 C-6.52820467 26.222386 -3.41588618 12.67896577 0 0 Z " fill="#FFDF60" transform="translate(783,393)"/>
<path d="M0 0 C-4.1597675 5.1449756 -8.65897835 9.52492961 -13.6328125 13.88671875 C-16.02769177 15.93400412 -16.02769177 15.93400412 -17.96875 18.2734375 C-20 20 -20 20 -22.5234375 20.27734375 C-23.46445312 20.16519531 -24.40546875 20.05304687 -25.375 19.9375 C-26.97214844 19.74800781 -26.97214844 19.74800781 -28.6015625 19.5546875 C-33.21654445 18.80143757 -37.75510348 17.7858886 -42.31640625 16.76171875 C-55.0727778 14.12386885 -68.02002171 13.53612954 -81 13 C-73.45053322 5.24082581 -73.45053322 5.24082581 -69.77807617 4.63110352 C-68.95799072 4.63037842 -68.13790527 4.62965332 -67.29296875 4.62890625 C-65.85207886 4.60654907 -65.85207886 4.60654907 -64.38208008 4.58374023 C-63.32786865 4.57673096 -62.27365723 4.56972168 -61.1875 4.5625 C-47.41881121 4.27508901 -33.84560395 2.87865119 -20.16674805 1.37133789 C-19.34721649 1.2820401 -18.52768494 1.19274231 -17.68331909 1.10073853 C-16.14677639 0.93248266 -14.61062303 0.760613 -13.07498169 0.58432007 C-8.6773897 0.09935459 -4.41442112 -0.07772505 0 0 Z " fill="#FFDE5C" transform="translate(562,801)"/>
<path d="M0 0 C1.6479787 1.40764847 3.294985 2.81644878 4.9375 4.23046875 C6.28507845 5.3866298 7.63901872 6.53542779 9 7.67578125 C13.82538032 11.77546961 17.97357147 16.12018585 22 21 C22.42265137 21.49967285 22.84530273 21.9993457 23.28076172 22.51416016 C31.89597309 32.71867261 39.1338616 43.556436 46 55 C46.41765625 55.67546875 46.8353125 56.3509375 47.265625 57.046875 C48.23984521 58.66167835 49.12938812 60.32705952 50 62 C49.505 62.99 49.505 62.99 49 64 C45.9375 64.625 45.9375 64.625 43 65 C42.82871582 65.5347998 42.65743164 66.06959961 42.48095703 66.62060547 C41.70192467 69.04081336 40.91358694 71.45788933 40.125 73.875 C39.85558594 74.71675781 39.58617187 75.55851562 39.30859375 76.42578125 C39.04433594 77.23144531 38.78007813 78.03710938 38.5078125 78.8671875 C38.26691895 79.61081543 38.02602539 80.35444336 37.77783203 81.12060547 C37 83 37 83 35 85 C31.65413189 71.60051011 29.41455571 58.99118871 29.921875 45.13842773 C29.95410156 44.22907471 29.98632812 43.31972168 30.01953125 42.3828125 C30.06182861 41.58246582 30.10412598 40.78211914 30.14770508 39.95751953 C30.19588258 37.76128343 30.19588258 37.76128343 28 36 C24.41656024 35.83322718 24.41656024 35.83322718 21 36 C20.71390869 35.42668945 20.42781738 34.85337891 20.13305664 34.26269531 C14.97561165 23.99516858 9.96282067 14.12161256 2.6796875 5.1796875 C1 3 1 3 0 0 Z " fill="#FFDE5D" transform="translate(730,323)"/>
<path d="M0 0 C1.85114179 5.55342536 -0.65228091 10.85089629 -3 16 C-5.89928973 19.88485687 -9.10318678 23.24634147 -12.58154297 26.61083984 C-13.8847002 27.88708161 -15.13486064 29.21685385 -16.37890625 30.55078125 C-29.19634855 44.14898145 -43.99612473 52.6091674 -61 60 C-61 59.01 -61 58.02 -61 57 C-58.57002258 55.13832092 -58.57002258 55.13832092 -55.2355957 53.02368164 C-48.0853771 48.3021103 -42.21140163 42.73031498 -36.23046875 36.62109375 C-35.17376546 35.55690208 -34.11615474 34.49361078 -33.05769348 33.4311676 C-30.31487818 30.67329996 -27.58430721 27.90363104 -24.85638428 25.13104248 C-22.05434095 22.28759823 -19.24050453 19.45587333 -16.42773438 16.62304688 C-10.94042597 11.09322928 -5.46604037 5.55085003 0 0 Z " fill="#FFDE5D" transform="translate(793,480)"/>
<path d="M0 0 C-0.72861185 2.22955225 -1.4667763 4.45402843 -2.23046875 6.671875 C-3.06467238 9.07949431 -3.06467238 9.07949431 -3.6875 11.9375 C-5 14 -5 14 -8.625 14.875 C-9.33785156 15.01421875 -10.05070313 15.1534375 -10.78515625 15.296875 C-17.19068198 17.33037523 -21.909233 23.83359282 -26.125 28.80078125 C-28.34969104 31.41015844 -30.63988509 33.95467348 -32.9375 36.5 C-33.70964844 37.3559375 -34.48179687 38.211875 -35.27734375 39.09375 C-35.84582031 39.7228125 -36.41429687 40.351875 -37 41 C-38.67758276 35.89735242 -37.00340952 31.80818286 -35 27 C-29.06457751 16.34832288 -13.53643529 0 0 0 Z " fill="#FFDE5D" transform="translate(595,616)"/>
<path d="M0 0 C1.30568256 2.61136512 0.88354018 4.33801084 0.05078125 7.07421875 C-1.73464624 10.34639627 -4.6522692 12.11230077 -7.625 14.265625 C-14.1838392 19.05530363 -17.88937693 24.21080589 -21.5859375 31.40625 C-23.83017497 35.52275188 -26.69042251 38.69042251 -30 42 C-30.53415582 37.55529604 -30.76088654 33.42697626 -30 29 C-28.06867584 26.88147894 -26.17578054 25.90150808 -23.640625 24.578125 C-18.47929362 21.49354234 -14.87666189 16.52491165 -11 12 C-9.70947519 10.519837 -8.41794664 9.04054797 -7.125 7.5625 C-6.30708984 6.62083984 -6.30708984 6.62083984 -5.47265625 5.66015625 C-3.72602053 3.6911372 -1.8985757 1.82263267 0 0 Z " fill="#FFE063" transform="translate(585,645)"/>
<path d="M0 0 C3.41190833 1.61659466 6.56217535 3.54270105 9.75 5.5625 C11.22726562 6.49255859 11.22726562 6.49255859 12.734375 7.44140625 C13.48203125 7.95574219 14.2296875 8.47007812 15 9 C15 9.33 15 9.66 15 10 C4.605 10.99 4.605 10.99 -6 12 C-4.90492756 5.42956537 -4.19231575 4.51480158 0 0 Z " fill="#FFDF61" transform="translate(452,404)"/>
<path d="M0 0 C2.09553416 0.94583121 4.0971457 1.93386991 6.07421875 3.10546875 C6.07421875 6.10546875 6.07421875 6.10546875 4.07421875 9.10546875 C-0.3364665 7.64649782 -4.73048759 6.14625795 -9.11328125 4.60546875 C-10.32371094 4.18265625 -11.53414063 3.75984375 -12.78125 3.32421875 C-15.92578125 2.10546875 -15.92578125 2.10546875 -18.92578125 0.10546875 C-13.6803342 -2.51725477 -5.45908415 -1.66906578 0 0 Z " fill="#FFE064" transform="translate(516.92578125,374.89453125)"/>
<path d="M0 0 C0.33 0 0.66 0 1 0 C1.29008071 8.55738096 1.29008071 8.55738096 -1 13 C-3.27734375 15.38671875 -3.27734375 15.38671875 -5.9375 17.6875 C-6.81277344 18.45449219 -7.68804688 19.22148438 -8.58984375 20.01171875 C-11 22 -11 22 -14 24 C-13.50844939 19.37609168 -11.72979971 17.12813682 -8.6875 13.6875 C-4.94712263 9.29196099 -2.29134696 5.28006039 0 0 Z " fill="#FFE169" transform="translate(565,821)"/>
<path d="M0 0 C-6.50751637 5.65870989 -14.68331573 7.68044258 -23 9 C-19.78019828 5.24222642 -16.70580823 3.85558364 -12.0625 2.25 C-10.85722656 1.82203125 -9.65195312 1.3940625 -8.41015625 0.953125 C-5.38043163 0.10632911 -3.11129014 -0.21253595 0 0 Z " fill="#FFE169" transform="translate(728,559)"/>
<path d="M0 0 C0.66 0.33 1.32 0.66 2 1 C2.625 4.0625 2.625 4.0625 3 7 C1.9275 7.12375 0.855 7.2475 -0.25 7.375 C-3.37863615 7.89643936 -5.33480424 8.40088254 -8 10 C-6.34908222 5.70761377 -3.26245434 3.1206085 0 0 Z " fill="#FFE16A" transform="translate(565,887)"/>
<path d="M0 0 C5.75 1.875 5.75 1.875 8 3 C7.67 4.32 7.34 5.64 7 7 C5.83040013 6.02433888 4.66438823 5.044375 3.5 4.0625 C2.8503125 3.51722656 2.200625 2.97195313 1.53125 2.41015625 C1.0259375 1.94480469 0.520625 1.47945313 0 1 C0 0.67 0 0.34 0 0 Z " fill="#FFE16C" transform="translate(502,391)"/>
<path d="M0 0 C1.36125 0.37125 1.36125 0.37125 2.75 0.75 C2.75 1.08 2.75 1.41 2.75 1.75 C-0.55 2.41 -3.85 3.07 -7.25 3.75 C-4.05 -0.31153846 -4.05 -0.31153846 0 0 Z " fill="#FFE57D" transform="translate(712.25,564.25)"/>
<path d="M0 0 C0.66 0.33 1.32 0.66 2 1 C2 1.66 2 2.32 2 3 C-1.465 4.485 -1.465 4.485 -5 6 C-3.63016497 2.83884224 -3.0109362 2.0072908 0 0 Z " fill="#FFE375" transform="translate(736,534)"/>
</svg>
