<?xml version="1.0" encoding="utf-8"?>
<!-- Generator: Adobe Illustrator 27.5.0, SVG Export Plug-In . SVG Version: 6.00 Build 0)  -->
<svg version="1.1" xmlns="http://www.w3.org/2000/svg" xmlns:xlink="http://www.w3.org/1999/xlink" x="0px" y="0px"
	 viewBox="0 0 500 500" style="enable-background:new 0 0 500 500;" xml:space="preserve">
<g id="BACKGROUND">
	<g>
		<defs>
			<rect id="SVGID_1_" width="500" height="500"/>
		</defs>
		<clipPath id="SVGID_00000087402576666235804150000010399047084955274148_">
			<use xlink:href="#SVGID_1_"  style="overflow:visible;"/>
		</clipPath>
		<g style="clip-path:url(#SVGID_00000087402576666235804150000010399047084955274148_);">
			<g>
				<path style="fill:#FFD0CD;" d="M146.186,500.479c0,0-134.131-43.021-110.955-165.796
					c22.334-118.317,82.212-74.866,61.828-169.371C76.675,70.808,151.002,18.842,249.256,30.454v470.026H146.186z"/>
				<g>
					<path style="fill:#FFFFFF;" d="M96.578,238.267c0,0,0.71-0.938,2.041-2.695c0.685-0.866,1.4-2.022,2.308-3.326
						c0.465-0.644,0.883-1.393,1.353-2.173c0.457-0.788,0.999-1.59,1.466-2.498c1.966-3.567,3.934-8.161,5.029-13.659
						c0.074-0.342,0.148-0.687,0.223-1.034c0.071-0.348,0.086-0.709,0.132-1.066c0.078-0.717,0.158-1.444,0.238-2.182
						c0.037-0.343,0.075-0.689,0.113-1.037c-0.006-0.386-0.013-0.775-0.02-1.166c-0.013-0.783-0.026-1.576-0.04-2.379
						c0.054-3.246-0.352-6.517-0.622-9.96c-0.859-6.929-2.318-14.374-3.864-22.309c-0.793-3.962-1.544-8.069-2.26-12.288
						c-0.3-2.126-0.603-4.276-0.909-6.446c-0.089-1.103-0.179-2.21-0.27-3.323c-0.103-1.075-0.128-2.221-0.187-3.344
						c-0.407-8.981,0.163-18.316,2.168-27.589c2-9.26,5.433-18.396,10.225-26.782c0.594-1.051,1.26-2.058,1.887-3.089l0.477-0.769
						l0.119-0.192l0.113-0.173l0.064-0.09l0.256-0.359l1.022-1.435l2.042-2.867l2.376-2.823c3.16-3.784,6.684-6.962,10.274-10.072
						c1.863-1.443,3.669-2.962,5.558-4.321c1.899-1.341,3.764-2.725,5.684-3.965c1.902-1.278,3.798-2.531,5.7-3.726l1.419-0.906
						l0.708-0.452l0.353-0.226l0.212-0.123l0.092-0.05l0.183-0.099l1.463-0.792l1.651-0.767c4.326-1.876,8.526-2.848,12.29-4.403
						c1.98-0.776,3.883-1.592,5.934-2.25c1.005-0.345,2.005-0.688,2.998-1.028c0.998-0.292,1.99-0.582,2.976-0.87
						c7.885-2.291,15.555-3.549,22.642-4.201c7.091-0.673,13.612-0.71,19.365-0.535c5.755,0.172,10.753,0.559,14.852,0.989
						c2.053,0.187,3.879,0.409,5.466,0.613c1.589,0.189,2.937,0.37,4.029,0.53c2.184,0.306,3.349,0.469,3.349,0.469
						s-1.174-0.072-3.374-0.209c-2.199-0.146-5.429-0.294-9.533-0.446c-4.104-0.168-9.091-0.21-14.793-0.102
						c-5.7,0.137-12.123,0.519-19.048,1.44c-6.919,0.941-14.333,2.48-21.909,4.894c-0.945,0.307-1.896,0.616-2.853,0.927
						c-0.933,0.352-1.872,0.706-2.817,1.062c-1.882,0.659-3.815,1.553-5.76,2.384c-4.03,1.814-8.325,2.861-12.051,4.596
						l-1.344,0.646l-1.447,0.818l-0.181,0.102l-0.091,0.051c0.024-0.015-0.182,0.106,0.031-0.021l-0.346,0.23l-0.692,0.46
						l-1.389,0.922c-1.867,1.221-3.708,2.487-5.547,3.772c-3.698,2.554-7.277,5.3-10.795,8.156l-2.53,2.258
						c-0.838,0.761-1.717,1.486-2.482,2.318c-1.567,1.624-3.237,3.202-4.592,4.94l-2.146,2.558l-2.025,2.879l-1.013,1.441
						l-0.253,0.36l-0.063,0.09c0.086-0.125-0.008,0.018-0.004,0.014l-0.112,0.183l-0.447,0.731c-0.589,0.979-1.21,1.941-1.775,2.934
						c-4.585,7.916-7.897,16.557-9.857,25.375c-0.962,4.413-1.646,8.854-2.068,13.276c-0.435,4.414-0.509,8.841-0.411,13.137
						c0.037,1.078,0.036,2.127,0.121,3.23c0.066,1.066,0.133,2.127,0.198,3.183c0.246,2.123,0.49,4.226,0.73,6.306
						c0.58,4.164,1.201,8.244,1.874,12.226c1.342,7.961,2.504,15.576,3.079,22.682c0.131,3.595,0.423,7.059,0.196,10.246
						c-0.029,0.803-0.057,1.596-0.086,2.378c-0.014,0.391-0.028,0.779-0.042,1.165c0.002-0.044-0.004,0.141-0.009,0.149
						l-0.012,0.073l-0.024,0.146l-0.047,0.292l-0.094,0.58c-0.125,0.77-0.249,1.528-0.371,2.276
						c-0.068,0.372-0.106,0.746-0.198,1.107c-0.097,0.359-0.193,0.716-0.289,1.07c-1.425,5.691-3.779,10.255-5.998,13.746
						c-2.242,3.489-4.319,6.003-5.747,7.678C97.358,237.387,96.578,238.267,96.578,238.267z"/>
				</g>
				<g>
					<path style="fill:#FFFFFF;" d="M51.599,392.542c0,0-0.229-0.549-0.658-1.579c-0.427-1.031-1.091-2.523-1.74-4.518
						c-0.353-0.988-0.73-2.089-1.072-3.302c-0.364-1.209-0.756-2.521-1.076-3.945c-0.347-1.419-0.719-2.933-1.014-4.547
						c-0.345-1.608-0.596-3.315-0.85-5.1c-0.291-1.782-0.433-3.653-0.663-5.588c-0.137-1.938-0.3-3.946-0.344-6.011
						c-0.162-4.131-0.132-8.497,0.167-12.992c0.287-4.494,0.685-9.136,1.39-13.803c0.154-1.171,0.352-2.338,0.536-3.511l0.28-1.762
						l0.382-1.833c0.245-1.156,0.491-2.314,0.737-3.474l0.827-3.515c0.55-2.352,1.242-4.642,1.859-6.953
						c0.704-2.286,1.34-4.581,2.108-6.819c0.374-1.122,0.747-2.239,1.117-3.35c0.414-1.097,0.825-2.189,1.234-3.274
						c0.792-2.178,1.719-4.279,2.572-6.363c0.428-1.042,0.918-2.049,1.367-3.06c0.463-1.006,0.893-2.014,1.397-2.976
						c1.007-1.925,1.907-3.845,2.947-5.634c1.005-1.805,1.963-3.569,3.017-5.205c0.514-0.823,1.02-1.633,1.516-2.428
						c0.526-0.775,1.043-1.536,1.549-2.281c0.507-0.743,1.002-1.471,1.487-2.182c0.516-0.689,1.021-1.363,1.512-2.019
						c0.988-1.308,1.927-2.544,2.882-3.651c0.947-1.112,1.777-2.192,2.643-3.112c0.859-0.922,1.649-1.769,2.362-2.534
						c0.697-0.776,1.37-1.423,1.964-1.978c0.587-0.559,1.086-1.034,1.491-1.419c0.808-0.769,1.238-1.178,1.238-1.178
						s-0.364,0.471-1.045,1.355c-0.667,0.895-1.708,2.15-2.914,3.837c-0.604,0.84-1.273,1.77-2.001,2.783
						c-0.721,1.015-1.449,2.151-2.254,3.34c-0.819,1.179-1.612,2.487-2.442,3.866c-0.423,0.683-0.856,1.384-1.299,2.102
						c-0.416,0.734-0.842,1.485-1.277,2.252c-0.433,0.766-0.875,1.549-1.326,2.346c-0.42,0.814-0.847,1.644-1.282,2.488
						c-0.898,1.67-1.753,3.435-2.62,5.253c-1.743,3.632-3.36,7.563-4.987,11.639c-1.577,4.101-3.04,8.397-4.42,12.801
						c-0.723,2.19-1.317,4.443-1.979,6.682c-0.577,2.262-1.224,4.528-1.738,6.802l-0.844,3.402c-0.26,1.156-0.519,2.312-0.778,3.465
						l-0.363,1.629l-0.295,1.724c-0.194,1.148-0.402,2.291-0.566,3.435c-0.711,4.568-1.363,9.068-1.767,13.444
						c-0.405,4.374-0.729,8.612-0.803,12.638c-0.095,4.025-0.042,7.836,0.164,11.348c0.057,0.878,0.112,1.739,0.166,2.579
						c0.08,0.839,0.158,1.658,0.234,2.457c0.122,1.604,0.331,3.113,0.524,4.535c0.161,1.429,0.434,2.742,0.626,3.973
						c0.185,1.235,0.415,2.351,0.638,3.358c0.225,1.008,0.384,1.919,0.578,2.706c0.194,0.785,0.36,1.453,0.494,1.994
						C51.457,391.964,51.599,392.542,51.599,392.542z"/>
				</g>
				<g>
					<path style="fill:#FFFFFF;" d="M152.6,485.805c0,0-1.931-0.471-5.278-1.388c-0.833-0.245-1.77-0.453-2.762-0.796
						c-0.995-0.339-2.071-0.705-3.221-1.096c-1.151-0.4-2.377-0.826-3.669-1.275c-1.261-0.517-2.586-1.061-3.97-1.628
						c-1.376-0.586-2.846-1.129-4.294-1.839c-1.456-0.697-2.962-1.418-4.51-2.16c-1.564-0.716-3.088-1.602-4.688-2.435
						c-1.585-0.859-3.23-1.699-4.82-2.689c-1.603-0.971-3.233-1.959-4.883-2.958c-1.632-1.028-3.241-2.134-4.877-3.23
						c-1.646-1.081-3.259-2.237-4.851-3.434l-2.406-1.78c-0.416-0.313-0.772-0.559-1.237-0.928l-1.157-0.927
						c-1.533-1.257-3.074-2.47-4.59-3.762c-1.499-1.341-2.992-2.677-4.474-4.003c-1.459-1.343-2.819-2.749-4.197-4.11
						c-1.397-1.339-2.662-2.778-3.923-4.173c-2.586-2.731-4.769-5.656-6.924-8.335c-2.003-2.807-3.966-5.4-5.484-7.999
						c-0.789-1.274-1.545-2.495-2.264-3.657c-0.642-1.206-1.25-2.351-1.822-3.426c-0.57-1.086-1.098-2.052-1.592-3.033
						c-0.417-0.959-0.8-1.84-1.146-2.635c-1.379-3.184-2.117-5.031-2.117-5.031s1.11,1.65,2.965,4.583
						c0.463,0.734,0.975,1.546,1.532,2.431c0.591,0.8,1.244,1.756,1.931,2.725c0.69,0.977,1.423,2.017,2.197,3.114
						c0.819,1.061,1.681,2.177,2.58,3.341c0.89,1.168,1.812,2.385,2.869,3.567c1.014,1.211,2.062,2.463,3.139,3.75
						c1.136,1.234,2.303,2.503,3.497,3.799c1.174,1.31,2.445,2.583,3.742,3.871c2.527,2.637,5.352,5.16,8.157,7.759
						c1.441,1.246,2.893,2.501,4.351,3.762c1.488,1.253,3.067,2.473,4.597,3.716l1.15,0.936c0.306,0.249,0.758,0.574,1.129,0.857
						l2.339,1.756c0.776,0.588,1.551,1.174,2.323,1.759c0.772,0.586,1.575,1.122,2.357,1.683c1.58,1.097,3.117,2.234,4.673,3.299
						c1.572,1.044,3.124,2.075,4.652,3.09c1.504,1.056,3.083,1.927,4.563,2.893c1.504,0.924,2.938,1.902,4.415,2.707
						c2.931,1.651,5.653,3.324,8.276,4.66c1.299,0.697,2.545,1.365,3.729,2c1.202,0.595,2.341,1.158,3.413,1.688
						c2.149,1.051,4.016,2.026,5.62,2.696C150.809,484.941,152.6,485.805,152.6,485.805z"/>
				</g>
				<g>
					<path style="fill:#FFD0CD;" d="M86.35,144.507c0,0-0.162-0.936-0.465-2.691c-0.135-0.88-0.355-1.956-0.514-3.239
						c-0.153-1.288-0.33-2.768-0.528-4.426c-0.124-1.666-0.261-3.511-0.411-5.519c-0.051-2.012-0.147-4.196-0.101-6.529
						c0.025-4.669,0.414-9.946,1.283-15.656c0.853-5.713,2.326-11.842,4.533-18.12c2.2-6.276,5.112-12.729,8.948-18.936
						c0.478-0.777,0.957-1.557,1.438-2.341c0.521-0.757,1.045-1.518,1.57-2.281l0.79-1.147l0.396-0.575l0.199-0.288l0.099-0.144
						l0.175-0.225c0.567-0.711,1.135-1.424,1.705-2.139c0.58-0.715,1.121-1.434,1.737-2.152c0.626-0.718,1.254-1.438,1.884-2.159
						c1.245-1.471,2.595-2.804,3.924-4.179c5.369-5.443,11.364-10.455,17.816-14.785c6.474-4.298,13.351-7.955,20.354-10.965
						c1.75-0.756,3.524-1.429,5.273-2.139c1.784-0.615,3.545-1.265,5.319-1.838c3.551-1.135,7.085-2.164,10.598-3.013
						c7.014-1.753,13.915-2.859,20.471-3.581c6.557-0.743,12.785-1.015,18.522-1.043c5.737-0.065,10.987,0.215,15.621,0.57
						c4.637,0.317,8.655,0.847,11.955,1.279c3.299,0.458,5.876,0.896,7.629,1.219c1.751,0.324,2.686,0.497,2.686,0.497
						s-0.948-0.058-2.725-0.167c-1.773-0.139-4.382-0.241-7.691-0.403c-6.621-0.241-16.086-0.432-27.355,0.322
						c-5.631,0.391-11.707,1.033-18.074,2.004c-6.365,0.99-13.005,2.399-19.754,4.229c-6.747,1.843-13.562,4.254-20.256,7.186
						c-6.689,2.944-13.219,6.505-19.355,10.642c-6.183,4.068-11.926,8.785-17.087,13.925c-1.28,1.294-2.578,2.575-3.752,3.906
						c-0.605,0.656-1.209,1.31-1.812,1.962c-0.601,0.661-1.186,1.394-1.777,2.084c-0.589,0.7-1.176,1.398-1.762,2.093
						c-0.5,0.684-0.999,1.366-1.496,2.046c-0.518,0.71-1.034,1.418-1.549,2.123c-0.476,0.731-0.951,1.46-1.423,2.185
						c-3.755,5.819-6.846,11.809-9.216,17.735c-1.217,2.953-2.172,5.914-3.088,8.783c-0.418,1.449-0.829,2.872-1.232,4.27
						c-0.337,1.417-0.668,2.808-0.992,4.171c-0.333,1.362-0.533,2.722-0.798,4.039c-0.122,0.661-0.243,1.314-0.363,1.959
						c-0.095,0.649-0.189,1.291-0.282,1.924c-0.177,1.268-0.401,2.501-0.526,3.71c-0.125,1.21-0.245,2.385-0.363,3.524
						c-0.233,2.281-0.276,4.427-0.432,6.412c-0.041,1.99-0.078,3.818-0.112,5.469c0.028,1.653,0.053,3.128,0.075,4.412
						c0.016,1.288,0.116,2.385,0.153,3.274C86.302,143.559,86.35,144.507,86.35,144.507z"/>
				</g>
				<g>
					<path style="fill:#FFD0CD;" d="M89.329,216.625c0,0,0.14-0.734,0.455-1.986c0.079-0.313,0.166-0.659,0.26-1.037
						c0.06-0.382,0.149-0.782,0.231-1.211c0.175-0.854,0.362-1.804,0.506-2.87c0.076-0.529,0.171-1.074,0.239-1.642
						c0.055-0.57,0.112-1.159,0.17-1.764c0.033-0.3,0.066-0.605,0.1-0.913c0.015-0.311,0.03-0.625,0.046-0.944
						c0.036-0.633,0.073-1.279,0.11-1.936c-0.003-1.323,0.063-2.676,0.001-4.064c-0.006-1.382-0.117-2.792-0.186-4.2
						c-0.125-1.411-0.219-2.821-0.383-4.214c-0.159-1.396-0.315-2.77-0.466-4.1c-0.345-2.686-0.667-5.193-0.944-7.342
						c-0.278-2.164-0.472-3.991-0.585-5.277c-0.118-1.285-0.142-2.033-0.142-2.033s0.349,0.66,0.883,1.838
						c0.267,0.589,0.592,1.305,0.919,2.14c0.344,0.83,0.722,1.772,1.076,2.818c0.382,1.038,0.762,2.175,1.125,3.391
						c0.374,1.212,0.7,2.515,1.031,3.863c0.291,1.36,0.611,2.763,0.809,4.219c0.258,1.444,0.368,2.94,0.519,4.428
						c0.053,1.501,0.156,2.998,0.075,4.484c-0.003,1.481-0.189,2.941-0.339,4.344c-0.109,0.7-0.232,1.388-0.361,2.056
						c-0.117,0.67-0.253,1.322-0.443,1.947c-0.175,0.624-0.346,1.23-0.51,1.817c-0.199,0.577-0.421,1.127-0.617,1.655
						c-0.212,0.525-0.366,1.035-0.599,1.502c-0.233,0.463-0.454,0.903-0.661,1.316c-0.209,0.409-0.393,0.793-0.586,1.136
						c-0.211,0.327-0.405,0.628-0.579,0.899C89.775,216.026,89.329,216.625,89.329,216.625z"/>
				</g>
				<g>
					<path style="fill:#FFD0CD;" d="M23.252,340.897c0,0,0.041-0.498,0.117-1.433c0.092-0.931,0.193-2.304,0.389-4.038
						c0.184-1.736,0.385-3.845,0.767-6.253c0.371-2.406,0.678-5.153,1.288-8.091c0.594-2.942,1.087-6.168,1.971-9.505
						c0.417-1.675,0.846-3.396,1.284-5.155c0.431-1.763,1.045-3.518,1.579-5.329c1.036-3.634,2.437-7.29,3.871-11.002
						c0.669-1.874,1.547-3.686,2.382-5.521c0.869-1.82,1.639-3.696,2.597-5.484c0.979-1.776,1.959-3.552,2.935-5.321l0.732-1.324
						l0.369-0.659l0.12-0.193l0.027-0.038l0.053-0.076l0.106-0.151l0.212-0.303c0.564-0.807,1.127-1.612,1.687-2.413
						c0.56-0.801,1.119-1.6,1.674-2.394c0.546-0.791,1.197-1.568,1.785-2.345c1.213-1.539,2.37-3.111,3.594-4.548
						c1.225-1.433,2.43-2.842,3.609-4.221c1.202-1.357,2.408-2.65,3.579-3.914c2.326-2.541,4.661-4.8,6.776-6.921
						c4.265-4.2,7.944-7.559,10.524-9.909c1.278-1.185,2.323-2.081,3.018-2.708c0.707-0.616,1.085-0.944,1.085-0.944
						s-0.291,0.406-0.838,1.167c-0.559,0.751-1.353,1.874-2.416,3.26c-1.053,1.396-2.333,3.083-3.846,4.982
						c-1.505,1.908-3.176,4.07-5.063,6.374c-0.921,1.167-1.88,2.383-2.872,3.641c-0.996,1.254-2.04,2.535-3.063,3.888
						c-1.029,1.348-2.133,2.695-3.199,4.115c-1.063,1.419-2.149,2.868-3.253,4.342c-2.135,2.997-4.317,5.952-6.457,9.284
						c-0.539,0.816-1.081,1.635-1.624,2.456l-0.308,0.466l-0.341,0.64l-0.69,1.278c-0.922,1.704-1.848,3.415-2.774,5.125
						c-0.936,1.705-1.689,3.509-2.541,5.251c-0.806,1.765-1.73,3.469-2.412,5.27c-0.743,1.774-1.48,3.534-2.208,5.273
						c-0.385,0.862-0.714,1.741-1.024,2.621c-0.325,0.874-0.648,1.743-0.969,2.603c-0.63,1.727-1.308,3.404-1.873,5.086
						c-0.565,1.683-1.119,3.329-1.657,4.932c-0.275,0.801-0.546,1.591-0.814,2.37c-0.245,0.787-0.485,1.561-0.722,2.323
						c-0.482,1.524-0.947,2.997-1.394,4.411c-0.468,1.411-0.849,2.779-1.233,4.077c-0.392,1.298-0.763,2.529-1.112,3.686
						c-0.695,2.326-1.3,4.353-1.799,6.022c-0.483,1.676-0.915,2.983-1.186,3.878C23.405,340.421,23.252,340.897,23.252,340.897z"/>
				</g>
				<g>
					<path style="fill:#FFD0CD;" d="M49.316,450.113c0,0-0.24-0.227-0.689-0.654c-0.436-0.436-1.104-1.055-1.899-1.883
						c-0.814-0.809-1.773-1.827-2.81-3.064c-0.528-0.612-1.091-1.263-1.684-1.95c-0.58-0.696-1.139-1.458-1.752-2.239
						c-0.601-0.788-1.235-1.607-1.855-2.478c-0.603-0.884-1.226-1.797-1.867-2.737c-0.657-0.932-1.26-1.933-1.878-2.956
						c-0.624-1.02-1.25-2.07-1.866-3.15c-1.176-2.188-2.42-4.444-3.481-6.833c-1.153-2.349-2.092-4.836-3.095-7.296
						c-0.861-2.514-1.793-5.004-2.466-7.535c-0.777-2.497-1.308-5.021-1.861-7.445c-0.24-1.221-0.457-2.426-0.652-3.607
						c-0.203-1.179-0.398-2.332-0.51-3.469c-0.127-1.131-0.25-2.232-0.37-3.296c-0.097-1.066-0.144-2.102-0.201-3.093
						c-0.041-0.993-0.11-1.938-0.121-2.842c0.009-0.905,0.017-1.763,0.025-2.57c0.013-0.805,0.004-1.555,0.037-2.251
						c0.032-0.696,0.095-1.336,0.134-1.912c0.076-1.152,0.189-2.056,0.243-2.67c0.07-0.614,0.108-0.941,0.108-0.941
						s0.078,0.322,0.224,0.925c0.13,0.604,0.354,1.485,0.572,2.606c0.207,1.122,0.543,2.472,0.883,4.018
						c0.332,1.547,0.734,3.28,1.211,5.158c0.422,1.886,0.963,3.907,1.528,6.037c0.264,1.069,0.562,2.159,0.898,3.266
						c0.315,1.109,0.638,2.243,0.965,3.395c0.73,2.284,1.416,4.655,2.242,7.026c0.764,2.389,1.67,4.772,2.522,7.172
						c0.935,2.37,1.815,4.762,2.808,7.068c0.93,2.334,1.975,4.573,2.917,6.78c0.507,1.087,1.005,2.156,1.493,3.203
						c0.471,1.057,0.962,2.077,1.456,3.063c0.965,1.985,1.872,3.872,2.776,5.583c0.864,1.74,1.674,3.318,2.42,4.708
						c0.739,1.392,1.357,2.645,1.926,3.645c0.559,1.002,0.956,1.822,1.245,2.366C49.169,449.817,49.316,450.113,49.316,450.113z"/>
				</g>
				<g>
					<path style="fill:#FFD0CD;" d="M140.688,513.058c0,0-0.305-0.052-0.878-0.148c-0.567-0.112-1.41-0.244-2.46-0.476
						c-1.053-0.224-2.337-0.478-3.786-0.837c-0.727-0.172-1.501-0.355-2.316-0.549c-0.813-0.212-1.653-0.491-2.54-0.752
						c-1.767-0.546-3.679-1.16-5.696-1.84c-1.02-0.317-2.028-0.724-3.058-1.137c-1.036-0.403-2.08-0.847-3.15-1.285
						c-2.131-0.892-4.352-1.784-6.502-2.913c-2.178-1.073-4.365-2.214-6.556-3.349c-2.121-1.262-4.247-2.517-6.308-3.802
						c-2.098-1.224-4.021-2.659-5.903-4.003c-0.934-0.684-1.863-1.338-2.75-2.01c-0.895-0.66-1.768-1.309-2.565-2.014
						c-1.623-1.37-3.138-2.683-4.519-3.91c-0.683-0.624-1.356-1.195-1.96-1.784c-0.588-0.608-1.145-1.185-1.669-1.727
						c-1.055-1.072-1.934-2.049-2.663-2.843c-0.736-0.787-1.278-1.444-1.661-1.874c-0.373-0.442-0.572-0.678-0.572-0.678
						s0.274,0.147,0.787,0.424c0.503,0.289,1.26,0.686,2.178,1.24c0.924,0.548,2.054,1.198,3.303,1.995
						c0.628,0.392,1.296,0.809,2.001,1.249c0.719,0.418,1.475,0.857,2.263,1.315c1.57,0.922,3.252,1.936,5.011,3.029
						c0.44,0.273,0.885,0.549,1.336,0.829c0.463,0.262,0.931,0.528,1.405,0.796c0.951,0.53,1.899,1.104,2.875,1.669
						c1.946,1.139,3.912,2.378,5.999,3.496c2.071,1.141,4.143,2.352,6.219,3.553c2.117,1.132,4.237,2.258,6.3,3.416
						c2.049,1.186,4.141,2.208,6.132,3.274c2.006,1.027,3.895,2.165,5.748,3.066c1.842,0.934,3.579,1.846,5.18,2.71
						c0.801,0.437,1.568,0.857,2.298,1.255c0.745,0.384,1.452,0.748,2.116,1.09c1.333,0.671,2.474,1.313,3.419,1.828
						c0.948,0.507,1.674,0.955,2.178,1.239C140.423,512.898,140.688,513.058,140.688,513.058z"/>
				</g>
			</g>
			<g>
				<path style="fill:#DBF2F4;" d="M352.347,500.479c0,0,138.748-17.811,115.573-140.585
					c-22.334-118.317-86.849-77.921-66.466-172.426c20.383-94.505-40.458-154.124-152.178-157.014v470.026H352.347z"/>
				<g>
					<path style="fill:#FFFFFF;" d="M363.193,87.714c0,0-1.536-1.17-4.223-3.218c-0.683-0.487-1.439-1.026-2.262-1.612
						c-0.819-0.586-1.69-1.232-2.675-1.863c-0.974-0.641-1.99-1.346-3.092-2.043c-1.106-0.688-2.269-1.41-3.482-2.165
						c-2.463-1.448-5.156-2.956-8.043-4.474c-1.436-0.771-2.965-1.465-4.495-2.227c-1.555-0.712-3.143-1.44-4.759-2.18
						c-1.638-0.688-3.303-1.387-4.989-2.094c-1.714-0.642-3.421-1.353-5.178-1.98c-1.758-0.625-3.52-1.279-5.319-1.857l-2.692-0.896
						l-2.722-0.826c-3.62-1.138-7.297-2.092-10.918-3.032c-1.802-0.431-3.59-0.858-5.357-1.281
						c-1.819-0.371-3.615-0.738-5.382-1.099c-1.764-0.375-3.504-0.718-5.199-1.101c-1.689-0.288-3.342-0.57-4.951-0.845
						c-3.225-0.52-6.262-1.14-9.118-1.479c-2.846-0.378-5.456-0.776-7.773-1.132c-2.326-0.279-4.355-0.522-6.025-0.722
						c-3.345-0.42-5.263-0.716-5.263-0.716s1.925-0.124,5.305-0.241c1.69-0.051,3.746-0.142,6.103-0.16
						c2.354,0.046,5.014,0.101,7.917,0.219c2.905,0.036,6.053,0.35,9.385,0.676c1.668,0.162,3.381,0.328,5.133,0.497
						c1.72,0.239,3.47,0.532,5.253,0.803c1.781,0.285,3.591,0.576,5.424,0.87c1.951,0.379,3.735,0.74,5.628,1.166
						c3.735,0.856,7.51,1.827,11.239,2.971c3.734,1.12,7.417,2.424,10.994,3.826c1.798,0.677,3.535,1.471,5.27,2.202
						c1.715,0.781,3.4,1.572,5.044,2.376c1.619,0.858,3.238,1.645,4.766,2.525c1.518,0.898,3.03,1.723,4.447,2.622
						c1.408,0.914,2.817,1.733,4.104,2.649c1.283,0.921,2.536,1.784,3.708,2.656c1.152,0.898,2.256,1.758,3.305,2.576
						c1.024,0.85,1.962,1.697,2.859,2.468c0.9,0.765,1.718,1.517,2.443,2.249c0.731,0.717,1.403,1.375,2.01,1.969
						c1.181,1.208,2.04,2.223,2.658,2.884C362.872,87.353,363.193,87.714,363.193,87.714z"/>
				</g>
				<g>
					<path style="fill:#FFFFFF;" d="M408.603,268.006c0,0-0.527-0.473-1.516-1.36c-0.982-0.893-2.453-2.177-4.236-3.907
						c-1.805-1.707-3.94-3.854-6.237-6.48c-2.286-2.625-4.741-5.786-6.813-9.618c-0.254-0.472-0.537-0.909-0.774-1.423
						c-0.236-0.516-0.475-1.038-0.716-1.565c-0.24-0.529-0.483-1.063-0.728-1.602c-0.199-0.546-0.399-1.097-0.602-1.652
						c-0.2-0.558-0.402-1.12-0.605-1.687c-0.178-0.574-0.322-1.162-0.486-1.75c-0.159-0.59-0.32-1.185-0.482-1.784
						c-0.142-0.603-0.248-1.216-0.375-1.831c-0.993-4.914-1.363-10.251-1.154-15.63c0.182-5.396,0.724-10.982,1.575-16.517
						c0.833-5.554,1.847-11.131,2.751-16.683c0.958-5.543,1.795-11.069,2.236-16.513c0.206-2.722,0.35-5.419,0.393-8.081
						c-0.001-0.665-0.001-1.328-0.002-1.989l0-0.99l0-0.124c-0.004-0.088,0.006,0.051,0.003,0.013l-0.004-0.063l-0.015-0.253
						l-0.03-0.505c-0.079-1.344-0.157-2.679-0.235-4.002c-0.039-0.662-0.077-1.321-0.116-1.977l-0.061-0.98l-0.123-0.943
						c-0.167-1.254-0.321-2.498-0.463-3.733c-0.073-0.617-0.145-1.231-0.217-1.842c-0.059-0.612-0.148-1.218-0.278-1.819
						c-0.23-1.204-0.458-2.393-0.682-3.566c-0.238-1.171-0.415-2.342-0.693-3.469c-0.298-1.123-0.591-2.229-0.88-3.317
						c-0.281-1.092-0.557-2.166-0.828-3.22c-0.282-1.051-0.675-2.044-0.997-3.04c-0.337-0.992-0.667-1.963-0.99-2.912
						c-0.321-0.951-0.623-1.886-1.018-2.755c-0.74-1.766-1.442-3.44-2.101-5.014c-0.169-0.393-0.319-0.787-0.496-1.161
						c-0.19-0.367-0.377-0.727-0.561-1.081c-0.365-0.711-0.716-1.396-1.054-2.055c-0.672-1.325-1.29-2.542-1.847-3.641
						c-1.304-2.085-2.289-3.762-2.982-4.895c-0.688-1.138-1.055-1.746-1.055-1.746s0.441,0.554,1.267,1.592
						c0.821,1.043,2.057,2.558,3.579,4.536c0.679,1.044,1.43,2.201,2.248,3.46c0.407,0.634,0.831,1.293,1.271,1.977
						c0.218,0.344,0.441,0.693,0.667,1.049c0.213,0.363,0.4,0.748,0.607,1.13c0.813,1.543,1.677,3.184,2.589,4.915
						c0.49,0.854,0.854,1.789,1.252,2.736c0.398,0.949,0.805,1.92,1.22,2.911c0.401,0.998,0.875,1.996,1.239,3.053
						c0.354,1.063,0.714,2.145,1.081,3.246c0.359,1.106,0.724,2.23,1.095,3.372c0.344,1.15,0.589,2.344,0.894,3.541
						c0.292,1.202,0.588,2.42,0.888,3.653c0.165,0.613,0.289,1.242,0.385,1.883c0.108,0.639,0.217,1.281,0.326,1.926
						c0.446,2.582,0.897,5.255,1.062,7.872c0.117,1.321,0.236,2.652,0.355,3.993l0.045,0.504l0.022,0.252l0.013,0.203l0.004,0.13
						l0.033,1.04c0.021,0.695,0.043,1.392,0.065,2.091c0.055,1.399-0.013,2.8-0.015,4.213c-0.027,1.412-0.152,2.819-0.225,4.238
						c-0.405,5.662-1.203,11.343-2.126,16.953c-0.97,5.604-2.035,11.149-2.907,16.6c-0.859,5.466-1.638,10.775-1.939,15.976
						c-0.314,5.208-0.25,10.176,0.455,14.837c0.09,0.58,0.16,1.162,0.264,1.732c0.124,0.565,0.246,1.126,0.368,1.683
						c0.126,0.556,0.232,1.114,0.371,1.657c0.156,0.538,0.311,1.073,0.465,1.602c0.152,0.531,0.303,1.059,0.453,1.581
						c0.187,0.499,0.372,0.993,0.555,1.482c0.183,0.492,0.364,0.98,0.543,1.463c0.181,0.484,0.448,0.972,0.664,1.45
						c0.228,0.479,0.453,0.954,0.676,1.423l0.309,0.648l0.369,0.65c0.501,0.855,0.944,1.72,1.453,2.521
						c0.509,0.803,1.005,1.586,1.487,2.346c0.519,0.741,1.023,1.46,1.511,2.157c2.031,2.738,3.886,5.093,5.495,6.968
						C406.736,265.866,408.603,268.006,408.603,268.006z"/>
				</g>
				<g>
					<path style="fill:#FFFFFF;" d="M414.656,454.063c0,0,0.539-0.504,1.548-1.449c0.505-0.473,1.128-1.055,1.86-1.74
						c0.721-0.695,1.606-1.443,2.466-2.396c1.767-1.866,3.951-4.056,6.19-6.835c0.573-0.679,1.164-1.38,1.773-2.101
						c0.56-0.76,1.136-1.542,1.727-2.345c0.592-0.798,1.2-1.617,1.822-2.456c0.64-0.824,1.166-1.76,1.773-2.663
						c0.591-0.914,1.194-1.847,1.808-2.798c0.616-0.948,1.126-1.989,1.71-3.004c0.573-1.02,1.156-2.058,1.748-3.111
						c0.524-1.089,1.056-2.194,1.596-3.315c2.207-4.457,3.954-9.407,5.642-14.538c0.354-1.305,0.712-2.621,1.072-3.946
						c0.18-0.662,0.361-1.326,0.542-1.993c0.14-0.677,0.28-1.356,0.42-2.038c0.281-1.362,0.564-2.732,0.848-4.108
						c0.214-1.39,0.43-2.786,0.646-4.188l0.324-2.107c0.092-0.706,0.138-1.419,0.21-2.13c0.132-1.423,0.265-2.85,0.398-4.279
						c0.081-1.434,0.106-2.874,0.162-4.313l0.074-2.16c0.023-0.72-0.023-1.442-0.032-2.163l-0.061-4.326
						c-0.05-1.44-0.188-2.876-0.277-4.311l-0.15-2.15l-0.037-0.537l-0.005-0.067c-0.011-0.102,0.011,0.063,0.004,0.021l-0.019-0.136
						l-0.037-0.272l-0.149-1.085c-0.198-1.446-0.396-2.888-0.592-4.324c-0.197-1.436-0.393-2.866-0.588-4.289
						c-0.278-1.373-0.556-2.74-0.831-4.098c-0.276-1.359-0.551-2.71-0.823-4.052c-0.143-0.67-0.256-1.342-0.422-2.005
						c-0.184-0.661-0.367-1.319-0.549-1.974c-0.725-2.626-1.438-5.207-2.135-7.734c-0.847-2.485-1.676-4.917-2.482-7.284
						c-0.737-2.398-1.775-4.606-2.638-6.801c-0.441-1.095-0.875-2.171-1.3-3.228c-0.213-0.529-0.424-1.053-0.633-1.572
						c-0.221-0.513-0.473-1.006-0.704-1.503c-0.94-1.982-1.841-3.881-2.698-5.687c-0.432-0.902-0.811-1.806-1.257-2.642
						c-0.45-0.835-0.887-1.645-1.31-2.431c-0.845-1.576-1.635-3.051-2.367-4.415c-0.365-0.684-0.701-1.349-1.048-1.968
						c-0.367-0.608-0.716-1.187-1.048-1.737c-1.337-2.196-2.346-3.955-3.054-5.144c-0.703-1.193-1.077-1.829-1.077-1.829
						s0.449,0.584,1.292,1.679c0.837,1.1,2.095,2.695,3.642,4.77c0.389,0.517,0.799,1.063,1.23,1.635
						c0.411,0.585,0.815,1.214,1.25,1.86c0.857,1.305,1.784,2.716,2.774,4.225c2.075,2.968,3.944,6.594,6.153,10.467
						c0.268,0.488,0.557,0.973,0.816,1.479c0.247,0.512,0.497,1.029,0.748,1.551c0.504,1.045,1.017,2.109,1.54,3.192
						c1.021,2.177,2.162,4.396,3.041,6.801c0.941,2.383,1.908,4.831,2.896,7.333c0.847,2.554,1.623,5.195,2.461,7.868
						c0.206,0.669,0.414,1.341,0.622,2.016c0.192,0.681,0.333,1.385,0.503,2.081c0.326,1.398,0.654,2.806,0.984,4.222
						c0.327,1.418,0.656,2.845,0.987,4.279c0.209,1.421,0.419,2.85,0.629,4.284c0.211,1.434,0.422,2.874,0.634,4.318l0.159,1.084
						l0.04,0.271l0.02,0.136l0.018,0.158l0.006,0.07l0.045,0.557l0.179,2.233c0.107,1.491,0.264,2.982,0.33,4.481l0.102,4.504
						c0.001,0.751,0.04,1.502,0.01,2.253l-0.097,2.251c-0.072,1.5-0.114,2.999-0.213,4.492c-0.152,1.49-0.304,2.977-0.456,4.459
						c-0.082,0.74-0.139,1.482-0.242,2.218l-0.357,2.196c-0.244,1.46-0.462,2.918-0.727,4.36c-0.337,1.428-0.672,2.849-1.006,4.261
						c-0.167,0.706-0.334,1.409-0.5,2.11c-0.209,0.69-0.417,1.378-0.624,2.063c-0.415,1.369-0.827,2.729-1.236,4.077
						c-1.867,5.317-3.975,10.353-6.474,14.866c-0.614,1.132-1.219,2.249-1.816,3.349c-0.67,1.056-1.33,2.097-1.979,3.12
						c-0.671,1.008-1.266,2.039-1.965,2.975c-0.696,0.936-1.379,1.855-2.049,2.755c-0.685,0.887-1.287,1.805-1.998,2.609
						c-0.699,0.812-1.381,1.605-2.047,2.378c-0.671,0.766-1.324,1.512-1.959,2.237c-0.681,0.682-1.343,1.345-1.985,1.988
						c-0.64,0.641-1.26,1.261-1.858,1.859c-0.3,0.297-0.594,0.59-0.883,0.876c-0.311,0.266-0.615,0.528-0.914,0.784
						c-1.19,1.02-2.283,1.957-3.27,2.803c-0.961,0.874-1.915,1.518-2.723,2.114c-0.81,0.59-1.5,1.093-2.059,1.5
						C415.252,453.629,414.656,454.063,414.656,454.063z"/>
				</g>
				<g>
					<path style="fill:#FFFFFF;" d="M344.27,482.062c0,0,0.908-0.364,2.514-0.906c0.804-0.266,1.777-0.605,2.903-0.935
						c1.128-0.332,2.393-0.734,3.746-1.188c1.361-0.438,2.834-0.893,4.391-1.349c1.561-0.43,3.185-1.033,4.882-1.533
						c1.692-0.532,3.455-1.015,5.21-1.628c1.76-0.591,3.561-1.146,5.36-1.707c1.778-0.62,3.552-1.249,5.318-1.821
						c1.774-0.552,3.471-1.218,5.139-1.808c0.836-0.291,1.651-0.594,2.463-0.861c0.814-0.263,1.6-0.544,2.353-0.847
						c1.516-0.584,2.963-1.117,4.311-1.596c0.676-0.236,1.325-0.463,1.941-0.678c0.608-0.236,1.185-0.46,1.727-0.671
						c1.08-0.433,2.049-0.768,2.845-1.054c1.594-0.566,2.54-0.845,2.54-0.845s-0.731,0.64-2.072,1.681
						c-0.672,0.518-1.485,1.159-2.449,1.846c-0.48,0.349-0.991,0.721-1.529,1.113c-0.549,0.374-1.15,0.721-1.766,1.11
						c-1.241,0.758-2.598,1.563-4.048,2.396c-1.44,0.856-3.051,1.556-4.688,2.355c-1.65,0.769-3.344,1.603-5.146,2.24
						c-1.781,0.693-3.609,1.349-5.434,2.012c-1.86,0.552-3.719,1.109-5.561,1.612c-1.829,0.551-3.677,0.907-5.456,1.275
						c-1.786,0.346-3.49,0.732-5.156,0.933c-1.659,0.22-3.228,0.404-4.674,0.556c-0.724,0.066-1.415,0.154-2.075,0.193
						c-0.659,0.025-1.283,0.049-1.87,0.071c-1.172,0.056-2.203,0.055-3.049,0.066C345.247,482.11,344.27,482.062,344.27,482.062z"/>
				</g>
				<g>
					<path style="fill:#DBF2F4;" d="M412.073,132.801c0,0-0.162-0.84-0.466-2.416c-0.263-1.584-0.796-3.875-1.452-6.771
						c-0.724-2.889-1.638-6.383-2.945-10.299c-1.295-3.917-2.931-8.272-5.046-12.859c-2.118-4.585-4.715-9.397-7.807-14.249
						c-3.105-4.845-6.797-9.666-10.961-14.323l-0.747-0.839l-0.837-0.871c-0.559-0.582-1.12-1.166-1.683-1.752
						c-1.125-1.188-2.277-2.205-3.422-3.327c-1.153-1.096-2.408-2.145-3.615-3.229c-1.234-1.061-2.505-2.092-3.763-3.148
						c-5.124-4.117-10.686-7.861-16.483-11.205c-5.769-3.396-11.781-6.399-17.863-8.995c-6.094-2.551-12.184-4.938-18.231-6.741
						c-1.528-0.478-3.043-0.951-4.544-1.421c-1.5-0.439-2.972-0.804-4.432-1.224c-1.461-0.405-2.907-0.805-4.335-1.2
						c-1.44-0.369-2.883-0.682-4.297-1.019c-1.417-0.331-2.814-0.657-4.191-0.979c-1.376-0.325-2.754-0.541-4.093-0.833
						c-2.689-0.53-5.276-1.128-7.794-1.505c-2.514-0.417-4.924-0.817-7.215-1.198c-2.303-0.33-4.487-0.642-6.54-0.936
						c-2.052-0.326-3.988-0.483-5.771-0.719c-1.787-0.217-3.428-0.415-4.91-0.595c-5.943-0.572-9.353-0.951-9.353-0.951
						s0.855-0.024,2.458-0.07c1.603-0.026,3.958-0.114,6.957-0.128c2.993,0.071,6.643,0.026,10.817,0.259
						c2.089,0.114,4.312,0.236,6.656,0.364c2.342,0.168,4.795,0.45,7.364,0.686c2.573,0.207,5.228,0.629,7.991,0.979
						c1.379,0.19,2.786,0.362,4.202,0.617c1.415,0.257,2.853,0.519,4.31,0.784c1.457,0.272,2.937,0.518,4.432,0.823
						c1.494,0.335,3.005,0.674,4.534,1.017c1.524,0.347,3.09,0.675,4.619,1.084c1.514,0.424,3.043,0.852,4.585,1.284
						c0.771,0.216,1.545,0.433,2.322,0.65l1.168,0.327c0.5,0.141,0.813,0.254,1.23,0.382c1.567,0.513,3.163,0.975,4.737,1.54
						c3.168,1.069,6.347,2.246,9.494,3.578c6.309,2.623,12.578,5.663,18.609,9.15c5.999,3.539,11.764,7.502,17.081,11.862
						c1.304,1.121,2.633,2.201,3.899,3.342c1.239,1.178,2.497,2.296,3.697,3.506c1.175,1.217,2.436,2.42,3.512,3.626
						c0.546,0.603,1.089,1.203,1.631,1.802l0.811,0.896c0.34,0.384,0.548,0.651,0.827,0.981c4.267,4.984,7.832,10.248,10.815,15.436
						c3.004,5.182,5.337,10.346,7.181,15.206c1.883,4.849,3.155,9.446,4.116,13.537c1.008,4.083,1.527,7.713,1.951,10.686
						c0.375,2.99,0.574,5.339,0.656,6.939C412.024,131.946,412.073,132.801,412.073,132.801z"/>
				</g>
				<g>
					<path style="fill:#DBF2F4;" d="M409.611,177.152c0,0-0.049-0.465-0.076-1.27c-0.028-0.805-0.047-1.951,0.01-3.313
						c0.024-0.682,0.051-1.42,0.108-2.197c0.051-0.772,0.105-1.587,0.16-2.429c0.129-1.678,0.323-3.456,0.569-5.227
						c0.179-1.777,0.407-3.548,0.678-5.207c0.12-0.83,0.312-1.63,0.401-2.393c0.104-0.762,0.229-1.482,0.347-2.149
						c0.225-1.333,0.482-2.449,0.676-3.232c0.194-0.783,0.339-1.234,0.339-1.234s0.107,0.451,0.236,1.245
						c0.129,0.793,0.293,1.931,0.407,3.301c0.063,0.685,0.127,1.429,0.167,2.216c0.056,0.789,0.001,1.609-0.018,2.464
						c-0.061,1.707-0.188,3.526-0.364,5.34c-0.258,1.801-0.568,3.596-0.912,5.267c-0.176,0.834-0.34,1.646-0.548,2.395
						c-0.199,0.753-0.416,1.459-0.617,2.112c-0.392,1.306-0.786,2.384-1.075,3.135C409.809,176.728,409.611,177.152,409.611,177.152
						z"/>
				</g>
				<g>
					<path style="fill:#DBF2F4;" d="M478.305,363.617c0,0-0.797-2.894-2.191-7.959c-0.369-1.255-0.777-2.645-1.222-4.158
						c-0.218-0.755-0.446-1.542-0.681-2.357c-0.257-0.811-0.523-1.65-0.798-2.518c-0.563-1.73-1.104-3.586-1.78-5.508
						c-0.664-1.923-1.363-3.944-2.092-6.053c-0.8-2.079-1.634-4.244-2.496-6.485c-0.924-2.21-1.88-4.494-2.862-6.843
						c-1.028-2.325-2.189-4.664-3.314-7.077c-1.224-2.339-2.474-4.728-3.745-7.158c-0.709-1.212-1.424-2.434-2.145-3.665
						c-0.36-0.615-0.721-1.233-1.084-1.853c-0.362-0.621-0.766-1.174-1.147-1.767c-1.55-2.334-3.07-4.715-4.821-7.02
						c-0.863-1.152-1.669-2.357-2.585-3.479c-0.923-1.116-1.848-2.236-2.775-3.358l-0.695-0.842l-0.348-0.421l-0.174-0.211
						c0.009,0.009-0.082-0.094,0.009,0.006l-0.048-0.051l-0.096-0.102l-1.54-1.631l-3.084-3.265
						c-4.047-4.412-8.174-8.766-12.227-13.058l-1.516-1.607c-0.573-0.603-0.988-1.12-1.486-1.683
						c-0.945-1.118-1.891-2.193-2.812-3.403c-1.882-2.338-3.595-4.715-5.192-7.132c-0.762-1.237-1.573-2.422-2.27-3.671
						c-0.686-1.256-1.371-2.496-2.001-3.746c-0.567-1.285-1.128-2.557-1.683-3.813c-0.509-1.275-0.918-2.576-1.369-3.834
						l-0.328-0.944l-0.251-0.963c-0.162-0.64-0.324-1.276-0.484-1.907c-0.163-0.655-0.325-1.305-0.486-1.95
						c-0.096-0.608-0.19-1.212-0.285-1.81c-0.166-1.211-0.4-2.347-0.501-3.561c-0.097-1.212-0.193-2.4-0.286-3.565
						c-0.128-1.167-0.063-2.277-0.102-3.378c0.007-1.096-0.077-2.166,0.013-3.206c0.128-2.079,0.173-4.049,0.405-5.882
						c0.188-1.837,0.345-3.553,0.624-5.123c0.245-1.574,0.453-3.018,0.716-4.31c0.458-2.594,0.921-4.61,1.235-5.983
						c0.317-1.372,0.487-2.104,0.487-2.104s-0.055,0.749-0.158,2.153c-0.056,0.701-0.125,1.564-0.206,2.58
						c-0.063,1.016-0.135,2.183-0.216,3.49c-0.105,1.304-0.136,2.752-0.19,4.323c-0.07,1.571-0.087,3.267-0.082,5.076
						c-0.011,3.612,0.237,7.692,0.776,12.027c0.169,1.066,0.341,2.155,0.516,3.264c0.175,1.107,0.512,2.29,0.768,3.463
						c0.135,0.59,0.272,1.186,0.409,1.786c0.172,0.54,0.345,1.085,0.52,1.633c0.18,0.572,0.361,1.149,0.543,1.73l0.278,0.872
						l0.354,0.855c1.731,4.631,4.345,9.194,7.465,13.639c1.574,2.214,3.28,4.418,5.095,6.522c0.863,1.065,1.875,2.142,2.853,3.223
						c0.477,0.524,0.991,1.142,1.441,1.593l1.531,1.586c4.091,4.238,8.262,8.525,12.353,12.906l3.047,3.299l1.522,1.648l0.095,0.103
						l0.146,0.166l0.18,0.223l0.361,0.446l0.721,0.892c0.96,1.189,1.918,2.376,2.873,3.559c0.947,1.189,1.779,2.456,2.669,3.674
						l1.309,1.839c0.44,0.606,0.874,1.219,1.254,1.874c0.788,1.284,1.572,2.562,2.351,3.832c0.379,0.635,0.799,1.267,1.139,1.899
						c0.341,0.632,0.682,1.261,1.021,1.888c0.678,1.254,1.351,2.5,2.019,3.735l0.125,0.232l0.152,0.295l0.23,0.482l0.458,0.96
						c0.304,0.639,0.607,1.274,0.909,1.907c0.601,1.266,1.206,2.516,1.749,3.775c1.02,2.547,2.075,5.013,2.993,7.453
						c0.857,2.462,1.765,4.828,2.504,7.162c0.698,2.344,1.373,4.609,2.021,6.783c0.563,2.193,1.102,4.296,1.615,6.295
						c0.488,2.004,0.847,3.929,1.24,5.721c0.189,0.898,0.372,1.766,0.549,2.605c0.146,0.846,0.287,1.662,0.422,2.446
						c0.262,1.566,0.503,3.004,0.72,4.303c0.411,2.595,0.617,4.65,0.812,6.044C478.215,362.871,478.305,363.617,478.305,363.617z"/>
				</g>
				<g>
					<path style="fill:#DBF2F4;" d="M468.369,457.716c0,0,0.17-0.313,0.488-0.9c0.332-0.576,0.79-1.444,1.43-2.504
						c0.31-0.536,0.676-1.119,1.033-1.772c0.334-0.665,0.728-1.355,1.13-2.102c0.404-0.741,0.834-1.529,1.287-2.361
						c0.425-0.849,0.873-1.741,1.339-2.672c0.456-0.935,0.982-1.875,1.454-2.888c0.466-1.013,0.947-2.061,1.442-3.138
						c0.25-0.535,0.503-1.077,0.759-1.626c0.232-0.56,0.467-1.127,0.704-1.701c0.479-1.14,0.969-2.305,1.467-3.49
						c0.882-2.417,1.893-4.864,2.71-7.432c0.914-2.531,1.642-5.169,2.448-7.78c0.684-2.648,1.439-5.277,1.998-7.916
						c0.647-2.619,1.099-5.236,1.628-7.761c0.213-1.272,0.422-2.523,0.627-3.747c0.107-0.613,0.212-1.22,0.317-1.819
						c0.082-0.603,0.163-1.198,0.243-1.785c0.168-1.177,0.332-2.323,0.491-3.43c0.16-1.11,0.243-2.189,0.375-3.224
						c0.125-1.038,0.245-2.033,0.358-2.979c0.091-0.951,0.177-1.853,0.257-2.7c0.159-1.699,0.336-3.189,0.405-4.417
						c0.081-1.228,0.2-2.202,0.257-2.865c0.074-0.665,0.113-1.02,0.113-1.02s0.082,0.346,0.236,0.994
						c0.137,0.65,0.373,1.604,0.604,2.827c0.116,0.612,0.266,1.289,0.389,2.03c0.123,0.741,0.21,1.546,0.327,2.406
						c0.111,0.863,0.23,1.781,0.355,2.75c0.105,0.97,0.147,1.993,0.228,3.062c0.062,1.069,0.143,2.186,0.172,3.341
						c0.002,1.157,0.003,2.353,0.005,3.582c0.02,1.234-0.049,2.495-0.132,3.786c-0.072,1.292-0.163,2.612-0.277,3.953
						c-0.329,2.669-0.606,5.447-1.193,8.218c-0.453,2.799-1.233,5.575-1.924,8.371c-0.879,2.744-1.67,5.518-2.763,8.141
						c-0.962,2.669-2.198,5.182-3.342,7.622c-0.617,1.201-1.255,2.366-1.886,3.5c-0.315,0.566-0.626,1.127-0.934,1.681
						c-0.324,0.545-0.665,1.071-1,1.591c-0.67,1.036-1.322,2.043-1.952,3.018c-0.659,0.955-1.344,1.846-1.987,2.707
						c-0.661,0.851-1.249,1.686-1.886,2.437c-0.65,0.739-1.267,1.44-1.846,2.099c-0.581,0.653-1.107,1.273-1.624,1.819
						c-0.521,0.538-1.026,1.001-1.468,1.436c-0.882,0.868-1.62,1.516-2.103,1.973C468.634,457.478,468.369,457.716,468.369,457.716z
						"/>
				</g>
				<g>
					<path style="fill:#DBF2F4;" d="M363.103,511.663c0,0,0.39-0.121,1.122-0.348c0.734-0.21,1.806-0.554,3.181-0.921
						c1.38-0.356,3.029-0.881,4.914-1.422c0.94-0.273,1.941-0.564,2.996-0.871c1.051-0.327,2.155-0.671,3.308-1.029
						c2.313-0.671,4.787-1.493,7.402-2.342c1.311-0.41,2.648-0.861,4.006-1.347c1.361-0.469,2.751-0.948,4.165-1.436
						c2.798-1.058,5.712-2.067,8.613-3.25c2.931-1.106,5.84-2.387,8.777-3.602c2.891-1.316,5.814-2.566,8.616-3.956
						c1.401-0.694,2.827-1.316,4.179-2.038c1.367-0.697,2.718-1.385,4.047-2.062c1.326-0.683,2.588-1.428,3.864-2.094
						c1.274-0.67,2.507-1.348,3.684-2.049c1.191-0.683,2.35-1.347,3.47-1.99c1.129-0.635,2.166-1.328,3.201-1.941
						c1.031-0.622,2.02-1.219,2.96-1.786c0.925-0.594,1.803-1.157,2.628-1.686c1.651-1.063,3.123-1.962,4.278-2.779
						c1.166-0.803,2.122-1.394,2.76-1.817c0.649-0.41,0.995-0.629,0.995-0.629s-0.265,0.31-0.762,0.891
						c-0.509,0.569-1.234,1.431-2.208,2.478c-0.488,0.523-1.009,1.125-1.614,1.74c-0.603,0.617-1.286,1.248-2.002,1.943
						c-0.721,0.692-1.488,1.428-2.297,2.205c-0.829,0.753-1.739,1.498-2.67,2.303c-0.943,0.788-1.912,1.634-2.96,2.447
						c-1.06,0.798-2.157,1.623-3.284,2.472c-1.118,0.867-2.324,1.669-3.557,2.493c-1.23,0.828-2.493,1.669-3.798,2.488
						c-2.646,1.575-5.366,3.248-8.263,4.694c-2.84,1.563-5.86,2.869-8.841,4.26c-3.05,1.226-6.071,2.532-9.144,3.545
						c-3.034,1.123-6.099,1.991-9.049,2.857c-1.484,0.405-2.953,0.766-4.391,1.113c-1.437,0.349-2.839,0.701-4.228,0.948
						c-1.382,0.267-2.726,0.526-4.026,0.776c-1.302,0.235-2.572,0.403-3.786,0.581c-1.217,0.162-2.375,0.344-3.488,0.468
						c-1.117,0.1-2.177,0.196-3.173,0.285c-1.986,0.202-3.715,0.298-5.138,0.329c-1.422,0.062-2.547,0.054-3.311,0.074
						C363.511,511.662,363.103,511.663,363.103,511.663z"/>
				</g>
			</g>
		</g>
	</g>
</g>
<g id="OBJECTS">
	<g>
		<g>
			<g>
				<path style="fill:#191939;" d="M248.856,55.369c0,0-14.242-14.41-41.709-0.961c-27.467,13.45-12.208,43.231-14.242,56.681
					c-2.035,13.45-27.467,12.009-17.294,36.026c10.173,24.017-51.999,34.308-23.006,76.098c28.993,41.79,97.246,28.462,96.76-42.474
					C249.043,133.784,248.856,55.369,248.856,55.369z"/>
				<g>
					<path style="fill:#191939;" d="M247.308,57.843c0,0-0.172-0.179-0.46-0.437c-0.305-0.266-0.792-0.698-1.476-1.182
						c-1.357-0.984-3.493-2.308-6.478-3.402c-2.974-1.095-6.809-1.919-11.269-1.915c-4.451-0.002-9.51,0.786-14.755,2.599
						c-0.331,0.101-0.664,0.204-0.998,0.306l-0.982,0.394c-0.658,0.264-1.322,0.53-1.993,0.799c-0.659,0.264-1.324,0.53-1.995,0.799
						c-0.672,0.329-1.35,0.662-2.034,0.997c-2.59,1.36-5.127,3.078-7.323,5.279c-4.49,4.339-7.001,10.798-7.468,17.67
						c-0.588,6.906,0.501,14.113,1.255,21.526c0.175,1.861,0.324,3.744,0.336,5.664l-0.027,1.448l-0.11,1.462
						c-0.081,0.511-0.114,0.939-0.238,1.517c-0.134,0.47-0.177,0.877-0.386,1.399c-0.698,2.026-1.894,3.681-3.312,5.085
						c-1.422,1.387-3.001,2.524-4.579,3.591c-3.155,2.113-6.422,3.973-8.853,6.609c-1.21,1.306-2.175,2.801-2.756,4.447
						c-0.589,1.643-0.787,3.419-0.708,5.188c0.075,1.771,0.389,3.547,0.89,5.271c0.431,1.746,1.2,3.35,1.656,5.249
						c0.462,1.87,0.465,3.822,0.11,5.678c-0.368,1.857-1.131,3.58-2.051,5.148c-1.891,3.123-4.371,5.667-6.845,8.022
						c-2.491,2.347-5.034,4.5-7.466,6.631c-4.863,4.242-9.331,8.453-12.476,13.099c-1.571,2.313-2.789,4.718-3.602,7.128
						c-0.819,2.408-1.2,4.818-1.274,7.089c-0.106,4.565,1.011,8.483,2.164,11.544c1.192,3.066,2.432,5.35,3.305,6.882
						c0.908,1.514,1.393,2.322,1.393,2.322s-0.503-0.797-1.445-2.291c-0.908-1.514-2.201-3.772-3.467-6.828
						c-1.226-3.051-2.447-6.977-2.443-11.635c0.024-2.316,0.358-4.794,1.144-7.284c0.78-2.492,2.012-4.971,3.58-7.356
						c3.148-4.788,7.623-9.113,12.442-13.434c2.409-2.169,4.916-4.353,7.343-6.702c2.409-2.353,4.789-4.881,6.524-7.842
						c0.843-1.484,1.517-3.077,1.825-4.75c0.294-1.667,0.268-3.411-0.166-5.069c-0.403-1.638-1.235-3.364-1.715-5.182
						c-0.547-1.797-0.913-3.681-1.021-5.612c-0.112-1.925,0.075-3.924,0.723-5.811c0.636-1.889,1.725-3.616,3.043-5.076
						c2.658-2.943,6.027-4.894,9.081-7.004c1.536-1.048,3.02-2.135,4.289-3.386c1.255-1.235,2.27-2.741,2.796-4.271
						c0.159-0.345,0.235-0.881,0.356-1.312c0.071-0.338,0.123-0.846,0.187-1.259l0.094-1.337l0.018-1.355
						c-0.019-1.815-0.171-3.648-0.352-5.478c-0.772-7.314-1.935-14.66-1.359-21.889c0.115-1.803,0.405-3.586,0.753-5.339
						c0.419-1.74,0.873-3.468,1.577-5.093c1.306-3.288,3.292-6.231,5.674-8.616c2.371-2.399,5.1-4.265,7.892-5.742
						c0.683-0.338,1.359-0.674,2.03-1.006c0.717-0.293,1.427-0.584,2.13-0.872c0.692-0.281,1.378-0.56,2.058-0.836
						c0.34-0.138,0.678-0.275,1.014-0.411c0.347-0.109,0.693-0.217,1.037-0.325c5.431-1.923,10.763-2.739,15.486-2.714
						c4.733,0.013,8.841,0.908,12.037,2.1c3.208,1.19,5.519,2.632,7.008,3.722c0.754,0.541,1.283,1.01,1.662,1.346
						c0.388,0.356,0.54,0.519,0.54,0.519L247.308,57.843z"/>
				</g>
			</g>
			<g>
				<g>
					<path style="fill:#F19C7C;" d="M320.935,197.082c-12.967-11.578-42.376-4.938-48.987-7.887
						c-8.581-3.828-2.452-34.025-2.452-34.025l-20.43,6.821l-20.43-6.821c0,0,6.129,30.197-2.452,34.025
						c-3.724,1.661-14.68,0.28-25.857,0.824c8.874,24.696,14.155,50.501,19.989,76.158h71.246c0,0,20.14-11.957,30.102-31.794
						C321.074,221.972,321.242,209.52,320.935,197.082z"/>
					<path style="fill:#EF7E5B;" d="M228.913,186.301c2.921-0.242,5.836-0.733,8.74-1.562c10.663-3.045,20.924-7.55,29.854-14.039
						c0.463-8.01,1.989-15.53,1.989-15.53l-20.43,6.821l-20.43-6.821C228.636,155.169,233.205,177.701,228.913,186.301z"/>
				</g>
				<g>
					<g>
						<path style="fill:#EF7E5B;" d="M286.582,114.134c0,0,7.585-3.743,10.012,2.941c2.427,6.684-6.371,29.41-14.26,22.993
							S286.582,114.134,286.582,114.134z"/>
						<g>
							<path style="fill:#D84A2E;" d="M295.005,122.136c-0.13-0.937-0.428-1.849-0.925-2.571c-0.254-0.355-0.554-0.659-0.903-0.867
								c-0.353-0.197-0.724-0.353-1.136-0.38c-0.082-0.005-0.242-0.044-0.258-0.022l-0.177,0.006
								c-0.06,0.003-0.048,0.027-0.074,0.032c-0.07,0.016-0.202,0.102-0.294,0.198c-0.203,0.219-0.375,0.587-0.501,0.984
								c-0.25,0.806-0.407,1.718-0.53,2.63l-0.357,2.787c-0.121,0.938-0.238,1.885-0.419,2.828c-0.338,1.887-0.804,3.801-1.712,5.6
								l-0.471-1.009c0.43,0.132,0.788,0.296,1.169,0.482c0.372,0.196,0.741,0.396,1.085,0.687c0.177,0.124,0.337,0.303,0.495,0.472
								c0.159,0.163,0.273,0.413,0.397,0.618c0.06,0.257,0.182,0.506,0.145,0.77c-0.016,0.264-0.038,0.525-0.159,0.732
								c-0.095,0.223-0.195,0.438-0.349,0.589c-0.146,0.159-0.275,0.343-0.436,0.47c-0.329,0.244-0.627,0.53-0.98,0.707
								c-0.351,0.184-0.676,0.405-1.041,0.544l-1.074,0.442l0.924-0.691c0.32-0.208,0.583-0.487,0.87-0.725
								c0.304-0.225,0.513-0.527,0.762-0.783c0.12-0.133,0.181-0.291,0.274-0.429c0.108-0.138,0.139-0.284,0.177-0.422
								c0.069-0.139,0.034-0.267,0.031-0.385c0.017-0.124-0.096-0.224-0.114-0.337c-0.106-0.1-0.151-0.213-0.278-0.306
								c-0.118-0.096-0.218-0.201-0.368-0.281c-0.26-0.183-0.586-0.321-0.905-0.449c-0.319-0.122-0.678-0.232-0.987-0.303
								l-0.816-0.187l0.346-0.822c0.687-1.634,1.046-3.444,1.36-5.266l0.426-2.771c0.14-0.931,0.266-1.872,0.458-2.816
								c0.2-0.944,0.377-1.903,0.794-2.866c0.215-0.476,0.47-0.98,0.961-1.41c0.264-0.206,0.549-0.38,0.951-0.431
								c0.229-0.035,0.342-0.014,0.452-0.002c0.222,0.01,0.288,0.062,0.439,0.093c0.525,0.114,1.021,0.394,1.442,0.725
								c0.418,0.349,0.713,0.802,0.932,1.26C295.051,120.19,295.122,121.195,295.005,122.136z"/>
						</g>
					</g>
					<g>
						<path style="fill:#EF7E5B;" d="M211.55,114.134c0,0-7.585-3.743-10.012,2.941c-2.427,6.684,6.371,29.41,14.26,22.993
							C223.686,133.651,211.55,114.134,211.55,114.134z"/>
						<g>
							<path style="fill:#D84A2E;" d="M202.995,122.136c-0.118-0.942-0.046-1.946,0.377-2.879c0.219-0.458,0.514-0.91,0.932-1.26
								c0.42-0.33,0.916-0.61,1.442-0.725c0.151-0.03,0.217-0.082,0.439-0.093c0.11-0.012,0.223-0.033,0.452,0.002
								c0.402,0.051,0.686,0.225,0.95,0.431c0.491,0.43,0.746,0.934,0.961,1.41c0.417,0.964,0.594,1.922,0.794,2.866
								c0.192,0.944,0.318,1.885,0.458,2.816l0.426,2.771c0.314,1.822,0.673,3.633,1.36,5.266l0.346,0.822l-0.816,0.187
								c-0.309,0.071-0.668,0.181-0.987,0.303c-0.319,0.129-0.645,0.267-0.905,0.449c-0.15,0.081-0.25,0.185-0.368,0.281
								c-0.128,0.093-0.173,0.206-0.279,0.306c-0.018,0.113-0.13,0.213-0.114,0.337c-0.003,0.119-0.038,0.246,0.031,0.385
								c0.037,0.137,0.068,0.284,0.177,0.422c0.093,0.138,0.154,0.296,0.274,0.429c0.249,0.256,0.459,0.558,0.762,0.783
								c0.287,0.238,0.55,0.517,0.87,0.725l0.923,0.691l-1.074-0.442c-0.365-0.14-0.691-0.36-1.041-0.544
								c-0.354-0.177-0.651-0.463-0.98-0.707c-0.161-0.127-0.289-0.311-0.436-0.47c-0.154-0.151-0.254-0.366-0.349-0.589
								c-0.122-0.206-0.144-0.467-0.16-0.732c-0.037-0.263,0.085-0.513,0.145-0.77c0.124-0.204,0.238-0.454,0.397-0.618
								c0.158-0.169,0.318-0.348,0.495-0.472c0.344-0.29,0.713-0.491,1.085-0.687c0.381-0.186,0.739-0.35,1.169-0.482l-0.47,1.009
								c-0.908-1.799-1.374-3.713-1.712-5.6c-0.181-0.944-0.298-1.89-0.419-2.828l-0.357-2.787c-0.124-0.912-0.28-1.825-0.53-2.63
								c-0.126-0.397-0.299-0.765-0.501-0.984c-0.092-0.096-0.225-0.182-0.294-0.198c-0.026-0.005-0.014-0.029-0.074-0.032
								l-0.177-0.006c-0.016-0.021-0.176,0.018-0.258,0.022c-0.412,0.027-0.783,0.183-1.136,0.38
								c-0.349,0.208-0.649,0.512-0.903,0.867C203.423,120.287,203.125,121.199,202.995,122.136z"/>
						</g>
					</g>
					<path style="fill:#F19C7C;" d="M287.683,101.154c-2.811-32.458-32.8-30.592-38.691-29.908
						c-5.891-0.684-35.88-2.549-38.691,29.908c-3.119,36.01,11.909,68.618,37.711,70.036c0.337,0.018,0.66,0.009,0.979-0.007
						c0.32,0.016,0.643,0.025,0.979,0.007C275.774,169.772,290.802,137.164,287.683,101.154z"/>
				</g>
			</g>
		</g>
		<g>
			<path style="fill:#191939;" d="M249.613,69.043c0,0,3.558,23.007-36.052,34.392c0,0,1.818,24.193-1.502,22.533
				c-3.321-1.66-1.344-13.994-7.037-12.571c0,0-13.757-33.68,5.692-44.354C230.164,58.369,249.613,69.043,249.613,69.043z"/>
			<g>
				<path style="fill:#191939;" d="M297.446,62.718l4.744-6.641c-13.282-8.855-24.667,2.53-24.667,2.53
					c-10.753-14.864-27.514-10.12-27.514-10.12l0.316,31.625c10.12,3.163,23.719-1.897,23.719-1.897
					c0.632,14.864,12.017,22.137,12.017,22.137c0.316,28.462-6.009,52.814-11.069,53.762c-5.06,0.949-0.949-10.752-2.53-16.445
					c-1.581-5.693-21.821-1.581-21.821-1.581v6.094c4.121,0.581,9.636,1.003,15.012,0.37c0,0,3.646,17.571-1.414,19.152
					s-9.487-0.632-9.171-7.906l-4.427,1.212v27.25c18.026,1.581,23.086-11.069,23.086-11.069l-0.316,4.428
					c16.445-5.693,15.18-55.343,15.496-59.771c0.316-4.427,4.111-2.53,4.111-2.53s7.906-18.975,7.906-31.625
					s-2.53-15.812-2.53-15.812l3.479-5.06L297.446,62.718z"/>
				<g>
					<path style="fill:#191939;" d="M254.752,43.743c2.694-0.035,5.398,0.347,8.032,1.026c1.319,0.339,2.62,0.77,3.886,1.305
						c0.637,0.258,1.258,0.557,1.877,0.865c0.617,0.314,1.212,0.668,1.799,1.041c0.578,0.385,1.16,0.772,1.701,1.217
						c0.557,0.423,1.076,0.902,1.577,1.395c0.492,0.506,0.963,1.031,1.394,1.596c0.428,0.562,0.842,1.144,1.189,1.763
						c0.371,0.608,0.673,1.252,0.948,1.908c0.246,0.664,0.507,1.33,0.665,2.019l0.25,1.031l0.164,1.045
						c0.131,0.695,0.119,1.4,0.173,2.098l-1.76,0.153c-0.04-0.474-0.046-0.857-0.026-1.273c0.007-0.409,0.058-0.81,0.095-1.213
						c0.068-0.398,0.112-0.799,0.206-1.191c0.094-0.391,0.168-0.787,0.307-1.165c0.129-0.38,0.235-0.767,0.403-1.132
						c0.165-0.365,0.287-0.747,0.489-1.094c0.19-0.351,0.364-0.71,0.568-1.051l0.664-0.989c0.226-0.324,0.498-0.616,0.744-0.923
						c0.242-0.312,0.512-0.597,0.8-0.866c0.282-0.273,0.557-0.553,0.852-0.807l0.924-0.718c0.592-0.504,1.303-0.843,1.946-1.26
						c0.329-0.198,0.69-0.343,1.035-0.508l1.041-0.479l-0.936,0.659c-0.305,0.227-0.631,0.419-0.923,0.659l-0.867,0.725
						c-0.293,0.234-0.578,0.475-0.833,0.751l-0.79,0.789c-0.249,0.275-0.471,0.574-0.713,0.852c-0.245,0.276-0.47,0.566-0.666,0.879
						c-0.2,0.308-0.424,0.598-0.602,0.917l-0.523,0.959c-0.165,0.323-0.298,0.662-0.448,0.991c-0.162,0.324-0.245,0.681-0.371,1.018
						c-0.13,0.337-0.198,0.693-0.29,1.04c-0.099,0.346-0.141,0.705-0.214,1.055c-0.07,0.351-0.091,0.71-0.138,1.064
						c-0.016,0.356-0.048,0.712-0.038,1.064c-0.005,0.344,0.024,0.723,0.059,1.005l-1.76,0.154
						c-0.084-0.633-0.091-1.276-0.214-1.899l-0.16-0.938l-0.238-0.917c-0.147-0.614-0.391-1.199-0.615-1.785
						c-0.259-0.573-0.515-1.146-0.835-1.689c-0.298-0.553-0.659-1.072-1.033-1.579c-0.375-0.508-0.791-0.985-1.227-1.446
						c-0.452-0.444-0.891-0.907-1.387-1.313c-0.475-0.428-0.997-0.806-1.516-1.185c-0.527-0.372-1.074-0.715-1.631-1.049
						c-0.559-0.329-1.125-0.652-1.712-0.939c-0.579-0.301-1.18-0.565-1.783-0.823c-0.601-0.266-1.214-0.507-1.832-0.738
						c-1.24-0.449-2.504-0.856-3.791-1.197C257.379,44.278,256.077,43.969,254.752,43.743z"/>
				</g>
			</g>
		</g>
		<g>
			<path style="fill:#FFFFFF;" d="M230.777,142.551h34.876C265.653,142.551,252.043,160.982,230.777,142.551z"/>
			<g>
				<path style="fill:#D84A2E;" d="M241.025,131.769c0.764,0.035,1.484,0.171,2.209,0.299c0.714,0.152,1.424,0.315,2.117,0.52
					c0.702,0.181,1.381,0.419,2.061,0.652c0.677,0.242,1.345,0.504,2.007,0.782l-0.904,0c1.284-0.531,2.592-1.005,3.945-1.37
					c1.348-0.378,2.726-0.685,4.193-0.781c-1.095,0.98-2.279,1.75-3.493,2.447c-1.209,0.71-2.462,1.313-3.74,1.858l-0.448,0.191
					l-0.456-0.191c-0.662-0.277-1.317-0.57-1.964-0.883c-0.643-0.322-1.289-0.638-1.91-1.013c-0.631-0.35-1.245-0.743-1.854-1.145
					C242.187,132.708,241.585,132.289,241.025,131.769z"/>
			</g>
			<g>
				<path style="fill:#191939;" d="M255.735,107.675c0,0,0.133-0.522,0.563-1.346c0.42-0.831,1.142-1.967,2.284-3.136
					c0.578-0.573,1.248-1.167,2.037-1.706c0.794-0.525,1.677-1.049,2.675-1.426c0.989-0.389,2.067-0.703,3.192-0.836
					c1.122-0.175,2.281-0.155,3.419-0.053c1.13,0.149,2.255,0.36,3.288,0.742c0.53,0.16,1.03,0.368,1.512,0.598
					c0.493,0.209,0.958,0.447,1.397,0.711c0.905,0.484,1.691,1.073,2.42,1.631c0.714,0.581,1.359,1.152,1.9,1.733
					c0.562,0.557,1.017,1.121,1.411,1.625c0.404,0.492,0.71,0.963,0.955,1.353c0.495,0.774,0.735,1.244,0.735,1.244
					s-0.501-0.206-1.301-0.615c-0.394-0.212-0.885-0.449-1.438-0.716c-0.549-0.274-1.148-0.599-1.82-0.903
					c-0.652-0.337-1.372-0.655-2.117-0.992c-0.367-0.182-0.761-0.318-1.15-0.483c-0.39-0.165-0.784-0.327-1.195-0.461
					c-0.806-0.305-1.646-0.561-2.491-0.772c-0.845-0.226-1.704-0.371-2.561-0.468c-0.855-0.095-1.711-0.126-2.552-0.076
					c-0.843,0.034-1.669,0.161-2.474,0.324c-1.608,0.337-3.107,0.919-4.395,1.525c-1.281,0.618-2.355,1.248-3.108,1.719
					C256.171,107.367,255.735,107.675,255.735,107.675z"/>
			</g>
			<g>
				<path style="fill:#191939;" d="M258.854,119.301c0,0,0.282,0.131,0.775,0.36c0.486,0.222,1.174,0.521,1.986,0.839
					c0.403,0.166,0.851,0.309,1.311,0.469c0.457,0.166,0.956,0.289,1.451,0.444c0.512,0.103,1.019,0.273,1.555,0.343
					c0.264,0.048,0.53,0.097,0.797,0.146l0.81,0.079c0.537,0.101,1.082,0.047,1.617,0.092c0.536,0.021,1.063-0.053,1.584-0.052
					c0.518-0.028,1.014-0.131,1.502-0.171c0.493-0.024,0.934-0.173,1.37-0.232c0.423-0.095,0.843-0.123,1.185-0.234
					c0.347-0.098,0.665-0.163,0.928-0.222c0.526-0.115,0.851-0.159,0.851-0.159s-0.207,0.234-0.61,0.606
					c-0.203,0.185-0.449,0.416-0.75,0.657c-0.287,0.268-0.664,0.478-1.075,0.718c-0.417,0.224-0.848,0.547-1.374,0.714
					c-0.518,0.184-1.063,0.422-1.657,0.555c-0.598,0.104-1.219,0.273-1.864,0.293c-0.644,0.017-1.305,0.072-1.957-0.027
					l-0.976-0.124c-0.32-0.062-0.633-0.156-0.945-0.233c-0.631-0.136-1.207-0.408-1.771-0.632c-0.544-0.269-1.066-0.536-1.522-0.847
					c-0.462-0.302-0.873-0.62-1.228-0.942c-0.372-0.294-0.661-0.634-0.926-0.909c-0.255-0.292-0.462-0.554-0.619-0.785
					C258.982,119.596,258.854,119.301,258.854,119.301z"/>
			</g>
			<g>
				<path style="fill:#191939;" d="M243.682,107.675c0,0-0.433-0.328-1.175-0.849c-0.748-0.515-1.805-1.223-3.081-1.937
					c-1.274-0.713-2.771-1.431-4.388-1.914c-0.804-0.261-1.646-0.418-2.493-0.554c-0.851-0.113-1.717-0.16-2.586-0.128
					c-0.87,0.029-1.742,0.136-2.605,0.304c-0.86,0.177-1.718,0.388-2.543,0.667c-0.832,0.256-1.628,0.583-2.398,0.885
					c-0.755,0.339-1.497,0.636-2.161,0.977c-0.684,0.305-1.3,0.624-1.856,0.906c-0.563,0.271-1.065,0.509-1.463,0.728
					c-0.813,0.419-1.322,0.63-1.322,0.63s0.248-0.476,0.758-1.261c0.251-0.397,0.569-0.871,0.987-1.369
					c0.404-0.514,0.882-1.077,1.464-1.64c0.559-0.589,1.241-1.149,1.978-1.736c0.765-0.549,1.593-1.122,2.538-1.591
					c0.455-0.267,0.96-0.461,1.467-0.669c0.499-0.229,1.042-0.379,1.586-0.537c1.089-0.321,2.254-0.481,3.425-0.542
					c1.174-0.019,2.358,0.066,3.486,0.327c1.124,0.259,2.203,0.626,3.162,1.123c1.942,0.956,3.45,2.267,4.53,3.507
					c1.089,1.243,1.764,2.43,2.162,3.287C243.558,107.143,243.682,107.675,243.682,107.675z"/>
			</g>
			<g>
				<path style="fill:#191939;" d="M240.563,119.301c0,0-0.127,0.296-0.449,0.746c-0.156,0.23-0.364,0.493-0.619,0.785
					c-0.265,0.275-0.553,0.615-0.925,0.909c-0.355,0.322-0.766,0.64-1.228,0.942c-0.456,0.311-0.978,0.578-1.522,0.847
					c-0.563,0.224-1.139,0.496-1.771,0.632c-0.312,0.077-0.625,0.171-0.945,0.233l-0.976,0.124
					c-0.652,0.098-1.313,0.043-1.957,0.027c-0.645-0.02-1.266-0.189-1.864-0.293c-0.594-0.133-1.139-0.371-1.657-0.555
					c-0.526-0.167-0.956-0.49-1.374-0.714c-0.411-0.24-0.788-0.45-1.075-0.718c-0.301-0.241-0.547-0.472-0.75-0.657
					c-0.404-0.372-0.61-0.606-0.61-0.606s0.325,0.045,0.851,0.159c0.262,0.059,0.581,0.123,0.928,0.222
					c0.343,0.111,0.762,0.139,1.186,0.234c0.435,0.059,0.877,0.208,1.37,0.232c0.487,0.04,0.984,0.142,1.502,0.171
					c0.521-0.001,1.048,0.073,1.584,0.052c0.536-0.045,1.08,0.009,1.617-0.092l0.81-0.079c0.267-0.049,0.533-0.097,0.797-0.146
					c0.536-0.07,1.042-0.24,1.555-0.343c0.495-0.155,0.993-0.277,1.451-0.444c0.46-0.16,0.908-0.302,1.311-0.469
					c0.813-0.317,1.501-0.616,1.986-0.839C240.282,119.431,240.563,119.301,240.563,119.301z"/>
			</g>
			<g>
				<path style="fill:#D84A2E;" d="M235.999,148.832c0,0,0.368,0.206,0.995,0.589c0.307,0.203,0.698,0.417,1.138,0.655
					c0.437,0.245,0.925,0.516,1.483,0.779c0.544,0.285,1.15,0.55,1.792,0.82c0.628,0.302,1.342,0.49,2.038,0.775
					c0.725,0.204,1.463,0.448,2.234,0.6c0.76,0.205,1.552,0.29,2.337,0.405c0.789,0.055,1.58,0.154,2.358,0.107
					c0.781,0.012,1.539-0.088,2.282-0.152c0.72-0.168,1.45-0.226,2.099-0.45c0.331-0.095,0.653-0.187,0.965-0.276
					c0.304-0.115,0.598-0.227,0.88-0.334c0.578-0.196,1.068-0.462,1.521-0.675c0.458-0.206,0.842-0.417,1.147-0.612
					c0.626-0.367,1.003-0.571,1.003-0.571s-0.278,0.31-0.798,0.841c-0.255,0.273-0.579,0.589-1.001,0.891
					c-0.411,0.317-0.865,0.704-1.438,1.002c-0.28,0.163-0.572,0.333-0.874,0.509c-0.314,0.152-0.652,0.28-0.995,0.428
					c-0.678,0.324-1.449,0.499-2.238,0.721c-0.805,0.12-1.637,0.329-2.499,0.321c-0.86,0.069-1.729-0.01-2.6-0.059
					c-0.859-0.143-1.721-0.262-2.541-0.501c-0.837-0.176-1.604-0.53-2.365-0.794c-0.731-0.342-1.45-0.646-2.075-1.04
					c-0.317-0.186-0.624-0.367-0.922-0.543c-0.281-0.2-0.553-0.394-0.814-0.58c-0.529-0.354-0.974-0.744-1.363-1.089
					c-0.401-0.331-0.719-0.643-0.965-0.915C236.278,149.15,235.999,148.832,235.999,148.832z"/>
			</g>
		</g>
	</g>
	<g>
		<g>
			<path style="fill:#37CADD;" d="M206.965,313.529c0,0-49.904,43.666-47.636,100.375c2.268,56.709,17.58,87.147,17.58,87.147
				h72.588V316.365L206.965,313.529z"/>
			<g>
				<g>
					<path style="fill:#109BC1;" d="M199.007,324.302c9.682,5.435,19.886,8.03,30.662,10.287c6.351,1.33,13.029,2.732,19.827,3.838
						v-22.063l-42.532-2.835c0,0-3.991,3.493-9.663,9.783C197.867,323.648,198.434,323.98,199.007,324.302z"/>
					<g>
						<path style="fill:#109BC1;" d="M175.824,392.852c0,0,1.066,0.685,2.977,1.811c0.947,0.575,2.122,1.235,3.456,2.009
							c1.346,0.753,2.864,1.603,4.52,2.529c1.662,0.915,3.457,1.911,5.388,2.906c1.913,1.026,3.969,2.035,6.072,3.118
							c2.099,1.091,4.324,2.105,6.552,3.196c2.262,1.019,4.549,2.076,6.864,3.063c2.333,0.944,4.621,1.993,6.948,2.834
							c2.319,0.858,4.572,1.779,6.816,2.481c2.23,0.74,4.377,1.481,6.437,2.085c1.027,0.314,2.026,0.62,2.992,0.915
							c0.964,0.304,1.899,0.585,2.81,0.793c1.819,0.436,3.458,0.945,4.928,1.339c1.47,0.383,2.772,0.614,3.835,0.858
							c1.066,0.23,1.904,0.41,2.475,0.533c0.14,0.046,0.275,0.024,0.372,0.118c0.098,0.089,0.152,0.347,0.191,0.585
							c0.067,0.544,0.055,1.137,0.055,1.137l-0.026,0.168c0,0-0.133,0.34-0.335,0.626c-0.098,0.123-0.215,0.251-0.334,0.269
							c-0.119,0.021-0.244-0.035-0.393-0.056c-0.588-0.119-1.451-0.293-2.549-0.514c-1.094-0.236-2.438-0.459-3.95-0.832
							c-1.502-0.411-3.21-0.823-5.047-1.367c-0.925-0.247-1.869-0.568-2.842-0.912c-0.974-0.336-1.982-0.684-3.017-1.042
							c-2.086-0.669-4.206-1.589-6.425-2.459c-2.228-0.848-4.452-1.913-6.763-2.861c-2.313-0.946-4.578-2.099-6.887-3.147
							c-2.302-1.064-4.574-2.19-6.819-3.281c-2.21-1.161-4.416-2.244-6.493-3.4c-4.184-2.258-8.018-4.492-11.267-6.469
							c-3.248-1.978-5.912-3.695-7.755-4.929c-1.85-1.224-2.88-1.965-2.88-1.965L175.824,392.852z"/>
					</g>
				</g>
				<g>
					<g>
						<path style="fill:none;stroke:#BAD6D8;stroke-width:0.9487;stroke-miterlimit:10;" d="M201.939,325.678
							c0,0-1.452,1.517-3.766,4.263"/>
						<path style="fill:none;stroke:#BAD6D8;stroke-width:0.9487;stroke-miterlimit:10;stroke-dasharray:11.6944,11.6944;" d="
							M190.968,339.148c-8.318,11.426-18.939,28.987-22.71,48.198c-7.438,37.896,4.956,82.373,11.715,102.48"/>
						<path style="fill:none;stroke:#BAD6D8;stroke-width:0.9487;stroke-miterlimit:10;" d="M181.898,495.349
							c1.235,3.415,2.015,5.32,2.015,5.32"/>
					</g>
				</g>
			</g>
		</g>
		<g>
			<g>
				<g>
					<g>
						<path style="fill:#F19C7C;" d="M174.097,198.208c0,0-11.215,41.089-30.922,70.476c-19.707,29.387-26.533,50.153-52.366,97.167
							c-23.935,43.558-20.923,43.049-5.233,21.496c0,0-29.089,45.924,4.628,2.743c0,0-20.009,41.506,5.183,2.862
							c0,0-20.352,35.05,9.993-5.96c0,0,48.133-61.529,85.197-133.577C241.295,154.829,174.097,198.208,174.097,198.208z"/>
						<path style="fill:#F19C7C;" d="M94.3,363.125c0,0-42.042,28.034-5.411,11.594C125.521,358.279,94.3,363.125,94.3,363.125z"/>
					</g>
					<g>
						<path style="fill:#EF7E5B;" d="M164.064,264.113c4.359,4.357,9.172,8.451,14.402,11.836
							c4.115-7.352,8.176-14.883,12.112-22.533c50.717-98.587-16.48-55.208-16.48-55.208s-7.418,27.176-20.789,53.133
							C156.531,255.921,160.156,260.208,164.064,264.113z"/>
					</g>
				</g>
				<g>
					<path style="fill:#FFFFFF;" d="M213.77,188.486c0,0-29.489-12.192-41.965,10.491c-12.476,22.684-21.549,36.861-21.549,36.861
						s12.192,28.355,43.666,29.489C196.811,265.431,213.77,188.486,213.77,188.486z"/>
					<path style="opacity:0.2;fill:#7972D9;" d="M167.077,207.463c-9.974,17.675-16.822,28.375-16.822,28.375
						s12.193,28.354,43.666,29.489c1.359,0.049,5.828-16.936,10.182-34.947C190.906,223.952,178.357,216.428,167.077,207.463z"/>
				</g>
			</g>
			<path style="fill:#FFFFFF;" d="M213.77,188.486c0,0,5.387,30.906,34.309,30.906c28.922,0,34.025-29.772,34.025-29.772
				s28.922-6.805,39.129,5.954c10.208,12.759-28.922,121.641-28.922,121.641s-45.084,12.192-90.451-3.119
				c-2.552-3.403-36.97-91.595-25.236-117.671C184.281,179.412,213.77,188.486,213.77,188.486z"/>
		</g>
	</g>
	<g>
		<g>
			<g>
				<polygon style="fill:#FF7C82;" points="313.891,345.444 337.293,500.669 277.206,500.669 263.291,439.686 250.762,437.896 
					250.641,343.546 				"/>
				<g>
					<path style="fill:#FF4A57;" d="M318.924,378.828l-5.033-33.385l-63.25-1.897l0.058,45.38
						C274.502,390.609,298.435,389.172,318.924,378.828z"/>
					<path style="fill:#FF4A57;" d="M257.046,438.794l6.245,0.892l13.915,60.984h60.087l-10.349-68.642
						C304.229,438.001,280.556,439.961,257.046,438.794z"/>
				</g>
			</g>
			<g>
				<path style="fill:#CC2F37;" d="M250.762,437.896c2.119,0.081,4.234,0.192,6.342,0.354c2.111,0.141,4.214,0.335,6.318,0.52
					l-1.054,0.852c0.008-1.151,0.061-2.299,0.089-3.449l0.106-3.448l0.316-6.889l0.421-6.882c0.155-2.293,0.347-4.583,0.518-6.875
					c0.164-2.292,0.412-4.579,0.613-6.869c0.204-2.29,0.484-4.574,0.722-6.861c0.548-4.57,1.129-9.137,1.933-13.689
					c0.171,4.619,0.12,9.223,0.035,13.825c-0.078,2.298-0.114,4.599-0.226,6.896c-0.115,2.296-0.183,4.595-0.335,6.888
					c-0.145,2.294-0.27,4.589-0.431,6.881l-0.528,6.875l-0.633,6.868l-0.369,3.43c-0.129,1.143-0.235,2.288-0.385,3.429
					l-0.136,1.034l-0.918-0.182c-2.072-0.411-4.145-0.814-6.211-1.269C254.88,438.897,252.819,438.412,250.762,437.896z"/>
			</g>
		</g>
		<g>
			<g>
				<g>
					<path style="fill:#F19C7C;" d="M418.288,365.851c-25.833-47.013-32.659-67.779-52.366-97.167
						c-15.252-22.744-25.415-52.491-29.232-64.78c-4.989-4.306-10.121-8.449-15.269-12.571c-16.511-6.379-38.097-6.332-2.902,62.082
						c37.064,72.048,85.197,133.577,85.197,133.577c30.346,41.009,9.993,5.96,9.993,5.96c25.192,38.644,5.183-2.862,5.183-2.862
						c33.717,43.181,4.628-2.743,4.628-2.743C439.212,408.9,442.223,409.409,418.288,365.851z"/>
					<path style="fill:#EF7E5B;" d="M336.691,203.905c-4.99-4.306-10.121-8.449-15.269-12.571
						c-16.511-6.379-38.097-6.332-2.902,62.082c5.825,11.324,11.925,22.377,18.067,32.982c5.833-3.226,11.532-6.598,16.623-11.197
						c3.249-2.935,6.864-6.626,10.899-9.29C349.862,243.575,340.353,215.697,336.691,203.905z"/>
					<path style="fill:#F19C7C;" d="M414.797,363.125c0,0,42.042,28.034,5.411,11.594
						C383.576,358.279,414.797,363.125,414.797,363.125z"/>
				</g>
				<g>
					<path style="fill:#FFFFFF;" d="M282.104,189.2c0,0,39.236-15.846,52.463,8.638c11.434,21.164,32.769,57.411,32.769,57.411
						s-10.666,19.098-40.585,20.145C324.004,275.491,282.104,189.2,282.104,189.2z"/>
					<path style="opacity:0.2;fill:#7972D9;" d="M335.637,199.809c-10.475,11.01-20.986,21.992-32.641,31.722
						c10.942,21.825,22.365,43.912,23.756,43.863c29.919-1.047,40.585-20.145,40.585-20.145S347.278,221.173,335.637,199.809z"/>
				</g>
			</g>
			<path style="fill:#FFFFFF;" d="M249.85,292.472c0,0,0,0,0,79.22c27.039,8.064,72.263-0.949,72.263-0.949
				s8.539-142.312,1.897-174.569c0,0-14.396-15.007-41.906-6.554L249.85,292.472z"/>
		</g>
	</g>
	<g>
		<rect x="248.647" style="fill:#FFFFFF;" width="2.392" height="500.669"/>
		<g>
			<path style="opacity:0.2;fill:#7972D9;" d="M251.025,294.81l-1.426-0.823c-0.324-0.187-8.015-4.648-15.783-11.288
				c-10.863-9.285-16.295-18.007-16.146-25.923c0.207-10.975,9.304-19.736,20.28-19.529l0.131,0.002
				c5.355,0.101,10.338,2.336,13.936,6.13c3.766-3.655,8.854-5.7,14.225-5.598l0.048,0.001c5.309,0.126,10.254,2.299,13.933,6.119
				c3.678,3.82,5.664,8.844,5.589,14.146l0,0.014c-0.151,8.022-5.911,16.566-17.119,25.394
				c-8.016,6.314-15.875,10.424-16.206,10.596L251.025,294.81z"/>
			<g>
				<defs>
					<path id="SVGID_00000134934758954352073960000006489200127110518696_" d="M249.128,288.486l-1.427-0.823
						c-0.324-0.187-8.015-4.648-15.783-11.288c-10.863-9.285-16.295-18.007-16.146-25.923c0.207-10.975,9.304-19.736,20.28-19.529
						l0.131,0.002c5.355,0.101,10.338,2.336,13.936,6.13c3.766-3.655,8.854-5.7,14.225-5.599l0.048,0.001
						c5.309,0.126,10.254,2.299,13.933,6.119c3.679,3.82,5.664,8.844,5.589,14.146l0,0.015c-0.151,8.022-5.911,16.565-17.119,25.394
						c-8.016,6.314-15.875,10.424-16.206,10.596L249.128,288.486z"/>
				</defs>
				<clipPath id="SVGID_00000143588691264214517560000014081370927482337471_">
					<use xlink:href="#SVGID_00000134934758954352073960000006489200127110518696_"  style="overflow:visible;"/>
				</clipPath>
				<g style="clip-path:url(#SVGID_00000143588691264214517560000014081370927482337471_);">
					<rect x="213.127" y="276.684" style="fill:#00CFFC;" width="73.075" height="11.622"/>
					<rect x="213.127" y="265.062" style="fill:#FFAABA;" width="73.075" height="11.622"/>
					<rect x="213.127" y="253.599" style="fill:#FFFFFF;" width="73.075" height="11.622"/>
					<rect x="213.127" y="230.674" style="fill:#00CFFC;" width="73.075" height="11.622"/>
					<rect x="213.127" y="242.296" style="fill:#FFAABA;" width="73.075" height="11.622"/>
				</g>
			</g>
		</g>
	</g>
</g>
</svg>
