<?xml version="1.0" encoding="utf-8"?>
<!-- Generator: Adobe Illustrator 27.5.0, SVG Export Plug-In . SVG Version: 6.00 Build 0)  -->
<svg version="1.1" xmlns="http://www.w3.org/2000/svg" xmlns:xlink="http://www.w3.org/1999/xlink" x="0px" y="0px"
	 viewBox="0 0 500 500" style="enable-background:new 0 0 500 500;" xml:space="preserve">
<g id="Background_Complete">
	<g>
		<rect y="382.398" style="fill:#EBEBEB;" width="500" height="0.25"/>
		<rect x="416.779" y="398.494" style="fill:#EBEBEB;" width="33.122" height="0.25"/>
		<rect x="322.527" y="401.208" style="fill:#EBEBEB;" width="8.693" height="0.25"/>
		<rect x="396.586" y="389.208" style="fill:#EBEBEB;" width="19.192" height="0.25"/>
		<rect x="52.459" y="390.888" style="fill:#EBEBEB;" width="43.193" height="0.25"/>
		<rect x="104.556" y="390.888" style="fill:#EBEBEB;" width="6.333" height="0.25"/>
		<rect x="131.471" y="395.111" style="fill:#EBEBEB;" width="93.676" height="0.25"/>
		<path style="fill:#EBEBEB;" d="M237.014,337.8H43.915c-3.147,0-5.708-2.561-5.708-5.708V60.66c0-3.147,2.561-5.708,5.708-5.708
			h193.099c3.146,0,5.707,2.561,5.707,5.708v271.432C242.721,335.239,240.16,337.8,237.014,337.8z M43.915,55.203
			c-3.01,0-5.458,2.448-5.458,5.458v271.432c0,3.01,2.448,5.458,5.458,5.458h193.099c3.009,0,5.457-2.448,5.457-5.458V60.66
			c0-3.009-2.448-5.458-5.457-5.458H43.915z"/>
		<path style="fill:#EBEBEB;" d="M453.31,337.8H260.212c-3.147,0-5.707-2.561-5.707-5.708V60.66c0-3.147,2.561-5.708,5.707-5.708
			H453.31c3.148,0,5.708,2.561,5.708,5.708v271.432C459.019,335.239,456.458,337.8,453.31,337.8z M260.212,55.203
			c-3.009,0-5.457,2.448-5.457,5.458v271.432c0,3.01,2.448,5.458,5.457,5.458H453.31c3.01,0,5.458-2.448,5.458-5.458V60.66
			c0-3.009-2.448-5.458-5.458-5.458H260.212z"/>
	</g>
	<g>
		<path style="fill:#E0E0E0;" d="M376.081,139.898l7.03-12.773l3.597-6.536l-2.183-0.14l-9.71-0.607l-4.807-7.257l-1.233-1.866
			l-3.93,7.14l-5.417,9.842c-0.462-0.653-1.124-1.25-1.944-1.701c-2.177-1.198-4.636-0.909-5.492,0.646
			c-0.856,1.555,0.215,3.787,2.392,4.986c2.175,1.197,4.631,0.909,5.489-0.642l0.004,0.002l6.259-11.372l5.381,7.333l9.353,0.137
			l-5.242,9.524c-0.462-0.651-1.124-1.247-1.941-1.697c-2.177-1.198-4.636-0.909-5.492,0.646c-0.856,1.555,0.215,3.787,2.393,4.986
			c2.177,1.198,4.636,0.909,5.492-0.646C376.08,139.902,376.08,139.9,376.081,139.898z"/>
		<path style="fill:#E0E0E0;" d="M327.864,307.365l7.03-12.773l3.597-6.536l-2.183-0.14l-9.711-0.608l-4.807-7.257l-1.233-1.866
			l-3.93,7.14l-5.417,9.842c-0.462-0.653-1.124-1.25-1.944-1.701c-2.177-1.198-4.636-0.909-5.492,0.646
			c-0.856,1.555,0.215,3.787,2.392,4.986c2.175,1.197,4.631,0.909,5.489-0.642l0.004,0.002l6.259-11.372l5.381,7.333l9.353,0.137
			l-5.242,9.524c-0.462-0.651-1.124-1.247-1.941-1.697c-2.177-1.198-4.636-0.909-5.492,0.646c-0.856,1.555,0.215,3.788,2.392,4.986
			c2.177,1.198,4.636,0.909,5.492-0.646C327.863,307.368,327.863,307.366,327.864,307.365z"/>
		<path style="fill:#E0E0E0;" d="M119.981,294.515l-7.594-20.995l-3.885-10.743l-2.367,2.37l-10.511,10.56l-13.207-1.802
			l-3.393-0.466l4.245,11.736l5.851,16.178c-1.218-0.128-2.575,0.03-3.922,0.517c-3.579,1.294-5.731,4.416-4.806,6.973
			c0.925,2.556,4.575,3.579,8.154,2.285c3.575-1.293,5.726-4.41,4.807-6.965l0.006-0.002l-6.761-18.692l13.875,1.219l9.608-10.624
			l5.662,15.656c-1.216-0.126-2.57,0.033-3.915,0.519c-3.579,1.294-5.731,4.416-4.806,6.973c0.925,2.556,4.576,3.579,8.154,2.285
			c3.579-1.295,5.731-4.416,4.806-6.973C119.984,294.52,119.982,294.517,119.981,294.515z"/>
		<path style="fill:#E0E0E0;" d="M168.553,99.813l-6.096-6.053l-1.585-1.577l-5.714,18.523c-0.585-0.546-1.354-0.997-2.248-1.273
			c-2.375-0.733-4.724,0.049-5.248,1.745c-0.523,1.696,0.978,3.665,3.353,4.398c2.372,0.732,4.719-0.048,5.245-1.741l0.004,0.001
			l3.826-12.403l6.23,5.619L168.553,99.813z"/>
		<path style="fill:#E0E0E0;" d="M200.046,280.555l-7.868-3.45l-2.047-0.9l1.344,19.337c-0.742-0.298-1.622-0.442-2.556-0.377
			c-2.479,0.172-4.389,1.748-4.266,3.519c0.123,1.771,2.233,3.067,4.712,2.895c2.477-0.172,4.385-1.745,4.266-3.514l0.004,0
			l-0.9-12.949l7.836,2.997L200.046,280.555z"/>
		<path style="fill:#E0E0E0;" d="M302.62,211.372l-12.458-8.667l-3.241-2.26l-4.276,33.975c-1.185-0.77-2.661-1.32-4.301-1.527
			c-4.356-0.548-8.205,1.53-8.596,4.641c-0.392,3.111,2.822,6.078,7.178,6.627c4.352,0.548,8.196-1.526,8.594-4.633l0.007,0.001
			l2.863-22.75l12.558,7.871L302.62,211.372z"/>
		<path style="fill:#E0E0E0;" d="M180.219,188.568v-2.573l-7.61-3.987l-1.98-1.04v5.003v9.607v4.774
			c-0.72-0.349-1.588-0.553-2.524-0.553c-2.485,0-4.5,1.439-4.5,3.214c0,1.775,2.015,3.214,4.5,3.214
			c2.483,0,4.496-1.437,4.499-3.209h0.004v-7.44v-5.54l7.61,3.533v-2.572l-7.61-3.987v-1.976L180.219,188.568z"/>
		<path style="fill:#E0E0E0;" d="M299.725,95.65l-0.89-2.414l-8.52-1.108l-2.218-0.291l1.731,4.694l3.324,9.013l1.652,4.479
			c-0.796-0.078-1.681,0.03-2.559,0.354c-2.332,0.86-3.724,2.908-3.11,4.573c0.614,1.666,3.003,2.319,5.334,1.459
			c2.329-0.859,3.721-2.904,3.111-4.568l0.004-0.001l-2.575-6.98l-1.917-5.198l8.362,0.681l-0.89-2.414l-8.52-1.107l-0.684-1.854
			L299.725,95.65z"/>
		<path style="fill:#E0E0E0;" d="M423.132,229.207l-0.943-4.785l-15.617-4.626l-4.064-1.209l1.834,9.306l3.522,17.87l1.75,8.88
			c-1.467-0.385-3.156-0.447-4.897-0.104c-4.623,0.911-7.842,4.327-7.192,7.629c0.651,3.302,4.926,5.24,9.549,4.329
			c4.618-0.91,7.835-4.32,7.192-7.619l0.008-0.001l-2.728-13.839l-2.031-10.305l15.45,3.781l-0.943-4.785l-15.617-4.626
			l-0.725-3.676L423.132,229.207z"/>
		<path style="fill:#E0E0E0;" d="M255.855,168.644l-3.32-14.196l-1.699-7.264l-1.716,1.356l-7.624,6.045l-8.428-2.178l-2.165-0.562
			l1.139,4.872v0l2.259,9.66l0,0l1.016,4.343c-0.78-0.176-1.672-0.177-2.583,0.036c-2.42,0.566-4.054,2.426-3.65,4.155
			c0.404,1.729,2.694,2.671,5.114,2.105c2.418-0.565,4.05-2.423,3.65-4.15l0.004-0.001l-2.956-12.639l8.905,1.851l7.044-6.156
			l1.461,6.245l0,0l1.015,4.341c-0.779-0.175-1.67-0.175-2.579,0.037c-2.42,0.566-4.054,2.426-3.65,4.155
			c0.404,1.729,2.694,2.671,5.114,2.105c2.42-0.566,4.054-2.426,3.65-4.155C255.856,168.648,255.855,168.646,255.855,168.644z
			 M250.259,153.412l-7.624,6.045l-8.428-2.178l-0.45-1.924l8.905,1.851l7.044-6.156L250.259,153.412L250.259,153.412z"/>
		<path style="fill:#E0E0E0;" d="M108.942,177.99l5.389-18.377l2.758-9.403l-2.84,0.44l-12.626,1.978l-8.225-7.942l-2.111-2.043
			l-1.849,6.306v0l-3.667,12.505l0,0l-1.649,5.622c-0.778-0.706-1.797-1.285-2.976-1.63c-3.133-0.919-6.204,0.15-6.86,2.388
			c-0.656,2.238,1.351,4.796,4.484,5.715c3.13,0.918,6.198-0.149,6.858-2.382l0.005,0.001l4.798-16.361l8.983,7.877l12.035-2.48
			l-2.371,8.085l0,0l-1.648,5.619c-0.777-0.704-1.795-1.281-2.972-1.626c-3.132-0.919-6.204,0.15-6.86,2.388
			c-0.656,2.238,1.352,4.796,4.484,5.715c3.133,0.919,6.204-0.15,6.86-2.388C108.942,177.994,108.942,177.992,108.942,177.99z
			 M112.4,156.956l-12.626,1.978l-8.225-7.942l0.73-2.491l8.983,7.877l12.035-2.48L112.4,156.956L112.4,156.956z"/>
	</g>
</g>
<g id="Background_Simple" style="display:none;">
	<g style="display:inline;">
		<path style="fill:#407BFF;" d="M249.518,92.013c-76.667,34.494-7.07,95.971-51.337,129.453
			c-44.267,33.482-164.625-5.225-118.743,81.719c53.894,102.128,289.903,87.946,340.789-37.32
			C471.114,140.598,326.185,57.519,249.518,92.013z"/>
		<path style="opacity:0.9;fill:#FFFFFF;" d="M249.518,92.013c-76.667,34.494-7.07,95.971-51.337,129.453
			c-44.267,33.482-164.625-5.225-118.743,81.719c53.894,102.128,289.903,87.946,340.789-37.32
			C471.114,140.598,326.185,57.519,249.518,92.013z"/>
	</g>
</g>
<g id="Shadow_1_">
	<ellipse id="_x3C_Path_x3E__359_" style="fill:#F5F5F5;" cx="250" cy="416.238" rx="193.889" ry="11.323"/>
</g>
<g id="Plant_2">
	<g>
		<path style="fill:#263238;" d="M417.084,390.354c0,0-1.193-8.744-6.784-9.7c-5.591-0.957-3.905-5.184-5.362-6.82
			c-1.457-1.636-5.261,3.191-2.002,7.869c3.259,4.677,0.595,3.207,2.002,7.556C406.345,393.607,417.595,397.602,417.084,390.354z"/>
		<path style="opacity:0.2;fill:#FFFFFF;enable-background:new    ;" d="M417.084,390.354c0,0-1.193-8.744-6.784-9.7
			c-5.591-0.957-3.905-5.184-5.362-6.82c-1.457-1.636-5.261,3.191-2.002,7.869c3.259,4.677,0.595,3.207,2.002,7.556
			C406.345,393.607,417.595,397.602,417.084,390.354z"/>
		<path style="fill:none;stroke:#263238;stroke-linecap:round;stroke-linejoin:round;stroke-miterlimit:10;" d="M415.226,395.94
			c0,0-3.56-9.221-0.156-23.531c3.404-14.309,12.278-19.258,6.234-35.788c-6.044-16.53-13.498-28.569-8.407-39.547"/>
		<path style="fill:#263238;" d="M413.623,394.284c0,0-3.614-5.447,1.602-8.246c5.216-2.8,6.262-0.546,9.489-2.559
			c3.227-2.013,5.673-6.893,6.223-3.771c0.55,3.122-3.177,4.903-1.859,6.33C430.397,387.465,420.305,396.738,413.623,394.284z"/>
		<g>
			<path style="fill:#263238;" d="M411.006,301.486c0,0-2.656-10.95,5.345-10.533C424.351,291.369,414.753,300.642,411.006,301.486z
				"/>
			<path style="fill:#263238;" d="M417.282,310.243c0,0,3.156-9.51,8.659-7.009C431.442,305.734,422.915,310.875,417.282,310.243z"
				/>
			<path style="fill:#263238;" d="M407.602,310.313c0,0,1.474-7.673-4.525-8.308C397.077,301.37,399.208,308.383,407.602,310.313z"
				/>
			<path style="fill:#263238;" d="M410.337,326.425c0,0-7.493-7.84-10.823-2.72C396.183,328.826,405.081,330.662,410.337,326.425z"
				/>
			<path style="fill:#263238;" d="M424.715,326.293c0,0,2.475-11.825,8.692-7.556C439.625,323.007,430.297,327.942,424.715,326.293z
				"/>
			<path style="fill:#263238;" d="M429.079,343.857c0,0-3.843-12.457,4.988-10.38C442.897,335.553,435.624,341.433,429.079,343.857z
				"/>
			<path style="fill:#263238;" d="M415.015,347.065c0,0-6.838-9.501-12.835-7.142C396.183,342.281,400.19,351.503,415.015,347.065z"
				/>
			<path style="fill:#263238;" d="M420.287,367.323c0,0,7.578-13.769,12.912-8.496C438.534,364.1,428.588,370.547,420.287,367.323z"
				/>
			<path style="fill:#263238;" d="M411.006,365.738c0,0,2.588-10.945-3.852-10.565C400.714,355.554,401.843,362.467,411.006,365.738
				z"/>
			<g style="opacity:0.2;enable-background:new    ;">
				<path style="fill:#FFFFFF;" d="M411.006,301.486c0,0-2.656-10.95,5.345-10.533C424.351,291.369,414.753,300.642,411.006,301.486
					z"/>
				<path style="fill:#FFFFFF;" d="M417.282,310.243c0,0,3.156-9.51,8.659-7.009C431.442,305.734,422.915,310.875,417.282,310.243z"
					/>
				<path style="fill:#FFFFFF;" d="M407.602,310.313c0,0,1.474-7.673-4.525-8.308C397.077,301.37,399.208,308.383,407.602,310.313z"
					/>
				<path style="fill:#FFFFFF;" d="M410.337,326.425c0,0-7.493-7.84-10.823-2.72C396.183,328.826,405.081,330.662,410.337,326.425z"
					/>
				<path style="fill:#FFFFFF;" d="M424.715,326.293c0,0,2.475-11.825,8.692-7.556C439.625,323.007,430.297,327.942,424.715,326.293
					z"/>
				<path style="fill:#FFFFFF;" d="M429.079,343.857c0,0-3.843-12.457,4.988-10.38C442.897,335.553,435.624,341.433,429.079,343.857
					z"/>
				<path style="fill:#FFFFFF;" d="M415.015,347.065c0,0-6.838-9.501-12.835-7.142C396.183,342.281,400.19,351.503,415.015,347.065z
					"/>
				<path style="fill:#FFFFFF;" d="M420.287,367.323c0,0,7.578-13.769,12.912-8.496C438.534,364.1,428.588,370.547,420.287,367.323z
					"/>
				<path style="fill:#FFFFFF;" d="M411.006,365.738c0,0,2.588-10.945-3.852-10.565
					C400.714,355.554,401.843,362.467,411.006,365.738z"/>
			</g>
		</g>
		<path style="fill:none;stroke:#263238;stroke-linecap:round;stroke-linejoin:round;stroke-miterlimit:10;" d="M405.805,307.615
			c0,0,3.025,5.378,7.513,8.385c0,0,3.588-5.747,6.129-7.006"/>
		<path style="fill:none;stroke:#263238;stroke-linecap:round;stroke-linejoin:round;stroke-miterlimit:10;" d="M404.198,325.213
			c0,0,8.755,0.418,15.248,6.198c0,0,4.359-6.198,9.632-8.759"/>
		<path style="fill:none;stroke:#263238;stroke-linecap:round;stroke-linejoin:round;stroke-miterlimit:10;" d="M432.17,338.352
			c0,0-4.539,9.566-9.633,13.02c0,0-9.458-6.546-16.731-7.273"/>
		<path style="fill:none;stroke:#263238;stroke-linecap:round;stroke-linejoin:round;stroke-miterlimit:10;" d="M407.602,358.827
			c0,0,4.134,9.961,7.623,12.344c0,0,3.803-4.546,11.374-6.172"/>
		<path style="fill:#263238;" d="M414.178,392.984c0,0-3.099-4.933-6.599-5.635c-3.5-0.702-5.008-4.734-6.3-2.309
			C399.988,387.465,403.549,395.503,414.178,392.984z"/>
		<g>
			<polygon style="fill:#407BFF;" points="394.656,391.281 396.027,399.635 396.209,400.739 396.779,404.242 397.192,406.717 
				397.456,408.328 398.786,416.455 433.022,416.455 434.352,408.328 434.616,406.717 435.029,404.242 435.599,400.739 
				435.781,399.635 437.152,391.281 			"/>
		</g>
	</g>
</g>
<g id="Plant_1">
	<g>
		<g>
			<path style="fill:none;stroke:#263238;stroke-width:0.7813;stroke-miterlimit:10;" d="M98.182,357.589c0,0-5.475-4.565-10.17,0
				c-4.695,4.565-5.601,32.844-5.601,32.844"/>
			<path style="fill:none;stroke:#263238;stroke-width:0.7813;stroke-miterlimit:10;" d="M82.023,395.893
				c0,0,3.227-33.187-8.924-47.134"/>
			<path style="fill:none;stroke:#263238;stroke-width:0.7813;stroke-miterlimit:10;" d="M83.179,392.396
				c0,0-2.485-37.78,6.628-46.163"/>
			<path style="fill:none;stroke:#263238;stroke-width:0.7813;stroke-miterlimit:10;" d="M82.023,392.396
				c0,0-0.212-24.965-6.985-28.846c-6.773-3.881-10.225,8.777-10.225,8.777"/>
			<path style="fill:none;stroke:#263238;stroke-width:0.7813;stroke-miterlimit:10;" d="M84.698,392.396
				c0,0-1.105-19.166,4.143-26.016c5.247-6.85,10.771,2.934,10.771,2.934"/>
			<path style="fill:none;stroke:#263238;stroke-width:0.7813;stroke-miterlimit:10;" d="M82.87,394.963
				c0,0,3.393-44.823-2.222-52.417"/>
		</g>
		<g>
			<path style="fill:#263238;" d="M69.239,367.186c0,0,3.377,1.245,2.373,4.184c-1.004,2.939-11.682,7.776-11.682,7.776
				s-4.472-4.099-0.365-10.766S69.148,365.083,69.239,367.186z"/>
			<path style="opacity:0.2;fill:#FFFFFF;enable-background:new    ;" d="M69.239,367.186c0,0,3.377,1.245,2.373,4.184
				c-1.004,2.939-11.682,7.776-11.682,7.776s-4.472-4.099-0.365-10.766S69.148,365.083,69.239,367.186z"/>
		</g>
		<g>
			<path style="fill:#263238;" d="M83.92,361.591c0,0-3.596-0.15-3.8,2.949c-0.204,3.099,7.79,11.673,7.79,11.673
				s5.705-2.063,4.48-9.796C91.164,358.683,84.813,359.685,83.92,361.591z"/>
			<path style="opacity:0.2;fill:#FFFFFF;enable-background:new    ;" d="M83.92,361.591c0,0-3.596-0.15-3.8,2.949
				c-0.204,3.099,7.79,11.673,7.79,11.673s5.705-2.063,4.48-9.796C91.164,358.683,84.813,359.685,83.92,361.591z"/>
		</g>
		<g>
			<path style="fill:#263238;" d="M86.964,346.756c0,0-2.398-0.258-2.205-1.718c0.193-1.46,9.32-5.219,14.705,0.859
				c0,0-3.448,5.923-8.432,6C86.048,351.975,86.964,346.756,86.964,346.756z"/>
			<path style="opacity:0.2;fill:#FFFFFF;enable-background:new    ;" d="M86.964,346.756c0,0-2.398-0.258-2.205-1.718
				c0.193-1.46,9.32-5.219,14.705,0.859c0,0-3.448,5.923-8.432,6C86.048,351.975,86.964,346.756,86.964,346.756z"/>
		</g>
		<g>
			<path style="fill:#263238;" d="M82.497,343.21c0,0,2.171,1.05,2.779-0.292c0.608-1.341-5.149-9.358-12.934-7.048
				c0,0-0.206,6.85,3.983,9.552C80.514,348.124,82.497,343.21,82.497,343.21z"/>
			<path style="opacity:0.2;fill:#FFFFFF;enable-background:new    ;" d="M82.497,343.21c0,0,2.171,1.05,2.779-0.292
				c0.608-1.341-5.149-9.358-12.934-7.048c0,0-0.206,6.85,3.983,9.552C80.514,348.124,82.497,343.21,82.497,343.21z"/>
		</g>
		<g>
			<path style="fill:#263238;" d="M93.848,366.005c0,0-1.655-1.336,0.131-1.988c1.786-0.652,10.548-0.467,10.639,8.212
				c0,0-10.205,1.696-11.468-1.61C91.887,367.313,93.848,366.005,93.848,366.005z"/>
			<path style="opacity:0.2;fill:#FFFFFF;enable-background:new    ;" d="M93.848,366.005c0,0-1.655-1.336,0.131-1.988
				c1.786-0.652,10.548-0.467,10.639,8.212c0,0-10.205,1.696-11.468-1.61C91.887,367.313,93.848,366.005,93.848,366.005z"/>
		</g>
		<g>
			<path style="fill:#263238;" d="M73.038,346.539c0,0,1.655-1.336-0.131-1.988c-1.786-0.652-10.548-0.467-10.639,8.212
				c0,0,10.205,1.696,11.468-1.61C75,347.847,73.038,346.539,73.038,346.539z"/>
			<path style="opacity:0.2;fill:#FFFFFF;enable-background:new    ;" d="M73.038,346.539c0,0,1.655-1.336-0.131-1.988
				c-1.786-0.652-10.548-0.467-10.639,8.212c0,0,10.205,1.696,11.468-1.61C75,347.847,73.038,346.539,73.038,346.539z"/>
		</g>
		<g>
			<path style="fill:#263238;" d="M78.433,353.53c0,0,0.146-1.624-1.165-0.987c-1.311,0.637-5.879,5.564-1.144,10.24
				c0,0,6.373-4.72,5.225-7.178C80.2,353.147,78.433,353.53,78.433,353.53z"/>
			<path style="opacity:0.2;fill:#FFFFFF;enable-background:new    ;" d="M78.433,353.53c0,0,0.146-1.624-1.165-0.987
				c-1.311,0.637-5.879,5.564-1.144,10.24c0,0,6.373-4.72,5.225-7.178C80.2,353.147,78.433,353.53,78.433,353.53z"/>
		</g>
		<g>
			<path style="fill:#263238;" d="M95.327,355.845c0,0-0.989-1.296,0.459-1.457c1.449-0.161,7.94,1.572,6.429,8.053
				c0,0-7.909-0.594-8.248-3.287C93.628,356.462,95.327,355.845,95.327,355.845z"/>
			<path style="opacity:0.2;fill:#FFFFFF;enable-background:new    ;" d="M95.327,355.845c0,0-0.989-1.296,0.459-1.457
				c1.449-0.161,7.94,1.572,6.429,8.053c0,0-7.909-0.594-8.248-3.287C93.628,356.462,95.327,355.845,95.327,355.845z"/>
		</g>
		<polygon style="fill:#407BFF;" points="68.608,416.455 95.744,416.455 98.672,386.744 65.68,386.744 		"/>
		
			<rect x="64.231" y="383.466" transform="matrix(-1 -1.224647e-16 1.224647e-16 -1 164.352 773.4885)" style="fill:#407BFF;" width="35.889" height="6.556"/>
		
			<rect x="64.231" y="383.466" transform="matrix(-1 -1.224647e-16 1.224647e-16 -1 164.352 773.4885)" style="opacity:0.2;fill:#FFFFFF;enable-background:new    ;" width="35.889" height="6.556"/>
	</g>
</g>
<g id="Character_3">
	<g>
		<polygon style="fill:#FFC3BD;" points="321.971,401.107 315.608,398.796 319.111,383.462 325.474,385.773 		"/>
		<polygon style="fill:#FFC3BD;" points="372.159,409.558 365.405,409.558 363.488,393.915 370.243,393.915 		"/>
		<polygon style="opacity:0.2;" points="319.112,383.467 317.305,391.37 323.67,393.682 325.477,385.779 		"/>
		<polygon style="opacity:0.2;" points="370.245,393.92 363.487,393.92 364.479,401.983 371.236,401.983 		"/>
		<g>
			<g>
				<path style="fill:#263238;" d="M315.439,389.036l10.775,3.909c0,0,8.418-37.063,12.892-57.61
					c1.362-6.25,4.098-14.845,7.339-24.001c4.089-11.536,8.97-23.949,12.91-33.655c4.155-10.221,7.25-17.435,7.25-17.435
					l-23.297-4.717c0,0-17.776,51.152-21.769,71.369C317.385,347.916,315.439,389.036,315.439,389.036z"/>
			</g>
		</g>
		<g style="opacity:0.2;">
			<g>
				<path style="fill:#FFFFFF;" d="M315.439,389.036l10.775,3.909c0,0,8.418-37.063,12.892-57.61
					c1.362-6.25,4.098-14.845,7.339-24.001c4.089-11.536,8.97-23.949,12.91-33.655c4.155-10.221,7.25-17.435,7.25-17.435
					l-23.297-4.717c0,0-17.776,51.152-21.769,71.369C317.385,347.916,315.439,389.036,315.439,389.036z"/>
			</g>
		</g>
		<path style="opacity:0.2;" d="M346.445,311.333c4.089-11.536,8.97-23.949,12.91-33.655l-1.803-5.576
			C350.887,278.272,346.726,299.527,346.445,311.333z"/>
		<g>
			<g>
				<path style="fill:#263238;" d="M355.878,258.071c0,0-4.159,58.324-4.411,78.142c-0.275,21.702,9.873,64.208,9.873,64.208h12.372
					c0,0-4.941-38.352-3.297-59.853c1.839-24.044,8.329-77.865,8.329-77.865L355.878,258.071z"/>
			</g>
		</g>
		<g style="opacity:0.2;">
			<g>
				<path style="fill:#FFFFFF;" d="M355.878,258.071c0,0-4.159,58.324-4.411,78.142c-0.275,21.702,9.873,64.208,9.873,64.208h12.372
					c0,0-4.941-38.352-3.297-59.853c1.839-24.044,8.329-77.865,8.329-77.865L355.878,258.071z"/>
			</g>
		</g>
		<path style="fill:#263238;" d="M354.716,198.304l-0.902,18.872c0,0-1.219,1.086-3.186,2.674c-2.459,1.967-6.086,4.723-9.948,7.09
			c-5.584,3.432-11.659,6.086-15.481,4.529c-8.586-3.504-0.164-37.17-0.164-37.17l7.561,1.486c0,0-1.424,21.925,0,21.925
			C334.01,217.709,354.716,198.304,354.716,198.304z"/>
		<path style="opacity:0.2;" d="M350.628,219.85c-2.459,1.967-6.086,4.723-9.948,7.09c1.885-7.868,10.082-15.204,10.082-15.204
			C351.458,214.256,351.294,217.094,350.628,219.85z"/>
		<g>
			<path style="fill:#FFC3BD;" d="M326.443,195.541l-4.044-6.841l8.78-0.774c0,0,3.24,6.322-0.087,7.854L326.443,195.541z"/>
			<polygon style="fill:#FFC3BD;" points="322.502,180.829 330.278,182.726 331.179,187.926 322.399,188.7 			"/>
		</g>
		<path style="fill:#263238;" d="M364.518,408.776h8.235c0.276,0,0.517,0.192,0.58,0.461l1.394,6.004
			c0.145,0.623-0.339,1.212-0.977,1.201c-2.65-0.046-4.585-0.201-7.922-0.201c-2.053,0-8.242,0.213-11.078,0.213
			c-2.773,0-3.234-2.803-2.075-3.057c5.193-1.138,9.099-2.708,10.75-4.206C363.724,408.921,364.115,408.776,364.518,408.776z"/>
		<path style="fill:#263238;" d="M315.375,397.502l7.228,1.55c0.271,0.058,0.466,0.296,0.471,0.572l0.104,6.149
			c0.011,0.638-0.571,1.115-1.193,0.97c-2.599-0.603-6.335-1.564-9.612-2.267c-3.832-0.822-6.207-1.597-10.701-2.561
			c-2.717-0.583-2.909-3.485-1.721-3.489c5.41-0.019,8.685,1.04,13.724-0.752C314.223,397.479,314.804,397.379,315.375,397.502z"/>
		<polygon style="fill:#263238;" points="359.862,400.689 374.43,400.689 374.387,396.337 359.177,395.458 		"/>
		<polygon style="fill:#263238;" points="314,388.897 326.904,393.377 328.307,389.213 314.195,384.073 		"/>
		<path style="fill:#407BFF;" d="M362.297,409.956c-0.514,0-0.996-0.087-1.305-0.344c-0.244-0.203-0.358-0.487-0.339-0.846
			c0.014-0.266,0.154-0.393,0.269-0.452c0.742-0.385,2.936,0.955,3.183,1.109c0.055,0.034,0.084,0.098,0.075,0.161
			c-0.01,0.063-0.057,0.115-0.119,0.13C363.594,409.826,362.921,409.956,362.297,409.956z M361.279,408.558
			c-0.083,0-0.153,0.013-0.207,0.04c-0.043,0.022-0.093,0.063-0.099,0.188c-0.013,0.254,0.06,0.444,0.223,0.581
			c0.373,0.31,1.255,0.352,2.399,0.122C362.828,409.047,361.797,408.558,361.279,408.558z"/>
		<path style="fill:#407BFF;" d="M364.024,409.718c-0.026,0-0.052-0.006-0.077-0.019c-0.703-0.38-2.069-1.86-1.934-2.613
			c0.025-0.137,0.123-0.373,0.505-0.42c0.248-0.029,0.478,0.039,0.683,0.206c0.791,0.641,0.972,2.591,0.98,2.673
			c0.005,0.059-0.022,0.115-0.071,0.147C364.084,409.709,364.054,409.718,364.024,409.718z M362.633,406.98
			c-0.024,0-0.048,0.001-0.073,0.004c-0.208,0.025-0.225,0.121-0.232,0.162c-0.08,0.445,0.792,1.563,1.492,2.09
			c-0.084-0.569-0.312-1.705-0.819-2.116C362.886,407.026,362.765,406.98,362.633,406.98z"/>
		<path style="fill:#407BFF;" d="M314.536,398.274c-0.007,0.001-0.014,0.001-0.022,0.001c-1.11-0.017-3.06-0.164-3.654-0.96
			c-0.179-0.24-0.225-0.517-0.138-0.824c0.052-0.183,0.172-0.308,0.344-0.361c0.9-0.281,3.28,1.642,3.549,1.861
			c0.053,0.043,0.073,0.115,0.05,0.179C314.646,398.227,314.595,398.267,314.536,398.274z M311.226,396.423
			c-0.022,0.003-0.043,0.007-0.062,0.013c-0.07,0.022-0.11,0.065-0.133,0.146c-0.059,0.208-0.031,0.386,0.086,0.543
			c0.334,0.447,1.41,0.744,2.921,0.815C313.09,397.216,311.76,396.358,311.226,396.423z"/>
		<path style="fill:#407BFF;" d="M314.536,398.274c-0.04,0.005-0.081-0.005-0.114-0.03c-0.725-0.529-2.015-2.296-1.741-3.017
			c0.065-0.169,0.234-0.359,0.674-0.312c0.327,0.036,0.601,0.189,0.814,0.455c0.701,0.871,0.514,2.687,0.506,2.764
			c-0.006,0.057-0.042,0.105-0.094,0.128C314.566,398.268,314.551,398.272,314.536,398.274z M313.155,395.232
			c-0.139,0.017-0.165,0.085-0.175,0.112c-0.164,0.432,0.681,1.785,1.396,2.448c0.022-0.538,0.004-1.652-0.456-2.223
			c-0.16-0.199-0.356-0.309-0.598-0.336C313.254,395.226,313.199,395.226,313.155,395.232z"/>
		<g>
			<path style="fill:#407BFF;" d="M391.898,205.495c-1.038,2.507-1.987,5.033-2.849,7.569c-0.96,2.781-1.811,5.561-2.585,8.313
				c-0.529,1.89-1.018,3.77-1.479,5.62c-0.157,0.627-0.303,1.253-0.45,1.87c-0.352,1.488-0.676,2.957-0.979,4.396
				c-0.294,1.381-0.568,2.742-0.822,4.063c-0.284,1.43-0.539,2.81-0.774,4.161c-0.235,1.341-0.45,2.653-0.656,3.916
				c-0.225,1.41-0.431,2.761-0.617,4.044c-0.235,1.625-0.441,3.143-0.627,4.533c-0.578,4.191-0.959,7.255-1.312,8.724
				c-5.19-1.057-24.762-5.013-35.434-7.177c-0.02-2.781,0.03-5.454,0.127-8.029c0.068-1.723,0.147-3.398,0.264-5.023
				c0.069-1.077,0.147-2.135,0.235-3.172c0.137-1.586,0.294-3.123,0.46-4.612c0.196-1.674,0.411-3.28,0.646-4.837
				c0.431-2.869,0.92-5.532,1.439-7.999c0.646-2.996,1.332-5.699,2.027-8.117c0.881-3.035,1.782-5.62,2.605-7.755
				c2.007-5.15,3.603-7.676,3.603-7.676s4.053-0.274,8.685,0.059c0.607,0.039,1.224,0.108,1.85,0.176
				c4.063,0.441,10.584,1.909,15.069,3.045c0.94,0.235,1.9,0.509,2.82,0.783C387.835,203.772,391.898,205.495,391.898,205.495z"/>
		</g>
		<g style="opacity:0.7;">
			<path style="fill:#FFFFFF;" d="M391.898,205.495c-1.038,2.507-1.987,5.033-2.849,7.569c-0.96,2.781-1.811,5.561-2.585,8.313
				c-0.529,1.89-1.018,3.77-1.479,5.62c-0.157,0.627-0.303,1.253-0.45,1.87c-0.352,1.488-0.676,2.957-0.979,4.396
				c-0.294,1.381-0.568,2.742-0.822,4.063c-0.284,1.43-0.539,2.81-0.774,4.161c-0.235,1.341-0.45,2.653-0.656,3.916
				c-0.225,1.41-0.431,2.761-0.617,4.044c-0.235,1.625-0.441,3.143-0.627,4.533c-0.578,4.191-0.959,7.255-1.312,8.724
				c-5.19-1.057-24.762-5.013-35.434-7.177c-0.02-2.781,0.03-5.454,0.127-8.029c0.068-1.723,0.147-3.398,0.264-5.023
				c0.069-1.077,0.147-2.135,0.235-3.172c0.137-1.586,0.294-3.123,0.46-4.612c0.196-1.674,0.411-3.28,0.646-4.837
				c0.431-2.869,0.92-5.532,1.439-7.999c0.646-2.996,1.332-5.699,2.027-8.117c0.881-3.035,1.782-5.62,2.605-7.755
				c2.007-5.15,3.603-7.676,3.603-7.676s4.053-0.274,8.685,0.059c0.607,0.039,1.224,0.108,1.85,0.176
				c4.063,0.441,10.584,1.909,15.069,3.045c0.94,0.235,1.9,0.509,2.82,0.783C387.835,203.772,391.898,205.495,391.898,205.495z"/>
		</g>
		<g>
			<path style="fill:#FFC3BD;" d="M382.732,184.274c-2.02,4.666-4.879,13.372-1.954,17.284c-3.173,2.071-7.536,3.522-13.291,2.324
				c-4.408-0.918-4.022-3.879-2.699-5.312c6.006-0.221,6.695-4.264,6.481-8.223L382.732,184.274z"/>
			<path style="opacity:0.2;" d="M380.944,186.91l-9.67,3.434c0.054,0.938,0.052,1.878-0.065,2.77
				C378.148,194.934,381.026,187.447,380.944,186.91z"/>
		</g>
		<g>
			<path style="fill:#263238;" d="M376.363,165.337c-5.51,0.226-9.533,11.048-7.806,12.92
				C371.786,181.758,383.196,165.057,376.363,165.337z"/>
			<path style="fill:#FFC3BD;" d="M386.433,179.519c-2.739,6.121-4.031,9.844-8.404,11.871c-6.578,3.049-13.235-2.726-12.38-9.543
				c0.77-6.136,5.12-15.116,12.19-15.305C384.805,166.355,389.172,173.397,386.433,179.519z"/>
			<path style="fill:#263238;" d="M392.949,177.468c-2.023,4.023-8.864,10.935-11.206,9.81c-2.536-1.218-0.99-8.677,2.257-13.343
				L392.949,177.468z"/>
			<path style="fill:#FFC3BD;" d="M386.668,187.489c-1.43,1.107-3.238,1.45-4.709,1.238c-2.212-0.319-2.42-2.515-1.053-4.132
				c1.231-1.456,3.865-3.044,5.724-1.904C388.461,183.814,388.303,186.224,386.668,187.489z"/>
			<path style="fill:#263238;" d="M376.27,177.699c-0.192,0.51-0.617,0.822-0.951,0.697c-0.334-0.125-0.449-0.641-0.257-1.151
				c0.192-0.51,0.617-0.822,0.951-0.697C376.347,176.674,376.462,177.189,376.27,177.699z"/>
			<path style="fill:#263238;" d="M370.503,175.532c-0.192,0.51-0.618,0.822-0.951,0.697c-0.334-0.125-0.448-0.64-0.257-1.151
				c0.192-0.51,0.617-0.822,0.951-0.697C370.58,174.507,370.695,175.022,370.503,175.532z"/>
			<path style="fill:#ED847E;" d="M372.241,176.475c0,0-2.266,2.508-4.077,3.448c0.586,1.182,2.266,1.373,2.266,1.373
				L372.241,176.475z"/>
			<path style="fill:#263238;" d="M378.672,176.477c-0.074-0.039-0.133-0.106-0.159-0.193c-0.401-1.355-1.499-1.708-1.545-1.722
				c-0.167-0.051-0.264-0.23-0.212-0.399c0.051-0.169,0.228-0.264,0.397-0.214c0.06,0.018,1.471,0.456,1.975,2.153
				c0.05,0.169-0.047,0.348-0.216,0.398C378.828,176.524,378.742,176.514,378.672,176.477z"/>
			<path style="fill:#263238;" d="M368.687,172.587c-0.031-0.016-0.059-0.037-0.084-0.064c-0.122-0.129-0.116-0.331,0.012-0.453
				c1.285-1.219,2.726-0.893,2.787-0.878c0.172,0.042,0.278,0.214,0.237,0.386c-0.041,0.171-0.213,0.277-0.384,0.237
				c-0.052-0.012-1.176-0.251-2.199,0.719C368.954,172.632,368.805,172.649,368.687,172.587z"/>
			<path style="fill:#263238;" d="M371.421,168.482c0,0-4.65-2.795-4.271-5.539c0.379-2.744,16.533,2.044,26.224,12.47
				c7.445,8.011,2.258,7.76-2.266,5.314C391.107,180.728,381.741,170.105,371.421,168.482z"/>
			<path style="fill:#263238;" d="M374.223,164.83c0,0,6.752-4.81,7.903-4.81c1.151,0,8.558,3.33,12.751,9.62
				c0.566,0.849-2.939,8.784-2.939,8.784S382.051,167.093,374.223,164.83z"/>
			<path style="opacity:0.2;fill:#FFFFFF;" d="M371.421,168.482c0,0-4.65-2.795-4.271-5.539c0.379-2.744,16.533,2.044,26.224,12.47
				c7.445,8.011,2.258,7.76-2.266,5.314C391.107,180.728,381.741,170.105,371.421,168.482z"/>
			<g>
				<path style="fill:none;stroke:#263238;stroke-width:0.75;stroke-miterlimit:10;" d="M371.056,176.534
					c0,0,1.258-0.49,1.855,0.952"/>
				
					<line style="fill:none;stroke:#263238;stroke-width:0.75;stroke-miterlimit:10;" x1="376.935" y1="179.052" x2="383.296" y2="182.075"/>
				<g>
					<path style="fill:#263238;" d="M377.237,179.18c-0.575,1.367-2.087,2.035-3.377,1.492c-1.29-0.543-1.87-2.091-1.295-3.458
						c0.575-1.367,2.087-2.035,3.377-1.492C377.233,176.265,377.812,177.813,377.237,179.18z"/>
					<path style="opacity:0.2;fill:#FFFFFF;" d="M376.935,179.052c-0.5,1.189-1.816,1.771-2.939,1.298
						c-1.123-0.472-1.628-1.82-1.127-3.009c0.5-1.19,1.816-1.771,2.939-1.298C376.93,176.516,377.435,177.863,376.935,179.052z"/>
				</g>
				<g>
					<path style="fill:#263238;" d="M371.538,176.516c-0.575,1.367-2.087,2.035-3.377,1.492c-1.29-0.543-1.87-2.091-1.295-3.458
						c0.575-1.367,2.087-2.035,3.377-1.492C371.533,173.601,372.113,175.149,371.538,176.516z"/>
					<path style="opacity:0.2;fill:#FFFFFF;" d="M371.235,176.389c-0.5,1.189-1.816,1.771-2.939,1.298
						c-1.123-0.472-1.628-1.82-1.127-3.009s1.816-1.771,2.939-1.298C371.231,173.852,371.736,175.199,371.235,176.389z"/>
				</g>
			</g>
		</g>
		<g>
			<path style="fill:#407BFF;" d="M303.068,174.073l4.225-14.311c1.626,1.368,3.343,2.633,5.13,3.779
				c3.269,2.115,6.78,3.857,10.458,5.178l45.044,15.631c0,0-0.025,0.849,0.546,1.426l-0.644,0.711l-46.808-11.461
				c-3.806-0.888-7.699-1.332-11.593-1.332C307.303,173.685,305.174,173.815,303.068,174.073z"/>
			<path style="opacity:0.2;" d="M303.068,174.073l4.225-14.311c1.626,1.368,3.343,2.633,5.13,3.779
				c0.22,1.616,0.081,3.473-0.48,5.372c-0.561,1.899-1.458,3.55-2.517,4.78C307.303,173.685,305.174,173.815,303.068,174.073z"/>
			<path style="fill:#407BFF;" d="M310.464,168.479c-1.409,4.771-4.916,7.941-7.833,7.079c-2.918-0.861-4.141-5.428-2.733-10.199
				c1.409-4.771,4.916-7.941,7.833-7.079C310.649,159.142,311.872,163.708,310.464,168.479z"/>
			<path style="opacity:0.4;" d="M308.216,167.816c-1.042,3.531-3.638,5.876-5.797,5.239c-2.159-0.638-3.065-4.016-2.022-7.547
				c1.042-3.531,3.638-5.876,5.797-5.239C308.353,160.906,309.258,164.285,308.216,167.816z"/>
			<path style="fill:none;stroke:#407BFF;stroke-width:2;stroke-miterlimit:10;" d="M321.107,179.519L321.107,179.519
				c0.606-2.726,3.308-4.444,6.033-3.837l18.52,4.121c2.726,0.606,4.444,3.308,3.837,6.033l0,0
				c-0.607,2.726-3.308,4.444-6.034,3.837l-18.52-4.12C322.219,184.946,320.501,182.244,321.107,179.519z"/>
		</g>
		<g>
			<path style="fill:#407BFF;" d="M369.214,200.761c0,0,0.908-2.609,2.737-2.961c1.829-0.351,8.995-0.182,8.995-0.182l-0.168,3.94
				c0,0-9.79,7.507-14.627,5.075c-4.837-2.432-2.745-8.266-2.745-8.266l3.025-0.165l2.115-2.108c0,0,1.253,0.524,1.434,1.524
				C370.161,198.618,369.214,200.761,369.214,200.761z"/>
			<path style="opacity:0.7;fill:#FFFFFF;" d="M369.214,200.761c0,0,0.908-2.609,2.737-2.961c1.829-0.351,8.995-0.182,8.995-0.182
				l-0.168,3.94c0,0-9.79,7.507-14.627,5.075c-4.837-2.432-2.745-8.266-2.745-8.266l3.025-0.165l2.115-2.108
				c0,0,1.253,0.524,1.434,1.524C370.161,198.618,369.214,200.761,369.214,200.761z"/>
		</g>
		<polygon style="fill:#263238;" points="369.05,202.321 365.853,198.202 363.999,203.681 368.402,203.346 371.823,206.859 
			374.927,201.714 		"/>
		<g>
			<path style="fill:#263238;" d="M383.373,242.636l5.707,33.226h-11.885c0,0-1.834-20.727-2.203-39.322
				c-0.103-5.594-0.072-10.993,0.174-15.583c1.086-19.866,7.981-18.585,7.981-18.585l0.85,0.307l7.899,2.818
				C393.301,209.902,383.373,242.636,383.373,242.636z"/>
			<path style="opacity:0.2;fill:#FFFFFF;" d="M379.193,213.17l3.842,6.977l-8.042,16.393c-0.103-5.594-0.072-10.993,0.174-15.583
				c1.086-19.866,7.981-18.585,7.981-18.585l0.85,0.307l2.879,10.491H379.193z"/>
		</g>
		<g>
			<path style="fill:#263238;" d="M363.404,198.365c0,0-9.385,9.416-14.046,30.286c-0.564,2.52-1.086,4.979-1.557,7.346
				c-3.473,17.212-4.744,29.743-4.744,29.743l-4.938-2.029l5.584-21.239c0,0,1.998-39.045,11.014-44.168l6.158,0.041
				L363.404,198.365z"/>
			<path style="opacity:0.2;fill:#FFFFFF;" d="M363.404,198.365c0,0-9.385,9.416-14.046,30.286c-0.564,2.52-1.086,4.979-1.557,7.346
				c-1.527-7.592,1.352-24.364,1.352-24.364l4.252-2.029l-2.643-2.49l10.112-8.77L363.404,198.365z"/>
		</g>
		<g>
			<path style="fill:#FFC3BD;" d="M348.503,195.916l-0.511-7.93l-7.692,4.305c0,0,0.883,7.049,4.495,6.441L348.503,195.916z"/>
			<polygon style="fill:#FFC3BD;" points="343.474,181.54 338.117,187.487 340.301,192.29 347.992,187.985 			"/>
		</g>
		<path style="opacity:0.2;" d="M376.513,227.54c0,0,7.793,0.43,11.699-2.014l1.568-6.188L376.513,227.54z"/>
		<path style="fill:#263238;" d="M348.399,194.295c0,0,7.24,24.227,13.32,26.051c6.08,1.824,23.711-13.026,23.711-13.026
			s5.554-3.235,6.468-1.825c3.259,5.022-2.285,14.529-2.285,14.529s-17.964,17.75-29.11,13.495
			c-11.146-4.256-17.448-35.148-17.448-35.148L348.399,194.295z"/>
	</g>
</g>
<g id="Character_2">
	<g id="_x3C_Group_x3E__98_">
		<g>
			<polygon style="fill:#B55B52;" points="262.49,404.124 269.981,406.237 277.534,391.41 266.646,387.34 			"/>
			<polygon style="opacity:0.2;enable-background:new    ;" points="266.646,387.34 277.53,391.423 272.509,401.274 263.934,398.25 
							"/>
		</g>
		<g>
			<path style="fill:#407BFF;" d="M283.527,268.924c0,0,13.934,0.73,13.846,0.053c-1.385-10.626-17.829-23.647-41.868-27.648
				l4.486,22.087L283.527,268.924z"/>
			<path style="opacity:0.7;fill:#FFFFFF;" d="M283.527,268.924c0,0,13.934,0.73,13.846,0.053
				c-1.385-10.626-17.829-23.647-41.868-27.648l4.486,22.087L283.527,268.924z"/>
			<path style="opacity:0.1;enable-background:new    ;" d="M263.88,264.104l2.134-8.291c0,0,3.68,4.532,2.757,9.519L263.88,264.104
				z"/>
		</g>
		<g>
			<path style="fill:#407BFF;" d="M271.478,404.78c0.009,0.018,0.005,0.04,0.019,0.054c0.018,0.01,0.039,0.01,0.059,0.007
				c0.544,0.306,1.119,0.554,1.717,0.736c0.436,0.178,0.923,0.185,1.365,0.022c0.294-0.167,0.466-0.489,0.44-0.827
				c0.02-0.212-0.068-0.42-0.238-0.551c-0.398-0.296-1.232-0.209-1.967-0.053c0.536-0.436,1.006-0.985,1.036-1.424
				c0.017-0.288-0.149-0.551-0.424-0.637c-0.238-0.099-0.476-0.087-0.704,0.031c-0.852,0.468-1.183,2.431-1.208,2.537
				c0,0.001,0.124,0.001,0.124,0.002s0,0.001,0,0.002c0,0.001-0.126,0.006-0.126,0.007c-0.001,0.007-0.118,0.012-0.118,0.02
				C271.454,404.733,271.462,404.758,271.478,404.78z M272.001,404.389c-0.059,0.018-0.108,0.033-0.158,0.048
				c0.165-0.646,0.518-1.706,1.028-1.979c0.113-0.069,0.249-0.087,0.377-0.05l0.076,0.027c0.218,0.089,0.246,0.216,0.234,0.312
				C273.499,403.221,272.692,404.009,272.001,404.389z M272.027,404.751c0.926-0.28,2.21-0.533,2.605-0.237
				c0.084,0.064,0.128,0.166,0.116,0.27c0.01,0.212-0.093,0.413-0.27,0.53C274.071,405.537,273.172,405.327,272.027,404.751z"/>
		</g>
		<path style="fill:#263238;" d="M271.192,403.755l-7.599-2.12c-0.262-0.086-0.543,0.057-0.629,0.318
			c-0.001,0.003-0.002,0.005-0.003,0.008l-2.049,5.915c-0.183,0.655,0.195,1.336,0.848,1.526c2.664,0.697,3.97,0.897,7.321,1.803
			c2.054,0.567,6.059,1.883,8.989,2.216c2.93,0.333,3.181-2.571,1.97-2.971c-2.868-0.961-6.302-3.95-7.792-5.98
			C271.985,404.121,271.613,403.869,271.192,403.755z"/>
		<g>
			<polygon style="fill:#407BFF;" points="226.723,341.213 226.408,354.836 224.974,416.455 220.24,416.455 218.814,354.836 
				218.499,341.213 			"/>
			<polygon style="opacity:0.4;fill:#FFFFFF;enable-background:new    ;" points="226.723,341.213 226.408,354.836 224.974,416.455 
				220.24,416.455 218.814,354.836 218.499,341.213 			"/>
			<polygon style="opacity:0.2;enable-background:new    ;" points="226.723,341.213 226.408,355.212 218.814,355.212 
				218.499,341.213 			"/>
			<g>
				<g>
					<polygon style="fill:#407BFF;" points="252.427,416.236 248.054,342.176 240.906,342.176 247.028,416.236 					"/>
					<polygon style="opacity:0.5;fill:#FFFFFF;enable-background:new    ;" points="247.015,416.236 252.419,416.236 
						248.451,348.825 248.057,342.088 240.909,342.088 241.461,348.825 					"/>
					<polygon style="opacity:0.2;enable-background:new    ;" points="240.909,342.088 241.46,349.087 248.451,349.087 
						248.057,342.088 					"/>
				</g>
				<g>
					<polygon style="fill:#407BFF;" points="198.191,416.236 204.312,342.176 197.164,342.176 192.792,416.236 					"/>
					<polygon style="opacity:0.5;fill:#FFFFFF;enable-background:new    ;" points="198.204,416.236 203.758,348.825 
						204.309,342.088 197.161,342.088 196.768,348.825 192.8,416.236 					"/>
					<polygon style="opacity:0.2;enable-background:new    ;" points="204.31,342.088 203.758,349.087 196.768,349.087 
						197.161,342.088 					"/>
				</g>
			</g>
			<path style="fill:#407BFF;" d="M246.884,334.506h-48.549c-2.761,0-5,2.239-5,5v5.227h58.549v-5.227
				C251.884,336.744,249.645,334.506,246.884,334.506z"/>
			<g>
				<path style="fill:#407BFF;" d="M252.678,339.619h-60.137c-1.111,0-2.011,0.901-2.011,2.011v1.091c0,1.111,0.9,2.011,2.011,2.011
					h60.137c1.111,0,2.011-0.9,2.011-2.011v-1.091C254.689,340.52,253.788,339.619,252.678,339.619z"/>
				<path style="opacity:0.6;fill:#FFFFFF;enable-background:new    ;" d="M252.678,339.619h-60.137
					c-1.111,0-2.011,0.901-2.011,2.011v1.091c0,1.111,0.9,2.011,2.011,2.011h60.137c1.111,0,2.011-0.9,2.011-2.011v-1.091
					C254.689,340.52,253.788,339.619,252.678,339.619z"/>
			</g>
		</g>
		<path style="fill:#263238;" d="M200.539,293.411l46.87,3.237l0.28,16.097c0.948,0.34,1.893,0.651,2.833,0.944v20.326
			c-9.902-0.671-37.427,5.008-44.569-4.185C196.748,317.981,198.978,299.407,200.539,293.411z"/>
		<path style="fill:#263238;" d="M277.275,396.49l-12.354-3.631c0,0,7.375-41.628,14.856-56.063c-0.56-0.184-1.304-0.42-2.222-0.691
			c-1.654-0.499-3.85-1.12-6.431-1.837c-17.953-4.978-54.34-14.313-54.34-14.313l16.623-15.512c0,0,66.212,10.096,67.586,27.542
			C301.65,340.374,277.275,396.49,277.275,396.49z"/>
		<polygon style="fill:#407BFF;" points="263.327,393.133 278.202,397.339 280.87,391.153 264.459,386.853 		"/>
		<path style="opacity:0.2;enable-background:new    ;" d="M277.555,336.105c-1.654-0.499-3.85-1.12-6.431-1.837
			c0.516-4.235,0.525-9.09-1.514-11.566c-4.051-4.934-14.471-7.83-20.402-8.88c-4.961-0.875-21.628-2.616-21.628-2.616
			s21.628-2.073,43.736,4.375C282.244,318.773,280.118,329.456,277.555,336.105z"/>
		<polygon style="opacity:0.2;fill:#FFFFFF;" points="263.327,393.133 278.202,397.339 280.87,391.153 264.459,386.853 		"/>
		<g>
			<path style="fill:#407BFF;" d="M200.539,293.411c0,0,2.603-39.451,22.626-58.436c0,0,27.108,4.097,38.613,7.241
				c11.505,3.144-1.787,57.906-1.787,57.906L200.539,293.411z"/>
			<path style="opacity:0.7;fill:#FFFFFF;" d="M259.992,300.123l-59.45-6.71c0,0,0.21-3.12,0.95-8.02
				c0.62-4.14,1.63-9.57,3.21-15.46c3.22-11.94,8.82-25.82,18.46-34.96c0,0,27.114,4.094,38.614,7.244
				C273.286,245.357,259.992,300.123,259.992,300.123z"/>
		</g>
		<g>
			<path style="fill:#B55B52;" d="M234.922,236.252l11.087,6.967l6.611-2.714c0,0-0.616-1.09-0.308-2.677
				c0.205-1.187,0.883-2.665,2.71-4.18l-8.13-8.881l-2.854-3.126C242.396,227.092,240.363,232.375,234.922,236.252z"/>
			<path style="opacity:0.2;enable-background:new    ;" d="M252.313,237.827c0.205-1.187,0.883-2.665,2.71-4.18l-8.13-8.881
				C246.892,224.766,243.278,233.356,252.313,237.827z"/>
		</g>
		<g>
			<path style="fill:#263238;" d="M261.244,210.983c0,0,2.747,1.686,3.086,3.925c0.338,2.239-0.745,9.697-2.989,9.762
				c-2.244,0.066-7.203-3.904-6.641-6.439C255.263,215.697,261.244,210.983,261.244,210.983z"/>
			<path style="fill:#B55B52;" d="M244.681,215.443c-1.238,6.523-1.931,10.987,1.303,14.875c6.426,7.724,12.023,5.651,15.3-0.263
				c2.95-5.323,4.48-15.096-1.523-19.59C253.846,206.037,245.919,208.92,244.681,215.443z"/>
			<path style="opacity:0.2;" d="M254.364,219.353c0,0-1.134-1.002-2.378-0.793C253.19,219.249,254.364,219.353,254.364,219.353z"/>
			<path style="opacity:0.2;" d="M254.137,219.907c0,0-1.202-0.679-2.267-0.158C253.074,220.107,254.137,219.907,254.137,219.907z"
				/>
			<path style="opacity:0.2;" d="M262.375,215.757c0,0-3.112-1.576-5.884-2.199C259.725,214.903,262.375,215.757,262.375,215.757z"
				/>
			<path style="opacity:0.2;" d="M262.982,216.697c0,0-4.512-1.645-6.948-1.699C260.103,216.243,262.982,216.697,262.982,216.697z"
				/>
			<path style="fill:#263238;" d="M256.242,220.199c-0.157,0.558,0.013,1.091,0.379,1.19s0.79-0.273,0.947-0.831
				c0.157-0.558-0.013-1.091-0.379-1.19C256.823,219.268,256.399,219.64,256.242,220.199z"/>
			<path style="fill:#263238;" d="M261.97,221.963c-0.157,0.558,0.013,1.091,0.38,1.19c0.366,0.099,0.79-0.273,0.947-0.831
				s-0.013-1.091-0.379-1.19C262.551,221.033,262.127,221.405,261.97,221.963z"/>
			<path style="fill:#263238;" d="M253.719,217.773c-0.052-0.022-0.1-0.057-0.136-0.105c-0.114-0.148-0.085-0.362,0.065-0.477
				c1.504-1.148,2.995-0.649,3.058-0.627c0.178,0.062,0.27,0.255,0.207,0.433c-0.063,0.177-0.258,0.27-0.435,0.209l0,0
				c-0.049-0.016-1.216-0.394-2.416,0.523C253.959,217.807,253.828,217.819,253.719,217.773z"/>
			<path style="fill:#263238;" d="M264.624,221.066c-0.106-0.031-0.194-0.113-0.229-0.226c-0.435-1.433-1.608-1.794-1.657-1.808
				c-0.18-0.053-0.283-0.241-0.229-0.421c0.054-0.179,0.242-0.283,0.422-0.232c0.065,0.02,1.573,0.466,2.118,2.26
				c0.054,0.179-0.048,0.369-0.229,0.425C264.755,221.086,264.686,221.085,264.624,221.066z"/>
			<g>
				<path style="fill:#263238;" d="M260.267,229.357c0,0-2.135-1.27-8.61-3.348c0.135,2.19,1.04,4.232,4.366,5.265
					C259.349,232.307,260.267,229.357,260.267,229.357z"/>
				<path style="fill:#A02724;" d="M254.976,229.251c1.605,0.498,2.644,1.234,3.31,2.1c-0.581,0.191-1.33,0.21-2.26-0.079
					c-1.605-0.498-2.64-1.223-3.302-2.097C253.305,228.984,254.047,228.962,254.976,229.251z"/>
				<path style="fill:#FFFFFF;" d="M259.991,229.207c-0.317,0.356-0.632,0.713-1.324,0.64c-1.379-0.341-4.708-1.833-5.574-2.324
					c-0.563-0.288-1.004-0.653-1.156-1.424C256.919,227.711,259.249,228.822,259.991,229.207z"/>
			</g>
			<path style="fill:#263238;" d="M260.199,207.771c-1.697-1.554-11.005-3.152-14.863-0.065c-6.449,5.161-4.367,12.538-4.367,12.538
				s2.476,1.942,5.096,3.385c2.62,1.443,5.589-6.359,4.649-8.926c0,0-0.103-0.159-0.291-0.403c-0.726-1.061-1.811-3.017-1.527-3.685
				c0.325-0.766,4.305-2.231,6.103-1.424c1.798,0.807,3.657,2.44,4.828,2.859c1.171,0.418,1.948,0.476,1.948,0.476
				S261.895,209.325,260.199,207.771z"/>
			<path style="fill:#B55B52;" d="M240.186,221.583c0.53,1.841,1.867,3.262,3.266,3.996c2.104,1.104,3.671-0.654,3.518-2.895
				c-0.138-2.017-1.398-5.023-3.717-5.2C240.968,217.308,239.581,219.477,240.186,221.583z"/>
			<path style="fill:#263238;" d="M249.496,221.143c0,0-0.918,2.97-0.68,3.846c0.238,0.876,2.878-0.744,3.864-1.055
				c0.986-0.311,5.116,2.735,5.116,2.735s-0.212,0.537-0.285,0.579c-0.074,0.041-4.749-1.482-5.23-1.845
				c-0.482-0.363-3.203,1.37-2.035,4.127c1.168,2.758,2.935,3.642,3.812,3.669c0.877,0.027,0.978-1.41,0.978-1.41l1.437,0.443
				c0,0-0.544,1.186-0.021,1.796c0.523,0.61,3.061-1.762,4.021-3.292c0.96-1.53,0.355-2.466-1.969-2.921l0.251-0.939
				c0,0,3.176,0.167,3.375,0.496c0.504,0.832-0.365,3.85-1.465,5.436c-1.1,1.586-3.806,4.502-7.653,3.083
				c-3.846-1.418-6.608-3.874-7.806-6.635c-1.198-2.761,1.867-5.553,1.867-5.553L249.496,221.143z"/>
			<path style="fill:#A02724;" d="M259.927,221.868l-1.354,4.681c0,0,0.747,0.411,1.625,0.535c0.505,0.071,0.876-0.487,0.63-0.934
				C259.967,224.589,259.927,221.868,259.927,221.868z"/>
		</g>
		<path style="fill:#407BFF;" d="M232.77,236.432l4.748-4.002c0,0,7.516,5.345,8.044,5.398c0.527,0.052,0.617,3.481,0.617,3.481
			l1.889-2.901l4.937-0.58l0.596,2.77l-8.628,5.722L232.77,236.432z"/>
		<path style="opacity:0.7;fill:#FFFFFF;" d="M232.77,236.432l4.748-4.002c0,0,7.516,5.345,8.044,5.398
			c0.527,0.052,0.617,3.481,0.617,3.481l1.889-2.901l4.937-0.58l0.596,2.77l-8.628,5.722L232.77,236.432z"/>
		<polygon style="fill:#263238;" points="240.044,246.319 240.648,239.85 246.178,243.946 251.213,242.18 250.522,247.902 
			246.178,245.519 		"/>
		<path style="opacity:0.1;enable-background:new    ;" d="M246.754,264.301c0,0-29.242,21.912-45.262,21.092
			c0.62-4.14,1.63-9.57,3.21-15.46c9.09-7.6,18.332-15.008,18.332-15.008l-3.957,5.098l22.137-2.309L246.754,264.301z"/>
		<g>
			<path style="fill:#263238;" d="M306.794,369.642l19.985,42.556c0,0,4.491,2.159,0.596,3.653
				c-3.895,1.495-2.855-1.854-2.855-1.854L300.1,373.687L306.794,369.642z"/>
			<path style="fill:#407BFF;" d="M263.662,264.659c-17.391-3.215-25.163,7.199-25.163,7.199s-11.772,10.554-4.744,26.526
				c5.321,12.095,9.465,16.56,9.401,20.794c-0.063,4.234,8.467-0.395,10.794,3.501c2.327,3.896,4.798,17.464,0.081,21.719
				c-4.718,4.256-0.076,3.54,2.522,5.627c2.598,2.087,4.15,20.616,11.582,26.625c10.374,8.387,23.476,13.077,39.853-2.576
				c16.378-15.654-22.815-47.053-22.815-47.053L263.662,264.659z"/>
			<path style="fill:#407BFF;" d="M301.742,311.259c-0.027-0.773-0.78-1.537-1.109-1.118c-1.936,2.469-6.663,6.138-14.351-2.258
				c-1.058-1.209-1.908-2.349-2.589-3.422c-4.273-7.125-0.29-12.283,1.882-14.356c0.366-0.349-0.033-1.448-0.598-1.652l-0.071-0.026
				c-1.789-0.644-3.571-2.779-4.654-5.367c-5.66-13.523-20.126-25.719-31.125-16.634c-10.733,9.553-6.381,30.421,2.016,41.598
				c1.607,2.139,2.627,4.927,2.504,7.211l-0.005,0.091c-0.039,0.722,0.665,1.559,1.058,1.258c2.333-1.791,7.648-4.608,11.628,2.769
				c0.586,1.154,1.166,2.527,1.727,4.162c3.778,11.749-0.655,15.936-3.21,17.318c-0.434,0.235-0.109,1.365,0.474,1.662
				c2.093,1.069,4.096,3.65,5.22,6.658c5.512,14.749,18.641,40.477,38.845,23.15c20.204-17.327,5.041-41.309-4.344-52.737
				C303.125,317.236,301.84,314.039,301.742,311.259z"/>
			<path style="opacity:0.2;fill:#FFFFFF;enable-background:new    ;" d="M301.742,311.259c-0.027-0.773-0.78-1.537-1.109-1.118
				c-1.936,2.469-6.663,6.138-14.351-2.258c-1.058-1.209-1.908-2.349-2.589-3.422c-4.273-7.125-0.29-12.283,1.882-14.356
				c0.366-0.349-0.033-1.448-0.598-1.652l-0.071-0.026c-1.789-0.644-3.571-2.779-4.654-5.367
				c-5.66-13.523-20.126-25.719-31.125-16.634c-10.733,9.553-6.381,30.421,2.016,41.598c1.607,2.139,2.627,4.927,2.504,7.211
				l-0.005,0.091c-0.039,0.722,0.665,1.559,1.058,1.258c2.333-1.791,7.648-4.608,11.628,2.769c0.586,1.154,1.166,2.527,1.727,4.162
				c3.778,11.749-0.655,15.936-3.21,17.318c-0.434,0.235-0.109,1.365,0.474,1.662c2.093,1.069,4.096,3.65,5.22,6.658
				c5.512,14.749,18.641,40.477,38.845,23.15c20.204-17.327,5.041-41.309-4.344-52.737
				C303.125,317.236,301.84,314.039,301.742,311.259z"/>
			<polygon style="fill:#263238;" points="219.312,218.544 261.772,294.411 266.186,290.638 222.931,215.89 			"/>
			<polygon style="fill:#263238;" points="301.771,353.17 312.452,373.67 309.375,376.309 297.368,356.946 			"/>
			<path style="fill:#263238;" d="M285.408,355.15c0.049-0.338,0.333-0.372,0.627-0.083c0.441,0.434,0.794,0.45,0.899,0.042
				c0.232-0.909-0.697-4.314-5.873-10.695c-4.827-5.95-7.85-11.991-7.7-15.388c0.088-2.019,1.333-2.653,3.416-1.739
				c0.928,0.484,1.87,1.757,1.539,2.703c-0.331,0.946-1.05,0.214-1.619-0.623c-0.41-0.603-0.991-0.861-1.395-0.825
				c-0.523,0.148-0.823,0.604-0.857,1.382c-0.101,2.296,2.023,7.357,6.995,13.486c5.515,6.799,6.971,11.174,6.542,12.855
				c-0.068,0.263-0.179,0.458-0.324,0.583c-0.404,0.346-1.073,0.158-1.809-0.566C285.552,355.992,285.355,355.485,285.408,355.15z"
				/>
			<path style="fill:#263238;" d="M304.512,338.767c-0.276-0.06-0.399,0.255-0.279,0.695c0.18,0.658,0.071,1.07-0.278,1.051
				c-0.775-0.045-3.06-2.287-6.16-10.448c-2.891-7.611-6.472-13.173-9.121-14.169c-1.575-0.593-2.489,0.624-2.506,3.338
				c0.051,1.236,0.701,2.76,1.539,2.703c0.838-0.056,0.525-1.137,0.08-2.08c-0.32-0.679-0.318-1.439-0.151-1.892
				c0.293-0.552,0.746-0.741,1.352-0.513c1.791,0.673,4.932,4.863,7.91,12.702c3.303,8.695,6.149,11.878,7.583,11.963
				c0.225,0.012,0.412-0.048,0.558-0.173c0.404-0.346,0.49-1.182,0.189-2.28C305.106,339.222,304.786,338.821,304.512,338.767z"/>
			<polygon style="opacity:0.3;fill:#FFFFFF;enable-background:new    ;" points="301.771,353.17 312.452,373.67 309.375,376.309 
				297.368,356.946 			"/>
			<path style="fill:#263238;" d="M247.228,268.424l-7.025,1.661c0,0,5.133-2.069-0.697-11.671
				c-5.83-9.602-22.479-41.233-22.479-41.233l3.538-1.328l28.562,50.574L247.228,268.424z"/>
			<polygon style="opacity:0.3;fill:#FFFFFF;enable-background:new    ;" points="219.312,218.544 261.772,294.411 266.186,290.638 
				222.931,215.89 			"/>
			<g>
				<path style="fill:#263238;" d="M214.565,208.021l4.882-2.347c0,0,0.562-2.019,1.938-2.168c1.376-0.149,3.167,4.781,1.417,4.753
					c-1.75-0.027-2.777-1.385-2.777-1.385l-4.882,2.347C215.142,209.221,214.483,208.784,214.565,208.021z"/>
				<path style="fill:#263238;" d="M218.353,212.282l4.882-2.347c0,0,0.562-2.019,1.938-2.168c1.376-0.149,3.167,4.781,1.417,4.753
					c-1.75-0.027-2.777-1.385-2.777-1.385l-4.882,2.347C218.93,213.483,218.271,213.046,218.353,212.282z"/>
				<path style="fill:#407BFF;" d="M208.415,208.355c4.717,2.925,7.053,7.613,8.083,10.413c0.405,1.113,1.72,1.568,2.734,0.955
					c0.026-0.006,0.049-0.024,0.072-0.043l3.524-2.35c1.002-0.665,1.245-2.027,0.547-2.996c-2.012-2.841-5.258-6.696-6.561-8.207
					c-0.346-0.41-0.547-0.65-0.547-0.65c0.895-0.601,1.56-1.637,1.936-2.881c1.204-3.882-0.388-9.678-5.905-9.592
					c-2.92,0.044-5.274,1.815-6.559,4.216C203.791,200.792,204.184,205.742,208.415,208.355z"/>
				<path style="opacity:0.2;fill:#FFFFFF;enable-background:new    ;" d="M211.143,207.367c1.305,0.903,3.447,3.116,5.04,5.954
					c1.724,3.066,3.08,4.937,3.049,6.402c0.026-0.006,0.049-0.024,0.072-0.043l3.524-2.35c1.002-0.665,1.245-2.027,0.547-2.996
					c-2.012-2.841-5.258-6.696-6.561-8.207C214.798,207.284,212.087,207.607,211.143,207.367z"/>
				<path style="opacity:0.2;fill:#FFFFFF;enable-background:new    ;" d="M205.737,197.22c1.256-0.369,2.913-0.326,4.477,1.33
					c3.078,3.27,1.153,5.892,1.153,5.892c2.315,0.088,4.758-0.784,6.834-1.845c1.204-3.882-0.388-9.678-5.905-9.592
					C209.376,193.049,207.022,194.819,205.737,197.22z"/>
				<path style="fill:#263238;" d="M211.79,208.635l-4.951,2.196c0,0-1.902-0.881-2.907,0.07c-1.005,0.951,1.587,5.51,2.701,4.16
					c1.114-1.35,0.746-3.012,0.746-3.012l4.952-2.196C212.33,209.853,212.424,209.067,211.79,208.635z"/>
				<path style="fill:#263238;" d="M215.751,212.898l-4.952,2.196c0,0-1.902-0.881-2.907,0.07c-1.005,0.951,1.587,5.51,2.701,4.16
					c1.114-1.35,0.746-3.012,0.746-3.012l4.952-2.196C216.291,214.116,216.386,213.33,215.751,212.898z"/>
			</g>
			
				<polyline style="fill:none;stroke:#FFFFFF;stroke-width:0.5;stroke-linecap:round;stroke-linejoin:round;stroke-miterlimit:10;" points="
				213.094,208.35 217.257,210.896 292.34,341.026 299.139,355.427 			"/>
			
				<polyline style="fill:none;stroke:#FFFFFF;stroke-width:0.5;stroke-linecap:round;stroke-linejoin:round;stroke-miterlimit:10;" points="
				217.167,206.967 218.209,210.465 293.668,340.023 300.186,354.529 			"/>
			
				<polyline style="fill:none;stroke:#FFFFFF;stroke-width:0.5;stroke-linecap:round;stroke-linejoin:round;stroke-miterlimit:10;" points="
				301.27,353.773 294.911,338.926 222.36,216.014 220.205,211.392 			"/>
			
				<polyline style="fill:none;stroke:#FFFFFF;stroke-width:0.5;stroke-linecap:round;stroke-linejoin:round;stroke-miterlimit:10;" points="
				298.16,356.267 291.247,341.933 219.769,216.581 216.183,213.321 			"/>
		</g>
		<g>
			<g>
				<polygon style="fill:#B55B52;" points="246.52,410.224 254.238,409.217 255.344,392.614 243.732,393.159 				"/>
				<polygon style="opacity:0.2;enable-background:new    ;" points="243.732,393.159 255.346,392.627 254.608,403.66 
					245.535,404.256 				"/>
			</g>
			<path style="fill:#263238;" d="M225.362,311.95c0,0-22.601,9.973-19.409,15.878c5.699,10.543,15.176,4.778,27.107,7.433
				c2.943,0.655,8.678,62.358,8.678,62.358l14.61-0.831c0,0,3.984-62.571,1.165-71.217
				C254.773,317.17,248.451,311.95,225.362,311.95z"/>
			<polygon style="fill:#407BFF;" points="241.211,400.178 256.669,400.082 257.512,393.399 240.552,393.831 			"/>
			<polygon style="opacity:0.2;fill:#FFFFFF;" points="241.211,400.178 256.669,400.082 257.512,393.399 240.552,393.831 			"/>
			<g>
				<path style="fill:#407BFF;" d="M254.346,409.199c0,0.007,0.146,0.011,0.147,0.018c0.008,0.026,0.157,0.049,0.177,0.067
					c0.012,0.015,0.013,0.038,0.03,0.049c0.02,0.006,0.04,0.002,0.06-0.005c0.596,0.186,1.209,0.309,1.832,0.363
					c0.463,0.083,0.94-0.011,1.337-0.263c0.253-0.225,0.351-0.575,0.255-0.9c-0.024-0.212-0.161-0.396-0.353-0.488
					c-0.451-0.207-1.261,0.053-1.947,0.359c0.433-0.538,0.754-1.171,0.692-1.606c-0.044-0.285-0.31-0.505-0.597-0.532
					c-0.253-0.047-0.582,0.02-0.781,0.183c-0.732,0.633-0.851,2.62-0.851,2.742c0,0.002,0,0.003,0,0.005c0,0.001,0,0.002,0,0.002
					C254.346,409.193,254.346,409.199,254.346,409.199z M255.1,408.793c-0.053,0.029-0.099,0.055-0.144,0.08
					c0.027-0.666,0.152-1.777,0.593-2.15c0.096-0.091,0.226-0.137,0.358-0.127l0.08,0.011c0.232,0.042,0.286,0.16,0.294,0.256
					C256.322,407.338,255.697,408.277,255.1,408.793z M255.202,409.141c0.847-0.467,2.05-0.982,2.498-0.774
					c0.095,0.044,0.159,0.136,0.17,0.24c0.054,0.205-0.004,0.423-0.153,0.575C257.364,409.484,256.441,409.466,255.202,409.141z"/>
			</g>
			<path style="fill:#263238;" d="M254.177,408.341l-7.874-0.491c-0.274-0.03-0.52,0.168-0.549,0.442c0,0.003,0,0.006-0.001,0.008
				l-0.773,6.212c-0.042,0.679,0.469,1.266,1.148,1.316c2.75,0.127,4.07,0.05,7.536,0.239c2.127,0.127,6.318,0.579,9.253,0.295
				c2.935-0.284,2.575-3.177,1.308-3.316c-3.006-0.342-6.986-2.551-8.867-4.226C255.029,408.534,254.613,408.365,254.177,408.341z"
				/>
		</g>
		<g>
			<path style="fill:#E4897B;" d="M230.756,261.253l9.653-5.642l3.498,9.138c0,0-6.196,4.895-11.796,1.587L230.756,261.253z"/>
			<polygon style="fill:#E4897B;" points="248.352,255.297 249.332,262.736 243.907,264.748 240.409,255.611 			"/>
		</g>
		<g>
			<path style="fill:#E4897B;" d="M276.279,284.964l-10.265,4.432l5.288,8.232c0,0,7.614-2.091,8.268-8.561L276.279,284.964z"/>
			<polygon style="fill:#E4897B;" points="261.055,295.608 266.466,300.806 271.302,297.628 266.013,289.396 			"/>
		</g>
		<g>
			<path style="fill:#407BFF;" d="M223.195,234.88c-16.898,3.75-33.043,27.484-29.966,35.673c7.17,19.077,41.693-1.641,41.693-1.641
				l-1.565-9.826l-18.444,2.213l8.121-6.374L223.195,234.88z"/>
			<path style="opacity:0.7;fill:#FFFFFF;" d="M223.195,234.88c-16.898,3.75-33.043,27.484-29.966,35.673
				c7.17,19.077,41.693-1.641,41.693-1.641l-1.565-9.826l-18.444,2.213l8.121-6.374L223.195,234.88z"/>
		</g>
		<g>
			<path style="fill:#407BFF;" d="M294.878,262.539l-11.351,6.385l-10.238,16.396l5.848,8.15c0,0,19.621-13.867,18.237-24.493
				C297.102,266.895,296.25,264.72,294.878,262.539z"/>
			<path style="opacity:0.7;fill:#FFFFFF;" d="M294.878,262.539l-11.351,6.385l-10.238,16.396l5.848,8.15
				c0,0,19.621-13.867,18.237-24.493C297.102,266.895,296.25,264.72,294.878,262.539z"/>
		</g>
	</g>
</g>
<g id="Character_1">
	<g>
		<g>
			<path style="fill:#DC897C;" d="M145.001,218.069c1.96,0.897,3.73,1.818,5.555,2.801c1.811,0.972,3.6,1.995,5.361,3.093
				c1.768,1.088,3.507,2.252,5.223,3.513c1.719,1.262,3.406,2.619,5.047,4.231c0.82,0.812,1.631,1.674,2.412,2.701
				c0.776,1.028,1.543,2.189,2.12,3.796c0.28,0.802,0.502,1.732,0.533,2.785c0.028,1.062-0.144,2.175-0.611,3.265
				c-0.493,1.202-1.599,2.441-2.759,3.051c-1.166,0.637-2.217,0.806-3.088,0.869c-1.746,0.093-3.003-0.235-4.184-0.585
				c-1.167-0.354-2.208-0.81-3.201-1.298c-1.989-0.994-3.722-2.127-5.448-3.494l2.22-4.124c1.794,0.467,3.699,0.952,5.452,1.285
				c0.88,0.17,1.744,0.288,2.518,0.349c0.758,0.049,1.495,0,1.729-0.122c0.111-0.053,0.046-0.13-0.266-0.008
				c-0.304,0.106-0.724,0.557-0.855,0.832c-0.184,0.318-0.083,0.528-0.219,0.238c-0.118-0.258-0.467-0.772-0.918-1.298
				c-0.449-0.533-1.027-1.097-1.647-1.65c-2.541-2.226-5.737-4.3-8.976-6.228c-1.634-0.96-3.296-1.904-4.977-2.82
				c-1.669-0.903-3.427-1.807-5.048-2.625L145.001,218.069z"/>
		</g>
		<path style="fill:#407BFF;" d="M136.389,225.119c1.885,5.897,20.879,12.85,20.879,12.85l5.008-11.079c0,0-6.365-5.932-13.57-9.429
			C141.118,213.779,134.293,218.563,136.389,225.119z"/>
		<path style="opacity:0.7;fill:#FFFFFF;" d="M136.389,225.119c1.885,5.897,20.879,12.85,20.879,12.85l5.008-11.079
			c0,0-6.365-5.932-13.57-9.429C141.118,213.779,134.293,218.563,136.389,225.119z"/>
		<path style="opacity:0.1;" d="M136.677,225.821c1.298-2.493,4.173-3.411,9.342-1.325c5.11,2.069,11.841,7.064,13.381,8.759
			l-2.133,4.715C157.267,237.97,139.615,231.584,136.677,225.821z"/>
		<path d="M126.332,408.438l-8.405,0.133c-0.283,0.006-0.525,0.207-0.582,0.485l-1.267,6.183c-0.108,0.554,0.253,1.09,0.807,1.198
			c0.074,0.014,0.149,0.021,0.225,0.019c2.719-0.087,4.696-0.286,8.112-0.34c2.104-0.033,8.453,0.086,11.357,0.04
			c2.905-0.046,3.238-2.921,2.045-3.167c-5.352-1.077-9.391-2.624-11.123-4.129C127.179,408.574,126.761,408.423,126.332,408.438z"
			/>
		<path d="M197.204,408.438l-8.405,0.133c-0.283,0.006-0.525,0.207-0.582,0.485l-1.267,6.183c-0.108,0.554,0.253,1.09,0.807,1.198
			c0.074,0.014,0.149,0.021,0.225,0.019c2.719-0.087,4.697-0.286,8.112-0.34c2.104-0.033,8.453,0.086,11.357,0.04
			c2.905-0.046,3.237-2.921,2.045-3.167c-5.352-1.077-9.391-2.624-11.123-4.129C198.052,408.574,197.633,408.423,197.204,408.438z"
			/>
		<path style="fill:#263238;" d="M116.048,408.864h11.451c0,0,14.58-48.058,15.836-60.318c1.255-12.259,1.712-42.979,1.712-42.979
			s0,0.009,0.009,0.019c0.01,0.009,0.019,0.029,0.038,0.057c0.495,0.656,4.822,6.743,9.796,13.81
			c6.515,9.254,14.152,20.191,15.759,22.873c4.727,7.894,16.282,66.538,16.282,66.538h11.442c0,0-2.882-52.49-8.759-69.79
			c-5.868-17.3-31.3-55.077-32.403-57.112c-1.408-2.587-4.869-10.804-4.869-10.804l-34.306,4.765c0,0-0.561,5.811-0.523,10.89
			c0.162,19.06,3.757,44.824,4.337,51.748C122.934,351.733,116.048,408.864,116.048,408.864z"/>
		<path style="fill:#407BFF;" d="M144.246,215.769c0,0,10.264,18.315,8.091,55.384c-10.336,1.438-29.275,4.072-34.305,4.772
			c-0.969-5.233-1.233-31.382-9.764-55.488c0,0,5.716-1.998,11.282-3.048c4.354-0.821,10.681-1.844,14.583-2.028
			C139.278,215.118,144.246,215.769,144.246,215.769z"/>
		<path style="opacity:0.7;fill:#FFFFFF;" d="M152.346,271.153c-1.16,0.16-2.43,0.34-3.77,0.52c-0.65,0.1-1.32,0.19-2,0.28
			c-5.19,0.72-11.22,1.56-16.48,2.3c-0.67,0.09-1.33,0.18-1.98,0.26c-4.5,0.63-8.23,1.15-10.08,1.41c-0.61-3.27-0.94-14.75-3.2-28.8
			c-0.59-3.75-1.34-7.68-2.26-11.69c-1.14-4.94-2.55-10.01-4.31-15c0,0,2.96-1.03,6.69-2c0.68-0.18,1.39-0.36,2.12-0.52
			c0.81-0.19,1.64-0.37,2.47-0.52c4.36-0.83,10.68-1.85,14.59-2.04c1.18-0.05,2.35-0.06,3.46-0.04c0.86,0.02,1.68,0.05,2.43,0.09
			c2.48,0.14,4.22,0.36,4.22,0.36S154.506,234.083,152.346,271.153z"/>
		<polygon style="opacity:0.1;" points="133.111,223.723 134.005,217.243 138.144,219.187 135.447,218.309 		"/>
		<polygon style="opacity:0.1;" points="133.111,223.723 126.279,218.695 124.098,222.78 125.738,220.692 		"/>
		<path style="opacity:0.1;" d="M114.84,247.123c-0.599-3.747-1.341-7.685-2.263-11.689c1.274-1.417,2.777-2.397,4.413-2.577
			C116.99,232.857,117.931,241.93,114.84,247.123z"/>
		<path style="opacity:0.2;" d="M145.047,305.567c0,0,0,0.009,0.009,0.019c0.01,0.009,0.019,0.029,0.038,0.057
			c0.495,0.656,4.822,6.743,9.796,13.81c1.607-13.62-9.644-19.45-9.644-19.45L145.047,305.567z"/>
		<g>
			<path style="fill:#263238;" d="M130.166,275.243l-1.99,0.12c-0.02-0.28-0.04-0.57-0.06-0.85c-2.65-40.25-11.2-53.53-13.16-56.08
				c0.68-0.18,1.39-0.36,2.12-0.52c2.88,4.11,10.51,18.33,13.02,56.34C130.126,274.583,130.146,274.913,130.166,275.243z"/>
		</g>
		<g>
			<path style="fill:#263238;" d="M148.576,271.673c0,0.5,0,1-0.01,1.51l-2-0.03c0-0.4,0.01-0.8,0.01-1.2
				c0.32-40.49-7.33-54.18-8.98-56.64c0.86,0.02,1.68,0.05,2.43,0.09C142.706,220.123,148.846,234.973,148.576,271.673z"/>
		</g>
		<polygon points="117.952,276.875 152.643,271.867 154.123,275.301 117.686,280.702 		"/>
		<g>
			<g>
				<path style="fill:#DC897C;" d="M113.559,228.037c-0.375,4.328-0.725,8.791-0.968,13.139c-0.117,2.179-0.197,4.349-0.212,6.464
					c0.003,2.078,0.071,4.251,0.351,5.811l0.054,0.249c0.01,0.058,0.056,0.245,0.012,0.111c-0.064-0.12-0.142-0.266-0.239-0.359
					c-0.181-0.203-0.312-0.206-0.21-0.135c0.173,0.165,0.929,0.418,1.762,0.528c1.715,0.237,3.826,0.223,5.915,0.063
					c4.213-0.304,8.649-0.985,12.952-1.74l1.422,4.462c-4.315,1.87-8.654,3.36-13.359,4.373c-2.367,0.46-4.772,0.885-7.558,0.79
					c-1.403-0.074-2.914-0.191-4.782-1.001c-0.915-0.41-1.977-1.1-2.853-2.192c-0.427-0.547-0.804-1.179-1.048-1.834
					c-0.154-0.393-0.168-0.483-0.238-0.695l-0.172-0.565c-0.745-2.836-0.907-5.193-1.059-7.611c-0.139-2.39-0.149-4.728-0.111-7.052
					c0.089-4.658,0.401-9.189,0.941-13.826L113.559,228.037z"/>
			</g>
			<path style="fill:#407BFF;" d="M107.579,220.958c-8.807,4.713-6.158,26.537-6.158,26.537l12.569-0.306
				c0,0,3.148-9.453,4.202-17.385C119.296,221.494,113.434,217.826,107.579,220.958z"/>
			<path style="opacity:0.7;fill:#FFFFFF;" d="M107.579,220.958c-8.807,4.713-6.158,26.537-6.158,26.537l12.569-0.306
				c0,0,3.148-9.453,4.202-17.385C119.296,221.494,113.434,217.826,107.579,220.958z"/>
		</g>
		
			<rect x="137.248" y="273.475" transform="matrix(0.9896 -0.1441 0.1441 0.9896 -38.2149 23.0561)" style="fill:#FFFFFF;" width="5.572" height="3.652"/>
		<g>
			<path style="fill:#E4897B;" d="M123.204,199.185c0.7,4.776,1.208,13.491-2.255,16.489c4.441,2.145,7.65,3.602,11.329,7.243
				c1.507-2.841,3.377-6.534,3.377-6.534c-5.216-1.514-4.891-5.422-3.795-9.055L123.204,199.185z"/>
			<path style="opacity:0.2;" d="M126.733,202.508l5.124,4.816c-0.262,0.859-0.476,1.734-0.579,2.588
				c-2.002-0.388-4.664-2.734-4.777-4.855C126.445,203.999,126.538,202.99,126.733,202.508z"/>
			<polygon style="fill:#407BFF;" points="115.265,218.353 118.112,214.797 127.346,216.575 132.033,221.946 132.623,215.746 
				134.356,213.668 138.144,215.307 138.144,219.187 135.447,218.309 133.111,223.723 125.738,220.692 124.098,222.78 			"/>
			<polygon style="opacity:0.6;fill:#FFFFFF;" points="115.265,218.353 118.112,214.797 127.346,216.575 132.033,221.946 
				132.623,215.746 134.356,213.668 138.144,215.307 138.144,219.187 135.447,218.309 133.111,223.723 125.738,220.692 
				124.098,222.78 			"/>
		</g>
		<g>
			<path style="fill:#263238;" d="M140.662,185.774c2.738,2.25,2.107,11.503-2.372,12.321
				C133.811,198.913,135.475,181.512,140.662,185.774z"/>
			<path style="fill:#E4897B;" d="M123.871,191.44c-0.321,6.512-0.837,10.296,2.04,14.083c4.327,5.696,12.581,3.897,14.827-2.322
				c2.022-5.598,2.206-15.307-3.796-18.793C131.03,180.972,124.192,184.928,123.871,191.44z"/>
			<path style="fill:#263238;" d="M131.725,185.469l1.051-5.489c-1.613,0.24-3.21,0.1-4.511-0.585
				c-5.983-3.151-11.926-0.328-9.89,4.015c-3.345,0.523-2.752,5.076-1.421,8.227c1.849,4.378,4.381,6.874,6.867,5.755
				c2.074-0.424,4.026-6.713,4.029-9.231C127.853,184.366,131.725,185.469,131.725,185.469z"/>
			<path style="fill:#E4897B;" d="M120.723,197.477c0.743,1.618,2.048,2.806,3.278,3.374c1.851,0.854,2.772-0.825,2.254-2.827
				c-0.466-1.802-1.991-4.417-3.847-4.426C120.58,193.59,119.873,195.627,120.723,197.477z"/>
			<path style="fill:#DE5753;" d="M137.415,195.516c0,0,0.853,3.206,2,4.859c-1.021,0.733-2.55,0.107-2.55,0.107L137.415,195.516z"
				/>
			<path style="fill:#263238;" d="M131.617,191.921c-0.04-0.032-0.072-0.074-0.093-0.124c-0.065-0.158,0.01-0.34,0.168-0.405
				c1.568-0.648,2.746,0.18,2.795,0.215c0.14,0.081,0.171,0.293,0.071,0.433c-0.1,0.139-0.294,0.171-0.433,0.071
				c-0.049-0.034-0.965-0.655-2.196-0.146C131.821,192.01,131.702,191.989,131.617,191.921z"/>
			<path style="fill:#263238;" d="M142.671,193.098c-0.091,0.038-0.2,0.032-0.289-0.025c-1.185-0.768-2.257-0.34-2.268-0.335
				c-0.159,0.066-0.34-0.01-0.405-0.168c-0.065-0.158,0.01-0.339,0.167-0.405c0,0,0.001,0,0.002-0.001
				c0.056-0.023,1.388-0.555,2.842,0.388c0.144,0.093,0.185,0.286,0.092,0.429C142.776,193.035,142.726,193.074,142.671,193.098z"/>
			<path style="fill:#263238;" d="M127.704,179.982c0,0,7.133-7.031,14.729-2.657c0,0-1.674-0.161-2.53,0.219
				c0,0,7.321,1.697,7.914,7.418l-1.104-1.241c0,0,0.467,4.732-2.544,6.773l0.048-1.503c0,0-4.09,2.67-8.106,0.229l1.75-0.276
				c0,0-7.417-2.666-8.654-5.179C127.97,181.252,127.704,179.982,127.704,179.982z"/>
			<path style="fill:none;stroke:#263238;stroke-width:0.35;stroke-linecap:round;stroke-linejoin:round;stroke-miterlimit:10;" d="
				M132.917,194.059c0,0,0.873,0.105,1.325,0.771c0,0-0.852-0.354-1.257,0.007"/>
			<path style="fill:none;stroke:#263238;stroke-width:0.35;stroke-linecap:round;stroke-linejoin:round;stroke-miterlimit:10;" d="
				M140.725,195.045c0,0-0.866-0.155-1.493,0.35c0,0,0.918-0.089,1.2,0.375"/>
		</g>
		<g>
			<path style="fill:#407BFF;" d="M173.448,251.888c0,0-5.439,2.058-7.307,4.338c-0.167,0.189-0.3,0.389-0.4,0.578
				c-1.312,2.502,0.223,22.299-6.595,28.239c-6.818,5.939-20.242,3.081-20.464-7.251c-0.222-10.466,3.047-64.574,2.969-66.777
				c-0.1-3.192-4.282-5.361-4.282-5.361l-0.503-1.342c0.813-0.083,1.145-0.788,1.145-0.788l2.65,1.307
				c2.636,1.29,4.315,3.982,4.315,6.918v59.603c0,2.58,2.091,4.671,4.671,4.671c1.279,0,2.447-0.523,3.292-1.368
				c0.845-0.845,1.368-2.013,1.368-3.303V255.18c0-4.794,1.312-9.443,3.748-13.491c0,0,0,0,0-0.011
				c1.146-1.913,2.547-3.681,4.171-5.272l0.2-0.189l0.233-0.245l0.256,0.378L173.448,251.888z"/>
			<path style="opacity:0.2;" d="M173.448,251.888c0,0-5.439,2.058-7.307,4.338c-5.906-3.236-7.607-10.321-8.086-14.536
				c0,0,0,0,0-0.011c1.146-1.913,2.547-3.681,4.171-5.272l0.2-0.189c0.156,0.033,0.322,0.067,0.489,0.133L173.448,251.888z"/>
			<path style="fill:#407BFF;" d="M174.725,240.07c3.176,6.051,2.661,12.579-1.151,14.58c-3.812,2.001-9.477-1.283-12.653-7.335
				c-3.176-6.051-2.661-12.579,1.151-14.58C165.884,230.734,171.549,234.018,174.725,240.07z"/>
			<path style="opacity:0.4;" d="M174.418,240.231c2.796,5.327,2.655,10.91-0.315,12.469c-2.97,1.559-7.644-1.496-10.441-6.824
				c-2.796-5.327-2.655-10.91,0.315-12.469C166.947,231.848,171.622,234.903,174.418,240.231z"/>
			<g>
				<path style="fill:#407BFF;" d="M146.197,221.716c0,0.75-0.441,1.359-0.986,1.359c-0.545,0-0.986-0.608-0.986-1.359
					c0-0.751,0.442-1.359,0.986-1.359C145.755,220.357,146.197,220.965,146.197,221.716z"/>
				<path style="opacity:0.2;" d="M146.197,221.716c0,0.75-0.441,1.359-0.986,1.359c-0.545,0-0.986-0.608-0.986-1.359
					c0-0.751,0.442-1.359,0.986-1.359C145.755,220.357,146.197,220.965,146.197,221.716z"/>
			</g>
			<g>
				<path style="fill:#407BFF;" d="M145.647,228.434c0,0.751-0.441,1.359-0.986,1.359s-0.986-0.608-0.986-1.359
					c0-0.75,0.441-1.359,0.986-1.359S145.647,227.684,145.647,228.434z"/>
				<path style="opacity:0.2;" d="M145.647,228.434c0,0.751-0.441,1.359-0.986,1.359s-0.986-0.608-0.986-1.359
					c0-0.75,0.441-1.359,0.986-1.359S145.647,227.684,145.647,228.434z"/>
			</g>
			<g>
				<path style="fill:#407BFF;" d="M146.197,235.152c0,0.75-0.441,1.359-0.986,1.359c-0.545,0-0.986-0.608-0.986-1.359
					c0-0.75,0.442-1.359,0.986-1.359C145.755,233.794,146.197,234.402,146.197,235.152z"/>
				<path style="opacity:0.2;" d="M146.197,235.152c0,0.75-0.441,1.359-0.986,1.359c-0.545,0-0.986-0.608-0.986-1.359
					c0-0.75,0.442-1.359,0.986-1.359C145.755,233.794,146.197,234.402,146.197,235.152z"/>
			</g>
			<g>
				<path style="fill:#407BFF;" d="M145.211,241.871c0,0.75-0.441,1.359-0.986,1.359c-0.545,0-0.986-0.608-0.986-1.359
					s0.441-1.359,0.986-1.359C144.769,240.512,145.211,241.12,145.211,241.871z"/>
				<path style="opacity:0.2;" d="M145.211,241.871c0,0.75-0.441,1.359-0.986,1.359c-0.545,0-0.986-0.608-0.986-1.359
					s0.441-1.359,0.986-1.359C144.769,240.512,145.211,241.12,145.211,241.871z"/>
			</g>
			<g>
				<path style="fill:#407BFF;" d="M146.197,248.589c0,0.75-0.441,1.359-0.986,1.359c-0.545,0-0.986-0.608-0.986-1.359
					c0-0.751,0.442-1.359,0.986-1.359C145.755,247.23,146.197,247.839,146.197,248.589z"/>
				<path style="opacity:0.2;" d="M146.197,248.589c0,0.75-0.441,1.359-0.986,1.359c-0.545,0-0.986-0.608-0.986-1.359
					c0-0.751,0.442-1.359,0.986-1.359C145.755,247.23,146.197,247.839,146.197,248.589z"/>
			</g>
			<g>
				<path style="fill:#407BFF;" d="M145.106,255.307c0,0.751-0.441,1.359-0.986,1.359s-0.986-0.608-0.986-1.359
					c0-0.75,0.441-1.359,0.986-1.359S145.106,254.557,145.106,255.307z"/>
				<path style="opacity:0.2;" d="M145.106,255.307c0,0.751-0.441,1.359-0.986,1.359s-0.986-0.608-0.986-1.359
					c0-0.75,0.441-1.359,0.986-1.359S145.106,254.557,145.106,255.307z"/>
			</g>
			<g>
				<path style="fill:#407BFF;" d="M146.092,262.026c0,0.75-0.441,1.359-0.986,1.359s-0.986-0.608-0.986-1.359
					c0-0.75,0.441-1.359,0.986-1.359S146.092,261.275,146.092,262.026z"/>
				<path style="opacity:0.2;" d="M146.092,262.026c0,0.75-0.441,1.359-0.986,1.359s-0.986-0.608-0.986-1.359
					c0-0.75,0.441-1.359,0.986-1.359S146.092,261.275,146.092,262.026z"/>
			</g>
			
				<line style="fill:none;stroke:#407BFF;stroke-width:0.5;stroke-linecap:round;stroke-linejoin:round;stroke-miterlimit:10;" x1="140.265" y1="219.445" x2="137.758" y2="265.864"/>
			
				<line style="fill:none;stroke:#407BFF;stroke-width:0.5;stroke-linecap:round;stroke-linejoin:round;stroke-miterlimit:10;" x1="140.265" y1="221.102" x2="141.931" y2="221.102"/>
			
				<line style="fill:none;stroke:#407BFF;stroke-width:0.5;stroke-linecap:round;stroke-linejoin:round;stroke-miterlimit:10;" x1="139.779" y1="228.434" x2="141.931" y2="228.434"/>
			
				<line style="fill:none;stroke:#407BFF;stroke-width:0.5;stroke-linecap:round;stroke-linejoin:round;stroke-miterlimit:10;" x1="139.416" y1="235.152" x2="141.401" y2="235.152"/>
			
				<line style="fill:none;stroke:#407BFF;stroke-width:0.5;stroke-linecap:round;stroke-linejoin:round;stroke-miterlimit:10;" x1="139.077" y1="241.437" x2="141.098" y2="241.437"/>
			
				<line style="fill:none;stroke:#407BFF;stroke-width:0.5;stroke-linecap:round;stroke-linejoin:round;stroke-miterlimit:10;" x1="138.709" y1="248.255" x2="141.931" y2="248.255"/>
			
				<line style="fill:none;stroke:#407BFF;stroke-width:0.5;stroke-linecap:round;stroke-linejoin:round;stroke-miterlimit:10;" x1="138.352" y1="254.865" x2="140.855" y2="254.865"/>
			
				<line style="fill:none;stroke:#407BFF;stroke-width:0.5;stroke-linecap:round;stroke-linejoin:round;stroke-miterlimit:10;" x1="137.965" y1="262.026" x2="141.401" y2="262.026"/>
		</g>
		<g>
			<path style="fill:#E4897B;" d="M131.729,252.249l9.167-1.142l-0.295,8.071c0,0-6.296,1.699-9.485-2.633L131.729,252.249z"/>
			<polygon style="fill:#E4897B;" points="147.038,253.453 145.378,259.416 140.601,259.178 140.896,251.108 			"/>
		</g>
		<g>
			<path style="fill:#E4897B;" d="M155.757,238.816l-7.054-5.965l-4.163,6.921c0,0,4.345,4.863,9.383,2.978L155.757,238.816z"/>
			<polygon style="fill:#E4897B;" points="142.277,231.459 140.409,237.361 144.54,239.772 148.703,232.851 			"/>
		</g>
	</g>
</g>
</svg>
