<?xml version="1.0" encoding="utf-8"?>
<!-- Generator: Adobe Illustrator 27.5.0, SVG Export Plug-In . SVG Version: 6.00 Build 0)  -->
<svg version="1.1" xmlns="http://www.w3.org/2000/svg" xmlns:xlink="http://www.w3.org/1999/xlink" x="0px" y="0px"
	 viewBox="0 0 500 500" style="enable-background:new 0 0 500 500;" xml:space="preserve">
<g id="Background_Complete">
	<g>
		<rect y="382.398" style="fill:#EBEBEB;" width="500" height="0.25"/>
		<rect x="416.779" y="398.494" style="fill:#EBEBEB;" width="33.122" height="0.25"/>
		<rect x="322.527" y="401.208" style="fill:#EBEBEB;" width="8.693" height="0.25"/>
		<rect x="396.586" y="389.208" style="fill:#EBEBEB;" width="19.192" height="0.25"/>
		<rect x="52.459" y="390.888" style="fill:#EBEBEB;" width="43.193" height="0.25"/>
		<rect x="104.556" y="390.888" style="fill:#EBEBEB;" width="6.333" height="0.25"/>
		<rect x="131.471" y="395.111" style="fill:#EBEBEB;" width="93.676" height="0.25"/>
		<path style="fill:#EBEBEB;" d="M237.014,337.8H43.915c-3.147,0-5.708-2.561-5.708-5.708V60.66c0-3.147,2.561-5.708,5.708-5.708
			h193.099c3.146,0,5.707,2.561,5.707,5.708v271.432C242.721,335.239,240.16,337.8,237.014,337.8z M43.915,55.203
			c-3.01,0-5.458,2.448-5.458,5.458v271.432c0,3.01,2.448,5.458,5.458,5.458h193.099c3.009,0,5.457-2.448,5.457-5.458V60.66
			c0-3.009-2.448-5.458-5.457-5.458H43.915z"/>
		<path style="fill:#EBEBEB;" d="M453.31,337.8H260.212c-3.147,0-5.707-2.561-5.707-5.708V60.66c0-3.147,2.561-5.708,5.707-5.708
			H453.31c3.148,0,5.708,2.561,5.708,5.708v271.432C459.019,335.239,456.458,337.8,453.31,337.8z M260.212,55.203
			c-3.009,0-5.457,2.448-5.457,5.458v271.432c0,3.01,2.448,5.458,5.457,5.458H453.31c3.01,0,5.458-2.448,5.458-5.458V60.66
			c0-3.009-2.448-5.458-5.458-5.458H260.212z"/>
	</g>
	<g>
		<path style="fill:#E0E0E0;" d="M369.334,166.271v-3.313h5.365c0,0-5.365-14.071-1.971-31.455c0,0-0.077,13.732,5.233,13.829
			c8.11,0.149,8.719-13.829,8.719-13.829s1.954,20.006-5.323,31.455h5.562v3.313H369.334z"/>
		<circle style="fill:#E0E0E0;" cx="379.736" cy="140.668" r="4.681"/>
		<polygon style="fill:#E0E0E0;" points="404.747,166.971 411.157,134.404 430.791,134.404 426.138,152.87 433.016,166.271 		"/>
		<polygon style="fill:#E0E0E0;" points="329.747,166.971 336.157,134.404 355.791,134.404 351.138,152.87 358.016,166.271 		"/>
		<g>
			
				<rect x="313.806" y="163.995" transform="matrix(-1 -1.224647e-16 1.224647e-16 -1 742.8109 547.6381)" style="fill:#F0F0F0;" width="115.2" height="219.648"/>
			<g>
				
					<rect x="317.878" y="171.62" transform="matrix(-1 -1.224647e-16 1.224647e-16 -1 742.811 387.9775)" style="fill:#E0E0E0;" width="107.056" height="44.738"/>
				
					<rect x="418.852" y="178.862" transform="matrix(-1 -1.224647e-16 1.224647e-16 -1 843.7855 395.2199)" style="fill:#EBEBEB;" width="6.082" height="37.495"/>
				
					<rect x="389.446" y="178.862" transform="matrix(-1 -1.224647e-16 1.224647e-16 -1 784.9729 395.2199)" style="fill:#EBEBEB;" width="6.082" height="37.495"/>
				<polygon style="fill:#EBEBEB;" points="351.622,214.876 357.615,216.358 362.056,179.407 356.062,177.926 				"/>
				
					<rect x="411.316" y="183.803" transform="matrix(-1 -1.224647e-16 1.224647e-16 -1 828.7144 400.1611)" style="fill:#EBEBEB;" width="6.081" height="32.554"/>
				
					<rect x="397.338" y="183.803" transform="matrix(-1 -1.224647e-16 1.224647e-16 -1 800.7578 400.1611)" style="fill:#EBEBEB;" width="6.081" height="32.554"/>
				
					<rect x="362.056" y="183.803" transform="matrix(-1 -1.224647e-16 1.224647e-16 -1 730.1925 400.1611)" style="fill:#EBEBEB;" width="6.082" height="32.554"/>
				<polygon style="fill:#EBEBEB;" points="376.534,214.466 382.471,216.358 387.395,184.579 381.458,182.687 				"/>
				
					<rect x="406.058" y="177.001" transform="matrix(-1 -1.224647e-16 1.224647e-16 -1 815.1563 393.3584)" style="fill:#EBEBEB;" width="3.041" height="39.357"/>
				
					<rect x="369.885" y="177.001" transform="matrix(-1 -1.224647e-16 1.224647e-16 -1 742.8109 393.3584)" style="fill:#EBEBEB;" width="3.041" height="39.357"/>
			</g>
			<g>
				<rect x="317.878" y="223.441" style="fill:#E0E0E0;" width="107.056" height="44.738"/>
				<rect x="317.878" y="230.684" style="fill:#EBEBEB;" width="6.082" height="37.495"/>
				<rect x="347.284" y="230.684" style="fill:#EBEBEB;" width="6.081" height="37.495"/>
				<polygon style="fill:#EBEBEB;" points="391.189,266.698 385.196,268.179 380.755,231.229 386.749,229.747 				"/>
				<rect x="325.413" y="235.625" style="fill:#EBEBEB;" width="6.082" height="32.554"/>
				<rect x="339.391" y="235.625" style="fill:#EBEBEB;" width="6.082" height="32.554"/>
				<rect x="374.674" y="235.625" style="fill:#EBEBEB;" width="6.081" height="32.554"/>
				<polygon style="fill:#EBEBEB;" points="366.276,266.288 360.34,268.179 355.416,236.4 361.353,234.508 				"/>
				<rect x="333.712" y="228.822" style="fill:#EBEBEB;" width="3.041" height="39.357"/>
				<rect x="369.885" y="228.822" style="fill:#EBEBEB;" width="3.041" height="39.357"/>
				
					<rect x="418.852" y="230.684" transform="matrix(-1 -1.224647e-16 1.224647e-16 -1 843.7855 498.8633)" style="fill:#EBEBEB;" width="6.082" height="37.495"/>
				
					<rect x="411.316" y="235.625" transform="matrix(-1 -1.224647e-16 1.224647e-16 -1 828.7144 503.8043)" style="fill:#EBEBEB;" width="6.081" height="32.554"/>
				
					<rect x="397.338" y="235.625" transform="matrix(-1 -1.224647e-16 1.224647e-16 -1 800.7578 503.8043)" style="fill:#EBEBEB;" width="6.081" height="32.554"/>
				
					<rect x="406.058" y="228.822" transform="matrix(-1 -1.224647e-16 1.224647e-16 -1 815.1563 497.0017)" style="fill:#EBEBEB;" width="3.041" height="39.357"/>
			</g>
			<g>
				
					<rect x="317.878" y="275.263" transform="matrix(-1 -1.224647e-16 1.224647e-16 -1 742.811 595.2644)" style="fill:#E0E0E0;" width="107.056" height="44.738"/>
				<g>
					
						<rect x="357.405" y="282.506" transform="matrix(-1 -1.224647e-16 1.224647e-16 -1 720.8924 602.5069)" style="fill:#EBEBEB;" width="6.081" height="37.495"/>
					<polygon style="fill:#EBEBEB;" points="319.582,318.52 325.575,320.001 330.015,283.051 324.022,281.569 					"/>
					
						<rect x="379.276" y="287.447" transform="matrix(-1 -1.224647e-16 1.224647e-16 -1 764.6339 607.448)" style="fill:#EBEBEB;" width="6.082" height="32.554"/>
					
						<rect x="365.298" y="287.447" transform="matrix(-1 -1.224647e-16 1.224647e-16 -1 736.6772 607.448)" style="fill:#EBEBEB;" width="6.081" height="32.554"/>
					
						<rect x="330.015" y="287.447" transform="matrix(-1 -1.224647e-16 1.224647e-16 -1 666.1119 607.448)" style="fill:#EBEBEB;" width="6.082" height="32.554"/>
					<polygon style="fill:#EBEBEB;" points="344.494,318.109 350.431,320.001 355.354,288.222 349.418,286.33 					"/>
					
						<rect x="374.017" y="280.644" transform="matrix(-1 -1.224647e-16 1.224647e-16 -1 751.0757 600.6453)" style="fill:#EBEBEB;" width="3.041" height="39.357"/>
					
						<rect x="337.845" y="280.644" transform="matrix(-1 -1.224647e-16 1.224647e-16 -1 678.7304 600.6453)" style="fill:#EBEBEB;" width="3.041" height="39.357"/>
					<polygon style="fill:#EBEBEB;" points="389.547,318.52 395.54,320.001 399.981,283.051 393.988,281.569 					"/>
					
						<rect x="399.981" y="287.447" transform="matrix(-1 -1.224647e-16 1.224647e-16 -1 806.043 607.448)" style="fill:#EBEBEB;" width="6.082" height="32.554"/>
					<polygon style="fill:#EBEBEB;" points="414.46,318.109 420.396,320.001 425.32,288.222 419.383,286.33 					"/>
					
						<rect x="407.81" y="280.644" transform="matrix(-1 -1.224647e-16 1.224647e-16 -1 818.6614 600.6453)" style="fill:#EBEBEB;" width="3.041" height="39.357"/>
				</g>
			</g>
			<rect x="429.005" y="163.995" style="fill:#E0E0E0;" width="19.874" height="220.283"/>
		</g>
		<g>
			
				<ellipse transform="matrix(0.7071 -0.7071 0.7071 0.7071 47.0875 298.2289)" style="fill:#E0E0E0;" cx="383.538" cy="92.275" rx="23.554" ry="23.554"/>
			
				<ellipse transform="matrix(0.8358 -0.549 0.549 0.8358 12.3108 225.7153)" style="fill:#F0F0F0;" cx="383.538" cy="92.275" rx="20.027" ry="20.027"/>
			
				<polyline style="fill:#F0F0F0;stroke:#E0E0E0;stroke-width:2;stroke-linecap:round;stroke-linejoin:round;stroke-miterlimit:10;" points="
				384.483,78.536 384.483,92.536 393.76,87.286 			"/>
		</g>
		<rect x="51.12" y="87.96" style="fill:#EBEBEB;" width="189.959" height="89.041"/>
		
			<rect x="104.579" y="40.501" transform="matrix(-1.836970e-16 1 -1 -1.836970e-16 278.5803 -13.6193)" style="fill:#F0F0F0;" width="83.041" height="183.958"/>
		<path style="fill:#FAFAFA;" d="M133.798,131.435c2.543-4.609,7.892-3.14,10.78,0.208c2.555-3.608,7.74-5.581,10.711-1.235
			c5.009,7.326-4.235,14.777-8.629,17.732c-0.498,0.339-0.909,0.618-1.253,0.839c-0.363-0.187-0.8-0.425-1.327-0.715
			C139.424,145.741,129.511,139.206,133.798,131.435z"/>
		<path style="fill:#F5F5F5;" d="M103.645,116.484c0-2.668-2.163-4.83-4.83-4.83c-0.482,0-0.947,0.073-1.387,0.205
			c0.07-0.484,0.108-0.979,0.108-1.483c0-5.649-4.58-10.229-10.229-10.229c-0.644,0-1.273,0.062-1.884,0.176
			c-1.572-2.573-4.398-4.296-7.634-4.296c-4.898,0-8.871,3.935-8.944,8.816c-0.05-0.001-0.099-0.007-0.149-0.007
			c-4.551,0-8.24,3.689-8.24,8.24c0,4.551,3.689,8.24,8.24,8.24h30.261l-0.006-0.007
			C101.555,121.234,103.645,119.105,103.645,116.484z"/>
		<path style="fill:#F5F5F5;" d="M140.139,106.76c0-1.055-0.855-1.91-1.91-1.91c-0.191,0-0.375,0.029-0.548,0.081
			c0.028-0.191,0.043-0.387,0.043-0.586c0-2.234-1.811-4.044-4.044-4.044c-0.255,0-0.503,0.025-0.745,0.07
			c-0.622-1.017-1.739-1.699-3.018-1.699c-1.936,0-3.507,1.556-3.536,3.485c-0.02,0-0.039-0.003-0.059-0.003
			c-1.799,0-3.258,1.458-3.258,3.258s1.458,3.258,3.258,3.258h11.964l-0.003-0.003C139.313,108.638,140.139,107.797,140.139,106.76z
			"/>
		<path style="fill:#F5F5F5;" d="M184.77,161.846c0-2.668,2.163-4.83,4.83-4.83c0.482,0,0.947,0.073,1.387,0.204
			c-0.07-0.484-0.108-0.979-0.108-1.483c0-5.649,4.58-10.229,10.229-10.229c0.644,0,1.273,0.062,1.884,0.176
			c1.572-2.573,4.398-4.296,7.634-4.296c4.898,0,8.871,3.935,8.943,8.816c0.05-0.001,0.099-0.007,0.149-0.007
			c4.551,0,8.24,3.689,8.24,8.24s-3.689,8.24-8.24,8.24h-30.261l0.006-0.007C186.86,166.597,184.77,164.468,184.77,161.846z"/>
		<path style="fill:#F5F5F5;" d="M143.363,161.192c0-1.334,1.081-2.415,2.415-2.415c0.241,0,0.474,0.036,0.693,0.102
			c-0.035-0.242-0.054-0.49-0.054-0.742c0-2.825,2.29-5.115,5.115-5.115c0.322,0,0.637,0.031,0.942,0.088
			c0.786-1.286,2.199-2.148,3.817-2.148c2.449,0,4.435,1.968,4.472,4.408c0.025,0,0.049-0.004,0.074-0.004
			c2.275,0,4.12,1.844,4.12,4.12c0,2.275-1.844,4.12-4.12,4.12h-15.13l0.003-0.003C144.408,163.568,143.363,162.503,143.363,161.192
			z"/>
		<g>
			<g>
				<path style="fill:#FAFAFA;" d="M107.538,145.894c-2.442-5.006-4.218-16.816-1.471-22.231c2.747-5.415,2.137,0.332,2.137,0.332
					s1.945-6.329,4.205-7.417c2.261-1.088,1.458,2.66,1.458,2.66s2.986-5.252,5.132-6.275c2.146-1.023,1.396,2.546,1.396,2.546
					s2.243-4.688,4.443-4.239c2.201,0.448-11.021,25.438-10.292,32.256C115.276,150.345,110.009,150.96,107.538,145.894z"/>
			</g>
			<g>
				<path style="fill:#E0E0E0;" d="M124.921,135.43l3.736,0.256c0.269,0.018,0.334,0.384,0.089,0.494l-3.029,1.366l1.471,2.092
					c0.16,0.227-0.068,0.525-0.329,0.431l-2.714-0.979L124.921,135.43z"/>
			</g>
			<g>
				<path style="fill:#FAFAFA;" d="M80.106,145.712c0,0,2.357-4.753,9.09-6.187c0,0,5.846,6.721,11.786,6.774
					c3.262,0.029,9.313-3.443,13.292-7.66c4.725-5.009,7.538-6.55,9.757-4.971c2.101,1.495,2.293,4.458-1.531,7.907
					c-3.824,3.449-3.11,12.983-11.026,17.471c-7.916,4.489-16.5-1.21-18.352-9.341C93.121,149.705,87.819,145.793,80.106,145.712z"
					/>
			</g>
			<path style="fill:#E0E0E0;" d="M122.626,136.317c0.118,0.216,0.039,0.486-0.176,0.604c-0.215,0.118-0.486,0.039-0.604-0.176
				c-0.118-0.216-0.039-0.486,0.176-0.604C122.237,136.023,122.507,136.102,122.626,136.317z"/>
			<path style="fill:#FAFAFA;" d="M106.138,153.704c-4.008,3.868-14.693,9.202-20.691,8.261c-5.998-0.941-0.343-2.135-0.343-2.135
				s-6.62,0.104-8.353-1.711c-1.733-1.814,2.08-2.208,2.08-2.208s-5.917-1.219-7.552-2.945s1.991-2.113,1.991-2.113
				s-5.151-0.686-5.404-2.918c-0.253-2.231,27.598,2.631,33.858-0.167C107.983,144.971,110.195,149.79,106.138,153.704z"/>
		</g>
		<g>
			<g>
				<path style="fill:#FAFAFA;" d="M184.795,126.016c-0.265-5.564-4.383-16.774-9.394-20.202c-5.011-3.429-1.714,1.319-1.714,1.319
					s-4.747-4.615-7.253-4.484c-2.505,0.132,0,3.033,0,3.033s-5.143-3.17-7.516-3.036c-2.374,0.135,0,2.904,0,2.904
					s-4.22-3.033-5.934-1.582c-1.714,1.451,21.89,17.011,24.527,23.341C180.148,133.638,185.063,131.646,184.795,126.016z"/>
			</g>
			<g>
				<path style="fill:#E0E0E0;" d="M164.522,125.194l-3.153,2.02c-0.227,0.145-0.109,0.497,0.16,0.476l3.312-0.258l-0.285,2.542
					c-0.031,0.276,0.312,0.428,0.496,0.22l1.91-2.163L164.522,125.194z"/>
			</g>
			<g>
				<path style="fill:#FAFAFA;" d="M208.764,112.673c0,0-4.352-3.035-10.945-1.057c0,0-1.896,8.703-7.08,11.604
					c-2.847,1.593-9.822,1.456-15.338-0.33c-6.551-2.121-9.758-2.121-10.945,0.33c-1.124,2.321,0.132,5.011,5.143,6.198
					c5.011,1.187,8.967,9.89,18.066,10.022c9.099,0.132,13.888-8.991,11.604-17.011C199.269,122.429,202.038,116.45,208.764,112.673
					z"/>
			</g>
			<path style="fill:#E0E0E0;" d="M166.961,124.868c0,0.246,0.199,0.445,0.445,0.445s0.445-0.199,0.445-0.445
				c0-0.246-0.199-0.445-0.445-0.445S166.961,124.623,166.961,124.868z"/>
			<path style="fill:#FAFAFA;" d="M189.776,132.193c5.374,1.465,17.307,1.008,22.115-2.7c4.808-3.708-0.725-2.038-0.725-2.038
				s5.855-3.091,6.503-5.515c0.648-2.424-2.885-0.936-2.885-0.936s4.603-3.913,5.207-6.212s-2.762-0.896-2.762-0.896
				s4.187-3.078,3.337-5.156s-22.937,15.571-29.772,16.125C183.96,125.42,184.337,130.71,189.776,132.193z"/>
		</g>
	</g>
</g>
<g id="Background_Simple" style="display:none;">
	<g style="display:inline;">
		<path style="fill:#407BFF;" d="M174.216,95.622c9.138-11.505,21.633-20.458,35.854-23.964
			c28.275-6.971,58.539,9.007,75.508,32.675c7.693,10.73,13.215,22.892,20.915,33.617c7.7,10.725,18.363,20.319,31.401,22.398
			c20.517,3.27,38.123-11.549,57.711-14.438c38.028-5.608,41.841,33.393,37.736,61.664c-5.751,39.609-27.865,79.305-57.811,105.901
			c-50.17,44.558-123.9,58.29-188.186,42.691c-42.883-10.405-83.85-34.246-107.648-71.405
			c-11.729-18.313-19.096-40.48-15.181-61.872c3.915-21.392,21.231-41.057,42.893-42.984c13.396-1.191,29.134,3.477,38.864-5.808
			c6.706-6.398,7.224-16.691,8.203-25.908c1.774-16.712,6.615-33.33,15.923-47.322C171.594,99.071,172.868,97.319,174.216,95.622z"
			/>
		<path style="opacity:0.9;fill:#FFFFFF;" d="M174.216,95.622c9.138-11.505,21.633-20.458,35.854-23.964
			c28.275-6.971,58.539,9.007,75.508,32.675c7.693,10.73,13.215,22.892,20.915,33.617c7.7,10.725,18.363,20.319,31.401,22.398
			c20.517,3.27,38.123-11.549,57.711-14.438c38.028-5.608,41.841,33.393,37.736,61.664c-5.751,39.609-27.865,79.305-57.811,105.901
			c-50.17,44.558-123.9,58.29-188.186,42.691c-42.883-10.405-83.85-34.246-107.648-71.405
			c-11.729-18.313-19.096-40.48-15.181-61.872c3.915-21.392,21.231-41.057,42.893-42.984c13.396-1.191,29.134,3.477,38.864-5.808
			c6.706-6.398,7.224-16.691,8.203-25.908c1.774-16.712,6.615-33.33,15.923-47.322C171.594,99.071,172.868,97.319,174.216,95.622z"
			/>
	</g>
</g>
<g id="Shadow_1_">
	<ellipse id="_x3C_Path_x3E__359_" style="fill:#F5F5F5;" cx="250" cy="416.238" rx="193.889" ry="11.323"/>
</g>
<g id="Character_1_1_">
	<g>
		<g>
			<path style="fill:#407BFF;" d="M252.501,301.98l38.463-0.001c0.136-0.005,0.27-0.021,0.408-0.021
				c5.469,0,9.902,4.433,9.902,9.902v108.062h-10.31h-9.494h-38.282V311.861C243.189,306.535,247.231,302.204,252.501,301.98z"/>
			<path style="opacity:0.5;fill:#FFFFFF;enable-background:new    ;" d="M252.501,301.98l38.463-0.001
				c0.136-0.005,0.27-0.021,0.408-0.021c5.469,0,9.902,4.433,9.902,9.902v108.062h-10.31h-9.494h-38.282V311.861
				C243.189,306.535,247.231,302.204,252.501,301.98z"/>
			<path style="opacity:0.6;fill:#FFFFFF;enable-background:new    ;" d="M291.372,301.959L291.372,301.959
				c5.469,0,9.902,4.433,9.902,9.902v108.062h-19.804V311.861C281.471,306.392,285.904,301.959,291.372,301.959z"/>
		</g>
		<g>
			<path style="fill:#407BFF;" d="M64.507,276.438h167.463c4.482,0,8.116,3.633,8.116,8.116l11.032,70.25H67.423l-11.032-70.25
				C56.391,280.071,60.025,276.438,64.507,276.438z"/>
			<path style="opacity:0.4;fill:#FFFFFF;enable-background:new    ;" d="M64.507,276.438h167.463c4.482,0,8.116,3.633,8.116,8.116
				l11.032,70.25H67.423l-11.032-70.25C56.391,280.071,60.025,276.438,64.507,276.438z"/>
			<path style="opacity:0.2;enable-background:new    ;" d="M83.654,355.843H67.423l-11.032-71.289c0-4.482,3.633-8.116,8.116-8.116
				l0,0c4.482,0,8.116,3.633,8.116,8.116L83.654,355.843z"/>
		</g>
		<g>
			
				<rect x="109.293" y="346.882" transform="matrix(-1 -1.224647e-16 1.224647e-16 -1 384.298 766.8045)" style="fill:#407BFF;" width="165.712" height="73.04"/>
			
				<rect x="109.293" y="346.882" transform="matrix(-1 -1.224647e-16 1.224647e-16 -1 384.298 766.8045)" style="opacity:0.4;fill:#FFFFFF;enable-background:new    ;" width="165.712" height="73.04"/>
		</g>
		<g>
			<path style="fill:#407BFF;" d="M93.158,361.582h176.319c5.762,0,10.434-4.671,10.434-10.433l0,0
				c0-5.762-4.671-10.434-10.434-10.434H93.158V361.582z"/>
			<path style="opacity:0.6;fill:#FFFFFF;enable-background:new    ;" d="M93.158,361.582h176.319
				c5.762,0,10.434-4.671,10.434-10.433l0,0c0-5.762-4.671-10.434-10.434-10.434H93.158V361.582z"/>
		</g>
	</g>
	<g>
		<path style="fill:#263238;" d="M121.714,211.219c0,0,4.436-0.361,8.745,8.38c4.309,8.741-2.813,32.527-2.813,32.527l-29.537,1.557
			c0,0-1.319-1.739-3.033-16.244c-1.714-14.506-0.269-29.67,12.489-33.338C117.035,201.38,121.714,211.219,121.714,211.219z"/>
		<g>
			<path style="fill:#407BFF;" d="M132.53,290.188l-30.319,2.325c-0.23-3.555-0.334-7.139-0.747-10.428
				c-0.459-3.675-1.167-7.515-2.361-12.265c-0.726-2.903-1.635-6.146-2.802-9.895c-0.156-0.505-0.312-1.011-0.478-1.534
				c-0.496-1.553-1.029-3.197-1.608-4.934c-0.579-1.755-1.204-3.62-1.893-5.586c4.125-1.314,8.324-2.334,12.587-3.041
				c4.493-0.799,9.05-1.277,13.616-1.433c5.898-0.046,12.678,0.616,12.678,0.616s0.965,0.23,1.571,6.486
				C133.327,256.368,133.743,268.827,132.53,290.188z"/>
		</g>
		<path style="opacity:0.2;enable-background:new    ;" d="M122.43,277.306c-8.195,8.103-15.821,7.185-20.966,4.778
			c-0.459-3.675-1.167-7.515-2.361-12.265c-0.726-2.903-1.635-6.146-2.802-9.895c-0.156-0.505-0.312-1.011-0.478-1.534
			c0.79-1.783,1.957-2.931,3.666-2.885c7.387,0.175,19.055,13.083,19.055,13.083L122.43,277.306z"/>
		<g>
			<path style="fill:#407BFF;" d="M131.212,244.01c4.488,0.709,6.495,3.579,11.988,16.127c4.213,9.624,2.457,12.693-0.886,14.142
				c-8.451,3.664-27.454,1.137-27.454,1.137l18.535-11.375c0,0-3.039-10.615-3.039-12.66
				C130.356,246.477,131.212,244.01,131.212,244.01z"/>
			<path style="opacity:0.1;fill:#FFFFFF;enable-background:new    ;" d="M142.312,274.275c-3.197,1.387-7.91,1.884-12.523,1.966
				c-0.45,0.009-0.9,0.018-1.341,0.018c-7.093,0.018-13.588-0.845-13.588-0.845l18.531-11.374c0,0-0.735-2.545-1.47-5.375
				c-0.772-2.959-1.562-6.238-1.562-7.286c0-4.906,0.854-7.368,0.854-7.368c4.484,0.707,6.496,3.574,11.99,16.124
				C147.411,269.763,145.656,272.832,142.312,274.275z"/>
			<path style="opacity:0.2;enable-background:new    ;" d="M138.435,264.766c0,0-1.985,7.598-9.987,11.493
				c-7.093,0.018-13.588-0.845-13.588-0.845l18.531-11.374c0,0-0.735-2.545-1.47-5.375
				C135.162,263.465,136.744,261.394,138.435,264.766z"/>
		</g>
		<g>
			<path style="fill:#407BFF;" d="M92.33,247.869c-9.293,3.923,7.514,29.968,16.935,33.096c9.421,3.128,29.374-16.332,29.374-16.332
				s-4.885-1.107-9.534-0.059c-11.499,2.593-14.697,4.254-17.041,1.831C109.72,263.981,98.929,245.083,92.33,247.869z"/>
			<path style="opacity:0.1;fill:#FFFFFF;enable-background:new    ;" d="M92.33,247.869c-9.293,3.923,7.514,29.968,16.935,33.096
				c9.421,3.128,29.374-16.332,29.374-16.332s-4.885-1.107-9.534-0.059c-11.499,2.593-14.697,4.254-17.041,1.831
				C109.72,263.981,98.929,245.083,92.33,247.869z"/>
			<path style="fill:#E9B176;" d="M119.065,266.979c0,0-5.637-2.971-7.128-3.454c-1.491-0.483-4.624,2.061-4.829,2.697
				c-0.205,0.636,6.521,4.18,7.02,3.998C114.627,270.039,119.065,266.979,119.065,266.979z"/>
		</g>
		<path style="fill:#E9B176;" d="M100.088,246.477c0,0,6.953,4.844,16.016,5.207c0,0,6.155-2.453,10.062-7.087
			C126.167,244.596,114.899,241.087,100.088,246.477z"/>
		<path style="fill:#E9B176;" d="M116.03,250.09c-7.48-0.96-9.72-4.15-9.72-4.15c1.25-1.18,1.9-2.59,2.17-4.02
			c0.55-2.86-0.39-5.83-0.96-7.28c-0.24-0.58-0.41-0.92-0.41-0.92l9.57-2.74c-0.08,0.52-0.22,1.57-0.37,2.74c0,0.01,0,0.02,0,0.02
			c0,0.01,0,0.01-0.01,0.02c-0.26,2.16-0.54,4.74-0.55,5.42c-0.07,5.46,2.4,5.52,2.4,5.52
			C119.73,247.65,116.03,250.09,116.03,250.09z"/>
		<g>
			<polygon style="fill:#E4897B;" points="199.314,388.647 193.273,390.102 190.215,381.762 187.438,374.176 194.32,371.241 
				196.965,380.447 			"/>
			<polygon style="opacity:0.2;enable-background:new    ;" points="196.965,380.447 190.215,381.762 187.438,374.176 
				194.32,371.241 			"/>
		</g>
		<g>
			<path style="fill:#263238;" d="M196.358,376.044l-8.379,3.115c0,0-22.353-55.888-26.947-56.081
				c-4.594-0.193-51.367,21.306-63.09,9.38c-11.723-11.916,4.27-39.946,4.27-39.946c-0.806,0.248,29.003-6.273,30.319-2.325
				c0.414,1.231,1.822,7.615,2.152,9.682c0.322,1.948,0.542,3.583,0.542,3.583s0.009,0,0.018-0.009
				c0.873-0.22,29.179-7.525,40.333,0.009C186.904,311.116,196.358,376.044,196.358,376.044z"/>
			<path style="opacity:0.1;fill:#FFFFFF;" d="M196.358,376.044l-8.379,3.115c0,0-22.353-55.888-26.947-56.081
				c-4.594-0.193-51.367,21.306-63.09,9.38c-11.723-11.916,4.27-39.946,4.27-39.946c-0.806,0.248,29.003-6.273,30.319-2.325
				c0.414,1.231,1.822,7.615,2.152,9.682c0.322,1.948,0.542,3.583,0.542,3.583s0.009,0,0.018-0.009
				c0.873-0.22,29.179-7.525,40.333,0.009C186.904,311.116,196.358,376.044,196.358,376.044z"/>
		</g>
		<g>
			<polygon style="fill:#E4897B;" points="149.62,405.56 143.062,404.099 143.302,402.309 144.377,394.388 151.822,395.056 
				149.889,404.285 			"/>
			<polygon style="opacity:0.2;enable-background:new    ;" points="151.176,398.119 143.987,397.165 144.356,394.471 
				151.811,395.097 			"/>
		</g>
		<g>
			<path style="fill:#263238;" d="M118.191,335.326c0,0,1.91,0.045,31.485-1.333c0,0-4.382,33.342-6.793,61.022l10.291,1.28
				c0,0,19.646-55.411,19.417-64.829c-0.23-9.417-11.025-12.173-11.025-12.173S140.494,331.466,118.191,335.326z"/>
			<path style="opacity:0;fill:#FFFFFF;enable-background:new    ;" d="M118.191,335.326c0,0,1.91,0.045,31.485-1.333
				c0,0-4.382,33.342-6.793,61.022l10.291,1.28c0,0,19.646-55.411,19.417-64.829c-0.23-9.417-11.025-12.173-11.025-12.173
				S140.494,331.466,118.191,335.326z"/>
		</g>
		<path style="opacity:0.2;enable-background:new    ;" d="M135.225,303.454l-16.492,3.436c0,0,9.114-5.035,15.95-7.019
			C135.004,301.818,135.225,303.454,135.225,303.454z"/>
		<g>
			<path style="fill:#263238;" d="M210.002,399.224c-0.918-0.423-1.907-0.674-2.916-0.741l0,0c0,0-3.489-2.054-6.948-10.033
				l-3.889-0.022c-1.346,0.015-2.54,0.87-2.988,2.14c-0.064,0.173-0.101,0.354-0.11,0.538c0.039,0.94,0.139,1.876,0.299,2.803
				c0.35,2.909,2.273,9.15,2.273,9.15l0.659-0.168l-1.198-5.803c-0.398-1.972,1.673-0.067,2.634,1.921
				c0.961,1.988,2.435,3.989,6.73,3.007C209.553,400.845,211.571,400.124,210.002,399.224z"/>
			<path style="fill:#263238;" d="M193.151,390.667c-0.735-1.886-1.672-5.252-1.672-5.252l8.332-1.164c0,0-0.001,4.099,1.543,6.784
				C197,391.003,193.151,390.667,193.151,390.667z"/>
		</g>
		<g>
			<path style="fill:#263238;" d="M155.813,418.767c-0.719-0.71-1.563-1.283-2.488-1.69l0,0c0,0-2.58-3.121-3.111-11.801
				l-3.648-1.347c-1.271-0.444-2.684-0.048-3.538,0.993c-0.119,0.141-0.216,0.299-0.287,0.469c-0.284,0.897-0.509,1.811-0.675,2.737
				c-0.663,2.854-0.982,9.376-0.982,9.376l0.677,0.067l0.852-5.864c0.298-1.99,1.596,0.507,1.821,2.704
				c0.225,2.197,0.929,4.58,5.302,5.122C154.838,420.138,156.98,420.148,155.813,418.767z"/>
			<path style="fill:#263238;" d="M142.889,404.978c-0.048-2.024,0.219-5.507,0.219-5.507l8.229,1.746c0,0-1.398,3.853-0.862,6.904
				C146.393,406.606,142.889,404.978,142.889,404.978z"/>
		</g>
		<g>
			<g>
				<polygon style="fill:#263238;" points="102.014,289.094 102.212,292.513 132.53,290.188 132.802,285.91 				"/>
				<polygon style="fill:#FFFFFF;" points="125.939,290.693 119.302,291.202 118.868,287.351 125.489,286.667 				"/>
				<g>
					<polygon style="fill:#407BFF;" points="112.671,291.711 111.169,291.826 110.931,288.172 112.431,288.017 					"/>
				</g>
				<g>
					<polygon style="fill:#407BFF;" points="131.224,290.288 129.723,290.403 129.46,286.256 130.96,286.101 					"/>
				</g>
				<g style="opacity:0.5;">
					<polygon style="fill:#FFFFFF;" points="112.671,291.711 111.169,291.826 110.931,288.172 112.431,288.017 					"/>
				</g>
				<g style="opacity:0.5;">
					<polygon style="fill:#FFFFFF;" points="131.224,290.288 129.723,290.403 129.46,286.256 130.96,286.101 					"/>
				</g>
			</g>
			<polygon style="opacity:0.2;fill:#FFFFFF;" points="102.014,289.094 102.212,292.513 132.53,290.188 132.802,285.91 			"/>
		</g>
		<path style="opacity:0.2;enable-background:new    ;" d="M116.32,233.72c0,0,0,0.01-0.01,0.02c0,0.01,0,0.01-0.01,0.02
			c-0.17,0.57-2.33,7.16-7.82,8.16c0.55-2.86-0.39-5.83-0.96-7.28l8.79-0.92H116.32z"/>
		<path style="fill:none;stroke:#263238;stroke-width:0.5;stroke-linecap:round;stroke-linejoin:round;stroke-miterlimit:10;" d="
			M120.562,211.341c0,0-6.935-11.769-18.919-5.44c-11.984,6.33-8.325,31.154-8.325,31.154"/>
		<g>
			<path style="fill:#263238;" d="M97.637,234.38c0,0-2.221,9.052,4.702,15.93c5.227,5.193,7.67,12.063,7.67,12.063
				s1.792-3.709-4.577-20.454c-3.177-8.355-1.811-10.16-1.811-10.16L97.637,234.38z"/>
			<path style="fill:none;stroke:#263238;stroke-width:0.5;stroke-linecap:round;stroke-linejoin:round;stroke-miterlimit:10;" d="
				M103.203,233.72c0,0,1.13,5.654,3.901,11.338c2.771,5.684,3.892,7.606,3.503,11.877"/>
		</g>
		<g>
			<path style="fill:#E9B176;" d="M111.294,211.836c-7.82-0.428-10.566,3.62-11.581,11.648
				c-1.267,10.031,0.574,17.309,10.469,15.693C123.621,236.983,124.281,212.547,111.294,211.836z"/>
			<path style="fill:#D38545;" d="M104.792,223.323c0,0-1.195,1.983-2.453,3.119c0,0,0.611,1.1,2.013,0.997L104.792,223.323z"/>
			<g>
				<path style="fill:#263238;" d="M109.614,222.946c-0.05,0.642,0.256,1.189,0.684,1.222c0.428,0.033,0.815-0.46,0.865-1.101
					c0.05-0.642-0.256-1.189-0.684-1.222C110.051,221.812,109.664,222.305,109.614,222.946z"/>
				<path style="fill:#263238;" d="M110.655,221.89l-1.352-0.657C109.302,221.234,109.905,222.462,110.655,221.89z"/>
			</g>
			<g>
				<path style="fill:#263238;" d="M101.649,222.188c-0.05,0.642,0.256,1.189,0.683,1.222c0.428,0.034,0.815-0.459,0.865-1.101
					c0.05-0.641-0.256-1.189-0.684-1.222C102.086,221.054,101.699,221.547,101.649,222.188z"/>
				<path style="fill:#263238;" d="M102.69,221.132l-1.352-0.656C101.338,220.476,101.94,221.704,102.69,221.132z"/>
			</g>
			<g>
				<path style="fill:#263238;" d="M109.084,219.599c0.934,0,2.376-0.208,4.362-1.061c0.169-0.073,0.247-0.268,0.174-0.437
					c-0.073-0.169-0.268-0.246-0.437-0.175c-3.494,1.502-5.143,0.878-5.16,0.871c-0.169-0.068-0.364,0.013-0.432,0.183
					c-0.069,0.169,0.009,0.361,0.177,0.432C107.804,219.427,108.234,219.599,109.084,219.599z"/>
			</g>
			<g>
				<path style="fill:#263238;" d="M103.221,218.844c0.743,0,1.27-0.324,1.28-0.33c0.155-0.099,0.201-0.304,0.103-0.46
					c-0.098-0.154-0.302-0.201-0.458-0.104c-0.06,0.036-1.411,0.842-2.715-0.777c-0.116-0.144-0.325-0.165-0.468-0.051
					c-0.144,0.115-0.166,0.325-0.051,0.468C101.71,218.581,102.553,218.844,103.221,218.844z"/>
			</g>
			<path style="fill:#263238;" d="M119.118,225.484c0,0-3.304-6.625-2.479-11.555c0,0-15.15-7.18-16.776,8.508
				c0,0-0.749-14.05,12.711-13.625c13.438,0.424,12.325,20.089,5.062,25.568C117.636,234.38,121.16,229.626,119.118,225.484z"/>
			<path style="fill:#E9B176;" d="M117.75,227.065c0.121-1.256,1.537-3.316,3.865-2.932c2.409,0.397,3.291,5.435-2.802,6.301
				C117.939,230.558,117.497,229.686,117.75,227.065z"/>
			<g>
				<path style="fill:#263238;" d="M105.766,230.414c0.097,0,0.193-0.042,0.259-0.124c1.909-2.361,3.751-1.267,3.829-1.218
					c0.156,0.095,0.361,0.048,0.457-0.107c0.097-0.155,0.051-0.359-0.104-0.457c-0.024-0.015-2.409-1.469-4.7,1.364
					c-0.116,0.143-0.093,0.353,0.049,0.468C105.618,230.39,105.692,230.414,105.766,230.414z"/>
			</g>
		</g>
	</g>
	<g>
		<path style="fill:#407BFF;" d="M75.513,301.98l38.463-0.001c0.136-0.005,0.27-0.021,0.408-0.021c5.468,0,9.902,4.433,9.902,9.902
			v108.062h-10.31h-9.494H66.201V311.861C66.201,306.535,70.243,302.204,75.513,301.98z"/>
		<path style="opacity:0.5;fill:#FFFFFF;enable-background:new    ;" d="M75.513,301.98l38.463-0.001
			c0.136-0.005,0.27-0.021,0.408-0.021c5.468,0,9.902,4.433,9.902,9.902v108.062h-10.31h-9.494H66.201V311.861
			C66.201,306.535,70.243,302.204,75.513,301.98z"/>
		<path style="opacity:0.6;fill:#FFFFFF;enable-background:new    ;" d="M114.384,301.959L114.384,301.959
			c5.469,0,9.902,4.433,9.902,9.902v108.062h-19.804V311.861C104.482,306.392,108.915,301.959,114.384,301.959z"/>
	</g>
</g>
<g id="Character_2">
	<g>
		<path style="fill:#E2877B;" d="M267.143,301.902l3.956,6.043c0,0,9.865,4.548,10.372,5.725s2.064,5.132,0,5.33
			c-2.064,0.198-13.078-4.729-14.328-4.957c-1.25-0.227,0-2.471,0-2.471l-5.19-7.21L267.143,301.902z"/>
		<path style="fill:#407BFF;" d="M249.86,248.19c6.008,6.524,7.591,32.939,10.162,37.435c2.571,4.496,10.286,19.946,10.286,19.946
			l-6.549,2.374c0,0-9.371-12.681-13.68-20.791c-4.309-8.11-5.393-21.131-7.12-24.61C241.231,259.066,249.86,248.19,249.86,248.19z"
			/>
		<polygon style="fill:#E2877B;" points="266.964,417.08 274.569,417.885 277.705,401.457 270.1,400.653 		"/>
		<polygon style="fill:#E2877B;" points="230.889,418.555 238.332,418.268 240.051,401.092 232.598,401.379 		"/>
		<g>
			<path style="fill:#263238;" d="M275.944,411.441h-9.05c-0.305,0.002-0.569,0.214-0.635,0.512l-1.469,6.633
				c-0.126,0.594,0.254,1.177,0.848,1.303c0.08,0.017,0.161,0.025,0.242,0.024c2.928-0.047,5.06-0.228,8.737-0.228
				c2.265,0,9.097,0.237,12.225,0.237c3.127,0,3.535-3.089,2.255-3.374c-5.743-1.251-10.064-2.985-11.902-4.634
				C276.854,411.602,276.406,411.433,275.944,411.441z"/>
			<path style="fill:#407BFF;" d="M276.456,412.474c-0.071-0.019-0.123-0.079-0.133-0.152c-0.012-0.069,0.023-0.139,0.085-0.171
				c0.265-0.171,2.672-1.649,3.497-1.222c0.19,0.09,0.309,0.283,0.303,0.493c0.05,0.359-0.09,0.717-0.37,0.948
				c-0.42,0.286-0.925,0.419-1.431,0.379C277.749,412.73,277.094,412.638,276.456,412.474z M276.967,412.228
				c0.869,0.293,1.818,0.246,2.653-0.133c0.178-0.16,0.267-0.397,0.237-0.635c-0.009-0.142-0.066-0.209-0.114-0.209
				c-0.069-0.037-0.149-0.054-0.227-0.047C278.609,411.379,277.744,411.727,276.967,412.228z"/>
			<path style="fill:#407BFF;" d="M276.408,412.512c-0.054-0.036-0.086-0.096-0.085-0.161c0.009-0.104,0.19-2.246,1.052-2.947
				c0.205-0.18,0.478-0.263,0.749-0.227c0.276-0.001,0.514,0.194,0.569,0.464c0.152,0.786-1.336,2.426-2.104,2.843h-0.085
				C276.475,412.503,276.442,412.513,276.408,412.512z M277.602,409.612c-0.524,0.669-0.831,1.482-0.881,2.331
				c0.768-0.578,1.715-1.82,1.62-2.303c-0.009-0.047-0.029-0.18-0.256-0.18H278C277.854,409.461,277.712,409.515,277.602,409.612z"
				/>
		</g>
		<g>
			<path style="fill:#263238;" d="M239.274,411.214h-9.05c-0.305,0.001-0.569,0.214-0.635,0.512l-1.469,6.633
				c-0.126,0.594,0.254,1.177,0.848,1.303c0.079,0.017,0.161,0.025,0.242,0.024c2.928-0.047,5.06-0.227,8.737-0.227
				c2.265,0,9.097,0.237,12.224,0.237c3.127,0,3.535-3.089,2.255-3.374c-5.743-1.251-10.064-2.985-11.902-4.634
				C240.184,411.375,239.736,411.205,239.274,411.214z"/>
			<path style="fill:#407BFF;" d="M239.785,412.247c-0.071-0.019-0.123-0.079-0.133-0.152c-0.012-0.069,0.023-0.138,0.085-0.171
				c0.265-0.171,2.672-1.649,3.497-1.222c0.19,0.09,0.309,0.283,0.303,0.493c0.05,0.359-0.09,0.717-0.369,0.948
				c-0.42,0.286-0.925,0.42-1.431,0.379C241.079,412.502,240.424,412.41,239.785,412.247z M240.297,412
				c0.869,0.294,1.818,0.246,2.653-0.133c0.178-0.16,0.267-0.397,0.237-0.635c-0.01-0.142-0.066-0.208-0.114-0.208
				c-0.07-0.038-0.149-0.054-0.227-0.047C241.939,411.152,241.074,411.499,240.297,412z"/>
			<path style="fill:#407BFF;" d="M239.738,412.285c-0.054-0.036-0.086-0.096-0.085-0.161c0.009-0.104,0.189-2.246,1.052-2.947
				c0.205-0.18,0.478-0.263,0.749-0.227c0.276-0.001,0.514,0.194,0.569,0.464c0.152,0.786-1.336,2.426-2.104,2.843h-0.085
				C239.805,412.275,239.772,412.285,239.738,412.285z M240.932,409.385c-0.524,0.669-0.831,1.483-0.881,2.331
				c0.768-0.578,1.715-1.819,1.62-2.303c-0.009-0.047-0.029-0.18-0.256-0.18h-0.085
				C241.183,409.234,241.042,409.288,240.932,409.385z"/>
		</g>
		<polygon style="opacity:0.2;enable-background:new    ;" points="270.1,400.653 277.705,401.457 276.081,409.93 268.476,409.126 
					"/>
		<polygon style="opacity:0.2;enable-background:new    ;" points="232.598,401.389 240.05,401.102 239.159,409.959 
			231.707,410.246 		"/>
		<path style="fill:#263238;" d="M190.247,290.935c0,0-16.986,51.891,19.699,51.891s39.644-14.302,36.541-31.148l-14.985-1.356
			c0,0-2.031-10.89-0.563-19.586L190.247,290.935z"/>
		<path style="fill:#263238;" d="M278.329,408.688l-12.561-1.811c0,0,11.288-52.038,7.322-57.743
			c-3.354-4.801-22.893-4.61-45.296-5.737c-4.175-0.209-8.586-0.418-13.178-0.654c-29.208-1.531,31.866-31.17,31.866-31.17
			s39.115,1.642,49.315,15.098C305.176,339.041,278.329,408.688,278.329,408.688z"/>
		<path style="opacity:0.2;enable-background:new    ;" d="M265.641,407.07l0.127-0.193c0,0,11.288-52.038,7.322-57.743
			c-3.354-4.801-22.893-4.61-45.296-5.737l-2.63-7.681l16.726-19.467c0,0,27.281,1.217,34.433,15.522
			C283.49,346.088,265.641,407.07,265.641,407.07z"/>
		<path style="fill:#263238;" d="M261.01,326.674c-5.718-7.541-20.509-11.371-32.411-13.282l-17.198,29.426
			c18.028,0.739,25.621,3.541,26.027,5.215c1.938,7.993-9.333,59.672-9.333,59.672h13.091
			C241.187,407.704,271.215,340.132,261.01,326.674z"/>
		<g>
			<path style="fill:#407BFF;" d="M209.618,243.503c0,0,26.56-9.793,40.24,4.688c0,0-17.002,43.776-18.326,50.534l-45.285-1.788
				C186.247,296.935,196.886,265.711,209.618,243.503z"/>
			<path style="opacity:0.6;fill:#FFFFFF;enable-background:new    ;" d="M249.86,248.19c0,0-5.65,14.55-10.69,28.16
				c-2.57,6.95-4.98,13.66-6.41,18.07c-0.62,1.94-1.06,3.43-1.23,4.3l-45.28-1.78c0,0,1.83-5.36,4.87-13.22
				c1.11-2.86,2.38-6.05,3.78-9.44c4.04-9.76,9.19-21.13,14.72-30.78C209.62,243.5,236.18,233.71,249.86,248.19z"/>
			<path style="opacity:0.6;fill:#FFFFFF;enable-background:new    ;" d="M239.17,276.35c-2.57,6.95-4.98,13.66-6.41,18.07
				l-3.29-7.94l-12.6,7.4l-5.47-9.37l-16.85,8l-3.43-8.79c1.11-2.86,2.38-6.05,3.78-9.44l9.94-4.79l6.56,11.19l14.6-8.41l3.76,11.32
				L239.17,276.35z"/>
		</g>
		<path style="fill:#E2877B;" d="M238.27,248.98c-8.55,6.38-14.31-7.37-14.31-7.37s2.93-0.62,4.72-1.88
			c1.28-0.89,2.88-4.25,4.64-10.05c0.01-0.02,0.01-0.03,0.01-0.03h11.38c-2.46,3.58-5.96,9.56-6.78,14.52
			C237.64,245.96,237.69,247.61,238.27,248.98z"/>
		<path style="fill:#407BFF;" d="M225.164,240.382c0,0,3.661,6.451,9.172,9.618c0,0,3.648-4.093,4.184-8.294
			c0,0,3.962,6.596,0.468,17.637l-4.652-7.398l-5.37,5.84C228.965,257.785,215.606,245.733,225.164,240.382z"/>
		<path style="fill:#E2877B;" d="M229.686,303.929l3.956,6.043c0,0,9.864,4.548,10.372,5.725c0.507,1.176,2.064,5.132,0,5.33
			c-2.064,0.198-13.078-4.729-14.328-4.956c-1.25-0.228,0-2.471,0-2.471l-5.19-7.21L229.686,303.929z"/>
		<path style="fill:#407BFF;" d="M209.618,243.503c8.777-1.276,10.376,39.654,12.947,44.15c2.571,4.496,10.286,19.946,10.286,19.946
			l-6.549,2.374c0,0-10.591-13.151-14.9-21.261c-4.309-8.11-8.795-23.136-9.031-31.27
			C202.257,253.516,204.266,244.281,209.618,243.503z"/>
		<path style="opacity:0.2;enable-background:new    ;" d="M244.71,229.65c-2.46,3.58-5.96,9.56-6.78,14.52
			c-5.62-6.29-4.68-13.93-4.61-14.49c0.01-0.02,0.01-0.03,0.01-0.03H244.71z"/>
		<g>
			<path style="fill:#263238;" d="M253.579,211.446c0,0,3.614,10.437-1.324,15.619c-4.938,5.182-8.626-14.808-8.626-14.808
				L253.579,211.446z"/>
			<path style="fill:#E2877B;" d="M237.283,238.652c3.499,3.465,8.201,3.673,11.888,1.712c2.372-1.258,4.32-3.421,5.264-6.189
				c0.128-0.362,0.233-0.74,0.325-1.126c1.595-7.08,0.369-18.723-7.364-21.745c-5.499-2.194-11.749,0.487-13.941,5.996
				c-0.634,1.562-0.875,3.257-0.728,4.942C233.291,230.072,233.253,234.701,237.283,238.652z"/>
			<path style="fill:#263238;" d="M244.669,224.278c-0.036,0.634,0.349,1.15,0.773,1.144c0.424-0.006,0.747-0.533,0.742-1.169
				c-0.004-0.636-0.359-1.151-0.773-1.144C244.997,223.115,244.665,223.632,244.669,224.278z"/>
			<path style="fill:#263238;" d="M251.893,224.182c-0.036,0.634,0.359,1.151,0.773,1.144c0.414-0.007,0.747-0.533,0.743-1.169
				c-0.004-0.636-0.359-1.151-0.773-1.144C252.221,223.019,251.886,223.575,251.893,224.182z"/>
			<path style="fill:#DC5753;" d="M249.602,224.527c0.787,1.944,1.839,3.77,3.126,5.427c-0.88,0.647-2.002,0.872-3.064,0.614
				L249.602,224.527z"/>
			<path style="fill:#263238;" d="M246.454,220.215c-0.128-0.058-0.276-0.043-0.39,0.039c-0.751,0.588-1.736,0.787-2.657,0.537
				c-0.193-0.072-0.408,0.027-0.479,0.22c-0.071,0.193,0.027,0.408,0.22,0.479c0,0,0.001,0,0.002,0.001
				c1.156,0.346,2.408,0.11,3.358-0.634c0.169-0.118,0.21-0.351,0.091-0.52c-0.002-0.003-0.003-0.005-0.005-0.007
				C246.553,220.285,246.506,220.246,246.454,220.215z"/>
			<path style="fill:#263238;" d="M243.778,231.838L243.778,231.838c1.86-0.252,3.726,0.419,5.001,1.797
				c0.068,0.085,0.055,0.21-0.028,0.28c-0.079,0.07-0.201,0.063-0.27-0.017c-0.003-0.004-0.006-0.008-0.009-0.012
				c-1.204-1.251-2.928-1.861-4.651-1.647c-0.104,0.017-0.202-0.054-0.219-0.159c-0.001-0.007-0.002-0.014-0.002-0.021
				c-0.017-0.104,0.054-0.203,0.159-0.219C243.764,231.839,243.771,231.838,243.778,231.838z"/>
			<path style="fill:#263238;" d="M251.201,219.84c-0.075,0.01-0.145,0.043-0.201,0.095c-0.12,0.167-0.082,0.4,0.085,0.52
				c0.002,0.002,0.004,0.003,0.007,0.005c0.977,0.714,2.241,0.908,3.388,0.52c0.191-0.077,0.283-0.295,0.205-0.486l0-0.001
				c-0.082-0.188-0.296-0.278-0.487-0.205l0,0c-0.914,0.28-1.906,0.112-2.677-0.454C251.419,219.789,251.301,219.792,251.201,219.84
				z"/>
			<path style="fill:#263238;" d="M232.443,231.892l1.825-0.058c-0.376-2.169-0.308-4.038,0.236-4.227
				c1.043-0.363,1.189,0.891,1.189,0.891c2.119-1.932,3.492-6.538,2.2-9.374c-0.605-1.329,0-2.648,1.095-3.321l-0.632-3.427
				c0,0-6.822-1.462-8.829,1.629c-2.006,3.091-0.63,7.83,1.395,14.093C231.391,229.552,231.913,230.804,232.443,231.892z"/>
			<path style="fill:#E2877B;" d="M229.385,228.723c0.894,1.764,2.452,3.102,4.33,3.719c2.493,0.8,3.839-1.409,3.236-3.818
				c-0.557-2.135-2.513-5.196-5.061-4.923C229.342,223.975,228.315,226.544,229.385,228.723z"/>
			<path style="fill:#263238;" d="M231.833,213.579c0,0-1.644-4.196,3.239-7.432c4.884-3.236,11.549-3.301,16.224-0.517
				c4.675,2.785,6.482,8.887,6.482,8.887c-1.438-0.51-2.565-0.453-3.388,0.155l0.661,2.114c-0.96-0.803-2.242-1.387-4.108-1.574
				l1.574,1.977c-3.744-1.206-8.282-1.642-13.531-1.386L231.833,213.579z"/>
		</g>
	</g>
</g>
<g id="Character_3">
	<g>
		<g>
			<g>
				<polygon style="fill:#EEC1BB;" points="317.66,352.88 309.44,373.46 304.54,385.72 298.6,385.72 302.51,371.25 308.89,347.63 
									"/>
				<polygon style="opacity:0.2;enable-background:new    ;" points="317.66,352.88 309.44,373.46 302.51,371.25 308.89,347.63 				
					"/>
				<polygon style="fill:#EEC1BB;" points="343.856,371.216 346.949,393.16 348.789,406.234 343.634,409.186 339.837,394.686 
					333.637,371.018 				"/>
				<polygon style="opacity:0.2;enable-background:new    ;" points="343.856,371.216 346.949,393.16 339.837,394.686 
					333.637,371.018 				"/>
				<g>
					<polygon style="fill:#407BFF;" points="333.975,255.926 306.3,255.359 330.391,282.766 356.29,281.045 					"/>
					<polygon style="opacity:0.3;fill:#FFFFFF;" points="333.975,255.926 306.3,255.359 330.391,282.766 356.29,281.045 					"/>
					<polygon style="fill:#FFFFFF;" points="333.364,258.924 312.005,258.486 330.597,279.639 350.586,278.31 					"/>
				</g>
				<g>
					
						<rect x="322.235" y="251.743" transform="matrix(0.328 -0.9447 0.9447 0.328 -14.3558 484.2033)" style="fill:#263238;" width="21.841" height="0.897"/>
					<path style="fill:#407BFF;" d="M328.963,264.265l1.034-1.61c-0.228-0.255-0.51-0.353-0.848-0.294L328.963,264.265z"/>
					<path style="fill:#263238;" d="M329.212,263.878c-0.039-0.107-0.107-0.13-0.204-0.071l-0.045,0.458L329.212,263.878z"/>
				</g>
				<path style="fill:#EEC1BB;" d="M347.956,265.692l-5.743-6.527c0,0-0.191-0.89-0.784-2.077c-0.593-1.187-5.98-4.549-7.935-5.242
					c-1.955-0.692-7.592,4.549-7.098,5.341s7.714,5.473,9.396,5.357c1.681-0.116,1.681-0.116,1.681-0.116l6.527,8.11
					L347.956,265.692z"/>
				<g>
					<g>
						<path style="fill:#263238;" d="M367.862,215.924c-1.999,0-3.625-1.609-3.625-3.587c0-1.978,1.626-3.587,3.625-3.587
							c1.999,0,3.625,1.609,3.625,3.587C371.487,214.315,369.861,215.924,367.862,215.924z M367.862,209.691
							c-1.442,0-2.615,1.187-2.615,2.646c0,1.458,1.173,2.646,2.615,2.646c1.441,0,2.614-1.187,2.614-2.646
							C370.476,210.878,369.303,209.691,367.862,209.691z"/>
					</g>
					<path style="fill:#EEC1BB;" d="M380.868,227.632c-1.243,0.367-2.385,0.692-3.427,0.692c0,0,0,0-0.01,0
						c-2.386,0-4.266-0.296-5.742-1.322c-3.336-2.324-4.549-7.456-4.64-13.799c-0.141-8.281,2.234-12.783,10.816-13.47
						C392.129,198.594,395.171,223.482,380.868,227.632z"/>
					<path style="opacity:0.2;enable-background:new    ;" d="M384.537,223.802c-1.769,2.051-4.498,3.581-7.096,4.522
						c0,0,0,0-0.01,0c-2.386,0-4.266-0.285-5.742-1.31C376.016,223.739,384.537,223.802,384.537,223.802z"/>
					<path style="fill:#2E353A;" d="M372.082,204.052c0,0-4.38,8.296,3.084,12.972c0,0,5.113,7.9,13.356,6.836
						c8.243-1.064,13.125-13.035,7.684-23.454c-5.161-9.881-22.735-4.412-22.735-4.412c-7.502-3.164-10.545,5.902-4.977,8.74
						C368.492,204.733,369.892,203.856,372.082,204.052z"/>
					<path style="fill:#EEC1BB;" d="M372.164,214.582c-0.098-1.447,1.071-3.983,3.681-3.859c2.702,0.129,4.588,5.749-1.904,7.553
						C373.009,218.535,372.367,217.601,372.164,214.582z"/>
					<path style="fill:#2E353A;" d="M367.044,200.299c0,0-0.842,4.04,5.114,10.419c5.956,6.379,13.66,9.344,13.66,9.344
						l-1.281-25.578l-14.045,0.854L367.044,200.299z"/>
					<rect x="364.666" y="211.663" style="fill:#263238;" width="7.491" height="0.988"/>
				</g>
				<path style="fill:#EEC1BB;" d="M380.126,241.651c6.26,0.714,14.406-3.75,14.406-3.75c-5.909-3.786-6.815-14.099-6.815-14.099
					c-5.723-2.217-10.149,2.985-10.149,2.985c0.507,1.467,0.827,2.714,1.019,3.779c0.993,5.516-1.683,5.957-1.683,5.957
					C375.686,239.764,378.543,241.471,380.126,241.651z"/>
				<path style="fill:#407BFF;" d="M375.249,235.183l2.864-4.304c5.051-3.878,12.085-2.514,12.085-2.514l3.945,6.912
					C394.143,235.277,381.041,235.822,375.249,235.183z"/>
				<path style="fill:#EEC1BB;" d="M373.374,273.843c-7.653-1.457-14.734-3.62-14.734-3.62l-2.023,4.84c0,0,7.782,3.75,16.758,6.629
					V273.843z"/>
				<path style="fill:#407BFF;" d="M407.097,250.883c-0.053-7.517-2.372-9.35-2.372-9.35l-4.213,10.74l1.227,29.432
					C401.739,281.705,407.151,258.4,407.097,250.883z"/>
				<path style="fill:#407BFF;" d="M402.958,281.475c1.581,0.412-1.488-25.323,1.767-39.942c0,0-2.464-4.271-12.101-6.988
					c-11.201-3.158-25.066,2.268-29.296,3.867c0,0-2.891,23.739,6.272,45.463C369.6,283.875,381.8,283.586,402.958,281.475z"/>
				<path style="opacity:0.2;enable-background:new    ;" d="M402.958,281.475c1.138,0.19-1.195-25.535,1.767-39.942
					c0,0-2.464-4.271-12.101-6.988c-11.201-3.158-25.066,2.268-29.296,3.867c0,0-2.891,23.739,6.272,45.463
					C369.6,283.875,381.8,283.586,402.958,281.475z"/>
				<path style="fill:#EEC1BB;" d="M359.869,270.585c0,0-8.04-3.433-10.826-4.165c-2.786-0.733-3.023,8.143-1.792,9.448
					c1.23,1.304,11.955,1.269,12.755,0.03C360.806,274.658,359.869,270.585,359.869,270.585z"/>
				<g>
					<path style="fill:#2E353A;" d="M287.385,394.392c1.011-0.433,2.098-0.69,3.208-0.759l0,0c0,0,3.839-2.104,7.644-10.277
						l4.279-0.023c1.481,0.016,2.794,0.891,3.287,2.192c0.07,0.177,0.111,0.363,0.121,0.551c-0.043,0.963-0.153,1.921-0.329,2.871
						c-0.385,2.98-2.501,9.372-2.501,9.372l-0.725-0.172l1.318-5.944c0.438-2.02-1.841-0.069-2.898,1.968
						c-1.057,2.036-2.679,4.086-7.405,3.08C287.879,396.052,285.659,395.314,287.385,394.392z"/>
					<path style="fill:#2E353A;" d="M305.925,385.627c0.809-1.932,1.84-5.38,1.84-5.38l-9.167-1.192c0,0,0.001,4.199-1.698,6.949
						C301.69,385.971,305.925,385.627,305.925,385.627z"/>
				</g>
				<path style="fill:#2E353A;" d="M386.862,221.577c0,0,1.213-6.352,8.457-6.587c7.244-0.235,6.065,5.96,8.087,7.293
					c2.022,1.333,3.285,0.314,4.802,2.274c1.516,1.961-0.842,4.235-0.758,6.195c0.084,1.96,2.696,2.353,2.696,5.019
					c0,2.666-3.032,2.902-4.128,6.117c-1.095,3.215,0.927,3.468,0.927,5.342c0,1.874-0.674,3.05-3.201,2.971
					c0,0,2.087-1.099,0.706-2.353s-4.952-2.431-5.946-4.94c-0.994-2.509,3.47-5.254-0.657-7.921
					c-4.128-2.666-6.318-0.863-7.834-6.117C388.496,223.616,386.862,221.577,386.862,221.577z"/>
				<path style="display:none;fill:#E4897B;" d="M366.697,231.412c-6.535-3.149-29.76,12.387-34.754,11.917
					c-7.609-0.717-19.603-24.28-19.603-24.28l-5.163,1.967c0,0,9.267,29.841,20.891,32.821c9.206,2.36,34.895-6.113,34.884-6.9
					C362.952,246.938,374.388,235.118,366.697,231.412z"/>
				<path style="display:none;fill:#407BFF;" d="M317.132,223.88l-8.529,6.9c0,0,10.045,22.693,21.569,24.669
					s32.724-7.34,32.724-7.34s7.618-6.658,7.618-13.563c0-6.905-10.184-3.766-10.184-3.766l-28.187,9.424L317.132,223.88z"/>
				<path style="fill:#407BFF;" d="M363.328,238.412c9.518,4.104,6.765,41.34-2.701,43.812
					c-9.466,2.471-21.481-15.847-21.481-15.847l5.644-5.532c0,0,8.995,8.39,10.877,8.217c1.882-0.172,3.106-18.114,3.623-21.921
					C360.329,239.484,363.328,238.412,363.328,238.412z"/>
				<g>
					<g>
						<path style="fill:#407BFF;" d="M402.958,281.475c0,0-31.023-4.122-33.358,2.4c-0.455,1.261-0.95,8.736-1.314,10.854
							c-0.354,1.995-0.597,3.67-0.597,3.67s-0.01,0-0.02-0.009c-0.96-0.226-28.061-7.708-40.332,0.009
							c-8.89,5.598-18.98,45.36-24.611,69.426l8.54,3c9.668-20.926,24.667-52.193,28.029-52.324
							c5.054-0.198,56.516,21.824,69.414,9.608C421.608,315.903,402.958,281.475,402.958,281.475z"/>
					</g>
					<g style="opacity:0.6;enable-background:new    ;">
						<path style="fill:#FFFFFF;" d="M402.958,281.475c0,0-31.023-4.122-33.358,2.4c-0.455,1.261-0.95,8.736-1.314,10.854
							c-0.354,1.995-0.597,3.67-0.597,3.67s-0.01,0-0.02-0.009c-0.96-0.226-28.061-7.708-40.332,0.009
							c-8.89,5.598-18.98,45.36-24.611,69.426l8.54,3c9.668-20.926,24.667-52.193,28.029-52.324
							c5.054-0.198,56.516,21.824,69.414,9.608C421.608,315.903,402.958,281.475,402.958,281.475z"/>
					</g>
				</g>
				<g>
					<path style="fill:#2E353A;" d="M333.576,418.54c0.858-0.659,1.839-1.166,2.894-1.496l0,0c0,0,3.135-2.947,4.573-11.753
						l4.131-1.039c1.437-0.337,2.946,0.198,3.779,1.338c0.117,0.154,0.207,0.325,0.268,0.504c0.222,0.941,0.379,1.894,0.469,2.854
						c0.445,2.973,0.151,9.656,0.151,9.656l-0.748,0.006l-0.355-6.06c-0.13-2.057-1.799,0.371-2.263,2.591
						c-0.464,2.22-1.47,4.587-6.315,4.738C334.508,420.028,332.16,419.842,333.576,418.54z"/>
					<path style="fill:#2E353A;" d="M349.098,405.66c0.252-2.06,0.303-5.638,0.303-5.638l-9.19,1.025c0,0,1.152,4.059,0.263,7.122
						C345.098,406.999,349.098,405.66,349.098,405.66z"/>
				</g>
				<g>
					<g>
						<path style="fill:#407BFF;" d="M347.188,388.407c-2.758-25.308-6.285-51.248-6.505-52.987
							c0.943,0.392,32.792-4.133,47.035-4.776c0,0-23.481-3.941-36.315-9.705c-3.341-1.501-12.691-6.315-12.694-6.316h0
							c0,0-18.953,0.941-19.206,10.587c-0.168,6.411,10.66,42.026,17.943,65.197L347.188,388.407z"/>
					</g>
					<g style="opacity:0.5;">
						<path style="fill:#FFFFFF;" d="M347.188,388.407c-2.758-25.308-6.285-51.248-6.505-52.987
							c0.943,0.392,32.792-4.133,47.035-4.776c0,0-23.481-3.941-36.315-9.705c-3.341-1.501-12.691-6.315-12.694-6.316h0
							c0,0-18.953,0.941-19.206,10.587c-0.168,6.411,10.66,42.026,17.943,65.197L347.188,388.407z"/>
					</g>
				</g>
			</g>
			<g>
				<g>
					<g>
						<polygon style="fill:#263238;" points="371.132,338.267 371.461,352.489 372.959,418.997 377.9,418.997 379.389,352.489 
							379.718,338.267 						"/>
						<polygon style="opacity:0.1;fill:#FFFFFF;enable-background:new    ;" points="371.132,338.267 371.461,352.489 
							372.959,418.997 377.9,418.997 379.389,352.489 379.718,338.267 						"/>
						<polygon style="opacity:0.2;enable-background:new    ;" points="371.132,338.267 371.461,352.882 379.389,352.882 
							379.718,338.267 						"/>
					</g>
					<g>
						<polygon style="fill:#263238;" points="386.533,338.267 386.862,352.489 388.359,418.997 393.301,418.997 394.789,352.489 
							395.118,338.267 						"/>
						<polygon style="opacity:0.2;fill:#FFFFFF;enable-background:new    ;" points="386.533,338.267 386.862,352.489 
							388.359,418.997 393.301,418.997 394.789,352.489 395.118,338.267 						"/>
						<polygon style="opacity:0.2;enable-background:new    ;" points="386.533,338.267 386.862,352.882 394.789,352.882 
							395.118,338.267 						"/>
					</g>
					<g>
						<g>
							<polygon style="fill:#263238;" points="344.299,418.769 348.863,339.272 356.326,339.272 349.935,418.769 							"/>
							<polygon style="opacity:0.2;fill:#FFFFFF;enable-background:new    ;" points="349.948,418.769 344.307,418.769 
								348.449,346.214 348.86,339.181 356.323,339.181 355.747,346.214 							"/>
							<polygon style="opacity:0.2;enable-background:new    ;" points="356.323,339.181 355.747,346.488 348.449,346.488 
								348.86,339.181 							"/>
						</g>
						<g>
							<polygon style="fill:#263238;" points="417.874,418.769 411.483,339.272 418.945,339.272 423.51,418.769 							"/>
							<polygon style="opacity:0.1;fill:#FFFFFF;enable-background:new    ;" points="417.86,418.769 412.061,346.214 
								411.486,339.181 418.948,339.181 419.359,346.214 423.502,418.769 							"/>
							<polygon style="opacity:0.2;enable-background:new    ;" points="411.486,339.181 412.061,346.488 419.359,346.488 
								418.948,339.181 							"/>
						</g>
					</g>
					<path style="fill:#407BFF;" d="M349.865,331.265h68.078c2.761,0,5,2.239,5,5v5.677h-78.078v-5.677
						C344.865,333.504,347.104,331.265,349.865,331.265z"/>
					<g>
						<path style="fill:#263238;" d="M343.948,336.603h79.912c1.111,0,2.011,0.901,2.011,2.011v1.316
							c0,1.111-0.901,2.011-2.011,2.011h-79.912c-1.111,0-2.011-0.901-2.011-2.011v-1.316
							C341.937,337.504,342.837,336.603,343.948,336.603z"/>
						<path style="opacity:0.4;fill:#FFFFFF;enable-background:new    ;" d="M343.948,336.603h79.912
							c1.111,0,2.011,0.901,2.011,2.011v1.316c0,1.111-0.901,2.011-2.011,2.011h-79.912c-1.111,0-2.011-0.901-2.011-2.011v-1.316
							C341.937,337.504,342.837,336.603,343.948,336.603z"/>
					</g>
				</g>
				<g>
					<path style="fill:#407BFF;" d="M379.718,276.962l2.64-21.379c0-2.596,2.105-4.701,4.701-4.701h6.289l-2.64,30.78h-6.289
						C381.822,281.663,379.718,279.558,379.718,276.962z"/>
					<g>
						<g>
							<polygon style="fill:#263238;" points="385.538,336.853 396.751,254.994 391.036,254.213 379.718,336.866 							"/>
						</g>
						<g>
							<polygon style="fill:#263238;" points="421.287,336.866 432.508,254.994 426.794,254.213 415.475,336.866 							"/>
						</g>
						<g style="opacity:0.2;enable-background:new    ;">
							<polygon style="fill:#FFFFFF;" points="385.538,336.853 396.751,254.994 391.036,254.213 379.718,336.866 							"/>
						</g>
						<g style="opacity:0.2;enable-background:new    ;">
							<polygon style="fill:#FFFFFF;" points="421.287,336.866 432.508,254.994 426.794,254.213 415.475,336.866 							"/>
						</g>
					</g>
					<g>
						<polygon style="fill:#263238;" points="383.043,282.224 434.365,282.224 438.466,250.205 387.144,250.205 						"/>
						<polygon style="opacity:0.6;fill:#FFFFFF;enable-background:new    ;" points="383.043,282.224 434.365,282.224 
							438.466,250.205 387.144,250.205 						"/>
					</g>
				</g>
			</g>
		</g>
	</g>
</g>
</svg>
