<?xml version="1.0" encoding="utf-8"?>
<!-- Generator: Adobe Illustrator 27.5.0, SVG Export Plug-In . SVG Version: 6.00 Build 0)  -->
<svg version="1.1" xmlns="http://www.w3.org/2000/svg" xmlns:xlink="http://www.w3.org/1999/xlink" x="0px" y="0px"
	 viewBox="0 0 500 500" style="enable-background:new 0 0 500 500;" xml:space="preserve">
<g id="BACKGROUND">
	<rect style="fill:#FFFFFF;" width="500" height="500"/>
</g>
<g id="OBJECTS">
	<path style="fill:#FFF4F0;" d="M40.624,398.144c-0.584-6.331-0.89-13.001-2.393-17.666c-8.112-25.174-1.717-48.726-0.603-74.086
		c1.123-25.541,8.179-48.12,22.111-69.647c19.232-29.717,43.238-44.816,72.523-63.323c29.057-18.363,54.077-38.895,76.08-65.201
		c29.158-34.861,55.863-56.813,105.438-48.272c26.83,4.623,48.664,17.834,68.674,35.547c17.868,15.817,32.866,24.59,47.009,44.944
		c13.684,19.694,23.922,41.715,30.148,64.874c16.049,59.692-2.463,108.041-16.674,165.029c-3.07,12.309-4.387,27.432-11.319,38.307
		c-9.594,15.052-45.754,9.126-60.894,11.216c-46.417,6.405-90.557,3.632-137.186,3.424c-25.039-0.111-50.26,4.376-75.333,5.601
		c-23.373,1.142-45.328-2.866-68.476-6.012c-11.77-1.6-39.311,0.635-45.774-10.173C41.902,409.271,41.15,403.845,40.624,398.144z"/>
	<g>
		<path style="fill:#F0DDA8;" d="M419.401,445.765c7.445-0.757,14.743-2.014,21.704-4.13c8.486-2.581,23.135-6.899,26.762-16.294
			c4.357-11.286-7.929-16.268-15.898-19.741c-13.892-6.053-26.379-5.699-41.112-5.738c-19.239-0.05-38.239-1.798-57.597-0.962
			c-21.801,0.941-43.63,1.725-65.457,1.724c-38.725-0.001-77.628-3.957-116.332-2.265c-34.433,1.506-70.296,1.977-104.532,5.548
			c-11.461,1.195-30.637,6.779-34.886,19.059c-5.975,17.27,21.843,26.101,34.392,27.323c17.734,1.728,36.666-0.706,54.572-0.704
			c84.246,0.009,168.493,0.121,252.617-2.371C388.39,446.776,404.202,447.311,419.401,445.765z"/>
		<path style="fill:none;stroke:#FFFFFF;stroke-miterlimit:10;" d="M412.59,439.68c6.826-0.541,13.518-1.44,19.899-2.952
			c7.78-1.845,21.212-4.932,24.537-11.649c3.994-8.069-7.27-11.63-14.577-14.113c-12.737-4.327-24.186-4.074-37.694-4.102
			c-17.639-0.036-35.06-1.285-52.809-0.688c-19.989,0.672-40.003,1.233-60.015,1.233c-35.506-0.001-71.174-2.829-106.662-1.619
			c-31.571,1.077-64.452,1.413-95.842,3.966c-10.508,0.855-28.09,4.846-31.986,13.625c-5.478,12.346,20.027,18.659,31.533,19.533
			c16.26,1.235,33.618-0.504,50.035-0.503c77.243,0.006,154.487,0.087,231.617-1.695C384.157,440.403,398.655,440.786,412.59,439.68
			z"/>
		<path style="fill:none;stroke:#FFFFFF;stroke-miterlimit:10;" d="M406.151,433.085c12.517-1.647,22.309-4.87,18.031-11.172
			c-3.983-5.868-16.312-6.875-22.503-7.083c-9.921-0.333-19.782,0.887-29.723,0.564c-11.166-0.363-22.324-0.496-33.492-0.888
			c-10.323-0.362-20.542,1.43-30.836,0.911c-8.857-0.447-17.567-1.966-26.412-2.464c-7.192-0.405-14.08,0.287-21.249,0.632
			c-27.388,1.32-54.644-0.716-81.983,0.678c-11.588,0.591-23.184-0.049-34.774-0.195c-10.458-0.132-20.547,0.449-30.936-0.459
			c-3.374-0.294-6.876,1.176-10.123,1.872c-4.841,1.038-10.293,1.061-14.959,2.512c-3.172,0.986-10.718,5.079-10.767,8.98
			c-0.071,5.741,8.07,6.147,11.71,6.071c5.205-0.108,9.75,1.202,14.9,1.449c7.755,0.372,15.397,0.877,23.176,0.704
			c13.012-0.289,26.392,0.341,39.385,0.564c13.262,0.227,26.652,0.5,39.986,0.491c28.656-0.02,57.312-0.083,85.968-0.265
			c25.612-0.163,51.452,0.424,76.966-1.164C370.016,434.73,390.275,435.174,406.151,433.085z"/>
	</g>
	<g>
		<path style="fill:#B5C2EA;" d="M221.055,397.089c-1.095-7.663-1.87-15.366-2.666-23.063c-1.57-15.179-9.287-60.254-6.831-45.195
			c1.743,10.685-0.661-4.04-3.4-20.877c-0.188-1.153-0.874-2.175,0.048-2.734c0.616-0.373,2.288-0.239,3.041-0.405
			c1.692-0.373,4.409-1.09,4.88-3.015c1.3-5.307-15.108-3.25-17.8-3.142c-3.067,0.123-6.262,0.426-9.201,1.321
			c-1.188,0.362-3.049,0.922-3.582,2.174c-0.864,2.03,1.539,3.209,3.224,3.376c1.288,0.128,2.525-0.012,3.807-0.138
			c0.599-0.059,1.201-0.086,1.803-0.102c-0.784,16.06-3.179,31.981-5.12,47.933c-0.974,8.002-1.829,16.022-2.294,24.069
			c-0.4,6.943-1.192,13.847-1.846,20.769c-0.305,3.225-0.599,6.48-0.767,9.741h2.116c0.137-2.571,0.35-5.137,0.579-7.688
			c0.608-6.784,1.459-13.55,1.884-20.349c1-16.008,3.198-31.852,5.135-47.769c1.081-8.887,1.997-17.796,2.42-26.738
			c0.186-0.002,0.371-0.003,0.557-0.005c2.172-0.032,4.356-0.079,6.531,0.005c0.223,0.011,0.445,0.025,0.668,0.032
			c0.476,0.025,0.951,0.061,1.425,0.102c1.948,14.392,4.792,28.648,7.164,42.976c1.23,7.432,2.306,14.884,3.094,22.374
			c0.81,7.701,1.549,15.411,2.555,23.091c0.494,3.766,1.154,7.446,1.996,11.151c0.212,0.932,0.423,1.872,0.618,2.818h2.178
			C222.58,404.216,221.564,400.655,221.055,397.089z"/>
		<g>
			<g>
				<g>
					<path style="fill:#B5C2EA;" d="M242.939,242.462c-3.224-2.95-6.624-5.745-10.228-8.29c-4.078-2.879-8.501-5.608-13.402-7.179
						c-9.04-2.897-14.283,1.441-19.385,8.286c0.844-5.596,0.779-11.39,1.737-17.056c0.511-3.026,0.639-10.08,2.969-12.186
						c1.03-0.931,4.583-1.806,5.755-2.366c2.856-1.364,5.69-2.827,8.499-4.279c4.079-2.107,10.128-5.034,12.182-9.437
						c2.419-5.188-6.414-7.438-10.33-7.226c-5.876,0.317-11.303,2.661-15.613,6.546c-5.27,4.75-7.084,9.91-7.517,16.837
						c-0.33,5.281-1.348,10.418-1.594,15.758c-0.529-3.037-1.024-6.081-1.395-9.146c-0.201-4.404-0.391-8.809-0.577-13.214
						c0.084-1.013,0.198-2.024,0.376-3.026c2.74-15.438,14.168-27.73,16.817-43.234c0.829-4.852-0.644-16.305-5.053-19.668
						c-14.162-10.801-21.864,34.196-21.713,41.559c0.198,9.633,1.961,17.959,3.618,27.337c0.653,3.697,1.41,7.372,2.124,11.055
						c0.8,4.128,1.871,8.398,2.508,12.408c-1.033-6.318-3.194-12.579-4.67-18.829c-1.33-5.634-1.965-11.313-4.419-16.637
						c-1.982-4.3-6.945-8.482-11.68-9.533c-5.687-1.262-14.05,3.169-19.478,4.789c-2.759,0.824-8.042,3.29-9.119,6.056
						c-2.925,7.511,11.27,9.65,16.148,9.606c3.903-0.035,8.138-1.181,11.973-1.012c0.354,0.016,1.81-0.527,2.259-0.245
						c1.418,0.892,2.436,4.719,3.618,6.26c2.112,2.753,3.613,5.85,5.009,9.005c1.461,3.303,2.337,6.833,3.374,10.28
						c1.393,4.63,2.894,9.228,4.222,13.877c0.887,3.108,1.559,6.274,2.38,9.397c-2.534-6.571-5.005-13.167-8.389-19.381
						c-1.291-2.371-2.689-4.72-4.274-6.924c-1.266-1.76-2.738-3.466-4.644-4.652c-4.199-2.613-9.424-1.854-14.044-0.149
						c-2.919,1.077-5.736,2.517-8.289,4.255c-2.367,1.612-4.593,3.522-6.1,5.888c-0.183,0.287-0.022,0.765,0.314,0.866
						c5.504,1.652,11.486,1.135,17.251,1.287c3.866,0.102,7.83-0.682,11.664-0.186c0.621,0.08,1.289,0.181,1.764,0.575
						c0.671,0.556,1.051,1.436,1.385,2.198c0.739,1.687,1.207,3.534,2.322,5.042c0.378,0.512,0.774,1.01,1.178,1.502
						c1.496,3.086,2.98,6.177,4.361,9.314c1.397,3.173,2.688,6.393,3.774,9.68c0.509,1.541,0.987,3.097,1.376,4.672
						c0.009,0.035,0.016,0.071,0.025,0.107c0.165,1.406,0.238,2.82,0.167,4.24c-0.018,0.35,0.539,0.59,0.667,0.19
						c0.009-0.029,0.015-0.059,0.027-0.097c0.103-0.336,0.18-0.675,0.237-1.016c0.039,0.054,0.08,0.106,0.123,0.156
						c-0.053,0.165,0.047,0.35,0.222,0.42c0.077,0.134,0.229,0.232,0.421,0.177c0.038-0.011,0.075-0.021,0.113-0.032
						c0.101,0.043,0.207,0.08,0.321,0.106c0.523,0.12,1.077,0.069,1.625-0.051c0.266-0.001,0.532-0.005,0.797-0.008
						c0,0.012,0.001,0.024,0,0.036c1.345-0.144,2.715-0.14,4.07-0.151c0.625-0.03,1.25-0.048,1.875-0.05
						c0.43-0.001,0.604,0.315,0.559,0.618c0.008,0.042,0.01,0.085,0.01,0.128c0.313,0.036,0.624,0.082,0.937,0.121
						c0.034-0.069,0.059-0.144,0.065-0.229c0.015-0.217-0.096-0.423-0.276-0.547c0.101-0.12,0.166-0.265,0.146-0.432
						c-0.011-0.092-0.048-0.181-0.099-0.264c0.037-0.238,0.073-0.477,0.114-0.713c0.331-1.941,0.769-3.87,1.224-5.794
						c0.47-1.99,0.945-3.977,1.474-5.951c0.119-0.085,0.223-0.196,0.276-0.358c0.839-2.573,1.742-5.13,2.697-7.672
						c0.452-1.204,0.93-2.4,1.385-3.603c0.262-0.695,0.461-1.572,0.958-2.201c0.693,0.54,1.518,0.847,2.453,1.046
						c1.372,0.293,2.682,0.597,4.03,0.974c3.108,0.869,6.277,0.958,9.527,1.094c0.873,0.037,1.746,0.081,2.617,0.145
						c0.64,0.07,1.282,0.132,1.924,0.187c0.23,0.027,0.461,0.051,0.691,0.082c1.217,0.168,2.4,0.469,3.62,0.619
						c1.991,0.246,4.611,0.488,6.444-0.601C244.139,243.211,243.609,242.333,242.939,242.462z M194.745,265.726
						c0.003-0.031,0.007-0.062-0.001-0.098c-0.106-0.491-0.227-0.979-0.354-1.465c-0.001-0.017,0.003-0.034,0.003-0.052
						c0.011-0.002,0.022-0.004,0.033-0.007c0.302,0.501,0.627,0.991,0.965,1.473C195.174,265.616,194.958,265.663,194.745,265.726z
						 M195.279,225.93c-0.005-0.083-0.01-0.166-0.015-0.248c0.252,1.391,0.5,2.783,0.744,4.176c0.008,0.157,0.021,0.314,0.029,0.471
						C195.782,228.864,195.526,227.398,195.279,225.93z M196.651,265.497c-0.166-0.333-0.378-0.647-0.605-0.951
						c0.159,0.019,0.329-0.101,0.383-0.265c0.069,0.227,0.146,0.452,0.212,0.68c0.019,0.178,0.024,0.358,0.037,0.537
						C196.669,265.498,196.66,265.497,196.651,265.497z"/>
					<path style="fill:#BBD1A8;" d="M201.612,265.961c-0.009,0.002-0.016,0.005-0.025,0.008c0,0,0,0,0,0
						C201.595,265.966,201.604,265.964,201.612,265.961z"/>
				</g>
				<g>
					<path style="fill:#FCCFCF;" d="M189.532,302.432c1.269,0.367,3.064,0.241,4.302,0.335c2.121,0.162,4.34,0.339,6.462,0.178
						c3.576-0.272,7.808-0.154,10.766-2.047c2.823-1.807,3.889-5.258,4.738-7.93c2.813-8.861,2.184-18.005,2.851-27.043
						c0.058-0.783-0.733-1.443-1.729-1.443h-36.059c-1.016,0-1.813,0.685-1.725,1.481c0.552,5.011,0.6,10.049,1.168,15.06
						c0.514,4.536,1.306,9.126,3.151,13.455c0.826,1.938,1.875,3.834,3.305,5.54c0.572,0.682,1.363,1.8,2.268,2.228
						C189.184,302.319,189.352,302.38,189.532,302.432z"/>
				</g>
				<g>
					<path style="fill:#272722;" d="M211.538,270.094c-0.04,2.805-0.279,5.593-0.459,8.391c-0.175,2.722-0.326,5.461-1.047,8.108
						c-0.137,0.503,0.686,0.622,0.823,0.121c0.738-2.709,0.879-5.514,1.059-8.298c0.182-2.805,0.411-5.599,0.451-8.411
						C212.372,269.484,211.545,269.577,211.538,270.094z"/>
					<path style="fill:#272722;" d="M209.217,290.239c-0.881,1.908-0.871,4.073-1.723,5.99c-0.213,0.479,0.546,0.81,0.76,0.33
						c0.854-1.919,0.844-4.085,1.723-5.99C210.197,290.093,209.438,289.762,209.217,290.239z"/>
				</g>
			</g>
			<path style="fill:#111314;" d="M199.968,143.778c-2.392,7.266-5.785,14.171-8.212,21.424c-1.208,3.609-2.184,7.306-2.639,11.082
				c-0.464,3.852-0.454,7.752-0.201,11.619c0.286,4.359,0.891,8.691,1.578,13.005c0.069,0.434,0.767,0.362,0.697-0.075
				c-1.214-7.625-2.233-15.406-1.52-23.129c0.699-7.561,3.474-14.685,6.338-21.678c1.62-3.957,3.264-7.909,4.6-11.969
				C200.746,143.641,200.106,143.358,199.968,143.778z"/>
			<path style="fill:#111314;" d="M185.598,208.073c-1.291-3.767-1.479-7.99-3.732-11.402c-2.535-3.839-7.573-5.171-11.946-5.7
				c-2.773-0.336-5.569-0.444-8.335-0.838c-0.446-0.063-0.553,0.613-0.105,0.677c4.682,0.666,9.618,0.448,14.097,2.122
				c2.046,0.765,4.077,1.915,5.388,3.668c1.17,1.563,1.804,3.44,2.304,5.293c0.576,2.137,0.954,4.326,1.674,6.425
				C185.087,208.737,185.741,208.491,185.598,208.073z"/>
		</g>
		<path style="fill:none;stroke:#272722;stroke-width:0.75;stroke-linecap:round;stroke-miterlimit:10;" d="M208.753,305.074
			c-2.944,0-5.869,0.268-8.799,0.277c-2.178,0.007-4.709,0-6.926-0.01"/>
		<path style="fill:#111314;" d="M212.064,239.38c-1.106-0.98-2.099-2.107-2.627-3.492c-0.219-0.574-1.127-0.233-0.909,0.34
			c0.586,1.538,1.688,2.795,2.918,3.885c0.195,0.172,0.524,0.126,0.685-0.065C212.305,239.841,212.259,239.553,212.064,239.38z"/>
		<path style="fill:#111314;" d="M180.14,229.387c-0.164-0.204-0.457-0.261-0.679-0.109c-0.076,0.052-0.154,0.103-0.233,0.15
			c-0.035,0.021-0.07,0.041-0.105,0.061c-0.011,0.006-0.022,0.012-0.033,0.018c-0.156,0.077-0.314,0.148-0.478,0.208
			c-0.077,0.028-0.155,0.054-0.233,0.078c-0.045,0.014-0.09,0.027-0.135,0.039c-0.027,0.007-0.172,0.058-0.05,0.013
			c-0.158,0.058-0.353,0.067-0.519,0.084c-0.253,0.026-0.47,0.271-0.43,0.524c0.04,0.255,0.266,0.448,0.537,0.42
			c0.805-0.084,1.585-0.37,2.247-0.824C180.237,229.907,180.301,229.587,180.14,229.387z"/>
		<path style="fill:#111314;" d="M175.063,224.268c-0.758-0.639-1.583-1.224-2.551-1.512c-0.87-0.259-1.78-0.271-2.682-0.264
			c-2.448,0.018-5.056-0.72-7.444,0.032c-0.51,0.161-0.21,0.917,0.298,0.757c2.213-0.696,4.658,0.051,6.926,0.021
			c0.851-0.012,1.732-0.03,2.56,0.195c0.906,0.247,1.664,0.808,2.366,1.398C174.941,225.236,175.467,224.609,175.063,224.268z"/>
		<path style="fill:#111314;" d="M232.949,238.291c-3.101-1.676-6.599-2.529-9.961-3.551c-1.758-0.534-3.601-1.013-5.254-1.818
			c-1.509-0.735-2.779-1.872-4.457-2.253c-0.537-0.122-0.664,0.706-0.128,0.828c1.663,0.378,2.941,1.614,4.465,2.298
			c1.667,0.747,3.461,1.234,5.208,1.766c3.303,1.006,6.731,1.848,9.778,3.495C233.083,239.317,233.429,238.55,232.949,238.291z"/>
		<path style="fill:#111314;" d="M222.284,186.867c-1.792,0.402-3.145,1.657-4.624,2.639c-1.733,1.151-3.809,1.639-5.691,2.498
			c-2.988,1.365-5.677,3.332-7.597,5.972c-1.122,1.542-1.965,3.251-2.589,5.037c-0.171,0.488,0.585,0.822,0.757,0.329
			c1.049-3.002,2.747-5.74,5.24-7.808c1.236-1.025,2.616-1.88,4.07-2.579c1.77-0.852,3.704-1.348,5.436-2.275
			c1.713-0.917,3.132-2.57,5.088-3.009C222.889,187.556,222.804,186.751,222.284,186.867z"/>
		<path style="fill:none;stroke:#222221;stroke-width:0.75;stroke-linecap:round;stroke-miterlimit:10;" d="M200.665,234.337
			c-2.346,7.97-0.756,17.362-0.756,25.574"/>
		<path style="fill:none;stroke:#222221;stroke-width:0.75;stroke-linecap:round;stroke-miterlimit:10;" d="M196.128,221.303
			c0.683,2.972,0.715,6.056,0.756,9.099"/>
		<path style="fill:none;stroke:#222221;stroke-width:0.75;stroke-linecap:round;stroke-miterlimit:10;" d="M195.251,247.099
			c0.537,4.619,1.264,9.291,1.427,13.942"/>
		<path style="fill:none;stroke:#222221;stroke-width:0.75;stroke-linecap:round;stroke-miterlimit:10;" d="M192.083,224.516
			c1.09,5.938,1.999,11.91,2.618,17.913"/>
	</g>
	<g>
		<path style="fill:#222221;" d="M445.765,410.47c-0.586-1.844-2.519-2.162-4.212-2.475c-1.001-0.185-12.538-1.01-12.538-0.551
			c0-0.001,0-90.662,0-90.662c0-1.349-2.088-1.111-2.088,0.231c0,2.18,0,4.36,0,6.54c0,5.462,0,10.924,0,16.386
			c0,7.135,0,14.27,0,21.405c0,7.199,0,14.397,0,21.596c0,5.653,0,11.307,0,16.96c0,1.745,0,3.489,0,5.233
			c0,0.489,0.081,1.059,0,1.541c-0.019,0.11,0.06,0.371,0.002,0.463c-0.431,0.678-3.611,0.007-4.478,0.003
			c-0.139,0-0.278,0.001-0.418,0.004c-2.245,0.054-4.812,0.607-7.004,1.093c-1.427,0.316-3.326,0.751-2.917,2.566
			c0.377,1.674,1.987,2.805,3.543,3.177c3.14,0.749,31.776,2.359,30.14-3.412C445.785,410.534,445.775,410.502,445.765,410.47z"/>
		<path style="fill:#FCCFCF;" d="M450.64,352.778c-0.149,0.164-0.317,0.305-0.507,0.418c-1.394,0.829-4.682,0.217-6.255,0.217
			c-8.245,0-16.49,0-24.735,0c-4.182,0-8.43,0.219-12.605-0.002c-2.058-0.109-1.962-0.731-2.215-2.94
			c-0.201-1.751-0.206-3.625,0.46-5.286c0.781-1.949,2.726-2.864,4.269-4.216c-2.379-1.557-3.973-5.258-4.131-8.054
			c-0.11-1.945,0.681-3.043,2.162-4.275c0.802-0.667,2.152-1.071,2.717-1.804c-2.677-2.016-5.511-1.922-5.968-5.884
			c-0.528-4.587,1.375-8.669,6.103-9.708c-1.274-0.775-2.917-1.247-4.004-2.324c-1.425-1.413-1.55-3.458-1.729-5.354
			c-0.349-3.68-0.007-8.936,4.7-9.053c-2.28-1.536-5.991-3.355-6.312-6.539c-0.169-1.674,0.215-4.221,0.871-5.751
			c1.118-2.609,3.262-2.855,5.469-4.158c-4.575-0.706-5.214-4.793-5.276-8.656c-0.027-1.667-0.618-3.445-0.1-5.063
			c0.302-0.944,3.496-4.735,4.561-4.371c-3.504-1.198-5.812-5.555-6.089-9.043c-0.399-5.023,2.075-6.637,5.836-9.146
			c-0.632-1.436-2.184-2.371-3.088-3.646c-1.771-2.498-0.268-4.436-0.359-7.065c-0.082-2.358-0.967-3.922,0.157-6.334
			c0.913-1.96,2.7-2.92,3.95-4.501c-2.952-2.019-5.814-2.857-5.24-6.939c0.303-2.152,0.613-4.667,1.673-6.559
			c1.095-1.953,2.946-2.519,4.293-4.096c-2.457-1.542-4.525-3.107-5.528-5.963c-1.808-5.151,2.853-10.838,6.927-13.46
			c-1.538-0.485-2.582-1.874-3.643-3.073c-2.915-3.295-2.878-8.385-2.39-12.536c0.503-4.283,4.02-5.194,7.728-5.773
			c5.909-0.923,11.487-1.733,17.502-1.523c5.973,0.209,13.56-0.238,18.774,3.003c5.109,3.176,2.334,12.502-1.922,15.343
			c5.614,1.372,5.946,9.335,4.76,13.786c-0.181,0.678-3.597,6.41-3.906,6.036c0.914,1.109,2.643,1.169,3.52,2.567
			c1.126,1.796,1.136,5.382,1.009,7.417c-0.244,3.906-2.223,6.707-4.351,9.69c1.486,0.44,2.52,0.382,3.19,2.062
			c0.669,1.678,0.619,4.289,0.617,6.09c-0.006,4.381-1.071,8.611-4.292,11.613c2.372,0.567,4.026,2.332,4.37,4.701
			c0.409,2.821,0.636,5.954-0.178,8.724c-0.345,1.172-0.789,2.562-1.643,3.436c-0.423,0.432-3.223,2.118-3.786,1.899
			c1.685,0.658,4.489,0.766,5.462,2.573c0.801,1.487,0.376,4.803,0.346,6.46c-0.075,4.178-2.682,5.811-6.02,7.806
			c5.848-0.282,6.018,4.282,5.741,8.899c-0.209,3.494-1.548,8.31-6.125,7.94c1.908,0.556,4.622,0.176,5.73,2.086
			c1.858,3.201,0.769,7.677,0.334,11.077c-0.264,2.062-2.484,7.043-5.514,6.072c1.523,0.488,3.279,0.292,4.331,1.543
			c1.109,1.318,1.124,3.591,1.047,5.193c-0.184,3.793-0.798,6.315-4.999,6.866c1.655,0.653,3.375-0.193,4.456,1.739
			c1.536,2.743,1.544,7.232,0.792,10.209c-0.325,1.287-2.379,5.831-4.169,5.292c2.765,0.836,3.877,2.321,4.12,5.256
			C451.685,347.483,452.073,351.2,450.64,352.778z"/>
		<path d="M439.314,220.176h-23.941c-0.66,0-0.543,0.719,0.113,0.719h23.941C440.086,220.896,439.97,220.176,439.314,220.176z"/>
		<path d="M447.589,237.221c-3.42,1.109-7.168,1.549-10.862,1.79c-2.003,0.131-4.011,0.196-6.021,0.226
			c-0.08,0.046-0.146,0.101-0.244,0.134c-0.494,0.162-0.991,0.314-1.488,0.461c0.005,0.067-0.009,0.132-0.015,0.198
			c4.432-0.01,8.857-0.155,13.204-0.794c1.983-0.291,3.943-0.692,5.799-1.294C448.573,237.744,448.203,237.022,447.589,237.221z"/>
		<path d="M441.3,289.799h-24.813c-0.699,0-0.576,0.742,0.12,0.742h24.813C442.119,290.541,441.996,289.799,441.3,289.799z"/>
		<path d="M437.976,257.72h-18.205c-0.728,0-0.599,0.719,0.125,0.719h18.205C438.829,258.439,438.7,257.72,437.976,257.72z"/>
		<path d="M444.723,310.498h-34.264c-0.634,0-0.522,0.72,0.108,0.72h34.264C445.465,311.217,445.353,310.498,444.723,310.498z"/>
		<path d="M448.243,339.857h-25.029c-0.675,0-0.555,0.719,0.116,0.719h25.029C449.033,340.577,448.913,339.857,448.243,339.857z"/>
		<path d="M425.738,326.496h-16.876c-0.654,0-0.538,0.719,0.112,0.719h16.876C426.504,327.215,426.388,326.496,425.738,326.496z"/>
		<path d="M426.283,182.852h-16.333c-0.653,0-0.538,0.719,0.112,0.719h16.333C427.048,183.572,426.932,182.852,426.283,182.852z"/>
		<path style="fill:#FFFFFF;" d="M445.648,247.517c-0.225-1.61-0.728-3.169-1.22-4.713c-0.196-0.615-1.128-0.253-0.934,0.358
			c0.466,1.465,0.946,2.937,1.159,4.464c0.218,1.557,0.093,3.091-0.323,4.606c-0.17,0.618,0.82,0.764,0.989,0.149
			C445.757,250.791,445.876,249.152,445.648,247.517z"/>
		<path style="fill:#FFFFFF;" d="M438.586,244.785c0.049-0.637-0.939-0.793-0.989-0.149c-0.185,2.389-0.643,4.824-0.175,7.209
			c0.123,0.627,1.118,0.524,0.994-0.11C437.964,249.431,438.407,247.092,438.586,244.785z"/>
		<path style="fill:#FFFFFF;" d="M431.13,245.422c-0.293,0.032-0.442,0.281-0.442,0.552v4.662c0,0.27,0.305,0.469,0.552,0.442
			c0.293-0.032,0.442-0.281,0.442-0.552v-4.662C431.682,245.594,431.377,245.394,431.13,245.422z"/>
		<path style="fill:#FFFFFF;" d="M412.151,245.601c-1.805,2.897-1.925,6.405-1.116,9.648c0.155,0.624,1.087,0.259,0.934-0.358
			c-0.71-2.85-0.636-6.1,0.956-8.654C413.259,245.697,412.49,245.057,412.151,245.601z"/>
		<path style="fill:#FFFFFF;" d="M410.526,226.895c-0.651,1.248-1.022,2.604-1.072,4.011c-0.049,1.407,0.15,2.8,0.341,4.19
			c0.087,0.636,1.082,0.53,0.994-0.11c-0.179-1.299-0.387-2.615-0.346-3.93c0.041-1.328,0.382-2.577,0.996-3.754
			C411.738,226.731,410.823,226.327,410.526,226.895z"/>
		<path style="fill:#FFFFFF;" d="M417.101,229.021c-0.252-0.027-0.549,0.141-0.569,0.42c-0.058,0.806-0.115,1.612-0.173,2.417
			c-0.019,0.26,0.137,0.539,0.42,0.569c0.252,0.027,0.549-0.141,0.569-0.42c0.058-0.806,0.115-1.611,0.173-2.417
			C417.539,229.33,417.384,229.051,417.101,229.021z"/>
		<path style="fill:#FFFFFF;" d="M433.926,226.18c-0.014-0.643-1.008-0.531-0.994,0.11c0.046,2.144,0.228,4.286,0.175,6.432
			c-0.007,0.269,0.129,0.526,0.42,0.569c0.241,0.035,0.562-0.147,0.569-0.42C434.152,230.638,433.974,228.412,433.926,226.18z"/>
		<path style="fill:#FFFFFF;" d="M442.428,224.736c-0.031,2.745-0.226,5.481-0.861,8.158c-0.148,0.625,0.841,0.773,0.989,0.149
			c0.655-2.764,0.834-5.585,0.866-8.417C443.43,223.985,442.436,224.099,442.428,224.736z"/>
		<path style="fill:#FFFFFF;" d="M415.584,204.856c0.287-0.576-0.627-0.982-0.914-0.407c-0.895,1.796-1.586,3.705-1.788,5.712
			c-0.207,2.058,0.075,4.11,0.539,6.115c0.143,0.619,1.139,0.518,0.994-0.11c-0.444-1.916-0.742-3.887-0.544-5.855
			C414.066,208.385,414.725,206.58,415.584,204.856z"/>
		<path style="fill:#FFFFFF;" d="M423.048,207.878c-0.064-0.64-1.058-0.532-0.994,0.11c0.236,2.355,0.46,4.712,0.518,7.079
			c0.016,0.643,1.01,0.531,0.994-0.11C423.508,212.59,423.284,210.233,423.048,207.878z"/>
		<path style="fill:#FFFFFF;" d="M433.926,208.396c-0.042-0.642-1.036-0.532-0.994,0.11c0.147,2.246,0.135,4.509,0.518,6.734
			c0.109,0.631,1.104,0.527,0.994-0.11C434.061,212.906,434.073,210.643,433.926,208.396z"/>
		<path style="fill:#FFFFFF;" d="M445.891,205.232c-0.59-0.256-0.998,0.657-0.407,0.914c1.254,0.544,1.325,2.069,1.206,3.253
			c-0.133,1.322-0.511,2.605-0.941,3.857c-0.208,0.604,0.704,1.016,0.914,0.407c0.495-1.441,0.952-2.937,1.045-4.466
			C447.804,207.639,447.47,205.917,445.891,205.232z"/>
		<path style="fill:#FFFFFF;" d="M419.555,191.561c0.082-0.257,0.013-0.541-0.254-0.66c-0.225-0.1-0.578-0.006-0.66,0.254
			c-0.485,1.532-1.024,3.325-0.122,4.812c0.14,0.231,0.491,0.263,0.698,0.114c0.234-0.168,0.255-0.466,0.114-0.698
			c-0.331-0.546-0.341-1.226-0.262-1.843C419.157,192.857,419.351,192.206,419.555,191.561z"/>
		<path style="fill:#FFFFFF;" d="M428.716,191.351c-0.249-0.593-1.184-0.236-0.934,0.358c0.793,1.886,0.904,3.97,0.49,5.962
			c-0.131,0.63,0.858,0.779,0.989,0.149C429.708,195.673,429.57,193.384,428.716,191.351z"/>
		<path style="fill:#FFFFFF;" d="M439.017,194.064c-0.111-1.572-0.547-3.104-0.977-4.612c-0.177-0.62-1.109-0.257-0.934,0.358
			c0.394,1.38,0.785,2.775,0.905,4.211c0.122,1.462-0.105,2.879-0.722,4.213c-0.27,0.584,0.643,0.991,0.914,0.407
			C438.87,197.198,439.129,195.646,439.017,194.064z"/>
		<path style="fill:#FFFFFF;" d="M414.413,168.468c0.088-0.636-0.901-0.789-0.989-0.149c-0.297,2.148-0.853,4.312-0.318,6.47
			c0.065,0.262,0.416,0.376,0.646,0.288c0.278-0.107,0.353-0.383,0.288-0.646C413.555,172.476,414.144,170.41,414.413,168.468z"/>
		<path style="fill:#FFFFFF;" d="M418.041,168.511c-0.052-0.642-1.046-0.532-0.994,0.11c0.112,1.392,0.226,2.789,0.175,4.187
			c-0.01,0.27,0.131,0.525,0.42,0.569c0.244,0.037,0.559-0.148,0.569-0.42C418.265,171.472,418.16,169.992,418.041,168.511z"/>
		<path style="fill:#FFFFFF;" d="M428.885,168.76c-0.292,0.045-0.442,0.271-0.442,0.552v2.417c0,0.262,0.305,0.48,0.552,0.442
			c0.292-0.045,0.442-0.271,0.442-0.552v-2.417C429.437,168.94,429.132,168.722,428.885,168.76z"/>
		<path style="fill:#FFFFFF;" d="M442.356,166.315c-0.177-0.62-1.109-0.257-0.934,0.358c0.428,1.501,0.666,3.051,0.636,4.614
			c-0.03,1.563-0.312,3.109-0.664,4.628c-0.145,0.626,0.844,0.774,0.989,0.149c0.374-1.614,0.648-3.244,0.67-4.903
			C443.075,169.514,442.808,167.898,442.356,166.315z"/>
		<path style="fill:#FFFFFF;" d="M415.202,315.352c-0.296-0.048-0.494,0.162-0.569,0.42c-0.775,2.65-1.332,5.754-0.145,8.369
			c0.265,0.584,1.2,0.229,0.934-0.358c-1.117-2.459-0.527-5.376,0.2-7.861C415.698,315.66,415.442,315.391,415.202,315.352z"/>
		<path style="fill:#FFFFFF;" d="M424.257,315.964c0.001-0.27-0.305-0.469-0.552-0.442c-0.293,0.033-0.441,0.281-0.442,0.552
			c-0.008,2.139,0.208,4.274,0.518,6.388c0.093,0.635,1.088,0.529,0.994-0.11C424.465,320.238,424.249,318.103,424.257,315.964z"/>
		<path style="fill:#FFFFFF;" d="M432.718,315.964c-0.069-0.64-1.063-0.532-0.994,0.11c0.173,1.607,0.2,3.22,0.173,4.835
			c-0.005,0.27,0.308,0.469,0.552,0.442c0.296-0.033,0.438-0.281,0.442-0.552C432.918,319.184,432.891,317.571,432.718,315.964z"/>
		<path style="fill:#FFFFFF;" d="M440.487,315.792c-0.051-0.642-1.045-0.532-0.994,0.11c0.157,1.97,0.467,3.96,0.003,5.913
			c-0.149,0.625,0.841,0.773,0.989,0.149C440.969,319.931,440.651,317.843,440.487,315.792z"/>
		<path style="fill:#FFFFFF;" d="M417.348,299c0.067-0.637-0.921-0.792-0.989-0.149c-0.233,2.205-0.713,4.449-0.145,6.642
			c0.068,0.262,0.414,0.377,0.646,0.288c0.276-0.106,0.356-0.384,0.288-0.646C416.63,303.136,417.136,301.007,417.348,299z"/>
		<path style="fill:#FFFFFF;" d="M422.358,300.252c-0.022-0.261-0.29-0.483-0.552-0.442c-0.273,0.042-0.465,0.273-0.442,0.552
			c0.057,0.691,0.115,1.381,0.173,2.072c0.022,0.261,0.29,0.483,0.552,0.442c0.274-0.042,0.465-0.273,0.442-0.552
			C422.473,301.634,422.415,300.943,422.358,300.252z"/>
		<path style="fill:#FFFFFF;" d="M438.558,296.847c-0.26-0.587-1.195-0.232-0.934,0.358c0.575,1.297,0.997,2.647,1.088,4.07
			c0.091,1.414-0.158,2.829-0.56,4.181c-0.181,0.608,0.73,1.023,0.914,0.407c0.443-1.486,0.727-3.001,0.649-4.558
			C439.636,299.756,439.183,298.258,438.558,296.847z"/>
		<path style="fill:#FFFFFF;" d="M418.011,287.351c-0.374-0.771-0.649-1.585-0.598-2.453c0.053-0.892,0.293-1.769,0.453-2.646
			c0.116-0.633-0.873-0.783-0.989-0.149c-0.168,0.92-0.427,1.843-0.459,2.782c-0.035,0.999,0.226,1.93,0.66,2.825
			c0.118,0.243,0.379,0.39,0.646,0.287C417.959,287.906,418.129,287.595,418.011,287.351z"/>
		<path style="fill:#FFFFFF;" d="M426.471,286.315c-0.015-0.059-0.017-0.069-0.008-0.03c-0.006-0.026-0.012-0.052-0.018-0.077
			c-0.014-0.06-0.027-0.121-0.04-0.181c-0.022-0.104-0.044-0.207-0.064-0.311c-0.044-0.226-0.084-0.452-0.122-0.678
			c-0.077-0.454-0.149-0.908-0.235-1.36c-0.049-0.256-0.271-0.486-0.552-0.442c-0.25,0.039-0.495,0.277-0.442,0.552
			c0.185,0.963,0.31,1.935,0.548,2.887c0.064,0.255,0.419,0.386,0.646,0.288C426.457,286.842,426.539,286.587,426.471,286.315z"/>
		<path style="fill:#FFFFFF;" d="M439.017,284.255c-0.123-0.904-0.479-1.757-0.804-2.602c-0.231-0.601-1.165-0.243-0.934,0.358
			c0.285,0.741,0.613,1.491,0.733,2.282c0.124,0.82-0.04,1.592-0.378,2.343c-0.264,0.587,0.649,0.994,0.914,0.407
			C438.944,286.164,439.148,285.218,439.017,284.255z"/>
		<path style="fill:#FFFFFF;" d="M417.605,271.871c-1.28-1.972-0.627-4.396-0.257-6.54c0.109-0.634-0.879-0.785-0.989-0.149
			c-0.423,2.447-1.017,5.038,0.434,7.273C417.144,272.996,417.955,272.41,417.605,271.871z"/>
		<path style="fill:#FFFFFF;" d="M425.435,270.776c-0.66-1.347-0.583-2.904-1.036-4.317c-0.083-0.257-0.404-0.38-0.646-0.288
			c-0.264,0.102-0.37,0.388-0.288,0.646c0.454,1.415,0.372,2.961,1.036,4.317c0.119,0.242,0.378,0.39,0.646,0.287
			C425.383,271.331,425.555,271.019,425.435,270.776z"/>
		<path style="fill:#FFFFFF;" d="M444.256,261.106c-0.165-0.622-1.097-0.258-0.934,0.358c0.78,2.941,0.427,6.262-1.026,8.941
			c-0.307,0.566,0.608,0.97,0.914,0.407C444.794,267.891,445.102,264.298,444.256,261.106z"/>
		<path style="fill:#FFFFFF;" d="M416.396,336.447c-0.561-0.784-1.038-1.608-1.329-2.53c-0.298-0.946-0.396-1.946-0.479-2.931
			c-0.055-0.641-1.049-0.532-0.994,0.11c0.091,1.072,0.215,2.149,0.54,3.179c0.315,0.998,0.844,1.908,1.45,2.756
			C415.959,337.555,416.771,336.971,416.396,336.447z"/>
		<path style="fill:#FFFFFF;" d="M421.637,334.142c-0.427-1.017-0.999-1.963-1.615-2.875c-0.147-0.217-0.49-0.278-0.698-0.114
			c-0.218,0.172-0.271,0.466-0.114,0.698c0.292,0.433,0.576,0.872,0.836,1.325c0.141,0.245,0.192,0.337,0.32,0.592
			c0.121,0.241,0.233,0.485,0.337,0.733c0.101,0.241,0.393,0.397,0.646,0.288C421.592,334.683,421.745,334.4,421.637,334.142z"/>
		<path style="fill:#FFFFFF;" d="M440.112,329.653c-0.066-0.264-0.415-0.374-0.646-0.288c-0.278,0.103-0.353,0.385-0.288,0.646
			c0.513,2.051,0.625,4.135,0.01,6.179c-0.078,0.258-0.016,0.54,0.253,0.66c0.223,0.099,0.582,0.007,0.66-0.253
			c0.342-1.136,0.531-2.283,0.521-3.472C440.613,331.947,440.397,330.792,440.112,329.653z"/>
		<path style="fill:#FFFFFF;" d="M416.66,346.871c-0.043-0.258-0.275-0.485-0.552-0.442c-0.256,0.04-0.488,0.276-0.442,0.552
			c0.115,0.691,0.23,1.381,0.345,2.072c0.043,0.258,0.275,0.485,0.552,0.442c0.255-0.04,0.488-0.276,0.442-0.552
			C416.89,348.252,416.775,347.561,416.66,346.871z"/>
		<path style="fill:#FFFFFF;" d="M431.993,345.047c-0.293,0.032-0.442,0.281-0.442,0.552v4.489c0,0.27,0.305,0.47,0.552,0.442
			c0.293-0.032,0.442-0.281,0.442-0.552v-4.489C432.545,345.219,432.24,345.02,431.993,345.047z"/>
		<path style="fill:#FFFFFF;" d="M446.095,344.823c-0.634,1.581-1.33,3.127-2.52,4.375c-0.186,0.195-0.129,0.542,0.069,0.704
			c0.222,0.182,0.517,0.127,0.704-0.069c1.246-1.308,1.996-2.947,2.66-4.603C447.247,344.634,446.335,344.224,446.095,344.823z"/>
	</g>
	<g>
		<g>
			<g>
				<path style="fill:#222221;" d="M374.233,356.556c1.604,5.498,4.631,9.911,6.943,14.843c2.547,5.434,5.224,10.749,7.783,16.171
					c5.242,11.104,9.794,22.769,14.582,34.243c1.1,2.637-2.011,4.454-3.123,1.909c-4.386-10.046-9.548-19.496-14.274-29.247
					c-2.332-4.812-4.688-9.607-7.2-14.245c-2.516-4.646-5.085-9.218-7.244-14.203c-0.645-1.49,0.117-2.741,1.092-3.052
					c-0.639-1.439-1.22-2.925-1.683-4.51C370.294,355.668,373.413,353.745,374.233,356.556z"/>
				<path style="fill:#222221;" d="M316.86,370.997c-0.074-1.639-0.163-3.316-0.544-4.918c-0.152-0.64-0.427-1.618-1.086-1.915
					c0-0.002-0.001-0.003-0.001-0.005c-0.218-1.281-0.018-0.8-0.977-0.505c-0.561-1.757-3.498-1.899-3.497,0.204
					c0,0.531,0.008,1.063,0.01,1.594c-0.257,0.255-0.428,0.618-0.426,1.113c0.024,6.293,0.263,22.425,0.716,34.915
					c0.223,6.166,0.716,16.493,0.612,22.655c-0.09,5.337,0.173,8.933,0.276,14.795c0.002,0.089,0.068,0.16,0.11,0.235
					c0.036,0.129,0.06,0.26,0.099,0.389c0.832,2.733,2.838,1.658,3.419-0.416c0.219-0.782,0.319-1.591,0.367-2.409
					c0.007-0.03,0.022-0.054,0.024-0.089c0.446-8.116,0.348-16.234,0.24-24.357c-0.086-6.544-0.233-13.12,0.136-19.657
					C316.742,385.437,317.185,378.197,316.86,370.997z M315.859,381.312c-0.014,0.457-0.026,0.915-0.042,1.371
					c-0.069,1.997-0.164,3.992-0.266,5.987C315.632,386.219,315.757,383.765,315.859,381.312z"/>
				<path style="fill:#222221;" d="M267.12,354.818c-2.525,1.051-3.969,6.533-4.835,8.791c-1.132,2.953-2.227,5.932-3.299,8.914
					c-4.647,16.021-9.446,32.006-13.313,48.236c0.62,1.251,2.173,1.543,2.916,0.605c0.474-0.153,0.898-0.549,1.129-1.271
					c2.66-8.323,5.677-16.558,8.646-24.798c4.486-12.933,8.899-25.906,12.212-39.185
					C270.237,354.718,269.274,353.922,267.12,354.818z"/>
				<path style="fill:#222221;" d="M346.426,414.71c-0.601-17.348-3.84-34.165-4.474-51.513c-0.127-3.469-2.655-3.744-3.903-1.785
					c-0.124-0.803-0.237-1.61-0.366-2.411c-0.497-3.083-2.786-3.562-3.962-2.118c0.998,4.391,1.675,8.848,2.198,13.322
					c0.581,4.97,0.991,9.959,1.523,14.934c0.541,5.056,1.343,10.055,2.217,15.063c1.129,6.474,2.286,12.945,3.277,19.44
					c0.491,0.476,1.081,0.713,1.606,0.579c1.242-0.317,1.896-1.929,1.939-3.75C346.574,415.88,346.563,415.274,346.426,414.71z"/>
				<path style="fill:#97A5DB;" d="M252.123,357.325c1.466,1.693,3.298,3,5.135,4.248c2.209,1.501,4.448,2.96,6.743,4.327
					c8.664,5.159,18.011,8.658,28.148,9.205c5.152,0.278,10.312-0.029,15.459-0.273c5.281-0.251,10.595,0.036,15.862-0.39
					c5.472-0.442,10.86-1.563,16.225-2.68c5.314-1.107,10.639-2.082,16.008-2.887c5.516-0.827,11.047-1.569,16.537-2.564
					c4.838-0.877,9.726-3.075,14.695-2.867c0.185,0.008,0.357-0.042,0.52-0.112c0.345-0.068,0.658-0.277,0.812-0.717
					c3.079-8.8,5.293-17.857,7.633-26.873c2.359-9.087,5.038-18.08,7.929-27.011c2.333-7.205,4.589-14.501,7.306-21.572
					c1.613-4.196,3.569-8.258,5.366-12.377c2.102-4.82,4.112-9.71,5.537-14.779c1.216-4.326,2.135-8.937,1.54-13.443
					c-0.538-4.073-2.587-7.76-6.126-9.952c-5.84-3.619-13.081-5.07-19.859-4.921c-4.127,0.091-8.064,0.21-12.139-0.573
					c-3.313-0.637-6.638-1.232-9.991-1.617c-6.691-0.766-13.809-0.804-20.049,2.053c-0.319,0.146-0.5,0.376-0.598,0.629
					c-0.421-0.191-0.841-0.382-1.254-0.586c-1.338-0.661-2.659-1.356-4-2.011c-2.993-1.464-5.602-2.173-8.986-1.95
					c-8.379,0.552-15.321,6.475-18.474,14.051c-2.704,6.497-2.825,13.739-2.599,20.664c0.146,4.483,0.469,8.954,0.933,13.415
					c0.452,4.348,0.797,8.809,1.623,13.104c0.564,2.931,1.597,5.783,1.801,8.78c0.22,3.228-1.875,4.811-4.963,5.065
					c-3.117,0.257-6.45-0.407-9.526-0.831c-4.551-0.627-9.057-1.533-13.548-2.487c-4.295-0.912-8.585-1.849-12.895-2.695
					c-3.436-0.674-7.089-1.289-10.568-0.535c-6.62,1.436-10.74,8.203-13.096,14.067c-3.308,8.23-3.75,17.199-6.085,25.692
					c-1.028,3.74-5.33,9.125-5.634,12.527c-0.003,0.038-0.006,0.077-0.008,0.116C247.405,351.097,250.32,355.243,252.123,357.325z"
					/>
				<path style="fill:#222221;" d="M256.917,338.219c3.454-1.54,7.126-2.532,10.712-3.708c6.019-1.973,12.298-2.919,18.561-3.728
					c6.552-0.846,13.091-1.565,19.689-1.931c7.302-0.406,14.616-0.569,21.917-0.997c-0.309-6.217,1.471-12.401,3.006-18.361
					c1.825-7.087,3.173-14.281,4.413-21.49c1.287-7.476,2.453-14.973,3.87-22.426c1.057-5.564,2.328-11.087,4.303-16.405
					c2.09-5.63,4.962-11.387,9.633-15.322c0.595-0.501,1.359,0.432,0.766,0.932c-4.114,3.465-6.742,8.432-8.708,13.355
					c-2.039,5.105-3.405,10.445-4.459,15.831c-2.803,14.323-4.488,28.886-7.963,43.074c-1.694,6.915-4.187,14.097-3.646,21.313
					c0.037,0.495-0.442,0.744-0.805,0.655c-0.04,0.01-0.071,0.029-0.118,0.032c-6.373,0.376-12.756,0.549-19.133,0.854
					c-6.385,0.305-12.735,0.827-19.076,1.634c-6.119,0.778-12.272,1.502-18.253,3.057c-2.192,0.57-4.326,1.317-6.487,1.988
					c-1.803,0.56-3.605,1.124-5.373,1.786c-2.012,0.753-4.053,1.607-5.819,2.849c-1.354,0.951-2.686,2.22-2.818,3.962
					c-0.059,0.774-1.258,0.642-1.199-0.133C250.198,341.517,254.079,339.484,256.917,338.219z"/>
			</g>
		</g>
		<g>
			<g>
				<path style="fill:#272722;" d="M272.673,352.85c-8.166-8.814-16.9-16.901-27.599-22.884c-5.512-3.082-12.777-4.258-17.004-9.318
					c-5.803-6.946,1.706-11.953,9.488-11.935c10.226,0.025,16.881,11.016,25.192,15.914c7.439,4.384,14.001,10.107,19.329,16.962
					c4.117,5.298,7.084,11.399,11.363,16.467c4.058,4.807,5.808,12.662,5.551,18.853c-0.051,1.225,0.465,5.693-0.398,6.683
					c-1.169,1.343-5.195-1.273-6.595-2.689c-5.026-5.082-6.305-13.293-11.041-18.751
					C278.227,359.003,275.484,355.883,272.673,352.85z"/>
				<g>
					<path style="fill:#E89098;" d="M270.573,309.963c-5.159-0.932-10.55-0.039-14.59,3.236c-5.275,4.274-6.681,9.445-8.926,15.643
						c-2.504,6.911-4.971,13.835-7.402,20.771c-4.764,13.595-9.387,27.239-13.869,40.928c-0.94,2.872-1.874,5.745-2.808,8.619
						c-0.381,1.173-0.764,2.436-0.398,3.614c0.65,2.09,3.453,2.844,5.522,2.083c2.069-0.76,3.548-2.546,4.924-4.256
						c5.329-6.62,10.657-13.241,15.986-19.861c10.694-13.287,21.479-26.714,28.98-42c2.471-5.035,4.603-10.387,4.776-15.984
						C282.994,315.444,277.331,311.184,270.573,309.963z"/>
					<g>
						<path style="fill:#272722;" d="M225.786,390.541c1.379-4.213,2.782-8.418,4.192-12.621c4.121,3.702,8.314,7.314,12.735,10.646
							c-3.229,4.012-6.457,8.023-9.686,12.034c-1.376,1.71-2.856,3.496-4.924,4.256c-2.069,0.761-4.872,0.007-5.522-2.083
							c-0.366-1.177,0.017-2.441,0.398-3.614C223.912,396.286,224.846,393.412,225.786,390.541z"/>
					</g>
				</g>
				<path style="fill:none;stroke:#000000;stroke-linecap:round;stroke-linejoin:round;stroke-miterlimit:10;" d="M259.329,324.944
					c-4.224,12.167-12.852,22.402-17.556,34.395"/>
				<g>
					<path style="fill:#E89098;" d="M230.168,333.276c-2.055,12.221-4.299,24.243-7.304,36.266
						c-0.271,1.086-0.473,2.417,0.367,3.163c0.51,0.453,1.247,0.525,1.931,0.574c3.058,0.222,6.424,0.36,8.861-1.486
						c1.49-1.128,2.394-2.838,3.245-4.494c6.723-13.084,12.298-26.731,18.966-39.815c2.823-5.538,6.194-10.356,8.577-16.281
						c2.47-6.142,4.588-12.429,6.091-18.875c0.306-1.314,0.573-2.763-0.062-3.957c-1.245-2.342-9.04-0.928-11.165-0.356
						c-7.223,1.945-14.149,7.551-17.757,14.023c-4.789,8.589-8.585,16.296-10.654,25.949
						C230.885,329.748,230.52,331.511,230.168,333.276z"/>
					<g>
						<path style="fill:#272722;" d="M227.813,346.591c5.351,2.364,10.691,4.75,16.016,7.171c-2.114,4.548-4.27,9.077-6.562,13.539
							c-0.851,1.656-1.755,3.366-3.245,4.494c-2.437,1.846-5.802,1.708-8.861,1.486c-0.683-0.05-1.421-0.121-1.931-0.574
							c-0.84-0.746-0.638-2.077-0.367-3.163C224.772,361.909,226.372,354.275,227.813,346.591z"/>
					</g>
				</g>
				<path style="fill:#BF4D49;" d="M269.062,342.01c-0.442-0.38-0.871-0.788-1.274-1.25c-3.829-4.386-7.28-9.004-12.058-12.445
					c-8.626-6.211-21.062-16.266-27.749-16.163c-0.17,0.003-0.26-0.193-0.143-0.317c8.453-8.918,17.656-17.113,27.597-24.369
					c2.841-2.074,5.737-4.074,8.631-6.074c3.811-2.633,7.672-5.293,12.015-6.927c8.309-3.127,17.636-2.234,26.311-0.682
					c8.519,1.525,17.121,2.462,25.74,3.247c4.552,0.415,8.007,1.693,12.2,5.101c6.061,4.926,12.022,10.474,14.946,17.667
					c1.007,2.477,1.523,5.134,1.592,7.807c0.107,4.17-0.942,4.26-2.409,6.821c-1.993,3.478-1.228,7.869-3.381,11.29
					c-0.96,1.525-2.439,2.645-3.896,3.715c-5.417,3.978-11.538,7.888-15.539,13.358c-4.25,5.811-9.812,8.388-15.453,12.617
					c-2.655,1.99-5.349,3.687-6.458,6.848c-1.818,5.179-4.402,10.731-6.928,15.661c-0.855,1.668-2.129,6.204-4.156,6.723
					c-3.948,1.01-4.741-7.024-5.557-9.281c-1.915-5.294-5.03-9.986-8.046-14.63c-2.035-3.132-4.526-5.254-6.794-8.163
					c-1.819-2.332-3.234-5.108-5.259-7.267C271.782,344.007,270.364,343.129,269.062,342.01z"/>
				<g>
					<path style="fill:#E0D87B;" d="M368.766,291.428c0.03,5.714-1.219,11.696-3.658,16.871c-1.403,2.976-5.57,8.796-9.51,11.575
						c-8.662-6.629-16.715-14.001-23.27-22.701c-4.465-5.927-9.638-5.478-12.224-12.366c-0.442-1.178-3.119-7.733-3.737-9.405
						c1.523-1.015,6.843-4.299,7.828-6.673c2.599-6.26,2.766-13.081,4.608-19.532c2.459-8.607,7.11-16.108,17.078-16.186
						c1.161-0.009,2.297,0.305,3.415,0.617c2.574,0.718,5.174,1.446,7.524,2.712c3.839,2.068,5.161,5.138,7.017,8.805
						c2.142,4.233,4.393,8.875,5.363,13.645c0.53,2.608,0.678,5.254,0.215,7.893C368.004,274.732,368.724,283.226,368.766,291.428z"
						/>
					<path style="fill:#171616;" d="M365.314,270.913c-0.707,1.115-1.004,2.518-1.834,3.57c-0.324,0.41-0.726,0.763-0.993,1.211
						c-0.754,1.268-0.243,2.861-0.101,4.326c0.172,1.771-0.236,3.539-0.471,5.303c-0.357,2.686-0.217,5.395,2.429,6.748
						c1.816,0.928,3.868,0.663,4.104-1.667c0.095-0.937-0.168-1.871-0.452-2.77c-0.562-1.778-1.376-3.597-1.669-5.444
						c-0.271-1.706,0.307-3.37,0.633-5.024c0.504-2.558,0.06-4.687-1.066-6.985C365.67,270.403,365.481,270.65,365.314,270.913z"/>
				</g>
				<g>
					<path style="fill:#E89098;" d="M366.595,260.612c-0.855-4.027-1.689-8.015-1.301-12.175c0.566-6.082,9.971-2.914,13.166-0.999
						c8.993,5.389,14.691,15.781,14.363,26.193c-0.236,7.506-7.212,31.058-18.631,27.096c-2.647-0.918-4.526-3.356-5.455-5.979
						c-0.928-2.624-3.508,0.157-3.615-2.621c0-0.598-0.001-1.23-0.005-1.89"/>
				</g>
				<g>
					<path style="fill:#E0D87B;" d="M336.875,231.593c3.822-0.89,7.714-1.441,11.638-1.53c10.097-0.227,21.099,3.066,28.89,9.507
						c11.305,9.346,17.964,23.971,17.557,38.559c-0.015,0.531-0.048,1.092-0.35,1.531c-0.503,0.731-1.527,0.843-2.418,0.884
						c-9.453,0.431-18.111,0.863-27.574,0.92c-0.163-2.892,1.643-10.642,0.246-13.1c-4.189-7.374-15.565-7.783-22.318-11.829
						c-3.816-2.286-7.391-5.077-9.967-8.727c-1.268-1.797-2.244-3.68-2.818-5.784c-0.702-2.571-1.917-4.834-3.137-7.247
						C329.962,233.497,333.389,232.405,336.875,231.593z"/>
				</g>
				<path style="fill:none;stroke:#000000;stroke-linecap:round;stroke-linejoin:round;stroke-miterlimit:10;" d="M366.187,260.86
					c0.65,5.17-1.842,16.983-1.57,20.603"/>
				<path style="fill:#E89098;" d="M325.601,249.11c-0.698-1.184-1.825-2.145-3.509-2.748c-0.072-0.025-0.145-0.051-0.217-0.076
					c-6.422-2.134-13.831,3.371-18.592,6.85c-5.267,3.848-10.815,7.686-16.337,11.101c-7.707,4.767-16.686,6.979-24.45,11.495
					c-5.692,3.31-11.607,5.873-16.622,10.214c-1.362,1.178-2.456,2.223-3.559,3.641c-1.188,1.527-2.728,2.689-3.898,4.257
					c-1.261,1.689-2.414,3.489-3.245,5.431c-0.273,0.639-1.385,3.938,0.324,3.2c1.63-0.704,2.687-3.938,3.639-5.323
					c0.357-0.52,1.09-1.784,1.854-1.774c0.864,0.011,0.275,0.627-0.057,1.043c-0.658,0.823-1.264,1.766-1.989,2.528
					c-1.444,1.519-2.773,3.264-3.785,5.073c-0.24,0.428,0.001,1.017,0.393,1.25c0.456,0.272,0.927,0.15,1.294-0.208
					c0.063-0.062,0.119-0.129,0.18-0.192c0.173-0.053,0.333-0.137,0.431-0.296c0.173-0.279,0.365-0.544,0.543-0.819
					c0.446-0.562,0.868-1.143,1.302-1.717c0.805-1.065,1.714-2.041,2.675-2.967c0.759-0.732,1.555-1.425,2.359-2.108
					c0.268,0.111,0.537,0.227,0.804,0.316c-0.219,0.226-0.443,0.447-0.657,0.678c-1.78,1.923-3.214,4.125-4.778,6.22
					c-0.771,1.032,0.686,2.23,1.546,1.27c0.845-0.944,1.534-2.004,2.279-3.025c0.751-1.029,1.595-1.94,2.559-2.772
					c1.074-0.925,2.2-1.787,3.293-2.685c1.405-0.843,2.552-2.643,3.868-3.12c-0.742,2.054-2.757,3.764-3.18,5.913
					c-0.465,2.363,1.207,2.724,2.499,0.899c2.121-2.996,5.16-4.987,7.195-8.019c0.832-1.24,1.59-3.278,2.712-4.213
					c2.543-2.117,6.804-1.125,9.79-1.908c7.599-1.992,15.384-2.733,22.853-5.599c0.86-0.33,1.711-0.682,2.553-1.061
					c4.963-2.231,9.829-4.713,14.457-7.581c3.522-2.183,7.302-4.175,9.864-7.513C324.785,261.129,328.217,253.55,325.601,249.11z"/>
				<g>
					<g>
						<path style="fill:#522E97;" d="M329.447,249.247c0.041,0.116,0.056,0.239,0.053,0.361c-0.073-0.018-0.148-0.03-0.223-0.041
							L329.447,249.247z"/>
					</g>
					<g>
						<path style="fill:#E0D87B;" d="M317.569,270.126c-3.156-8.457-8.005-16.456-12.464-24.307c2.32-1.826,4.986-3.153,7.631-4.466
							c2.769-1.374,5.537-2.749,8.306-4.123c1.658-0.823,3.319-1.648,5.06-2.276c6.042-2.18,12.101-4.029,18.545-4.69
							c6.579-0.675,7.725,8.777,7.55,13.392c-0.117,3.099-1.073,5.586-2.629,7.639c-2.116,2.791-4.434,11.184-8.169,12.812
							c-8.022,3.495-15.605,4.21-21.755,10.303C319.628,274.367,317.587,270.167,317.569,270.126z"/>
					</g>
				</g>
				<path style="fill:#E89098;" d="M323.533,303.341c0.06,0.003,0.12,0.005,0.18,0.008c6.922,0.304,13.866-3.349,19.807-6.502
					c4.778-2.536,9.692-4.819,14.715-6.837c2.964-1.191,6.367-1.531,9.224-2.89c2.203-1.047,3.886-3.399,6.503-3.477
					c0.902-0.027,1.782,0.254,2.64,0.531c1.4,0.453,2.8,0.905,4.2,1.358c1.987,0.642,4.141,1.413,5.213,3.191
					c0.688,1.141,0.811,2.548,0.601,3.861c-0.384,2.406-1.809,4.555-3.588,6.236c-2.95,2.788-6.558,4.341-10.255,5.87
					c-7.924,3.277-16.428,4.811-24.88,6.052c-6.797,0.998-13.881,2.119-20.757,1.134
					C325.594,309.162,324.515,306.285,323.533,303.341z"/>
				<g>
					<path style="fill:#FFFFFF;" d="M352.809,213.608c0.048-0.119-0.19-0.037-0.212,0.088c-0.181,1.026,0.746,1.951,1.769,2.169
						c1.023,0.219,2.095-0.077,3.116-0.37"/>
					<path style="fill:#E89098;" d="M362.993,236.151c-2.391,1.141-5.205,1.139-7.771,0.702c-2.218-0.377-5.474-1.06-7.108-2.729
						c-1.093-1.117-0.525-2.078-0.168-3.331c0.343-1.202,0.651-2.414,1.032-3.605c0.569-1.779,0.322-3.264,0.134-5.126
						c-0.079-0.61-0.18-1.227-0.443-1.779c-0.311-0.652-0.829-1.177-1.269-1.751c-1.079-1.411-1.68-3.132-2.056-4.874
						c-0.866-4.011,0.787-12.858,3.082-16.386c1.829-2.812,4.387-1.374,7.796,0.095c1.446,0.623,2.718,1.576,3.847,2.653
						c4.473,4.267,6.5,10.431,6.23,16.474c-0.148,3.311-0.754,6.576-1.161,9.86c-0.203,1.638-0.36,3.284-0.383,4.935
						c-0.021,1.521,0.594,3.105-0.734,4.212C363.712,235.759,363.365,235.973,362.993,236.151z"/>
					<g>
						<defs>
							<path id="SVGID_1_" d="M362.993,236.151c-2.391,1.141-5.205,1.139-7.771,0.702c-2.218-0.377-5.474-1.06-7.108-2.729
								c-1.093-1.117-0.525-2.078-0.168-3.331c0.343-1.202,0.651-2.414,1.032-3.605c0.569-1.779,0.322-3.264,0.134-5.126
								c-0.079-0.61-0.18-1.227-0.443-1.779c-0.311-0.652-0.829-1.177-1.269-1.751c-1.079-1.411-1.68-3.132-2.056-4.874
								c-0.866-4.011,0.787-12.858,3.082-16.386c1.829-2.812,4.387-1.374,7.796,0.095c1.446,0.623,2.718,1.576,3.847,2.653
								c4.473,4.267,6.5,10.431,6.23,16.474c-0.148,3.311-0.754,6.576-1.161,9.86c-0.203,1.638-0.36,3.284-0.383,4.935
								c-0.021,1.521,0.594,3.105-0.734,4.212C363.712,235.759,363.365,235.973,362.993,236.151z"/>
						</defs>
						<clipPath id="SVGID_00000062911032571314664710000017850928848222028219_">
							<use xlink:href="#SVGID_1_"  style="overflow:visible;"/>
						</clipPath>
						<path style="clip-path:url(#SVGID_00000062911032571314664710000017850928848222028219_);fill:#171616;" d="M348.595,220.453
							c-0.045-0.12-0.098-0.235-0.159-0.342c-0.015-0.027-0.034-0.051-0.05-0.077c-0.094-0.199-0.184-0.399-0.293-0.59
							c1.155,2.024,3.363,1.592,5.196,1.233c0.598-0.117,1.583-0.348,2.172-0.195c0.737,0.192,0.882,0.968,0.337,1.54
							c-0.892,0.936-2.38-0.174-3.153,0.483c-0.368,0.313-0.316,1.015-0.841,1.341c-0.414,0.257-0.714,0.12-1.169,0.182
							c-0.466,0.063-0.361,0.122-0.801,0.355c-0.464,0.246-1.632,0.624-1.819-0.121c-0.069-0.273,0.655-1.423,0.721-1.813
							C348.846,221.792,348.831,221.083,348.595,220.453z"/>
					</g>
				</g>
				<g>
					<path style="fill:#687BC4;" d="M223.396,365.613c0.997-5.475,2.194-10.913,3.159-16.37c0.044-0.247,0.093-0.506,0.254-0.7
						c0.413-0.497,7.245,3.368,8.325,3.793c0.786,0.309,9.309,3.179,9.488,2.613c-0.989,3.119-2.914,5.808-4.665,8.539
						c-1.767,2.757-2.51,5.455-3.741,8.355c-0.579,1.365-0.786,3.28-1.674,4.457c-0.594,0.789-1.629,1.088-2.592,1.33
						c-6.593,1.662-13.006,3.236-19.769,3.975c-2.887,0.315-7.121,1.316-9.66-0.594c-3.88-2.917,3.178-6.369,5.375-7.593
						c1.899-1.058,3.987-1.725,6.029-2.477c0.432-0.159,0.897-0.321,1.381-0.488C218.072,369.499,222.808,368.826,223.396,365.613z"
						/>
				</g>
				<path style="fill:#E89098;" d="M321.552,292.996c0.849,0.052,1.773-0.135,2.868-0.084c3.184,0.151,6.259,2.04,8.125,4.543
					c0.212,0.284,0.419,0.61,0.386,0.961c-0.035,0.373-0.347,0.678-0.7,0.811c-0.354,0.133-0.744,0.126-1.121,0.099
					c-1.774-0.129-3.575-0.617-5.33-0.92c-3.073-0.53-6.254,2.409-8.985,0.261c-1.328-1.045-2.321-2.494-3.767-3.37
					c-0.908-0.55-1.956-0.848-2.848-1.424c-0.892-0.576-1.645-1.576-1.452-2.613c0.07-0.377,0.26-0.723,0.495-1.028
					c1.175-1.525,3.391-1.948,5.273-1.503c2.06,0.487,3.482,1.581,4.785,3.094C320.025,292.689,320.756,292.948,321.552,292.996z"/>
				<path style="fill:#171616;" d="M349.994,190.932c0.466-0.122,0.945-0.176,1.427-0.129c0.79,0.078,1.523,0.421,2.277,0.668
					c2.239,0.733,4.663,0.611,7.01,0.385c20.325-1.956,15.659,13.89,18.328,27.946c0.755,3.977,5.366,8.12,4.764,12.423
					c-0.598,4.282-5.72,6.202-9.778,7.146c-12.321,2.866-14.06-19.115-11.614-26.745c0.317-0.987,0.308-1.913-0.128-2.866
					c-0.17-0.371-0.428-0.993-0.807-1.207c-0.552-0.312-1.248-0.047-1.819-0.441c-0.683-0.471-0.866-1.392-0.871-2.217
					c-0.009-1.501,0.011-2.24-1.203-3.218c-0.991-0.799-2.327-1.104-3.574-1.196c-1.71-0.127-3.48,0.043-5.096-0.526
					c-1.461-0.514-2.707-1.662-3.225-3.111c-0.866-2.422,0.298-4.795,2.407-6.065C348.684,191.423,349.326,191.108,349.994,190.932z
					"/>
				<path style="fill:none;stroke:#000000;stroke-linecap:round;stroke-linejoin:round;stroke-miterlimit:10;" d="M331.473,256.365
					c-1.87,3.225-3.38,6.157-5.591,9.189c-2.134,2.927-4.659,5.241-7.1,7.904"/>
				<g>
					<path style="fill:#687BC4;" d="M207.044,412.461c-1.122,0.898-2.207,1.839-3.09,2.963c-1.226,1.562-2.037,3.559-1.722,5.513
						c1.015,6.287,10.132,3.769,13.832,1.842c5.104-2.658,8.907-7.197,13.183-10.916c0.78-0.679,1.572-1.371,2.123-2.243
						c0.479-0.758,0.755-1.622,1.053-2.466c2.43-6.875,6.664-13.114,12.172-17.935c0.359-0.314-7.202-3.021-7.732-3.24
						c-3.118-1.289-6.383-2.174-9.706-2.854c0.027,1.616-0.65,3.151-1.313,4.627c-2.283,5.074-4.603,10.2-8.031,14.595
						c-2.69,3.449-6.005,6.37-9.452,9.078C207.923,411.77,207.48,412.112,207.044,412.461z"/>
				</g>
				<path style="fill:#E89098;" d="M358.523,211.919c0,2.184,1.786,3.954,3.989,3.954c2.203,0,3.989-1.77,3.989-3.954
					c0-2.184-1.786-3.954-3.989-3.954C360.309,207.965,358.523,209.735,358.523,211.919z"/>
				<path style="fill:none;stroke:#000000;stroke-linecap:round;stroke-linejoin:round;stroke-miterlimit:10;" d="M364.265,210.32
					c-0.62-0.58-1.563-0.795-2.376-0.542c-0.813,0.253-1.463,0.965-1.637,1.792"/>
				<path style="fill:#171616;" d="M353.668,204.08c0.072,0.024,0.144,0.048,0.216,0.071"/>
				<path style="fill:none;stroke:#000000;stroke-linecap:round;stroke-linejoin:round;stroke-miterlimit:10;" d="M353.18,213.378
					c-1.278,0.55-2.8,0.511-4.048-0.103c-1.248-0.614-2.199-1.792-2.53-3.134"/>
				<path style="fill:none;stroke:#000000;stroke-linecap:round;stroke-linejoin:round;stroke-miterlimit:10;" d="M249.45,317.768"
					/>
				<path style="fill:none;stroke:#000000;stroke-linecap:round;stroke-linejoin:round;stroke-miterlimit:10;" d="M342.751,320.804
					c-0.44-0.485-1.151-0.592-1.8-0.703c-3.268-0.559-6.387-1.953-8.974-4.01"/>
				<path style="fill:none;stroke:#000000;stroke-linecap:round;stroke-linejoin:round;stroke-miterlimit:10;" d="M365.238,287.844
					c2.446-0.025,4.892,0.067,7.329,0.273"/>
				<g>
					<path style="fill:#272722;" d="M296.21,300.511l48.037,5.623c0.616,0.072,1.057-0.638,0.773-1.242l-12.736-27.046
						c-0.12-0.256-0.349-0.428-0.61-0.458l-48.039-5.623c-0.616-0.072-1.057,0.638-0.773,1.242l12.735,27.044
						C295.719,300.308,295.949,300.481,296.21,300.511z"/>
				</g>
				<path style="fill:#E89098;" d="M336.519,305.841c-0.382-0.475-0.798-0.929-1.137-1.452c-0.638-0.984-1.179-2.025-1.747-3.05
					c-0.433-0.782-0.98-1.344-1.722-0.643c-0.881,0.832-0.338,2.059-0.108,3.044c0.072,0.309,0.393,1.235,0.106,1.514
					c-0.426,0.415-1.153-0.544-1.478-0.854c-0.906-0.863-1.647-1.579-2.268-2.648c-0.689-1.184-1.385-2.408-2.136-3.554
					c-0.518-0.79-0.904-2.59-2.012-2.659c-2.632-0.163,0.939,6.071,1.395,6.903c0.226,0.412,1.444,2.126,0.02,1.573
					c-0.524-0.203-0.981-1.433-1.211-1.888c-1.134-2.24-1.777-4.874-3.07-6.991c-0.527-0.864-1.045-1.647-2.002-0.951
					c-1.922,1.397,1.196,6.027,2.033,7.596c0.308,0.578,1.281,1.48,0.98,2.161c-1.13-0.354-1.679-1.959-2.223-2.897
					c-0.708-1.223-1.365-2.476-1.948-3.764c-0.223-0.492-0.767-0.777-1.292-0.575c-0.482,0.185-0.799,0.798-0.575,1.292
					c0.469,1.036,0.981,2.053,1.528,3.05c0.333,0.608,0.806,1.142,1.18,1.725c0.272,0.423,0.972,1.657,0.044,1.604
					c-0.464-0.026-1.025-0.989-1.256-1.306c-0.668-0.919-1.132-2.267-1.938-3.055c-1.26-1.232-1.995-0.019-1.742,1.304
					c0.44,2.3,2.488,4.184,3.875,5.959c0.917,1.175,2.011,2.28,3.265,3.095c1.302,0.847,2.7,1.015,4.192,1.309
					c1.37,0.27,2.769,0.354,4.161,0.438c1.486,0.089,2.946-0.012,4.412-0.259c0.833-0.14,1.954-0.093,2.72-0.456
					c1.911-0.904,1.47-2.925,0.684-4.481C337.049,306.531,336.793,306.181,336.519,305.841z"/>
				<path d="M338.153,306.376c-0.189-0.552-0.429-1.103-0.762-1.585c-0.111-0.161-0.233-0.318-0.354-0.475
					c0.037-0.126,0.027-0.267-0.064-0.407c-0.166-0.256-0.37-0.484-0.614-0.668c-0.392-0.295-0.966,0.086-0.784,0.566
					c0.193,0.51,0.536,0.929,0.856,1.363c0.331,0.449,0.564,0.935,0.752,1.46c0.392,1.099,0.529,2.263,0.701,3.411
					c0.095,0.635,1.09,0.529,0.994-0.11C338.699,308.734,338.546,307.524,338.153,306.376z"/>
				<path style="fill:none;stroke:#000000;stroke-linecap:round;stroke-linejoin:round;stroke-miterlimit:10;" d="M303.024,362.196
					c-1.956,0.906-4.039,1.504-6.17,1.823"/>
				<path style="fill:none;stroke:#000000;stroke-linecap:round;stroke-linejoin:round;stroke-miterlimit:10;" d="M312.739,342.264
					c-2.348,3.312-6.422,5.501-10.014,7.079"/>
				<path style="fill:none;stroke:#000000;stroke-linecap:round;stroke-linejoin:round;stroke-miterlimit:10;" d="M244.365,312.911
					c6.178,1.191,12.045,6.87,17.222,10.107c3.908,2.443,7.703,5.092,11.651,7.468c5.46,3.286,11.148,4.36,17.401,5.044"/>
				<path style="fill:none;stroke:#000000;stroke-linecap:round;stroke-linejoin:round;stroke-miterlimit:10;" d="M377.659,279.242
					c2.94,0.001,5.871,0.046,8.806-0.173"/>
				<path style="fill:none;stroke:#000000;stroke-linecap:round;stroke-linejoin:round;stroke-miterlimit:10;" d="M316.734,267.694
					c-0.728-1.652-1.499-3.285-2.299-4.904"/>
				<path style="fill:none;stroke:#000000;stroke-linecap:round;stroke-linejoin:round;stroke-miterlimit:10;" d="M384.739,293.919
					c-0.268,1.139-1.265,1.971-2.072,2.763"/>
			</g>
		</g>
		<g>
			<path style="fill:#97A5DB;" d="M366.325,360.904c-9.472,2.731-19.501,2.445-29.041,4.119c-7.738,1.358-16.69,11.587-25.037,7.809
				c-11.19-5.071,2.249-18.978,6.471-23.284c6.049-6.168,11.591-12.75,17.627-18.831c3.483-3.51,5.871-6.189,10.247-8.516
				c4.927-2.62,10.019-3.083,15.47-4.349c5.829-1.354,10.723-0.741,16.549,0.121c2.397,0.355,4.806,0.97,7.226,1.07
				c-2.128-2.456,0.1-8.981,0.74-11.95c1.885-8.737,5.519-16.906,7.079-25.863c1.669-9.582,2.855-19.338,6.141-28.545
				c2.001-5.609,5.164-12.241,11.289-14.387c9.591-3.36,12.689,7.961,11.498,15.011c-1.465,8.665-4.447,17.092-8.289,24.992
				c-5.041,10.364-11.474,20.51-14.942,31.576c-3.327,10.614-4.143,21.469-9.366,31.468
				C385.253,350.404,376.18,358.062,366.325,360.904z"/>
			<path style="fill:#222221;" d="M308.692,361.55c3.002-6.054,7.541-10.852,12.4-15.457c2.816-2.669,5.454-5.466,7.974-8.416
				c2.441-2.858,4.794-5.805,7.356-8.556c4.292-4.608,9.72-7.889,15.732-9.726c6.707-2.05,13.872-2.622,20.852-2.226
				c3.399,0.193,6.753,0.592,10.04,1.479c1.315,0.355,2.63,0.721,3.968,0.978c0.575,0.111,1.163,0.213,1.749,0.23
				c0.205,0.006,0.406,0.001,0.609-0.036c0.08-0.015,0.252-0.124,0.194-0.054c0.496-0.593,1.479,0.108,0.98,0.704
				c-0.502,0.599-1.318,0.62-2.042,0.579c-1.114-0.062-2.22-0.333-3.299-0.597c-2.37-0.579-4.653-1.263-7.077-1.586
				c-7.372-0.982-14.973-0.837-22.246,0.785c-6.054,1.35-11.755,3.972-16.393,8.137c-2.764,2.482-5.091,5.44-7.479,8.275
				c-2.405,2.855-4.822,5.707-7.451,8.361c-2.715,2.74-5.628,5.271-8.218,8.136c-2.576,2.85-4.812,5.976-6.521,9.423
				C309.476,362.672,308.347,362.246,308.692,361.55z"/>
			<path style="fill:#222221;" d="M388.262,299.681c1.503-5.149,2.621-10.364,3.585-15.639c1.946-10.647,3.488-21.59,7.751-31.621
				c2.283-5.37,5.409-10.364,9.65-14.405c0.563-0.536,1.325,0.4,0.766,0.932c-7.693,7.331-11.299,17.691-13.624,27.809
				c-2.366,10.295-3.493,20.862-6.34,31.048c-1.848,6.612-4.384,13.344-4.393,20.294c-0.001,0.775-1.2,0.638-1.199-0.133
				C384.466,311.729,386.533,305.607,388.262,299.681z"/>
		</g>
	</g>
	<g>
		<g>
			<g>
				<path style="fill:#222221;" d="M99.207,360.565c-0.24-0.285-0.608-0.466-0.962-0.499c-0.566-0.201-1.288-0.054-1.468,0.514
					c-0.092,0.29-0.169,0.583-0.238,0.876c-0.635-0.569-2.008-0.199-1.913,0.872l5.239,58.702c0.036,0.401,0.256,0.659,0.543,0.794
					c0.696,0.522,1.995,0.151,1.819-0.905c-0.316-1.897-0.168-3.777-0.072-5.653c0.1-1.966,0.048-3.937-0.057-5.918
					c-0.211-3.991-0.392-7.987-0.424-11.969c-0.033-4.041,0-8.055-0.188-12.107c-0.183-3.954-0.252-7.896-0.234-11.838
					c0.01-2.089,0.084-4.169-0.002-6.265c-0.084-2.059-0.202-4.132,0.169-6.139C101.655,359.769,99.591,359.435,99.207,360.565z"/>
				<path style="fill:#222221;" d="M186.729,359.068c0.19-0.285,0.525-0.466,0.872-0.499c0.53-0.201,1.279-0.054,1.56,0.514
					c0.143,0.29,0.273,0.583,0.395,0.877c0.533-0.569,1.973-0.199,2.068,0.872l5.239,58.702c0.036,0.401-0.139,0.659-0.402,0.794
					c-0.602,0.522-1.968,0.151-1.981-0.905c-0.023-1.897-0.507-3.777-0.937-5.653c-0.451-1.966-0.751-3.937-1-5.918
					c-0.502-3.991-1.034-7.987-1.713-11.969c-0.689-4.041-1.437-8.055-1.974-12.107c-0.523-3.954-1.158-7.896-1.88-11.838
					c-0.383-2.089-0.828-4.169-1.116-6.265c-0.283-2.059-0.536-4.133-1.264-6.139C184.139,358.272,186.143,357.938,186.729,359.068z
					"/>
				<path style="fill:#222221;" d="M76.891,358.844c-0.226-0.361-0.625-0.59-1.038-0.632c-0.63-0.254-1.519-0.068-1.85,0.65
					c-0.169,0.367-0.322,0.737-0.465,1.109c-0.635-0.719-2.343-0.252-2.452,1.103l-5.984,74.261
					c-0.041,0.507,0.167,0.834,0.48,1.005c0.717,0.661,2.337,0.191,2.348-1.145c0.02-2.4,0.586-4.778,1.09-7.152
					c0.528-2.487,0.876-4.98,1.163-7.486c0.58-5.049,1.196-10.104,1.985-15.142c0.801-5.112,1.674-10.19,2.294-15.316
					c0.605-5.003,1.343-9.989,2.184-14.976c0.446-2.643,0.966-5.274,1.3-7.925c0.328-2.605,0.619-5.228,1.477-7.766
					C79.963,357.836,77.582,357.415,76.891,358.844z"/>
				<path style="fill:#222221;" d="M159.397,362.645c0.284-0.361,0.721-0.59,1.14-0.632c0.671-0.254,1.529-0.068,1.745,0.65
					c0.11,0.367,0.203,0.737,0.286,1.109c0.752-0.719,2.383-0.252,2.274,1.103l-5.984,74.261c-0.041,0.507-0.302,0.834-0.642,1.005
					c-0.824,0.661-2.368,0.191-2.163-1.145c0.367-2.4,0.184-4.778,0.062-7.152c-0.127-2.487-0.073-4.98,0.043-7.486
					c0.234-5.049,0.433-10.104,0.455-15.142c0.023-5.112-0.032-10.19,0.174-15.316c0.201-5.003,0.267-9.989,0.23-14.976
					c-0.02-2.643-0.116-5.274-0.023-7.925c0.092-2.605,0.223-5.228-0.225-7.766C156.488,361.637,158.936,361.216,159.397,362.645z"
					/>
				<path style="fill:#97A5DB;" d="M207.488,353.469c0.053,6.634-15.821,9.114-20.399,10.041
					c-10.464,2.119-21.069,3.51-31.712,4.323c-21.363,1.631-42.844,0.938-64.173-0.859c-10.144-0.855-20.315-1.966-30.155-4.574
					c-4.88-1.293-20.121-7.205-10.65-13.177c3.155-1.989,6.735-3.197,10.327-4.199c9.008-2.512,18.306-3.834,27.607-4.802
					c19.877-2.07,39.919-2.547,59.873-1.44c10.097,0.56,20.172,1.526,30.191,2.897c9.16,1.253,18.466,2.685,26.309,7.969
					c1.013,0.682,2.027,1.475,2.512,2.596C207.398,352.661,207.485,353.07,207.488,353.469z"/>
			</g>
		</g>
		<g>
			<path style="fill:#D8D8EB;" d="M185.5,349.98c-0.83-1.511-2.344-2.273-4.036-2.291c-0.519-0.006-1.035,0.051-1.544,0.15
				c0.12-0.554,0.259-1.114,0.341-1.676c0.033-0.225,0.353-1,0.286-1.15c-0.172-0.388-1.093-0.185-1.382-0.161
				c-0.838,0.072-1.682,0.214-2.523,0.093c-0.4-0.057-0.778-0.195-1.175-0.26c-3.25-0.531-6.626,0.086-9.893,0.105
				c-1.706,0.01-3.446-0.296-5.141-0.116c-0.558,0.059-0.83,0.074-0.888,0.645c-0.089,0.874,0.059,1.888,0.104,2.772
				c0.113,2.192,0.489,4.376,1.18,6.461c0.831,2.507,2.294,5.063,4.666,6.328c-0.366,0.623-0.721,1.253-0.986,1.927
				c-0.088,0.224,0.042,0.423,0.263,0.48c0.554,0.144,1.142,0.065,1.702-0.002c0.606-0.072,1.172-0.095,1.78-0.05
				c1.288,0.094,2.587,0.18,3.877,0.086c0.186-0.013,0.324-0.2,0.304-0.38c-0.065-0.593-0.257-1.147-0.474-1.695
				c0.78-0.306,1.525-0.736,2.2-1.326c0.636-0.555,1.19-1.188,1.691-1.865c0.573-0.122,1.208-0.019,1.775,0.078
				c1.024,0.175,2.037,0.448,3.08,0.478c1.947,0.056,3.897-1.041,4.888-2.713C186.65,354.123,186.473,351.751,185.5,349.98z
				 M184.333,355.343c-0.914,1.422-2.627,2.055-4.255,1.838c-1.006-0.134-2.166-0.488-3.278-0.557
				c0.704-1.218,1.262-2.529,1.729-3.828c0.409-1.135,0.749-2.294,1.044-3.464c1.782-0.505,3.676-0.464,4.685,1.235
				C185.084,351.955,185.226,353.955,184.333,355.343z"/>
			<path style="fill:#222221;" d="M177.627,347.74c-0.198-0.03-0.347,0.108-0.392,0.289c-0.309,1.238-0.439,2.526-0.925,3.714
				c-0.167,0.409,0.461,0.691,0.629,0.28c0.51-1.247,0.653-2.593,0.977-3.891C177.961,347.951,177.798,347.766,177.627,347.74z"/>
			<path style="fill:#222221;" d="M171.854,361.099c-0.098-0.139-0.342-0.203-0.48-0.079c-0.536,0.481-1.372,0.513-2.054,0.516
				c-0.749,0.004-1.502-0.09-2.239-0.221c-0.436-0.077-0.54,0.603-0.103,0.681c0.817,0.144,1.647,0.234,2.478,0.224
				c0.777-0.009,1.714-0.097,2.32-0.641C171.915,361.454,171.969,361.262,171.854,361.099z"/>
			<path style="fill:#222221;" d="M176.171,353.384c-0.202-0.03-0.342,0.109-0.392,0.289c-0.263,0.96-0.881,1.788-1.311,2.674
				c-0.081,0.167,0.008,0.38,0.174,0.454c0.175,0.078,0.373-0.007,0.454-0.174c0.462-0.952,1.08-1.82,1.363-2.851
				C176.509,353.596,176.34,353.409,176.171,353.384z"/>
		</g>
		<g>
			<g>
				<path style="fill:#D8D8EB;" d="M158.572,325.154c-0.773,1.038-1.177,2.457-1.605,3.573c-0.353,0.921-0.806,1.801-1.213,2.699
					c-0.264,0.365-0.541,0.719-0.843,1.037c-0.904,0.953-2.174,2.041-3.472,2.384c-0.203,0.053-0.406,0.084-0.609,0.106
					c-0.822-2.268-1.884-4.457-3.266-6.525c-2.339-3.498-5.677-7.215-10.008-8.096c0.008-0.018,0.017-0.035,0.024-0.053
					c0.081-0.206,0.133-0.422,0.179-0.638c0.024-0.111,0.039-0.225,0.04-0.338c0.002-0.184,0.007-0.381-0.033-0.563
					c-0.029-0.137-0.071-0.272-0.117-0.405c-0.014-0.041-0.03-0.08-0.049-0.119c-0.077-0.156-0.168-0.311-0.281-0.444
					c-0.223-0.263-0.493-0.452-0.808-0.587c-0.035-0.015-0.07-0.028-0.106-0.039c-0.123-0.037-0.249-0.068-0.375-0.092
					c-0.163-0.031-0.332-0.018-0.496-0.013c-0.074,0.002-0.148,0.011-0.22,0.028c-0.158,0.039-0.33,0.08-0.479,0.155
					c-0.118,0.06-0.23,0.133-0.34,0.207c-0.031,0.021-0.061,0.043-0.089,0.068c-0.126,0.11-0.247,0.234-0.34,0.373
					c-0.095,0.141-0.182,0.297-0.237,0.459c-0.058,0.17-0.104,0.352-0.12,0.532c-0.018,0.196-0.011,0.396,0.012,0.591
					c0.026,0.219,0.097,0.432,0.161,0.642c0.01,0.033,0.029,0.062,0.04,0.095c-3.99,0.498-7.259,3.128-9.797,6.535
					c-1.241-1.972-3.14-3.472-5.509-4.061c-6.849-1.702-12.799,5.346-12.835,11.769c-0.01,1.746,0.355,3.482,1.216,5.013
					c0.895,1.592,2.17,2.63,3.794,3.425c1.375,0.673,2.936,1.101,4.128,2.096c0.462,0.386,1.206,1.15,0.922,1.828
					c-0.242,0.577-0.925,0.344-1.345,0.101c-1.202-0.697-2.484,1.064-1.271,1.769c1.222,0.709,2.536,0.709,3.832,0.299
					c-0.348,0.11-0.078,2.105,0.023,2.367c0.31,0.804,0.878,1.184,1.657,1.437c2.41,0.781,5.293,0.702,7.793,1.137
					c3.407,0.593,6.891,0.986,10.352,0.838c3.374-0.145,6.653-0.741,9.957-1.389c2.329-0.457,4.754-0.975,6.555-2.563
					c0.016-0.102,0.04-0.203,0.054-0.305c-0.037,0.03-0.074,0.058-0.112,0.088c0.455-1.451-0.052-3.325-0.221-5
					c4.306-1.793,7.009-5.727,7.555-10.412c0.22-1.886,0.18-3.849,0.689-5.691c0.53-1.922,1.688-3.007,3.703-3.211
					c0.695-0.071,0.947-0.595,0.878-1.113C163.529,325.697,160.953,325.644,158.572,325.154z M118.362,339.062
					c-0.381,1.43-0.815,3.25-1.159,5.191c-0.295-0.393-0.644-0.75-1.015-1.053c-1.224-0.999-2.769-1.51-4.187-2.158
					c-1.526-0.697-2.661-1.616-3.367-3.169c-1.396-3.071-0.518-6.71,1.354-9.377c1.756-2.501,4.47-4.349,7.632-3.827
					c2.315,0.382,4.178,1.993,5.149,4.057C120.677,332.098,119.204,335.904,118.362,339.062z"/>
				<path style="fill:#222221;" d="M116.695,348.813c1.324-0.906,1.411-3.112,0.431-4.301c-0.284-0.345,0.252-0.785,0.536-0.44
					c1.203,1.46,1.107,4.16-0.527,5.278C116.769,349.6,116.327,349.065,116.695,348.813z"/>
				<path style="fill:#222221;" d="M125.604,324.431c3.17-0.185,6.325,0.241,9.479,0.486c3.37,0.262,6.751,0.23,10.128,0.231
					c0.445,0,0.367,0.69-0.076,0.689c-3.32-0.001-6.645,0.031-9.958-0.218c-3.149-0.237-6.305-0.687-9.47-0.503
					C125.267,325.143,125.158,324.457,125.604,324.431z"/>
				<path style="fill:#222221;" d="M134.426,320.243c0.098,0.124,0.131,0.157,0.246,0.243c0.126,0.094,0.181,0.126,0.31,0.183
					c0.264,0.117,0.478,0.163,0.774,0.173c0.088,0.003,0.221-0.005,0.35-0.027c0.067-0.011,0.134-0.026,0.199-0.044
					c0.012-0.005,0.059-0.021,0.06-0.021c0.033-0.012,0.066-0.026,0.099-0.04c0.139-0.061,0.162-0.072,0.281-0.169
					c0.106-0.086,0.156-0.142,0.244-0.28c0.242-0.377,0.804,0.03,0.563,0.405c-0.787,1.224-2.811,1.095-3.663,0.018
					C133.613,320.333,134.149,319.893,134.426,320.243z"/>
				<path style="fill:#222221;" d="M148.441,339.172c0.141-1.209,0.57-2.36,0.959-3.506c0.144-0.423,0.791-0.174,0.647,0.249
					c-0.706,2.079-1.39,4.182-0.578,6.35c0.618,1.65,2.057,2.498,3.611,3.14c0.412,0.17,0.165,0.818-0.249,0.647
					c-1.715-0.709-3.315-1.686-3.996-3.505C148.437,341.478,148.309,340.303,148.441,339.172z"/>
				<g>
					<polygon style="fill:#222221;" points="124.315,327.426 124.31,327.419 124.315,327.425 					"/>
					<path style="fill:#222221;" d="M122.874,329.185c0.234,0.294,0.56,0.496,0.944,0.474c0.574-0.033,0.996-0.582,1.175-1.08
						c0.207-0.577,0.178-1.287-0.266-1.75c-0.135-0.14-0.328-0.168-0.488-0.048c-0.142,0.106-0.174,0.357-0.048,0.488
						c0.025,0.026,0.049,0.053,0.071,0.081c0.012,0.016,0.03,0.048,0.048,0.069c-0.013-0.021-0.022-0.046-0.001-0.005
						c0.002,0.004,0.004,0.008,0.006,0.012c0.003,0.003,0.006,0.009,0.009,0.011c-0.002-0.001-0.005-0.006-0.008-0.01
						c0.005,0.01,0.011,0.019,0.016,0.029c0.014,0.028,0.027,0.057,0.038,0.086c0.001,0.004,0.011,0.029,0.02,0.052
						c-0.002-0.01-0.002-0.009,0.001,0.003c0.005,0.015,0.012,0.032,0.01,0.033c-0.002,0.001-0.005-0.012-0.008-0.025
						c0.001,0.004,0.001,0.003,0.002,0.008c0.003,0.012,0.006,0.024,0.008,0.037c0.013,0.062,0.019,0.124,0.025,0.187
						c0.001,0.01,0.001,0.009,0.002,0.014c0,0.004,0,0.002-0.001,0.011c-0.001,0.032-0.002,0.064-0.004,0.096
						c-0.004,0.054-0.011,0.109-0.02,0.162c-0.005,0.026-0.01,0.051-0.016,0.077c-0.003,0.011-0.006,0.022-0.009,0.034
						c-0.015,0.052-0.033,0.104-0.053,0.154c-0.021,0.053-0.046,0.104-0.071,0.156c-0.004,0.008-0.008,0.015-0.011,0.02
						c-0.014,0.024-0.029,0.047-0.044,0.07c-0.03,0.045-0.062,0.088-0.096,0.129c-0.005,0.007-0.011,0.013-0.017,0.019
						c0.005-0.004,0.002-0.003,0.009-0.008c-0.005,0.003-0.009,0.009-0.013,0.013c-0.002,0.003-0.005,0.006-0.007,0.009
						c-0.003,0.003-0.003,0.002-0.006,0.004c-0.007,0.008-0.015,0.015-0.022,0.022c-0.038,0.035-0.078,0.065-0.119,0.095
						c-0.017,0.009-0.035,0.018-0.052,0.026c-0.018,0.008-0.035,0.014-0.053,0.021c-0.005,0.001-0.009,0.002-0.013,0.003
						c-0.018,0.004-0.037,0.005-0.056,0.008c-0.022-0.003-0.044-0.005-0.066-0.007c-0.019-0.007-0.038-0.013-0.057-0.021
						c-0.004-0.002-0.007-0.003-0.011-0.005c-0.039-0.029-0.08-0.064-0.121-0.09c-0.008-0.009-0.017-0.017-0.025-0.026
						c-0.022-0.025-0.043-0.05-0.064-0.076c-0.121-0.152-0.34-0.159-0.488-0.048C122.77,328.81,122.761,329.043,122.874,329.185z"/>
					<polygon style="fill:#222221;" points="124.392,327.604 124.389,327.593 124.39,327.596 					"/>
					<path style="fill:#222221;" d="M124.069,328.796c-0.017,0.016-0.021,0.011,0.018-0.018c-0.002,0.002-0.003,0.003-0.005,0.005
						C124.078,328.787,124.073,328.791,124.069,328.796z"/>
				</g>
			</g>
			<g>
				<path style="fill:#222221;" d="M134.43,352.427c-0.012,0-0.025,0-0.037,0c-3.012-0.002-5.744-0.056-8.69-0.699
					c-0.735-0.16-1.572-0.224-2.458-0.292c-1.563-0.121-3.179-0.244-4.408-0.923c-0.138-0.076-0.189-0.251-0.112-0.389
					c0.077-0.138,0.251-0.19,0.389-0.112c1.119,0.619,2.672,0.737,4.174,0.853c0.906,0.07,1.762,0.135,2.536,0.304
					c2.89,0.63,5.59,0.684,8.568,0.686c0.012,0,0.025,0,0.037,0c3.04,0,6.213-0.257,9.698-0.788l0.922-0.138
					c2.467-0.365,4.798-0.709,7.049-1.721c0.143-0.065,0.314,0,0.379,0.144c0.065,0.144,0.001,0.314-0.144,0.379
					c-2.324,1.043-4.693,1.393-7.2,1.764l-0.919,0.138C140.7,352.167,137.499,352.427,134.43,352.427z"/>
			</g>
		</g>
		<g>
			<path style="fill:#E89098;" d="M93.51,333.686c0.026-0.324-0.229-0.383-0.568-0.547c-0.684-0.329-1.405-0.435-2.151-0.572
				c-1.206-0.221-2.381-0.441-3.613-0.471c-3.589-0.089-7.14-0.348-10.728-0.116c-1.782,0.116-3.59,0.074-5.343,0.462
				c-1.216,0.27-2.9,0.58-3.583,1.752c-0.129,0.221-0.296,0.701-0.224,0.965c0.095,0.349,0.721,0.559,1.034,0.644
				c1.24,0.338,2.678,0.278,3.955,0.378c2.418,0.189,4.847,0.287,7.257,0.562c2.087,0.238,4.065-0.089,6.126-0.366
				c0.913-0.122,1.836-0.102,2.75-0.204c0.353-0.04,0.658-0.181,1.007-0.241c0.475-0.081,0.949-0.158,1.419-0.266
				c1.252-0.286,2.448-0.434,2.658-1.941C93.508,333.712,93.509,333.699,93.51,333.686z"/>
			<g>
				<g>
					<path style="fill:#E0D87B;" d="M82.868,275.048c-0.251-2.209-0.502-4.451-0.152-6.647c0.35-2.196,1.38-4.38,3.222-5.649
						c1.841-1.27,4.57-1.383,6.233,0.11c0.907,0.814,1.412,1.99,1.655,3.178c0.8,3.916-0.98,7.862-2.885,11.384
						c-1.19,2.199-2.447,4.363-3.77,6.486c-1.604,2.576-2.872,3.578-3.293,0.009C83.529,280.963,83.204,278.004,82.868,275.048z"/>
					<path style="fill:#E0D87B;" d="M75.358,286.9c-1.116-0.983-2.314-1.729-3.533-2.058c-1.327-0.359-2.844-0.209-3.927,0.631
						c-1.856,1.438-1.784,4.434-0.395,6.32c1.436,1.95,4.138,3.263,6.392,3.988c0.68,0.219,7.413,0.384,7.199-0.24
						C80.188,292.895,78.002,289.23,75.358,286.9z"/>
					<path style="fill:#E0D87B;" d="M68.99,298.212c-0.979-0.052-1.997,0.001-2.873,0.435c-0.877,0.434-1.58,1.325-1.536,2.295
						c0.019,0.415,0.168,0.814,0.36,1.183c1.152,2.22,3.762,3.381,6.275,3.551c2.513,0.17,4.998-0.477,7.459-1.01
						c0.457-0.099,0.872-0.161,1.285-0.364C78.83,300.574,72.473,298.399,68.99,298.212z"/>
					<path style="fill:#E0D87B;" d="M89.062,290.399c1.135-1.388,2.285-2.791,3.719-3.874c1.434-1.083,3.203-1.832,5.003-1.716
						c0.754,0.049,1.556,0.286,2.002,0.891c0.609,0.824,0.34,1.989-0.09,2.918c-1.554,3.357-4.978,5.79-8.685,6.172
						c-1.789,0.184-3.57-0.001-5.335,0.426C86.956,293.91,87.857,291.872,89.062,290.399z"/>
					<path style="fill:#E0D87B;" d="M87.353,302.872c1.815-1.568,3.962-2.833,6.328-3.273c0.5-0.093,1.015-0.149,1.516-0.064
						c1.799,0.304,2.848,2.447,2.408,4.202c-0.44,1.755-1.985,3.06-3.665,3.766s-3.519,0.926-5.309,1.276
						c-2.242,0.437-4.441,1.087-6.558,1.938c0.314-0.126,1.065-3.188,1.385-3.706C84.394,305.499,86.015,304.029,87.353,302.872z"/>
					<path style="fill:#E0D87B;" d="M76.543,315.43c-1.196-1.204-2.643-2.233-4.307-2.599c-1.664-0.366-3.567,0.038-4.692,1.307
						c-1.125,1.269-1.192,3.44,0.079,4.567c1.315,1.166,3.316,0.88,5.08,0.924c2.48,0.063,4.931,0.951,6.867,2.487
						c0.041,0.033-0.288-2.907-0.512-3.359C78.452,317.534,77.502,316.394,76.543,315.43z"/>
					<path style="fill:#E0D87B;" d="M88.717,320.23c1.095-0.66,2.317-1.233,3.597-1.166c1.045,0.054,2.019,0.532,2.905,1.083
						c0.535,0.333,1.066,0.711,1.392,1.247c0.692,1.139,0.229,2.69-0.719,3.63c-0.948,0.94-2.266,1.402-3.548,1.793
						c-2.278,0.695-4.598,1.256-6.943,1.68c-1.85,0.334-4.04,0.721-5.088,2.455c1.195-1.699,1.375-3.761,2.568-5.465
						C84.365,323.366,86.504,321.563,88.717,320.23z"/>
					<path style="fill:none;stroke:#111314;stroke-width:0.75;stroke-linecap:round;stroke-miterlimit:10;" d="M80.674,333.113
						c-0.029-18.411-0.029-36.751,6.085-54.072c0-2.038,0-3.057-0.147-5.393"/>
					<path style="fill:none;stroke:#111314;stroke-width:0.75;stroke-linecap:round;stroke-miterlimit:10;" d="M82.288,347.485
						c-0.58-3.628-1.03-7.277-1.351-10.938"/>
					<path style="fill:none;stroke:#111314;stroke-width:0.75;stroke-linecap:round;stroke-miterlimit:10;" d="M80.665,313.319
						c2.136-3.751,5.193-6.544,8.985-8.649"/>
					<path style="fill:none;stroke:#111314;stroke-width:0.75;stroke-linecap:round;stroke-miterlimit:10;" d="M82.428,297.581
						c1.87-1.087,3.639-2.345,5.277-3.752c0.659-0.566,1.296-1.155,1.944-1.733c1.146-1.022,2.326-2.008,3.535-2.956"/>
					<path style="fill:none;stroke:#111314;stroke-width:0.75;stroke-linecap:round;stroke-miterlimit:10;" d="M80.412,330.523
						c1.85-2.941,4.484-5.393,7.563-7.038"/>
					<path style="fill:none;stroke:#111314;stroke-width:0.75;stroke-linecap:round;stroke-miterlimit:10;" d="M80.345,323.072
						c-0.303-0.353-0.538-0.518-0.773-0.919c-0.291-0.495-0.533-1.03-0.932-1.445c-0.476-0.495-1.133-0.773-1.676-1.195
						c-0.78-0.605-1.296-1.48-1.997-2.173c-1.076-1.063-2.601-1.665-4.119-1.628"/>
					<path style="fill:none;stroke:#111314;stroke-width:0.75;stroke-linecap:round;stroke-miterlimit:10;" d="M81.213,306.056
						c-1.135-1.747-2.861-2.53-4.937-2.825c-1.496-0.213-3.069,0.029-4.492-0.474"/>
					<path style="fill:none;stroke:#111314;stroke-width:0.75;stroke-linecap:round;stroke-miterlimit:10;" d="M82.378,297.39
						c-1.678-2.862-4.55-4.303-7.488-5.876"/>
				</g>
				<g>
					<path style="fill:#E89098;" d="M81.726,334.13c-4.507,0.077-9.015,0.13-13.521,0.01c-0.304-0.008-0.826,0.25-0.875,0.551
						c-0.216,1.351,0.284,2.805,0.448,4.094c0.234,1.84,0.599,3.641,0.835,5.499c0.215,1.691,0.79,3.244,1.142,4.89
						c0.288,1.347,0.693,2.694,1.276,3.943c1.178,2.521,3.199,4.439,6.059,4.732c2.296,0.235,4.994-0.053,7.336-0.189
						c1.658-0.096,3.486-0.252,4.498-1.733c1.251-1.83,1.974-4.387,2.556-6.507c1.42-5.167,2.299-10.482,2.014-15.844
						C89.658,334.358,85.611,334.064,81.726,334.13z"/>
				</g>
			</g>
			<path style="fill:#222221;" d="M90.769,343.715c-0.288,1.57-0.489,3.159-0.88,4.709c-0.182,0.724-0.373,1.475-0.663,2.165
				c-0.229,0.544-0.605,1.018-0.813,1.57c-0.115,0.306,0.35,0.515,0.465,0.207c0.208-0.552,0.585-1.026,0.813-1.57
				c0.291-0.694,0.483-1.449,0.671-2.176c0.41-1.588,0.615-3.218,0.91-4.829C91.332,343.469,90.828,343.392,90.769,343.715z"/>
			<path style="fill:#222221;" d="M90.226,333.596c-0.253-0.041-0.493-0.063-0.647-0.076c-1.846-0.156-3.684,0-5.532-0.174
				c-1.491-0.14-2.973-0.173-4.47-0.176c-2.481-0.005-4.927,0.003-7.35,0.552c-0.498,0.113-0.995,0.117-1.391,0.459
				c-1.361,1.176,3.165,1.487,3.748,1.556c2.408,0.285,4.803-0.118,7.208-0.156c1.684-0.027,3.366,0.135,5.05,0.086
				c1.401-0.041,3.032-0.1,4.169-1.053C91.767,333.981,90.944,333.713,90.226,333.596z"/>
			<path style="fill:none;stroke:#111314;stroke-width:0.5;stroke-linecap:round;stroke-miterlimit:10;" d="M68.175,336.116
				c7.542,1.82,14.96,2.512,22.694,0.704"/>
		</g>
	</g>
	<g>
		<path style="fill:#687BC4;" d="M285.683,57.215v52.04c0,0.601,1.315,0.495,1.315-0.103V57
			C286.665,57.321,286.127,57.389,285.683,57.215z"/>
		<g>
			<path style="fill:#FCCFCF;" d="M262.488,142.206c-6.495,0.746-10.734,8.222-9.256,14.181h60.296
				c6.582-6.417,0.362-14.754-6.823-16.381c7.189,0.478,15.104-4.119,13.484-13.12c-0.631-3.504-1.245-6.124-4.848-7.228
				c-2.818-0.864-6.093-0.386-8.81-1.505c3.422-1,7.406-1.6,10.16-4.057c1.306-1.165,2.254-2.701,2.708-4.399
				c0.161-0.603,0.657-5.793-0.513-5.793c-0.143,0-65.191,0-65.191,0c-1.806,2.007-2.62,4.737-1.634,8.408
				c0.836,3.115,6.823,6.879,9.551,7.463c-7.954-0.356-17.013,6.966-14.737,15.828C248.701,142.718,256.32,142.316,262.488,142.206z
				"/>
			<path style="fill:#171616;" d="M306.22,140.255c-6.204,0.001-12.406,0.116-18.607,0.302c-3.075,0.092-6.152,0.177-9.222,0.382
				c-3.105,0.207-6.204,0.493-9.311,0.673c-1.587,0.092-3.148,0.123-4.736,0.052c-1.447-0.065-2.904-0.105-4.305,0.317
				c-0.578,0.174-0.239,1.047,0.336,0.874c1.301-0.392,2.691-0.318,4.032-0.256c1.369,0.063,2.718,0.053,4.086-0.018
				c3.069-0.161,6.13-0.439,9.196-0.656c6.063-0.429,12.158-0.526,18.234-0.639c3.466-0.064,6.933-0.1,10.4-0.101
				C306.924,141.186,306.818,140.255,306.22,140.255z"/>
			<path style="fill:#171616;" d="M305.735,118.193c-5.673,0-11.339,0.349-17.01,0.457c-3.101,0.059-6.197,0.152-9.297,0.271
				c-3.133,0.12-6.269,0.185-9.398-0.055c-3.185-0.245-6.482-0.688-9.633,0.054c-0.579,0.136-0.484,1.069,0.103,0.931
				c2.847-0.671,5.805-0.351,8.685-0.116c3.068,0.251,6.133,0.26,9.209,0.157c6.02-0.201,12.042-0.331,18.062-0.543
				c3.126-0.11,6.253-0.226,9.381-0.226C306.439,119.123,306.333,118.193,305.735,118.193z"/>
			<path style="fill:#FFFFFF;" d="M311.5,123.961c-0.396-0.448-1.16,0.095-0.76,0.546c2.41,2.72,1.488,7.465-1.59,9.287
				c-0.519,0.307,0.032,1.065,0.546,0.76C313.179,132.494,314.225,127.037,311.5,123.961z"/>
			<path style="fill:#FFFFFF;" d="M308.405,143.947c-0.071-0.243-0.382-0.355-0.605-0.269c-0.252,0.097-0.34,0.361-0.269,0.605
				c0.397,1.357,0.21,2.776-0.475,4.006c-0.123,0.221,0.021,0.522,0.237,0.618c0.249,0.111,0.494-0.016,0.618-0.237
				C308.72,147.219,308.869,145.534,308.405,143.947z"/>
			<path style="fill:#FFFFFF;" d="M312.39,147.319c-0.503,1.338-1.175,2.675-2.272,3.627c-1.101,0.955-2.478,1.434-3.898,1.675
				c-0.591,0.1-0.493,1.032,0.103,0.931c1.568-0.266,3.123-0.788,4.341-1.845c1.228-1.065,2.015-2.501,2.581-4.006
				C313.456,147.138,312.602,146.754,312.39,147.319z"/>
			<path style="fill:#FFFFFF;" d="M262.579,153.143c-1.716-0.898-2.996-2.384-4.5-3.571c-0.473-0.373-1.068,0.35-0.594,0.723
				c1.576,1.244,2.913,2.76,4.713,3.703C262.732,154.277,263.111,153.421,262.579,153.143z"/>
			<path style="fill:#FFFFFF;" d="M261.367,136.899c-1.161-0.579-1.95-1.683-2.512-2.82c-0.585-1.184-0.979-2.449-1.363-3.709
				c-0.176-0.577-1.049-0.239-0.874,0.335c0.792,2.601,1.744,5.74,4.368,7.048C261.525,138.023,261.905,137.167,261.367,136.899z"/>
			<path style="fill:#FFFFFF;" d="M270.584,134.734c-0.878-1.964-1.518-4.019-2.182-6.061c-0.187-0.574-1.06-0.236-0.874,0.335
				c0.664,2.043,1.305,4.097,2.182,6.061C269.955,135.618,270.83,135.286,270.584,134.734z"/>
			<path style="fill:#FFFFFF;" d="M280.763,129.345c-0.273,0.042-0.414,0.254-0.414,0.517v2.667c0,0.246,0.286,0.45,0.517,0.414
				c0.273-0.042,0.414-0.254,0.414-0.517v-2.667C281.28,129.514,280.994,129.31,280.763,129.345z"/>
			<path style="fill:#FFFFFF;" d="M293.402,127.335c-0.078-0.596-1.009-0.497-0.931,0.103c0.313,2.381,0.257,4.769,0.002,7.152
				c-0.064,0.597,0.862,0.741,0.926,0.14C293.662,132.269,293.724,129.793,293.402,127.335z"/>
			<path style="fill:#FFFFFF;" d="M303.432,126.196c-0.267-0.041-0.475,0.146-0.533,0.393c-0.323,1.374-0.647,2.748-0.97,4.121
				c-0.058,0.246,0.158,0.497,0.393,0.533c0.267,0.04,0.475-0.146,0.533-0.393c0.323-1.374,0.647-2.748,0.97-4.122
				C303.883,126.483,303.667,126.232,303.432,126.196z"/>
			<path style="fill:#FFFFFF;" d="M275.618,154.025c-1.457-1.756-1.942-4.072-2.61-6.198c-0.181-0.576-1.054-0.238-0.874,0.335
				c0.692,2.204,1.213,4.588,2.724,6.409C275.241,155.033,276.003,154.489,275.618,154.025z"/>
			<path style="fill:#FFFFFF;" d="M290.25,146.246c-0.058-0.248-0.244-0.441-0.517-0.414c-0.229,0.023-0.471,0.271-0.414,0.517
				c0.466,2.004,0.727,4.075,0.038,6.062c-0.196,0.565,0.657,0.951,0.855,0.381C290.961,150.635,290.758,148.43,290.25,146.246z"/>
			<path style="fill:#FFFFFF;" d="M299.463,146.973c-0.03-0.602-0.96-0.498-0.931,0.103c0.043,0.882-0.004,1.761-0.201,2.625
				c-0.198,0.867-0.557,1.685-0.974,2.467c-0.284,0.532,0.573,0.91,0.855,0.381c0.457-0.858,0.828-1.758,1.045-2.708
				C299.472,148.901,299.51,147.933,299.463,146.973z"/>
			<path style="fill:#FFFFFF;" d="M261.231,114.66c-1.262-0.907-2.626-1.954-3.188-3.461c-0.543-1.455-0.278-3.104-0.04-4.593
				c0.095-0.594-0.831-0.736-0.926-0.14c-0.264,1.655-0.51,3.455,0.092,5.068c0.621,1.663,2.07,2.845,3.468,3.849
				C261.124,115.734,261.721,115.012,261.231,114.66z"/>
			<path style="fill:#FFFFFF;" d="M269.614,106.853c-0.264-0.537-1.14-0.206-0.874,0.335c1.055,2.146,0.706,4.608,0.699,6.915
				c-0.002,0.601,0.929,0.495,0.931-0.103C270.376,111.607,270.71,109.081,269.614,106.853z"/>
			<path style="fill:#FFFFFF;" d="M279.34,109.636c-0.094-0.593-1.026-0.494-0.931,0.103c0.244,1.535,0.518,3.066,0.727,4.607
				c0.081,0.596,1.012,0.496,0.931-0.103C279.858,112.702,279.584,111.172,279.34,109.636z"/>
			<path style="fill:#FFFFFF;" d="M289.438,111.839c-0.404-0.727-0.808-1.455-1.212-2.182c-0.119-0.215-0.47-0.251-0.653-0.107
				c-0.219,0.172-0.235,0.424-0.107,0.653l1.212,2.182c0.119,0.215,0.47,0.251,0.653,0.107
				C289.549,112.321,289.565,112.068,289.438,111.839z"/>
			<path style="fill:#FFFFFF;" d="M306.219,106.351c-0.215-0.096-0.536-0.004-0.618,0.237c-0.493,1.451-0.718,3.003-1.455,4.364
				c-0.121,0.223,0.019,0.521,0.237,0.618c0.246,0.11,0.497-0.014,0.618-0.237c0.737-1.362,0.961-2.912,1.455-4.364
				C306.538,106.729,306.465,106.461,306.219,106.351z"/>
			<path style="fill:#FFFFFF;" d="M316.024,108.114c-0.214-0.175-0.477-0.112-0.659,0.065c-1.599,1.553-3.234,3.069-4.849,4.606
				c-0.183,0.174-0.114,0.513,0.065,0.659c0.215,0.177,0.475,0.111,0.659-0.064c1.615-1.537,3.25-3.053,4.849-4.607
				C316.27,108.597,316.203,108.261,316.024,108.114z"/>
			<path style="fill:#FFFFFF;" d="M295.826,107.939c-0.09-0.594-1.021-0.495-0.931,0.103c0.279,1.847,0.238,3.714,0.242,5.576
				c0.001,0.253,0.285,0.44,0.517,0.414c0.273-0.03,0.414-0.263,0.414-0.517C296.064,111.654,296.105,109.786,295.826,107.939z"/>
		</g>
		<path style="fill:#687BC4;" d="M300.159,102.919c-2.896,0.595-5.867,0.455-8.818,0.332c1.922-0.076,3.845-0.154,5.769-0.129
			c0.601,0.008,0.494-0.923-0.103-0.931c-0.349-0.004-0.698,0.007-1.047,0.009c0.158-0.181,0.192-0.455-0.059-0.633
			c-1.869-1.323-4.512-0.908-6.69-0.546c-2.054,0.03-4.108,0.021-6.145-0.282c-0.595-0.088-0.738,0.837-0.14,0.926
			c0.333,0.049,0.666,0.087,0.999,0.122c-1.139,0.092-2.325,0.103-3.406-0.286c-0.564-0.203-0.949,0.651-0.381,0.855
			c0.598,0.215,1.218,0.336,1.849,0.396c-1.92,0.148-3.839,0.196-5.711-0.317c-0.579-0.159-0.716,0.768-0.14,0.926
			c0.082,0.023,0.166,0.033,0.249,0.053c-0.651,0.063-1.305,0.115-1.958,0.094c-0.598-0.019-1.344-0.052-1.803-0.487
			c-0.438-0.415-1.029,0.311-0.595,0.723c0.898,0.851,2.485,0.736,3.618,0.669c1.496-0.088,2.97-0.312,4.47-0.351
			c4.422-0.114,8.851,0.063,13.271,0.18c2.293,0.061,4.615,0.069,6.872-0.395C300.846,103.729,300.75,102.797,300.159,102.919z
			 M286.806,102.374c1.619-0.076,3.235-0.321,4.842-0.067c-0.062,0.002-0.124,0.003-0.186,0.005
			c-1.68,0.067-3.361,0.076-5.041,0.128C286.553,102.418,286.677,102.396,286.806,102.374z"/>
	</g>
</g>
</svg>
