<?xml version="1.0" encoding="utf-8"?>
<!-- Generator: Adobe Illustrator 27.5.0, SVG Export Plug-In . SVG Version: 6.00 Build 0)  -->
<svg version="1.1" xmlns="http://www.w3.org/2000/svg" xmlns:xlink="http://www.w3.org/1999/xlink" x="0px" y="0px"
	 viewBox="0 0 500 500" style="enable-background:new 0 0 500 500;" xml:space="preserve">
<g id="Background_Complete">
	<g>
		<rect y="382.398" style="fill:#EBEBEB;" width="500" height="0.25"/>
		<rect x="416.779" y="398.494" style="fill:#EBEBEB;" width="33.122" height="0.25"/>
		<rect x="322.527" y="401.208" style="fill:#EBEBEB;" width="8.693" height="0.25"/>
		<rect x="396.586" y="389.208" style="fill:#EBEBEB;" width="19.192" height="0.25"/>
		<rect x="52.459" y="390.888" style="fill:#EBEBEB;" width="43.193" height="0.25"/>
		<rect x="104.556" y="390.888" style="fill:#EBEBEB;" width="6.333" height="0.25"/>
		<rect x="131.471" y="395.111" style="fill:#EBEBEB;" width="93.676" height="0.25"/>
		<path style="fill:#EBEBEB;" d="M237.014,337.8H43.915c-3.147,0-5.708-2.561-5.708-5.708V60.66c0-3.147,2.561-5.708,5.708-5.708
			h193.099c3.146,0,5.707,2.561,5.707,5.708v271.432C242.721,335.239,240.16,337.8,237.014,337.8z M43.915,55.203
			c-3.01,0-5.458,2.448-5.458,5.458v271.432c0,3.01,2.448,5.458,5.458,5.458h193.099c3.009,0,5.457-2.448,5.457-5.458V60.66
			c0-3.009-2.448-5.458-5.457-5.458H43.915z"/>
		<path style="fill:#EBEBEB;" d="M453.31,337.8H260.212c-3.147,0-5.707-2.561-5.707-5.708V60.66c0-3.147,2.561-5.708,5.707-5.708
			H453.31c3.148,0,5.708,2.561,5.708,5.708v271.432C459.019,335.239,456.458,337.8,453.31,337.8z M260.212,55.203
			c-3.009,0-5.457,2.448-5.457,5.458v271.432c0,3.01,2.448,5.458,5.457,5.458H453.31c3.01,0,5.458-2.448,5.458-5.458V60.66
			c0-3.009-2.448-5.458-5.458-5.458H260.212z"/>
	</g>
	<g>
		<path style="fill:#F5F5F5;" d="M67.214,376.872l0.469-68.975l10.245-8.654l4.744-22.813l6.138-7.166l3.304-15.968l5.6,7.276
			l3.166,43.671l3.167-5.001l2.524-16.982l5.06,5.441l6.33,1.582l3.692,36.08l93.959,11.217l19.585-16.756l7.962-32.651l8.253-8.519
			l2.512-15.738l7.888,2.734v16.61l6.711,3.858l2.868,33.706l8.418,11.657l2.397-20.831c0,0,6.45-5.16,7.872-6.406
			c1.422-1.246,9.562-23.896,8.334-25.589c-1.228-1.693,1.759-16.39,1.759-16.39l8.128,4.869v24.348l8.487,2.149l1.277,10.613
			l21.637,3.498l3.479-16.261h9.648l3.03,9.265l8.781-0.059l13.894,9.963l11.424-22.422l11.618,5.402l8.364-19.425l8.797,11.386
			l3.257,36.923l4.507,0.527l2.093-7.958l8.456,7.958v53.83H67.214z"/>
		<path style="fill:#F5F5F5;" d="M223.454,192.64h51.882l-0.01-0.012c4.465-0.124,8.049-3.775,8.049-8.27
			c0-4.574-3.708-8.281-8.282-8.281c-0.827,0-1.624,0.125-2.378,0.35c0.121-0.83,0.186-1.679,0.186-2.543
			c0-9.686-7.852-17.538-17.538-17.538c-1.104,0-2.183,0.107-3.23,0.302c-2.695-4.411-7.541-7.366-13.089-7.366
			c-8.397,0-15.209,6.747-15.334,15.115c-0.086-0.001-0.169-0.013-0.255-0.013c-7.802,0-14.127,6.325-14.127,14.127
			C209.327,186.315,215.652,192.64,223.454,192.64z"/>
		<path style="fill:#F5F5F5;" d="M192.404,110.016h19.515l-0.004-0.004c1.679-0.047,3.027-1.42,3.027-3.111
			c0-1.72-1.395-3.115-3.115-3.115c-0.311,0-0.611,0.047-0.895,0.132c0.046-0.312,0.07-0.632,0.07-0.956
			c0-3.643-2.953-6.597-6.597-6.597c-0.415,0-0.821,0.04-1.215,0.114c-1.014-1.659-2.837-2.771-4.923-2.771
			c-3.159,0-5.721,2.538-5.768,5.685c-0.032-0.001-0.064-0.005-0.096-0.005c-2.935,0-5.314,2.379-5.314,5.314
			C187.09,107.637,189.469,110.016,192.404,110.016z"/>
		<path style="fill:#F5F5F5;" d="M370.161,116.065h19.515l-0.004-0.004c1.679-0.047,3.027-1.42,3.027-3.111
			c0-1.72-1.395-3.115-3.115-3.115c-0.311,0-0.611,0.047-0.895,0.132c0.046-0.312,0.07-0.632,0.07-0.956
			c0-3.643-2.953-6.597-6.597-6.597c-0.415,0-0.821,0.04-1.215,0.114c-1.014-1.659-2.837-2.771-4.923-2.771
			c-3.159,0-5.721,2.538-5.768,5.685c-0.032-0.001-0.064-0.005-0.096-0.005c-2.935,0-5.314,2.379-5.314,5.314
			S367.226,116.065,370.161,116.065z"/>
		<path style="fill:#F5F5F5;" d="M370.161,174.079h19.515l-0.004-0.005c1.679-0.047,3.027-1.42,3.027-3.111
			c0-1.72-1.395-3.115-3.115-3.115c-0.311,0-0.611,0.047-0.895,0.132c0.046-0.312,0.07-0.632,0.07-0.956
			c0-3.643-2.953-6.597-6.597-6.597c-0.415,0-0.821,0.04-1.215,0.114c-1.014-1.659-2.837-2.771-4.923-2.771
			c-3.159,0-5.721,2.538-5.768,5.685c-0.032-0.001-0.064-0.005-0.096-0.005c-2.935,0-5.314,2.379-5.314,5.314
			C364.847,171.699,367.226,174.079,370.161,174.079z"/>
		<path style="fill:#F5F5F5;" d="M82.718,189.007h28.225L110.938,189c2.429-0.068,4.379-2.053,4.379-4.499
			c0-2.488-2.017-4.505-4.505-4.505c-0.45,0-0.884,0.068-1.294,0.191c0.066-0.452,0.101-0.913,0.101-1.383
			c0-5.269-4.272-9.541-9.541-9.541c-0.601,0-1.188,0.058-1.757,0.164c-1.466-2.4-4.103-4.007-7.121-4.007
			c-4.568,0-8.274,3.671-8.342,8.223c-0.047-0.001-0.092-0.007-0.139-0.007c-4.245,0-7.686,3.441-7.686,7.686
			C75.033,185.566,78.474,189.007,82.718,189.007z"/>
		<path style="fill:#F5F5F5;" d="M293.962,125.754h28.225l-0.006-0.006c2.429-0.068,4.379-2.054,4.379-4.499
			c0-2.488-2.017-4.505-4.505-4.505c-0.45,0-0.884,0.068-1.294,0.191c0.066-0.452,0.101-0.913,0.101-1.383
			c0-5.269-4.272-9.541-9.541-9.541c-0.601,0-1.188,0.058-1.758,0.164c-1.467-2.4-4.103-4.007-7.121-4.007
			c-4.569,0-8.274,3.671-8.342,8.223c-0.047-0.001-0.092-0.007-0.139-0.007c-4.245,0-7.686,3.441-7.686,7.686
			C286.277,122.313,289.718,125.754,293.962,125.754z"/>
		<path style="fill:#E0E0E0;" d="M204.538,282.282c2.123-15.47-4.413-32.843-13.597-44.318c-1.693-2.115-3.51-4.169-4.742-6.584
			c-3.798-7.451,2.109-12.671,7.619-16.853c20.796-15.783-2.606-18.533-13.533-27.575c-0.972-0.805-1.944-1.762-2.174-3.003
			c-0.377-2.037,1.339-3.802,2.902-5.163c7.543-6.565,16.887-13.149,18.57-23.782c0.701-4.431-0.396-9.307-3.608-12.44
			c-8.084-7.883-54.422,1.431-45.792-19.413c1.262-3.047,3.108-6.184,2.436-9.414c-4.161-19.99-53.447-12.112-66.767-11.449
			c11.297-0.562,22.686,0.775,33.546,3.938c5.015,1.461,10.732,4.291,11.264,9.488c0.521,5.091-4.286,8.832-8.003,11.375
			c-5.665,3.876-12.829,9.809-6.823,17.023c7.609,9.139,22.427,10.4,33.181,13.263c3.756,1,7.818,2.52,8.019,7.075
			c0.114,2.591-1.011,5.068-2.272,7.335c-2.693,4.841-6.13,9.289-8.243,14.409c-2.091,5.068-2.293,11.945,1.303,16.662
			c6.904,9.056,19.348,6.567,10.459,21.599c-11.208,18.954-10.612,41.26-2.378,61.322c4.139,10.085,11.714,21.724,23.746,22.456
			c6.675,0.406,13.197-3.158,17.43-8.335C201.317,294.712,203.663,288.659,204.538,282.282z"/>
		<path style="fill:#EBEBEB;" d="M429.554,358.12l-16.528-3.298l-3.723-45.172l-11.275-7.81l-3.929-38.739l-10.13-11.404
			l-4.712,8.886l-7.691,14.042l-2.565,13.77l-4.363,12.294l-9.421,14.732l-8.456-7.551c0,0-4.609-7.481-6.815-8.455
			c-2.205-0.974-11.226-1.801-11.226-1.801l-12.54,12.037v9.362l-12.829,6.841l-7.893,7.931l-4.721,5.829l-8.764,4.555
			c-19.271-13.296-67.035-50.609-77.62-100.159l-12.02,11.289l-8.551-13.434l-6.729,14.159l4.727,14.897l-8.243,7.512l3.517,15.051
			l-9.81-15.051l5.271-10.656l-4.031-9.369l2.983-13.869l-9.271-4.19l-11.821,18.059l-8.087-14.398
			c0,0-10.047,75.149-94.025,136.946h399.332L429.554,358.12z"/>
	</g>
</g>
<g id="Background_Simple" style="display:none;">
	<g style="display:inline;">
		<path style="fill:#407BFF;" d="M86.544,101.625c27.919-59.449,127.059-51.062,165.317-9.255
			c38.258,41.806,50.696,68.599,85.208,52.983c34.512-15.616,78.518-11.44,81.043,38.164
			c2.525,49.604-37.913,108.263-102.09,125.615c-64.177,17.352-64.161,78.759-149.1,66.368c-46.31-6.756-47.365-56.86-40.825-98.301
			C132.637,235.758,54.166,170.569,86.544,101.625z"/>
		<path style="opacity:0.9;fill:#FFFFFF;" d="M86.544,101.625c27.919-59.449,127.059-51.062,165.317-9.255
			c38.258,41.806,50.696,68.599,85.208,52.983c34.512-15.616,78.518-11.44,81.043,38.164
			c2.525,49.604-37.913,108.263-102.09,125.615c-64.177,17.352-64.161,78.759-149.1,66.368c-46.31-6.756-47.365-56.86-40.825-98.301
			C132.637,235.758,54.166,170.569,86.544,101.625z"/>
	</g>
</g>
<g id="Shadow_1_">
	<ellipse id="_x3C_Path_x3E__359_" style="fill:#F5F5F5;" cx="250" cy="416.238" rx="193.889" ry="11.323"/>
</g>
<g id="Plant">
	<g>
		<g>
			<path style="fill:#407BFF;" d="M136.471,383.375c0,0-3.774-0.199-4.151-10.526c-0.376-10.327,6.276-13.083,11.395-11.817
				c0,0-0.747-7.352,2.57-7.083c3.317,0.27,3.09,5.18,3.09,5.18s1.132-10.426,5.66-10.43c4.528-0.004,0,12.333,0,12.333
				s6.264-3.008,8.566,0c2.301,3.008-2.877,6.534-2.877,6.534s8.122,2.647,4.726,11.069c0,0,5.66,0.883,7.245,4.653
				c0,0-0.453-7.607,1.585-7.097c2.038,0.51,1.585,7.183,1.585,7.183s3.396-7.33,6.339-4.739s-1.358,8.798-1.358,8.798
				s5.66-2.748,6.565,0.893c0.906,3.641-3.17,4.999-3.17,4.999s5.886-1.361,5.886,5.393c0,0,11.32-1.081,14.036,4.985h-67.465
				L136.471,383.375z"/>
			<path style="opacity:0.4;fill:#FFFFFF;enable-background:new    ;" d="M136.471,383.375c0,0-3.774-0.199-4.151-10.526
				c-0.376-10.327,6.276-13.083,11.395-11.817c0,0-0.747-7.352,2.57-7.083c3.317,0.27,3.09,5.18,3.09,5.18s1.132-10.426,5.66-10.43
				c4.528-0.004,0,12.333,0,12.333s6.264-3.008,8.566,0c2.301,3.008-2.877,6.534-2.877,6.534s8.122,2.647,4.726,11.069
				c0,0,5.66,0.883,7.245,4.653c0,0-0.453-7.607,1.585-7.097c2.038,0.51,1.585,7.183,1.585,7.183s3.396-7.33,6.339-4.739
				s-1.358,8.798-1.358,8.798s5.66-2.748,6.565,0.893c0.906,3.641-3.17,4.999-3.17,4.999s5.886-1.361,5.886,5.393
				c0,0,11.32-1.081,14.036,4.985h-67.465L136.471,383.375z"/>
		</g>
		<g>
			<g>
				<path style="fill:#407BFF;" d="M383.399,403.703h36.634c0,0-7.295-11.162-10.404-9.746c-4.047,1.843-7.046-8.268-11.526-5.873
					c-1.579,0.844-0.806,3.549-1.801,4.638c-1.642,1.798-3.73,1.449-5.715,2.438C386.7,397.096,385.316,399.662,383.399,403.703z"/>
				<path style="opacity:0.6;fill:#FFFFFF;enable-background:new    ;" d="M383.399,403.703h36.634c0,0-7.295-11.162-10.404-9.746
					c-4.047,1.843-7.046-8.268-11.526-5.873c-1.579,0.844-0.806,3.549-1.801,4.638c-1.642,1.798-3.73,1.449-5.715,2.438
					C386.7,397.096,385.316,399.662,383.399,403.703z"/>
			</g>
			<g>
				<path style="fill:#407BFF;" d="M416.029,400.59c0,0-2.405-13.953-0.745-15.998c1.66-2.045,1.951,7.613,1.951,7.613
					s5.58-20.161,9.151-20.267c3.571-0.106-4.24,17.49-4.24,17.49s15.262-24.942,19.699-22.619
					c4.436,2.323-15.975,24.432-15.975,24.432s11.164-9.605,13.623-6.893c2.46,2.712-12.393,11.007-12.393,11.007
					s6.549-1.473,6.542,0.708C433.636,398.241,422.586,401.828,416.029,400.59z"/>
				<path style="opacity:0.2;fill:#FFFFFF;enable-background:new    ;" d="M416.029,400.59c0,0-2.405-13.953-0.745-15.998
					c1.66-2.045,1.951,7.613,1.951,7.613s5.58-20.161,9.151-20.267c3.571-0.106-4.24,17.49-4.24,17.49s15.262-24.942,19.699-22.619
					c4.436,2.323-15.975,24.432-15.975,24.432s11.164-9.605,13.623-6.893c2.46,2.712-12.393,11.007-12.393,11.007
					s6.549-1.473,6.542,0.708C433.636,398.241,422.586,401.828,416.029,400.59z"/>
			</g>
			<g>
				<path style="fill:#407BFF;" d="M413.83,398.597c0,0-11.47-2.081-12.583-3.942c-1.113-1.861,6.439,0.641,6.439,0.641
					s-14.016-10.009-13.089-12.8c0.926-2.791,12.329,8.218,12.329,8.218s-14.979-18.846-11.929-21.621
					c3.049-2.775,14.383,19.254,14.383,19.254s-4.275-11.346-1.484-12.482s5.012,12.692,5.012,12.692s0.711-5.48,2.395-4.859
					C416.986,384.318,416.639,393.876,413.83,398.597z"/>
				<path style="opacity:0.2;fill:#FFFFFF;enable-background:new    ;" d="M413.83,398.597c0,0-11.47-2.081-12.583-3.942
					c-1.113-1.861,6.439,0.641,6.439,0.641s-14.016-10.009-13.089-12.8c0.926-2.791,12.329,8.218,12.329,8.218
					s-14.979-18.846-11.929-21.621c3.049-2.775,14.383,19.254,14.383,19.254s-4.275-11.346-1.484-12.482s5.012,12.692,5.012,12.692
					s0.711-5.48,2.395-4.859C416.986,384.318,416.639,393.876,413.83,398.597z"/>
			</g>
			<g>
				<path style="fill:#407BFF;" d="M412.969,397.072c0,0-11.077-11.097-10.879-14.007c0.198-2.91,6.622,5.647,6.622,5.647
					s-7.809-21.81-4.644-24.183c3.165-2.374,7.319,18.536,7.319,18.536s-2.094-32.313,3.404-33.04
					c5.497-0.727,1.123,32.306,1.123,32.306s3.979-15.815,7.935-14.93c3.956,0.886-4.198,17.868-4.198,17.868
					s4.989-5.51,6.373-3.532C427.409,383.716,419.694,394.011,412.969,397.072z"/>
				<path style="opacity:0.4;fill:#FFFFFF;enable-background:new    ;" d="M412.969,397.072c0,0-11.077-11.097-10.879-14.007
					c0.198-2.91,6.622,5.647,6.622,5.647s-7.809-21.81-4.644-24.183c3.165-2.374,7.319,18.536,7.319,18.536
					s-2.094-32.313,3.404-33.04c5.497-0.727,1.123,32.306,1.123,32.306s3.979-15.815,7.935-14.93
					c3.956,0.886-4.198,17.868-4.198,17.868s4.989-5.51,6.373-3.532C427.409,383.716,419.694,394.011,412.969,397.072z"/>
			</g>
			<path style="fill:#407BFF;" d="M399.54,403.703h29.193c0,0-5.813-8.895-8.291-7.766c-3.225,1.469-5.615-6.589-9.185-4.68
				c-1.258,0.672-0.642,2.828-1.435,3.696c-1.308,1.433-2.973,1.155-4.554,1.943C402.172,398.438,401.069,400.483,399.54,403.703z"
				/>
			<path style="opacity:0.7;fill:#FFFFFF;enable-background:new    ;" d="M399.54,403.703h29.193c0,0-5.813-8.895-8.291-7.766
				c-3.225,1.469-5.615-6.589-9.185-4.68c-1.258,0.672-0.642,2.828-1.435,3.696c-1.308,1.433-2.973,1.155-4.554,1.943
				C402.172,398.438,401.069,400.483,399.54,403.703z"/>
		</g>
		<g>
			<path style="fill:#407BFF;" d="M402.252,403.703l-7.581-35.165l-12.3-12.47v-29.91l-11.75-29.89l-13.65-11.26l-43.9,26.19
				l6.13,34.76c0,0-15.83,16.25-17.21,16.25c-1.38,0-8.48-2.11-8.48-2.11l-19.66,27.01l-14.88,4.77l-4.905,11.826H402.252z"/>
			<path style="opacity:0.7;fill:#FFFFFF;enable-background:new    ;" d="M402.252,403.703l-7.581-35.165l-12.3-12.47v-29.91
				l-11.75-29.89l-13.65-11.26l-43.9,26.19l6.13,34.76c0,0-15.83,16.25-17.21,16.25c-1.38,0-8.48-2.11-8.48-2.11l-19.66,27.01
				l-14.88,4.77l-4.905,11.826H402.252z"/>
			<polygon style="opacity:0.1;enable-background:new    ;" points="402.252,403.703 394.67,368.538 375.29,391.458 340.3,395.428 
				333.97,380.508 312.29,377.338 299.55,391.838 291.93,386.918 267.62,396.088 258.97,391.878 254.065,403.703 			"/>
			<polygon style="opacity:0.1;enable-background:new    ;" points="382.37,356.068 364.989,368.538 352.227,359 323.568,348.714 
				352.969,353.659 357.621,327.352 382.37,326.158 			"/>
		</g>
		<g>
			<g>
				<path style="fill:#407BFF;" d="M246.492,403.703h-36.634c0,0,7.295-11.162,10.404-9.746c4.047,1.843,7.046-8.268,11.526-5.873
					c1.578,0.844,0.806,3.549,1.801,4.638c1.642,1.798,3.73,1.449,5.715,2.438C243.191,397.096,244.574,399.662,246.492,403.703z"/>
				<path style="opacity:0.6;fill:#FFFFFF;enable-background:new    ;" d="M246.492,403.703h-36.634c0,0,7.295-11.162,10.404-9.746
					c4.047,1.843,7.046-8.268,11.526-5.873c1.578,0.844,0.806,3.549,1.801,4.638c1.642,1.798,3.73,1.449,5.715,2.438
					C243.191,397.096,244.574,399.662,246.492,403.703z"/>
			</g>
			<g>
				<path style="fill:#407BFF;" d="M213.862,400.59c0,0,2.405-13.953,0.745-15.998c-1.66-2.045-1.951,7.613-1.951,7.613
					s-5.58-20.161-9.151-20.267c-3.571-0.106,4.24,17.49,4.24,17.49s-15.262-24.942-19.699-22.619
					c-4.436,2.323,15.975,24.432,15.975,24.432s-11.164-9.605-13.623-6.893c-2.46,2.712,12.393,11.007,12.393,11.007
					s-6.549-1.473-6.542,0.708C196.255,398.241,207.305,401.828,213.862,400.59z"/>
				<path style="opacity:0.2;fill:#FFFFFF;enable-background:new    ;" d="M213.862,400.59c0,0,2.405-13.953,0.745-15.998
					c-1.66-2.045-1.951,7.613-1.951,7.613s-5.58-20.161-9.151-20.267c-3.571-0.106,4.24,17.49,4.24,17.49
					s-15.262-24.942-19.699-22.619c-4.436,2.323,15.975,24.432,15.975,24.432s-11.164-9.605-13.623-6.893
					c-2.46,2.712,12.393,11.007,12.393,11.007s-6.549-1.473-6.542,0.708C196.255,398.241,207.305,401.828,213.862,400.59z"/>
			</g>
			<g>
				<path style="fill:#407BFF;" d="M216.061,398.597c0,0,11.47-2.081,12.583-3.942c1.113-1.861-6.438,0.641-6.438,0.641
					s14.016-10.009,13.089-12.8c-0.926-2.791-12.329,8.218-12.329,8.218s14.979-18.846,11.93-21.621s-14.383,19.254-14.383,19.254
					s4.275-11.346,1.484-12.482c-2.792-1.136-5.012,12.692-5.012,12.692s-0.711-5.48-2.395-4.859
					C212.905,384.318,213.252,393.876,216.061,398.597z"/>
				<path style="opacity:0.2;fill:#FFFFFF;enable-background:new    ;" d="M216.061,398.597c0,0,11.47-2.081,12.583-3.942
					c1.113-1.861-6.438,0.641-6.438,0.641s14.016-10.009,13.089-12.8c-0.926-2.791-12.329,8.218-12.329,8.218
					s14.979-18.846,11.93-21.621s-14.383,19.254-14.383,19.254s4.275-11.346,1.484-12.482c-2.792-1.136-5.012,12.692-5.012,12.692
					s-0.711-5.48-2.395-4.859C212.905,384.318,213.252,393.876,216.061,398.597z"/>
			</g>
			<g>
				<path style="fill:#407BFF;" d="M216.922,397.072c0,0,11.077-11.097,10.879-14.007c-0.198-2.91-6.622,5.647-6.622,5.647
					s7.809-21.81,4.644-24.183c-3.165-2.374-7.319,18.536-7.319,18.536s2.094-32.313-3.404-33.04
					c-5.498-0.727-1.123,32.306-1.123,32.306s-3.979-15.815-7.935-14.93c-3.956,0.886,4.197,17.868,4.197,17.868
					s-4.989-5.51-6.373-3.532C202.482,383.716,210.197,394.011,216.922,397.072z"/>
				<path style="opacity:0.4;fill:#FFFFFF;enable-background:new    ;" d="M216.922,397.072c0,0,11.077-11.097,10.879-14.007
					c-0.198-2.91-6.622,5.647-6.622,5.647s7.809-21.81,4.644-24.183c-3.165-2.374-7.319,18.536-7.319,18.536
					s2.094-32.313-3.404-33.04c-5.498-0.727-1.123,32.306-1.123,32.306s-3.979-15.815-7.935-14.93
					c-3.956,0.886,4.197,17.868,4.197,17.868s-4.989-5.51-6.373-3.532C202.482,383.716,210.197,394.011,216.922,397.072z"/>
			</g>
			<path style="fill:#407BFF;" d="M230.35,403.703h-29.193c0,0,5.813-8.895,8.291-7.766c3.225,1.469,5.615-6.589,9.185-4.68
				c1.258,0.672,0.642,2.828,1.435,3.696c1.308,1.433,2.973,1.155,4.554,1.943C227.719,398.438,228.822,400.483,230.35,403.703z"/>
			<path style="opacity:0.7;fill:#FFFFFF;enable-background:new    ;" d="M230.35,403.703h-29.193c0,0,5.813-8.895,8.291-7.766
				c3.225,1.469,5.615-6.589,9.185-4.68c1.258,0.672,0.642,2.828,1.435,3.696c1.308,1.433,2.973,1.155,4.554,1.943
				C227.719,398.438,228.822,400.483,230.35,403.703z"/>
		</g>
		<g>
			<polygon style="fill:#407BFF;" points="156.34,403.703 57.086,403.703 58.519,398.157 67.1,395.052 58.519,383.18 
				64.305,370.105 80.75,370.804 77.627,350.157 81.448,341.063 94.753,339.312 91.604,325.662 96.726,312.366 104.608,312.366 
				128.413,353.855 130.067,348.76 136.366,343.16 143.044,350.157 			"/>
			<polygon style="opacity:0.7;fill:#FFFFFF;enable-background:new    ;" points="156.34,403.703 57.086,403.703 58.519,398.157 
				67.1,395.052 58.519,383.18 64.305,370.105 80.75,370.804 77.627,350.157 81.448,341.063 94.753,339.312 91.604,325.662 
				96.726,312.366 104.608,312.366 128.413,353.855 130.067,348.76 136.366,343.16 143.044,350.157 			"/>
			<polygon style="opacity:0.1;enable-background:new    ;" points="156.34,403.703 57.086,403.703 58.519,398.157 67.1,395.052 
				58.519,383.18 67.454,384.755 82.855,394.132 78.883,379.367 80.75,370.804 85.182,365.603 99.884,380.349 91.25,375.67 
				89.154,379.129 93.815,395.786 109.217,398.068 119.717,393.548 119.478,376.935 111.782,372.6 104.608,380.349 96.726,344.133 
				106.713,363.267 112.72,358.03 123.45,362.33 128.413,353.855 130.067,348.76 129.209,375.448 132.084,390.894 136.366,386.17 
				142.116,384.755 			"/>
		</g>
		<g>
			<g>
				<path style="fill:#407BFF;" d="M152.821,403.47c0,0,7.281-12.143,6.472-14.65c-0.809-2.507-4.569,6.395-4.569,6.395
					s2.077-20.816-1.215-22.204c-3.292-1.388-2.363,17.841-2.363,17.841s-5.225-28.77-10.201-28.206
					c-4.976,0.564,6.074,28.552,6.074,28.552s-6.942-12.988-10.214-11.348c-3.273,1.64,7.582,14.739,7.582,14.739
					s-5.575-3.738-6.356-1.702C137.25,394.922,146.259,402.257,152.821,403.47z"/>
				<path style="opacity:0.2;fill:#FFFFFF;enable-background:new    ;" d="M152.821,403.47c0,0,7.281-12.143,6.472-14.65
					c-0.809-2.507-4.569,6.395-4.569,6.395s2.077-20.816-1.215-22.204c-3.292-1.388-2.363,17.841-2.363,17.841
					s-5.225-28.77-10.201-28.206c-4.976,0.564,6.074,28.552,6.074,28.552s-6.942-12.988-10.214-11.348
					c-3.273,1.64,7.582,14.739,7.582,14.739s-5.575-3.738-6.356-1.702C137.25,394.922,146.259,402.257,152.821,403.47z"/>
			</g>
			<g>
				<path style="fill:#407BFF;" d="M155.591,402.406c0,0,11.447,2.202,13.157,0.868c1.71-1.334-6.235-1.727-6.235-1.727
					s16.685-4.272,16.829-7.21c0.144-2.938-14.464,3.211-14.464,3.211s20.774-12.166,18.932-15.854
					c-1.841-3.689-20.365,12.761-20.365,12.761s8.084-9.036,5.891-11.104c-2.193-2.068-9.257,10.026-9.257,10.026
					s1.316-5.367-0.478-5.396C157.805,387.951,154.676,396.989,155.591,402.406z"/>
				<path style="opacity:0.2;fill:#FFFFFF;enable-background:new    ;" d="M155.591,402.406c0,0,11.447,2.202,13.157,0.868
					c1.71-1.334-6.235-1.727-6.235-1.727s16.685-4.272,16.829-7.21c0.144-2.938-14.464,3.211-14.464,3.211
					s20.774-12.166,18.932-15.854c-1.841-3.689-20.365,12.761-20.365,12.761s8.084-9.036,5.891-11.104
					c-2.193-2.068-9.257,10.026-9.257,10.026s1.316-5.367-0.478-5.396C157.805,387.951,154.676,396.989,155.591,402.406z"/>
			</g>
			<g>
				<path style="fill:#407BFF;" d="M156.945,401.295c0,0,14.337-6.348,15.203-9.133c0.866-2.785-8.215,2.874-8.215,2.874
					s15.158-17.518,13.064-20.874c-2.094-3.356-13.519,14.643-13.519,14.643s13.622-29.376,8.758-32.04
					c-4.864-2.663-12.714,29.72-12.714,29.72s2.001-16.185-2.008-16.788c-4.009-0.603-2.538,18.178-2.538,18.178
					s-2.662-6.94-4.668-5.595C148.303,383.625,151.779,396.012,156.945,401.295z"/>
				<path style="opacity:0.4;fill:#FFFFFF;enable-background:new    ;" d="M156.945,401.295c0,0,14.337-6.348,15.203-9.133
					c0.866-2.785-8.215,2.874-8.215,2.874s15.158-17.518,13.064-20.874c-2.094-3.356-13.519,14.643-13.519,14.643
					s13.622-29.376,8.758-32.04c-4.864-2.663-12.714,29.72-12.714,29.72s2.001-16.185-2.008-16.788
					c-4.009-0.603-2.538,18.178-2.538,18.178s-2.662-6.94-4.668-5.595C148.303,383.625,151.779,396.012,156.945,401.295z"/>
			</g>
		</g>
	</g>
</g>
<g id="Machine">
	<g>
		<g>
			<rect x="218.24" y="387.433" style="fill:#263238;" width="12.503" height="24.217"/>
			<g>
				<path style="fill:#407BFF;" d="M255.545,158.513h-25.722c0.155-1.777,0.302-3.572,0.449-5.376
					c0.544-6.471,1.07-13.098,1.579-19.855c0.095-1.286,1.087-2.632,2.304-2.986c5.574-1.579,11.485-1.579,17.059,0
					c1.217,0.354,2.209,1.7,2.304,2.986c0.535,6.963,1.07,13.78,1.622,20.441C255.278,155.329,255.407,156.926,255.545,158.513z"/>
				<ellipse style="opacity:0.2;fill:#FFFFFF;" cx="235.844" cy="144.77" rx="4.182" ry="10.159"/>
				<path style="opacity:0.3;fill:#FFFFFF;" d="M236.827,143.813c0,2.605-1.045,4.717-2.335,4.717c-1.289,0-2.335-2.112-2.335-4.717
					c0-2.605,1.045-4.718,2.335-4.718C235.781,139.095,236.827,141.207,236.827,143.813z"/>
				<g>
					<path style="opacity:0.2;" d="M242.502,143.07v1.096c0,0.921,0.727,1.677,1.639,1.716v10.822h-2.879v-16.669
						c0-0.795,0.65-1.444,1.444-1.444c0.785,0,1.435,0.65,1.435,1.444v1.309C243.229,141.383,242.502,142.149,242.502,143.07z"/>
					<g>
						<path style="opacity:0.2;" d="M251.208,144.359c-0.107,2.036-0.64,3.568-1.289,3.568c-0.107,0-0.204-0.048-0.301-0.116
							l-5.691-2.317c-0.572,0-1.037-0.844-1.037-1.871c0-1.037,0.465-1.871,1.037-1.871l5.681-2.414
							c0.097-0.078,0.204-0.136,0.31-0.136c0.649,0,1.183,1.542,1.289,3.577c-0.107-1.774-0.591-3.122-1.173-3.122
							c-0.669,0-1.212,1.755-1.212,3.907c0,2.162,0.543,3.907,1.212,3.907C250.617,147.471,251.102,146.133,251.208,144.359z"/>
						<path style="opacity:0.2;" d="M240.988,141.538l-5.192-2.202c-0.099-0.078-0.202-0.131-0.309-0.131
							c-0.732,0-1.326,1.953-1.326,4.363c0,2.41,0.594,4.363,1.326,4.363c0.104,0,0.203-0.048,0.3-0.122l5.201-2.117V141.538z"/>
					</g>
				</g>
				<ellipse style="opacity:0.5;fill:#FFFFFF;" cx="249.498" cy="144.205" rx="4.182" ry="10.159"/>
				<path style="opacity:0.5;fill:#FFFFFF;" d="M253.253,143.813c0,2.095-0.841,3.793-1.877,3.793c-1.037,0-1.878-1.698-1.878-3.793
					c0-2.095,0.841-3.793,1.878-3.793C252.413,140.019,253.253,141.718,253.253,143.813z"/>
				<path style="opacity:0.3;fill:#FFFFFF;" d="M233.141,132.339c0,0,8.932-2.674,18.775,0c0,0-2.276-2.674-9.842-2.674
					C234.507,129.665,233.141,132.339,233.141,132.339z"/>
				<path style="opacity:0.2;" d="M255.545,158.513h-25.722c0.155-1.777,0.302-3.572,0.449-5.376
					c0.975,0.803,3.935,2.304,12.425,2.304c7.127,0,10.725-0.966,12.442-1.717C255.278,155.329,255.407,156.926,255.545,158.513z"/>
				<path style="fill:#263238;" d="M250.877,160.554v-2.518c0-1.716-1.391-3.107-3.106-3.107h-10.172
					c-1.716,0-3.106,1.391-3.106,3.107v2.518H250.877z"/>
				<path style="fill:#263238;" d="M255.172,162.378h-24.975c-0.558,0-1.01-0.452-1.01-1.009v-3.215c0-0.557,0.452-1.009,1.01-1.009
					h24.975c0.557,0,1.009,0.452,1.009,1.009v3.215C256.181,161.926,255.73,162.378,255.172,162.378z"/>
				<path style="opacity:0.4;fill:#FFFFFF;" d="M255.172,162.378h-24.975c-0.558,0-1.01-0.452-1.01-1.009v-3.215
					c0-0.557,0.452-1.009,1.01-1.009h24.975c0.557,0,1.009,0.452,1.009,1.009v3.215C256.181,161.926,255.73,162.378,255.172,162.378
					z"/>
				<g>
					<path style="fill:#407BFF;" d="M262.185,119.053c0.14-0.193,0.099-0.462-0.094-0.603c-0.193-0.141-0.463-0.099-0.603,0.094
						c-0.382,0.524-1.272,1.306-2.133,2.062c-0.937,0.824-1.822,1.602-2.26,2.202c-0.738,1.01-1.575,2.155-1.847,3.521
						c-0.047,0.234,0.105,0.461,0.339,0.507c0.028,0.006,0.057,0.008,0.085,0.008c0.201,0,0.382-0.142,0.423-0.347
						c0.235-1.179,1.012-2.243,1.698-3.181c0.383-0.524,1.272-1.306,2.133-2.062C260.862,120.431,261.746,119.653,262.185,119.053z"
						/>
					<path style="fill:#407BFF;" d="M272.28,134.781c-0.103-0.214-0.362-0.306-0.576-0.202c-1.724,0.829-3.94,1.137-6.083,1.436
						c-1.693,0.236-3.444,0.479-4.941,0.981c-0.226,0.076-0.348,0.32-0.272,0.546c0.061,0.18,0.229,0.294,0.409,0.294
						c0.046,0,0.092-0.007,0.137-0.022c1.421-0.477,3.055-0.704,4.785-0.945c2.209-0.307,4.493-0.625,6.339-1.513
						C272.293,135.254,272.383,134.996,272.28,134.781z"/>
					<path style="fill:#407BFF;" d="M271.229,151.647c-1.075-0.359-2.465-0.712-3.936-1.085c-1.59-0.403-3.233-0.821-4.399-1.236
						c-0.226-0.08-0.471,0.037-0.552,0.262c-0.08,0.225,0.038,0.471,0.262,0.551c1.205,0.429,2.868,0.851,4.477,1.26
						c1.456,0.369,2.831,0.718,3.876,1.067c0.045,0.015,0.091,0.022,0.136,0.022c0.181,0,0.349-0.114,0.409-0.295
						C271.577,151.967,271.455,151.722,271.229,151.647z"/>
					<path style="fill:#407BFF;" d="M268.24,165.582c-1.548-0.905-2.613-2.062-3.74-3.286c-0.724-0.787-1.473-1.601-2.383-2.382
						c-0.18-0.155-0.452-0.134-0.608,0.046c-0.155,0.181-0.134,0.453,0.046,0.608c0.872,0.748,1.603,1.543,2.31,2.311
						c1.172,1.274,2.279,2.477,3.939,3.447c0.069,0.04,0.144,0.059,0.217,0.059c0.148,0,0.293-0.076,0.373-0.214
						C268.515,165.966,268.446,165.702,268.24,165.582z"/>
					<path style="fill:#407BFF;" d="M224.727,119.37c-0.178-0.158-0.451-0.143-0.609,0.037c-0.158,0.178-0.142,0.451,0.037,0.609
						c2.209,1.959,4.169,4.192,5.826,6.639c0.083,0.123,0.219,0.19,0.358,0.19c0.083,0,0.167-0.024,0.241-0.074
						c0.197-0.134,0.249-0.402,0.115-0.599C228.998,123.664,226.99,121.376,224.727,119.37z"/>
					<path style="fill:#407BFF;" d="M225.227,136.271c-1.174-0.324-2.464-0.849-3.831-1.404c-2.388-0.972-4.858-1.976-7.072-2.049
						c-0.233-0.02-0.437,0.178-0.445,0.417c-0.008,0.238,0.179,0.438,0.417,0.445c2.06,0.068,4.458,1.043,6.776,1.986
						c1.39,0.566,2.703,1.1,3.926,1.437c0.038,0.01,0.077,0.016,0.115,0.016c0.189,0,0.363-0.126,0.415-0.317
						C225.592,136.572,225.457,136.335,225.227,136.271z"/>
					<path style="fill:#407BFF;" d="M221.925,148.589c0.003,0,0.007,0,0.009,0c0.238,0,0.431-0.193,0.431-0.43
						c0.001-0.242-0.189-0.425-0.441-0.433c-1.168,0-2.214,0.532-3.138,1.001c-1.113,0.566-2.232,0.597-3.416,0.629
						c-1.227,0.034-2.497,0.069-3.783,0.723c-0.212,0.108-0.297,0.368-0.189,0.58c0.076,0.15,0.228,0.236,0.385,0.236
						c0.066,0,0.132-0.015,0.195-0.047c1.113-0.566,2.232-0.597,3.416-0.629c1.228-0.034,2.497-0.069,3.783-0.723
						C220.014,149.072,220.964,148.589,221.925,148.589z"/>
					<path style="fill:#407BFF;" d="M223.668,160.402l-0.463,0.186c-2.414,0.967-4.91,1.968-6.673,4.008
						c-0.156,0.18-0.136,0.453,0.044,0.609c0.082,0.07,0.182,0.105,0.282,0.105c0.121,0,0.241-0.05,0.327-0.149
						c1.626-1.882,3.916-2.8,6.341-3.771l0.465-0.187c0.221-0.089,0.328-0.34,0.239-0.562
						C224.14,160.42,223.889,160.314,223.668,160.402z"/>
					<path style="fill:#407BFF;" d="M243.392,113.677c-0.242-0.03-0.45,0.145-0.476,0.382c-0.281,2.582-0.457,7.853-0.35,10.446
						c0.01,0.232,0.201,0.414,0.431,0.414c0.006,0,0.012,0,0.018,0c0.238-0.01,0.423-0.211,0.413-0.449
						c-0.106-2.561,0.069-7.767,0.346-10.317C243.8,113.916,243.629,113.703,243.392,113.677z"/>
				</g>
				<g style="opacity:0.5;">
					<path style="fill:#FFFFFF;" d="M262.185,119.053c0.14-0.193,0.099-0.462-0.094-0.603c-0.193-0.141-0.463-0.099-0.603,0.094
						c-0.382,0.524-1.272,1.306-2.133,2.062c-0.937,0.824-1.822,1.602-2.26,2.202c-0.738,1.01-1.575,2.155-1.847,3.521
						c-0.047,0.234,0.105,0.461,0.339,0.507c0.028,0.006,0.057,0.008,0.085,0.008c0.201,0,0.382-0.142,0.423-0.347
						c0.235-1.179,1.012-2.243,1.698-3.181c0.383-0.524,1.272-1.306,2.133-2.062C260.862,120.431,261.746,119.653,262.185,119.053z"
						/>
					<path style="fill:#FFFFFF;" d="M272.28,134.781c-0.103-0.214-0.362-0.306-0.576-0.202c-1.724,0.829-3.94,1.137-6.083,1.436
						c-1.693,0.236-3.444,0.479-4.941,0.981c-0.226,0.076-0.348,0.32-0.272,0.546c0.061,0.18,0.229,0.294,0.409,0.294
						c0.046,0,0.092-0.007,0.137-0.022c1.421-0.477,3.055-0.704,4.785-0.945c2.209-0.307,4.493-0.625,6.339-1.513
						C272.293,135.254,272.383,134.996,272.28,134.781z"/>
					<path style="fill:#FFFFFF;" d="M271.229,151.647c-1.075-0.359-2.465-0.712-3.936-1.085c-1.59-0.403-3.233-0.821-4.399-1.236
						c-0.226-0.08-0.471,0.037-0.552,0.262c-0.08,0.225,0.038,0.471,0.262,0.551c1.205,0.429,2.868,0.851,4.477,1.26
						c1.456,0.369,2.831,0.718,3.876,1.067c0.045,0.015,0.091,0.022,0.136,0.022c0.181,0,0.349-0.114,0.409-0.295
						C271.577,151.967,271.455,151.722,271.229,151.647z"/>
					<path style="fill:#FFFFFF;" d="M268.24,165.582c-1.548-0.905-2.613-2.062-3.74-3.286c-0.724-0.787-1.473-1.601-2.383-2.382
						c-0.18-0.155-0.452-0.134-0.608,0.046c-0.155,0.181-0.134,0.453,0.046,0.608c0.872,0.748,1.603,1.543,2.31,2.311
						c1.172,1.274,2.279,2.477,3.939,3.447c0.069,0.04,0.144,0.059,0.217,0.059c0.148,0,0.293-0.076,0.373-0.214
						C268.515,165.966,268.446,165.702,268.24,165.582z"/>
					<path style="fill:#FFFFFF;" d="M224.727,119.37c-0.178-0.158-0.451-0.143-0.609,0.037c-0.158,0.178-0.142,0.451,0.037,0.609
						c2.209,1.959,4.169,4.192,5.826,6.639c0.083,0.123,0.219,0.19,0.358,0.19c0.083,0,0.167-0.024,0.241-0.074
						c0.197-0.134,0.249-0.402,0.115-0.599C228.998,123.664,226.99,121.376,224.727,119.37z"/>
					<path style="fill:#FFFFFF;" d="M225.227,136.271c-1.174-0.324-2.464-0.849-3.831-1.404c-2.388-0.972-4.858-1.976-7.072-2.049
						c-0.233-0.02-0.437,0.178-0.445,0.417c-0.008,0.238,0.179,0.438,0.417,0.445c2.06,0.068,4.458,1.043,6.776,1.986
						c1.39,0.566,2.703,1.1,3.926,1.437c0.038,0.01,0.077,0.016,0.115,0.016c0.189,0,0.363-0.126,0.415-0.317
						C225.592,136.572,225.457,136.335,225.227,136.271z"/>
					<path style="fill:#FFFFFF;" d="M221.925,148.589c0.003,0,0.007,0,0.009,0c0.238,0,0.431-0.193,0.431-0.43
						c0.001-0.242-0.189-0.425-0.441-0.433c-1.168,0-2.214,0.532-3.138,1.001c-1.113,0.566-2.232,0.597-3.416,0.629
						c-1.227,0.034-2.497,0.069-3.783,0.723c-0.212,0.108-0.297,0.368-0.189,0.58c0.076,0.15,0.228,0.236,0.385,0.236
						c0.066,0,0.132-0.015,0.195-0.047c1.113-0.566,2.232-0.597,3.416-0.629c1.228-0.034,2.497-0.069,3.783-0.723
						C220.014,149.072,220.964,148.589,221.925,148.589z"/>
					<path style="fill:#FFFFFF;" d="M223.668,160.402l-0.463,0.186c-2.414,0.967-4.91,1.968-6.673,4.008
						c-0.156,0.18-0.136,0.453,0.044,0.609c0.082,0.07,0.182,0.105,0.282,0.105c0.121,0,0.241-0.05,0.327-0.149
						c1.626-1.882,3.916-2.8,6.341-3.771l0.465-0.187c0.221-0.089,0.328-0.34,0.239-0.562
						C224.14,160.42,223.889,160.314,223.668,160.402z"/>
					<path style="fill:#FFFFFF;" d="M243.392,113.677c-0.242-0.03-0.45,0.145-0.476,0.382c-0.281,2.582-0.457,7.853-0.35,10.446
						c0.01,0.232,0.201,0.414,0.431,0.414c0.006,0,0.012,0,0.018,0c0.238-0.01,0.423-0.211,0.413-0.449
						c-0.106-2.561,0.069-7.767,0.346-10.317C243.8,113.916,243.629,113.703,243.392,113.677z"/>
				</g>
			</g>
			<path style="fill:#263238;" d="M269.564,167.194v246.49h-53.56v-3.38h7.94c0.83,0,1.5-0.68,1.5-1.5c0-0.83-0.67-1.5-1.5-1.5
				h-7.94v-2.44h7.94c0.83,0,1.5-0.67,1.5-1.5c0-0.82-0.67-1.5-1.5-1.5h-7.94v-2.43h7.94c0.83,0,1.5-0.67,1.5-1.5
				c0-0.82-0.67-1.5-1.5-1.5h-7.94v-2.43h7.94c0.83,0,1.5-0.67,1.5-1.5c0-0.83-0.67-1.5-1.5-1.5h-7.94v-223.81
				c0-3.55,2.88-6.42,6.42-6.42h40.72C266.684,160.774,269.564,163.644,269.564,167.194z"/>
			<path style="opacity:0.4;fill:#FFFFFF;enable-background:new    ;" d="M269.564,167.194v246.49h-53.56v-3.38h7.94
				c0.83,0,1.5-0.68,1.5-1.5c0-0.83-0.67-1.5-1.5-1.5h-7.94v-2.44h7.94c0.83,0,1.5-0.67,1.5-1.5c0-0.82-0.67-1.5-1.5-1.5h-7.94
				v-2.43h7.94c0.83,0,1.5-0.67,1.5-1.5c0-0.82-0.67-1.5-1.5-1.5h-7.94v-2.43h7.94c0.83,0,1.5-0.67,1.5-1.5c0-0.83-0.67-1.5-1.5-1.5
				h-7.94v-223.81c0-3.55,2.88-6.42,6.42-6.42h40.72C266.684,160.774,269.564,163.644,269.564,167.194z"/>
			<g>
				<path style="fill:#263238;" d="M269.455,169.359h-30.447c-5.892,0-10.685,4.793-10.685,10.685v41.189c0,0.829,0.671,1.5,1.5,1.5
					c0.829,0,1.5-0.671,1.5-1.5v-41.189c0-4.237,3.447-7.685,7.685-7.685h30.447c0.829,0,1.5-0.671,1.5-1.5
					S270.283,169.359,269.455,169.359z"/>
				<path style="fill:#263238;" d="M216.008,193.458c1.215,0,2.204,0.989,2.204,2.204v25.571c0,0.829,0.671,1.5,1.5,1.5
					c0.829,0,1.5-0.671,1.5-1.5v-25.571c0-2.869-2.334-5.204-5.204-5.204c-0.829,0-1.5,0.671-1.5,1.5
					C214.508,192.787,215.179,193.458,216.008,193.458z"/>
				<path style="fill:#263238;" d="M216.008,327.507h2.871c3.462,0,6.278-2.816,6.278-6.279v-88.126c0-0.829-0.671-1.5-1.5-1.5
					c-0.829,0-1.5,0.671-1.5,1.5v88.126c0,1.809-1.471,3.279-3.278,3.279h-2.871c-0.829,0-1.5,0.672-1.5,1.5
					S215.179,327.507,216.008,327.507z"/>
				<path style="fill:#263238;" d="M264.016,389.402h-21.21c-5.219,0-9.465-4.246-9.465-9.465v-27.165
					c0-6.874-5.592-12.466-12.465-12.466h-4.868c-0.829,0-1.5,0.672-1.5,1.5c0,0.828,0.671,1.5,1.5,1.5h4.868
					c5.219,0,9.465,4.246,9.465,9.466v27.165c0,6.873,5.592,12.465,12.465,12.465h21.21c0.829,0,1.5-0.672,1.5-1.5
					C265.516,390.074,264.845,389.402,264.016,389.402z"/>
				<g style="opacity:0.2;enable-background:new    ;">
					<path style="fill:#FFFFFF;" d="M269.455,169.359h-30.447c-5.892,0-10.685,4.793-10.685,10.685v41.189
						c0,0.829,0.671,1.5,1.5,1.5c0.829,0,1.5-0.671,1.5-1.5v-41.189c0-4.237,3.447-7.685,7.685-7.685h30.447
						c0.829,0,1.5-0.671,1.5-1.5S270.283,169.359,269.455,169.359z"/>
					<path style="fill:#FFFFFF;" d="M216.008,193.458c1.215,0,2.204,0.989,2.204,2.204v25.571c0,0.829,0.671,1.5,1.5,1.5
						c0.829,0,1.5-0.671,1.5-1.5v-25.571c0-2.869-2.334-5.204-5.204-5.204c-0.829,0-1.5,0.671-1.5,1.5
						C214.508,192.787,215.179,193.458,216.008,193.458z"/>
					<path style="fill:#FFFFFF;" d="M216.008,327.507h2.871c3.462,0,6.278-2.816,6.278-6.279v-88.126c0-0.829-0.671-1.5-1.5-1.5
						c-0.829,0-1.5,0.671-1.5,1.5v88.126c0,1.809-1.471,3.279-3.278,3.279h-2.871c-0.829,0-1.5,0.672-1.5,1.5
						S215.179,327.507,216.008,327.507z"/>
					<path style="fill:#FFFFFF;" d="M264.016,389.402h-21.21c-5.219,0-9.465-4.246-9.465-9.465v-27.165
						c0-6.874-5.592-12.466-12.465-12.466h-4.868c-0.829,0-1.5,0.672-1.5,1.5c0,0.828,0.671,1.5,1.5,1.5h4.868
						c5.219,0,9.465,4.246,9.465,9.466v27.165c0,6.873,5.592,12.465,12.465,12.465h21.21c0.829,0,1.5-0.672,1.5-1.5
						C265.516,390.074,264.845,389.402,264.016,389.402z"/>
				</g>
			</g>
			<g>
				<path style="fill:#407BFF;" d="M224.799,251.531c-0.389,0-1.897,0-2.285,0c-4.536,0-8.228,4.078-8.228,9.09
					c0,5.012,3.691,9.09,8.228,9.09c0.389,0,1.897,0,2.285,0c4.536,0,8.228-4.078,8.228-9.09
					C233.027,255.609,229.336,251.531,224.799,251.531z"/>
				<path style="fill:#407BFF;" d="M222.514,251.531c-4.536,0-8.228,4.078-8.228,9.09c0,5.012,3.691,9.09,8.228,9.09
					c4.536,0,8.228-4.078,8.228-9.09C230.742,255.609,227.051,251.531,222.514,251.531z"/>
				<ellipse style="fill:#FFFFFF;" cx="222.514" cy="260.621" rx="7.252" ry="8.012"/>
				<g>
					<g style="opacity:0.2;">
						<path d="M222.514,269.711c-4.536,0-8.228-4.078-8.228-9.09c0-5.012,3.691-9.09,8.228-9.09c4.536,0,8.228,4.078,8.228,9.09
							C230.742,265.632,227.051,269.711,222.514,269.711z M222.514,252.609c-3.999,0-7.252,3.594-7.252,8.012
							c0,4.418,3.253,8.012,7.252,8.012c3.999,0,7.252-3.594,7.252-8.012C229.767,256.203,226.513,252.609,222.514,252.609z"/>
					</g>
					
						<line style="fill:none;stroke:#263238;stroke-width:1.0253;stroke-linecap:round;stroke-linejoin:round;stroke-miterlimit:10;" x1="222.661" y1="260.621" x2="225.925" y2="255.196"/>
					<path style="fill:#263238;" d="M223.771,260.621c0,0.677-0.497,1.226-1.109,1.226c-0.613,0-1.109-0.549-1.109-1.226
						s0.497-1.226,1.109-1.226C223.274,259.395,223.771,259.944,223.771,260.621z"/>
				</g>
				<path style="opacity:0.2;" d="M223.092,268.611c-0.194,0.013-0.388,0.025-0.582,0.025c-3.997,0-7.251-3.596-7.251-8.011
					c0-4.428,3.255-8.011,7.251-8.011c0.194,0,0.388,0.013,0.582,0.025c-3.745,0.315-6.692,3.772-6.692,7.986
					C216.4,264.826,219.346,268.283,223.092,268.611z"/>
			</g>
			<g>
				<path style="fill:#407BFF;" d="M224.799,273.545c-0.389,0-1.897,0-2.285,0c-4.536,0-8.228,4.078-8.228,9.09
					c0,5.012,3.691,9.09,8.228,9.09c0.389,0,1.897,0,2.285,0c4.536,0,8.228-4.078,8.228-9.09
					C233.027,277.623,229.336,273.545,224.799,273.545z"/>
				<path style="fill:#407BFF;" d="M222.514,273.545c-4.536,0-8.228,4.078-8.228,9.09c0,5.012,3.691,9.09,8.228,9.09
					c4.536,0,8.228-4.078,8.228-9.09C230.742,277.623,227.051,273.545,222.514,273.545z"/>
				<ellipse style="fill:#FFFFFF;" cx="222.514" cy="282.634" rx="7.252" ry="8.012"/>
				<g>
					<g style="opacity:0.2;">
						<path d="M222.514,291.724c-4.536,0-8.228-4.078-8.228-9.09c0-5.012,3.691-9.09,8.228-9.09c4.536,0,8.228,4.078,8.228,9.09
							C230.742,287.646,227.051,291.724,222.514,291.724z M222.514,274.622c-3.999,0-7.252,3.594-7.252,8.012
							c0,4.418,3.253,8.012,7.252,8.012c3.999,0,7.252-3.594,7.252-8.012C229.767,278.216,226.513,274.622,222.514,274.622z"/>
					</g>
					
						<line style="fill:none;stroke:#263238;stroke-width:1.0253;stroke-linecap:round;stroke-linejoin:round;stroke-miterlimit:10;" x1="222.661" y1="282.634" x2="225.925" y2="286.855"/>
					<path style="fill:#263238;" d="M223.771,282.634c0,0.677-0.497,1.226-1.109,1.226c-0.613,0-1.109-0.549-1.109-1.226
						s0.497-1.226,1.109-1.226C223.274,281.409,223.771,281.957,223.771,282.634z"/>
				</g>
				<path style="opacity:0.2;" d="M223.092,290.625c-0.194,0.013-0.388,0.025-0.582,0.025c-3.997,0-7.251-3.595-7.251-8.011
					c0-4.428,3.255-8.011,7.251-8.011c0.194,0,0.388,0.013,0.582,0.025c-3.745,0.315-6.692,3.772-6.692,7.986
					C216.4,286.84,219.346,290.297,223.092,290.625z"/>
			</g>
			<g>
				<path style="fill:#407BFF;" d="M224.799,295.559c-0.389,0-1.897,0-2.285,0c-4.536,0-8.228,4.078-8.228,9.09
					c0,5.012,3.691,9.09,8.228,9.09c0.389,0,1.897,0,2.285,0c4.536,0,8.228-4.078,8.228-9.09
					C233.027,299.637,229.336,295.559,224.799,295.559z"/>
				<path style="fill:#407BFF;" d="M222.514,295.559c-4.536,0-8.228,4.078-8.228,9.09c0,5.012,3.691,9.09,8.228,9.09
					c4.536,0,8.228-4.078,8.228-9.09C230.742,299.637,227.051,295.559,222.514,295.559z"/>
				<ellipse style="fill:#FFFFFF;" cx="222.514" cy="304.648" rx="7.252" ry="8.012"/>
				<g>
					<g style="opacity:0.2;">
						<path d="M222.514,313.738c-4.536,0-8.228-4.078-8.228-9.09c0-5.012,3.691-9.09,8.228-9.09c4.536,0,8.228,4.078,8.228,9.09
							C230.742,309.66,227.051,313.738,222.514,313.738z M222.514,296.636c-3.999,0-7.252,3.594-7.252,8.012
							c0,4.418,3.253,8.012,7.252,8.012c3.999,0,7.252-3.594,7.252-8.012C229.767,300.23,226.513,296.636,222.514,296.636z"/>
					</g>
					
						<line style="fill:none;stroke:#263238;stroke-width:1.0253;stroke-linecap:round;stroke-linejoin:round;stroke-miterlimit:10;" x1="222.661" y1="304.648" x2="218.24" y2="301.122"/>
					<path style="fill:#263238;" d="M223.771,304.648c0,0.677-0.497,1.226-1.109,1.226c-0.613,0-1.109-0.549-1.109-1.226
						s0.497-1.226,1.109-1.226C223.274,303.423,223.771,303.971,223.771,304.648z"/>
				</g>
				<path style="opacity:0.2;" d="M223.092,312.639c-0.194,0.013-0.388,0.025-0.582,0.025c-3.997,0-7.251-3.596-7.251-8.011
					c0-4.428,3.255-8.011,7.251-8.011c0.194,0,0.388,0.013,0.582,0.025c-3.745,0.315-6.692,3.772-6.692,7.986
					C216.4,308.854,219.346,312.311,223.092,312.639z"/>
			</g>
			<g>
				<path style="fill:#407BFF;" d="M237.931,237.884h-24.012c-1.516,0-2.744-1.229-2.744-2.744v-14.715
					c0-1.515,1.229-2.744,2.744-2.744h24.012c1.515,0,2.744,1.229,2.744,2.744v14.715
					C240.675,236.655,239.447,237.884,237.931,237.884z"/>
				<path style="opacity:0.2;fill:#FFFFFF;" d="M232.323,237.884h-18.404c-1.516,0-2.744-1.229-2.744-2.744v-14.715
					c0-1.515,1.229-2.744,2.744-2.744h18.404c1.516,0,2.744,1.229,2.744,2.744v14.715
					C235.067,236.655,233.839,237.884,232.323,237.884z"/>
				<path style="fill:#263238;" d="M249.639,229.282c0.829,0,1.5-0.671,1.5-1.5s-0.671-1.5-1.5-1.5h-10.678
					c-0.829,0-1.5,0.671-1.5,1.5s0.671,1.5,1.5,1.5H249.639z"/>
				<path style="opacity:0.2;fill:#FFFFFF;" d="M249.639,229.282c0.829,0,1.5-0.671,1.5-1.5s-0.671-1.5-1.5-1.5h-10.678
					c-0.829,0-1.5,0.671-1.5,1.5s0.671,1.5,1.5,1.5H249.639z"/>
			</g>
			<path style="opacity:0.1;" d="M269.564,173.254v240.43h-26.88v-208.74C242.684,188.984,254.314,175.754,269.564,173.254z"/>
		</g>
		<g>
			<polygon style="fill:#263238;" points="311.47,105.569 317.696,158.921 305.244,158.921 			"/>
			<path style="fill:#407BFF;" d="M306.081,110.958c0,2.976,2.413,5.388,5.388,5.388c2.976,0,5.388-2.412,5.388-5.388
				c0-2.976-2.412-5.388-5.388-5.388C308.494,105.569,306.081,107.982,306.081,110.958z"/>
			<g>
				<path style="fill:#407BFF;" d="M306.532,121.575h9.876c0.829,0,1.5-0.671,1.5-1.5s-0.671-1.5-1.5-1.5h-9.876
					c-0.829,0-1.5,0.671-1.5,1.5S305.703,121.575,306.532,121.575z"/>
				<path style="fill:#407BFF;" d="M320.747,147.327h-18.554c-0.829,0-1.5,0.671-1.5,1.5s0.671,1.5,1.5,1.5h18.554
					c0.829,0,1.5-0.671,1.5-1.5S321.575,147.327,320.747,147.327z"/>
				<path style="fill:#407BFF;" d="M304.405,135.665h14.128c0.829,0,1.5-0.671,1.5-1.5c0-0.829-0.671-1.5-1.5-1.5h-14.128
					c-0.829,0-1.5,0.671-1.5,1.5C302.905,134.994,303.577,135.665,304.405,135.665z"/>
				<path style="fill:#407BFF;" d="M305.537,128.168h12.159c0.829,0,1.5-0.671,1.5-1.5s-0.671-1.5-1.5-1.5h-12.159
					c-0.829,0-1.5,0.671-1.5,1.5S304.708,128.168,305.537,128.168z"/>
				<path style="fill:#407BFF;" d="M303.366,142.55h16.207c0.829,0,1.5-0.671,1.5-1.5c0-0.829-0.671-1.5-1.5-1.5h-16.207
					c-0.829,0-1.5,0.671-1.5,1.5C301.866,141.879,302.537,142.55,303.366,142.55z"/>
			</g>
			<g style="opacity:0.6;enable-background:new    ;">
				<path style="fill:#FFFFFF;" d="M306.532,121.575h9.876c0.829,0,1.5-0.671,1.5-1.5s-0.671-1.5-1.5-1.5h-9.876
					c-0.829,0-1.5,0.671-1.5,1.5S305.703,121.575,306.532,121.575z"/>
				<path style="fill:#FFFFFF;" d="M320.747,147.327h-18.554c-0.829,0-1.5,0.671-1.5,1.5s0.671,1.5,1.5,1.5h18.554
					c0.829,0,1.5-0.671,1.5-1.5S321.575,147.327,320.747,147.327z"/>
				<path style="fill:#FFFFFF;" d="M304.405,135.665h14.128c0.829,0,1.5-0.671,1.5-1.5c0-0.829-0.671-1.5-1.5-1.5h-14.128
					c-0.829,0-1.5,0.671-1.5,1.5C302.905,134.994,303.577,135.665,304.405,135.665z"/>
				<path style="fill:#FFFFFF;" d="M305.537,128.168h12.159c0.829,0,1.5-0.671,1.5-1.5s-0.671-1.5-1.5-1.5h-12.159
					c-0.829,0-1.5,0.671-1.5,1.5S304.708,128.168,305.537,128.168z"/>
				<path style="fill:#FFFFFF;" d="M303.366,142.55h16.207c0.829,0,1.5-0.671,1.5-1.5c0-0.829-0.671-1.5-1.5-1.5h-16.207
					c-0.829,0-1.5,0.671-1.5,1.5C301.866,141.879,302.537,142.55,303.366,142.55z"/>
			</g>
			<g>
				<path style="fill:#263238;" d="M384.049,339.814h-32.854V205.872h32.854c3.617,0,6.549,2.932,6.549,6.549v120.844
					C390.598,336.882,387.666,339.814,384.049,339.814z"/>
				<path style="opacity:0.2;fill:#FFFFFF;" d="M390.594,212.424v120.84c0,3.62-2.93,6.55-6.55,6.55h-32.85v-133.94h32.85
					C387.664,205.874,390.594,208.804,390.594,212.424z"/>
				<path style="opacity:0.2;" d="M380.594,221.624v111.64c0,3.62-2.93,6.55-6.55,6.55h-22.85v-133.94h13.65
					C373.544,205.874,380.594,212.924,380.594,221.624z"/>
			</g>
			<path style="fill:#407BFF;" d="M362.489,413.68h32.44v-55.979c0-8.958-7.262-16.22-16.22-16.22l0,0
				c-8.958,0-16.22,7.262-16.22,16.22V413.68z"/>
			<path style="opacity:0.2;fill:#FFFFFF;enable-background:new    ;" d="M394.924,357.704v55.98h-32.44v-55.98
				c0-4.48,1.82-8.54,4.75-11.47c1.79-1.79,4-3.16,6.47-3.96c1.58-0.51,3.26-0.79,5-0.79
				C387.664,341.484,394.924,348.744,394.924,357.704z"/>
			<path style="opacity:0.1;" d="M384.924,357.704v55.98h-22.44v-55.98c0-4.48,1.82-8.54,4.75-11.47c1.79-1.79,4-3.16,6.47-3.96
				C380.214,344.374,384.924,350.494,384.924,357.704z"/>
			<g>
				<path style="fill:#263238;" d="M250.453,413.68H374.65V222.129c0-34.296-27.802-62.098-62.098-62.098h0
					c-34.296,0-62.098,27.802-62.098,62.098V413.68z"/>
				<path style="opacity:0.6;fill:#FFFFFF;enable-background:new    ;" d="M250.453,413.68H374.65V222.129
					c0-34.296-27.802-62.098-62.098-62.098h0c-34.296,0-62.098,27.802-62.098,62.098V413.68z"/>
				<path style="opacity:0.1;" d="M374.655,222.124v191.56h-22.02v-191.56c0-30.53-22.04-55.92-51.09-61.12
					c3.57-0.64,7.25-0.97,11.01-0.97C346.844,160.034,374.655,187.834,374.655,222.124z"/>
			</g>
			<g>
				<path style="fill:#407BFF;" d="M285.106,396.341c20.499,0,37.176-16.677,37.176-37.176V217.035
					c0-20.499-16.677-37.176-37.176-37.176c-20.499,0-37.176,16.677-37.176,37.176v142.131
					C247.931,379.664,264.607,396.341,285.106,396.341z"/>
				<path style="opacity:0.2;fill:#FFFFFF;" d="M285.106,396.341c20.499,0,37.176-16.677,37.176-37.176V217.035
					c0-20.499-16.677-37.176-37.176-37.176c-20.499,0-37.176,16.677-37.176,37.176v142.131
					C247.931,379.664,264.607,396.341,285.106,396.341z"/>
				<path style="opacity:0.4;fill:#FFFFFF;enable-background:new    ;" d="M284.106,391.341L284.106,391.341
					c17.77,0,32.176-14.406,32.176-32.176V217.034c0-17.77-14.406-32.176-32.176-32.176h0c-17.77,0-32.176,14.406-32.176,32.176
					v142.131C251.93,376.935,266.335,391.341,284.106,391.341z"/>
				<path style="fill:#407BFF;" d="M280.677,259.706c12.271,0,22.253-11.243,22.253-25.064c0-13.819-9.982-25.063-22.253-25.063
					s-22.253,11.243-22.253,25.063C258.424,248.462,268.407,259.706,280.677,259.706z"/>
				<path style="opacity:0.2;fill:#FFFFFF;" d="M280.677,259.706c12.271,0,22.253-11.243,22.253-25.064
					c0-13.819-9.982-25.063-22.253-25.063s-22.253,11.243-22.253,25.063C258.424,248.462,268.407,259.706,280.677,259.706z"/>
				<g>
					<path style="fill:#263238;" d="M284.475,305.852c-1.823,0-1.467,0-3.29,0c-6.224,0-11.27-5.463-11.27-12.202
						c0-6.739,5.046-12.202,11.27-12.202c1.823,0,1.467,0,3.29,0c6.224,0,11.269,5.463,11.269,12.202
						C295.745,300.389,290.699,305.852,284.475,305.852z"/>
					<path style="opacity:0.4;fill:#FFFFFF;" d="M292.455,293.65c0-6.739-5.045-12.202-11.269-12.202s-11.27,5.463-11.27,12.202
						s5.046,12.202,11.27,12.202S292.455,300.389,292.455,293.65z"/>
					<path style="opacity:0.2;fill:#FFFFFF;" d="M284.475,305.852c-1.823,0-1.467,0-3.29,0c-6.224,0-11.27-5.463-11.27-12.202
						c0-6.739,5.046-12.202,11.27-12.202c1.823,0,1.467,0,3.29,0c6.224,0,11.269,5.463,11.269,12.202
						C295.745,300.389,290.699,305.852,284.475,305.852z"/>
				</g>
				<path style="fill:#407BFF;" d="M256.039,294.291c0,13.456,9.599,24.364,21.441,24.364c11.842,0,21.442-10.908,21.442-24.364
					c0-13.456-9.6-24.364-21.442-24.364C265.638,269.927,256.039,280.835,256.039,294.291z M285.028,290.723l6.305-9.033
					c2.104,3.388,3.4,7.524,3.516,11.96h-8.69C286.043,292.535,285.641,291.531,285.028,290.723z M294.835,295.237
					c-0.166,4.321-1.448,8.345-3.503,11.655l-6.305-9.033c0.557-0.734,0.95-1.626,1.103-2.622H294.835z M277.01,296.593
					l-13.311,10.413c-2.096-3.331-3.404-7.398-3.573-11.769h16.51C276.708,295.715,276.836,296.167,277.01,296.593z M260.113,293.65
					c0.116-4.486,1.441-8.665,3.586-12.074l13.311,10.414c-0.21,0.515-0.341,1.073-0.401,1.66H260.113z M276.699,273.152
					l2.789,16.09c-0.592,0.287-1.12,0.708-1.563,1.224l-13.224-10.347C267.74,276.07,272.007,273.421,276.699,273.152z
					 M290.189,280.024l-6.577,9.423c-0.649-0.387-1.375-0.625-2.157-0.638l-2.708-15.626
					C283.212,273.598,287.26,276.168,290.189,280.024z M278.796,315.396l2.672-15.625c0.776-0.015,1.498-0.252,2.144-0.636
					l6.578,9.423C287.271,312.401,283.241,314.968,278.796,315.396z M264.701,308.464l13.225-10.347
					c0.445,0.519,0.976,0.943,1.573,1.23l-2.751,16.086C272.037,315.181,267.751,312.527,264.701,308.464z"/>
				<g>
					<path style="opacity:0.3;" d="M299.934,234.644c0,2.13-0.26,4.19-0.77,6.14c-0.22,0.93-0.51,1.84-0.86,2.72
						c-0.63,1.68-1.45,3.24-2.42,4.67c-0.38,0.56-0.77,1.09-1.2,1.6c-0.43,0.53-0.89,1.04-1.37,1.5c-3.38,3.39-7.8,5.43-12.64,5.43
						c-0.98,0-1.94-0.08-2.88-0.24c-9.27-1.6-16.37-10.76-16.37-21.82c0-12.19,8.62-22.07,19.25-22.07c4.53,0,8.7,1.79,11.98,4.79
						c1.12,1.02,2.14,2.17,3.02,3.45c0.91,1.29,1.7,2.7,2.33,4.2c0.43,0.99,0.78,2.03,1.07,3.1c0.06,0.21,0.11,0.4,0.15,0.61v0.01
						c0.15,0.56,0.26,1.12,0.36,1.7v0.01C299.814,231.804,299.934,233.204,299.934,234.644z"/>
					<g>
						<g>
							<path style="fill:#B55B52;" d="M298.304,243.504c-0.63,1.68-1.45,3.24-2.42,4.67c-0.38,0.56-0.77,1.09-1.2,1.6
								c-0.94,0.31-1.99,0.53-3.16,0.61c-2.35,0.17-3.17-0.98-3.21-2.12c-0.01-0.4,0.08-0.8,0.23-1.14c3.24-1.1,3.58-3.29,3.06-5.56
								c0,0,0,0,0-0.01c-0.03-0.14-0.06-0.27-0.1-0.4c-0.07-0.27-0.16-0.54-0.25-0.81c-0.04-0.11-0.08-0.23-0.12-0.34
								c-0.01-0.02-0.01-0.04-0.02-0.06l3.8-3.93l2.12-2.2l0.35-0.35l0.14-0.15c-0.01,0.1-0.02,0.2-0.02,0.31
								c-0.17,2.04-0.24,4.86,0.17,7.36C297.814,241.884,298.014,242.734,298.304,243.504z"/>
							<path style="opacity:0.2;" d="M294.916,236.018l-3.794,3.926c0.241,0.66,0.445,1.332,0.562,1.994
								c1.546-0.372,3.524-2.29,3.522-3.945C295.204,237.168,295.089,236.386,294.916,236.018z"/>
						</g>
						<g>
							<path style="fill:#263238;" d="M282.957,224.41c-0.552,1.962-0.094,5.945,2.581,4.564
								C288.214,227.592,283.906,221.036,282.957,224.41z"/>
							<path style="fill:#B55B52;" d="M297.044,226.607c0.452,4.987,0.971,7.885-1.145,10.78c-3.183,4.355-9.649,2.965-11.587-1.8
								c-1.744-4.289-2.19-11.724,2.362-14.384C291.158,218.581,296.592,221.62,297.044,226.607z"/>
							<path style="fill:#263238;" d="M299.074,228.114c-0.05,0.07-0.12,0.14-0.19,0.22c-0.45,0.5-0.97,0.97-1.56,1.39
								c-0.22,0.17-0.44,0.32-0.68,0.46c-0.43-0.32-0.78-0.72-1.06-1.17c-0.71-1.12-1.03-2.51-1.18-3.6
								c-0.13-1.02-0.11-1.77-0.11-1.77c-0.1,0.05-0.23,0.09-0.34,0.14l0.33-2.15l0.15-1.01l1.24,0.19c0.91,1.29,1.7,2.7,2.33,4.2
								C298.434,226.004,298.784,227.044,299.074,228.114z"/>
							<path style="fill:#B55B52;" d="M299.584,230.434v0.01c-0.2,1.33-1.01,2.43-1.91,3.07c-0.06,0.04-0.11,0.08-0.17,0.1v0.01
								c-0.05,0.03-0.1,0.06-0.15,0.08c-0.11,0.05-0.22,0.09-0.32,0.11c-1.09,0.3-1.99-0.68-2.07-2.01
								c-0.05-0.84,0.13-1.95,0.62-2.79c0.35-0.58,0.83-1.03,1.49-1.17c0.03-0.01,0.05-0.01,0.08-0.02c0.69-0.11,1.29,0.1,1.73,0.51
								c0.13,0.11,0.24,0.24,0.34,0.39v0.01C299.374,229.294,299.484,229.854,299.584,230.434z"/>
							<path style="fill:#263238;" d="M289.735,229.063c0.061,0.402-0.103,0.759-0.366,0.797c-0.264,0.038-0.528-0.258-0.589-0.661
								c-0.062-0.403,0.102-0.759,0.366-0.797C289.409,228.365,289.673,228.661,289.735,229.063z"/>
							<path style="fill:#263238;" d="M285.172,229.715c0.061,0.402-0.102,0.759-0.366,0.797c-0.264,0.038-0.528-0.258-0.589-0.661
								c-0.061-0.403,0.103-0.759,0.366-0.797C284.846,229.017,285.11,229.312,285.172,229.715z"/>
							<path style="fill:#A02724;" d="M286.653,229.708c0,0-0.599,2.37-1.453,3.601c0.801,0.528,1.968,0.05,1.968,0.05
								L286.653,229.708z"/>
							<path style="fill:#263238;" d="M291.23,233.182c0.168,0.006,0.345,0.024,0.529,0.057c0.065,0.011,0.109,0.073,0.099,0.138
								c-0.01,0.066-0.074,0.109-0.137,0.097c-1.765-0.305-2.788,0.782-2.799,0.794c-0.044,0.049-0.12,0.051-0.169,0.006
								c-0.049-0.045-0.052-0.121-0.008-0.17C288.786,234.061,289.669,233.123,291.23,233.182z"/>
							<path style="fill:#263238;" d="M290.917,227.393c-0.08,0.023-0.171,0.003-0.235-0.06c-0.767-0.749-1.631-0.574-1.64-0.572
								c-0.129,0.028-0.258-0.054-0.287-0.183c-0.029-0.129,0.053-0.256,0.181-0.284c0.046-0.01,1.128-0.23,2.079,0.7
								c0.095,0.093,0.097,0.244,0.005,0.338C290.991,227.361,290.955,227.382,290.917,227.393z"/>
							<path style="fill:#263238;" d="M282.966,228.431c-0.044,0.012-0.091,0.012-0.138-0.002c-0.126-0.04-0.197-0.175-0.158-0.3
								c0.394-1.26,1.454-1.555,1.5-1.574c0.127-0.035,0.26,0.04,0.296,0.167c0.036,0.127-0.037,0.257-0.163,0.293
								c-0.045,0.011-0.859,0.248-1.175,1.259C283.103,228.353,283.041,228.41,282.966,228.431z"/>
							<path style="fill:#263238;" d="M298.004,225.014h-2.12c0,0-0.14,0.1-0.36,0.2c-0.27,0.12-0.66,0.24-1.12,0.2
								c-0.32-0.02-0.67-0.11-1.03-0.34c-1.31-0.82-1.33-4.78-5.46-3.2c0,0-1.3-0.54-2.43,0.59c-0.3,0.3-0.51,0.84-0.68,1.46
								c-0.27,0.92-0.48,2-0.85,2.72c-0.2,0.39-0.45,0.67-0.78,0.75c-0.05,0.01-0.1,0.02-0.15,0.03c-0.04,0.01-0.08,0.01-0.13-0.01
								c-0.13,0-0.26-0.03-0.42-0.09c-2.08-0.85-1.64-1.47-1.64-1.47s0.56,0.44,0.95,0.18c0,0-1.03-1.06-0.35-2.31
								c0,0,0.46,0.67,0.82,0.59c0,0-0.41-2.37,1.16-5.36c1.57-2.98,9.14-1.48,9.14-1.48s0.03-0.04,0.1-0.11
								c1.12,1.02,2.14,2.17,3.02,3.45C296.584,222.104,297.374,223.514,298.004,225.014z"/>
						</g>
						<path style="fill:#FFFFFF;" d="M299.164,240.784c-0.22,0.93-0.51,1.84-0.86,2.72c-0.63,1.68-1.45,3.24-2.42,4.67
							c-0.38,0.56-0.77,1.09-1.2,1.6c-0.43,0.53-0.89,1.04-1.37,1.5c-3.38,3.39-7.8,5.43-12.64,5.43c-0.98,0-1.94-0.08-2.88-0.24
							c0.76-3.33,2.78-5.61,4.5-7.01c1.52-1.24,2.81-1.8,2.81-1.8l0.1-5.8c0,0,2.84-0.07,6.4-0.3c0.37-0.03,0.76-0.05,1.15-0.08
							c1.6-0.13,3.3-0.28,4.92-0.49C298.184,240.924,298.684,240.854,299.164,240.784z"/>
						<path style="fill:#407BFF;" d="M292.274,229.044v0.11c0,0.67-0.52,1.24-1.21,1.3l-0.14,0.01l-7.45,0.59
							c-0.72,0.05-1.35-0.48-1.41-1.21v-0.11c0-0.34,0.14-0.66,0.36-0.89c0.21-0.23,0.51-0.38,0.84-0.41l7.6-0.6
							C291.584,227.774,292.214,228.314,292.274,229.044z"/>
						<path style="opacity:0.6;fill:#FFFFFF;enable-background:new    ;" d="M291.294,229.464v0.09c0,0.35-0.14,0.67-0.37,0.91
							l-7.45,0.59c-0.72,0.05-1.35-0.48-1.41-1.21v-0.11c0-0.34,0.14-0.66,0.36-0.89l7.45-0.59
							C290.604,228.194,291.234,228.734,291.294,229.464z"/>
						<path style="fill:#263238;" d="M290.339,229.906l-7.241,0.541c-0.289,0.022-0.54-0.195-0.562-0.484l0,0
							c-0.022-0.289,0.195-0.54,0.484-0.562l7.241-0.541c0.289-0.022,0.54,0.195,0.562,0.484l0,0
							C290.844,229.633,290.628,229.884,290.339,229.906z"/>
						<path style="opacity:0.2;" d="M295.884,248.174c-0.38,0.56-0.77,1.09-1.2,1.6c-0.43,0.53-0.89,1.04-1.37,1.5
							c-3.6,1.1-7.75,1.24-11.02-1.82c1.52-1.24,2.81-1.8,2.81-1.8s1.17,0.37,3.21,0.61
							C290.184,248.474,292.784,248.574,295.884,248.174z"/>
					</g>
					<path style="opacity:0.2;fill:#FFFFFF;enable-background:new    ;" d="M295.854,229.654c0,2.13-0.26,4.19-0.77,6.14
						c-0.22,0.93-0.51,1.84-0.86,2.72c-0.63,1.68-1.45,3.24-2.42,4.67c-0.38,0.56-0.77,1.09-1.2,1.6c-0.43,0.53-0.89,1.04-1.37,1.5
						c-3.38,3.39-7.8,5.43-12.64,5.43c-0.98,0-1.94-0.08-2.88-0.24c-3.35-0.58-6.42-2.14-8.97-4.44c-2.1-3.53-3.32-7.8-3.32-12.39
						c0-12.19,8.62-22.07,19.25-22.07c4.46,0,8.58,1.74,11.83,4.66c0.54,0.88,1.01,1.82,1.42,2.79c0.43,0.99,0.78,2.03,1.07,3.1
						c0.06,0.21,0.11,0.4,0.15,0.61v0.01c0.15,0.56,0.26,1.12,0.36,1.7v0.01C295.734,226.814,295.854,228.214,295.854,229.654z"/>
					<g>
						<path style="opacity:0.2;fill:#FFFFFF;enable-background:new    ;" d="M282.736,233.197
							c-3.756,6.505-10.637,9.563-15.37,6.831c-4.733-2.732-5.525-10.221-1.769-16.726c3.756-6.505,10.637-9.563,15.37-6.831
							S286.491,226.692,282.736,233.197z"/>
						<path style="opacity:0.2;fill:#FFFFFF;enable-background:new    ;" d="M286.388,239.202c-1,1.733-2.833,2.547-4.094,1.819
							c-1.261-0.728-1.472-2.723-0.471-4.455s2.833-2.547,4.094-1.819C287.178,235.474,287.389,237.469,286.388,239.202z"/>
					</g>
				</g>
			</g>
			<path style="fill:#407BFF;" d="M289.984,163.803h42.972l-1.872-6.216c-0.671-2.228-2.723-3.754-5.05-3.754h-29.128
				c-2.327,0-4.379,1.525-5.05,3.754L289.984,163.803z"/>
			<g>
				<g>
					<path style="fill:#263238;" d="M379.141,336.491h-4.008c-3.011,0-5.461-2.449-5.461-5.46v-5.024c0-0.828,0.671-1.5,1.5-1.5
						c0.829,0,1.5,0.672,1.5,1.5v5.024c0,1.357,1.104,2.46,2.461,2.46h4.008c0.829,0,1.5,0.672,1.5,1.5
						C380.641,335.819,379.97,336.491,379.141,336.491z"/>
				</g>
				<g style="opacity:0.3;">
					<path style="fill:#FFFFFF;" d="M379.141,336.491h-4.008c-3.011,0-5.461-2.449-5.461-5.46v-5.024c0-0.828,0.671-1.5,1.5-1.5
						c0.829,0,1.5,0.672,1.5,1.5v5.024c0,1.357,1.104,2.46,2.461,2.46h4.008c0.829,0,1.5,0.672,1.5,1.5
						C380.641,335.819,379.97,336.491,379.141,336.491z"/>
				</g>
				<path style="fill:#407BFF;" d="M358.946,328.713h24.012c1.516,0,2.744-1.228,2.744-2.744v-14.715
					c0-1.516-1.229-2.744-2.744-2.744h-24.012c-1.515,0-2.744,1.229-2.744,2.744v14.715
					C356.202,327.484,357.431,328.713,358.946,328.713z"/>
				<path style="opacity:0.2;fill:#FFFFFF;" d="M364.554,328.713h18.404c1.516,0,2.744-1.228,2.744-2.744v-14.715
					c0-1.516-1.229-2.744-2.744-2.744h-18.404c-1.516,0-2.744,1.229-2.744,2.744v14.715
					C361.81,327.484,363.038,328.713,364.554,328.713z"/>
			</g>
			<g>
				<g>
					<path style="fill:#263238;" d="M378.469,231.502h-39.99c-7.985,0-14.481-6.497-14.481-14.481
						c0-21.246-17.284-38.53-38.529-38.53c-0.829,0-1.5-0.671-1.5-1.5s0.671-1.5,1.5-1.5c22.899,0,41.529,18.63,41.529,41.529
						c0,6.331,5.15,11.482,11.481,11.482h39.99c0.829,0,1.5,0.671,1.5,1.5S379.298,231.502,378.469,231.502z"/>
				</g>
				<g>
					<path style="fill:#263238;" d="M285.106,415.18c-0.829,0-1.5-0.672-1.5-1.5v-12.85c0-1.892,1.539-3.43,3.429-3.43
						c20.4,0,36.998-16.597,36.998-36.997V250.091c0-7.311,5.947-13.258,13.257-13.258h41.179c0.829,0,1.5,0.672,1.5,1.5
						c0,0.828-0.671,1.5-1.5,1.5H337.29c-5.656,0-10.257,4.602-10.257,10.258v110.312c0,22.055-17.942,39.997-39.997,39.997
						c-0.237,0-0.43,0.192-0.43,0.43v12.85C286.606,414.508,285.935,415.18,285.106,415.18z"/>
				</g>
				<g>
					<path style="fill:#263238;" d="M368.78,260.579c-0.829,0-1.5-0.672-1.5-1.5v-8.47c0-3.028,2.463-5.492,5.492-5.492h5.698
						c0.829,0,1.5,0.672,1.5,1.5c0,0.828-0.671,1.5-1.5,1.5h-5.698c-1.374,0-2.492,1.118-2.492,2.492v8.47
						C370.28,259.907,369.608,260.579,368.78,260.579z"/>
				</g>
				<g>
					<path style="fill:#263238;" d="M346.689,346.953c-0.829,0-1.5-0.672-1.5-1.5v-19.107c0-5.068,4.123-9.191,9.19-9.191h4.101
						c0.829,0,1.5,0.672,1.5,1.5c0,0.828-0.671,1.5-1.5,1.5h-4.101c-3.414,0-6.19,2.777-6.19,6.191v19.107
						C348.189,346.281,347.517,346.953,346.689,346.953z"/>
				</g>
				<g>
					<path style="fill:#263238;" d="M377.906,396.008H360.81c-0.829,0-1.5-0.672-1.5-1.5c0-0.828,0.671-1.5,1.5-1.5h17.096
						c0.829,0,1.5,0.672,1.5,1.5C379.406,395.336,378.735,396.008,377.906,396.008z"/>
				</g>
				<g style="opacity:0.3;enable-background:new    ;">
					<g>
						<path style="fill:#FFFFFF;" d="M378.469,231.502h-39.99c-7.985,0-14.481-6.497-14.481-14.481
							c0-21.246-17.284-38.53-38.529-38.53c-0.829,0-1.5-0.671-1.5-1.5s0.671-1.5,1.5-1.5c22.899,0,41.529,18.63,41.529,41.529
							c0,6.331,5.15,11.482,11.481,11.482h39.99c0.829,0,1.5,0.671,1.5,1.5S379.298,231.502,378.469,231.502z"/>
					</g>
					<g>
						<path style="fill:#FFFFFF;" d="M285.106,415.18c-0.829,0-1.5-0.672-1.5-1.5v-12.85c0-1.892,1.539-3.43,3.429-3.43
							c20.4,0,36.998-16.597,36.998-36.997V250.091c0-7.311,5.947-13.258,13.257-13.258h41.179c0.829,0,1.5,0.672,1.5,1.5
							c0,0.828-0.671,1.5-1.5,1.5H337.29c-5.656,0-10.257,4.602-10.257,10.258v110.312c0,22.055-17.942,39.997-39.997,39.997
							c-0.237,0-0.43,0.192-0.43,0.43v12.85C286.606,414.508,285.935,415.18,285.106,415.18z"/>
					</g>
					<g>
						<path style="fill:#FFFFFF;" d="M368.78,260.579c-0.829,0-1.5-0.672-1.5-1.5v-8.47c0-3.028,2.463-5.492,5.492-5.492h5.698
							c0.829,0,1.5,0.672,1.5,1.5c0,0.828-0.671,1.5-1.5,1.5h-5.698c-1.374,0-2.492,1.118-2.492,2.492v8.47
							C370.28,259.907,369.608,260.579,368.78,260.579z"/>
					</g>
					<g>
						<path style="fill:#FFFFFF;" d="M346.689,346.953c-0.829,0-1.5-0.672-1.5-1.5v-19.107c0-5.068,4.123-9.191,9.19-9.191h4.101
							c0.829,0,1.5,0.672,1.5,1.5c0,0.828-0.671,1.5-1.5,1.5h-4.101c-3.414,0-6.19,2.777-6.19,6.191v19.107
							C348.189,346.281,347.517,346.953,346.689,346.953z"/>
					</g>
					<g>
						<path style="fill:#FFFFFF;" d="M377.906,396.008H360.81c-0.829,0-1.5-0.672-1.5-1.5c0-0.828,0.671-1.5,1.5-1.5h17.096
							c0.829,0,1.5,0.672,1.5,1.5C379.406,395.336,378.735,396.008,377.906,396.008z"/>
					</g>
				</g>
			</g>
			<g>
				<path style="fill:#407BFF;" d="M330.469,413.68h32.439v-55.979c0-8.958-7.262-16.22-16.22-16.22l0,0
					c-8.958,0-16.22,7.262-16.22,16.22V413.68z"/>
				<path style="opacity:0.2;fill:#FFFFFF;enable-background:new    ;" d="M330.469,413.68h32.439v-55.979
					c0-8.958-7.262-16.22-16.22-16.22l0,0c-8.958,0-16.22,7.262-16.22,16.22V413.68z"/>
				<path style="opacity:0.1;" d="M362.905,357.704v55.98h-6v-55.98c0-7.93-5.69-14.54-13.22-15.94c0.97-0.18,1.97-0.28,3-0.28
					C355.644,341.484,362.905,348.744,362.905,357.704z"/>
			</g>
			<path style="fill:#407BFF;" d="M400.404,417.716H210.742l0,0c0-3.35,2.716-6.066,6.066-6.066h177.53
				C397.688,411.651,400.404,414.366,400.404,417.716L400.404,417.716z"/>
			<path style="opacity:0.2;fill:#FFFFFF;enable-background:new    ;" d="M289.984,163.803h42.972l-1.872-6.216
				c-0.671-2.228-2.723-3.754-5.05-3.754h-29.128c-2.327,0-4.379,1.525-5.05,3.754L289.984,163.803z"/>
			<g>
				<g>
					<path style="fill:#407BFF;" d="M400.404,260.851v40.079c0,2.106-1.71,3.817-3.831,3.817h-57.951
						c-2.106,0-3.817-1.711-3.817-3.817v-40.079c0-2.106,1.71-3.817,3.817-3.817h57.951
						C398.693,257.035,400.404,258.745,400.404,260.851z"/>
					<path style="opacity:0.2;fill:#FFFFFF;" d="M400.404,260.851v40.079c0,2.106-1.71,3.817-3.831,3.817h-49.458
						c-2.106,0-3.817-1.711-3.817-3.817v-40.079c0-2.106,1.71-3.817,3.817-3.817h49.458
						C398.693,257.035,400.404,258.745,400.404,260.851z"/>
				</g>
				<g>
					<path style="opacity:0.2;" d="M392.326,299.661h-39.562c-2.332,0-4.241-1.908-4.241-4.241l0,0c0-2.332,1.908-4.241,4.241-4.241
						h39.562c2.332,0,4.241,1.908,4.241,4.241l0,0C396.566,297.753,394.658,299.661,392.326,299.661z"/>
					<path style="opacity:0.2;" d="M392.326,289.988h-39.562c-2.332,0-4.241-1.908-4.241-4.241l0,0c0-2.332,1.908-4.241,4.241-4.241
						h39.562c2.332,0,4.241,1.908,4.241,4.241l0,0C396.566,288.08,394.658,289.988,392.326,289.988z"/>
					<path style="opacity:0.2;" d="M392.326,280.315h-39.562c-2.332,0-4.241-1.908-4.241-4.241l0,0c0-2.332,1.908-4.241,4.241-4.241
						h39.562c2.332,0,4.241,1.908,4.241,4.241l0,0C396.566,278.407,394.658,280.315,392.326,280.315z"/>
					<path style="opacity:0.2;" d="M392.326,270.643h-39.562c-2.332,0-4.241-1.908-4.241-4.241v0c0-2.332,1.908-4.241,4.241-4.241
						h39.562c2.332,0,4.241,1.908,4.241,4.241v0C396.566,268.734,394.658,270.643,392.326,270.643z"/>
					<g>
						<g>
							<path style="fill:#FFFFFF;" d="M362.045,263.105h-3.565v6.593h3.565c0.647-0.612,1.095-1.851,1.095-3.297
								C363.141,264.956,362.693,263.717,362.045,263.105z"/>
							<path style="opacity:0.2;" d="M358.48,263.105v6.593c0.647-0.612,1.095-1.851,1.095-3.297
								C359.576,264.956,359.128,263.717,358.48,263.105z"/>
						</g>
						<g>
							<path style="fill:#FFFFFF;" d="M367.684,263.105h-3.565v6.593h3.565c0.647-0.612,1.095-1.851,1.095-3.297
								C368.779,264.956,368.331,263.717,367.684,263.105z"/>
							<path style="opacity:0.2;" d="M364.119,263.105v6.593c0.647-0.612,1.095-1.851,1.095-3.297
								C365.214,264.956,364.766,263.717,364.119,263.105z"/>
						</g>
						<g>
							<path style="fill:#FFFFFF;" d="M373.323,263.105h-3.565v6.593h3.565c0.647-0.612,1.095-1.851,1.095-3.297
								C374.418,264.956,373.97,263.717,373.323,263.105z"/>
							<path style="opacity:0.2;" d="M369.758,263.105v6.593c0.647-0.612,1.095-1.851,1.095-3.297
								C370.853,264.956,370.405,263.717,369.758,263.105z"/>
						</g>
						<g>
							<path style="fill:#FFFFFF;" d="M378.961,263.105h-3.565v6.593h3.565c0.647-0.612,1.095-1.851,1.095-3.297
								C380.057,264.956,379.609,263.717,378.961,263.105z"/>
							<path style="opacity:0.2;" d="M375.397,263.105v6.593c0.647-0.612,1.095-1.851,1.095-3.297
								C376.492,264.956,376.044,263.717,375.397,263.105z"/>
						</g>
					</g>
					<g>
						<g>
							<path style="fill:#FFFFFF;" d="M362.045,272.778h-3.565v6.593h3.565c0.647-0.612,1.095-1.851,1.095-3.297
								C363.141,274.629,362.693,273.39,362.045,272.778z"/>
							<path style="opacity:0.2;" d="M358.48,272.778v6.593c0.647-0.612,1.095-1.851,1.095-3.297
								C359.576,274.629,359.128,273.39,358.48,272.778z"/>
						</g>
						<g>
							<path style="fill:#FFFFFF;" d="M367.684,272.778h-3.565v6.593h3.565c0.647-0.612,1.095-1.851,1.095-3.297
								C368.779,274.629,368.331,273.39,367.684,272.778z"/>
							<path style="opacity:0.2;" d="M364.119,272.778v6.593c0.647-0.612,1.095-1.851,1.095-3.297
								C365.214,274.629,364.766,273.39,364.119,272.778z"/>
						</g>
					</g>
					<g>
						<g>
							<path style="fill:#FFFFFF;" d="M362.045,282.451h-3.565v6.593h3.565c0.647-0.612,1.095-1.851,1.095-3.297
								C363.141,284.302,362.693,283.063,362.045,282.451z"/>
							<path style="opacity:0.2;" d="M358.48,282.451v6.593c0.647-0.612,1.095-1.851,1.095-3.297
								C359.576,284.302,359.128,283.063,358.48,282.451z"/>
						</g>
						<g>
							<path style="fill:#FFFFFF;" d="M367.684,282.451h-3.565v6.593h3.565c0.647-0.612,1.095-1.851,1.095-3.297
								C368.779,284.302,368.331,283.063,367.684,282.451z"/>
							<path style="opacity:0.2;" d="M364.119,282.451v6.593c0.647-0.612,1.095-1.851,1.095-3.297
								C365.214,284.302,364.766,283.063,364.119,282.451z"/>
						</g>
					</g>
					<g>
						<g>
							<g>
								<path style="fill:#FFFFFF;" d="M362.045,292.124h-3.565v6.593h3.565c0.647-0.612,1.095-1.851,1.095-3.297
									C363.141,293.975,362.693,292.736,362.045,292.124z"/>
							</g>
							<g style="opacity:0.2;">
								<path d="M358.48,292.124v6.593c0.647-0.612,1.095-1.851,1.095-3.297C359.576,293.975,359.128,292.736,358.48,292.124z"/>
							</g>
						</g>
						<g>
							<g>
								<path style="fill:#FFFFFF;" d="M367.684,292.124h-3.565v6.593h3.565c0.647-0.612,1.095-1.851,1.095-3.297
									C368.779,293.975,368.331,292.736,367.684,292.124z"/>
							</g>
							<g style="opacity:0.2;">
								<path d="M364.119,292.124v6.593c0.647-0.612,1.095-1.851,1.095-3.297C365.214,293.975,364.766,292.736,364.119,292.124z"/>
							</g>
						</g>
						<g>
							<g>
								<path style="fill:#FFFFFF;" d="M374.737,292.124h-3.565v6.593h3.565c0.647-0.612,1.095-1.851,1.095-3.297
									C375.832,293.975,375.385,292.736,374.737,292.124z"/>
							</g>
							<g style="opacity:0.2;">
								<path d="M371.172,292.124v6.593c0.648-0.612,1.095-1.851,1.095-3.297C372.267,293.975,371.82,292.736,371.172,292.124z"/>
							</g>
						</g>
						<g>
							<g>
								<path style="fill:#FFFFFF;" d="M380.376,292.124h-3.565v6.593h3.565c0.648-0.612,1.095-1.851,1.095-3.297
									C381.471,293.975,381.023,292.736,380.376,292.124z"/>
							</g>
							<g style="opacity:0.2;">
								<path d="M376.811,292.124v6.593c0.647-0.612,1.095-1.851,1.095-3.297C377.906,293.975,377.458,292.736,376.811,292.124z"/>
							</g>
						</g>
						<g>
							<g>
								<path style="fill:#FFFFFF;" d="M387.429,292.124h-3.565v6.593h3.565c0.647-0.612,1.095-1.851,1.095-3.297
									C388.525,293.975,388.077,292.736,387.429,292.124z"/>
							</g>
							<g style="opacity:0.2;">
								<path d="M383.864,292.124v6.593c0.647-0.612,1.095-1.851,1.095-3.297C384.96,293.975,384.512,292.736,383.864,292.124z"/>
							</g>
						</g>
						<g>
							<g>
								<path style="fill:#FFFFFF;" d="M393.068,292.124h-3.565v6.593h3.565c0.647-0.612,1.095-1.851,1.095-3.297
									C394.163,293.975,393.715,292.736,393.068,292.124z"/>
							</g>
							<g style="opacity:0.2;">
								<path d="M389.503,292.124v6.593c0.647-0.612,1.095-1.851,1.095-3.297C390.598,293.975,390.15,292.736,389.503,292.124z"/>
							</g>
						</g>
						<g>
							<path style="fill:#263238;" d="M369.446,294.758c0-0.228,0.168-0.378,0.373-0.378c0.205,0,0.373,0.151,0.373,0.378
								c0,0.218-0.168,0.378-0.373,0.378C369.614,295.135,369.446,294.976,369.446,294.758z M369.446,296.491
								c0-0.228,0.168-0.378,0.373-0.378c0.205,0,0.373,0.15,0.373,0.378c0,0.218-0.168,0.378-0.373,0.378
								C369.614,296.869,369.446,296.71,369.446,296.491z"/>
						</g>
						<g>
							<path style="fill:#263238;" d="M382.176,294.758c0-0.228,0.168-0.378,0.373-0.378c0.205,0,0.373,0.151,0.373,0.378
								c0,0.218-0.168,0.378-0.373,0.378C382.344,295.135,382.176,294.976,382.176,294.758z M382.176,296.491
								c0-0.228,0.168-0.378,0.373-0.378c0.205,0,0.373,0.15,0.373,0.378c0,0.218-0.168,0.378-0.373,0.378
								C382.344,296.869,382.176,296.71,382.176,296.491z"/>
						</g>
					</g>
					<g>
						<path style="fill:#263238;" d="M353.238,266.871v1.124h-0.591v-1.115l-1.251-2.071h0.632l0.933,1.552l0.942-1.552h0.583
							L353.238,266.871z"/>
					</g>
					<g>
						<path style="fill:#263238;" d="M354.122,277.668l-0.005-2.112l-1.047,1.748h-0.264l-1.047-1.72v2.084h-0.564v-3.186h0.487
							l1.265,2.112l1.243-2.112h0.487l0.005,3.186H354.122z"/>
					</g>
					<g>
						<path style="fill:#263238;" d="M351.489,284.154h1.393c1.033,0,1.738,0.638,1.738,1.593c0,0.956-0.705,1.593-1.738,1.593
							h-1.393V284.154z M352.854,286.84c0.71,0,1.17-0.433,1.17-1.093c0-0.66-0.46-1.092-1.17-1.092h-0.774v2.185H352.854z"/>
					</g>
					<g>
						<path style="fill:#263238;" d="M354.356,293.827v3.186h-0.591v-1.365h-1.648v1.365h-0.592v-3.186h0.592v1.316h1.648v-1.316
							H354.356z"/>
					</g>
					
						<text transform="matrix(1 0 0 1 359.7299 297.0142)" style="fill:#263238; font-family:'Montserrat-Regular'; font-size:4.5488px;">0</text>
					
						<text transform="matrix(1 0 0 1 365.4467 297.0142)" style="fill:#263238; font-family:'Montserrat-Regular'; font-size:4.5488px;">6</text>
					
						<text transform="matrix(1 0 0 1 359.7304 287.3413)" style="fill:#263238; font-family:'Montserrat-Regular'; font-size:4.5488px;">2</text>
					
						<text transform="matrix(1 0 0 1 359.7299 277.6694)" style="fill:#263238; font-family:'Montserrat-Regular'; font-size:4.5488px;">0</text>
					
						<text transform="matrix(1 0 0 1 359.7304 267.9956)" style="fill:#263238; font-family:'Montserrat-Regular'; font-size:4.5488px;">2</text>
					
						<text transform="matrix(1 0 0 1 365.4467 267.9956)" style="fill:#263238; font-family:'Montserrat-Regular'; font-size:4.5488px;">5</text>
					
						<text transform="matrix(1 0 0 1 371.0932 267.9956)" style="fill:#263238; font-family:'Montserrat-Regular'; font-size:4.5488px;">8</text>
					
						<text transform="matrix(1 0 0 1 377.0029 267.9956)" style="fill:#263238; font-family:'Montserrat-Regular'; font-size:4.5488px;">5</text>
					
						<text transform="matrix(1 0 0 1 365.4467 277.6685)" style="fill:#263238; font-family:'Montserrat-Regular'; font-size:4.5488px;">8</text>
					
						<text transform="matrix(1 0 0 1 365.4467 287.3413)" style="fill:#263238; font-family:'Montserrat-Regular'; font-size:4.5488px;">2</text>
					
						<text transform="matrix(1 0 0 1 372.686 297.0142)" style="fill:#263238; font-family:'Montserrat-Regular'; font-size:4.5488px;">5</text>
					
						<text transform="matrix(1 0 0 1 378.331 297.0151)" style="fill:#263238; font-family:'Montserrat-Regular'; font-size:4.5488px;">5</text>
					
						<text transform="matrix(1 0 0 1 385.5263 297.0142)" style="fill:#263238; font-family:'Montserrat-Regular'; font-size:4.5488px;">2</text>
					
						<text transform="matrix(1 0 0 1 391.5195 297.0142)" style="fill:#263238; font-family:'Montserrat-Regular'; font-size:4.5488px;">1</text>
				</g>
			</g>
		</g>
	</g>
</g>
<g id="Character">
	<g id="_x3C_Group_x3E__1_">
		<g>
			<path style="fill:#263238;" d="M112.02,347.613l-0.381,18.245l-0.134,2.799l-0.422,8.891c0,0-3.416,3.787-3.921,4.466
				c-0.505,0.679-2.943,0.473-4.878,1.101c-1.945,0.638-1.677-3.18-3.324-4.61c-1.636-1.43-0.401-5.443,0-6.215
				c0.391-0.762-0.134-9.879,0.72-11.422c0.854-1.543,0.792-5.629,0.792-5.629l3.756-14.067l2.593-18.337l-0.062-3.509l-0.515-2.356
				l1.636-4.054l2.521,0.35l-0.597,4.291l-0.031,1.77l-0.113,5.938v4.733l0.01,8.315L112.02,347.613z"/>
			<path style="opacity:0.4;fill:#FFFFFF;enable-background:new    ;" d="M112.02,347.613l-0.381,18.245l-0.134,2.799l-0.422,8.891
				c0,0-3.416,3.787-3.921,4.466c-0.505,0.679-2.943,0.473-4.878,1.101c-1.945,0.638-1.677-3.18-3.324-4.61
				c-1.636-1.43-0.401-5.443,0-6.215c0.391-0.762-0.134-9.879,0.72-11.422c0.854-1.543,0.792-5.629,0.792-5.629l3.756-14.067
				l2.593-18.337l-0.062-3.509l-0.515-2.356l1.636-4.054l2.521,0.35l-0.597,4.291l-0.031,1.77l-0.113,5.938v4.733l0.01,8.315
				L112.02,347.613z"/>
			<path style="opacity:0.2;enable-background:new    ;" d="M111.506,368.656l-0.422,8.891c0,0-3.416,3.787-3.921,4.466
				c-0.505,0.679-2.943,0.473-4.878,1.101c-1.945,0.638-1.677-3.18-3.324-4.61c-1.636-1.43-0.401-5.443,0-6.215
				c0.391-0.762-0.134-9.879,0.72-11.422c0.854-1.543,0.792-5.629,0.792-5.629l3.756-14.067l2.593-18.337l-0.062-3.509l-0.515-2.356
				l1.636-4.054l-0.761,4.579l2.655,1.832l-0.113,5.938v4.733c-1.502,1.595-3.735,4.909-3.735,4.909l-0.854,6.544l2.048-1.297
				l-3.036,3.962l-2.706,12.184l1.698,3.19l1.997-0.741l1.029-1.224l-1.029,2.418l-2.13,1.101l-1.564,0.957
				c0,0-0.875,3.118-0.875,3.797c0,0.679,0,5.155,0,5.155v2.717l3.581,1.328l2.521-2.737h2.408l-1.893,1.276l-0.782,2.439
				l0.782,1.852l3.149-2.14v-3.427L111.506,368.656z"/>
		</g>
		<path style="fill:#FFB573;" d="M169.182,413.625h-5.526c0,0,9.848-39.628,9.848-40.976c0-0.679-8.191-6.761-16.423-12.708
			c-5.814-4.188-11.638-8.315-14.643-10.424c0,0,0,0,0-0.01c-1.307-0.916-2.079-1.461-2.079-1.461l1.554-1.472l10.609-10.002
			c0,0,5.382,3.684,11.649,9.096c7.563,6.545,16.413,15.621,18.635,23.791C186.861,384.4,169.182,413.625,169.182,413.625z"/>
		<path style="opacity:0.2;enable-background:new    ;" d="M164.171,345.668c-1.667,4.569-4.178,10.496-7.09,14.273
			c-5.814-4.188-11.638-8.315-14.643-10.424c0,0,0,0,0-0.01c-0.216-0.967-0.391-1.945-0.525-2.933l10.609-10.002
			C152.522,336.572,157.904,340.255,164.171,345.668z"/>
		<path style="fill:#FFB573;" d="M140.359,372.258c-1.214,9.374-9.457,41.367-9.457,41.367h-6.143c0,0,2.387-38.053,3.694-41.367
			c0.679-1.698-2.398-8.428-5.042-15.374c-2.47-6.534-4.548-13.264-2.748-16.207c0.947-1.544,2.49-2.573,4.271-3.231
			c5.238-1.976,12.503-0.875,12.503-0.875s0.329,2.068,0.761,5.248c0.669,4.775,1.595,12.081,2.068,18.666
			C140.606,365.158,140.719,369.459,140.359,372.258z"/>
		<path style="opacity:0.2;enable-background:new    ;" d="M140.267,360.486c-1.904-0.309-4.024-0.689-4.888-0.998
			c-1.76-0.607-4.342-5.341-4.342-5.341s-3.931,2.562-6.277,2.83c-0.422,0.051-0.885,0.01-1.348-0.093
			c-2.47-6.534-4.548-13.264-2.748-16.207c0.947-1.544,2.49-2.573,4.271-3.231c3.941,0.731,8.376,2.11,12.503,4.003
			c0.268,0.124,0.514,0.247,0.761,0.371C138.867,346.594,139.793,353.9,140.267,360.486z"/>
		<path style="fill:#263238;" d="M167.962,278.697c2.475,1.486,1.34,6.987,1.98,8.686c0.639,1.698,3.222,2.979,2.218,3.486
			c-1.005,0.508-1.996-1.225-2.218,0c-0.222,1.225,0.509,4.974,0,6.472c-0.509,1.498-1.503-0.213-1.651,1.719
			c-0.149,1.932-0.566,5.12-6.385,7.042c-5.819,1.922-20.184,4.599-23.077,0c-2.893-4.599-2.689-8.627-1.685-9.595
			c1.005-0.968-2.009,3.068-2.152,0.834c-0.144-2.233,1.291-0.661,2.009-3.671c0.718-3.011,2.009-4.36,2.44-4.331
			c0.43,0.029-2.394,0.738-1.34-0.836c1.053-1.574,3.359-0.589,3.985-2.332c0.625-1.744,1.063-7.009,4.734-7.215
			C150.49,278.748,167.962,278.697,167.962,278.697z"/>
		<g>
			<path style="fill:#FFB573;" d="M158.322,296.891c3.486-0.322,7.104-0.741,10.6-1.235c1.753-0.256,3.492-0.556,5.182-0.91
				c1.693-0.337,3.35-0.746,4.834-1.253c0.729-0.25,1.421-0.531,1.94-0.811c0.117-0.069,0.269-0.138,0.342-0.198
				c0.088-0.055,0.228-0.156,0.145-0.064c-0.092,0.1-0.235,0.404-0.24,0.595c0.028,0.407,0.126-0.036-0.109-0.567
				c-0.212-0.544-0.57-1.209-0.995-1.868c-1.766-2.66-4.283-5.373-6.714-7.912l2.292-3.049c3.345,1.978,6.408,4.134,9.23,7.223
				c0.698,0.792,1.385,1.649,1.991,2.75c0.302,0.554,0.589,1.177,0.804,1.939c0.21,0.751,0.356,1.704,0.17,2.798
				c-0.174,1.097-0.786,2.234-1.524,2.984c-0.409,0.417-0.646,0.58-0.924,0.803c-0.283,0.231-0.536,0.383-0.804,0.563
				c-1.053,0.671-2.048,1.134-3.028,1.551c-3.896,1.551-7.616,2.317-11.372,2.988c-3.757,0.664-7.44,1.099-11.276,1.355
				L158.322,296.891z"/>
		</g>
		<path style="opacity:0.2;enable-background:new    ;" d="M165.375,303.941c-2.15,0.278-4.301,0.484-6.514,0.628l-0.124-1.739
			c0.432-0.329,0.71-0.535,0.71-0.535S163.255,302.727,165.375,303.941z"/>
		<path style="fill:#407BFF;" d="M136.326,290.527c0,0-9.361,2.824-10.175,3.7c-0.814,0.875,0.95,2.025,0.95,2.025
			s-5.862,8.349-5.577,8.213c0.285-0.136,1.099,0.62,1.099,0.62l-2.638,5.893h0.602l-1.452,5.835l0.849,0.543
			c0,0-2.23,5.731,0,10.465C122.216,332.554,146.637,298.029,136.326,290.527z"/>
		<g>
			<path style="fill:#FFB573;" d="M177.832,281.625l-3.258-6.781l-5.397,3.758c0,0,1.611,5.06,5.983,5.336L177.832,281.625z"/>
			<polygon style="fill:#FFB573;" points="170.261,271.671 166.909,275.436 169.177,278.603 174.574,274.845 			"/>
		</g>
		<path style="fill:#FFB573;" d="M168.369,410.681l-2.493-1.628c-0.22,0.001-1.426,1.518-1.511,1.721
			c-1.519,3.621-1.501,5.979-1.501,5.979c-0.091,0.428,0.183,0.849,0.611,0.94c0.057,0.012,0.116,0.018,0.174,0.017
			c2.112-0.034,3.65-0.164,6.301-0.164c1.633,0,6.561,0.171,8.816,0.171s2.549-2.228,1.627-2.433
			c-4.142-0.902-9.734-2.975-9.786-4.145C170.362,410.913,168.702,410.674,168.369,410.681z"/>
		<path style="fill:#FFB573;" d="M166.342,296.08c-0.442,0.442-0.875,0.895-1.286,1.338c-16.588,17.802-17.606,35.728-17.606,35.728
			s-20.56,1.276-28.288-0.082c-0.268-9.889,1.575-17.637,4.25-23.606c1.77-3.982,3.91-7.172,6.04-9.693
			c0.587-0.689,1.163-1.327,1.739-1.924c4.332-4.476,8.171-6.215,8.171-6.215s1.101-0.093,2.727-0.124
			c0.895-0.031,1.945-0.031,3.046,0.01c0.71,0.01,1.451,0.051,2.182,0.113c2.994,0.247,7.697,1.183,10.908,1.904
			C162.329,294.464,166.342,296.08,166.342,296.08z"/>
		<path style="fill:#407BFF;" d="M121.647,294.503"/>
		<path style="opacity:0.2;enable-background:new    ;" d="M166.342,296.08c-0.442,0.442-0.875,0.895-1.286,1.338
			c-4.538,3.344-13.326,3.313-13.326,3.313l-1.626,1.564l-1.019-2.542c-1.544-0.895-2.84-2.089-3.9-3.365
			c-1.441-1.708-2.459-3.54-3.097-4.888c-0.185-0.381-0.34-0.731-0.453-1.019c1.091,0.165,2.253,0.494,3.488,1.019l0.01,0.01
			c0.71,0.01,1.451,0.051,2.182,0.113c2.994,0.247,7.697,1.183,10.908,1.904C162.329,294.464,166.342,296.08,166.342,296.08z"/>
		<g>
			<path style="fill:#FFB573;" d="M155.965,297.134c2.437,2.282,5.628,2.335,8.089,0.935c1.584-0.897,2.863-2.4,3.451-4.294
				c0.08-0.248,0.144-0.506,0.199-0.769c0.947-4.828-0.676-15.893-5.402-14.598c-3.871,1.06-7.954,0.552-9.335,4.327
				c-0.4,1.071-0.532,2.224-0.4,3.363C153.097,291.394,153.159,294.533,155.965,297.134z"/>
			<path style="fill:#263238;" d="M160.699,287.252c-0.012,0.43,0.258,0.773,0.546,0.761c0.288-0.012,0.496-0.375,0.481-0.806
				c-0.015-0.431-0.265-0.773-0.546-0.761C160.9,286.458,160.684,286.814,160.699,287.252z"/>
			<path style="fill:#263238;" d="M165.593,287.05c-0.012,0.43,0.265,0.773,0.546,0.761c0.281-0.012,0.496-0.376,0.481-0.807
				c-0.015-0.431-0.265-0.773-0.546-0.761C165.794,286.256,165.577,286.639,165.593,287.05z"/>
			<path style="fill:#263238;" d="M153.872,289.7c-0.495,0.188-1.161,2.185,0.01,3.279l0,0c-0.99,0.225-2.018-0.27-2.421-1.201
				c-0.182-0.421-0.371-0.963-0.671-1.81c-1.49-4.206-1.877-6.974-1.643-9.159l7.048-1.505l0.493,2.311
				c-0.73,0.477-1.115,1.382-0.68,2.271c0.929,1.898,0.086,5.046-1.313,6.395C154.696,290.282,154.573,289.435,153.872,289.7z"/>
			<path style="fill:#FFB573;" d="M150.425,290.554c0.639,1.179,1.72,2.056,3.005,2.439c1.705,0.495,2.575-1.028,2.121-2.648
				c-0.418-1.437-1.801-3.474-3.523-3.241C150.306,287.337,149.658,289.097,150.425,290.554z"/>
			<path style="fill:#263238;" d="M168.385,279.555c1.352-1.018-1.207-4.126-2.571-4.192c-1.364-0.066-3.915-1.011-5.614-2.628
				c-1.699-1.617-5.047-1.391-5.838,0.356c-0.792,1.748-1.264,2.233-3.048,1.997c-1.784-0.236-3.345-0.641-4.725,1.894
				c-1.38,2.535-0.092,4.708-1.803,5.4c-1.711,0.692-0.758,4.692,1.557,4.766c2.315,0.074-0.878,3.186-0.087,4.462
				c0.791,1.276,2.831,0.797,2.92,1.6c0.089,0.803-2.922,2.3-1.58,2.688c1.342,0.388,2.656,0.298,3.019-1.863
				c0.182-1.083,0.695-1.15,1.509-1.659c0.547-0.342,1.045-0.918,1.31-1.505c0.277-0.613,0.73-1.224,0.958-1.864
				c0.157-0.442,0.14-0.928,0.259-1.382c0.203-0.772,0.786-1.396,1.024-2.158c0.185-0.592,0.221-1.343,0.773-1.626
				c-0.087,0.476,0.147,0.947,0.193,1.429c0.045,0.462-0.084,0.921-0.157,1.379c-0.079,0.491-0.283,1.987,0.134,2.369
				c0.629,0.576,0.481-0.736,0.622-1.045c0.085-0.185,0.207-0.356,0.253-0.555c0.042-0.182,0.018-0.371,0.008-0.557
				c-0.046-0.844,0.22-1.701,0.735-2.371c0.183-0.238,0.462-0.382,0.672-0.619c0.251-0.284,0.487-0.563,0.77-0.819
				c0.427-0.386,1.186-0.644,1.237-1.299c0.085-1.092,0.482-2.724,0.783-2.613c0.301,0.111,0.338,0.685,0.755,1.072
				c0.417,0.387-1.121,2.145-0.464,2.217c0.658,0.072,0.115-0.157,1.104-1.061c0.989-0.903,1.75-1.854,1.236-2.591
				c0,0,1.734,1.974,2.784,2.003c1.05,0.028,0.994,2.786,1.897,2.465C169.912,282.923,168.385,279.555,168.385,279.555z"/>
			<path style="fill:#FFB573;" d="M164.713,288.283c4.207,0,6.367,2.405,6.387,4.75c0.025,3.043-4.471,8.493-12.503,5.665
				C151.152,296.076,155.67,288.283,164.713,288.283z"/>
			<path style="fill:#ED893E;" d="M163.077,288.655c0.072-0.472,1.408,0,1.408,0l-0.204-1.628l0.967,1.628
				c0,0,0.919-0.853,1.373-0.466c0.454,0.387,0.139,1.453-1.373,1.639C164.137,289.966,162.979,289.303,163.077,288.655z"/>
			
				<path style="fill:none;stroke:#263238;stroke-width:1.029;stroke-linecap:round;stroke-linejoin:round;stroke-miterlimit:10;" d="
				M159.447,286.243c1.984-1.808,5.495-2.384,7.365-0.892"/>
			<path style="fill:#263238;" d="M155.192,296.318c0,0-0.223-4.264,3.441-5.605c3.664-1.341,6.158-0.395,6.845-0.41
				c0.687-0.015,1.479-0.721,3.525-0.877c2.046-0.156,2.962,4.678,2.555,6.001c-0.407,1.323-0.407-0.583-0.865,0.65
				c-0.458,1.233-0.153,2.952-1.069,2.728c-0.916-0.223-1.73,0.642-2.239,1.303c-0.509,0.662-0.102,1.018-1.526,0.611
				c-1.425-0.407-0.843,1.661-2.788,0.958c-1.945-0.703-2.81-1.111-3.878-0.5c-1.069,0.611-1.649-0.783-2.504-1.689
				C155.834,298.581,154.861,298.565,155.192,296.318z"/>
			<path style="fill:#FFB573;" d="M165.477,291.86c0,0-1.81,1.421-2.088,0.895c-0.278-0.526-1.429,0.225-2.177,0.841
				c-0.748,0.615-0.521,2.137,0.74,2.413c1.26,0.277,3.792-0.39,4.155-0.333c0.363,0.057,2.553,0.182,3.188-1.287
				s-0.535-1.43-0.993-1.634C167.843,292.551,166.674,291.584,165.477,291.86z"/>
			<g>
				<path style="fill:#263238;" d="M169.002,293.635l-1.276,1.132c-0.175,0.031-0.34,0.062-0.504,0.092
					c-0.339,0.062-0.669,0.113-0.978,0.144c-3.612,0.432-5.475-0.494-3.478-1.317c0.278-0.113,0.586-0.206,0.905-0.257
					c0.309-0.072,0.638-0.113,0.967-0.134c0.916-0.072,1.873-0.01,2.655,0.072c0.288,0.031,0.545,0.072,0.772,0.103
					C168.642,293.552,169.002,293.635,169.002,293.635z"/>
				<path style="fill:#FFFFFF;" d="M164.639,293.295v0.587h-0.967v-0.453C163.981,293.357,164.31,293.316,164.639,293.295z"/>
				<path style="fill:#FFFFFF;" d="M167.222,294.859c-0.339,0.062-0.669,0.113-0.978,0.144c0-0.247,0-0.566,0-0.566h0.864
					L167.222,294.859z"/>
				<path style="fill:#FFFFFF;" d="M168.066,293.47l-0.103,0.412h-0.607l-0.062-0.515
					C167.582,293.398,167.84,293.439,168.066,293.47z"/>
			</g>
		</g>
		<g>
			<path style="fill:#FFB573;" d="M107.772,319l-3.681,6.561l6.176,2.261c0,0,3.218-4.225,0.933-7.962L107.772,319z"/>
			<polygon style="fill:#FFB573;" points="103.97,330.914 108.977,331.497 110.267,327.821 104.091,325.56 			"/>
		</g>
		<path style="opacity:0.2;enable-background:new    ;" d="M135.852,300.474c0,0-6.884,8.253-12.441,8.983
			c1.77-3.982,3.91-7.172,6.04-9.693C131.746,299.465,134.02,299.63,135.852,300.474z"/>
		<g>
			<path style="fill:#FFB573;" d="M141.728,298.652c-3.408,1.211-6.865,2.36-10.302,3.495c-3.416,1.169-6.904,2.27-10.185,3.456
				c-0.602,0.085-1.704,1.066-2.676,2.301c-0.977,1.232-1.927,2.66-2.801,4.149c-1.759,2.978-3.403,6.212-4.93,9.406l-3.629-1.175
				c0.806-3.718,1.877-7.276,3.365-10.833c0.766-1.766,1.59-3.539,2.722-5.287c0.568-0.876,1.19-1.753,2.002-2.628l0.655-0.651
				c0.245-0.215,0.502-0.428,0.762-0.636c0.302-0.208,0.577-0.413,0.915-0.606c0.318-0.175,0.793-0.416,0.944-0.476
				c1.744-0.799,3.447-1.518,5.166-2.204c1.712-0.698,3.431-1.358,5.155-1.991c3.443-1.293,6.887-2.514,10.396-3.626
				L141.728,298.652z"/>
		</g>
		<path style="fill:#407BFF;" d="M145.134,291.511c0,0-2.685-2.227-5.678-2.982c-2.992-0.754-1.26,0.942-1.26,0.942
			s-4.853,0.732-5.532,1.01c-0.678,0.279,1.628,2.011,1.628,2.011l-1.753,2.268l4.199-0.258c0,0-3.51,6.436-4.199,7.792
			c-0.689,1.356,2.442,1.221,2.442,1.221l-4.696,4.613l2.515,2.036l-2.881,7.056h1.931l-5.699,10.6c0,0,2.651,4.733,3.768,4.462
			c1.117-0.271,15.215-2.443,15.215-2.443s2.062,0.384,1.122-1.312c-0.94-1.695-2.088-8.429-2.344-9.529
			c-0.256-1.1,0.965-0.422,0.965-0.829c0-0.407-2.138-5.588-2.138-5.588s1.158-0.163,1.173-0.477
			c0.015-0.313-1.173-8.726-1.173-8.726s2.545,3.145,2.409,2.251c-0.136-0.894-1.236-7.565-1.236-7.565l0.829,1.814
			C144.741,299.881,145.934,293.483,145.134,291.511z"/>
		<path style="fill:#407BFF;" d="M139.596,329.557c0,0,3.441-4.858,6.66-5.383c3.219-0.525-0.94,2.659-0.94,2.659l6.21-2.659
			l-1.42,2.662l2.413,0.017c0,0-3.411,1.402-4.644,3.178c0,0,10.717,8.161,14.41,12.194s-1.223,1.03-1.223,1.03l-0.363,4.793
			l-4.095-3.214l-0.933,7.531l-4.043-2.239l-2.543,9.363l-8.346-3.187l-5.757,2.373l-3.81-6.31l-5.65,2.47l-3.998-4.913l-2.373,3.46
			c0,0-4.693-16.122,0-23.632l-2.004-5.578l3.518,2.68v-1.525c0,0,1.958,0.576,3.789,2.612c0,0,0.368-4.633,1.711-6.082
			c0,0,1.672,3.436,1.406,5.879c0,0,1.769-3.799,3.804-2.408c2.035,1.391,3.618,3.222,3.618,3.222v-2.951
			C134.993,325.601,139.268,326.696,139.596,329.557z"/>
		<path style="opacity:0.2;fill:#FFFFFF;" d="M144.743,299.877c0,0,1.194-6.39,0.391-8.366c0,0-2.686-2.223-5.68-2.984
			c-2.994-0.751-1.255,0.947-1.255,0.947s-4.857,0.731-5.536,1.009c-0.679,0.278,1.626,2.007,1.626,2.007l-1.749,2.274l4.199-0.257
			c0,0-3.509,6.431-4.199,7.79c-0.689,1.358,2.439,1.225,2.439,1.225l-4.692,4.61l2.511,2.038l-2.881,7.049h1.935l-2.284,4.26
			c0.72,1.255,1.296,2.501,1.296,2.501s0.309-1.996,0.823-2.12c0.504-0.124,1.214,2.12,1.214,2.12s0.237-2.449,3.427-1.533
			c3.19,0.916,4.034,3.118,4.034,3.118s2.398-2.295,4.209-3.272c-0.319-1.533-0.566-2.85-0.659-3.293
			c-0.257-1.101,0.967-0.422,0.967-0.823c0-0.412-2.14-5.588-2.14-5.588s1.163-0.165,1.173-0.484
			c0.021-0.309-1.173-8.726-1.173-8.726s2.552,3.149,2.408,2.254c-0.134-0.895-1.235-7.563-1.235-7.563L144.743,299.877z
			 M141.209,303.064c0.005,0.255,0.008,0.518-0.09,0.754c-0.097,0.236-0.324,0.438-0.578,0.424c-0.221-0.012-0.4-0.174-0.559-0.327
			c-0.218-0.209-0.435-0.418-0.652-0.627c-0.139-0.133-0.28-0.271-0.363-0.444c-0.083-0.174-0.095-0.394,0.019-0.549
			c0.11-0.148,0.303-0.201,0.472-0.276c0.169-0.075,0.344-0.216,0.331-0.4l0.067,0.202c-0.05-0.48,0.104-0.978,0.415-1.346
			c0.251,0.288,0.254,0.707,0.27,1.089c0.016,0.381,0.087,0.813,0.406,1.023c0.055,0.036,0.117,0.065,0.163,0.113
			C141.199,302.793,141.206,302.935,141.209,303.064z M137.488,313.184c-0.095,0.203-1.162-1.078-1.162-1.078s-0.575,1.179-1.333,0
			c-0.758-1.179,1.333-2.872,1.333-2.872s0.85-1.444,1.162-1.298c0.312,0.146-0.21,1.686,0,2.704
			c0.21,1.018,0.807-0.324,0.807-0.324S137.583,312.98,137.488,313.184z M138.599,290.827c0.503-0.467,1.953-0.901,2.288-0.03
			c0.092,0.239,0.089,0.503,0.085,0.759c-0.002,0.147-0.008,0.304-0.095,0.423c-0.086,0.119-0.286,0.164-0.377,0.048
			c-0.021-0.135-0.042-0.271-0.064-0.406c-0.331,0.118-0.591,0.373-0.879,0.575c-0.288,0.202-0.653,0.358-0.985,0.243
			c-0.038-0.352,0.076-0.719,0.308-0.987c0.059-0.069,0.129-0.137,0.146-0.226C139.066,291.014,138.807,290.883,138.599,290.827z
			 M141.557,320.996c-0.05,0.335-0.101,0.67-0.151,1.005c-0.015,0.098-0.03,0.199-0.074,0.288c-0.109,0.22-0.397,0.327-0.628,0.243
			c-0.231-0.083-0.383-0.338-0.361-0.583c-0.009,0.204-0.017,0.408-0.026,0.611c-0.404,0.132-0.86-0.079-1.123-0.413
			c-0.263-0.334-0.366-0.766-0.419-1.187c-0.147-1.161,1.11-1.019,1.432-1.979c0.281,0.213,0.378,0.563,0.492,0.888
			c0.117,0.334,0.302,0.693,0.641,0.795c0.063,0.019,0.134,0.031,0.179,0.079C141.58,320.808,141.57,320.909,141.557,320.996z"/>
		<path style="opacity:0.2;fill:#FFFFFF;" d="M162.284,342.227c-0.339-0.37-0.737-0.775-1.18-1.205
			c-0.729,0.564-3.231-0.78-2.574-1.829c0.185,0.141,0.376,0.285,0.562,0.424c-0.029-0.187-0.079-0.375-0.124-0.563
			c-1.805-1.599-3.892-3.325-5.767-4.836c-0.395,0.148-0.861,0.16-1.137-0.144c-0.136-0.149-0.204-0.352-0.349-0.492
			c-0.145-0.14-0.431-0.173-0.517,0.009c-0.028,0.06-0.028,0.131-0.064,0.186c-0.062,0.095-0.207,0.101-0.305,0.044
			c-0.098-0.057-0.161-0.158-0.224-0.252c-0.33-0.498-0.899-0.845-1.067-1.421c-0.054-0.185-0.07-0.527-0.019-0.846
			c-1.009-0.786-1.644-1.27-1.644-1.27c1.233-1.776,4.644-3.178,4.644-3.178l-2.413-0.017l1.42-2.662l-6.21,2.659
			c0,0,4.159-3.184,0.94-2.659c-3.219,0.525-6.66,5.383-6.66,5.383c-0.328-2.861-4.603-3.957-4.603-3.957v2.951
			c0,0-1.582-1.832-3.618-3.222c-2.035-1.391-3.804,2.408-3.804,2.408c0.267-2.443-1.406-5.879-1.406-5.879
			c-1.342,1.449-1.711,6.082-1.711,6.082c-1.832-2.035-3.789-2.612-3.789-2.612v1.525l-3.518-2.68l2.004,5.578
			c-4.693,7.51,0,23.632,0,23.632l2.372-3.46l3.998,4.913l5.65-2.47l3.81,6.31l5.757-2.373l8.347,3.187l2.543-9.363l4.043,2.239
			l0.933-7.531l4.095,3.214l0.363-4.793C161.061,343.256,165.977,346.259,162.284,342.227z M120.957,347.188
			c-0.028,0.252-0.071,0.51-0.206,0.725c-0.135,0.215-0.383,0.376-0.633,0.339c-0.28-0.042-0.469-0.302-0.603-0.552
			c-0.345-0.645-0.73-1.674-0.575-2.422c0.108-0.52,0.24-0.373,0.545-0.65c0.312-0.283,0.519-0.575,0.759-0.957
			c0.162-0.001,0.212,0.218,0.21,0.38c-0.003,0.271-0.006,0.542-0.01,0.813c-0.002,0.16,0,0.334,0.097,0.462
			c0.097,0.128,0.327,0.16,0.406,0.02C121.022,345.957,121.026,346.576,120.957,347.188z M124.677,337.785
			c-0.34-0.223-0.587-0.581-0.675-0.978c-0.037-0.165-0.099-0.384-0.268-0.382c-0.185,0.003-0.28,0.293-0.464,0.269
			c-0.408-0.051-0.212-3.478,0.595-3.212c0.194,0.064,0.218,0.322,0.236,0.526c0.018,0.204,0.149,0.461,0.346,0.409
			c-0.088-0.131,0.151-0.277,0.278-0.184c0.128,0.093,0.141,0.275,0.143,0.433C124.879,335.709,124.89,336.763,124.677,337.785z
			 M135.277,345.969c-0.527,0.104-1.106-0.158-1.376-0.622c0.016,0.211,0.033,0.421,0.049,0.632c-0.473,0.06-1.041-0.087-1.219-0.53
			c-0.075-0.187-0.068-0.401-0.155-0.583c-0.087-0.182-0.343-0.313-0.487-0.172c-0.047,0.046-0.072,0.113-0.125,0.152
			c-0.091,0.068-0.229,0.022-0.301-0.066c-0.072-0.088-0.096-0.204-0.121-0.315c-0.135-0.582-0.547-1.106-0.503-1.705
			c0.031-0.425,0.488-1.513,1.054-1.283c0.092,0.038,0.165,0.109,0.234,0.182c0.262,0.278,0.487,0.59,0.669,0.925
			c0.065,0.12,0.162,0.263,0.296,0.241c0.056-0.009,0.102-0.046,0.144-0.083c0.252-0.222,0.463-0.491,0.619-0.788
			c0.297,0.556,0.594,1.112,0.89,1.668c0.091,0.17,0.182,0.341,0.248,0.522C135.402,344.722,135.341,345.358,135.277,345.969z
			 M138.945,334.377c-0.399-0.585-0.299-1.188,0.282-1.236c0.14-0.012,0.969,0.09,1.148,0.145c0.393,0.119,0.64,0.459,0.834,0.802
			c0.215,0.379,0.441,0.805,0.851,0.956c0.073,0.027,0.156,0.048,0.2,0.112c0.037,0.052,0.038,0.12,0.038,0.184
			c0.001,0.292,0.001,0.583,0.002,0.875c0,0.076-0.001,0.157-0.041,0.221c-0.037,0.059-0.102,0.096-0.166,0.124
			c-0.863,0.381-1.388-0.226-1.838-0.846C139.886,335.204,139.285,334.876,138.945,334.377z M144.512,354.024
			c-0.042,0.058-0.117,0.081-0.187,0.095c-0.412,0.081-0.858-0.041-1.172-0.319c-0.314-0.278-0.489-0.706-0.46-1.124
			c-0.144,2.053-3.438-0.883-2.257-1.864c0.132,0.192,0.269,0.388,0.402,0.578c0.102-0.612,0.103-1.259,0.148-1.88
			c0.391,0.392,0.747,0.819,1.063,1.273c0.104-0.009,0.159-0.13,0.167-0.234c0.007-0.104-0.01-0.215,0.037-0.308
			c0.065-0.127,0.235-0.17,0.373-0.134c0.138,0.036,0.252,0.131,0.361,0.223c0.324,0.275,0.649,0.549,0.973,0.824
			c0.13,0.11,0.263,0.223,0.344,0.372c0.094,0.172,0.11,0.375,0.123,0.57c0.04,0.571,0.081,1.142,0.121,1.713
			C144.552,353.883,144.555,353.964,144.512,354.024z M153.617,343.943c-0.005,0.039-0.012,0.08-0.039,0.109
			c-0.034,0.037-0.088,0.044-0.138,0.049c-1.481,0.139-2.68-0.717-3.31-2.047c0.237-0.053,0.494-0.018,0.707,0.098
			c0.062-0.503-0.049-1.026-0.311-1.461c0.541-0.148,0.911,0.641,1.469,0.702c0.141,0.015,0.287-0.019,0.425,0.014
			c0.124,0.029,0.23,0.109,0.326,0.194C153.395,342.177,153.733,343.084,153.617,343.943z"/>
		<path style="fill:#FFB573;" d="M129.241,410.681l-2.493-1.628c-0.22,0.001-1.426,1.518-1.511,1.721
			c-1.519,3.621-1.501,5.979-1.501,5.979c-0.091,0.428,0.183,0.849,0.611,0.94c0.057,0.012,0.116,0.018,0.174,0.017
			c2.112-0.034,3.649-0.164,6.301-0.164c1.633,0,6.561,0.171,8.816,0.171c2.255,0,2.549-2.228,1.627-2.433
			c-4.142-0.902-9.734-2.975-9.785-4.145C131.235,410.913,129.575,410.674,129.241,410.681z"/>
	</g>
</g>
</svg>
