<?xml version="1.0" encoding="utf-8"?>
<!-- Generator: Adobe Illustrator 27.5.0, SVG Export Plug-In . SVG Version: 6.00 Build 0)  -->
<svg version="1.1" xmlns="http://www.w3.org/2000/svg" xmlns:xlink="http://www.w3.org/1999/xlink" x="0px" y="0px"
	 viewBox="0 0 499.999 500" style="enable-background:new 0 0 499.999 500;" xml:space="preserve">
<g id="BACKGROUND">
	<rect x="-0.001" y="0.001" style="fill:#FFFFFF;" width="500" height="500"/>
</g>
<g id="OBJECTS">
	<g>
		<g style="opacity:0.4;">
			<g>
				<path style="fill:#C0C7FF;" d="M225.854,453.215c-40.611-4-75.402-28.316-115.593-32c-41.749-3.826-67.344-1.672-80.063-41
					c-8.056-24.912-2.207-52,1.959-66c5.207-16,19.786-40,29.158-54c21.869-34,2.084-77,3.125-114c2.081-55,34.746-79.792,88.889-82
					c40.278-1.644,60.034,18,89.188,24c31.241,6,49.991-13,77.066-20c26.034-8,61.44-9,84.352,7c51.027,33,32.282,90,28.116,139
					c-3.123,46,39.574,72,41.656,117c2.082,52-23.952,104-80.186,118c-45.824,11-92.686-4-137.462-8c-2.086,0-4.172,0-6.249,0"/>
			</g>
			<g>
				<g>
					<path style="fill:#C0C7FF;" d="M219.588,53.818c-14.9-3.354-13.319,12.207-3.718,13.423
						C226.505,68.584,229.231,56.7,219.588,53.818"/>
				</g>
				<g>
					<path style="fill:#C0C7FF;" d="M186.858,41.654c-19.952,0.247-16.204,20.472,0.015,20.98
						C204.708,63.195,209.925,41.148,186.858,41.654"/>
				</g>
				<g>
					<path style="fill:#C0C7FF;" d="M84.325,427.639c-21.37-0.982-23.459,30.355,2,29
						C108.622,455.452,107.955,426.657,84.325,427.639"/>
				</g>
				<g>
					<path style="fill:#C0C7FF;" d="M31.678,237.382c-14.409,20.55,17.57,30.191,25.713,11.653
						C66.767,227.693,41.854,219.468,31.678,237.382"/>
				</g>
				<g>
					<path style="fill:#C0C7FF;" d="M454.735,225.383c-16.003,0.264-12.997,21.818,0.013,22.361
						C469.053,248.342,473.237,224.844,454.735,225.383"/>
				</g>
				<g>
					<path style="fill:#C0C7FF;" d="M449.245,200.802c-10.111,0.476-7.699,15.555,2.982,13.56
						C459.28,214.053,460.729,198.581,449.245,200.802"/>
				</g>
				<g>
					<path style="fill:#C0C7FF;" d="M48.006,210.278c-1.997,10.279,11.001,14.344,15.33,3.715
						C65.652,202.704,51.957,198.475,48.006,210.278"/>
				</g>
			</g>
		</g>
		<g>
			<g>
				<g>
					<path style="fill:#C0C7FF;" d="M113.833,118.85c6.532,8.397,13.064,16.795,19.596,25.192c1.978,2.543,5.49-1.023,3.535-3.535
						c-6.532-8.397-13.064-16.795-19.596-25.192C115.39,112.772,111.878,116.338,113.833,118.85L113.833,118.85z"/>
				</g>
			</g>
			<g>
				<g>
					<path style="fill:#C0C7FF;" d="M137.083,95.866c2.428,14.466,4.857,28.932,7.285,43.397c0.533,3.175,5.351,1.824,4.821-1.329
						c-2.428-14.466-4.857-28.932-7.285-43.397C141.372,91.362,136.554,92.713,137.083,95.866L137.083,95.866z"/>
				</g>
			</g>
			<g>
				<g>
					<path style="fill:#C0C7FF;" d="M168.236,105.796c-3.667,10.276-7.334,20.551-11,30.827c-1.086,3.044,3.746,4.343,4.821,1.329
						c3.667-10.276,7.334-20.551,11-30.827C174.144,104.081,169.311,102.782,168.236,105.796L168.236,105.796z"/>
				</g>
			</g>
		</g>
		<g>
			<g>
				<g>
					<path style="fill:#C0C7FF;" d="M386.065,167.325c3.316-6.947,6.632-13.895,9.947-20.842c1.382-2.894-2.929-5.433-4.316-2.523
						c-3.316,6.947-6.632,13.895-9.947,20.842C380.367,167.695,384.677,170.234,386.065,167.325L386.065,167.325z"/>
				</g>
			</g>
			<g>
				<g>
					<path style="fill:#C0C7FF;" d="M393.116,173.857c8.839-6.514,17.677-13.029,26.516-19.543c2.565-1.891,0.076-6.233-2.523-4.317
						c-8.839,6.514-17.677,13.029-26.516,19.543C388.027,171.431,390.516,175.773,393.116,173.857L393.116,173.857z"/>
				</g>
			</g>
			<g>
				<g>
					<path style="fill:#C0C7FF;" d="M396.479,183.381c7.618-1.212,15.236-2.424,22.854-3.636c3.177-0.505,1.823-5.323-1.33-4.821
						c-7.618,1.212-15.236,2.424-22.854,3.636C391.972,179.065,393.326,183.882,396.479,183.381L396.479,183.381z"/>
				</g>
			</g>
		</g>
		<g>
			<g>
				<path style="fill:#C0C7FF;" d="M252.768,44.871c66.962-40.178,125.791,3.974,93.363,94.497
					c-14.067,39.271,31.301,24.025,44.144,52.804c15.362,34.423,22.022,58.641,31.366,95.083
					c11.98,50.315,63.921,147.092-13.244,170.199c-22.234,6.658-32.705-5.805-34.654,21.762c0,0-41.807,0-60.71,0"/>
			</g>
			<g>
				<g>
					<g>
						<path style="fill:#5763BF;" d="M234.117,74.215c1.999,69-16.995,101.286,47,100c55.333-1.112,40.409-37.206,36-98"/>
					</g>
					<path style="fill:#5763BF;" d="M268.742,166.102c0,11.409,0,22.816,0,34.227c0,8.12,9.553,14.887,21,14.887
						c11.447,0,21-6.767,21-14.887c0-11.41,0-22.817,0-34.227c0-8.12-9.553-14.887-21-14.887
						C278.294,151.215,268.742,157.982,268.742,166.102L268.742,166.102z"/>
					<g>
						<path style="fill:#5763BF;" d="M403.717,428.524c1.775,6.191,11.351,4.191,11.133-2.299c1.355,5.785,12.555,4.656,9.926-3.305
							c5.482,6.248,12.044,0.174,6.947-14.488c-3.016-8.678-5.942-12.551-12.109-19.191l-9.359-34.383l-29.695,3.906
							c3.163,8.049,7.879,32.092,7.885,32.129c0.797,4.061-8.178,15.656-7.137,23.246c0.69,5.027,9.414,2.242,8.301-5.309
							C389.585,435.881,402.246,437.215,403.717,428.524"/>
					</g>
					<g>
						<path style="fill:#5763BF;" d="M422.117,378.881c-6.94-33-25.831-137.666-45.233-168.666c-18.015-28-93.789-24-132.592-16
							c-31.864,7-36.228,37.598-36.002,59c0.439,41.547-0.173,55.889-0.173,106l0.478,120c44.326,0,106.522,0.83,153.052,0
							c2.775-54-0.96-141.629-8.913-204c6.077,18.74,22.227,86.668,29.06,111.668"/>
					</g>
					<g>
						<path style="fill:#5763BF;" d="M322.117,117.215c17-4,20,23-1,19"/>
					</g>
				</g>
				<g style="opacity:0.3;">
					<path style="fill:#414A8F;" d="M264.075,417.528c3.643-10.928,8.264-21.324,10.338-32.74
						c2.201-12.111,2.42-24.563,1.117-36.791c-2.938-27.58-12.15-53.773-17.595-80.848c-4.887-24.297-8.085-48.861-10.982-73.462
						c-0.903,0.175-1.795,0.35-2.661,0.528c-31.864,7-36.228,37.598-36.002,59c0.439,41.547-0.173,55.889-0.173,106l0.478,120
						c15.792,0,33.944,0.43,52.839,0.83C260.514,459.227,257.427,437.469,264.075,417.528z"/>
				</g>
				<g>
					<path style="fill:#414A8F;" d="M307.117,80.215c-79,62.76-123.203-19.788-62.593-38.853
						c28.021-8.813,60.383,12.878,60.383,12.878c41.877-17.692,19.264,59.493,17.21,77.975
						C309.45,139.215,309.713,96.889,307.117,80.215"/>
				</g>
				<g>
					<g style="opacity:0.3;">
						<path style="fill:#414A8F;" d="M270.121,131.075c-7.271,0.5-21.374-3.508-22.493,6.012
							c-1.678,11.523,15.222,2.505,21.936,2.004c6.711-0.501,20.815,6.514,24.171-0.501c5.035-10.521-16.663-7.517-22.257-7.517"/>
					</g>
					<g>
						<g>
							<path style="fill:#414A8F;" d="M265.434,119.38c-0.004,6.563-0.153,13.002-1.92,19.37c-0.3,1.08,0.369,1.914,1.31,2.307
								c2.085,0.871,4.213,1.258,6.458,1.391c2.417,0.143,2.403-3.608,0-3.75c-1.948-0.115-3.674-0.51-5.462-1.257
								c0.436,0.769,0.873,1.538,1.31,2.307c1.854-6.681,2.051-13.473,2.055-20.367C269.185,116.962,265.435,116.962,265.434,119.38
								L265.434,119.38z"/>
						</g>
					</g>
					<g>
						<g>
							<g>
								<path style="fill:#414A8F;" d="M253.415,130.715c3.225,0,3.225-5,0-5C250.19,125.715,250.19,130.715,253.415,130.715
									L253.415,130.715z"/>
							</g>
						</g>
						<g>
							<g>
								<path style="fill:#414A8F;" d="M283.866,130.49c3.225,0,3.225-5,0-5C280.641,125.49,280.641,130.49,283.866,130.49
									L283.866,130.49z"/>
							</g>
						</g>
					</g>
					<g>
						<g>
							<g>
								<path style="fill:#414A8F;" d="M247.157,113.378c3.67,2.7,7.695,4.975,11.61,7.298c2.085,1.237,3.97-2.006,1.893-3.238
									c-3.915-2.323-7.939-4.598-11.61-7.298C247.099,108.704,245.231,111.961,247.157,113.378L247.157,113.378z"/>
							</g>
						</g>
						<g>
							<g>
								<path style="fill:#414A8F;" d="M278.851,119.337c3.797-2.842,7.695-5.771,11.92-7.947c2.15-1.108,0.253-4.343-1.893-3.238
									c-4.225,2.176-8.123,5.105-11.92,7.947C275.047,117.53,276.913,120.788,278.851,119.337L278.851,119.337z"/>
							</g>
						</g>
					</g>
					<g>
						<g>
							<path style="fill:#414A8F;" d="M278.2,155.088c3.838-6.534,10.578-7.522,17.586-7.018c2.414,0.174,2.397-3.577,0-3.75
								c-8.386-0.604-16.315,1.198-20.824,8.875C273.734,155.286,276.976,157.171,278.2,155.088L278.2,155.088z"/>
						</g>
					</g>
				</g>
				<g>
					<g>
						<g>
							<path style="fill:#414A8F;" d="M285.651,206.118c0.033,66.622,3.508,133.186,4.973,199.781c0.053,2.414,3.804,2.42,3.75,0
								c-1.465-66.595-4.94-133.159-4.973-199.781C289.4,203.7,285.65,203.699,285.651,206.118L285.651,206.118z"/>
						</g>
					</g>
					<g>
						<g>
							<path style="fill:#414A8F;" d="M239.914,401.302c19.204,7.128,40.879,8.406,61.17,8.387
								c19.866-0.019,41.47-1.482,59.884-9.575c2.21-0.972,0.299-4.201-1.893-3.238c-18.243,8.019-39.767,9.047-59.401,9.065
								c-19.523,0.019-40.307-1.404-58.763-8.254C238.639,396.843,237.667,400.469,239.914,401.302L239.914,401.302z"/>
						</g>
					</g>
					<g>
						<g>
							<path style="fill:#414A8F;" d="M292.922,440.879c0.221,12.249,0.441,24.499,0.662,36.748c0.044,2.415,3.794,2.42,3.75,0
								c-0.221-12.249-0.441-24.499-0.662-36.748C296.628,438.464,292.878,438.46,292.922,440.879L292.922,440.879z"/>
						</g>
					</g>
					<g>
						<g>
							<g>
								<path style="fill:#414A8F;" d="M304.217,407.78c0.066,8.409,0.686,16.763,0,25.166c-0.247,3.027-0.737,4.919-4.011,5.129
									c-2.708,0.174-5.468-0.011-8.182-0.001c-1.597,0.005-4.414,0.426-5.776-0.643c-1.313-1.029-0.861-4.462-0.88-5.886
									c-0.103-7.915-0.006-15.837-0.006-23.752c0-1.935-3-1.935-3,0c0,9.414-0.954,19.356,0.316,28.698
									c0.648,4.77,5.601,4.582,9.346,4.582c4.409,0,12.067,1.656,14.273-3.504c1.576-3.686,1.228-8.504,1.301-12.39
									c0.107-5.801-0.336-11.601-0.382-17.4C307.202,405.846,304.202,405.844,304.217,407.78L304.217,407.78z"/>
							</g>
						</g>
						<g>
							<g>
								<path style="fill:#414A8F;" d="M329.761,407.516c2.603,15.497,14.695,23.162,29.936,21.982c1.916-0.148,1.931-3.15,0-3
									c-14.021,1.086-24.652-5.541-27.044-19.779C332.333,404.814,329.443,405.625,329.761,407.516L329.761,407.516z"/>
							</g>
						</g>
						<g>
							<g>
								<path style="fill:#414A8F;" d="M258.522,405.469c0.717,11.096-7.704,21.014-18.719,22.34c-1.896,0.228-1.918,3.231,0,3
									c12.551-1.512,22.55-12.473,21.719-25.34C261.398,403.548,258.397,403.537,258.522,405.469L258.522,405.469z"/>
							</g>
						</g>
					</g>
					<g>
						<g>
							<path style="fill:#414A8F;" d="M380.265,374.662c12.599-2.098,25.061-4.92,37.25-8.75c1.839-0.578,1.054-3.475-0.797-2.892
								c-12.19,3.83-24.651,6.652-37.25,8.75C377.563,372.086,378.374,374.977,380.265,374.662L380.265,374.662z"/>
						</g>
					</g>
					<g>
						<path style="fill:#414A8F;" d="M268.888,173.185c0,0,2.132,0.17,5.273,0.357c1.575,0.096,3.403,0.168,5.361,0.196
							c0.976,0,1.989,0.011,3.011-0.032c1.028-0.013,2.059-0.101,3.101-0.162c1.028-0.114,2.072-0.19,3.077-0.365
							c1.018-0.132,1.997-0.351,2.955-0.549c0.941-0.242,1.866-0.463,2.711-0.757c0.849-0.289,1.657-0.561,2.367-0.897
							c0.361-0.157,0.708-0.309,1.037-0.452c0.317-0.17,0.617-0.331,0.899-0.482c0.57-0.297,1.064-0.568,1.44-0.837
							c0.776-0.512,1.221-0.804,1.221-0.804s-0.397,0.355-1.093,0.976c-0.339,0.327-0.791,0.67-1.32,1.054
							c-0.264,0.195-0.544,0.404-0.84,0.624c-0.311,0.195-0.64,0.4-0.982,0.614c-0.678,0.451-1.458,0.85-2.288,1.277
							c-0.827,0.432-1.74,0.799-2.682,1.194c-0.954,0.351-1.943,0.73-2.974,1.022c-1.022,0.337-2.08,0.575-3.138,0.852
							c-1.062,0.223-2.127,0.472-3.182,0.643c-1.054,0.2-2.093,0.343-3.102,0.493c-2.014,0.269-3.9,0.472-5.509,0.611
							c-3.227,0.283-5.339,0.425-5.34,0.425L268.888,173.185z"/>
					</g>
					<g>
						<polygon style="fill:#414A8F;" points="387.452,385.819 416.004,379.957 388.874,390.612 						"/>
					</g>
					<g>
						<g>
							<path style="fill:#5763BF;" d="M286.526,205.965l-21.53-23.364c0,0-8.947,15.259-12.921,20.556
								C259.36,205.144,286.526,205.965,286.526,205.965"/>
							<g>
								<path style="fill:#414A8F;" d="M287.852,204.64c-7.177-7.788-14.353-15.576-21.53-23.364
									c-0.826-0.896-2.351-0.631-2.945,0.379c-4.084,6.956-8.143,14.048-12.921,20.556c-0.719,0.979,0.033,2.48,1.121,2.754
									c11.14,2.811,23.518,2.524,34.949,2.875c2.42,0.074,2.412-3.676,0-3.75c-11.09-0.341-23.153-0.016-33.953-2.742
									c0.374,0.918,0.747,1.836,1.121,2.754c4.777-6.507,8.837-13.6,12.921-20.556c-0.982,0.127-1.963,0.253-2.945,0.379
									c7.177,7.788,14.353,15.576,21.53,23.364C286.842,209.073,289.487,206.415,287.852,204.64L287.852,204.64z"/>
							</g>
						</g>
						<g>
							<polyline style="fill:#5763BF;" points="286.526,205.965 316.989,183.277 325.95,205.157 286.526,205.965 							"/>
							<g>
								<path style="fill:#414A8F;" d="M287.472,207.585c10.154-7.563,20.309-15.126,30.463-22.689
									c-0.918-0.373-1.836-0.747-2.754-1.121c2.986,7.293,5.974,14.586,8.961,21.88c0.603-0.791,1.205-1.583,1.808-2.374
									c-13.142,0.27-26.282,0.539-39.424,0.809c-2.415,0.049-2.42,3.8,0,3.75c13.142-0.27,26.282-0.539,39.424-0.809
									c1.102-0.023,2.286-1.205,1.808-2.374c-2.986-7.293-5.974-14.586-8.961-21.88c-0.409-0.999-1.682-1.919-2.754-1.121
									c-10.154,7.563-20.309,15.126-30.463,22.689C283.664,205.773,285.531,209.031,287.472,207.585L287.472,207.585z"/>
							</g>
						</g>
					</g>
					<g>
						<g>
							<path style="fill:#414A8F;" d="M367.336,203.725c-11.397,21.845-16.647,45.39-16.762,69.969c-0.009,1.934,2.991,1.934,3,0
								c0.111-24.062,5.192-47.065,16.352-68.455C370.82,203.526,368.231,202.009,367.336,203.725L367.336,203.725z"/>
						</g>
					</g>
				</g>
			</g>
		</g>
		<g>
			<g>
				<path style="fill:#232B49;" d="M118.571,190.896c1.589,19.55,1.589,38.25-6.358,56.95c-4.771,12.75-14.311,23.799-19.08,36.549
					c-15.106,45.051,8.747,78.201,49.289,88.4c35.779,9.35,91.429,0.85,105.738-43.35c13.515-43.35-13.729-72.613-14.169-123.25
					c-0.089-10.23-0.03-48.111-24.338-40.795"/>
			</g>
			<g>
				<g>
					<path style="fill:#9351F4;" d="M97.117,479.215c-1-29,4-67,9-95c4-18,3.603-83.715,31-87c23.962-2.873,39-4,64,1
						c29,6,25,41,30,67c6,38,8.25,75.5,11,114"/>
				</g>
				<g>
					<g>
						<path style="fill:#B182F7;" d="M142.067,323.983c0,0,0.238,0.445,0.524,1.112c0.138,0.334,0.303,0.724,0.451,1.141
							c0.168,0.417,0.286,0.862,0.425,1.308c0.117,0.445,0.456,0.891,0.484,1.308c0.01,0.417-0.221,0.807-0.478,1.141
							c-0.281,0.333-0.589,0.611-0.889,0.807c-0.283,0.194-0.517,0.306-0.517,0.306h-0.4c0,0-0.234-0.111-0.517-0.306
							c-0.3-0.195-0.608-0.474-0.889-0.807c-0.257-0.334-0.488-0.724-0.478-1.141c0.028-0.417,0.367-0.862,0.484-1.308
							c0.139-0.445,0.257-0.891,0.425-1.308c0.148-0.417,0.313-0.807,0.451-1.141c0.286-0.667,0.524-1.112,0.524-1.112H142.067z"/>
					</g>
					<g>
						<path style="fill:#B182F7;" d="M155.066,315.579c0,0,0.264,0.479,0.59,1.202c0.158,0.361,0.346,0.783,0.519,1.236
							c0.192,0.452,0.337,0.938,0.503,1.423c0.079,0.243,0.174,0.494,0.285,0.737c0.109,0.244,0.203,0.487,0.216,0.725
							c0.015,0.477-0.212,0.929-0.466,1.312c-0.278,0.384-0.583,0.699-0.881,0.919c-0.281,0.22-0.514,0.343-0.514,0.343h-0.4
							c0,0-0.235-0.123-0.52-0.336c-0.302-0.212-0.612-0.512-0.896-0.868c-0.26-0.356-0.494-0.768-0.487-1.216
							c0.023-0.449,0.365-0.941,0.469-1.435c0.111-0.501,0.203-1,0.345-1.471c0.122-0.47,0.264-0.91,0.382-1.287
							c0.246-0.755,0.456-1.261,0.456-1.261L155.066,315.579z"/>
					</g>
					<g>
						<path style="fill:#B182F7;" d="M167.817,323.729c0,0,0.238,0.651,0.524,1.629c0.138,0.489,0.303,1.059,0.451,1.67
							c0.168,0.611,0.286,1.263,0.425,1.914c0.117,0.651,0.456,1.303,0.484,1.914c0.01,0.611-0.221,1.181-0.478,1.67
							c-0.281,0.488-0.589,0.895-0.889,1.181c-0.283,0.285-0.517,0.448-0.517,0.448h-0.4c0,0-0.234-0.163-0.517-0.448
							c-0.3-0.285-0.608-0.692-0.889-1.181c-0.257-0.489-0.488-1.059-0.478-1.67c0.028-0.611,0.367-1.263,0.484-1.914
							c0.139-0.651,0.257-1.303,0.425-1.914c0.148-0.611,0.313-1.181,0.451-1.67c0.286-0.978,0.524-1.629,0.524-1.629H167.817z"/>
					</g>
					<g>
						<path style="fill:#B182F7;" d="M154.566,338.465c0,0,0.265,0.429,0.591,1.076c0.159,0.324,0.347,0.702,0.521,1.109
							c0.193,0.405,0.338,0.842,0.504,1.276c0.122,0.45,0.465,0.893,0.497,1.327c0.015,0.435-0.212,0.848-0.466,1.196
							c-0.277,0.351-0.583,0.638-0.881,0.837c-0.281,0.199-0.514,0.311-0.514,0.311h-0.4c0,0-0.235-0.111-0.52-0.302
							c-0.302-0.19-0.612-0.46-0.895-0.778c-0.26-0.318-0.494-0.685-0.486-1.086c0.024-0.401,0.361-0.848,0.474-1.289
							c0.111-0.454,0.202-0.906,0.344-1.335c0.122-0.427,0.263-0.826,0.38-1.169c0.244-0.686,0.454-1.146,0.454-1.146
							L154.566,338.465z"/>
					</g>
					<g>
						<path style="fill:#B182F7;" d="M140.815,346.589c0,0,0.296,0.426,0.669,1.075c0.091,0.162,0.19,0.338,0.294,0.524
							c0.115,0.179,0.181,0.402,0.271,0.627c0.186,0.452,0.322,0.954,0.477,1.467c0.075,0.255,0.162,0.479,0.267,0.717
							c0.103,0.234,0.191,0.466,0.198,0.689c0.003,0.455-0.235,0.845-0.499,1.174c-0.287,0.334-0.6,0.615-0.903,0.814
							c-0.287,0.199-0.523,0.314-0.523,0.314h-0.4c0,0-0.231-0.115-0.511-0.321c-0.296-0.205-0.599-0.502-0.873-0.861
							c-0.251-0.363-0.475-0.782-0.458-1.193c0.033-0.415,0.387-0.875,0.501-1.308c0.124-0.411,0.229-0.833,0.386-1.246
							c0.156-0.401,0.24-0.846,0.338-1.203c0.193-0.726,0.369-1.216,0.369-1.216L140.815,346.589z"/>
					</g>
					<g>
						<path style="fill:#B182F7;" d="M127.566,338.207c0,0,0.3,0.675,0.68,1.693c0.092,0.255,0.192,0.531,0.298,0.823
							c0.11,0.29,0.169,0.621,0.262,0.954c0.184,0.671,0.318,1.399,0.473,2.137c0.109,0.706,0.441,1.416,0.461,2.081
							c0.003,0.671-0.235,1.271-0.498,1.786c-0.287,0.518-0.6,0.95-0.903,1.254c-0.287,0.305-0.522,0.48-0.522,0.48h-0.4
							c0,0-0.232-0.175-0.511-0.483c-0.296-0.309-0.6-0.751-0.875-1.284c-0.251-0.533-0.475-1.159-0.457-1.802
							c0.035-0.647,0.382-1.337,0.506-2.031c0.123-0.663,0.228-1.334,0.382-1.976c0.152-0.633,0.257-1.266,0.343-1.802
							c0.189-1.073,0.363-1.793,0.363-1.793L127.566,338.207z"/>
					</g>
					<g>
						<path style="fill:#B182F7;" d="M179.566,317.612c0,0,0.261,0.349,0.583,0.877c0.156,0.265,0.342,0.573,0.512,0.905
							c0.087,0.166,0.186,0.337,0.258,0.513c0.073,0.18,0.169,0.344,0.226,0.541c0.096,0.393,0.414,0.795,0.42,1.185
							c-0.011,0.39-0.264,0.746-0.54,1.03c-0.299,0.285-0.622,0.501-0.931,0.636c-0.292,0.138-0.53,0.2-0.53,0.2l-0.397-0.049
							c0,0-0.226-0.12-0.499-0.303c-0.289-0.186-0.583-0.426-0.849-0.691c-0.241-0.264-0.454-0.547-0.423-0.843
							c0.049-0.295,0.412-0.624,0.554-0.963c0.081-0.168,0.118-0.37,0.178-0.55c0.048-0.185,0.123-0.367,0.188-0.544
							c0.124-0.354,0.268-0.685,0.388-0.968c0.249-0.568,0.462-0.951,0.462-0.951L179.566,317.612z"/>
					</g>
					<g>
						<path style="fill:#B182F7;" d="M178.065,335.914c0,0,0.297,0.527,0.672,1.326c0.091,0.2,0.19,0.417,0.295,0.646
							c0.116,0.223,0.179,0.489,0.27,0.757c0.184,0.538,0.32,1.129,0.474,1.73c0.073,0.295,0.162,0.569,0.266,0.852
							c0.104,0.279,0.191,0.556,0.199,0.823c0.003,0.54-0.235,1.015-0.499,1.419c-0.287,0.407-0.6,0.749-0.903,0.99
							c-0.287,0.24-0.523,0.38-0.523,0.38h-0.4c0,0-0.231-0.14-0.511-0.386c-0.296-0.247-0.6-0.601-0.874-1.029
							c-0.251-0.432-0.475-0.933-0.457-1.436c0.033-0.508,0.386-1.061,0.502-1.598c0.124-0.514,0.229-1.037,0.384-1.543
							c0.154-0.495,0.243-1.016,0.339-1.442c0.193-0.863,0.369-1.443,0.369-1.443L178.065,335.914z"/>
					</g>
					<g>
						<path style="fill:#B182F7;" d="M188.566,330.836c0,0,0.266,0.395,0.593,0.992c0.159,0.299,0.349,0.647,0.523,1.023
							c0.191,0.376,0.345,0.774,0.501,1.184c0.121,0.419,0.465,0.831,0.497,1.236c0.015,0.405-0.213,0.793-0.466,1.119
							c-0.278,0.328-0.584,0.597-0.882,0.782c-0.281,0.186-0.514,0.289-0.514,0.289h-0.4c0,0-0.235-0.104-0.52-0.28
							c-0.302-0.176-0.612-0.425-0.895-0.717c-0.259-0.294-0.493-0.631-0.485-1.001c0.025-0.37,0.361-0.785,0.475-1.194
							c0.121-0.417,0.203-0.843,0.346-1.241c0.121-0.398,0.261-0.771,0.378-1.092c0.243-0.641,0.452-1.071,0.452-1.071
							L188.566,330.836z"/>
					</g>
					<g>
						<path style="fill:#B182F7;" d="M196.317,345.09c0,0,0.238,0.461,0.524,1.152c0.138,0.346,0.303,0.749,0.451,1.182
							c0.168,0.432,0.286,0.893,0.425,1.354c0.117,0.461,0.456,0.922,0.484,1.354c0.01,0.433-0.221,0.836-0.478,1.182
							c-0.281,0.346-0.589,0.634-0.889,0.836c-0.283,0.201-0.517,0.316-0.517,0.316h-0.4c0,0-0.234-0.115-0.517-0.316
							c-0.3-0.202-0.608-0.49-0.889-0.836c-0.257-0.346-0.488-0.749-0.478-1.182c0.028-0.432,0.367-0.893,0.484-1.354
							c0.139-0.461,0.257-0.922,0.425-1.354c0.148-0.433,0.313-0.836,0.451-1.182c0.286-0.691,0.524-1.152,0.524-1.152H196.317z"/>
					</g>
					<g>
						<path style="fill:#B182F7;" d="M208.567,352.977c0,0,0.23,0.513,0.505,1.28c0.133,0.383,0.291,0.833,0.432,1.308
							c0.161,0.477,0.271,0.982,0.402,1.487c0.124,0.492,0.484,0.952,0.523,1.393c0.018,0.219-0.041,0.442-0.117,0.645
							c-0.06,0.196-0.151,0.39-0.262,0.575c-0.235,0.372-0.503,0.713-0.771,0.976c-0.252,0.26-0.466,0.432-0.466,0.432l-0.393,0.078
							c0,0-0.246-0.081-0.555-0.264c-0.326-0.18-0.674-0.471-1.006-0.856c-0.316-0.39-0.603-0.875-0.593-1.38
							c0.003-0.257,0.086-0.525,0.185-0.795c0.1-0.268,0.185-0.545,0.254-0.805c0.146-0.515,0.272-1.027,0.447-1.507
							c0.155-0.48,0.327-0.923,0.471-1.304c0.297-0.761,0.542-1.267,0.542-1.267L208.567,352.977z"/>
					</g>
					<g>
						<path style="fill:#B182F7;" d="M194.567,364.928c0,0,0.238,0.54,0.524,1.351c0.138,0.405,0.303,0.879,0.451,1.385
							c0.168,0.507,0.286,1.048,0.425,1.588c0.117,0.54,0.456,1.081,0.484,1.588c0.01,0.506-0.221,0.98-0.478,1.385
							c-0.281,0.405-0.589,0.742-0.889,0.98c-0.283,0.236-0.517,0.371-0.517,0.371h-0.4c0,0-0.234-0.135-0.517-0.371
							c-0.3-0.237-0.608-0.574-0.889-0.98c-0.257-0.405-0.488-0.879-0.478-1.385c0.028-0.507,0.367-1.048,0.484-1.588
							c0.139-0.54,0.257-1.081,0.425-1.588c0.148-0.506,0.313-0.979,0.451-1.385c0.286-0.811,0.524-1.351,0.524-1.351H194.567z"/>
					</g>
					<g>
						<path style="fill:#B182F7;" d="M177.815,371.265c0,0,0.299,0.593,0.677,1.49c0.092,0.224,0.192,0.468,0.297,0.725
							c0.116,0.251,0.171,0.551,0.266,0.846c0.184,0.598,0.32,1.251,0.474,1.912c0.109,0.628,0.441,1.261,0.461,1.853
							c0.003,0.599-0.235,1.124-0.498,1.58c-0.287,0.457-0.6,0.84-0.903,1.108c-0.287,0.27-0.523,0.425-0.523,0.425h-0.4
							c0,0-0.232-0.155-0.512-0.429c-0.296-0.274-0.6-0.667-0.875-1.142c-0.251-0.475-0.475-1.035-0.457-1.601
							c0.035-0.571,0.382-1.181,0.506-1.794c0.123-0.58,0.227-1.168,0.382-1.734c0.153-0.556,0.251-1.124,0.341-1.6
							c0.191-0.956,0.366-1.599,0.366-1.599L177.815,371.265z"/>
					</g>
					<g>
						<path style="fill:#B182F7;" d="M208.566,372.038c0,0,0.265,0.495,0.591,1.241c0.159,0.374,0.348,0.809,0.521,1.277
							c0.193,0.467,0.339,0.968,0.504,1.469c0.122,0.513,0.465,1.02,0.497,1.511c0.015,0.49-0.213,0.955-0.467,1.35
							c-0.277,0.395-0.583,0.721-0.881,0.947c-0.281,0.227-0.514,0.354-0.514,0.354h-0.4c0,0-0.235-0.127-0.52-0.347
							c-0.302-0.219-0.612-0.529-0.895-0.897c-0.26-0.369-0.494-0.795-0.487-1.258c0.024-0.464,0.36-0.974,0.473-1.48
							c0.111-0.516,0.202-1.03,0.344-1.517c0.122-0.484,0.263-0.938,0.381-1.327c0.244-0.778,0.455-1.3,0.455-1.3L208.566,372.038z"
							/>
					</g>
					<g>
						<path style="fill:#B182F7;" d="M187.817,382.475c0,0,0.238,0.54,0.524,1.351c0.138,0.405,0.303,0.879,0.451,1.385
							c0.168,0.507,0.286,1.048,0.425,1.588c0.117,0.54,0.456,1.081,0.484,1.588c0.01,0.506-0.221,0.979-0.478,1.385
							c-0.281,0.405-0.589,0.742-0.889,0.979c-0.283,0.236-0.517,0.371-0.517,0.371h-0.4c0,0-0.234-0.135-0.517-0.371
							c-0.3-0.237-0.608-0.574-0.889-0.979c-0.257-0.405-0.488-0.879-0.478-1.385c0.028-0.507,0.367-1.048,0.484-1.588
							c0.139-0.54,0.257-1.081,0.425-1.588c0.148-0.506,0.313-0.98,0.451-1.385c0.286-0.811,0.524-1.351,0.524-1.351H187.817z"/>
					</g>
					<g>
						<path style="fill:#B182F7;" d="M164.067,371.286c0,0,0.238,0.509,0.524,1.271c0.138,0.382,0.303,0.827,0.451,1.304
							c0.168,0.477,0.286,0.985,0.425,1.494c0.117,0.509,0.456,1.018,0.484,1.494c0.01,0.477-0.221,0.922-0.478,1.304
							c-0.281,0.381-0.589,0.699-0.889,0.922c-0.283,0.223-0.517,0.35-0.517,0.35h-0.4c0,0-0.234-0.127-0.517-0.35
							c-0.3-0.223-0.608-0.541-0.889-0.922c-0.257-0.382-0.488-0.827-0.478-1.304c0.028-0.477,0.367-0.985,0.484-1.494
							c0.139-0.509,0.257-1.018,0.425-1.494c0.148-0.477,0.313-0.922,0.451-1.304c0.286-0.763,0.524-1.271,0.524-1.271H164.067z"/>
					</g>
					<g>
						<path style="fill:#B182F7;" d="M147.813,378.619c0,0,0.083,0.125,0.229,0.344c0.14,0.232,0.363,0.505,0.549,0.943
							c0.095,0.219,0.199,0.457,0.308,0.708c0.114,0.26,0.179,0.511,0.276,0.788c0.206,0.554,0.307,1.133,0.447,1.727
							c0.098,0.573,0.422,1.178,0.422,1.699c-0.016,0.535-0.266,0.999-0.54,1.397c-0.302,0.404-0.607,0.722-0.915,0.961
							c-0.288,0.235-0.524,0.375-0.524,0.375h-0.4c0,0-0.231-0.14-0.51-0.393c-0.293-0.25-0.603-0.63-0.861-1.063
							c-0.239-0.438-0.449-0.95-0.414-1.462c0.055-0.523,0.407-1.036,0.542-1.579c0.138-0.528,0.275-1.058,0.404-1.554
							c0.137-0.512,0.246-0.949,0.338-1.354c0.121-0.398,0.122-0.796,0.185-1.047c0.045-0.259,0.071-0.407,0.071-0.407
							L147.813,378.619z"/>
					</g>
					<g>
						<path style="fill:#B182F7;" d="M157.315,390.335c0,0,0.297,0.461,0.671,1.16c0.178,0.355,0.416,0.742,0.573,1.229
							c0.191,0.473,0.334,0.995,0.496,1.524c0.079,0.262,0.18,0.492,0.293,0.735c0.113,0.238,0.209,0.474,0.226,0.703
							c0.015,0.471-0.192,0.877-0.426,1.236c-0.259,0.364-0.549,0.684-0.836,0.92c-0.27,0.234-0.495,0.381-0.495,0.381l-0.398,0.039
							c0,0-0.24-0.101-0.535-0.297c-0.312-0.195-0.639-0.492-0.942-0.868c-0.282-0.38-0.539-0.837-0.532-1.292
							c0.016-0.464,0.348-0.982,0.449-1.464c0.117-0.457,0.216-0.923,0.365-1.374c0.146-0.442,0.231-0.91,0.329-1.291
							c0.192-0.772,0.368-1.291,0.368-1.291L157.315,390.335z"/>
					</g>
					<g>
						<path style="fill:#B182F7;" d="M171.563,391.844c0,0,0.334,0.453,0.767,1.146c0.105,0.175,0.22,0.363,0.341,0.563
							c0.12,0.201,0.19,0.455,0.293,0.703c0.204,0.5,0.371,1.078,0.534,1.642c0.116,0.523,0.455,1.053,0.481,1.553
							c0.011,0.51-0.228,0.934-0.489,1.311c-0.286,0.375-0.598,0.69-0.901,0.912c-0.286,0.222-0.521,0.35-0.521,0.35h-0.4
							c0,0-0.232-0.128-0.512-0.354c-0.297-0.226-0.601-0.55-0.877-0.941c-0.252-0.389-0.475-0.86-0.466-1.31
							c0.029-0.459,0.369-0.953,0.487-1.452c0.115-0.457,0.198-0.899,0.341-1.356c0.061-0.229,0.134-0.442,0.176-0.673
							c0.034-0.231,0.066-0.45,0.096-0.652c0.128-0.81,0.259-1.359,0.259-1.359L171.563,391.844z"/>
					</g>
					<g>
						<path style="fill:#B182F7;" d="M133.065,381.943c0,0,0.301,0.525,0.682,1.321c0.093,0.199,0.193,0.415,0.299,0.644
							c0.104,0.231,0.169,0.498,0.26,0.767c0.183,0.539,0.325,1.144,0.471,1.737c0.109,0.565,0.441,1.135,0.461,1.668
							c0.003,0.54-0.234,1.005-0.497,1.415c-0.287,0.408-0.6,0.751-0.903,0.992c-0.286,0.241-0.522,0.381-0.522,0.381h-0.4
							c0,0-0.232-0.14-0.512-0.386c-0.296-0.246-0.6-0.6-0.875-1.027c-0.251-0.426-0.475-0.936-0.458-1.44
							c0.035-0.512,0.382-1.056,0.506-1.605c0.13-0.521,0.229-1.03,0.386-1.536c0.153-0.492,0.264-1,0.345-1.435
							c0.187-0.864,0.358-1.446,0.358-1.446L133.065,381.943z"/>
					</g>
					<g>
						<path style="fill:#B182F7;" d="M141.815,398.476c0,0,0.298,0.577,0.673,1.45c0.091,0.219,0.19,0.455,0.295,0.706
							c0.117,0.244,0.178,0.531,0.269,0.82c0.184,0.582,0.32,1.218,0.474,1.862c0.073,0.317,0.162,0.616,0.266,0.922
							c0.104,0.303,0.191,0.603,0.199,0.891c0.003,0.584-0.235,1.101-0.499,1.542c-0.287,0.443-0.6,0.815-0.903,1.078
							c-0.287,0.262-0.523,0.413-0.523,0.413h-0.4c0,0-0.231-0.151-0.511-0.418c-0.296-0.268-0.6-0.651-0.874-1.114
							c-0.251-0.466-0.475-1.009-0.458-1.559c0.033-0.554,0.386-1.154,0.503-1.741c0.123-0.564,0.228-1.138,0.383-1.689
							c0.154-0.542,0.243-1.101,0.339-1.563c0.193-0.932,0.369-1.559,0.369-1.559L141.815,398.476z"/>
					</g>
					<g>
						<path style="fill:#B182F7;" d="M119.567,388.325c0,0,0.238,0.572,0.524,1.431c0.138,0.429,0.303,0.93,0.451,1.466
							c0.168,0.536,0.286,1.108,0.425,1.681c0.117,0.572,0.456,1.145,0.484,1.681c0.01,0.536-0.221,1.037-0.478,1.466
							c-0.281,0.43-0.589,0.787-0.889,1.037c-0.283,0.251-0.517,0.393-0.517,0.393h-0.4c0,0-0.234-0.143-0.517-0.393
							c-0.3-0.25-0.608-0.607-0.889-1.037c-0.257-0.429-0.488-0.93-0.478-1.466c0.028-0.536,0.367-1.108,0.484-1.681
							c0.139-0.572,0.257-1.145,0.425-1.681c0.148-0.536,0.313-1.037,0.451-1.466c0.286-0.858,0.524-1.431,0.524-1.431H119.567z"/>
					</g>
					<g>
						<path style="fill:#B182F7;" d="M128.316,402.038c0,0,0.289,0.548,0.653,1.377c0.088,0.207,0.184,0.432,0.286,0.669
							c0.113,0.23,0.155,0.517,0.24,0.795c0.165,0.566,0.278,1.187,0.408,1.819c0.087,0.581,0.397,1.174,0.397,1.717
							c-0.022,0.554-0.265,1.012-0.534,1.418c-0.293,0.405-0.612,0.749-0.92,0.993c-0.291,0.244-0.529,0.388-0.529,0.388h-0.4
							c0,0-0.229-0.143-0.505-0.4c-0.292-0.257-0.589-0.629-0.856-1.083c-0.244-0.453-0.46-0.998-0.419-1.517
							c0.055-0.53,0.423-1.083,0.569-1.647c0.142-0.513,0.267-1.038,0.443-1.547c0.075-0.259,0.172-0.495,0.221-0.754
							c0.056-0.253,0.109-0.492,0.158-0.713c0.205-0.883,0.39-1.477,0.39-1.477L128.316,402.038z"/>
					</g>
					<g>
						<path style="fill:#B182F7;" d="M107.566,399.778c0,0,0.208,0.554,0.449,1.38c0.058,0.207,0.12,0.431,0.187,0.668
							c0.07,0.235,0.096,0.498,0.149,0.766c0.106,0.539,0.158,1.117,0.228,1.704c0.054,0.543,0.329,1.106,0.298,1.6
							c-0.017,0.243-0.111,0.484-0.216,0.687c-0.097,0.205-0.223,0.398-0.367,0.578c-0.301,0.359-0.627,0.672-0.94,0.897
							c-0.296,0.225-0.537,0.36-0.537,0.36h-0.4c0,0-0.227-0.135-0.496-0.385c-0.287-0.25-0.576-0.615-0.832-1.068
							c-0.235-0.453-0.437-1.001-0.355-1.507c0.088-0.518,0.491-1.032,0.672-1.567c0.197-0.491,0.376-0.991,0.601-1.463
							c0.217-0.466,0.405-0.938,0.563-1.338c0.33-0.8,0.598-1.33,0.598-1.33L107.566,399.778z"/>
					</g>
					<g>
						<path style="fill:#B182F7;" d="M118.567,410.96c0,0,0.238,0.668,0.524,1.669c0.138,0.501,0.303,1.085,0.451,1.711
							c0.168,0.626,0.286,1.293,0.425,1.961c0.117,0.668,0.456,1.335,0.484,1.961c0.01,0.626-0.221,1.21-0.478,1.711
							c-0.281,0.501-0.589,0.918-0.889,1.21c-0.283,0.292-0.517,0.459-0.517,0.459h-0.4c0,0-0.234-0.167-0.517-0.459
							c-0.3-0.292-0.608-0.709-0.889-1.21c-0.257-0.501-0.488-1.085-0.478-1.711c0.028-0.626,0.367-1.293,0.484-1.961
							c0.139-0.668,0.257-1.335,0.425-1.961c0.148-0.626,0.313-1.21,0.451-1.711c0.286-1.001,0.524-1.669,0.524-1.669H118.567z"/>
					</g>
					<g>
						<path style="fill:#B182F7;" d="M107.317,425.963c0,0,0.238,0.54,0.524,1.351c0.138,0.405,0.303,0.879,0.451,1.385
							c0.168,0.507,0.286,1.048,0.425,1.588c0.117,0.54,0.456,1.081,0.484,1.588c0.01,0.506-0.221,0.979-0.478,1.385
							c-0.281,0.405-0.589,0.742-0.889,0.979c-0.283,0.236-0.517,0.371-0.517,0.371h-0.4c0,0-0.234-0.135-0.517-0.371
							c-0.3-0.237-0.608-0.574-0.889-0.979c-0.257-0.405-0.488-0.879-0.478-1.385c0.028-0.507,0.367-1.048,0.484-1.588
							c0.139-0.54,0.257-1.081,0.425-1.588c0.148-0.506,0.313-0.979,0.451-1.385c0.286-0.811,0.524-1.351,0.524-1.351H107.317z"/>
					</g>
					<g>
						<path style="fill:#B182F7;" d="M130.566,425.953c0,0,0.265,0.526,0.591,1.321c0.159,0.397,0.348,0.86,0.521,1.358
							c0.193,0.497,0.338,1.031,0.504,1.564c0.122,0.544,0.465,1.084,0.497,1.603c0.015,0.521-0.213,1.013-0.467,1.431
							c-0.277,0.419-0.583,0.765-0.881,1.005c-0.281,0.24-0.514,0.375-0.514,0.375h-0.4c0,0-0.235-0.135-0.52-0.368
							c-0.302-0.233-0.612-0.564-0.895-0.956c-0.26-0.393-0.494-0.847-0.487-1.341c0.025-0.493,0.361-1.035,0.474-1.572
							c0.111-0.548,0.202-1.095,0.344-1.61c0.122-0.515,0.263-0.996,0.381-1.408c0.244-0.826,0.455-1.38,0.455-1.38L130.566,425.953
							z"/>
					</g>
					<g>
						<path style="fill:#B182F7;" d="M119.317,440.46c0,0,0.238,0.493,0.524,1.232c0.138,0.369,0.303,0.801,0.451,1.263
							c0.168,0.462,0.286,0.954,0.425,1.447c0.117,0.493,0.456,0.985,0.484,1.447c0.01,0.462-0.221,0.894-0.478,1.263
							c-0.281,0.37-0.589,0.678-0.889,0.894c-0.283,0.216-0.517,0.339-0.517,0.339h-0.4c0,0-0.234-0.123-0.517-0.339
							c-0.3-0.216-0.608-0.523-0.889-0.894c-0.257-0.369-0.488-0.801-0.478-1.263c0.028-0.462,0.367-0.954,0.484-1.447
							c0.139-0.493,0.257-0.985,0.425-1.447c0.148-0.462,0.313-0.893,0.451-1.263c0.286-0.739,0.524-1.232,0.524-1.232H119.317z"/>
					</g>
					<g>
						<path style="fill:#B182F7;" d="M105.317,452.667c0,0,0.238,0.557,0.524,1.391c0.138,0.417,0.303,0.904,0.451,1.426
							c0.168,0.521,0.286,1.077,0.425,1.634c0.117,0.557,0.456,1.112,0.484,1.634c0.01,0.522-0.221,1.009-0.478,1.426
							c-0.281,0.417-0.589,0.765-0.889,1.008c-0.283,0.244-0.517,0.383-0.517,0.383h-0.4c0,0-0.234-0.139-0.517-0.383
							c-0.3-0.243-0.608-0.591-0.889-1.008c-0.257-0.417-0.488-0.904-0.478-1.426c0.028-0.521,0.367-1.077,0.484-1.634
							c0.139-0.557,0.257-1.112,0.425-1.634c0.148-0.521,0.313-1.009,0.451-1.426c0.286-0.834,0.524-1.391,0.524-1.391H105.317z"/>
					</g>
					<g>
						<path style="fill:#B182F7;" d="M134.066,452.679c0,0,0.21,0.49,0.455,1.223c0.118,0.366,0.259,0.793,0.38,1.249
							c0.142,0.456,0.233,0.94,0.344,1.425c0.113,0.474,0.449,0.952,0.474,1.385c0.007,0.433-0.227,0.829-0.487,1.173
							c-0.283,0.343-0.594,0.633-0.895,0.838c-0.285,0.205-0.52,0.324-0.52,0.324h-0.4c0,0-0.233-0.119-0.514-0.332
							c-0.298-0.213-0.604-0.52-0.881-0.892c-0.254-0.372-0.481-0.811-0.467-1.273c0.032-0.462,0.376-0.938,0.497-1.419
							c0.165-0.468,0.311-0.936,0.504-1.373c0.173-0.438,0.362-0.845,0.521-1.193c0.327-0.697,0.591-1.159,0.591-1.159
							L134.066,452.679z"/>
					</g>
					<g>
						<path style="fill:#B182F7;" d="M151.315,424.417c0,0,0.307,0.623,0.697,1.567c0.095,0.236,0.198,0.492,0.307,0.763
							c0.118,0.266,0.177,0.58,0.274,0.891c0.191,0.628,0.333,1.314,0.495,2.009c0.07,0.345,0.148,0.685,0.246,1.026
							c0.096,0.34,0.175,0.679,0.175,1.003c0.003,0.646-0.282,1.241-0.608,1.732c-0.338,0.487-0.693,0.869-1.023,1.116
							c-0.314,0.251-0.564,0.375-0.564,0.375l-0.395-0.065c0,0-0.212-0.2-0.461-0.518c-0.265-0.32-0.526-0.751-0.753-1.238
							c-0.107-0.243-0.193-0.499-0.249-0.765c-0.08-0.271-0.13-0.555-0.11-0.843c0.045-0.574,0.416-1.188,0.543-1.811
							c0.116-0.612,0.213-1.233,0.362-1.83c0.147-0.588,0.24-1.184,0.323-1.686c0.179-1.007,0.345-1.684,0.345-1.684
							L151.315,424.417z"/>
					</g>
					<g>
						<path style="fill:#B182F7;" d="M168.816,415.008c0,0,0.3,0.659,0.679,1.654c0.092,0.249,0.192,0.519,0.298,0.804
							c0.113,0.282,0.17,0.607,0.264,0.932c0.184,0.656,0.319,1.37,0.473,2.092c0.109,0.69,0.44,1.385,0.461,2.036
							c0.002,0.656-0.235,1.24-0.498,1.744c-0.287,0.505-0.6,0.928-0.903,1.225c-0.287,0.298-0.523,0.469-0.523,0.469h-0.4
							c0,0-0.232-0.171-0.512-0.473c-0.296-0.302-0.6-0.733-0.874-1.255c-0.251-0.522-0.475-1.136-0.458-1.762
							c0.035-0.633,0.382-1.307,0.506-1.984c0.123-0.647,0.227-1.301,0.382-1.928c0.152-0.618,0.254-1.238,0.342-1.762
							c0.19-1.05,0.364-1.753,0.364-1.753L168.816,415.008z"/>
					</g>
					<g>
						<path style="fill:#B182F7;" d="M188.567,413.503c0,0,0.238,0.684,0.524,1.709c0.138,0.513,0.303,1.11,0.451,1.751
							c0.168,0.641,0.286,1.324,0.425,2.008c0.117,0.684,0.456,1.367,0.484,2.008c0.01,0.641-0.221,1.238-0.478,1.751
							c-0.281,0.513-0.589,0.94-0.889,1.239c-0.283,0.299-0.517,0.47-0.517,0.47h-0.4c0,0-0.234-0.171-0.517-0.47
							c-0.3-0.299-0.608-0.727-0.889-1.239c-0.257-0.513-0.488-1.11-0.478-1.751c0.028-0.641,0.367-1.324,0.484-2.008
							c0.139-0.684,0.257-1.367,0.425-2.008c0.148-0.641,0.313-1.238,0.451-1.751c0.286-1.025,0.524-1.709,0.524-1.709H188.567z"/>
					</g>
					<g>
						<path style="fill:#B182F7;" d="M205.066,407.124c0,0,0.301,0.675,0.682,1.694c0.093,0.255,0.193,0.53,0.299,0.823
							c0.106,0.293,0.169,0.622,0.26,0.956c0.183,0.67,0.322,1.406,0.471,2.137c0.109,0.706,0.44,1.417,0.461,2.082
							c0.002,0.671-0.235,1.266-0.498,1.784c-0.287,0.518-0.6,0.951-0.903,1.255c-0.286,0.305-0.522,0.479-0.522,0.479h-0.4
							c0,0-0.232-0.175-0.512-0.483c-0.296-0.309-0.6-0.75-0.875-1.283c-0.251-0.531-0.475-1.162-0.458-1.804
							c0.035-0.648,0.382-1.338,0.506-2.032c0.129-0.67,0.229-1.334,0.384-1.977c0.152-0.633,0.261-1.263,0.344-1.8
							c0.189-1.073,0.361-1.793,0.361-1.793L205.066,407.124z"/>
					</g>
					<g>
						<path style="fill:#B182F7;" d="M220.565,410.425c0.001,0,0.338,0.727,0.751,1.847c0.2,0.564,0.44,1.226,0.641,1.946
							c0.102,0.361,0.231,0.73,0.305,1.118c0.085,0.388,0.172,0.781,0.259,1.175c0.086,0.396,0.177,0.801,0.288,1.2
							c0.113,0.398,0.204,0.796,0.188,1.191c-0.014,0.777-0.307,1.503-0.66,2.098c-0.178,0.295-0.349,0.551-0.564,0.776
							c-0.21,0.222-0.407,0.403-0.59,0.541c-0.356,0.278-0.624,0.396-0.624,0.396l-0.383-0.115c0,0-0.18-0.256-0.384-0.632
							c-0.106-0.188-0.211-0.405-0.314-0.639c-0.085-0.226-0.226-0.5-0.321-0.774c-0.102-0.277-0.177-0.564-0.23-0.862
							c-0.081-0.31-0.12-0.63-0.094-0.957c0.071-0.647,0.38-1.382,0.49-2.118c0.202-1.518,0.404-3.038,0.556-4.178
							c0.158-1.169,0.291-1.965,0.291-1.965L220.565,410.425z"/>
					</g>
					<g>
						<path style="fill:#B182F7;" d="M231.567,420.116c0,0,0.23,0.733,0.504,1.834c0.133,0.55,0.291,1.192,0.432,1.876
							c0.161,0.685,0.271,1.415,0.402,2.144c0.132,0.714,0.487,1.416,0.528,2.076c0.021,0.329-0.045,0.659-0.109,0.958
							c-0.061,0.301-0.151,0.589-0.262,0.86c-0.235,0.544-0.504,1.018-0.775,1.365c-0.254,0.345-0.471,0.558-0.471,0.558
							l-0.396,0.053c0,0-0.248-0.152-0.557-0.444c-0.326-0.291-0.674-0.729-1.003-1.279c-0.158-0.275-0.3-0.579-0.414-0.905
							c-0.128-0.327-0.172-0.662-0.177-1.019c0.012-0.712,0.335-1.474,0.436-2.223c0.146-0.735,0.273-1.47,0.448-2.157
							c0.155-0.688,0.327-1.326,0.471-1.874c0.298-1.096,0.543-1.826,0.543-1.826L231.567,420.116z"/>
					</g>
					<g>
						<path style="fill:#B182F7;" d="M211.067,426.981c0,0,0.238,0.509,0.523,1.272c0.139,0.382,0.304,0.827,0.452,1.304
							c0.168,0.477,0.286,0.985,0.425,1.494c0.117,0.509,0.456,1.018,0.484,1.494c0.01,0.477-0.221,0.922-0.478,1.304
							c-0.281,0.381-0.589,0.699-0.889,0.922c-0.283,0.223-0.517,0.35-0.517,0.35h-0.4c0,0-0.234-0.127-0.517-0.35
							c-0.3-0.223-0.608-0.541-0.889-0.922c-0.257-0.382-0.488-0.827-0.478-1.304c0.028-0.477,0.367-0.985,0.484-1.494
							c0.139-0.509,0.257-1.018,0.425-1.494c0.148-0.477,0.313-0.922,0.452-1.304c0.286-0.763,0.523-1.272,0.523-1.272H211.067z"/>
					</g>
					<g>
						<path style="fill:#B182F7;" d="M222.315,439.931c0,0,0.299,0.593,0.677,1.49c0.092,0.224,0.191,0.467,0.297,0.725
							c0.116,0.251,0.171,0.551,0.266,0.846c0.184,0.598,0.32,1.251,0.474,1.912c0.109,0.628,0.441,1.261,0.461,1.853
							c0.003,0.599-0.235,1.124-0.498,1.58c-0.287,0.457-0.6,0.84-0.903,1.108c-0.287,0.27-0.522,0.425-0.522,0.425h-0.4
							c0,0-0.232-0.155-0.512-0.429c-0.296-0.274-0.6-0.667-0.875-1.142c-0.251-0.475-0.475-1.035-0.457-1.6
							c0.035-0.571,0.382-1.181,0.506-1.794c0.123-0.58,0.227-1.168,0.382-1.734c0.153-0.556,0.251-1.124,0.341-1.6
							c0.191-0.956,0.366-1.599,0.366-1.599L222.315,439.931z"/>
					</g>
					<g>
						<path style="fill:#B182F7;" d="M233.316,452.395c0,0,0.3,0.708,0.679,1.776c0.093,0.268,0.192,0.557,0.298,0.863
							c0.113,0.303,0.17,0.648,0.263,0.996c0.184,0.699,0.319,1.459,0.473,2.226c0.109,0.738,0.44,1.479,0.461,2.175
							c0.002,0.7-0.235,1.326-0.498,1.867c-0.287,0.541-0.6,0.994-0.903,1.313c-0.287,0.318-0.522,0.501-0.522,0.501h-0.4
							c0,0-0.232-0.183-0.512-0.505c-0.296-0.322-0.6-0.784-0.874-1.341c-0.251-0.557-0.475-1.212-0.458-1.884
							c0.035-0.678,0.382-1.399,0.506-2.125c0.123-0.697,0.227-1.401,0.382-2.073c0.152-0.665,0.253-1.325,0.342-1.884
							c0.19-1.119,0.365-1.87,0.365-1.87L233.316,452.395z"/>
					</g>
					<g>
						<path style="fill:#B182F7;" d="M196.066,433.075c0,0,0.265,0.593,0.59,1.484c0.159,0.446,0.347,0.967,0.52,1.526
							c0.193,0.558,0.338,1.156,0.503,1.753c0.078,0.301,0.174,0.605,0.284,0.904c0.109,0.298,0.203,0.594,0.216,0.883
							c0.015,0.578-0.213,1.124-0.467,1.588c-0.278,0.465-0.583,0.85-0.881,1.117c-0.281,0.267-0.514,0.418-0.514,0.418h-0.4
							c0,0-0.235-0.151-0.52-0.412c-0.302-0.262-0.612-0.633-0.896-1.074c-0.26-0.442-0.494-0.954-0.487-1.509
							c0.023-0.556,0.364-1.159,0.469-1.764c0.111-0.61,0.203-1.22,0.346-1.793c0.122-0.573,0.264-1.109,0.382-1.568
							c0.246-0.92,0.456-1.534,0.456-1.534L196.066,433.075z"/>
					</g>
					<g>
						<path style="fill:#B182F7;" d="M209.565,451.626c0,0,0.299,0.56,0.678,1.406c0.092,0.212,0.192,0.442,0.298,0.685
							c0.113,0.239,0.171,0.523,0.264,0.805c0.184,0.569,0.32,1.192,0.474,1.824c0.11,0.598,0.441,1.198,0.462,1.761
							c0.002,0.569-0.235,1.068-0.498,1.5c-0.287,0.432-0.6,0.795-0.903,1.05c-0.287,0.255-0.522,0.402-0.522,0.402h-0.4
							c0,0-0.232-0.148-0.512-0.407c-0.296-0.261-0.599-0.634-0.874-1.085c-0.251-0.452-0.475-0.984-0.458-1.52
							c0.035-0.541,0.382-1.119,0.506-1.699c0.123-0.546,0.228-1.101,0.383-1.636c0.153-0.525,0.254-1.064,0.342-1.52
							c0.19-0.91,0.364-1.522,0.364-1.522L209.565,451.626z"/>
					</g>
					<g>
						<path style="fill:#B182F7;" d="M221.565,467.138c-0.001,0,0.299,0.51,0.677,1.281c0.092,0.193,0.192,0.403,0.297,0.625
							c0.113,0.217,0.171,0.481,0.264,0.74c0.185,0.526,0.321,1.104,0.475,1.693c0.11,0.55,0.441,1.104,0.462,1.623
							c0.002,0.526-0.235,0.981-0.498,1.377c-0.287,0.396-0.6,0.728-0.903,0.962c-0.287,0.233-0.522,0.369-0.522,0.369h-0.4
							c0,0-0.232-0.135-0.512-0.375c-0.296-0.239-0.599-0.584-0.874-1c-0.251-0.418-0.475-0.909-0.458-1.398
							c0.034-0.495,0.382-1.024,0.506-1.557c0.123-0.494,0.228-0.998,0.384-1.486c0.154-0.479,0.254-0.979,0.342-1.398
							c0.189-0.841,0.363-1.407,0.363-1.407L221.565,467.138z"/>
					</g>
					<g>
						<path style="fill:#B182F7;" d="M178.567,428.253c0,0,0.238,0.668,0.524,1.669c0.138,0.501,0.303,1.085,0.451,1.711
							c0.168,0.626,0.286,1.293,0.425,1.961c0.117,0.668,0.456,1.335,0.484,1.961c0.01,0.626-0.221,1.21-0.478,1.711
							c-0.281,0.501-0.589,0.918-0.889,1.21c-0.283,0.292-0.517,0.459-0.517,0.459h-0.4c0,0-0.234-0.167-0.517-0.459
							c-0.3-0.292-0.608-0.709-0.889-1.21c-0.257-0.501-0.488-1.085-0.478-1.711c0.028-0.626,0.367-1.293,0.484-1.961
							c0.139-0.668,0.257-1.335,0.425-1.961c0.148-0.626,0.313-1.21,0.451-1.711c0.286-1.001,0.524-1.669,0.524-1.669H178.567z"/>
					</g>
					<g>
						<path style="fill:#B182F7;" d="M161.065,438.656c0,0,0.296,0.461,0.669,1.161c0.176,0.357,0.417,0.738,0.566,1.234
							c0.185,0.48,0.321,1.011,0.476,1.553c0.074,0.268,0.162,0.508,0.267,0.762c0.104,0.249,0.191,0.496,0.198,0.733
							c0.002,0.484-0.235,0.9-0.498,1.255c-0.287,0.358-0.6,0.66-0.903,0.873c-0.287,0.213-0.523,0.336-0.523,0.336h-0.4
							c0,0-0.231-0.123-0.511-0.343c-0.296-0.219-0.6-0.534-0.874-0.917c-0.251-0.385-0.475-0.833-0.458-1.274
							c0.033-0.446,0.387-0.937,0.502-1.405c0.123-0.445,0.228-0.901,0.384-1.346c0.155-0.433,0.237-0.904,0.337-1.283
							c0.194-0.771,0.371-1.29,0.371-1.29L161.065,438.656z"/>
					</g>
					<g>
						<path style="fill:#B182F7;" d="M144.315,439.675c0,0,0.297,0.527,0.672,1.326c0.091,0.2,0.19,0.417,0.295,0.646
							c0.116,0.223,0.179,0.489,0.27,0.757c0.184,0.538,0.32,1.129,0.474,1.729c0.073,0.295,0.162,0.569,0.266,0.853
							c0.104,0.279,0.191,0.556,0.199,0.823c0.003,0.54-0.235,1.015-0.499,1.419c-0.287,0.407-0.6,0.749-0.903,0.99
							c-0.287,0.24-0.523,0.38-0.523,0.38h-0.4c0,0-0.231-0.14-0.511-0.386c-0.296-0.247-0.6-0.601-0.874-1.029
							c-0.251-0.432-0.475-0.933-0.457-1.436c0.033-0.508,0.386-1.062,0.502-1.598c0.123-0.514,0.229-1.037,0.384-1.543
							c0.154-0.495,0.243-1.016,0.339-1.442c0.193-0.863,0.369-1.443,0.369-1.443L144.315,439.675z"/>
					</g>
					<g>
						<path style="fill:#B182F7;" d="M121.067,461.313c0,0,0.238,0.572,0.524,1.431c0.138,0.429,0.303,0.93,0.451,1.467
							c0.168,0.536,0.286,1.108,0.425,1.681c0.117,0.572,0.456,1.145,0.484,1.681c0.01,0.537-0.221,1.038-0.478,1.467
							c-0.281,0.429-0.589,0.787-0.889,1.037c-0.283,0.251-0.517,0.394-0.517,0.394h-0.4c0,0-0.234-0.143-0.517-0.394
							c-0.3-0.25-0.608-0.608-0.889-1.037c-0.257-0.429-0.488-0.93-0.478-1.467c0.028-0.536,0.367-1.108,0.484-1.681
							c0.139-0.572,0.257-1.145,0.425-1.681c0.148-0.537,0.313-1.038,0.451-1.467c0.286-0.858,0.524-1.431,0.524-1.431H121.067z"/>
					</g>
					<g>
						<path style="fill:#B182F7;" d="M170.815,450.609c0,0,0.299,0.543,0.676,1.366c0.092,0.206,0.191,0.429,0.297,0.665
							c0.116,0.229,0.172,0.509,0.266,0.782c0.185,0.555,0.321,1.162,0.475,1.779c0.109,0.582,0.441,1.167,0.461,1.716
							c0.002,0.556-0.235,1.038-0.498,1.458c-0.287,0.42-0.6,0.773-0.903,1.021c-0.287,0.248-0.523,0.392-0.523,0.392h-0.4
							c0,0-0.232-0.143-0.512-0.396c-0.296-0.254-0.6-0.617-0.875-1.057c-0.251-0.44-0.475-0.96-0.457-1.479
							c0.035-0.526,0.382-1.087,0.506-1.652c0.123-0.528,0.228-1.066,0.383-1.586c0.153-0.51,0.25-1.038,0.341-1.48
							c0.191-0.886,0.365-1.482,0.365-1.482L170.815,450.609z"/>
					</g>
					<g>
						<path style="fill:#B182F7;" d="M156.066,461.809c0,0,0.279,0.619,0.628,1.552c0.084,0.233,0.176,0.486,0.273,0.754
							c0.114,0.259,0.143,0.575,0.218,0.887c0.143,0.632,0.233,1.324,0.339,2.029c0.065,0.643,0.352,1.303,0.331,1.898
							c-0.049,0.608-0.29,1.102-0.567,1.548c-0.3,0.442-0.625,0.82-0.936,1.089c-0.295,0.27-0.535,0.429-0.535,0.429h-0.4
							c0,0-0.227-0.159-0.498-0.446c-0.288-0.288-0.579-0.705-0.838-1.218c-0.123-0.256-0.227-0.534-0.301-0.828
							c-0.087-0.304-0.11-0.581-0.079-0.883c0.076-0.594,0.466-1.204,0.634-1.83c0.162-0.568,0.308-1.148,0.503-1.71
							c0.085-0.284,0.194-0.546,0.242-0.833c0.061-0.278,0.118-0.541,0.171-0.784c0.222-0.974,0.417-1.626,0.417-1.626
							L156.066,461.809z"/>
					</g>
					<g>
						<path style="fill:#B182F7;" d="M138.565,468.154c0,0,0.298,0.441,0.674,1.114c0.092,0.169,0.191,0.352,0.296,0.544
							c0.116,0.186,0.172,0.426,0.267,0.655c0.186,0.468,0.322,0.987,0.477,1.518c0.11,0.489,0.441,0.98,0.461,1.442
							c0.002,0.47-0.235,0.865-0.498,1.212c-0.287,0.347-0.6,0.639-0.903,0.845c-0.287,0.206-0.523,0.325-0.523,0.325h-0.4
							c0,0-0.232-0.119-0.512-0.332c-0.296-0.212-0.6-0.518-0.874-0.888c-0.251-0.37-0.475-0.811-0.458-1.237
							c0.035-0.434,0.382-0.898,0.506-1.365c0.123-0.424,0.228-0.86,0.384-1.287c0.067-0.218,0.151-0.414,0.195-0.635
							c0.052-0.214,0.101-0.417,0.146-0.604c0.19-0.749,0.364-1.255,0.364-1.255L138.565,468.154z"/>
					</g>
					<g>
						<path style="fill:#B182F7;" d="M109.567,471.487c0,0,0.238,0.382,0.524,0.954c0.138,0.286,0.303,0.619,0.451,0.978
							c0.168,0.357,0.286,0.738,0.425,1.12c0.117,0.382,0.456,0.763,0.484,1.12c0.01,0.358-0.221,0.691-0.478,0.978
							c-0.281,0.286-0.589,0.525-0.889,0.691c-0.283,0.167-0.517,0.263-0.517,0.263h-0.4c0,0-0.234-0.096-0.517-0.263
							c-0.3-0.166-0.608-0.405-0.889-0.691c-0.257-0.286-0.488-0.619-0.478-0.978c0.028-0.357,0.367-0.738,0.484-1.12
							c0.139-0.382,0.257-0.763,0.425-1.12c0.148-0.358,0.313-0.691,0.451-0.978c0.286-0.572,0.524-0.954,0.524-0.954H109.567z"/>
					</g>
					<g>
						<path style="fill:#B182F7;" d="M186.817,449.616c0,0,0.238,0.54,0.524,1.351c0.138,0.405,0.303,0.879,0.451,1.385
							c0.168,0.507,0.286,1.048,0.425,1.588c0.117,0.54,0.456,1.081,0.484,1.588c0.01,0.506-0.221,0.98-0.478,1.385
							c-0.281,0.405-0.589,0.742-0.889,0.98c-0.283,0.236-0.517,0.371-0.517,0.371h-0.4c0,0-0.234-0.135-0.517-0.371
							c-0.3-0.237-0.608-0.574-0.889-0.98c-0.257-0.405-0.488-0.879-0.478-1.385c0.028-0.507,0.367-1.048,0.484-1.588
							c0.139-0.54,0.257-1.081,0.425-1.588c0.148-0.506,0.313-0.979,0.451-1.385c0.286-0.811,0.524-1.351,0.524-1.351H186.817z"/>
					</g>
					<g>
						<path style="fill:#B182F7;" d="M171.315,467.392c-0.001,0,0.298,0.493,0.675,1.241c0.092,0.188,0.191,0.39,0.296,0.604
							c0.116,0.208,0.172,0.467,0.267,0.719c0.185,0.511,0.321,1.074,0.475,1.647c0.11,0.535,0.441,1.074,0.461,1.579
							c0.002,0.512-0.235,0.951-0.498,1.335c-0.287,0.383-0.6,0.705-0.903,0.933c-0.287,0.227-0.523,0.358-0.523,0.358h-0.4
							c0,0-0.232-0.131-0.512-0.364c-0.296-0.232-0.6-0.567-0.875-0.972c-0.25-0.405-0.475-0.886-0.457-1.358
							c0.035-0.48,0.382-0.993,0.506-1.509c0.123-0.478,0.228-0.965,0.383-1.438c0.067-0.24,0.15-0.46,0.195-0.699
							c0.052-0.234,0.101-0.455,0.146-0.659c0.191-0.817,0.365-1.368,0.364-1.368L171.315,467.392z"/>
					</g>
					<g>
						<path style="fill:#B182F7;" d="M196.566,466.896c0,0,0.265,0.462,0.591,1.159c0.159,0.349,0.347,0.756,0.521,1.193
							c0.193,0.436,0.338,0.905,0.504,1.373c0.122,0.481,0.465,0.957,0.497,1.419c0.014,0.463-0.213,0.901-0.467,1.273
							c-0.277,0.372-0.583,0.679-0.881,0.892c-0.281,0.213-0.514,0.332-0.514,0.332h-0.4c0,0-0.235-0.119-0.52-0.324
							c-0.302-0.205-0.612-0.495-0.895-0.838c-0.26-0.344-0.494-0.74-0.487-1.173c0.024-0.433,0.361-0.911,0.474-1.385
							c0.111-0.484,0.202-0.969,0.344-1.425c0.122-0.456,0.263-0.883,0.38-1.249c0.245-0.733,0.455-1.223,0.455-1.223
							L196.566,466.896z"/>
					</g>
				</g>
			</g>
			<g>
				<g>
					<g>
						<g>
							<path style="fill:#EEBDA5;" d="M146.871,359.055c6.392-4.217,9.275-10.506,13.717-17.658
								c5.962-9.611,6.032,2.191,3.681,7.408c9.547-5.541,20.81-14.244,24.036-12.27c4.83,2.957-8.554,10.867-13.611,13.59
								c2.767-0.91,18.681-7.797,20.202-4.572c1.208,2.557-12.324,9.416-14.934,10.65c4.38-0.873,16.428-4.535,16.813-0.754
								c0.65,2.643-11.384,6.789-16.76,8.932c2.764-0.908,14.336-3.305,14.504,0.916c0.087,2.123-10.2,4.359-12.642,5.109
								c-8.931,2.223-19.479,4.873-28.512,4.352"/>
						</g>
						<g>
							<path style="fill:#EEBDA5;" d="M121.208,388.971c13.368-1.641,27.478-7.81,39.515-15.695
								c-1.503-7.168-3.737-11.559-5.365-18.705c-11.134,1.246-22.462,3.924-29.655,5.051
								C120.116,368.782,120.884,378.221,121.208,388.971z"/>
						</g>
					</g>
					<g>
						<path style="fill:#B182F7;" d="M129.432,358.045c-6.779,1.031-11.316,1.807-11.316,1.807s31.229-53.711,11.45-60.861
							c-26.273-9.234-58.153,64.832-35.29,83.893c11.219,9.352,25.457,8.9,39.55,4.096
							C130.821,377.43,128.986,368.028,129.432,358.045z"/>
					</g>
				</g>
				<g>
					<g>
						<g>
							<path style="fill:#EEBDA5;" d="M207.456,378.973c-12.996,5.049-24.674,9.959-39.502,18.527
								c0.235,9.004,1.25,10.029,4.434,18.213c19.423-0.418,35.854-1.59,50.354-5.879
								C222.16,397.503,216.439,386.756,207.456,378.973z"/>
						</g>
						<g>
							<path style="fill:#EEBDA5;" d="M171.436,397.319c-7.641,0.51-13.74-2.754-21.605-5.762
								c-10.562-4.043-3.477,5.395,1.551,8.127c-10.953,1.365-25.187,1.248-26.561,4.771c-2.056,5.277,13.387,3.479,19.059,2.586
								c-2.752,0.949-19.589,5.094-18.851,8.584c0.586,2.766,15.51,0.041,18.334-0.557c-4.015,1.955-15.824,6.328-13.842,9.572
								c1.08,2.496,13.17-1.48,18.747-3.027c-2.749,0.947-13.413,6.043-10.994,9.504c1.215,1.742,10.758-2.701,13.157-3.58
								c8.456-3.633,18.459-7.906,25.335-13.787"/>
						</g>
					</g>
					<g>
						<path style="fill:#B182F7;" d="M247.07,333.124c-7.835-25.463-10.689-41.896-32.82-35.893
							c-24.852,12.008,5.291,76.408,5.291,76.408c-6.221,2.059-11.927,4.186-17.502,6.522c7.152,9.539,12.236,21.066,11.919,32.762
							c12.574-2.33,23.704-6.859,33.972-16.023C261,385.233,254.157,356.754,247.07,333.124z"/>
					</g>
				</g>
			</g>
			<g>
				<g>
					<g>
						<g>
							<path style="fill:#EEBDA5;" d="M124.742,194.823c1.066,64.475-8.065,87.822,44.356,85.336
								c44.357-1.656,41.96-17.293,37.099-87.821"/>
						</g>
						<path style="fill:#EEBDA5;" d="M154.676,271.645c0,8.5,0,17,0,25.5c0,9.268,7.733,17,17,17s17-7.732,17-17c0-8.5,0-17,0-25.5
							c0-9.266-7.733-17-17-17S154.676,262.379,154.676,271.645L154.676,271.645z"/>
					</g>
					<g>
						<path style="fill:#B3847C;" d="M156.048,279.628c0,0,0.397,0.054,1.081,0.179c0.34,0.078,0.76,0.102,1.223,0.183
							c0.459,0.08,0.999,0.116,1.571,0.194c0.572,0.08,1.205,0.094,1.858,0.176c0.659,0.038,1.354,0.077,2.072,0.119
							c0.718,0.043,1.46,0.042,2.213,0.06c0.753,0.036,1.519-0.003,2.282-0.009c0.764-0.026,1.53-0.021,2.279-0.087
							c0.751-0.048,1.49-0.087,2.204-0.154c0.714-0.077,1.404-0.152,2.059-0.223c0.645-0.114,1.276-0.161,1.84-0.277
							c0.567-0.107,1.098-0.182,1.556-0.294c0.458-0.109,0.878-0.167,1.204-0.269c0.663-0.174,1.061-0.26,1.061-0.26
							s-0.318,0.235-0.905,0.625c-0.29,0.205-0.666,0.399-1.102,0.624c-0.432,0.241-0.939,0.458-1.501,0.678
							c-0.557,0.247-1.182,0.428-1.845,0.634c-0.666,0.183-1.373,0.375-2.116,0.505c-0.743,0.124-1.51,0.284-2.3,0.336
							c-0.787,0.092-1.59,0.115-2.393,0.161c-0.803-0.018-1.607-0.002-2.395-0.063c-0.791-0.027-1.563-0.141-2.308-0.239
							c-0.748-0.084-1.46-0.262-2.133-0.397c-0.671-0.171-1.303-0.322-1.873-0.528c-0.573-0.19-1.091-0.37-1.542-0.581
							c-0.451-0.196-0.845-0.364-1.142-0.541C156.389,279.838,156.048,279.628,156.048,279.628z"/>
					</g>
					<g>
						<g>
							<g>
								<g>
									<path style="fill:#232B49;" d="M144.791,224.416c-4.143,0.073-7.816,1.456-10.817,4.34
										c-1.165,1.119,0.605,2.884,1.768,1.768c2.527-2.428,5.565-3.546,9.05-3.607
										C146.402,226.887,146.405,224.387,144.791,224.416L144.791,224.416z"/>
								</g>
							</g>
							<g>
								<g>
									<path style="fill:#232B49;" d="M177.904,226.916c3.708,0.063,6.664,1.412,9.05,4.27c1.034,1.239,2.793-0.54,1.768-1.768
										c-2.792-3.343-6.495-4.929-10.817-5.002C176.291,224.388,176.294,226.888,177.904,226.916L177.904,226.916z"/>
								</g>
							</g>
						</g>
						<g style="opacity:0.26;">
							<path style="fill:#F3418A;" d="M166.32,241.892c-4.636,0-25.49-2.986-24.166,6.285c0.663,5.298,17.543,2.987,22.179,2.987
								c3.312-0.663,17.832,1.904,18.868-1.987C185.523,240.447,170.293,241.892,166.32,241.892"/>
						</g>
						<g>
							<g>
								<g>
									<path style="fill:#232B49;" d="M139.278,234.721c0.05,3.994,2.761,7.185,6.924,6.957c3.928-0.215,6.247-3.551,5.646-7.29
										c-0.255-1.588-2.664-0.912-2.411,0.665c0.377,2.345-1.252,4.016-3.542,4.141c-2.668,0.146-4.087-2.039-4.117-4.474
										C141.758,233.11,139.258,233.108,139.278,234.721L139.278,234.721z"/>
								</g>
							</g>
							<g>
								<g>
									<path style="fill:#232B49;" d="M172.278,234.721c0.049,3.994,2.76,7.185,6.924,6.957c3.928-0.215,6.247-3.551,5.646-7.29
										c-0.255-1.588-2.664-0.912-2.411,0.665c0.377,2.345-1.252,4.016-3.542,4.141c-2.668,0.146-4.087-2.039-4.117-4.474
										C174.758,233.11,172.258,233.108,172.278,234.721L172.278,234.721z"/>
								</g>
							</g>
						</g>
						<g>
							<g>
								<path style="fill:#232B49;" d="M153.66,260.08c5.658-5.268,13.177-5.904,18.632,0c1.096,1.187,2.86-0.586,1.768-1.768
									c-6.386-6.912-15.549-6.162-22.168,0C150.71,259.413,152.481,261.176,153.66,260.08L153.66,260.08z"/>
							</g>
						</g>
						<g>
							<path style="fill:#7AA5FF;" d="M144.721,244.899C134.948,262.799,155.341,263.497,144.721,244.899"/>
						</g>
						<g>
							<g>
								<path style="fill:#B3847C;" d="M159.245,234.218c-0.667,4.535-1.028,9.098-1.378,13.665c-0.057,0.741,0.617,1.17,1.25,1.25
									c2.111,0.266,4.208,0.332,6.334,0.334c1.612,0.002,1.612-2.498,0-2.5c-2.126-0.002-4.223-0.068-6.334-0.334
									c0.417,0.417,0.834,0.833,1.25,1.25c0.333-4.343,0.654-8.689,1.289-13.001C161.888,233.306,159.479,232.628,159.245,234.218
									L159.245,234.218z"/>
							</g>
						</g>
					</g>
				</g>
				<g>
					<g>
						<path style="fill:#F3418A;" d="M164.658,292.561c-9.271-2.648-30.041-12.596-35.45,1.326
							c-5.411,13.926,23.568,23.828,37.437,24.502c14.01,0.682,38.788-1.324,37.463-17.219
							C202.783,287.264,180.552,295.993,164.658,292.561"/>
					</g>
					<g>
						<g>
							<path style="fill:#B63168;" d="M138.783,290.881c0,0,0.881,0.522,2.395,1.475c0.735,0.517,1.709,0.992,2.786,1.561
								c0.542,0.281,1.105,0.593,1.714,0.895c0.629,0.273,1.289,0.561,1.979,0.861c1.349,0.652,2.91,1.13,4.509,1.728
								c0.791,0.321,1.662,0.5,2.521,0.755c0.874,0.212,1.726,0.553,2.648,0.717c0.91,0.199,1.835,0.402,2.772,0.607
								c0.938,0.197,1.908,0.301,2.868,0.482c0.482,0.082,0.966,0.163,1.452,0.245l1.475,0.158c0.987,0.094,1.973,0.227,2.966,0.29
								c1.988,0.12,3.976,0.282,5.941,0.247c1.964,0.044,3.898-0.043,5.774-0.094c0.936-0.069,1.856-0.137,2.757-0.203
								c0.903-0.053,1.788-0.109,2.642-0.227c1.712-0.203,3.343-0.358,4.832-0.613c0.749-0.112,1.467-0.219,2.149-0.32
								c0.679-0.127,1.323-0.248,1.928-0.361c1.212-0.23,2.281-0.403,3.142-0.621c1.737-0.385,2.748-0.581,2.748-0.581
								s-0.922,0.434-2.57,1.15c-0.819,0.376-1.838,0.758-3.023,1.16c-0.592,0.208-1.222,0.429-1.886,0.662
								c-0.677,0.189-1.389,0.389-2.132,0.596c-0.746,0.195-1.517,0.444-2.331,0.619c-0.816,0.169-1.66,0.345-2.528,0.524
								c-1.735,0.375-3.596,0.601-5.519,0.848c-1.933,0.133-3.929,0.4-5.972,0.358c-2.04,0.069-4.113-0.056-6.188-0.154
								c-1.035-0.084-2.064-0.239-3.092-0.355l-1.536-0.192c-0.507-0.095-1.013-0.188-1.516-0.281
								c-1.005-0.194-2.009-0.353-2.979-0.615c-0.968-0.266-1.925-0.527-2.866-0.785c-0.947-0.23-1.839-0.607-2.723-0.919
								c-0.875-0.344-1.753-0.606-2.556-1.013c-1.627-0.746-3.165-1.436-4.482-2.28c-0.668-0.396-1.308-0.776-1.917-1.137
								c-0.584-0.409-1.123-0.824-1.634-1.197c-0.504-0.378-0.977-0.73-1.413-1.058c-0.438-0.321-0.769-0.691-1.106-0.985
								C139.511,291.602,138.783,290.881,138.783,290.881z"/>
						</g>
						<g>
							<path style="fill:#B63168;" d="M157.45,306.881c0,0,0.595,0.083,1.614,0.285c0.507,0.124,1.134,0.169,1.825,0.286
								c0.685,0.12,1.483,0.184,2.341,0.289c0.852,0.121,1.798,0.137,2.773,0.247c0.985,0.063,2.025,0.103,3.098,0.151
								c1.077,0.028,2.184,0.072,3.315,0.072c1.128,0.028,2.279,0,3.427,0.003c1.15-0.029,2.301-0.028,3.435-0.074
								c1.134-0.031,2.252-0.068,3.335-0.112c1.086-0.041,2.136-0.081,3.131-0.119c0.993-0.075,1.943-0.082,2.816-0.135
								c1.76-0.077,3.226-0.141,4.253-0.186c1.033-0.048,1.636-0.042,1.636-0.042s-0.543,0.249-1.517,0.626
								c-0.974,0.369-2.382,0.861-4.109,1.305c-0.86,0.242-1.803,0.447-2.804,0.654c-1.003,0.185-2.061,0.408-3.168,0.546
								c-1.105,0.153-2.251,0.292-3.421,0.369c-1.168,0.115-2.362,0.121-3.554,0.167c-1.195-0.02-2.389-0.001-3.565-0.098
								c-1.176-0.053-2.331-0.189-3.446-0.335c-1.114-0.147-2.184-0.371-3.192-0.586c-1.006-0.245-1.953-0.466-2.807-0.778
								c-0.859-0.273-1.635-0.554-2.311-0.872c-0.678-0.293-1.26-0.552-1.701-0.823C157.954,307.207,157.45,306.881,157.45,306.881z
								"/>
						</g>
					</g>
				</g>
				<g>
					<g>
						<path style="fill:#232B49;" d="M216.238,186.215c-11.05,31.449-39.362,39.23-69.962,36.681
							c-19.55-1.7-38.396-7.655-37.4-30.601c2.574-59.306,83.991-51.495,105.241-20.895"/>
					</g>
					<g>
						<path style="fill:#232B49;" d="M185.523,187.496c3.179,17.851,12.13,33.15,12.13,51.851c0,16.15,1.613,30.6-1.568,46.75
							c-6.357,25.5-8.469,63.318,14.082,67.15c43.887,7.455,44.998-25.533,42.956-50.15c-4.02-48.451-26.261-76.5-25.466-117.301"/>
					</g>
					<g style="opacity:0.7;">
						<g>
							<path style="fill:#414A8F;" d="M191.991,184.77c-4.058,14.779-19.084,26.715-34.779,24.518
								c0.149,1.143,0.298,2.285,0.448,3.427c7.27-5.143,12.861-12.727,16.093-20.988c0.634-1.62-1.44-2.85-2.754-2.118
								c-13.872,7.729-27.177,20.284-44.25,15.705c0.276,1.045,0.551,2.089,0.827,3.134c6.614-5.797,15.034-11.577,17.039-20.695
								c0.375-1.705-1.257-2.794-2.754-2.118c-7.673,3.464-15.146,4.974-23.557,5.043c-2.417,0.02-2.419,3.77,0,3.75
								c9.094-0.074,17.16-1.812,25.45-5.555c-0.918-0.706-1.836-1.412-2.754-2.118c-1.838,8.359-10.01,13.726-16.074,19.041
								c-1.077,0.943-0.471,2.786,0.827,3.134c18.329,4.916,32.19-7.754,47.14-16.082c-0.918-0.706-1.837-1.412-2.754-2.118
								c-2.854,7.295-7.953,14.208-14.37,18.747c-1.146,0.811-1.336,3.178,0.448,3.427c17.734,2.481,34.737-10.182,39.393-27.138
								C196.248,183.431,192.63,182.441,191.991,184.77L191.991,184.77z"/>
						</g>
					</g>
				</g>
				<g>
					<path style="fill:#B182F7;" d="M199.393,158.213c0,0,0.302,0.042,0.868,0.121c0.28,0.046,0.626,0.102,1.031,0.169
						c0.404,0.108,0.874,0.258,1.411,0.441c0.565,0.161,1.084,0.449,1.699,0.739c0.633,0.271,1.223,0.682,1.887,1.109
						c1.319,0.865,2.642,2.055,3.962,3.48c1.254,1.453,2.537,3.135,3.599,5.039c1.091,1.896,2.071,3.978,2.861,6.186
						c0.431,1.098,0.771,2.234,1.104,3.389c0.341,1.152,0.626,2.328,0.879,3.52c0.516,2.379,0.851,4.82,1.094,7.259
						c0.183,2.443,0.313,4.886,0.232,7.285c-0.003,1.2-0.074,2.388-0.167,3.559c-0.078,1.171-0.202,2.325-0.341,3.456
						c-0.583,4.525-1.607,8.678-2.826,12.124c-0.611,1.723-1.262,3.271-1.906,4.612c-0.656,1.338-1.268,2.478-1.85,3.38
						c-0.544,0.915-1.071,1.585-1.405,2.045c-0.341,0.458-0.537,0.692-0.537,0.692s0.019-0.305,0.054-0.876
						c0.058-0.56,0.104-1.387,0.169-2.421c0.079-1.027,0.133-2.277,0.201-3.686c0.06-1.413,0.118-2.993,0.148-4.708
						c0.005-0.86,0.056-1.742,0.039-2.667c0.007-0.919,0.033-1.863,0.012-2.839c0.017-1.941-0.041-3.987-0.068-6.088
						c-0.034-1.05-0.069-2.117-0.104-3.197c-0.049-1.076-0.098-2.165-0.148-3.263c-0.12-2.191-0.254-4.408-0.465-6.611
						c-0.171-2.207-0.446-4.392-0.715-6.536c-0.321-2.13-0.623-4.232-1.045-6.219c-0.169-1.013-0.454-1.955-0.64-2.924
						c-0.25-0.932-0.477-1.871-0.75-2.745c-0.133-0.444-0.264-0.881-0.393-1.312c-0.149-0.42-0.296-0.835-0.441-1.242
						c-0.254-0.846-0.63-1.569-0.914-2.339c-0.661-1.455-1.338-2.789-2.071-3.892c-0.362-0.557-0.707-1.094-1.081-1.537
						c-0.363-0.454-0.695-0.918-1.03-1.248c-0.34-0.369-0.645-0.699-0.909-0.985c-0.312-0.268-0.578-0.496-0.793-0.681
						C199.62,158.417,199.393,158.213,199.393,158.213z"/>
				</g>
				<g>
					<path style="fill:#EEBDA5;" d="M208.002,230.958c17.115-2.976,17.115,15.591,0.689,14.569"/>
				</g>
			</g>
		</g>
	</g>
</g>
</svg>
