<?xml version="1.0" encoding="utf-8"?>
<!-- Generator: Adobe Illustrator 27.5.0, SVG Export Plug-In . SVG Version: 6.00 Build 0)  -->
<svg version="1.1" xmlns="http://www.w3.org/2000/svg" xmlns:xlink="http://www.w3.org/1999/xlink" x="0px" y="0px"
	 viewBox="0 0 500 500" style="enable-background:new 0 0 500 500;" xml:space="preserve">
<g id="BACKGROUND">
	<rect style="fill:#5622CD;" width="500" height="500"/>
</g>
<g id="OBJECTS">
	<path style="fill:#7343F7;" d="M471.35,273.739c13.258-34.534-6.014-86.141-33.284-106.322
		c-12.905-9.55-28.715-13.204-44.233-14.316c-25.97-1.861-52.088,2.822-78.025,0.469c-15.432-1.4-31.178-5.84-44.509-14.723
		c-16.207-10.801-22.716-26.448-31.574-44.029c-23.352-46.352-71.419-8.778-68.536,33.917c1.545,22.878,16.607,42.421,35.911,50.128
		c50.886,20.317,106.366,13.734,158.704,5.075c42.855-7.09,87.285,23.166,98.79,70.204"/>
	<path style="fill:none;stroke:#7F5CFA;stroke-width:1.5656;stroke-linecap:round;stroke-linejoin:round;stroke-miterlimit:10;" d="
		M56.607,165.396c-3.656-17.853-6.389-36.33-2.976-54.232c5.099-26.744,29.494-46.636,56.354-48.065
		c33.614-1.788,62.209,18.356,89.526,35.095c16.17,9.908,36.444,16.749,53.925,9.399"/>
	<path style="fill:#261C45;" d="M476.469,276.733c-4.147,33.804-30.788,61.869-64.103,72.64
		c-44.989,14.545-80.944-4.043-125.841-6.565c-44.275-2.487-67.093,30.437-102.711,49.404
		c-34.916,18.594-95.543,22.983-109.386-24.063c-10.085-34.28,26.648-61.737,19.135-96.269c-6.819-31.343-30.777-56.2-37.357-87.65
		C45.055,130.934,81.995,69.311,142.849,82.09c29.4,6.174,46.874,18.124,64.786,41.688c16.179,21.284,30.153,45.075,56.402,55.463
		c46.584,18.437,93.507-4.332,140.415,3.109c37.129,5.89,66.939,38.441,71.881,74.891
		C477.233,263.888,477.244,270.411,476.469,276.733z"/>
	<polygon style="fill:#F5E4D8;" points="147.474,124.689 148.531,126.622 150.464,127.68 148.531,128.737 147.474,130.67 
		146.416,128.737 144.483,127.68 146.416,126.622 	"/>
	<polygon style="fill:#F5E4D8;" points="120.893,100.516 121.573,101.758 122.815,102.438 121.573,103.117 120.893,104.36 
		120.214,103.117 118.971,102.438 120.214,101.758 	"/>
	<polygon style="fill:#F5E4D8;" points="206.085,149.653 206.764,150.895 208.007,151.574 206.764,152.254 206.085,153.496 
		205.406,152.254 204.163,151.574 205.406,150.895 	"/>
	<polygon style="fill:#F5E4D8;" points="422.246,293.121 422.925,294.363 424.168,295.042 422.925,295.722 422.246,296.964 
		421.567,295.722 420.324,295.042 421.567,294.363 	"/>
	<polygon style="fill:#F5E4D8;" points="331.321,399.033 332,400.275 333.243,400.954 332,401.634 331.321,402.876 330.641,401.634 
		329.399,400.954 330.641,400.275 	"/>
	<polygon style="fill:#F5E4D8;" points="147.474,208.705 148.153,209.948 149.395,210.627 148.153,211.307 147.474,212.549 
		146.794,211.307 145.552,210.627 146.794,209.948 	"/>
	<polygon style="fill:#F5E4D8;" points="90.698,189.874 91.378,191.116 92.62,191.796 91.378,192.475 90.698,193.717 
		90.019,192.475 88.776,191.796 90.019,191.116 	"/>
	<polygon style="fill:#F5E4D8;" points="78.866,135.145 79.923,137.078 81.856,138.135 79.923,139.193 78.866,141.126 
		77.808,139.193 75.875,138.135 77.808,137.078 	"/>
	<polygon style="fill:#F5E4D8;" points="193.385,191.796 194.443,193.729 196.376,194.786 194.443,195.844 193.385,197.777 
		192.328,195.844 190.395,194.786 192.328,193.729 	"/>
	<polygon style="fill:#F5E4D8;" points="320.518,412.736 321.575,414.669 323.509,415.726 321.575,416.784 320.518,418.717 
		319.461,416.784 317.527,415.726 319.461,414.669 	"/>
	<polygon style="fill:#F5E4D8;" points="391.681,186.327 393.891,190.367 397.931,192.577 393.891,194.786 391.681,198.827 
		389.471,194.786 385.431,192.577 389.471,190.367 	"/>
	<polygon style="fill:#F5E4D8;" points="475.973,184.297 477.03,186.23 478.963,187.287 477.03,188.344 475.973,190.278 
		474.916,188.344 472.982,187.287 474.916,186.23 	"/>
	<polygon style="fill:#F5E4D8;" points="153.392,341.472 154.45,343.405 156.383,344.463 154.45,345.52 153.392,347.453 
		152.335,345.52 150.402,344.463 152.335,343.405 	"/>
	<polygon style="fill:#F5E4D8;" points="348.705,428.122 349.762,430.055 351.695,431.112 349.762,432.17 348.705,434.103 
		347.648,432.17 345.714,431.112 347.648,430.055 	"/>
	<polygon style="fill:#F5E4D8;" points="115.592,326.652 116.649,328.586 118.583,329.643 116.649,330.7 115.592,332.633 
		114.535,330.7 112.601,329.643 114.535,328.586 	"/>
	<polygon style="fill:#F5E4D8;" points="370.476,194.786 371.533,196.72 373.466,197.777 371.533,198.834 370.476,200.768 
		369.418,198.834 367.485,197.777 369.418,196.72 	"/>
	<polygon style="fill:#F5E4D8;" points="395.499,309.814 396.557,311.747 398.49,312.805 396.557,313.862 395.499,315.795 
		394.442,313.862 392.509,312.805 394.442,311.747 	"/>
	<polygon style="fill:#F5E4D8;" points="261.6,409.745 262.658,411.678 264.591,412.736 262.658,413.793 261.6,415.726 
		260.543,413.793 258.61,412.736 260.543,411.678 	"/>
	<polygon style="fill:#F5E4D8;" points="115.592,135.207 117.685,139.033 121.511,141.126 117.685,143.219 115.592,147.045 
		113.499,143.219 109.673,141.126 113.499,139.033 	"/>
	<polygon style="fill:#E297F8;" points="145.552,148.041 149.162,160.551 161.698,163.588 149.162,167.032 145.921,191.335 
		142.681,167.032 129.406,163.588 142.681,160.551 	"/>
	<polygon style="fill:#E297F8;" points="292.489,379.459 296.099,391.969 308.635,395.006 296.099,398.45 292.858,422.753 
		289.618,398.45 276.343,395.006 289.618,391.969 	"/>
	<polygon style="fill:#E297F8;" points="437.467,171.62 442.293,188.348 459.055,192.409 442.293,197.013 437.96,229.509 
		433.628,197.013 415.878,192.409 433.628,188.348 	"/>
	<polygon style="fill:#F5E4D8;" points="178.136,171.62 180.229,175.446 184.055,177.539 180.229,179.631 178.136,183.458 
		176.043,179.631 172.217,177.539 176.043,175.446 	"/>
	<polygon style="fill:#F5E4D8;" points="469.684,159.477 471.777,163.303 475.603,165.396 471.777,167.488 469.684,171.315 
		467.591,167.488 463.765,165.396 467.591,163.303 	"/>
	<polygon style="fill:#F5E4D8;" points="437.467,300.568 439.559,304.395 443.386,306.487 439.559,308.58 437.467,312.406 
		435.374,308.58 431.548,306.487 435.374,304.395 	"/>
	<polygon style="fill:#F5E4D8;" points="176.984,357.252 179.076,361.078 182.902,363.171 179.076,365.263 176.984,369.09 
		174.891,365.263 171.065,363.171 174.891,361.078 	"/>
	<polygon style="fill:#F5E4D8;" points="105.982,309.814 108.075,313.641 111.901,315.733 108.075,317.826 105.982,321.652 
		103.889,317.826 100.063,315.733 103.889,313.641 	"/>
	<polygon style="fill:#F5E4D8;" points="373.466,320.733 375.559,324.56 379.385,326.652 375.559,328.745 373.466,332.571 
		371.374,328.745 367.547,326.652 371.374,324.56 	"/>
	<path style="fill:none;stroke:#7F5CFA;stroke-width:1.5656;stroke-linecap:round;stroke-linejoin:round;stroke-miterlimit:10;" d="
		M80.228,164.456c-7.575,0.867-14.751,4.014-19.772,9.701c-11.4,12.912-8.067,33.173-0.592,48.691
		c7.475,15.518,18.508,29.83,21.178,46.846c2.439,15.547-2.51,31.337-9.167,45.597c-6.657,14.26-15.093,27.733-20.329,42.574
		c-5.583,15.823-7.287,33.558-1.52,49.316c7.636,20.864,26.223,31.797,48.271,29.54c46.097-4.719,70.712-44.336,104.017-70.924
		c14.624-11.675,33.268-21.155,51.499-16.938c16.142,3.735,27.954,17.185,42.239,25.577c15.114,8.879,33.87,11.977,50.638,6.867
		c16.768-5.11,31.019-18.845,35.273-35.85c5.12-20.467-4.497-42.425-19.518-57.241c-14.38-14.183-33.73-23.225-53.835-25.157
		c-20.231-1.944-40.488,3.084-60.812,3.087c-36.683,0.004-72.857-17.279-96.473-45.349c-8.436-10.027-15.31-21.282-23.633-31.403
		c-8.323-10.121-18.497-19.316-30.978-23.308C91.459,164.4,85.738,163.825,80.228,164.456z"/>
	<path style="fill:#E9C0EE;" d="M377.365,236.477c-0.63-0.385-1.332-0.635-2.04-0.844c-1.362-0.401-2.834-0.461-4.289-0.458
		c-0.001,0.001-0.003,0.002-0.004,0.002c0.446,0.092,0.881,0.246,1.286,0.452c0.932,0.474,1.721,1.186,2.441,1.944
		c0.359,0.378,0.706,0.771,1.099,1.114c1.187,1.035,2.797,1.568,4.367,1.447C379.385,238.911,378.631,237.251,377.365,236.477z"/>
	<g>
		<path style="fill:#7343F7;" d="M27.112,124.055c-0.277,0.932-0.521,1.873-0.732,2.821c-1.637,7.361-1.299,15.347,2.097,22.079
			c7.887,15.637,27.265,16.123,35.573,0.779c3.611-6.669,5.205-14.305,9.016-20.863c1.742-2.997,3.924-5.726,5.562-8.78
			c4.242-7.905,0.736-17.663-7.894-20.745c-8.533-3.048-20.001-1.697-27.684,3.075C35.269,107.255,29.728,115.255,27.112,124.055z"
			/>
		<path style="fill:#7343F7;" d="M107.701,78.824c-2.202,1.079-4.842,0.456-7.129-0.427c-2.287-0.883-4.585-2.027-7.035-1.943
			c-3.708,0.128-6.859,3.219-7.921,6.774c-1.471,4.922,0.796,10.732,5.26,13.274c1.116,0.636,2.342,1.046,3.605,1.242
			c3.788,0.59,7.906-0.745,10.38-3.7c2.191-2.616,3.553-6.536,6.902-7.195c2.001-0.394,4.023,0.605,6.062,0.554
			c3.786-0.094,6.728-4.299,5.912-7.997c-0.761-3.452-4.236-5.821-7.664-5.958C111.897,73.284,111.127,77.145,107.701,78.824z"/>
		
			<path style="fill:none;stroke:#8F79F7;stroke-width:1.5656;stroke-linecap:round;stroke-linejoin:round;stroke-miterlimit:10;" d="
			M31.78,140.728c1.837,3.817,5.298,7.4,9.533,7.311c5.055-0.106,8.471-5.212,10.115-9.993c1.644-4.782,2.658-10.176,6.477-13.489
			c3.716-3.224,9.333-3.717,12.742-7.264c2.843-2.957,3.449-7.826,1.417-11.39c-6.854-12.023-28.457-7.198-35.322,2.082
			C30.086,116.984,26.757,130.289,31.78,140.728z"/>
		
			<path style="fill:none;stroke:#8F79F7;stroke-width:1.5656;stroke-linecap:round;stroke-linejoin:round;stroke-miterlimit:10;" d="
			M38.694,124.721c0.906,1.884,2.615,3.652,4.705,3.609c2.495-0.052,4.181-2.572,4.992-4.932c0.811-2.36,1.312-5.022,3.197-6.658
			c1.834-1.591,4.606-1.835,6.289-3.585c1.403-1.459,1.702-3.863,0.7-5.621c-3.383-5.934-14.046-3.553-17.434,1.028
			C37.858,113.002,36.215,119.569,38.694,124.721z"/>
	</g>
	<g>
		<g>
			<g>
				<path style="fill:#F1E0D2;" d="M120.812,244.367c0.88-5.929-2.817-11.79-7.743-15.204c-4.926-3.414-10.911-4.866-16.751-6.214
					c-3.303-0.763-6.654-1.516-10.018-1.933c-5.214-0.646-8.702,5.322-5.498,9.486c0.023,0.03,0.046,0.06,0.07,0.09
					c5.705,7.335,12.451,13.861,19.972,19.319c-12.088-2.814-25.318,2.737-33.273,12.264c-3.789,4.537-5.998,10.18-9.42,15
					c-3.422,4.82-14.689,8.32-14.689,8.32c8.369,3.904,26.656,4.606,39.753,0.368c13.097-4.238,26.225-15.913,34.759-26.714
					c15.512-4.171,29.659-4.413,45.722-4.261c63.749,0.603,123.086,36.708,186.831,37.676c8.924,0.135,17.979-0.449,26.441-3.284
					c7.762-2.6,14.768-7.001,21.84-11.124c9.633-5.615,19.528-10.779,29.643-15.47c8.659-4.015,18.693-7.708,27.478-3.977
					c1.628-3.629,3.132-6.392,4.76-10.022c-59.576-32.049-129.585-38.888-197.233-38.441c-12.105,0.08-33.006,4.768-44.806,7.473
					C177.735,227.099,155.028,235.004,120.812,244.367z"/>
				<path style="opacity:0.46;fill:#E18267;" d="M440.439,250.941c-4.6-6.472-12.92-8.916-20.496-9.316
					c-15.239-0.805-28.819,7.282-40.779,15.825c-11.915,8.512-23.229,18.573-36.852,24.324c-6.227,2.629-12.931,4.158-19.716,3.728
					c-7.647-0.485-15.747-3.267-21.816-7.992c-3.525-2.745-6.489-6.67-6.855-11.26c-0.223-2.795,0.493-5.351-1.363-7.761
					c-1.186-1.54-2.721-2.638-4.564-3.267c-3.744-1.277-7.958-0.841-11.719,0.13c-3.693,0.954-7.452,2.511-10.398,4.984
					c-0.761,0.639-1.859-0.418-1.107-1.107c0.894-0.819,1.842-1.573,2.802-2.311c4.943-3.801,10.786-7.309,14.279-12.618
					c1.598-2.429,2.418-5.292,1.174-8.065c-1.089-2.428-3.244-4.36-5.562-5.587c-5.12-2.71-11.453-2.501-17.032-1.78
					c-6.609,0.855-13.08,2.694-19.405,4.747c-5.235,1.699-10.374,3.679-15.606,5.386c-4.261,1.39-8.73,2.309-13.079,3.39
					c-4.857,1.207-9.729,2.361-14.631,3.371c-9.745,2.009-19.63,3.437-29.586,3.728c-6.533,0.191-13.043-0.436-19.567-0.662
					c-6.207-0.214-12.699-0.197-18.614,1.938c-4.238,1.53-7.519,4.274-9.827,7.834c14.678-3.637,28.256-3.858,43.573-3.714
					c63.749,0.603,123.086,36.708,186.831,37.676c8.924,0.136,17.979-0.449,26.441-3.284c7.762-2.6,14.768-7.001,21.84-11.124
					c9.633-5.615,19.528-10.779,29.643-15.469c4.685-2.173,9.772-4.248,14.846-5.107
					C442.816,255.246,441.901,252.999,440.439,250.941z"/>
				<path style="fill:#F1E0D2;" d="M327.533,271.174c-9.043-5.84-21.114-4.34-30.996-0.071
					c-15.94,6.886-28.285,19.846-40.966,31.707c-12.681,11.861-27.048,23.35-44.209,25.993c-2.598,0.4-6.079,1.633-5.605,4.219
					c0.184,1.007,0.991,1.774,1.797,2.406c9.98,7.836,24.398,5.737,36.456,1.786c24.212-7.934,46.444-21.836,64.176-40.131
					c4.789-4.941,9.434-10.565,10.569-17.351"/>
			</g>
			<path style="fill:#FAF1EA;" d="M270.608,292.712c1.25-0.839-0.432-2.682-1.923-2.887c-6.626-0.912-12.004,4.915-16.461,9.902
				c-7.35,8.226-15.777,15.701-25.714,20.491c-9.937,4.791-21.534,6.72-32.161,3.759c-3.147-0.877-7.486-1.672-8.844,1.299
				c-0.744,1.628-0.002,3.546,0.976,5.045c4.479,6.868,13.225,9.502,21.363,10.502c22.541,2.77,46.06-3.424,64.313-16.939
				c2.115-1.566,1.236-3.717-0.179-5.935c-1.415-2.218-4.079-3.39-6.698-3.642c-2.619-0.253-5.242,0.285-7.821,0.811
				c-0.903,0.184-1.844,0.366-2.736,0.136c-1.613-0.416-2.639-2.156-2.63-3.822c0.009-1.666,0.86-3.225,1.939-4.494
				c1.187-1.396,2.674-2.535,4.332-3.316c2.883-1.359,6.21-1.626,9.007-3.155C270.167,298.939,272.381,295.361,270.608,292.712z"/>
			<circle style="fill:#FAF1EA;" cx="272.827" cy="292.51" r="6.205"/>
			<path style="fill:#FAF1EA;" d="M257.931,295.668c0,2.717-2.203,4.92-4.92,4.92c-2.717,0-4.92-2.203-4.92-4.92
				c0-2.717,2.203-4.92,4.92-4.92C255.728,290.748,257.931,292.951,257.931,295.668z"/>
			<circle style="fill:#FAF1EA;" cx="259.817" cy="288.306" r="6.806"/>
			<circle style="fill:#FAF1EA;" cx="229.168" cy="318.188" r="2.934"/>
			
				<ellipse transform="matrix(0.2306 -0.973 0.973 0.2306 -145.2999 463.3173)" style="fill:#FAF1EA;" cx="220.333" cy="323.54" rx="8.834" ry="8.834"/>
			<circle style="fill:#FAF1EA;" cx="277.675" cy="323.54" r="7.41"/>
			<circle style="fill:#FAF1EA;" cx="290.148" cy="311.911" r="4.22"/>
			<circle style="fill:#FAF1EA;" cx="389.394" cy="282.398" r="6.259"/>
			<path style="fill:#FAF1EA;" d="M398.506,270.492c0,0.788-0.639,1.426-1.426,1.426c-0.788,0-1.426-0.639-1.426-1.426
				c0-0.788,0.638-1.426,1.426-1.426C397.867,269.066,398.506,269.704,398.506,270.492z"/>
			<path style="fill:#FAF1EA;" d="M424.019,268.786c0,2.043-1.656,3.699-3.699,3.699c-2.043,0-3.699-1.656-3.699-3.699
				c0-2.043,1.656-3.699,3.699-3.699C422.363,265.088,424.019,266.744,424.019,268.786z"/>
			<circle style="fill:#FAF1EA;" cx="427.599" cy="253.151" r="1.747"/>
			<path style="fill:#FAF1EA;" d="M425.905,265.373c0,1.042-0.844,1.886-1.886,1.886c-1.042,0-1.886-0.844-1.886-1.886
				s0.844-1.886,1.886-1.886C425.06,263.487,425.905,264.331,425.905,265.373z"/>
			<path style="fill:#FAF1EA;" d="M366.926,284.351c0,1.079-0.875,1.954-1.954,1.954c-1.079,0-1.954-0.875-1.954-1.954
				c0-1.079,0.875-1.954,1.954-1.954C366.052,282.398,366.926,283.272,366.926,284.351z"/>
			<circle style="fill:#FAF1EA;" cx="372.364" cy="278.411" r="2.272"/>
			<path style="fill:#FAF1EA;" d="M404.877,272.029c0,1.255-1.017,2.272-2.272,2.272c-1.255,0-2.272-1.017-2.272-2.272
				c0-1.255,1.017-2.272,2.272-2.272C403.86,269.757,404.877,270.774,404.877,272.029z"/>
			<path style="fill:#FAF1EA;" d="M381.033,287.55c0,1.766-1.432,3.198-3.199,3.198c-1.766,0-3.198-1.432-3.198-3.198
				c0-1.767,1.432-3.199,3.198-3.199C379.601,284.351,381.033,285.783,381.033,287.55z"/>
			<path style="fill:#FAF1EA;" d="M386.918,272.029c0,0.885-0.717,1.602-1.602,1.602c-0.885,0-1.602-0.717-1.602-1.602
				c0-0.885,0.717-1.602,1.602-1.602C386.201,270.427,386.918,271.145,386.918,272.029z"/>
			<path style="fill:#FAF1EA;" d="M411.564,256.5c0,0.885-0.717,1.602-1.602,1.602c-0.885,0-1.602-0.717-1.602-1.602
				s0.717-1.602,1.602-1.602C410.847,254.898,411.564,255.615,411.564,256.5z"/>
			<path style="fill:#FAF1EA;" d="M350.304,285.951c0,0.883-0.716,1.599-1.599,1.599c-0.883,0-1.599-0.716-1.599-1.599
				c0-0.883,0.716-1.599,1.599-1.599C349.588,284.351,350.304,285.067,350.304,285.951z"/>
			<path style="fill:#FAF1EA;" d="M409.962,261.419c0,0.513-0.415,0.928-0.928,0.928c-0.513,0-0.928-0.415-0.928-0.928
				s0.416-0.928,0.928-0.928C409.547,260.491,409.962,260.907,409.962,261.419z"/>
			<path style="fill:#FAF1EA;" d="M367.854,276.138c0,0.513-0.415,0.928-0.928,0.928s-0.928-0.415-0.928-0.928
				s0.415-0.928,0.928-0.928S367.854,275.626,367.854,276.138z"/>
			<path style="fill:#FAF1EA;" d="M428.527,260.639c0,0.513-0.415,0.928-0.928,0.928s-0.928-0.415-0.928-0.928
				s0.416-0.928,0.928-0.928S428.527,260.126,428.527,260.639z"/>
			<path style="fill:#FAF1EA;" d="M100.645,249.635c0.307-0.045,0.615-0.089,0.922-0.134c-2.92-0.417-5.816-1.006-8.668-1.762
				c-1.214-0.322-2.497-0.724-3.293-1.696c-0.652-0.797-0.87-1.852-1.068-2.862c-2.223-0.648-4.205-1.673-6.02-3.111
				c-1.815-1.438-3.069-3.838-2.477-6.077c-3.514-0.714-6.495-3.585-7.339-7.07c-0.148-0.612-0.249-1.267-0.644-1.758
				c-0.336-0.417-0.84-0.656-1.32-0.894c-1.574-0.781-3.079-1.703-4.491-2.748c-2.475-1.833-1.104-6.001,1.955-5.646
				c12.202,1.417,14.703,1.832,24.536,5.453c1.597,0.588,16.662,5.508,18.082,6.448c-2.763-0.242-13.121-2.337-15.86-1.897
				c-0.546,0.088-1.087,0.225-1.595,0.442c-4.222,1.807-3.171,6.159-1.273,9.052c1.162,1.771,2.602,3.359,4.251,4.689
				c-0.536-1.292-0.226-2.892,0.756-3.889c0.981-0.997,2.576-1.334,3.876-0.819c2.531,1.003,3.076,4.376,2.642,7.064
				C103.209,244.946,102.011,247.472,100.645,249.635z"/>
			<path style="fill:#FAF1EA;" d="M87.789,250.447c-1.297-0.557-2.685-0.905-4.092-1.024c-2.709-0.23-5.466,0.397-7.872,1.663
				c-1.665,0.876-3.34,2.43-3.088,4.294c-2.295-0.863-4.662,0.26-6.547,1.827c-1.885,1.567-2.841,4.178-2.412,6.592
				c-1.659,0.137-3.046,1.235-3.691,2.77c-0.645,1.534-0.798,3.224-1.208,4.837c-0.854,3.361-2.981,6.507-6.101,8.02
				c-3.481,1.688-7.563,1.165-11.43,1.066c-3.867-0.1-8.236,0.523-10.548,3.624c-0.658,0.882-1.108,2.032-0.777,3.081
				c0.196,0.623,0.644,1.134,1.127,1.574c3.409,3.103,8.507,3.202,13.116,3.126c5.489-0.09,10.977-0.18,16.465-0.27
				c2.412-0.039,4.827-0.079,7.229-0.296c8.839-0.797,21.015-6.642,28.181-11.877c-7.489,2.507-19.59,6.01-27.448,5.221
				c3.478-0.309,6.521-3.317,6.872-6.791c0.228-2.264-0.583-4.539-1.85-6.43c-1.266-1.891-2.965-3.447-4.69-4.93
				c0.9-3.312,3.65-5.505,6.27-7.723C78.931,255.726,83.208,251.751,87.789,250.447z"/>
			<circle style="fill:#FAF1EA;" cx="60.965" cy="266.954" r="3.34"/>
			<circle style="fill:#FAF1EA;" cx="57.33" cy="273.339" r="3.045"/>
			<path style="fill:#FAF1EA;" d="M67.194,253.929c0,1.395-1.131,2.525-2.525,2.525c-1.395,0-2.525-1.131-2.525-2.525
				c0-1.395,1.131-2.525,2.525-2.525C66.063,251.404,67.194,252.534,67.194,253.929z"/>
			<path style="fill:#FAF1EA;" d="M72.654,246.964c0,0.353-0.286,0.639-0.639,0.639c-0.353,0-0.638-0.286-0.638-0.639
				s0.286-0.639,0.638-0.639C72.368,246.326,72.654,246.612,72.654,246.964z"/>
			<path style="fill:#FAF1EA;" d="M74.741,231.261c0,1.58-1.281,2.861-2.86,2.861c-1.58,0-2.86-1.281-2.86-2.861
				c0-1.58,1.281-2.861,2.86-2.861C73.46,228.401,74.741,229.681,74.741,231.261z"/>
			<path style="fill:#FAF1EA;" d="M79.899,212.228c0,1.105-0.896,2.001-2.002,2.001c-1.105,0-2.001-0.896-2.001-2.001
				c0-1.105,0.896-2.001,2.001-2.001C79.003,210.226,79.899,211.122,79.899,212.228z"/>
			<path style="fill:#FAF1EA;" d="M88.327,215.042c0,0.449-0.364,0.813-0.813,0.813c-0.449,0-0.813-0.364-0.813-0.813
				c0-0.449,0.364-0.813,0.813-0.813C87.963,214.229,88.327,214.593,88.327,215.042z"/>
			<path style="fill:#F1E0D2;" d="M247.842,213.83c-1.198-1.771-5.786-8.003-12.161-9.87c-0.436-0.128-0.729-0.535-0.729-0.989l0,0
				c0-0.58,0.471-1.047,1.051-1.038c5.131,0.086,28.02,1.052,45.706,11.239l-32.974,1.111
				C248.378,214.296,248.042,214.126,247.842,213.83z"/>
		</g>
		
			<path style="fill:none;stroke:#E9C0EE;stroke-width:0.5471;stroke-linecap:round;stroke-linejoin:round;stroke-miterlimit:10;" d="
			M368.724,231.605c-3.242,2.248-5.467,6.428-4.276,10.19c0.966,3.05,3.945,5.128,7.061,5.853c3.821,0.889,8.134-0.077,10.896-2.863
			c2.762-2.786,3.641-7.415,1.703-10.826"/>
		
			<path style="fill:none;stroke:#E9C0EE;stroke-width:0.5471;stroke-linecap:round;stroke-linejoin:round;stroke-miterlimit:10;" d="
			M385.974,233.863c1.295,2.144,1.582,4.869,0.762,7.236"/>
		
			<path style="fill:none;stroke:#E9C0EE;stroke-width:0.5471;stroke-linecap:round;stroke-linejoin:round;stroke-miterlimit:10;" d="
			M362.757,238.594c-0.624,2.455-0.323,5.134,0.831,7.39c1.154,2.255,3.15,4.067,5.507,4.998"/>
		<g>
			
				<path style="fill:none;stroke:#DE9BE7;stroke-width:0.5471;stroke-linecap:round;stroke-linejoin:round;stroke-miterlimit:10;" d="
				M454.36,245.837c0.616,0.245,1.234,0.597,1.55,1.18c0.316,0.583,0.2,1.437-0.389,1.742c-0.295,0.153-0.645,0.146-0.977,0.126
				c-5.311-0.311-10.221-2.753-15.166-4.715c-12.188-4.836-25.457-6.925-38.541-6.067c-11.504,0.754-18.756,14.22-28.727,20.008
				c-16.194,9.401-37.1,9.147-51.987,20.505"/>
			
				<path style="fill:none;stroke:#DE9BE7;stroke-width:0.5471;stroke-linecap:round;stroke-linejoin:round;stroke-miterlimit:10;" d="
				M318.138,265.373c1.269,3.145,2.239,6.452,2.366,9.841c0.127,3.389-0.64,6.879-2.592,9.652"/>
			
				<path style="fill:none;stroke:#DE9BE7;stroke-width:0.5471;stroke-linecap:round;stroke-linejoin:round;stroke-miterlimit:10;" d="
				M318.222,260.639c2.897,3.071,4.214,7.56,3.435,11.709"/>
			
				<path style="fill:none;stroke:#DE9BE7;stroke-width:0.5471;stroke-linecap:round;stroke-linejoin:round;stroke-miterlimit:10;" d="
				M305.67,265.145c-2.125,0.955-2.715,3.097-4.52,4.317c-2.378,1.607-6.008,2.104-8.661,3.303"/>
			
				<path style="fill:none;stroke:#DE9BE7;stroke-width:0.5471;stroke-linecap:round;stroke-linejoin:round;stroke-miterlimit:10;" d="
				M305.022,259.96c-1.825,1.412-3.872,3.238-3.872,9.501"/>
		</g>
		
			<path style="fill:none;stroke:#F6F3F1;stroke-width:0.5471;stroke-linecap:round;stroke-linejoin:round;stroke-miterlimit:10;" d="
			M166.91,231.019c-1.076,4.974,3.98,9.326,8.955,10.397c6.305,1.357,12.841-0.452,18.899-2.666
			c11.503-4.204,22.407-9.91,33.869-14.227c11.462-4.316,23.799-7.245,35.93-5.554c15.822,2.206,29.492,11.927,44.621,17.056
			c8.422,2.855,17.329,4.278,26.222,4.187c9.394-0.096,19.878-2.6,24.804-10.6c1.724-2.799,2.704-6.183,5.237-8.279
			c3.342-2.765,8.389-2.344,12.308-0.485c3.919,1.859,7.133,4.902,10.757,7.287c7.182,4.726,17.744,7.01,23.076,0.265"/>
		<path style="fill:#F6F3F1;" d="M331.935,239.683c0,1.216-0.986,2.201-2.201,2.201c-1.216,0-2.201-0.986-2.201-2.201
			c0-1.216,0.985-2.201,2.201-2.201C330.949,237.482,331.935,238.467,331.935,239.683z"/>
		<circle style="fill:#F6F3F1;" cx="289.361" cy="218.482" r="2.201"/>
		<path style="fill:#F6F3F1;" d="M171.977,239.291c0,0.999-0.81,1.809-1.809,1.809c-0.999,0-1.809-0.81-1.809-1.809
			c0-0.999,0.81-1.809,1.809-1.809C171.167,237.482,171.977,238.292,171.977,239.291z"/>
		<path style="fill:#F6F3F1;" d="M179.854,234.722c0,0.475-0.385,0.859-0.859,0.859s-0.859-0.385-0.859-0.859
			c0-0.474,0.385-0.859,0.859-0.859S179.854,234.248,179.854,234.722z"/>
		<path style="fill:#F6F3F1;" d="M229.168,224.275c0,1.196-0.969,2.165-2.165,2.165s-2.165-0.969-2.165-2.165
			s0.969-2.165,2.165-2.165S229.168,223.079,229.168,224.275z"/>
		<path style="fill:#F6F3F1;" d="M263.17,213.013c0,0.434-0.351,0.785-0.785,0.785c-0.434,0-0.785-0.351-0.785-0.785
			c0-0.433,0.351-0.785,0.785-0.785C262.819,212.228,263.17,212.579,263.17,213.013z"/>
		<circle style="fill:#F6F3F1;" cx="296.539" cy="243.832" r="0.956"/>
		<path style="fill:#F6F3F1;" d="M337.657,226.44c0,0.528-0.428,0.956-0.956,0.956c-0.528,0-0.956-0.428-0.956-0.956
			s0.428-0.956,0.956-0.956C337.228,225.484,337.657,225.912,337.657,226.44z"/>
		<circle style="fill:#F6F3F1;" cx="301.15" cy="225.484" r="0.956"/>
		
			<path style="fill:none;stroke:#F6F3F1;stroke-width:0.5471;stroke-linecap:round;stroke-linejoin:round;stroke-miterlimit:10;" d="
			M279.032,210.425c11.645,12.715,22.182,18.749,34.951,20.168c12.768,1.419,26.478-4.541,32.845-15.699"/>
		<path style="fill:#E297F8;" d="M377.365,236.477c-0.63-0.385-1.332-0.635-2.04-0.844c-1.366-0.402-2.844-0.462-4.303-0.458
			c0.449,0.092,0.889,0.247,1.297,0.454c0.932,0.474,1.721,1.186,2.441,1.944c0.359,0.378,0.706,0.771,1.099,1.114
			c1.187,1.035,2.797,1.568,4.367,1.447C379.385,238.911,378.631,237.251,377.365,236.477z"/>
		<path style="fill:#1E0964;" d="M374.76,237.573c0.359,0.378,0.706,0.771,1.099,1.114c0.253,0.22,0.527,0.412,0.814,0.586
			c0.023-0.174,0.052-0.347,0.065-0.524c0.066-0.909-0.024-1.799-0.191-2.685c-0.397-0.169-0.807-0.309-1.221-0.432
			c-1.366-0.402-2.844-0.462-4.303-0.458c0.449,0.092,0.889,0.247,1.297,0.454C373.25,236.103,374.04,236.815,374.76,237.573z"/>
		
			<path style="fill:none;stroke:#E9C0EE;stroke-width:0.5471;stroke-linecap:round;stroke-linejoin:round;stroke-miterlimit:10;" d="
			M360.571,236.77c-1.482,4.459-0.779,9.589,1.848,13.486"/>
		
			<path style="fill:none;stroke:#F6F3F1;stroke-width:0.5471;stroke-linecap:round;stroke-linejoin:round;stroke-miterlimit:10;" d="
			M329.826,291.513c11.989-1.008,23.247-6.558,32.756-13.929c9.509-7.371,20.312-18.41,28.049-27.624"/>
		
			<path style="fill:none;stroke:#F6F3F1;stroke-width:0.5471;stroke-linecap:round;stroke-linejoin:round;stroke-miterlimit:10;" d="
			M406.348,243.163c-1.998,7.162-7.228,14.695-12.163,20.257c-12.6,14.201-29.522,24.514-47.918,29.203"/>
		
			<path style="fill:none;stroke:#F6F3F1;stroke-width:0.5471;stroke-linecap:round;stroke-linejoin:round;stroke-miterlimit:10;" d="
			M419.943,241.626c-0.228,2.115-1.619,5.603-2.434,7.567c-4.321,10.419-10.914,18.682-19.73,25.718
			c-8.816,7.036-18.849,12.388-29.048,17.204"/>
		
			<path style="fill:none;stroke:#F6F3F1;stroke-width:0.5471;stroke-linecap:round;stroke-linejoin:round;stroke-miterlimit:10;" d="
			M407.908,272.766c2.076-1.496,4.153-2.992,6.229-4.488c2.284-1.646,4.577-3.299,6.605-5.252
			c5.137-4.948,8.553-12.153,10.806-18.92"/>
		
			<path style="fill:none;stroke:#F6F3F1;stroke-width:0.5471;stroke-linecap:round;stroke-linejoin:round;stroke-miterlimit:10;" d="
			M60.429,284.667c5.068,0.965,10.353-0.249,14.867-2.622c6.939-3.647,11.667-10.007,17.144-15.416
			c3.09-3.051,6.627-6.101,10.532-8.263c3.192-1.768,9.428-4.691,13.011-2.62c1.031,0.596,1.748,1.865,1.385,2.999"/>
		
			<path style="fill:none;stroke:#F6F3F1;stroke-width:0.5471;stroke-linecap:round;stroke-linejoin:round;stroke-miterlimit:10;" d="
			M118.671,258.22c2.121-1.802,1.565-5.487-0.495-7.357c-2.06-1.87-5.042-2.307-7.825-2.282c-3.029,0.027-6.093,0.514-8.84,1.791
			c-2.279,1.06-4.277,2.63-6.233,4.209c-4.419,3.568-8.741,7.255-12.961,11.055c-5.41,4.874-11.07,10.154-18.226,11.499"/>
	</g>
	<g style="opacity:0;">
		<path style="fill:#E18267;" d="M354.637,247.089c4.578,4.119,6.788,9.126,4.937,11.183c-1.851,2.057-7.062,0.385-11.64-3.733
			c-4.577-4.119-6.788-9.126-4.937-11.183C344.849,241.298,350.06,242.97,354.637,247.089z"/>
		<path style="fill:#E18267;" d="M355.648,243.053c-0.681,0.757-2.238,0.467-3.477-0.648c-1.239-1.115-1.691-2.632-1.01-3.389
			c0.681-0.757,2.238-0.467,3.477,0.648C355.877,240.779,356.329,242.296,355.648,243.053z"/>
	</g>
	<g>
		<path style="fill:#7343F7;" d="M348.36,352.181c9.127,8.255,16.008,18.222,24.19,27.228c8.181,9.006,18.311,17.39,30.612,20.365
			c42.288,10.226,53.531-41.111,25.606-63.341c-31.48-25.057-81.23-24.022-116.884-13.254c-7.728,2.334-23.179,10.008-6.367,10.84
			C321.808,334.825,336.553,341.503,348.36,352.181z"/>
		
			<path style="fill:none;stroke:#8F79F7;stroke-width:1.5656;stroke-linecap:round;stroke-linejoin:round;stroke-miterlimit:10;" d="
			M365.598,370.275c9.709,10.936,23.833,17.835,38.428,18.77c4.388,0.281,8.916,0.021,12.951-1.726
			c11.078-4.796,14.768-19.907,10.106-31.042c-4.661-11.135-15.397-18.606-26.518-23.301c-25.928-10.944-56.779-9.489-81.562,3.847"
			/>
		
			<path style="fill:none;stroke:#8F79F7;stroke-width:1.5656;stroke-linecap:round;stroke-linejoin:round;stroke-miterlimit:10;" d="
			M395.414,375.088c0.604-0.029,1.206-0.074,1.806-0.135c4.009-0.409,8.073-2.175,10.32-5.524
			c12.738-18.99-25.651-35.167-38.253-36.73c-3.615-0.448-7.354-0.538-10.83,0.549c-3.477,1.088-6.679,3.504-8.003,6.898
			c-2.205,5.651,1.249,11.912,5.296,16.43C365.205,367.134,380.732,375.796,395.414,375.088z"/>
	</g>
	<g>
		<ellipse style="fill:#7343F7;" cx="462.124" cy="350.584" rx="7.56" ry="9.842"/>
		<path style="fill:#7343F7;" d="M475.264,326.33c0,1.541-1.249,2.79-2.79,2.79c-1.541,0-2.79-1.249-2.79-2.79s1.249-2.79,2.79-2.79
			C474.015,323.54,475.264,324.789,475.264,326.33z"/>
		<path style="fill:#7343F7;" d="M354.301,400.306c-0.957,3.849,0.52,8.002,3.059,11.049c2.539,3.047,6.026,5.146,9.573,6.921
			c3.513,1.758,7.396,3.29,11.277,2.681C400.043,417.526,359.875,377.899,354.301,400.306z"/>
	</g>
	<g>
		<path style="fill:#E297F8;" d="M414.491,132.137c-15.454-11.904-36.595-14.094-55.822-10.799
			c-19.227,3.295-37.208,11.463-55.35,18.633c-24.543,9.701-50.207,17.767-76.593,18.258c-26.384,0.491-53.794-7.366-72.625-25.853
			c0.441,0.433,5.591,2.796,6.802,3.487c9.153,5.222,25.537,4.835,35.151,1.369c-0.704,0.573,0.969,0.677,0.733-0.199
			c-2.122-7.866,1.767-16.818,8.731-21.046c6.964-4.228,16.38-3.697,23.114,0.889c6.734,4.586,10.644,12.842,10.437,20.987
			c-0.477-10.95-0.312-31.456,6.055-40.378s19.007-14.044,28.771-9.066c9.482,4.834,12.805,16.492,15.167,26.869
			c-0.961-6.945,11.656-17.536,18.629-16.805c6.973,0.731,12.085,8.884,9.705,15.479c17.337-3.91,35.821-5.32,53.493-3.428
			C388.56,112.427,402.217,119.285,414.491,132.137z"/>
		<path style="fill:#AF90FB;" d="M450.274,162.096c-9.472-7.296-22.43-8.638-34.214-6.619c-11.785,2.02-22.806,7.025-33.925,11.421
			c-15.042,5.946-30.773,10.89-46.945,11.191c-16.171,0.301-32.971-4.515-44.513-15.846c0.271,0.266,3.427,1.714,4.169,2.137
			c5.61,3.201,15.652,2.963,21.544,0.839c-0.431,0.351,0.594,0.415,0.449-0.122c-1.301-4.821,1.083-10.308,5.351-12.899
			c4.268-2.592,10.04-2.266,14.167,0.545c4.127,2.811,6.524,7.871,6.397,12.863c-0.293-6.711-0.191-19.28,3.711-24.748
			c3.902-5.468,11.65-8.608,17.634-5.557c5.811,2.963,7.849,10.108,9.296,16.469c-0.589-4.257,7.144-10.748,11.418-10.3
			c4.274,0.448,7.407,5.445,5.948,9.487c10.626-2.396,21.955-3.261,32.786-2.101C434.381,150.016,442.751,154.219,450.274,162.096z"
			/>
		<path style="fill:#E9C0EE;" d="M280.28,136.056c14.034-2.714,24.815-13.575,35.087-23.515
			c10.272-9.94,22.247-20.017,36.535-20.437c0.039-4.504,1.618-8.559,4.839-11.708c3.221-3.149,7.723-4.947,12.227-4.883
			c8.604,0.121,16.377,7.503,17.329,16.055c1.156-1.701,3.459-1.563,5.443-2.104c4.748-1.293,10.435-1.42,13.937,2.038
			c2.541,2.51,3.282,6.268,3.901,9.786c3.979-2.693,10.069-0.095,13.267,3.49c3.198,3.586,4.763,8.296,7.105,12.491
			c4.681,8.382,12.6,14.722,21.487,18.353c8.887,3.631,18.694,4.671,28.268,3.964c-15.436,1.777-30.426-1.01-43.795-8.929
			c-6.612-3.916-12.553-8.868-19.04-12.987c-25.302-16.068-58.923-18.11-85.983-5.223
			C311.952,121.464,301.212,134.751,280.28,136.056z"/>
		
			<path style="fill:none;stroke:#F6F3F1;stroke-width:0.5471;stroke-linecap:round;stroke-linejoin:round;stroke-miterlimit:10;" d="
			M212.267,112.836c-5.063,4.993-7.282,12.693-5.654,19.614c1.628,6.922,7.047,12.825,13.804,15.038
			c4.043,1.324,8.438,1.378,12.613,0.557c3.918-0.771,7.691-2.308,10.991-4.556c17.565-11.968,17.161-39.322,32.83-53.683"/>
		
			<path style="fill:none;stroke:#F6F3F1;stroke-width:0.5471;stroke-linecap:round;stroke-linejoin:round;stroke-miterlimit:10;" d="
			M203.273,117.895c-5.027,8.385-4.807,19.634,0.544,27.816c5.351,8.182,15.57,12.892,25.266,11.646
			c8.664-1.113,16.306-6.544,21.882-13.267c5.576-6.723,9.369-14.713,13.094-22.614c4.353-9.233,9.104-18.954,17.688-24.479"/>
	</g>
	<g>
		<path style="fill:#7343F7;" d="M139.502,374.932c-4.853-0.315-9.394-2.413-13.737-4.601c-4.343-2.188-8.708-4.533-13.491-5.412
			c-4.783-0.878-10.173-0.039-13.595,3.417c0.884-7.755-4.223-15.782-11.622-18.267c-7.399-2.485-16.316,0.832-20.293,7.548
			c1.011-4.682-0.247-9.693-2.876-13.697c-5.36-8.164-16.527-14.553-26.043-9.478c-5.962,3.18-8.979,9.088-9.897,15.502
			c-0.687,4.801-0.238,9.889,1.183,14.544c-3.841,0.508-7.285,3.677-8.376,7.493c-1.302,4.555,0.276,9.583,3.205,13.307
			s7.057,6.318,11.302,8.42c-0.175-8.792,4.178-17.051,10.946-22.666c15.134-12.556,35.501-0.245,50.955,4.914
			c10.158,3.391,20.791,6.047,31.473,5.297c10.683-0.749,21.51-5.336,27.746-14.042C152.492,372.351,145.935,375.35,139.502,374.932
			z"/>
		<path style="fill:#E297F8;" d="M221.484,403.474c-4.727,2.546-3.714,2.22-8.76,4.053c-19.214,6.98-40.49,0.452-59.552-6.932
			c-2.642-1.023-5.373-2.08-8.203-1.963c-2.83,0.118-3.858,2.75-4.615,5.48c-12.874-7.531-21.763-20.184-32.607-30.423
			c-1.77-1.671-3.64-3.31-5.881-4.262c-5.414-2.3-11.965-1.973-14.374,3.393c-4.471-4.385-9.46-8.426-15.319-10.635
			c-13.615-5.133-30.168,1.411-37.891,13.743c-7.711,12.314-6.876,28.986,0.703,41.382c2.173-3.485,4.915-6.541,8.622-8.53
			c4.985-4.145,10.873-7.322,16.81-9.594c4.287-1.641,8.78-2.818,13.357-3.246c0.865-0.081,1.74-0.129,2.618-0.147
			c7.037-1.265,14.277-1.375,21.336-0.213c23.824,3.925,43.823,21.042,67.578,25.361c24.498,4.455,49.904-5.612,69.067-21.51
			c7.109-5.898,12.672-15.114,21.865-16.017C245.839,381.645,233.945,396.762,221.484,403.474z"/>
		<path style="fill:#E9C0EE;" d="M31.332,431.112c2.735-5.089,7.183-9.401,11.742-12.781c8.216-6.091,17.907-10.496,27.79-13.072
			c5.792-1.51,11.793-2.021,17.763-2.165c8.558-0.207,17.123,0.558,25.552,2.021c8.325,1.445,16.44,3.648,24.495,6.173
			c0.781,0.245,1.564,0.483,2.347,0.721c-8.159-5.77-15.686-12.434-23.092-19.162c-3.843-3.491-7.706-7.038-12.223-9.597
			c-4.517-2.559-9.82-4.078-14.932-3.168c-5.111,0.909-10.318,3.745-11.519,8.796c-4.845-5.208-12.961-7.311-19.515-4.549
			c-6.555,2.762-12.007,9.658-10.213,16.541c-3.407-2.82-8.285-3.668-12.51-2.36c-4.225,1.308-7.717,4.666-9.389,8.761
			c-1.717,4.203-1.568,8.984-0.444,13.384C28.113,424.296,29.673,427.732,31.332,431.112z"/>
		
			<path style="fill:none;stroke:#F6F3F1;stroke-width:0.5471;stroke-linecap:round;stroke-linejoin:round;stroke-miterlimit:10;" d="
			M31.85,379.297c-1.383,4.764,2.65,9.886,7.494,10.956c4.844,1.07,9.91-1.043,13.77-4.16s6.819-7.18,10.142-10.864
			c3.616-4.009,7.696-7.598,12.133-10.674"/>
		
			<path style="fill:none;stroke:#F6F3F1;stroke-width:0.5471;stroke-linecap:round;stroke-linejoin:round;stroke-miterlimit:10;" d="
			M35.993,372.951c-0.801,2.479-0.322,5.335,1.244,7.417c1.566,2.082,4.178,3.334,6.782,3.251c4.203-0.134,7.616-3.421,10.04-6.858
			c3.545-5.027,5.954-10.851,6.995-16.914"/>
		
			<path style="fill:none;stroke:#F6F3F1;stroke-width:0.5471;stroke-linecap:round;stroke-linejoin:round;stroke-miterlimit:10;" d="
			M138.707,412.348c0.78-4.974,6.716-7.636,11.708-6.981c4.992,0.656,9.335,3.583,13.821,5.869
			c9.009,4.591,19.305,6.756,29.366,5.752c4.996-0.499,9.897-1.761,14.614-3.481c9.265-3.379,17.872-8.55,25.205-15.143
			c5.026-4.519,9.536-9.754,15.407-13.1c5.872-3.346,13.747-4.385,19.13-0.298"/>
	</g>
	<g>
		<g>
			<g>
				<path style="fill:#FAF1EA;" d="M219.827,255.473c-6.177,0.42-12.407,1.014-18.287,2.968c-5.359,1.781-14.703,6.52-15.165,6.681
					c-3.588,1.253-12.114,3.07-17.311,6.539c-0.339,0.226-0.686,0.476-0.869,0.842c-0.183,0.366-0.141,0.88,0.199,1.105
					c0.193,0.128,0.438,0.14,0.67,0.144c1.829,0.032,3.793-0.126,5.556,0.223c-11.032,6.837-23.094,12.488-35.926,14.485
					c-3.474,0.541-7.088,0.897-10.606,0.693c-3.704-0.214-3.326-1.692-4.061-4.959c-0.69-3.065-2.023-5.984-3.863-8.52
					c-0.421-0.58-5.792-6.437-6.248-5.83c-3.683,4.9-3.383,12.421,0.677,17.008c-6.456-1.087-13.367,1.046-18.114,5.589
					c1.852,1.09,3.845,1.929,5.909,2.515c6.438,1.83,13.597,1.207,19.579-1.837c2.049-1.042,2.255-1.719,4.29-0.639
					c1.47,0.78,2.835,1.804,4.295,2.616c3.053,1.696,6.243,3.138,9.525,4.32c12.997,4.677,27.39,4.978,40.73,1.309
					c24.31-6.685,42.155-27.478,66.325-35.261c2.707-0.871,6.145-2.33,8.748-3.461c0.181-0.434,0.355-0.87,0.548-1.3
					c0.445-0.994,0.935-2.069,1.503-3.113C245.58,254.467,232.571,254.607,219.827,255.473z"/>
			</g>
			<path style="fill:#F1E0D2;" d="M236.723,265.335c-8.319-1.968-16.537,2.379-23.286,6.768
				c-8.752,5.691-16.586,12.646-24.609,19.289c-0.53,0.439-1.395,0.179-1.401-0.581c-0.012-1.538-0.277-3.391-1.661-4.323
				c-2.255-1.518-5.522,0.061-7.438,1.423c-1.56,1.109-3.008,2.526-4.092,4.1c-1.154,1.674-2.071,3.494-3.076,5.259
				c-0.013,0.082-0.023,0.165-0.038,0.247c-0.052,0.293-0.216,0.465-0.419,0.542c-0.558,0.841-1.923,0.03-1.389-0.866
				c0.095-0.16,0.187-0.322,0.28-0.483c0.37-2.776-0.649-5.403-3.354-6.579c-2.304-1.001-5.04-0.799-7.345,0.079
				c-2.939,1.12-5.411,3.535-7.593,5.723c-1.761,1.766-3.449,3.622-5.351,5.237c11.468,2.988,23.742,2.953,35.119-0.419
				c22.13-6.559,39.377-24.321,60.507-33.287C240.127,266.489,238.507,265.757,236.723,265.335z"/>
			<path style="fill:#FAF1EA;" d="M220.372,278.114c-1.223,3.696-1.926,7.573-3.509,11.131c-3.059,6.876-9.077,11.905-14.896,16.679
				c4.079,1.646,8.62-0.608,12.317-2.992c6.481-4.179,12.885-9.399,15.347-16.707c1.28-3.8,3.787-12.567-0.383-15.351
				C224.462,267.678,221.5,274.705,220.372,278.114z"/>
			<g>
				
					<path style="fill:none;stroke:#F1E0D2;stroke-width:0.4684;stroke-linecap:round;stroke-linejoin:round;stroke-miterlimit:10;" d="
					M224.225,257.35c-0.958,0.664-1.615,1.899-1.263,3.01c0.285,0.901,1.166,1.515,2.086,1.729c1.129,0.263,2.403-0.023,3.219-0.846
					c0.816-0.823,1.076-2.191,0.503-3.198"/>
				<path style="fill:#E297F8;" d="M226.778,258.789c-0.186-0.114-0.394-0.188-0.603-0.249c-0.404-0.119-0.84-0.136-1.271-0.135
					c0.133,0.027,0.263,0.073,0.383,0.134c0.275,0.14,0.508,0.35,0.721,0.574c0.106,0.112,0.209,0.228,0.325,0.329
					c0.351,0.306,0.826,0.463,1.29,0.428C227.375,259.508,227.152,259.018,226.778,258.789z"/>
				<path style="fill:#1E0964;" d="M226.008,259.113c0.106,0.112,0.209,0.228,0.325,0.329c0.075,0.065,0.156,0.122,0.24,0.173
					c0.007-0.051,0.015-0.103,0.019-0.155c0.02-0.269-0.007-0.532-0.057-0.793c-0.117-0.05-0.238-0.091-0.361-0.128
					c-0.404-0.119-0.84-0.136-1.271-0.135c0.133,0.027,0.263,0.073,0.383,0.134C225.562,258.678,225.796,258.889,226.008,259.113z"
					/>
			</g>
			
				<path style="fill:none;stroke:#F1E0D2;stroke-width:0.5471;stroke-linecap:round;stroke-linejoin:round;stroke-miterlimit:10;" d="
				M255.273,256.987c0.258-0.096,0.505,0.244,0.434,0.509c-0.071,0.266-0.322,0.437-0.561,0.574
				c-2.867,1.648-6.378,1.692-9.659,1.285c-3.281-0.407-6.537-1.22-9.842-1.124c-1.118,0.033-2.253,0.174-3.301,0.582
				c-0.341,0.133-0.969,0.32-1.169,0.655c-0.183,0.307-0.081,0.919-0.172,1.28c-0.249,0.982-0.922,1.877-1.856,2.269"/>
			
				<path style="fill:none;stroke:#F1E0D2;stroke-width:0.5471;stroke-linecap:round;stroke-linejoin:round;stroke-miterlimit:10;" d="
				M242.383,258.979c0.157,0.739-0.317,1.453-0.783,2.048c-0.887,1.132-1.856,2.23-3.067,3.005
				c-1.895,1.212-4.208,1.533-6.438,1.825"/>
			
				<path style="fill:none;stroke:#F1E0D2;stroke-width:0.5471;stroke-linecap:round;stroke-linejoin:round;stroke-miterlimit:10;" d="
				M244.506,259.494c0.065,0.792-0.358,1.537-0.811,2.19c-2.186,3.148-5.47,5.517-9.146,6.599"/>
			
				<path style="fill:none;stroke:#F1E0D2;stroke-width:0.5471;stroke-linecap:round;stroke-linejoin:round;stroke-miterlimit:10;" d="
				M247.49,259.691c-0.424,2.307-2.002,4.273-3.894,5.659c-1.892,1.386-4.097,2.271-6.275,3.141"/>
			
				<path style="fill:none;stroke:#F1E0D2;stroke-width:0.5471;stroke-linecap:round;stroke-linejoin:round;stroke-miterlimit:10;" d="
				M237.844,258.152c-0.034,0.451-0.21,0.879-0.403,1.288c-1.729,3.662-5.105,6.507-9.007,7.59"/>
		</g>
		
			<path style="fill:none;stroke:#F1E0D2;stroke-width:0.5471;stroke-linecap:round;stroke-linejoin:round;stroke-miterlimit:10;" d="
			M217.306,256.318c-0.248,1.903-1.818,3.415-3.575,4.186c-1.758,0.771-3.707,0.944-5.61,1.196
			c-7.704,1.018-15.279,3.51-21.754,7.807c-9.925,6.585-17.429,17.387-28.93,20.483c-5.12,1.379-10.692,1.02-15.593-1.005"/>
		
			<path style="fill:none;stroke:#F1E0D2;stroke-width:0.5471;stroke-linecap:round;stroke-linejoin:round;stroke-miterlimit:10;" d="
			M222.431,272.924c0.844-0.482,1.981,0.008,2.517,0.819c0.536,0.811,0.614,1.834,0.623,2.806
			c0.104,11.061-7.362,21.796-17.768,25.549"/>
		
			<path style="fill:none;stroke:#F1E0D2;stroke-width:0.5471;stroke-linecap:round;stroke-linejoin:round;stroke-miterlimit:10;" d="
			M118.641,294.618c-0.294-1.158-1.178-2.102-2.216-2.695s-2.223-0.872-3.402-1.069c-5.257-0.877-10.763-0.205-15.655,1.911
			c4.692-2.625,11.659-5.585,16.956-4.664c3.245,0.564,6.602,2.013,8.206,4.89"/>
		<path style="fill:#F1E0D2;" d="M193.762,281c0,2.135-1.089,3.866-2.432,3.866c-1.343,0-2.432-1.731-2.432-3.866
			c0-2.135,1.089-3.866,2.432-3.866C192.673,277.134,193.762,278.865,193.762,281z"/>
	</g>
	<circle style="fill:#7343F7;" cx="107.097" cy="121.773" r="2.576"/>
	<path style="fill:#7343F7;" d="M125.848,115.179c0,0.546-0.442,0.988-0.988,0.988s-0.988-0.442-0.988-0.988
		s0.442-0.988,0.988-0.988S125.848,114.634,125.848,115.179z"/>
	<path style="fill:#7343F7;" d="M122.531,161.786c0,0.452-0.367,0.819-0.819,0.819c-0.452,0-0.819-0.367-0.819-0.819
		c0-0.452,0.367-0.819,0.819-0.819C122.164,160.967,122.531,161.333,122.531,161.786z"/>
	<path style="fill:#7343F7;" d="M224.837,180.354c0,1.244-1.008,2.252-2.252,2.252s-2.252-1.008-2.252-2.252
		s1.008-2.252,2.252-2.252S224.837,179.11,224.837,180.354z"/>
	<circle style="fill:#7343F7;" cx="203.463" cy="185.792" r="1.495"/>
	<path style="fill:#7343F7;" d="M204.163,170.786c0,0.606-0.492,1.098-1.098,1.098c-0.606,0-1.098-0.492-1.098-1.098
		c0-0.606,0.492-1.098,1.098-1.098C203.672,169.688,204.163,170.179,204.163,170.786z"/>
	<path style="fill:#7343F7;" d="M170.168,217.186c0,0.499-0.405,0.904-0.905,0.904c-0.5,0-0.905-0.405-0.905-0.904
		c0-0.5,0.405-0.905,0.905-0.905C169.763,216.281,170.168,216.686,170.168,217.186z"/>
	<path style="fill:#7343F7;" d="M115.592,209.604c0,0.826-0.669,1.495-1.495,1.495c-0.826,0-1.495-0.669-1.495-1.495
		c0-0.826,0.67-1.495,1.495-1.495C114.923,208.109,115.592,208.778,115.592,209.604z"/>
	<path style="fill:#7343F7;" d="M111.901,186.699c0,1.327-1.076,2.402-2.402,2.402c-1.327,0-2.402-1.076-2.402-2.402
		c0-1.327,1.076-2.402,2.402-2.402C110.825,184.297,111.901,185.372,111.901,186.699z"/>
	<circle style="fill:#7343F7;" cx="322.596" cy="199.855" r="2.078"/>
	<path style="fill:#7343F7;" d="M347.444,189.689c0,0.325-0.263,0.588-0.588,0.588c-0.325,0-0.589-0.263-0.589-0.588
		s0.263-0.589,0.589-0.589C347.18,189.101,347.444,189.364,347.444,189.689z"/>
	<circle style="fill:#7343F7;" cx="406.7" cy="298.787" r="1.823"/>
	<path style="fill:#7343F7;" d="M436.565,284.549c0,0.249,0.202,0.451,0.451,0.451c0.249,0,0.451-0.202,0.451-0.451
		c0-0.249-0.202-0.451-0.451-0.451C436.767,284.098,436.565,284.3,436.565,284.549z"/>
	<path style="fill:#7343F7;" d="M452.198,276.172c0,0.531-0.431,0.962-0.962,0.962c-0.531,0-0.962-0.431-0.962-0.962
		c0-0.531,0.431-0.962,0.962-0.962C451.767,275.21,452.198,275.641,452.198,276.172z"/>
	<path style="fill:#7343F7;" d="M422.133,319.131c0,0.521,0.422,0.943,0.943,0.943c0.521,0,0.943-0.422,0.943-0.943
		c0-0.521-0.422-0.943-0.943-0.943C422.555,318.188,422.133,318.61,422.133,319.131z"/>
	<path style="fill:#7343F7;" d="M327.533,303.527c0,0.789-0.64,1.429-1.429,1.429c-0.789,0-1.429-0.64-1.429-1.429
		c0-0.789,0.64-1.429,1.429-1.429C326.893,302.098,327.533,302.737,327.533,303.527z"/>
	<path style="fill:#7343F7;" d="M315.522,311.11c0,0.716-0.58,1.296-1.296,1.296c-0.716,0-1.296-0.58-1.296-1.296
		s0.58-1.296,1.296-1.296C314.941,309.814,315.522,310.394,315.522,311.11z"/>
	<path style="fill:#7343F7;" d="M149.395,324.261c0,2.313-1.875,4.187-4.187,4.187s-4.187-1.875-4.187-4.187
		s1.875-4.187,4.187-4.187S149.395,321.949,149.395,324.261z"/>
	<circle style="fill:#7343F7;" cx="127.627" cy="317.034" r="1.779"/>
	<path style="fill:#7343F7;" d="M158.711,315.87c0,0.643-0.521,1.164-1.164,1.164c-0.643,0-1.164-0.521-1.164-1.164
		s0.521-1.164,1.164-1.164C158.19,314.706,158.711,315.227,158.711,315.87z"/>
	<path style="fill:#7343F7;" d="M129.406,330.899c0,0.983-0.797,1.779-1.779,1.779c-0.983,0-1.779-0.797-1.779-1.779
		c0-0.983,0.797-1.779,1.779-1.779C128.609,329.12,129.406,329.917,129.406,330.899z"/>
	<path style="fill:#7343F7;" d="M174.274,317.159c0,0.568-0.461,1.029-1.029,1.029c-0.568,0-1.029-0.46-1.029-1.029
		c0-0.568,0.461-1.029,1.029-1.029C173.814,316.131,174.274,316.591,174.274,317.159z"/>
	<path style="fill:#7343F7;" d="M158.885,329.699c0,0.691-0.56,1.251-1.251,1.251c-0.691,0-1.251-0.56-1.251-1.251
		c0-0.691,0.56-1.251,1.251-1.251C158.325,328.448,158.885,329.008,158.885,329.699z"/>
	<path style="fill:#7343F7;" d="M120.122,345.792c0,0.734-0.595,1.329-1.329,1.329c-0.734,0-1.329-0.595-1.329-1.329
		c0-0.734,0.595-1.329,1.329-1.329C119.527,344.463,120.122,345.058,120.122,345.792z"/>
	<path style="fill:#7343F7;" d="M132.537,349.019c0,0.865-0.701,1.565-1.565,1.565c-0.864,0-1.565-0.701-1.565-1.565
		c0-0.864,0.701-1.565,1.565-1.565C131.836,347.453,132.537,348.154,132.537,349.019z"/>
</g>
</svg>
