<?xml version="1.0" encoding="utf-8"?>
<!-- Generator: Adobe Illustrator 27.5.0, SVG Export Plug-In . SVG Version: 6.00 Build 0)  -->
<svg version="1.1" xmlns="http://www.w3.org/2000/svg" xmlns:xlink="http://www.w3.org/1999/xlink" x="0px" y="0px"
	 viewBox="0 0 500 500" style="enable-background:new 0 0 500 500;" xml:space="preserve">
<g id="BACKGROUND">
	<rect style="fill:#FFFFFF;" width="500" height="500"/>
</g>
<g id="OBJECTS">
	<path style="fill:#F5E7D9;" d="M72.509,193.632c0.308-12.657,0.946-26.271,6.698-36.693c8.416-15.249,24.534-18.412,39.091-19.851
		c79.882-7.893,167.302-3.521,263.075,1.288c10.437,0.524,21.487,1.228,29.871,7.561c14.123,10.669,15.836,32.909,16.252,52.563
		c1.102,52.093,0.869,103.03-0.648,152.677c-0.341,11.17-1.467,23.805-9.925,30.676c-5.385,4.375-12.505,5.259-19.173,5.931
		c-77.61,7.827-149.46,9.16-215.765,4.772c-30.612-2.026-61.273-3.499-89.695-9.961c-22.681-5.157-18.105-38.727-18.946-60.589
		C71.738,280.273,71.442,237.482,72.509,193.632z"/>
	<g>
		<g>
			<path style="fill:#BC7C4D;" d="M140.089,249.213c0.119-0.377,0.076-0.79-0.294-1.125c-2.186-1.977-4.631-3.829-6.12-6.438
				c-0.688-1.206-0.823-2.683-1.087-4.047c-0.333-1.724-0.086-3.39-0.102-5.131c-0.032-3.34-1.9-6.426-3.487-9.176
				c-1.622-2.811-3.135-5.969-5.633-8.075c-1.039-0.876-2.142-1.693-2.992-2.763c-0.987-1.242-1.392-2.669-2.073-4.082
				c-1.285-2.667-3.3-4.875-5.31-6.983c-0.911-0.955-1.864-2.137-3.246-2.39c-1.332-0.244-2.523,0.505-3.302,1.583
				c-1.668,2.306-1.525,5.709-0.356,8.084c0.713,1.448,1.826,2.625,2.886,3.813c1.128,1.263,1.974,2.591,2.372,4.279
				c0.202,0.856,0.313,1.729,0.366,2.609c-0.745,0.095-1.49,0.189-2.236,0.288c-2.306,0.306-4.608,0.727-6.923,0.86
				c-2.304,0.133-4.62,0.166-6.911,0.016c-0.039-0.003-0.078-0.01-0.117-0.012c-0.092-0.891-0.182-1.781-0.276-2.67
				c-0.295-2.793-0.528-5.744-1.431-8.383c-0.805-2.353-3.082-4.632-5.826-3.535c-0.428,0.171-0.904,0.55-0.874,1.073
				c0.229,3.983,0.273,7.997,0.131,12.021c-0.499-0.11-1.001-0.209-1.498-0.327c-1.435-2.374-2.717-4.85-3.761-7.428
				c-1.734-4.283-2.306-12.927-8.817-12.202c-0.572,0.064-1.096,0.44-1.122,1.07c-0.208,5.071,1.374,9.793,3.353,14.359
				c-1.033-1.09-1.866-2.415-2.64-3.661c-1.117-1.799-2.175-3.636-3.337-5.401c-1.945-2.954-4.385-6.96-8.22-7.541
				c-1.794-0.272-3.498,0.874-3.111,2.844c0.063,0.32,0.175,0.629,0.303,0.933c-1.267,0.316-2.426,1.017-2.981,2.216
				c-0.56,1.21,0.074,2.113,0.787,2.996c0.886,1.096,1.82,2.152,2.789,3.176c1.907,2.016,3.951,3.889,6.048,5.714
				c0.151,0.131,0.308,0.255,0.46,0.386c0.491,1.014,0.988,2.026,1.473,3.044c0.86,1.81,1.648,3.72,3.201,5.035
				c1.393,1.18,3.071,1.891,4.794,2.493c2.326,0.813,4.649,1.618,6.957,2.465c0.761,1.813,1.511,3.634,2.229,5.472
				c0.715,1.833,1.56,3.779,2.787,5.314c1.165,1.458,2.811,1.972,4.548,2.475c1.831,0.531,3.66,1.071,5.492,1.603
				c0.646,0.614,1.296,1.224,2,1.79c3.904,3.143,8.147,5.878,12.185,8.872c4.627,3.43,9.163,7,13.801,10.45
				c0.382,0.284,1.058,0.158,1.385-0.191c4.539-4.848,9.319-9.549,13.524-14.65C140.18,249.969,140.209,249.557,140.089,249.213z"/>
			<path style="fill:#894E34;" d="M117.265,241.561c-1.681-5.371-7.313-8.095-12.225-9.689c-2.399-0.779-5.454-1.44-6.713-3.874
				c-1.368-2.644-2.214-5.701-2.539-8.684c-0.021-0.196-0.355-0.155-0.346,0.045c0.13,2.845,0.074,6.035,0.916,8.757
				c0.372,1.201,1.119,2.342,2.147,3.054c1.042,0.722,2.335,1.014,3.545,1.356c2.891,0.818,5.659,2.111,8.143,3.779
				c2.285,1.535,3.978,3.587,5.442,5.919C116.122,243,117.581,242.571,117.265,241.561z"/>
			<path style="fill:#894E34;" d="M92.947,239.814c-0.525-0.477-0.918-1.06-1.406-1.574c-0.49-0.516-0.943-1.059-1.345-1.649
				c-0.826-1.213-1.293-2.561-1.362-4.062c-0.157-3.391-0.107-6.835-0.835-10.13c-0.101-0.456-0.746-0.266-0.697,0.182
				c0.21,1.943,0.414,3.855,0.346,5.831c-0.034,0.99-0.083,1.989-0.256,2.973c-0.15,0.854-0.313,1.708-0.295,2.573
				c0.031,1.497,0.667,2.808,1.628,3.891c0.483,0.545,1.06,1.01,1.634,1.453c0.635,0.49,1.361,0.779,2.025,1.22
				C92.787,240.79,93.313,240.148,92.947,239.814z"/>
			<path style="fill:#894E34;" d="M80.86,226.73c-0.248-0.878-0.416-1.773-0.669-2.648c-0.261-0.904-0.527-1.807-0.799-2.707
				c-0.535-1.773-1.129-3.549-2.215-5.035c-0.38-0.519-1.085,0.064-1.027,0.577c0.206,1.827,0.956,3.537,1.665,5.197
				c0.355,0.831,0.705,1.665,1.05,2.501c0.345,0.837,0.758,1.635,1.09,2.479C80.153,227.599,81.008,227.253,80.86,226.73z"/>
			<path style="fill:#894E34;" d="M65.177,213.775c-1.203-3.134-2.303-6.435-4.173-9.207c-0.462-0.685-1.499-0.132-1.185,0.655
				c0.626,1.568,1.448,3.032,2.206,4.535c0.756,1.499,1.535,2.995,2.223,4.532C64.521,214.899,65.408,214.377,65.177,213.775z"/>
		</g>
		<path style="fill:#573821;" d="M353.052,499.762l-19.441,0.028l-4.035,0.014l-68.244,0.098l-4.382,0.014L200.165,500
			c0,0-0.022-5.17-0.155-7.764c-0.245-4.746-0.45-9.494-0.617-14.216c-0.511-15.057-0.701-29.98-0.385-44.758
			c0.404-19.425,1.677-38.609,4.241-57.516c0.027-0.196,0.092-0.367,0.168-0.524c-1.004-1.125-0.754-3.19,1.286-3.504
			c3.395-0.496,6.848-0.653,10.286-0.64c7.112,0.026,14.235,0.522,21.348,0.705c7.225,0.196,14.452,0.287,21.678,0.274
			c14.44-0.026,28.863-0.47,43.24-1.332c3.547-0.209,7.08-0.444,10.625-0.705c2.863-0.209,7.208-1.383,9.403,1.083
			c1.016,1.136,1.156,2.574,1.332,3.947c0.189,1.375,0.39,2.75,0.617,4.113c0.455,2.822,0.997,5.635,1.59,8.439
			c2.411,11.511,5.95,22.921,9.598,34.335c1.9,5.942,3.832,11.89,5.706,17.87c5.371,17.181,10.207,34.604,12.228,52.678
			C352.625,494.913,353.052,499.762,353.052,499.762z"/>
		<path style="fill:#382820;" d="M334.42,421.939c-3.648-11.414-7.187-22.824-9.598-34.335c-0.593-2.804-1.135-5.617-1.59-8.439
			c-0.226-1.363-0.428-2.739-0.617-4.113c-0.176-1.373-0.316-2.811-1.332-3.947c-2.194-2.466-6.54-1.292-9.403-1.083
			c-3.545,0.261-7.078,0.496-10.625,0.705c-14.376,0.862-28.8,1.306-43.24,1.332c-7.226,0.013-14.452-0.078-21.678-0.274
			c-7.113-0.183-14.235-0.679-21.348-0.705c-3.438-0.013-6.891,0.144-10.286,0.64c-2.04,0.314-2.29,2.379-1.286,3.504
			c-0.077,0.157-0.141,0.327-0.168,0.524c-2.564,18.907-3.837,38.091-4.241,57.516c6.091,0.54,12.197,1,18.292,1.445
			c14.417,1.041,28.842,1.961,43.287,2.773c26.454,1.489,53.042,2.899,79.538,2.329C338.251,433.828,336.32,427.881,334.42,421.939z
			"/>
		<path style="fill:#A67F64;" d="M339.417,449.796c-1.21,0.831-2.21,1.486-3.703,1.622c-1.342,0.136-2.737,0.123-4.094,0.136
			c-0.723,0-1.459-0.014-2.183-0.041c0.75,2.429,0.897,5.148,1.206,7.68c0.308,2.466,0.578,4.95,0.823,7.436
			c0.48,5.08,0.937,10.187,1.267,15.322c0.331,5.135,0.585,10.284,0.789,15.462c0.03,0.797,0.061,1.58,0.091,2.377l-4.035,0.014
			c-0.017-0.797-0.033-1.594-0.063-2.391c-0.158-5.052-0.379-10.104-0.664-15.129c-0.299-5.122-0.597-10.23-0.983-15.325
			c-0.191-2.473-0.383-4.957-0.561-7.438c-0.192-2.546-0.628-5.197-0.426-7.736c0.022-0.164,0.057-0.327,0.117-0.464
			c-1.132-0.123-2.263-0.273-3.384-0.504c-5.219-1.036-10.313-3.065-14.699-6.342c-8.43-6.307-14.136-16.124-15.448-26.895
			c-0.264-2.195,3.052-2.235,3.256,0c0.893,9.828,5.881,19.397,13.719,25.007c4.152,2.975,8.99,4.988,13.967,5.464
			c2.4,0.218,4.82,0.204,7.194-0.231c1.186-0.231,2.266-0.667,3.399-1.021c1.208-0.367,2.286-0.299,3.514-0.326
			C340.236,446.434,340.739,448.883,339.417,449.796z"/>
		<path style="fill:#382820;" d="M261.333,499.902l-4.382,0.014c-0.376-2.084-0.739-4.151-1.115-6.216
			c-0.517-2.843-1.047-5.668-1.549-8.488c-0.245-1.471-0.528-2.941-0.759-4.41c-0.077-0.513-0.18-1.011-0.244-1.523
			c-0.933-0.318-2.965-0.609-3.821-0.816c-1.763-0.429-3.513-0.844-5.275-1.258c-1.8-0.429-1.041-3.301,0.719-2.97
			c1.991,0.386,3.969,0.773,5.961,1.146c1.519,0.276,3.141,0.401,4.572,1.023c1.521,0.663,1.754,2.005,2.089,3.61
			c0.388,1.912,0.75,3.825,1.113,5.741C259.51,490.453,260.471,495.165,261.333,499.902z"/>
		<path style="fill:#525119;" d="M220.471,315.297c-0.979-1.961-2.111-3.815-3.35-5.58c-0.202-1.042-0.526-2.064-0.959-3.027
			c-1.757-3.908-5.335-6.527-8.716-8.801c-6.678-4.493-13.566-8.694-19.736-13.851c-6.172-5.159-11.217-11.098-14.691-18.429
			c-3.527-7.445-6.693-15.723-14.416-19.53c-3.491-1.721-7.286-2.436-11.172-1.565c-1.894,0.424-3.599,1.357-4.983,2.648
			c-0.293-0.581-0.549-1.146-0.769-1.521c-1.126-1.921-2.25-3.841-3.374-5.758c-0.62-1.058-2.224-1.474-3.162-0.436
			c-1.988,2.2-3.468,4.909-5.671,6.918c-2.265,2.065-4.594,4.066-6.958,6.021c-4.654,3.848-9.292,7.762-14.13,11.41
			c-0.989,0.746-1.771,2.451-0.591,3.431c3.923,3.258,8.058,6.25,12.316,9.074c-1.539,4.307-1.044,9.271,1.835,12.785
			c1.862,2.274,4.76,3.388,6.262,6.021c1.236,2.168,1.667,4.72,1.973,7.217c0.658,5.362,1.115,10.431,3.592,15.275
			c2.329,4.554,5.883,8.308,9.907,11.309c2.33,1.738,4.93,3.087,7.667,4.033c1.353,0.468,2.746,0.815,4.161,1.04
			c0.826,0.131,1.709,0.279,2.586,0.322c1.719,4.435,2.889,9.101,4.878,13.464c2.12,4.65,4.915,9.165,8.53,12.712
			c3.468,3.402,7.622,5.673,12.062,7.432c4.517,1.789,9.279,1.906,13.912,0.253c0.281-0.1,0.514-0.244,0.723-0.405
			c8.64-1.047,16.821-6.775,21.657-14.277C227.211,342.065,226.251,326.879,220.471,315.297z"/>
		<path style="fill:#525119;" d="M211.545,195.526c-0.305-0.237-0.693-0.402-1.165-0.45c-3.977-0.39-8.017-0.426-11.985,0.272
			c-3.673,0.651-7.463,2.51-10.483,4.728c-5.582,4.098-8.959,10.604-10.51,17.277c-2.041,8.781-1.252,17.788-0.204,26.659
			c0.307,2.569,0.614,5.154,0.934,7.73c0.185,1.552,0.37,3.094,0.567,4.637c0.652,5.337,1.317,10.691,1.997,16.06
			c0.704,5.497,1.397,11.012,2.106,16.53c0.656,5.186,1.438,10.298,3.408,15.149c0.725,1.763,3.373,1.574,4.204,0
			c13.75-25.984,19.363-54.806,22.419-82.89c0.856-7.932,1.506-15.84,2.083-23.725C215.068,195.467,212.983,194.816,211.545,195.526
			z"/>
		<path style="fill:#E4A754;" d="M196.166,259.076c-0.017,1.117-1.034,2.308-2.201,2.21c-5.241-0.479-10.812-1.94-15.265-4.907
			c-0.197-1.543-0.383-3.084-0.567-4.637c1.418,1.149,2.997,2.091,4.63,2.825c3.589,1.604,7.382,1.984,11.273,2.29
			C195.2,256.955,196.186,257.801,196.166,259.076z"/>
		<path style="fill:#E4A754;" d="M198.171,274.697c-0.016,1.127-1.038,2.329-2.209,2.229c-5.265-0.483-10.861-1.957-15.335-4.951
			c-0.199-1.557-0.386-3.112-0.572-4.678c1.425,1.159,3.012,2.109,4.652,2.85c3.605,1.618,7.415,2.001,11.324,2.31
			C197.2,272.557,198.19,273.41,198.171,274.697z"/>
		<path style="fill:#525119;" d="M412.894,318.457c-0.919-2.484-1.095-4.497-0.426-7c2.237-8.458,7.888-16.175,7.381-25.305
			c-0.245-4.392-2.182-8.488-5.278-11.61c-2.509-2.535-5.987-4.969-9.397-6.239c-0.409-1.923-0.769-3.819-1.035-5.763
			c-0.329-2.297-0.081-4.629-0.169-6.932c-0.044-1.016-1.018-2.142-2.083-2.032c-10.291,1.04-20.581,0.967-30.902-0.721
			c-1.413-0.232-2.754,0.624-2.714,2.19c0.014,0.784,0.04,1.568,0.066,2.34c0.08,2.024,0.195,4.037,0.359,6.053l0,0.012
			c0.103,1.292,0.218,2.56,0.358,3.842c-1.282,0.616-2.452,1.356-3.509,2.232c0,0,0,0.012-0.012,0.012
			c-1.906,1.531-3.428,3.434-4.592,5.612c0.001,0.025-0.011,0.025-0.023,0.025c-0.102,0.223-0.216,0.446-0.33,0.669
			c-0.027-0.087-0.041-0.161-0.068-0.248c-0.529-1.857-1.058-3.724-1.585-5.577l0-0.012c-0.026-0.074-0.041-0.148-0.067-0.222
			c-0.555-1.962-1.109-3.933-1.687-5.891c-0.203-0.75-0.43-1.488-0.646-2.238c-0.484-1.695-0.98-3.376-1.499-5.055
			c-0.174-0.588-0.359-1.176-0.533-1.764c-0.532-1.737-1.075-3.473-1.642-5.195c-1.831-5.69-3.834-11.302-6.114-16.786
			c-5.021-12.047-11.584-25.872-23.687-31.984c-6.681-3.38-14.325-3.036-21.504-2.313c-8.163,0.83-16.236,1.518-24.486,1.138
			c-4.036-0.19-8.073-0.617-12.062-1.281c-1.042-0.166-1.844,0.344-2.303,1.055c-0.685,0.38-1.215,1.104-1.306,2.267
			c-0.137,1.604,0.78,3.067,1.615,4.376c1.002,1.584,2.111,3.086,3.269,4.566c4.449,5.679,9.859,10.548,14.314,16.286
			c8.893,11.447,13.64,25.583,18.238,39.389c2.408,7.259,4.837,14.535,7.687,21.691c2.025,5.12,4.321,10.143,6.757,15.103
			c4.6,11.354,9.764,22.539,15.544,33.511c2.234,4.246,4.535,8.45,6.913,12.625c2.165,3.797,4.299,7.706,6.911,11.207
			c2.656,3.599,5.866,6.385,9.871,8.17c4.021,1.774,8.283,2.74,12.501,3.838c9.371,2.419,18.801,4.775,28.338,6.361
			c2.191,0.354,4.393,0.669,6.595,0.957c2.289,0.289,4.774,0.8,6.895-0.249c3.862-1.875,3.791-7.736,4.415-11.585
			c0.829-5.077,1.592-10.152,2.342-15.2c0.722-4.789,1.517-9.553,1.875-14.382c0.342-4.624,0.383-9.35-0.625-13.951
			C414.395,322.393,413.632,320.437,412.894,318.457z"/>
		<path style="fill:#525119;" d="M335.88,418.375c0-0.04,0-0.08-0.01-0.12c-0.28-1.63-0.55-3.26-0.83-4.89
			c-1.49-8.89-2.91-17.76-3.87-26.64c-1.11-10.26-1.47-20.51-1.44-30.69c0.04-10.39,0.46-20.68,1.12-30.91
			c0.32-4.89,0.65-9.76,0.94-14.62c0.29-4.94,0.7-9.91,0.32-14.85c-0.37-4.82-1.63-9.35-3.79-13.66c-2.07-4.13-4.66-7.95-6.88-11.97
			c-4.51-8.19-8.02-16.84-11.5-25.41c-3.32-8.18-6.41-16.72-11.37-24c-2.47-3.6-5.41-6.72-8.73-9.51c-3.24-2.73-6.68-5.2-9.82-8.02
			c-3.28-2.93-5.74-6.73-9.2-9.41c-4.05-3.13-9.04-3.33-13.94-3.53c-10.5-0.43-21.04,0.02-31.48,1.35
			c-0.27-0.17-0.61-0.27-1.04-0.25c-4.03,0.14-8.04,0.3-12.07,0.56c-3.49,0.22-7.21,0.18-10.6,1.22c-2.83,0.87-5.7,2.02-7.69,4.33
			c-2.17,2.51-2.82,5.78-3.35,8.95c-2.74,16.29-4.61,32.95-5.9,49.71c-2.6,33.95-0.24,68.45,4.39,103.3
			c1.3,9.76,2.78,19.54,4.37,29.35c0.8,4.98,1.64,9.97,2.49,14.96c0.45,2.64,0.85,5.3,1.3,7.95c0.42,2.48,0.88,4.96,1.46,7.4
			c0.33,1.4,1.33,1.9,2.3,1.75c0.36,0.36,0.86,0.59,1.5,0.6c34.13,0.54,68.29,0.15,102.43,0.15h14.45c4.82,0,9.67,0.21,14.45-0.35
			C335.47,420.945,336.12,419.585,335.88,418.375z"/>
		<g>
			<path style="fill:#E4A754;" d="M311.232,279.553c-28.983,3.907-58.937,4.343-88.164,1.046
				c-12.191-1.375-25.278-3.255-35.624-8.241c-3.066-1.478-5.706,2.011-2.9,3.549c2.348,1.287,4.622,2.577,7.269,3.552
				c2.644,0.974,5.467,1.755,8.281,2.449c5.389,1.328,10.98,2.226,16.6,2.941c11.81,1.501,23.797,2.418,35.807,2.754
				c19.907,0.558,39.92-0.522,59.49-3.122C311.747,282.836,311.496,281.193,311.232,279.553z"/>
			<path style="fill:#E4A754;" d="M316.616,306.211c-0.456-1.308-0.858-2.632-1.224-3.966c-5.77,0.99-11.592,1.838-17.451,2.536
				c-23.236,2.768-47.473,3.343-70.817,0.988c-13.225-1.334-26.271-3.782-38.101-8.212c-3.888-1.456-7.433,2.879-3.51,4.35
				c21.882,8.208,47.335,10.273,71.854,10.275c20.049,0.002,40.118-1.703,59.595-5.041
				C316.848,306.83,316.725,306.523,316.616,306.211z"/>
		</g>
		<g>
			<path style="fill:#BC7C4D;" d="M441.908,226.936c0.535-2.684,1.061-5.367,1.56-8.051c0.254-1.365,0.517-2.726,0.76-4.091
				c0.205-1.152,0.532-2.337,0.568-3.516c0.027-0.895-0.266-1.846-1.103-2.331c-0.944-0.548-2.077-0.18-2.941,0.249
				c-1.742,0.865-2.831,2.619-3.596,4.357c-0.965,2.193-1.699,4.516-2.52,6.779c-0.434,1.195-0.777,2.654-1.698,3.562
				c-0.598,0.589-1.415,0.825-2.228,0.993c-0.452,0.093-0.909,0.16-1.366,0.221c0.112-0.342,0.234-0.68,0.342-1.022
				c0.448-1.418,0.943-2.827,1.338-4.261c0.362-1.316,0.258-2.627-0.185-3.952c-0.991-2.969-2.142-5.889-3.142-8.846
				c-0.894-2.642-1.708-5.309-2.73-7.902c-1.087-2.757-2.4-5.372-4.306-7.679c-0.203-0.246-0.678-0.385-0.967-0.28
				c-4.77,1.732-3.142,8.699-2.387,12.589c0.534,2.754,1.517,5.465,1.893,8.247c0.421,3.113-0.69,5.674-1.921,8.389
				c-0.217,0.477-0.439,0.953-0.66,1.429c-1.216,0.189-2.69-0.551-3.184-1.946c-0.41-1.158-0.465-2.457-0.705-3.65
				c-0.264-1.311-0.515-2.59-1.143-3.793c-1.264-2.422-2.922-4.636-4.48-6.869c-1.841-2.64-3.68-5.277-5.515-7.909
				c-0.844-1.21-1.627-2.528-2.611-3.631c-0.816-0.914-1.967-1.415-3.131-1.043c-2.739,0.875-2.263,4.136-1.703,6.383
				c1.277,5.121,4.091,9.738,6.499,14.449c0.663,1.297,1.422,2.632,1.829,4.03c0.464,1.595-0.245,3.152-0.73,4.619
				c-0.053,0.16-0.105,0.321-0.158,0.482c-1.01-2.593-2.168-5.128-3.505-7.571c-2.419-4.417-5.372-8.46-8.18-12.608
				c-0.59-0.871-1.158-2.016-2.118-2.529c-0.779-0.416-1.67-0.253-2.28,0.321c-1.393,1.31-1.536,3.92-1.492,5.746
				c0.114,4.672,2.92,8.523,4.524,12.822c0.892,2.391,1.545,4.873,1.926,7.388c0.041,0.268,0.063,0.538,0.097,0.808
				c-0.676,0.393-1.343,0.805-1.994,1.247c-3.327,2.258-6.262,4.992-9.117,7.829c-1.548,1.538-2.954,3.223-3.865,5.248
				c-0.922,2.05-1.271,4.383-1.702,6.601c-1.052,5.41-2.348,10.776-3.471,16.204c-0.081,0.39,0.06,0.702,0.285,0.926
				c-0.014,0.07-0.043,0.138-0.044,0.207c-0.004,0.706,0.547,1.121,1.166,1.219c8.205,1.301,16.309,3.68,24.035,7.027
				c0.174,0.075,0.342,0.088,0.502,0.067c0.344,0.209,0.893,0.118,1.015-0.347c1.217-4.662,1.898-9.478,2.868-14.181
				c0.481-2.329,1.012-4.644,1.632-6.926c1.419-1.393,3.079-2.482,4.804-3.458c2.046-1.158,4.137-2.255,6.286-3.21
				c3.938-1.75,8.227-2.69,11.955-4.878c0.91-0.535,1.578-1.099,1.982-1.978c0.232-0.337,0.436-0.704,0.59-1.132
				c0.089-0.247,0.156-0.507,0.229-0.762c1.317-0.559,2.639-1.106,3.974-1.619c2.272-0.874,4.635-1.508,6.91-2.359
				c1.09-0.408,2.013-1.058,2.435-2.191C441.49,229.626,441.651,228.223,441.908,226.936z"/>
			<path style="fill:#894E34;" d="M405.987,232.104c-0.517-1.354-1.236-2.646-1.824-3.971c-0.654-1.472-1.327-2.922-2.069-4.35
				c-0.173-0.333-0.71-0.125-0.595,0.233c0.853,2.634,2.026,5.17,2.863,7.815c0.327,1.032,0.416,2.03-0.386,2.807
				c-0.712,0.689-1.542,1.201-2.123,2.026c-0.418,0.593,0.49,1.143,0.966,0.753c0.853-0.697,1.969-0.956,2.75-1.763
				C406.527,234.667,406.469,233.366,405.987,232.104z"/>
			<path style="fill:#894E34;" d="M416.727,231.236c-0.296-1.817-0.762-3.62-1.175-5.414c-0.823-3.573-1.716-7.12-2.632-10.66
				c-0.137-0.528-0.876-0.326-0.787,0.188c0.532,3.046,1.072,6.095,1.623,9.149c0.276,1.528,0.545,3.058,0.804,4.591
				c0.121,0.715,0.247,1.43,0.371,2.146c0.057,0.325,0.162,0.759,0.004,1.062c-0.068,0.092-0.143,0.177-0.227,0.255
				c-0.141,0.21-0.173,0.246-0.096,0.109c-0.633,0.355-0.341,1.406,0.403,1.421C416.586,234.114,416.946,232.579,416.727,231.236z"
				/>
			<path style="fill:#894E34;" d="M428.077,234.868c0.221-1.651,0.437-3.276,0.748-5.256c0.555-3.529,1.159-7.059,1.944-10.518
				c0.11-0.485-0.604-0.684-0.749-0.219c-0.994,3.188-1.89,6.4-2.584,9.695c-0.336,1.596-0.623,3.202-0.868,4.822
				c-0.215,1.425-0.337,3.077-1.139,4.285c-0.307,0.462,0.37,1.17,0.826,0.83C427.472,237.6,427.877,236.366,428.077,234.868z"/>
		</g>
		<path style="fill:#E4A754;" d="M354.504,254.836c-0.024,0.012-0.059,0.037-0.082,0.061c-3.737,2.989-8.143,5.087-12.749,6.61
			c-5.722,1.881-11.733,3-17.787,3.382c-2.901,0.185-5.841,0.209-8.752-0.098c-2.343-0.271-4.303-0.726-5.995-2.46
			c-0.27-0.295,0.072-0.737,0.424-0.541c2.2,1.143,4.963,0.737,7.295,0.516c2.705-0.258,5.397-0.541,8.073-0.983
			c5.181-0.884,10.266-2.21,15.153-4.013c3.835-1.433,7.657-3.196,10.755-5.788c0.703-0.599,1.394-1.221,2.023-1.881
			C353.429,251.363,353.972,253.099,354.504,254.836z"/>
		<path style="fill:#E4A754;" d="M357.181,263.893c-3.439,3.534-7.53,6.483-12.065,8.868c-5.245,2.759-10.854,4.829-16.586,6.516
			c-5.557,1.651-11.369,3.553-17.267,2.223c-1.07-0.236-1.457,1.193-0.577,1.691c4.235,2.389,9.228,2.315,13.855,1.555
			c5.072-0.821,10.106-2.115,14.92-3.855c7.11-2.569,13.852-6.187,19.406-11.107L357.181,263.893z"/>
		<path style="fill:#894E34;" d="M273.531,193.982c-0.189-0.773-0.753-1.093-1.342-1.098c-0.671-0.616-1.651-0.905-2.683-0.413
			c-3.623,1.725-7.815,1.445-11.725,1.399c-4.414-0.051-8.827,0.122-13.222,0.536c-7.18,0.676-17.443,1.018-20.098,9.319
			c-1.076,3.366-0.161,7.144,2.248,9.676c2.559,2.689,6.013,3.651,9.646,3.664c7.533,0.027,15.248-1.74,22.027-5.002
			c3.869-1.862,7.475-4.363,10.615-7.28C272.001,201.993,274.579,198.272,273.531,193.982z"/>
		<path style="fill:#E4A754;" d="M277.508,201.044c-4.199,7.086-9.817,13.458-16.817,17.934c-7.225,4.62-16.204,7.565-24.842,7.031
			c-5.224-0.323-10.725-2.361-13.494-7.068c-0.451-0.766-1.611-0.103-1.202,0.685c5.017,9.681,16.455,11.014,26.132,9.054
			c9.056-1.834,17.796-6.733,24.111-13.462c3.644-3.882,6.481-8.289,8.294-13.287C280.16,200.636,278.168,199.93,277.508,201.044z"
			/>
		<g>
			<g>
				<path style="fill:#2F2521;" d="M312.585,155.165c-2.729-3.775-7.371-7.208-7.925-12.071c-0.548-4.809,1.927-9.424,2.279-14.135
					c0.36-4.825-1.775-9.17-5.917-11.845c-4.104-2.65-9.248-2.927-13.966-2.111c-0.512-1.967-1.497-3.879-2.417-5.168
					c-2.553-3.577-6.947-5.919-11.349-6.321c-2.55-0.233-5.197,0.495-7.708,0.111c-2.242-0.342-4.901-0.789-6.882-1.916
					c-1.935-1.101-3.398-2.846-5.367-3.908c-2.11-1.139-4.465-1.323-6.75-0.572c-4.49,1.475-7.539,5.861-9.566,9.826
					c-2.488,4.866-4.435,10.018-5.574,15.376c-0.46,2.161-0.699,4.352-0.826,6.555c-0.542,0.67-1.025,1.402-1.438,2.204
					c-0.594,1.152-0.204,2.285,0.827,3.015c4.17,2.948,6.364,8.304,8.777,12.615c3.041,5.434,6.091,10.886,9.152,16.355
					c3.023,5.402,6.055,10.82,9.096,16.256c1.441,2.575,2.808,5.216,4.353,7.741c1.253,2.048,2.89,3.982,5.276,4.699
					c2.849,0.856,6.291-0.074,9.166-0.406l9.291-1.074c3.193-0.369,6.385-0.738,9.576-1.106c3.009-0.348,6.211-0.505,9.145-1.231
					c2.227-0.551,4.545-1.719,5.534-3.886c0.886-1.942,0.79-4.215,0.501-6.296c-0.275-1.982-1.352-4.735,0.692-5.969
					c1.953-1.179,3.498-2.458,4.325-4.635C316.395,163.301,315.024,158.538,312.585,155.165z"/>
				<path style="fill:#BC7C4D;" d="M291.607,177.783c0.012,0.012-8.707,6.831-11.959,10.661
					c-17.78,20.942-38.757,30.674-63.001,8.692c-8.083-7.328-9.193-16.88-7.802-26.052c0.114-0.735,0.24-1.481,0.39-2.227
					c0.3-1.596,0.682-3.178,1.098-4.725c0.587-2.183,1.254-4.306,1.943-6.322c0.133-0.394,0.266-0.787,0.398-1.169
					c0.096-0.255,0.181-0.509,0.277-0.764c0.398-1.133,0.794-2.231,1.179-3.27c4.572-12.526,10.426-20.905,16.708-26.246
					c2.594-2.193,5.263-3.884,7.939-5.131c7.96-3.714,16.094-3.567,22.848-1.507C285.69,127.067,307.73,147.95,291.607,177.783z"/>
				<g>
					<path style="fill:#2F2521;" d="M258.413,169.205c-1.417,2.747-4.02,4.32-5.814,3.509c-1.792-0.811-2.091-3.695-0.671-6.438
						c1.418-2.739,4.015-4.302,5.804-3.496C259.52,163.586,259.827,166.461,258.413,169.205z"/>
				</g>
				<g>
					<path style="fill:#2F2521;" d="M232.686,156.711c-1.393,2.747-3.975,4.345-5.767,3.564c-1.791-0.781-2.109-3.641-0.713-6.384
						c1.393-2.739,3.97-4.327,5.757-3.551C233.751,151.117,234.076,153.968,232.686,156.711z"/>
				</g>
				<path style="fill:#2F2521;" d="M223.583,140.238c1.417-0.429,3.045-1.039,4.566-0.791c1.493,0.234,2.688,1.339,3.82,2.244
					c0.797,0.638,1.684,1.279,2.624,1.726c1.459,0.691,3.025,0.917,4.523-0.098c0.088-0.065,0.135-0.126,0.183-0.196
					c0.468-0.329,0.764-0.798,0.526-1.378c-0.184-0.448-0.619-0.642-1.034-0.824c-0.331-0.141-0.626-0.336-0.908-0.547
					c-0.037-0.024-0.073-0.058-0.109-0.082c-1.177-0.948-1.979-2.276-3.008-3.365c-1.154-1.202-2.516-2.154-4.195-2.471
					c-1.739-0.315-3.479,0.019-4.96,0.897c-1.384,0.815-2.737,2.161-3.24,3.693C222.115,139.806,222.806,140.477,223.583,140.238z"
					/>
				<g>
					<path style="fill:#BC7C4D;" d="M280.181,176.94c3.333-0.923,7.324-1.188,10.778,0.517c4.35,2.148,6.464,6.767,6.589,10.758
						c0.18,5.743-2.992,11.015-8.346,13.743c-5.914,3.014-17.66,3.384-23.652-2.487c-5.985-5.863-0.041-11.896,3.643-15.941
						C271.969,180.484,275.766,178.163,280.181,176.94z"/>
				</g>
				<path style="fill:#2F2521;" d="M259.466,143.202c-0.615,1.533-1.135,3.102-0.924,4.804c0.217,1.695,1.382,3.032,2.807,3.98
					c1.721,1.133,3.795,1.565,5.543,2.658c1.659,1.03,2.781,2.629,3.384,4.436c0.225,0.654,1.216,0.748,1.407,0.04
					c0.839-3.051,0.842-6.741-1.55-9.213c-1.415-1.468-3.361-2.223-5.171-3.086c-1.405-0.669-3.701-1.761-3.816-3.525
					c-0.058-0.881-1.161-1.01-1.492-0.368C259.575,143.003,259.513,143.087,259.466,143.202z"/>
				<g>
					<path style="fill:#894E34;" d="M224.933,164.851c1.761-1.381,4.117-2.064,6.01-3.291c1.911-1.238,3.589-2.716,5.236-4.212
						c1.859-1.69,3.654-3.467,5.405-5.243c0.353-0.357,1.094,0.236,0.827,0.64c-1.425,2.151-2.815,4.274-4.527,6.241
						c-1.711,1.965-3.733,3.663-6.047,5.055c-1.11,0.667-2.311,1.198-3.479,1.788c-1.117,0.564-2.367,1.261-2.635,2.514
						c-0.502,2.347,2.398,4.732,4.19,6.358c0.7,0.635-0.106,1.485-0.895,1.014c-2.257-1.348-4.344-2.863-5.388-5.165
						C222.616,168.313,223.211,166.202,224.933,164.851z"/>
					<path style="fill:#894E34;" d="M274.141,193.318c0.363,1.337,1.679,1.76,2.863,1.31c0.772-0.293,1.132-1.118,1.566-1.755
						c0.086-0.125,0.175-0.247,0.266-0.369c0.009-0.012,0.015-0.019,0.023-0.029c0.186-0.198,0.366-0.399,0.563-0.586
						c0.2-0.19,0.407-0.371,0.623-0.543c0.021-0.017,0.168-0.128,0.239-0.183c0.059-0.04,0.155-0.105,0.171-0.115
						c0.465-0.3,0.954-0.563,1.462-0.788c0.136-0.061,0.275-0.116,0.413-0.174c0.032-0.014,0.061-0.025,0.085-0.035
						c0.267-0.093,0.538-0.177,0.81-0.252c0.521-0.143,1.053-0.257,1.585-0.357c1.21-0.227,2.031-0.277,3.199-0.425
						c1.38-0.174,1.465-2.474,0.062-2.756c-0.7-0.141-1.386-0.275-2.097-0.291c-0.734-0.017-1.462,0.017-2.192,0.077
						c-1.325,0.109-2.583,0.441-3.817,0.898c-1.292,0.479-2.486,1.2-3.527,2.085C275.281,190.013,273.689,191.653,274.141,193.318z"
						/>
					<g>
						<g>
							<path style="fill:#894E34;" d="M239.788,184.678c-0.494-1.242-1.249-2.419-2.312-3.252c-2.055-1.609-5.083-2.319-7.408-0.767
								c-0.731,0.488-1.15,1.482-0.646,2.289c0.471,0.754,1.483,1.118,2.292,0.632c0.11-0.066,0.221-0.125,0.334-0.185
								c0.1-0.023,0.198-0.062,0.299-0.087c0.024-0.006,0.071-0.021,0.117-0.036c0.176-0.036,0.396-0.02,0.565-0.012
								c0.025,0.001,0.061-0.001,0.096-0.003c0.091,0.001,0.199,0.037,0.281,0.055c0.231,0.051,0.455,0.121,0.678,0.198
								c0,0,0,0,0.001,0c0.098,0.048,0.199,0.089,0.297,0.137c0.214,0.107,0.422,0.227,0.621,0.36
								c0.017,0.011,0.019,0.015,0.033,0.024c-0.015-0.016-0.029-0.028-0.043-0.048c0.019,0.026,0.056,0.054,0.088,0.081
								c0.026,0.021,0.04,0.033,0.04,0.036c0.061,0.048,0.125,0.094,0.168,0.132c0.715,0.634,1.316,1.38,1.901,2.133
								c0.027,0.038,0.143,0.193,0.155,0.209c0.07,0.098,0.139,0.197,0.207,0.297c0.15,0.219,0.293,0.442,0.447,0.658
								c0.329,0.462,0.669,0.913,1.066,1.318c0.538,0.547,1.536,0.142,1.527-0.632C240.581,186.989,240.238,185.808,239.788,184.678
								z"/>
							<path style="fill:#894E34;" d="M235.038,184.031c0.049,0.053,0.085,0.077,0.085,0.07c-0.016-0.012-0.025-0.024-0.04-0.036
								C235.071,184.055,235.056,184.044,235.038,184.031z"/>
						</g>
						<path style="fill:#894E34;" d="M234.767,188.471c-0.016-0.052-0.09-0.236-0.115-0.286c-0.107-0.211-0.306-0.357-0.503-0.476
							c-0.07-0.042-0.136-0.088-0.201-0.137c0.094,0.072,0.188,0.144,0.282,0.215c-0.08-0.063-0.162-0.123-0.244-0.184
							c-0.163-0.131-0.317-0.272-0.503-0.376c-0.089-0.05-0.173-0.107-0.255-0.168c-0.14-0.094-0.289-0.172-0.458-0.217
							c-0.131-0.017-0.262-0.033-0.392-0.05c-0.272,0.001-0.527,0.068-0.765,0.201c-0.191,0.1-0.344,0.238-0.458,0.416
							c-0.14,0.152-0.233,0.331-0.28,0.536c-0.06,0.196-0.069,0.392-0.028,0.589c0.008,0.202,0.066,0.392,0.173,0.568
							c0.141,0.246,0.334,0.44,0.579,0.582c0.251,0.151,0.53,0.263,0.806,0.355c0.17,0.057,0.405,0.063,0.596,0.053
							c0.044-0.002,0.089-0.006,0.133-0.011c0.145-0.016,0.299-0.022,0.441-0.063c0.074-0.021,0.147-0.047,0.219-0.076
							c0.125-0.049,0.252-0.098,0.374-0.154c0.067-0.031,0.084-0.053,0.163-0.113c0.146-0.111,0.216-0.169,0.32-0.354
							c0.081-0.13,0.124-0.269,0.132-0.418C234.815,188.76,234.809,188.616,234.767,188.471z"/>
					</g>
				</g>
				<path style="fill:#2F2521;" d="M293.84,134.952c-3.928-5.029-9.034-9.422-14.425-12.826c-5.537-3.498-11.7-5.622-18.259-6.012
					c-3.898-0.232-7.971-0.239-11.853,0.209c-1.825,0.21-3.56,0.627-5.278,1.267c-1.031,0.384-2.07,0.893-3.124,1.329
					c-0.868,0.196-1.726,0.47-2.587,0.852c-0.718,0.318-0.391,1.533,0.39,1.465c4.35-0.379,8.92-0.144,13.645,0.545
					c0.839,2.651,3.422,4.183,5.974,5.18c3.847,1.503,7.821,2.709,11.73,4.062c0.937,0.324,2.036,0.608,2.872,1.167
					c0.968,0.647,0.283,1.187,0.184,2.118c-0.173,1.628,0.83,3.247,1.811,4.478c1.064,1.335,2.577,2.32,4.004,3.243
					c1.668,1.079,3.2,2.204,4.563,3.654c0.637,0.677,1.351,1.436,1.784,2.261c0.498,0.949,0.26,1.527-0.286,2.368
					c-1.045,1.608-2.639,2.794-3.693,4.401c-1.423,2.169-2.354,5.714-1.014,8.148c0.876,1.59,2.564,2.087,2.142,4.173
					c-0.432,2.129-2.099,4.199-3.395,5.887c-1.146,1.493-2.405,3.007-3.83,4.251c-1.192,1.041-2.83,1.957-1.918,3.828
					c0.771,1.58,2.712,2.154,4.313,1.66c1.797-0.554,3.063-2.246,4.614-3.231c1.79-1.137,3.785-1.674,5.902-1.807
					c2.068-0.131,4.277,0.557,6.24-0.069c0.729-0.232,1.027-1.14,0.46-1.716c0.274-0.205,0.498-0.505,0.628-0.914
					c2.166-6.847,3.515-14.026,3.762-21.172C299.43,146.993,298.093,140.395,293.84,134.952z"/>
			</g>
			<path style="fill:#A45C37;" d="M264.371,184.533c-1.171,2.096-4.612,2.402-7.682,0.682c-3.067-1.718-4.598-4.805-3.422-6.893
				c1.174-2.086,4.605-2.39,7.668-0.679C264,179.354,265.541,182.439,264.371,184.533z"/>
			<path style="fill:#A45C37;" d="M220.076,162.808c-0.664,2.277-3.931,3.371-7.284,2.44c-0.923-0.256-1.75-0.639-2.459-1.116
				c0.587-2.183,1.254-4.306,1.943-6.322c0.133-0.394,0.266-0.787,0.398-1.169c0.818-0.012,1.682,0.093,2.544,0.336
				C218.564,157.915,220.74,160.522,220.076,162.808z"/>
		</g>
		<path style="fill:#382820;" d="M188.282,339.048c-0.78-9.808-1.394-19.583-1.82-29.315c-0.836-19.111-0.867-38.049-0.445-56.793
			c0.238-10.568,0.412-21.127,1.097-31.557c0.075-1.144-1.64-1.12-1.749,0c-0.898,9.272-1.913,18.555-2.439,27.954
			c-0.526,9.422-0.785,18.901-0.87,28.43c-0.17,19.198,0.509,38.623,2.005,58.146c0.845,11.027,1.59,22.239,4.025,33.131
			c0.307,1.374,2.395,1.133,2.37-0.321C190.284,358.731,189.064,348.885,188.282,339.048z"/>
		<path style="fill:#382820;" d="M326.583,331.207c-3.329-8.646-6.474-17.385-8.772-26.279c-2.26-8.75-3.836-17.638-4.974-26.503
			c-1.163-9.06-1.793-18.115-2.211-27.134c-0.392-8.456-0.858-17.001-0.192-25.353c0.358-4.49,1.196-9.035,2.998-13.131
			c0.857-1.948,1.779-3.911,3.372-5.349c1.272-1.148,3.422-2.554,5.046-1.202c1.023,0.852,2.415-0.511,1.436-1.473
			c-2.677-2.631-6.299-1.4-8.773,0.713c-3.002,2.565-4.625,6.718-5.765,10.44c-2.625,8.57-2.361,17.848-2.197,26.85
			c0.349,19.187,1.782,38.765,6.447,57.914c1.024,4.202,2.178,8.394,3.525,12.526c-0.103,0.169-0.191,0.358-0.244,0.589
			c-2.822,12.43-3.192,25.461-3.169,38.42c0.022,13.089,0.975,26.3,2.845,39.463c1.082,7.617,2.391,15.169,4.16,22.72
			c0.342,1.458,2.686,1.2,2.484-0.342c-3.439-26.27-9.073-52.089-6.55-77.904c0.548-5.607,1.545-11.189,2.712-16.674
			c1.664,4.301,3.58,8.508,5.866,12.545C325.23,333.109,327.051,332.422,326.583,331.207z"/>
		<path style="fill:#E4A754;" d="M333.89,421.125c-4.78,0.56-9.63,0.35-14.45,0.35h-14.45c-34.14,0-68.3,0.39-102.43-0.15
			c-0.64-0.01-1.14-0.24-1.5-0.6c-0.97,0.15-1.97-0.35-2.3-1.75c-0.58-2.44-1.04-4.92-1.46-7.4c45.88,2.08,91.82,2.67,137.74,1.79
			c0.28,1.63,0.55,3.26,0.83,4.89c0.01,0.04,0.01,0.08,0.01,0.12C336.12,419.585,335.47,420.945,333.89,421.125z"/>
		<path style="fill:#382820;" d="M383.296,323.344c-6.948-4.284-12.684-11.709-16.293-19.028c-1.827-3.705-3.134-7.686-3.919-11.714
			c-0.39-2-0.631-4.034-0.746-6.056c-0.112-1.977,0.378-4.336-0.483-6.163c-0.383-0.815-1.76-1.039-2.292-0.316
			c-1.255,1.705-1,4.381-0.952,6.48c0.053,2.291,0.321,4.566,0.749,6.833c0.828,4.381,2.338,8.624,4.37,12.623
			c0.09,0.176,0.195,0.345,0.287,0.521c-0.259,0.135-0.482,0.379-0.626,0.772c-0.483,0.072-0.973,0.18-1.463,0.276
			c-1.338,0.261-2.659,0.621-3.945,1.07c-2.607,0.911-5.101,2.164-7.373,3.755c-4.527,3.171-8.163,7.64-10.37,12.87
			c-0.603,1.429,1.404,2.658,2.114,1.228c2.29-4.609,5.76-8.391,9.971-11.125c2.028-1.317,4.204-2.37,6.504-3.097
			c0.044-0.014,0.089-0.023,0.133-0.037c-2.456,3.518-3.86,8.003-4.386,12.158c-1.005,7.944-0.052,16.296,1.43,24.259
			c0.282,1.514,2.402,0.876,2.164-0.598c-0.61-3.781-0.774-7.554-0.918-11.349c-0.139-3.648-0.188-7.323,0.27-10.916
			c0.562-4.414,1.87-8.358,4.27-11.637c-0.288,1.992-0.482,4.004-0.666,5.943c-0.414,4.352-0.56,8.743-0.407,13.154
			c0.309,8.894,1.89,17.78,4.746,26.34c0.427,1.28,2.242,0.786,1.91-0.53c-2.121-8.4-3.335-16.971-3.522-25.513
			c-0.092-4.215,0.068-8.424,0.524-12.575c0.225-2.046,0.52-4.076,0.867-6.095c0.245-1.427,0.589-2.852,0.866-4.281
			c0.067-0.057,0.136-0.112,0.198-0.18c1.513,2.338,3.215,4.558,5.165,6.512c3.298,3.304,6.991,5.762,11.02,7.989
			C383.5,325.474,384.279,323.949,383.296,323.344z"/>
		<path style="fill:#382820;" d="M401.331,267.437c-1.281,0.089-2.127,0.863-3.197,1.485c-1.016,0.591-2.073,1.126-3.166,1.567
			c-2.277,0.919-4.669,1.598-7.115,1.955c-4.863,0.71-10.013,0.33-14.677-1.542c-0.87-0.349-1.411,1.133-0.56,1.543
			c4.918,2.372,10.195,3.713,15.562,3.352c2.612-0.176,5.236-0.645,7.678-1.535c1.27-0.463,2.518-1.004,3.714-1.627
			c1.194-0.622,2.777-1.299,3.356-2.591C403.417,268.949,402.681,267.343,401.331,267.437z"/>
		<path style="fill:#382820;" d="M409.059,304.494c-2.294,1.064-4.141,3.092-6.302,4.425c-2.208,1.362-4.555,2.479-7.041,3.245
			c-4.69,1.446-10.972,3.08-15.39-0.296c-0.803-0.614-1.783,0.774-1.003,1.433c4.592,3.879,11.406,4.026,16.777,2.766
			c2.918-0.685,5.781-1.803,8.358-3.317c2.477-1.456,5.526-3.373,6.72-6.163C411.788,305.164,410.37,303.887,409.059,304.494z"/>
		<path style="fill:#382820;" d="M406.938,371.707c-1.414-1.218-3.012-1.466-4.709-1.973c-1.647-0.492-3.275-1.053-4.885-1.675
			c-3.204-1.237-6.306-2.83-9.156-4.836c-5.213-3.668-9.811-8.893-11.642-15.203c-0.322-1.109-1.892-0.661-1.625,0.45
			c1.637,6.819,5.544,12.943,10.934,17.308c2.978,2.411,6.233,4.384,9.667,5.959c1.662,0.762,3.363,1.43,5.08,2.03
			c1.873,0.655,3.73,1.482,5.672,1.036C407.503,374.52,407.983,372.607,406.938,371.707z"/>
		<path style="fill:#382820;" d="M176.018,280.106c-0.099-1.508-2.372-1.551-2.326,0c0.265,9.003-2.75,17.891-5.476,26.486
			c-1.37,4.322-2.668,8.695-3.641,13.146c-0.483,2.21-0.858,4.444-1.118,6.694c-0.254,2.201-0.697,4.849-0.044,6.984
			c0.534,1.747,3.002,1.94,3.547,0c0.623-2.215,0.4-4.709,0.665-6.984c0.251-2.152,0.64-4.29,1.085-6.406
			c0.958-4.555,2.279-9.011,3.493-13.479C174.577,297.811,176.61,289.099,176.018,280.106z"/>
		<path style="fill:#382820;" d="M180.874,347.248c-0.482-1.928-1.332-3.768-1.875-5.682c-0.504-1.776-0.898-3.579-1.204-5.404
			c-0.646-3.848-0.984-7.68-0.721-11.586c0.073-1.084-1.503-1.059-1.609,0c-0.399,4.019-0.636,8.118-0.284,12.151
			c0.172,1.972,0.426,3.941,0.766,5.891c0.352,2.018,0.707,4.194,1.517,6.068C178.324,350.677,181.391,349.319,180.874,347.248z"/>
		<path style="fill:#382820;" d="M163.265,255.942c-0.871,0-1.894,0.829-1.811,1.8c0.409,4.768-0.922,9.735-3.682,13.703
			c-0.518,0.744,0.657,1.7,1.225,0.974c1.611-2.062,3.007-4.366,4.046-6.769c1.096-2.534,1.636-5.193,1.945-7.908
			C165.098,256.773,164.158,255.942,163.265,255.942z"/>
		<path style="fill:#382820;" d="M166.504,271.274c-4.773,11.729-16.732,20.771-29.044,22.034c-3.212,0.329-2.811,5.091,0.426,4.543
			c13.922-2.355,25.548-12.63,30.323-26.116C168.606,270.612,166.937,270.21,166.504,271.274z"/>
		<path style="fill:#382820;" d="M141.606,251.157c-0.899,5.267-2.956,10.877-6.492,15.029c-1.562,1.835-3.395,3.407-5.491,4.559
			c-1.859,1.022-4.4,2.095-6.518,1.878c-1.254-0.129-2.383,1.193-2.427,2.397c-0.05,1.378,0.994,2.303,2.256,2.4
			c2.729,0.21,5.894-1.113,8.219-2.553c2.518-1.559,4.662-3.611,6.433-6.002c3.806-5.14,4.993-11.368,5.435-17.521
			C143.08,250.527,141.749,250.321,141.606,251.157z"/>
	</g>
	<g>
		<g>
			<path style="fill:#EDB66D;" d="M190.914,155.327c-1.488-2.086-4.22-3.088-6.694-3.186c-2.639-0.104-5.024,0.925-6.949,2.685
				c-0.714,0.653-0.465,1.954,0.205,2.525c0.811,0.69,1.81,0.452,2.525-0.205c1.7-1.563,4.541-1.962,6.652-1.111
				c1.238,0.499,2.414,1.348,2.097,2.831c-0.27,1.263-1.144,2.427-2.208,3.132c-0.482,0.32-1.057,0.588-1.645,0.61
				c-0.568,0.021-1.13-0.228-1.703-0.161c-2.044,0.24-2.065,2.299-2.024,3.88c0.096,3.723,0.253,7.445,0.38,11.166
				c0.079,2.31,3.659,2.056,3.574-0.245c-0.078-2.116-0.156-4.232-0.234-6.348c-0.038-1.022-0.075-2.043-0.113-3.065
				c-0.016-0.435-0.154-1.378-0.176-2.063c0.272-0.017,0.539-0.053,0.808-0.103c0.608-0.112,1.164-0.279,1.721-0.548
				c1.122-0.54,2.084-1.35,2.854-2.327C191.614,160.724,192.579,157.663,190.914,155.327z"/>
			<path style="fill:#EDB66D;" d="M186.309,184.49c0.008-0.133,0.023-0.269,0.012-0.403c-0.017-0.209-0.07-0.419-0.117-0.621
				c-0.105-0.301-0.278-0.556-0.52-0.764c-0.234-0.197-0.501-0.325-0.801-0.383c-0.073-0.015-0.146-0.031-0.218-0.046
				c-0.066-0.022-0.135-0.037-0.204-0.043c-0.038-0.008-0.075-0.016-0.112-0.024c-0.224-0.051-0.444-0.045-0.661,0.017
				c-0.231,0.026-0.443,0.11-0.634,0.251c-0.202,0.126-0.357,0.292-0.467,0.497c-0.138,0.178-0.224,0.381-0.259,0.608
				c-0.009,0.147-0.018,0.294-0.027,0.441c0.005,0.065,0.027,0.125,0.038,0.188c-0.002,0.016-0.006,0.032-0.008,0.049
				c-0.047,0.385-0.071,0.781-0.033,1.167c0.023,0.318,0.124,0.609,0.302,0.873c0.18,0.263,0.414,0.464,0.701,0.602
				c0.545,0.259,1.259,0.232,1.754-0.135c0.027-0.02,0.053-0.041,0.079-0.063c0.137-0.117,0.276-0.237,0.404-0.364
				c0.045-0.045,0.087-0.093,0.125-0.144c0.106-0.143,0.199-0.298,0.293-0.449c0.018-0.029,0.035-0.057,0.051-0.087
				c0.03-0.056,0.056-0.115,0.077-0.175c0.069-0.192,0.143-0.389,0.186-0.59C186.299,184.76,186.301,184.626,186.309,184.49z"/>
		</g>
		<g>
			<path style="fill:#EDB66D;" d="M366.085,179.416c-0.904-3.359-3.901-5.805-6.944-7.224c-3.285-1.532-6.951-1.614-10.042,0.37
				c-0.906,0.581-0.89,2.049-0.263,2.805c0.754,0.91,1.897,0.847,2.805,0.263c4.699-3.02,14.779,4.639,8.852,9.01
				c-1.227,0.905-2.821,1.164-4.312,1.019c-1.65-0.16-3.438-1.217-4.962-0.085c-0.794,0.589-1.056,1.483-1.374,2.371
				c-0.38,1.061-0.76,2.121-1.14,3.182c-0.814,2.273-1.628,4.545-2.442,6.818c-0.859,2.397,2.831,3.813,3.692,1.415
				c0.707-1.969,1.414-3.938,2.121-5.907c0.353-0.984,0.707-1.969,1.06-2.954c0.146-0.406,0.292-0.813,0.438-1.219
				c0.629,0.179,1.723,0.269,2.007,0.301c0.834,0.097,1.691,0.092,2.526,0.016c1.656-0.151,3.274-0.749,4.637-1.697
				C365.368,186.074,366.932,182.561,366.085,179.416z"/>
			<path style="fill:#EDB66D;" d="M348.441,205.992c0.021-0.039,0.104-0.167,0.132-0.251c0.002-0.007,0.004-0.013,0.006-0.02
				c0.038-0.159,0.076-0.317,0.115-0.476c0.001-0.004,0.002-0.009,0.003-0.013c0.025-0.156-0.025-0.755-0.012-0.537
				c-0.001-0.014-0.002-0.026-0.005-0.04c-0.037-0.169-0.08-0.34-0.152-0.496c-0.145-0.313-0.339-0.536-0.613-0.742
				c-0.14-0.076-0.28-0.151-0.419-0.226c-0.233-0.1-0.473-0.135-0.72-0.106c-0.17-0.017-0.333,0.01-0.489,0.08
				c-0.065,0.014-0.123,0.043-0.184,0.065c-0.108,0.017-0.215,0.04-0.318,0.082c-0.172,0.029-0.325,0.098-0.459,0.209
				c-0.223,0.116-0.406,0.28-0.548,0.494c-0.078,0.145-0.156,0.289-0.234,0.434l-0.117,0.486c-0.038,0.266-0.007,0.521,0.091,0.764
				c0.053,0.251,0.167,0.475,0.342,0.67c0.267,0.301,0.518,0.474,0.891,0.63c0.155,0.065,0.554,0.137,0.531,0.132
				c0.015,0.003,0.029,0.006,0.044,0.007c0.185,0.014,0.373-0.001,0.556-0.015c0.101-0.008,0.202-0.054,0.293-0.082
				c0.107-0.033,0.199-0.044,0.288-0.096c0.141-0.089,0.282-0.178,0.423-0.267c0.004-0.003,0.008-0.005,0.012-0.008
				c0.006-0.004,0.012-0.008,0.018-0.013c0.012-0.009,0.022-0.019,0.033-0.03c0.122-0.123,0.252-0.245,0.357-0.385
				C348.357,206.169,348.413,206.044,348.441,205.992z"/>
		</g>
		<g>
			<path style="fill:#EDB66D;" d="M155.374,186.771c-2.821-2.035-6.689-2.042-9.945-1.223c-3.515,0.885-6.411,3.134-7.557,6.624
				c-0.336,1.022,0.602,2.151,1.566,2.342c1.16,0.23,2.006-0.54,2.342-1.566c1.74-5.308,14.393-5.727,12.552,1.404
				c-0.381,1.477-1.454,2.683-2.702,3.511c-1.382,0.917-3.435,1.225-3.904,3.065c-0.244,0.958,0.117,1.817,0.43,2.706
				c0.374,1.063,0.749,2.125,1.123,3.188c0.802,2.277,1.605,4.553,2.407,6.83c0.846,2.401,4.602,1.171,3.757-1.232
				c-0.694-1.974-1.388-3.947-2.082-5.921c-0.347-0.987-0.694-1.974-1.041-2.961c-0.143-0.407-0.286-0.815-0.43-1.222
				c0.601-0.258,1.506-0.879,1.747-1.033c0.708-0.451,1.369-0.996,1.97-1.582c1.19-1.162,2.068-2.646,2.527-4.243
				C159.019,192.388,158.015,188.677,155.374,186.771z"/>
			<path style="fill:#EDB66D;" d="M158.455,218.521c-0.008-0.044-0.025-0.195-0.057-0.278c-0.003-0.007-0.005-0.013-0.008-0.019
				c-0.07-0.147-0.141-0.295-0.211-0.442c-0.002-0.004-0.004-0.008-0.006-0.012c-0.079-0.137-0.495-0.57-0.349-0.409
				c-0.009-0.01-0.019-0.019-0.029-0.028c-0.135-0.107-0.277-0.214-0.431-0.289c-0.31-0.152-0.601-0.202-0.944-0.189
				c-0.156,0.03-0.312,0.059-0.468,0.089c-0.244,0.07-0.452,0.194-0.625,0.372c-0.143,0.094-0.252,0.218-0.328,0.371
				c-0.042,0.052-0.069,0.111-0.102,0.167c-0.073,0.081-0.141,0.167-0.195,0.265c-0.115,0.131-0.19,0.281-0.224,0.451
				c-0.1,0.23-0.138,0.473-0.113,0.729c0.031,0.161,0.061,0.323,0.092,0.484l0.216,0.451c0.139,0.23,0.323,0.409,0.553,0.536
				c0.2,0.161,0.429,0.263,0.688,0.304c0.397,0.065,0.701,0.041,1.089-0.073c0.161-0.047,0.517-0.243,0.495-0.232
				c0.013-0.007,0.026-0.014,0.039-0.022c0.152-0.106,0.288-0.236,0.422-0.363c0.073-0.07,0.122-0.169,0.175-0.248
				c0.062-0.093,0.127-0.16,0.163-0.257c0.053-0.158,0.107-0.316,0.16-0.474c0.002-0.005,0.003-0.009,0.004-0.014
				c0.002-0.007,0.004-0.014,0.005-0.021c0.003-0.014,0.005-0.029,0.007-0.044c0.017-0.173,0.04-0.349,0.034-0.524
				C158.501,218.712,158.466,218.579,158.455,218.521z"/>
		</g>
	</g>
</g>
</svg>
