<?xml version="1.0" encoding="utf-8"?>
<!-- Generator: Adobe Illustrator 27.5.0, SVG Export Plug-In . SVG Version: 6.00 Build 0)  -->
<svg version="1.1" xmlns="http://www.w3.org/2000/svg" xmlns:xlink="http://www.w3.org/1999/xlink" x="0px" y="0px"
	 viewBox="0 0 500 500" style="enable-background:new 0 0 500 500;" xml:space="preserve">
<g id="Background_Complete">
	<g>
		<rect y="382.398" style="fill:#EBEBEB;" width="500" height="0.25"/>
		<rect x="416.779" y="398.494" style="fill:#EBEBEB;" width="33.122" height="0.25"/>
		<rect x="322.527" y="401.208" style="fill:#EBEBEB;" width="8.693" height="0.25"/>
		<rect x="396.586" y="389.208" style="fill:#EBEBEB;" width="19.192" height="0.25"/>
		<rect x="52.459" y="390.888" style="fill:#EBEBEB;" width="43.193" height="0.25"/>
		<rect x="104.556" y="390.888" style="fill:#EBEBEB;" width="6.333" height="0.25"/>
		<rect x="131.471" y="395.111" style="fill:#EBEBEB;" width="93.676" height="0.25"/>
		<path style="fill:#EBEBEB;" d="M237.014,337.8H43.915c-3.147,0-5.708-2.561-5.708-5.708V60.66c0-3.147,2.561-5.708,5.708-5.708
			h193.099c3.146,0,5.707,2.561,5.707,5.708v271.432C242.721,335.239,240.16,337.8,237.014,337.8z M43.915,55.203
			c-3.01,0-5.458,2.448-5.458,5.458v271.432c0,3.01,2.448,5.458,5.458,5.458h193.099c3.009,0,5.457-2.448,5.457-5.458V60.66
			c0-3.009-2.448-5.458-5.457-5.458H43.915z"/>
		<path style="fill:#EBEBEB;" d="M453.31,337.8H260.212c-3.147,0-5.707-2.561-5.707-5.708V60.66c0-3.147,2.561-5.708,5.707-5.708
			H453.31c3.148,0,5.708,2.561,5.708,5.708v271.432C459.019,335.239,456.458,337.8,453.31,337.8z M260.212,55.203
			c-3.009,0-5.457,2.448-5.457,5.458v271.432c0,3.01,2.448,5.458,5.457,5.458H453.31c3.01,0,5.458-2.448,5.458-5.458V60.66
			c0-3.009-2.448-5.458-5.458-5.458H260.212z"/>
	</g>
	<g>
		<g>
			<polygon style="fill:#E6E6E6;" points="64.184,382.566 64.184,334.771 68.271,334.771 68.271,311.997 74.245,311.997 
				74.245,232.815 82.881,232.815 82.881,222.598 101.32,213.998 101.32,203.697 103.874,203.697 103.874,232.815 107.45,232.815 
				107.45,311.997 111.026,311.997 111.026,270.363 120.732,270.363 120.732,248.907 123.441,248.907 123.441,311.997 
				130.813,311.997 130.813,287.987 135.666,287.987 135.666,281.857 146.904,281.857 146.904,260.912 153.059,260.912 
				153.059,246.097 160.625,246.097 160.625,224.514 163.324,224.514 163.324,246.097 170.89,246.097 170.89,260.912 
				177.045,260.912 177.045,281.857 188.283,281.857 188.283,287.987 193.137,287.987 193.137,311.997 198.893,311.997 
				198.893,281.857 210.131,281.857 210.131,216.979 213.707,216.979 213.707,209.827 237.717,209.827 237.717,216.979 
				242.826,216.979 242.826,263.977 263.26,263.977 263.26,268.575 270.922,268.575 270.922,272.151 263.26,272.151 263.26,290.541 
				284.715,290.541 284.715,229.239 289.313,229.239 289.313,216.212 299.275,216.212 299.275,169.98 302.084,169.98 
				302.084,216.212 309.236,216.212 309.236,229.239 351.165,229.239 351.165,224.951 353.719,224.951 353.719,254.07 
				357.295,254.07 357.295,254.581 359.443,254.581 359.443,283.699 363.019,283.699 363.019,291.617 370.577,291.617 
				370.577,270.162 373.286,270.162 373.286,321.247 376.301,321.247 376.301,299.791 379.01,299.791 379.01,333.252 
				380.658,333.252 380.658,309.242 385.511,309.242 385.511,303.112 396.749,303.112 396.749,282.167 402.904,282.167 
				402.904,267.352 410.47,267.352 410.47,245.769 413.169,245.769 413.169,267.352 420.735,267.352 420.735,282.167 
				426.89,282.167 426.89,303.112 438.128,303.112 438.128,309.242 442.981,309.242 442.981,332.741 443.852,332.741 
				443.852,333.252 446.255,333.252 446.255,382.566 			"/>
			<g>
				<rect x="324.875" y="232.104" style="fill:#F0F0F0;" width="2.895" height="2.895"/>
				<rect x="324.875" y="236.957" style="fill:#F0F0F0;" width="2.895" height="2.895"/>
				<rect x="324.875" y="256.369" style="fill:#F0F0F0;" width="2.895" height="2.895"/>
				<rect x="324.875" y="261.222" style="fill:#F0F0F0;" width="2.895" height="2.895"/>
				<rect x="324.875" y="266.075" style="fill:#F0F0F0;" width="2.895" height="2.895"/>
				<rect x="324.875" y="280.635" style="fill:#F0F0F0;" width="2.895" height="2.895"/>
				<rect x="324.875" y="285.487" style="fill:#F0F0F0;" width="2.895" height="2.895"/>
				<rect x="320.278" y="251.516" style="fill:#F0F0F0;" width="2.895" height="2.895"/>
				<rect x="320.278" y="256.369" style="fill:#F0F0F0;" width="2.895" height="2.895"/>
				<rect x="320.278" y="261.222" style="fill:#F0F0F0;" width="2.895" height="2.895"/>
				<rect x="320.278" y="266.075" style="fill:#F0F0F0;" width="2.895" height="2.895"/>
				<rect x="320.278" y="270.928" style="fill:#F0F0F0;" width="2.895" height="2.895"/>
				<rect x="320.278" y="280.635" style="fill:#F0F0F0;" width="2.895" height="2.895"/>
				<rect x="320.278" y="285.487" style="fill:#F0F0F0;" width="2.895" height="2.895"/>
				<rect x="315.68" y="232.104" style="fill:#F0F0F0;" width="2.895" height="2.895"/>
				<rect x="315.68" y="236.957" style="fill:#F0F0F0;" width="2.895" height="2.895"/>
				<rect x="315.68" y="241.81" style="fill:#F0F0F0;" width="2.895" height="2.895"/>
				<rect x="315.68" y="246.663" style="fill:#F0F0F0;" width="2.895" height="2.895"/>
				<rect x="315.68" y="251.516" style="fill:#F0F0F0;" width="2.895" height="2.895"/>
				<rect x="315.68" y="256.369" style="fill:#F0F0F0;" width="2.895" height="2.895"/>
				<rect x="315.68" y="261.222" style="fill:#F0F0F0;" width="2.895" height="2.895"/>
				<rect x="315.68" y="266.075" style="fill:#F0F0F0;" width="2.895" height="2.895"/>
				<rect x="315.68" y="270.928" style="fill:#F0F0F0;" width="2.895" height="2.895"/>
				<rect x="315.68" y="275.781" style="fill:#F0F0F0;" width="2.895" height="2.895"/>
				<rect x="315.68" y="285.487" style="fill:#F0F0F0;" width="2.895" height="2.895"/>
				<rect x="311.082" y="232.104" style="fill:#F0F0F0;" width="2.895" height="2.895"/>
				<rect x="311.082" y="236.957" style="fill:#F0F0F0;" width="2.895" height="2.895"/>
				<rect x="311.082" y="241.81" style="fill:#F0F0F0;" width="2.895" height="2.895"/>
				<rect x="311.082" y="246.663" style="fill:#F0F0F0;" width="2.895" height="2.895"/>
				<rect x="311.082" y="251.516" style="fill:#F0F0F0;" width="2.895" height="2.895"/>
				<rect x="311.082" y="256.369" style="fill:#F0F0F0;" width="2.895" height="2.895"/>
				<rect x="311.082" y="261.222" style="fill:#F0F0F0;" width="2.895" height="2.895"/>
				<rect x="311.082" y="304.9" style="fill:#F0F0F0;" width="2.895" height="2.895"/>
				<rect x="306.485" y="232.104" style="fill:#F0F0F0;" width="2.895" height="2.895"/>
				<rect x="306.485" y="236.957" style="fill:#F0F0F0;" width="2.895" height="2.895"/>
				<rect x="306.485" y="241.81" style="fill:#F0F0F0;" width="2.895" height="2.895"/>
				<rect x="306.485" y="246.663" style="fill:#F0F0F0;" width="2.895" height="2.895"/>
				<rect x="306.485" y="251.516" style="fill:#F0F0F0;" width="2.895" height="2.895"/>
				<rect x="306.485" y="256.369" style="fill:#F0F0F0;" width="2.895" height="2.895"/>
				<rect x="306.485" y="261.222" style="fill:#F0F0F0;" width="2.895" height="2.895"/>
				<rect x="306.485" y="266.075" style="fill:#F0F0F0;" width="2.895" height="2.895"/>
				<rect x="306.485" y="295.194" style="fill:#F0F0F0;" width="2.895" height="2.895"/>
				<rect x="306.485" y="300.047" style="fill:#F0F0F0;" width="2.895" height="2.895"/>
				<rect x="306.485" y="304.9" style="fill:#F0F0F0;" width="2.895" height="2.895"/>
				<rect x="306.485" y="309.753" style="fill:#F0F0F0;" width="2.895" height="2.895"/>
				<rect x="306.485" y="329.165" style="fill:#F0F0F0;" width="2.895" height="2.895"/>
				<rect x="301.887" y="232.104" style="fill:#F0F0F0;" width="2.895" height="2.895"/>
				<rect x="301.887" y="236.957" style="fill:#F0F0F0;" width="2.895" height="2.895"/>
				<rect x="301.887" y="241.81" style="fill:#F0F0F0;" width="2.895" height="2.895"/>
				<rect x="301.887" y="246.663" style="fill:#F0F0F0;" width="2.895" height="2.895"/>
				<rect x="301.887" y="251.516" style="fill:#F0F0F0;" width="2.895" height="2.895"/>
				<rect x="301.887" y="256.369" style="fill:#F0F0F0;" width="2.895" height="2.895"/>
				<rect x="301.887" y="261.222" style="fill:#F0F0F0;" width="2.895" height="2.895"/>
				<rect x="301.887" y="266.075" style="fill:#F0F0F0;" width="2.895" height="2.895"/>
				<rect x="301.887" y="270.928" style="fill:#F0F0F0;" width="2.895" height="2.895"/>
				<rect x="301.887" y="275.781" style="fill:#F0F0F0;" width="2.895" height="2.895"/>
				<rect x="301.887" y="290.341" style="fill:#F0F0F0;" width="2.895" height="2.895"/>
				<rect x="301.887" y="295.194" style="fill:#F0F0F0;" width="2.895" height="2.895"/>
				<rect x="301.887" y="300.047" style="fill:#F0F0F0;" width="2.895" height="2.895"/>
				<rect x="301.887" y="304.9" style="fill:#F0F0F0;" width="2.895" height="2.895"/>
				<rect x="301.887" y="309.753" style="fill:#F0F0F0;" width="2.895" height="2.895"/>
				<rect x="301.887" y="329.165" style="fill:#F0F0F0;" width="2.895" height="2.895"/>
				<rect x="297.289" y="232.104" style="fill:#F0F0F0;" width="2.895" height="2.895"/>
				<rect x="297.289" y="236.957" style="fill:#F0F0F0;" width="2.895" height="2.895"/>
				<rect x="297.289" y="241.81" style="fill:#F0F0F0;" width="2.895" height="2.895"/>
				<rect x="297.289" y="246.663" style="fill:#F0F0F0;" width="2.895" height="2.895"/>
				<rect x="297.289" y="251.516" style="fill:#F0F0F0;" width="2.895" height="2.895"/>
				<rect x="297.289" y="256.369" style="fill:#F0F0F0;" width="2.895" height="2.895"/>
				<rect x="297.289" y="261.222" style="fill:#F0F0F0;" width="2.895" height="2.895"/>
				<rect x="297.289" y="266.075" style="fill:#F0F0F0;" width="2.895" height="2.895"/>
				<rect x="297.289" y="270.928" style="fill:#F0F0F0;" width="2.895" height="2.895"/>
				<rect x="297.289" y="275.781" style="fill:#F0F0F0;" width="2.895" height="2.895"/>
				<rect x="297.289" y="280.635" style="fill:#F0F0F0;" width="2.895" height="2.895"/>
				<rect x="297.289" y="285.487" style="fill:#F0F0F0;" width="2.895" height="2.895"/>
				<rect x="297.289" y="290.341" style="fill:#F0F0F0;" width="2.895" height="2.895"/>
				<rect x="297.289" y="295.194" style="fill:#F0F0F0;" width="2.895" height="2.895"/>
				<rect x="297.289" y="300.047" style="fill:#F0F0F0;" width="2.895" height="2.895"/>
				<rect x="297.289" y="304.9" style="fill:#F0F0F0;" width="2.895" height="2.895"/>
				<rect x="297.289" y="309.753" style="fill:#F0F0F0;" width="2.895" height="2.895"/>
				<rect x="297.289" y="314.606" style="fill:#F0F0F0;" width="2.895" height="2.895"/>
				<rect x="292.692" y="232.104" style="fill:#F0F0F0;" width="2.895" height="2.895"/>
				<rect x="292.692" y="236.957" style="fill:#F0F0F0;" width="2.895" height="2.895"/>
				<rect x="292.692" y="241.81" style="fill:#F0F0F0;" width="2.895" height="2.895"/>
				<rect x="292.692" y="246.663" style="fill:#F0F0F0;" width="2.895" height="2.895"/>
				<rect x="292.692" y="251.516" style="fill:#F0F0F0;" width="2.895" height="2.895"/>
				<rect x="292.692" y="256.369" style="fill:#F0F0F0;" width="2.895" height="2.895"/>
				<rect x="292.692" y="261.222" style="fill:#F0F0F0;" width="2.895" height="2.895"/>
				<rect x="292.692" y="266.075" style="fill:#F0F0F0;" width="2.895" height="2.895"/>
				<rect x="292.692" y="270.928" style="fill:#F0F0F0;" width="2.895" height="2.895"/>
				<rect x="292.692" y="275.781" style="fill:#F0F0F0;" width="2.895" height="2.895"/>
				<rect x="292.692" y="290.341" style="fill:#F0F0F0;" width="2.895" height="2.895"/>
				<rect x="292.692" y="295.194" style="fill:#F0F0F0;" width="2.895" height="2.895"/>
				<rect x="292.692" y="300.047" style="fill:#F0F0F0;" width="2.895" height="2.895"/>
				<rect x="292.692" y="304.9" style="fill:#F0F0F0;" width="2.895" height="2.895"/>
				<rect x="288.094" y="232.104" style="fill:#F0F0F0;" width="2.895" height="2.895"/>
				<rect x="288.094" y="236.957" style="fill:#F0F0F0;" width="2.895" height="2.895"/>
				<rect x="288.094" y="241.81" style="fill:#F0F0F0;" width="2.895" height="2.895"/>
				<rect x="288.094" y="246.663" style="fill:#F0F0F0;" width="2.895" height="2.895"/>
				<rect x="288.094" y="251.516" style="fill:#F0F0F0;" width="2.895" height="2.895"/>
				<rect x="288.094" y="256.369" style="fill:#F0F0F0;" width="2.895" height="2.895"/>
				<rect x="288.094" y="261.222" style="fill:#F0F0F0;" width="2.895" height="2.895"/>
				<rect x="288.094" y="266.075" style="fill:#F0F0F0;" width="2.895" height="2.895"/>
				<rect x="288.094" y="270.928" style="fill:#F0F0F0;" width="2.895" height="2.895"/>
				<rect x="288.094" y="275.781" style="fill:#F0F0F0;" width="2.895" height="2.895"/>
				<rect x="288.094" y="290.341" style="fill:#F0F0F0;" width="2.895" height="2.895"/>
				<rect x="288.094" y="295.194" style="fill:#F0F0F0;" width="2.895" height="2.895"/>
				<rect x="288.094" y="300.047" style="fill:#F0F0F0;" width="2.895" height="2.895"/>
				<rect x="236.328" y="219.503" style="fill:#F0F0F0;" width="2.895" height="2.895"/>
				<rect x="236.328" y="224.356" style="fill:#F0F0F0;" width="2.895" height="2.895"/>
				<rect x="236.328" y="229.209" style="fill:#F0F0F0;" width="2.895" height="2.895"/>
				<rect x="236.328" y="234.062" style="fill:#F0F0F0;" width="2.895" height="2.895"/>
				<rect x="236.328" y="238.915" style="fill:#F0F0F0;" width="2.895" height="2.895"/>
				<rect x="236.328" y="243.768" style="fill:#F0F0F0;" width="2.895" height="2.895"/>
				<rect x="236.328" y="248.621" style="fill:#F0F0F0;" width="2.895" height="2.895"/>
				<rect x="236.328" y="253.474" style="fill:#F0F0F0;" width="2.895" height="2.895"/>
				<rect x="236.328" y="268.034" style="fill:#F0F0F0;" width="2.895" height="2.895"/>
				<rect x="236.328" y="272.887" style="fill:#F0F0F0;" width="2.895" height="2.895"/>
				<rect x="231.73" y="219.503" style="fill:#F0F0F0;" width="2.895" height="2.895"/>
				<rect x="231.73" y="224.356" style="fill:#F0F0F0;" width="2.895" height="2.895"/>
				<rect x="231.73" y="229.209" style="fill:#F0F0F0;" width="2.895" height="2.895"/>
				<rect x="231.73" y="234.062" style="fill:#F0F0F0;" width="2.895" height="2.895"/>
				<rect x="231.73" y="238.915" style="fill:#F0F0F0;" width="2.895" height="2.895"/>
				<rect x="231.73" y="243.768" style="fill:#F0F0F0;" width="2.895" height="2.895"/>
				<rect x="231.73" y="248.621" style="fill:#F0F0F0;" width="2.895" height="2.895"/>
				<rect x="231.73" y="253.474" style="fill:#F0F0F0;" width="2.895" height="2.895"/>
				<rect x="231.73" y="272.887" style="fill:#F0F0F0;" width="2.895" height="2.895"/>
				<rect x="227.133" y="219.503" style="fill:#F0F0F0;" width="2.895" height="2.895"/>
				<rect x="227.133" y="224.356" style="fill:#F0F0F0;" width="2.895" height="2.895"/>
				<rect x="227.133" y="229.209" style="fill:#F0F0F0;" width="2.895" height="2.895"/>
				<rect x="227.133" y="234.062" style="fill:#F0F0F0;" width="2.895" height="2.895"/>
				<rect x="227.133" y="238.915" style="fill:#F0F0F0;" width="2.895" height="2.895"/>
				<rect x="227.133" y="243.768" style="fill:#F0F0F0;" width="2.895" height="2.895"/>
				<rect x="227.133" y="248.621" style="fill:#F0F0F0;" width="2.895" height="2.895"/>
				<rect x="227.133" y="253.474" style="fill:#F0F0F0;" width="2.895" height="2.895"/>
				<rect x="222.535" y="219.503" style="fill:#F0F0F0;" width="2.895" height="2.895"/>
				<rect x="222.535" y="224.356" style="fill:#F0F0F0;" width="2.895" height="2.895"/>
				<rect x="222.535" y="229.209" style="fill:#F0F0F0;" width="2.895" height="2.895"/>
				<rect x="222.535" y="234.062" style="fill:#F0F0F0;" width="2.895" height="2.895"/>
				<rect x="222.535" y="238.915" style="fill:#F0F0F0;" width="2.895" height="2.895"/>
				<rect x="222.535" y="243.768" style="fill:#F0F0F0;" width="2.895" height="2.895"/>
				<rect x="222.535" y="253.474" style="fill:#F0F0F0;" width="2.895" height="2.895"/>
				<rect x="222.535" y="258.327" style="fill:#F0F0F0;" width="2.895" height="2.895"/>
				<rect x="222.535" y="272.887" style="fill:#F0F0F0;" width="2.895" height="2.895"/>
				<rect x="222.535" y="277.74" style="fill:#F0F0F0;" width="2.895" height="2.895"/>
				<rect x="222.535" y="282.593" style="fill:#F0F0F0;" width="2.895" height="2.895"/>
				<rect x="222.535" y="287.446" style="fill:#F0F0F0;" width="2.895" height="2.895"/>
				<rect x="222.535" y="292.299" style="fill:#F0F0F0;" width="2.895" height="2.895"/>
				<rect x="222.535" y="297.152" style="fill:#F0F0F0;" width="2.895" height="2.895"/>
				<rect x="222.535" y="302.005" style="fill:#F0F0F0;" width="2.895" height="2.895"/>
				<rect x="217.937" y="219.503" style="fill:#F0F0F0;" width="2.895" height="2.895"/>
				<rect x="217.937" y="224.356" style="fill:#F0F0F0;" width="2.895" height="2.895"/>
				<rect x="217.937" y="229.209" style="fill:#F0F0F0;" width="2.895" height="2.895"/>
				<rect x="217.937" y="234.062" style="fill:#F0F0F0;" width="2.895" height="2.895"/>
				<rect x="217.937" y="238.915" style="fill:#F0F0F0;" width="2.895" height="2.895"/>
				<rect x="217.937" y="243.768" style="fill:#F0F0F0;" width="2.895" height="2.895"/>
				<rect x="217.937" y="258.327" style="fill:#F0F0F0;" width="2.895" height="2.895"/>
				<rect x="217.937" y="263.18" style="fill:#F0F0F0;" width="2.895" height="2.895"/>
				<rect x="217.937" y="268.034" style="fill:#F0F0F0;" width="2.895" height="2.895"/>
				<rect x="217.937" y="272.887" style="fill:#F0F0F0;" width="2.895" height="2.895"/>
				<rect x="217.937" y="277.74" style="fill:#F0F0F0;" width="2.895" height="2.895"/>
				<rect x="217.937" y="282.593" style="fill:#F0F0F0;" width="2.895" height="2.895"/>
				<rect x="217.937" y="287.446" style="fill:#F0F0F0;" width="2.895" height="2.895"/>
				<rect x="217.937" y="292.299" style="fill:#F0F0F0;" width="2.895" height="2.895"/>
				<rect x="217.937" y="297.152" style="fill:#F0F0F0;" width="2.895" height="2.895"/>
				<rect x="217.937" y="302.005" style="fill:#F0F0F0;" width="2.895" height="2.895"/>
				<rect x="217.937" y="306.858" style="fill:#F0F0F0;" width="2.895" height="2.895"/>
				<rect x="217.937" y="316.565" style="fill:#F0F0F0;" width="2.895" height="2.895"/>
				<rect x="213.34" y="219.503" style="fill:#F0F0F0;" width="2.895" height="2.895"/>
				<rect x="213.34" y="224.356" style="fill:#F0F0F0;" width="2.895" height="2.895"/>
				<rect x="213.34" y="229.209" style="fill:#F0F0F0;" width="2.895" height="2.895"/>
				<rect x="213.34" y="234.062" style="fill:#F0F0F0;" width="2.895" height="2.895"/>
				<rect x="213.34" y="238.915" style="fill:#F0F0F0;" width="2.895" height="2.895"/>
				<rect x="213.34" y="243.768" style="fill:#F0F0F0;" width="2.895" height="2.895"/>
				<rect x="213.34" y="258.327" style="fill:#F0F0F0;" width="2.895" height="2.895"/>
				<rect x="213.34" y="263.18" style="fill:#F0F0F0;" width="2.895" height="2.895"/>
				<rect x="213.34" y="268.034" style="fill:#F0F0F0;" width="2.895" height="2.895"/>
				<rect x="213.34" y="272.887" style="fill:#F0F0F0;" width="2.895" height="2.895"/>
				<rect x="213.34" y="287.446" style="fill:#F0F0F0;" width="2.895" height="2.895"/>
				<rect x="213.34" y="292.299" style="fill:#F0F0F0;" width="2.895" height="2.895"/>
				<rect x="213.34" y="297.152" style="fill:#F0F0F0;" width="2.895" height="2.895"/>
				<rect x="213.34" y="302.005" style="fill:#F0F0F0;" width="2.895" height="2.895"/>
				<rect x="213.34" y="306.858" style="fill:#F0F0F0;" width="2.895" height="2.895"/>
				<rect x="213.34" y="316.565" style="fill:#F0F0F0;" width="2.895" height="2.895"/>
				<rect x="213.34" y="321.418" style="fill:#F0F0F0;" width="2.895" height="2.895"/>
				<rect x="171.62" y="264.628" style="fill:#F0F0F0;" width="2.895" height="2.895"/>
				<rect x="171.62" y="269.481" style="fill:#F0F0F0;" width="2.895" height="2.895"/>
				<rect x="171.62" y="274.334" style="fill:#F0F0F0;" width="2.895" height="2.895"/>
				<rect x="171.62" y="279.187" style="fill:#F0F0F0;" width="2.895" height="2.895"/>
				<rect x="171.62" y="284.04" style="fill:#F0F0F0;" width="2.895" height="2.895"/>
				<rect x="171.62" y="288.893" style="fill:#F0F0F0;" width="2.895" height="2.895"/>
				<rect x="171.62" y="293.746" style="fill:#F0F0F0;" width="2.895" height="2.895"/>
				<rect x="171.62" y="308.306" style="fill:#F0F0F0;" width="2.895" height="2.895"/>
				<rect x="171.62" y="313.159" style="fill:#F0F0F0;" width="2.895" height="2.895"/>
				<rect x="171.62" y="318.012" style="fill:#F0F0F0;" width="2.895" height="2.895"/>
				<rect x="167.023" y="264.628" style="fill:#F0F0F0;" width="2.895" height="2.895"/>
				<rect x="167.023" y="269.481" style="fill:#F0F0F0;" width="2.895" height="2.895"/>
				<rect x="167.023" y="274.334" style="fill:#F0F0F0;" width="2.895" height="2.895"/>
				<rect x="167.023" y="279.187" style="fill:#F0F0F0;" width="2.895" height="2.895"/>
				<rect x="167.023" y="284.04" style="fill:#F0F0F0;" width="2.895" height="2.895"/>
				<rect x="167.023" y="288.893" style="fill:#F0F0F0;" width="2.895" height="2.895"/>
				<rect x="167.023" y="293.746" style="fill:#F0F0F0;" width="2.895" height="2.895"/>
				<rect x="162.425" y="264.628" style="fill:#F0F0F0;" width="2.895" height="2.895"/>
				<rect x="162.425" y="269.481" style="fill:#F0F0F0;" width="2.895" height="2.895"/>
				<rect x="162.425" y="274.334" style="fill:#F0F0F0;" width="2.895" height="2.895"/>
				<rect x="162.425" y="279.187" style="fill:#F0F0F0;" width="2.895" height="2.895"/>
				<rect x="162.425" y="284.04" style="fill:#F0F0F0;" width="2.895" height="2.895"/>
				<rect x="162.425" y="288.893" style="fill:#F0F0F0;" width="2.895" height="2.895"/>
				<rect x="162.425" y="293.746" style="fill:#F0F0F0;" width="2.895" height="2.895"/>
				<rect x="157.827" y="264.628" style="fill:#F0F0F0;" width="2.895" height="2.895"/>
				<rect x="157.827" y="269.481" style="fill:#F0F0F0;" width="2.895" height="2.895"/>
				<rect x="157.827" y="274.334" style="fill:#F0F0F0;" width="2.895" height="2.895"/>
				<rect x="157.827" y="279.187" style="fill:#F0F0F0;" width="2.895" height="2.895"/>
				<rect x="157.827" y="284.04" style="fill:#F0F0F0;" width="2.895" height="2.895"/>
				<rect x="157.827" y="288.893" style="fill:#F0F0F0;" width="2.895" height="2.895"/>
				<rect x="157.827" y="293.746" style="fill:#F0F0F0;" width="2.895" height="2.895"/>
				<rect x="157.827" y="298.599" style="fill:#F0F0F0;" width="2.895" height="2.895"/>
				<rect x="157.827" y="303.453" style="fill:#F0F0F0;" width="2.895" height="2.895"/>
				<rect x="157.827" y="308.306" style="fill:#F0F0F0;" width="2.895" height="2.895"/>
				<rect x="157.827" y="313.159" style="fill:#F0F0F0;" width="2.895" height="2.895"/>
				<rect x="153.23" y="264.628" style="fill:#F0F0F0;" width="2.895" height="2.895"/>
				<rect x="153.23" y="269.481" style="fill:#F0F0F0;" width="2.895" height="2.895"/>
				<rect x="153.23" y="274.334" style="fill:#F0F0F0;" width="2.895" height="2.895"/>
				<rect x="153.23" y="279.187" style="fill:#F0F0F0;" width="2.895" height="2.895"/>
				<rect x="153.23" y="284.04" style="fill:#F0F0F0;" width="2.895" height="2.895"/>
				<rect x="153.23" y="288.893" style="fill:#F0F0F0;" width="2.895" height="2.895"/>
				<rect x="153.23" y="293.746" style="fill:#F0F0F0;" width="2.895" height="2.895"/>
				<rect x="153.23" y="298.599" style="fill:#F0F0F0;" width="2.895" height="2.895"/>
				<rect x="153.23" y="303.453" style="fill:#F0F0F0;" width="2.895" height="2.895"/>
				<rect x="153.23" y="308.306" style="fill:#F0F0F0;" width="2.895" height="2.895"/>
				<rect x="153.23" y="313.159" style="fill:#F0F0F0;" width="2.895" height="2.895"/>
				<rect x="153.23" y="318.012" style="fill:#F0F0F0;" width="2.895" height="2.895"/>
				<rect x="153.23" y="332.571" style="fill:#F0F0F0;" width="2.895" height="2.895"/>
				<rect x="153.23" y="337.424" style="fill:#F0F0F0;" width="2.895" height="2.895"/>
				<rect x="148.632" y="264.628" style="fill:#F0F0F0;" width="2.895" height="2.895"/>
				<rect x="148.632" y="269.481" style="fill:#F0F0F0;" width="2.895" height="2.895"/>
				<rect x="148.632" y="274.334" style="fill:#F0F0F0;" width="2.895" height="2.895"/>
				<rect x="148.632" y="288.893" style="fill:#F0F0F0;" width="2.895" height="2.895"/>
				<rect x="148.632" y="293.746" style="fill:#F0F0F0;" width="2.895" height="2.895"/>
				<rect x="148.632" y="298.599" style="fill:#F0F0F0;" width="2.895" height="2.895"/>
				<rect x="148.632" y="303.453" style="fill:#F0F0F0;" width="2.895" height="2.895"/>
				<rect x="148.632" y="308.306" style="fill:#F0F0F0;" width="2.895" height="2.895"/>
				<rect x="148.632" y="313.159" style="fill:#F0F0F0;" width="2.895" height="2.895"/>
				<rect x="148.632" y="318.012" style="fill:#F0F0F0;" width="2.895" height="2.895"/>
				<rect x="148.632" y="332.571" style="fill:#F0F0F0;" width="2.895" height="2.895"/>
				<rect x="148.632" y="337.424" style="fill:#F0F0F0;" width="2.895" height="2.895"/>
				<rect x="148.632" y="342.277" style="fill:#F0F0F0;" width="2.895" height="2.895"/>
				<rect x="100.442" y="235.51" style="fill:#F0F0F0;" width="2.895" height="2.895"/>
				<rect x="100.442" y="240.363" style="fill:#F0F0F0;" width="2.895" height="2.895"/>
				<rect x="100.442" y="245.216" style="fill:#F0F0F0;" width="2.895" height="2.895"/>
				<rect x="100.442" y="250.069" style="fill:#F0F0F0;" width="2.895" height="2.895"/>
				<rect x="100.442" y="254.922" style="fill:#F0F0F0;" width="2.895" height="2.895"/>
				<rect x="100.442" y="259.775" style="fill:#F0F0F0;" width="2.895" height="2.895"/>
				<rect x="100.442" y="264.628" style="fill:#F0F0F0;" width="2.895" height="2.895"/>
				<rect x="100.442" y="269.481" style="fill:#F0F0F0;" width="2.895" height="2.895"/>
				<rect x="100.442" y="274.334" style="fill:#F0F0F0;" width="2.895" height="2.895"/>
				<rect x="100.442" y="279.187" style="fill:#F0F0F0;" width="2.895" height="2.895"/>
				<rect x="100.442" y="284.04" style="fill:#F0F0F0;" width="2.895" height="2.895"/>
				<rect x="100.442" y="288.893" style="fill:#F0F0F0;" width="2.895" height="2.895"/>
				<rect x="100.442" y="293.746" style="fill:#F0F0F0;" width="2.895" height="2.895"/>
				<rect x="100.442" y="298.599" style="fill:#F0F0F0;" width="2.895" height="2.895"/>
				<rect x="100.442" y="303.453" style="fill:#F0F0F0;" width="2.895" height="2.895"/>
				<rect x="100.442" y="308.306" style="fill:#F0F0F0;" width="2.895" height="2.895"/>
				<rect x="100.442" y="313.159" style="fill:#F0F0F0;" width="2.895" height="2.895"/>
				<rect x="100.442" y="318.012" style="fill:#F0F0F0;" width="2.895" height="2.895"/>
				<rect x="100.442" y="322.865" style="fill:#F0F0F0;" width="2.895" height="2.895"/>
				<rect x="100.442" y="327.718" style="fill:#F0F0F0;" width="2.895" height="2.895"/>
				<rect x="100.442" y="332.571" style="fill:#F0F0F0;" width="2.895" height="2.895"/>
				<rect x="100.442" y="337.424" style="fill:#F0F0F0;" width="2.895" height="2.895"/>
				<rect x="100.442" y="342.277" style="fill:#F0F0F0;" width="2.895" height="2.895"/>
				<rect x="95.844" y="235.51" style="fill:#F0F0F0;" width="2.895" height="2.895"/>
				<rect x="95.844" y="240.363" style="fill:#F0F0F0;" width="2.895" height="2.895"/>
				<rect x="95.844" y="245.216" style="fill:#F0F0F0;" width="2.895" height="2.895"/>
				<rect x="95.844" y="250.069" style="fill:#F0F0F0;" width="2.895" height="2.895"/>
				<rect x="95.844" y="254.922" style="fill:#F0F0F0;" width="2.895" height="2.895"/>
				<rect x="95.844" y="259.775" style="fill:#F0F0F0;" width="2.895" height="2.895"/>
				<rect x="95.844" y="264.628" style="fill:#F0F0F0;" width="2.895" height="2.895"/>
				<rect x="95.844" y="269.481" style="fill:#F0F0F0;" width="2.895" height="2.895"/>
				<rect x="95.844" y="274.334" style="fill:#F0F0F0;" width="2.895" height="2.895"/>
				<rect x="95.844" y="279.187" style="fill:#F0F0F0;" width="2.895" height="2.895"/>
				<rect x="95.844" y="284.04" style="fill:#F0F0F0;" width="2.895" height="2.895"/>
				<rect x="95.844" y="288.893" style="fill:#F0F0F0;" width="2.895" height="2.895"/>
				<rect x="95.844" y="293.746" style="fill:#F0F0F0;" width="2.895" height="2.895"/>
				<rect x="95.844" y="298.599" style="fill:#F0F0F0;" width="2.895" height="2.895"/>
				<rect x="95.844" y="303.453" style="fill:#F0F0F0;" width="2.895" height="2.895"/>
				<rect x="95.844" y="308.306" style="fill:#F0F0F0;" width="2.895" height="2.895"/>
				<rect x="95.844" y="313.159" style="fill:#F0F0F0;" width="2.895" height="2.895"/>
				<rect x="95.844" y="318.012" style="fill:#F0F0F0;" width="2.895" height="2.895"/>
				<rect x="95.844" y="322.865" style="fill:#F0F0F0;" width="2.895" height="2.895"/>
				<rect x="91.246" y="235.51" style="fill:#F0F0F0;" width="2.895" height="2.895"/>
				<rect x="91.246" y="240.363" style="fill:#F0F0F0;" width="2.895" height="2.895"/>
				<rect x="91.246" y="245.216" style="fill:#F0F0F0;" width="2.895" height="2.895"/>
				<rect x="91.246" y="250.069" style="fill:#F0F0F0;" width="2.895" height="2.895"/>
				<rect x="91.246" y="254.922" style="fill:#F0F0F0;" width="2.895" height="2.895"/>
				<rect x="91.246" y="259.775" style="fill:#F0F0F0;" width="2.895" height="2.895"/>
				<rect x="91.246" y="264.628" style="fill:#F0F0F0;" width="2.895" height="2.895"/>
				<rect x="91.246" y="269.481" style="fill:#F0F0F0;" width="2.895" height="2.895"/>
				<rect x="91.246" y="274.334" style="fill:#F0F0F0;" width="2.895" height="2.895"/>
				<rect x="91.246" y="279.187" style="fill:#F0F0F0;" width="2.895" height="2.895"/>
				<rect x="91.246" y="284.04" style="fill:#F0F0F0;" width="2.895" height="2.895"/>
				<rect x="91.246" y="288.893" style="fill:#F0F0F0;" width="2.895" height="2.895"/>
				<rect x="91.246" y="293.746" style="fill:#F0F0F0;" width="2.895" height="2.895"/>
				<rect x="91.246" y="298.599" style="fill:#F0F0F0;" width="2.895" height="2.895"/>
				<rect x="91.246" y="303.453" style="fill:#F0F0F0;" width="2.895" height="2.895"/>
				<rect x="91.246" y="308.306" style="fill:#F0F0F0;" width="2.895" height="2.895"/>
				<rect x="91.246" y="313.159" style="fill:#F0F0F0;" width="2.895" height="2.895"/>
				<rect x="91.246" y="318.012" style="fill:#F0F0F0;" width="2.895" height="2.895"/>
				<rect x="91.246" y="322.865" style="fill:#F0F0F0;" width="2.895" height="2.895"/>
				<rect x="86.649" y="235.51" style="fill:#F0F0F0;" width="2.895" height="2.895"/>
				<rect x="86.649" y="240.363" style="fill:#F0F0F0;" width="2.895" height="2.895"/>
				<rect x="86.649" y="245.216" style="fill:#F0F0F0;" width="2.895" height="2.895"/>
				<rect x="86.649" y="250.069" style="fill:#F0F0F0;" width="2.895" height="2.895"/>
				<rect x="86.649" y="254.922" style="fill:#F0F0F0;" width="2.895" height="2.895"/>
				<rect x="86.649" y="259.775" style="fill:#F0F0F0;" width="2.895" height="2.895"/>
				<rect x="86.649" y="264.628" style="fill:#F0F0F0;" width="2.895" height="2.895"/>
				<rect x="86.649" y="269.481" style="fill:#F0F0F0;" width="2.895" height="2.895"/>
				<rect x="86.649" y="274.334" style="fill:#F0F0F0;" width="2.895" height="2.895"/>
				<rect x="86.649" y="279.187" style="fill:#F0F0F0;" width="2.895" height="2.895"/>
				<rect x="86.649" y="284.04" style="fill:#F0F0F0;" width="2.895" height="2.895"/>
				<rect x="86.649" y="288.893" style="fill:#F0F0F0;" width="2.895" height="2.895"/>
				<rect x="86.649" y="293.746" style="fill:#F0F0F0;" width="2.895" height="2.895"/>
				<rect x="86.649" y="298.599" style="fill:#F0F0F0;" width="2.895" height="2.895"/>
				<rect x="86.649" y="303.453" style="fill:#F0F0F0;" width="2.895" height="2.895"/>
				<rect x="82.051" y="235.51" style="fill:#F0F0F0;" width="2.895" height="2.895"/>
				<rect x="82.051" y="240.363" style="fill:#F0F0F0;" width="2.895" height="2.895"/>
				<rect x="82.051" y="245.216" style="fill:#F0F0F0;" width="2.895" height="2.895"/>
				<rect x="82.051" y="250.069" style="fill:#F0F0F0;" width="2.895" height="2.895"/>
				<rect x="82.051" y="254.922" style="fill:#F0F0F0;" width="2.895" height="2.895"/>
				<rect x="82.051" y="259.775" style="fill:#F0F0F0;" width="2.895" height="2.895"/>
				<rect x="82.051" y="264.628" style="fill:#F0F0F0;" width="2.895" height="2.895"/>
				<rect x="82.051" y="269.481" style="fill:#F0F0F0;" width="2.895" height="2.895"/>
				<rect x="82.051" y="274.334" style="fill:#F0F0F0;" width="2.895" height="2.895"/>
				<rect x="82.051" y="279.187" style="fill:#F0F0F0;" width="2.895" height="2.895"/>
				<rect x="82.051" y="284.04" style="fill:#F0F0F0;" width="2.895" height="2.895"/>
				<rect x="82.051" y="288.893" style="fill:#F0F0F0;" width="2.895" height="2.895"/>
				<rect x="82.051" y="293.746" style="fill:#F0F0F0;" width="2.895" height="2.895"/>
				<rect x="77.453" y="235.51" style="fill:#F0F0F0;" width="2.895" height="2.895"/>
				<rect x="77.453" y="240.363" style="fill:#F0F0F0;" width="2.895" height="2.895"/>
				<rect x="77.453" y="245.216" style="fill:#F0F0F0;" width="2.895" height="2.895"/>
				<rect x="77.453" y="250.069" style="fill:#F0F0F0;" width="2.895" height="2.895"/>
				<rect x="77.453" y="254.922" style="fill:#F0F0F0;" width="2.895" height="2.895"/>
				<rect x="77.453" y="259.775" style="fill:#F0F0F0;" width="2.895" height="2.895"/>
				<rect x="77.453" y="264.628" style="fill:#F0F0F0;" width="2.895" height="2.895"/>
				<rect x="77.453" y="269.481" style="fill:#F0F0F0;" width="2.895" height="2.895"/>
				<rect x="77.453" y="274.334" style="fill:#F0F0F0;" width="2.895" height="2.895"/>
				<rect x="77.453" y="279.187" style="fill:#F0F0F0;" width="2.895" height="2.895"/>
				<rect x="77.453" y="284.04" style="fill:#F0F0F0;" width="2.895" height="2.895"/>
				<rect x="77.453" y="288.893" style="fill:#F0F0F0;" width="2.895" height="2.895"/>
				<rect x="415.296" y="270.928" style="fill:#F0F0F0;" width="2.895" height="2.895"/>
				<rect x="415.296" y="275.781" style="fill:#F0F0F0;" width="2.895" height="2.895"/>
				<rect x="415.296" y="280.635" style="fill:#F0F0F0;" width="2.895" height="2.895"/>
				<rect x="415.296" y="285.487" style="fill:#F0F0F0;" width="2.895" height="2.895"/>
				<rect x="415.296" y="290.341" style="fill:#F0F0F0;" width="2.895" height="2.895"/>
				<rect x="415.296" y="295.194" style="fill:#F0F0F0;" width="2.895" height="2.895"/>
				<rect x="415.296" y="300.047" style="fill:#F0F0F0;" width="2.895" height="2.895"/>
				<rect x="415.296" y="304.9" style="fill:#F0F0F0;" width="2.895" height="2.895"/>
				<rect x="415.296" y="309.753" style="fill:#F0F0F0;" width="2.895" height="2.895"/>
				<rect x="415.296" y="314.606" style="fill:#F0F0F0;" width="2.895" height="2.895"/>
				<rect x="415.296" y="319.459" style="fill:#F0F0F0;" width="2.895" height="2.895"/>
				<rect x="415.296" y="324.312" style="fill:#F0F0F0;" width="2.895" height="2.895"/>
				<rect x="415.296" y="329.165" style="fill:#F0F0F0;" width="2.895" height="2.895"/>
				<rect x="415.296" y="334.019" style="fill:#F0F0F0;" width="2.895" height="2.895"/>
				<rect x="415.296" y="338.871" style="fill:#F0F0F0;" width="2.895" height="2.895"/>
				<rect x="415.296" y="343.725" style="fill:#F0F0F0;" width="2.895" height="2.895"/>
				<rect x="415.296" y="348.578" style="fill:#F0F0F0;" width="2.895" height="2.895"/>
				<rect x="415.296" y="353.431" style="fill:#F0F0F0;" width="2.895" height="2.895"/>
				<rect x="415.296" y="358.284" style="fill:#F0F0F0;" width="2.895" height="2.895"/>
				<rect x="415.296" y="363.137" style="fill:#F0F0F0;" width="2.895" height="2.895"/>
				<rect x="410.698" y="270.928" style="fill:#F0F0F0;" width="2.895" height="2.895"/>
				<rect x="410.698" y="275.781" style="fill:#F0F0F0;" width="2.895" height="2.895"/>
				<rect x="410.698" y="280.635" style="fill:#F0F0F0;" width="2.895" height="2.895"/>
				<rect x="410.698" y="285.487" style="fill:#F0F0F0;" width="2.895" height="2.895"/>
				<rect x="410.698" y="290.341" style="fill:#F0F0F0;" width="2.895" height="2.895"/>
				<rect x="410.698" y="295.194" style="fill:#F0F0F0;" width="2.895" height="2.895"/>
				<rect x="410.698" y="300.047" style="fill:#F0F0F0;" width="2.895" height="2.895"/>
				<rect x="410.698" y="304.9" style="fill:#F0F0F0;" width="2.895" height="2.895"/>
				<rect x="410.698" y="309.753" style="fill:#F0F0F0;" width="2.895" height="2.895"/>
				<rect x="410.698" y="314.606" style="fill:#F0F0F0;" width="2.895" height="2.895"/>
				<rect x="410.698" y="319.459" style="fill:#F0F0F0;" width="2.895" height="2.895"/>
				<rect x="410.698" y="324.312" style="fill:#F0F0F0;" width="2.895" height="2.895"/>
				<rect x="410.698" y="329.165" style="fill:#F0F0F0;" width="2.895" height="2.895"/>
				<rect x="410.698" y="334.019" style="fill:#F0F0F0;" width="2.895" height="2.895"/>
				<rect x="410.698" y="338.871" style="fill:#F0F0F0;" width="2.895" height="2.895"/>
				<rect x="410.698" y="343.725" style="fill:#F0F0F0;" width="2.895" height="2.895"/>
				<rect x="410.698" y="348.578" style="fill:#F0F0F0;" width="2.895" height="2.895"/>
				<rect x="410.698" y="353.431" style="fill:#F0F0F0;" width="2.895" height="2.895"/>
				<rect x="406.101" y="270.928" style="fill:#F0F0F0;" width="2.895" height="2.895"/>
				<rect x="406.101" y="275.781" style="fill:#F0F0F0;" width="2.895" height="2.895"/>
				<rect x="406.101" y="280.635" style="fill:#F0F0F0;" width="2.895" height="2.895"/>
				<rect x="406.101" y="285.487" style="fill:#F0F0F0;" width="2.895" height="2.895"/>
				<rect x="406.101" y="290.341" style="fill:#F0F0F0;" width="2.895" height="2.895"/>
				<rect x="406.101" y="295.194" style="fill:#F0F0F0;" width="2.895" height="2.895"/>
				<rect x="406.101" y="300.047" style="fill:#F0F0F0;" width="2.895" height="2.895"/>
				<rect x="406.101" y="304.9" style="fill:#F0F0F0;" width="2.895" height="2.895"/>
				<rect x="406.101" y="309.753" style="fill:#F0F0F0;" width="2.895" height="2.895"/>
				<rect x="406.101" y="314.606" style="fill:#F0F0F0;" width="2.895" height="2.895"/>
				<rect x="406.101" y="319.459" style="fill:#F0F0F0;" width="2.895" height="2.895"/>
				<rect x="406.101" y="324.312" style="fill:#F0F0F0;" width="2.895" height="2.895"/>
				<rect x="406.101" y="329.165" style="fill:#F0F0F0;" width="2.895" height="2.895"/>
				<rect x="406.101" y="334.019" style="fill:#F0F0F0;" width="2.895" height="2.895"/>
				<rect x="406.101" y="338.871" style="fill:#F0F0F0;" width="2.895" height="2.895"/>
				<rect x="406.101" y="343.725" style="fill:#F0F0F0;" width="2.895" height="2.895"/>
				<rect x="406.101" y="348.578" style="fill:#F0F0F0;" width="2.895" height="2.895"/>
				<rect x="406.101" y="353.431" style="fill:#F0F0F0;" width="2.895" height="2.895"/>
				<rect x="432.495" y="306.347" style="fill:#F0F0F0;" width="2.895" height="2.895"/>
				<rect x="432.495" y="311.2" style="fill:#F0F0F0;" width="2.895" height="2.895"/>
				<rect x="432.495" y="316.054" style="fill:#F0F0F0;" width="2.895" height="2.895"/>
				<rect x="432.495" y="320.907" style="fill:#F0F0F0;" width="2.895" height="2.895"/>
				<rect x="432.495" y="325.76" style="fill:#F0F0F0;" width="2.895" height="2.895"/>
				<rect x="432.495" y="330.613" style="fill:#F0F0F0;" width="2.895" height="2.895"/>
				<rect x="432.495" y="335.466" style="fill:#F0F0F0;" width="2.895" height="2.895"/>
				<rect x="432.495" y="340.319" style="fill:#F0F0F0;" width="2.895" height="2.895"/>
				<rect x="432.495" y="345.172" style="fill:#F0F0F0;" width="2.895" height="2.895"/>
				<rect x="432.495" y="350.025" style="fill:#F0F0F0;" width="2.895" height="2.895"/>
				<rect x="432.495" y="354.878" style="fill:#F0F0F0;" width="2.895" height="2.895"/>
				<rect x="432.495" y="359.731" style="fill:#F0F0F0;" width="2.895" height="2.895"/>
				<rect x="432.495" y="364.584" style="fill:#F0F0F0;" width="2.895" height="2.895"/>
				<rect x="427.897" y="306.347" style="fill:#F0F0F0;" width="2.895" height="2.895"/>
				<rect x="427.897" y="311.2" style="fill:#F0F0F0;" width="2.895" height="2.895"/>
				<rect x="427.897" y="316.054" style="fill:#F0F0F0;" width="2.895" height="2.895"/>
				<rect x="427.897" y="320.907" style="fill:#F0F0F0;" width="2.895" height="2.895"/>
				<rect x="427.897" y="325.76" style="fill:#F0F0F0;" width="2.895" height="2.895"/>
				<rect x="427.897" y="330.613" style="fill:#F0F0F0;" width="2.895" height="2.895"/>
				<rect x="427.897" y="335.466" style="fill:#F0F0F0;" width="2.895" height="2.895"/>
				<rect x="427.897" y="340.319" style="fill:#F0F0F0;" width="2.895" height="2.895"/>
				<rect x="427.897" y="345.172" style="fill:#F0F0F0;" width="2.895" height="2.895"/>
				<rect x="427.897" y="350.025" style="fill:#F0F0F0;" width="2.895" height="2.895"/>
				<rect x="427.897" y="354.878" style="fill:#F0F0F0;" width="2.895" height="2.895"/>
				<rect x="427.897" y="359.731" style="fill:#F0F0F0;" width="2.895" height="2.895"/>
				<rect x="427.897" y="364.584" style="fill:#F0F0F0;" width="2.895" height="2.895"/>
				<rect x="423.299" y="306.347" style="fill:#F0F0F0;" width="2.895" height="2.895"/>
				<rect x="423.299" y="311.2" style="fill:#F0F0F0;" width="2.895" height="2.895"/>
				<rect x="423.299" y="316.054" style="fill:#F0F0F0;" width="2.895" height="2.895"/>
				<rect x="423.299" y="320.907" style="fill:#F0F0F0;" width="2.895" height="2.895"/>
				<rect x="423.299" y="325.76" style="fill:#F0F0F0;" width="2.895" height="2.895"/>
				<rect x="423.299" y="330.613" style="fill:#F0F0F0;" width="2.895" height="2.895"/>
				<rect x="423.299" y="335.466" style="fill:#F0F0F0;" width="2.895" height="2.895"/>
				<rect x="423.299" y="340.319" style="fill:#F0F0F0;" width="2.895" height="2.895"/>
				<rect x="423.299" y="345.172" style="fill:#F0F0F0;" width="2.895" height="2.895"/>
				<rect x="423.299" y="350.025" style="fill:#F0F0F0;" width="2.895" height="2.895"/>
				<rect x="423.299" y="354.878" style="fill:#F0F0F0;" width="2.895" height="2.895"/>
				<rect x="423.299" y="359.731" style="fill:#F0F0F0;" width="2.895" height="2.895"/>
				<rect x="423.299" y="364.584" style="fill:#F0F0F0;" width="2.895" height="2.895"/>
				<rect x="423.299" y="369.438" style="fill:#F0F0F0;" width="2.895" height="2.895"/>
				<rect x="397.757" y="307.795" style="fill:#F0F0F0;" width="2.895" height="2.895"/>
				<rect x="397.757" y="312.648" style="fill:#F0F0F0;" width="2.895" height="2.895"/>
				<rect x="397.757" y="317.501" style="fill:#F0F0F0;" width="2.895" height="2.895"/>
				<rect x="397.757" y="322.354" style="fill:#F0F0F0;" width="2.895" height="2.895"/>
				<rect x="397.757" y="327.207" style="fill:#F0F0F0;" width="2.895" height="2.895"/>
				<rect x="397.757" y="332.06" style="fill:#F0F0F0;" width="2.895" height="2.895"/>
				<rect x="397.757" y="336.913" style="fill:#F0F0F0;" width="2.895" height="2.895"/>
				<rect x="397.757" y="341.766" style="fill:#F0F0F0;" width="2.895" height="2.895"/>
				<rect x="397.757" y="346.619" style="fill:#F0F0F0;" width="2.895" height="2.895"/>
				<rect x="397.757" y="351.473" style="fill:#F0F0F0;" width="2.895" height="2.895"/>
				<rect x="397.757" y="366.032" style="fill:#F0F0F0;" width="2.895" height="2.895"/>
				<rect x="393.159" y="307.795" style="fill:#F0F0F0;" width="2.895" height="2.895"/>
				<rect x="393.159" y="312.648" style="fill:#F0F0F0;" width="2.895" height="2.895"/>
				<rect x="393.159" y="317.501" style="fill:#F0F0F0;" width="2.895" height="2.895"/>
				<rect x="393.159" y="322.354" style="fill:#F0F0F0;" width="2.895" height="2.895"/>
				<rect x="393.159" y="327.207" style="fill:#F0F0F0;" width="2.895" height="2.895"/>
				<rect x="393.159" y="332.06" style="fill:#F0F0F0;" width="2.895" height="2.895"/>
				<rect x="393.159" y="336.913" style="fill:#F0F0F0;" width="2.895" height="2.895"/>
				<rect x="393.159" y="341.766" style="fill:#F0F0F0;" width="2.895" height="2.895"/>
				<rect x="393.159" y="346.619" style="fill:#F0F0F0;" width="2.895" height="2.895"/>
				<rect x="393.159" y="361.179" style="fill:#F0F0F0;" width="2.895" height="2.895"/>
				<rect x="393.159" y="366.032" style="fill:#F0F0F0;" width="2.895" height="2.895"/>
				<rect x="388.561" y="307.795" style="fill:#F0F0F0;" width="2.895" height="2.895"/>
				<rect x="388.561" y="312.648" style="fill:#F0F0F0;" width="2.895" height="2.895"/>
				<rect x="388.561" y="317.501" style="fill:#F0F0F0;" width="2.895" height="2.895"/>
				<rect x="388.561" y="322.354" style="fill:#F0F0F0;" width="2.895" height="2.895"/>
				<rect x="388.561" y="327.207" style="fill:#F0F0F0;" width="2.895" height="2.895"/>
				<rect x="388.561" y="332.06" style="fill:#F0F0F0;" width="2.895" height="2.895"/>
				<rect x="388.561" y="336.913" style="fill:#F0F0F0;" width="2.895" height="2.895"/>
				<rect x="388.561" y="341.766" style="fill:#F0F0F0;" width="2.895" height="2.895"/>
				<rect x="388.561" y="356.326" style="fill:#F0F0F0;" width="2.895" height="2.895"/>
				<rect x="388.561" y="361.179" style="fill:#F0F0F0;" width="2.895" height="2.895"/>
				<rect x="388.561" y="366.032" style="fill:#F0F0F0;" width="2.895" height="2.895"/>
				<rect x="345.82" y="234.062" style="fill:#F0F0F0;" width="2.895" height="2.895"/>
				<rect x="345.82" y="238.915" style="fill:#F0F0F0;" width="2.895" height="2.895"/>
				<rect x="345.82" y="243.768" style="fill:#F0F0F0;" width="2.895" height="2.895"/>
				<rect x="345.82" y="248.621" style="fill:#F0F0F0;" width="2.895" height="2.895"/>
				<rect x="345.82" y="253.474" style="fill:#F0F0F0;" width="2.895" height="2.895"/>
				<rect x="345.82" y="258.327" style="fill:#F0F0F0;" width="2.895" height="2.895"/>
				<rect x="345.82" y="263.18" style="fill:#F0F0F0;" width="2.895" height="2.895"/>
				<rect x="345.82" y="268.034" style="fill:#F0F0F0;" width="2.895" height="2.895"/>
				<rect x="345.82" y="272.887" style="fill:#F0F0F0;" width="2.895" height="2.895"/>
				<rect x="345.82" y="277.74" style="fill:#F0F0F0;" width="2.895" height="2.895"/>
				<rect x="345.82" y="282.593" style="fill:#F0F0F0;" width="2.895" height="2.895"/>
				<rect x="345.82" y="287.446" style="fill:#F0F0F0;" width="2.895" height="2.895"/>
				<rect x="345.82" y="292.299" style="fill:#F0F0F0;" width="2.895" height="2.895"/>
				<rect x="345.82" y="297.152" style="fill:#F0F0F0;" width="2.895" height="2.895"/>
				<rect x="345.82" y="302.005" style="fill:#F0F0F0;" width="2.895" height="2.895"/>
				<rect x="345.82" y="306.858" style="fill:#F0F0F0;" width="2.895" height="2.895"/>
				<rect x="345.82" y="311.711" style="fill:#F0F0F0;" width="2.895" height="2.895"/>
				<rect x="345.82" y="321.418" style="fill:#F0F0F0;" width="2.895" height="2.895"/>
				<rect x="345.82" y="326.271" style="fill:#F0F0F0;" width="2.895" height="2.895"/>
				<rect x="345.82" y="331.124" style="fill:#F0F0F0;" width="2.895" height="2.895"/>
				<rect x="345.82" y="335.977" style="fill:#F0F0F0;" width="2.895" height="2.895"/>
				<rect x="345.82" y="340.83" style="fill:#F0F0F0;" width="2.895" height="2.895"/>
				<rect x="341.223" y="234.062" style="fill:#F0F0F0;" width="2.895" height="2.895"/>
				<rect x="341.223" y="238.915" style="fill:#F0F0F0;" width="2.895" height="2.895"/>
				<rect x="341.223" y="243.768" style="fill:#F0F0F0;" width="2.895" height="2.895"/>
				<rect x="341.223" y="248.621" style="fill:#F0F0F0;" width="2.895" height="2.895"/>
				<rect x="341.223" y="253.474" style="fill:#F0F0F0;" width="2.895" height="2.895"/>
				<rect x="341.223" y="258.327" style="fill:#F0F0F0;" width="2.895" height="2.895"/>
				<rect x="341.223" y="263.18" style="fill:#F0F0F0;" width="2.895" height="2.895"/>
				<rect x="341.223" y="268.034" style="fill:#F0F0F0;" width="2.895" height="2.895"/>
				<rect x="341.223" y="272.887" style="fill:#F0F0F0;" width="2.895" height="2.895"/>
				<rect x="341.223" y="277.74" style="fill:#F0F0F0;" width="2.895" height="2.895"/>
				<rect x="341.223" y="282.593" style="fill:#F0F0F0;" width="2.895" height="2.895"/>
				<rect x="341.223" y="287.446" style="fill:#F0F0F0;" width="2.895" height="2.895"/>
				<rect x="341.223" y="292.299" style="fill:#F0F0F0;" width="2.895" height="2.895"/>
				<rect x="341.223" y="297.152" style="fill:#F0F0F0;" width="2.895" height="2.895"/>
				<rect x="341.223" y="302.005" style="fill:#F0F0F0;" width="2.895" height="2.895"/>
				<rect x="341.223" y="306.858" style="fill:#F0F0F0;" width="2.895" height="2.895"/>
				<rect x="341.223" y="335.977" style="fill:#F0F0F0;" width="2.895" height="2.895"/>
				<rect x="341.223" y="340.83" style="fill:#F0F0F0;" width="2.895" height="2.895"/>
				<rect x="336.625" y="234.062" style="fill:#F0F0F0;" width="2.895" height="2.895"/>
				<rect x="336.625" y="238.915" style="fill:#F0F0F0;" width="2.895" height="2.895"/>
				<rect x="336.625" y="243.768" style="fill:#F0F0F0;" width="2.895" height="2.895"/>
				<rect x="336.625" y="248.621" style="fill:#F0F0F0;" width="2.895" height="2.895"/>
				<rect x="336.625" y="253.474" style="fill:#F0F0F0;" width="2.895" height="2.895"/>
				<rect x="336.625" y="258.327" style="fill:#F0F0F0;" width="2.895" height="2.895"/>
				<rect x="336.625" y="263.18" style="fill:#F0F0F0;" width="2.895" height="2.895"/>
				<rect x="336.625" y="268.034" style="fill:#F0F0F0;" width="2.895" height="2.895"/>
				<rect x="336.625" y="272.887" style="fill:#F0F0F0;" width="2.895" height="2.895"/>
				<rect x="336.625" y="277.74" style="fill:#F0F0F0;" width="2.895" height="2.895"/>
				<rect x="336.625" y="282.593" style="fill:#F0F0F0;" width="2.895" height="2.895"/>
				<rect x="336.625" y="287.446" style="fill:#F0F0F0;" width="2.895" height="2.895"/>
				<rect x="336.625" y="292.299" style="fill:#F0F0F0;" width="2.895" height="2.895"/>
				<rect x="336.625" y="297.152" style="fill:#F0F0F0;" width="2.895" height="2.895"/>
				<rect x="336.625" y="302.005" style="fill:#F0F0F0;" width="2.895" height="2.895"/>
				<rect x="336.625" y="306.858" style="fill:#F0F0F0;" width="2.895" height="2.895"/>
				<rect x="336.625" y="316.565" style="fill:#F0F0F0;" width="2.895" height="2.895"/>
				<rect x="336.625" y="321.418" style="fill:#F0F0F0;" width="2.895" height="2.895"/>
				<rect x="336.625" y="326.271" style="fill:#F0F0F0;" width="2.895" height="2.895"/>
				<rect x="336.625" y="331.124" style="fill:#F0F0F0;" width="2.895" height="2.895"/>
				<rect x="336.625" y="340.83" style="fill:#F0F0F0;" width="2.895" height="2.895"/>
				<rect x="362.508" y="295.194" style="fill:#F0F0F0;" width="2.895" height="2.895"/>
				<rect x="362.508" y="300.047" style="fill:#F0F0F0;" width="2.895" height="2.895"/>
				<rect x="362.508" y="304.9" style="fill:#F0F0F0;" width="2.895" height="2.895"/>
				<rect x="362.508" y="309.753" style="fill:#F0F0F0;" width="2.895" height="2.895"/>
				<rect x="362.508" y="314.606" style="fill:#F0F0F0;" width="2.895" height="2.895"/>
				<rect x="362.508" y="319.459" style="fill:#F0F0F0;" width="2.895" height="2.895"/>
				<rect x="362.508" y="324.312" style="fill:#F0F0F0;" width="2.895" height="2.895"/>
				<rect x="362.508" y="334.019" style="fill:#F0F0F0;" width="2.895" height="2.895"/>
				<rect x="362.508" y="338.871" style="fill:#F0F0F0;" width="2.895" height="2.895"/>
				<rect x="362.508" y="343.725" style="fill:#F0F0F0;" width="2.895" height="2.895"/>
				<rect x="362.508" y="348.578" style="fill:#F0F0F0;" width="2.895" height="2.895"/>
				<rect x="362.508" y="353.431" style="fill:#F0F0F0;" width="2.895" height="2.895"/>
				<rect x="362.508" y="358.284" style="fill:#F0F0F0;" width="2.895" height="2.895"/>
				<rect x="362.508" y="363.137" style="fill:#F0F0F0;" width="2.895" height="2.895"/>
				<rect x="362.508" y="367.99" style="fill:#F0F0F0;" width="2.895" height="2.895"/>
				<rect x="357.91" y="295.194" style="fill:#F0F0F0;" width="2.895" height="2.895"/>
				<rect x="357.91" y="300.047" style="fill:#F0F0F0;" width="2.895" height="2.895"/>
				<rect x="357.91" y="304.9" style="fill:#F0F0F0;" width="2.895" height="2.895"/>
				<rect x="357.91" y="309.753" style="fill:#F0F0F0;" width="2.895" height="2.895"/>
				<rect x="357.91" y="314.606" style="fill:#F0F0F0;" width="2.895" height="2.895"/>
				<rect x="357.91" y="319.459" style="fill:#F0F0F0;" width="2.895" height="2.895"/>
				<rect x="357.91" y="334.019" style="fill:#F0F0F0;" width="2.895" height="2.895"/>
				<rect x="357.91" y="338.871" style="fill:#F0F0F0;" width="2.895" height="2.895"/>
				<rect x="357.91" y="343.725" style="fill:#F0F0F0;" width="2.895" height="2.895"/>
				<rect x="357.91" y="348.578" style="fill:#F0F0F0;" width="2.895" height="2.895"/>
				<rect x="357.91" y="353.431" style="fill:#F0F0F0;" width="2.895" height="2.895"/>
				<rect x="357.91" y="358.284" style="fill:#F0F0F0;" width="2.895" height="2.895"/>
				<rect x="357.91" y="363.137" style="fill:#F0F0F0;" width="2.895" height="2.895"/>
				<rect x="357.91" y="367.99" style="fill:#F0F0F0;" width="2.895" height="2.895"/>
				<rect x="353.313" y="295.194" style="fill:#F0F0F0;" width="2.895" height="2.895"/>
				<rect x="353.313" y="300.047" style="fill:#F0F0F0;" width="2.895" height="2.895"/>
				<rect x="353.313" y="304.9" style="fill:#F0F0F0;" width="2.895" height="2.895"/>
				<rect x="353.313" y="309.753" style="fill:#F0F0F0;" width="2.895" height="2.895"/>
				<rect x="353.313" y="314.606" style="fill:#F0F0F0;" width="2.895" height="2.895"/>
				<rect x="353.313" y="319.459" style="fill:#F0F0F0;" width="2.895" height="2.895"/>
				<rect x="353.313" y="329.165" style="fill:#F0F0F0;" width="2.895" height="2.895"/>
				<rect x="353.313" y="334.019" style="fill:#F0F0F0;" width="2.895" height="2.895"/>
				<rect x="353.313" y="338.871" style="fill:#F0F0F0;" width="2.895" height="2.895"/>
				<rect x="353.313" y="343.725" style="fill:#F0F0F0;" width="2.895" height="2.895"/>
				<rect x="353.313" y="348.578" style="fill:#F0F0F0;" width="2.895" height="2.895"/>
				<rect x="353.313" y="353.431" style="fill:#F0F0F0;" width="2.895" height="2.895"/>
				<rect x="353.313" y="358.284" style="fill:#F0F0F0;" width="2.895" height="2.895"/>
				<rect x="353.313" y="363.137" style="fill:#F0F0F0;" width="2.895" height="2.895"/>
				<rect x="353.313" y="367.99" style="fill:#F0F0F0;" width="2.895" height="2.895"/>
				<rect x="256.422" y="268.034" style="fill:#F0F0F0;" width="2.895" height="2.895"/>
				<rect x="256.422" y="272.887" style="fill:#F0F0F0;" width="2.895" height="2.895"/>
				<rect x="256.422" y="277.74" style="fill:#F0F0F0;" width="2.895" height="2.895"/>
				<rect x="256.422" y="282.593" style="fill:#F0F0F0;" width="2.895" height="2.895"/>
				<rect x="256.422" y="287.446" style="fill:#F0F0F0;" width="2.895" height="2.895"/>
				<rect x="256.422" y="292.299" style="fill:#F0F0F0;" width="2.895" height="2.895"/>
				<rect x="256.422" y="297.152" style="fill:#F0F0F0;" width="2.895" height="2.895"/>
				<rect x="256.422" y="302.005" style="fill:#F0F0F0;" width="2.895" height="2.895"/>
				<rect x="256.422" y="306.858" style="fill:#F0F0F0;" width="2.895" height="2.895"/>
				<rect x="256.422" y="311.711" style="fill:#F0F0F0;" width="2.895" height="2.895"/>
				<rect x="256.422" y="316.565" style="fill:#F0F0F0;" width="2.895" height="2.895"/>
				<rect x="256.422" y="321.418" style="fill:#F0F0F0;" width="2.895" height="2.895"/>
				<rect x="256.422" y="326.271" style="fill:#F0F0F0;" width="2.895" height="2.895"/>
				<rect x="256.422" y="335.977" style="fill:#F0F0F0;" width="2.895" height="2.895"/>
				<rect x="256.422" y="340.83" style="fill:#F0F0F0;" width="2.895" height="2.895"/>
				<rect x="256.422" y="345.683" style="fill:#F0F0F0;" width="2.895" height="2.895"/>
				<rect x="256.422" y="350.536" style="fill:#F0F0F0;" width="2.895" height="2.895"/>
				<rect x="256.422" y="360.242" style="fill:#F0F0F0;" width="2.895" height="2.895"/>
				<rect x="256.422" y="365.095" style="fill:#F0F0F0;" width="2.895" height="2.895"/>
				<rect x="256.422" y="369.948" style="fill:#F0F0F0;" width="2.895" height="2.895"/>
				<rect x="251.824" y="268.034" style="fill:#F0F0F0;" width="2.895" height="2.895"/>
				<rect x="251.824" y="272.887" style="fill:#F0F0F0;" width="2.895" height="2.895"/>
				<rect x="251.824" y="277.74" style="fill:#F0F0F0;" width="2.895" height="2.895"/>
				<rect x="251.824" y="282.593" style="fill:#F0F0F0;" width="2.895" height="2.895"/>
				<rect x="251.824" y="287.446" style="fill:#F0F0F0;" width="2.895" height="2.895"/>
				<rect x="251.824" y="292.299" style="fill:#F0F0F0;" width="2.895" height="2.895"/>
				<rect x="251.824" y="297.152" style="fill:#F0F0F0;" width="2.895" height="2.895"/>
				<rect x="251.824" y="302.005" style="fill:#F0F0F0;" width="2.895" height="2.895"/>
				<rect x="251.824" y="306.858" style="fill:#F0F0F0;" width="2.895" height="2.895"/>
				<rect x="251.824" y="311.711" style="fill:#F0F0F0;" width="2.895" height="2.895"/>
				<rect x="251.824" y="316.565" style="fill:#F0F0F0;" width="2.895" height="2.895"/>
				<rect x="251.824" y="321.418" style="fill:#F0F0F0;" width="2.895" height="2.895"/>
				<rect x="251.824" y="326.271" style="fill:#F0F0F0;" width="2.895" height="2.895"/>
				<rect x="251.824" y="340.83" style="fill:#F0F0F0;" width="2.895" height="2.895"/>
				<rect x="251.824" y="345.683" style="fill:#F0F0F0;" width="2.895" height="2.895"/>
				<rect x="251.824" y="355.389" style="fill:#F0F0F0;" width="2.895" height="2.895"/>
				<rect x="251.824" y="360.242" style="fill:#F0F0F0;" width="2.895" height="2.895"/>
				<rect x="251.824" y="365.095" style="fill:#F0F0F0;" width="2.895" height="2.895"/>
				<rect x="251.824" y="369.948" style="fill:#F0F0F0;" width="2.895" height="2.895"/>
				<rect x="247.226" y="268.034" style="fill:#F0F0F0;" width="2.895" height="2.895"/>
				<rect x="247.226" y="272.887" style="fill:#F0F0F0;" width="2.895" height="2.895"/>
				<rect x="247.226" y="277.74" style="fill:#F0F0F0;" width="2.895" height="2.895"/>
				<rect x="247.226" y="282.593" style="fill:#F0F0F0;" width="2.895" height="2.895"/>
				<rect x="247.226" y="287.446" style="fill:#F0F0F0;" width="2.895" height="2.895"/>
				<rect x="247.226" y="292.299" style="fill:#F0F0F0;" width="2.895" height="2.895"/>
				<rect x="247.226" y="297.152" style="fill:#F0F0F0;" width="2.895" height="2.895"/>
				<rect x="247.226" y="302.005" style="fill:#F0F0F0;" width="2.895" height="2.895"/>
				<rect x="247.226" y="306.858" style="fill:#F0F0F0;" width="2.895" height="2.895"/>
				<rect x="247.226" y="311.711" style="fill:#F0F0F0;" width="2.895" height="2.895"/>
				<rect x="247.226" y="316.565" style="fill:#F0F0F0;" width="2.895" height="2.895"/>
				<rect x="247.226" y="321.418" style="fill:#F0F0F0;" width="2.895" height="2.895"/>
				<rect x="247.226" y="326.271" style="fill:#F0F0F0;" width="2.895" height="2.895"/>
				<rect x="247.226" y="331.124" style="fill:#F0F0F0;" width="2.895" height="2.895"/>
				<rect x="247.226" y="340.83" style="fill:#F0F0F0;" width="2.895" height="2.895"/>
				<rect x="247.226" y="350.536" style="fill:#F0F0F0;" width="2.895" height="2.895"/>
				<rect x="247.226" y="355.389" style="fill:#F0F0F0;" width="2.895" height="2.895"/>
				<rect x="247.226" y="360.242" style="fill:#F0F0F0;" width="2.895" height="2.895"/>
				<rect x="247.226" y="365.095" style="fill:#F0F0F0;" width="2.895" height="2.895"/>
				<rect x="247.226" y="369.948" style="fill:#F0F0F0;" width="2.895" height="2.895"/>
				<rect x="275.153" y="295.705" style="fill:#F0F0F0;" width="2.895" height="2.895"/>
				<rect x="275.153" y="300.558" style="fill:#F0F0F0;" width="2.895" height="2.895"/>
				<rect x="275.153" y="305.411" style="fill:#F0F0F0;" width="2.895" height="2.895"/>
				<rect x="275.153" y="310.264" style="fill:#F0F0F0;" width="2.895" height="2.895"/>
				<rect x="275.153" y="315.117" style="fill:#F0F0F0;" width="2.895" height="2.895"/>
				<rect x="275.153" y="319.97" style="fill:#F0F0F0;" width="2.895" height="2.895"/>
				<rect x="275.153" y="334.53" style="fill:#F0F0F0;" width="2.895" height="2.895"/>
				<rect x="275.153" y="339.383" style="fill:#F0F0F0;" width="2.895" height="2.895"/>
				<rect x="275.153" y="344.236" style="fill:#F0F0F0;" width="2.895" height="2.895"/>
				<rect x="275.153" y="349.089" style="fill:#F0F0F0;" width="2.895" height="2.895"/>
				<rect x="275.153" y="353.942" style="fill:#F0F0F0;" width="2.895" height="2.895"/>
				<rect x="275.153" y="358.795" style="fill:#F0F0F0;" width="2.895" height="2.895"/>
				<rect x="275.153" y="363.648" style="fill:#F0F0F0;" width="2.895" height="2.895"/>
				<rect x="270.555" y="295.705" style="fill:#F0F0F0;" width="2.895" height="2.895"/>
				<rect x="270.555" y="300.558" style="fill:#F0F0F0;" width="2.895" height="2.895"/>
				<rect x="270.555" y="305.411" style="fill:#F0F0F0;" width="2.895" height="2.895"/>
				<rect x="270.555" y="310.264" style="fill:#F0F0F0;" width="2.895" height="2.895"/>
				<rect x="270.555" y="315.117" style="fill:#F0F0F0;" width="2.895" height="2.895"/>
				<rect x="270.555" y="319.97" style="fill:#F0F0F0;" width="2.895" height="2.895"/>
				<rect x="270.555" y="334.53" style="fill:#F0F0F0;" width="2.895" height="2.895"/>
				<rect x="270.555" y="339.383" style="fill:#F0F0F0;" width="2.895" height="2.895"/>
				<rect x="270.555" y="344.236" style="fill:#F0F0F0;" width="2.895" height="2.895"/>
				<rect x="270.555" y="349.089" style="fill:#F0F0F0;" width="2.895" height="2.895"/>
				<rect x="270.555" y="353.942" style="fill:#F0F0F0;" width="2.895" height="2.895"/>
				<rect x="270.555" y="358.795" style="fill:#F0F0F0;" width="2.895" height="2.895"/>
				<rect x="270.555" y="368.501" style="fill:#F0F0F0;" width="2.895" height="2.895"/>
				<rect x="117.811" y="274.334" style="fill:#F0F0F0;" width="2.895" height="2.895"/>
				<rect x="117.811" y="279.187" style="fill:#F0F0F0;" width="2.895" height="2.895"/>
				<rect x="117.811" y="284.04" style="fill:#F0F0F0;" width="2.895" height="2.895"/>
				<rect x="117.811" y="288.893" style="fill:#F0F0F0;" width="2.895" height="2.895"/>
				<rect x="117.811" y="293.746" style="fill:#F0F0F0;" width="2.895" height="2.895"/>
				<rect x="117.811" y="298.599" style="fill:#F0F0F0;" width="2.895" height="2.895"/>
				<rect x="117.811" y="303.453" style="fill:#F0F0F0;" width="2.895" height="2.895"/>
				<rect x="117.811" y="308.306" style="fill:#F0F0F0;" width="2.895" height="2.895"/>
				<rect x="117.811" y="313.159" style="fill:#F0F0F0;" width="2.895" height="2.895"/>
				<rect x="117.811" y="318.012" style="fill:#F0F0F0;" width="2.895" height="2.895"/>
				<rect x="117.811" y="322.865" style="fill:#F0F0F0;" width="2.895" height="2.895"/>
				<rect x="117.811" y="332.571" style="fill:#F0F0F0;" width="2.895" height="2.895"/>
				<rect x="117.811" y="337.424" style="fill:#F0F0F0;" width="2.895" height="2.895"/>
				<rect x="117.811" y="342.277" style="fill:#F0F0F0;" width="2.895" height="2.895"/>
				<rect x="117.811" y="347.13" style="fill:#F0F0F0;" width="2.895" height="2.895"/>
				<rect x="117.811" y="351.984" style="fill:#F0F0F0;" width="2.895" height="2.895"/>
				<rect x="117.811" y="356.836" style="fill:#F0F0F0;" width="2.895" height="2.895"/>
				<rect x="117.811" y="361.69" style="fill:#F0F0F0;" width="2.895" height="2.895"/>
				<rect x="117.811" y="366.543" style="fill:#F0F0F0;" width="2.895" height="2.895"/>
				<rect x="113.213" y="274.334" style="fill:#F0F0F0;" width="2.895" height="2.895"/>
				<rect x="113.213" y="279.187" style="fill:#F0F0F0;" width="2.895" height="2.895"/>
				<rect x="113.213" y="284.04" style="fill:#F0F0F0;" width="2.895" height="2.895"/>
				<rect x="113.213" y="288.893" style="fill:#F0F0F0;" width="2.895" height="2.895"/>
				<rect x="113.213" y="293.746" style="fill:#F0F0F0;" width="2.895" height="2.895"/>
				<rect x="113.213" y="298.599" style="fill:#F0F0F0;" width="2.895" height="2.895"/>
				<rect x="113.213" y="303.453" style="fill:#F0F0F0;" width="2.895" height="2.895"/>
				<rect x="113.213" y="308.306" style="fill:#F0F0F0;" width="2.895" height="2.895"/>
				<rect x="113.213" y="313.159" style="fill:#F0F0F0;" width="2.895" height="2.895"/>
				<rect x="113.213" y="318.012" style="fill:#F0F0F0;" width="2.895" height="2.895"/>
				<rect x="113.213" y="322.865" style="fill:#F0F0F0;" width="2.895" height="2.895"/>
				<rect x="113.213" y="327.718" style="fill:#F0F0F0;" width="2.895" height="2.895"/>
				<rect x="113.213" y="332.571" style="fill:#F0F0F0;" width="2.895" height="2.895"/>
				<rect x="113.213" y="337.424" style="fill:#F0F0F0;" width="2.895" height="2.895"/>
				<rect x="113.213" y="342.277" style="fill:#F0F0F0;" width="2.895" height="2.895"/>
				<rect x="113.213" y="347.13" style="fill:#F0F0F0;" width="2.895" height="2.895"/>
				<rect x="113.213" y="351.984" style="fill:#F0F0F0;" width="2.895" height="2.895"/>
				<rect x="113.213" y="356.836" style="fill:#F0F0F0;" width="2.895" height="2.895"/>
				<rect x="113.213" y="361.69" style="fill:#F0F0F0;" width="2.895" height="2.895"/>
				<rect x="113.213" y="366.543" style="fill:#F0F0F0;" width="2.895" height="2.895"/>
				<rect x="140.458" y="293.236" style="fill:#F0F0F0;" width="2.895" height="2.895"/>
				<rect x="140.458" y="298.089" style="fill:#F0F0F0;" width="2.895" height="2.895"/>
				<rect x="140.458" y="302.942" style="fill:#F0F0F0;" width="2.895" height="2.895"/>
				<rect x="140.458" y="307.795" style="fill:#F0F0F0;" width="2.895" height="2.895"/>
				<rect x="140.458" y="312.648" style="fill:#F0F0F0;" width="2.895" height="2.895"/>
				<rect x="140.458" y="317.501" style="fill:#F0F0F0;" width="2.895" height="2.895"/>
				<rect x="140.458" y="322.354" style="fill:#F0F0F0;" width="2.895" height="2.895"/>
				<rect x="140.458" y="327.207" style="fill:#F0F0F0;" width="2.895" height="2.895"/>
				<rect x="140.458" y="332.06" style="fill:#F0F0F0;" width="2.895" height="2.895"/>
				<rect x="140.458" y="336.913" style="fill:#F0F0F0;" width="2.895" height="2.895"/>
				<rect x="135.861" y="293.236" style="fill:#F0F0F0;" width="2.895" height="2.895"/>
				<rect x="135.861" y="298.089" style="fill:#F0F0F0;" width="2.895" height="2.895"/>
				<rect x="135.861" y="302.942" style="fill:#F0F0F0;" width="2.895" height="2.895"/>
				<rect x="135.861" y="307.795" style="fill:#F0F0F0;" width="2.895" height="2.895"/>
				<rect x="135.861" y="312.648" style="fill:#F0F0F0;" width="2.895" height="2.895"/>
				<rect x="135.861" y="317.501" style="fill:#F0F0F0;" width="2.895" height="2.895"/>
				<rect x="135.861" y="322.354" style="fill:#F0F0F0;" width="2.895" height="2.895"/>
				<rect x="135.861" y="327.207" style="fill:#F0F0F0;" width="2.895" height="2.895"/>
				<rect x="135.861" y="332.06" style="fill:#F0F0F0;" width="2.895" height="2.895"/>
			</g>
		</g>
		<path style="fill:#F0F0F0;" d="M186.992,151.773c0-4.549-3.688-8.237-8.236-8.237c-0.822,0-1.615,0.124-2.365,0.349
			c0.12-0.826,0.185-1.67,0.185-2.529c0-9.633-7.809-17.442-17.442-17.442c-1.098,0-2.171,0.106-3.213,0.3
			c-2.681-4.387-7.5-7.326-13.018-7.326c-8.352,0-15.126,6.71-15.25,15.032c-0.085-0.002-0.168-0.013-0.254-0.013
			c-7.76,0-14.05,6.29-14.05,14.05s6.291,14.05,14.05,14.05h51.599l-0.01-0.012C183.428,159.873,186.992,156.243,186.992,151.773z"
			/>
		<path style="fill:#F0F0F0;" d="M416.303,130.802c0-2.904-2.354-5.259-5.259-5.259c-0.525,0-1.032,0.079-1.51,0.223
			c0.077-0.527,0.118-1.066,0.118-1.614c0-6.15-4.986-11.136-11.136-11.136c-0.701,0-1.386,0.068-2.051,0.192
			c-1.712-2.801-4.789-4.677-8.312-4.677c-5.332,0-9.658,4.285-9.737,9.598c-0.054-0.001-0.107-0.008-0.162-0.008
			c-4.954,0-8.971,4.016-8.971,8.971c0,4.954,4.016,8.971,8.971,8.971h32.945l-0.007-0.007
			C414.027,135.975,416.303,133.657,416.303,130.802z"/>
		<path style="fill:#F0F0F0;" d="M273.718,119.671c0-1.779-1.442-3.221-3.221-3.221c-0.322,0-0.632,0.048-0.925,0.136
			c0.047-0.323,0.072-0.653,0.072-0.989c0-3.768-3.054-6.822-6.822-6.822c-0.429,0-0.849,0.042-1.257,0.118
			c-1.048-1.716-2.933-2.865-5.091-2.865c-3.266,0-5.916,2.625-5.965,5.879c-0.033,0-0.066-0.005-0.099-0.005
			c-3.035,0-5.495,2.461-5.495,5.495c0,3.035,2.46,5.495,5.495,5.495h20.181l-0.004-0.004
			C272.324,122.84,273.718,121.42,273.718,119.671z"/>
	</g>
</g>
<g id="Background_Simple" style="display:none;">
	<g style="display:inline;">
		<path style="fill:#407BFF;" d="M241.039,117.086c-70.552,31.743-6.506,88.317-47.242,119.128s-151.495-4.809-109.272,75.201
			c49.596,93.982,266.781,80.932,313.609-34.344C444.961,161.796,311.591,85.344,241.039,117.086z"/>
		<path style="opacity:0.9;fill:#FFFFFF;" d="M241.039,117.086c-70.552,31.743-6.506,88.317-47.242,119.128
			s-151.495-4.809-109.272,75.201c49.596,93.982,266.781,80.932,313.609-34.344C444.961,161.796,311.591,85.344,241.039,117.086z"/>
	</g>
</g>
<g id="Shadow_1_">
	<ellipse id="_x3C_Path_x3E__359_" style="fill:#F5F5F5;" cx="250" cy="416.238" rx="193.889" ry="11.323"/>
</g>
<g id="Arrows">
	<g>
		<polygon style="fill:#407BFF;" points="407.974,208.265 383.987,209.743 390.202,213.238 258.424,280.87 223.114,267.91 
			116.234,321.3 108.965,324.93 117.384,329.67 126.195,325.27 223.605,276.61 258.954,289.59 398.568,217.942 403.551,220.744 		
			"/>
		<polygon style="fill:#407BFF;" points="403.988,273.491 380,274.969 385.61,278.123 225.217,357.923 217.907,361.563 
			226.347,366.303 235.117,361.943 394.038,282.861 399.565,285.969 		"/>
		<polygon style="fill:#407BFF;" points="305.444,179.47 281.457,180.948 287.067,184.102 126.674,263.903 119.364,267.543 
			127.804,272.283 136.574,267.923 295.494,188.841 301.021,191.949 		"/>
		<polygon style="opacity:0.3;fill:#FFFFFF;" points="407.974,208.265 383.987,209.743 390.202,213.238 258.424,280.87 
			223.114,267.91 116.234,321.3 108.965,324.93 117.384,329.67 126.195,325.27 223.605,276.61 258.954,289.59 398.568,217.942 
			403.551,220.744 		"/>
		<polygon style="opacity:0.7;fill:#FFFFFF;" points="403.988,273.491 380,274.969 385.61,278.123 225.217,357.923 217.907,361.563 
			226.347,366.303 235.117,361.943 394.038,282.861 399.565,285.969 		"/>
		<polygon style="opacity:0.5;fill:#FFFFFF;" points="305.444,179.47 281.457,180.948 287.067,184.102 126.674,263.903 
			119.364,267.543 127.804,272.283 136.574,267.923 295.494,188.841 301.021,191.949 		"/>
	</g>
</g>
<g id="Rock">
	<g>
		<polygon style="fill:#263238;" points="95.977,416.914 388.171,416.914 378.574,406.406 358.395,401.458 350.483,388.316 
			336.241,370.898 318.835,370.898 300.409,393.515 274.545,396.765 236.439,406.406 212.94,411.34 203.888,407.535 
			147.406,412.224 129.472,409.201 		"/>
		<polygon style="opacity:0.7;fill:#FFFFFF;" points="95.977,416.914 388.171,416.914 378.574,406.406 358.395,401.458 
			350.483,388.316 336.241,370.898 318.835,370.898 300.409,393.515 274.545,396.765 236.439,406.406 212.94,411.34 
			203.888,407.535 147.406,412.224 129.472,409.201 		"/>
		<polygon style="opacity:0.2;" points="129.472,409.201 124.538,414.209 144.582,416.238 149.857,414.209 191.264,414.209 
			202.336,408.114 213.746,412.424 211.745,415.264 265.985,412.424 262.209,403.936 274.545,396.765 288.794,401.417 
			292.539,407.414 299.923,410.78 300.409,393.515 318.835,370.898 322.527,380.978 334.736,377.75 322.527,391.013 
			314.429,394.192 312.055,409.408 332.626,402.404 351.352,406.56 358.395,401.458 354.78,409.408 337.11,412.424 331.22,416.914 
			95.977,416.914 		"/>
	</g>
</g>
<g id="Speech_bubble">
	<g>
		<polygon style="fill:#407BFF;" points="288.529,155.656 277.344,155.656 272.93,172.283 		"/>
		<polygon style="opacity:0.8;fill:#FFFFFF;" points="288.529,155.656 277.344,155.656 272.93,172.283 		"/>
		<path style="fill:#407BFF;" d="M249.49,149.714v-40.992c0-5.935,4.812-10.747,10.747-10.747h40.992
			c5.935,0,10.747,4.812,10.747,10.747v40.992c0,5.935-4.812,10.747-10.747,10.747h-40.992
			C254.301,160.461,249.49,155.649,249.49,149.714z"/>
		<path style="opacity:0.8;fill:#FFFFFF;" d="M249.49,149.714v-40.992c0-5.935,4.812-10.747,10.747-10.747h40.992
			c5.935,0,10.747,4.812,10.747,10.747v40.992c0,5.935-4.812,10.747-10.747,10.747h-40.992
			C254.301,160.461,249.49,155.649,249.49,149.714z"/>
		<g>
			<rect x="260.526" y="144.574" style="fill:#263238;" width="14.964" height="5.711"/>
			<rect x="260.526" y="144.574" style="opacity:0.4;fill:#FFFFFF;" width="14.964" height="5.711"/>
			<polygon style="opacity:0.2;" points="274.534,143.387 271.732,150.285 277.962,150.285 			"/>
			<rect x="286.666" y="141.607" style="fill:#263238;" width="14.273" height="8.678"/>
			<rect x="286.666" y="141.607" style="opacity:0.4;fill:#FFFFFF;" width="14.273" height="8.678"/>
			<polygon style="opacity:0.2;" points="287.445,141.607 291.611,150.285 283.797,150.285 285.281,141.607 			"/>
			<polygon style="fill:#407BFF;" points="280.732,109.778 271.237,113.843 280.732,117.777 			"/>
			<rect x="280.362" y="108.777" style="fill:#263238;" width="0.74" height="30.752"/>
			<rect x="280.362" y="108.777" style="opacity:0.2;fill:#FFFFFF;" width="0.74" height="30.752"/>
			<path style="fill:#263238;" d="M281.392,108.811c0,0.364-0.295,0.659-0.659,0.659c-0.364,0-0.659-0.295-0.659-0.659
				s0.295-0.659,0.659-0.659C281.097,108.151,281.392,108.446,281.392,108.811z"/>
			<rect x="274.02" y="136.859" style="fill:#263238;" width="13.425" height="13.425"/>
			<rect x="274.02" y="136.859" style="opacity:0.4;fill:#FFFFFF;" width="13.425" height="13.425"/>
		</g>
	</g>
</g>
<g id="Character">
	<g>
		<g>
			<path style="fill:#263238;" d="M272.177,210.773c0,0,18.542-1.104,22.589-2.238c4.047-1.134,22.198-9.923,22.198-9.923
				l2.582,5.25c0,0-19.779,12.689-24.526,14.312c-4.747,1.623-25.451,5.688-25.451,5.688L272.177,210.773z"/>
			<path style="opacity:0.4;fill:#FFFFFF;" d="M319.55,203.86c0,0-19.78,12.69-24.53,14.31c-3.02,1.04-12.49,3.06-18.99,4.39
				c-3.72,0.76-6.46,1.3-6.46,1.3l1.77-8.85l0.84-4.24c0,0,18.54-1.1,22.59-2.24c4.04-1.13,22.19-9.92,22.19-9.92L319.55,203.86z"/>
		</g>
		<path style="opacity:0.2;" d="M276.03,222.56c-3.72,0.76-6.46,1.3-6.46,1.3l2.216-5.912
			C271.786,217.948,274.92,219.24,276.03,222.56z"/>
		<path style="fill:#263238;" d="M265.328,197.372c-2.015,3.251-6.721,5.189-8.876,7.167c-2.155,1.978-1.162,8.809-15.241,6.778
			c-14.079-2.031-19.354,0.802-19.354,0.802s-0.791-3.063,5.407-5.585c0,0-4.788,0.925-6.152,3.421c0,0-0.309-7.697,6.021-10.051
			c6.33-2.354,5.407-12.112,9.89-17.255c4.483-5.143,16.076-7.89,22.807-3.088C266.56,184.363,267.943,193.152,265.328,197.372z"/>
		<g>
			<path style="fill:#263238;" d="M221.111,273.014c0,0,34.785,0.224,42.052-3.366c7.267-3.59,6.371-38.996,6.371-38.996
				l-30.91,9.857C238.624,240.509,237.727,258.08,221.111,273.014z"/>
			<path style="opacity:0.1;fill:#FFFFFF;" d="M221.111,273.014c0,0,34.785,0.224,42.052-3.366
				c7.267-3.59,6.371-38.996,6.371-38.996l-30.91,9.857C238.624,240.509,237.727,258.08,221.111,273.014z"/>
			<path style="fill:#263238;" d="M244.219,213.331c3.455-0.66,9.419-1.965,12.672-2.014c3.253-0.049,5.647,1.849,6.272,3.379
				s-17.335,7.584-20.1,6.1C240.298,219.311,239.916,214.153,244.219,213.331z"/>
			<path style="opacity:0.1;fill:#FFFFFF;" d="M244.219,213.331c3.455-0.66,9.419-1.965,12.672-2.014
				c3.253-0.049,5.647,1.849,6.272,3.379s-17.335,7.584-20.1,6.1C240.298,219.311,239.916,214.153,244.219,213.331z"/>
		</g>
		<g>
			<path style="fill:#263238;" d="M195.167,412.054l1.432-0.002l0.398-1.768l4.74,2.14h12.01c0,0,1.91-1.92-3.81-3.45
				c-0.26-0.07-0.53-0.17-0.81-0.31c-3.05-1.43-7.39-6.26-7.39-6.26h-6.59c0,0-0.23,0.33-0.54,0.95
				C193.886,404.804,192.643,407.847,195.167,412.054z"/>
			<path style="fill:#FFC2BC;" d="M194.606,403.354c0,0.01,0,0.02,0,0.02c0.87-0.97,4.83,3.29,7.73,4.74
				c2.59,1.29,5.5,1.86,6.79,0.55c-3.05-1.43-7.846-7.674-7.846-7.674h-5.299C195.981,400.99,194.916,402.734,194.606,403.354z"/>
		</g>
		<polyline style="fill:#FFC2BC;" points="200.719,403.936 211.745,380.359 202.214,377.75 195.579,401.015 		"/>
		<path style="fill:#263238;" d="M204.703,399.108c0,0-2.746-0.252-4.908-0.947c-2.551-0.82-3.667-1.81-3.667-1.81
			c3.713-19.665,12.183-50.25,24.712-65.353c15.637-59.882,34.519-69.34,34.519-69.34l16.348,4.283c0,0,0,8.82-5.722,19.898
			c-6.731,13.032-19.817,32.71-29.135,49.095C226.073,353.885,214.041,376.246,204.703,399.108z"/>
		<path style="opacity:0.2;fill:#FFFFFF;" d="M251.675,310.294c-5.07,8.24-10.38,16.81-14.83,24.64
			c-10.77,18.95-22.8,41.31-32.14,64.17c0,0-2.75-0.25-4.91-0.94c-2.55-0.82-3.67-1.81-3.67-1.81
			c3.72-19.67,12.18-50.25,24.71-65.36c4.77-18.24,9.83-31.81,14.58-41.85C238.925,295.125,244.115,302.155,251.675,310.294z"/>
		<g>
			<path style="fill:#263238;" d="M270.214,401.047l1.432-0.002l0.398-1.768l4.74,2.14h12.01c0,0,1.91-1.92-3.81-3.45
				c-0.26-0.07-0.53-0.17-0.81-0.31c-3.05-1.43-7.39-6.26-7.39-6.26h-6.59c0,0-0.23,0.33-0.54,0.95
				C268.934,393.797,267.69,396.84,270.214,401.047z"/>
			<path style="fill:#FFC2BC;" d="M269.654,392.347c0,0.01,0,0.02,0,0.02c0.87-0.97,4.83,3.29,7.73,4.74
				c2.59,1.29,5.5,1.86,6.79,0.55c-3.05-1.43-7.846-7.674-7.846-7.674h-5.299C271.028,389.983,269.964,391.727,269.654,392.347z"/>
		</g>
		<polyline style="fill:#FFC2BC;" points="276.128,392.97 283.109,367.895 273.277,366.896 270.576,390.938 		"/>
		<path style="fill:#263238;" d="M294.462,310.284c-18.726-21.476-52.583-51.292-52.583-51.292l0,0
			c-10.788,9.885-10.123,27.141,1.465,36.075c9.315,7.182,21.981,15.781,38.377,24.555c-8.16,23.971-10.9,49.889-11.191,66.569
			c0,0,1.485,0.854,4.156,1.314c3.193,0.55,5.255-0.023,5.255-0.023c4.727-19.547,12.171-44.817,16.881-63.452
			C298.452,317.875,298.165,313.877,294.462,310.284z"/>
		<path style="opacity:0.2;fill:#FFFFFF;" d="M294.462,310.284c-18.726-21.476-52.583-51.292-52.583-51.292l0,0
			c-10.788,9.885-10.123,27.141,1.465,36.075c9.315,7.182,21.981,15.781,38.377,24.555c-8.16,23.971-10.9,49.889-11.191,66.569
			c0,0,1.485,0.854,4.156,1.314c3.193,0.55,5.255-0.023,5.255-0.023c4.727-19.547,12.171-44.817,16.881-63.452
			C298.452,317.875,298.165,313.877,294.462,310.284z"/>
		<g>
			<path style="fill:#EEC1BB;" d="M317.643,198.667l5.034-6.06l3.946,6.46c0,0-5.631,4.929-7.491,3.508L317.643,198.667z"/>
			<polygon style="fill:#EEC1BB;" points="329.723,192.39 331.299,197.594 326.623,199.067 322.677,192.607 			"/>
		</g>
		<g>
			<polygon style="fill:#407BFF;" points="314.865,198.724 317.753,205.431 320.422,203.912 317.779,197.611 			"/>
			<polygon style="opacity:0.4;fill:#FFFFFF;" points="314.865,198.724 317.753,205.431 320.422,203.912 317.779,197.611 			"/>
		</g>
		<path style="fill:#407BFF;" d="M244.147,215.342c0,0,13.378,5.563,11.86-2.443c0,0,8.815-0.822,15.775-1.582
			c0,0,1.893,17.991-0.656,46.621l1.819,13.846l-10.467,3.163l-3.45-10.043l-4.175,10.567l-21.9-6.84l6.6-13.303
			c0,0-1.062-20.731-6.6-31.94C232.952,223.388,233.917,219.391,244.147,215.342z"/>
		<path style="fill:#EEC1BB;" d="M245.252,200.11c1.222,4.517,2.722,12.792-0.213,15.805c0,0-4.105,3.959,7.817,3.598
			c1.036,2.482,5.05,7.039,5.05,7.039s0.781-7.004-0.046-8.813c3.34-3.208-3.464-5.62-3.464-5.62s-0.595-1.142,0.021-4.652
			L245.252,200.11z"/>
		<path style="opacity:0.2;" d="M248.989,203.112l5.424,4.351c-0.149,0.83-0.25,1.673-0.247,2.492
			c-1.945-0.278-4.745-2.39-5.1-4.405C248.889,204.545,248.86,203.58,248.989,203.112z"/>
		<g>
			<path style="fill:#EEC1BB;" d="M241.395,191.045c1.37,7.293,1.796,10.4,5.957,13.898c6.26,5.262,14.86,2.478,15.682-4.957
				c0.74-6.692-1.625-17.494-9.14-19.902C246.49,177.712,240.025,183.752,241.395,191.045z"/>
			<path style="fill:#263238;" d="M247.666,185.776c-4.025,5.193,4.241,11.165-4.025,10.819c-8.266-0.346-4.907-12.018,0-14.671
				C248.549,179.272,247.666,185.776,247.666,185.776z"/>
			<path style="fill:#263238;" d="M252.947,192.26c0.089,0.617,0.48,1.094,0.876,1.064c0.395-0.029,0.644-0.553,0.555-1.17
				c-0.089-0.617-0.481-1.094-0.876-1.064C253.107,191.119,252.859,191.643,252.947,192.26z"/>
			<path style="fill:#263238;" d="M260.396,191.821c0.089,0.617,0.481,1.094,0.876,1.064c0.395-0.029,0.644-0.553,0.555-1.17
				c-0.089-0.617-0.481-1.094-0.876-1.064C260.556,190.68,260.308,191.204,260.396,191.821z"/>
			<path style="fill:#263238;" d="M260.782,190.698l1.391-0.534C262.172,190.164,261.593,191.376,260.782,190.698z"/>
			<path style="fill:#D4827D;" d="M258.469,192.986c0,0,1.407,2.581,2.72,3.779c-0.689,0.819-2.095,0.572-2.095,0.572
				L258.469,192.986z"/>
			<path style="fill:#263238;" d="M255.945,199.873c0.321,0.034,0.663,0.041,1.026,0.014c0.098-0.007,0.166-0.094,0.151-0.195
				c-0.014-0.099-0.103-0.174-0.204-0.168c-2.65,0.197-4.163-1.604-4.178-1.623c-0.065-0.08-0.179-0.096-0.253-0.035
				c-0.074,0.061-0.082,0.175-0.016,0.254C252.53,198.192,253.747,199.643,255.945,199.873z"/>
			<path style="fill:#263238;" d="M250.868,188.943c0.095,0.002,0.187-0.035,0.254-0.109c1.034-1.157,2.345-0.909,2.36-0.906
				c0.194,0.037,0.376-0.088,0.401-0.285c0.025-0.197-0.115-0.388-0.312-0.428c-0.069-0.013-1.714-0.326-2.997,1.11
				c-0.128,0.143-0.109,0.373,0.042,0.514C250.689,188.907,250.779,188.942,250.868,188.943z"/>
			<path style="fill:#263238;" d="M262.071,188.277c0.09,0.007,0.179-0.019,0.249-0.081c0.144-0.127,0.15-0.355,0.012-0.509
				c-1.376-1.546-3.016-1.383-3.086-1.375c-0.196,0.022-0.325,0.2-0.289,0.399c0.036,0.198,0.224,0.341,0.419,0.32
				c0.064-0.007,1.339-0.115,2.433,1.115C261.881,188.225,261.976,188.27,262.071,188.277z"/>
			<path style="fill:#263238;" d="M253.333,191.137l1.391-0.534C254.723,190.603,254.145,191.815,253.333,191.137z"/>
			<path style="fill:#263238;" d="M250.489,181.734c0,0-1.432,8.596-7.142,10.034c-5.711,1.438-1.075-8.838-1.075-8.838
				s1.199-4.658,8.913-4.658c7.714,0,16.615,7.836,14.143,19.1c0,0,0.424-3.76-1.286-6.722
				C262.332,187.687,260.573,190.239,250.489,181.734z"/>
			<path style="fill:#EEC1BB;" d="M240.687,198.077c0.747,1.495,1.973,2.417,3.101,2.716c1.697,0.45,2.434-1.495,1.868-3.439
				c-0.509-1.749-2.005-4.091-3.663-3.668C240.36,194.103,239.833,196.367,240.687,198.077z"/>
		</g>
		<g>
			<path style="fill:#263238;" d="M242.576,215.126c0,0,2.36,27.295-7.332,45.097c-9.692,17.802-14.256,20.473-14.256,20.473
				l-3.956-7.681c0,0,17.942-20.152,18.497-22.78c0.555-2.628-3.277-27.671-3.277-27.671S237.297,217.7,242.576,215.126z"/>
			<path style="opacity:0.4;fill:#FFFFFF;" d="M235.24,260.22c-9.69,17.81-14.25,20.48-14.25,20.48l-3.96-7.69
				c0,0,17.94-20.15,18.5-22.78c0.16-0.78-0.06-3.55-0.46-7.06c-0.41-3.66-1.01-8.12-1.55-11.95c-0.68-4.83-1.27-8.66-1.27-8.66
				s5.05-4.86,10.33-7.43C242.58,215.13,244.94,242.42,235.24,260.22z"/>
			<path style="fill:#263238;" d="M244.219,213.331c0,0-2.911,0.355-3.566,1.791c-0.655,1.437-6.737,9.002-6.737,9.002l6.366-1.562
				l-3.742,3.312c0,0,3.311,10.309,4.029,19.378c0,0,5.67-15.257,2.007-30.127L244.219,213.331z"/>
			<path style="opacity:0.25;fill:#FFFFFF;" d="M244.219,213.331c0,0-2.911,0.355-3.566,1.791c-0.655,1.437-6.737,9.002-6.737,9.002
				l6.366-1.562l-3.742,3.312c0,0,3.311,10.309,4.029,19.378c0,0,5.67-15.257,2.007-30.127L244.219,213.331z"/>
		</g>
		<g>
			<path style="fill:#263238;" d="M260.304,211.903c0,0,10.025,3.659,11.402,38.628c0,0,2.251-26.703,0.471-39.758L260.304,211.903z
				"/>
			<path style="opacity:0.4;fill:#FFFFFF;" d="M260.304,211.903c0,0,10.025,3.659,11.402,38.628c0,0,2.251-26.703,0.471-39.758
				L260.304,211.903z"/>
			<path style="fill:#263238;" d="M256.452,211.317c0,0,2.11-0.313,3.56-0.544c1.451-0.231,12.688,6.097,12.688,6.097l-5.435,1.078
				l3.956,1.443c0,0,1.389,12.975-0.361,21.118c0,0-3.233-19.352-9.925-27.178C259.019,211.089,256.452,211.317,256.452,211.317z"/>
			<path style="opacity:0.25;fill:#FFFFFF;" d="M256.452,211.317c0,0,2.11-0.313,3.56-0.544c1.451-0.231,12.688,6.097,12.688,6.097
				l-5.435,1.078l3.956,1.443c0,0,1.389,12.975-0.361,21.118c0,0-3.233-19.352-9.925-27.178
				C259.019,211.089,256.452,211.317,256.452,211.317z"/>
		</g>
		<g>
			<path style="fill:#407BFF;" d="M254.396,212.118c0,0,3.934,2.742,3.464,5.62l7.889,0.209
				C265.749,217.948,260.602,212.596,254.396,212.118z"/>
			<path style="fill:#407BFF;" d="M243.465,222.563l9.39-3.05c0,0-4.97-4.01-6.52-6.18l-3.1,2.33c0,0,0,0-0.01,0.01
				C243.155,215.843,242.235,218.123,243.465,222.563z"/>
			<path style="opacity:0.4;fill:#FFFFFF;" d="M254.396,212.118c0,0,3.934,2.742,3.464,5.62l7.889,0.209
				C265.749,217.948,260.602,212.596,254.396,212.118z"/>
			<path style="opacity:0.4;fill:#FFFFFF;" d="M243.465,222.563l9.39-3.05c0,0-4.97-4.01-6.52-6.18l-3.1,2.33c0,0,0,0-0.01,0.01
				C243.155,215.843,242.235,218.123,243.465,222.563z"/>
		</g>
		<g>
			<path style="fill:#EEC1BB;" d="M197.728,243.531l-7.125-3.362l-0.843,7.523c0,0,7.187,2.085,8.272,0.01L197.728,243.531z"/>
			<polygon style="fill:#EEC1BB;" points="184.127,242.953 184.9,248.334 189.76,247.691 190.603,240.169 			"/>
		</g>
		<g>
			<path style="fill:#407BFF;" d="M195.809,173.569c0,0-17.945-7.456-34.331,4.31c-9.519,6.835-15.571,22.57-36.867,16.446
				c0,0,19.403,21.593,32.113,18.899c12.71-2.694,10.161-9.867,35.893-2.837L195.809,173.569z"/>
			
				<rect x="186.829" y="171.598" transform="matrix(0.998 0.0637 -0.0637 0.998 19.0611 -11.3778)" style="fill:#263238;" width="2.395" height="243.489"/>
			<path style="fill:#263238;" d="M197.405,171.814c-0.232,0.88-1.134,1.406-2.014,1.174c-0.88-0.232-1.406-1.134-1.174-2.014
				c0.232-0.88,1.134-1.406,2.014-1.174C197.111,170.032,197.637,170.934,197.405,171.814z"/>
		</g>
		<path style="fill:none;stroke:#263238;stroke-width:0.5;stroke-linecap:round;stroke-linejoin:round;stroke-miterlimit:10;" d="
			M243.176,179.561c0,0-7.7,0.986-10.223,9.389c-2.524,8.403-9.645,8.299-9.645,8.299"/>
		<path style="fill:none;stroke:#263238;stroke-width:0.5;stroke-linecap:round;stroke-linejoin:round;stroke-miterlimit:10;" d="
			M250,178.272c0,0,11.109-1.334,15.749,8.032c5.031,10.157-1.958,14.556-1.958,14.556"/>
		<path style="opacity:0.2;" d="M235.07,243.17c-0.41-3.66-1.01-8.12-1.55-11.95c0.39-0.44,0.82-0.76,1.3-0.95
			C234.82,230.27,237.99,237.71,235.07,243.17z"/>
		<g>
			<path style="fill:#263238;" d="M232.251,222.563c0,0-11.776,18.4-14.413,19.689c-2.637,1.289-18.798,0.714-18.798,0.714
				l-1.078,6.151c0,0,18.468,3.186,23.479,1.415c5.011-1.771,13.329-13.055,13.329-13.055S236.007,226.804,232.251,222.563z"/>
			<path style="opacity:0.4;fill:#FFFFFF;" d="M232.251,222.563c0,0-11.776,18.4-14.413,19.689
				c-2.637,1.289-18.798,0.714-18.798,0.714l-1.078,6.151c0,0,18.468,3.186,23.479,1.415c5.011-1.771,13.329-13.055,13.329-13.055
				S236.007,226.804,232.251,222.563z"/>
		</g>
		<g>
			<polygon style="fill:#407BFF;" points="199.057,249.886 200.004,242.645 196.934,242.586 195.984,249.353 			"/>
			<polygon style="opacity:0.4;fill:#FFFFFF;" points="199.057,249.886 200.004,242.645 196.934,242.586 195.984,249.353 			"/>
		</g>
	</g>
</g>
</svg>
