<?xml version="1.0" encoding="utf-8"?>
<!-- Generator: Adobe Illustrator 27.5.0, SVG Export Plug-In . SVG Version: 6.00 Build 0)  -->
<svg version="1.1" xmlns="http://www.w3.org/2000/svg" xmlns:xlink="http://www.w3.org/1999/xlink" x="0px" y="0px"
	 viewBox="0 0 500 500" style="enable-background:new 0 0 500 500;" xml:space="preserve">
<g id="BACKGROUND">
</g>
<g id="OBJECTS">
	<g>
		<g>
			<g>
				<path style="fill:#2E0300;" d="M410.963,341.914c8.851-7.042,14.549-13.171,20.774-23.633l-0.859-0.511
					c-6.535,10.983-12.228,16.952-22.022,24.54c-0.348,0.054-0.644,0.094-0.868,0.122c0.358-6.278,13.639-21.661,13.776-21.821
					l-0.755-0.655c-0.562,0.648-13.117,15.2-13.972,22.056c-0.489-0.471-1.096-1.279-1.309-2.556
					c-0.411-2.456,0.61-6.94,7.805-14.363l-0.717-0.697c-6.011,6.201-8.727,11.323-8.075,15.225c0.367,2.194,1.708,3.287,2.27,3.658
					l0.017,0.242l0.262-0.019c0.002,0.002,0.003,0.003,0.005,0.005c-3.856,2.929-8.326,6.135-13.687,9.978
					c-3.627,2.6-7.652,5.486-12.156,8.767c-29.416,21.43-20.587,63.574-20.494,63.998l0.977-0.214
					c-0.091-0.417-8.789-41.924,20.105-62.975c4.501-3.279,8.525-6.163,12.15-8.762c5.395-3.867,9.927-7.117,13.863-10.12
					c1.028,0.814,2.881,1.929,5.567,2.127c0.552,0.041,1.109,0.04,1.673,0c3.668-0.261,7.598-2.227,11.709-5.859l-0.662-0.75
					c-4.524,3.998-8.772,5.887-12.622,5.613c-2.253-0.16-3.883-1.057-4.842-1.763c0.124-0.096,0.247-0.191,0.37-0.286
					c4.308-0.704,15.717-3.448,22.525-13.32l-0.824-0.568C425.177,337.74,415.965,340.819,410.963,341.914z"/>
				<path style="fill:#FDCB6A;" d="M414.744,325.021c0.137,1.918-1.307,3.583-3.225,3.719c-1.918,0.136-3.583-1.308-3.719-3.225
					c-0.136-1.918,1.307-3.583,3.225-3.719C412.942,321.659,414.607,323.103,414.744,325.021z"/>
				<path style="fill:#FDCB6A;" d="M422.938,320.581c0.137,1.918-1.307,3.583-3.225,3.719c-1.918,0.137-3.583-1.307-3.719-3.225
					c-0.136-1.918,1.307-3.583,3.225-3.719C421.136,317.219,422.801,318.663,422.938,320.581z"/>
				<path style="fill:#FDCB6A;" d="M433.733,319.404c0.136,1.918-1.308,3.583-3.225,3.719c-1.918,0.137-3.583-1.307-3.719-3.225
					c-0.136-1.918,1.308-3.583,3.225-3.719C431.931,316.043,433.596,317.487,433.733,319.404z"/>
				<path style="fill:#FDCB6A;" d="M433.839,331.805c0.136,1.918-1.308,3.583-3.225,3.719c-1.918,0.136-3.583-1.308-3.719-3.225
					c-0.136-1.918,1.308-3.583,3.225-3.719C432.038,328.444,433.703,329.888,433.839,331.805z"/>
				<path style="fill:#FDCB6A;" d="M429.923,342.166c0.137,1.918-1.307,3.583-3.225,3.719c-1.918,0.137-3.583-1.307-3.719-3.225
					c-0.136-1.918,1.308-3.583,3.225-3.719C428.122,338.804,429.787,340.248,429.923,342.166z"/>
			</g>
			<g>
				<g>
					<path style="fill:#82508D;" d="M334.887,451.487c-6.666-13.253,2.369-31.689,16.927-34.539
						c3.712-0.727,7.633-0.593,11.134-2.025c8.529-3.489,10.922-14.172,12.538-23.245c1.615-9.073,5.181-19.773,14.169-21.813
						c3.102-0.704,6.412-0.187,9.458-1.103c9.85-2.964,13.231-19.229,23.468-18.229c5.373,0.525,8.962,6.402,8.75,11.797
						c-0.212,5.394-3.223,10.253-6.455,14.577c-3.232,4.324-6.849,8.524-8.623,13.623c-2.261,6.5-1.252,13.623-1.828,20.482
						c-0.872,10.382-6.768,21.403-16.889,23.874c-3.152,0.769-6.624,0.706-9.344,2.474c-4.437,2.886-4.843,9.041-6.224,14.151
						c-2.368,8.762-9.318,16.367-18.105,18.642c-8.787,2.274-19.026-1.393-23.659-9.198L334.887,451.487z"/>
				</g>
				<g style="opacity:0.62;">
					<path style="fill:#FFFFFF;" d="M347.592,426.197c5.166-3.496,11.293-4.777,16.982-7.121c6.377-2.627,11.77-6.979,14.693-13.316
						c4.333-9.395,4.351-21.707,13.193-28.449c3.422-2.609,7.521-4.173,11.16-6.445c6.078-3.796,8.039-9.301,12.143-14.731
						c1.638-2.167,3.419-4.012,5.313-5.613c-9.088,0.641-12.614,15.428-21.963,18.241c-3.046,0.917-6.356,0.399-9.458,1.103
						c-8.987,2.04-12.553,12.74-14.169,21.813s-4.008,19.755-12.538,23.245c-3.501,1.432-7.422,1.298-11.134,2.025
						c-12.919,2.53-21.479,17.331-18.586,29.894C335.746,438.768,339.744,431.508,347.592,426.197z"/>
				</g>
				<path style="fill:#2E0300;" d="M346.801,459.839c3.482-3.096,6.851-6.317,10.126-9.627c3.287-3.297,6.482-6.686,9.491-10.23
					c2.989-3.555,5.878-7.217,8.217-11.211c2.299-4.038,4.568-8.129,7.05-12.083c2.49-3.949,5.161-7.802,8.199-11.371
					c1.528-1.775,3.152-3.471,4.896-5.041c1.77-1.572,3.598-2.948,5.105-4.709c3.035-3.496,5.502-7.47,7.801-11.508
					c2.309-4.041,4.373-8.221,6.417-12.408c-3.871,8.447-7.786,17.029-13.783,24.295c-0.787,0.872-1.568,1.756-2.474,2.523
					c-0.87,0.815-1.793,1.477-2.631,2.288c-1.712,1.556-3.308,3.24-4.811,5.003c-2.989,3.546-5.622,7.385-8.083,11.326
					c-2.492,3.929-4.764,7.981-7.095,12.028c-2.403,4.035-5.299,7.729-8.37,11.243C360.69,447.376,353.91,453.815,346.801,459.839z"
					/>
			</g>
		</g>
		<g>
			<g>
				<path style="fill:#2E0300;" d="M90.978,341.914c-8.852-7.042-14.549-13.171-20.774-23.633l0.859-0.511
					c6.535,10.983,12.228,16.952,22.022,24.54c0.348,0.054,0.644,0.094,0.868,0.122c-0.358-6.278-13.639-21.661-13.776-21.821
					l0.755-0.655c0.562,0.648,13.117,15.2,13.972,22.056c0.489-0.471,1.096-1.279,1.31-2.556c0.411-2.456-0.61-6.94-7.805-14.363
					l0.717-0.697c6.011,6.201,8.727,11.323,8.075,15.225c-0.367,2.194-1.708,3.287-2.27,3.658l-0.017,0.242l-0.262-0.019
					c-0.002,0.002-0.003,0.003-0.005,0.005c3.856,2.929,8.326,6.135,13.687,9.978c3.627,2.6,7.652,5.486,12.156,8.767
					c29.416,21.43,20.587,63.574,20.494,63.998l-0.977-0.214c0.091-0.417,8.789-41.924-20.105-62.975
					c-4.501-3.279-8.525-6.163-12.15-8.762c-5.395-3.867-9.927-7.117-13.863-10.12c-1.028,0.814-2.881,1.929-5.567,2.127
					c-0.552,0.041-1.109,0.04-1.673,0c-3.668-0.261-7.598-2.227-11.709-5.859l0.662-0.75c4.523,3.998,8.772,5.887,12.622,5.613
					c2.253-0.16,3.883-1.057,4.842-1.763c-0.124-0.096-0.247-0.191-0.37-0.286c-4.308-0.704-15.717-3.448-22.525-13.32l0.824-0.568
					C76.764,337.74,85.976,340.819,90.978,341.914z"/>
				<path style="fill:#FDCB6A;" d="M87.197,325.021c-0.136,1.918,1.308,3.583,3.225,3.719c1.918,0.136,3.583-1.308,3.719-3.225
					c0.136-1.918-1.308-3.583-3.225-3.719C88.999,321.659,87.334,323.103,87.197,325.021z"/>
				<path style="fill:#FDCB6A;" d="M79.003,320.581c-0.136,1.918,1.308,3.583,3.225,3.719c1.918,0.137,3.583-1.307,3.719-3.225
					c0.136-1.918-1.308-3.583-3.225-3.719C80.805,317.219,79.14,318.663,79.003,320.581z"/>
				<path style="fill:#FDCB6A;" d="M68.209,319.404c-0.136,1.918,1.308,3.583,3.225,3.719c1.918,0.137,3.583-1.307,3.719-3.225
					c0.136-1.918-1.308-3.583-3.225-3.719C70.01,316.043,68.345,317.487,68.209,319.404z"/>
				<path style="fill:#FDCB6A;" d="M68.102,331.805c-0.136,1.918,1.307,3.583,3.225,3.719c1.918,0.136,3.583-1.308,3.719-3.225
					c0.137-1.918-1.307-3.583-3.225-3.719C69.904,328.444,68.238,329.888,68.102,331.805z"/>
				<path style="fill:#FDCB6A;" d="M72.018,342.166c-0.136,1.918,1.308,3.583,3.225,3.719c1.918,0.137,3.583-1.307,3.719-3.225
					c0.137-1.918-1.307-3.583-3.225-3.719C73.82,338.804,72.154,340.248,72.018,342.166z"/>
			</g>
			<g>
				<g>
					<path style="fill:#82508D;" d="M167.054,451.487c6.666-13.253-2.369-31.689-16.927-34.539
						c-3.712-0.727-7.633-0.593-11.134-2.025c-8.529-3.489-10.922-14.172-12.537-23.245c-1.615-9.073-5.182-19.773-14.169-21.813
						c-3.102-0.704-6.412-0.187-9.458-1.103c-9.85-2.964-13.231-19.229-23.468-18.229c-5.373,0.525-8.962,6.402-8.75,11.797
						c0.212,5.394,3.223,10.253,6.455,14.577c3.232,4.324,6.849,8.524,8.623,13.623c2.261,6.5,1.252,13.623,1.828,20.482
						c0.872,10.382,6.769,21.403,16.889,23.874c3.152,0.769,6.624,0.706,9.344,2.474c4.437,2.886,4.843,9.041,6.224,14.151
						c2.368,8.762,9.318,16.367,18.105,18.642c8.787,2.274,19.026-1.393,23.659-9.198L167.054,451.487z"/>
				</g>
				<g style="opacity:0.62;">
					<path style="fill:#FFFFFF;" d="M154.349,426.197c-5.166-3.496-11.293-4.777-16.982-7.121
						c-6.377-2.627-11.77-6.979-14.693-13.316c-4.333-9.395-4.351-21.707-13.193-28.449c-3.422-2.609-7.521-4.173-11.16-6.445
						c-6.078-3.796-8.038-9.301-12.143-14.731c-1.638-2.167-3.419-4.012-5.313-5.613c9.088,0.641,12.614,15.428,21.963,18.241
						c3.046,0.917,6.356,0.399,9.458,1.103c8.987,2.04,12.553,12.74,14.169,21.813c1.615,9.073,4.008,19.755,12.537,23.245
						c3.501,1.432,7.422,1.298,11.134,2.025c12.919,2.53,21.479,17.331,18.586,29.894
						C166.195,438.768,162.197,431.508,154.349,426.197z"/>
				</g>
				<path style="fill:#2E0300;" d="M155.14,459.839c-3.482-3.096-6.851-6.317-10.126-9.627c-3.287-3.297-6.482-6.686-9.491-10.23
					c-2.989-3.555-5.878-7.217-8.217-11.211c-2.299-4.038-4.568-8.129-7.05-12.083c-2.49-3.949-5.161-7.802-8.198-11.371
					c-1.528-1.775-3.152-3.471-4.896-5.041c-1.77-1.572-3.598-2.948-5.105-4.709c-3.035-3.496-5.502-7.47-7.801-11.508
					c-2.309-4.041-4.373-8.221-6.417-12.408c3.871,8.447,7.786,17.029,13.783,24.295c0.787,0.872,1.568,1.756,2.474,2.523
					c0.87,0.815,1.793,1.477,2.631,2.288c1.712,1.556,3.308,3.24,4.811,5.003c2.989,3.546,5.622,7.385,8.083,11.326
					c2.492,3.929,4.764,7.981,7.095,12.028c2.403,4.035,5.299,7.729,8.371,11.243C141.251,447.376,148.031,453.815,155.14,459.839z"
					/>
			</g>
		</g>
	</g>
	<path style="fill:#FDCB6A;" d="M149.828,259.438c3.603,9.225,8.789,17.865,14.999,25.686c6.191,7.848,13.47,14.859,21.485,20.871
		c8.021,6.004,16.798,11.016,26.071,14.749c9.252,3.76,19.004,6.302,28.871,7.158c-9.488-2.8-18.634-6.261-27.358-10.542
		c-8.706-4.307-16.994-9.367-24.737-15.167c-7.749-5.793-14.936-12.323-21.521-19.465
		C161.073,275.562,155.18,267.758,149.828,259.438z"/>
	<path style="opacity:0.17;fill:#FDCB6A;" d="M71.253,237.199c0-115.928,79.52-209.907,177.613-209.907
		c98.093,0,177.613,93.978,177.613,209.907S248.867,447.105,248.867,447.105S71.253,353.127,71.253,237.199z"/>
	<g>
		<g>
			<path style="fill:#C9614A;" d="M108.612,227.123c0,0,18.605-14.14,23.07-12.651c4.465,1.488,11.907,13.395-11.907,24.558
				C119.775,239.03,101.17,234.565,108.612,227.123z"/>
			<path style="opacity:0.19;fill:#FFFFFF;" d="M133.456,215.521c0.35,10.297-6.734,17.687-14.865,23.19
				c0.733,0.211,1.184,0.319,1.184,0.319C140.566,229.284,137.533,218.973,133.456,215.521z"/>
			<path style="fill:#C9614A;" d="M85.542,224.891c0,0,23.07-27.535,28.279-29.024c5.209-1.488,18.605-13.396,20.837-11.907
				c2.233,1.488,16.372,15.628-17.116,33.489c0,0-6.698,26.047-26.791,31.256L85.542,224.891z"/>
			<path style="opacity:0.19;fill:#FFFFFF;" d="M127.233,200.788c-5.117,5.471-11.626,9.907-15.93,16.088
				c-6.906,9.918-10.664,21.803-21.572,27.169l1.019,4.659c20.093-5.209,26.791-31.256,26.791-31.256
				c27.548-14.692,22.867-26.865,19.097-31.55C134.458,191.393,131.383,196.351,127.233,200.788z"/>
			<path style="fill:#C9614A;" d="M80.36,203.197c0,0,20.805-29.284,25.88-31.182c5.074-1.898,17.48-14.834,19.824-13.528
				c2.344,1.306,17.564,14.276-14.397,34.745c0,0-4.604,26.497-24.218,33.289L80.36,203.197z"/>
			<path style="opacity:0.19;fill:#FFFFFF;" d="M129.258,161.536c-0.514,0.558-1.031,1.112-1.544,1.67
				c-6.057,11.092-15.455,19.78-22.162,30.786c-5.026,8.249-7.956,18.936-14.457,26.144c0.45,1.363,0.856,2.747,1.208,4.144
				c15.533-9.04,19.363-31.049,19.363-31.049C135.721,177.827,133.051,166.67,129.258,161.536z"/>
			<path style="fill:#C9614A;" d="M146.566,469.731c0,0,9.674-75.164,1.488-93.769c-8.186-18.605-72.187-69.21-72.187-69.21
				s-2.233-10.419,0.744-15.628c2.977-5.209,49.861-39.442,49.861-39.442s23.07,23.07,33.489,26.791
				c10.419,3.721,55.07,37.21,51.35,74.42c-3.721,37.21,5.209,119.816,5.209,119.816L146.566,469.731z"/>
			<path style="opacity:0.19;fill:#FFFFFF;" d="M128.92,268.378c0.621,1.962,1.54,3.868,2.834,5.685
				c3,4.213,7.243,7.31,11.854,9.696c0.853-0.56,1.957-0.662,3.088,0.13c0.998,0.699,2.031,1.323,3.083,1.909
				c0.654-0.129,1.377-0.059,2.126,0.323c0.336,0.198,0.685,0.368,1.03,0.548c0.823-0.345,1.779-0.358,2.691,0.196
				c0.146,0.089,0.296,0.165,0.443,0.251c0.327-0.005,0.668,0.038,1.024,0.17c0.745,0.276,1.495,0.512,2.245,0.748
				c0.882-1.014,2.29-1.449,3.731-0.425c11.221,7.974,19.891,18.696,26.414,30.76c11.456,21.187,16.994,45.113,21.068,68.75
				c-0.308-12.904-0.166-24.971,0.76-34.227c3.721-37.21-40.931-70.699-51.35-74.42c-7.303-2.608-20.812-14.715-28.245-21.728
				C131.246,260.73,130.336,264.674,128.92,268.378z"/>
			<path style="opacity:0.25;fill:#8D4328;" d="M210.065,444.314c-21.367,29.782-44.351-32.088-50.137-47.019
				c-5.219-13.467-10.582-29.728-21.125-40.102c-1.421-1.398-7.606-5.483-9.936-4.368c9.26,9.105,16.733,17.56,19.188,23.138
				c8.186,18.605-1.488,93.769-1.488,93.769l66.83,2.844c-0.537-10.383-0.628-20.793-1.432-31.153
				C211.363,442.405,210.739,443.374,210.065,444.314z"/>
			<path style="fill:#C9614A;" d="M81.821,287.403c0,0-22.326-55.071-21.582-62.513c0.744-7.442-0.744-78.885,5.954-76.652
				c6.698,2.233,17.861,2.233,17.117,38.698l6.698,46.14l20.837,34.233C110.844,267.31,101.914,301.543,81.821,287.403z"/>
			<path style="opacity:0.19;fill:#FFFFFF;" d="M77.459,192.357c0.289,14.222,4.532,28.158,11.106,40.696
				c3.651,6.963,7.688,14.034,12.916,19.943c0.634,0.716,1.281,1.419,1.937,2.113l-13.411-22.033l-6.698-46.14
				c0.744-36.466-10.419-36.466-17.117-38.698c-0.665-0.222-1.248,0.293-1.762,1.39C78.939,154.68,77.21,180.105,77.459,192.357z"/>
			<path style="fill:#C9614A;" d="M75.849,305.937c0,0-15.427-50.996-11.921-69.884c0,0,20.211,53.613,21.613,64.001
				C86.944,310.442,78.654,311.603,75.849,305.937z"/>
			<path style="fill:#C9614A;" d="M142.101,327.59c0,0-13.395-23.814-16.372-32.745c-2.977-8.93-51.349-50.605-36.466-64.745
				s31.256,11.163,41.675,24.558c10.419,13.396,29.024,23.814,29.024,23.814S187.497,346.194,142.101,327.59z"/>
			<path style="opacity:0.19;fill:#FFFFFF;" d="M127.904,257.756c4.871,7.212,11.285,13.66,17.921,19.249
				c4.418,3.72,10.779,8.642,17.147,9.919c-1.632-5.055-3.011-8.451-3.011-8.451s-18.605-10.419-29.024-23.814
				c-7.361-9.464-17.694-24.87-28.375-28.111C113.853,232.17,122.061,249.105,127.904,257.756z"/>
			<g style="opacity:0.57;">
				<path style="fill:#8D4328;" d="M82.225,287.174l-17.09-46.812c-0.087-0.238-0.35-0.36-0.588-0.273
					c-0.237,0.087-0.36,0.35-0.273,0.588l17.116,46.885l0.072,0.129c0.124,0.154,3.048,3.791,6.037,6.034
					c0.082,0.062,0.179,0.091,0.275,0.091c0.139,0,0.277-0.064,0.367-0.183c0.151-0.202,0.11-0.49-0.092-0.642
					C85.353,290.968,82.613,287.65,82.225,287.174z"/>
				<path style="fill:#8D4328;" d="M130.618,305.837l-4.465-11.162l-0.101-0.154c-0.402-0.402-40.179-40.399-39.24-58.293
					c0.13-2.464,1.051-4.407,2.739-5.773l0.106-0.123c0.015-0.024,0.774-1.26,2.274-2.496l0.029,0.129l0.578-0.496
					c0.016-0.013,0.189-0.164,0.483-0.429c1.27-0.818,2.898-1.508,4.896-1.661c6.25-0.48,13.492,4.211,21.505,13.941
					c0.16,0.196,0.45,0.221,0.644,0.062c0.196-0.161,0.224-0.449,0.063-0.645c-2.809-3.412-5.533-6.203-8.166-8.398
					c0.011-0.018,0.031-0.026,0.04-0.046l5.954-12.651c0.108-0.229,0.01-0.502-0.219-0.61c-0.228-0.107-0.502-0.009-0.609,0.22
					l-5.88,12.493c-4.802-3.827-9.291-5.599-13.417-5.279c-0.967,0.075-1.847,0.268-2.653,0.529
					c4.621-4.553,13.894-14.764,16.114-25.314c0.052-0.247-0.106-0.491-0.354-0.543c-0.242-0.05-0.49,0.106-0.542,0.354
					c-2.578,12.249-14.956,24.106-17.848,26.739c-0.012,0.008-0.022,0.016-0.034,0.023l-6.525-29.001
					c-0.055-0.246-0.302-0.402-0.548-0.346c-0.247,0.056-0.403,0.301-0.347,0.548l6.608,29.371c-1.66,1.267-2.579,2.63-2.79,2.967
					c-1.859,1.534-2.874,3.682-3.015,6.387c-0.404,7.708,6.132,19.987,19.427,36.496c9.445,11.728,19.118,21.523,20.013,22.425
					l4.431,11.076c0.072,0.179,0.243,0.288,0.425,0.288c0.056,0,0.115-0.011,0.17-0.033
					C130.599,306.339,130.712,306.072,130.618,305.837z"/>
			</g>
			<g style="opacity:0.63;">
				<path style="fill:#8D4328;" d="M194.938,410.653c-0.081,0-0.162-0.021-0.235-0.065c-0.217-0.13-0.288-0.412-0.158-0.628
					c6.472-10.786-2.867-24.67-2.962-24.808c-0.142-0.208-0.089-0.494,0.12-0.637c0.208-0.141,0.493-0.09,0.637,0.12
					c0.098,0.144,9.762,14.513,2.991,25.797C195.245,410.574,195.093,410.653,194.938,410.653z"/>
			</g>
			<path style="fill:#82508D;" d="M86.812,236.229c0,0,9.893,19.918,19.567,13.22c9.674-6.698-5.954-23.814-5.954-23.814
				S85.105,223.008,86.812,236.229z"/>
			<path style="opacity:0.34;fill:#FFFFFF;" d="M96.79,230.503c4.747,4.04,9.685,10.621,11.414,17.169
				c5.46-7.527-7.778-22.037-7.778-22.037s-6.59-1.13-10.645,1.823C92.375,227.2,94.868,228.867,96.79,230.503z"/>
			<path style="fill:#82508D;" d="M61.727,172.797c0,0,11.907-0.744,4.465-24.559C66.193,148.238,59.495,144.517,61.727,172.797z"/>
			<path style="opacity:0.34;fill:#FFFFFF;" d="M66.193,148.238c0,0-0.366-0.199-0.896-0.151c1.377,7.693,1.747,15.431-0.031,23.074
				C68.046,168.759,70.755,162.836,66.193,148.238z"/>
			<path style="fill:#82508D;" d="M109.359,169.576c0,0,6.826,6.778,17.193-10.462C126.553,159.114,125.208,153.084,109.359,169.576
				z"/>
			<path style="fill:#82508D;" d="M119.153,193.695c0,0,6.184,6.141,15.577-9.478C134.729,184.217,133.511,178.754,119.153,193.695z
				"/>
		</g>
		<g>
			<path style="fill:#C9614A;" d="M391.388,227.123c0,0-18.605-14.14-23.07-12.651c-4.465,1.488-11.907,13.395,11.907,24.558
				C380.225,239.03,398.83,234.565,391.388,227.123z"/>
			<path style="opacity:0.19;fill:#FFFFFF;" d="M366.544,215.521c-0.35,10.297,6.734,17.687,14.865,23.19
				c-0.733,0.211-1.184,0.319-1.184,0.319C359.434,229.284,362.467,218.973,366.544,215.521z"/>
			<path style="fill:#C9614A;" d="M414.458,224.891c0,0-23.07-27.535-28.279-29.024c-5.209-1.488-18.605-13.396-20.838-11.907
				c-2.233,1.488-16.372,15.628,17.117,33.489c0,0,6.698,26.047,26.791,31.256L414.458,224.891z"/>
			<path style="opacity:0.19;fill:#FFFFFF;" d="M372.767,200.788c5.117,5.471,11.625,9.907,15.929,16.088
				c6.906,9.918,10.664,21.803,21.572,27.169l-1.019,4.659c-20.093-5.209-26.791-31.256-26.791-31.256
				c-27.548-14.692-22.867-26.865-19.097-31.55C365.542,191.393,368.617,196.351,372.767,200.788z"/>
			<path style="fill:#C9614A;" d="M419.64,203.197c0,0-20.805-29.284-25.88-31.182s-17.48-14.834-19.824-13.528
				c-2.344,1.306-17.564,14.276,14.397,34.745c0,0,4.604,26.497,24.219,33.289L419.64,203.197z"/>
			<path style="opacity:0.19;fill:#FFFFFF;" d="M370.742,161.536c0.514,0.558,1.031,1.112,1.544,1.67
				c6.057,11.092,15.455,19.78,22.162,30.786c5.026,8.249,7.956,18.936,14.457,26.144c-0.45,1.363-0.856,2.747-1.208,4.144
				c-15.533-9.04-19.363-31.049-19.363-31.049C364.279,177.827,366.949,166.67,370.742,161.536z"/>
			<path style="fill:#C9614A;" d="M353.434,469.731c0,0-9.674-75.164-1.488-93.769c8.186-18.605,72.187-69.21,72.187-69.21
				s2.233-10.419-0.744-15.628c-2.977-5.209-49.861-39.442-49.861-39.442s-23.07,23.07-33.489,26.791
				c-10.419,3.721-55.071,37.21-51.35,74.42s-5.209,119.816-5.209,119.816L353.434,469.731z"/>
			<path style="opacity:0.19;fill:#FFFFFF;" d="M371.08,268.378c-0.621,1.962-1.54,3.868-2.834,5.685
				c-3,4.213-7.243,7.31-11.854,9.696c-0.853-0.56-1.957-0.662-3.088,0.13c-0.998,0.699-2.031,1.323-3.083,1.909
				c-0.654-0.129-1.377-0.059-2.126,0.323c-0.336,0.198-0.685,0.368-1.03,0.548c-0.823-0.345-1.779-0.358-2.691,0.196
				c-0.146,0.089-0.296,0.165-0.443,0.251c-0.327-0.005-0.668,0.038-1.024,0.17c-0.745,0.276-1.495,0.512-2.245,0.748
				c-0.883-1.014-2.29-1.449-3.731-0.425c-11.222,7.974-19.891,18.696-26.414,30.76c-11.456,21.187-16.995,45.113-21.068,68.75
				c0.308-12.904,0.166-24.971-0.76-34.227c-3.721-37.21,40.931-70.699,51.35-74.42c7.303-2.608,20.812-14.715,28.245-21.728
				C368.754,260.73,369.664,264.674,371.08,268.378z"/>
			<path style="opacity:0.25;fill:#8D4328;" d="M289.935,444.314c21.367,29.782,44.351-32.088,50.137-47.019
				c5.218-13.467,10.582-29.728,21.125-40.102c1.421-1.398,7.606-5.483,9.936-4.368c-9.26,9.105-16.733,17.56-19.188,23.138
				c-8.186,18.605,1.488,93.769,1.488,93.769l-66.83,2.844c0.538-10.383,0.628-20.793,1.432-31.153
				C288.637,442.405,289.261,443.374,289.935,444.314z"/>
			<path style="fill:#C9614A;" d="M418.179,287.403c0,0,22.326-55.071,21.582-62.513s0.744-78.885-5.954-76.652
				c-6.698,2.233-17.861,2.233-17.116,38.698l-6.698,46.14l-20.838,34.233C389.155,267.31,398.086,301.543,418.179,287.403z"/>
			<path style="opacity:0.19;fill:#FFFFFF;" d="M422.541,192.357c-0.289,14.222-4.532,28.158-11.106,40.696
				c-3.651,6.963-7.688,14.034-12.916,19.943c-0.634,0.716-1.281,1.419-1.937,2.113l13.411-22.033l6.698-46.14
				c-0.744-36.466,10.419-36.466,17.116-38.698c0.665-0.222,1.249,0.293,1.762,1.39C421.061,154.68,422.79,180.105,422.541,192.357z
				"/>
			<path style="fill:#C9614A;" d="M424.151,305.937c0,0,15.427-50.996,11.921-69.884c0,0-20.211,53.613-21.613,64.001
				C413.056,310.442,421.346,311.603,424.151,305.937z"/>
			<path style="fill:#C9614A;" d="M357.899,327.59c0,0,13.396-23.814,16.372-32.745c2.977-8.93,51.35-50.605,36.466-64.745
				c-14.884-14.14-31.256,11.163-41.675,24.558c-10.419,13.396-29.024,23.814-29.024,23.814S312.503,346.194,357.899,327.59z"/>
			<path style="opacity:0.19;fill:#FFFFFF;" d="M372.096,257.756c-4.871,7.212-11.285,13.66-17.922,19.249
				c-4.418,3.72-10.779,8.642-17.147,9.919c1.632-5.055,3.011-8.451,3.011-8.451s18.605-10.419,29.024-23.814
				c7.361-9.464,17.694-24.87,28.375-28.111C386.147,232.17,377.939,249.105,372.096,257.756z"/>
			<g style="opacity:0.57;">
				<path style="fill:#8D4328;" d="M417.775,287.174l17.09-46.812c0.087-0.238,0.35-0.36,0.588-0.273
					c0.237,0.087,0.36,0.35,0.273,0.588l-17.116,46.885l-0.073,0.129c-0.124,0.154-3.047,3.791-6.037,6.034
					c-0.082,0.062-0.179,0.091-0.275,0.091c-0.139,0-0.277-0.064-0.367-0.183c-0.151-0.202-0.11-0.49,0.092-0.642
					C414.647,290.968,417.387,287.65,417.775,287.174z"/>
				<path style="fill:#8D4328;" d="M369.382,305.837l4.465-11.162l0.101-0.154c0.402-0.402,40.179-40.399,39.24-58.293
					c-0.13-2.464-1.051-4.407-2.739-5.773l-0.106-0.123c-0.014-0.024-0.774-1.26-2.274-2.496l-0.029,0.129l-0.578-0.496
					c-0.016-0.013-0.189-0.164-0.483-0.429c-1.27-0.818-2.898-1.508-4.896-1.661c-6.25-0.48-13.492,4.211-21.505,13.941
					c-0.16,0.196-0.45,0.221-0.644,0.062c-0.196-0.161-0.224-0.449-0.063-0.645c2.809-3.412,5.533-6.203,8.166-8.398
					c-0.011-0.018-0.031-0.026-0.04-0.046l-5.954-12.651c-0.108-0.229-0.01-0.502,0.219-0.61c0.228-0.107,0.502-0.009,0.609,0.22
					l5.88,12.493c4.802-3.827,9.291-5.599,13.417-5.279c0.967,0.075,1.847,0.268,2.653,0.529
					c-4.621-4.553-13.894-14.764-16.115-25.314c-0.052-0.247,0.107-0.491,0.354-0.543c0.242-0.05,0.49,0.106,0.542,0.354
					c2.578,12.249,14.956,24.106,17.848,26.739c0.012,0.008,0.023,0.016,0.034,0.023l6.525-29.001
					c0.056-0.246,0.302-0.402,0.548-0.346c0.247,0.056,0.403,0.301,0.347,0.548l-6.608,29.371c1.659,1.267,2.579,2.63,2.79,2.967
					c1.859,1.534,2.874,3.682,3.015,6.387c0.405,7.708-6.132,19.987-19.427,36.496c-9.445,11.728-19.118,21.523-20.013,22.425
					l-4.431,11.076c-0.072,0.179-0.243,0.288-0.425,0.288c-0.056,0-0.115-0.011-0.17-0.033
					C369.401,306.339,369.287,306.072,369.382,305.837z"/>
			</g>
			<g style="opacity:0.63;">
				<path style="fill:#8D4328;" d="M305.062,410.653c0.081,0,0.162-0.021,0.235-0.065c0.217-0.13,0.288-0.412,0.158-0.628
					c-6.472-10.786,2.867-24.67,2.962-24.808c0.142-0.208,0.089-0.494-0.12-0.637c-0.208-0.141-0.493-0.09-0.637,0.12
					c-0.098,0.144-9.762,14.513-2.991,25.797C304.755,410.574,304.907,410.653,305.062,410.653z"/>
			</g>
			<path style="fill:#82508D;" d="M413.188,236.229c0,0-9.893,19.918-19.567,13.22c-9.674-6.698,5.954-23.814,5.954-23.814
				S414.895,223.008,413.188,236.229z"/>
			<path style="opacity:0.34;fill:#FFFFFF;" d="M403.21,230.503c-4.746,4.04-9.685,10.621-11.414,17.169
				c-5.46-7.527,7.778-22.037,7.778-22.037s6.59-1.13,10.645,1.823C407.625,227.2,405.132,228.867,403.21,230.503z"/>
			<path style="fill:#82508D;" d="M438.272,172.797c0,0-11.907-0.744-4.465-24.559C433.807,148.238,440.505,144.517,438.272,172.797
				z"/>
			<path style="opacity:0.34;fill:#FFFFFF;" d="M433.807,148.238c0,0,0.366-0.199,0.896-0.151
				c-1.377,7.693-1.746,15.431,0.031,23.074C431.954,168.759,429.245,162.836,433.807,148.238z"/>
			<path style="fill:#82508D;" d="M390.641,169.576c0,0-6.826,6.778-17.193-10.462C373.447,159.114,374.792,153.084,390.641,169.576
				z"/>
			<path style="fill:#82508D;" d="M380.847,193.695c0,0-6.184,6.141-15.577-9.478C365.271,184.217,366.489,178.754,380.847,193.695z
				"/>
		</g>
	</g>
	<g>
		<path style="fill:#FDCB6A;" d="M365.562,162.844c-1-10.375-3.771-20.612-7.814-30.313c-4.016-9.724-9.374-18.911-15.764-27.3
			c-6.398-8.382-13.847-15.976-22.165-22.418c-8.289-6.462-17.434-11.836-27.179-15.534c8.803,5.558,17.07,11.688,24.675,18.527
			c7.58,6.86,14.519,14.363,20.695,22.458c6.183,8.089,11.587,16.765,16.204,25.886C358.804,143.29,362.531,152.884,365.562,162.844
			z"/>
		<path style="fill:#FDCB6A;" d="M357.743,179.339c0,72.876-49.988,131.953-111.652,131.953
			c-61.664,0-111.652-59.077-111.652-131.953S246.09,47.387,246.09,47.387S357.743,106.464,357.743,179.339z"/>
		
			<ellipse transform="matrix(0.9282 -0.372 0.372 0.9282 -53.2251 105.5388)" style="opacity:0.1;fill:#FFFFFF;" cx="246.902" cy="190.708" rx="46.691" ry="46.691"/>
		<g style="opacity:0.62;">
			<polygon style="fill:#FFFFFF;" points="363.915,190.708 223.928,189.92 363.624,198.965 224.043,188.3 362.744,207.236 
				224.279,186.649 361.27,215.457 224.637,184.993 359.205,223.567 225.117,183.359 356.563,231.509 225.711,181.765 
				353.359,239.234 226.414,180.229 349.615,246.697 227.218,178.76 345.356,253.859 228.116,177.365 340.605,260.688 
				229.103,176.048 335.389,267.153 230.175,174.812 329.731,273.226 231.33,173.658 323.657,278.883 232.566,172.586 
				317.192,284.098 233.883,171.599 310.364,288.848 235.278,170.701 303.201,293.106 236.747,169.898 295.739,296.848 
				238.283,169.195 288.016,300.05 239.876,168.6 280.074,302.692 241.511,168.121 271.967,304.755 243.165,167.763 
				263.749,306.229 244.817,167.527 255.481,307.108 246.435,167.413 247.223,307.399 248.012,167.413 238.966,307.108 
				249.631,167.527 230.695,306.228 251.282,167.763 222.474,304.754 252.938,168.122 214.365,302.69 254.573,168.601 
				206.422,300.047 256.166,169.196 198.697,296.843 257.703,169.898 191.235,293.1 259.172,170.702 184.072,288.84 
				260.566,171.601 177.243,284.09 261.883,172.588 170.779,278.873 263.119,173.66 164.705,273.215 264.274,174.814 
				159.048,267.141 265.345,176.051 153.833,260.677 266.332,177.367 149.084,253.848 267.23,178.762 144.826,246.686 
				268.034,180.231 141.084,239.223 268.736,181.767 137.881,231.5 269.331,183.36 135.239,223.559 269.81,184.995 133.176,215.451 
				270.168,186.65 131.703,207.234 270.404,188.301 130.823,198.966 270.519,189.92 130.533,190.708 270.519,191.496 
				130.823,182.45 270.404,193.115 131.703,174.179 270.168,194.767 133.177,165.958 269.81,196.422 135.242,157.849 
				269.33,198.057 137.885,149.906 268.736,199.65 141.088,142.182 268.033,201.187 144.832,134.719 267.229,202.656 
				149.091,127.556 266.331,204.051 153.842,120.727 265.344,205.367 159.058,114.263 264.272,206.603 164.716,108.189 
				263.117,207.758 170.79,102.533 261.881,208.83 177.255,97.317 260.564,209.816 184.083,92.568 259.169,210.714 191.246,88.31 
				257.7,211.518 198.708,84.568 256.164,212.221 206.431,81.365 254.571,212.815 214.373,78.724 252.936,213.294 222.48,76.66 
				251.282,213.653 230.698,75.187 249.63,213.888 238.966,74.307 248.012,214.003 247.223,74.017 246.435,214.003 255.481,74.307 
				244.816,213.888 263.752,75.187 243.164,213.653 271.973,76.661 241.509,213.294 280.082,78.726 239.874,212.814 288.025,81.369 
				238.281,212.22 295.749,84.573 236.744,211.517 303.212,88.316 235.275,210.713 310.375,92.575 233.881,209.815 317.204,97.326 
				232.564,208.828 323.668,102.542 231.328,207.756 329.742,108.2 230.173,206.601 335.399,114.274 229.102,205.365 
				340.614,120.739 228.115,204.048 345.363,127.567 227.217,202.654 349.621,134.73 226.413,201.185 353.363,142.192 
				225.711,199.648 356.566,149.916 225.116,198.055 359.208,157.857 224.637,196.421 361.271,165.965 224.279,194.766 
				362.744,174.182 224.043,193.115 363.624,182.45 223.928,191.496 			"/>
		</g>
		<g style="opacity:0.62;">
			<polygon style="fill:#FFFFFF;" points="375.961,190.708 235.967,190.35 375.64,199.825 236.021,189.589 374.669,208.952 
				236.135,188.789 373.043,218.019 236.312,187.974 370.766,226.962 236.549,187.165 367.852,235.721 236.843,186.377 
				364.319,244.24 237.188,185.622 360.19,252.471 237.579,184.908 355.491,260.373 238.012,184.236 350.249,267.908 
				238.483,183.608 344.492,275.042 238.991,183.021 338.249,281.745 239.538,182.475 331.545,287.987 240.125,181.966 
				324.411,293.743 240.753,181.495 316.876,298.983 241.425,181.063 308.975,303.681 242.139,180.672 300.744,307.808 
				242.894,180.327 292.226,311.34 243.681,180.033 283.469,314.253 244.491,179.796 274.528,316.529 245.305,179.619 
				265.464,318.154 246.105,179.505 256.341,319.124 246.866,179.451 247.223,319.445 247.581,179.451 238.106,319.124 
				248.342,179.505 228.979,318.153 249.142,179.62 219.912,316.527 249.957,179.796 210.969,314.25 250.766,180.033 
				202.211,311.336 251.554,180.327 193.692,307.803 252.309,180.673 185.46,303.674 253.023,181.064 177.558,298.975 
				253.695,181.496 170.023,293.733 254.323,181.967 162.889,287.977 254.91,182.476 156.187,281.733 255.457,183.022 
				149.944,275.03 255.965,183.609 144.188,267.895 256.436,184.237 138.948,260.361 256.868,184.909 134.251,252.459 
				257.259,185.624 130.123,244.228 257.604,186.378 126.591,235.71 257.898,187.166 123.678,226.953 258.135,187.975 
				121.403,218.012 258.312,188.789 119.778,208.949 258.426,189.589 118.807,199.825 258.48,190.35 118.486,190.708 
				258.48,191.066 118.807,181.59 258.426,191.827 119.778,172.464 258.312,192.627 121.404,163.396 258.135,193.441 
				123.681,154.453 257.898,194.251 126.595,145.695 257.604,195.038 130.128,137.176 257.259,195.793 134.257,128.944 
				256.868,196.508 138.956,121.042 256.435,197.179 144.198,113.508 255.964,197.808 149.955,106.374 255.456,198.394 
				156.199,99.671 254.909,198.941 162.902,93.428 254.322,199.449 170.036,87.673 253.694,199.92 177.571,82.432 253.022,200.353 
				185.472,77.735 252.308,200.744 193.703,73.607 251.553,201.089 202.221,70.076 250.766,201.382 210.978,67.162 249.956,201.62 
				219.919,64.887 249.142,201.796 228.983,63.262 248.342,201.91 238.106,62.292 247.581,201.964 247.223,61.971 246.866,201.964 
				256.341,62.292 246.105,201.91 265.467,63.262 245.305,201.796 274.535,64.888 244.49,201.619 283.478,67.165 243.68,201.382 
				292.236,70.079 242.893,201.088 300.755,73.613 242.138,200.743 308.987,77.742 241.424,200.352 316.889,82.441 240.752,199.92 
				324.424,87.682 240.124,199.449 331.558,93.439 239.537,198.94 338.26,99.683 238.99,198.393 344.503,106.386 238.482,197.807 
				350.258,113.52 238.011,197.178 355.499,121.055 237.579,196.507 360.197,128.957 237.188,195.792 364.324,137.187 
				236.843,195.037 367.856,145.705 236.549,194.25 370.769,154.462 236.312,193.441 373.044,163.403 236.135,192.626 
				374.669,172.467 236.021,191.827 375.64,181.59 235.967,191.066 			"/>
		</g>
		
			<ellipse transform="matrix(0.9264 -0.3766 0.3766 0.9264 -53.6427 107.0244)" style="opacity:0.62;fill:#FFFFFF;" cx="246.902" cy="190.708" rx="26.375" ry="26.375"/>
		<path style="opacity:0.7;fill:#FFFFFF;" d="M231.177,303.205c-13.916-5.098-27.163-12.257-39.152-21.213
			c-6.024-4.443-11.644-9.441-16.922-14.784c-5.241-5.382-10.025-11.222-14.323-17.407c-4.229-6.242-7.923-12.846-10.956-19.743
			c-2.969-6.92-5.412-14.079-6.978-21.438c-3.237-14.659-3.45-30.073,0.223-44.465c-1.604,14.738-0.25,29.504,3.566,43.535
			c1.957,7.001,4.394,13.864,7.504,20.42c3.047,6.58,6.632,12.911,10.762,18.864c4.062,6.011,8.664,11.656,13.62,16.977
			c4.921,5.362,10.308,10.291,15.906,14.985C205.695,288.256,218.115,296.22,231.177,303.205z"/>
		<path style="fill:#FFFFFF;" d="M151.958,199.228c-0.843-10.389,0.081-20.954,2.351-31.216c2.24-10.279,5.896-20.267,10.707-29.65
			c4.821-9.378,10.816-18.165,17.868-25.972c7.021-7.822,15.076-14.723,24.017-20.08c-7.686,7.023-14.744,14.513-21.025,22.584
			c-6.252,8.088-11.761,16.696-16.414,25.752c-4.661,9.052-8.452,18.544-11.39,28.336
			C155.166,178.789,153.187,188.89,151.958,199.228z"/>
		<path style="opacity:0.7;fill:#FFFFFF;" d="M167.899,183.498c-0.522,9.056,0.266,17.952,2.271,26.535
			c2.041,8.57,5.221,16.815,9.429,24.503c4.207,7.703,9.408,14.861,15.256,21.524c5.878,6.648,12.428,12.746,19.34,18.618
			c-8.076-4.143-15.541-9.556-22.155-15.916c-6.636-6.336-12.386-13.702-16.827-21.829c-4.434-8.133-7.523-17.027-8.861-26.173
			C164.979,201.642,165.324,192.219,167.899,183.498z"/>
		<path style="opacity:0.7;fill:#FFFFFF;" d="M260.545,304.017c13.916-5.098,27.163-12.257,39.152-21.213
			c6.024-4.443,11.644-9.441,16.922-14.784c5.241-5.383,10.025-11.222,14.323-17.407c4.229-6.242,7.923-12.846,10.956-19.743
			c2.969-6.92,5.412-14.079,6.978-21.438c3.237-14.659,3.45-30.073-0.223-44.465c1.604,14.739,0.25,29.504-3.566,43.535
			c-1.957,7.001-4.394,13.863-7.504,20.42c-3.047,6.58-6.632,12.911-10.762,18.865c-4.062,6.011-8.664,11.656-13.62,16.977
			c-4.921,5.362-10.308,10.291-15.906,14.985C286.027,289.068,273.607,297.032,260.545,304.017z"/>
		<path style="opacity:0.7;fill:#FFFFFF;" d="M339.764,200.04c0.844-10.389-0.081-20.954-2.351-31.216
			c-2.24-10.279-5.896-20.267-10.707-29.65c-4.821-9.378-10.816-18.166-17.868-25.972c-7.021-7.822-15.076-14.723-24.017-20.08
			c7.686,7.023,14.744,14.513,21.025,22.585c6.252,8.088,11.762,16.696,16.414,25.752c4.661,9.052,8.452,18.544,11.39,28.336
			C336.557,179.601,338.535,189.702,339.764,200.04z"/>
		<path style="fill:#FFFFFF;" d="M323.823,184.31c0.522,9.056-0.266,17.952-2.271,26.535c-2.041,8.57-5.22,16.815-9.428,24.503
			c-4.207,7.703-9.408,14.861-15.256,21.524c-5.878,6.648-12.428,12.747-19.34,18.618c8.076-4.143,15.541-9.555,22.155-15.916
			c6.636-6.337,12.386-13.702,16.827-21.829c4.434-8.133,7.523-17.027,8.861-26.173C326.743,202.454,326.398,193.031,323.823,184.31
			z"/>
		<polygon style="fill:#FFFFFF;" points="223.905,135.538 226.486,140.769 232.258,141.607 228.082,145.679 229.068,151.427 
			223.905,148.713 218.742,151.427 219.728,145.679 215.552,141.607 221.324,140.769 		"/>
		<polygon style="fill:#FFFFFF;" points="213.203,161.069 214.67,164.041 217.95,164.517 215.576,166.831 216.137,170.097 
			213.203,168.555 210.27,170.097 210.83,166.831 208.457,164.517 211.737,164.041 		"/>
		<polygon style="fill:#FFFFFF;" points="269.296,215.397 270.762,218.369 274.042,218.845 271.669,221.158 272.229,224.425 
			269.296,222.883 266.362,224.425 266.923,221.158 264.55,218.845 267.829,218.369 		"/>
		<polygon style="fill:#FFFFFF;" points="257.927,234.073 259.394,237.045 262.674,237.522 260.301,239.835 260.861,243.101 
			257.927,241.559 254.994,243.101 255.554,239.835 253.181,237.522 256.461,237.045 		"/>
		<polygon style="fill:#FFFFFF;" points="273.135,232.803 274.602,235.775 277.882,236.251 275.508,238.564 276.069,241.831 
			273.135,240.289 270.202,241.831 270.762,238.564 268.389,236.251 271.669,235.775 		"/>
		<polygon style="fill:#FFFFFF;" points="256.303,115.519 257.77,118.491 261.049,118.967 258.676,121.28 259.237,124.547 
			256.303,123.004 253.37,124.547 253.93,121.28 251.557,118.967 254.837,118.491 		"/>
		<g style="opacity:0.46;">
			<path style="fill:#FFFFFF;" d="M251.237,137.382c-9.148,7.312-11.524,21.385-6.325,31.878
				c5.2,10.493,16.932,17.014,28.642,17.174c3.978,0.055,8.003-0.562,11.641-2.17c7.882-3.485,13.24-11.488,14.771-19.97
				c1.948-10.791-2.144-22.576-10.65-29.496c-8.506-6.921-21.157-8.47-30.889-3.416l-3.812,4.515L251.237,137.382z"/>
		</g>
		<g style="opacity:0.46;">
			<path style="fill:#FFFFFF;" d="M270.663,176.274c-4.738,3.788-5.97,11.077-3.276,16.513c2.694,5.436,8.771,8.813,14.837,8.896
				c2.06,0.028,4.145-0.291,6.03-1.124c4.083-1.805,6.858-5.951,7.651-10.344c1.009-5.59-1.11-11.694-5.516-15.279
				c-4.406-3.585-10.959-4.387-16-1.77l-1.975,2.339L270.663,176.274z"/>
		</g>
		<g style="opacity:0.46;">
			<path style="fill:#FFFFFF;" d="M270.663,117.809c-4.738,3.788-5.97,11.077-3.276,16.513c2.694,5.436,8.771,8.813,14.837,8.896
				c2.06,0.028,4.145-0.291,6.03-1.124c4.083-1.805,6.858-5.951,7.651-10.344c1.009-5.59-1.11-11.694-5.516-15.279
				c-4.406-3.585-10.959-4.387-16-1.77l-1.975,2.339L270.663,117.809z"/>
		</g>
		<g style="opacity:0.46;">
			<path style="fill:#FFFFFF;" d="M209.762,207.13c-4.738,3.788-5.97,11.077-3.276,16.513c2.694,5.436,8.771,8.813,14.837,8.896
				c2.06,0.028,4.146-0.291,6.03-1.124c4.083-1.805,6.858-5.951,7.651-10.344c1.009-5.59-1.11-11.694-5.517-15.279
				c-4.406-3.585-10.959-4.388-16-1.77l-1.975,2.339L209.762,207.13z"/>
		</g>
		<g style="opacity:0.46;">
			<path style="fill:#FFFFFF;" d="M210.949,230.235c-3.458,2.765-4.357,8.085-2.391,12.052c1.966,3.967,6.402,6.432,10.829,6.493
				c1.504,0.021,3.026-0.212,4.401-0.82c2.98-1.318,5.006-4.343,5.584-7.55c0.737-4.08-0.81-8.535-4.026-11.152
				s-7.999-3.202-11.678-1.292l-1.441,1.707L210.949,230.235z"/>
		</g>
	</g>
	<polygon style="fill:#2E0300;" points="353.447,249.579 354.726,252.171 357.587,252.587 355.517,254.605 356.005,257.454 
		353.447,256.109 350.888,257.454 351.377,254.605 349.307,252.587 352.167,252.171 	"/>
	<g>
		<polygon style="fill:#FDCB6A;" points="250.085,336.614 252.666,341.844 258.438,342.683 254.261,346.754 255.247,352.503 
			250.085,349.789 244.922,352.503 245.908,346.754 241.731,342.683 247.503,341.844 		"/>
		<polygon style="fill:#FDCB6A;" points="116.797,123.32 119.378,128.551 125.151,129.389 120.974,133.46 121.96,139.209 
			116.797,136.495 111.634,139.209 112.62,133.46 108.444,129.389 114.216,128.551 		"/>
		<polygon style="fill:#FDCB6A;" points="392.042,139.598 394.624,144.829 400.396,145.667 396.219,149.739 397.205,155.488 
			392.042,152.773 386.88,155.488 387.866,149.739 383.689,145.667 389.461,144.829 		"/>
		<polygon style="fill:#FDCB6A;" points="267.949,323.473 269.26,326.128 272.19,326.554 270.069,328.621 270.57,331.539 
			267.949,330.161 265.328,331.539 265.829,328.621 263.708,326.554 266.638,326.128 		"/>
		<polygon style="fill:#FDCB6A;" points="268.445,341.873 269.756,344.528 272.686,344.954 270.566,347.021 271.067,349.94 
			268.445,348.562 265.824,349.94 266.325,347.021 264.205,344.954 267.135,344.528 		"/>
		<polygon style="fill:#FDCB6A;" points="386.007,125.876 387.318,128.532 390.248,128.958 388.128,131.025 388.628,133.943 
			386.007,132.565 383.386,133.943 383.887,131.025 381.766,128.958 384.697,128.532 		"/>
		<polygon style="fill:#FDCB6A;" points="101.172,143.797 102.482,146.453 105.413,146.879 103.292,148.946 103.793,151.864 
			101.172,150.486 98.551,151.864 99.051,148.946 96.931,146.879 99.861,146.453 		"/>
		<polygon style="fill:#2E0300;" points="149.395,97.553 151.595,102.012 156.514,102.726 152.954,106.197 153.795,111.096 
			149.395,108.783 144.994,111.096 145.834,106.197 142.274,102.726 147.194,102.012 		"/>
		<polygon style="fill:#2E0300;" points="331.652,65.097 332.932,67.69 335.793,68.105 333.723,70.123 334.211,72.972 
			331.652,71.627 329.094,72.972 329.582,70.123 327.512,68.105 330.373,67.69 		"/>
		<g>
			<path style="opacity:0.17;fill:#FDCB6A;" d="M117.542,142.655c0,2.278-1.846,4.124-4.124,4.124c-2.278,0-4.124-1.846-4.124-4.124
				c0-2.277,1.846-4.124,4.124-4.124C115.696,138.531,117.542,140.378,117.542,142.655z"/>
			<circle style="opacity:0.17;fill:#FDCB6A;" cx="116.417" cy="131.783" r="2.636"/>
			<path style="fill:#FDCB6A;" d="M220.095,400.628c0,0.7-0.568,1.268-1.268,1.268c-0.7,0-1.268-0.568-1.268-1.268
				c0-0.7,0.567-1.268,1.268-1.268C219.528,399.36,220.095,399.928,220.095,400.628z"/>
			<path style="fill:#FDCB6A;" d="M223.701,398.464c0,0.7-0.568,1.268-1.268,1.268c-0.7,0-1.268-0.568-1.268-1.268
				c0-0.7,0.568-1.268,1.268-1.268C223.134,397.197,223.701,397.764,223.701,398.464z"/>
			<circle style="opacity:0.17;fill:#FDCB6A;" cx="403.214" cy="183.519" r="2.636"/>
			<circle style="opacity:0.17;fill:#FDCB6A;" cx="409.212" cy="195.129" r="2.636"/>
			<path style="opacity:0.17;fill:#FDCB6A;" d="M417.096,185.768c0,1.456-1.18,2.636-2.636,2.636c-1.456,0-2.636-1.18-2.636-2.636
				c0-1.456,1.18-2.636,2.636-2.636C415.916,183.132,417.096,184.313,417.096,185.768z"/>
			<path style="fill:#FDCB6A;" d="M224.884,403.512c0,1.052-0.853,1.904-1.904,1.904s-1.904-0.853-1.904-1.904
				c0-1.052,0.853-1.904,1.904-1.904S224.884,402.461,224.884,403.512z"/>
		</g>
	</g>
	<g>
		<path style="fill:#2E0300;" d="M269.204,360.013c0.004,0.148,0.022,0.292,0.022,0.44c0,9.899-8.025,17.923-17.923,17.923
			c-9.899,0-17.923-8.025-17.923-17.923c0-0.149,0.019-0.292,0.022-0.44c-4.311,4.472-6.967,10.55-6.967,17.253
			c0,13.734,11.134,24.868,24.868,24.868s24.868-11.134,24.868-24.868C276.171,370.564,273.515,364.486,269.204,360.013z"/>
		<g style="opacity:0.57;">
			<path style="fill:#FFFFFF;" d="M251.993,399.747c-8.089,0-13.208-3.421-16.078-6.291c-3.116-3.117-4.304-6.225-4.352-6.355
				c-0.193-0.517,0.068-1.093,0.586-1.287c0.512-0.191,1.092,0.067,1.287,0.585c0.182,0.479,4.479,11.349,18.558,11.349
				c14.112,0,18.504-12.685,18.547-12.813c0.175-0.523,0.736-0.809,1.265-0.632c0.523,0.174,0.807,0.74,0.632,1.265
				C272.389,385.709,267.53,399.747,251.993,399.747z"/>
		</g>
		<g>
			<g>
				<path style="fill:#2E0300;" d="M250.494,431.738c-0.276,0-0.5-0.224-0.5-0.5v-21.744c0-0.276,0.224-0.5,0.5-0.5
					c0.276,0,0.5,0.224,0.5,0.5v21.744C250.994,431.514,250.77,431.738,250.494,431.738z"/>
			</g>
			<g>
				<path style="fill:#2E0300;" d="M263.99,424.24c-0.191,0-0.374-0.11-0.457-0.297l-5.999-13.496
					c-0.112-0.252,0.002-0.548,0.254-0.66c0.252-0.111,0.548,0.001,0.66,0.254l5.999,13.496c0.112,0.252-0.002,0.548-0.254,0.66
					C264.126,424.226,264.058,424.24,263.99,424.24z"/>
			</g>
			<g>
				<path style="fill:#2E0300;" d="M237.321,424.24c0.191,0,0.374-0.11,0.457-0.297l5.999-13.496
					c0.112-0.252-0.002-0.548-0.254-0.66c-0.252-0.111-0.548,0.001-0.66,0.254l-5.999,13.496c-0.112,0.252,0.002,0.548,0.254,0.66
					C237.184,424.226,237.252,424.24,237.321,424.24z"/>
			</g>
		</g>
		<g>
			<g>
				<path style="fill:#2E0300;" d="M246.49,62.823c0.276,0,0.5,0.224,0.5,0.5v21.744c0,0.276-0.224,0.5-0.5,0.5
					c-0.276,0-0.5-0.224-0.5-0.5V63.323C245.99,63.047,246.213,62.823,246.49,62.823z"/>
			</g>
			<g>
				<path style="fill:#2E0300;" d="M232.993,70.321c0.191,0,0.374,0.11,0.457,0.297l5.999,13.496
					c0.112,0.252-0.002,0.548-0.254,0.66c-0.252,0.111-0.548-0.001-0.66-0.254l-5.999-13.496c-0.112-0.252,0.002-0.548,0.254-0.66
					C232.857,70.335,232.925,70.321,232.993,70.321z"/>
			</g>
			<g>
				<path style="fill:#2E0300;" d="M259.663,70.321c-0.191,0-0.374,0.11-0.457,0.297l-5.999,13.496
					c-0.112,0.252,0.002,0.548,0.254,0.66c0.252,0.111,0.548-0.001,0.66-0.254l5.999-13.496c0.112-0.252-0.002-0.548-0.254-0.66
					C259.799,70.335,259.731,70.321,259.663,70.321z"/>
			</g>
		</g>
	</g>
	<path style="opacity:0.5;fill:#2E0300;" d="M325.381,137.569l-73.832-42.627l-1.209-1.27l-0.36,0.365l-0.207-0.119l-0.217-0.125
		l-77.731,44.877l-0.217,0.126v90.005l0.673,0.389l-0.007,0.025l0.089,0.022l76.976,44.442l0.217,0.125l77.73-44.877l0.217-0.125
		v-87.284l0.769-2.703l0.12-0.422L325.381,137.569z M326.201,139.044l-20.713,11.959l-1.287-0.743l-22.583-23.727l43.428,11.844
		L326.201,139.044z M305.528,216.613l19.784,11.422l-41.493,10.562L305.528,216.613z M282.189,239.012l-27.789,7.073l48.397-27.942
		L282.189,239.012z M305.922,154.127l8.34,30.773l-8.34,29.325V154.127z M322.092,136.672l-41.631-11.354l-26.795-28.152
		L322.092,136.672z M249.99,95.261l0.137-0.138l0.88,0.508l27.837,29.246l-28.395-7.744l-0.116-0.032l-0.342,0.097V95.261z
		 M249.99,118.1l0.346-0.098l29.664,8.09l21.542,22.633l-51.552-29.764V118.1z M193.189,210.102l-7.371-26.156l7.371-26.394V210.102
		z M193.189,154.327l-7.824,28.013l-11.815-41.924l19.639,11.338V154.327z M185.369,185.553l7.82,27.749v2.537l-19.407,11.205
		L185.369,185.553z M193.623,151.003l-19.808-11.436l43.235-12.184l-22.699,22.986l-0.079,0.08l-0.06,0.214L193.623,151.003z
		 M218.74,126.906l30.382-8.562v0.618l-52.426,30.267L218.74,126.906z M219.974,125.656l29.148-29.517v21.302L219.974,125.656z
		 M248.803,95.228l-30.518,30.904l-44.953,12.668L248.803,95.228z M184.917,183.948l-12.209,43.715l-0.231,0.134v-87.992
		L184.917,183.948z M173.448,228.238l20.175-11.648l0.588,0.34l0.03,0.107l0.031,0.11l22.609,22.323l-43.531-10.882L173.448,228.238
		z M196.803,218.426l48.951,28.261l-27.219-6.804L196.803,218.426z M249.122,272.549L175.424,230l42.671,10.668l31.027,30.634
		V272.549z M249.122,270.083l-29.373-29.002l28.739,7.184l0.635,0.367V270.083z M248.924,247.48l-0.11-0.027l-53.863-31.098
		l-0.894-3.173v-58.738l0.895-3.206l54.603-31.525l54.103,31.236l1.395,1.465v63.424l-53.757,31.037L248.924,247.48z
		 M249.99,272.549v-0.391l0.25,0.247L249.99,272.549z M249.99,270.94v-22.308l1.636-0.945l29.382-7.479l-30.678,31.067
		L249.99,270.94z M250.692,272.144l31.945-32.35l43.078-10.965L250.692,272.144z M306.158,215.975l0.158-0.16l0.079-0.079
		l8.307-29.21l11.047,40.76L306.158,215.975z M326.635,227.237l-11.472-42.33l11.472-40.34V227.237z M326.635,141.396
		l-11.913,41.887l-8.295-30.608l-0.029-0.106l-0.476-0.5v-0.314l20.713-11.959V141.396z"/>
</g>
</svg>
